<?xml version="1.0" encoding="UTF-8" standalone="no"?>
<!DOCTYPE svg PUBLIC "-//W3C//DTD SVG 1.1//EN"
 "http://www.w3.org/Graphics/SVG/1.1/DTD/svg11.dtd">
<!-- Generated by graphviz version 9.0.0 (0)
 -->
<!-- Title: /home/ahussein/Documents/archive/opensourcesourcetrail.github.io/.ignore/src/src/lib/utility/scheduling/Blackboard.h Pages: 1 -->
<!--zoomable 351 -->

<svg id="main" version="1.1" xmlns="http://www.w3.org/2000/svg" xmlns:xlink="http://www.w3.org/1999/xlink" xml:space="preserve" onload="init(evt)">
<style type="text/css"><![CDATA[
.node, .edge {opacity: 0.7;}
.node.selected, .edge.selected {opacity: 1;}
.edge:hover path { stroke: red; }
.edge:hover polygon { stroke: red; fill: red; }
]]></style>

<defs>
  <circle id="rim" cx="0" cy="0" r="7"/>
  <circle id="rim2" cx="0" cy="0" r="3.5"/>
  <g id="zoomPlus">
    <use xlink:href="#rim" fill="#404040"><set attributeName="fill" to="#808080" begin="zoomplus.mouseover" end="zoomplus.mouseout"/></use>
    <path d="M-4,0h8M0,-4v8" fill="none" stroke="white" stroke-width="1.5" pointer-events="none"/>
  </g>
  <g id="zoomMin">
    <use xlink:href="#rim" fill="#404040"><set attributeName="fill" to="#808080" begin="zoomminus.mouseover" end="zoomminus.mouseout"/></use>
    <path d="M-4,0h8" fill="none" stroke="white" stroke-width="1.5" pointer-events="none"/>
  </g>
  <g id="arrowUp" transform="translate(30 24)">
    <use xlink:href="#rim"/>
    <path pointer-events="none" fill="none" stroke="white" stroke-width="1.5" d="M0,-3.0v7 M-2.5,-0.5L0,-3.0L2.5,-0.5"/>
  </g>
  <g id="arrowRight" transform="rotate(90) translate(36 -43)">
    <use xlink:href="#rim"/>
    <path pointer-events="none" fill="none" stroke="white" stroke-width="1.5" d="M0,-3.0v7 M-2.5,-0.5L0,-3.0L2.5,-0.5"/>
  </g>
  <g id="arrowDown" transform="rotate(180) translate(-30 -48)">
    <use xlink:href="#rim"/>
    <path pointer-events="none" fill="none" stroke="white" stroke-width="1.5" d="M0,-3.0v7 M-2.5,-0.5L0,-3.0L2.5,-0.5"/>
  </g>
  <g id="arrowLeft" transform="rotate(270) translate(-36 17)">
    <use xlink:href="#rim"/>
    <path pointer-events="none" fill="none" stroke="white" stroke-width="1.5" d="M0,-3.0v7 M-2.5,-0.5L0,-3.0L2.5,-0.5"/>
  </g>
  <g id="resetDef">
    <use xlink:href="#rim2" fill="#404040"><set attributeName="fill" to="#808080" begin="reset.mouseover" end="reset.mouseout"/></use>
  </g>
</defs>
<script type="application/ecmascript">
var viewWidth = 605;
var viewHeight = 351;
var sectionId = 'dynsection-0';
</script>
<script type="application/ecmascript" xlink:href="svg.min.js"/>
<svg id="graph" class="graph">
<g id="viewport">
<title>/home/ahussein/Documents/archive/opensourcesourcetrail.github.io/.ignore/src/src/lib/utility/scheduling/Blackboard.h</title>
<!-- Node1 -->
<g id="Node000001" class="node">
<title>Node1</title>
<g id="a_Node000001"><a xlink:title=" ">
<polygon fill="#999999" stroke="#666666" points="273.25,-342.75 61.5,-342.75 61.5,-283.75 273.25,-283.75 273.25,-342.75"/>
<text text-anchor="start" x="69.5" y="-329.25" font-family="Helvetica,sans-Serif" font-size="10.00">/home/ahussein/Documents</text>
<text text-anchor="start" x="69.5" y="-316.5" font-family="Helvetica,sans-Serif" font-size="10.00">/archive/opensourcesourcetrail.github.io</text>
<text text-anchor="start" x="69.5" y="-303.75" font-family="Helvetica,sans-Serif" font-size="10.00">/.ignore/src/src/lib/utility/scheduling</text>
<text text-anchor="middle" x="167.38" y="-291" font-family="Helvetica,sans-Serif" font-size="10.00">/Blackboard.h</text>
</a>
</g>
</g>
<!-- Node2 -->
<g id="Node000002" class="node">
<title>Node2</title>
<g id="a_Node000002"><a xlink:title=" ">
<polygon fill="#e0e0e0" stroke="#999999" points="64.75,-247.75 0,-247.75 0,-227 64.75,-227 64.75,-247.75"/>
<text text-anchor="middle" x="32.38" y="-234.25" font-family="Helvetica,sans-Serif" font-size="10.00">functional</text>
</a>
</g>
</g>
<!-- Node1&#45;&gt;Node2 -->
<g id="edge1_Node000001_Node000002" class="edge">
<title>Node1&#45;&gt;Node2</title>
<g id="a_edge1_Node000001_Node000002"><a xlink:title=" ">
<path fill="none" stroke="#63b8ff" d="M114.41,-283.26C95.92,-273.15 75.91,-262.2 60.28,-253.64"/>
<polygon fill="#63b8ff" stroke="#63b8ff" points="62.01,-250.6 51.56,-248.87 58.65,-256.74 62.01,-250.6"/>
</a>
</g>
</g>
<!-- Node3 -->
<g id="Node000003" class="node">
<title>Node3</title>
<g id="a_Node000003"><a xlink:title=" ">
<polygon fill="#e0e0e0" stroke="#999999" points="120.25,-247.75 82.5,-247.75 82.5,-227 120.25,-227 120.25,-247.75"/>
<text text-anchor="middle" x="101.38" y="-234.25" font-family="Helvetica,sans-Serif" font-size="10.00">map</text>
</a>
</g>
</g>
<!-- Node1&#45;&gt;Node3 -->
<g id="edge2_Node000001_Node000003" class="edge">
<title>Node1&#45;&gt;Node3</title>
<g id="a_edge2_Node000001_Node000003"><a xlink:title=" ">
<path fill="none" stroke="#63b8ff" d="M141.67,-283.48C133.57,-274.41 124.85,-264.65 117.61,-256.54"/>
<polygon fill="#63b8ff" stroke="#63b8ff" points="120.44,-254.46 111.17,-249.34 115.22,-259.12 120.44,-254.46"/>
</a>
</g>
</g>
<!-- Node4 -->
<g id="Node000004" class="node">
<title>Node4</title>
<g id="a_Node000004"><a xlink:title=" ">
<polygon fill="#e0e0e0" stroke="#999999" points="282,-77.5 224.75,-77.5 224.75,-56.75 282,-56.75 282,-77.5"/>
<text text-anchor="middle" x="253.38" y="-64" font-family="Helvetica,sans-Serif" font-size="10.00">memory</text>
</a>
</g>
</g>
<!-- Node1&#45;&gt;Node4 -->
<g id="edge3_Node000001_Node000004" class="edge">
<title>Node1&#45;&gt;Node4</title>
<g id="a_edge3_Node000001_Node000004"><a xlink:title=" ">
<path fill="none" stroke="#63b8ff" d="M168.77,-283.28C171.76,-243.03 181.12,-168.91 210.38,-113.5 215.88,-103.07 224.46,-93.32 232.52,-85.55"/>
<polygon fill="#63b8ff" stroke="#63b8ff" points="234.71,-88.29 239.76,-78.97 230,-83.1 234.71,-88.29"/>
</a>
</g>
</g>
<!-- Node5 -->
<g id="Node000005" class="node">
<title>Node5</title>
<g id="a_Node000005"><a xlink:title=" ">
<polygon fill="#e0e0e0" stroke="#999999" points="347.12,-77.5 299.62,-77.5 299.62,-56.75 347.12,-56.75 347.12,-77.5"/>
<text text-anchor="middle" x="323.38" y="-64" font-family="Helvetica,sans-Serif" font-size="10.00">mutex</text>
</a>
</g>
</g>
<!-- Node1&#45;&gt;Node5 -->
<g id="edge4_Node000001_Node000005" class="edge">
<title>Node1&#45;&gt;Node5</title>
<g id="a_edge4_Node000001_Node000005"><a xlink:title=" ">
<path fill="none" stroke="#63b8ff" d="M181.33,-283.36C201.14,-243.53 239.68,-170.23 281.38,-113.5 288.47,-103.84 297.36,-93.98 305.14,-85.93"/>
<polygon fill="#63b8ff" stroke="#63b8ff" points="307.38,-88.64 311.93,-79.07 302.41,-83.71 307.38,-88.64"/>
</a>
</g>
</g>
<!-- Node6 -->
<g id="Node000006" class="node">
<title>Node6</title>
<g id="a_Node000006"><a xlink:title=" ">
<polygon fill="#e0e0e0" stroke="#999999" points="461.25,-20.75 417.5,-20.75 417.5,0 461.25,0 461.25,-20.75"/>
<text text-anchor="middle" x="439.38" y="-7.25" font-family="Helvetica,sans-Serif" font-size="10.00">string</text>
</a>
</g>
</g>
<!-- Node1&#45;&gt;Node6 -->
<g id="edge5_Node000001_Node000006" class="edge">
<title>Node1&#45;&gt;Node6</title>
<g id="a_edge5_Node000001_Node000006"><a xlink:title=" ">
<path fill="none" stroke="#63b8ff" d="M160.73,-283.37C155.25,-257.02 148.38,-216.92 148.38,-181.62 148.38,-181.62 148.38,-181.62 148.38,-122.88 148.38,-81.04 178.45,-76.42 215.38,-56.75 277.26,-23.79 360.44,-14.71 406.03,-12.25"/>
<polygon fill="#63b8ff" stroke="#63b8ff" points="405.97,-15.76 415.8,-11.81 405.65,-8.77 405.97,-15.76"/>
</a>
</g>
</g>
<!-- Node7 -->
<g id="Node000007" class="node">
<title>Node7</title>
<g id="a_Node000007"><a xlink:href="logging_8h.html" target="_top" xlink:title=" ">
<polygon fill="white" stroke="#666666" points="363.88,-247.75 302.88,-247.75 302.88,-227 363.88,-227 363.88,-247.75"/>
<text text-anchor="middle" x="333.38" y="-234.25" font-family="Helvetica,sans-Serif" font-size="10.00">logging.h</text>
</a>
</g>
</g>
<!-- Node1&#45;&gt;Node7 -->
<g id="edge6_Node000001_Node000007" class="edge">
<title>Node1&#45;&gt;Node7</title>
<g id="a_edge6_Node000001_Node000007"><a xlink:title=" ">
<path fill="none" stroke="#63b8ff" d="M232.51,-283.26C256,-272.81 281.5,-261.46 300.99,-252.79"/>
<polygon fill="#63b8ff" stroke="#63b8ff" points="302.32,-256.02 310.04,-248.76 299.48,-249.63 302.32,-256.02"/>
</a>
</g>
</g>
<!-- Node8 -->
<g id="Node000008" class="node">
<title>Node8</title>
<g id="a_Node000008"><a xlink:title=" ">
<polygon fill="#e0e0e0" stroke="#999999" points="449.25,-191 393.5,-191 393.5,-170.25 449.25,-170.25 449.25,-191"/>
<text text-anchor="middle" x="421.38" y="-177.5" font-family="Helvetica,sans-Serif" font-size="10.00">sstream</text>
</a>
</g>
</g>
<!-- Node7&#45;&gt;Node8 -->
<g id="edge7_Node000007_Node000008" class="edge">
<title>Node7&#45;&gt;Node8</title>
<g id="a_edge7_Node000007_Node000008"><a xlink:title=" ">
<path fill="none" stroke="#63b8ff" d="M349.11,-226.59C362.25,-218.41 381.22,-206.61 396.43,-197.15"/>
<polygon fill="#63b8ff" stroke="#63b8ff" points="397.85,-200.38 404.49,-192.13 394.15,-194.44 397.85,-200.38"/>
</a>
</g>
</g>
<!-- Node9 -->
<g id="Node000009" class="node">
<title>Node9</title>
<g id="a_Node000009"><a xlink:href="LogManager_8h.html" target="_top" xlink:title=" ">
<polygon fill="white" stroke="#666666" points="375.88,-191 290.88,-191 290.88,-170.25 375.88,-170.25 375.88,-191"/>
<text text-anchor="middle" x="333.38" y="-177.5" font-family="Helvetica,sans-Serif" font-size="10.00">LogManager.h</text>
</a>
</g>
</g>
<!-- Node7&#45;&gt;Node9 -->
<g id="edge8_Node000007_Node000009" class="edge">
<title>Node7&#45;&gt;Node9</title>
<g id="a_edge8_Node000007_Node000009"><a xlink:title=" ">
<path fill="none" stroke="#63b8ff" d="M333.38,-226.59C333.38,-219.97 333.38,-210.97 333.38,-202.77"/>
<polygon fill="#63b8ff" stroke="#63b8ff" points="336.88,-202.84 333.38,-192.84 329.88,-202.84 336.88,-202.84"/>
</a>
</g>
</g>
<!-- Node9&#45;&gt;Node4 -->
<g id="edge9_Node000009_Node000004" class="edge">
<title>Node9&#45;&gt;Node4</title>
<g id="a_edge9_Node000009_Node000004"><a xlink:title=" ">
<path fill="none" stroke="#63b8ff" d="M318.97,-169.88C307.53,-161.53 291.78,-148.61 281.38,-134.25 271.31,-120.35 263.97,-102.28 259.34,-88.54"/>
<polygon fill="#63b8ff" stroke="#63b8ff" points="262.75,-87.73 256.42,-79.24 256.07,-89.83 262.75,-87.73"/>
</a>
</g>
</g>
<!-- Node10 -->
<g id="Node000010" class="node">
<title>Node10</title>
<g id="a_Node000010"><a xlink:href="LogManagerImplementation_8h.html" target="_top" xlink:title=" ">
<polygon fill="white" stroke="#666666" points="453.88,-134.25 290.88,-134.25 290.88,-113.5 453.88,-113.5 453.88,-134.25"/>
<text text-anchor="middle" x="372.38" y="-120.75" font-family="Helvetica,sans-Serif" font-size="10.00">LogManagerImplementation.h</text>
</a>
</g>
</g>
<!-- Node9&#45;&gt;Node10 -->
<g id="edge10_Node000009_Node000010" class="edge">
<title>Node9&#45;&gt;Node10</title>
<g id="a_edge10_Node000009_Node000010"><a xlink:title=" ">
<path fill="none" stroke="#63b8ff" d="M340.35,-169.84C345.51,-162.6 352.69,-152.51 358.95,-143.72"/>
<polygon fill="#63b8ff" stroke="#63b8ff" points="361.63,-145.99 364.58,-135.81 355.93,-141.93 361.63,-145.99"/>
</a>
</g>
</g>
<!-- Node12 -->
<g id="Node000012" class="node">
<title>Node12</title>
<g id="a_Node000012"><a xlink:href="Logger_8h.html" target="_top" xlink:title=" ">
<polygon fill="white" stroke="#666666" points="530.38,-134.25 472.38,-134.25 472.38,-113.5 530.38,-113.5 530.38,-134.25"/>
<text text-anchor="middle" x="501.38" y="-120.75" font-family="Helvetica,sans-Serif" font-size="10.00">Logger.h</text>
</a>
</g>
</g>
<!-- Node9&#45;&gt;Node12 -->
<g id="edge14_Node000009_Node000012" class="edge">
<title>Node9&#45;&gt;Node12</title>
<g id="a_edge14_Node000009_Node000012"><a xlink:title=" ">
<path fill="none" stroke="#63b8ff" d="M363.41,-169.84C390.73,-160.93 431.25,-147.73 461.32,-137.93"/>
<polygon fill="#63b8ff" stroke="#63b8ff" points="462.02,-141.38 470.44,-134.96 459.85,-134.73 462.02,-141.38"/>
</a>
</g>
</g>
<!-- Node10&#45;&gt;Node4 -->
<g id="edge11_Node000010_Node000004" class="edge">
<title>Node10&#45;&gt;Node4</title>
<g id="a_edge11_Node000010_Node000004"><a xlink:title=" ">
<path fill="none" stroke="#63b8ff" d="M351.1,-113.09C332.66,-104.6 305.71,-92.2 284.78,-82.58"/>
<polygon fill="#63b8ff" stroke="#63b8ff" points="286.39,-79.46 275.84,-78.46 283.46,-85.82 286.39,-79.46"/>
</a>
</g>
</g>
<!-- Node10&#45;&gt;Node5 -->
<g id="edge12_Node000010_Node000005" class="edge">
<title>Node10&#45;&gt;Node5</title>
<g id="a_edge12_Node000010_Node000005"><a xlink:title=" ">
<path fill="none" stroke="#63b8ff" d="M363.61,-113.09C356.93,-105.61 347.52,-95.11 339.49,-86.13"/>
<polygon fill="#63b8ff" stroke="#63b8ff" points="342.35,-84.07 333.07,-78.96 337.13,-88.74 342.35,-84.07"/>
</a>
</g>
</g>
<!-- Node11 -->
<g id="Node000011" class="node">
<title>Node11</title>
<g id="a_Node000011"><a xlink:title=" ">
<polygon fill="#e0e0e0" stroke="#999999" points="411.75,-77.5 365,-77.5 365,-56.75 411.75,-56.75 411.75,-77.5"/>
<text text-anchor="middle" x="388.38" y="-64" font-family="Helvetica,sans-Serif" font-size="10.00">vector</text>
</a>
</g>
</g>
<!-- Node10&#45;&gt;Node11 -->
<g id="edge13_Node000010_Node000011" class="edge">
<title>Node10&#45;&gt;Node11</title>
<g id="a_edge13_Node000010_Node000011"><a xlink:title=" ">
<path fill="none" stroke="#63b8ff" d="M375.24,-113.09C377.21,-106.31 379.92,-97.05 382.37,-88.69"/>
<polygon fill="#63b8ff" stroke="#63b8ff" points="385.67,-89.86 385.11,-79.28 378.95,-87.9 385.67,-89.86"/>
</a>
</g>
</g>
<!-- Node12&#45;&gt;Node6 -->
<g id="edge16_Node000012_Node000006" class="edge">
<title>Node12&#45;&gt;Node6</title>
<g id="a_edge16_Node000012_Node000006"><a xlink:title=" ">
<path fill="none" stroke="#63b8ff" d="M489.52,-113.25C479.83,-104.78 466.45,-91.63 458.38,-77.5 450.3,-63.37 445.44,-45.54 442.66,-31.96"/>
<polygon fill="#63b8ff" stroke="#63b8ff" points="446.15,-31.61 440.92,-22.4 439.26,-32.86 446.15,-31.61"/>
</a>
</g>
</g>
<!-- Node12&#45;&gt;Node11 -->
<g id="edge15_Node000012_Node000011" class="edge">
<title>Node12&#45;&gt;Node11</title>
<g id="a_edge15_Node000012_Node000011"><a xlink:title=" ">
<path fill="none" stroke="#63b8ff" d="M481.17,-113.09C463.82,-104.68 438.54,-92.43 418.75,-82.84"/>
<polygon fill="#63b8ff" stroke="#63b8ff" points="420.29,-79.7 409.76,-78.49 417.24,-86 420.29,-79.7"/>
</a>
</g>
</g>
<!-- Node13 -->
<g id="Node000013" class="node">
<title>Node13</title>
<g id="a_Node000013"><a xlink:href="LogMessage_8h.html" target="_top" xlink:title=" ">
<polygon fill="white" stroke="#666666" points="553.25,-77.5 467.5,-77.5 467.5,-56.75 553.25,-56.75 553.25,-77.5"/>
<text text-anchor="middle" x="510.38" y="-64" font-family="Helvetica,sans-Serif" font-size="10.00">LogMessage.h</text>
</a>
</g>
</g>
<!-- Node12&#45;&gt;Node13 -->
<g id="edge17_Node000012_Node000013" class="edge">
<title>Node12&#45;&gt;Node13</title>
<g id="a_edge17_Node000012_Node000013"><a xlink:title=" ">
<path fill="none" stroke="#63b8ff" d="M502.98,-113.09C504.08,-106.39 505.59,-97.26 506.95,-88.98"/>
<polygon fill="#63b8ff" stroke="#63b8ff" points="510.37,-89.76 508.53,-79.32 503.46,-88.62 510.37,-89.76"/>
</a>
</g>
</g>
<!-- Node13&#45;&gt;Node6 -->
<g id="edge19_Node000013_Node000006" class="edge">
<title>Node13&#45;&gt;Node6</title>
<g id="a_edge19_Node000013_Node000006"><a xlink:title=" ">
<path fill="none" stroke="#63b8ff" d="M497.68,-56.34C487.48,-48.47 472.93,-37.25 460.92,-27.99"/>
<polygon fill="#63b8ff" stroke="#63b8ff" points="463.21,-25.34 453.16,-22 458.94,-30.88 463.21,-25.34"/>
</a>
</g>
</g>
<!-- Node14 -->
<g id="Node000014" class="node">
<title>Node14</title>
<g id="a_Node000014"><a xlink:title=" ">
<polygon fill="#e0e0e0" stroke="#999999" points="596.88,-20.75 547.88,-20.75 547.88,0 596.88,0 596.88,-20.75"/>
<text text-anchor="middle" x="572.38" y="-7.25" font-family="Helvetica,sans-Serif" font-size="10.00">chrono</text>
</a>
</g>
</g>
<!-- Node13&#45;&gt;Node14 -->
<g id="edge18_Node000013_Node000014" class="edge">
<title>Node13&#45;&gt;Node14</title>
<g id="a_edge18_Node000013_Node000014"><a xlink:title=" ">
<path fill="none" stroke="#63b8ff" d="M521.46,-56.34C530.19,-48.63 542.57,-37.7 552.94,-28.54"/>
<polygon fill="#63b8ff" stroke="#63b8ff" points="555.07,-31.32 560.25,-22.08 550.44,-26.08 555.07,-31.32"/>
</a>
</g>
</g>
<!-- Node15 -->
<g id="Node000015" class="node">
<title>Node15</title>
<g id="a_Node000015"><a xlink:title=" ">
<polygon fill="#e0e0e0" stroke="#999999" points="530.12,-20.75 482.62,-20.75 482.62,0 530.12,0 530.12,-20.75"/>
<text text-anchor="middle" x="506.38" y="-7.25" font-family="Helvetica,sans-Serif" font-size="10.00">thread</text>
</a>
</g>
</g>
<!-- Node13&#45;&gt;Node15 -->
<g id="edge20_Node000013_Node000015" class="edge">
<title>Node13&#45;&gt;Node15</title>
<g id="a_edge20_Node000013_Node000015"><a xlink:title=" ">
<path fill="none" stroke="#63b8ff" d="M509.66,-56.34C509.18,-49.72 508.52,-40.72 507.92,-32.52"/>
<polygon fill="#63b8ff" stroke="#63b8ff" points="511.41,-32.31 507.19,-22.59 504.43,-32.82 511.41,-32.31"/>
</a>
</g>
</g>
</g>
</svg>

<g id="navigator" transform="translate(0 0)" fill="#404254">
  <rect fill="#f2f5e9" fill-opacity="0.5" stroke="#606060" stroke-width=".5" x="0" y="0" width="60" height="60"/>
  <use id="zoomplus" xlink:href="#zoomPlus" x="17" y="9" onmousedown="handleZoom(evt,'in')"/>
  <use id="zoomminus" xlink:href="#zoomMin" x="42" y="9" onmousedown="handleZoom(evt,'out')"/>
  <use id="reset" xlink:href="#resetDef" x="30" y="36" onmousedown="handleReset()"/>
   <use id="arrowup" xlink:href="#arrowUp" x="0" y="0" onmousedown="handlePan(0,-1)"/>
  <use id="arrowright" xlink:href="#arrowRight" x="0" y="0" onmousedown="handlePan(1,0)"/>
  <use id="arrowdown" xlink:href="#arrowDown" x="0" y="0" onmousedown="handlePan(0,1)"/>
  <use id="arrowleft" xlink:href="#arrowLeft" x="0" y="0" onmousedown="handlePan(-1,0)"/>
</g>
<svg viewBox="0 0 15 15" width="100%" height="30px" preserveAspectRatio="xMaxYMin meet">
 <g id="arrow_out" transform="scale(0.3 0.3)">
  <a xlink:href="Blackboard_8h__incl_org.svg" target="_base">
   <rect id="button" ry="5" rx="5" y="6" x="6" height="38" width="38"
        fill="#f2f5e9" fill-opacity="0.5" stroke="#606060" stroke-width="1.0"/>
   <path id="arrow"
     d="M 11.500037,31.436501 C 11.940474,20.09759 22.043105,11.32322 32.158766,21.979434 L 37.068811,17.246167 C 37.068811,17.246167 37.088388,32 37.088388,32 L 22.160133,31.978069 C 22.160133,31.978069 26.997745,27.140456 26.997745,27.140456 C 18.528582,18.264221 13.291696,25.230495 11.500037,31.436501 z"
     style="fill:#404040;"/>
  </a>
 </g>
</svg>

<style type='text/css'>
<![CDATA[
[data-mouse-over-selected='false'] { opacity: 0.7; }
[data-mouse-over-selected='true']  { opacity: 1.0; }
]]>
</style>
<script type="application/ecmascript"><![CDATA[
document.addEventListener('DOMContentLoaded', (event) => {
  highlightEdges();
  highlightAdjacentNodes();
});
]]></script>
</svg>
