<?xml version="1.0" encoding="UTF-8" standalone="no"?>
<!DOCTYPE svg PUBLIC "-//W3C//DTD SVG 1.1//EN"
 "http://www.w3.org/Graphics/SVG/1.1/DTD/svg11.dtd">
<!-- Generated by graphviz version 7.1.0 (0)
 -->
<!-- Title: /home/ahussein/Documents/sourceCode/Sourcetrail/src/src/lib/data/bookmark/BookmarkCategory.cpp Pages: 1 -->
<svg width="160pt" height="225pt"
 viewBox="0.00 0.00 160.00 225.00" xmlns="http://www.w3.org/2000/svg" xmlns:xlink="http://www.w3.org/1999/xlink">
<g id="graph0" class="graph" transform="scale(1 1) rotate(0) translate(4 221)">
<title>/home/ahussein/Documents/sourceCode/Sourcetrail/src/src/lib/data/bookmark/BookmarkCategory.cpp</title>
<!-- Node1 -->
<g id="node1" class="node">
<title>Node1</title>
<g id="a_node1"><a xlink:title=" ">
<polygon fill="#999999" stroke="#666666" points="152,-217 0,-217 0,-165 152,-165 152,-217"/>
<text text-anchor="start" x="8" y="-205" font-family="Helvetica,sans-Serif" font-size="10.00">/home/ahussein/Documents</text>
<text text-anchor="start" x="8" y="-194" font-family="Helvetica,sans-Serif" font-size="10.00">/sourceCode/Sourcetrail</text>
<text text-anchor="start" x="8" y="-183" font-family="Helvetica,sans-Serif" font-size="10.00">/src/src/lib/data/bookmark</text>
<text text-anchor="middle" x="76" y="-172" font-family="Helvetica,sans-Serif" font-size="10.00">/BookmarkCategory.cpp</text>
</a>
</g>
</g>
<!-- Node2 -->
<g id="node2" class="node">
<title>Node2</title>
<g id="a_node2"><a xlink:href="$BookmarkCategory_8h.html" xlink:title=" ">
<polygon fill="white" stroke="#666666" points="135.5,-129 16.5,-129 16.5,-110 135.5,-110 135.5,-129"/>
<text text-anchor="middle" x="76" y="-117" font-family="Helvetica,sans-Serif" font-size="10.00">BookmarkCategory.h</text>
</a>
</g>
</g>
<!-- Node1&#45;&gt;Node2 -->
<g id="edge1" class="edge">
<title>Node1&#45;&gt;Node2</title>
<path fill="none" stroke="#63b8ff" d="M76,-164.52C76,-156.67 76,-148.15 76,-140.71"/>
<polygon fill="#63b8ff" stroke="#63b8ff" points="79.5,-140.71 76,-130.71 72.5,-140.71 79.5,-140.71"/>
</g>
<!-- Node3 -->
<g id="node3" class="node">
<title>Node3</title>
<g id="a_node3"><a xlink:title=" ">
<polygon fill="#e0e0e0" stroke="#999999" points="65,-74 21,-74 21,-55 65,-55 65,-74"/>
<text text-anchor="middle" x="43" y="-62" font-family="Helvetica,sans-Serif" font-size="10.00">string</text>
</a>
</g>
</g>
<!-- Node2&#45;&gt;Node3 -->
<g id="edge2" class="edge">
<title>Node2&#45;&gt;Node3</title>
<path fill="none" stroke="#63b8ff" d="M70.55,-109.75C66.23,-102.81 60.04,-92.86 54.62,-84.16"/>
<polygon fill="#63b8ff" stroke="#63b8ff" points="57.62,-82.37 49.37,-75.73 51.68,-86.07 57.62,-82.37"/>
</g>
<!-- Node4 -->
<g id="node4" class="node">
<title>Node4</title>
<g id="a_node4"><a xlink:href="$types_8h.html" xlink:title=" ">
<polygon fill="white" stroke="#666666" points="136.5,-74 83.5,-74 83.5,-55 136.5,-55 136.5,-74"/>
<text text-anchor="middle" x="110" y="-62" font-family="Helvetica,sans-Serif" font-size="10.00">types.h</text>
</a>
</g>
</g>
<!-- Node2&#45;&gt;Node4 -->
<g id="edge3" class="edge">
<title>Node2&#45;&gt;Node4</title>
<path fill="none" stroke="#63b8ff" d="M81.61,-109.75C86.12,-102.73 92.59,-92.64 98.21,-83.87"/>
<polygon fill="#63b8ff" stroke="#63b8ff" points="100.99,-86.02 103.45,-75.72 95.1,-82.24 100.99,-86.02"/>
</g>
<!-- Node5 -->
<g id="node5" class="node">
<title>Node5</title>
<g id="a_node5"><a xlink:title=" ">
<polygon fill="#e0e0e0" stroke="#999999" points="136.5,-19 83.5,-19 83.5,0 136.5,0 136.5,-19"/>
<text text-anchor="middle" x="110" y="-7" font-family="Helvetica,sans-Serif" font-size="10.00">cstddef</text>
</a>
</g>
</g>
<!-- Node4&#45;&gt;Node5 -->
<g id="edge4" class="edge">
<title>Node4&#45;&gt;Node5</title>
<path fill="none" stroke="#63b8ff" d="M110,-54.75C110,-48.27 110,-39.16 110,-30.9"/>
<polygon fill="#63b8ff" stroke="#63b8ff" points="113.5,-30.96 110,-20.96 106.5,-30.96 113.5,-30.96"/>
</g>
</g>
</svg>
