<?xml version="1.0" encoding="UTF-8" standalone="no"?>
<!DOCTYPE svg PUBLIC "-//W3C//DTD SVG 1.1//EN"
 "http://www.w3.org/Graphics/SVG/1.1/DTD/svg11.dtd">
<!-- Generated by graphviz version 7.1.0 (0)
 -->
<!-- Title: NodeTypeSet::add Pages: 1 -->
<!--zoomable 486 -->
<svg id="main" version="1.1" xmlns="http://www.w3.org/2000/svg" xmlns:xlink="http://www.w3.org/1999/xlink" xml:space="preserve" onload="init(evt)">
<style type="text/css"><![CDATA[
.edge:hover path { stroke: red; }
.edge:hover polygon { stroke: red; fill: red; }
]]></style>
<script type="text/javascript"><![CDATA[
var edges = document.getElementsByTagName('g');
if (edges && edges.length) {
  for (var i=0;i<edges.length;i++) {
    if (edges[i].id.substr(0,4)=='edge') {
      edges[i].setAttribute('class','edge');
    }
  }
}
]]></script>
        <defs>
                <circle id="rim" cx="0" cy="0" r="7"/>
                <circle id="rim2" cx="0" cy="0" r="3.5"/>
                <g id="zoomPlus">
                        <use xlink:href="#rim" fill="#404040">
                                <set attributeName="fill" to="#808080" begin="zoomplus.mouseover" end="zoomplus.mouseout"/>
                        </use>
                        <path d="M-4,0h8M0,-4v8" fill="none" stroke="white" stroke-width="1.5" pointer-events="none"/>
                </g>
                <g id="zoomMin">
                        <use xlink:href="#rim" fill="#404040">
                                <set attributeName="fill" to="#808080" begin="zoomminus.mouseover" end="zoomminus.mouseout"/>
                        </use>
                        <path d="M-4,0h8" fill="none" stroke="white" stroke-width="1.5" pointer-events="none"/>
                </g>
                <g id="dirArrow">
                        <path fill="none" stroke="white" stroke-width="1.5" d="M0,-3.0v7 M-2.5,-0.5L0,-3.0L2.5,-0.5"/>
                </g>
               <g id="resetDef">
                       <use xlink:href="#rim2" fill="#404040">
                               <set attributeName="fill" to="#808080" begin="reset.mouseover" end="reset.mouseout"/>
                       </use>
               </g>
        </defs>

<script type="text/javascript">
var viewWidth = 1480;
var viewHeight = 486;
var sectionId = 'dynsection-2';
</script>
<script xlink:href="svgpan.js"/>
<svg id="graph" class="graph">
<g id="viewport">
<title>NodeTypeSet::add</title>
<!-- Node1 -->
<g id="node1" class="node">
<title>Node1</title>
<g id="a_node1"><a xlink:title=" ">
<polygon fill="#999999" stroke="#666666" points="1472,-398.5 1368,-398.5 1368,-379.5 1472,-379.5 1472,-398.5"/>
<text text-anchor="middle" x="1420" y="-386.5" font-family="Helvetica,sans-Serif" font-size="10.00">NodeTypeSet::add</text>
</a>
</g>
</g>
<!-- Node2 -->
<g id="node2" class="node">
<title>Node2</title>
<g id="a_node2"><a xlink:href="classSearchIndex.html#a45cbdde001bda52dadde9710284ca826" target="_top" xlink:title=" ">
<polygon fill="white" stroke="#666666" points="1314.5,-422.5 1188.5,-422.5 1188.5,-403.5 1314.5,-403.5 1314.5,-422.5"/>
<text text-anchor="middle" x="1251.5" y="-410.5" font-family="Helvetica,sans-Serif" font-size="10.00">SearchIndex::addNode</text>
</a>
</g>
</g>
<!-- Node1&#45;&gt;Node2 -->
<g id="edge1" class="edge">
<title>Node1&#45;&gt;Node2</title>
<path fill="none" stroke="#63b8ff" d="M1356.46,-398.02C1342.83,-399.98 1328.4,-402.06 1314.78,-404.02"/>
<polygon fill="#63b8ff" stroke="#63b8ff" points="1356.79,-401.5 1366.19,-396.61 1355.79,-394.58 1356.79,-401.5"/>
</g>
<!-- Node7 -->
<g id="node7" class="node">
<title>Node7</title>
<g id="a_node7"><a xlink:href="classQtSmartSearchBox.html#ac68dbfb705efbd15f968751c55b9d3f2" target="_top" xlink:title=" ">
<polygon fill="white" stroke="#666666" points="1332,-380 1171,-380 1171,-350 1332,-350 1332,-380"/>
<text text-anchor="start" x="1179" y="-368" font-family="Helvetica,sans-Serif" font-size="10.00">QtSmartSearchBox::getMatch</text>
<text text-anchor="middle" x="1251.5" y="-357" font-family="Helvetica,sans-Serif" font-size="10.00">AcceptedNodeTypes</text>
</a>
</g>
</g>
<!-- Node1&#45;&gt;Node7 -->
<g id="edge6" class="edge">
<title>Node1&#45;&gt;Node7</title>
<path fill="none" stroke="#63b8ff" d="M1356.42,-379.98C1348.59,-378.85 1340.49,-377.68 1332.43,-376.52"/>
<polygon fill="#63b8ff" stroke="#63b8ff" points="1355.79,-383.42 1366.19,-381.39 1356.79,-376.5 1355.79,-383.42"/>
</g>
<!-- Node3 -->
<g id="node3" class="node">
<title>Node3</title>
<g id="a_node3"><a xlink:href="classPersistentStorage.html#a7f97bd0e2c92e2d2045006ed1676cfa5" target="_top" xlink:title=" ">
<polygon fill="white" stroke="#666666" points="1104.5,-476 995.5,-476 995.5,-446 1104.5,-446 1104.5,-476"/>
<text text-anchor="start" x="1003.5" y="-464" font-family="Helvetica,sans-Serif" font-size="10.00">PersistentStorage::</text>
<text text-anchor="middle" x="1050" y="-453" font-family="Helvetica,sans-Serif" font-size="10.00">buildSearchIndex</text>
</a>
</g>
</g>
<!-- Node2&#45;&gt;Node3 -->
<g id="edge2" class="edge">
<title>Node2&#45;&gt;Node3</title>
<path fill="none" stroke="#63b8ff" d="M1198.11,-425.61C1169.35,-432.52 1133.77,-441.09 1104.8,-448.06"/>
<polygon fill="#63b8ff" stroke="#63b8ff" points="1198.79,-429.04 1207.69,-423.3 1197.15,-422.24 1198.79,-429.04"/>
</g>
<!-- Node6 -->
<g id="node6" class="node">
<title>Node6</title>
<g id="a_node6"><a xlink:href="classPersistentStorage.html#a4199d28fa4f9a7d2d683161b728acd9c" target="_top" xlink:title=" ">
<polygon fill="white" stroke="#666666" points="1104.5,-428 995.5,-428 995.5,-398 1104.5,-398 1104.5,-428"/>
<text text-anchor="start" x="1003.5" y="-416" font-family="Helvetica,sans-Serif" font-size="10.00">PersistentStorage::</text>
<text text-anchor="middle" x="1050" y="-405" font-family="Helvetica,sans-Serif" font-size="10.00">PersistentStorage</text>
</a>
</g>
</g>
<!-- Node2&#45;&gt;Node6 -->
<g id="edge5" class="edge">
<title>Node2&#45;&gt;Node6</title>
<path fill="none" stroke="#63b8ff" d="M1176.69,-413C1152.84,-413 1126.87,-413 1104.76,-413"/>
<polygon fill="#63b8ff" stroke="#63b8ff" points="1176.68,-416.5 1186.68,-413 1176.68,-409.5 1176.68,-416.5"/>
</g>
<!-- Node4 -->
<g id="node4" class="node">
<title>Node4</title>
<g id="a_node4"><a xlink:href="classPersistentStorage.html#a765e1cba2360c511e1ea811ba5c546b1" target="_top" xlink:title=" ">
<polygon fill="white" stroke="#666666" points="881.5,-477 772.5,-477 772.5,-447 881.5,-447 881.5,-477"/>
<text text-anchor="start" x="780.5" y="-465" font-family="Helvetica,sans-Serif" font-size="10.00">PersistentStorage::</text>
<text text-anchor="middle" x="827" y="-454" font-family="Helvetica,sans-Serif" font-size="10.00">buildCaches</text>
</a>
</g>
</g>
<!-- Node3&#45;&gt;Node4 -->
<g id="edge3" class="edge">
<title>Node3&#45;&gt;Node4</title>
<path fill="none" stroke="#63b8ff" d="M983.99,-461.29C951.42,-461.44 912.47,-461.62 881.64,-461.76"/>
<polygon fill="#63b8ff" stroke="#63b8ff" points="983.72,-464.8 993.71,-461.25 983.69,-457.8 983.72,-464.8"/>
</g>
<!-- Node5 -->
<g id="node5" class="node">
<title>Node5</title>
<g id="a_node5"><a xlink:href="classTaskExecuteCustomCommands.html#af4a74f479f27dcd0117a6f8750eba3ea" target="_top" xlink:title=" ">
<polygon fill="white" stroke="#666666" points="662,-478 492,-478 492,-448 662,-448 662,-478"/>
<text text-anchor="start" x="500" y="-466" font-family="Helvetica,sans-Serif" font-size="10.00">TaskExecuteCustomCommands</text>
<text text-anchor="middle" x="577" y="-455" font-family="Helvetica,sans-Serif" font-size="10.00">::doUpdate</text>
</a>
</g>
</g>
<!-- Node4&#45;&gt;Node5 -->
<g id="edge4" class="edge">
<title>Node4&#45;&gt;Node5</title>
<path fill="none" stroke="#63b8ff" d="M760.96,-462.26C730.82,-462.38 694.64,-462.53 662.43,-462.66"/>
<polygon fill="#63b8ff" stroke="#63b8ff" points="760.69,-465.76 770.67,-462.22 760.66,-458.76 760.69,-465.76"/>
</g>
<!-- Node8 -->
<g id="node8" class="node">
<title>Node8</title>
<g id="a_node8"><a xlink:href="classQtSmartSearchBox.html#a4ea238ff8f8deaf667fc18203436ec8b" target="_top" xlink:title=" ">
<polygon fill="white" stroke="#666666" points="1126,-380 974,-380 974,-350 1126,-350 1126,-380"/>
<text text-anchor="start" x="982" y="-368" font-family="Helvetica,sans-Serif" font-size="10.00">QtSmartSearchBox::request</text>
<text text-anchor="middle" x="1050" y="-357" font-family="Helvetica,sans-Serif" font-size="10.00">AutoCompletions</text>
</a>
</g>
</g>
<!-- Node7&#45;&gt;Node8 -->
<g id="edge7" class="edge">
<title>Node7&#45;&gt;Node8</title>
<path fill="none" stroke="#63b8ff" d="M1159.18,-365C1148.24,-365 1137.16,-365 1126.48,-365"/>
<polygon fill="#63b8ff" stroke="#63b8ff" points="1158.99,-368.5 1168.99,-365 1158.99,-361.5 1158.99,-368.5"/>
</g>
<!-- Node19 -->
<g id="node19" class="node">
<title>Node19</title>
<g id="a_node19"><a xlink:href="classQtSmartSearchBox.html#aee74b24a835e4a0739b61109aef533d9" target="_top" xlink:title=" ">
<polygon fill="white" stroke="#666666" points="1135,-284.5 965,-284.5 965,-265.5 1135,-265.5 1135,-284.5"/>
<text text-anchor="middle" x="1050" y="-272.5" font-family="Helvetica,sans-Serif" font-size="10.00">QtSmartSearchBox::startSearch</text>
</a>
</g>
</g>
<!-- Node7&#45;&gt;Node19 -->
<g id="edge21" class="edge">
<title>Node7&#45;&gt;Node19</title>
<path fill="none" stroke="#63b8ff" d="M1205.88,-344.87C1164.62,-326.26 1105.02,-299.37 1073.12,-284.98"/>
<polygon fill="#63b8ff" stroke="#63b8ff" points="1204.27,-347.98 1214.83,-348.91 1207.15,-341.6 1204.27,-347.98"/>
</g>
<!-- Node9 -->
<g id="node9" class="node">
<title>Node9</title>
<g id="a_node9"><a xlink:href="classQtSmartSearchBox.html#a6474d870d5163a4279cd7b4e45af0439" target="_top" xlink:title=" ">
<polygon fill="white" stroke="#666666" points="898.5,-280.5 755.5,-280.5 755.5,-261.5 898.5,-261.5 898.5,-280.5"/>
<text text-anchor="middle" x="827" y="-268.5" font-family="Helvetica,sans-Serif" font-size="10.00">QtSmartSearchBox::event</text>
</a>
</g>
</g>
<!-- Node8&#45;&gt;Node9 -->
<g id="edge8" class="edge">
<title>Node8&#45;&gt;Node9</title>
<path fill="none" stroke="#63b8ff" d="M1002.64,-345.28C956.4,-325.62 887.25,-296.2 851.41,-280.96"/>
<polygon fill="#63b8ff" stroke="#63b8ff" points="1001.04,-348.4 1011.61,-349.1 1003.78,-341.96 1001.04,-348.4"/>
</g>
<!-- Node12 -->
<g id="node12" class="node">
<title>Node12</title>
<g id="a_node12"><a xlink:href="classQtSmartSearchBox.html#a42acffd3ed003ed9dca6c0eb45ec2caa" target="_top" xlink:title=" ">
<polygon fill="white" stroke="#666666" points="656,-382 498,-382 498,-352 656,-352 656,-382"/>
<text text-anchor="start" x="506" y="-370" font-family="Helvetica,sans-Serif" font-size="10.00">QtSmartSearchBox::keyPress</text>
<text text-anchor="middle" x="577" y="-359" font-family="Helvetica,sans-Serif" font-size="10.00">Event</text>
</a>
</g>
</g>
<!-- Node8&#45;&gt;Node12 -->
<g id="edge17" class="edge">
<title>Node8&#45;&gt;Node12</title>
<path fill="none" stroke="#63b8ff" d="M962.08,-365.37C874.54,-365.74 740.68,-366.31 656.32,-366.67"/>
<polygon fill="#63b8ff" stroke="#63b8ff" points="962.09,-368.87 972.07,-365.33 962.06,-361.87 962.09,-368.87"/>
</g>
<!-- Node17 -->
<g id="node17" class="node">
<title>Node17</title>
<g id="a_node17"><a xlink:href="classQtSmartSearchBox.html#ad9767d6694a5048a3a916016c58088db" target="_top" xlink:title=" ">
<polygon fill="white" stroke="#666666" points="900.5,-423 753.5,-423 753.5,-393 900.5,-393 900.5,-423"/>
<text text-anchor="start" x="761.5" y="-411" font-family="Helvetica,sans-Serif" font-size="10.00">QtSmartSearchBox::onText</text>
<text text-anchor="middle" x="827" y="-400" font-family="Helvetica,sans-Serif" font-size="10.00">Edited</text>
</a>
</g>
</g>
<!-- Node8&#45;&gt;Node17 -->
<g id="edge18" class="edge">
<title>Node8&#45;&gt;Node17</title>
<path fill="none" stroke="#63b8ff" d="M962.39,-381.85C942.03,-385.81 920.54,-389.99 900.86,-393.82"/>
<polygon fill="#63b8ff" stroke="#63b8ff" points="962.93,-385.31 972.08,-379.97 961.59,-378.44 962.93,-385.31"/>
</g>
<!-- Node9&#45;&gt;Node9 -->
<g id="edge9" class="edge">
<title>Node9&#45;&gt;Node9</title>
<path fill="none" stroke="#63b8ff" d="M867.96,-290.57C864.54,-295.13 850.89,-298.5 827,-298.5 787.8,-298.5 776.16,-289.44 792.09,-280.87"/>
<polygon fill="#63b8ff" stroke="#63b8ff" points="870.97,-288.79 862.71,-282.15 865.03,-292.49 870.97,-288.79"/>
</g>
<!-- Node10 -->
<g id="node10" class="node">
<title>Node10</title>
<g id="a_node10"><a xlink:href="classQtSmartSearchBox.html#a7b10f7d2924f575ef15fcb69f280f622" target="_top" xlink:title=" ">
<polygon fill="white" stroke="#666666" points="652,-334 502,-334 502,-304 652,-304 652,-334"/>
<text text-anchor="start" x="510" y="-322" font-family="Helvetica,sans-Serif" font-size="10.00">QtSmartSearchBox::focusIn</text>
<text text-anchor="middle" x="577" y="-311" font-family="Helvetica,sans-Serif" font-size="10.00">Event</text>
</a>
</g>
</g>
<!-- Node9&#45;&gt;Node10 -->
<g id="edge10" class="edge">
<title>Node9&#45;&gt;Node10</title>
<path fill="none" stroke="#63b8ff" d="M763.5,-283.1C729.73,-289.63 687.81,-297.75 652.37,-304.61"/>
<polygon fill="#63b8ff" stroke="#63b8ff" points="763.98,-286.57 773.13,-281.23 762.65,-279.7 763.98,-286.57"/>
</g>
<!-- Node11 -->
<g id="node11" class="node">
<title>Node11</title>
<g id="a_node11"><a xlink:href="classQtSmartSearchBox.html#a19df91f9da6445f3474b9bb0f979ad27" target="_top" xlink:title=" ">
<polygon fill="white" stroke="#666666" points="656,-286 498,-286 498,-256 656,-256 656,-286"/>
<text text-anchor="start" x="506" y="-274" font-family="Helvetica,sans-Serif" font-size="10.00">QtSmartSearchBox::focusOut</text>
<text text-anchor="middle" x="577" y="-263" font-family="Helvetica,sans-Serif" font-size="10.00">Event</text>
</a>
</g>
</g>
<!-- Node9&#45;&gt;Node11 -->
<g id="edge11" class="edge">
<title>Node9&#45;&gt;Node11</title>
<path fill="none" stroke="#63b8ff" d="M743.81,-271C715.6,-271 684.12,-271 656.23,-271"/>
<polygon fill="#63b8ff" stroke="#63b8ff" points="743.75,-274.5 753.75,-271 743.75,-267.5 743.75,-274.5"/>
</g>
<!-- Node9&#45;&gt;Node12 -->
<g id="edge12" class="edge">
<title>Node9&#45;&gt;Node12</title>
<path fill="none" stroke="#63b8ff" d="M785.01,-284.83C766.1,-292 743.74,-301.65 725,-313 707.18,-323.79 707.72,-333.87 689,-343 678.81,-347.97 667.6,-351.92 656.34,-355.05"/>
<polygon fill="#63b8ff" stroke="#63b8ff" points="786.1,-288.16 794.27,-281.42 783.68,-281.59 786.1,-288.16"/>
</g>
<!-- Node13 -->
<g id="node13" class="node">
<title>Node13</title>
<g id="a_node13"><a xlink:href="classQtSmartSearchBox.html#aef0a337c1c0f6bd4dd165e48eef12973" target="_top" xlink:title=" ">
<polygon fill="white" stroke="#666666" points="664.5,-238 489.5,-238 489.5,-208 664.5,-208 664.5,-238"/>
<text text-anchor="start" x="497.5" y="-226" font-family="Helvetica,sans-Serif" font-size="10.00">QtSmartSearchBox::mouseMove</text>
<text text-anchor="middle" x="577" y="-215" font-family="Helvetica,sans-Serif" font-size="10.00">Event</text>
</a>
</g>
</g>
<!-- Node9&#45;&gt;Node13 -->
<g id="edge13" class="edge">
<title>Node9&#45;&gt;Node13</title>
<path fill="none" stroke="#63b8ff" d="M761.53,-258.96C749.39,-256.67 736.8,-254.27 725,-252 702.52,-247.67 678.13,-242.89 655.79,-238.48"/>
<polygon fill="#63b8ff" stroke="#63b8ff" points="760.56,-262.34 771.03,-260.75 761.85,-255.46 760.56,-262.34"/>
</g>
<!-- Node14 -->
<g id="node14" class="node">
<title>Node14</title>
<g id="a_node14"><a xlink:href="classQtSmartSearchBox.html#ac2bae6622754927e3013bc0b189dae71" target="_top" xlink:title=" ">
<polygon fill="white" stroke="#666666" points="664,-190 490,-190 490,-160 664,-160 664,-190"/>
<text text-anchor="start" x="498" y="-178" font-family="Helvetica,sans-Serif" font-size="10.00">QtSmartSearchBox::mousePress</text>
<text text-anchor="middle" x="577" y="-167" font-family="Helvetica,sans-Serif" font-size="10.00">Event</text>
</a>
</g>
</g>
<!-- Node9&#45;&gt;Node14 -->
<g id="edge14" class="edge">
<title>Node9&#45;&gt;Node14</title>
<path fill="none" stroke="#63b8ff" d="M744.22,-261.54C737.44,-259.02 730.93,-255.88 725,-252 701.18,-236.39 712.61,-214.93 689,-199 681.48,-193.93 673.08,-189.9 664.36,-186.71"/>
<polygon fill="#63b8ff" stroke="#63b8ff" points="743.02,-264.83 753.61,-264.57 745.17,-258.17 743.02,-264.83"/>
</g>
<!-- Node15 -->
<g id="node15" class="node">
<title>Node15</title>
<g id="a_node15"><a xlink:href="classQtSmartSearchBox.html#a87cffbe57c5e6ec12098e6b4ae2158ae" target="_top" xlink:title=" ">
<polygon fill="white" stroke="#666666" points="670.5,-142 483.5,-142 483.5,-112 670.5,-112 670.5,-142"/>
<text text-anchor="start" x="491.5" y="-130" font-family="Helvetica,sans-Serif" font-size="10.00">QtSmartSearchBox::mouseRelease</text>
<text text-anchor="middle" x="577" y="-119" font-family="Helvetica,sans-Serif" font-size="10.00">Event</text>
</a>
</g>
</g>
<!-- Node9&#45;&gt;Node15 -->
<g id="edge15" class="edge">
<title>Node9&#45;&gt;Node15</title>
<path fill="none" stroke="#63b8ff" d="M744.54,-263.71C737.45,-260.77 730.79,-256.95 725,-252 688.77,-221.04 724.81,-182.45 689,-151 683.59,-146.25 677.47,-142.37 670.95,-139.2"/>
<polygon fill="#63b8ff" stroke="#63b8ff" points="743.15,-266.93 753.74,-266.92 745.45,-260.32 743.15,-266.93"/>
</g>
<!-- Node16 -->
<g id="node16" class="node">
<title>Node16</title>
<g id="a_node16"><a xlink:href="classQtSmartSearchBox.html#a7b6419b94703d2c5d89ccff746981868" target="_top" xlink:title=" ">
<polygon fill="white" stroke="#666666" points="649,-94 505,-94 505,-64 649,-64 649,-94"/>
<text text-anchor="start" x="513" y="-82" font-family="Helvetica,sans-Serif" font-size="10.00">QtSmartSearchBox::resize</text>
<text text-anchor="middle" x="577" y="-71" font-family="Helvetica,sans-Serif" font-size="10.00">Event</text>
</a>
</g>
</g>
<!-- Node9&#45;&gt;Node16 -->
<g id="edge16" class="edge">
<title>Node9&#45;&gt;Node16</title>
<path fill="none" stroke="#63b8ff" d="M744.31,-264.48C737.21,-261.39 730.61,-257.33 725,-252 675.61,-205.07 737.75,-150.59 689,-103 678.21,-92.46 663.95,-86.08 649.27,-82.31"/>
<polygon fill="#63b8ff" stroke="#63b8ff" points="742.99,-267.72 753.58,-267.81 745.36,-261.13 742.99,-267.72"/>
</g>
<!-- Node17&#45;&gt;Node12 -->
<g id="edge19" class="edge">
<title>Node17&#45;&gt;Node12</title>
<path fill="none" stroke="#63b8ff" d="M742,-394.11C714.3,-389.53 683.62,-384.46 656.36,-379.95"/>
<polygon fill="#63b8ff" stroke="#63b8ff" points="741.34,-397.55 751.77,-395.73 742.48,-390.64 741.34,-397.55"/>
</g>
<!-- Node18 -->
<g id="node18" class="node">
<title>Node18</title>
<g id="a_node18"><a xlink:href="classQtSmartSearchBox.html#a99ffcb6d25c1d4c418540a516e9d201a" target="_top" xlink:title=" ">
<polygon fill="white" stroke="#666666" points="654.5,-430 499.5,-430 499.5,-400 654.5,-400 654.5,-430"/>
<text text-anchor="start" x="507.5" y="-418" font-family="Helvetica,sans-Serif" font-size="10.00">QtSmartSearchBox::QtSmart</text>
<text text-anchor="middle" x="577" y="-407" font-family="Helvetica,sans-Serif" font-size="10.00">SearchBox</text>
</a>
</g>
</g>
<!-- Node17&#45;&gt;Node18 -->
<g id="edge20" class="edge">
<title>Node17&#45;&gt;Node18</title>
<path fill="none" stroke="#63b8ff" d="M741.79,-410.38C713.55,-411.17 682.24,-412.06 654.62,-412.84"/>
<polygon fill="#63b8ff" stroke="#63b8ff" points="741.86,-413.88 751.75,-410.1 741.66,-406.88 741.86,-413.88"/>
</g>
<!-- Node19&#45;&gt;Node12 -->
<g id="edge22" class="edge">
<title>Node19&#45;&gt;Node12</title>
<path fill="none" stroke="#63b8ff" d="M1005.41,-288.14C982.76,-294.67 954.54,-302.36 929,-308 835.93,-328.56 727.58,-345.77 656.16,-356.19"/>
<polygon fill="#63b8ff" stroke="#63b8ff" points="1006.3,-291.52 1014.92,-285.36 1004.34,-284.8 1006.3,-291.52"/>
</g>
<!-- Node20 -->
<g id="node20" class="node">
<title>Node20</title>
<g id="a_node20"><a xlink:href="classQtSmartSearchBox.html#a943d2015fd2e9508a9739e232d6043b9" target="_top" xlink:title=" ">
<polygon fill="white" stroke="#666666" points="929,-243 725,-243 725,-213 929,-213 929,-243"/>
<text text-anchor="start" x="733" y="-231" font-family="Helvetica,sans-Serif" font-size="10.00">QtSmartSearchBox::onAutocompletion</text>
<text text-anchor="middle" x="827" y="-220" font-family="Helvetica,sans-Serif" font-size="10.00">Activated</text>
</a>
</g>
</g>
<!-- Node19&#45;&gt;Node20 -->
<g id="edge23" class="edge">
<title>Node19&#45;&gt;Node20</title>
<path fill="none" stroke="#63b8ff" d="M991.03,-262.67C963.31,-256.78 929.85,-249.66 900.47,-243.41"/>
<polygon fill="#63b8ff" stroke="#63b8ff" points="990.14,-266.06 1000.65,-264.72 991.6,-259.21 990.14,-266.06"/>
</g>
<!-- Node25 -->
<g id="node25" class="node">
<title>Node25</title>
<g id="a_node25"><a xlink:href="classQtSearchBar.html#ab1586c7b89f8c4f4e3377e35b690aa09" target="_top" xlink:title=" ">
<polygon fill="white" stroke="#666666" points="899,-194.5 755,-194.5 755,-175.5 899,-175.5 899,-194.5"/>
<text text-anchor="middle" x="827" y="-182.5" font-family="Helvetica,sans-Serif" font-size="10.00">QtSearchBar::QtSearchBar</text>
</a>
</g>
</g>
<!-- Node19&#45;&gt;Node25 -->
<g id="edge28" class="edge">
<title>Node19&#45;&gt;Node25</title>
<path fill="none" stroke="#63b8ff" d="M1026.45,-258.38C1003.19,-242.06 965.31,-217.67 929,-204 919.32,-200.35 908.83,-197.38 898.42,-194.97"/>
<polygon fill="#63b8ff" stroke="#63b8ff" points="1024.35,-261.19 1034.52,-264.15 1028.42,-255.49 1024.35,-261.19"/>
</g>
<!-- Node21 -->
<g id="node21" class="node">
<title>Node21</title>
<g id="a_node21"><a xlink:href="classQtSmartSearchBox.html#a73a76a12933eb79d8c47b1e0ced69cc7" target="_top" xlink:title=" ">
<polygon fill="white" stroke="#666666" points="689,-45.5 465,-45.5 465,-26.5 689,-26.5 689,-45.5"/>
<text text-anchor="middle" x="577" y="-33.5" font-family="Helvetica,sans-Serif" font-size="10.00">QtSmartSearchBox::setAutocompletionList</text>
</a>
</g>
</g>
<!-- Node20&#45;&gt;Node21 -->
<g id="edge24" class="edge">
<title>Node20&#45;&gt;Node21</title>
<path fill="none" stroke="#63b8ff" d="M726.91,-205.82C726.26,-205.23 725.62,-204.62 725,-204 676.74,-155.92 738.77,-101.52 689,-55 685.21,-51.46 681.02,-48.45 676.55,-45.9"/>
<polygon fill="#63b8ff" stroke="#63b8ff" points="724.67,-208.51 734.75,-211.78 728.91,-202.94 724.67,-208.51"/>
</g>
<!-- Node22 -->
<g id="node22" class="node">
<title>Node22</title>
<g id="a_node22"><a xlink:href="classQtSearchBar.html#a36e1e739ef34ff27e11a6b61bca5c1bb" target="_top" xlink:title=" ">
<polygon fill="white" stroke="#666666" points="429,-67.5 236,-67.5 236,-48.5 429,-48.5 429,-67.5"/>
<text text-anchor="middle" x="332.5" y="-55.5" font-family="Helvetica,sans-Serif" font-size="10.00">QtSearchBar::setAutocompletionList</text>
</a>
</g>
</g>
<!-- Node21&#45;&gt;Node22 -->
<g id="edge25" class="edge">
<title>Node21&#45;&gt;Node22</title>
<path fill="none" stroke="#63b8ff" d="M454.85,-46.99C446.27,-47.77 437.7,-48.55 429.3,-49.31"/>
<polygon fill="#63b8ff" stroke="#63b8ff" points="454.95,-50.5 464.6,-46.11 454.32,-43.52 454.95,-50.5"/>
</g>
<!-- Node24 -->
<g id="node24" class="node">
<title>Node24</title>
<g id="a_node24"><a xlink:href="classQtCustomTrailView.html#a15b70d194b219b3fd549546c520986f0" target="_top" xlink:title=" ">
<polygon fill="white" stroke="#666666" points="395,-30 270,-30 270,0 395,0 395,-30"/>
<text text-anchor="start" x="278" y="-18" font-family="Helvetica,sans-Serif" font-size="10.00">QtCustomTrailView::</text>
<text text-anchor="middle" x="332.5" y="-7" font-family="Helvetica,sans-Serif" font-size="10.00">showAutocompletions</text>
</a>
</g>
</g>
<!-- Node21&#45;&gt;Node24 -->
<g id="edge27" class="edge">
<title>Node21&#45;&gt;Node24</title>
<path fill="none" stroke="#63b8ff" d="M453.24,-25.37C433.2,-23.63 413.23,-21.9 395.49,-20.37"/>
<polygon fill="#63b8ff" stroke="#63b8ff" points="452.91,-28.85 463.18,-26.23 453.52,-21.88 452.91,-28.85"/>
</g>
<!-- Node23 -->
<g id="node23" class="node">
<title>Node23</title>
<g id="a_node23"><a xlink:href="classQtSearchView.html#adf60cc68e8ea212f571fcb16ca91d20a" target="_top" xlink:title=" ">
<polygon fill="white" stroke="#666666" points="200,-67.5 0,-67.5 0,-48.5 200,-48.5 200,-67.5"/>
<text text-anchor="middle" x="100" y="-55.5" font-family="Helvetica,sans-Serif" font-size="10.00">QtSearchView::setAutocompletionList</text>
</a>
</g>
</g>
<!-- Node22&#45;&gt;Node23 -->
<g id="edge26" class="edge">
<title>Node22&#45;&gt;Node23</title>
<path fill="none" stroke="#63b8ff" d="M224.39,-58C216.32,-58 208.19,-58 200.17,-58"/>
<polygon fill="#63b8ff" stroke="#63b8ff" points="224.24,-61.5 234.24,-58 224.24,-54.5 224.24,-61.5"/>
</g>
</g>
</svg>
        <g id="navigator" transform="translate(0 0)" fill="#404254">
                <rect fill="#f2f5e9" fill-opacity="0.5" stroke="#606060" stroke-width=".5" x="0" y="0" width="60" height="60"/>
                <use id="zoomplus" xlink:href="#zoomPlus" x="17" y="9" onmousedown="handleZoom(evt,'in')"/>
                <use id="zoomminus" xlink:href="#zoomMin" x="42" y="9" onmousedown="handleZoom(evt,'out')"/>
                <use id="reset" xlink:href="#resetDef" x="30" y="36" onmousedown="handleReset()"/>
                <g id="arrowUp" xlink:href="#dirArrow" transform="translate(30 24)" onmousedown="handlePan(0,-1)">
                  <use xlink:href="#rim" fill="#404040">
                        <set attributeName="fill" to="#808080" begin="arrowUp.mouseover" end="arrowUp.mouseout"/>
                  </use>
                  <path fill="none" stroke="white" stroke-width="1.5" d="M0,-3.0v7 M-2.5,-0.5L0,-3.0L2.5,-0.5"/>
                </g>
                <g id="arrowRight" xlink:href="#dirArrow" transform="rotate(90) translate(36 -43)" onmousedown="handlePan(1,0)">
                  <use xlink:href="#rim" fill="#404040">
                        <set attributeName="fill" to="#808080" begin="arrowRight.mouseover" end="arrowRight.mouseout"/>
                  </use>
                  <path fill="none" stroke="white" stroke-width="1.5" d="M0,-3.0v7 M-2.5,-0.5L0,-3.0L2.5,-0.5"/>
                </g>
                <g id="arrowDown" xlink:href="#dirArrow" transform="rotate(180) translate(-30 -48)" onmousedown="handlePan(0,1)">
                  <use xlink:href="#rim" fill="#404040">
                        <set attributeName="fill" to="#808080" begin="arrowDown.mouseover" end="arrowDown.mouseout"/>
                  </use>
                  <path fill="none" stroke="white" stroke-width="1.5" d="M0,-3.0v7 M-2.5,-0.5L0,-3.0L2.5,-0.5"/>
                </g>
                <g id="arrowLeft" xlink:href="#dirArrow" transform="rotate(270) translate(-36 17)" onmousedown="handlePan(-1,0)">
                  <use xlink:href="#rim" fill="#404040">
                        <set attributeName="fill" to="#808080" begin="arrowLeft.mouseover" end="arrowLeft.mouseout"/>
                  </use>
                  <path fill="none" stroke="white" stroke-width="1.5" d="M0,-3.0v7 M-2.5,-0.5L0,-3.0L2.5,-0.5"/>
                </g>
        </g>
        <svg viewBox="0 0 15 15" width="100%" height="30px" preserveAspectRatio="xMaxYMin meet">
         <g id="arrow_out" transform="scale(0.3 0.3)">
          <a xlink:href="classNodeTypeSet_a6ceb42dc2e6e37c8d26481d240e514db_icgraph_org.svg" target="_base">
           <rect id="button" ry="5" rx="5" y="6" x="6" height="38" width="38"
                fill="#f2f5e9" fill-opacity="0.5" stroke="#606060" stroke-width="1.0"/>
           <path id="arrow"
             d="M 11.500037,31.436501 C 11.940474,20.09759 22.043105,11.32322 32.158766,21.979434 L 37.068811,17.246167 C 37.068811,17.246167 37.088388,32 37.088388,32 L 22.160133,31.978069 C 22.160133,31.978069 26.997745,27.140456 26.997745,27.140456 C 18.528582,18.264221 13.291696,25.230495 11.500037,31.436501 z"
             style="fill:#404040;"/>
          </a>
         </g>
        </svg>
</svg>
