<?xml version="1.0" encoding="UTF-8" standalone="no"?>
<!DOCTYPE svg PUBLIC "-//W3C//DTD SVG 1.1//EN"
 "http://www.w3.org/Graphics/SVG/1.1/DTD/svg11.dtd">
<!-- Generated by graphviz version 7.1.0 (0)
 -->
<!-- Title: IntermediateStorage::getByteSize Pages: 1 -->
<svg width="316pt" height="422pt"
 viewBox="0.00 0.00 316.00 422.00" xmlns="http://www.w3.org/2000/svg" xmlns:xlink="http://www.w3.org/1999/xlink">
<g id="graph0" class="graph" transform="scale(1 1) rotate(0) translate(4 418)">
<title>IntermediateStorage::getByteSize</title>
<!-- Node1 -->
<g id="node1" class="node">
<title>Node1</title>
<g id="a_node1"><a xlink:title=" ">
<polygon fill="#999999" stroke="#666666" points="117,-222 0,-222 0,-192 117,-192 117,-222"/>
<text text-anchor="start" x="8" y="-210" font-family="Helvetica,sans-Serif" font-size="10.00">IntermediateStorage</text>
<text text-anchor="middle" x="58.5" y="-199" font-family="Helvetica,sans-Serif" font-size="10.00">::getByteSize</text>
</a>
</g>
</g>
<!-- Node2 -->
<g id="node2" class="node">
<title>Node2</title>
<g id="a_node2"><a xlink:href="classIntermediateStorage.html#ab3b5047bbe6676a756c514eaa2ea5e6c" target="_top" xlink:title=" ">
<polygon fill="white" stroke="#666666" points="300.5,-414 160.5,-414 160.5,-384 300.5,-384 300.5,-414"/>
<text text-anchor="start" x="168.5" y="-402" font-family="Helvetica,sans-Serif" font-size="10.00">IntermediateStorage</text>
<text text-anchor="middle" x="230.5" y="-391" font-family="Helvetica,sans-Serif" font-size="10.00">::getComponentAccesses</text>
</a>
</g>
</g>
<!-- Node1&#45;&gt;Node2 -->
<g id="edge1" class="edge">
<title>Node1&#45;&gt;Node2</title>
<path fill="none" stroke="#63b8ff" d="M63.68,-222.04C73.57,-254.8 101.49,-333.05 153,-375 154.28,-376.04 155.61,-377.04 156.98,-378"/>
<polygon fill="#63b8ff" stroke="#63b8ff" points="154.8,-380.78 165.18,-382.92 158.4,-374.77 154.8,-380.78"/>
</g>
<!-- Node3 -->
<g id="node3" class="node">
<title>Node3</title>
<g id="a_node3"><a xlink:href="classIntermediateStorage.html#a58127204722eb28850b08eff65b92096" target="_top" xlink:title=" ">
<polygon fill="white" stroke="#666666" points="289,-366 172,-366 172,-336 289,-336 289,-366"/>
<text text-anchor="start" x="180" y="-354" font-family="Helvetica,sans-Serif" font-size="10.00">IntermediateStorage</text>
<text text-anchor="middle" x="230.5" y="-343" font-family="Helvetica,sans-Serif" font-size="10.00">::getErrors</text>
</a>
</g>
</g>
<!-- Node1&#45;&gt;Node3 -->
<g id="edge2" class="edge">
<title>Node1&#45;&gt;Node3</title>
<path fill="none" stroke="#63b8ff" d="M67.37,-222.32C81.23,-247.8 112.42,-298.85 153,-327 155.68,-328.86 158.51,-330.58 161.44,-332.17"/>
<polygon fill="#63b8ff" stroke="#63b8ff" points="159.83,-335.28 170.36,-336.44 162.85,-328.96 159.83,-335.28"/>
</g>
<!-- Node4 -->
<g id="node4" class="node">
<title>Node4</title>
<g id="a_node4"><a xlink:href="classIntermediateStorage.html#a5a6fa10849d6c4d99d87ad34d0464ee4" target="_top" xlink:title=" ">
<polygon fill="white" stroke="#666666" points="289,-318 172,-318 172,-288 289,-288 289,-318"/>
<text text-anchor="start" x="180" y="-306" font-family="Helvetica,sans-Serif" font-size="10.00">IntermediateStorage</text>
<text text-anchor="middle" x="230.5" y="-295" font-family="Helvetica,sans-Serif" font-size="10.00">::getStorageEdges</text>
</a>
</g>
</g>
<!-- Node1&#45;&gt;Node4 -->
<g id="edge3" class="edge">
<title>Node1&#45;&gt;Node4</title>
<path fill="none" stroke="#63b8ff" d="M75.83,-222.5C93.57,-238.6 123.38,-263.58 153,-279 155.89,-280.51 158.9,-281.94 161.97,-283.3"/>
<polygon fill="#63b8ff" stroke="#63b8ff" points="160.62,-286.53 171.2,-287.06 163.27,-280.05 160.62,-286.53"/>
</g>
<!-- Node5 -->
<g id="node5" class="node">
<title>Node5</title>
<g id="a_node5"><a xlink:href="classIntermediateStorage.html#af047f058d1f30e879b27fb85c435c49b" target="_top" xlink:title=" ">
<polygon fill="white" stroke="#666666" points="289,-270 172,-270 172,-240 289,-240 289,-270"/>
<text text-anchor="start" x="180" y="-258" font-family="Helvetica,sans-Serif" font-size="10.00">IntermediateStorage</text>
<text text-anchor="middle" x="230.5" y="-247" font-family="Helvetica,sans-Serif" font-size="10.00">::getStorageFiles</text>
</a>
</g>
</g>
<!-- Node1&#45;&gt;Node5 -->
<g id="edge4" class="edge">
<title>Node1&#45;&gt;Node5</title>
<path fill="none" stroke="#63b8ff" d="M114.22,-222.45C130.15,-226.95 147.7,-231.9 164.21,-236.57"/>
<polygon fill="#63b8ff" stroke="#63b8ff" points="162.85,-239.82 173.42,-239.17 164.75,-233.08 162.85,-239.82"/>
</g>
<!-- Node6 -->
<g id="node6" class="node">
<title>Node6</title>
<g id="a_node6"><a xlink:href="classIntermediateStorage.html#a1b3d3823a2724e67f26125295638f07d" target="_top" xlink:title=" ">
<polygon fill="white" stroke="#666666" points="302,-222 159,-222 159,-192 302,-192 302,-222"/>
<text text-anchor="start" x="167" y="-210" font-family="Helvetica,sans-Serif" font-size="10.00">IntermediateStorage</text>
<text text-anchor="middle" x="230.5" y="-199" font-family="Helvetica,sans-Serif" font-size="10.00">::getStorageLocalSymbols</text>
</a>
</g>
</g>
<!-- Node1&#45;&gt;Node6 -->
<g id="edge5" class="edge">
<title>Node1&#45;&gt;Node6</title>
<path fill="none" stroke="#63b8ff" d="M117.05,-207C126.78,-207 137.05,-207 147.26,-207"/>
<polygon fill="#63b8ff" stroke="#63b8ff" points="147.22,-210.5 157.22,-207 147.22,-203.5 147.22,-210.5"/>
</g>
<!-- Node7 -->
<g id="node7" class="node">
<title>Node7</title>
<g id="a_node7"><a xlink:href="classIntermediateStorage.html#a6e3d7edb62d72830bce3a595ca013355" target="_top" xlink:title=" ">
<polygon fill="white" stroke="#666666" points="289,-174 172,-174 172,-144 289,-144 289,-174"/>
<text text-anchor="start" x="180" y="-162" font-family="Helvetica,sans-Serif" font-size="10.00">IntermediateStorage</text>
<text text-anchor="middle" x="230.5" y="-151" font-family="Helvetica,sans-Serif" font-size="10.00">::getStorageNodes</text>
</a>
</g>
</g>
<!-- Node1&#45;&gt;Node7 -->
<g id="edge6" class="edge">
<title>Node1&#45;&gt;Node7</title>
<path fill="none" stroke="#63b8ff" d="M114.22,-191.55C130.15,-187.05 147.7,-182.1 164.21,-177.43"/>
<polygon fill="#63b8ff" stroke="#63b8ff" points="164.75,-180.92 173.42,-174.83 162.85,-174.18 164.75,-180.92"/>
</g>
<!-- Node8 -->
<g id="node8" class="node">
<title>Node8</title>
<g id="a_node8"><a xlink:href="classIntermediateStorage.html#aca43a88e9c1bdb6c8c70f80e460de08f" target="_top" xlink:title=" ">
<polygon fill="white" stroke="#666666" points="298.5,-126 162.5,-126 162.5,-96 298.5,-96 298.5,-126"/>
<text text-anchor="start" x="170.5" y="-114" font-family="Helvetica,sans-Serif" font-size="10.00">IntermediateStorage</text>
<text text-anchor="middle" x="230.5" y="-103" font-family="Helvetica,sans-Serif" font-size="10.00">::getStorageOccurrences</text>
</a>
</g>
</g>
<!-- Node1&#45;&gt;Node8 -->
<g id="edge7" class="edge">
<title>Node1&#45;&gt;Node8</title>
<path fill="none" stroke="#63b8ff" d="M75.83,-191.5C93.57,-175.4 123.38,-150.42 153,-135 155.89,-133.49 158.9,-132.06 161.97,-130.7"/>
<polygon fill="#63b8ff" stroke="#63b8ff" points="163.27,-133.95 171.2,-126.94 160.62,-127.47 163.27,-133.95"/>
</g>
<!-- Node9 -->
<g id="node9" class="node">
<title>Node9</title>
<g id="a_node9"><a xlink:href="classIntermediateStorage.html#aaf5dcfceedf2d2588c913fb5b8c82b5b" target="_top" xlink:title=" ">
<polygon fill="white" stroke="#666666" points="308,-78 153,-78 153,-48 308,-48 308,-78"/>
<text text-anchor="start" x="161" y="-66" font-family="Helvetica,sans-Serif" font-size="10.00">IntermediateStorage</text>
<text text-anchor="middle" x="230.5" y="-55" font-family="Helvetica,sans-Serif" font-size="10.00">::getStorageSourceLocations</text>
</a>
</g>
</g>
<!-- Node1&#45;&gt;Node9 -->
<g id="edge8" class="edge">
<title>Node1&#45;&gt;Node9</title>
<path fill="none" stroke="#63b8ff" d="M67.37,-191.68C81.23,-166.2 112.42,-115.15 153,-87 154.61,-85.88 156.28,-84.81 157.99,-83.79"/>
<polygon fill="#63b8ff" stroke="#63b8ff" points="159.6,-86.9 166.84,-79.17 156.36,-80.7 159.6,-86.9"/>
</g>
<!-- Node10 -->
<g id="node10" class="node">
<title>Node10</title>
<g id="a_node10"><a xlink:href="classIntermediateStorage.html#a72e273191e0488c5a952f9cfb2c34205" target="_top" xlink:title=" ">
<polygon fill="white" stroke="#666666" points="289.5,-30 171.5,-30 171.5,0 289.5,0 289.5,-30"/>
<text text-anchor="start" x="179.5" y="-18" font-family="Helvetica,sans-Serif" font-size="10.00">IntermediateStorage</text>
<text text-anchor="middle" x="230.5" y="-7" font-family="Helvetica,sans-Serif" font-size="10.00">::getStorageSymbols</text>
</a>
</g>
</g>
<!-- Node1&#45;&gt;Node10 -->
<g id="edge9" class="edge">
<title>Node1&#45;&gt;Node10</title>
<path fill="none" stroke="#63b8ff" d="M63.68,-191.96C73.57,-159.2 101.49,-80.95 153,-39 155.53,-36.94 158.24,-35.06 161.07,-33.33"/>
<polygon fill="#63b8ff" stroke="#63b8ff" points="162.53,-36.52 169.76,-28.78 159.28,-30.32 162.53,-36.52"/>
</g>
</g>
</svg>
