<?xml version="1.0" encoding="UTF-8" standalone="no"?>
<!DOCTYPE svg PUBLIC "-//W3C//DTD SVG 1.1//EN"
 "http://www.w3.org/Graphics/SVG/1.1/DTD/svg11.dtd">
<!-- Generated by graphviz version 7.1.0 (0)
 -->
<!-- Title: QtProjectWizardContentPathsHeaderSearch::load Pages: 1 -->
<!--zoomable 141 -->
<svg id="main" version="1.1" xmlns="http://www.w3.org/2000/svg" xmlns:xlink="http://www.w3.org/1999/xlink" xml:space="preserve" onload="init(evt)">
<style type="text/css"><![CDATA[
.edge:hover path { stroke: red; }
.edge:hover polygon { stroke: red; fill: red; }
]]></style>
<script type="text/javascript"><![CDATA[
var edges = document.getElementsByTagName('g');
if (edges && edges.length) {
  for (var i=0;i<edges.length;i++) {
    if (edges[i].id.substr(0,4)=='edge') {
      edges[i].setAttribute('class','edge');
    }
  }
}
]]></script>
        <defs>
                <circle id="rim" cx="0" cy="0" r="7"/>
                <circle id="rim2" cx="0" cy="0" r="3.5"/>
                <g id="zoomPlus">
                        <use xlink:href="#rim" fill="#404040">
                                <set attributeName="fill" to="#808080" begin="zoomplus.mouseover" end="zoomplus.mouseout"/>
                        </use>
                        <path d="M-4,0h8M0,-4v8" fill="none" stroke="white" stroke-width="1.5" pointer-events="none"/>
                </g>
                <g id="zoomMin">
                        <use xlink:href="#rim" fill="#404040">
                                <set attributeName="fill" to="#808080" begin="zoomminus.mouseover" end="zoomminus.mouseout"/>
                        </use>
                        <path d="M-4,0h8" fill="none" stroke="white" stroke-width="1.5" pointer-events="none"/>
                </g>
                <g id="dirArrow">
                        <path fill="none" stroke="white" stroke-width="1.5" d="M0,-3.0v7 M-2.5,-0.5L0,-3.0L2.5,-0.5"/>
                </g>
               <g id="resetDef">
                       <use xlink:href="#rim2" fill="#404040">
                               <set attributeName="fill" to="#808080" begin="reset.mouseover" end="reset.mouseout"/>
                       </use>
               </g>
        </defs>

<script type="text/javascript">
var viewWidth = 1086;
var viewHeight = 141;
var sectionId = 'dynsection-34';
</script>
<script xlink:href="svgpan.js"/>
<svg id="graph" class="graph">
<g id="viewport">
<title>QtProjectWizardContentPathsHeaderSearch::load</title>
<!-- Node1 -->
<g id="node1" class="node">
<title>Node1</title>
<g id="a_node1"><a xlink:title=" ">
<polygon fill="#999999" stroke="#666666" points="161,-42.5 0,-42.5 0,-12.5 161,-12.5 161,-42.5"/>
<text text-anchor="start" x="8" y="-30.5" font-family="Helvetica,sans-Serif" font-size="10.00">QtProjectWizardContentPaths</text>
<text text-anchor="middle" x="80.5" y="-19.5" font-family="Helvetica,sans-Serif" font-size="10.00">HeaderSearch::load</text>
</a>
</g>
</g>
<!-- Node2 -->
<g id="node2" class="node">
<title>Node2</title>
<g id="a_node2"><a xlink:href="classQtPathListBox.html#afcd1f49e4f8ed5b9c03894b58fb9933c" target="_top" xlink:title=" ">
<polygon fill="white" stroke="#666666" points="331,-37 197,-37 197,-18 331,-18 331,-37"/>
<text text-anchor="middle" x="264" y="-25" font-family="Helvetica,sans-Serif" font-size="10.00">QtPathListBox::setPaths</text>
</a>
</g>
</g>
<!-- Node1&#45;&gt;Node2 -->
<g id="edge1" class="edge">
<title>Node1&#45;&gt;Node2</title>
<path fill="none" stroke="#63b8ff" d="M161.37,-27.5C169.3,-27.5 177.33,-27.5 185.23,-27.5"/>
<polygon fill="#63b8ff" stroke="#63b8ff" points="185.17,-31 195.17,-27.5 185.17,-24 185.17,-31"/>
</g>
<!-- Node3 -->
<g id="node3" class="node">
<title>Node3</title>
<g id="a_node3"><a xlink:href="classQtPathListBox.html#a895fde64a5d494326362579e6f288a37" target="_top" xlink:title=" ">
<polygon fill="white" stroke="#666666" points="504,-56 367,-56 367,-37 504,-37 504,-56"/>
<text text-anchor="middle" x="435.5" y="-44" font-family="Helvetica,sans-Serif" font-size="10.00">QtPathListBox::addPaths</text>
</a>
</g>
</g>
<!-- Node2&#45;&gt;Node3 -->
<g id="edge2" class="edge">
<title>Node2&#45;&gt;Node3</title>
<path fill="none" stroke="#63b8ff" d="M331.02,-34.9C338.98,-35.79 347.17,-36.71 355.3,-37.62"/>
<polygon fill="#63b8ff" stroke="#63b8ff" points="354.87,-41.1 365.2,-38.73 355.65,-34.14 354.87,-41.1"/>
</g>
<!-- Node11 -->
<g id="node11" class="node">
<title>Node11</title>
<g id="a_node11"><a xlink:href="classQtListBox.html#a2d1bd3966d59c8d45560a819e2709dfd" target="_top" xlink:title=" ">
<polygon fill="white" stroke="#666666" points="482.5,-19 388.5,-19 388.5,0 482.5,0 482.5,-19"/>
<text text-anchor="middle" x="435.5" y="-7" font-family="Helvetica,sans-Serif" font-size="10.00">QtListBox::clear</text>
</a>
</g>
</g>
<!-- Node2&#45;&gt;Node11 -->
<g id="edge10" class="edge">
<title>Node2&#45;&gt;Node11</title>
<path fill="none" stroke="#63b8ff" d="M331.02,-20.49C346.2,-18.88 362.23,-17.17 377.02,-15.6"/>
<polygon fill="#63b8ff" stroke="#63b8ff" points="376.98,-19.13 386.55,-14.59 376.24,-12.17 376.98,-19.13"/>
</g>
<!-- Node4 -->
<g id="node4" class="node">
<title>Node4</title>
<g id="a_node4"><a xlink:href="classQtListBox.html#ac42b92a2e2a8eb509458dca8def467c8" target="_top" xlink:title=" ">
<polygon fill="white" stroke="#666666" points="690.5,-83.5 544.5,-83.5 544.5,-53.5 690.5,-53.5 690.5,-83.5"/>
<text text-anchor="start" x="552.5" y="-71.5" font-family="Helvetica,sans-Serif" font-size="10.00">QtListBox::addListBoxItem</text>
<text text-anchor="middle" x="617.5" y="-60.5" font-family="Helvetica,sans-Serif" font-size="10.00">WithText</text>
</a>
</g>
</g>
<!-- Node3&#45;&gt;Node4 -->
<g id="edge3" class="edge">
<title>Node3&#45;&gt;Node4</title>
<path fill="none" stroke="#63b8ff" d="M504.29,-54.79C513.68,-55.93 523.4,-57.12 533.03,-58.3"/>
<polygon fill="#63b8ff" stroke="#63b8ff" points="532.41,-61.75 542.76,-59.49 533.26,-54.8 532.41,-61.75"/>
</g>
<!-- Node9 -->
<g id="node9" class="node">
<title>Node9</title>
<g id="a_node9"><a xlink:href="classQtListBoxItem.html#a1d042d61978d8d5d143b130a3cdd6ab8" target="_top" xlink:title=" ">
<polygon fill="white" stroke="#666666" points="695,-35 540,-35 540,-16 695,-16 695,-35"/>
<text text-anchor="middle" x="617.5" y="-23" font-family="Helvetica,sans-Serif" font-size="10.00">QtListBoxItem::setReadOnly</text>
</a>
</g>
</g>
<!-- Node3&#45;&gt;Node9 -->
<g id="edge8" class="edge">
<title>Node3&#45;&gt;Node9</title>
<path fill="none" stroke="#63b8ff" d="M504.29,-38.59C512.15,-37.67 520.25,-36.73 528.33,-35.79"/>
<polygon fill="#63b8ff" stroke="#63b8ff" points="528.68,-39.27 538.21,-34.63 527.87,-32.32 528.68,-39.27"/>
</g>
<!-- Node5 -->
<g id="node5" class="node">
<title>Node5</title>
<g id="a_node5"><a xlink:href="classQtListBox.html#ab85600b8cd5aa6c035abd21c2e86d928" target="_top" xlink:title=" ">
<polygon fill="white" stroke="#666666" points="880,-115 734,-115 734,-96 880,-96 880,-115"/>
<text text-anchor="middle" x="807" y="-103" font-family="Helvetica,sans-Serif" font-size="10.00">QtListBox::addListBoxItem</text>
</a>
</g>
</g>
<!-- Node4&#45;&gt;Node5 -->
<g id="edge4" class="edge">
<title>Node4&#45;&gt;Node5</title>
<path fill="none" stroke="#63b8ff" d="M690.99,-82.81C708.66,-86.29 727.39,-89.99 744.49,-93.36"/>
<polygon fill="#63b8ff" stroke="#63b8ff" points="743.49,-96.73 753.98,-95.24 744.85,-89.87 743.49,-96.73"/>
</g>
<!-- Node8 -->
<g id="node8" class="node">
<title>Node8</title>
<g id="a_node8"><a xlink:href="classQtListBoxItem.html#a3f75a39f922940872590ebb3146a8ba4" target="_top" xlink:title=" ">
<polygon fill="white" stroke="#666666" points="871,-78 743,-78 743,-59 871,-59 871,-78"/>
<text text-anchor="middle" x="807" y="-66" font-family="Helvetica,sans-Serif" font-size="10.00">QtListBoxItem::setText</text>
</a>
</g>
</g>
<!-- Node4&#45;&gt;Node8 -->
<g id="edge7" class="edge">
<title>Node4&#45;&gt;Node8</title>
<path fill="none" stroke="#63b8ff" d="M690.99,-68.5C704.14,-68.5 717.88,-68.5 731.1,-68.5"/>
<polygon fill="#63b8ff" stroke="#63b8ff" points="731.04,-72 741.04,-68.5 731.04,-65 731.04,-72"/>
</g>
<!-- Node6 -->
<g id="node6" class="node">
<title>Node6</title>
<g id="a_node6"><a xlink:href="classQtListBox.html#aded0d85d73468d463ffc4f06150c190e" target="_top" xlink:title=" ">
<polygon fill="white" stroke="#666666" points="1078,-133 919,-133 919,-114 1078,-114 1078,-133"/>
<text text-anchor="middle" x="998.5" y="-121" font-family="Helvetica,sans-Serif" font-size="10.00">QtListBox::createListBoxItem</text>
</a>
</g>
</g>
<!-- Node5&#45;&gt;Node6 -->
<g id="edge5" class="edge">
<title>Node5&#45;&gt;Node6</title>
<path fill="none" stroke="#63b8ff" d="M880.45,-112.38C889.27,-113.22 898.36,-114.08 907.39,-114.94"/>
<polygon fill="#63b8ff" stroke="#63b8ff" points="906.98,-118.42 917.27,-115.88 907.65,-111.45 906.98,-118.42"/>
</g>
<!-- Node7 -->
<g id="node7" class="node">
<title>Node7</title>
<g id="a_node7"><a xlink:href="classQtListBoxItem.html#a988c59cb0ddbc7285981ede21fb61422" target="_top" xlink:title=" ">
<polygon fill="white" stroke="#666666" points="1066,-96 931,-96 931,-77 1066,-77 1066,-96"/>
<text text-anchor="middle" x="998.5" y="-84" font-family="Helvetica,sans-Serif" font-size="10.00">QtListBoxItem::setFocus</text>
</a>
</g>
</g>
<!-- Node5&#45;&gt;Node7 -->
<g id="edge6" class="edge">
<title>Node5&#45;&gt;Node7</title>
<path fill="none" stroke="#63b8ff" d="M880.45,-98.24C893.22,-96.96 906.56,-95.62 919.48,-94.32"/>
<polygon fill="#63b8ff" stroke="#63b8ff" points="919.58,-97.83 929.18,-93.35 918.88,-90.86 919.58,-97.83"/>
</g>
<!-- Node10 -->
<g id="node10" class="node">
<title>Node10</title>
<g id="a_node10"><a xlink:href="classQtListBoxItem.html#a967053bd48b913a5bbc3076ca638b52b" target="_top" xlink:title=" ">
<polygon fill="white" stroke="#666666" points="883,-40.5 731,-40.5 731,-10.5 883,-10.5 883,-40.5"/>
<text text-anchor="start" x="739" y="-28.5" font-family="Helvetica,sans-Serif" font-size="10.00">QtListBoxItem::onReadOnly</text>
<text text-anchor="middle" x="807" y="-17.5" font-family="Helvetica,sans-Serif" font-size="10.00">Changed</text>
</a>
</g>
</g>
<!-- Node9&#45;&gt;Node10 -->
<g id="edge9" class="edge">
<title>Node9&#45;&gt;Node10</title>
<path fill="none" stroke="#63b8ff" d="M695.3,-25.5C703.21,-25.5 711.28,-25.5 719.28,-25.5"/>
<polygon fill="#63b8ff" stroke="#63b8ff" points="719.01,-29 729.01,-25.5 719.01,-22 719.01,-29"/>
</g>
</g>
</svg>
        <g id="navigator" transform="translate(0 0)" fill="#404254">
                <rect fill="#f2f5e9" fill-opacity="0.5" stroke="#606060" stroke-width=".5" x="0" y="0" width="60" height="60"/>
                <use id="zoomplus" xlink:href="#zoomPlus" x="17" y="9" onmousedown="handleZoom(evt,'in')"/>
                <use id="zoomminus" xlink:href="#zoomMin" x="42" y="9" onmousedown="handleZoom(evt,'out')"/>
                <use id="reset" xlink:href="#resetDef" x="30" y="36" onmousedown="handleReset()"/>
                <g id="arrowUp" xlink:href="#dirArrow" transform="translate(30 24)" onmousedown="handlePan(0,-1)">
                  <use xlink:href="#rim" fill="#404040">
                        <set attributeName="fill" to="#808080" begin="arrowUp.mouseover" end="arrowUp.mouseout"/>
                  </use>
                  <path fill="none" stroke="white" stroke-width="1.5" d="M0,-3.0v7 M-2.5,-0.5L0,-3.0L2.5,-0.5"/>
                </g>
                <g id="arrowRight" xlink:href="#dirArrow" transform="rotate(90) translate(36 -43)" onmousedown="handlePan(1,0)">
                  <use xlink:href="#rim" fill="#404040">
                        <set attributeName="fill" to="#808080" begin="arrowRight.mouseover" end="arrowRight.mouseout"/>
                  </use>
                  <path fill="none" stroke="white" stroke-width="1.5" d="M0,-3.0v7 M-2.5,-0.5L0,-3.0L2.5,-0.5"/>
                </g>
                <g id="arrowDown" xlink:href="#dirArrow" transform="rotate(180) translate(-30 -48)" onmousedown="handlePan(0,1)">
                  <use xlink:href="#rim" fill="#404040">
                        <set attributeName="fill" to="#808080" begin="arrowDown.mouseover" end="arrowDown.mouseout"/>
                  </use>
                  <path fill="none" stroke="white" stroke-width="1.5" d="M0,-3.0v7 M-2.5,-0.5L0,-3.0L2.5,-0.5"/>
                </g>
                <g id="arrowLeft" xlink:href="#dirArrow" transform="rotate(270) translate(-36 17)" onmousedown="handlePan(-1,0)">
                  <use xlink:href="#rim" fill="#404040">
                        <set attributeName="fill" to="#808080" begin="arrowLeft.mouseover" end="arrowLeft.mouseout"/>
                  </use>
                  <path fill="none" stroke="white" stroke-width="1.5" d="M0,-3.0v7 M-2.5,-0.5L0,-3.0L2.5,-0.5"/>
                </g>
        </g>
        <svg viewBox="0 0 15 15" width="100%" height="30px" preserveAspectRatio="xMaxYMin meet">
         <g id="arrow_out" transform="scale(0.3 0.3)">
          <a xlink:href="classQtProjectWizardContentPathsHeaderSearch_aaba3f528b6ca16addeb400b9bcd665bb_cgraph_org.svg" target="_base">
           <rect id="button" ry="5" rx="5" y="6" x="6" height="38" width="38"
                fill="#f2f5e9" fill-opacity="0.5" stroke="#606060" stroke-width="1.0"/>
           <path id="arrow"
             d="M 11.500037,31.436501 C 11.940474,20.09759 22.043105,11.32322 32.158766,21.979434 L 37.068811,17.246167 C 37.068811,17.246167 37.088388,32 37.088388,32 L 22.160133,31.978069 C 22.160133,31.978069 26.997745,27.140456 26.997745,27.140456 C 18.528582,18.264221 13.291696,25.230495 11.500037,31.436501 z"
             style="fill:#404040;"/>
          </a>
         </g>
        </svg>
</svg>
