<?xml version="1.0" encoding="UTF-8" standalone="no"?>
<!DOCTYPE svg PUBLIC "-//W3C//DTD SVG 1.1//EN"
 "http://www.w3.org/Graphics/SVG/1.1/DTD/svg11.dtd">
<!-- Generated by graphviz version 7.1.0 (0)
 -->
<!-- Title: commandline::CommandlineCommand Pages: 1 -->
<svg width="342pt" height="104pt"
 viewBox="0.00 0.00 342.00 104.00" xmlns="http://www.w3.org/2000/svg" xmlns:xlink="http://www.w3.org/1999/xlink">
<g id="graph0" class="graph" transform="scale(1 1) rotate(0) translate(4 100)">
<title>commandline::CommandlineCommand</title>
<!-- Node1 -->
<g id="node1" class="node">
<title>Node1</title>
<g id="a_node1"><a xlink:title=" ">
<polygon fill="#999999" stroke="#666666" points="246,-96 88,-96 88,-66 246,-66 246,-96"/>
<text text-anchor="start" x="96" y="-84" font-family="Helvetica,sans-Serif" font-size="10.00">commandline::Commandline</text>
<text text-anchor="middle" x="167" y="-73" font-family="Helvetica,sans-Serif" font-size="10.00">Command</text>
</a>
</g>
</g>
<!-- Node2 -->
<g id="node2" class="node">
<title>Node2</title>
<g id="a_node2"><a xlink:href="classcommandline_1_1CommandlineCommandConfig.html" target="_top" xlink:title=" ">
<polygon fill="white" stroke="#666666" points="158,-30 0,-30 0,0 158,0 158,-30"/>
<text text-anchor="start" x="8" y="-18" font-family="Helvetica,sans-Serif" font-size="10.00">commandline::Commandline</text>
<text text-anchor="middle" x="79" y="-7" font-family="Helvetica,sans-Serif" font-size="10.00">CommandConfig</text>
</a>
</g>
</g>
<!-- Node1&#45;&gt;Node2 -->
<g id="edge1" class="edge">
<title>Node1&#45;&gt;Node2</title>
<path fill="none" stroke="#63b8ff" d="M138.47,-59.25C125.5,-49.82 110.48,-38.9 98.78,-30.39"/>
<polygon fill="#63b8ff" stroke="#63b8ff" points="136.1,-61.85 146.25,-64.91 140.22,-56.19 136.1,-61.85"/>
</g>
<!-- Node3 -->
<g id="node3" class="node">
<title>Node3</title>
<g id="a_node3"><a xlink:href="classcommandline_1_1CommandlineCommandIndex.html" target="_top" xlink:title=" ">
<polygon fill="white" stroke="#666666" points="334,-30 176,-30 176,0 334,0 334,-30"/>
<text text-anchor="start" x="184" y="-18" font-family="Helvetica,sans-Serif" font-size="10.00">commandline::Commandline</text>
<text text-anchor="middle" x="255" y="-7" font-family="Helvetica,sans-Serif" font-size="10.00">CommandIndex</text>
</a>
</g>
</g>
<!-- Node1&#45;&gt;Node3 -->
<g id="edge2" class="edge">
<title>Node1&#45;&gt;Node3</title>
<path fill="none" stroke="#63b8ff" d="M195.53,-59.25C208.5,-49.82 223.52,-38.9 235.22,-30.39"/>
<polygon fill="#63b8ff" stroke="#63b8ff" points="193.78,-56.19 187.75,-64.91 197.9,-61.85 193.78,-56.19"/>
</g>
</g>
</svg>
