<?xml version="1.0" encoding="UTF-8" standalone="no"?>
<!DOCTYPE svg PUBLIC "-//W3C//DTD SVG 1.1//EN"
 "http://www.w3.org/Graphics/SVG/1.1/DTD/svg11.dtd">
<!-- Generated by graphviz version 7.1.0 (0)
 -->
<!-- Title: Graph::removeNode Pages: 1 -->
<svg width="421pt" height="214pt"
 viewBox="0.00 0.00 421.00 214.00" xmlns="http://www.w3.org/2000/svg" xmlns:xlink="http://www.w3.org/1999/xlink">
<g id="graph0" class="graph" transform="scale(1 1) rotate(0) translate(4 210)">
<title>Graph::removeNode</title>
<!-- Node1 -->
<g id="node1" class="node">
<title>Node1</title>
<g id="a_node1"><a xlink:title=" ">
<polygon fill="#999999" stroke="#666666" points="115,-113 0,-113 0,-94 115,-94 115,-113"/>
<text text-anchor="middle" x="57.5" y="-101" font-family="Helvetica,sans-Serif" font-size="10.00">Graph::removeNode</text>
</a>
</g>
</g>
<!-- Node1&#45;&gt;Node1 -->
<g id="edge8" class="edge">
<title>Node1&#45;&gt;Node1</title>
<path fill="none" stroke="#63b8ff" d="M31.04,-113.37C18.97,-121.94 27.79,-131 57.5,-131 74.21,-131 84.31,-128.13 87.8,-124.1"/>
<polygon fill="#63b8ff" stroke="#63b8ff" points="91.14,-123.03 84.47,-114.79 84.55,-125.39 91.14,-123.03"/>
</g>
<!-- Node2 -->
<g id="node2" class="node">
<title>Node2</title>
<g id="a_node2"><a xlink:href="classNode.html#a52186bfd53116a1d47b22f0111c586e2" target="_top" xlink:title=" ">
<polygon fill="white" stroke="#666666" points="281,-206 172,-206 172,-187 281,-187 281,-206"/>
<text text-anchor="middle" x="226.5" y="-194" font-family="Helvetica,sans-Serif" font-size="10.00">Node::forEachEdge</text>
</a>
</g>
</g>
<!-- Node1&#45;&gt;Node2 -->
<g id="edge1" class="edge">
<title>Node1&#45;&gt;Node2</title>
<path fill="none" stroke="#63b8ff" d="M67.73,-113.43C83.32,-129.59 116.53,-161.46 151,-178.5 154.12,-180.04 157.38,-181.46 160.72,-182.76"/>
<polygon fill="#63b8ff" stroke="#63b8ff" points="159.55,-186.06 170.15,-186.02 161.84,-179.44 159.55,-186.06"/>
</g>
<!-- Node3 -->
<g id="node3" class="node">
<title>Node3</title>
<g id="a_node3"><a xlink:href="classNode.html#af174ff3d736a93109d028fffe5957cdf" target="_top" xlink:title=" ">
<polygon fill="white" stroke="#666666" points="298,-169 155,-169 155,-150 298,-150 298,-169"/>
<text text-anchor="middle" x="226.5" y="-157" font-family="Helvetica,sans-Serif" font-size="10.00">Node::forEachEdgeOfType</text>
</a>
</g>
</g>
<!-- Node1&#45;&gt;Node3 -->
<g id="edge2" class="edge">
<title>Node1&#45;&gt;Node3</title>
<path fill="none" stroke="#63b8ff" d="M79.83,-113.35C98.36,-121.65 126.06,-133.42 151,-141.5 156.7,-143.35 162.69,-145.1 168.71,-146.74"/>
<polygon fill="#63b8ff" stroke="#63b8ff" points="167.46,-150.03 178.02,-149.17 169.23,-143.26 167.46,-150.03"/>
</g>
<!-- Node4 -->
<g id="node4" class="node">
<title>Node4</title>
<g id="a_node4"><a xlink:href="classNode.html#ab36c5297d3ecfee4757a7442cb083379" target="_top" xlink:title=" ">
<polygon fill="white" stroke="#666666" points="284.5,-132 168.5,-132 168.5,-113 284.5,-113 284.5,-132"/>
<text text-anchor="middle" x="226.5" y="-120" font-family="Helvetica,sans-Serif" font-size="10.00">Node::getEdgeCount</text>
</a>
</g>
</g>
<!-- Node1&#45;&gt;Node4 -->
<g id="edge3" class="edge">
<title>Node1&#45;&gt;Node4</title>
<path fill="none" stroke="#63b8ff" d="M115.04,-109.93C128.55,-111.47 143.12,-113.13 157.11,-114.72"/>
<polygon fill="#63b8ff" stroke="#63b8ff" points="156.33,-118.15 166.66,-115.81 157.12,-111.2 156.33,-118.15"/>
</g>
<!-- Node5 -->
<g id="node5" class="node">
<title>Node5</title>
<g id="a_node5"><a xlink:href="classEdge.html#aafdd29ac6ed636661849c253a34f54db" target="_top" xlink:title=" ">
<polygon fill="white" stroke="#666666" points="270,-95 183,-95 183,-76 270,-76 270,-95"/>
<text text-anchor="middle" x="226.5" y="-83" font-family="Helvetica,sans-Serif" font-size="10.00">Edge::getFrom</text>
</a>
</g>
</g>
<!-- Node1&#45;&gt;Node5 -->
<g id="edge4" class="edge">
<title>Node1&#45;&gt;Node5</title>
<path fill="none" stroke="#63b8ff" d="M115.04,-97.41C133.29,-95.44 153.46,-93.26 171.52,-91.32"/>
<polygon fill="#63b8ff" stroke="#63b8ff" points="171.68,-94.82 181.25,-90.27 170.93,-87.86 171.68,-94.82"/>
</g>
<!-- Node6 -->
<g id="node6" class="node">
<title>Node6</title>
<g id="a_node6"><a xlink:href="classToken.html#a7327713d89dab24b733a7ff9096deea0" target="_top" xlink:title=" ">
<polygon fill="white" stroke="#666666" points="413,-38 338,-38 338,-19 413,-19 413,-38"/>
<text text-anchor="middle" x="375.5" y="-26" font-family="Helvetica,sans-Serif" font-size="10.00">Token::getId</text>
</a>
</g>
</g>
<!-- Node1&#45;&gt;Node6 -->
<g id="edge5" class="edge">
<title>Node1&#45;&gt;Node6</title>
<path fill="none" stroke="#63b8ff" d="M80.51,-93.5C98.99,-85.46 126.27,-74.4 151,-67.5 210.33,-50.95 280.58,-40.07 326.27,-34.1"/>
<polygon fill="#63b8ff" stroke="#63b8ff" points="326.64,-37.59 336.11,-32.85 325.75,-30.64 326.64,-37.59"/>
</g>
<!-- Node7 -->
<g id="node7" class="node">
<title>Node7</title>
<g id="a_node7"><a xlink:href="classGraph.html#a67f9051f41300b017104b34eb4fbdc4e" target="_top" xlink:title=" ">
<polygon fill="white" stroke="#666666" points="302,-19 151,-19 151,0 302,0 302,-19"/>
<text text-anchor="middle" x="226.5" y="-7" font-family="Helvetica,sans-Serif" font-size="10.00">Graph::removeEdgeInternal</text>
</a>
</g>
</g>
<!-- Node1&#45;&gt;Node7 -->
<g id="edge6" class="edge">
<title>Node1&#45;&gt;Node7</title>
<path fill="none" stroke="#63b8ff" d="M69.07,-93.58C85.45,-78.66 118.48,-50.42 151,-33.5 158.63,-29.53 167.04,-26.06 175.37,-23.08"/>
<polygon fill="#63b8ff" stroke="#63b8ff" points="176.41,-26.42 184.78,-19.93 174.19,-19.78 176.41,-26.42"/>
</g>
<!-- Node7&#45;&gt;Node6 -->
<g id="edge7" class="edge">
<title>Node7&#45;&gt;Node6</title>
<path fill="none" stroke="#63b8ff" d="M302.29,-19.17C310.49,-20.23 318.66,-21.28 326.41,-22.28"/>
<polygon fill="#63b8ff" stroke="#63b8ff" points="325.91,-25.75 336.28,-23.56 326.81,-18.81 325.91,-25.75"/>
</g>
</g>
</svg>
