<?xml version="1.0" encoding="UTF-8" standalone="no"?>
<!DOCTYPE svg PUBLIC "-//W3C//DTD SVG 1.1//EN"
 "http://www.w3.org/Graphics/SVG/1.1/DTD/svg11.dtd">
<!-- Generated by graphviz version 7.1.0 (0)
 -->
<!-- Title: QtCodeFileSingle::getFileData Pages: 1 -->
<!--zoomable 113 -->
<svg id="main" version="1.1" xmlns="http://www.w3.org/2000/svg" xmlns:xlink="http://www.w3.org/1999/xlink" xml:space="preserve" onload="init(evt)">
<style type="text/css"><![CDATA[
.edge:hover path { stroke: red; }
.edge:hover polygon { stroke: red; fill: red; }
]]></style>
<script type="text/javascript"><![CDATA[
var edges = document.getElementsByTagName('g');
if (edges && edges.length) {
  for (var i=0;i<edges.length;i++) {
    if (edges[i].id.substr(0,4)=='edge') {
      edges[i].setAttribute('class','edge');
    }
  }
}
]]></script>
        <defs>
                <circle id="rim" cx="0" cy="0" r="7"/>
                <circle id="rim2" cx="0" cy="0" r="3.5"/>
                <g id="zoomPlus">
                        <use xlink:href="#rim" fill="#404040">
                                <set attributeName="fill" to="#808080" begin="zoomplus.mouseover" end="zoomplus.mouseout"/>
                        </use>
                        <path d="M-4,0h8M0,-4v8" fill="none" stroke="white" stroke-width="1.5" pointer-events="none"/>
                </g>
                <g id="zoomMin">
                        <use xlink:href="#rim" fill="#404040">
                                <set attributeName="fill" to="#808080" begin="zoomminus.mouseover" end="zoomminus.mouseout"/>
                        </use>
                        <path d="M-4,0h8" fill="none" stroke="white" stroke-width="1.5" pointer-events="none"/>
                </g>
                <g id="dirArrow">
                        <path fill="none" stroke="white" stroke-width="1.5" d="M0,-3.0v7 M-2.5,-0.5L0,-3.0L2.5,-0.5"/>
                </g>
               <g id="resetDef">
                       <use xlink:href="#rim2" fill="#404040">
                               <set attributeName="fill" to="#808080" begin="reset.mouseover" end="reset.mouseout"/>
                       </use>
               </g>
        </defs>

<script type="text/javascript">
var viewWidth = 745;
var viewHeight = 113;
var sectionId = 'dynsection-17';
</script>
<script xlink:href="svgpan.js"/>
<svg id="graph" class="graph">
<g id="viewport">
<title>QtCodeFileSingle::getFileData</title>
<!-- Node1 -->
<g id="node1" class="node">
<title>Node1</title>
<g id="a_node1"><a xlink:title=" ">
<polygon fill="#999999" stroke="#666666" points="737,-62 576,-62 576,-43 737,-43 737,-62"/>
<text text-anchor="middle" x="656.5" y="-50" font-family="Helvetica,sans-Serif" font-size="10.00">QtCodeFileSingle::getFileData</text>
</a>
</g>
</g>
<!-- Node2 -->
<g id="node2" class="node">
<title>Node2</title>
<g id="a_node2"><a xlink:href="classQtCodeFileSingle.html#a9a79da8d37022afa497a602193893364" target="_top" xlink:title=" ">
<polygon fill="white" stroke="#666666" points="539,-105 399,-105 399,-86 539,-86 539,-105"/>
<text text-anchor="middle" x="469" y="-93" font-family="Helvetica,sans-Serif" font-size="10.00">QtCodeFileSingle::addFile</text>
</a>
</g>
</g>
<!-- Node1&#45;&gt;Node2 -->
<g id="edge1" class="edge">
<title>Node1&#45;&gt;Node2</title>
<path fill="none" stroke="#63b8ff" d="M601.61,-64.99C573.46,-71.52 539.49,-79.39 513.11,-85.51"/>
<polygon fill="#63b8ff" stroke="#63b8ff" points="602.05,-68.48 611,-62.81 600.47,-61.66 602.05,-68.48"/>
</g>
<!-- Node5 -->
<g id="node5" class="node">
<title>Node5</title>
<g id="a_node5"><a xlink:href="classQtCodeFileSingle.html#ab3af1d31df504eab175fd95296c95d38" target="_top" xlink:title=" ">
<polygon fill="white" stroke="#666666" points="538.5,-67.5 399.5,-67.5 399.5,-37.5 538.5,-37.5 538.5,-67.5"/>
<text text-anchor="start" x="407.5" y="-55.5" font-family="Helvetica,sans-Serif" font-size="10.00">QtCodeFileSingle::hasFile</text>
<text text-anchor="middle" x="469" y="-44.5" font-family="Helvetica,sans-Serif" font-size="10.00">Cached</text>
</a>
</g>
</g>
<!-- Node1&#45;&gt;Node5 -->
<g id="edge4" class="edge">
<title>Node1&#45;&gt;Node5</title>
<path fill="none" stroke="#63b8ff" d="M564.47,-52.5C555.86,-52.5 547.24,-52.5 538.88,-52.5"/>
<polygon fill="#63b8ff" stroke="#63b8ff" points="564.24,-56 574.24,-52.5 564.24,-49 564.24,-56"/>
</g>
<!-- Node8 -->
<g id="node8" class="node">
<title>Node8</title>
<g id="a_node8"><a xlink:href="classQtCodeFileSingle.html#a025dfc782328c0e8ea4c66b036c321d3" target="_top" xlink:title=" ">
<polygon fill="white" stroke="#666666" points="540,-19 398,-19 398,0 540,0 540,-19"/>
<text text-anchor="middle" x="469" y="-7" font-family="Helvetica,sans-Serif" font-size="10.00">QtCodeFileSingle::scrollTo</text>
</a>
</g>
</g>
<!-- Node1&#45;&gt;Node8 -->
<g id="edge7" class="edge">
<title>Node1&#45;&gt;Node8</title>
<path fill="none" stroke="#63b8ff" d="M601.61,-40.01C573.46,-33.48 539.49,-25.61 513.11,-19.49"/>
<polygon fill="#63b8ff" stroke="#63b8ff" points="600.47,-43.34 611,-42.19 602.05,-36.52 600.47,-43.34"/>
</g>
<!-- Node3 -->
<g id="node3" class="node">
<title>Node3</title>
<g id="a_node3"><a xlink:href="classQtCodeNavigator.html#aef582a683123b6752860443d2a302712" target="_top" xlink:title=" ">
<polygon fill="white" stroke="#666666" points="362,-105 191,-105 191,-86 362,-86 362,-105"/>
<text text-anchor="middle" x="276.5" y="-93" font-family="Helvetica,sans-Serif" font-size="10.00">QtCodeNavigator::addSingleFile</text>
</a>
</g>
</g>
<!-- Node2&#45;&gt;Node3 -->
<g id="edge2" class="edge">
<title>Node2&#45;&gt;Node3</title>
<path fill="none" stroke="#63b8ff" d="M387.19,-95.5C378.97,-95.5 370.6,-95.5 362.34,-95.5"/>
<polygon fill="#63b8ff" stroke="#63b8ff" points="387.17,-99 397.17,-95.5 387.17,-92 387.17,-99"/>
</g>
<!-- Node4 -->
<g id="node4" class="node">
<title>Node4</title>
<g id="a_node4"><a xlink:href="classQtCodeView.html#a03d33b6b0d51a10ab3c407765c6e8c6d" target="_top" xlink:title=" ">
<polygon fill="white" stroke="#666666" points="155,-105 0,-105 0,-86 155,-86 155,-105"/>
<text text-anchor="middle" x="77.5" y="-93" font-family="Helvetica,sans-Serif" font-size="10.00">QtCodeView::showSingleFile</text>
</a>
</g>
</g>
<!-- Node3&#45;&gt;Node4 -->
<g id="edge3" class="edge">
<title>Node3&#45;&gt;Node4</title>
<path fill="none" stroke="#63b8ff" d="M179.26,-95.5C171.27,-95.5 163.25,-95.5 155.43,-95.5"/>
<polygon fill="#63b8ff" stroke="#63b8ff" points="179.01,-99 189.01,-95.5 179.01,-92 179.01,-99"/>
</g>
<!-- Node6 -->
<g id="node6" class="node">
<title>Node6</title>
<g id="a_node6"><a xlink:href="classQtCodeNavigator.html#a5bcfb701fa2866f801c92126718a1ed0" target="_top" xlink:title=" ">
<polygon fill="white" stroke="#666666" points="353.5,-67.5 199.5,-67.5 199.5,-37.5 353.5,-37.5 353.5,-67.5"/>
<text text-anchor="start" x="207.5" y="-55.5" font-family="Helvetica,sans-Serif" font-size="10.00">QtCodeNavigator::hasSingle</text>
<text text-anchor="middle" x="276.5" y="-44.5" font-family="Helvetica,sans-Serif" font-size="10.00">FileCached</text>
</a>
</g>
</g>
<!-- Node5&#45;&gt;Node6 -->
<g id="edge5" class="edge">
<title>Node5&#45;&gt;Node6</title>
<path fill="none" stroke="#63b8ff" d="M388.05,-52.5C376.75,-52.5 365.15,-52.5 353.92,-52.5"/>
<polygon fill="#63b8ff" stroke="#63b8ff" points="387.71,-56 397.71,-52.5 387.71,-49 387.71,-56"/>
</g>
<!-- Node7 -->
<g id="node7" class="node">
<title>Node7</title>
<g id="a_node7"><a xlink:href="classQtCodeView.html#a3baabefef69ad375feea6c6119daa6d3" target="_top" xlink:title=" ">
<polygon fill="white" stroke="#666666" points="150.5,-67.5 4.5,-67.5 4.5,-37.5 150.5,-37.5 150.5,-67.5"/>
<text text-anchor="start" x="12.5" y="-55.5" font-family="Helvetica,sans-Serif" font-size="10.00">QtCodeView::hasSingleFile</text>
<text text-anchor="middle" x="77.5" y="-44.5" font-family="Helvetica,sans-Serif" font-size="10.00">Cached</text>
</a>
</g>
</g>
<!-- Node6&#45;&gt;Node7 -->
<g id="edge6" class="edge">
<title>Node6&#45;&gt;Node7</title>
<path fill="none" stroke="#63b8ff" d="M187.76,-52.5C175.38,-52.5 162.76,-52.5 150.71,-52.5"/>
<polygon fill="#63b8ff" stroke="#63b8ff" points="187.54,-56 197.54,-52.5 187.54,-49 187.54,-56"/>
</g>
</g>
</svg>
        <g id="navigator" transform="translate(0 0)" fill="#404254">
                <rect fill="#f2f5e9" fill-opacity="0.5" stroke="#606060" stroke-width=".5" x="0" y="0" width="60" height="60"/>
                <use id="zoomplus" xlink:href="#zoomPlus" x="17" y="9" onmousedown="handleZoom(evt,'in')"/>
                <use id="zoomminus" xlink:href="#zoomMin" x="42" y="9" onmousedown="handleZoom(evt,'out')"/>
                <use id="reset" xlink:href="#resetDef" x="30" y="36" onmousedown="handleReset()"/>
                <g id="arrowUp" xlink:href="#dirArrow" transform="translate(30 24)" onmousedown="handlePan(0,-1)">
                  <use xlink:href="#rim" fill="#404040">
                        <set attributeName="fill" to="#808080" begin="arrowUp.mouseover" end="arrowUp.mouseout"/>
                  </use>
                  <path fill="none" stroke="white" stroke-width="1.5" d="M0,-3.0v7 M-2.5,-0.5L0,-3.0L2.5,-0.5"/>
                </g>
                <g id="arrowRight" xlink:href="#dirArrow" transform="rotate(90) translate(36 -43)" onmousedown="handlePan(1,0)">
                  <use xlink:href="#rim" fill="#404040">
                        <set attributeName="fill" to="#808080" begin="arrowRight.mouseover" end="arrowRight.mouseout"/>
                  </use>
                  <path fill="none" stroke="white" stroke-width="1.5" d="M0,-3.0v7 M-2.5,-0.5L0,-3.0L2.5,-0.5"/>
                </g>
                <g id="arrowDown" xlink:href="#dirArrow" transform="rotate(180) translate(-30 -48)" onmousedown="handlePan(0,1)">
                  <use xlink:href="#rim" fill="#404040">
                        <set attributeName="fill" to="#808080" begin="arrowDown.mouseover" end="arrowDown.mouseout"/>
                  </use>
                  <path fill="none" stroke="white" stroke-width="1.5" d="M0,-3.0v7 M-2.5,-0.5L0,-3.0L2.5,-0.5"/>
                </g>
                <g id="arrowLeft" xlink:href="#dirArrow" transform="rotate(270) translate(-36 17)" onmousedown="handlePan(-1,0)">
                  <use xlink:href="#rim" fill="#404040">
                        <set attributeName="fill" to="#808080" begin="arrowLeft.mouseover" end="arrowLeft.mouseout"/>
                  </use>
                  <path fill="none" stroke="white" stroke-width="1.5" d="M0,-3.0v7 M-2.5,-0.5L0,-3.0L2.5,-0.5"/>
                </g>
        </g>
        <svg viewBox="0 0 15 15" width="100%" height="30px" preserveAspectRatio="xMaxYMin meet">
         <g id="arrow_out" transform="scale(0.3 0.3)">
          <a xlink:href="classQtCodeFileSingle_a4473897ca0f95e9760379e7c0a24e59e_icgraph_org.svg" target="_base">
           <rect id="button" ry="5" rx="5" y="6" x="6" height="38" width="38"
                fill="#f2f5e9" fill-opacity="0.5" stroke="#606060" stroke-width="1.0"/>
           <path id="arrow"
             d="M 11.500037,31.436501 C 11.940474,20.09759 22.043105,11.32322 32.158766,21.979434 L 37.068811,17.246167 C 37.068811,17.246167 37.088388,32 37.088388,32 L 22.160133,31.978069 C 22.160133,31.978069 26.997745,27.140456 26.997745,27.140456 C 18.528582,18.264221 13.291696,25.230495 11.500037,31.436501 z"
             style="fill:#404040;"/>
          </a>
         </g>
        </svg>
</svg>
