<?xml version="1.0" encoding="UTF-8" standalone="no"?>
<!DOCTYPE svg PUBLIC "-//W3C//DTD SVG 1.1//EN"
 "http://www.w3.org/Graphics/SVG/1.1/DTD/svg11.dtd">
<!-- Generated by graphviz version 9.0.0 (0)
 -->
<!-- Title: PersistentStorage::getAllNodeBookmarks Pages: 1 -->
<svg width="514pt" height="275pt"
 viewBox="0.00 0.00 514.25 275.12" xmlns="http://www.w3.org/2000/svg" xmlns:xlink="http://www.w3.org/1999/xlink">
<g id="graph0" class="graph" transform="scale(1 1) rotate(0) translate(4 271.12)">
<title>PersistentStorage::getAllNodeBookmarks</title>
<!-- Node1 -->
<g id="Node000001" class="node">
<title>Node1</title>
<g id="a_Node000001"><a xlink:title=" ">
<polygon fill="#999999" stroke="#666666" points="125.5,-137.12 0,-137.12 0,-103.62 125.5,-103.62 125.5,-137.12"/>
<text text-anchor="start" x="8" y="-123.62" font-family="Helvetica,sans-Serif" font-size="10.00">PersistentStorage::</text>
<text text-anchor="middle" x="62.75" y="-110.88" font-family="Helvetica,sans-Serif" font-size="10.00">getAllNodeBookmarks</text>
</a>
</g>
</g>
<!-- Node2 -->
<g id="Node000002" class="node">
<title>Node2</title>
<g id="a_Node000002"><a xlink:href="classSqliteBookmarkStorage.html#a6464868a341a475fd405b63e8dd8e033" target="_top" xlink:title=" ">
<polygon fill="white" stroke="#666666" points="314.75,-267.12 161.5,-267.12 161.5,-233.62 314.75,-233.62 314.75,-267.12"/>
<text text-anchor="start" x="169.5" y="-253.62" font-family="Helvetica,sans-Serif" font-size="10.00">SqliteBookmarkStorage</text>
<text text-anchor="middle" x="238.12" y="-240.88" font-family="Helvetica,sans-Serif" font-size="10.00">::getAllBookmarkCategories</text>
</a>
</g>
</g>
<!-- Node1&#45;&gt;Node2 -->
<g id="edge1_Node000001_Node000002" class="edge">
<title>Node1&#45;&gt;Node2</title>
<g id="a_edge1_Node000001_Node000002"><a xlink:title=" ">
<path fill="none" stroke="#63b8ff" d="M75.69,-137.56C92.41,-160.42 124.87,-200.7 161.5,-224.38 163.5,-225.67 165.58,-226.91 167.71,-228.09"/>
<polygon fill="#63b8ff" stroke="#63b8ff" points="166.13,-231.21 176.64,-232.56 169.26,-224.95 166.13,-231.21"/>
</a>
</g>
</g>
<!-- Node3 -->
<g id="Node000003" class="node">
<title>Node3</title>
<g id="a_Node000003"><a xlink:href="classSqliteBookmarkStorage.html#a98c1e75af13877884c1791b395298e7d" target="_top" xlink:title=" ">
<polygon fill="white" stroke="#666666" points="309.5,-215.12 166.75,-215.12 166.75,-181.62 309.5,-181.62 309.5,-215.12"/>
<text text-anchor="start" x="174.75" y="-201.62" font-family="Helvetica,sans-Serif" font-size="10.00">SqliteBookmarkStorage</text>
<text text-anchor="middle" x="238.12" y="-188.88" font-family="Helvetica,sans-Serif" font-size="10.00">::getAllBookmarkedNodes</text>
</a>
</g>
</g>
<!-- Node1&#45;&gt;Node3 -->
<g id="edge2_Node000001_Node000003" class="edge">
<title>Node1&#45;&gt;Node3</title>
<g id="a_edge2_Node000001_Node000003"><a xlink:title=" ">
<path fill="none" stroke="#63b8ff" d="M93.1,-137.55C112.2,-148.34 137.88,-162.11 161.5,-172.38 165.29,-174.02 169.22,-175.64 173.2,-177.2"/>
<polygon fill="#63b8ff" stroke="#63b8ff" points="171.82,-180.42 182.41,-180.7 174.31,-173.88 171.82,-180.42"/>
</a>
</g>
</g>
<!-- Node4 -->
<g id="Node000004" class="node">
<title>Node4</title>
<g id="a_Node000004"><a xlink:href="classSqliteBookmarkStorage.html#aa827950d408fc2e42579d27990e4bd2c" target="_top" xlink:title=" ">
<polygon fill="white" stroke="#666666" points="303.88,-163.12 172.38,-163.12 172.38,-129.62 303.88,-129.62 303.88,-163.12"/>
<text text-anchor="start" x="180.38" y="-149.62" font-family="Helvetica,sans-Serif" font-size="10.00">SqliteBookmarkStorage</text>
<text text-anchor="middle" x="238.12" y="-136.88" font-family="Helvetica,sans-Serif" font-size="10.00">::getAllBookmarks</text>
</a>
</g>
</g>
<!-- Node1&#45;&gt;Node4 -->
<g id="edge3_Node000001_Node000004" class="edge">
<title>Node1&#45;&gt;Node4</title>
<g id="a_edge3_Node000001_Node000004"><a xlink:title=" ">
<path fill="none" stroke="#63b8ff" d="M125.85,-129.69C137.19,-131.39 149.14,-133.18 160.84,-134.93"/>
<polygon fill="#63b8ff" stroke="#63b8ff" points="160.04,-138.35 170.45,-136.38 161.08,-131.43 160.04,-138.35"/>
</a>
</g>
</g>
<!-- Node5 -->
<g id="Node000005" class="node">
<title>Node5</title>
<g id="a_Node000005"><a xlink:href="classSqliteIndexStorage.html#a763983a48200795896512e66657c9b21" target="_top" xlink:title=" ">
<polygon fill="white" stroke="#666666" points="314.75,-111.12 161.5,-111.12 161.5,-77.62 314.75,-77.62 314.75,-111.12"/>
<text text-anchor="start" x="169.5" y="-97.62" font-family="Helvetica,sans-Serif" font-size="10.00">SqliteIndexStorage</text>
<text text-anchor="middle" x="238.12" y="-84.88" font-family="Helvetica,sans-Serif" font-size="10.00">::getNodeBySerializedName</text>
</a>
</g>
</g>
<!-- Node1&#45;&gt;Node5 -->
<g id="edge4_Node000001_Node000005" class="edge">
<title>Node1&#45;&gt;Node5</title>
<g id="a_edge4_Node000001_Node000005"><a xlink:title=" ">
<path fill="none" stroke="#63b8ff" d="M125.85,-111.06C133.74,-109.88 141.91,-108.65 150.1,-107.43"/>
<polygon fill="#63b8ff" stroke="#63b8ff" points="150.36,-110.93 159.73,-105.98 149.32,-104 150.36,-110.93"/>
</a>
</g>
</g>
<!-- Node9 -->
<g id="Node000009" class="node">
<title>Node9</title>
<g id="a_Node000009"><a xlink:href="classBookmark.html#adabec5b8ca227369dc818f7ac873341e" target="_top" xlink:title=" ">
<polygon fill="white" stroke="#666666" points="298.25,-59.75 178,-59.75 178,-39 298.25,-39 298.25,-59.75"/>
<text text-anchor="middle" x="238.12" y="-46.25" font-family="Helvetica,sans-Serif" font-size="10.00">Bookmark::setIsValid</text>
</a>
</g>
</g>
<!-- Node1&#45;&gt;Node9 -->
<g id="edge8_Node000001_Node000009" class="edge">
<title>Node1&#45;&gt;Node9</title>
<g id="a_edge8_Node000001_Node000009"><a xlink:title=" ">
<path fill="none" stroke="#63b8ff" d="M91.55,-103.25C110.66,-92.06 136.92,-77.84 161.5,-68.38 166.17,-66.58 171.08,-64.9 176.05,-63.35"/>
<polygon fill="#63b8ff" stroke="#63b8ff" points="176.89,-66.75 185.51,-60.58 174.93,-60.03 176.89,-66.75"/>
</a>
</g>
</g>
<!-- Node11 -->
<g id="Node000011" class="node">
<title>Node11</title>
<g id="a_Node000011"><a xlink:href="classNodeBookmark.html#aae3a2ee0c9a85cb1ac4504736c06d585" target="_top" xlink:title=" ">
<polygon fill="white" stroke="#666666" points="314.38,-20.75 161.88,-20.75 161.88,0 314.38,0 314.38,-20.75"/>
<text text-anchor="middle" x="238.12" y="-7.25" font-family="Helvetica,sans-Serif" font-size="10.00">NodeBookmark::setNodeIds</text>
</a>
</g>
</g>
<!-- Node1&#45;&gt;Node11 -->
<g id="edge10_Node000001_Node000011" class="edge">
<title>Node1&#45;&gt;Node11</title>
<g id="a_edge10_Node000001_Node000011"><a xlink:title=" ">
<path fill="none" stroke="#63b8ff" d="M77.48,-103.47C94.91,-83.12 126.91,-49.33 161.5,-30.38 164.94,-28.49 168.56,-26.78 172.29,-25.22"/>
<polygon fill="#63b8ff" stroke="#63b8ff" points="173.42,-28.53 181.57,-21.76 170.97,-21.97 173.42,-28.53"/>
</a>
</g>
</g>
<!-- Node6 -->
<g id="Node000006" class="node">
<title>Node6</title>
<g id="a_Node000006"><a xlink:href="namespaceutility.html#ae8e6193074d8d821d3da0ccf3b1893c9" target="_top" xlink:title=" ">
<polygon fill="white" stroke="#666666" points="493.88,-160.75 363.12,-160.75 363.12,-140 493.88,-140 493.88,-160.75"/>
<text text-anchor="middle" x="428.5" y="-147.25" font-family="Helvetica,sans-Serif" font-size="10.00">utility::decodeFromUtf8</text>
</a>
</g>
</g>
<!-- Node5&#45;&gt;Node6 -->
<g id="edge5_Node000005_Node000006" class="edge">
<title>Node5&#45;&gt;Node6</title>
<g id="a_edge5_Node000005_Node000006"><a xlink:title=" ">
<path fill="none" stroke="#63b8ff" d="M290.34,-111.57C309.25,-117.74 330.91,-124.59 350.75,-130.38 358.03,-132.5 365.74,-134.63 373.34,-136.68"/>
<polygon fill="#63b8ff" stroke="#63b8ff" points="372.33,-140.03 382.89,-139.21 374.12,-133.26 372.33,-140.03"/>
</a>
</g>
</g>
<!-- Node7 -->
<g id="Node000007" class="node">
<title>Node7</title>
<g id="a_Node000007"><a xlink:href="namespaceutility.html#a4959dcb82d86854e88fa8757194a00ec" target="_top" xlink:title=" ">
<polygon fill="white" stroke="#666666" points="486.75,-121.75 370.25,-121.75 370.25,-101 486.75,-101 486.75,-121.75"/>
<text text-anchor="middle" x="428.5" y="-108.25" font-family="Helvetica,sans-Serif" font-size="10.00">utility::encodeToUtf8</text>
</a>
</g>
</g>
<!-- Node5&#45;&gt;Node7 -->
<g id="edge6_Node000005_Node000007" class="edge">
<title>Node5&#45;&gt;Node7</title>
<g id="a_edge6_Node000005_Node000007"><a xlink:title=" ">
<path fill="none" stroke="#63b8ff" d="M315.2,-101.24C329.62,-102.54 344.63,-103.9 358.81,-105.18"/>
<polygon fill="#63b8ff" stroke="#63b8ff" points="358.2,-108.63 368.47,-106.05 358.82,-101.66 358.2,-108.63"/>
</a>
</g>
</g>
<!-- Node8 -->
<g id="Node000008" class="node">
<title>Node8</title>
<g id="a_Node000008"><a xlink:href="classSqliteStorage.html#a6a89b1a3823a6ba065874769b09bf9cc" target="_top" xlink:title=" ">
<polygon fill="white" stroke="#666666" points="506.25,-82.75 350.75,-82.75 350.75,-62 506.25,-62 506.25,-82.75"/>
<text text-anchor="middle" x="428.5" y="-69.25" font-family="Helvetica,sans-Serif" font-size="10.00">SqliteStorage::executeQuery</text>
</a>
</g>
</g>
<!-- Node5&#45;&gt;Node8 -->
<g id="edge7_Node000005_Node000008" class="edge">
<title>Node5&#45;&gt;Node8</title>
<g id="a_edge7_Node000005_Node000008"><a xlink:title=" ">
<path fill="none" stroke="#63b8ff" d="M315.2,-85.49C323.11,-84.57 331.2,-83.62 339.23,-82.68"/>
<polygon fill="#63b8ff" stroke="#63b8ff" points="339.5,-86.18 349.02,-81.54 338.68,-79.22 339.5,-86.18"/>
</a>
</g>
</g>
<!-- Node10 -->
<g id="Node000010" class="node">
<title>Node10</title>
<g id="a_Node000010"><a xlink:href="classBookmark.html#a19a8c84ba86d92539f5748283173c956" target="_top" xlink:title=" ">
<polygon fill="white" stroke="#666666" points="481.12,-43.75 375.88,-43.75 375.88,-23 481.12,-23 481.12,-43.75"/>
<text text-anchor="middle" x="428.5" y="-30.25" font-family="Helvetica,sans-Serif" font-size="10.00">Bookmark::isValid</text>
</a>
</g>
</g>
<!-- Node9&#45;&gt;Node10 -->
<g id="edge9_Node000009_Node000010" class="edge">
<title>Node9&#45;&gt;Node10</title>
<g id="a_edge9_Node000009_Node000010"><a xlink:title=" ">
<path fill="none" stroke="#63b8ff" d="M298.73,-44.31C319.55,-42.54 343,-40.55 364.12,-38.76"/>
<polygon fill="#63b8ff" stroke="#63b8ff" points="364.41,-42.25 374.08,-37.91 363.82,-35.27 364.41,-42.25"/>
</a>
</g>
</g>
</g>
</svg>
