<?xml version="1.0" encoding="UTF-8" standalone="no"?>
<!DOCTYPE svg PUBLIC "-//W3C//DTD SVG 1.1//EN"
 "http://www.w3.org/Graphics/SVG/1.1/DTD/svg11.dtd">
<!-- Generated by graphviz version 9.0.0 (0)
 -->
<!-- Title: CxxContext Pages: 1 -->
<svg width="216pt" height="86pt"
 viewBox="0.00 0.00 216.12 85.50" xmlns="http://www.w3.org/2000/svg" xmlns:xlink="http://www.w3.org/1999/xlink">
<g id="graph0" class="graph" transform="scale(1 1) rotate(0) translate(4 81.5)">
<title>CxxContext</title>
<!-- Node1 -->
<g id="Node000001" class="node">
<title>Node1</title>
<g id="a_Node000001"><a xlink:title=" ">
<polygon fill="#999999" stroke="#666666" points="139.88,-77.5 66.88,-77.5 66.88,-56.75 139.88,-56.75 139.88,-77.5"/>
<text text-anchor="middle" x="103.38" y="-64" font-family="Helvetica,sans-Serif" font-size="10.00">CxxContext</text>
</a>
</g>
</g>
<!-- Node2 -->
<g id="Node000002" class="node">
<title>Node2</title>
<g id="a_Node000002"><a xlink:href="classCxxContextDecl.html" target="_top" xlink:title=" ">
<polygon fill="white" stroke="#666666" points="94.75,-20.75 0,-20.75 0,0 94.75,0 94.75,-20.75"/>
<text text-anchor="middle" x="47.38" y="-7.25" font-family="Helvetica,sans-Serif" font-size="10.00">CxxContextDecl</text>
</a>
</g>
</g>
<!-- Node1&#45;&gt;Node2 -->
<g id="edge1_Node000001_Node000002" class="edge">
<title>Node1&#45;&gt;Node2</title>
<g id="a_edge1_Node000001_Node000002"><a xlink:title=" ">
<path fill="none" stroke="#63b8ff" d="M85.14,-48.3C75.89,-39.25 65,-28.61 57.3,-21.08"/>
<polygon fill="#63b8ff" stroke="#63b8ff" points="82.68,-50.79 92.28,-55.28 87.58,-45.79 82.68,-50.79"/>
</a>
</g>
</g>
<!-- Node3 -->
<g id="Node000003" class="node">
<title>Node3</title>
<g id="a_Node000003"><a xlink:href="classCxxContextType.html" target="_top" xlink:title=" ">
<polygon fill="white" stroke="#666666" points="208.12,-20.75 112.62,-20.75 112.62,0 208.12,0 208.12,-20.75"/>
<text text-anchor="middle" x="160.38" y="-7.25" font-family="Helvetica,sans-Serif" font-size="10.00">CxxContextType</text>
</a>
</g>
</g>
<!-- Node1&#45;&gt;Node3 -->
<g id="edge2_Node000001_Node000003" class="edge">
<title>Node1&#45;&gt;Node3</title>
<g id="a_edge2_Node000001_Node000003"><a xlink:title=" ">
<path fill="none" stroke="#63b8ff" d="M121.64,-48.58C131.13,-39.47 142.35,-28.68 150.27,-21.08"/>
<polygon fill="#63b8ff" stroke="#63b8ff" points="119.44,-45.84 114.66,-55.29 124.29,-50.89 119.44,-45.84"/>
</a>
</g>
</g>
</g>
</svg>
