<?xml version="1.0" encoding="UTF-8" standalone="no"?>
<!DOCTYPE svg PUBLIC "-//W3C//DTD SVG 1.1//EN"
 "http://www.w3.org/Graphics/SVG/1.1/DTD/svg11.dtd">
<!-- Generated by graphviz version 7.1.0 (0)
 -->
<!-- Title: BookmarkController::getAllBookmarks Pages: 1 -->
<svg width="674pt" height="108pt"
 viewBox="0.00 0.00 674.00 108.00" xmlns="http://www.w3.org/2000/svg" xmlns:xlink="http://www.w3.org/1999/xlink">
<g id="graph0" class="graph" transform="scale(1 1) rotate(0) translate(4 104)">
<title>BookmarkController::getAllBookmarks</title>
<!-- Node1 -->
<g id="node1" class="node">
<title>Node1</title>
<g id="a_node1"><a xlink:title=" ">
<polygon fill="#999999" stroke="#666666" points="115,-64.5 0,-64.5 0,-34.5 115,-34.5 115,-64.5"/>
<text text-anchor="start" x="8" y="-52.5" font-family="Helvetica,sans-Serif" font-size="10.00">BookmarkController</text>
<text text-anchor="middle" x="57.5" y="-41.5" font-family="Helvetica,sans-Serif" font-size="10.00">::getAllBookmarks</text>
</a>
</g>
</g>
<!-- Node2 -->
<g id="node2" class="node">
<title>Node2</title>
<g id="a_node2"><a xlink:href="classBookmarkController.html#a518d7622c4d7f7932f852035f3e2c819" target="_top" xlink:title=" ">
<polygon fill="white" stroke="#666666" points="282.5,-91.5 151.5,-91.5 151.5,-61.5 282.5,-61.5 282.5,-91.5"/>
<text text-anchor="start" x="159.5" y="-79.5" font-family="Helvetica,sans-Serif" font-size="10.00">BookmarkController</text>
<text text-anchor="middle" x="217" y="-68.5" font-family="Helvetica,sans-Serif" font-size="10.00">::getAllEdgeBookmarks</text>
</a>
</g>
</g>
<!-- Node1&#45;&gt;Node2 -->
<g id="edge1" class="edge">
<title>Node1&#45;&gt;Node2</title>
<path fill="none" stroke="#63b8ff" d="M115.36,-59.25C123.36,-60.62 131.68,-62.05 139.96,-63.47"/>
<polygon fill="#63b8ff" stroke="#63b8ff" points="139.26,-66.9 149.71,-65.14 140.44,-60 139.26,-66.9"/>
</g>
<!-- Node5 -->
<g id="node5" class="node">
<title>Node5</title>
<g id="a_node5"><a xlink:href="classBookmarkController.html#a661f96b8d5cf06ce0c4ba750411023f8" target="_top" xlink:title=" ">
<polygon fill="white" stroke="#666666" points="283,-40.5 151,-40.5 151,-10.5 283,-10.5 283,-40.5"/>
<text text-anchor="start" x="159" y="-28.5" font-family="Helvetica,sans-Serif" font-size="10.00">BookmarkController</text>
<text text-anchor="middle" x="217" y="-17.5" font-family="Helvetica,sans-Serif" font-size="10.00">::getAllNodeBookmarks</text>
</a>
</g>
</g>
<!-- Node1&#45;&gt;Node5 -->
<g id="edge4" class="edge">
<title>Node1&#45;&gt;Node5</title>
<path fill="none" stroke="#63b8ff" d="M115.36,-40.84C123.15,-39.65 131.24,-38.42 139.31,-37.19"/>
<polygon fill="#63b8ff" stroke="#63b8ff" points="139.8,-40.65 149.16,-35.68 138.75,-33.73 139.8,-40.65"/>
</g>
<!-- Node3 -->
<g id="node3" class="node">
<title>Node3</title>
<g id="a_node3"><a xlink:href="classBookmarkController_1_1BookmarkCache.html#a63b5460c5d8638cca19a59681e02cbe8" target="_top" xlink:title=" ">
<polygon fill="white" stroke="#666666" points="481,-100 320,-100 320,-59 481,-59 481,-100"/>
<text text-anchor="start" x="328" y="-88" font-family="Helvetica,sans-Serif" font-size="10.00">BookmarkController</text>
<text text-anchor="start" x="328" y="-77" font-family="Helvetica,sans-Serif" font-size="10.00">::BookmarkCache::getAllEdge</text>
<text text-anchor="middle" x="400.5" y="-66" font-family="Helvetica,sans-Serif" font-size="10.00">Bookmarks</text>
</a>
</g>
</g>
<!-- Node2&#45;&gt;Node3 -->
<g id="edge2" class="edge">
<title>Node2&#45;&gt;Node3</title>
<path fill="none" stroke="#63b8ff" d="M282.76,-77.57C291.04,-77.71 299.64,-77.85 308.24,-77.99"/>
<polygon fill="#63b8ff" stroke="#63b8ff" points="307.96,-81.49 318.01,-78.15 308.07,-74.49 307.96,-81.49"/>
</g>
<!-- Node4 -->
<g id="node4" class="node">
<title>Node4</title>
<g id="a_node4"><a xlink:href="classStorageAccess.html#a03b21c2d6d9ca15453bf8558494d72ff" target="_top" xlink:title=" ">
<polygon fill="white" stroke="#666666" points="665,-94.5 519,-94.5 519,-64.5 665,-64.5 665,-94.5"/>
<text text-anchor="start" x="527" y="-82.5" font-family="Helvetica,sans-Serif" font-size="10.00">StorageAccess::getAllEdge</text>
<text text-anchor="middle" x="592" y="-71.5" font-family="Helvetica,sans-Serif" font-size="10.00">Bookmarks</text>
</a>
</g>
</g>
<!-- Node3&#45;&gt;Node4 -->
<g id="edge3" class="edge">
<title>Node3&#45;&gt;Node4</title>
<path fill="none" stroke="#63b8ff" d="M481.32,-79.5C489.9,-79.5 498.64,-79.5 507.27,-79.5"/>
<polygon fill="#63b8ff" stroke="#63b8ff" points="507,-83 517,-79.5 507,-76 507,-83"/>
</g>
<!-- Node6 -->
<g id="node6" class="node">
<title>Node6</title>
<g id="a_node6"><a xlink:href="classBookmarkController_1_1BookmarkCache.html#ab66ba158096c1e3e3773772d54e8821a" target="_top" xlink:title=" ">
<polygon fill="white" stroke="#666666" points="482,-41 319,-41 319,0 482,0 482,-41"/>
<text text-anchor="start" x="327" y="-29" font-family="Helvetica,sans-Serif" font-size="10.00">BookmarkController</text>
<text text-anchor="start" x="327" y="-18" font-family="Helvetica,sans-Serif" font-size="10.00">::BookmarkCache::getAllNode</text>
<text text-anchor="middle" x="400.5" y="-7" font-family="Helvetica,sans-Serif" font-size="10.00">Bookmarks</text>
</a>
</g>
</g>
<!-- Node5&#45;&gt;Node6 -->
<g id="edge5" class="edge">
<title>Node5&#45;&gt;Node6</title>
<path fill="none" stroke="#63b8ff" d="M283.27,-23.7C291.07,-23.49 299.15,-23.26 307.25,-23.04"/>
<polygon fill="#63b8ff" stroke="#63b8ff" points="307.27,-26.54 317.17,-22.77 307.07,-19.54 307.27,-26.54"/>
</g>
<!-- Node7 -->
<g id="node7" class="node">
<title>Node7</title>
<g id="a_node7"><a xlink:href="classStorageAccess.html#acf5b56566c66a2c54ac477602361aa6f" target="_top" xlink:title=" ">
<polygon fill="white" stroke="#666666" points="666,-35.5 518,-35.5 518,-5.5 666,-5.5 666,-35.5"/>
<text text-anchor="start" x="526" y="-23.5" font-family="Helvetica,sans-Serif" font-size="10.00">StorageAccess::getAllNode</text>
<text text-anchor="middle" x="592" y="-12.5" font-family="Helvetica,sans-Serif" font-size="10.00">Bookmarks</text>
</a>
</g>
</g>
<!-- Node6&#45;&gt;Node7 -->
<g id="edge6" class="edge">
<title>Node6&#45;&gt;Node7</title>
<path fill="none" stroke="#63b8ff" d="M482.41,-20.5C490.25,-20.5 498.22,-20.5 506.1,-20.5"/>
<polygon fill="#63b8ff" stroke="#63b8ff" points="506.04,-24 516.04,-20.5 506.04,-17 506.04,-24"/>
</g>
</g>
</svg>
