<?xml version="1.0" encoding="UTF-8" standalone="no"?>
<!DOCTYPE svg PUBLIC "-//W3C//DTD SVG 1.1//EN"
 "http://www.w3.org/Graphics/SVG/1.1/DTD/svg11.dtd">
<!-- Generated by graphviz version 7.1.0 (0)
 -->
<!-- Title: QtKeyboardShortcuts::windowReady Pages: 1 -->
<svg width="329pt" height="138pt"
 viewBox="0.00 0.00 329.00 138.00" xmlns="http://www.w3.org/2000/svg" xmlns:xlink="http://www.w3.org/1999/xlink">
<g id="graph0" class="graph" transform="scale(1 1) rotate(0) translate(4 134)">
<title>QtKeyboardShortcuts::windowReady</title>
<!-- Node1 -->
<g id="node1" class="node">
<title>Node1</title>
<g id="a_node1"><a xlink:title=" ">
<polygon fill="#999999" stroke="#666666" points="119,-79.5 0,-79.5 0,-49.5 119,-49.5 119,-79.5"/>
<text text-anchor="start" x="8" y="-67.5" font-family="Helvetica,sans-Serif" font-size="10.00">QtKeyboardShortcuts</text>
<text text-anchor="middle" x="59.5" y="-56.5" font-family="Helvetica,sans-Serif" font-size="10.00">::windowReady</text>
</a>
</g>
</g>
<!-- Node2 -->
<g id="node2" class="node">
<title>Node2</title>
<g id="a_node2"><a xlink:href="classQtWindow.html#abe9817901b1b327ef69f0158b1c8aacc" target="_top" xlink:title=" ">
<polygon fill="white" stroke="#666666" points="310,-130 166,-130 166,-111 310,-111 310,-130"/>
<text text-anchor="middle" x="238" y="-118" font-family="Helvetica,sans-Serif" font-size="10.00">QtWindow::setNextVisible</text>
</a>
</g>
</g>
<!-- Node1&#45;&gt;Node2 -->
<g id="edge1" class="edge">
<title>Node1&#45;&gt;Node2</title>
<path fill="none" stroke="#63b8ff" d="M95.01,-79.98C112.69,-87.5 134.72,-96.25 155,-102.5 161.25,-104.43 167.82,-106.23 174.41,-107.9"/>
<polygon fill="#63b8ff" stroke="#63b8ff" points="173.47,-111.27 184.01,-110.21 175.11,-104.46 173.47,-111.27"/>
</g>
<!-- Node3 -->
<g id="node3" class="node">
<title>Node3</title>
<g id="a_node3"><a xlink:href="classQtWindow.html#a13c0fd525d487158d661500e3f5a4ae7" target="_top" xlink:title=" ">
<polygon fill="white" stroke="#666666" points="319.5,-93 156.5,-93 156.5,-74 319.5,-74 319.5,-93"/>
<text text-anchor="middle" x="238" y="-81" font-family="Helvetica,sans-Serif" font-size="10.00">QtWindow::setPreviousVisible</text>
</a>
</g>
</g>
<!-- Node1&#45;&gt;Node3 -->
<g id="edge2" class="edge">
<title>Node1&#45;&gt;Node3</title>
<path fill="none" stroke="#63b8ff" d="M119.27,-70.83C127.5,-71.71 136.11,-72.64 144.78,-73.57"/>
<polygon fill="#63b8ff" stroke="#63b8ff" points="144.35,-77.05 154.67,-74.64 145.1,-70.09 144.35,-77.05"/>
</g>
<!-- Node4 -->
<g id="node4" class="node">
<title>Node4</title>
<g id="a_node4"><a xlink:href="classQtWindow.html#a0404a7ed33b2a7d0544fb557f6a12484" target="_top" xlink:title=" ">
<polygon fill="white" stroke="#666666" points="321,-56 155,-56 155,-37 321,-37 321,-56"/>
<text text-anchor="middle" x="238" y="-44" font-family="Helvetica,sans-Serif" font-size="10.00">QtWindow::updateCloseButton</text>
</a>
</g>
</g>
<!-- Node1&#45;&gt;Node4 -->
<g id="edge3" class="edge">
<title>Node1&#45;&gt;Node4</title>
<path fill="none" stroke="#63b8ff" d="M119.27,-58.51C127.06,-57.71 135.2,-56.88 143.4,-56.05"/>
<polygon fill="#63b8ff" stroke="#63b8ff" points="143.49,-59.55 153.08,-55.06 142.78,-52.59 143.49,-59.55"/>
</g>
<!-- Node5 -->
<g id="node5" class="node">
<title>Node5</title>
<g id="a_node5"><a xlink:href="classQtWindow.html#a3134957de097dd25761d5e425c0673d3" target="_top" xlink:title=" ">
<polygon fill="white" stroke="#666666" points="302,-19 174,-19 174,0 302,0 302,-19"/>
<text text-anchor="middle" x="238" y="-7" font-family="Helvetica,sans-Serif" font-size="10.00">QtWindow::updateTitle</text>
</a>
</g>
</g>
<!-- Node1&#45;&gt;Node5 -->
<g id="edge4" class="edge">
<title>Node1&#45;&gt;Node5</title>
<path fill="none" stroke="#63b8ff" d="M97.35,-49.12C114.66,-42.25 135.69,-34.39 155,-28.5 162.41,-26.24 170.27,-24.1 178.07,-22.13"/>
<polygon fill="#63b8ff" stroke="#63b8ff" points="178.66,-25.59 187.54,-19.82 177,-18.79 178.66,-25.59"/>
</g>
</g>
</svg>
