<?xml version="1.0" encoding="UTF-8" standalone="no"?>
<!DOCTYPE svg PUBLIC "-//W3C//DTD SVG 1.1//EN"
 "http://www.w3.org/Graphics/SVG/1.1/DTD/svg11.dtd">
<!-- Generated by graphviz version 7.1.0 (0)
 -->
<!-- Title: HierarchyCache::HierarchyNode::getChildrenCount Pages: 1 -->
<svg width="1358pt" height="311pt"
 viewBox="0.00 0.00 1358.00 311.00" xmlns="http://www.w3.org/2000/svg" xmlns:xlink="http://www.w3.org/1999/xlink">
<g id="graph0" class="graph" transform="scale(1 1) rotate(0) translate(4 307)">
<title>HierarchyCache::HierarchyNode::getChildrenCount</title>
<!-- Node1 -->
<g id="node1" class="node">
<title>Node1</title>
<g id="a_node1"><a xlink:title=" ">
<polygon fill="#999999" stroke="#666666" points="1350,-53 1203,-53 1203,-23 1350,-23 1350,-53"/>
<text text-anchor="start" x="1211" y="-41" font-family="Helvetica,sans-Serif" font-size="10.00">HierarchyCache::Hierarchy</text>
<text text-anchor="middle" x="1276.5" y="-30" font-family="Helvetica,sans-Serif" font-size="10.00">Node::getChildrenCount</text>
</a>
</g>
</g>
<!-- Node2 -->
<g id="node2" class="node">
<title>Node2</title>
<g id="a_node2"><a xlink:href="classHierarchyCache.html#a298ba7348c2953bbbdfa2a72845fb7a1" target="_top" xlink:title=" ">
<polygon fill="white" stroke="#666666" points="1143.5,-76 1007.5,-76 1007.5,-46 1143.5,-46 1143.5,-76"/>
<text text-anchor="start" x="1015.5" y="-64" font-family="Helvetica,sans-Serif" font-size="10.00">HierarchyCache::getFirst</text>
<text text-anchor="middle" x="1075.5" y="-53" font-family="Helvetica,sans-Serif" font-size="10.00">ChildIdsCountForNodeId</text>
</a>
</g>
</g>
<!-- Node1&#45;&gt;Node2 -->
<g id="edge1" class="edge">
<title>Node1&#45;&gt;Node2</title>
<path fill="none" stroke="#63b8ff" d="M1191.15,-47.75C1175.35,-49.57 1159.04,-51.46 1143.85,-53.22"/>
<polygon fill="#63b8ff" stroke="#63b8ff" points="1191.49,-51.23 1201.03,-46.61 1190.69,-44.28 1191.49,-51.23"/>
</g>
<!-- Node12 -->
<g id="node12" class="node">
<title>Node12</title>
<g id="a_node12"><a xlink:href="classHierarchyCache.html#a9952167cb41e8bda9154c1a4305cb8cc" target="_top" xlink:title=" ">
<polygon fill="white" stroke="#666666" points="1167,-26.5 984,-26.5 984,-7.5 1167,-7.5 1167,-26.5"/>
<text text-anchor="middle" x="1075.5" y="-14.5" font-family="Helvetica,sans-Serif" font-size="10.00">HierarchyCache::nodeHasChildren</text>
</a>
</g>
</g>
<!-- Node1&#45;&gt;Node12 -->
<g id="edge13" class="edge">
<title>Node1&#45;&gt;Node12</title>
<path fill="none" stroke="#63b8ff" d="M1191.14,-29.1C1183.29,-28.27 1175.31,-27.43 1167.41,-26.59"/>
<polygon fill="#63b8ff" stroke="#63b8ff" points="1190.71,-32.57 1201.02,-30.14 1191.45,-25.61 1190.71,-32.57"/>
</g>
<!-- Node3 -->
<g id="node3" class="node">
<title>Node3</title>
<g id="a_node3"><a xlink:href="classPersistentStorage.html#a940875e007063518fc5a9d5a36abac0e" target="_top" xlink:title=" ">
<polygon fill="white" stroke="#666666" points="908.5,-78 799.5,-78 799.5,-48 908.5,-48 908.5,-78"/>
<text text-anchor="start" x="807.5" y="-66" font-family="Helvetica,sans-Serif" font-size="10.00">PersistentStorage::</text>
<text text-anchor="middle" x="854" y="-55" font-family="Helvetica,sans-Serif" font-size="10.00">addNodeToGraph</text>
</a>
</g>
</g>
<!-- Node2&#45;&gt;Node3 -->
<g id="edge2" class="edge">
<title>Node2&#45;&gt;Node3</title>
<path fill="none" stroke="#63b8ff" d="M995.87,-61.72C967.07,-61.98 935.16,-62.27 909,-62.51"/>
<polygon fill="#63b8ff" stroke="#63b8ff" points="995.67,-65.22 1005.64,-61.63 995.61,-58.22 995.67,-65.22"/>
</g>
<!-- Node4 -->
<g id="node4" class="node">
<title>Node4</title>
<g id="a_node4"><a xlink:href="classPersistentStorage.html#abada48130e3ef29726c81575ee4fd48d" target="_top" xlink:title=" ">
<polygon fill="white" stroke="#666666" points="703,-126 594,-126 594,-96 703,-96 703,-126"/>
<text text-anchor="start" x="602" y="-114" font-family="Helvetica,sans-Serif" font-size="10.00">PersistentStorage::</text>
<text text-anchor="middle" x="648.5" y="-103" font-family="Helvetica,sans-Serif" font-size="10.00">addNodesToGraph</text>
</a>
</g>
</g>
<!-- Node3&#45;&gt;Node4 -->
<g id="edge3" class="edge">
<title>Node3&#45;&gt;Node4</title>
<path fill="none" stroke="#63b8ff" d="M787.98,-78.34C760.71,-84.77 729.36,-92.16 703.4,-98.29"/>
<polygon fill="#63b8ff" stroke="#63b8ff" points="788.6,-81.79 797.53,-76.08 786.99,-74.97 788.6,-81.79"/>
</g>
<!-- Node11 -->
<g id="node11" class="node">
<title>Node11</title>
<g id="a_node11"><a xlink:href="classPersistentStorage.html#a75c8c60fff49056e2381f41022a76f08" target="_top" xlink:title=" ">
<polygon fill="white" stroke="#666666" points="703,-78 594,-78 594,-48 703,-48 703,-78"/>
<text text-anchor="start" x="602" y="-66" font-family="Helvetica,sans-Serif" font-size="10.00">PersistentStorage::</text>
<text text-anchor="middle" x="648.5" y="-55" font-family="Helvetica,sans-Serif" font-size="10.00">getGraphForAll</text>
</a>
</g>
</g>
<!-- Node3&#45;&gt;Node11 -->
<g id="edge12" class="edge">
<title>Node3&#45;&gt;Node11</title>
<path fill="none" stroke="#63b8ff" d="M787.62,-63C760.43,-63 729.25,-63 703.4,-63"/>
<polygon fill="#63b8ff" stroke="#63b8ff" points="787.49,-66.5 797.49,-63 787.49,-59.5 787.49,-66.5"/>
</g>
<!-- Node5 -->
<g id="node5" class="node">
<title>Node5</title>
<g id="a_node5"><a xlink:href="classPersistentStorage.html#a4a5638a08130b9f4ec0243f02ecc712c" target="_top" xlink:title=" ">
<polygon fill="white" stroke="#666666" points="537,-222.5 364,-222.5 364,-181.5 537,-181.5 537,-222.5"/>
<text text-anchor="start" x="372" y="-210.5" font-family="Helvetica,sans-Serif" font-size="10.00">PersistentStorage::</text>
<text text-anchor="start" x="372" y="-199.5" font-family="Helvetica,sans-Serif" font-size="10.00">addNodesWithParentsAndEdges</text>
<text text-anchor="middle" x="450.5" y="-188.5" font-family="Helvetica,sans-Serif" font-size="10.00">ToGraph</text>
</a>
</g>
</g>
<!-- Node4&#45;&gt;Node5 -->
<g id="edge4" class="edge">
<title>Node4&#45;&gt;Node5</title>
<path fill="none" stroke="#63b8ff" d="M603.91,-131.24C572.04,-146.04 528.93,-166.05 496.7,-181.02"/>
<polygon fill="#63b8ff" stroke="#63b8ff" points="605.28,-134.46 612.88,-127.07 602.33,-128.11 605.28,-134.46"/>
</g>
<!-- Node7 -->
<g id="node7" class="node">
<title>Node7</title>
<g id="a_node7"><a xlink:href="classPersistentStorage.html#a739d4ccb8075fa10eb61794625366d2e" target="_top" xlink:title=" ">
<polygon fill="white" stroke="#666666" points="149,-260 0,-260 0,-230 149,-230 149,-260"/>
<text text-anchor="start" x="8" y="-248" font-family="Helvetica,sans-Serif" font-size="10.00">PersistentStorage::</text>
<text text-anchor="middle" x="74.5" y="-237" font-family="Helvetica,sans-Serif" font-size="10.00">getGraphForActiveTokenIds</text>
</a>
</g>
</g>
<!-- Node4&#45;&gt;Node7 -->
<g id="edge10" class="edge">
<title>Node4&#45;&gt;Node7</title>
<path fill="none" stroke="#63b8ff" d="M582.52,-107.75C472.32,-103.22 254.02,-98.72 185,-130 137.54,-151.51 100.47,-203.94 84.32,-229.91"/>
<polygon fill="#63b8ff" stroke="#63b8ff" points="582.15,-111.24 592.29,-108.17 582.44,-104.24 582.15,-111.24"/>
</g>
<!-- Node10 -->
<g id="node10" class="node">
<title>Node10</title>
<g id="a_node10"><a xlink:href="classPersistentStorage.html#a391e0354974a5975a610087b702d49ef" target="_top" xlink:title=" ">
<polygon fill="white" stroke="#666666" points="532,-83 369,-83 369,-53 532,-53 532,-83"/>
<text text-anchor="start" x="377" y="-71" font-family="Helvetica,sans-Serif" font-size="10.00">PersistentStorage::</text>
<text text-anchor="middle" x="450.5" y="-60" font-family="Helvetica,sans-Serif" font-size="10.00">getGraphForChildrenOfNodeId</text>
</a>
</g>
</g>
<!-- Node4&#45;&gt;Node10 -->
<g id="edge11" class="edge">
<title>Node4&#45;&gt;Node10</title>
<path fill="none" stroke="#63b8ff" d="M582.53,-96.75C563.15,-92.49 541.82,-87.82 522.11,-83.49"/>
<polygon fill="#63b8ff" stroke="#63b8ff" points="581.69,-100.14 592.2,-98.87 583.19,-93.31 581.69,-100.14"/>
</g>
<!-- Node6 -->
<g id="node6" class="node">
<title>Node6</title>
<g id="a_node6"><a xlink:href="classPersistentStorage.html#a5f44bbca9303d5a71892cc336c779b65" target="_top" xlink:title=" ">
<polygon fill="white" stroke="#666666" points="328,-303 185,-303 185,-273 328,-273 328,-303"/>
<text text-anchor="start" x="193" y="-291" font-family="Helvetica,sans-Serif" font-size="10.00">PersistentStorage::</text>
<text text-anchor="middle" x="256.5" y="-280" font-family="Helvetica,sans-Serif" font-size="10.00">addBundledEdgesToGraph</text>
</a>
</g>
</g>
<!-- Node5&#45;&gt;Node6 -->
<g id="edge5" class="edge">
<title>Node5&#45;&gt;Node6</title>
<path fill="none" stroke="#63b8ff" d="M395.8,-227.87C374.76,-237.83 350.35,-249.17 328,-259 317.7,-263.53 306.47,-268.25 296.06,-272.53"/>
<polygon fill="#63b8ff" stroke="#63b8ff" points="397.25,-231.06 404.78,-223.61 394.25,-224.74 397.25,-231.06"/>
</g>
<!-- Node5&#45;&gt;Node7 -->
<g id="edge7" class="edge">
<title>Node5&#45;&gt;Node7</title>
<path fill="none" stroke="#63b8ff" d="M352.5,-222.24C344.23,-223.63 335.98,-224.92 328,-226 268.21,-234.12 199.96,-239 149.5,-241.77"/>
<polygon fill="#63b8ff" stroke="#63b8ff" points="353.02,-225.7 362.27,-220.53 351.81,-218.8 353.02,-225.7"/>
</g>
<!-- Node8 -->
<g id="node8" class="node">
<title>Node8</title>
<g id="a_node8"><a xlink:href="classPersistentStorage.html#a7cfe97aac2495e1f2bbdb143f142994a" target="_top" xlink:title=" ">
<polygon fill="white" stroke="#666666" points="321.5,-217 191.5,-217 191.5,-187 321.5,-187 321.5,-217"/>
<text text-anchor="start" x="199.5" y="-205" font-family="Helvetica,sans-Serif" font-size="10.00">PersistentStorage::</text>
<text text-anchor="middle" x="256.5" y="-194" font-family="Helvetica,sans-Serif" font-size="10.00">getGraphForNodeTypes</text>
</a>
</g>
</g>
<!-- Node5&#45;&gt;Node8 -->
<g id="edge8" class="edge">
<title>Node5&#45;&gt;Node8</title>
<path fill="none" stroke="#63b8ff" d="M352.35,-202C341.96,-202 331.59,-202 321.72,-202"/>
<polygon fill="#63b8ff" stroke="#63b8ff" points="352.09,-205.5 362.09,-202 352.09,-198.5 352.09,-205.5"/>
</g>
<!-- Node9 -->
<g id="node9" class="node">
<title>Node9</title>
<g id="a_node9"><a xlink:href="classPersistentStorage.html#aa0459f7ee5cffa942e8a53c34b01e009" target="_top" xlink:title=" ">
<polygon fill="white" stroke="#666666" points="311,-169 202,-169 202,-139 311,-139 311,-169"/>
<text text-anchor="start" x="210" y="-157" font-family="Helvetica,sans-Serif" font-size="10.00">PersistentStorage::</text>
<text text-anchor="middle" x="256.5" y="-146" font-family="Helvetica,sans-Serif" font-size="10.00">getGraphForTrail</text>
</a>
</g>
</g>
<!-- Node5&#45;&gt;Node9 -->
<g id="edge9" class="edge">
<title>Node5&#45;&gt;Node9</title>
<path fill="none" stroke="#63b8ff" d="M354.76,-178.31C339.87,-174.59 324.95,-170.86 311.42,-167.48"/>
<polygon fill="#63b8ff" stroke="#63b8ff" points="353.55,-181.62 364.1,-180.65 355.24,-174.83 353.55,-181.62"/>
</g>
<!-- Node6&#45;&gt;Node7 -->
<g id="edge6" class="edge">
<title>Node6&#45;&gt;Node7</title>
<path fill="none" stroke="#63b8ff" d="M179.84,-269.93C166.68,-266.78 153.1,-263.54 140.26,-260.47"/>
<polygon fill="#63b8ff" stroke="#63b8ff" points="178.76,-273.27 189.3,-272.19 180.38,-266.46 178.76,-273.27"/>
</g>
<!-- Node13 -->
<g id="node13" class="node">
<title>Node13</title>
<g id="a_node13"><a xlink:href="classPersistentStorage.html#a5faf31cae3975ec11040fc177f8ecc30" target="_top" xlink:title=" ">
<polygon fill="white" stroke="#666666" points="948,-30 760,-30 760,0 948,0 948,-30"/>
<text text-anchor="start" x="768" y="-18" font-family="Helvetica,sans-Serif" font-size="10.00">PersistentStorage::</text>
<text text-anchor="middle" x="854" y="-7" font-family="Helvetica,sans-Serif" font-size="10.00">getAutocompletionSymbolMatches</text>
</a>
</g>
</g>
<!-- Node12&#45;&gt;Node13 -->
<g id="edge14" class="edge">
<title>Node12&#45;&gt;Node13</title>
<path fill="none" stroke="#63b8ff" d="M972.34,-16.07C964.32,-16 956.24,-15.92 948.28,-15.85"/>
<polygon fill="#63b8ff" stroke="#63b8ff" points="972.09,-19.57 982.12,-16.16 972.16,-12.57 972.09,-19.57"/>
</g>
<!-- Node14 -->
<g id="node14" class="node">
<title>Node14</title>
<g id="a_node14"><a xlink:href="classPersistentStorage.html#a6e9bf015702ab246b02e348a1ea6ae00" target="_top" xlink:title=" ">
<polygon fill="white" stroke="#666666" points="724,-30 573,-30 573,0 724,0 724,-30"/>
<text text-anchor="start" x="581" y="-18" font-family="Helvetica,sans-Serif" font-size="10.00">PersistentStorage::</text>
<text text-anchor="middle" x="648.5" y="-7" font-family="Helvetica,sans-Serif" font-size="10.00">getAutocompletionMatches</text>
</a>
</g>
</g>
<!-- Node13&#45;&gt;Node14 -->
<g id="edge15" class="edge">
<title>Node13&#45;&gt;Node14</title>
<path fill="none" stroke="#63b8ff" d="M748.22,-15C740.17,-15 732.15,-15 724.36,-15"/>
<polygon fill="#63b8ff" stroke="#63b8ff" points="748.07,-18.5 758.07,-15 748.07,-11.5 748.07,-18.5"/>
</g>
</g>
</svg>
