<?xml version="1.0" encoding="UTF-8" standalone="no"?>
<!DOCTYPE svg PUBLIC "-//W3C//DTD SVG 1.1//EN"
 "http://www.w3.org/Graphics/SVG/1.1/DTD/svg11.dtd">
<!-- Generated by graphviz version 7.1.0 (0)
 -->
<!-- Title: GraphController::setActive Pages: 1 -->
<svg width="856pt" height="162pt"
 viewBox="0.00 0.00 856.00 161.50" xmlns="http://www.w3.org/2000/svg" xmlns:xlink="http://www.w3.org/1999/xlink">
<g id="graph0" class="graph" transform="scale(1 1) rotate(0) translate(4 157.5)">
<title>GraphController::setActive</title>
<!-- Node1 -->
<g id="node1" class="node">
<title>Node1</title>
<g id="a_node1"><a xlink:title=" ">
<polygon fill="#999999" stroke="#666666" points="146,-105 0,-105 0,-86 146,-86 146,-105"/>
<text text-anchor="middle" x="73" y="-93" font-family="Helvetica,sans-Serif" font-size="10.00">GraphController::setActive</text>
</a>
</g>
</g>
<!-- Node2 -->
<g id="node2" class="node">
<title>Node2</title>
<g id="a_node2"><a xlink:href="classGraphController.html#a4bcdada983f647a20a51b46ccff19e4d" target="_top" xlink:title=" ">
<polygon fill="white" stroke="#666666" points="337,-153.5 182,-153.5 182,-123.5 337,-123.5 337,-153.5"/>
<text text-anchor="start" x="190" y="-141.5" font-family="Helvetica,sans-Serif" font-size="10.00">GraphController::getDummy</text>
<text text-anchor="middle" x="259.5" y="-130.5" font-family="Helvetica,sans-Serif" font-size="10.00">GraphNodeById</text>
</a>
</g>
</g>
<!-- Node1&#45;&gt;Node2 -->
<g id="edge1" class="edge">
<title>Node1&#45;&gt;Node2</title>
<path fill="none" stroke="#63b8ff" d="M116.79,-105.47C135.92,-109.93 159.07,-115.33 181.06,-120.45"/>
<polygon fill="#63b8ff" stroke="#63b8ff" points="180.08,-123.82 190.61,-122.68 181.67,-117 180.08,-123.82"/>
</g>
<!-- Node3 -->
<g id="node3" class="node">
<title>Node3</title>
<g id="a_node3"><a xlink:href="classNode.html#ab04e8765ab636d815dc5285c0fb232be" target="_top" xlink:title=" ">
<polygon fill="white" stroke="#666666" points="309,-105 210,-105 210,-86 309,-86 309,-105"/>
<text text-anchor="middle" x="259.5" y="-93" font-family="Helvetica,sans-Serif" font-size="10.00">Node::isParentOf</text>
</a>
</g>
</g>
<!-- Node1&#45;&gt;Node3 -->
<g id="edge2" class="edge">
<title>Node1&#45;&gt;Node3</title>
<path fill="none" stroke="#63b8ff" d="M146.39,-95.5C163.62,-95.5 181.81,-95.5 198.42,-95.5"/>
<polygon fill="#63b8ff" stroke="#63b8ff" points="198.11,-99 208.11,-95.5 198.11,-92 198.11,-99"/>
</g>
<!-- Node9 -->
<g id="node9" class="node">
<title>Node9</title>
<g id="a_node9"><a xlink:href="classGraphController.html#ade8ea02da8a496ac597e90454a6a404c" target="_top" xlink:title=" ">
<polygon fill="white" stroke="#666666" points="329.5,-49.5 189.5,-49.5 189.5,-19.5 329.5,-19.5 329.5,-49.5"/>
<text text-anchor="start" x="197.5" y="-37.5" font-family="Helvetica,sans-Serif" font-size="10.00">GraphController::setNode</text>
<text text-anchor="middle" x="259.5" y="-26.5" font-family="Helvetica,sans-Serif" font-size="10.00">ActiveRecursive</text>
</a>
</g>
</g>
<!-- Node1&#45;&gt;Node9 -->
<g id="edge9" class="edge">
<title>Node1&#45;&gt;Node9</title>
<path fill="none" stroke="#63b8ff" d="M104.05,-85.56C130.29,-76.89 169.09,-64.06 201.24,-53.43"/>
<polygon fill="#63b8ff" stroke="#63b8ff" points="202.03,-56.86 210.42,-50.4 199.83,-50.21 202.03,-56.86"/>
</g>
<!-- Node4 -->
<g id="node4" class="node">
<title>Node4</title>
<g id="a_node4"><a xlink:href="classNode.html#a6f20a4c713eb7044d63d62fe110ebf39" target="_top" xlink:title=" ">
<polygon fill="white" stroke="#666666" points="508.5,-105 387.5,-105 387.5,-86 508.5,-86 508.5,-105"/>
<text text-anchor="middle" x="448" y="-93" font-family="Helvetica,sans-Serif" font-size="10.00">Node::getParentNode</text>
</a>
</g>
</g>
<!-- Node3&#45;&gt;Node4 -->
<g id="edge3" class="edge">
<title>Node3&#45;&gt;Node4</title>
<path fill="none" stroke="#63b8ff" d="M309.01,-95.5C329.33,-95.5 353.35,-95.5 375.61,-95.5"/>
<polygon fill="#63b8ff" stroke="#63b8ff" points="375.55,-99 385.55,-95.5 375.55,-92 375.55,-99"/>
</g>
<!-- Node5 -->
<g id="node5" class="node">
<title>Node5</title>
<g id="a_node5"><a xlink:href="classEdge.html#aafdd29ac6ed636661849c253a34f54db" target="_top" xlink:title=" ">
<polygon fill="white" stroke="#666666" points="666.5,-123 579.5,-123 579.5,-104 666.5,-104 666.5,-123"/>
<text text-anchor="middle" x="623" y="-111" font-family="Helvetica,sans-Serif" font-size="10.00">Edge::getFrom</text>
</a>
</g>
</g>
<!-- Node4&#45;&gt;Node5 -->
<g id="edge4" class="edge">
<title>Node4&#45;&gt;Node5</title>
<path fill="none" stroke="#63b8ff" d="M508.54,-101.69C527.72,-103.69 548.87,-105.89 567.66,-107.85"/>
<polygon fill="#63b8ff" stroke="#63b8ff" points="567.2,-111.32 577.51,-108.87 567.92,-104.35 567.2,-111.32"/>
</g>
<!-- Node6 -->
<g id="node6" class="node">
<title>Node6</title>
<g id="a_node6"><a xlink:href="classNode.html#a3ff45e2703c3766979f835cb4ca88960" target="_top" xlink:title=" ">
<polygon fill="white" stroke="#666666" points="687,-86 559,-86 559,-67 687,-67 687,-86"/>
<text text-anchor="middle" x="623" y="-74" font-family="Helvetica,sans-Serif" font-size="10.00">Node::getMemberEdge</text>
</a>
</g>
</g>
<!-- Node4&#45;&gt;Node6 -->
<g id="edge5" class="edge">
<title>Node4&#45;&gt;Node6</title>
<path fill="none" stroke="#63b8ff" d="M508.54,-88.96C521.01,-87.59 534.31,-86.13 547.26,-84.71"/>
<polygon fill="#63b8ff" stroke="#63b8ff" points="547.45,-88.21 557.01,-83.64 546.69,-81.25 547.45,-88.21"/>
</g>
<!-- Node7 -->
<g id="node7" class="node">
<title>Node7</title>
<g id="a_node7"><a xlink:href="classNode.html#a8e882ca6775882a61f7e5e90ee3da0ea" target="_top" xlink:title=" ">
<polygon fill="white" stroke="#666666" points="848,-105 723,-105 723,-86 848,-86 848,-105"/>
<text text-anchor="middle" x="785.5" y="-93" font-family="Helvetica,sans-Serif" font-size="10.00">Node::findEdgeOfType</text>
</a>
</g>
</g>
<!-- Node6&#45;&gt;Node7 -->
<g id="edge6" class="edge">
<title>Node6&#45;&gt;Node7</title>
<path fill="none" stroke="#63b8ff" d="M687.43,-84.01C695.3,-84.94 703.38,-85.9 711.37,-86.84"/>
<polygon fill="#63b8ff" stroke="#63b8ff" points="710.73,-90.29 721.07,-87.99 711.55,-83.34 710.73,-90.29"/>
</g>
<!-- Node8 -->
<g id="node8" class="node">
<title>Node8</title>
<g id="a_node8"><a xlink:href="classEdge.html#a8aead758c19cbce8c4bda7a2e2989071" target="_top" xlink:title=" ">
<polygon fill="white" stroke="#666666" points="822,-68 749,-68 749,-49 822,-49 822,-68"/>
<text text-anchor="middle" x="785.5" y="-56" font-family="Helvetica,sans-Serif" font-size="10.00">Edge::getTo</text>
</a>
</g>
</g>
<!-- Node6&#45;&gt;Node8 -->
<g id="edge8" class="edge">
<title>Node6&#45;&gt;Node8</title>
<path fill="none" stroke="#63b8ff" d="M687.43,-69.39C704.21,-67.5 722.02,-65.51 737.74,-63.74"/>
<polygon fill="#63b8ff" stroke="#63b8ff" points="737.72,-67.27 747.27,-62.68 736.94,-60.31 737.72,-67.27"/>
</g>
<!-- Node7&#45;&gt;Node7 -->
<g id="edge7" class="edge">
<title>Node7&#45;&gt;Node7</title>
<path fill="none" stroke="#63b8ff" d="M760.06,-105.37C748.46,-113.94 756.94,-123 785.5,-123 801.57,-123 811.28,-120.13 814.64,-116.1"/>
<polygon fill="#63b8ff" stroke="#63b8ff" points="818,-115.11 811.43,-106.8 811.38,-117.39 818,-115.11"/>
</g>
<!-- Node9&#45;&gt;Node9 -->
<g id="edge12" class="edge">
<title>Node9&#45;&gt;Node9</title>
<path fill="none" stroke="#63b8ff" d="M226.72,-49.78C219.43,-58.91 230.36,-67.5 259.5,-67.5 275.44,-67.5 285.93,-64.93 290.97,-61.11"/>
<polygon fill="#63b8ff" stroke="#63b8ff" points="294.43,-61.62 292.11,-51.28 287.48,-60.81 294.43,-61.62"/>
</g>
<!-- Node10 -->
<g id="node10" class="node">
<title>Node10</title>
<g id="a_node10"><a xlink:href="classToken.html#a7327713d89dab24b733a7ff9096deea0" target="_top" xlink:title=" ">
<polygon fill="white" stroke="#666666" points="485.5,-56 410.5,-56 410.5,-37 485.5,-37 485.5,-56"/>
<text text-anchor="middle" x="448" y="-44" font-family="Helvetica,sans-Serif" font-size="10.00">Token::getId</text>
</a>
</g>
</g>
<!-- Node9&#45;&gt;Node10 -->
<g id="edge10" class="edge">
<title>Node9&#45;&gt;Node10</title>
<path fill="none" stroke="#63b8ff" d="M329.95,-38.97C352.93,-40.45 377.98,-42.06 398.98,-43.41"/>
<polygon fill="#63b8ff" stroke="#63b8ff" points="398.48,-46.89 408.69,-44.03 398.93,-39.9 398.48,-46.89"/>
</g>
<!-- Node11 -->
<g id="node11" class="node">
<title>Node11</title>
<g id="a_node11"><a xlink:href="structDummyNode.html#aa3924d8b494b3cc9534db013d76746c0" target="_top" xlink:title=" ">
<polygon fill="white" stroke="#666666" points="523,-19 373,-19 373,0 523,0 523,-19"/>
<text text-anchor="middle" x="448" y="-7" font-family="Helvetica,sans-Serif" font-size="10.00">DummyNode::isGraphNode</text>
</a>
</g>
</g>
<!-- Node9&#45;&gt;Node11 -->
<g id="edge11" class="edge">
<title>Node9&#45;&gt;Node11</title>
<path fill="none" stroke="#63b8ff" d="M329.95,-25.19C340.21,-23.81 350.89,-22.38 361.44,-20.97"/>
<polygon fill="#63b8ff" stroke="#63b8ff" points="361.86,-24.44 371.31,-19.65 360.93,-17.51 361.86,-24.44"/>
</g>
</g>
</svg>
