<?xml version="1.0" encoding="UTF-8" standalone="no"?>
<!DOCTYPE svg PUBLIC "-//W3C//DTD SVG 1.1//EN"
 "http://www.w3.org/Graphics/SVG/1.1/DTD/svg11.dtd">
<!-- Generated by graphviz version 7.1.0 (0)
 -->
<!-- Title: FilePath::withoutExtension Pages: 1 -->
<svg width="774pt" height="198pt"
 viewBox="0.00 0.00 774.00 198.00" xmlns="http://www.w3.org/2000/svg" xmlns:xlink="http://www.w3.org/1999/xlink">
<g id="graph0" class="graph" transform="scale(1 1) rotate(0) translate(4 194)">
<title>FilePath::withoutExtension</title>
<!-- Node1 -->
<g id="node1" class="node">
<title>Node1</title>
<g id="a_node1"><a xlink:title=" ">
<polygon fill="#999999" stroke="#666666" points="766,-110 620,-110 620,-91 766,-91 766,-110"/>
<text text-anchor="middle" x="693" y="-98" font-family="Helvetica,sans-Serif" font-size="10.00">FilePath::withoutExtension</text>
</a>
</g>
</g>
<!-- Node2 -->
<g id="node2" class="node">
<title>Node2</title>
<g id="a_node2"><a xlink:href="classQtGraphicsView.html#a85f2419a724f1870abea78483ac23eda" target="_top" xlink:title=" ">
<polygon fill="white" stroke="#666666" points="577,-190 416,-190 416,-171 577,-171 577,-190"/>
<text text-anchor="middle" x="496.5" y="-178" font-family="Helvetica,sans-Serif" font-size="10.00">QtGraphicsView::exportGraph</text>
</a>
</g>
</g>
<!-- Node1&#45;&gt;Node2 -->
<g id="edge1" class="edge">
<title>Node1&#45;&gt;Node2</title>
<path fill="none" stroke="#63b8ff" d="M668.62,-116.84C647.45,-130.91 614.91,-150.75 584,-162.5 575.68,-165.66 566.7,-168.31 557.77,-170.52"/>
<polygon fill="#63b8ff" stroke="#63b8ff" points="670.48,-119.81 676.8,-111.3 666.55,-114.01 670.48,-119.81"/>
</g>
<!-- Node4 -->
<g id="node4" class="node">
<title>Node4</title>
<g id="a_node4"><a xlink:href="classProjectSettings.html#a8b7b332fe8cf06aa040adb53ca239525" target="_top" xlink:title=" ">
<polygon fill="white" stroke="#666666" points="584,-153 409,-153 409,-134 584,-134 584,-153"/>
<text text-anchor="middle" x="496.5" y="-141" font-family="Helvetica,sans-Serif" font-size="10.00">ProjectSettings::getProjectName</text>
</a>
</g>
</g>
<!-- Node1&#45;&gt;Node4 -->
<g id="edge3" class="edge">
<title>Node1&#45;&gt;Node4</title>
<path fill="none" stroke="#63b8ff" d="M636.54,-112.85C619.67,-116.6 601.08,-120.73 584,-124.5 570.64,-127.45 556.11,-130.65 542.85,-133.56"/>
<polygon fill="#63b8ff" stroke="#63b8ff" points="636.86,-116.37 645.86,-110.78 635.34,-109.53 636.86,-116.37"/>
</g>
<!-- Node5 -->
<g id="node5" class="node">
<title>Node5</title>
<g id="a_node5"><a xlink:href="classQtProjectWizard.html#a37eed23c3c03afff75d7261065beda1e" target="_top" xlink:title=" ">
<polygon fill="white" stroke="#666666" points="574,-115.5 419,-115.5 419,-85.5 574,-85.5 574,-115.5"/>
<text text-anchor="start" x="427" y="-103.5" font-family="Helvetica,sans-Serif" font-size="10.00">QtProjectWizard::newProject</text>
<text text-anchor="middle" x="496.5" y="-92.5" font-family="Helvetica,sans-Serif" font-size="10.00">FromCDB</text>
</a>
</g>
</g>
<!-- Node1&#45;&gt;Node5 -->
<g id="edge4" class="edge">
<title>Node1&#45;&gt;Node5</title>
<path fill="none" stroke="#63b8ff" d="M608.35,-100.5C597.01,-100.5 585.42,-100.5 574.22,-100.5"/>
<polygon fill="#63b8ff" stroke="#63b8ff" points="608.06,-104 618.06,-100.5 608.06,-97 608.06,-104"/>
</g>
<!-- Node8 -->
<g id="node8" class="node">
<title>Node8</title>
<g id="a_node8"><a xlink:href="classQtRecentProjectButton.html#a34c08b22bb4a2478bdebfab7b4515e5c" target="_top" xlink:title="Set the Project Path object.">
<polygon fill="white" stroke="#666666" points="560.5,-67.5 432.5,-67.5 432.5,-37.5 560.5,-37.5 560.5,-67.5"/>
<text text-anchor="start" x="440.5" y="-55.5" font-family="Helvetica,sans-Serif" font-size="10.00">QtRecentProjectButton</text>
<text text-anchor="middle" x="496.5" y="-44.5" font-family="Helvetica,sans-Serif" font-size="10.00">::setProjectPath</text>
</a>
</g>
</g>
<!-- Node1&#45;&gt;Node8 -->
<g id="edge7" class="edge">
<title>Node1&#45;&gt;Node8</title>
<path fill="none" stroke="#63b8ff" d="M640.72,-87.84C615.96,-81.73 586.04,-74.35 559.97,-67.92"/>
<polygon fill="#63b8ff" stroke="#63b8ff" points="639.68,-91.19 650.23,-90.19 641.36,-84.4 639.68,-91.19"/>
</g>
<!-- Node9 -->
<g id="node9" class="node">
<title>Node9</title>
<g id="a_node9"><a xlink:href="structCodeFileParams.html#ae112e8e8679e02e259983f12fc20bcc0" target="_top" xlink:title=" ">
<polygon fill="white" stroke="#666666" points="556,-19 437,-19 437,0 556,0 556,-19"/>
<text text-anchor="middle" x="496.5" y="-7" font-family="Helvetica,sans-Serif" font-size="10.00">CodeFileParams::sort</text>
</a>
</g>
</g>
<!-- Node1&#45;&gt;Node9 -->
<g id="edge8" class="edge">
<title>Node1&#45;&gt;Node9</title>
<path fill="none" stroke="#63b8ff" d="M671.71,-83.58C650.95,-67.12 617.12,-42.58 584,-28.5 575.23,-24.77 565.63,-21.73 556.12,-19.27"/>
<polygon fill="#63b8ff" stroke="#63b8ff" points="669.39,-86.2 679.36,-89.77 673.79,-80.76 669.39,-86.2"/>
</g>
<!-- Node3 -->
<g id="node3" class="node">
<title>Node3</title>
<g id="a_node3"><a xlink:href="classQtGraphicsView.html#ab69869837036049ee2a035a33e2bf7cc" target="_top" xlink:title=" ">
<polygon fill="white" stroke="#666666" points="373,-190 194,-190 194,-171 373,-171 373,-190"/>
<text text-anchor="middle" x="283.5" y="-178" font-family="Helvetica,sans-Serif" font-size="10.00">QtGraphicsView::QtGraphicsView</text>
</a>
</g>
</g>
<!-- Node2&#45;&gt;Node3 -->
<g id="edge2" class="edge">
<title>Node2&#45;&gt;Node3</title>
<path fill="none" stroke="#63b8ff" d="M404.22,-180.5C393.93,-180.5 383.46,-180.5 373.21,-180.5"/>
<polygon fill="#63b8ff" stroke="#63b8ff" points="404.22,-184 414.22,-180.5 404.22,-177 404.22,-184"/>
</g>
<!-- Node6 -->
<g id="node6" class="node">
<title>Node6</title>
<g id="a_node6"><a xlink:href="classQtMainWindow.html#a87a611d58affd410bec964d84e0d5112" target="_top" xlink:title=" ">
<polygon fill="white" stroke="#666666" points="359,-115.5 208,-115.5 208,-85.5 359,-85.5 359,-115.5"/>
<text text-anchor="start" x="216" y="-103.5" font-family="Helvetica,sans-Serif" font-size="10.00">QtMainWindow::newProject</text>
<text text-anchor="middle" x="283.5" y="-92.5" font-family="Helvetica,sans-Serif" font-size="10.00">FromCDB</text>
</a>
</g>
</g>
<!-- Node5&#45;&gt;Node6 -->
<g id="edge5" class="edge">
<title>Node5&#45;&gt;Node6</title>
<path fill="none" stroke="#63b8ff" d="M407.27,-100.5C391.37,-100.5 374.93,-100.5 359.45,-100.5"/>
<polygon fill="#63b8ff" stroke="#63b8ff" points="407.21,-104 417.21,-100.5 407.21,-97 407.21,-104"/>
</g>
<!-- Node7 -->
<g id="node7" class="node">
<title>Node7</title>
<g id="a_node7"><a xlink:href="classQtMainView.html#aaf1c504629c466f7d92882fd65916ffc" target="_top" xlink:title=" ">
<polygon fill="white" stroke="#666666" points="158,-110 0,-110 0,-91 158,-91 158,-110"/>
<text text-anchor="middle" x="79" y="-98" font-family="Helvetica,sans-Serif" font-size="10.00">QtMainView::handleMessage</text>
</a>
</g>
</g>
<!-- Node6&#45;&gt;Node7 -->
<g id="edge6" class="edge">
<title>Node6&#45;&gt;Node7</title>
<path fill="none" stroke="#63b8ff" d="M196.21,-100.5C183.6,-100.5 170.68,-100.5 158.25,-100.5"/>
<polygon fill="#63b8ff" stroke="#63b8ff" points="196.16,-104 206.16,-100.5 196.16,-97 196.16,-104"/>
</g>
</g>
</svg>
