<?xml version="1.0" encoding="UTF-8" standalone="no"?>
<!DOCTYPE svg PUBLIC "-//W3C//DTD SVG 1.1//EN"
 "http://www.w3.org/Graphics/SVG/1.1/DTD/svg11.dtd">
<!-- Generated by graphviz version 7.1.0 (0)
 -->
<!-- Title: Node::isImplicit Pages: 1 -->
<!--zoomable 163 -->
<svg id="main" version="1.1" xmlns="http://www.w3.org/2000/svg" xmlns:xlink="http://www.w3.org/1999/xlink" xml:space="preserve" onload="init(evt)">
<style type="text/css"><![CDATA[
.edge:hover path { stroke: red; }
.edge:hover polygon { stroke: red; fill: red; }
]]></style>
<script type="text/javascript"><![CDATA[
var edges = document.getElementsByTagName('g');
if (edges && edges.length) {
  for (var i=0;i<edges.length;i++) {
    if (edges[i].id.substr(0,4)=='edge') {
      edges[i].setAttribute('class','edge');
    }
  }
}
]]></script>
        <defs>
                <circle id="rim" cx="0" cy="0" r="7"/>
                <circle id="rim2" cx="0" cy="0" r="3.5"/>
                <g id="zoomPlus">
                        <use xlink:href="#rim" fill="#404040">
                                <set attributeName="fill" to="#808080" begin="zoomplus.mouseover" end="zoomplus.mouseout"/>
                        </use>
                        <path d="M-4,0h8M0,-4v8" fill="none" stroke="white" stroke-width="1.5" pointer-events="none"/>
                </g>
                <g id="zoomMin">
                        <use xlink:href="#rim" fill="#404040">
                                <set attributeName="fill" to="#808080" begin="zoomminus.mouseover" end="zoomminus.mouseout"/>
                        </use>
                        <path d="M-4,0h8" fill="none" stroke="white" stroke-width="1.5" pointer-events="none"/>
                </g>
                <g id="dirArrow">
                        <path fill="none" stroke="white" stroke-width="1.5" d="M0,-3.0v7 M-2.5,-0.5L0,-3.0L2.5,-0.5"/>
                </g>
               <g id="resetDef">
                       <use xlink:href="#rim2" fill="#404040">
                               <set attributeName="fill" to="#808080" begin="reset.mouseover" end="reset.mouseout"/>
                       </use>
               </g>
        </defs>

<script type="text/javascript">
var viewWidth = 1149;
var viewHeight = 163;
var sectionId = 'dynsection-34';
</script>
<script xlink:href="svgpan.js"/>
<svg id="graph" class="graph">
<g id="viewport">
<title>Node::isImplicit</title>
<!-- Node1 -->
<g id="node1" class="node">
<title>Node1</title>
<g id="a_node1"><a xlink:title=" ">
<polygon fill="#999999" stroke="#666666" points="1141,-83.5 1048,-83.5 1048,-64.5 1141,-64.5 1141,-83.5"/>
<text text-anchor="middle" x="1094.5" y="-71.5" font-family="Helvetica,sans-Serif" font-size="10.00">Node::isImplicit</text>
</a>
</g>
</g>
<!-- Node2 -->
<g id="node2" class="node">
<title>Node2</title>
<g id="a_node2"><a xlink:href="classGraphController.html#adca6318bb81b0466facd5ee2046fc900" target="_top" xlink:title=" ">
<polygon fill="white" stroke="#666666" points="1005.5,-137 851.5,-137 851.5,-107 1005.5,-107 1005.5,-137"/>
<text text-anchor="start" x="859.5" y="-125" font-family="Helvetica,sans-Serif" font-size="10.00">GraphController::addExpand</text>
<text text-anchor="middle" x="928.5" y="-114" font-family="Helvetica,sans-Serif" font-size="10.00">ToggleNode</text>
</a>
</g>
</g>
<!-- Node1&#45;&gt;Node2 -->
<g id="edge1" class="edge">
<title>Node1&#45;&gt;Node2</title>
<path fill="none" stroke="#63b8ff" d="M1049.09,-87.11C1037.06,-90.65 1024.03,-94.48 1012,-98 1002.55,-100.77 992.49,-103.7 982.76,-106.53"/>
<polygon fill="#63b8ff" stroke="#63b8ff" points="1049.75,-90.56 1058.35,-84.38 1047.77,-83.85 1049.75,-90.56"/>
</g>
<!-- Node8 -->
<g id="node8" class="node">
<title>Node8</title>
<g id="a_node8"><a xlink:href="structDummyNode.html#aba39d45389a8a2122611130c9a36d5a6" target="_top" xlink:title=" ">
<polygon fill="white" stroke="#666666" points="1012,-89 845,-89 845,-59 1012,-59 1012,-89"/>
<text text-anchor="start" x="853" y="-77" font-family="Helvetica,sans-Serif" font-size="10.00">DummyNode::hasMissingChild</text>
<text text-anchor="middle" x="928.5" y="-66" font-family="Helvetica,sans-Serif" font-size="10.00">Nodes</text>
</a>
</g>
</g>
<!-- Node1&#45;&gt;Node8 -->
<g id="edge8" class="edge">
<title>Node1&#45;&gt;Node8</title>
<path fill="none" stroke="#63b8ff" d="M1036.31,-74C1028.53,-74 1020.42,-74 1012.31,-74"/>
<polygon fill="#63b8ff" stroke="#63b8ff" points="1036.3,-77.5 1046.3,-74 1036.3,-70.5 1036.3,-77.5"/>
</g>
<!-- Node14 -->
<g id="node14" class="node">
<title>Node14</title>
<g id="a_node14"><a xlink:href="classQtGraphNodeData.html#a6e42e0e293fe837eafbc1425675bdc3b" target="_top" xlink:title=" ">
<polygon fill="white" stroke="#666666" points="1011,-41 846,-41 846,-11 1011,-11 1011,-41"/>
<text text-anchor="start" x="854" y="-29" font-family="Helvetica,sans-Serif" font-size="10.00">QtGraphNodeData::hoverEnter</text>
<text text-anchor="middle" x="928.5" y="-18" font-family="Helvetica,sans-Serif" font-size="10.00">Event</text>
</a>
</g>
</g>
<!-- Node1&#45;&gt;Node14 -->
<g id="edge15" class="edge">
<title>Node1&#45;&gt;Node14</title>
<path fill="none" stroke="#63b8ff" d="M1049.09,-60.89C1037.06,-57.35 1024.03,-53.52 1012,-50 1002.55,-47.23 992.49,-44.3 982.76,-41.47"/>
<polygon fill="#63b8ff" stroke="#63b8ff" points="1047.77,-64.15 1058.35,-63.62 1049.75,-57.44 1047.77,-64.15"/>
</g>
<!-- Node3 -->
<g id="node3" class="node">
<title>Node3</title>
<g id="a_node3"><a xlink:href="classGraphController.html#a6eb733d5bf04898dec3dcd9348eed25e" target="_top" xlink:title=" ">
<polygon fill="white" stroke="#666666" points="805,-137 637,-137 637,-107 805,-107 805,-137"/>
<text text-anchor="start" x="645" y="-125" font-family="Helvetica,sans-Serif" font-size="10.00">GraphController::layoutNesting</text>
<text text-anchor="middle" x="721" y="-114" font-family="Helvetica,sans-Serif" font-size="10.00">Recursive</text>
</a>
</g>
</g>
<!-- Node2&#45;&gt;Node3 -->
<g id="edge2" class="edge">
<title>Node2&#45;&gt;Node3</title>
<path fill="none" stroke="#63b8ff" d="M839.92,-122C828.46,-122 816.74,-122 805.36,-122"/>
<polygon fill="#63b8ff" stroke="#63b8ff" points="839.76,-125.5 849.76,-122 839.76,-118.5 839.76,-125.5"/>
</g>
<!-- Node3&#45;&gt;Node3 -->
<g id="edge7" class="edge">
<title>Node3&#45;&gt;Node3</title>
<path fill="none" stroke="#63b8ff" d="M756.01,-148.61C750.4,-152.43 738.73,-155 721,-155 688.58,-155 676.42,-146.41 684.53,-137.28"/>
<polygon fill="#63b8ff" stroke="#63b8ff" points="759.47,-149.14 757.28,-138.78 752.53,-148.25 759.47,-149.14"/>
</g>
<!-- Node4 -->
<g id="node4" class="node">
<title>Node4</title>
<g id="a_node4"><a xlink:href="classGraphController.html#aea06008a051995fb06c3b3865d11646a" target="_top" xlink:title=" ">
<polygon fill="white" stroke="#666666" points="594.5,-131.5 426.5,-131.5 426.5,-112.5 594.5,-112.5 594.5,-131.5"/>
<text text-anchor="middle" x="510.5" y="-119.5" font-family="Helvetica,sans-Serif" font-size="10.00">GraphController::layoutNesting</text>
</a>
</g>
</g>
<!-- Node3&#45;&gt;Node4 -->
<g id="edge3" class="edge">
<title>Node3&#45;&gt;Node4</title>
<path fill="none" stroke="#63b8ff" d="M625.25,-122C615.05,-122 604.72,-122 594.67,-122"/>
<polygon fill="#63b8ff" stroke="#63b8ff" points="625.18,-125.5 635.18,-122 625.18,-118.5 625.18,-125.5"/>
</g>
<!-- Node5 -->
<g id="node5" class="node">
<title>Node5</title>
<g id="a_node5"><a xlink:href="classGraphController.html#a6c817f0e3c1be7cf49746072c2bfde65" target="_top" xlink:title=" ">
<polygon fill="white" stroke="#666666" points="176,-65.5 0,-65.5 0,-46.5 176,-46.5 176,-65.5"/>
<text text-anchor="middle" x="88" y="-53.5" font-family="Helvetica,sans-Serif" font-size="10.00">GraphController::handleMessage</text>
</a>
</g>
</g>
<!-- Node4&#45;&gt;Node5 -->
<g id="edge4" class="edge">
<title>Node4&#45;&gt;Node5</title>
<path fill="none" stroke="#63b8ff" d="M432.6,-110.28C372.52,-101.08 286.92,-87.88 212,-76 191.7,-72.78 169.53,-69.2 149.67,-65.96"/>
<polygon fill="#63b8ff" stroke="#63b8ff" points="431.98,-113.72 442.4,-111.78 433.04,-106.8 431.98,-113.72"/>
</g>
<!-- Node6 -->
<g id="node6" class="node">
<title>Node6</title>
<g id="a_node6"><a xlink:href="classGraphController.html#aa15472df149e558607ad5f72d47ac26d" target="_top" xlink:title=" ">
<polygon fill="white" stroke="#666666" points="370,-154 230,-154 230,-124 370,-124 370,-154"/>
<text text-anchor="start" x="238" y="-142" font-family="Helvetica,sans-Serif" font-size="10.00">GraphController::relayout</text>
<text text-anchor="middle" x="300" y="-131" font-family="Helvetica,sans-Serif" font-size="10.00">Graph</text>
</a>
</g>
</g>
<!-- Node4&#45;&gt;Node6 -->
<g id="edge5" class="edge">
<title>Node4&#45;&gt;Node6</title>
<path fill="none" stroke="#63b8ff" d="M414.84,-129.72C399.89,-130.94 384.67,-132.18 370.44,-133.34"/>
<polygon fill="#63b8ff" stroke="#63b8ff" points="415.01,-133.22 424.69,-128.92 414.44,-126.24 415.01,-133.22"/>
</g>
<!-- Node7 -->
<g id="node7" class="node">
<title>Node7</title>
<g id="a_node7"><a xlink:href="classGraphController.html#ae0ab00507f80232071a9a4ef70f41b9a" target="_top" xlink:title=" ">
<polygon fill="white" stroke="#666666" points="176,-148.5 0,-148.5 0,-129.5 176,-129.5 176,-148.5"/>
<text text-anchor="middle" x="88" y="-136.5" font-family="Helvetica,sans-Serif" font-size="10.00">GraphController::handleMessage</text>
</a>
</g>
</g>
<!-- Node6&#45;&gt;Node7 -->
<g id="edge6" class="edge">
<title>Node6&#45;&gt;Node7</title>
<path fill="none" stroke="#63b8ff" d="M218.26,-139C204.51,-139 190.16,-139 176.25,-139"/>
<polygon fill="#63b8ff" stroke="#63b8ff" points="218.14,-142.5 228.14,-139 218.14,-135.5 218.14,-142.5"/>
</g>
<!-- Node9 -->
<g id="node9" class="node">
<title>Node9</title>
<g id="a_node9"><a xlink:href="classGraphController.html#a0684dec921854e88e44b5d85a51850f8" target="_top" xlink:title=" ">
<polygon fill="white" stroke="#666666" points="800,-49 642,-49 642,-19 800,-19 800,-49"/>
<text text-anchor="start" x="650" y="-37" font-family="Helvetica,sans-Serif" font-size="10.00">GraphController::autoExpand</text>
<text text-anchor="middle" x="721" y="-26" font-family="Helvetica,sans-Serif" font-size="10.00">ActiveNode</text>
</a>
</g>
</g>
<!-- Node8&#45;&gt;Node9 -->
<g id="edge9" class="edge">
<title>Node8&#45;&gt;Node9</title>
<path fill="none" stroke="#63b8ff" d="M836.9,-56.37C824.68,-53.99 812.21,-51.56 800.23,-49.23"/>
<polygon fill="#63b8ff" stroke="#63b8ff" points="836.08,-59.77 846.56,-58.25 837.42,-52.9 836.08,-59.77"/>
</g>
<!-- Node13 -->
<g id="node13" class="node">
<title>Node13</title>
<g id="a_node13"><a xlink:href="classGraphController.html#a89cea5cd37dab44093d3dd7de8977816" target="_top" xlink:title=" ">
<polygon fill="white" stroke="#666666" points="809,-86.5 633,-86.5 633,-67.5 809,-67.5 809,-86.5"/>
<text text-anchor="middle" x="721" y="-74.5" font-family="Helvetica,sans-Serif" font-size="10.00">GraphController::handleMessage</text>
</a>
</g>
</g>
<!-- Node8&#45;&gt;Node13 -->
<g id="edge14" class="edge">
<title>Node8&#45;&gt;Node13</title>
<path fill="none" stroke="#63b8ff" d="M833.01,-75.38C825.12,-75.49 817.16,-75.61 809.33,-75.73"/>
<polygon fill="#63b8ff" stroke="#63b8ff" points="833.05,-78.88 842.99,-75.23 832.94,-71.88 833.05,-78.88"/>
</g>
<!-- Node10 -->
<g id="node10" class="node">
<title>Node10</title>
<g id="a_node10"><a xlink:href="classGraphController.html#ae595345247fce9cd30a0b2d601cde72c" target="_top" xlink:title=" ">
<polygon fill="white" stroke="#666666" points="597,-49 424,-49 424,-19 597,-19 597,-49"/>
<text text-anchor="start" x="432" y="-37" font-family="Helvetica,sans-Serif" font-size="10.00">GraphController::createDummy</text>
<text text-anchor="middle" x="510.5" y="-26" font-family="Helvetica,sans-Serif" font-size="10.00">GraphAndSetActiveAndVisibility</text>
</a>
</g>
</g>
<!-- Node9&#45;&gt;Node10 -->
<g id="edge10" class="edge">
<title>Node9&#45;&gt;Node10</title>
<path fill="none" stroke="#63b8ff" d="M630.39,-34C619.36,-34 608.12,-34 597.16,-34"/>
<polygon fill="#63b8ff" stroke="#63b8ff" points="630.26,-37.5 640.26,-34 630.26,-30.5 630.26,-37.5"/>
</g>
<!-- Node11 -->
<g id="node11" class="node">
<title>Node11</title>
<g id="a_node11"><a xlink:href="classGraphController.html#aebbedd5d21cef7a3e3eb36b54845c876" target="_top" xlink:title=" ">
<polygon fill="white" stroke="#666666" points="383,-30 217,-30 217,0 383,0 383,-30"/>
<text text-anchor="start" x="225" y="-18" font-family="Helvetica,sans-Serif" font-size="10.00">GraphController::createLegend</text>
<text text-anchor="middle" x="300" y="-7" font-family="Helvetica,sans-Serif" font-size="10.00">Graph</text>
</a>
</g>
</g>
<!-- Node10&#45;&gt;Node11 -->
<g id="edge11" class="edge">
<title>Node10&#45;&gt;Node11</title>
<path fill="none" stroke="#63b8ff" d="M412.44,-25.15C402.71,-24.27 392.9,-23.37 383.35,-22.5"/>
<polygon fill="#63b8ff" stroke="#63b8ff" points="412.01,-28.63 422.29,-26.05 412.64,-21.66 412.01,-28.63"/>
</g>
<!-- Node12 -->
<g id="node12" class="node">
<title>Node12</title>
<g id="a_node12"><a xlink:href="classGraphController.html#ad6d410cd1cf31de1e62d207f3195827c" target="_top" xlink:title=" ">
<polygon fill="white" stroke="#666666" points="388,-67.5 212,-67.5 212,-48.5 388,-48.5 388,-67.5"/>
<text text-anchor="middle" x="300" y="-55.5" font-family="Helvetica,sans-Serif" font-size="10.00">GraphController::handleMessage</text>
</a>
</g>
</g>
<!-- Node10&#45;&gt;Node12 -->
<g id="edge13" class="edge">
<title>Node10&#45;&gt;Node12</title>
<path fill="none" stroke="#63b8ff" d="M412.55,-45.16C404.27,-46.11 395.92,-47.07 387.72,-48.02"/>
<polygon fill="#63b8ff" stroke="#63b8ff" points="412.75,-48.66 422.29,-44.04 411.95,-41.71 412.75,-48.66"/>
</g>
<!-- Node11&#45;&gt;Node5 -->
<g id="edge12" class="edge">
<title>Node11&#45;&gt;Node5</title>
<path fill="none" stroke="#63b8ff" d="M208.82,-32.61C185.3,-37.2 160.75,-41.99 140.05,-46.03"/>
<polygon fill="#63b8ff" stroke="#63b8ff" points="209.28,-36.08 218.42,-30.73 207.94,-29.21 209.28,-36.08"/>
</g>
</g>
</svg>
        <g id="navigator" transform="translate(0 0)" fill="#404254">
                <rect fill="#f2f5e9" fill-opacity="0.5" stroke="#606060" stroke-width=".5" x="0" y="0" width="60" height="60"/>
                <use id="zoomplus" xlink:href="#zoomPlus" x="17" y="9" onmousedown="handleZoom(evt,'in')"/>
                <use id="zoomminus" xlink:href="#zoomMin" x="42" y="9" onmousedown="handleZoom(evt,'out')"/>
                <use id="reset" xlink:href="#resetDef" x="30" y="36" onmousedown="handleReset()"/>
                <g id="arrowUp" xlink:href="#dirArrow" transform="translate(30 24)" onmousedown="handlePan(0,-1)">
                  <use xlink:href="#rim" fill="#404040">
                        <set attributeName="fill" to="#808080" begin="arrowUp.mouseover" end="arrowUp.mouseout"/>
                  </use>
                  <path fill="none" stroke="white" stroke-width="1.5" d="M0,-3.0v7 M-2.5,-0.5L0,-3.0L2.5,-0.5"/>
                </g>
                <g id="arrowRight" xlink:href="#dirArrow" transform="rotate(90) translate(36 -43)" onmousedown="handlePan(1,0)">
                  <use xlink:href="#rim" fill="#404040">
                        <set attributeName="fill" to="#808080" begin="arrowRight.mouseover" end="arrowRight.mouseout"/>
                  </use>
                  <path fill="none" stroke="white" stroke-width="1.5" d="M0,-3.0v7 M-2.5,-0.5L0,-3.0L2.5,-0.5"/>
                </g>
                <g id="arrowDown" xlink:href="#dirArrow" transform="rotate(180) translate(-30 -48)" onmousedown="handlePan(0,1)">
                  <use xlink:href="#rim" fill="#404040">
                        <set attributeName="fill" to="#808080" begin="arrowDown.mouseover" end="arrowDown.mouseout"/>
                  </use>
                  <path fill="none" stroke="white" stroke-width="1.5" d="M0,-3.0v7 M-2.5,-0.5L0,-3.0L2.5,-0.5"/>
                </g>
                <g id="arrowLeft" xlink:href="#dirArrow" transform="rotate(270) translate(-36 17)" onmousedown="handlePan(-1,0)">
                  <use xlink:href="#rim" fill="#404040">
                        <set attributeName="fill" to="#808080" begin="arrowLeft.mouseover" end="arrowLeft.mouseout"/>
                  </use>
                  <path fill="none" stroke="white" stroke-width="1.5" d="M0,-3.0v7 M-2.5,-0.5L0,-3.0L2.5,-0.5"/>
                </g>
        </g>
        <svg viewBox="0 0 15 15" width="100%" height="30px" preserveAspectRatio="xMaxYMin meet">
         <g id="arrow_out" transform="scale(0.3 0.3)">
          <a xlink:href="classNode_ae12af3a022b20cb8b254b5cecb86e647_icgraph_org.svg" target="_base">
           <rect id="button" ry="5" rx="5" y="6" x="6" height="38" width="38"
                fill="#f2f5e9" fill-opacity="0.5" stroke="#606060" stroke-width="1.0"/>
           <path id="arrow"
             d="M 11.500037,31.436501 C 11.940474,20.09759 22.043105,11.32322 32.158766,21.979434 L 37.068811,17.246167 C 37.068811,17.246167 37.088388,32 37.088388,32 L 22.160133,31.978069 C 22.160133,31.978069 26.997745,27.140456 26.997745,27.140456 C 18.528582,18.264221 13.291696,25.230495 11.500037,31.436501 z"
             style="fill:#404040;"/>
          </a>
         </g>
        </svg>
</svg>
