<?xml version="1.0" encoding="UTF-8" standalone="no"?>
<!DOCTYPE svg PUBLIC "-//W3C//DTD SVG 1.1//EN"
 "http://www.w3.org/Graphics/SVG/1.1/DTD/svg11.dtd">
<!-- Generated by graphviz version 9.0.0 (0)
 -->
<!-- Title: PersistentStorage::getSourceLocationsForLocationIds Pages: 1 -->
<svg width="918pt" height="424pt"
 viewBox="0.00 0.00 917.50 424.12" xmlns="http://www.w3.org/2000/svg" xmlns:xlink="http://www.w3.org/1999/xlink">
<g id="graph0" class="graph" transform="scale(1 1) rotate(0) translate(4 420.12)">
<title>PersistentStorage::getSourceLocationsForLocationIds</title>
<!-- Node1 -->
<g id="Node000001" class="node">
<title>Node1</title>
<g id="a_Node000001"><a xlink:title=" ">
<polygon fill="#999999" stroke="#666666" points="181.75,-124.12 0,-124.12 0,-90.62 181.75,-90.62 181.75,-124.12"/>
<text text-anchor="start" x="8" y="-110.62" font-family="Helvetica,sans-Serif" font-size="10.00">PersistentStorage::</text>
<text text-anchor="middle" x="90.88" y="-97.88" font-family="Helvetica,sans-Serif" font-size="10.00">getSourceLocationsForLocationIds</text>
</a>
</g>
</g>
<!-- Node2 -->
<g id="Node000002" class="node">
<title>Node2</title>
<g id="a_Node000002"><a xlink:href="classPersistentStorage.html#ac92ff4dda09552cb126f0a97bdf6abfa" target="_top" xlink:title=" ">
<polygon fill="white" stroke="#666666" points="410,-292.5 217.75,-292.5 217.75,-246.25 410,-246.25 410,-292.5"/>
<text text-anchor="start" x="225.75" y="-279" font-family="Helvetica,sans-Serif" font-size="10.00">PersistentStorage::</text>
<text text-anchor="start" x="225.75" y="-266.25" font-family="Helvetica,sans-Serif" font-size="10.00">addCompleteFlagsToSourceLocation</text>
<text text-anchor="middle" x="313.88" y="-253.5" font-family="Helvetica,sans-Serif" font-size="10.00">Collection</text>
</a>
</g>
</g>
<!-- Node1&#45;&gt;Node2 -->
<g id="edge1_Node000001_Node000002" class="edge">
<title>Node1&#45;&gt;Node2</title>
<g id="a_edge1_Node000001_Node000002"><a xlink:title=" ">
<path fill="none" stroke="#63b8ff" d="M115.11,-124.41C152.23,-151.61 225.41,-205.26 271.59,-239.11"/>
<polygon fill="#63b8ff" stroke="#63b8ff" points="269.38,-241.83 279.51,-244.92 273.51,-236.18 269.38,-241.83"/>
</a>
</g>
</g>
<!-- Node13 -->
<g id="Node000013" class="node">
<title>Node13</title>
<g id="a_Node000013"><a xlink:href="classSqliteIndexStorage.html#a1c9bd502715f6853cfe32cab32dbca18" target="_top" xlink:title=" ">
<polygon fill="white" stroke="#666666" points="368,-124.12 259.75,-124.12 259.75,-90.62 368,-90.62 368,-124.12"/>
<text text-anchor="start" x="267.75" y="-110.62" font-family="Helvetica,sans-Serif" font-size="10.00">SqliteIndexStorage</text>
<text text-anchor="middle" x="313.88" y="-97.88" font-family="Helvetica,sans-Serif" font-size="10.00">::getAllByIds</text>
</a>
</g>
</g>
<!-- Node1&#45;&gt;Node13 -->
<g id="edge13_Node000001_Node000013" class="edge">
<title>Node1&#45;&gt;Node13</title>
<g id="a_edge13_Node000001_Node000013"><a xlink:title=" ">
<path fill="none" stroke="#63b8ff" d="M182.08,-107.38C204.14,-107.38 227.3,-107.38 247.91,-107.38"/>
<polygon fill="#63b8ff" stroke="#63b8ff" points="247.88,-110.88 257.88,-107.38 247.88,-103.88 247.88,-110.88"/>
</a>
</g>
</g>
<!-- Node16 -->
<g id="Node000016" class="node">
<title>Node16</title>
<g id="a_Node000016"><a xlink:href="classPersistentStorage.html#a2b5181993036893411ed4c69e83edbbf" target="_top" xlink:title=" ">
<polygon fill="white" stroke="#666666" points="368,-72.12 259.75,-72.12 259.75,-38.62 368,-38.62 368,-72.12"/>
<text text-anchor="start" x="267.75" y="-58.62" font-family="Helvetica,sans-Serif" font-size="10.00">PersistentStorage::</text>
<text text-anchor="middle" x="313.88" y="-45.88" font-family="Helvetica,sans-Serif" font-size="10.00">getFileNodePath</text>
</a>
</g>
</g>
<!-- Node1&#45;&gt;Node16 -->
<g id="edge16_Node000001_Node000016" class="edge">
<title>Node1&#45;&gt;Node16</title>
<g id="a_edge16_Node000001_Node000016"><a xlink:title=" ">
<path fill="none" stroke="#63b8ff" d="M165.16,-90.13C192.09,-83.79 222.37,-76.67 248.47,-70.53"/>
<polygon fill="#63b8ff" stroke="#63b8ff" points="248.97,-74.01 257.9,-68.31 247.36,-67.19 248.97,-74.01"/>
</a>
</g>
</g>
<!-- Node17 -->
<g id="Node000017" class="node">
<title>Node17</title>
<g id="a_Node000017"><a xlink:href="classSqliteIndexStorage.html#a300347cb36689c8d8721cbd7cdc59450" target="_top" xlink:title=" ">
<polygon fill="white" stroke="#666666" points="398,-176.12 229.75,-176.12 229.75,-142.62 398,-142.62 398,-176.12"/>
<text text-anchor="start" x="237.75" y="-162.62" font-family="Helvetica,sans-Serif" font-size="10.00">SqliteIndexStorage</text>
<text text-anchor="middle" x="313.88" y="-149.88" font-family="Helvetica,sans-Serif" font-size="10.00">::getOccurrencesForLocationIds</text>
</a>
</g>
</g>
<!-- Node1&#45;&gt;Node17 -->
<g id="edge17_Node000001_Node000017" class="edge">
<title>Node1&#45;&gt;Node17</title>
<g id="a_edge17_Node000001_Node000017"><a xlink:title=" ">
<path fill="none" stroke="#63b8ff" d="M165.16,-124.62C185.5,-129.4 207.75,-134.64 228.66,-139.56"/>
<polygon fill="#63b8ff" stroke="#63b8ff" points="227.78,-142.95 238.32,-141.83 229.38,-136.13 227.78,-142.95"/>
</a>
</g>
</g>
<!-- Node18 -->
<g id="Node000018" class="node">
<title>Node18</title>
<g id="a_Node000018"><a xlink:href="LocationType_8cpp.html#aba98f6ccf5511907c466f48e9264bffd" target="_top" xlink:title=" ">
<polygon fill="white" stroke="#666666" points="365.38,-20.75 262.38,-20.75 262.38,0 365.38,0 365.38,-20.75"/>
<text text-anchor="middle" x="313.88" y="-7.25" font-family="Helvetica,sans-Serif" font-size="10.00">intToLocationType</text>
</a>
</g>
</g>
<!-- Node1&#45;&gt;Node18 -->
<g id="edge20_Node000001_Node000018" class="edge">
<title>Node1&#45;&gt;Node18</title>
<g id="a_edge20_Node000001_Node000018"><a xlink:title=" ">
<path fill="none" stroke="#63b8ff" d="M113.77,-90.39C137.9,-72.51 178.53,-44.86 217.75,-29.38 228.21,-25.25 239.68,-21.98 250.92,-19.41"/>
<polygon fill="#63b8ff" stroke="#63b8ff" points="251.5,-22.86 260.57,-17.37 250.06,-16.01 251.5,-22.86"/>
</a>
</g>
</g>
<!-- Node3 -->
<g id="Node000003" class="node">
<title>Node3</title>
<g id="a_Node000003"><a xlink:href="classSourceLocationCollection.html#a0cf0a983af433398762ae923fedb2d8f" target="_top" xlink:title=" ">
<polygon fill="white" stroke="#666666" points="595.5,-364.12 446,-364.12 446,-330.62 595.5,-330.62 595.5,-364.12"/>
<text text-anchor="start" x="454" y="-350.62" font-family="Helvetica,sans-Serif" font-size="10.00">SourceLocationCollection</text>
<text text-anchor="middle" x="520.75" y="-337.88" font-family="Helvetica,sans-Serif" font-size="10.00">::forEachSourceLocationFile</text>
</a>
</g>
</g>
<!-- Node2&#45;&gt;Node3 -->
<g id="edge2_Node000002_Node000003" class="edge">
<title>Node2&#45;&gt;Node3</title>
<g id="a_edge2_Node000002_Node000003"><a xlink:title=" ">
<path fill="none" stroke="#63b8ff" d="M372.78,-292.9C395.53,-301.99 421.92,-312.36 446,-321.38 450.36,-323.01 454.88,-324.67 459.43,-326.33"/>
<polygon fill="#63b8ff" stroke="#63b8ff" points="458.05,-329.55 468.64,-329.64 460.42,-322.96 458.05,-329.55"/>
</a>
</g>
</g>
<!-- Node4 -->
<g id="Node000004" class="node">
<title>Node4</title>
<g id="a_Node000004"><a xlink:href="classPersistentStorage.html#a78e140205e75d28bdf9eae3607774376" target="_top" xlink:title=" ">
<polygon fill="white" stroke="#666666" points="581.25,-312.12 460.25,-312.12 460.25,-278.62 581.25,-278.62 581.25,-312.12"/>
<text text-anchor="start" x="468.25" y="-298.62" font-family="Helvetica,sans-Serif" font-size="10.00">PersistentStorage::</text>
<text text-anchor="middle" x="520.75" y="-285.88" font-family="Helvetica,sans-Serif" font-size="10.00">getFileNodeComplete</text>
</a>
</g>
</g>
<!-- Node2&#45;&gt;Node4 -->
<g id="edge3_Node000002_Node000004" class="edge">
<title>Node2&#45;&gt;Node4</title>
<g id="a_edge3_Node000002_Node000004"><a xlink:title=" ">
<path fill="none" stroke="#63b8ff" d="M410.41,-281.5C423.35,-283.14 436.44,-284.8 448.84,-286.38"/>
<polygon fill="#63b8ff" stroke="#63b8ff" points="448.15,-289.82 458.52,-287.6 449.04,-282.87 448.15,-289.82"/>
</a>
</g>
</g>
<!-- Node5 -->
<g id="Node000005" class="node">
<title>Node5</title>
<g id="a_Node000005"><a xlink:href="classPersistentStorage.html#aa594f7a33d5142e04715341702dd4435" target="_top" xlink:title=" ">
<polygon fill="white" stroke="#666666" points="574.88,-260.12 466.62,-260.12 466.62,-226.62 574.88,-226.62 574.88,-260.12"/>
<text text-anchor="start" x="474.62" y="-246.62" font-family="Helvetica,sans-Serif" font-size="10.00">PersistentStorage::</text>
<text text-anchor="middle" x="520.75" y="-233.88" font-family="Helvetica,sans-Serif" font-size="10.00">getFileNodeId</text>
</a>
</g>
</g>
<!-- Node2&#45;&gt;Node5 -->
<g id="edge4_Node000002_Node000005" class="edge">
<title>Node2&#45;&gt;Node5</title>
<g id="a_edge4_Node000002_Node000005"><a xlink:title=" ">
<path fill="none" stroke="#63b8ff" d="M410.41,-257.25C425.56,-255.33 440.91,-253.38 455.13,-251.58"/>
<polygon fill="#63b8ff" stroke="#63b8ff" points="455.28,-255.08 464.76,-250.35 454.4,-248.14 455.28,-255.08"/>
</a>
</g>
</g>
<!-- Node11 -->
<g id="Node000011" class="node">
<title>Node11</title>
<g id="a_Node000011"><a xlink:href="classPersistentStorage.html#a9fe04129c76c269f6f8bf800fc1838a4" target="_top" xlink:title=" ">
<polygon fill="white" stroke="#666666" points="577.12,-208.12 464.38,-208.12 464.38,-174.62 577.12,-174.62 577.12,-208.12"/>
<text text-anchor="start" x="472.38" y="-194.62" font-family="Helvetica,sans-Serif" font-size="10.00">PersistentStorage::</text>
<text text-anchor="middle" x="520.75" y="-181.88" font-family="Helvetica,sans-Serif" font-size="10.00">getFileNodeIndexed</text>
</a>
</g>
</g>
<!-- Node2&#45;&gt;Node11 -->
<g id="edge11_Node000002_Node000011" class="edge">
<title>Node2&#45;&gt;Node11</title>
<g id="a_edge11_Node000002_Node000011"><a xlink:title=" ">
<path fill="none" stroke="#63b8ff" d="M372.78,-245.85C395.53,-236.76 421.92,-226.39 446,-217.38 450.36,-215.74 454.88,-214.08 459.43,-212.42"/>
<polygon fill="#63b8ff" stroke="#63b8ff" points="460.42,-215.79 468.64,-209.11 458.05,-209.2 460.42,-215.79"/>
</a>
</g>
</g>
<!-- Node12 -->
<g id="Node000012" class="node">
<title>Node12</title>
<g id="a_Node000012"><a xlink:href="classPersistentStorage.html#a7483195093d6a71fa880de8be965f025" target="_top" xlink:title=" ">
<polygon fill="white" stroke="#666666" points="581.25,-416.12 460.25,-416.12 460.25,-382.62 581.25,-382.62 581.25,-416.12"/>
<text text-anchor="start" x="468.25" y="-402.62" font-family="Helvetica,sans-Serif" font-size="10.00">PersistentStorage::</text>
<text text-anchor="middle" x="520.75" y="-389.88" font-family="Helvetica,sans-Serif" font-size="10.00">getFileNodeLanguage</text>
</a>
</g>
</g>
<!-- Node2&#45;&gt;Node12 -->
<g id="edge12_Node000002_Node000012" class="edge">
<title>Node2&#45;&gt;Node12</title>
<g id="a_edge12_Node000002_Node000012"><a xlink:title=" ">
<path fill="none" stroke="#63b8ff" d="M339.2,-292.8C364.26,-315.89 405.31,-350.89 446,-373.38 448.64,-374.83 451.37,-376.23 454.17,-377.58"/>
<polygon fill="#63b8ff" stroke="#63b8ff" points="452.55,-380.69 463.11,-381.56 455.4,-374.29 452.55,-380.69"/>
</a>
</g>
</g>
<!-- Node6 -->
<g id="Node000006" class="node">
<title>Node6</title>
<g id="a_Node000006"><a xlink:href="classFilePath.html#ae09c07f1ae9ac6f650a765cc11cc6494" target="_top" xlink:title=" ">
<polygon fill="white" stroke="#666666" points="742,-272.75 650.25,-272.75 650.25,-252 742,-252 742,-272.75"/>
<text text-anchor="middle" x="696.12" y="-259.25" font-family="Helvetica,sans-Serif" font-size="10.00">FilePath::empty</text>
</a>
</g>
</g>
<!-- Node5&#45;&gt;Node6 -->
<g id="edge5_Node000005_Node000006" class="edge">
<title>Node5&#45;&gt;Node6</title>
<g id="a_edge5_Node000005_Node000006"><a xlink:title=" ">
<path fill="none" stroke="#63b8ff" d="M575.18,-249.23C595.24,-251.43 618.09,-253.93 638.43,-256.16"/>
<polygon fill="#63b8ff" stroke="#63b8ff" points="637.93,-259.63 648.25,-257.24 638.69,-252.67 637.93,-259.63"/>
</a>
</g>
</g>
<!-- Node7 -->
<g id="Node000007" class="node">
<title>Node7</title>
<g id="a_Node000007"><a xlink:href="classFilePath.html#a1847c2d6806448576509c6c2038b129c" target="_top" xlink:title=" ">
<polygon fill="white" stroke="#666666" points="760.75,-233.75 631.5,-233.75 631.5,-213 760.75,-213 760.75,-233.75"/>
<text text-anchor="middle" x="696.12" y="-220.25" font-family="Helvetica,sans-Serif" font-size="10.00">FilePath::getLowerCase</text>
</a>
</g>
</g>
<!-- Node5&#45;&gt;Node7 -->
<g id="edge7_Node000005_Node000007" class="edge">
<title>Node5&#45;&gt;Node7</title>
<g id="a_edge7_Node000005_Node000007"><a xlink:title=" ">
<path fill="none" stroke="#63b8ff" d="M575.18,-237.21C589.3,-235.58 604.79,-233.8 619.83,-232.06"/>
<polygon fill="#63b8ff" stroke="#63b8ff" points="620.17,-235.55 629.7,-230.92 619.36,-228.59 620.17,-235.55"/>
</a>
</g>
</g>
<!-- Node6&#45;&gt;Node6 -->
<g id="edge6_Node000006_Node000006" class="edge">
<title>Node6&#45;&gt;Node6</title>
<g id="a_edge6_Node000006_Node000006"><a xlink:title=" ">
<path fill="none" stroke="#63b8ff" d="M670.83,-273.15C660.71,-281.81 669.14,-290.75 696.12,-290.75 710.88,-290.75 720.09,-288.08 723.75,-284.24"/>
<polygon fill="#63b8ff" stroke="#63b8ff" points="727.21,-283.7 721.73,-274.63 720.36,-285.13 727.21,-283.7"/>
</a>
</g>
</g>
<!-- Node8 -->
<g id="Node000008" class="node">
<title>Node8</title>
<g id="a_Node000008"><a xlink:href="classFilePath.html#a10ab094ee4006c25fabc43b3b93d3eb2" target="_top" xlink:title=" ">
<polygon fill="white" stroke="#666666" points="902.38,-272.75 803.88,-272.75 803.88,-252 902.38,-252 902.38,-272.75"/>
<text text-anchor="middle" x="853.12" y="-259.25" font-family="Helvetica,sans-Serif" font-size="10.00">FilePath::FilePath</text>
</a>
</g>
</g>
<!-- Node7&#45;&gt;Node8 -->
<g id="edge8_Node000007_Node000008" class="edge">
<title>Node7&#45;&gt;Node8</title>
<g id="a_edge8_Node000007_Node000008"><a xlink:title=" ">
<path fill="none" stroke="#63b8ff" d="M740.3,-234.24C758.11,-238.72 778.96,-243.97 797.79,-248.7"/>
<polygon fill="#63b8ff" stroke="#63b8ff" points="796.89,-252.09 807.44,-251.13 798.6,-245.3 796.89,-252.09"/>
</a>
</g>
</g>
<!-- Node9 -->
<g id="Node000009" class="node">
<title>Node9</title>
<g id="a_Node000009"><a xlink:href="namespaceutility.html#aa62fb20032f5e2269c27a55c16fb4d1f" target="_top" xlink:title=" ">
<polygon fill="white" stroke="#666666" points="909.5,-233.75 796.75,-233.75 796.75,-213 909.5,-213 909.5,-233.75"/>
<text text-anchor="middle" x="853.12" y="-220.25" font-family="Helvetica,sans-Serif" font-size="10.00">utility::toLowerCase</text>
</a>
</g>
</g>
<!-- Node7&#45;&gt;Node9 -->
<g id="edge9_Node000007_Node000009" class="edge">
<title>Node7&#45;&gt;Node9</title>
<g id="a_edge9_Node000007_Node000009"><a xlink:title=" ">
<path fill="none" stroke="#63b8ff" d="M761.06,-223.38C768.91,-223.38 776.94,-223.38 784.84,-223.38"/>
<polygon fill="#63b8ff" stroke="#63b8ff" points="784.74,-226.88 794.74,-223.38 784.74,-219.88 784.74,-226.88"/>
</a>
</g>
</g>
<!-- Node10 -->
<g id="Node000010" class="node">
<title>Node10</title>
<g id="a_Node000010"><a xlink:href="classFilePath.html#a989e098726c8387d4f4690bca3314ce8" target="_top" xlink:title=" ">
<polygon fill="white" stroke="#666666" points="893.75,-194.75 812.5,-194.75 812.5,-174 893.75,-174 893.75,-194.75"/>
<text text-anchor="middle" x="853.12" y="-181.25" font-family="Helvetica,sans-Serif" font-size="10.00">FilePath::wstr</text>
</a>
</g>
</g>
<!-- Node7&#45;&gt;Node10 -->
<g id="edge10_Node000007_Node000010" class="edge">
<title>Node7&#45;&gt;Node10</title>
<g id="a_edge10_Node000007_Node000010"><a xlink:title=" ">
<path fill="none" stroke="#63b8ff" d="M740.3,-212.51C759.18,-207.76 781.47,-202.15 801.16,-197.2"/>
<polygon fill="#63b8ff" stroke="#63b8ff" points="801.79,-200.65 810.64,-194.81 800.08,-193.86 801.79,-200.65"/>
</a>
</g>
</g>
<!-- Node14 -->
<g id="Node000014" class="node">
<title>Node14</title>
<g id="a_Node000014"><a xlink:href="namespaceutility.html#a237f617b0b07dbb7215f63901217c7a4" target="_top" xlink:title=" ">
<polygon fill="white" stroke="#666666" points="554.62,-117.75 486.88,-117.75 486.88,-97 554.62,-97 554.62,-117.75"/>
<text text-anchor="middle" x="520.75" y="-104.25" font-family="Helvetica,sans-Serif" font-size="10.00">utility::join</text>
</a>
</g>
</g>
<!-- Node13&#45;&gt;Node14 -->
<g id="edge14_Node000013_Node000014" class="edge">
<title>Node13&#45;&gt;Node14</title>
<g id="a_edge14_Node000013_Node000014"><a xlink:title=" ">
<path fill="none" stroke="#63b8ff" d="M368.44,-107.38C401.66,-107.38 443.84,-107.38 475.22,-107.38"/>
<polygon fill="#63b8ff" stroke="#63b8ff" points="475.16,-110.88 485.16,-107.38 475.16,-103.88 475.16,-110.88"/>
</a>
</g>
</g>
<!-- Node15 -->
<g id="Node000015" class="node">
<title>Node15</title>
<g id="a_Node000015"><a xlink:href="namespaceutility.html#aea0681f6afa2ac9505f8f5a988bd04f8" target="_top" xlink:title=" ">
<polygon fill="white" stroke="#666666" points="567.38,-156.75 474.12,-156.75 474.12,-136 567.38,-136 567.38,-156.75"/>
<text text-anchor="middle" x="520.75" y="-143.25" font-family="Helvetica,sans-Serif" font-size="10.00">utility::toStrings</text>
</a>
</g>
</g>
<!-- Node13&#45;&gt;Node15 -->
<g id="edge15_Node000013_Node000015" class="edge">
<title>Node13&#45;&gt;Node15</title>
<g id="a_edge15_Node000013_Node000015"><a xlink:title=" ">
<path fill="none" stroke="#63b8ff" d="M368.44,-117.57C397.45,-123.09 433.3,-129.92 462.82,-135.54"/>
<polygon fill="#63b8ff" stroke="#63b8ff" points="461.83,-138.91 472.31,-137.34 463.14,-132.04 461.83,-138.91"/>
</a>
</g>
</g>
<!-- Node17&#45;&gt;Node14 -->
<g id="edge18_Node000017_Node000014" class="edge">
<title>Node17&#45;&gt;Node14</title>
<g id="a_edge18_Node000017_Node000014"><a xlink:title=" ">
<path fill="none" stroke="#63b8ff" d="M382.81,-142.13C413.28,-134.4 448.37,-125.49 475.4,-118.63"/>
<polygon fill="#63b8ff" stroke="#63b8ff" points="476.15,-122.05 484.98,-116.2 474.43,-115.27 476.15,-122.05"/>
</a>
</g>
</g>
<!-- Node17&#45;&gt;Node15 -->
<g id="edge19_Node000017_Node000015" class="edge">
<title>Node17&#45;&gt;Node15</title>
<g id="a_edge19_Node000017_Node000015"><a xlink:title=" ">
<path fill="none" stroke="#63b8ff" d="M398.21,-154.09C419.78,-152.72 442.53,-151.27 462.44,-150.01"/>
<polygon fill="#63b8ff" stroke="#63b8ff" points="462.54,-153.51 472.29,-149.39 462.09,-146.53 462.54,-153.51"/>
</a>
</g>
</g>
</g>
</svg>
