<?xml version="1.0" encoding="UTF-8" standalone="no"?>
<!DOCTYPE svg PUBLIC "-//W3C//DTD SVG 1.1//EN"
 "http://www.w3.org/Graphics/SVG/1.1/DTD/svg11.dtd">
<!-- Generated by graphviz version 7.1.0 (0)
 -->
<!-- Title: ParserClientImpl::recordFile Pages: 1 -->
<!--zoomable 324 -->
<svg id="main" version="1.1" xmlns="http://www.w3.org/2000/svg" xmlns:xlink="http://www.w3.org/1999/xlink" xml:space="preserve" onload="init(evt)">
<style type="text/css"><![CDATA[
.edge:hover path { stroke: red; }
.edge:hover polygon { stroke: red; fill: red; }
]]></style>
<script type="text/javascript"><![CDATA[
var edges = document.getElementsByTagName('g');
if (edges && edges.length) {
  for (var i=0;i<edges.length;i++) {
    if (edges[i].id.substr(0,4)=='edge') {
      edges[i].setAttribute('class','edge');
    }
  }
}
]]></script>
        <defs>
                <circle id="rim" cx="0" cy="0" r="7"/>
                <circle id="rim2" cx="0" cy="0" r="3.5"/>
                <g id="zoomPlus">
                        <use xlink:href="#rim" fill="#404040">
                                <set attributeName="fill" to="#808080" begin="zoomplus.mouseover" end="zoomplus.mouseout"/>
                        </use>
                        <path d="M-4,0h8M0,-4v8" fill="none" stroke="white" stroke-width="1.5" pointer-events="none"/>
                </g>
                <g id="zoomMin">
                        <use xlink:href="#rim" fill="#404040">
                                <set attributeName="fill" to="#808080" begin="zoomminus.mouseover" end="zoomminus.mouseout"/>
                        </use>
                        <path d="M-4,0h8" fill="none" stroke="white" stroke-width="1.5" pointer-events="none"/>
                </g>
                <g id="dirArrow">
                        <path fill="none" stroke="white" stroke-width="1.5" d="M0,-3.0v7 M-2.5,-0.5L0,-3.0L2.5,-0.5"/>
                </g>
               <g id="resetDef">
                       <use xlink:href="#rim2" fill="#404040">
                               <set attributeName="fill" to="#808080" begin="reset.mouseover" end="reset.mouseout"/>
                       </use>
               </g>
        </defs>

<script type="text/javascript">
var viewWidth = 924;
var viewHeight = 324;
var sectionId = 'dynsection-16';
</script>
<script xlink:href="svgpan.js"/>
<svg id="graph" class="graph">
<g id="viewport">
<title>ParserClientImpl::recordFile</title>
<!-- Node1 -->
<g id="node1" class="node">
<title>Node1</title>
<g id="a_node1"><a xlink:title=" ">
<polygon fill="#999999" stroke="#666666" points="151,-62 0,-62 0,-43 151,-43 151,-62"/>
<text text-anchor="middle" x="75.5" y="-50" font-family="Helvetica,sans-Serif" font-size="10.00">ParserClientImpl::recordFile</text>
</a>
</g>
</g>
<!-- Node2 -->
<g id="node2" class="node">
<title>Node2</title>
<g id="a_node2"><a xlink:href="classIntermediateStorage.html#a62f0f59caf16d6c05165801484f0276e" target="_top" xlink:title=" ">
<polygon fill="white" stroke="#666666" points="329,-110.5 212,-110.5 212,-80.5 329,-80.5 329,-110.5"/>
<text text-anchor="start" x="220" y="-98.5" font-family="Helvetica,sans-Serif" font-size="10.00">IntermediateStorage</text>
<text text-anchor="middle" x="270.5" y="-87.5" font-family="Helvetica,sans-Serif" font-size="10.00">::addFile</text>
</a>
</g>
</g>
<!-- Node1&#45;&gt;Node2 -->
<g id="edge1" class="edge">
<title>Node1&#45;&gt;Node2</title>
<path fill="none" stroke="#63b8ff" d="M121.26,-62.47C144.84,-67.73 174.27,-74.28 200.68,-80.17"/>
<polygon fill="#63b8ff" stroke="#63b8ff" points="199.79,-83.55 210.31,-82.31 201.31,-76.72 199.79,-83.55"/>
</g>
<!-- Node3 -->
<g id="node3" class="node">
<title>Node3</title>
<g id="a_node3"><a xlink:href="classParserClientImpl.html#ab0373e2bebff5883eb88a4fc9243f1c7" target="_top" xlink:title=" ">
<polygon fill="white" stroke="#666666" points="354,-62 187,-62 187,-43 354,-43 354,-62"/>
<text text-anchor="middle" x="270.5" y="-50" font-family="Helvetica,sans-Serif" font-size="10.00">ParserClientImpl::addFileName</text>
</a>
</g>
</g>
<!-- Node1&#45;&gt;Node3 -->
<g id="edge2" class="edge">
<title>Node1&#45;&gt;Node3</title>
<path fill="none" stroke="#63b8ff" d="M151.4,-52.5C159.25,-52.5 167.3,-52.5 175.33,-52.5"/>
<polygon fill="#63b8ff" stroke="#63b8ff" points="175.13,-56 185.13,-52.5 175.13,-49 175.13,-56"/>
</g>
<!-- Node16 -->
<g id="node16" class="node">
<title>Node16</title>
<g id="a_node16"><a xlink:href="classFilePath.html#a989e098726c8387d4f4690bca3314ce8" target="_top" xlink:title=" ">
<polygon fill="white" stroke="#666666" points="504.5,-19 422.5,-19 422.5,0 504.5,0 504.5,-19"/>
<text text-anchor="middle" x="463.5" y="-7" font-family="Helvetica,sans-Serif" font-size="10.00">FilePath::wstr</text>
</a>
</g>
</g>
<!-- Node1&#45;&gt;Node16 -->
<g id="edge18" class="edge">
<title>Node1&#45;&gt;Node16</title>
<path fill="none" stroke="#63b8ff" d="M132.89,-42.52C150.21,-39.67 169.36,-36.73 187,-34.5 264.84,-24.64 355.54,-17.18 410.98,-13.08"/>
<polygon fill="#63b8ff" stroke="#63b8ff" points="411.03,-16.58 420.74,-12.36 410.51,-9.6 411.03,-16.58"/>
</g>
<!-- Node4 -->
<g id="node4" class="node">
<title>Node4</title>
<g id="a_node4"><a xlink:href="classParserClientImpl.html#a940c7625a2a6f9638274f9094b03b66e" target="_top" xlink:title=" ">
<polygon fill="white" stroke="#666666" points="537,-172.5 390,-172.5 390,-142.5 537,-142.5 537,-172.5"/>
<text text-anchor="start" x="398" y="-160.5" font-family="Helvetica,sans-Serif" font-size="10.00">ParserClientImpl::addNode</text>
<text text-anchor="middle" x="463.5" y="-149.5" font-family="Helvetica,sans-Serif" font-size="10.00">Hierarchy</text>
</a>
</g>
</g>
<!-- Node3&#45;&gt;Node4 -->
<g id="edge3" class="edge">
<title>Node3&#45;&gt;Node4</title>
<path fill="none" stroke="#63b8ff" d="M332.96,-62.38C340.3,-64.79 347.49,-67.78 354,-71.5 374.2,-83.05 372.19,-94.54 390,-109.5 401.4,-119.08 414.78,-128.4 426.92,-136.24"/>
<polygon fill="#63b8ff" stroke="#63b8ff" points="424.72,-138.99 435.05,-141.38 428.47,-133.08 424.72,-138.99"/>
</g>
<!-- Node8 -->
<g id="node8" class="node">
<title>Node8</title>
<g id="a_node8"><a xlink:href="NodeKind_8cpp.html#ab1eacbc56ca3143746b078cad695b17f" target="_top" xlink:title=" ">
<polygon fill="white" stroke="#666666" points="689,-95 603,-95 603,-76 689,-76 689,-95"/>
<text text-anchor="middle" x="646" y="-83" font-family="Helvetica,sans-Serif" font-size="10.00">nodeKindToInt</text>
</a>
</g>
</g>
<!-- Node3&#45;&gt;Node8 -->
<g id="edge15" class="edge">
<title>Node3&#45;&gt;Node8</title>
<path fill="none" stroke="#63b8ff" d="M312.09,-62.44C334.85,-67.58 363.84,-73.41 390,-76.5 459.32,-84.69 539.92,-86.21 591.65,-86.16"/>
<polygon fill="#63b8ff" stroke="#63b8ff" points="591.37,-89.66 601.36,-86.13 591.35,-82.66 591.37,-89.66"/>
</g>
<!-- Node15 -->
<g id="node15" class="node">
<title>Node15</title>
<g id="a_node15"><a xlink:href="classIntermediateStorage.html#a494eefcb1a8cc133397964e7b27b300d" target="_top" xlink:title=" ">
<polygon fill="white" stroke="#666666" points="522,-67.5 405,-67.5 405,-37.5 522,-37.5 522,-67.5"/>
<text text-anchor="start" x="413" y="-55.5" font-family="Helvetica,sans-Serif" font-size="10.00">IntermediateStorage</text>
<text text-anchor="middle" x="463.5" y="-44.5" font-family="Helvetica,sans-Serif" font-size="10.00">::setNodeType</text>
</a>
</g>
</g>
<!-- Node3&#45;&gt;Node15 -->
<g id="edge16" class="edge">
<title>Node3&#45;&gt;Node15</title>
<path fill="none" stroke="#63b8ff" d="M354.44,-52.5C367.39,-52.5 380.65,-52.5 393.26,-52.5"/>
<polygon fill="#63b8ff" stroke="#63b8ff" points="393.1,-56 403.1,-52.5 393.1,-49 393.1,-56"/>
</g>
<!-- Node3&#45;&gt;Node16 -->
<g id="edge17" class="edge">
<title>Node3&#45;&gt;Node16</title>
<path fill="none" stroke="#63b8ff" d="M315.8,-42.53C344.24,-36.13 381.27,-27.79 411.01,-21.09"/>
<polygon fill="#63b8ff" stroke="#63b8ff" points="411.56,-24.56 420.55,-18.95 410.02,-17.73 411.56,-24.56"/>
</g>
<!-- Node5 -->
<g id="node5" class="node">
<title>Node5</title>
<g id="a_node5"><a xlink:href="classParserClientImpl.html#ab0278b269eda8a0b5439ccd846840b03" target="_top" xlink:title=" ">
<polygon fill="white" stroke="#666666" points="719,-288 573,-288 573,-269 719,-269 719,-288"/>
<text text-anchor="middle" x="646" y="-276" font-family="Helvetica,sans-Serif" font-size="10.00">ParserClientImpl::addEdge</text>
</a>
</g>
</g>
<!-- Node4&#45;&gt;Node5 -->
<g id="edge4" class="edge">
<title>Node4&#45;&gt;Node5</title>
<path fill="none" stroke="#63b8ff" d="M483.54,-172.94C504.77,-189.87 540.43,-217.43 573,-238.5 586.64,-247.33 602.36,-256.2 615.62,-263.33"/>
<polygon fill="#63b8ff" stroke="#63b8ff" points="613.83,-266.35 624.31,-267.94 617.11,-260.16 613.83,-266.35"/>
</g>
<!-- Node7 -->
<g id="node7" class="node">
<title>Node7</title>
<g id="a_node7"><a xlink:href="classIntermediateStorage.html#a26301b4af9bfe6e2193dfe703adf6c2f" target="_top" xlink:title=" ">
<polygon fill="white" stroke="#666666" points="704.5,-229.5 587.5,-229.5 587.5,-199.5 704.5,-199.5 704.5,-229.5"/>
<text text-anchor="start" x="595.5" y="-217.5" font-family="Helvetica,sans-Serif" font-size="10.00">IntermediateStorage</text>
<text text-anchor="middle" x="646" y="-206.5" font-family="Helvetica,sans-Serif" font-size="10.00">::addNode</text>
</a>
</g>
</g>
<!-- Node4&#45;&gt;Node7 -->
<g id="edge6" class="edge">
<title>Node4&#45;&gt;Node7</title>
<path fill="none" stroke="#63b8ff" d="M513.35,-172.93C535.52,-179.93 561.95,-188.27 585.29,-195.64"/>
<polygon fill="#63b8ff" stroke="#63b8ff" points="584.08,-198.93 594.67,-198.61 586.19,-192.26 584.08,-198.93"/>
</g>
<!-- Node4&#45;&gt;Node8 -->
<g id="edge7" class="edge">
<title>Node4&#45;&gt;Node8</title>
<path fill="none" stroke="#63b8ff" d="M496.92,-142.19C518.31,-132.33 547.07,-119.53 573,-109.5 582.37,-105.87 592.56,-102.28 602.23,-99.01"/>
<polygon fill="#63b8ff" stroke="#63b8ff" points="603.04,-102.43 611.43,-95.97 600.84,-95.79 603.04,-102.43"/>
</g>
<!-- Node9 -->
<g id="node9" class="node">
<title>Node9</title>
<g id="a_node9"><a xlink:href="classNameHierarchy.html#a8f09e39f0ed5c097c2888a731eb64404" target="_top" xlink:title=" ">
<polygon fill="white" stroke="#666666" points="716,-181.5 576,-181.5 576,-151.5 716,-151.5 716,-181.5"/>
<text text-anchor="start" x="584" y="-169.5" font-family="Helvetica,sans-Serif" font-size="10.00">NameHierarchy::serialize</text>
<text text-anchor="middle" x="646" y="-158.5" font-family="Helvetica,sans-Serif" font-size="10.00">Range</text>
</a>
</g>
</g>
<!-- Node4&#45;&gt;Node9 -->
<g id="edge8" class="edge">
<title>Node4&#45;&gt;Node9</title>
<path fill="none" stroke="#63b8ff" d="M537.4,-161.13C546.27,-161.58 555.38,-162.03 564.36,-162.48"/>
<polygon fill="#63b8ff" stroke="#63b8ff" points="563.96,-165.96 574.12,-162.97 564.31,-158.97 563.96,-165.96"/>
</g>
<!-- Node14 -->
<g id="node14" class="node">
<title>Node14</title>
<g id="a_node14"><a xlink:href="classNameHierarchy.html#a760966798a0edd110618a6179d646810" target="_top" xlink:title=" ">
<polygon fill="white" stroke="#666666" points="894.5,-96 776.5,-96 776.5,-77 894.5,-77 894.5,-96"/>
<text text-anchor="middle" x="835.5" y="-84" font-family="Helvetica,sans-Serif" font-size="10.00">NameHierarchy::size</text>
</a>
</g>
</g>
<!-- Node4&#45;&gt;Node14 -->
<g id="edge14" class="edge">
<title>Node4&#45;&gt;Node14</title>
<path fill="none" stroke="#63b8ff" d="M537.16,-143.56C605.36,-130.47 706.33,-111.09 771.28,-98.63"/>
<polygon fill="#63b8ff" stroke="#63b8ff" points="771.93,-102.07 781.09,-96.75 770.61,-95.2 771.93,-102.07"/>
</g>
<!-- Node6 -->
<g id="node6" class="node">
<title>Node6</title>
<g id="a_node6"><a xlink:href="classIntermediateStorage.html#afc7ea49066a379f5f2321c17c17739db" target="_top" xlink:title=" ">
<polygon fill="white" stroke="#666666" points="894,-315.5 777,-315.5 777,-285.5 894,-285.5 894,-315.5"/>
<text text-anchor="start" x="785" y="-303.5" font-family="Helvetica,sans-Serif" font-size="10.00">IntermediateStorage</text>
<text text-anchor="middle" x="835.5" y="-292.5" font-family="Helvetica,sans-Serif" font-size="10.00">::addEdge</text>
</a>
</g>
</g>
<!-- Node5&#45;&gt;Node6 -->
<g id="edge5" class="edge">
<title>Node5&#45;&gt;Node6</title>
<path fill="none" stroke="#63b8ff" d="M719.49,-287.01C734.6,-288.78 750.49,-290.64 765.47,-292.4"/>
<polygon fill="#63b8ff" stroke="#63b8ff" points="764.88,-295.86 775.22,-293.54 765.69,-288.9 764.88,-295.86"/>
</g>
<!-- Node10 -->
<g id="node10" class="node">
<title>Node10</title>
<g id="a_node10"><a xlink:href="classNameHierarchy.html#a120b074b23a0f96740d3245a1ca9f6d9" target="_top" xlink:title=" ">
<polygon fill="white" stroke="#666666" points="915.5,-267 755.5,-267 755.5,-248 915.5,-248 915.5,-267"/>
<text text-anchor="middle" x="835.5" y="-255" font-family="Helvetica,sans-Serif" font-size="10.00">NameHierarchy::getDelimiter</text>
</a>
</g>
</g>
<!-- Node9&#45;&gt;Node10 -->
<g id="edge9" class="edge">
<title>Node9&#45;&gt;Node10</title>
<path fill="none" stroke="#63b8ff" d="M704.41,-181.99C709.56,-184.44 714.51,-187.26 719,-190.5 740.63,-206.09 732.71,-223.86 755,-238.5 757.53,-240.16 760.18,-241.67 762.93,-243.06"/>
<polygon fill="#63b8ff" stroke="#63b8ff" points="761.25,-246.14 771.81,-246.9 764.03,-239.72 761.25,-246.14"/>
</g>
<!-- Node11 -->
<g id="node11" class="node">
<title>Node11</title>
<g id="a_node11"><a xlink:href="classNameElement_1_1Signature.html#a4bb81f51eb96fb5546311bd60d959dcb" target="_top" xlink:title=" ">
<polygon fill="white" stroke="#666666" points="905,-229.5 766,-229.5 766,-199.5 905,-199.5 905,-229.5"/>
<text text-anchor="start" x="774" y="-217.5" font-family="Helvetica,sans-Serif" font-size="10.00">NameElement::Signature</text>
<text text-anchor="middle" x="835.5" y="-206.5" font-family="Helvetica,sans-Serif" font-size="10.00">::getPostfix</text>
</a>
</g>
</g>
<!-- Node9&#45;&gt;Node11 -->
<g id="edge10" class="edge">
<title>Node9&#45;&gt;Node11</title>
<path fill="none" stroke="#63b8ff" d="M707.36,-181.95C725.17,-186.51 744.84,-191.55 763.27,-196.26"/>
<polygon fill="#63b8ff" stroke="#63b8ff" points="762.23,-199.61 772.79,-198.7 763.97,-192.83 762.23,-199.61"/>
</g>
<!-- Node12 -->
<g id="node12" class="node">
<title>Node12</title>
<g id="a_node12"><a xlink:href="classNameElement_1_1Signature.html#a42b4dce71a17904b4063c7357a9e8394" target="_top" xlink:title=" ">
<polygon fill="white" stroke="#666666" points="905,-181.5 766,-181.5 766,-151.5 905,-151.5 905,-181.5"/>
<text text-anchor="start" x="774" y="-169.5" font-family="Helvetica,sans-Serif" font-size="10.00">NameElement::Signature</text>
<text text-anchor="middle" x="835.5" y="-158.5" font-family="Helvetica,sans-Serif" font-size="10.00">::getPrefix</text>
</a>
</g>
</g>
<!-- Node9&#45;&gt;Node12 -->
<g id="edge11" class="edge">
<title>Node9&#45;&gt;Node12</title>
<path fill="none" stroke="#63b8ff" d="M716.29,-166.5C728.67,-166.5 741.66,-166.5 754.31,-166.5"/>
<polygon fill="#63b8ff" stroke="#63b8ff" points="754.3,-170 764.3,-166.5 754.3,-163 754.3,-170"/>
</g>
<!-- Node13 -->
<g id="node13" class="node">
<title>Node13</title>
<g id="a_node13"><a xlink:href="classNameHierarchy.html#a36548b2b6d62fc9f72ceb07c777c8463" target="_top" xlink:title=" ">
<polygon fill="white" stroke="#666666" points="916,-133 755,-133 755,-114 916,-114 916,-133"/>
<text text-anchor="middle" x="835.5" y="-121" font-family="Helvetica,sans-Serif" font-size="10.00">NameHierarchy::getSignature</text>
</a>
</g>
</g>
<!-- Node9&#45;&gt;Node13 -->
<g id="edge12" class="edge">
<title>Node9&#45;&gt;Node13</title>
<path fill="none" stroke="#63b8ff" d="M714.43,-151.04C735.95,-146.1 759.49,-140.7 779.98,-136"/>
<polygon fill="#63b8ff" stroke="#63b8ff" points="780.58,-139.46 789.55,-133.81 779.02,-132.63 780.58,-139.46"/>
</g>
<!-- Node9&#45;&gt;Node14 -->
<g id="edge13" class="edge">
<title>Node9&#45;&gt;Node14</title>
<path fill="none" stroke="#63b8ff" d="M692.34,-151.01C701.45,-147.14 710.75,-142.61 719,-137.5 737.2,-126.22 736.02,-115.4 755,-105.5 758.85,-103.49 762.92,-101.69 767.1,-100.08"/>
<polygon fill="#63b8ff" stroke="#63b8ff" points="767.91,-103.5 776.22,-96.94 765.63,-96.88 767.91,-103.5"/>
</g>
</g>
</svg>
        <g id="navigator" transform="translate(0 0)" fill="#404254">
                <rect fill="#f2f5e9" fill-opacity="0.5" stroke="#606060" stroke-width=".5" x="0" y="0" width="60" height="60"/>
                <use id="zoomplus" xlink:href="#zoomPlus" x="17" y="9" onmousedown="handleZoom(evt,'in')"/>
                <use id="zoomminus" xlink:href="#zoomMin" x="42" y="9" onmousedown="handleZoom(evt,'out')"/>
                <use id="reset" xlink:href="#resetDef" x="30" y="36" onmousedown="handleReset()"/>
                <g id="arrowUp" xlink:href="#dirArrow" transform="translate(30 24)" onmousedown="handlePan(0,-1)">
                  <use xlink:href="#rim" fill="#404040">
                        <set attributeName="fill" to="#808080" begin="arrowUp.mouseover" end="arrowUp.mouseout"/>
                  </use>
                  <path fill="none" stroke="white" stroke-width="1.5" d="M0,-3.0v7 M-2.5,-0.5L0,-3.0L2.5,-0.5"/>
                </g>
                <g id="arrowRight" xlink:href="#dirArrow" transform="rotate(90) translate(36 -43)" onmousedown="handlePan(1,0)">
                  <use xlink:href="#rim" fill="#404040">
                        <set attributeName="fill" to="#808080" begin="arrowRight.mouseover" end="arrowRight.mouseout"/>
                  </use>
                  <path fill="none" stroke="white" stroke-width="1.5" d="M0,-3.0v7 M-2.5,-0.5L0,-3.0L2.5,-0.5"/>
                </g>
                <g id="arrowDown" xlink:href="#dirArrow" transform="rotate(180) translate(-30 -48)" onmousedown="handlePan(0,1)">
                  <use xlink:href="#rim" fill="#404040">
                        <set attributeName="fill" to="#808080" begin="arrowDown.mouseover" end="arrowDown.mouseout"/>
                  </use>
                  <path fill="none" stroke="white" stroke-width="1.5" d="M0,-3.0v7 M-2.5,-0.5L0,-3.0L2.5,-0.5"/>
                </g>
                <g id="arrowLeft" xlink:href="#dirArrow" transform="rotate(270) translate(-36 17)" onmousedown="handlePan(-1,0)">
                  <use xlink:href="#rim" fill="#404040">
                        <set attributeName="fill" to="#808080" begin="arrowLeft.mouseover" end="arrowLeft.mouseout"/>
                  </use>
                  <path fill="none" stroke="white" stroke-width="1.5" d="M0,-3.0v7 M-2.5,-0.5L0,-3.0L2.5,-0.5"/>
                </g>
        </g>
        <svg viewBox="0 0 15 15" width="100%" height="30px" preserveAspectRatio="xMaxYMin meet">
         <g id="arrow_out" transform="scale(0.3 0.3)">
          <a xlink:href="classParserClientImpl_a254726d0926a918e12827e210612c76e_cgraph_org.svg" target="_base">
           <rect id="button" ry="5" rx="5" y="6" x="6" height="38" width="38"
                fill="#f2f5e9" fill-opacity="0.5" stroke="#606060" stroke-width="1.0"/>
           <path id="arrow"
             d="M 11.500037,31.436501 C 11.940474,20.09759 22.043105,11.32322 32.158766,21.979434 L 37.068811,17.246167 C 37.068811,17.246167 37.088388,32 37.088388,32 L 22.160133,31.978069 C 22.160133,31.978069 26.997745,27.140456 26.997745,27.140456 C 18.528582,18.264221 13.291696,25.230495 11.500037,31.436501 z"
             style="fill:#404040;"/>
          </a>
         </g>
        </svg>
</svg>
