<?xml version="1.0" encoding="UTF-8" standalone="no"?>
<!DOCTYPE svg PUBLIC "-//W3C//DTD SVG 1.1//EN"
 "http://www.w3.org/Graphics/SVG/1.1/DTD/svg11.dtd">
<!-- Generated by graphviz version 7.1.0 (0)
 -->
<!-- Title: QtMainView::updateHistoryMenu Pages: 1 -->
<svg width="1372pt" height="236pt"
 viewBox="0.00 0.00 1372.00 235.50" xmlns="http://www.w3.org/2000/svg" xmlns:xlink="http://www.w3.org/1999/xlink">
<g id="graph0" class="graph" transform="scale(1 1) rotate(0) translate(4 231.5)">
<title>QtMainView::updateHistoryMenu</title>
<!-- Node1 -->
<g id="node1" class="node">
<title>Node1</title>
<g id="a_node1"><a xlink:title=" ">
<polygon fill="#999999" stroke="#666666" points="178,-161 0,-161 0,-142 178,-142 178,-161"/>
<text text-anchor="middle" x="89" y="-149" font-family="Helvetica,sans-Serif" font-size="10.00">QtMainView::updateHistoryMenu</text>
</a>
</g>
</g>
<!-- Node2 -->
<g id="node2" class="node">
<title>Node2</title>
<g id="a_node2"><a xlink:href="classQtMainWindow.html#a6e2d865c8547149d3cb786444a987098" target="_top" xlink:title=" ">
<polygon fill="white" stroke="#666666" points="407,-161 214,-161 214,-142 407,-142 407,-161"/>
<text text-anchor="middle" x="310.5" y="-149" font-family="Helvetica,sans-Serif" font-size="10.00">QtMainWindow::updateHistoryMenu</text>
</a>
</g>
</g>
<!-- Node1&#45;&gt;Node2 -->
<g id="edge1" class="edge">
<title>Node1&#45;&gt;Node2</title>
<path fill="none" stroke="#63b8ff" d="M178.33,-151.5C186.27,-151.5 194.36,-151.5 202.43,-151.5"/>
<polygon fill="#63b8ff" stroke="#63b8ff" points="202.29,-155 212.29,-151.5 202.29,-148 202.29,-155"/>
</g>
<!-- Node3 -->
<g id="node3" class="node">
<title>Node3</title>
<g id="a_node3"><a xlink:href="classMessageActivateBase.html#a7db6f8a99c7551dd62d38e9fe387ccda" target="_top" xlink:title=" ">
<polygon fill="white" stroke="#666666" points="805.5,-227.5 680.5,-227.5 680.5,-197.5 805.5,-197.5 805.5,-227.5"/>
<text text-anchor="start" x="688.5" y="-215.5" font-family="Helvetica,sans-Serif" font-size="10.00">MessageActivateBase</text>
<text text-anchor="middle" x="743" y="-204.5" font-family="Helvetica,sans-Serif" font-size="10.00">::getSearchMatches</text>
</a>
</g>
</g>
<!-- Node2&#45;&gt;Node3 -->
<g id="edge2" class="edge">
<title>Node2&#45;&gt;Node3</title>
<path fill="none" stroke="#63b8ff" d="M381.63,-161.44C460.81,-172.66 589.05,-190.83 669.29,-202.2"/>
<polygon fill="#63b8ff" stroke="#63b8ff" points="668.39,-205.61 678.79,-203.54 669.38,-198.67 668.39,-205.61"/>
</g>
<!-- Node4 -->
<g id="node4" class="node">
<title>Node4</title>
<g id="a_node4"><a xlink:href="classQtMainWindow.html#adcd89081d4b1e06cd4f00dab8572cfcf" target="_top" xlink:title=" ">
<polygon fill="white" stroke="#666666" points="629,-142 443,-142 443,-123 629,-123 629,-142"/>
<text text-anchor="middle" x="536" y="-130" font-family="Helvetica,sans-Serif" font-size="10.00">QtMainWindow::setupHistoryMenu</text>
</a>
</g>
</g>
<!-- Node2&#45;&gt;Node4 -->
<g id="edge3" class="edge">
<title>Node2&#45;&gt;Node4</title>
<path fill="none" stroke="#63b8ff" d="M407.26,-143.36C415.23,-142.68 423.31,-141.99 431.34,-141.31"/>
<polygon fill="#63b8ff" stroke="#63b8ff" points="431.46,-144.81 441.13,-140.48 430.87,-137.84 431.46,-144.81"/>
</g>
<!-- Node4&#45;&gt;Node3 -->
<g id="edge7" class="edge">
<title>Node4&#45;&gt;Node3</title>
<path fill="none" stroke="#63b8ff" d="M557.55,-142.33C582.6,-154.12 626.37,-174.08 665,-188.5 669.43,-190.15 674.03,-191.79 678.67,-193.38"/>
<polygon fill="#63b8ff" stroke="#63b8ff" points="677.52,-196.68 688.11,-196.53 679.73,-190.04 677.52,-196.68"/>
</g>
<!-- Node5 -->
<g id="node5" class="node">
<title>Node5</title>
<g id="a_node5"><a xlink:href="namespaceutility.html#a7c55783775b1bc896a7998beef639527" target="_top" xlink:title=" ">
<polygon fill="white" stroke="#666666" points="780,-179 706,-179 706,-160 780,-160 780,-179"/>
<text text-anchor="middle" x="743" y="-167" font-family="Helvetica,sans-Serif" font-size="10.00">utility::elide</text>
</a>
</g>
</g>
<!-- Node4&#45;&gt;Node5 -->
<g id="edge4" class="edge">
<title>Node4&#45;&gt;Node5</title>
<path fill="none" stroke="#63b8ff" d="M592.21,-142.46C624.17,-148.23 664,-155.42 694.55,-160.94"/>
<polygon fill="#63b8ff" stroke="#63b8ff" points="693.82,-164.36 704.28,-162.69 695.06,-157.47 693.82,-164.36"/>
</g>
<!-- Node6 -->
<g id="node6" class="node">
<title>Node6</title>
<g id="a_node6"><a xlink:href="structSearchMatch.html#aab72381055e608a5fc69d20c867f731a" target="_top" xlink:title=" ">
<polygon fill="white" stroke="#666666" points="817,-142 669,-142 669,-123 817,-123 817,-142"/>
<text text-anchor="middle" x="743" y="-130" font-family="Helvetica,sans-Serif" font-size="10.00">SearchMatch::getFullName</text>
</a>
</g>
</g>
<!-- Node4&#45;&gt;Node6 -->
<g id="edge5" class="edge">
<title>Node4&#45;&gt;Node6</title>
<path fill="none" stroke="#63b8ff" d="M629.31,-132.5C638.57,-132.5 647.95,-132.5 657.13,-132.5"/>
<polygon fill="#63b8ff" stroke="#63b8ff" points="657.12,-136 667.12,-132.5 657.12,-129 657.12,-136"/>
</g>
<!-- Node8 -->
<g id="node8" class="node">
<title>Node8</title>
<g id="a_node8"><a xlink:href="classQtMainWindow.html#a472f9814ea68df68f7437ae3671889e2" target="_top" xlink:title=" ">
<polygon fill="white" stroke="#666666" points="821,-104.5 665,-104.5 665,-74.5 821,-74.5 821,-104.5"/>
<text text-anchor="start" x="673" y="-92.5" font-family="Helvetica,sans-Serif" font-size="10.00">QtMainWindow::openHistory</text>
<text text-anchor="middle" x="743" y="-81.5" font-family="Helvetica,sans-Serif" font-size="10.00">Action</text>
</a>
</g>
</g>
<!-- Node4&#45;&gt;Node8 -->
<g id="edge8" class="edge">
<title>Node4&#45;&gt;Node8</title>
<path fill="none" stroke="#63b8ff" d="M584.55,-122.53C606.09,-118.01 632.22,-112.53 656.96,-107.34"/>
<polygon fill="#63b8ff" stroke="#63b8ff" points="657.66,-110.77 666.73,-105.29 656.22,-103.92 657.66,-110.77"/>
</g>
<!-- Node10 -->
<g id="node10" class="node">
<title>Node10</title>
<g id="a_node10"><a xlink:href="classQtMainWindow.html#ac27fd98b9530335b3123465934148dca" target="_top" xlink:title=" ">
<polygon fill="white" stroke="#666666" points="802.5,-56 683.5,-56 683.5,-37 802.5,-37 802.5,-56"/>
<text text-anchor="middle" x="743" y="-44" font-family="Helvetica,sans-Serif" font-size="10.00">QtMainWindow::redo</text>
</a>
</g>
</g>
<!-- Node4&#45;&gt;Node10 -->
<g id="edge10" class="edge">
<title>Node4&#45;&gt;Node10</title>
<path fill="none" stroke="#63b8ff" d="M552.98,-122.52C576.65,-108.12 622.78,-81.49 665,-65.5 670.94,-63.25 677.24,-61.19 683.57,-59.34"/>
<polygon fill="#63b8ff" stroke="#63b8ff" points="684.05,-62.84 692.76,-56.8 682.18,-56.09 684.05,-62.84"/>
</g>
<!-- Node14 -->
<g id="node14" class="node">
<title>Node14</title>
<g id="a_node14"><a xlink:href="classQtMainWindow.html#a77dbe4820788248c10bc553e7b05b28a" target="_top" xlink:title=" ">
<polygon fill="white" stroke="#666666" points="803.5,-19 682.5,-19 682.5,0 803.5,0 803.5,-19"/>
<text text-anchor="middle" x="743" y="-7" font-family="Helvetica,sans-Serif" font-size="10.00">QtMainWindow::undo</text>
</a>
</g>
</g>
<!-- Node4&#45;&gt;Node14 -->
<g id="edge14" class="edge">
<title>Node4&#45;&gt;Node14</title>
<path fill="none" stroke="#63b8ff" d="M545.87,-122.65C565.3,-101.72 613.96,-52.68 665,-27.5 668.26,-25.89 671.67,-24.42 675.17,-23.08"/>
<polygon fill="#63b8ff" stroke="#63b8ff" points="676.08,-26.47 684.41,-19.92 673.82,-19.84 676.08,-26.47"/>
</g>
<!-- Node7 -->
<g id="node7" class="node">
<title>Node7</title>
<g id="a_node7"><a xlink:href="classNodeType.html#a81656eb0721b620e931dd46669a8e4eb" target="_top" xlink:title=" ">
<polygon fill="white" stroke="#666666" points="958,-142 863,-142 863,-123 958,-123 958,-142"/>
<text text-anchor="middle" x="910.5" y="-130" font-family="Helvetica,sans-Serif" font-size="10.00">NodeType::isFile</text>
</a>
</g>
</g>
<!-- Node6&#45;&gt;Node7 -->
<g id="edge6" class="edge">
<title>Node6&#45;&gt;Node7</title>
<path fill="none" stroke="#63b8ff" d="M817.07,-132.5C828.64,-132.5 840.46,-132.5 851.62,-132.5"/>
<polygon fill="#63b8ff" stroke="#63b8ff" points="851.46,-136 861.46,-132.5 851.46,-129 851.46,-136"/>
</g>
<!-- Node9 -->
<g id="node9" class="node">
<title>Node9</title>
<g id="a_node9"><a xlink:href="classTabId.html#a0a4390a7d6a81d9443e6c8a615c149b9" target="_top" xlink:title=" ">
<polygon fill="white" stroke="#666666" points="960,-99 861,-99 861,-80 960,-80 960,-99"/>
<text text-anchor="middle" x="910.5" y="-87" font-family="Helvetica,sans-Serif" font-size="10.00">TabId::currentTab</text>
</a>
</g>
</g>
<!-- Node8&#45;&gt;Node9 -->
<g id="edge9" class="edge">
<title>Node8&#45;&gt;Node9</title>
<path fill="none" stroke="#63b8ff" d="M821.42,-89.5C830.88,-89.5 840.44,-89.5 849.59,-89.5"/>
<polygon fill="#63b8ff" stroke="#63b8ff" points="849.42,-93 859.42,-89.5 849.42,-86 849.42,-93"/>
</g>
<!-- Node11 -->
<g id="node11" class="node">
<title>Node11</title>
<g id="a_node11"><a xlink:href="classMessage.html#aa60564025ee950bf52c8deb6ac1bb843" target="_top" xlink:title=" ">
<polygon fill="white" stroke="#666666" points="964,-38 857,-38 857,-19 964,-19 964,-38"/>
<text text-anchor="middle" x="910.5" y="-26" font-family="Helvetica,sans-Serif" font-size="10.00">Message::dispatch</text>
</a>
</g>
</g>
<!-- Node10&#45;&gt;Node11 -->
<g id="edge11" class="edge">
<title>Node10&#45;&gt;Node11</title>
<path fill="none" stroke="#63b8ff" d="M802.82,-40.1C816.67,-38.6 831.51,-36.98 845.58,-35.45"/>
<polygon fill="#63b8ff" stroke="#63b8ff" points="845.59,-38.97 855.16,-34.41 844.84,-32.01 845.59,-38.97"/>
</g>
<!-- Node12 -->
<g id="node12" class="node">
<title>Node12</title>
<g id="a_node12"><a xlink:href="classMessageQueue.html#ae42d768ad6ffd631d627fe101e38f711" target="_top" xlink:title=" ">
<polygon fill="white" stroke="#666666" points="1155,-38 1000,-38 1000,-19 1155,-19 1155,-38"/>
<text text-anchor="middle" x="1077.5" y="-26" font-family="Helvetica,sans-Serif" font-size="10.00">MessageQueue::getInstance</text>
</a>
</g>
</g>
<!-- Node11&#45;&gt;Node12 -->
<g id="edge12" class="edge">
<title>Node11&#45;&gt;Node12</title>
<path fill="none" stroke="#63b8ff" d="M964.16,-28.5C971.94,-28.5 980.13,-28.5 988.4,-28.5"/>
<polygon fill="#63b8ff" stroke="#63b8ff" points="988.17,-32 998.17,-28.5 988.17,-25 988.17,-32"/>
</g>
<!-- Node13 -->
<g id="node13" class="node">
<title>Node13</title>
<g id="a_node13"><a xlink:href="classMessageQueue.html#a006069f4b83d2372c989c52784fac5de" target="_top" xlink:title=" ">
<polygon fill="white" stroke="#666666" points="1364,-38 1191,-38 1191,-19 1364,-19 1364,-38"/>
<text text-anchor="middle" x="1277.5" y="-26" font-family="Helvetica,sans-Serif" font-size="10.00">MessageQueue::MessageQueue</text>
</a>
</g>
</g>
<!-- Node12&#45;&gt;Node13 -->
<g id="edge13" class="edge">
<title>Node12&#45;&gt;Node13</title>
<path fill="none" stroke="#63b8ff" d="M1155.34,-28.5C1163.17,-28.5 1171.19,-28.5 1179.21,-28.5"/>
<polygon fill="#63b8ff" stroke="#63b8ff" points="1178.99,-32 1188.99,-28.5 1178.99,-25 1178.99,-32"/>
</g>
<!-- Node14&#45;&gt;Node11 -->
<g id="edge15" class="edge">
<title>Node14&#45;&gt;Node11</title>
<path fill="none" stroke="#63b8ff" d="M803.75,-16.36C817.28,-17.91 831.69,-19.57 845.39,-21.14"/>
<polygon fill="#63b8ff" stroke="#63b8ff" points="844.86,-24.6 855.19,-22.27 845.65,-17.65 844.86,-24.6"/>
</g>
</g>
</svg>
