<?xml version="1.0" encoding="UTF-8" standalone="no"?>
<!DOCTYPE svg PUBLIC "-//W3C//DTD SVG 1.1//EN"
 "http://www.w3.org/Graphics/SVG/1.1/DTD/svg11.dtd">
<!-- Generated by graphviz version 7.1.0 (0)
 -->
<!-- Title: CodeController::getSnippetParamsForWholeFile Pages: 1 -->
<svg width="515pt" height="113pt"
 viewBox="0.00 0.00 515.00 113.00" xmlns="http://www.w3.org/2000/svg" xmlns:xlink="http://www.w3.org/1999/xlink">
<g id="graph0" class="graph" transform="scale(1 1) rotate(0) translate(4 109)">
<title>CodeController::getSnippetParamsForWholeFile</title>
<!-- Node1 -->
<g id="node1" class="node">
<title>Node1</title>
<g id="a_node1"><a xlink:title=" ">
<polygon fill="#999999" stroke="#666666" points="148,-67.5 0,-67.5 0,-37.5 148,-37.5 148,-67.5"/>
<text text-anchor="start" x="8" y="-55.5" font-family="Helvetica,sans-Serif" font-size="10.00">CodeController::getSnippet</text>
<text text-anchor="middle" x="74" y="-44.5" font-family="Helvetica,sans-Serif" font-size="10.00">ParamsForWholeFile</text>
</a>
</g>
</g>
<!-- Node2 -->
<g id="node2" class="node">
<title>Node2</title>
<g id="a_node2"><a xlink:href="classStorageAccess.html#a2a5d57add9bf56a78402a1f6f33b655e" target="_top" xlink:title=" ">
<polygon fill="white" stroke="#666666" points="348,-105 184,-105 184,-86 348,-86 348,-105"/>
<text text-anchor="middle" x="266" y="-93" font-family="Helvetica,sans-Serif" font-size="10.00">StorageAccess::getFileContent</text>
</a>
</g>
</g>
<!-- Node1&#45;&gt;Node2 -->
<g id="edge1" class="edge">
<title>Node1&#45;&gt;Node2</title>
<path fill="none" stroke="#63b8ff" d="M143.33,-67.96C165.14,-72.9 188.99,-78.3 209.76,-83"/>
<polygon fill="#63b8ff" stroke="#63b8ff" points="208.94,-86.4 219.47,-85.19 210.48,-79.57 208.94,-86.4"/>
</g>
<!-- Node3 -->
<g id="node3" class="node">
<title>Node3</title>
<g id="a_node3"><a xlink:href="classMessageListenerBase.html#a90287ef7db6b2360a5e12074df5dd74d" target="_top" xlink:title=" ">
<polygon fill="white" stroke="#666666" points="327.5,-67.5 204.5,-67.5 204.5,-37.5 327.5,-37.5 327.5,-67.5"/>
<text text-anchor="start" x="212.5" y="-55.5" font-family="Helvetica,sans-Serif" font-size="10.00">MessageListenerBase</text>
<text text-anchor="middle" x="266" y="-44.5" font-family="Helvetica,sans-Serif" font-size="10.00">::getType</text>
</a>
</g>
</g>
<!-- Node1&#45;&gt;Node3 -->
<g id="edge2" class="edge">
<title>Node1&#45;&gt;Node3</title>
<path fill="none" stroke="#63b8ff" d="M148.46,-52.5C162.96,-52.5 178.17,-52.5 192.64,-52.5"/>
<polygon fill="#63b8ff" stroke="#63b8ff" points="192.54,-56 202.54,-52.5 192.54,-49 192.54,-56"/>
</g>
<!-- Node5 -->
<g id="node5" class="node">
<title>Node5</title>
<g id="a_node5"><a xlink:href="classCodeController.html#affaa2a65b109b9f7f6a9ff097069a636" target="_top" xlink:title=" ">
<polygon fill="white" stroke="#666666" points="333.5,-19 198.5,-19 198.5,0 333.5,0 333.5,-19"/>
<text text-anchor="middle" x="266" y="-7" font-family="Helvetica,sans-Serif" font-size="10.00">CodeController::getView</text>
</a>
</g>
</g>
<!-- Node1&#45;&gt;Node5 -->
<g id="edge4" class="edge">
<title>Node1&#45;&gt;Node5</title>
<path fill="none" stroke="#63b8ff" d="M143.33,-37.04C165.14,-32.1 188.99,-26.7 209.76,-22"/>
<polygon fill="#63b8ff" stroke="#63b8ff" points="210.48,-25.43 219.47,-19.81 208.94,-18.6 210.48,-25.43"/>
</g>
<!-- Node4 -->
<g id="node4" class="node">
<title>Node4</title>
<g id="a_node4"><a xlink:href="classMessageListenerBase.html#a0cd7d238c93b6f62b7a4e80a46d3b48b" target="_top" xlink:title=" ">
<polygon fill="white" stroke="#666666" points="507,-67.5 384,-67.5 384,-37.5 507,-37.5 507,-67.5"/>
<text text-anchor="start" x="392" y="-55.5" font-family="Helvetica,sans-Serif" font-size="10.00">MessageListenerBase</text>
<text text-anchor="middle" x="445.5" y="-44.5" font-family="Helvetica,sans-Serif" font-size="10.00">::doGetType</text>
</a>
</g>
</g>
<!-- Node3&#45;&gt;Node4 -->
<g id="edge3" class="edge">
<title>Node3&#45;&gt;Node4</title>
<path fill="none" stroke="#63b8ff" d="M327.59,-52.5C341.99,-52.5 357.5,-52.5 372.37,-52.5"/>
<polygon fill="#63b8ff" stroke="#63b8ff" points="372.07,-56 382.07,-52.5 372.07,-49 372.07,-56"/>
</g>
</g>
</svg>
