<?xml version="1.0" encoding="UTF-8" standalone="no"?>
<!DOCTYPE svg PUBLIC "-//W3C//DTD SVG 1.1//EN"
 "http://www.w3.org/Graphics/SVG/1.1/DTD/svg11.dtd">
<!-- Generated by graphviz version 9.0.0 (0)
 -->
<!-- Title: SourceLocationFile::forEachSourceLocation Pages: 1 -->
<!--zoomable 132 -->

<svg id="main" version="1.1" xmlns="http://www.w3.org/2000/svg" xmlns:xlink="http://www.w3.org/1999/xlink" xml:space="preserve" onload="init(evt)">
<style type="text/css"><![CDATA[
.node, .edge {opacity: 0.7;}
.node.selected, .edge.selected {opacity: 1;}
.edge:hover path { stroke: red; }
.edge:hover polygon { stroke: red; fill: red; }
]]></style>

<defs>
  <circle id="rim" cx="0" cy="0" r="7"/>
  <circle id="rim2" cx="0" cy="0" r="3.5"/>
  <g id="zoomPlus">
    <use xlink:href="#rim" fill="#404040"><set attributeName="fill" to="#808080" begin="zoomplus.mouseover" end="zoomplus.mouseout"/></use>
    <path d="M-4,0h8M0,-4v8" fill="none" stroke="white" stroke-width="1.5" pointer-events="none"/>
  </g>
  <g id="zoomMin">
    <use xlink:href="#rim" fill="#404040"><set attributeName="fill" to="#808080" begin="zoomminus.mouseover" end="zoomminus.mouseout"/></use>
    <path d="M-4,0h8" fill="none" stroke="white" stroke-width="1.5" pointer-events="none"/>
  </g>
  <g id="arrowUp" transform="translate(30 24)">
    <use xlink:href="#rim"/>
    <path pointer-events="none" fill="none" stroke="white" stroke-width="1.5" d="M0,-3.0v7 M-2.5,-0.5L0,-3.0L2.5,-0.5"/>
  </g>
  <g id="arrowRight" transform="rotate(90) translate(36 -43)">
    <use xlink:href="#rim"/>
    <path pointer-events="none" fill="none" stroke="white" stroke-width="1.5" d="M0,-3.0v7 M-2.5,-0.5L0,-3.0L2.5,-0.5"/>
  </g>
  <g id="arrowDown" transform="rotate(180) translate(-30 -48)">
    <use xlink:href="#rim"/>
    <path pointer-events="none" fill="none" stroke="white" stroke-width="1.5" d="M0,-3.0v7 M-2.5,-0.5L0,-3.0L2.5,-0.5"/>
  </g>
  <g id="arrowLeft" transform="rotate(270) translate(-36 17)">
    <use xlink:href="#rim"/>
    <path pointer-events="none" fill="none" stroke="white" stroke-width="1.5" d="M0,-3.0v7 M-2.5,-0.5L0,-3.0L2.5,-0.5"/>
  </g>
  <g id="resetDef">
    <use xlink:href="#rim2" fill="#404040"><set attributeName="fill" to="#808080" begin="reset.mouseover" end="reset.mouseout"/></use>
  </g>
</defs>
<script type="application/ecmascript">
var viewWidth = 713;
var viewHeight = 132;
var sectionId = 'dynsection-5';
</script>
<script type="application/ecmascript" xlink:href="svg.min.js"/>
<svg id="graph" class="graph">
<g id="viewport">
<title>SourceLocationFile::forEachSourceLocation</title>
<!-- Node1 -->
<g id="Node000001" class="node">
<title>Node1</title>
<g id="a_Node000001"><a xlink:title=" ">
<polygon fill="#999999" stroke="#666666" points="705.25,-72.12 572.25,-72.12 572.25,-38.62 705.25,-38.62 705.25,-72.12"/>
<text text-anchor="start" x="580.25" y="-58.62" font-family="Helvetica,sans-Serif" font-size="10.00">SourceLocationFile</text>
<text text-anchor="middle" x="638.75" y="-45.88" font-family="Helvetica,sans-Serif" font-size="10.00">::forEachSourceLocation</text>
</a>
</g>
</g>
<!-- Node2 -->
<g id="Node000002" class="node">
<title>Node2</title>
<g id="a_Node000002"><a xlink:href="classSourceLocationCollection.html#a610afa110bd35dc025cd5326ced3f8f7" target="_top" xlink:title=" ">
<polygon fill="white" stroke="#666666" points="536.25,-124.12 389,-124.12 389,-90.62 536.25,-90.62 536.25,-124.12"/>
<text text-anchor="start" x="397" y="-110.62" font-family="Helvetica,sans-Serif" font-size="10.00">SourceLocationCollection</text>
<text text-anchor="middle" x="462.62" y="-97.88" font-family="Helvetica,sans-Serif" font-size="10.00">::addSourceLocationCopies</text>
</a>
</g>
</g>
<!-- Node1&#45;&gt;Node2 -->
<g id="edge1_Node000001_Node000002" class="edge">
<title>Node1&#45;&gt;Node2</title>
<g id="a_edge1_Node000001_Node000002"><a xlink:title=" ">
<path fill="none" stroke="#63b8ff" d="M569.41,-75.78C553.52,-80.53 536.75,-85.54 521.36,-90.13"/>
<polygon fill="#63b8ff" stroke="#63b8ff" points="570.22,-79.19 578.8,-72.98 568.22,-72.49 570.22,-79.19"/>
</a>
</g>
</g>
<!-- Node3 -->
<g id="Node000003" class="node">
<title>Node3</title>
<g id="a_Node000003"><a xlink:href="structCodeSnippetParams.html#a48af6432f525c463da1ffb425ab360bd" target="_top" xlink:title=" ">
<polygon fill="white" stroke="#666666" points="522.75,-72.12 402.5,-72.12 402.5,-38.62 522.75,-38.62 522.75,-72.12"/>
<text text-anchor="start" x="410.5" y="-58.62" font-family="Helvetica,sans-Serif" font-size="10.00">CodeSnippetParams::</text>
<text text-anchor="middle" x="462.62" y="-45.88" font-family="Helvetica,sans-Serif" font-size="10.00">merge</text>
</a>
</g>
</g>
<!-- Node1&#45;&gt;Node3 -->
<g id="edge2_Node000001_Node000003" class="edge">
<title>Node1&#45;&gt;Node3</title>
<g id="a_edge2_Node000001_Node000003"><a xlink:title=" ">
<path fill="none" stroke="#63b8ff" d="M560.54,-55.38C548.04,-55.38 535.25,-55.38 523.25,-55.38"/>
<polygon fill="#63b8ff" stroke="#63b8ff" points="560.41,-58.88 570.41,-55.38 560.41,-51.88 560.41,-58.88"/>
</a>
</g>
</g>
<!-- Node7 -->
<g id="Node000007" class="node">
<title>Node7</title>
<g id="a_Node000007"><a xlink:href="SourceLocationFile_8cpp.html#a5f7aeeb17b2bba4d8af2a0fd34bbe80a" target="_top" xlink:title=" ">
<polygon fill="white" stroke="#666666" points="499.5,-20.75 425.75,-20.75 425.75,0 499.5,0 499.5,-20.75"/>
<text text-anchor="middle" x="462.62" y="-7.25" font-family="Helvetica,sans-Serif" font-size="10.00">operator&lt;&lt;</text>
</a>
</g>
</g>
<!-- Node1&#45;&gt;Node7 -->
<g id="edge6_Node000001_Node000007" class="edge">
<title>Node1&#45;&gt;Node7</title>
<g id="a_edge6_Node000001_Node000007"><a xlink:title=" ">
<path fill="none" stroke="#63b8ff" d="M560.9,-35.51C539.62,-30.02 517.52,-24.3 499.77,-19.72"/>
<polygon fill="#63b8ff" stroke="#63b8ff" points="559.9,-38.87 570.46,-37.98 561.65,-32.09 559.9,-38.87"/>
</a>
</g>
</g>
<!-- Node4 -->
<g id="Node000004" class="node">
<title>Node4</title>
<g id="a_Node000004"><a xlink:href="classCodeController.html#a2cb4dc45eb101196d64aff7b0de00cfa" target="_top" xlink:title=" ">
<polygon fill="white" stroke="#666666" points="353,-72.12 207.25,-72.12 207.25,-38.62 353,-38.62 353,-72.12"/>
<text text-anchor="start" x="215.25" y="-58.62" font-family="Helvetica,sans-Serif" font-size="10.00">CodeController::addSource</text>
<text text-anchor="middle" x="280.12" y="-45.88" font-family="Helvetica,sans-Serif" font-size="10.00">Locations</text>
</a>
</g>
</g>
<!-- Node3&#45;&gt;Node4 -->
<g id="edge3_Node000003_Node000004" class="edge">
<title>Node3&#45;&gt;Node4</title>
<g id="a_edge3_Node000003_Node000004"><a xlink:title=" ">
<path fill="none" stroke="#63b8ff" d="M390.85,-55.38C378.49,-55.38 365.62,-55.38 353.23,-55.38"/>
<polygon fill="#63b8ff" stroke="#63b8ff" points="390.51,-58.88 400.51,-55.38 390.51,-51.88 390.51,-58.88"/>
</a>
</g>
</g>
<!-- Node5 -->
<g id="Node000005" class="node">
<title>Node5</title>
<g id="a_Node000005"><a xlink:href="classCodeController.html#a5f3b0c481ec0de3e7cc165fefc354e53" target="_top" xlink:title=" ">
<polygon fill="white" stroke="#666666" points="171.25,-85.75 0,-85.75 0,-65 171.25,-65 171.25,-85.75"/>
<text text-anchor="middle" x="85.62" y="-72.25" font-family="Helvetica,sans-Serif" font-size="10.00">CodeController::handleMessage</text>
</a>
</g>
</g>
<!-- Node4&#45;&gt;Node5 -->
<g id="edge4_Node000004_Node000005" class="edge">
<title>Node4&#45;&gt;Node5</title>
<g id="a_edge4_Node000004_Node000005"><a xlink:title=" ">
<path fill="none" stroke="#63b8ff" d="M195.7,-64.04C187.7,-64.87 179.59,-65.72 171.58,-66.55"/>
<polygon fill="#63b8ff" stroke="#63b8ff" points="195.81,-67.55 205.39,-63.04 195.08,-60.59 195.81,-67.55"/>
</a>
</g>
</g>
<!-- Node6 -->
<g id="Node000006" class="node">
<title>Node6</title>
<g id="a_Node000006"><a xlink:href="classCodeController.html#aefd087433fec7fb74224c19e3930168c" target="_top" xlink:title=" ">
<polygon fill="white" stroke="#666666" points="171.25,-46.75 0,-46.75 0,-26 171.25,-26 171.25,-46.75"/>
<text text-anchor="middle" x="85.62" y="-33.25" font-family="Helvetica,sans-Serif" font-size="10.00">CodeController::handleMessage</text>
</a>
</g>
</g>
<!-- Node4&#45;&gt;Node6 -->
<g id="edge5_Node000004_Node000006" class="edge">
<title>Node4&#45;&gt;Node6</title>
<g id="a_edge5_Node000004_Node000006"><a xlink:title=" ">
<path fill="none" stroke="#63b8ff" d="M195.7,-47.14C187.7,-46.35 179.59,-45.55 171.58,-44.76"/>
<polygon fill="#63b8ff" stroke="#63b8ff" points="195.1,-50.6 205.39,-48.1 195.78,-43.63 195.1,-50.6"/>
</a>
</g>
</g>
</g>
</svg>

<g id="navigator" transform="translate(0 0)" fill="#404254">
  <rect fill="#f2f5e9" fill-opacity="0.5" stroke="#606060" stroke-width=".5" x="0" y="0" width="60" height="60"/>
  <use id="zoomplus" xlink:href="#zoomPlus" x="17" y="9" onmousedown="handleZoom(evt,'in')"/>
  <use id="zoomminus" xlink:href="#zoomMin" x="42" y="9" onmousedown="handleZoom(evt,'out')"/>
  <use id="reset" xlink:href="#resetDef" x="30" y="36" onmousedown="handleReset()"/>
   <use id="arrowup" xlink:href="#arrowUp" x="0" y="0" onmousedown="handlePan(0,-1)"/>
  <use id="arrowright" xlink:href="#arrowRight" x="0" y="0" onmousedown="handlePan(1,0)"/>
  <use id="arrowdown" xlink:href="#arrowDown" x="0" y="0" onmousedown="handlePan(0,1)"/>
  <use id="arrowleft" xlink:href="#arrowLeft" x="0" y="0" onmousedown="handlePan(-1,0)"/>
</g>
<svg viewBox="0 0 15 15" width="100%" height="30px" preserveAspectRatio="xMaxYMin meet">
 <g id="arrow_out" transform="scale(0.3 0.3)">
  <a xlink:href="classSourceLocationFile_af95fa79f4e157c6cbc7e97682a7762a9_icgraph_org.svg" target="_base">
   <rect id="button" ry="5" rx="5" y="6" x="6" height="38" width="38"
        fill="#f2f5e9" fill-opacity="0.5" stroke="#606060" stroke-width="1.0"/>
   <path id="arrow"
     d="M 11.500037,31.436501 C 11.940474,20.09759 22.043105,11.32322 32.158766,21.979434 L 37.068811,17.246167 C 37.068811,17.246167 37.088388,32 37.088388,32 L 22.160133,31.978069 C 22.160133,31.978069 26.997745,27.140456 26.997745,27.140456 C 18.528582,18.264221 13.291696,25.230495 11.500037,31.436501 z"
     style="fill:#404040;"/>
  </a>
 </g>
</svg>

<style type='text/css'>
<![CDATA[
[data-mouse-over-selected='false'] { opacity: 0.7; }
[data-mouse-over-selected='true']  { opacity: 1.0; }
]]>
</style>
<script type="application/ecmascript"><![CDATA[
document.addEventListener('DOMContentLoaded', (event) => {
  highlightEdges();
  highlightAdjacentNodes();
});
]]></script>
</svg>
