<?xml version="1.0" encoding="UTF-8" standalone="no"?>
<!DOCTYPE svg PUBLIC "-//W3C//DTD SVG 1.1//EN"
 "http://www.w3.org/Graphics/SVG/1.1/DTD/svg11.dtd">
<!-- Generated by graphviz version 9.0.0 (0)
 -->
<!-- Title: MessageActivateNodes::addNode Pages: 1 -->
<!--zoomable 213 -->

<svg id="main" version="1.1" xmlns="http://www.w3.org/2000/svg" xmlns:xlink="http://www.w3.org/1999/xlink" xml:space="preserve" onload="init(evt)">
<style type="text/css"><![CDATA[
.node, .edge {opacity: 0.7;}
.node.selected, .edge.selected {opacity: 1;}
.edge:hover path { stroke: red; }
.edge:hover polygon { stroke: red; fill: red; }
]]></style>

<defs>
  <circle id="rim" cx="0" cy="0" r="7"/>
  <circle id="rim2" cx="0" cy="0" r="3.5"/>
  <g id="zoomPlus">
    <use xlink:href="#rim" fill="#404040"><set attributeName="fill" to="#808080" begin="zoomplus.mouseover" end="zoomplus.mouseout"/></use>
    <path d="M-4,0h8M0,-4v8" fill="none" stroke="white" stroke-width="1.5" pointer-events="none"/>
  </g>
  <g id="zoomMin">
    <use xlink:href="#rim" fill="#404040"><set attributeName="fill" to="#808080" begin="zoomminus.mouseover" end="zoomminus.mouseout"/></use>
    <path d="M-4,0h8" fill="none" stroke="white" stroke-width="1.5" pointer-events="none"/>
  </g>
  <g id="arrowUp" transform="translate(30 24)">
    <use xlink:href="#rim"/>
    <path pointer-events="none" fill="none" stroke="white" stroke-width="1.5" d="M0,-3.0v7 M-2.5,-0.5L0,-3.0L2.5,-0.5"/>
  </g>
  <g id="arrowRight" transform="rotate(90) translate(36 -43)">
    <use xlink:href="#rim"/>
    <path pointer-events="none" fill="none" stroke="white" stroke-width="1.5" d="M0,-3.0v7 M-2.5,-0.5L0,-3.0L2.5,-0.5"/>
  </g>
  <g id="arrowDown" transform="rotate(180) translate(-30 -48)">
    <use xlink:href="#rim"/>
    <path pointer-events="none" fill="none" stroke="white" stroke-width="1.5" d="M0,-3.0v7 M-2.5,-0.5L0,-3.0L2.5,-0.5"/>
  </g>
  <g id="arrowLeft" transform="rotate(270) translate(-36 17)">
    <use xlink:href="#rim"/>
    <path pointer-events="none" fill="none" stroke="white" stroke-width="1.5" d="M0,-3.0v7 M-2.5,-0.5L0,-3.0L2.5,-0.5"/>
  </g>
  <g id="resetDef">
    <use xlink:href="#rim2" fill="#404040"><set attributeName="fill" to="#808080" begin="reset.mouseover" end="reset.mouseout"/></use>
  </g>
</defs>
<script type="application/ecmascript">
var viewWidth = 687;
var viewHeight = 213;
var sectionId = 'dynsection-3';
</script>
<script type="application/ecmascript" xlink:href="svg.min.js"/>
<svg id="graph" class="graph">
<g id="viewport">
<title>MessageActivateNodes::addNode</title>
<!-- Node1 -->
<g id="Node000001" class="node">
<title>Node1</title>
<g id="a_Node000001"><a xlink:title=" ">
<polygon fill="#999999" stroke="#666666" points="679,-111.5 548.25,-111.5 548.25,-78 679,-78 679,-111.5"/>
<text text-anchor="start" x="556.25" y="-98" font-family="Helvetica,sans-Serif" font-size="10.00">MessageActivateNodes</text>
<text text-anchor="middle" x="613.62" y="-85.25" font-family="Helvetica,sans-Serif" font-size="10.00">::addNode</text>
</a>
</g>
</g>
<!-- Node2 -->
<g id="Node000002" class="node">
<title>Node2</title>
<g id="a_Node000002"><a xlink:href="classBookmarkController.html#a66b7f20dd251f5d5d55339f481f459d7" target="_top" xlink:title=" ">
<polygon fill="white" stroke="#666666" points="501,-189.5 386.75,-189.5 386.75,-156 501,-156 501,-189.5"/>
<text text-anchor="start" x="394.75" y="-176" font-family="Helvetica,sans-Serif" font-size="10.00">BookmarkController</text>
<text text-anchor="middle" x="443.88" y="-163.25" font-family="Helvetica,sans-Serif" font-size="10.00">::activateBookmark</text>
</a>
</g>
</g>
<!-- Node1&#45;&gt;Node2 -->
<g id="edge1_Node000001_Node000002" class="edge">
<title>Node1&#45;&gt;Node2</title>
<g id="a_edge1_Node000001_Node000002"><a xlink:title=" ">
<path fill="none" stroke="#63b8ff" d="M571.96,-117.11C553.89,-126.7 532.24,-137.75 512.25,-146.75 505.62,-149.74 498.53,-152.7 491.54,-155.51"/>
<polygon fill="#63b8ff" stroke="#63b8ff" points="573.36,-120.33 580.53,-112.52 570.06,-114.16 573.36,-120.33"/>
</a>
</g>
</g>
<!-- Node6 -->
<g id="Node000006" class="node">
<title>Node6</title>
<g id="a_Node000006"><a xlink:href="classActivationController.html#a8c3a9d09485986f66c2bcc0c9b6ed60a" target="_top" xlink:title=" ">
<polygon fill="white" stroke="#666666" points="500.62,-137.5 387.12,-137.5 387.12,-104 500.62,-104 500.62,-137.5"/>
<text text-anchor="start" x="395.12" y="-124" font-family="Helvetica,sans-Serif" font-size="10.00">ActivationController</text>
<text text-anchor="middle" x="443.88" y="-111.25" font-family="Helvetica,sans-Serif" font-size="10.00">::handleMessage</text>
</a>
</g>
</g>
<!-- Node1&#45;&gt;Node6 -->
<g id="edge5_Node000001_Node000006" class="edge">
<title>Node1&#45;&gt;Node6</title>
<g id="a_edge5_Node000001_Node000006"><a xlink:title=" ">
<path fill="none" stroke="#63b8ff" d="M536.45,-106.56C524.55,-108.4 512.45,-110.28 501.1,-112.04"/>
<polygon fill="#63b8ff" stroke="#63b8ff" points="536.93,-110.02 546.27,-105.03 535.85,-103.11 536.93,-110.02"/>
</a>
</g>
</g>
<!-- Node7 -->
<g id="Node000007" class="node">
<title>Node7</title>
<g id="a_Node000007"><a xlink:href="classMessageActivateNodes.html#a3a6c27638dd9ac85d9d9d7355458739e" target="_top" xlink:title=" ">
<polygon fill="white" stroke="#666666" points="512.25,-85.5 375.5,-85.5 375.5,-52 512.25,-52 512.25,-85.5"/>
<text text-anchor="start" x="383.5" y="-72" font-family="Helvetica,sans-Serif" font-size="10.00">MessageActivateNodes</text>
<text text-anchor="middle" x="443.88" y="-59.25" font-family="Helvetica,sans-Serif" font-size="10.00">::MessageActivateNodes</text>
</a>
</g>
</g>
<!-- Node1&#45;&gt;Node7 -->
<g id="edge6_Node000001_Node000007" class="edge">
<title>Node1&#45;&gt;Node7</title>
<g id="a_edge6_Node000001_Node000007"><a xlink:title=" ">
<path fill="none" stroke="#63b8ff" d="M536.57,-82.96C528.58,-81.72 520.5,-80.47 512.61,-79.25"/>
<polygon fill="#63b8ff" stroke="#63b8ff" points="535.85,-86.39 546.27,-84.47 536.93,-79.48 535.85,-86.39"/>
</a>
</g>
</g>
<!-- Node8 -->
<g id="Node000008" class="node">
<title>Node8</title>
<g id="a_Node000008"><a xlink:href="classQtGraphNodeQualifier.html#ad43934a6ba9a2ac22f5411ecf184009c" target="_top" xlink:title=" ">
<polygon fill="white" stroke="#666666" points="505.88,-33.5 381.88,-33.5 381.88,0 505.88,0 505.88,-33.5"/>
<text text-anchor="start" x="389.88" y="-20" font-family="Helvetica,sans-Serif" font-size="10.00">QtGraphNodeQualifier</text>
<text text-anchor="middle" x="443.88" y="-7.25" font-family="Helvetica,sans-Serif" font-size="10.00">::onClick</text>
</a>
</g>
</g>
<!-- Node1&#45;&gt;Node8 -->
<g id="edge7_Node000001_Node000008" class="edge">
<title>Node1&#45;&gt;Node8</title>
<g id="a_edge7_Node000001_Node000008"><a xlink:title=" ">
<path fill="none" stroke="#63b8ff" d="M571.96,-72.39C553.89,-62.8 532.24,-51.75 512.25,-42.75 505.62,-39.76 498.53,-36.8 491.54,-33.99"/>
<polygon fill="#63b8ff" stroke="#63b8ff" points="570.06,-75.34 580.53,-76.98 573.36,-69.17 570.06,-75.34"/>
</a>
</g>
</g>
<!-- Node3 -->
<g id="Node000003" class="node">
<title>Node3</title>
<g id="a_Node000003"><a xlink:href="classQtBookmark.html#ad4a5325c8352315e53d3649ffafcd373" target="_top" xlink:title=" ">
<polygon fill="white" stroke="#666666" points="339.5,-205.12 181,-205.12 181,-184.38 339.5,-184.38 339.5,-205.12"/>
<text text-anchor="middle" x="260.25" y="-191.62" font-family="Helvetica,sans-Serif" font-size="10.00">QtBookmark::activateClicked</text>
</a>
</g>
</g>
<!-- Node2&#45;&gt;Node3 -->
<g id="edge2_Node000002_Node000003" class="edge">
<title>Node2&#45;&gt;Node3</title>
<g id="a_edge2_Node000002_Node000003"><a xlink:title=" ">
<path fill="none" stroke="#63b8ff" d="M375.08,-180.96C363.54,-182.36 351.48,-183.82 339.7,-185.25"/>
<polygon fill="#63b8ff" stroke="#63b8ff" points="375.39,-184.45 384.9,-179.77 374.55,-177.5 375.39,-184.45"/>
</a>
</g>
</g>
<!-- Node5 -->
<g id="Node000005" class="node">
<title>Node5</title>
<g id="a_Node000005"><a xlink:href="classBookmarkController.html#ae511373a6a9ed696b1a08e9311cef063" target="_top" xlink:title=" ">
<polygon fill="white" stroke="#666666" points="317.38,-166.5 203.12,-166.5 203.12,-133 317.38,-133 317.38,-166.5"/>
<text text-anchor="start" x="211.12" y="-153" font-family="Helvetica,sans-Serif" font-size="10.00">BookmarkController</text>
<text text-anchor="middle" x="260.25" y="-140.25" font-family="Helvetica,sans-Serif" font-size="10.00">::handleMessage</text>
</a>
</g>
</g>
<!-- Node2&#45;&gt;Node5 -->
<g id="edge4_Node000002_Node000005" class="edge">
<title>Node2&#45;&gt;Node5</title>
<g id="a_edge4_Node000002_Node000005"><a xlink:title=" ">
<path fill="none" stroke="#63b8ff" d="M375.15,-164.17C356.23,-161.78 335.88,-159.2 317.69,-156.9"/>
<polygon fill="#63b8ff" stroke="#63b8ff" points="374.54,-167.62 384.9,-165.41 375.42,-160.68 374.54,-167.62"/>
</a>
</g>
</g>
<!-- Node4 -->
<g id="Node000004" class="node">
<title>Node4</title>
<g id="a_Node000004"><a xlink:href="classQtBookmark.html#a0a22068d0939f521f22675268a72cd6a" target="_top" xlink:title=" ">
<polygon fill="white" stroke="#666666" points="145,-205.12 0,-205.12 0,-184.38 145,-184.38 145,-205.12"/>
<text text-anchor="middle" x="72.5" y="-191.62" font-family="Helvetica,sans-Serif" font-size="10.00">QtBookmark::QtBookmark</text>
</a>
</g>
</g>
<!-- Node3&#45;&gt;Node4 -->
<g id="edge3_Node000003_Node000004" class="edge">
<title>Node3&#45;&gt;Node4</title>
<g id="a_edge3_Node000003_Node000004"><a xlink:title=" ">
<path fill="none" stroke="#63b8ff" d="M169.35,-194.75C161.26,-194.75 153.14,-194.75 145.23,-194.75"/>
<polygon fill="#63b8ff" stroke="#63b8ff" points="169.23,-198.25 179.23,-194.75 169.23,-191.25 169.23,-198.25"/>
</a>
</g>
</g>
</g>
</svg>

<g id="navigator" transform="translate(0 0)" fill="#404254">
  <rect fill="#f2f5e9" fill-opacity="0.5" stroke="#606060" stroke-width=".5" x="0" y="0" width="60" height="60"/>
  <use id="zoomplus" xlink:href="#zoomPlus" x="17" y="9" onmousedown="handleZoom(evt,'in')"/>
  <use id="zoomminus" xlink:href="#zoomMin" x="42" y="9" onmousedown="handleZoom(evt,'out')"/>
  <use id="reset" xlink:href="#resetDef" x="30" y="36" onmousedown="handleReset()"/>
   <use id="arrowup" xlink:href="#arrowUp" x="0" y="0" onmousedown="handlePan(0,-1)"/>
  <use id="arrowright" xlink:href="#arrowRight" x="0" y="0" onmousedown="handlePan(1,0)"/>
  <use id="arrowdown" xlink:href="#arrowDown" x="0" y="0" onmousedown="handlePan(0,1)"/>
  <use id="arrowleft" xlink:href="#arrowLeft" x="0" y="0" onmousedown="handlePan(-1,0)"/>
</g>
<svg viewBox="0 0 15 15" width="100%" height="30px" preserveAspectRatio="xMaxYMin meet">
 <g id="arrow_out" transform="scale(0.3 0.3)">
  <a xlink:href="classMessageActivateNodes_a4aed47a466b9493a66380dbc12f99b35_icgraph_org.svg" target="_base">
   <rect id="button" ry="5" rx="5" y="6" x="6" height="38" width="38"
        fill="#f2f5e9" fill-opacity="0.5" stroke="#606060" stroke-width="1.0"/>
   <path id="arrow"
     d="M 11.500037,31.436501 C 11.940474,20.09759 22.043105,11.32322 32.158766,21.979434 L 37.068811,17.246167 C 37.068811,17.246167 37.088388,32 37.088388,32 L 22.160133,31.978069 C 22.160133,31.978069 26.997745,27.140456 26.997745,27.140456 C 18.528582,18.264221 13.291696,25.230495 11.500037,31.436501 z"
     style="fill:#404040;"/>
  </a>
 </g>
</svg>

<style type='text/css'>
<![CDATA[
[data-mouse-over-selected='false'] { opacity: 0.7; }
[data-mouse-over-selected='true']  { opacity: 1.0; }
]]>
</style>
<script type="application/ecmascript"><![CDATA[
document.addEventListener('DOMContentLoaded', (event) => {
  highlightEdges();
  highlightAdjacentNodes();
});
]]></script>
</svg>
