<?xml version="1.0" encoding="UTF-8" standalone="no"?>
<!DOCTYPE svg PUBLIC "-//W3C//DTD SVG 1.1//EN"
 "http://www.w3.org/Graphics/SVG/1.1/DTD/svg11.dtd">
<!-- Generated by graphviz version 7.1.0 (0)
 -->
<!-- Title: QtBookmarkView::displayBookmarkCreator Pages: 1 -->
<svg width="1369pt" height="534pt"
 viewBox="0.00 0.00 1369.00 533.50" xmlns="http://www.w3.org/2000/svg" xmlns:xlink="http://www.w3.org/1999/xlink">
<g id="graph0" class="graph" transform="scale(1 1) rotate(0) translate(4 529.5)">
<title>QtBookmarkView::displayBookmarkCreator</title>
<!-- Node1 -->
<g id="node1" class="node">
<title>Node1</title>
<g id="a_node1"><a xlink:title=" ">
<polygon fill="#999999" stroke="#666666" points="194,-440 0,-440 0,-410 194,-410 194,-440"/>
<text text-anchor="start" x="8" y="-428" font-family="Helvetica,sans-Serif" font-size="10.00">QtBookmarkView::displayBookmark</text>
<text text-anchor="middle" x="97" y="-417" font-family="Helvetica,sans-Serif" font-size="10.00">Creator</text>
</a>
</g>
</g>
<!-- Node2 -->
<g id="node2" class="node">
<title>Node2</title>
<g id="a_node2"><a xlink:href="classView.html#a816b2d71d2ce85e5a1cac19ace11b53f" target="_top" xlink:title=" ">
<polygon fill="white" stroke="#666666" points="356.5,-525.5 237.5,-525.5 237.5,-506.5 356.5,-506.5 356.5,-525.5"/>
<text text-anchor="middle" x="297" y="-513.5" font-family="Helvetica,sans-Serif" font-size="10.00">View::getViewLayout</text>
</a>
</g>
</g>
<!-- Node1&#45;&gt;Node2 -->
<g id="edge1" class="edge">
<title>Node1&#45;&gt;Node2</title>
<path fill="none" stroke="#63b8ff" d="M122.5,-440.49C148.41,-456.37 190.88,-480.93 230,-497 234.91,-499.02 240.11,-500.91 245.35,-502.66"/>
<polygon fill="#63b8ff" stroke="#63b8ff" points="244.05,-505.91 254.64,-505.58 246.15,-499.24 244.05,-505.91"/>
</g>
<!-- Node3 -->
<g id="node3" class="node">
<title>Node3</title>
<g id="a_node3"><a xlink:href="classQtBookmarkCreator.html#a67801061abd15187984c33a217e29d1a" target="_top" xlink:title=" ">
<polygon fill="white" stroke="#666666" points="364,-488 230,-488 230,-458 364,-458 364,-488"/>
<text text-anchor="start" x="238" y="-476" font-family="Helvetica,sans-Serif" font-size="10.00">QtBookmarkCreator::</text>
<text text-anchor="middle" x="297" y="-465" font-family="Helvetica,sans-Serif" font-size="10.00">setBookmarkCategories</text>
</a>
</g>
</g>
<!-- Node1&#45;&gt;Node3 -->
<g id="edge2" class="edge">
<title>Node1&#45;&gt;Node3</title>
<path fill="none" stroke="#63b8ff" d="M161.74,-440.45C180.73,-445.06 201.71,-450.14 221.33,-454.9"/>
<polygon fill="#63b8ff" stroke="#63b8ff" points="220.37,-458.27 230.91,-457.22 222.02,-451.46 220.37,-458.27"/>
</g>
<!-- Node4 -->
<g id="node4" class="node">
<title>Node4</title>
<g id="a_node4"><a xlink:href="classQtBookmarkCreator.html#a0f033d73f1e3683f57ec86d252a9a427" target="_top" xlink:title=" ">
<polygon fill="white" stroke="#666666" points="357,-440 237,-440 237,-410 357,-410 357,-440"/>
<text text-anchor="start" x="245" y="-428" font-family="Helvetica,sans-Serif" font-size="10.00">QtBookmarkCreator::</text>
<text text-anchor="middle" x="297" y="-417" font-family="Helvetica,sans-Serif" font-size="10.00">setDisplayName</text>
</a>
</g>
</g>
<!-- Node1&#45;&gt;Node4 -->
<g id="edge3" class="edge">
<title>Node1&#45;&gt;Node4</title>
<path fill="none" stroke="#63b8ff" d="M194.39,-425C204.89,-425 215.44,-425 225.55,-425"/>
<polygon fill="#63b8ff" stroke="#63b8ff" points="225.24,-428.5 235.24,-425 225.24,-421.5 225.24,-428.5"/>
</g>
<!-- Node5 -->
<g id="node5" class="node">
<title>Node5</title>
<g id="a_node5"><a xlink:href="classQtBookmarkCreator.html#afd10b815175b6b47f6cbc40a84437858" target="_top" xlink:title=" ">
<polygon fill="white" stroke="#666666" points="357,-392 237,-392 237,-362 357,-362 357,-392"/>
<text text-anchor="start" x="245" y="-380" font-family="Helvetica,sans-Serif" font-size="10.00">QtBookmarkCreator::</text>
<text text-anchor="middle" x="297" y="-369" font-family="Helvetica,sans-Serif" font-size="10.00">setNodeId</text>
</a>
</g>
</g>
<!-- Node1&#45;&gt;Node5 -->
<g id="edge4" class="edge">
<title>Node1&#45;&gt;Node5</title>
<path fill="none" stroke="#63b8ff" d="M161.74,-409.55C182.15,-404.6 204.86,-399.09 225.71,-394.04"/>
<polygon fill="#63b8ff" stroke="#63b8ff" points="226.39,-397.48 235.28,-391.72 224.74,-390.67 226.39,-397.48"/>
</g>
<!-- Node6 -->
<g id="node6" class="node">
<title>Node6</title>
<g id="a_node6"><a xlink:href="classQtBookmarkCreator.html#ac6fd8c9e3df2feb79f801483f3020f13" target="_top" xlink:title=" ">
<polygon fill="white" stroke="#666666" points="362,-344 232,-344 232,-314 362,-314 362,-344"/>
<text text-anchor="start" x="240" y="-332" font-family="Helvetica,sans-Serif" font-size="10.00">QtBookmarkCreator::</text>
<text text-anchor="middle" x="297" y="-321" font-family="Helvetica,sans-Serif" font-size="10.00">setupBookmarkCreator</text>
</a>
</g>
</g>
<!-- Node1&#45;&gt;Node6 -->
<g id="edge5" class="edge">
<title>Node1&#45;&gt;Node6</title>
<path fill="none" stroke="#63b8ff" d="M123.22,-409.76C149.36,-394.31 191.69,-370.29 230,-353 233.33,-351.49 236.79,-350.01 240.3,-348.57"/>
<polygon fill="#63b8ff" stroke="#63b8ff" points="241.49,-351.86 249.49,-344.93 238.91,-345.36 241.49,-351.86"/>
</g>
<!-- Node7 -->
<g id="node7" class="node">
<title>Node7</title>
<g id="a_node7"><a xlink:href="classQtWindow.html#a93109d9942e168167f5ce24d815560c7" target="_top" xlink:title=" ">
<polygon fill="white" stroke="#666666" points="552,-450.5 411,-450.5 411,-431.5 552,-431.5 552,-450.5"/>
<text text-anchor="middle" x="481.5" y="-438.5" font-family="Helvetica,sans-Serif" font-size="10.00">QtWindow::createButtons</text>
</a>
</g>
</g>
<!-- Node6&#45;&gt;Node7 -->
<g id="edge6" class="edge">
<title>Node6&#45;&gt;Node7</title>
<path fill="none" stroke="#63b8ff" d="M349.62,-344.38C354.7,-346.87 359.59,-349.73 364,-353 385.42,-368.88 379.51,-383.94 400,-401 412.52,-411.42 428.22,-420 442.41,-426.5"/>
<polygon fill="#63b8ff" stroke="#63b8ff" points="440.95,-429.68 451.51,-430.45 443.74,-423.26 440.95,-429.68"/>
</g>
<!-- Node14 -->
<g id="node14" class="node">
<title>Node14</title>
<g id="a_node14"><a xlink:href="classQtBookmarkCreator.html#aaaa0035c6a1166e59d6d9c2d64370a79" target="_top" xlink:title=" ">
<polygon fill="white" stroke="#666666" points="541.5,-392 421.5,-392 421.5,-362 541.5,-362 541.5,-392"/>
<text text-anchor="start" x="429.5" y="-380" font-family="Helvetica,sans-Serif" font-size="10.00">QtBookmarkCreator::</text>
<text text-anchor="middle" x="481.5" y="-369" font-family="Helvetica,sans-Serif" font-size="10.00">onNameChanged</text>
</a>
</g>
</g>
<!-- Node6&#45;&gt;Node14 -->
<g id="edge13" class="edge">
<title>Node6&#45;&gt;Node14</title>
<path fill="none" stroke="#63b8ff" d="M356.75,-344.45C374.01,-348.99 393.05,-354 410.92,-358.7"/>
<polygon fill="#63b8ff" stroke="#63b8ff" points="409.84,-362.03 420.4,-361.19 411.62,-355.26 409.84,-362.03"/>
</g>
<!-- Node16 -->
<g id="node16" class="node">
<title>Node16</title>
<g id="a_node16"><a xlink:href="classQtBookmarkCreator.html#a61301fa4cd3b3fbfc3b365f73ee87513" target="_top" xlink:title=" ">
<polygon fill="white" stroke="#666666" points="541.5,-344 421.5,-344 421.5,-314 541.5,-314 541.5,-344"/>
<text text-anchor="start" x="429.5" y="-332" font-family="Helvetica,sans-Serif" font-size="10.00">QtBookmarkCreator::</text>
<text text-anchor="middle" x="481.5" y="-321" font-family="Helvetica,sans-Serif" font-size="10.00">refreshStyle</text>
</a>
</g>
</g>
<!-- Node6&#45;&gt;Node16 -->
<g id="edge15" class="edge">
<title>Node6&#45;&gt;Node16</title>
<path fill="none" stroke="#63b8ff" d="M362.34,-329C377.7,-329 394.18,-329 409.81,-329"/>
<polygon fill="#63b8ff" stroke="#63b8ff" points="409.5,-332.5 419.5,-329 409.5,-325.5 409.5,-332.5"/>
</g>
<!-- Node34 -->
<g id="node34" class="node">
<title>Node34</title>
<g id="a_node34"><a xlink:href="classQtWindow.html#a13c0fd525d487158d661500e3f5a4ae7" target="_top" xlink:title=" ">
<polygon fill="white" stroke="#666666" points="563,-295.5 400,-295.5 400,-276.5 563,-276.5 563,-295.5"/>
<text text-anchor="middle" x="481.5" y="-283.5" font-family="Helvetica,sans-Serif" font-size="10.00">QtWindow::setPreviousVisible</text>
</a>
</g>
</g>
<!-- Node6&#45;&gt;Node34 -->
<g id="edge36" class="edge">
<title>Node6&#45;&gt;Node34</title>
<path fill="none" stroke="#63b8ff" d="M362.34,-313.84C383.56,-308.84 406.9,-303.34 427.2,-298.56"/>
<polygon fill="#63b8ff" stroke="#63b8ff" points="427.72,-302.03 436.65,-296.33 426.12,-295.22 427.72,-302.03"/>
</g>
<!-- Node35 -->
<g id="node35" class="node">
<title>Node35</title>
<g id="a_node35"><a xlink:href="classQtWindow.html#ac84f5569387792ae2805d63f2ad3df50" target="_top" xlink:title=" ">
<polygon fill="white" stroke="#666666" points="562.5,-258.5 400.5,-258.5 400.5,-239.5 562.5,-239.5 562.5,-258.5"/>
<text text-anchor="middle" x="481.5" y="-246.5" font-family="Helvetica,sans-Serif" font-size="10.00">QtWindow::updateNextButton</text>
</a>
</g>
</g>
<!-- Node6&#45;&gt;Node35 -->
<g id="edge37" class="edge">
<title>Node6&#45;&gt;Node35</title>
<path fill="none" stroke="#63b8ff" d="M319.26,-313.62C339.22,-299.85 370.36,-280.02 400,-268 405.35,-265.83 411.01,-263.87 416.74,-262.11"/>
<polygon fill="#63b8ff" stroke="#63b8ff" points="417.68,-265.48 426.35,-259.39 415.77,-258.75 417.68,-265.48"/>
</g>
<!-- Node8 -->
<g id="node8" class="node">
<title>Node8</title>
<g id="a_node8"><a xlink:href="classQtWindow.html#a3fd4d4aa1c2f10535c8f3b0805143d54" target="_top" xlink:title=" ">
<polygon fill="white" stroke="#666666" points="758,-507.5 599,-507.5 599,-488.5 758,-488.5 758,-507.5"/>
<text text-anchor="middle" x="678.5" y="-495.5" font-family="Helvetica,sans-Serif" font-size="10.00">QtWindow::handleClosePress</text>
</a>
</g>
</g>
<!-- Node7&#45;&gt;Node8 -->
<g id="edge7" class="edge">
<title>Node7&#45;&gt;Node8</title>
<path fill="none" stroke="#63b8ff" d="M509.57,-450.9C533.04,-459.28 568,-471.28 599,-480 605.71,-481.89 612.79,-483.72 619.83,-485.46"/>
<polygon fill="#63b8ff" stroke="#63b8ff" points="618.81,-488.81 629.35,-487.73 620.44,-482 618.81,-488.81"/>
</g>
<!-- Node10 -->
<g id="node10" class="node">
<title>Node10</title>
<g id="a_node10"><a xlink:href="classQtWindow.html#abeb8f1b5e8d9eeabde1b66d6993012cf" target="_top" xlink:title=" ">
<polygon fill="white" stroke="#666666" points="756,-470.5 601,-470.5 601,-451.5 756,-451.5 756,-470.5"/>
<text text-anchor="middle" x="678.5" y="-458.5" font-family="Helvetica,sans-Serif" font-size="10.00">QtWindow::handleNextPress</text>
</a>
</g>
</g>
<!-- Node7&#45;&gt;Node10 -->
<g id="edge9" class="edge">
<title>Node7&#45;&gt;Node10</title>
<path fill="none" stroke="#63b8ff" d="M552.35,-448.16C564.31,-449.39 576.88,-450.68 589.25,-451.95"/>
<polygon fill="#63b8ff" stroke="#63b8ff" points="588.72,-455.41 599.03,-452.95 589.44,-448.45 588.72,-455.41"/>
</g>
<!-- Node12 -->
<g id="node12" class="node">
<title>Node12</title>
<g id="a_node12"><a xlink:href="classQtWindow.html#a6758548842eebef1af7e9463a040cd3f" target="_top" xlink:title=" ">
<polygon fill="white" stroke="#666666" points="752.5,-433 604.5,-433 604.5,-403 752.5,-403 752.5,-433"/>
<text text-anchor="start" x="612.5" y="-421" font-family="Helvetica,sans-Serif" font-size="10.00">QtWindow::handlePrevious</text>
<text text-anchor="middle" x="678.5" y="-410" font-family="Helvetica,sans-Serif" font-size="10.00">Press</text>
</a>
</g>
</g>
<!-- Node7&#45;&gt;Node12 -->
<g id="edge11" class="edge">
<title>Node7&#45;&gt;Node12</title>
<path fill="none" stroke="#63b8ff" d="M552.35,-432.76C565.5,-431.21 579.38,-429.57 592.92,-427.98"/>
<polygon fill="#63b8ff" stroke="#63b8ff" points="593.16,-431.47 602.69,-426.82 592.34,-424.52 593.16,-431.47"/>
</g>
<!-- Node9 -->
<g id="node9" class="node">
<title>Node9</title>
<g id="a_node9"><a xlink:href="classQtWindow.html#a2ba2b21448b4008f0a30e174b6794b6e" target="_top" xlink:title=" ">
<polygon fill="white" stroke="#666666" points="957.5,-507.5 824.5,-507.5 824.5,-488.5 957.5,-488.5 957.5,-507.5"/>
<text text-anchor="middle" x="891" y="-495.5" font-family="Helvetica,sans-Serif" font-size="10.00">QtWindow::handleClose</text>
</a>
</g>
</g>
<!-- Node8&#45;&gt;Node9 -->
<g id="edge8" class="edge">
<title>Node8&#45;&gt;Node9</title>
<path fill="none" stroke="#63b8ff" d="M758.48,-498C776.28,-498 795.15,-498 812.87,-498"/>
<polygon fill="#63b8ff" stroke="#63b8ff" points="812.82,-501.5 822.82,-498 812.82,-494.5 812.82,-501.5"/>
</g>
<!-- Node11 -->
<g id="node11" class="node">
<title>Node11</title>
<g id="a_node11"><a xlink:href="classQtWindow.html#a1340456acb8f85fd561f281018675139" target="_top" xlink:title=" ">
<polygon fill="white" stroke="#666666" points="955.5,-470.5 826.5,-470.5 826.5,-451.5 955.5,-451.5 955.5,-470.5"/>
<text text-anchor="middle" x="891" y="-458.5" font-family="Helvetica,sans-Serif" font-size="10.00">QtWindow::handleNext</text>
</a>
</g>
</g>
<!-- Node10&#45;&gt;Node11 -->
<g id="edge10" class="edge">
<title>Node10&#45;&gt;Node11</title>
<path fill="none" stroke="#63b8ff" d="M756.39,-461C775.44,-461 795.84,-461 814.81,-461"/>
<polygon fill="#63b8ff" stroke="#63b8ff" points="814.59,-464.5 824.59,-461 814.59,-457.5 814.59,-464.5"/>
</g>
<!-- Node13 -->
<g id="node13" class="node">
<title>Node13</title>
<g id="a_node13"><a xlink:href="classQtWindow.html#aa0e2b118a9cf753c4dacb35528beb5ff" target="_top" xlink:title=" ">
<polygon fill="white" stroke="#666666" points="965,-427.5 817,-427.5 817,-408.5 965,-408.5 965,-427.5"/>
<text text-anchor="middle" x="891" y="-415.5" font-family="Helvetica,sans-Serif" font-size="10.00">QtWindow::handlePrevious</text>
</a>
</g>
</g>
<!-- Node12&#45;&gt;Node13 -->
<g id="edge12" class="edge">
<title>Node12&#45;&gt;Node13</title>
<path fill="none" stroke="#63b8ff" d="M752.83,-418C769.76,-418 787.92,-418 805.29,-418"/>
<polygon fill="#63b8ff" stroke="#63b8ff" points="805.07,-421.5 815.07,-418 805.07,-414.5 805.07,-421.5"/>
</g>
<!-- Node15 -->
<g id="node15" class="node">
<title>Node15</title>
<g id="a_node15"><a xlink:href="classQtWindow.html#a092ed0e59fe8dd0f89334667f1ff86df" target="_top" xlink:title=" ">
<polygon fill="white" stroke="#666666" points="753.5,-384.5 603.5,-384.5 603.5,-365.5 753.5,-365.5 753.5,-384.5"/>
<text text-anchor="middle" x="678.5" y="-372.5" font-family="Helvetica,sans-Serif" font-size="10.00">QtWindow::setNextEnabled</text>
</a>
</g>
</g>
<!-- Node14&#45;&gt;Node15 -->
<g id="edge14" class="edge">
<title>Node14&#45;&gt;Node15</title>
<path fill="none" stroke="#63b8ff" d="M541.8,-376.39C557.7,-376.23 575.21,-376.05 592.22,-375.87"/>
<polygon fill="#63b8ff" stroke="#63b8ff" points="591.83,-379.38 601.79,-375.78 591.75,-372.38 591.83,-379.38"/>
</g>
<!-- Node17 -->
<g id="node17" class="node">
<title>Node17</title>
<g id="a_node17"><a xlink:href="classResourcePaths.html#aac268005efee61f8dcba454dd4e5a097" target="_top" xlink:title=" ">
<polygon fill="white" stroke="#666666" points="988,-366.5 794,-366.5 794,-347.5 988,-347.5 988,-366.5"/>
<text text-anchor="middle" x="891" y="-354.5" font-family="Helvetica,sans-Serif" font-size="10.00">ResourcePaths::getGuiDirectoryPath</text>
</a>
</g>
</g>
<!-- Node16&#45;&gt;Node17 -->
<g id="edge16" class="edge">
<title>Node16&#45;&gt;Node17</title>
<path fill="none" stroke="#63b8ff" d="M541.75,-333.07C604.66,-337.39 705.43,-344.32 782.42,-349.61"/>
<polygon fill="#63b8ff" stroke="#63b8ff" points="781.88,-353.08 792.09,-350.27 782.36,-346.1 781.88,-353.08"/>
</g>
<!-- Node21 -->
<g id="node21" class="node">
<title>Node21</title>
<g id="a_node21"><a xlink:href="namespaceutility.html#a5bce25fae13f1edc02a4d8bdf06025e5" target="_top" xlink:title=" ">
<polygon fill="white" stroke="#666666" points="738,-237.5 619,-237.5 619,-218.5 738,-218.5 738,-237.5"/>
<text text-anchor="middle" x="678.5" y="-225.5" font-family="Helvetica,sans-Serif" font-size="10.00">utility::getStyleSheet</text>
</a>
</g>
</g>
<!-- Node16&#45;&gt;Node21 -->
<g id="edge20" class="edge">
<title>Node16&#45;&gt;Node21</title>
<path fill="none" stroke="#63b8ff" d="M541.75,-313.58C549.03,-311.04 556.27,-308.17 563,-305 598.1,-288.44 634.64,-262 656.73,-244.81"/>
<polygon fill="#63b8ff" stroke="#63b8ff" points="658.67,-247.74 664.35,-238.8 654.33,-242.25 658.67,-247.74"/>
</g>
<!-- Node18 -->
<g id="node18" class="node">
<title>Node18</title>
<g id="a_node18"><a xlink:href="classFilePath.html#a1f9e209dcb9a8d2b3d39ec6cfdd5c17f" target="_top" xlink:title=" ">
<polygon fill="white" stroke="#666666" points="1186,-403.5 1065,-403.5 1065,-384.5 1186,-384.5 1186,-403.5"/>
<text text-anchor="middle" x="1125.5" y="-391.5" font-family="Helvetica,sans-Serif" font-size="10.00">FilePath::concatenate</text>
</a>
</g>
</g>
<!-- Node17&#45;&gt;Node18 -->
<g id="edge17" class="edge">
<title>Node17&#45;&gt;Node18</title>
<path fill="none" stroke="#63b8ff" d="M954.61,-366.96C985.04,-371.81 1021.74,-377.65 1053.24,-382.66"/>
<polygon fill="#63b8ff" stroke="#63b8ff" points="1052.66,-386.11 1063.09,-384.23 1053.76,-379.2 1052.66,-386.11"/>
</g>
<!-- Node20 -->
<g id="node20" class="node">
<title>Node20</title>
<g id="a_node20"><a xlink:href="classAppPath.html#afb2974614a9eee22c6f8a75fada9ac23" target="_top" xlink:title=" ">
<polygon fill="white" stroke="#666666" points="1227,-366.5 1024,-366.5 1024,-347.5 1227,-347.5 1227,-366.5"/>
<text text-anchor="middle" x="1125.5" y="-354.5" font-family="Helvetica,sans-Serif" font-size="10.00">AppPath::getSharedDataDirectoryPath</text>
</a>
</g>
</g>
<!-- Node17&#45;&gt;Node20 -->
<g id="edge19" class="edge">
<title>Node17&#45;&gt;Node20</title>
<path fill="none" stroke="#63b8ff" d="M988.24,-357C996.23,-357 1004.34,-357 1012.42,-357"/>
<polygon fill="#63b8ff" stroke="#63b8ff" points="1012.3,-360.5 1022.3,-357 1012.3,-353.5 1012.3,-360.5"/>
</g>
<!-- Node19 -->
<g id="node19" class="node">
<title>Node19</title>
<g id="a_node19"><a xlink:href="classFilePath.html#a544387c4aea50aec855062fd02e436ae" target="_top" xlink:title=" ">
<polygon fill="white" stroke="#666666" points="1361,-403.5 1263,-403.5 1263,-384.5 1361,-384.5 1361,-403.5"/>
<text text-anchor="middle" x="1312" y="-391.5" font-family="Helvetica,sans-Serif" font-size="10.00">FilePath::getPath</text>
</a>
</g>
</g>
<!-- Node18&#45;&gt;Node19 -->
<g id="edge18" class="edge">
<title>Node18&#45;&gt;Node19</title>
<path fill="none" stroke="#63b8ff" d="M1186.4,-394C1207.27,-394 1230.66,-394 1251.49,-394"/>
<polygon fill="#63b8ff" stroke="#63b8ff" points="1251.25,-397.5 1261.25,-394 1251.25,-390.5 1251.25,-397.5"/>
</g>
<!-- Node21&#45;&gt;Node17 -->
<g id="edge26" class="edge">
<title>Node21&#45;&gt;Node17</title>
<path fill="none" stroke="#63b8ff" d="M686.48,-237.96C702.6,-260.12 744.82,-313.55 794,-339 796.93,-340.52 799.97,-341.91 803.08,-343.18"/>
<polygon fill="#63b8ff" stroke="#63b8ff" points="801.9,-346.47 812.49,-346.57 804.27,-339.89 801.9,-346.47"/>
</g>
<!-- Node22 -->
<g id="node22" class="node">
<title>Node22</title>
<g id="a_node22"><a xlink:href="classTextAccess.html#a5155a7b9df2dcfd960d50f4961fb4936" target="_top" xlink:title=" ">
<polygon fill="white" stroke="#666666" points="965.5,-142.5 816.5,-142.5 816.5,-123.5 965.5,-123.5 965.5,-142.5"/>
<text text-anchor="middle" x="891" y="-130.5" font-family="Helvetica,sans-Serif" font-size="10.00">TextAccess::createFromFile</text>
</a>
</g>
</g>
<!-- Node21&#45;&gt;Node22 -->
<g id="edge21" class="edge">
<title>Node21&#45;&gt;Node22</title>
<path fill="none" stroke="#63b8ff" d="M692.5,-218.04C713.01,-202.79 754.58,-173.67 794,-157 804.32,-152.63 815.62,-148.94 826.73,-145.85"/>
<polygon fill="#63b8ff" stroke="#63b8ff" points="827.48,-149.27 836.26,-143.34 825.7,-142.5 827.48,-149.27"/>
</g>
<!-- Node24 -->
<g id="node24" class="node">
<title>Node24</title>
<g id="a_node24"><a xlink:href="classFilePath.html#ae43df68f4d64aa712319fcebebf5236b" target="_top" xlink:title=" ">
<polygon fill="white" stroke="#666666" points="1349,-123.5 1275,-123.5 1275,-104.5 1349,-104.5 1349,-123.5"/>
<text text-anchor="middle" x="1312" y="-111.5" font-family="Helvetica,sans-Serif" font-size="10.00">FilePath::str</text>
</a>
</g>
</g>
<!-- Node21&#45;&gt;Node24 -->
<g id="edge34" class="edge">
<title>Node21&#45;&gt;Node24</title>
<path fill="none" stroke="#63b8ff" d="M704.06,-218.01C726.95,-209.15 762.22,-196.61 794,-190 983.17,-150.64 1039.9,-199.25 1227,-151 1246.43,-145.99 1267.07,-136.95 1283.03,-129.07"/>
<polygon fill="#63b8ff" stroke="#63b8ff" points="1284.59,-132.2 1291.91,-124.54 1281.41,-125.96 1284.59,-132.2"/>
</g>
<!-- Node25 -->
<g id="node25" class="node">
<title>Node25</title>
<g id="a_node25"><a xlink:href="classFilePath.html#a989e098726c8387d4f4690bca3314ce8" target="_top" xlink:title=" ">
<polygon fill="white" stroke="#666666" points="1353,-86.5 1271,-86.5 1271,-67.5 1353,-67.5 1353,-86.5"/>
<text text-anchor="middle" x="1312" y="-74.5" font-family="Helvetica,sans-Serif" font-size="10.00">FilePath::wstr</text>
</a>
</g>
</g>
<!-- Node21&#45;&gt;Node25 -->
<g id="edge35" class="edge">
<title>Node21&#45;&gt;Node25</title>
<path fill="none" stroke="#63b8ff" d="M686.13,-218.02C701.83,-195.28 743.77,-139.6 794,-114 948.08,-35.47 1162.2,-54 1259.37,-68.11"/>
<polygon fill="#63b8ff" stroke="#63b8ff" points="1258.72,-71.55 1269.13,-69.58 1259.76,-64.63 1258.72,-71.55"/>
</g>
<!-- Node27 -->
<g id="node27" class="node">
<title>Node27</title>
<g id="a_node27"><a xlink:href="classApplicationSettings.html#a59fd66f9eab421c8e7ea4da03c4b0d1e" target="_top" xlink:title=" ">
<polygon fill="white" stroke="#666666" points="946.5,-30 835.5,-30 835.5,0 946.5,0 946.5,-30"/>
<text text-anchor="start" x="843.5" y="-18" font-family="Helvetica,sans-Serif" font-size="10.00">ApplicationSettings</text>
<text text-anchor="middle" x="891" y="-7" font-family="Helvetica,sans-Serif" font-size="10.00">::getInstance</text>
</a>
</g>
</g>
<!-- Node21&#45;&gt;Node27 -->
<g id="edge27" class="edge">
<title>Node21&#45;&gt;Node27</title>
<path fill="none" stroke="#63b8ff" d="M682.72,-218.3C693.36,-187.75 730.38,-92.74 794,-44 803.02,-37.09 813.68,-31.82 824.55,-27.8"/>
<polygon fill="#63b8ff" stroke="#63b8ff" points="825.62,-31.13 834.01,-24.66 823.42,-24.49 825.62,-31.13"/>
</g>
<!-- Node29 -->
<g id="node29" class="node">
<title>Node29</title>
<g id="a_node29"><a xlink:href="classColorScheme.html#ab65eb4d23939345b1569002b38ed3caf" target="_top" xlink:title=" ">
<polygon fill="white" stroke="#666666" points="963,-329.5 819,-329.5 819,-310.5 963,-310.5 963,-329.5"/>
<text text-anchor="middle" x="891" y="-317.5" font-family="Helvetica,sans-Serif" font-size="10.00">ColorScheme::getInstance</text>
</a>
</g>
</g>
<!-- Node21&#45;&gt;Node29 -->
<g id="edge29" class="edge">
<title>Node21&#45;&gt;Node29</title>
<path fill="none" stroke="#63b8ff" d="M691.33,-237.91C711.19,-254.02 753.11,-285.69 794,-302 798.64,-303.85 803.49,-305.52 808.43,-307.01"/>
<polygon fill="#63b8ff" stroke="#63b8ff" points="807.34,-310.34 817.91,-309.62 809.19,-303.59 807.34,-310.34"/>
</g>
<!-- Node31 -->
<g id="node31" class="node">
<title>Node31</title>
<g id="a_node31"><a xlink:href="namespaceutility.html#a2701176803785cdbdc4e285f76d61011" target="_top" xlink:title=" ">
<polygon fill="white" stroke="#666666" points="941.5,-292.5 840.5,-292.5 840.5,-273.5 941.5,-273.5 941.5,-292.5"/>
<text text-anchor="middle" x="891" y="-280.5" font-family="Helvetica,sans-Serif" font-size="10.00">utility::getOsType</text>
</a>
</g>
</g>
<!-- Node21&#45;&gt;Node31 -->
<g id="edge31" class="edge">
<title>Node21&#45;&gt;Node31</title>
<path fill="none" stroke="#63b8ff" d="M706.98,-237.97C729.99,-246.05 763.83,-257.33 794,-265 805.33,-267.88 817.53,-270.52 829.29,-272.83"/>
<polygon fill="#63b8ff" stroke="#63b8ff" points="828.44,-276.23 838.92,-274.66 829.75,-269.35 828.44,-276.23"/>
</g>
<!-- Node32 -->
<g id="node32" class="node">
<title>Node32</title>
<g id="a_node32"><a xlink:href="namespaceutility.html#a39f70efc303a252b5b58463642c58b3e" target="_top" xlink:title=" ">
<polygon fill="white" stroke="#666666" points="926.5,-255.5 855.5,-255.5 855.5,-236.5 926.5,-236.5 926.5,-255.5"/>
<text text-anchor="middle" x="891" y="-243.5" font-family="Helvetica,sans-Serif" font-size="10.00">utility::split</text>
</a>
</g>
</g>
<!-- Node21&#45;&gt;Node32 -->
<g id="edge32" class="edge">
<title>Node21&#45;&gt;Node32</title>
<path fill="none" stroke="#63b8ff" d="M738.42,-233.04C771.74,-235.89 812.81,-239.4 843.79,-242.05"/>
<polygon fill="#63b8ff" stroke="#63b8ff" points="843.36,-245.52 853.62,-242.89 843.96,-238.55 843.36,-245.52"/>
</g>
<!-- Node33 -->
<g id="node33" class="node">
<title>Node33</title>
<g id="a_node33"><a xlink:href="namespaceutility.html#a6c22b07f209d84b6de23cacd2d63984a" target="_top" xlink:title=" ">
<polygon fill="white" stroke="#666666" points="947.5,-218.5 834.5,-218.5 834.5,-199.5 947.5,-199.5 947.5,-218.5"/>
<text text-anchor="middle" x="891" y="-206.5" font-family="Helvetica,sans-Serif" font-size="10.00">utility::splitToVector</text>
</a>
</g>
</g>
<!-- Node21&#45;&gt;Node33 -->
<g id="edge33" class="edge">
<title>Node21&#45;&gt;Node33</title>
<path fill="none" stroke="#63b8ff" d="M738.42,-222.68C764.7,-220.31 795.81,-217.5 822.98,-215.05"/>
<polygon fill="#63b8ff" stroke="#63b8ff" points="823.2,-218.54 832.85,-214.16 822.57,-211.57 823.2,-218.54"/>
</g>
<!-- Node23 -->
<g id="node23" class="node">
<title>Node23</title>
<g id="a_node23"><a xlink:href="classTextAccess.html#a3024169774f0b035fb68057243388c9e" target="_top" xlink:title=" ">
<polygon fill="white" stroke="#666666" points="1183,-105.5 1068,-105.5 1068,-86.5 1183,-86.5 1183,-105.5"/>
<text text-anchor="middle" x="1125.5" y="-93.5" font-family="Helvetica,sans-Serif" font-size="10.00">TextAccess::readFile</text>
</a>
</g>
</g>
<!-- Node22&#45;&gt;Node23 -->
<g id="edge22" class="edge">
<title>Node22&#45;&gt;Node23</title>
<path fill="none" stroke="#63b8ff" d="M954.61,-123.04C986.13,-118.02 1024.39,-111.93 1056.62,-106.8"/>
<polygon fill="#63b8ff" stroke="#63b8ff" points="1056.93,-110.3 1066.25,-105.27 1055.83,-103.38 1056.93,-110.3"/>
</g>
<!-- Node26 -->
<g id="node26" class="node">
<title>Node26</title>
<g id="a_node26"><a xlink:href="classTextAccess.html#a17086d2cc3eee9bbef8352489382f721" target="_top" xlink:title=" ">
<polygon fill="white" stroke="#666666" points="1191,-142.5 1060,-142.5 1060,-123.5 1191,-123.5 1191,-142.5"/>
<text text-anchor="middle" x="1125.5" y="-130.5" font-family="Helvetica,sans-Serif" font-size="10.00">TextAccess::TextAccess</text>
</a>
</g>
</g>
<!-- Node22&#45;&gt;Node26 -->
<g id="edge25" class="edge">
<title>Node22&#45;&gt;Node26</title>
<path fill="none" stroke="#63b8ff" d="M965.88,-133C992.29,-133 1022.09,-133 1048.66,-133"/>
<polygon fill="#63b8ff" stroke="#63b8ff" points="1048.32,-136.5 1058.32,-133 1048.32,-129.5 1048.32,-136.5"/>
</g>
<!-- Node23&#45;&gt;Node24 -->
<g id="edge23" class="edge">
<title>Node23&#45;&gt;Node24</title>
<path fill="none" stroke="#63b8ff" d="M1183.36,-101.55C1209.05,-104.05 1239.04,-106.98 1263.5,-109.37"/>
<polygon fill="#63b8ff" stroke="#63b8ff" points="1262.87,-112.82 1273.16,-110.31 1263.55,-105.85 1262.87,-112.82"/>
</g>
<!-- Node23&#45;&gt;Node25 -->
<g id="edge24" class="edge">
<title>Node23&#45;&gt;Node25</title>
<path fill="none" stroke="#63b8ff" d="M1183.36,-90.14C1207.66,-87.64 1235.81,-84.74 1259.49,-82.31"/>
<polygon fill="#63b8ff" stroke="#63b8ff" points="1259.62,-85.81 1269.21,-81.3 1258.9,-78.85 1259.62,-85.81"/>
</g>
<!-- Node28 -->
<g id="node28" class="node">
<title>Node28</title>
<g id="a_node28"><a xlink:href="classApplicationSettings.html#a577f5c7696669ffd72b37c28eb3eb04c" target="_top" xlink:title=" ">
<polygon fill="white" stroke="#666666" points="1184,-30 1067,-30 1067,0 1184,0 1184,-30"/>
<text text-anchor="start" x="1075" y="-18" font-family="Helvetica,sans-Serif" font-size="10.00">ApplicationSettings</text>
<text text-anchor="middle" x="1125.5" y="-7" font-family="Helvetica,sans-Serif" font-size="10.00">::ApplicationSettings</text>
</a>
</g>
</g>
<!-- Node27&#45;&gt;Node28 -->
<g id="edge28" class="edge">
<title>Node27&#45;&gt;Node28</title>
<path fill="none" stroke="#63b8ff" d="M946.8,-15C979.25,-15 1020.66,-15 1055.34,-15"/>
<polygon fill="#63b8ff" stroke="#63b8ff" points="1055.31,-18.5 1065.31,-15 1055.31,-11.5 1055.31,-18.5"/>
</g>
<!-- Node30 -->
<g id="node30" class="node">
<title>Node30</title>
<g id="a_node30"><a xlink:href="classColorScheme.html#ac359cbede591576e3cd630bba4ef2dd0" target="_top" xlink:title=" ">
<polygon fill="white" stroke="#666666" points="1201.5,-329.5 1049.5,-329.5 1049.5,-310.5 1201.5,-310.5 1201.5,-329.5"/>
<text text-anchor="middle" x="1125.5" y="-317.5" font-family="Helvetica,sans-Serif" font-size="10.00">ColorScheme::ColorScheme</text>
</a>
</g>
</g>
<!-- Node29&#45;&gt;Node30 -->
<g id="edge30" class="edge">
<title>Node29&#45;&gt;Node30</title>
<path fill="none" stroke="#63b8ff" d="M963.34,-320C986.85,-320 1013.25,-320 1037.77,-320"/>
<polygon fill="#63b8ff" stroke="#63b8ff" points="1037.75,-323.5 1047.75,-320 1037.75,-316.5 1037.75,-323.5"/>
</g>
</g>
</svg>
