<?xml version="1.0" encoding="UTF-8" standalone="no"?>
<!DOCTYPE svg PUBLIC "-//W3C//DTD SVG 1.1//EN"
 "http://www.w3.org/Graphics/SVG/1.1/DTD/svg11.dtd">
<!-- Generated by graphviz version 9.0.0 (0)
 -->
<!-- Title: CombinedIndexerCommandProvider::size Pages: 1 -->
<svg width="430pt" height="94pt"
 viewBox="0.00 0.00 430.00 93.50" xmlns="http://www.w3.org/2000/svg" xmlns:xlink="http://www.w3.org/1999/xlink">
<g id="graph0" class="graph" transform="scale(1 1) rotate(0) translate(4 89.5)">
<title>CombinedIndexerCommandProvider::size</title>
<!-- Node1 -->
<g id="Node000001" class="node">
<title>Node1</title>
<g id="a_Node000001"><a xlink:title=" ">
<polygon fill="#999999" stroke="#666666" points="422,-59.5 229,-59.5 229,-26 422,-26 422,-59.5"/>
<text text-anchor="start" x="237" y="-46" font-family="Helvetica,sans-Serif" font-size="10.00">CombinedIndexerCommandProvider</text>
<text text-anchor="middle" x="325.5" y="-33.25" font-family="Helvetica,sans-Serif" font-size="10.00">::size</text>
</a>
</g>
</g>
<!-- Node1&#45;&gt;Node1 -->
<g id="edge3_Node000001_Node000001" class="edge">
<title>Node1&#45;&gt;Node1</title>
<g id="a_edge3_Node000001_Node000001"><a xlink:title=" ">
<path fill="none" stroke="#63b8ff" d="M363.95,-70.89C357.69,-74.85 344.87,-77.5 325.5,-77.5 291.06,-77.5 277.34,-69.12 284.33,-59.91"/>
<polygon fill="#63b8ff" stroke="#63b8ff" points="367.3,-71.93 366.3,-61.38 360.5,-70.25 367.3,-71.93"/>
</a>
</g>
</g>
<!-- Node2 -->
<g id="Node000002" class="node">
<title>Node2</title>
<g id="a_Node000002"><a xlink:href="classCombinedIndexerCommandProvider.html#add81618221711713716dc808c862953b" target="_top" xlink:title=" ">
<polygon fill="white" stroke="#666666" points="193,-85.5 0,-85.5 0,-52 193,-52 193,-85.5"/>
<text text-anchor="start" x="8" y="-72" font-family="Helvetica,sans-Serif" font-size="10.00">CombinedIndexerCommandProvider</text>
<text text-anchor="middle" x="96.5" y="-59.25" font-family="Helvetica,sans-Serif" font-size="10.00">::consumeAllCommands</text>
</a>
</g>
</g>
<!-- Node1&#45;&gt;Node2 -->
<g id="edge1_Node000001_Node000002" class="edge">
<title>Node1&#45;&gt;Node2</title>
<g id="a_edge1_Node000001_Node000002"><a xlink:title=" ">
<path fill="none" stroke="#63b8ff" d="M217.34,-55.02C209.37,-55.94 201.36,-56.85 193.46,-57.76"/>
<polygon fill="#63b8ff" stroke="#63b8ff" points="217.52,-58.53 227.06,-53.91 216.72,-51.57 217.52,-58.53"/>
</a>
</g>
</g>
<!-- Node3 -->
<g id="Node000003" class="node">
<title>Node3</title>
<g id="a_Node000003"><a xlink:href="classCombinedIndexerCommandProvider.html#a3fc96bfddba74e092c76dfc47d25ff95" target="_top" xlink:title=" ">
<polygon fill="white" stroke="#666666" points="193,-33.5 0,-33.5 0,0 193,0 193,-33.5"/>
<text text-anchor="start" x="8" y="-20" font-family="Helvetica,sans-Serif" font-size="10.00">CombinedIndexerCommandProvider</text>
<text text-anchor="middle" x="96.5" y="-7.25" font-family="Helvetica,sans-Serif" font-size="10.00">::getAllSourceFilePaths</text>
</a>
</g>
</g>
<!-- Node1&#45;&gt;Node3 -->
<g id="edge2_Node000001_Node000003" class="edge">
<title>Node1&#45;&gt;Node3</title>
<g id="a_edge2_Node000001_Node000003"><a xlink:title=" ">
<path fill="none" stroke="#63b8ff" d="M217.34,-30.48C209.37,-29.56 201.36,-28.65 193.46,-27.74"/>
<polygon fill="#63b8ff" stroke="#63b8ff" points="216.72,-33.93 227.06,-31.59 217.52,-26.97 216.72,-33.93"/>
</a>
</g>
</g>
</g>
</svg>
