<?xml version="1.0" encoding="UTF-8" standalone="no"?>
<!DOCTYPE svg PUBLIC "-//W3C//DTD SVG 1.1//EN"
 "http://www.w3.org/Graphics/SVG/1.1/DTD/svg11.dtd">
<!-- Generated by graphviz version 7.1.0 (0)
 -->
<!-- Title: PersistentStorage::addEdges Pages: 1 -->
<svg width="641pt" height="69pt"
 viewBox="0.00 0.00 641.00 68.50" xmlns="http://www.w3.org/2000/svg" xmlns:xlink="http://www.w3.org/1999/xlink">
<g id="graph0" class="graph" transform="scale(1 1) rotate(0) translate(4 64.5)">
<title>PersistentStorage::addEdges</title>
<!-- Node1 -->
<g id="node1" class="node">
<title>Node1</title>
<g id="a_node1"><a xlink:title=" ">
<polygon fill="#999999" stroke="#666666" points="109,-30 0,-30 0,0 109,0 109,-30"/>
<text text-anchor="start" x="8" y="-18" font-family="Helvetica,sans-Serif" font-size="10.00">PersistentStorage::</text>
<text text-anchor="middle" x="54.5" y="-7" font-family="Helvetica,sans-Serif" font-size="10.00">addEdges</text>
</a>
</g>
</g>
<!-- Node2 -->
<g id="node2" class="node">
<title>Node2</title>
<g id="a_node2"><a xlink:href="classSqliteIndexStorage.html#acb4c667ef557a411548effdc7770d828" target="_top" xlink:title=" ">
<polygon fill="white" stroke="#666666" points="254,-30 145,-30 145,0 254,0 254,-30"/>
<text text-anchor="start" x="153" y="-18" font-family="Helvetica,sans-Serif" font-size="10.00">SqliteIndexStorage</text>
<text text-anchor="middle" x="199.5" y="-7" font-family="Helvetica,sans-Serif" font-size="10.00">::addEdges</text>
</a>
</g>
</g>
<!-- Node1&#45;&gt;Node2 -->
<g id="edge1" class="edge">
<title>Node1&#45;&gt;Node2</title>
<path fill="none" stroke="#63b8ff" d="M109.15,-15C117.02,-15 125.19,-15 133.26,-15"/>
<polygon fill="#63b8ff" stroke="#63b8ff" points="133.03,-18.5 143.03,-15 133.03,-11.5 133.03,-18.5"/>
</g>
<!-- Node3 -->
<g id="node3" class="node">
<title>Node3</title>
<g id="a_node3"><a xlink:href="classSqliteIndexStorage_1_1InsertBatchStatement.html#acaa5199762bf4a7671c03fb87a03abfb" target="_top" xlink:title=" ">
<polygon fill="white" stroke="#666666" points="419,-60.5 290,-60.5 290,-19.5 419,-19.5 419,-60.5"/>
<text text-anchor="start" x="298" y="-48.5" font-family="Helvetica,sans-Serif" font-size="10.00">SqliteIndexStorage</text>
<text text-anchor="start" x="298" y="-37.5" font-family="Helvetica,sans-Serif" font-size="10.00">::InsertBatchStatement</text>
<text text-anchor="middle" x="354.5" y="-26.5" font-family="Helvetica,sans-Serif" font-size="10.00">::execute</text>
</a>
</g>
</g>
<!-- Node2&#45;&gt;Node3 -->
<g id="edge2" class="edge">
<title>Node2&#45;&gt;Node3</title>
<path fill="none" stroke="#63b8ff" d="M254.44,-23.81C262.16,-25.08 270.22,-26.39 278.25,-27.7"/>
<polygon fill="#63b8ff" stroke="#63b8ff" points="277.64,-31.15 288.07,-29.31 278.77,-24.24 277.64,-31.15"/>
</g>
<!-- Node4 -->
<g id="node4" class="node">
<title>Node4</title>
<g id="a_node4"><a xlink:href="classSqliteStorage.html#a6cc9f021cdd876e5dbc6a9c69e65c6b9" target="_top" xlink:title=" ">
<polygon fill="white" stroke="#666666" points="633,-24.5 455,-24.5 455,-5.5 633,-5.5 633,-24.5"/>
<text text-anchor="middle" x="544" y="-12.5" font-family="Helvetica,sans-Serif" font-size="10.00">SqliteStorage::executeStatement</text>
</a>
</g>
</g>
<!-- Node2&#45;&gt;Node4 -->
<g id="edge4" class="edge">
<title>Node2&#45;&gt;Node4</title>
<path fill="none" stroke="#63b8ff" d="M254.44,-12.2C266.16,-11.7 278.49,-11.26 290,-11 347.32,-9.72 361.67,-10.08 419,-11 426.92,-11.13 435.13,-11.3 443.37,-11.5"/>
<polygon fill="#63b8ff" stroke="#63b8ff" points="443.01,-15 453.1,-11.76 443.19,-8 443.01,-15"/>
</g>
<!-- Node3&#45;&gt;Node4 -->
<g id="edge3" class="edge">
<title>Node3&#45;&gt;Node4</title>
<path fill="none" stroke="#63b8ff" d="M419.24,-31.5C431.39,-29.88 444.3,-28.16 457.01,-26.47"/>
<polygon fill="#63b8ff" stroke="#63b8ff" points="457.16,-29.98 466.61,-25.19 456.23,-23.04 457.16,-29.98"/>
</g>
</g>
</svg>
