<?xml version="1.0" encoding="UTF-8" standalone="no"?>
<!DOCTYPE svg PUBLIC "-//W3C//DTD SVG 1.1//EN"
 "http://www.w3.org/Graphics/SVG/1.1/DTD/svg11.dtd">
<!-- Generated by graphviz version 7.1.0 (0)
 -->
<!-- Title: FileSystem::createDirectory Pages: 1 -->
<svg width="584pt" height="64pt"
 viewBox="0.00 0.00 584.00 64.00" xmlns="http://www.w3.org/2000/svg" xmlns:xlink="http://www.w3.org/1999/xlink">
<g id="graph0" class="graph" transform="scale(1 1) rotate(0) translate(4 60)">
<title>FileSystem::createDirectory</title>
<!-- Node1 -->
<g id="node1" class="node">
<title>Node1</title>
<g id="a_node1"><a xlink:title=" ">
<polygon fill="#999999" stroke="#666666" points="152,-37 0,-37 0,-18 152,-18 152,-37"/>
<text text-anchor="middle" x="76" y="-25" font-family="Helvetica,sans-Serif" font-size="10.00">FileSystem::createDirectory</text>
</a>
</g>
</g>
<!-- Node2 -->
<g id="node2" class="node">
<title>Node2</title>
<g id="a_node2"><a xlink:href="classFilePath.html#a59d0f48e8394367cbe2cd97d4e8fd0ec" target="_top" xlink:title=" ">
<polygon fill="white" stroke="#666666" points="316,-56 188,-56 188,-37 316,-37 316,-56"/>
<text text-anchor="middle" x="252" y="-44" font-family="Helvetica,sans-Serif" font-size="10.00">FilePath::recheckExists</text>
</a>
</g>
</g>
<!-- Node1&#45;&gt;Node2 -->
<g id="edge1" class="edge">
<title>Node1&#45;&gt;Node2</title>
<path fill="none" stroke="#63b8ff" d="M152.31,-35.72C160.21,-36.59 168.24,-37.46 176.13,-38.32"/>
<polygon fill="#63b8ff" stroke="#63b8ff" points="175.74,-41.8 186.06,-39.41 176.5,-34.84 175.74,-41.8"/>
</g>
<!-- Node5 -->
<g id="node5" class="node">
<title>Node5</title>
<g id="a_node5"><a xlink:href="classFilePath.html#ae43df68f4d64aa712319fcebebf5236b" target="_top" xlink:title=" ">
<polygon fill="white" stroke="#666666" points="289,-19 215,-19 215,0 289,0 289,-19"/>
<text text-anchor="middle" x="252" y="-7" font-family="Helvetica,sans-Serif" font-size="10.00">FilePath::str</text>
</a>
</g>
</g>
<!-- Node1&#45;&gt;Node5 -->
<g id="edge4" class="edge">
<title>Node1&#45;&gt;Node5</title>
<path fill="none" stroke="#63b8ff" d="M152.31,-19.71C169.75,-17.91 187.83,-16.03 203.68,-14.4"/>
<polygon fill="#63b8ff" stroke="#63b8ff" points="203.69,-17.91 213.27,-13.4 202.97,-10.95 203.69,-17.91"/>
</g>
<!-- Node3 -->
<g id="node3" class="node">
<title>Node3</title>
<g id="a_node3"><a xlink:href="classFilePath.html#a59fa57dcd7d19d74aaee62f072f14b3d" target="_top" xlink:title=" ">
<polygon fill="white" stroke="#666666" points="442,-56 352,-56 352,-37 442,-37 442,-56"/>
<text text-anchor="middle" x="397" y="-44" font-family="Helvetica,sans-Serif" font-size="10.00">FilePath::exists</text>
</a>
</g>
</g>
<!-- Node2&#45;&gt;Node3 -->
<g id="edge2" class="edge">
<title>Node2&#45;&gt;Node3</title>
<path fill="none" stroke="#63b8ff" d="M316.14,-46.5C324.18,-46.5 332.37,-46.5 340.28,-46.5"/>
<polygon fill="#63b8ff" stroke="#63b8ff" points="340.12,-50 350.12,-46.5 340.12,-43 340.12,-50"/>
</g>
<!-- Node4 -->
<g id="node4" class="node">
<title>Node4</title>
<g id="a_node4"><a xlink:href="classFilePath.html#a544387c4aea50aec855062fd02e436ae" target="_top" xlink:title=" ">
<polygon fill="white" stroke="#666666" points="576,-56 478,-56 478,-37 576,-37 576,-56"/>
<text text-anchor="middle" x="527" y="-44" font-family="Helvetica,sans-Serif" font-size="10.00">FilePath::getPath</text>
</a>
</g>
</g>
<!-- Node3&#45;&gt;Node4 -->
<g id="edge3" class="edge">
<title>Node3&#45;&gt;Node4</title>
<path fill="none" stroke="#63b8ff" d="M442.41,-46.5C450.16,-46.5 458.34,-46.5 466.43,-46.5"/>
<polygon fill="#63b8ff" stroke="#63b8ff" points="466.22,-50 476.22,-46.5 466.22,-43 466.22,-50"/>
</g>
</g>
</svg>
