<?xml version="1.0" encoding="UTF-8" standalone="no"?>
<!DOCTYPE svg PUBLIC "-//W3C//DTD SVG 1.1//EN"
 "http://www.w3.org/Graphics/SVG/1.1/DTD/svg11.dtd">
<!-- Generated by graphviz version 7.1.0 (0)
 -->
<!-- Title: Graph::getEdgeCount Pages: 1 -->
<svg width="375pt" height="101pt"
 viewBox="0.00 0.00 375.00 101.00" xmlns="http://www.w3.org/2000/svg" xmlns:xlink="http://www.w3.org/1999/xlink">
<g id="graph0" class="graph" transform="scale(1 1) rotate(0) translate(4 97)">
<title>Graph::getEdgeCount</title>
<!-- Node1 -->
<g id="node1" class="node">
<title>Node1</title>
<g id="a_node1"><a xlink:title=" ">
<polygon fill="#999999" stroke="#666666" points="367,-56 247,-56 247,-37 367,-37 367,-56"/>
<text text-anchor="middle" x="307" y="-44" font-family="Helvetica,sans-Serif" font-size="10.00">Graph::getEdgeCount</text>
</a>
</g>
</g>
<!-- Node2 -->
<g id="node2" class="node">
<title>Node2</title>
<g id="a_node2"><a xlink:href="classGraph.html#a607a2af7cb6653b564ca6af6029bb377" target="_top" xlink:title=" ">
<polygon fill="white" stroke="#666666" points="197.5,-93 123.5,-93 123.5,-74 197.5,-74 197.5,-93"/>
<text text-anchor="middle" x="160.5" y="-81" font-family="Helvetica,sans-Serif" font-size="10.00">Graph::print</text>
</a>
</g>
</g>
<!-- Node1&#45;&gt;Node2 -->
<g id="edge1" class="edge">
<title>Node1&#45;&gt;Node2</title>
<path fill="none" stroke="#63b8ff" d="M256.29,-59.23C237.1,-64.14 215.54,-69.66 197.84,-74.19"/>
<polygon fill="#63b8ff" stroke="#63b8ff" points="256.99,-62.66 265.81,-56.79 255.25,-55.88 256.99,-62.66"/>
</g>
<!-- Node4 -->
<g id="node4" class="node">
<title>Node4</title>
<g id="a_node4"><a xlink:href="classGraph.html#ae666451195d6fc0f8d8114678e4be712" target="_top" xlink:title=" ">
<polygon fill="white" stroke="#666666" points="211,-56 110,-56 110,-37 211,-37 211,-56"/>
<text text-anchor="middle" x="160.5" y="-44" font-family="Helvetica,sans-Serif" font-size="10.00">Graph::printBasic</text>
</a>
</g>
</g>
<!-- Node1&#45;&gt;Node4 -->
<g id="edge3" class="edge">
<title>Node1&#45;&gt;Node4</title>
<path fill="none" stroke="#63b8ff" d="M235.32,-46.5C227.15,-46.5 218.95,-46.5 211.15,-46.5"/>
<polygon fill="#63b8ff" stroke="#63b8ff" points="235.3,-50 245.3,-46.5 235.3,-43 235.3,-50"/>
</g>
<!-- Node5 -->
<g id="node5" class="node">
<title>Node5</title>
<g id="a_node5"><a xlink:href="classGraph.html#a7d016a176241e35cfe0d15d3d9f05eae" target="_top" xlink:title=" ">
<polygon fill="white" stroke="#666666" points="196,-19 125,-19 125,0 196,0 196,-19"/>
<text text-anchor="middle" x="160.5" y="-7" font-family="Helvetica,sans-Serif" font-size="10.00">Graph::size</text>
</a>
</g>
</g>
<!-- Node1&#45;&gt;Node5 -->
<g id="edge4" class="edge">
<title>Node1&#45;&gt;Node5</title>
<path fill="none" stroke="#63b8ff" d="M256.31,-33.78C236.57,-28.72 214.35,-23.03 196.38,-18.43"/>
<polygon fill="#63b8ff" stroke="#63b8ff" points="255.25,-37.12 265.81,-36.21 256.99,-30.34 255.25,-37.12"/>
</g>
<!-- Node3 -->
<g id="node3" class="node">
<title>Node3</title>
<g id="a_node3"><a xlink:href="Graph_8cpp.html#a193d40311c59e1622fa3368747d1069d" target="_top" xlink:title=" ">
<polygon fill="white" stroke="#666666" points="74,-93 0,-93 0,-74 74,-74 74,-93"/>
<text text-anchor="middle" x="37" y="-81" font-family="Helvetica,sans-Serif" font-size="10.00">operator&lt;&lt;</text>
</a>
</g>
</g>
<!-- Node2&#45;&gt;Node3 -->
<g id="edge2" class="edge">
<title>Node2&#45;&gt;Node3</title>
<path fill="none" stroke="#63b8ff" d="M111.89,-83.5C99.43,-83.5 86.2,-83.5 74.43,-83.5"/>
<polygon fill="#63b8ff" stroke="#63b8ff" points="111.53,-87 121.53,-83.5 111.53,-80 111.53,-87"/>
</g>
</g>
</svg>
