<?xml version="1.0" encoding="UTF-8" standalone="no"?>
<!DOCTYPE svg PUBLIC "-//W3C//DTD SVG 1.1//EN"
 "http://www.w3.org/Graphics/SVG/1.1/DTD/svg11.dtd">
<!-- Generated by graphviz version 9.0.0 (0)
 -->
<!-- Title: Node::getLastParentNode Pages: 1 -->
<!--zoomable 87 -->

<svg id="main" version="1.1" xmlns="http://www.w3.org/2000/svg" xmlns:xlink="http://www.w3.org/1999/xlink" xml:space="preserve" onload="init(evt)">
<style type="text/css"><![CDATA[
.node, .edge {opacity: 0.7;}
.node.selected, .edge.selected {opacity: 1;}
.edge:hover path { stroke: red; }
.edge:hover polygon { stroke: red; fill: red; }
]]></style>

<defs>
  <circle id="rim" cx="0" cy="0" r="7"/>
  <circle id="rim2" cx="0" cy="0" r="3.5"/>
  <g id="zoomPlus">
    <use xlink:href="#rim" fill="#404040"><set attributeName="fill" to="#808080" begin="zoomplus.mouseover" end="zoomplus.mouseout"/></use>
    <path d="M-4,0h8M0,-4v8" fill="none" stroke="white" stroke-width="1.5" pointer-events="none"/>
  </g>
  <g id="zoomMin">
    <use xlink:href="#rim" fill="#404040"><set attributeName="fill" to="#808080" begin="zoomminus.mouseover" end="zoomminus.mouseout"/></use>
    <path d="M-4,0h8" fill="none" stroke="white" stroke-width="1.5" pointer-events="none"/>
  </g>
  <g id="arrowUp" transform="translate(30 24)">
    <use xlink:href="#rim"/>
    <path pointer-events="none" fill="none" stroke="white" stroke-width="1.5" d="M0,-3.0v7 M-2.5,-0.5L0,-3.0L2.5,-0.5"/>
  </g>
  <g id="arrowRight" transform="rotate(90) translate(36 -43)">
    <use xlink:href="#rim"/>
    <path pointer-events="none" fill="none" stroke="white" stroke-width="1.5" d="M0,-3.0v7 M-2.5,-0.5L0,-3.0L2.5,-0.5"/>
  </g>
  <g id="arrowDown" transform="rotate(180) translate(-30 -48)">
    <use xlink:href="#rim"/>
    <path pointer-events="none" fill="none" stroke="white" stroke-width="1.5" d="M0,-3.0v7 M-2.5,-0.5L0,-3.0L2.5,-0.5"/>
  </g>
  <g id="arrowLeft" transform="rotate(270) translate(-36 17)">
    <use xlink:href="#rim"/>
    <path pointer-events="none" fill="none" stroke="white" stroke-width="1.5" d="M0,-3.0v7 M-2.5,-0.5L0,-3.0L2.5,-0.5"/>
  </g>
  <g id="resetDef">
    <use xlink:href="#rim2" fill="#404040"><set attributeName="fill" to="#808080" begin="reset.mouseover" end="reset.mouseout"/></use>
  </g>
</defs>
<script type="application/ecmascript">
var viewWidth = 629;
var viewHeight = 87;
var sectionId = 'dynsection-21';
</script>
<script type="application/ecmascript" xlink:href="svg.min.js"/>
<svg id="graph" class="graph">
<g id="viewport">
<title>Node::getLastParentNode</title>
<!-- Node1 -->
<g id="Node000001" class="node">
<title>Node1</title>
<g id="a_Node000001"><a xlink:title=" ">
<polygon fill="#999999" stroke="#666666" points="140.5,-58.75 0,-58.75 0,-38 140.5,-38 140.5,-58.75"/>
<text text-anchor="middle" x="70.25" y="-45.25" font-family="Helvetica,sans-Serif" font-size="10.00">Node::getLastParentNode</text>
</a>
</g>
</g>
<!-- Node1&#45;&gt;Node1 -->
<g id="edge1_Node000001_Node000001" class="edge">
<title>Node1&#45;&gt;Node1</title>
<g id="a_edge1_Node000001_Node000001"><a xlink:title=" ">
<path fill="none" stroke="#63b8ff" d="M43.44,-59.15C32.72,-67.81 41.65,-76.75 70.25,-76.75 85.89,-76.75 95.65,-74.08 99.53,-70.24"/>
<polygon fill="#63b8ff" stroke="#63b8ff" points="102.98,-69.63 97.39,-60.62 96.14,-71.15 102.98,-69.63"/>
</a>
</g>
</g>
<!-- Node2 -->
<g id="Node000002" class="node">
<title>Node2</title>
<g id="a_Node000002"><a xlink:href="classNode.html#a6f20a4c713eb7044d63d62fe110ebf39" target="_top" xlink:title=" ">
<polygon fill="white" stroke="#666666" points="296.75,-58.75 176.5,-58.75 176.5,-38 296.75,-38 296.75,-58.75"/>
<text text-anchor="middle" x="236.62" y="-45.25" font-family="Helvetica,sans-Serif" font-size="10.00">Node::getParentNode</text>
</a>
</g>
</g>
<!-- Node1&#45;&gt;Node2 -->
<g id="edge2_Node000001_Node000002" class="edge">
<title>Node1&#45;&gt;Node2</title>
<g id="a_edge2_Node000001_Node000002"><a xlink:title=" ">
<path fill="none" stroke="#63b8ff" d="M140.96,-48.38C148.84,-48.38 156.87,-48.38 164.76,-48.38"/>
<polygon fill="#63b8ff" stroke="#63b8ff" points="164.68,-51.88 174.68,-48.38 164.68,-44.88 164.68,-51.88"/>
</a>
</g>
</g>
<!-- Node3 -->
<g id="Node000003" class="node">
<title>Node3</title>
<g id="a_Node000003"><a xlink:href="classEdge.html#aafdd29ac6ed636661849c253a34f54db" target="_top" xlink:title=" ">
<polygon fill="white" stroke="#666666" points="439.88,-78.75 353.38,-78.75 353.38,-58 439.88,-58 439.88,-78.75"/>
<text text-anchor="middle" x="396.62" y="-65.25" font-family="Helvetica,sans-Serif" font-size="10.00">Edge::getFrom</text>
</a>
</g>
</g>
<!-- Node2&#45;&gt;Node3 -->
<g id="edge3_Node000002_Node000003" class="edge">
<title>Node2&#45;&gt;Node3</title>
<g id="a_edge3_Node000002_Node000003"><a xlink:title=" ">
<path fill="none" stroke="#63b8ff" d="M296.91,-55.88C311.69,-57.75 327.46,-59.75 341.96,-61.58"/>
<polygon fill="#63b8ff" stroke="#63b8ff" points="341.41,-65.04 351.77,-62.82 342.29,-58.1 341.41,-65.04"/>
</a>
</g>
</g>
<!-- Node4 -->
<g id="Node000004" class="node">
<title>Node4</title>
<g id="a_Node000004"><a xlink:href="classNode.html#a3ff45e2703c3766979f835cb4ca88960" target="_top" xlink:title=" ">
<polygon fill="white" stroke="#666666" points="460.5,-39.75 332.75,-39.75 332.75,-19 460.5,-19 460.5,-39.75"/>
<text text-anchor="middle" x="396.62" y="-26.25" font-family="Helvetica,sans-Serif" font-size="10.00">Node::getMemberEdge</text>
</a>
</g>
</g>
<!-- Node2&#45;&gt;Node4 -->
<g id="edge4_Node000002_Node000004" class="edge">
<title>Node2&#45;&gt;Node4</title>
<g id="a_edge4_Node000002_Node000004"><a xlink:title=" ">
<path fill="none" stroke="#63b8ff" d="M296.91,-41.25C304.76,-40.3 312.9,-39.32 320.97,-38.35"/>
<polygon fill="#63b8ff" stroke="#63b8ff" points="321.3,-41.84 330.81,-37.17 320.46,-34.89 321.3,-41.84"/>
</a>
</g>
</g>
<!-- Node5 -->
<g id="Node000005" class="node">
<title>Node5</title>
<g id="a_Node000005"><a xlink:href="classNode.html#a8e882ca6775882a61f7e5e90ee3da0ea" target="_top" xlink:title=" ">
<polygon fill="white" stroke="#666666" points="620.5,-59.75 496.5,-59.75 496.5,-39 620.5,-39 620.5,-59.75"/>
<text text-anchor="middle" x="558.5" y="-46.25" font-family="Helvetica,sans-Serif" font-size="10.00">Node::findEdgeOfType</text>
</a>
</g>
</g>
<!-- Node4&#45;&gt;Node5 -->
<g id="edge5_Node000004_Node000005" class="edge">
<title>Node4&#45;&gt;Node5</title>
<g id="a_edge5_Node000004_Node000005"><a xlink:title=" ">
<path fill="none" stroke="#63b8ff" d="M460.81,-37.28C468.7,-38.27 476.82,-39.28 484.84,-40.29"/>
<polygon fill="#63b8ff" stroke="#63b8ff" points="484.22,-43.73 494.58,-41.5 485.09,-36.79 484.22,-43.73"/>
</a>
</g>
</g>
<!-- Node6 -->
<g id="Node000006" class="node">
<title>Node6</title>
<g id="a_Node000006"><a xlink:href="classEdge.html#a8aead758c19cbce8c4bda7a2e2989071" target="_top" xlink:title=" ">
<polygon fill="white" stroke="#666666" points="594.62,-20.75 522.38,-20.75 522.38,0 594.62,0 594.62,-20.75"/>
<text text-anchor="middle" x="558.5" y="-7.25" font-family="Helvetica,sans-Serif" font-size="10.00">Edge::getTo</text>
</a>
</g>
</g>
<!-- Node4&#45;&gt;Node6 -->
<g id="edge7_Node000004_Node000006" class="edge">
<title>Node4&#45;&gt;Node6</title>
<g id="a_edge7_Node000004_Node000006"><a xlink:title=" ">
<path fill="none" stroke="#63b8ff" d="M460.81,-21.87C477.53,-19.88 495.27,-17.77 510.92,-15.91"/>
<polygon fill="#63b8ff" stroke="#63b8ff" points="510.89,-19.44 520.41,-14.78 510.07,-12.49 510.89,-19.44"/>
</a>
</g>
</g>
<!-- Node5&#45;&gt;Node5 -->
<g id="edge6_Node000005_Node000005" class="edge">
<title>Node5&#45;&gt;Node5</title>
<g id="a_edge6_Node000005_Node000005"><a xlink:title=" ">
<path fill="none" stroke="#63b8ff" d="M532.42,-60.15C521.98,-68.81 530.68,-77.75 558.5,-77.75 573.72,-77.75 583.21,-75.08 586.98,-71.24"/>
<polygon fill="#63b8ff" stroke="#63b8ff" points="590.44,-70.66 584.9,-61.63 583.6,-72.14 590.44,-70.66"/>
</a>
</g>
</g>
</g>
</svg>

<g id="navigator" transform="translate(0 0)" fill="#404254">
  <rect fill="#f2f5e9" fill-opacity="0.5" stroke="#606060" stroke-width=".5" x="0" y="0" width="60" height="60"/>
  <use id="zoomplus" xlink:href="#zoomPlus" x="17" y="9" onmousedown="handleZoom(evt,'in')"/>
  <use id="zoomminus" xlink:href="#zoomMin" x="42" y="9" onmousedown="handleZoom(evt,'out')"/>
  <use id="reset" xlink:href="#resetDef" x="30" y="36" onmousedown="handleReset()"/>
   <use id="arrowup" xlink:href="#arrowUp" x="0" y="0" onmousedown="handlePan(0,-1)"/>
  <use id="arrowright" xlink:href="#arrowRight" x="0" y="0" onmousedown="handlePan(1,0)"/>
  <use id="arrowdown" xlink:href="#arrowDown" x="0" y="0" onmousedown="handlePan(0,1)"/>
  <use id="arrowleft" xlink:href="#arrowLeft" x="0" y="0" onmousedown="handlePan(-1,0)"/>
</g>
<svg viewBox="0 0 15 15" width="100%" height="30px" preserveAspectRatio="xMaxYMin meet">
 <g id="arrow_out" transform="scale(0.3 0.3)">
  <a xlink:href="classNode_a29d0fc931749cd2122faf1e5949f5c34_cgraph_org.svg" target="_base">
   <rect id="button" ry="5" rx="5" y="6" x="6" height="38" width="38"
        fill="#f2f5e9" fill-opacity="0.5" stroke="#606060" stroke-width="1.0"/>
   <path id="arrow"
     d="M 11.500037,31.436501 C 11.940474,20.09759 22.043105,11.32322 32.158766,21.979434 L 37.068811,17.246167 C 37.068811,17.246167 37.088388,32 37.088388,32 L 22.160133,31.978069 C 22.160133,31.978069 26.997745,27.140456 26.997745,27.140456 C 18.528582,18.264221 13.291696,25.230495 11.500037,31.436501 z"
     style="fill:#404040;"/>
  </a>
 </g>
</svg>

<style type='text/css'>
<![CDATA[
[data-mouse-over-selected='false'] { opacity: 0.7; }
[data-mouse-over-selected='true']  { opacity: 1.0; }
]]>
</style>
<script type="application/ecmascript"><![CDATA[
document.addEventListener('DOMContentLoaded', (event) => {
  highlightEdges();
  highlightAdjacentNodes();
});
]]></script>
</svg>
