<?xml version="1.0" encoding="UTF-8" standalone="no"?>
<!DOCTYPE svg PUBLIC "-//W3C//DTD SVG 1.1//EN"
 "http://www.w3.org/Graphics/SVG/1.1/DTD/svg11.dtd">
<!-- Generated by graphviz version 7.1.0 (0)
 -->
<!-- Title: QtCodeArea::contextMenuEvent Pages: 1 -->
<svg width="590pt" height="300pt"
 viewBox="0.00 0.00 590.00 300.00" xmlns="http://www.w3.org/2000/svg" xmlns:xlink="http://www.w3.org/1999/xlink">
<g id="graph0" class="graph" transform="scale(1 1) rotate(0) translate(4 296)">
<title>QtCodeArea::contextMenuEvent</title>
<!-- Node1 -->
<g id="node1" class="node">
<title>Node1</title>
<g id="a_node1"><a xlink:title=" ">
<polygon fill="#999999" stroke="#666666" points="173,-157 0,-157 0,-138 173,-138 173,-157"/>
<text text-anchor="middle" x="86.5" y="-145" font-family="Helvetica,sans-Serif" font-size="10.00">QtCodeArea::contextMenuEvent</text>
</a>
</g>
</g>
<!-- Node2 -->
<g id="node2" class="node">
<title>Node2</title>
<g id="a_node2"><a xlink:href="classQtContextMenu.html#a4526ac278b3303ea79bd647ebc1d6477" target="_top" xlink:title=" ">
<polygon fill="white" stroke="#666666" points="581.5,-254 433.5,-254 433.5,-235 581.5,-235 581.5,-254"/>
<text text-anchor="middle" x="507.5" y="-242" font-family="Helvetica,sans-Serif" font-size="10.00">QtContextMenu::addAction</text>
</a>
</g>
</g>
<!-- Node1&#45;&gt;Node2 -->
<g id="edge1" class="edge">
<title>Node1&#45;&gt;Node2</title>
<path fill="none" stroke="#63b8ff" d="M98.54,-157.42C118.74,-174.87 163.75,-210.64 209,-225.5 278.06,-248.18 360.89,-251.69 421.59,-250.24"/>
<polygon fill="#63b8ff" stroke="#63b8ff" points="421.64,-253.74 431.53,-249.95 421.43,-246.74 421.64,-253.74"/>
</g>
<!-- Node3 -->
<g id="node3" class="node">
<title>Node3</title>
<g id="a_node3"><a xlink:href="classQtContextMenu.html#a34803c665af2c4a5ba8bda72d162bc20" target="_top" xlink:title=" ">
<polygon fill="white" stroke="#666666" points="388,-292 218,-292 218,-273 388,-273 388,-292"/>
<text text-anchor="middle" x="303" y="-280" font-family="Helvetica,sans-Serif" font-size="10.00">QtContextMenu::addFileActions</text>
</a>
</g>
</g>
<!-- Node1&#45;&gt;Node3 -->
<g id="edge2" class="edge">
<title>Node1&#45;&gt;Node3</title>
<path fill="none" stroke="#63b8ff" d="M95.19,-157.2C112.86,-178.84 158.75,-231.28 209,-258.5 216.92,-262.79 225.64,-266.34 234.47,-269.27"/>
<polygon fill="#63b8ff" stroke="#63b8ff" points="233.22,-272.54 243.8,-272.1 235.25,-265.85 233.22,-272.54"/>
</g>
<!-- Node5 -->
<g id="node5" class="node">
<title>Node5</title>
<g id="a_node5"><a xlink:href="classQtContextMenu.html#a70e2e44c0d80eb970a3e84e408f5d08d" target="_top" xlink:title=" ">
<polygon fill="white" stroke="#666666" points="385,-216 221,-216 221,-197 385,-197 385,-216"/>
<text text-anchor="middle" x="303" y="-204" font-family="Helvetica,sans-Serif" font-size="10.00">QtContextMenu::addSeparator</text>
</a>
</g>
</g>
<!-- Node1&#45;&gt;Node5 -->
<g id="edge5" class="edge">
<title>Node1&#45;&gt;Node5</title>
<path fill="none" stroke="#63b8ff" d="M113.73,-157.49C138.13,-166.51 175.64,-179.69 209,-188.5 216.76,-190.55 224.94,-192.47 233.1,-194.24"/>
<polygon fill="#63b8ff" stroke="#63b8ff" points="232.19,-197.63 242.7,-196.25 233.63,-190.78 232.19,-197.63"/>
</g>
<!-- Node6 -->
<g id="node6" class="node">
<title>Node6</title>
<g id="a_node6"><a xlink:href="classQtContextMenu.html#a1d7f55ce218bdb48b5919a0da1e32170" target="_top" xlink:title=" ">
<polygon fill="white" stroke="#666666" points="392.5,-179 213.5,-179 213.5,-160 392.5,-160 392.5,-179"/>
<text text-anchor="middle" x="303" y="-167" font-family="Helvetica,sans-Serif" font-size="10.00">QtContextMenu::addUndoActions</text>
</a>
</g>
</g>
<!-- Node1&#45;&gt;Node6 -->
<g id="edge6" class="edge">
<title>Node1&#45;&gt;Node6</title>
<path fill="none" stroke="#63b8ff" d="M173.2,-156.29C182.68,-157.26 192.39,-158.26 202.02,-159.25"/>
<polygon fill="#63b8ff" stroke="#63b8ff" points="201.47,-162.71 211.77,-160.25 202.18,-155.74 201.47,-162.71"/>
</g>
<!-- Node7 -->
<g id="node7" class="node">
<title>Node7</title>
<g id="a_node7"><a xlink:href="classQtCodeField.html#a3508c1390dc05416beeb589e771114b6" target="_top" xlink:title=" ">
<polygon fill="white" stroke="#666666" points="375,-141.5 231,-141.5 231,-111.5 375,-111.5 375,-141.5"/>
<text text-anchor="start" x="239" y="-129.5" font-family="Helvetica,sans-Serif" font-size="10.00">QtCodeField::checkOpenIn</text>
<text text-anchor="middle" x="303" y="-118.5" font-family="Helvetica,sans-Serif" font-size="10.00">TabActionEnabled</text>
</a>
</g>
</g>
<!-- Node1&#45;&gt;Node7 -->
<g id="edge8" class="edge">
<title>Node1&#45;&gt;Node7</title>
<path fill="none" stroke="#63b8ff" d="M173.2,-139.11C188.36,-137.63 204.11,-136.08 219.19,-134.61"/>
<polygon fill="#63b8ff" stroke="#63b8ff" points="219.45,-138.1 229.06,-133.64 218.76,-131.13 219.45,-138.1"/>
</g>
<!-- Node9 -->
<g id="node9" class="node">
<title>Node9</title>
<g id="a_node9"><a xlink:href="classQtCodeField.html#aaa07bdb19deeda25a3eddfb96e98f5c8" target="_top" xlink:title=" ">
<polygon fill="white" stroke="#666666" points="370.5,-93 235.5,-93 235.5,-74 370.5,-74 370.5,-93"/>
<text text-anchor="middle" x="303" y="-81" font-family="Helvetica,sans-Serif" font-size="10.00">QtCodeField::getFilePath</text>
</a>
</g>
</g>
<!-- Node1&#45;&gt;Node9 -->
<g id="edge10" class="edge">
<title>Node1&#45;&gt;Node9</title>
<path fill="none" stroke="#63b8ff" d="M110.89,-137.62C135.1,-127.68 174.18,-112.44 209,-102.5 217.36,-100.11 226.22,-97.9 235.02,-95.9"/>
<polygon fill="#63b8ff" stroke="#63b8ff" points="235.6,-99.36 244.61,-93.8 234.1,-92.52 235.6,-99.36"/>
</g>
<!-- Node10 -->
<g id="node10" class="node">
<title>Node10</title>
<g id="a_node10"><a xlink:href="classQtCodeField.html#ae223c0aff65d5449e3957b4ffe7b2b64" target="_top" xlink:title=" ">
<polygon fill="white" stroke="#666666" points="397,-56 209,-56 209,-37 397,-37 397,-56"/>
<text text-anchor="middle" x="303" y="-44" font-family="Helvetica,sans-Serif" font-size="10.00">QtCodeField::getSourceLocationFile</text>
</a>
</g>
</g>
<!-- Node1&#45;&gt;Node10 -->
<g id="edge11" class="edge">
<title>Node1&#45;&gt;Node10</title>
<path fill="none" stroke="#63b8ff" d="M98.63,-137.52C118.98,-119.86 164.21,-83.19 209,-64.5 213.35,-62.68 217.9,-61.05 222.54,-59.58"/>
<polygon fill="#63b8ff" stroke="#63b8ff" points="223.39,-62.97 232.04,-56.85 221.46,-56.24 223.39,-62.97"/>
</g>
<!-- Node11 -->
<g id="node11" class="node">
<title>Node11</title>
<g id="a_node11"><a xlink:href="classQtContextMenu.html#a5f6f9b17e905d9eb18560799336c41fa" target="_top" xlink:title=" ">
<polygon fill="white" stroke="#666666" points="365.5,-19 240.5,-19 240.5,0 365.5,0 365.5,-19"/>
<text text-anchor="middle" x="303" y="-7" font-family="Helvetica,sans-Serif" font-size="10.00">QtContextMenu::show</text>
</a>
</g>
</g>
<!-- Node1&#45;&gt;Node11 -->
<g id="edge12" class="edge">
<title>Node1&#45;&gt;Node11</title>
<path fill="none" stroke="#63b8ff" d="M94.12,-137.81C110.56,-114.58 155.76,-55.57 209,-27.5 215.3,-24.18 222.13,-21.46 229.13,-19.25"/>
<polygon fill="#63b8ff" stroke="#63b8ff" points="230.07,-22.62 238.77,-16.57 228.19,-15.88 230.07,-22.62"/>
</g>
<!-- Node3&#45;&gt;Node2 -->
<g id="edge3" class="edge">
<title>Node3&#45;&gt;Node2</title>
<path fill="none" stroke="#63b8ff" d="M357.2,-272.52C383.26,-267.63 414.85,-261.7 442.24,-256.56"/>
<polygon fill="#63b8ff" stroke="#63b8ff" points="442.63,-260.05 451.81,-254.76 441.34,-253.17 442.63,-260.05"/>
</g>
<!-- Node4 -->
<g id="node4" class="node">
<title>Node4</title>
<g id="a_node4"><a xlink:href="classFilePath.html#ae09c07f1ae9ac6f650a765cc11cc6494" target="_top" xlink:title=" ">
<polygon fill="white" stroke="#666666" points="553.5,-292 461.5,-292 461.5,-273 553.5,-273 553.5,-292"/>
<text text-anchor="middle" x="507.5" y="-280" font-family="Helvetica,sans-Serif" font-size="10.00">FilePath::empty</text>
</a>
</g>
</g>
<!-- Node3&#45;&gt;Node4 -->
<g id="edge4" class="edge">
<title>Node3&#45;&gt;Node4</title>
<path fill="none" stroke="#63b8ff" d="M388.41,-282.5C409.08,-282.5 430.72,-282.5 449.74,-282.5"/>
<polygon fill="#63b8ff" stroke="#63b8ff" points="449.69,-286 459.69,-282.5 449.69,-279 449.69,-286"/>
</g>
<!-- Node6&#45;&gt;Node2 -->
<g id="edge7" class="edge">
<title>Node6&#45;&gt;Node2</title>
<path fill="none" stroke="#63b8ff" d="M364.68,-179.42C375.58,-181.9 386.74,-184.9 397,-188.5 426.96,-199 459.05,-216.19 480.69,-228.76"/>
<polygon fill="#63b8ff" stroke="#63b8ff" points="478.73,-231.67 489.12,-233.74 482.29,-225.64 478.73,-231.67"/>
</g>
<!-- Node8 -->
<g id="node8" class="node">
<title>Node8</title>
<g id="a_node8"><a xlink:href="classQtCodeField.html#a8120e52c5c2b73aaf492c81a8273472c" target="_top" xlink:title=" ">
<polygon fill="white" stroke="#666666" points="582,-141.5 433,-141.5 433,-111.5 582,-111.5 582,-141.5"/>
<text text-anchor="start" x="441" y="-129.5" font-family="Helvetica,sans-Serif" font-size="10.00">QtCodeField::getInteractive</text>
<text text-anchor="middle" x="507.5" y="-118.5" font-family="Helvetica,sans-Serif" font-size="10.00">AnnotationsForPosition</text>
</a>
</g>
</g>
<!-- Node7&#45;&gt;Node8 -->
<g id="edge9" class="edge">
<title>Node7&#45;&gt;Node8</title>
<path fill="none" stroke="#63b8ff" d="M375.39,-126.5C390.33,-126.5 406.22,-126.5 421.59,-126.5"/>
<polygon fill="#63b8ff" stroke="#63b8ff" points="421.16,-130 431.16,-126.5 421.16,-123 421.16,-130"/>
</g>
</g>
</svg>
