<?xml version="1.0" encoding="UTF-8" standalone="no"?>
<!DOCTYPE svg PUBLIC "-//W3C//DTD SVG 1.1//EN"
 "http://www.w3.org/Graphics/SVG/1.1/DTD/svg11.dtd">
<!-- Generated by graphviz version 9.0.0 (0)
 -->
<!-- Title: QtStatusView Pages: 1 -->
<svg width="154pt" height="142pt"
 viewBox="0.00 0.00 154.38 142.25" xmlns="http://www.w3.org/2000/svg" xmlns:xlink="http://www.w3.org/1999/xlink">
<g id="graph0" class="graph" transform="scale(1 1) rotate(0) translate(4 138.25)">
<title>QtStatusView</title>
<!-- Node1 -->
<g id="Node000001" class="node">
<title>Node1</title>
<g id="a_Node000001"><a xlink:title=" ">
<polygon fill="#999999" stroke="#666666" points="111,-20.75 29,-20.75 29,0 111,0 111,-20.75"/>
<text text-anchor="middle" x="70" y="-7.25" font-family="Helvetica,sans-Serif" font-size="10.00">QtStatusView</text>
</a>
</g>
</g>
<!-- Node2 -->
<g id="Node000002" class="node">
<title>Node2</title>
<g id="a_Node000002"><a xlink:href="classQWidget.html" target="_top" xlink:title=" ">
<polygon fill="white" stroke="#666666" points="58,-77.5 0,-77.5 0,-56.75 58,-56.75 58,-77.5"/>
<text text-anchor="middle" x="29" y="-64" font-family="Helvetica,sans-Serif" font-size="10.00">QWidget</text>
</a>
</g>
</g>
<!-- Node2&#45;&gt;Node1 -->
<g id="edge1_Node000001_Node000002" class="edge">
<title>Node2&#45;&gt;Node1</title>
<g id="a_edge1_Node000001_Node000002"><a xlink:title=" ">
<path fill="none" stroke="#63b8ff" d="M43.19,-47.17C49.78,-38.38 57.33,-28.3 62.73,-21.08"/>
<polygon fill="#63b8ff" stroke="#63b8ff" points="40.43,-45.02 37.24,-55.13 46.03,-49.22 40.43,-45.02"/>
</a>
</g>
</g>
<!-- Node3 -->
<g id="Node000003" class="node">
<title>Node3</title>
<g id="a_Node000003"><a xlink:href="classStatusView.html" target="_top" xlink:title=" ">
<polygon fill="white" stroke="#666666" points="146.38,-77.5 75.62,-77.5 75.62,-56.75 146.38,-56.75 146.38,-77.5"/>
<text text-anchor="middle" x="111" y="-64" font-family="Helvetica,sans-Serif" font-size="10.00">StatusView</text>
</a>
</g>
</g>
<!-- Node3&#45;&gt;Node1 -->
<g id="edge2_Node000001_Node000003" class="edge">
<title>Node3&#45;&gt;Node1</title>
<g id="a_edge2_Node000001_Node000003"><a xlink:title=" ">
<path fill="none" stroke="#63b8ff" d="M96.81,-47.17C90.22,-38.38 82.67,-28.3 77.27,-21.08"/>
<polygon fill="#63b8ff" stroke="#63b8ff" points="93.97,-49.22 102.76,-55.13 99.57,-45.02 93.97,-49.22"/>
</a>
</g>
</g>
<!-- Node4 -->
<g id="Node000004" class="node">
<title>Node4</title>
<g id="a_Node000004"><a xlink:href="classView.html" target="_top" xlink:title=" ">
<polygon fill="white" stroke="#666666" points="131,-134.25 91,-134.25 91,-113.5 131,-113.5 131,-134.25"/>
<text text-anchor="middle" x="111" y="-120.75" font-family="Helvetica,sans-Serif" font-size="10.00">View</text>
</a>
</g>
</g>
<!-- Node4&#45;&gt;Node3 -->
<g id="edge3_Node000003_Node000004" class="edge">
<title>Node4&#45;&gt;Node3</title>
<g id="a_edge3_Node000003_Node000004"><a xlink:title=" ">
<path fill="none" stroke="#63b8ff" d="M111,-101.63C111,-93.41 111,-84.43 111,-77.83"/>
<polygon fill="#63b8ff" stroke="#63b8ff" points="107.5,-101.57 111,-111.57 114.5,-101.57 107.5,-101.57"/>
</a>
</g>
</g>
</g>
</svg>
