<?xml version="1.0" encoding="UTF-8" standalone="no"?>
<!DOCTYPE svg PUBLIC "-//W3C//DTD SVG 1.1//EN"
 "http://www.w3.org/Graphics/SVG/1.1/DTD/svg11.dtd">
<!-- Generated by graphviz version 9.0.0 (0)
 -->
<!-- Title: QtWindowStack::popWindow Pages: 1 -->
<svg width="331pt" height="68pt"
 viewBox="0.00 0.00 331.00 67.75" xmlns="http://www.w3.org/2000/svg" xmlns:xlink="http://www.w3.org/1999/xlink">
<g id="graph0" class="graph" transform="scale(1 1) rotate(0) translate(4 63.75)">
<title>QtWindowStack::popWindow</title>
<!-- Node1 -->
<g id="Node000001" class="node">
<title>Node1</title>
<g id="a_Node000001"><a xlink:title=" ">
<polygon fill="#999999" stroke="#666666" points="156.25,-39.75 0,-39.75 0,-19 156.25,-19 156.25,-39.75"/>
<text text-anchor="middle" x="78.12" y="-26.25" font-family="Helvetica,sans-Serif" font-size="10.00">QtWindowStack::popWindow</text>
</a>
</g>
</g>
<!-- Node2 -->
<g id="Node000002" class="node">
<title>Node2</title>
<g id="a_Node000002"><a xlink:href="classQtWindowStack.html#a5d98c0f7db3561e2421925b6ccc19b1b" target="_top" xlink:title=" ">
<polygon fill="white" stroke="#666666" points="323,-59.75 192.25,-59.75 192.25,-39 323,-39 323,-59.75"/>
<text text-anchor="middle" x="257.62" y="-46.25" font-family="Helvetica,sans-Serif" font-size="10.00">QtWindowStack::empty</text>
</a>
</g>
</g>
<!-- Node1&#45;&gt;Node2 -->
<g id="edge1_Node000001_Node000002" class="edge">
<title>Node1&#45;&gt;Node2</title>
<g id="a_edge1_Node000001_Node000002"><a xlink:title=" ">
<path fill="none" stroke="#63b8ff" d="M156.72,-38.12C164.62,-39.01 172.64,-39.91 180.52,-40.8"/>
<polygon fill="#63b8ff" stroke="#63b8ff" points="180.1,-44.27 190.43,-41.92 180.89,-37.32 180.1,-44.27"/>
</a>
</g>
</g>
<!-- Node3 -->
<g id="Node000003" class="node">
<title>Node3</title>
<g id="a_Node000003"><a xlink:href="classQtWindowStack.html#a156c0d200f8d68dd30223a22edf79916" target="_top" xlink:title=" ">
<polygon fill="white" stroke="#666666" points="316.25,-20.75 199,-20.75 199,0 316.25,0 316.25,-20.75"/>
<text text-anchor="middle" x="257.62" y="-7.25" font-family="Helvetica,sans-Serif" font-size="10.00">QtWindowStack::pop</text>
</a>
</g>
</g>
<!-- Node1&#45;&gt;Node3 -->
<g id="edge2_Node000001_Node000003" class="edge">
<title>Node1&#45;&gt;Node3</title>
<g id="a_edge2_Node000001_Node000003"><a xlink:title=" ">
<path fill="none" stroke="#63b8ff" d="M156.72,-21.07C166.96,-19.97 177.39,-18.86 187.47,-17.78"/>
<polygon fill="#63b8ff" stroke="#63b8ff" points="187.6,-21.28 197.17,-16.74 186.85,-14.32 187.6,-21.28"/>
</a>
</g>
</g>
</g>
</svg>
