<?xml version="1.0" encoding="UTF-8" standalone="no"?>
<!DOCTYPE svg PUBLIC "-//W3C//DTD SVG 1.1//EN"
 "http://www.w3.org/Graphics/SVG/1.1/DTD/svg11.dtd">
<!-- Generated by graphviz version 9.0.0 (0)
 -->
<!-- Title: SqliteIndexStorage::InsertBatchStatement::execute Pages: 1 -->
<!--zoomable 718 -->

<svg id="main" version="1.1" xmlns="http://www.w3.org/2000/svg" xmlns:xlink="http://www.w3.org/1999/xlink" xml:space="preserve" onload="init(evt)">
<style type="text/css"><![CDATA[
.node, .edge {opacity: 0.7;}
.node.selected, .edge.selected {opacity: 1;}
.edge:hover path { stroke: red; }
.edge:hover polygon { stroke: red; fill: red; }
]]></style>

<defs>
  <circle id="rim" cx="0" cy="0" r="7"/>
  <circle id="rim2" cx="0" cy="0" r="3.5"/>
  <g id="zoomPlus">
    <use xlink:href="#rim" fill="#404040"><set attributeName="fill" to="#808080" begin="zoomplus.mouseover" end="zoomplus.mouseout"/></use>
    <path d="M-4,0h8M0,-4v8" fill="none" stroke="white" stroke-width="1.5" pointer-events="none"/>
  </g>
  <g id="zoomMin">
    <use xlink:href="#rim" fill="#404040"><set attributeName="fill" to="#808080" begin="zoomminus.mouseover" end="zoomminus.mouseout"/></use>
    <path d="M-4,0h8" fill="none" stroke="white" stroke-width="1.5" pointer-events="none"/>
  </g>
  <g id="arrowUp" transform="translate(30 24)">
    <use xlink:href="#rim"/>
    <path pointer-events="none" fill="none" stroke="white" stroke-width="1.5" d="M0,-3.0v7 M-2.5,-0.5L0,-3.0L2.5,-0.5"/>
  </g>
  <g id="arrowRight" transform="rotate(90) translate(36 -43)">
    <use xlink:href="#rim"/>
    <path pointer-events="none" fill="none" stroke="white" stroke-width="1.5" d="M0,-3.0v7 M-2.5,-0.5L0,-3.0L2.5,-0.5"/>
  </g>
  <g id="arrowDown" transform="rotate(180) translate(-30 -48)">
    <use xlink:href="#rim"/>
    <path pointer-events="none" fill="none" stroke="white" stroke-width="1.5" d="M0,-3.0v7 M-2.5,-0.5L0,-3.0L2.5,-0.5"/>
  </g>
  <g id="arrowLeft" transform="rotate(270) translate(-36 17)">
    <use xlink:href="#rim"/>
    <path pointer-events="none" fill="none" stroke="white" stroke-width="1.5" d="M0,-3.0v7 M-2.5,-0.5L0,-3.0L2.5,-0.5"/>
  </g>
  <g id="resetDef">
    <use xlink:href="#rim2" fill="#404040"><set attributeName="fill" to="#808080" begin="reset.mouseover" end="reset.mouseout"/></use>
  </g>
</defs>
<script type="application/ecmascript">
var viewWidth = 645;
var viewHeight = 718;
var sectionId = 'dynsection-5';
</script>
<script type="application/ecmascript" xlink:href="svg.min.js"/>
<svg id="graph" class="graph">
<g id="viewport">
<title>SqliteIndexStorage::InsertBatchStatement::execute</title>
<!-- Node1 -->
<g id="Node000001" class="node">
<title>Node1</title>
<g id="a_Node000001"><a xlink:title=" ">
<polygon fill="#999999" stroke="#666666" points="637,-377.88 508.5,-377.88 508.5,-331.62 637,-331.62 637,-377.88"/>
<text text-anchor="start" x="516.5" y="-364.38" font-family="Helvetica,sans-Serif" font-size="10.00">SqliteIndexStorage</text>
<text text-anchor="start" x="516.5" y="-351.62" font-family="Helvetica,sans-Serif" font-size="10.00">::InsertBatchStatement</text>
<text text-anchor="middle" x="572.75" y="-338.88" font-family="Helvetica,sans-Serif" font-size="10.00">::execute</text>
</a>
</g>
</g>
<!-- Node2 -->
<g id="Node000002" class="node">
<title>Node2</title>
<g id="a_Node000002"><a xlink:href="classSqliteIndexStorage.html#a026843fa3abde4e7755b4c54005eac62" target="_top" xlink:title=" ">
<polygon fill="white" stroke="#666666" points="472.5,-657.5 331.25,-657.5 331.25,-624 472.5,-624 472.5,-657.5"/>
<text text-anchor="start" x="339.25" y="-644" font-family="Helvetica,sans-Serif" font-size="10.00">SqliteIndexStorage</text>
<text text-anchor="middle" x="401.88" y="-631.25" font-family="Helvetica,sans-Serif" font-size="10.00">::addComponentAccesses</text>
</a>
</g>
</g>
<!-- Node1&#45;&gt;Node2 -->
<g id="edge1_Node000001_Node000002" class="edge">
<title>Node1&#45;&gt;Node2</title>
<g id="a_edge1_Node000001_Node000002"><a xlink:title=" ">
<path fill="none" stroke="#63b8ff" d="M558.92,-388.98C542.19,-431.54 510.54,-505.56 472.5,-562.75 457.32,-585.57 435.82,-608.61 420.74,-623.67"/>
<polygon fill="#63b8ff" stroke="#63b8ff" points="562.14,-390.36 562.49,-379.77 555.61,-387.83 562.14,-390.36"/>
</a>
</g>
</g>
<!-- Node6 -->
<g id="Node000006" class="node">
<title>Node6</title>
<g id="a_Node000006"><a xlink:href="classSqliteIndexStorage.html#acb4c667ef557a411548effdc7770d828" target="_top" xlink:title=" ">
<polygon fill="white" stroke="#666666" points="456,-553.5 347.75,-553.5 347.75,-520 456,-520 456,-553.5"/>
<text text-anchor="start" x="355.75" y="-540" font-family="Helvetica,sans-Serif" font-size="10.00">SqliteIndexStorage</text>
<text text-anchor="middle" x="401.88" y="-527.25" font-family="Helvetica,sans-Serif" font-size="10.00">::addEdges</text>
</a>
</g>
</g>
<!-- Node1&#45;&gt;Node6 -->
<g id="edge5_Node000001_Node000006" class="edge">
<title>Node1&#45;&gt;Node6</title>
<g id="a_edge5_Node000001_Node000006"><a xlink:title=" ">
<path fill="none" stroke="#63b8ff" d="M542.3,-386.49C506.38,-425.2 446.98,-489.21 418.74,-519.65"/>
<polygon fill="#63b8ff" stroke="#63b8ff" points="544.75,-388.99 548.99,-379.28 539.62,-384.23 544.75,-388.99"/>
</a>
</g>
</g>
<!-- Node10 -->
<g id="Node000010" class="node">
<title>Node10</title>
<g id="a_Node000010"><a xlink:href="classSqliteIndexStorage.html#abbaf0894d9a0bb1c8044da3d9b0c066a" target="_top" xlink:title=" ">
<polygon fill="white" stroke="#666666" points="456,-449.5 347.75,-449.5 347.75,-416 456,-416 456,-449.5"/>
<text text-anchor="start" x="355.75" y="-436" font-family="Helvetica,sans-Serif" font-size="10.00">SqliteIndexStorage</text>
<text text-anchor="middle" x="401.88" y="-423.25" font-family="Helvetica,sans-Serif" font-size="10.00">::addLocalSymbols</text>
</a>
</g>
</g>
<!-- Node1&#45;&gt;Node10 -->
<g id="edge9_Node000001_Node000010" class="edge">
<title>Node1&#45;&gt;Node10</title>
<g id="a_edge9_Node000001_Node000010"><a xlink:title=" ">
<path fill="none" stroke="#63b8ff" d="M510.38,-383.1C486.86,-393.96 460.75,-406.02 440.15,-415.53"/>
<polygon fill="#63b8ff" stroke="#63b8ff" points="511.64,-386.37 519.25,-379 508.7,-380.01 511.64,-386.37"/>
</a>
</g>
</g>
<!-- Node14 -->
<g id="Node000014" class="node">
<title>Node14</title>
<g id="a_Node000014"><a xlink:href="classSqliteIndexStorage.html#a1195312ee7f47adb404a9da8ed32ad52" target="_top" xlink:title=" ">
<polygon fill="white" stroke="#666666" points="456,-371.5 347.75,-371.5 347.75,-338 456,-338 456,-371.5"/>
<text text-anchor="start" x="355.75" y="-358" font-family="Helvetica,sans-Serif" font-size="10.00">SqliteIndexStorage</text>
<text text-anchor="middle" x="401.88" y="-345.25" font-family="Helvetica,sans-Serif" font-size="10.00">::addNodes</text>
</a>
</g>
</g>
<!-- Node1&#45;&gt;Node14 -->
<g id="edge13_Node000001_Node000014" class="edge">
<title>Node1&#45;&gt;Node14</title>
<g id="a_edge13_Node000001_Node000014"><a xlink:title=" ">
<path fill="none" stroke="#63b8ff" d="M497,-354.75C483.31,-354.75 469.28,-354.75 456.37,-354.75"/>
<polygon fill="#63b8ff" stroke="#63b8ff" points="496.87,-358.25 506.87,-354.75 496.87,-351.25 496.87,-358.25"/>
</a>
</g>
</g>
<!-- Node18 -->
<g id="Node000018" class="node">
<title>Node18</title>
<g id="a_Node000018"><a xlink:href="classSqliteIndexStorage.html#a0cf034cbb4e9e6b84d39daff43ef503e" target="_top" xlink:title=" ">
<polygon fill="white" stroke="#666666" points="456,-293.5 347.75,-293.5 347.75,-260 456,-260 456,-293.5"/>
<text text-anchor="start" x="355.75" y="-280" font-family="Helvetica,sans-Serif" font-size="10.00">SqliteIndexStorage</text>
<text text-anchor="middle" x="401.88" y="-267.25" font-family="Helvetica,sans-Serif" font-size="10.00">::addOccurrences</text>
</a>
</g>
</g>
<!-- Node1&#45;&gt;Node18 -->
<g id="edge17_Node000001_Node000018" class="edge">
<title>Node1&#45;&gt;Node18</title>
<g id="a_edge17_Node000001_Node000018"><a xlink:title=" ">
<path fill="none" stroke="#63b8ff" d="M510.38,-326.4C486.86,-315.54 460.75,-303.48 440.15,-293.97"/>
<polygon fill="#63b8ff" stroke="#63b8ff" points="508.7,-329.49 519.25,-330.5 511.64,-323.13 508.7,-329.49"/>
</a>
</g>
</g>
<!-- Node22 -->
<g id="Node000022" class="node">
<title>Node22</title>
<g id="a_Node000022"><a xlink:href="classSqliteIndexStorage.html#a15b50bc2041234feed8df7536863736d" target="_top" xlink:title=" ">
<polygon fill="white" stroke="#666666" points="461.62,-189.5 342.12,-189.5 342.12,-156 461.62,-156 461.62,-189.5"/>
<text text-anchor="start" x="350.12" y="-176" font-family="Helvetica,sans-Serif" font-size="10.00">SqliteIndexStorage</text>
<text text-anchor="middle" x="401.88" y="-163.25" font-family="Helvetica,sans-Serif" font-size="10.00">::addSourceLocations</text>
</a>
</g>
</g>
<!-- Node1&#45;&gt;Node22 -->
<g id="edge21_Node000001_Node000022" class="edge">
<title>Node1&#45;&gt;Node22</title>
<g id="a_edge21_Node000001_Node000022"><a xlink:title=" ">
<path fill="none" stroke="#63b8ff" d="M542.3,-323.01C506.38,-284.3 446.98,-220.29 418.74,-189.85"/>
<polygon fill="#63b8ff" stroke="#63b8ff" points="539.62,-325.27 548.99,-330.22 544.75,-320.51 539.62,-325.27"/>
</a>
</g>
</g>
<!-- Node26 -->
<g id="Node000026" class="node">
<title>Node26</title>
<g id="a_Node000026"><a xlink:href="classSqliteIndexStorage.html#ad39542b9a8a8b4b638fd762b46e8231f" target="_top" xlink:title=" ">
<polygon fill="white" stroke="#666666" points="456,-85.5 347.75,-85.5 347.75,-52 456,-52 456,-85.5"/>
<text text-anchor="start" x="355.75" y="-72" font-family="Helvetica,sans-Serif" font-size="10.00">SqliteIndexStorage</text>
<text text-anchor="middle" x="401.88" y="-59.25" font-family="Helvetica,sans-Serif" font-size="10.00">::addSymbols</text>
</a>
</g>
</g>
<!-- Node1&#45;&gt;Node26 -->
<g id="edge25_Node000001_Node000026" class="edge">
<title>Node1&#45;&gt;Node26</title>
<g id="a_edge25_Node000001_Node000026"><a xlink:title=" ">
<path fill="none" stroke="#63b8ff" d="M558.92,-320.52C542.19,-277.96 510.54,-203.94 472.5,-146.75 457.32,-123.93 435.82,-100.89 420.74,-85.83"/>
<polygon fill="#63b8ff" stroke="#63b8ff" points="555.61,-321.67 562.49,-329.73 562.14,-319.14 555.61,-321.67"/>
</a>
</g>
</g>
<!-- Node3 -->
<g id="Node000003" class="node">
<title>Node3</title>
<g id="a_Node000003"><a xlink:href="classSqliteIndexStorage.html#a8aed420b706a2476db78436272b8b4fe" target="_top" xlink:title=" ">
<polygon fill="white" stroke="#666666" points="292.62,-709.5 162.62,-709.5 162.62,-676 292.62,-676 292.62,-709.5"/>
<text text-anchor="start" x="170.62" y="-696" font-family="Helvetica,sans-Serif" font-size="10.00">SqliteIndexStorage</text>
<text text-anchor="middle" x="227.62" y="-683.25" font-family="Helvetica,sans-Serif" font-size="10.00">::addComponentAccess</text>
</a>
</g>
</g>
<!-- Node2&#45;&gt;Node3 -->
<g id="edge2_Node000002_Node000003" class="edge">
<title>Node2&#45;&gt;Node3</title>
<g id="a_edge2_Node000002_Node000003"><a xlink:title=" ">
<path fill="none" stroke="#63b8ff" d="M333.28,-661.16C317.55,-665.9 300.96,-670.91 285.74,-675.51"/>
<polygon fill="#63b8ff" stroke="#63b8ff" points="333.99,-664.6 342.55,-658.36 331.96,-657.9 333.99,-664.6"/>
</a>
</g>
</g>
<!-- Node5 -->
<g id="Node000005" class="node">
<title>Node5</title>
<g id="a_Node000005"><a xlink:href="classPersistentStorage.html#ac3e78d25db60fbf933d773e391d48d5d" target="_top" xlink:title=" ">
<polygon fill="white" stroke="#666666" points="295.25,-657.5 160,-657.5 160,-624 295.25,-624 295.25,-657.5"/>
<text text-anchor="start" x="168" y="-644" font-family="Helvetica,sans-Serif" font-size="10.00">PersistentStorage::</text>
<text text-anchor="middle" x="227.62" y="-631.25" font-family="Helvetica,sans-Serif" font-size="10.00">addComponentAccesses</text>
</a>
</g>
</g>
<!-- Node2&#45;&gt;Node5 -->
<g id="edge4_Node000002_Node000005" class="edge">
<title>Node2&#45;&gt;Node5</title>
<g id="a_edge4_Node000002_Node000005"><a xlink:title=" ">
<path fill="none" stroke="#63b8ff" d="M319.53,-640.75C311.5,-640.75 303.42,-640.75 295.56,-640.75"/>
<polygon fill="#63b8ff" stroke="#63b8ff" points="319.3,-644.25 329.3,-640.75 319.3,-637.25 319.3,-644.25"/>
</a>
</g>
</g>
<!-- Node4 -->
<g id="Node000004" class="node">
<title>Node4</title>
<g id="a_Node000004"><a xlink:href="classPersistentStorage.html#a17e8b67035e8162ec3b552b9d922c21c" target="_top" xlink:title=" ">
<polygon fill="white" stroke="#666666" points="124,-709.5 0,-709.5 0,-676 124,-676 124,-709.5"/>
<text text-anchor="start" x="8" y="-696" font-family="Helvetica,sans-Serif" font-size="10.00">PersistentStorage::</text>
<text text-anchor="middle" x="62" y="-683.25" font-family="Helvetica,sans-Serif" font-size="10.00">addComponentAccess</text>
</a>
</g>
</g>
<!-- Node3&#45;&gt;Node4 -->
<g id="edge3_Node000003_Node000004" class="edge">
<title>Node3&#45;&gt;Node4</title>
<g id="a_edge3_Node000003_Node000004"><a xlink:title=" ">
<path fill="none" stroke="#63b8ff" d="M151.14,-692.75C142.16,-692.75 133.08,-692.75 124.34,-692.75"/>
<polygon fill="#63b8ff" stroke="#63b8ff" points="150.91,-696.25 160.91,-692.75 150.91,-689.25 150.91,-696.25"/>
</a>
</g>
</g>
<!-- Node7 -->
<g id="Node000007" class="node">
<title>Node7</title>
<g id="a_Node000007"><a xlink:href="classSqliteIndexStorage.html#a24705db2396e228e40cfbe302361a228" target="_top" xlink:title=" ">
<polygon fill="white" stroke="#666666" points="281.75,-605.5 173.5,-605.5 173.5,-572 281.75,-572 281.75,-605.5"/>
<text text-anchor="start" x="181.5" y="-592" font-family="Helvetica,sans-Serif" font-size="10.00">SqliteIndexStorage</text>
<text text-anchor="middle" x="227.62" y="-579.25" font-family="Helvetica,sans-Serif" font-size="10.00">::addEdge</text>
</a>
</g>
</g>
<!-- Node6&#45;&gt;Node7 -->
<g id="edge6_Node000006_Node000007" class="edge">
<title>Node6&#45;&gt;Node7</title>
<g id="a_edge6_Node000006_Node000007"><a xlink:title=" ">
<path fill="none" stroke="#63b8ff" d="M336.39,-556.22C318.52,-561.61 299.32,-567.41 282.15,-572.59"/>
<polygon fill="#63b8ff" stroke="#63b8ff" points="337.31,-559.6 345.87,-553.36 335.28,-552.89 337.31,-559.6"/>
</a>
</g>
</g>
<!-- Node9 -->
<g id="Node000009" class="node">
<title>Node9</title>
<g id="a_Node000009"><a xlink:href="classPersistentStorage.html#a95a2bb75ae755580c86559d29ec81bd9" target="_top" xlink:title=" ">
<polygon fill="white" stroke="#666666" points="281.75,-553.5 173.5,-553.5 173.5,-520 281.75,-520 281.75,-553.5"/>
<text text-anchor="start" x="181.5" y="-540" font-family="Helvetica,sans-Serif" font-size="10.00">PersistentStorage::</text>
<text text-anchor="middle" x="227.62" y="-527.25" font-family="Helvetica,sans-Serif" font-size="10.00">addEdges</text>
</a>
</g>
</g>
<!-- Node6&#45;&gt;Node9 -->
<g id="edge8_Node000006_Node000009" class="edge">
<title>Node6&#45;&gt;Node9</title>
<g id="a_edge8_Node000006_Node000009"><a xlink:title=" ">
<path fill="none" stroke="#63b8ff" d="M335.89,-536.75C318.16,-536.75 299.16,-536.75 282.15,-536.75"/>
<polygon fill="#63b8ff" stroke="#63b8ff" points="335.8,-540.25 345.8,-536.75 335.8,-533.25 335.8,-540.25"/>
</a>
</g>
</g>
<!-- Node8 -->
<g id="Node000008" class="node">
<title>Node8</title>
<g id="a_Node000008"><a xlink:href="classPersistentStorage.html#af2974a85285b20859b173a16b32547d8" target="_top" xlink:title=" ">
<polygon fill="white" stroke="#666666" points="116.12,-605.5 7.88,-605.5 7.88,-572 116.12,-572 116.12,-605.5"/>
<text text-anchor="start" x="15.88" y="-592" font-family="Helvetica,sans-Serif" font-size="10.00">PersistentStorage::</text>
<text text-anchor="middle" x="62" y="-579.25" font-family="Helvetica,sans-Serif" font-size="10.00">addEdge</text>
</a>
</g>
</g>
<!-- Node7&#45;&gt;Node8 -->
<g id="edge7_Node000007_Node000008" class="edge">
<title>Node7&#45;&gt;Node8</title>
<g id="a_edge7_Node000007_Node000008"><a xlink:title=" ">
<path fill="none" stroke="#63b8ff" d="M161.75,-588.75C146.72,-588.75 130.89,-588.75 116.42,-588.75"/>
<polygon fill="#63b8ff" stroke="#63b8ff" points="161.53,-592.25 171.53,-588.75 161.53,-585.25 161.53,-592.25"/>
</a>
</g>
</g>
<!-- Node11 -->
<g id="Node000011" class="node">
<title>Node11</title>
<g id="a_Node000011"><a xlink:href="classSqliteIndexStorage.html#a3ebdbfbc928f92a9e3f3acbca2bb19c5" target="_top" xlink:title=" ">
<polygon fill="white" stroke="#666666" points="281.75,-501.5 173.5,-501.5 173.5,-468 281.75,-468 281.75,-501.5"/>
<text text-anchor="start" x="181.5" y="-488" font-family="Helvetica,sans-Serif" font-size="10.00">SqliteIndexStorage</text>
<text text-anchor="middle" x="227.62" y="-475.25" font-family="Helvetica,sans-Serif" font-size="10.00">::addLocalSymbol</text>
</a>
</g>
</g>
<!-- Node10&#45;&gt;Node11 -->
<g id="edge10_Node000010_Node000011" class="edge">
<title>Node10&#45;&gt;Node11</title>
<g id="a_edge10_Node000010_Node000011"><a xlink:title=" ">
<path fill="none" stroke="#63b8ff" d="M336.39,-452.22C318.52,-457.61 299.32,-463.41 282.15,-468.59"/>
<polygon fill="#63b8ff" stroke="#63b8ff" points="337.31,-455.6 345.87,-449.36 335.28,-448.89 337.31,-455.6"/>
</a>
</g>
</g>
<!-- Node13 -->
<g id="Node000013" class="node">
<title>Node13</title>
<g id="a_Node000013"><a xlink:href="classPersistentStorage.html#adcb8a27515b1e3bdbe61cb93269a9d93" target="_top" xlink:title=" ">
<polygon fill="white" stroke="#666666" points="281.75,-449.5 173.5,-449.5 173.5,-416 281.75,-416 281.75,-449.5"/>
<text text-anchor="start" x="181.5" y="-436" font-family="Helvetica,sans-Serif" font-size="10.00">PersistentStorage::</text>
<text text-anchor="middle" x="227.62" y="-423.25" font-family="Helvetica,sans-Serif" font-size="10.00">addLocalSymbols</text>
</a>
</g>
</g>
<!-- Node10&#45;&gt;Node13 -->
<g id="edge12_Node000010_Node000013" class="edge">
<title>Node10&#45;&gt;Node13</title>
<g id="a_edge12_Node000010_Node000013"><a xlink:title=" ">
<path fill="none" stroke="#63b8ff" d="M335.89,-432.75C318.16,-432.75 299.16,-432.75 282.15,-432.75"/>
<polygon fill="#63b8ff" stroke="#63b8ff" points="335.8,-436.25 345.8,-432.75 335.8,-429.25 335.8,-436.25"/>
</a>
</g>
</g>
<!-- Node12 -->
<g id="Node000012" class="node">
<title>Node12</title>
<g id="a_Node000012"><a xlink:href="classPersistentStorage.html#a5ebc7dc9faf17d61e842bbc6a6f8cab6" target="_top" xlink:title=" ">
<polygon fill="white" stroke="#666666" points="116.12,-501.5 7.88,-501.5 7.88,-468 116.12,-468 116.12,-501.5"/>
<text text-anchor="start" x="15.88" y="-488" font-family="Helvetica,sans-Serif" font-size="10.00">PersistentStorage::</text>
<text text-anchor="middle" x="62" y="-475.25" font-family="Helvetica,sans-Serif" font-size="10.00">addLocalSymbol</text>
</a>
</g>
</g>
<!-- Node11&#45;&gt;Node12 -->
<g id="edge11_Node000011_Node000012" class="edge">
<title>Node11&#45;&gt;Node12</title>
<g id="a_edge11_Node000011_Node000012"><a xlink:title=" ">
<path fill="none" stroke="#63b8ff" d="M161.75,-484.75C146.72,-484.75 130.89,-484.75 116.42,-484.75"/>
<polygon fill="#63b8ff" stroke="#63b8ff" points="161.53,-488.25 171.53,-484.75 161.53,-481.25 161.53,-488.25"/>
</a>
</g>
</g>
<!-- Node15 -->
<g id="Node000015" class="node">
<title>Node15</title>
<g id="a_Node000015"><a xlink:href="classSqliteIndexStorage.html#a84c1821b714be392b585f11387cb77d9" target="_top" xlink:title=" ">
<polygon fill="white" stroke="#666666" points="281.75,-397.5 173.5,-397.5 173.5,-364 281.75,-364 281.75,-397.5"/>
<text text-anchor="start" x="181.5" y="-384" font-family="Helvetica,sans-Serif" font-size="10.00">SqliteIndexStorage</text>
<text text-anchor="middle" x="227.62" y="-371.25" font-family="Helvetica,sans-Serif" font-size="10.00">::addNode</text>
</a>
</g>
</g>
<!-- Node14&#45;&gt;Node15 -->
<g id="edge14_Node000014_Node000015" class="edge">
<title>Node14&#45;&gt;Node15</title>
<g id="a_edge14_Node000014_Node000015"><a xlink:title=" ">
<path fill="none" stroke="#63b8ff" d="M336.14,-364.52C318.34,-367.21 299.24,-370.09 282.15,-372.67"/>
<polygon fill="#63b8ff" stroke="#63b8ff" points="336.46,-368.01 345.82,-363.06 335.41,-361.09 336.46,-368.01"/>
</a>
</g>
</g>
<!-- Node17 -->
<g id="Node000017" class="node">
<title>Node17</title>
<g id="a_Node000017"><a xlink:href="classPersistentStorage.html#a7fed17c9a0f386725122c37e1b2b2523" target="_top" xlink:title=" ">
<polygon fill="white" stroke="#666666" points="281.75,-345.5 173.5,-345.5 173.5,-312 281.75,-312 281.75,-345.5"/>
<text text-anchor="start" x="181.5" y="-332" font-family="Helvetica,sans-Serif" font-size="10.00">PersistentStorage::</text>
<text text-anchor="middle" x="227.62" y="-319.25" font-family="Helvetica,sans-Serif" font-size="10.00">addNodes</text>
</a>
</g>
</g>
<!-- Node14&#45;&gt;Node17 -->
<g id="edge16_Node000014_Node000017" class="edge">
<title>Node14&#45;&gt;Node17</title>
<g id="a_edge16_Node000014_Node000017"><a xlink:title=" ">
<path fill="none" stroke="#63b8ff" d="M336.14,-344.98C318.34,-342.29 299.24,-339.41 282.15,-336.83"/>
<polygon fill="#63b8ff" stroke="#63b8ff" points="335.41,-348.41 345.82,-346.44 336.46,-341.49 335.41,-348.41"/>
</a>
</g>
</g>
<!-- Node16 -->
<g id="Node000016" class="node">
<title>Node16</title>
<g id="a_Node000016"><a xlink:href="classPersistentStorage.html#a205d5aba3025573043386cefbf9bcd97" target="_top" xlink:title=" ">
<polygon fill="white" stroke="#666666" points="116.12,-397.5 7.88,-397.5 7.88,-364 116.12,-364 116.12,-397.5"/>
<text text-anchor="start" x="15.88" y="-384" font-family="Helvetica,sans-Serif" font-size="10.00">PersistentStorage::</text>
<text text-anchor="middle" x="62" y="-371.25" font-family="Helvetica,sans-Serif" font-size="10.00">addNode</text>
</a>
</g>
</g>
<!-- Node15&#45;&gt;Node16 -->
<g id="edge15_Node000015_Node000016" class="edge">
<title>Node15&#45;&gt;Node16</title>
<g id="a_edge15_Node000015_Node000016"><a xlink:title=" ">
<path fill="none" stroke="#63b8ff" d="M161.75,-380.75C146.72,-380.75 130.89,-380.75 116.42,-380.75"/>
<polygon fill="#63b8ff" stroke="#63b8ff" points="161.53,-384.25 171.53,-380.75 161.53,-377.25 161.53,-384.25"/>
</a>
</g>
</g>
<!-- Node19 -->
<g id="Node000019" class="node">
<title>Node19</title>
<g id="a_Node000019"><a xlink:href="classSqliteIndexStorage.html#a0817f9fc93a49191dc7e52d41f0c555b" target="_top" xlink:title=" ">
<polygon fill="white" stroke="#666666" points="281.75,-293.5 173.5,-293.5 173.5,-260 281.75,-260 281.75,-293.5"/>
<text text-anchor="start" x="181.5" y="-280" font-family="Helvetica,sans-Serif" font-size="10.00">SqliteIndexStorage</text>
<text text-anchor="middle" x="227.62" y="-267.25" font-family="Helvetica,sans-Serif" font-size="10.00">::addOccurrence</text>
</a>
</g>
</g>
<!-- Node18&#45;&gt;Node19 -->
<g id="edge18_Node000018_Node000019" class="edge">
<title>Node18&#45;&gt;Node19</title>
<g id="a_edge18_Node000018_Node000019"><a xlink:title=" ">
<path fill="none" stroke="#63b8ff" d="M335.89,-276.75C318.16,-276.75 299.16,-276.75 282.15,-276.75"/>
<polygon fill="#63b8ff" stroke="#63b8ff" points="335.8,-280.25 345.8,-276.75 335.8,-273.25 335.8,-280.25"/>
</a>
</g>
</g>
<!-- Node21 -->
<g id="Node000021" class="node">
<title>Node21</title>
<g id="a_Node000021"><a xlink:href="classPersistentStorage.html#a28ea7ebaa4fc9b4cc2a5b6a5ec1c6486" target="_top" xlink:title=" ">
<polygon fill="white" stroke="#666666" points="281.75,-241.5 173.5,-241.5 173.5,-208 281.75,-208 281.75,-241.5"/>
<text text-anchor="start" x="181.5" y="-228" font-family="Helvetica,sans-Serif" font-size="10.00">PersistentStorage::</text>
<text text-anchor="middle" x="227.62" y="-215.25" font-family="Helvetica,sans-Serif" font-size="10.00">addOccurrences</text>
</a>
</g>
</g>
<!-- Node18&#45;&gt;Node21 -->
<g id="edge20_Node000018_Node000021" class="edge">
<title>Node18&#45;&gt;Node21</title>
<g id="a_edge20_Node000018_Node000021"><a xlink:title=" ">
<path fill="none" stroke="#63b8ff" d="M336.39,-257.28C318.52,-251.89 299.32,-246.09 282.15,-240.91"/>
<polygon fill="#63b8ff" stroke="#63b8ff" points="335.28,-260.61 345.87,-260.14 337.31,-253.9 335.28,-260.61"/>
</a>
</g>
</g>
<!-- Node20 -->
<g id="Node000020" class="node">
<title>Node20</title>
<g id="a_Node000020"><a xlink:href="classPersistentStorage.html#a36edf73dd34b0963781b6699d4a9d084" target="_top" xlink:title=" ">
<polygon fill="white" stroke="#666666" points="116.12,-293.5 7.88,-293.5 7.88,-260 116.12,-260 116.12,-293.5"/>
<text text-anchor="start" x="15.88" y="-280" font-family="Helvetica,sans-Serif" font-size="10.00">PersistentStorage::</text>
<text text-anchor="middle" x="62" y="-267.25" font-family="Helvetica,sans-Serif" font-size="10.00">addOccurrence</text>
</a>
</g>
</g>
<!-- Node19&#45;&gt;Node20 -->
<g id="edge19_Node000019_Node000020" class="edge">
<title>Node19&#45;&gt;Node20</title>
<g id="a_edge19_Node000019_Node000020"><a xlink:title=" ">
<path fill="none" stroke="#63b8ff" d="M161.75,-276.75C146.72,-276.75 130.89,-276.75 116.42,-276.75"/>
<polygon fill="#63b8ff" stroke="#63b8ff" points="161.53,-280.25 171.53,-276.75 161.53,-273.25 161.53,-280.25"/>
</a>
</g>
</g>
<!-- Node23 -->
<g id="Node000023" class="node">
<title>Node23</title>
<g id="a_Node000023"><a xlink:href="classSqliteIndexStorage.html#a6e673b40a1a03faf0510ce92075bd898" target="_top" xlink:title=" ">
<polygon fill="white" stroke="#666666" points="284.75,-189.5 170.5,-189.5 170.5,-156 284.75,-156 284.75,-189.5"/>
<text text-anchor="start" x="178.5" y="-176" font-family="Helvetica,sans-Serif" font-size="10.00">SqliteIndexStorage</text>
<text text-anchor="middle" x="227.62" y="-163.25" font-family="Helvetica,sans-Serif" font-size="10.00">::addSourceLocation</text>
</a>
</g>
</g>
<!-- Node22&#45;&gt;Node23 -->
<g id="edge22_Node000022_Node000023" class="edge">
<title>Node22&#45;&gt;Node23</title>
<g id="a_edge22_Node000022_Node000023"><a xlink:title=" ">
<path fill="none" stroke="#63b8ff" d="M330.66,-172.75C315.5,-172.75 299.67,-172.75 285.12,-172.75"/>
<polygon fill="#63b8ff" stroke="#63b8ff" points="330.56,-176.25 340.56,-172.75 330.56,-169.25 330.56,-176.25"/>
</a>
</g>
</g>
<!-- Node25 -->
<g id="Node000025" class="node">
<title>Node25</title>
<g id="a_Node000025"><a xlink:href="classPersistentStorage.html#a1952f2f981db9904705d857dfe6e55e3" target="_top" xlink:title=" ">
<polygon fill="white" stroke="#666666" points="284.38,-137.5 170.88,-137.5 170.88,-104 284.38,-104 284.38,-137.5"/>
<text text-anchor="start" x="178.88" y="-124" font-family="Helvetica,sans-Serif" font-size="10.00">PersistentStorage::</text>
<text text-anchor="middle" x="227.62" y="-111.25" font-family="Helvetica,sans-Serif" font-size="10.00">addSourceLocations</text>
</a>
</g>
</g>
<!-- Node22&#45;&gt;Node25 -->
<g id="edge24_Node000022_Node000025" class="edge">
<title>Node22&#45;&gt;Node25</title>
<g id="a_edge24_Node000022_Node000025"><a xlink:title=" ">
<path fill="none" stroke="#63b8ff" d="M333.1,-152.29C317.13,-147.47 300.26,-142.38 284.86,-137.73"/>
<polygon fill="#63b8ff" stroke="#63b8ff" points="331.96,-155.6 342.55,-155.14 333.99,-148.9 331.96,-155.6"/>
</a>
</g>
</g>
<!-- Node24 -->
<g id="Node000024" class="node">
<title>Node24</title>
<g id="a_Node000024"><a xlink:href="classPersistentStorage.html#ad9690a494fe94f5da99e82e10b0195e8" target="_top" xlink:title=" ">
<polygon fill="white" stroke="#666666" points="116.12,-189.5 7.88,-189.5 7.88,-156 116.12,-156 116.12,-189.5"/>
<text text-anchor="start" x="15.88" y="-176" font-family="Helvetica,sans-Serif" font-size="10.00">PersistentStorage::</text>
<text text-anchor="middle" x="62" y="-163.25" font-family="Helvetica,sans-Serif" font-size="10.00">addSourceLocation</text>
</a>
</g>
</g>
<!-- Node23&#45;&gt;Node24 -->
<g id="edge23_Node000023_Node000024" class="edge">
<title>Node23&#45;&gt;Node24</title>
<g id="a_edge23_Node000023_Node000024"><a xlink:title=" ">
<path fill="none" stroke="#63b8ff" d="M159.06,-172.75C144.83,-172.75 130,-172.75 116.38,-172.75"/>
<polygon fill="#63b8ff" stroke="#63b8ff" points="158.8,-176.25 168.8,-172.75 158.8,-169.25 158.8,-176.25"/>
</a>
</g>
</g>
<!-- Node27 -->
<g id="Node000027" class="node">
<title>Node27</title>
<g id="a_Node000027"><a xlink:href="classSqliteIndexStorage.html#a699fc5d275bfeed52f17fff3576aa833" target="_top" xlink:title=" ">
<polygon fill="white" stroke="#666666" points="281.75,-85.5 173.5,-85.5 173.5,-52 281.75,-52 281.75,-85.5"/>
<text text-anchor="start" x="181.5" y="-72" font-family="Helvetica,sans-Serif" font-size="10.00">SqliteIndexStorage</text>
<text text-anchor="middle" x="227.62" y="-59.25" font-family="Helvetica,sans-Serif" font-size="10.00">::addSymbol</text>
</a>
</g>
</g>
<!-- Node26&#45;&gt;Node27 -->
<g id="edge26_Node000026_Node000027" class="edge">
<title>Node26&#45;&gt;Node27</title>
<g id="a_edge26_Node000026_Node000027"><a xlink:title=" ">
<path fill="none" stroke="#63b8ff" d="M335.89,-68.75C318.16,-68.75 299.16,-68.75 282.15,-68.75"/>
<polygon fill="#63b8ff" stroke="#63b8ff" points="335.8,-72.25 345.8,-68.75 335.8,-65.25 335.8,-72.25"/>
</a>
</g>
</g>
<!-- Node29 -->
<g id="Node000029" class="node">
<title>Node29</title>
<g id="a_Node000029"><a xlink:href="classPersistentStorage.html#a0aee29179447b575ef1ff68ecf678cd3" target="_top" xlink:title=" ">
<polygon fill="white" stroke="#666666" points="281.75,-33.5 173.5,-33.5 173.5,0 281.75,0 281.75,-33.5"/>
<text text-anchor="start" x="181.5" y="-20" font-family="Helvetica,sans-Serif" font-size="10.00">PersistentStorage::</text>
<text text-anchor="middle" x="227.62" y="-7.25" font-family="Helvetica,sans-Serif" font-size="10.00">addSymbols</text>
</a>
</g>
</g>
<!-- Node26&#45;&gt;Node29 -->
<g id="edge28_Node000026_Node000029" class="edge">
<title>Node26&#45;&gt;Node29</title>
<g id="a_edge28_Node000026_Node000029"><a xlink:title=" ">
<path fill="none" stroke="#63b8ff" d="M336.39,-49.28C318.52,-43.89 299.32,-38.09 282.15,-32.91"/>
<polygon fill="#63b8ff" stroke="#63b8ff" points="335.28,-52.61 345.87,-52.14 337.31,-45.9 335.28,-52.61"/>
</a>
</g>
</g>
<!-- Node28 -->
<g id="Node000028" class="node">
<title>Node28</title>
<g id="a_Node000028"><a xlink:href="classPersistentStorage.html#a509048cd3cf11916c4f394934f60d866" target="_top" xlink:title=" ">
<polygon fill="white" stroke="#666666" points="116.12,-85.5 7.88,-85.5 7.88,-52 116.12,-52 116.12,-85.5"/>
<text text-anchor="start" x="15.88" y="-72" font-family="Helvetica,sans-Serif" font-size="10.00">PersistentStorage::</text>
<text text-anchor="middle" x="62" y="-59.25" font-family="Helvetica,sans-Serif" font-size="10.00">addSymbol</text>
</a>
</g>
</g>
<!-- Node27&#45;&gt;Node28 -->
<g id="edge27_Node000027_Node000028" class="edge">
<title>Node27&#45;&gt;Node28</title>
<g id="a_edge27_Node000027_Node000028"><a xlink:title=" ">
<path fill="none" stroke="#63b8ff" d="M161.75,-68.75C146.72,-68.75 130.89,-68.75 116.42,-68.75"/>
<polygon fill="#63b8ff" stroke="#63b8ff" points="161.53,-72.25 171.53,-68.75 161.53,-65.25 161.53,-72.25"/>
</a>
</g>
</g>
</g>
</svg>

<g id="navigator" transform="translate(0 0)" fill="#404254">
  <rect fill="#f2f5e9" fill-opacity="0.5" stroke="#606060" stroke-width=".5" x="0" y="0" width="60" height="60"/>
  <use id="zoomplus" xlink:href="#zoomPlus" x="17" y="9" onmousedown="handleZoom(evt,'in')"/>
  <use id="zoomminus" xlink:href="#zoomMin" x="42" y="9" onmousedown="handleZoom(evt,'out')"/>
  <use id="reset" xlink:href="#resetDef" x="30" y="36" onmousedown="handleReset()"/>
   <use id="arrowup" xlink:href="#arrowUp" x="0" y="0" onmousedown="handlePan(0,-1)"/>
  <use id="arrowright" xlink:href="#arrowRight" x="0" y="0" onmousedown="handlePan(1,0)"/>
  <use id="arrowdown" xlink:href="#arrowDown" x="0" y="0" onmousedown="handlePan(0,1)"/>
  <use id="arrowleft" xlink:href="#arrowLeft" x="0" y="0" onmousedown="handlePan(-1,0)"/>
</g>
<svg viewBox="0 0 15 15" width="100%" height="30px" preserveAspectRatio="xMaxYMin meet">
 <g id="arrow_out" transform="scale(0.3 0.3)">
  <a xlink:href="classSqliteIndexStorage_1_1InsertBatchStatement_acaa5199762bf4a7671c03fb87a03abfb_icgraph_org.svg" target="_base">
   <rect id="button" ry="5" rx="5" y="6" x="6" height="38" width="38"
        fill="#f2f5e9" fill-opacity="0.5" stroke="#606060" stroke-width="1.0"/>
   <path id="arrow"
     d="M 11.500037,31.436501 C 11.940474,20.09759 22.043105,11.32322 32.158766,21.979434 L 37.068811,17.246167 C 37.068811,17.246167 37.088388,32 37.088388,32 L 22.160133,31.978069 C 22.160133,31.978069 26.997745,27.140456 26.997745,27.140456 C 18.528582,18.264221 13.291696,25.230495 11.500037,31.436501 z"
     style="fill:#404040;"/>
  </a>
 </g>
</svg>

<style type='text/css'>
<![CDATA[
[data-mouse-over-selected='false'] { opacity: 0.7; }
[data-mouse-over-selected='true']  { opacity: 1.0; }
]]>
</style>
<script type="application/ecmascript"><![CDATA[
document.addEventListener('DOMContentLoaded', (event) => {
  highlightEdges();
  highlightAdjacentNodes();
});
]]></script>
</svg>
