<?xml version="1.0" encoding="UTF-8" standalone="no"?>
<!DOCTYPE svg PUBLIC "-//W3C//DTD SVG 1.1//EN"
 "http://www.w3.org/Graphics/SVG/1.1/DTD/svg11.dtd">
<!-- Generated by graphviz version 9.0.0 (0)
 -->
<!-- Title: QtScreenSearchBox::setFocus Pages: 1 -->
<svg width="439pt" height="146pt"
 viewBox="0.00 0.00 439.25 145.50" xmlns="http://www.w3.org/2000/svg" xmlns:xlink="http://www.w3.org/1999/xlink">

<svg id="main" version="1.1" xmlns="http://www.w3.org/2000/svg" xmlns:xlink="http://www.w3.org/1999/xlink" xml:space="preserve" onload="init(evt)">
<style type="text/css"><![CDATA[
.node, .edge {opacity: 0.7;}
.node.selected, .edge.selected {opacity: 1;}
.edge:hover path { stroke: red; }
.edge:hover polygon { stroke: red; fill: red; }
]]></style>
<script type="application/ecmascript" xlink:href="svg.min.js"/>
<svg id="graph" class="graph">
<g id="graph0" class="graph" transform="scale(1 1) rotate(0) translate(4 141.5)">
<title>QtScreenSearchBox::setFocus</title>
<!-- Node1 -->
<g id="Node000001" class="node">
<title>Node1</title>
<g id="a_Node000001"><a xlink:title=" ">
<polygon fill="#999999" stroke="#666666" points="431.25,-85.5 313.25,-85.5 313.25,-52 431.25,-52 431.25,-85.5"/>
<text text-anchor="start" x="321.25" y="-72" font-family="Helvetica,sans-Serif" font-size="10.00">QtScreenSearchBox::</text>
<text text-anchor="middle" x="372.25" y="-59.25" font-family="Helvetica,sans-Serif" font-size="10.00">setFocus</text>
</a>
</g>
</g>
<!-- Node2 -->
<g id="Node000002" class="node">
<title>Node2</title>
<g id="a_Node000002"><a xlink:href="classQtScreenSearchBox.html#adfcd6762718322758020a3c99a717658" target="_top" xlink:title=" ">
<polygon fill="white" stroke="#666666" points="277.25,-137.5 159.25,-137.5 159.25,-104 277.25,-104 277.25,-137.5"/>
<text text-anchor="start" x="167.25" y="-124" font-family="Helvetica,sans-Serif" font-size="10.00">QtScreenSearchBox::</text>
<text text-anchor="middle" x="218.25" y="-111.25" font-family="Helvetica,sans-Serif" font-size="10.00">createMatchButton</text>
</a>
</g>
</g>
<!-- Node1&#45;&gt;Node2 -->
<g id="edge1_Node000001_Node000002" class="edge">
<title>Node1&#45;&gt;Node2</title>
<g id="a_edge1_Node000001_Node000002"><a xlink:title=" ">
<path fill="none" stroke="#63b8ff" d="M310.39,-89.57C296.88,-94.19 282.69,-99.05 269.65,-103.51"/>
<polygon fill="#63b8ff" stroke="#63b8ff" points="311.3,-92.96 319.63,-86.41 309.03,-86.34 311.3,-92.96"/>
</a>
</g>
</g>
<!-- Node4 -->
<g id="Node000004" class="node">
<title>Node4</title>
<g id="a_Node000004"><a xlink:href="classQtScreenSearchBox.html#a02237d5585e74f02c9aed8351742308a" target="_top" xlink:title=" ">
<polygon fill="white" stroke="#666666" points="277.25,-85.5 159.25,-85.5 159.25,-52 277.25,-52 277.25,-85.5"/>
<text text-anchor="start" x="167.25" y="-72" font-family="Helvetica,sans-Serif" font-size="10.00">QtScreenSearchBox::</text>
<text text-anchor="middle" x="218.25" y="-59.25" font-family="Helvetica,sans-Serif" font-size="10.00">createSearchField</text>
</a>
</g>
</g>
<!-- Node1&#45;&gt;Node4 -->
<g id="edge3_Node000001_Node000004" class="edge">
<title>Node1&#45;&gt;Node4</title>
<g id="a_edge3_Node000001_Node000004"><a xlink:title=" ">
<path fill="none" stroke="#63b8ff" d="M301.68,-68.75C293.65,-68.75 285.53,-68.75 277.68,-68.75"/>
<polygon fill="#63b8ff" stroke="#63b8ff" points="301.4,-72.25 311.4,-68.75 301.4,-65.25 301.4,-72.25"/>
</a>
</g>
</g>
<!-- Node5 -->
<g id="Node000005" class="node">
<title>Node5</title>
<g id="a_Node000005"><a xlink:href="classQtScreenSearchView.html#a70b8f19ed1be88e1a7052f14508a1ba4" target="_top" xlink:title=" ">
<polygon fill="white" stroke="#666666" points="276.88,-33.5 159.62,-33.5 159.62,0 276.88,0 276.88,-33.5"/>
<text text-anchor="start" x="167.62" y="-20" font-family="Helvetica,sans-Serif" font-size="10.00">QtScreenSearchView</text>
<text text-anchor="middle" x="218.25" y="-7.25" font-family="Helvetica,sans-Serif" font-size="10.00">::show</text>
</a>
</g>
</g>
<!-- Node1&#45;&gt;Node5 -->
<g id="edge5_Node000001_Node000005" class="edge">
<title>Node1&#45;&gt;Node5</title>
<g id="a_edge5_Node000001_Node000005"><a xlink:title=" ">
<path fill="none" stroke="#63b8ff" d="M310.39,-47.93C296.88,-43.31 282.69,-38.45 269.65,-33.99"/>
<polygon fill="#63b8ff" stroke="#63b8ff" points="309.03,-51.16 319.63,-51.09 311.3,-44.54 309.03,-51.16"/>
</a>
</g>
</g>
<!-- Node3 -->
<g id="Node000003" class="node">
<title>Node3</title>
<g id="a_Node000003"><a xlink:href="classQtScreenSearchBox.html#a8297d5a13f70e1ab57a751fd81bfabbb" target="_top" xlink:title=" ">
<polygon fill="white" stroke="#666666" points="120.62,-111.5 2.62,-111.5 2.62,-78 120.62,-78 120.62,-111.5"/>
<text text-anchor="start" x="10.62" y="-98" font-family="Helvetica,sans-Serif" font-size="10.00">QtScreenSearchBox::</text>
<text text-anchor="middle" x="61.62" y="-85.25" font-family="Helvetica,sans-Serif" font-size="10.00">QtScreenSearchBox</text>
</a>
</g>
</g>
<!-- Node2&#45;&gt;Node3 -->
<g id="edge2_Node000002_Node000003" class="edge">
<title>Node2&#45;&gt;Node3</title>
<g id="a_edge2_Node000002_Node000003"><a xlink:title=" ">
<path fill="none" stroke="#63b8ff" d="M147.6,-109.04C138.68,-107.54 129.62,-106.02 120.91,-104.55"/>
<polygon fill="#63b8ff" stroke="#63b8ff" points="146.86,-112.46 157.3,-110.67 148.02,-105.56 146.86,-112.46"/>
</a>
</g>
</g>
<!-- Node4&#45;&gt;Node3 -->
<g id="edge4_Node000004_Node000003" class="edge">
<title>Node4&#45;&gt;Node3</title>
<g id="a_edge4_Node000004_Node000003"><a xlink:title=" ">
<path fill="none" stroke="#63b8ff" d="M147.6,-80.46C138.68,-81.96 129.62,-83.48 120.91,-84.95"/>
<polygon fill="#63b8ff" stroke="#63b8ff" points="148.02,-83.94 157.3,-78.83 146.86,-77.04 148.02,-83.94"/>
</a>
</g>
</g>
<!-- Node6 -->
<g id="Node000006" class="node">
<title>Node6</title>
<g id="a_Node000006"><a xlink:href="classQtScreenSearchView.html#ae8621a116b2525583a38e7502a19842c" target="_top" xlink:title=" ">
<polygon fill="white" stroke="#666666" points="123.25,-33.5 0,-33.5 0,0 123.25,0 123.25,-33.5"/>
<text text-anchor="start" x="8" y="-20" font-family="Helvetica,sans-Serif" font-size="10.00">QtScreenSearchView</text>
<text text-anchor="middle" x="61.62" y="-7.25" font-family="Helvetica,sans-Serif" font-size="10.00">::QtScreenSearchView</text>
</a>
</g>
</g>
<!-- Node5&#45;&gt;Node6 -->
<g id="edge6_Node000005_Node000006" class="edge">
<title>Node5&#45;&gt;Node6</title>
<g id="a_edge6_Node000005_Node000006"><a xlink:title=" ">
<path fill="none" stroke="#63b8ff" d="M147.88,-16.75C139.77,-16.75 131.54,-16.75 123.55,-16.75"/>
<polygon fill="#63b8ff" stroke="#63b8ff" points="147.72,-20.25 157.72,-16.75 147.72,-13.25 147.72,-20.25"/>
</a>
</g>
</g>
</g>
</svg>
</svg>

<style type='text/css'>
<![CDATA[
[data-mouse-over-selected='false'] { opacity: 0.7; }
[data-mouse-over-selected='true']  { opacity: 1.0; }
]]>
</style>
<script type="application/ecmascript"><![CDATA[
document.addEventListener('DOMContentLoaded', (event) => {
  highlightEdges();
  highlightAdjacentNodes();
});
]]></script>
</svg>
