<?xml version="1.0" encoding="UTF-8" standalone="no"?>
<!DOCTYPE svg PUBLIC "-//W3C//DTD SVG 1.1//EN"
 "http://www.w3.org/Graphics/SVG/1.1/DTD/svg11.dtd">
<!-- Generated by graphviz version 7.1.0 (0)
 -->
<!-- Title: SqliteIndexStorage::getFileContentByPath Pages: 1 -->
<svg width="508pt" height="128pt"
 viewBox="0.00 0.00 508.00 127.50" xmlns="http://www.w3.org/2000/svg" xmlns:xlink="http://www.w3.org/1999/xlink">
<g id="graph0" class="graph" transform="scale(1 1) rotate(0) translate(4 123.5)">
<title>SqliteIndexStorage::getFileContentByPath</title>
<!-- Node1 -->
<g id="node1" class="node">
<title>Node1</title>
<g id="a_node1"><a xlink:title=" ">
<polygon fill="#999999" stroke="#666666" points="128,-61.5 0,-61.5 0,-31.5 128,-31.5 128,-61.5"/>
<text text-anchor="start" x="8" y="-49.5" font-family="Helvetica,sans-Serif" font-size="10.00">SqliteIndexStorage</text>
<text text-anchor="middle" x="64" y="-38.5" font-family="Helvetica,sans-Serif" font-size="10.00">::getFileContentByPath</text>
</a>
</g>
</g>
<!-- Node2 -->
<g id="node2" class="node">
<title>Node2</title>
<g id="a_node2"><a xlink:href="classTextAccess.html#ad29173a474a19d33efa045d51e70a86d" target="_top" xlink:title=" ">
<polygon fill="white" stroke="#666666" points="325,-93 164,-93 164,-74 325,-74 325,-93"/>
<text text-anchor="middle" x="244.5" y="-81" font-family="Helvetica,sans-Serif" font-size="10.00">TextAccess::createFromString</text>
</a>
</g>
</g>
<!-- Node1&#45;&gt;Node2 -->
<g id="edge1" class="edge">
<title>Node1&#45;&gt;Node2</title>
<path fill="none" stroke="#63b8ff" d="M128.44,-59.65C146.61,-63.42 166.34,-67.51 184.25,-71.22"/>
<polygon fill="#63b8ff" stroke="#63b8ff" points="183.44,-74.62 193.94,-73.23 184.86,-67.77 183.44,-74.62"/>
</g>
<!-- Node5 -->
<g id="node5" class="node">
<title>Node5</title>
<g id="a_node5"><a xlink:href="namespaceutility.html#a3370ea0d4afa1a0a4376d2fe034799ce" target="_top" xlink:title=" ">
<polygon fill="white" stroke="#666666" points="303,-56 186,-56 186,-37 303,-37 303,-56"/>
<text text-anchor="middle" x="244.5" y="-44" font-family="Helvetica,sans-Serif" font-size="10.00">utility::encodeToUtf8</text>
</a>
</g>
</g>
<!-- Node1&#45;&gt;Node5 -->
<g id="edge4" class="edge">
<title>Node1&#45;&gt;Node5</title>
<path fill="none" stroke="#63b8ff" d="M128.44,-46.5C143.29,-46.5 159.18,-46.5 174.27,-46.5"/>
<polygon fill="#63b8ff" stroke="#63b8ff" points="174.11,-50 184.11,-46.5 174.11,-43 174.11,-50"/>
</g>
<!-- Node6 -->
<g id="node6" class="node">
<title>Node6</title>
<g id="a_node6"><a xlink:href="classSqliteStorage.html#a6a89b1a3823a6ba065874769b09bf9cc" target="_top" xlink:title=" ">
<polygon fill="white" stroke="#666666" points="322.5,-19 166.5,-19 166.5,0 322.5,0 322.5,-19"/>
<text text-anchor="middle" x="244.5" y="-7" font-family="Helvetica,sans-Serif" font-size="10.00">SqliteStorage::executeQuery</text>
</a>
</g>
</g>
<!-- Node1&#45;&gt;Node6 -->
<g id="edge5" class="edge">
<title>Node1&#45;&gt;Node6</title>
<path fill="none" stroke="#63b8ff" d="M128.44,-33.35C146.61,-29.58 166.34,-25.49 184.25,-21.78"/>
<polygon fill="#63b8ff" stroke="#63b8ff" points="184.86,-25.23 193.94,-19.77 183.44,-18.38 184.86,-25.23"/>
</g>
<!-- Node3 -->
<g id="node3" class="node">
<title>Node3</title>
<g id="a_node3"><a xlink:href="classTextAccess.html#a6031ad7d6e4ff95f6be917b2b6392fe6" target="_top" xlink:title=" ">
<polygon fill="white" stroke="#666666" points="500,-119.5 361,-119.5 361,-89.5 500,-89.5 500,-119.5"/>
<text text-anchor="start" x="369" y="-107.5" font-family="Helvetica,sans-Serif" font-size="10.00">TextAccess::splitStringBy</text>
<text text-anchor="middle" x="430.5" y="-96.5" font-family="Helvetica,sans-Serif" font-size="10.00">Lines</text>
</a>
</g>
</g>
<!-- Node2&#45;&gt;Node3 -->
<g id="edge2" class="edge">
<title>Node2&#45;&gt;Node3</title>
<path fill="none" stroke="#63b8ff" d="M325.4,-92.62C333.38,-93.53 341.48,-94.45 349.46,-95.36"/>
<polygon fill="#63b8ff" stroke="#63b8ff" points="348.79,-98.81 359.12,-96.47 349.59,-91.86 348.79,-98.81"/>
</g>
<!-- Node4 -->
<g id="node4" class="node">
<title>Node4</title>
<g id="a_node4"><a xlink:href="classTextAccess.html#a17086d2cc3eee9bbef8352489382f721" target="_top" xlink:title=" ">
<polygon fill="white" stroke="#666666" points="496,-71 365,-71 365,-52 496,-52 496,-71"/>
<text text-anchor="middle" x="430.5" y="-59" font-family="Helvetica,sans-Serif" font-size="10.00">TextAccess::TextAccess</text>
</a>
</g>
</g>
<!-- Node2&#45;&gt;Node4 -->
<g id="edge3" class="edge">
<title>Node2&#45;&gt;Node4</title>
<path fill="none" stroke="#63b8ff" d="M325.4,-73.95C334.71,-72.83 344.19,-71.7 353.44,-70.59"/>
<polygon fill="#63b8ff" stroke="#63b8ff" points="353.58,-74.1 363.09,-69.44 352.75,-67.15 353.58,-74.1"/>
</g>
</g>
</svg>
