<?xml version="1.0" encoding="UTF-8" standalone="no"?>
<!DOCTYPE svg PUBLIC "-//W3C//DTD SVG 1.1//EN"
 "http://www.w3.org/Graphics/SVG/1.1/DTD/svg11.dtd">
<!-- Generated by graphviz version 7.1.0 (0)
 -->
<!-- Title: PersistentStorage::buildFilePathMaps Pages: 1 -->
<svg width="432pt" height="131pt"
 viewBox="0.00 0.00 432.00 130.50" xmlns="http://www.w3.org/2000/svg" xmlns:xlink="http://www.w3.org/1999/xlink">
<g id="graph0" class="graph" transform="scale(1 1) rotate(0) translate(4 126.5)">
<title>PersistentStorage::buildFilePathMaps</title>
<!-- Node1 -->
<g id="node1" class="node">
<title>Node1</title>
<g id="a_node1"><a xlink:title=" ">
<polygon fill="#999999" stroke="#666666" points="109,-61.5 0,-61.5 0,-31.5 109,-31.5 109,-61.5"/>
<text text-anchor="start" x="8" y="-49.5" font-family="Helvetica,sans-Serif" font-size="10.00">PersistentStorage::</text>
<text text-anchor="middle" x="54.5" y="-38.5" font-family="Helvetica,sans-Serif" font-size="10.00">buildFilePathMaps</text>
</a>
</g>
</g>
<!-- Node2 -->
<g id="node2" class="node">
<title>Node2</title>
<g id="a_node2"><a xlink:href="classSqliteIndexStorage.html#a409f4badb073c0516d2df64a44a6ff65" target="_top" xlink:title=" ">
<polygon fill="white" stroke="#666666" points="264.5,-104.5 155.5,-104.5 155.5,-74.5 264.5,-74.5 264.5,-104.5"/>
<text text-anchor="start" x="163.5" y="-92.5" font-family="Helvetica,sans-Serif" font-size="10.00">SqliteIndexStorage</text>
<text text-anchor="middle" x="210" y="-81.5" font-family="Helvetica,sans-Serif" font-size="10.00">::forEach</text>
</a>
</g>
</g>
<!-- Node1&#45;&gt;Node2 -->
<g id="edge1" class="edge">
<title>Node1&#45;&gt;Node2</title>
<path fill="none" stroke="#63b8ff" d="M109.19,-61.54C120.46,-64.7 132.46,-68.06 144.08,-71.32"/>
<polygon fill="#63b8ff" stroke="#63b8ff" points="143.05,-74.66 153.63,-73.99 144.94,-67.92 143.05,-74.66"/>
</g>
<!-- Node3 -->
<g id="node3" class="node">
<title>Node3</title>
<g id="a_node3"><a xlink:href="classFilePath.html#a1847c2d6806448576509c6c2038b129c" target="_top" xlink:title=" ">
<polygon fill="white" stroke="#666666" points="275,-56 145,-56 145,-37 275,-37 275,-56"/>
<text text-anchor="middle" x="210" y="-44" font-family="Helvetica,sans-Serif" font-size="10.00">FilePath::getLowerCase</text>
</a>
</g>
</g>
<!-- Node1&#45;&gt;Node3 -->
<g id="edge3" class="edge">
<title>Node1&#45;&gt;Node3</title>
<path fill="none" stroke="#63b8ff" d="M109.19,-46.5C116.94,-46.5 125.05,-46.5 133.14,-46.5"/>
<polygon fill="#63b8ff" stroke="#63b8ff" points="133.01,-50 143.01,-46.5 133.01,-43 133.01,-50"/>
</g>
<!-- Node7 -->
<g id="node7" class="node">
<title>Node7</title>
<g id="a_node7"><a xlink:href="DefinitionKind_8cpp.html#af82547a67b5aefa763d378857bb9c03a" target="_top" xlink:title=" ">
<polygon fill="white" stroke="#666666" points="265,-19 155,-19 155,0 265,0 265,-19"/>
<text text-anchor="middle" x="210" y="-7" font-family="Helvetica,sans-Serif" font-size="10.00">intToDefinitionKind</text>
</a>
</g>
</g>
<!-- Node1&#45;&gt;Node7 -->
<g id="edge7" class="edge">
<title>Node1&#45;&gt;Node7</title>
<path fill="none" stroke="#63b8ff" d="M109.19,-33.56C124.63,-29.84 141.45,-25.78 156.8,-22.08"/>
<polygon fill="#63b8ff" stroke="#63b8ff" points="157.31,-25.56 166.21,-19.81 155.67,-18.75 157.31,-25.56"/>
</g>
<!-- Node2&#45;&gt;Node2 -->
<g id="edge2" class="edge">
<title>Node2&#45;&gt;Node2</title>
<path fill="none" stroke="#63b8ff" d="M182.67,-104.78C176.59,-113.91 185.7,-122.5 210,-122.5 223.29,-122.5 232.03,-119.93 236.24,-116.11"/>
<polygon fill="#63b8ff" stroke="#63b8ff" points="239.71,-116.57 237.19,-106.28 232.74,-115.9 239.71,-116.57"/>
</g>
<!-- Node4 -->
<g id="node4" class="node">
<title>Node4</title>
<g id="a_node4"><a xlink:href="classFilePath.html#a10ab094ee4006c25fabc43b3b93d3eb2" target="_top" xlink:title=" ">
<polygon fill="white" stroke="#666666" points="417,-93 318,-93 318,-74 417,-74 417,-93"/>
<text text-anchor="middle" x="367.5" y="-81" font-family="Helvetica,sans-Serif" font-size="10.00">FilePath::FilePath</text>
</a>
</g>
</g>
<!-- Node3&#45;&gt;Node4 -->
<g id="edge4" class="edge">
<title>Node3&#45;&gt;Node4</title>
<path fill="none" stroke="#63b8ff" d="M252.67,-56.42C271.41,-60.87 293.74,-66.19 313.64,-70.92"/>
<polygon fill="#63b8ff" stroke="#63b8ff" points="312.7,-74.3 323.24,-73.21 314.32,-67.49 312.7,-74.3"/>
</g>
<!-- Node5 -->
<g id="node5" class="node">
<title>Node5</title>
<g id="a_node5"><a xlink:href="namespaceutility.html#aa62fb20032f5e2269c27a55c16fb4d1f" target="_top" xlink:title=" ">
<polygon fill="white" stroke="#666666" points="424,-56 311,-56 311,-37 424,-37 424,-56"/>
<text text-anchor="middle" x="367.5" y="-44" font-family="Helvetica,sans-Serif" font-size="10.00">utility::toLowerCase</text>
</a>
</g>
</g>
<!-- Node3&#45;&gt;Node5 -->
<g id="edge5" class="edge">
<title>Node3&#45;&gt;Node5</title>
<path fill="none" stroke="#63b8ff" d="M275.15,-46.5C283.22,-46.5 291.5,-46.5 299.61,-46.5"/>
<polygon fill="#63b8ff" stroke="#63b8ff" points="299.43,-50 309.43,-46.5 299.43,-43 299.43,-50"/>
</g>
<!-- Node6 -->
<g id="node6" class="node">
<title>Node6</title>
<g id="a_node6"><a xlink:href="classFilePath.html#a989e098726c8387d4f4690bca3314ce8" target="_top" xlink:title=" ">
<polygon fill="white" stroke="#666666" points="408.5,-19 326.5,-19 326.5,0 408.5,0 408.5,-19"/>
<text text-anchor="middle" x="367.5" y="-7" font-family="Helvetica,sans-Serif" font-size="10.00">FilePath::wstr</text>
</a>
</g>
</g>
<!-- Node3&#45;&gt;Node6 -->
<g id="edge6" class="edge">
<title>Node3&#45;&gt;Node6</title>
<path fill="none" stroke="#63b8ff" d="M252.67,-36.58C271.88,-32.02 294.85,-26.55 315.12,-21.73"/>
<polygon fill="#63b8ff" stroke="#63b8ff" points="315.67,-25.19 324.59,-19.47 314.05,-18.38 315.67,-25.19"/>
</g>
</g>
</svg>
