<?xml version="1.0" encoding="UTF-8" standalone="no"?>
<!DOCTYPE svg PUBLIC "-//W3C//DTD SVG 1.1//EN"
 "http://www.w3.org/Graphics/SVG/1.1/DTD/svg11.dtd">
<!-- Generated by graphviz version 7.1.0 (0)
 -->
<!-- Title: SourceGroupSettingsWithCxxPchOptions::getPchInputFilePath Pages: 1 -->
<svg width="390pt" height="98pt"
 viewBox="0.00 0.00 390.00 97.50" xmlns="http://www.w3.org/2000/svg" xmlns:xlink="http://www.w3.org/1999/xlink">
<g id="graph0" class="graph" transform="scale(1 1) rotate(0) translate(4 93.5)">
<title>SourceGroupSettingsWithCxxPchOptions::getPchInputFilePath</title>
<!-- Node1 -->
<g id="node1" class="node">
<title>Node1</title>
<g id="a_node1"><a xlink:title=" ">
<polygon fill="#999999" stroke="#666666" points="382,-57 209,-57 209,-27 382,-27 382,-57"/>
<text text-anchor="start" x="217" y="-45" font-family="Helvetica,sans-Serif" font-size="10.00">SourceGroupSettingsWithCxx</text>
<text text-anchor="middle" x="295.5" y="-34" font-family="Helvetica,sans-Serif" font-size="10.00">PchOptions::getPchInputFilePath</text>
</a>
</g>
</g>
<!-- Node2 -->
<g id="node2" class="node">
<title>Node2</title>
<g id="a_node2"><a xlink:href="classSourceGroupSettingsWithCxxPchOptions.html#abd078826f7e7f7672538bc0165b634df" target="_top" xlink:title=" ">
<polygon fill="white" stroke="#666666" points="173,-89.5 0,-89.5 0,-48.5 173,-48.5 173,-89.5"/>
<text text-anchor="start" x="8" y="-77.5" font-family="Helvetica,sans-Serif" font-size="10.00">SourceGroupSettingsWithCxx</text>
<text text-anchor="start" x="8" y="-66.5" font-family="Helvetica,sans-Serif" font-size="10.00">PchOptions::getPchInputFilePath</text>
<text text-anchor="middle" x="86.5" y="-55.5" font-family="Helvetica,sans-Serif" font-size="10.00">ExpandedAndAbsolute</text>
</a>
</g>
</g>
<!-- Node1&#45;&gt;Node2 -->
<g id="edge1" class="edge">
<title>Node1&#45;&gt;Node2</title>
<path fill="none" stroke="#63b8ff" d="M197.23,-54.69C189.21,-55.73 181.14,-56.79 173.22,-57.82"/>
<polygon fill="#63b8ff" stroke="#63b8ff" points="197.55,-58.18 207.01,-53.41 196.64,-51.23 197.55,-58.18"/>
</g>
<!-- Node3 -->
<g id="node3" class="node">
<title>Node3</title>
<g id="a_node3"><a xlink:href="classSourceGroupSettingsWithCxxPchOptions.html#aa14c4e812cd40fcae4a4fd4c397592d9" target="_top" xlink:title=" ">
<polygon fill="white" stroke="#666666" points="166.5,-30 6.5,-30 6.5,0 166.5,0 166.5,-30"/>
<text text-anchor="start" x="14.5" y="-18" font-family="Helvetica,sans-Serif" font-size="10.00">SourceGroupSettingsWithCxx</text>
<text text-anchor="middle" x="86.5" y="-7" font-family="Helvetica,sans-Serif" font-size="10.00">PchOptions::save</text>
</a>
</g>
</g>
<!-- Node1&#45;&gt;Node3 -->
<g id="edge2" class="edge">
<title>Node1&#45;&gt;Node3</title>
<path fill="none" stroke="#63b8ff" d="M197.14,-29.3C187.02,-27.98 176.82,-26.65 166.93,-25.36"/>
<polygon fill="#63b8ff" stroke="#63b8ff" points="196.64,-32.77 207.01,-30.59 197.55,-25.82 196.64,-32.77"/>
</g>
</g>
</svg>
