<?xml version="1.0" encoding="UTF-8" standalone="no"?>
<!DOCTYPE svg PUBLIC "-//W3C//DTD SVG 1.1//EN"
 "http://www.w3.org/Graphics/SVG/1.1/DTD/svg11.dtd">
<!-- Generated by graphviz version 7.1.0 (0)
 -->
<!-- Title: MessageActivateTokens::getSearchMatches Pages: 1 -->
<svg width="501pt" height="100pt"
 viewBox="0.00 0.00 501.00 99.50" xmlns="http://www.w3.org/2000/svg" xmlns:xlink="http://www.w3.org/1999/xlink">
<g id="graph0" class="graph" transform="scale(1 1) rotate(0) translate(4 95.5)">
<title>MessageActivateTokens::getSearchMatches</title>
<!-- Node1 -->
<g id="node1" class="node">
<title>Node1</title>
<g id="a_node1"><a xlink:title=" ">
<polygon fill="#999999" stroke="#666666" points="493,-75 359,-75 359,-45 493,-45 493,-75"/>
<text text-anchor="start" x="367" y="-63" font-family="Helvetica,sans-Serif" font-size="10.00">MessageActivateTokens</text>
<text text-anchor="middle" x="426" y="-52" font-family="Helvetica,sans-Serif" font-size="10.00">::getSearchMatches</text>
</a>
</g>
</g>
<!-- Node2 -->
<g id="node2" class="node">
<title>Node2</title>
<g id="a_node2"><a xlink:href="classCodeController.html#abba425547c401ee407e08c3874c66144" target="_top" xlink:title=" ">
<polygon fill="white" stroke="#666666" points="323,-91.5 151,-91.5 151,-72.5 323,-72.5 323,-91.5"/>
<text text-anchor="middle" x="237" y="-79.5" font-family="Helvetica,sans-Serif" font-size="10.00">CodeController::handleMessage</text>
</a>
</g>
</g>
<!-- Node1&#45;&gt;Node2 -->
<g id="edge1" class="edge">
<title>Node1&#45;&gt;Node2</title>
<path fill="none" stroke="#63b8ff" d="M347.29,-69.14C339.23,-70.09 331.02,-71.06 322.89,-72.01"/>
<polygon fill="#63b8ff" stroke="#63b8ff" points="347.52,-72.64 357.04,-68 346.7,-65.69 347.52,-72.64"/>
</g>
<!-- Node3 -->
<g id="node3" class="node">
<title>Node3</title>
<g id="a_node3"><a xlink:href="classUndoRedoController.html#a937249ecddce26560153126eda47ca33" target="_top" xlink:title=" ">
<polygon fill="white" stroke="#666666" points="294.5,-54 179.5,-54 179.5,-24 294.5,-24 294.5,-54"/>
<text text-anchor="start" x="187.5" y="-42" font-family="Helvetica,sans-Serif" font-size="10.00">UndoRedoController</text>
<text text-anchor="middle" x="237" y="-31" font-family="Helvetica,sans-Serif" font-size="10.00">::replayCommand</text>
</a>
</g>
</g>
<!-- Node1&#45;&gt;Node3 -->
<g id="edge2" class="edge">
<title>Node1&#45;&gt;Node3</title>
<path fill="none" stroke="#63b8ff" d="M347.18,-51.26C329.67,-49.29 311.42,-47.24 294.95,-45.4"/>
<polygon fill="#63b8ff" stroke="#63b8ff" points="346.71,-54.73 357.04,-52.37 347.49,-47.77 346.71,-54.73"/>
</g>
<!-- Node4 -->
<g id="node4" class="node">
<title>Node4</title>
<g id="a_node4"><a xlink:href="classUndoRedoController.html#a3c6cff83649935420a9382744cf441c4" target="_top" xlink:title=" ">
<polygon fill="white" stroke="#666666" points="115,-78 0,-78 0,-48 115,-48 115,-78"/>
<text text-anchor="start" x="8" y="-66" font-family="Helvetica,sans-Serif" font-size="10.00">UndoRedoController</text>
<text text-anchor="middle" x="57.5" y="-55" font-family="Helvetica,sans-Serif" font-size="10.00">::handleMessage</text>
</a>
</g>
</g>
<!-- Node3&#45;&gt;Node4 -->
<g id="edge3" class="edge">
<title>Node3&#45;&gt;Node4</title>
<path fill="none" stroke="#63b8ff" d="M168.08,-48.18C150.63,-50.54 132.04,-53.06 115.22,-55.33"/>
<polygon fill="#63b8ff" stroke="#63b8ff" points="168.41,-51.67 177.85,-46.86 167.47,-44.73 168.41,-51.67"/>
</g>
<!-- Node5 -->
<g id="node5" class="node">
<title>Node5</title>
<g id="a_node5"><a xlink:href="classUndoRedoController.html#a4997d10e786f9f9c30e0bec7f95d7464" target="_top" xlink:title=" ">
<polygon fill="white" stroke="#666666" points="115,-30 0,-30 0,0 115,0 115,-30"/>
<text text-anchor="start" x="8" y="-18" font-family="Helvetica,sans-Serif" font-size="10.00">UndoRedoController</text>
<text text-anchor="middle" x="57.5" y="-7" font-family="Helvetica,sans-Serif" font-size="10.00">::replayCommands</text>
</a>
</g>
</g>
<!-- Node3&#45;&gt;Node5 -->
<g id="edge4" class="edge">
<title>Node3&#45;&gt;Node5</title>
<path fill="none" stroke="#63b8ff" d="M168.08,-29.82C150.63,-27.46 132.04,-24.94 115.22,-22.67"/>
<polygon fill="#63b8ff" stroke="#63b8ff" points="167.47,-33.27 177.85,-31.14 168.41,-26.33 167.47,-33.27"/>
</g>
</g>
</svg>
