<?xml version="1.0" encoding="UTF-8" standalone="no"?>
<!DOCTYPE svg PUBLIC "-//W3C//DTD SVG 1.1//EN"
 "http://www.w3.org/Graphics/SVG/1.1/DTD/svg11.dtd">
<!-- Generated by graphviz version 9.0.0 (0)
 -->
<!-- Title: QtSearchBar::query Pages: 1 -->
<svg width="522pt" height="119pt"
 viewBox="0.00 0.00 521.75 119.12" xmlns="http://www.w3.org/2000/svg" xmlns:xlink="http://www.w3.org/1999/xlink">
<g id="graph0" class="graph" transform="scale(1 1) rotate(0) translate(4 115.12)">
<title>QtSearchBar::query</title>
<!-- Node1 -->
<g id="Node000001" class="node">
<title>Node1</title>
<g id="a_Node000001"><a xlink:title=" ">
<polygon fill="#999999" stroke="#666666" points="513.75,-72.12 403.25,-72.12 403.25,-51.38 513.75,-51.38 513.75,-72.12"/>
<text text-anchor="middle" x="458.5" y="-58.62" font-family="Helvetica,sans-Serif" font-size="10.00">QtSearchBar::query</text>
</a>
</g>
</g>
<!-- Node2 -->
<g id="Node000002" class="node">
<title>Node2</title>
<g id="a_Node000002"><a xlink:href="classQtSearchView.html#ae67db4e58c5af590b28e9cd1a167b638" target="_top" xlink:title=" ">
<polygon fill="white" stroke="#666666" points="341,-111.12 205.75,-111.12 205.75,-90.38 341,-90.38 341,-111.12"/>
<text text-anchor="middle" x="273.38" y="-97.62" font-family="Helvetica,sans-Serif" font-size="10.00">QtSearchView::getQuery</text>
</a>
</g>
</g>
<!-- Node1&#45;&gt;Node2 -->
<g id="edge1_Node000001_Node000002" class="edge">
<title>Node1&#45;&gt;Node2</title>
<g id="a_edge1_Node000001_Node000002"><a xlink:title=" ">
<path fill="none" stroke="#63b8ff" d="M395.23,-75.01C372.5,-79.85 347.07,-85.27 325.43,-89.88"/>
<polygon fill="#63b8ff" stroke="#63b8ff" points="395.96,-78.44 405.01,-72.93 394.5,-71.59 395.96,-78.44"/>
</a>
</g>
</g>
<!-- Node3 -->
<g id="Node000003" class="node">
<title>Node3</title>
<g id="a_Node000003"><a xlink:href="classQtSearchBar.html#a7e52ff1b13c601a99f2ab2a3b23ecb22" target="_top" xlink:title=" ">
<polygon fill="white" stroke="#666666" points="367.25,-72.12 179.5,-72.12 179.5,-51.38 367.25,-51.38 367.25,-72.12"/>
<text text-anchor="middle" x="273.38" y="-58.62" font-family="Helvetica,sans-Serif" font-size="10.00">QtSearchBar::requestAutocomplete</text>
</a>
</g>
</g>
<!-- Node1&#45;&gt;Node3 -->
<g id="edge2_Node000001_Node000003" class="edge">
<title>Node1&#45;&gt;Node3</title>
<g id="a_edge2_Node000001_Node000003"><a xlink:title=" ">
<path fill="none" stroke="#63b8ff" d="M391.79,-61.75C383.96,-61.75 375.84,-61.75 367.71,-61.75"/>
<polygon fill="#63b8ff" stroke="#63b8ff" points="391.54,-65.25 401.54,-61.75 391.54,-58.25 391.54,-65.25"/>
</a>
</g>
</g>
<!-- Node5 -->
<g id="Node000005" class="node">
<title>Node5</title>
<g id="a_Node000005"><a xlink:href="classQtSearchBar.html#a4b33aae11123e5a23cd4c74c8e634760" target="_top" xlink:title=" ">
<polygon fill="white" stroke="#666666" points="341.75,-33.5 205,-33.5 205,0 341.75,0 341.75,-33.5"/>
<text text-anchor="start" x="213" y="-20" font-family="Helvetica,sans-Serif" font-size="10.00">QtSearchBar::requestFull</text>
<text text-anchor="middle" x="273.38" y="-7.25" font-family="Helvetica,sans-Serif" font-size="10.00">TextSearch</text>
</a>
</g>
</g>
<!-- Node1&#45;&gt;Node5 -->
<g id="edge4_Node000001_Node000005" class="edge">
<title>Node1&#45;&gt;Node5</title>
<g id="a_edge4_Node000001_Node000005"><a xlink:title=" ">
<path fill="none" stroke="#63b8ff" d="M402.49,-48.23C383.53,-43.57 362.07,-38.3 342.2,-33.42"/>
<polygon fill="#63b8ff" stroke="#63b8ff" points="401.62,-51.62 412.17,-50.61 403.29,-44.82 401.62,-51.62"/>
</a>
</g>
</g>
<!-- Node4 -->
<g id="Node000004" class="node">
<title>Node4</title>
<g id="a_Node000004"><a xlink:href="classQtSearchBar.html#ab1586c7b89f8c4f4e3377e35b690aa09" target="_top" xlink:title=" ">
<polygon fill="white" stroke="#666666" points="143.5,-49.12 0,-49.12 0,-28.38 143.5,-28.38 143.5,-49.12"/>
<text text-anchor="middle" x="71.75" y="-35.62" font-family="Helvetica,sans-Serif" font-size="10.00">QtSearchBar::QtSearchBar</text>
</a>
</g>
</g>
<!-- Node3&#45;&gt;Node4 -->
<g id="edge3_Node000003_Node000004" class="edge">
<title>Node3&#45;&gt;Node4</title>
<g id="a_edge3_Node000003_Node000004"><a xlink:title=" ">
<path fill="none" stroke="#63b8ff" d="M168.12,-49.74C159.93,-48.79 151.79,-47.86 143.9,-46.95"/>
<polygon fill="#63b8ff" stroke="#63b8ff" points="167.45,-53.18 177.78,-50.85 168.25,-46.23 167.45,-53.18"/>
</a>
</g>
</g>
<!-- Node5&#45;&gt;Node4 -->
<g id="edge5_Node000005_Node000004" class="edge">
<title>Node5&#45;&gt;Node4</title>
<g id="a_edge5_Node000005_Node000004"><a xlink:title=" ">
<path fill="none" stroke="#63b8ff" d="M193.34,-25.46C177,-27.26 159.87,-29.15 143.83,-30.92"/>
<polygon fill="#63b8ff" stroke="#63b8ff" points="193.45,-28.97 203.01,-24.39 192.68,-22.01 193.45,-28.97"/>
</a>
</g>
</g>
</g>
</svg>
