<?xml version="1.0" encoding="UTF-8" standalone="no"?>
<!DOCTYPE svg PUBLIC "-//W3C//DTD SVG 1.1//EN"
 "http://www.w3.org/Graphics/SVG/1.1/DTD/svg11.dtd">
<!-- Generated by graphviz version 9.0.0 (0)
 -->
<!-- Title: FileSystem::copy_directory Pages: 1 -->
<svg width="578pt" height="48pt"
 viewBox="0.00 0.00 578.25 47.75" xmlns="http://www.w3.org/2000/svg" xmlns:xlink="http://www.w3.org/1999/xlink">
<g id="graph0" class="graph" transform="scale(1 1) rotate(0) translate(4 43.75)">
<title>FileSystem::copy_directory</title>
<!-- Node1 -->
<g id="Node000001" class="node">
<title>Node1</title>
<g id="a_Node000001"><a xlink:title=" ">
<polygon fill="#999999" stroke="#666666" points="147.25,-39.75 0,-39.75 0,-19 147.25,-19 147.25,-39.75"/>
<text text-anchor="middle" x="73.62" y="-26.25" font-family="Helvetica,sans-Serif" font-size="10.00">FileSystem::copy_directory</text>
</a>
</g>
</g>
<!-- Node2 -->
<g id="Node000002" class="node">
<title>Node2</title>
<g id="a_Node000002"><a xlink:href="classFilePath.html#a544387c4aea50aec855062fd02e436ae" target="_top" xlink:title=" ">
<polygon fill="white" stroke="#666666" points="570.25,-39.75 472.5,-39.75 472.5,-19 570.25,-19 570.25,-39.75"/>
<text text-anchor="middle" x="521.38" y="-26.25" font-family="Helvetica,sans-Serif" font-size="10.00">FilePath::getPath</text>
</a>
</g>
</g>
<!-- Node1&#45;&gt;Node2 -->
<g id="edge1_Node000001_Node000002" class="edge">
<title>Node1&#45;&gt;Node2</title>
<g id="a_edge1_Node000001_Node000002"><a xlink:title=" ">
<path fill="none" stroke="#63b8ff" d="M147.73,-29.38C235.07,-29.38 379.52,-29.38 460.53,-29.38"/>
<polygon fill="#63b8ff" stroke="#63b8ff" points="460.49,-32.88 470.49,-29.38 460.49,-25.88 460.49,-32.88"/>
</a>
</g>
</g>
<!-- Node3 -->
<g id="Node000003" class="node">
<title>Node3</title>
<g id="a_Node000003"><a xlink:href="classFilePath.html#a59d0f48e8394367cbe2cd97d4e8fd0ec" target="_top" xlink:title=" ">
<polygon fill="white" stroke="#666666" points="311,-20.75 183.25,-20.75 183.25,0 311,0 311,-20.75"/>
<text text-anchor="middle" x="247.12" y="-7.25" font-family="Helvetica,sans-Serif" font-size="10.00">FilePath::recheckExists</text>
</a>
</g>
</g>
<!-- Node1&#45;&gt;Node3 -->
<g id="edge2_Node000001_Node000003" class="edge">
<title>Node1&#45;&gt;Node3</title>
<g id="a_edge2_Node000001_Node000003"><a xlink:title=" ">
<path fill="none" stroke="#63b8ff" d="M147.36,-21.32C155.36,-20.43 163.52,-19.53 171.55,-18.64"/>
<polygon fill="#63b8ff" stroke="#63b8ff" points="171.72,-22.14 181.27,-17.56 170.95,-15.18 171.72,-22.14"/>
</a>
</g>
</g>
<!-- Node4 -->
<g id="Node000004" class="node">
<title>Node4</title>
<g id="a_Node000004"><a xlink:href="classFilePath.html#a59fa57dcd7d19d74aaee62f072f14b3d" target="_top" xlink:title=" ">
<polygon fill="white" stroke="#666666" points="436.5,-20.75 347,-20.75 347,0 436.5,0 436.5,-20.75"/>
<text text-anchor="middle" x="391.75" y="-7.25" font-family="Helvetica,sans-Serif" font-size="10.00">FilePath::exists</text>
</a>
</g>
</g>
<!-- Node3&#45;&gt;Node4 -->
<g id="edge3_Node000003_Node000004" class="edge">
<title>Node3&#45;&gt;Node4</title>
<g id="a_edge3_Node000003_Node000004"><a xlink:title=" ">
<path fill="none" stroke="#63b8ff" d="M311.1,-10.38C319.12,-10.38 327.28,-10.38 335.18,-10.38"/>
<polygon fill="#63b8ff" stroke="#63b8ff" points="334.99,-13.88 344.99,-10.38 334.99,-6.88 334.99,-13.88"/>
</a>
</g>
</g>
<!-- Node4&#45;&gt;Node2 -->
<g id="edge4_Node000004_Node000002" class="edge">
<title>Node4&#45;&gt;Node2</title>
<g id="a_edge4_Node000004_Node000002"><a xlink:title=" ">
<path fill="none" stroke="#63b8ff" d="M436.67,-16.91C444.41,-18.07 452.59,-19.28 460.68,-20.49"/>
<polygon fill="#63b8ff" stroke="#63b8ff" points="460.1,-23.94 470.51,-21.95 461.13,-17.02 460.1,-23.94"/>
</a>
</g>
</g>
</g>
</svg>
