<?xml version="1.0" encoding="UTF-8" standalone="no"?>
<!DOCTYPE svg PUBLIC "-//W3C//DTD SVG 1.1//EN"
 "http://www.w3.org/Graphics/SVG/1.1/DTD/svg11.dtd">
<!-- Generated by graphviz version 9.0.0 (0)
 -->
<!-- Title: MessageResetZoom Pages: 1 -->
<svg width="274pt" height="214pt"
 viewBox="0.00 0.00 274.12 213.75" xmlns="http://www.w3.org/2000/svg" xmlns:xlink="http://www.w3.org/1999/xlink">

<svg id="main" version="1.1" xmlns="http://www.w3.org/2000/svg" xmlns:xlink="http://www.w3.org/1999/xlink" xml:space="preserve" onload="init(evt)">
<style type="text/css"><![CDATA[
.node, .edge {opacity: 0.7;}
.node.selected, .edge.selected {opacity: 1;}
.edge:hover path { stroke: red; }
.edge:hover polygon { stroke: red; fill: red; }
]]></style>
<script type="application/ecmascript" xlink:href="svg.min.js"/>
<svg id="graph" class="graph">
<g id="graph0" class="graph" transform="scale(1 1) rotate(0) translate(4 209.75)">
<title>MessageResetZoom</title>
<!-- Node1 -->
<g id="Node000001" class="node">
<title>Node1</title>
<g id="a_Node000001"><a xlink:title=" ">
<polygon fill="#999999" stroke="#666666" points="148.75,-20.75 33,-20.75 33,0 148.75,0 148.75,-20.75"/>
<text text-anchor="middle" x="90.88" y="-7.25" font-family="Helvetica,sans-Serif" font-size="10.00">MessageResetZoom</text>
</a>
</g>
</g>
<!-- Node2 -->
<g id="Node000002" class="node">
<title>Node2</title>
<g id="a_Node000002"><a xlink:href="classMessage.html" target="_top" xlink:title=" ">
<polygon fill="white" stroke="#666666" points="181.75,-78.5 0,-78.5 0,-57.75 181.75,-57.75 181.75,-78.5"/>
<text text-anchor="middle" x="90.88" y="-65" font-family="Helvetica,sans-Serif" font-size="10.00">Message&lt; MessageResetZoom &gt;</text>
</a>
</g>
</g>
<!-- Node2&#45;&gt;Node1 -->
<g id="edge1_Node000001_Node000002" class="edge">
<title>Node2&#45;&gt;Node1</title>
<g id="a_edge1_Node000001_Node000002"><a xlink:title=" ">
<path fill="none" stroke="#63b8ff" d="M90.88,-46.18C90.88,-37.52 90.88,-27.9 90.88,-20.97"/>
<polygon fill="#63b8ff" stroke="#63b8ff" points="87.38,-45.9 90.88,-55.9 94.38,-45.9 87.38,-45.9"/>
</a>
</g>
</g>
<!-- Node3 -->
<g id="Node000003" class="node">
<title>Node3</title>
<g id="a_Node000003"><a xlink:href="classMessageBase.html" target="_top" xlink:title=" ">
<polygon fill="white" stroke="#666666" points="128.62,-205.75 45.12,-205.75 45.12,-185 128.62,-185 128.62,-205.75"/>
<text text-anchor="middle" x="86.88" y="-192.25" font-family="Helvetica,sans-Serif" font-size="10.00">MessageBase</text>
</a>
</g>
</g>
<!-- Node3&#45;&gt;Node2 -->
<g id="edge2_Node000002_Node000003" class="edge">
<title>Node3&#45;&gt;Node2</title>
<g id="a_edge2_Node000002_Node000003"><a xlink:title=" ">
<path fill="none" stroke="#63b8ff" d="M87.55,-173.14C88.43,-145.7 89.92,-99.08 90.56,-78.91"/>
<polygon fill="#63b8ff" stroke="#63b8ff" points="84.06,-172.93 87.24,-183.03 91.05,-173.15 84.06,-172.93"/>
</a>
</g>
</g>
<!-- Node4 -->
<g id="Node000004" class="node">
<title>Node4</title>
<g id="a_Node000004"><a xlink:href="classMessage.html" target="_top" xlink:title=" ">
<polygon fill="white" stroke="#666666" points="250.88,-148 102.88,-148 102.88,-127.25 250.88,-127.25 250.88,-148"/>
<text text-anchor="middle" x="176.88" y="-134.5" font-family="Helvetica,sans-Serif" font-size="10.00">Message&lt; MessageType &gt;</text>
</a>
</g>
</g>
<!-- Node3&#45;&gt;Node4 -->
<g id="edge4_Node000004_Node000003" class="edge">
<title>Node3&#45;&gt;Node4</title>
<g id="a_edge4_Node000004_Node000003"><a xlink:title=" ">
<path fill="none" stroke="#63b8ff" d="M112.19,-178.69C127.89,-168.97 147.57,-156.78 161.08,-148.41"/>
<polygon fill="#63b8ff" stroke="#63b8ff" points="110.5,-175.63 103.84,-183.87 114.18,-181.58 110.5,-175.63"/>
</a>
</g>
</g>
<!-- Node4&#45;&gt;Node2 -->
<g id="edge3_Node000002_Node000004" class="edge">
<title>Node4&#45;&gt;Node2</title>
<g id="a_edge3_Node000002_Node000004"><a xlink:title=" ">
<path fill="none" stroke="orange" stroke-dasharray="5,2" d="M155.67,-119.98C139.28,-107.12 117.15,-89.75 103.45,-79"/>
<polygon fill="orange" stroke="orange" points="153.34,-122.6 163.36,-126.02 157.66,-117.09 153.34,-122.6"/>
</a>
</g>
<text text-anchor="middle" x="203.5" y="-99.75" font-family="Helvetica,sans-Serif" font-size="10.00" fill="grey"> &lt; MessageResetZoom &gt;</text>
</g>
</g>
</svg>
</svg>

<style type='text/css'>
<![CDATA[
[data-mouse-over-selected='false'] { opacity: 0.7; }
[data-mouse-over-selected='true']  { opacity: 1.0; }
]]>
</style>
<script type="application/ecmascript"><![CDATA[
document.addEventListener('DOMContentLoaded', (event) => {
  highlightEdges();
  highlightAdjacentNodes();
});
]]></script>
</svg>
