<?xml version="1.0" encoding="UTF-8" standalone="no"?>
<!DOCTYPE svg PUBLIC "-//W3C//DTD SVG 1.1//EN"
 "http://www.w3.org/Graphics/SVG/1.1/DTD/svg11.dtd">
<!-- Generated by graphviz version 7.1.0 (0)
 -->
<!-- Title: GraphController::bundleNodesByType Pages: 1 -->
<svg width="687pt" height="113pt"
 viewBox="0.00 0.00 687.00 112.50" xmlns="http://www.w3.org/2000/svg" xmlns:xlink="http://www.w3.org/1999/xlink">
<g id="graph0" class="graph" transform="scale(1 1) rotate(0) translate(4 108.5)">
<title>GraphController::bundleNodesByType</title>
<!-- Node1 -->
<g id="node1" class="node">
<title>Node1</title>
<g id="a_node1"><a xlink:title=" ">
<polygon fill="#999999" stroke="#666666" points="164,-61.5 0,-61.5 0,-31.5 164,-31.5 164,-61.5"/>
<text text-anchor="start" x="8" y="-49.5" font-family="Helvetica,sans-Serif" font-size="10.00">GraphController::bundleNodes</text>
<text text-anchor="middle" x="82" y="-38.5" font-family="Helvetica,sans-Serif" font-size="10.00">ByType</text>
</a>
</g>
</g>
<!-- Node2 -->
<g id="node2" class="node">
<title>Node2</title>
<g id="a_node2"><a xlink:href="classGraphController.html#aaf06b283adf3784249768cdab2baecd2" target="_top" xlink:title=" ">
<polygon fill="white" stroke="#666666" points="368,-56 200,-56 200,-37 368,-37 368,-56"/>
<text text-anchor="middle" x="284" y="-44" font-family="Helvetica,sans-Serif" font-size="10.00">GraphController::bundleByType</text>
</a>
</g>
</g>
<!-- Node1&#45;&gt;Node2 -->
<g id="edge1" class="edge">
<title>Node1&#45;&gt;Node2</title>
<path fill="none" stroke="#63b8ff" d="M164.35,-46.5C172.29,-46.5 180.39,-46.5 188.44,-46.5"/>
<polygon fill="#63b8ff" stroke="#63b8ff" points="188.26,-50 198.26,-46.5 188.26,-43 188.26,-50"/>
</g>
<!-- Node2&#45;&gt;Node2 -->
<g id="edge2" class="edge">
<title>Node2&#45;&gt;Node2</title>
<path fill="none" stroke="#63b8ff" d="M252.38,-56.37C237.95,-64.94 248.49,-74 284,-74 304.53,-74 316.71,-70.97 320.55,-66.76"/>
<polygon fill="#63b8ff" stroke="#63b8ff" points="323.72,-65.27 316.27,-57.74 317.39,-68.27 323.72,-65.27"/>
</g>
<!-- Node3 -->
<g id="node3" class="node">
<title>Node3</title>
<g id="a_node3"><a xlink:href="classGraphController.html#a5365752d1ff821713d29b5c5704f9e0d" target="_top" xlink:title=" ">
<polygon fill="white" stroke="#666666" points="568,-104.5 404,-104.5 404,-74.5 568,-74.5 568,-104.5"/>
<text text-anchor="start" x="412" y="-92.5" font-family="Helvetica,sans-Serif" font-size="10.00">GraphController::bundleNodes</text>
<text text-anchor="middle" x="486" y="-81.5" font-family="Helvetica,sans-Serif" font-size="10.00">Matching</text>
</a>
</g>
</g>
<!-- Node2&#45;&gt;Node3 -->
<g id="edge3" class="edge">
<title>Node2&#45;&gt;Node3</title>
<path fill="none" stroke="#63b8ff" d="M331.39,-56.47C352.4,-60.99 377.9,-66.47 402.04,-71.66"/>
<polygon fill="#63b8ff" stroke="#63b8ff" points="401.02,-75.02 411.53,-73.7 402.49,-68.18 401.02,-75.02"/>
</g>
<!-- Node5 -->
<g id="node5" class="node">
<title>Node5</title>
<g id="a_node5"><a xlink:href="classNode.html#a8fad79f65f64fc6c150574e023eb043f" target="_top" xlink:title=" ">
<polygon fill="white" stroke="#666666" points="529,-56 443,-56 443,-37 529,-37 529,-56"/>
<text text-anchor="middle" x="486" y="-44" font-family="Helvetica,sans-Serif" font-size="10.00">Node::getType</text>
</a>
</g>
</g>
<!-- Node2&#45;&gt;Node5 -->
<g id="edge5" class="edge">
<title>Node2&#45;&gt;Node5</title>
<path fill="none" stroke="#63b8ff" d="M368.37,-46.5C389.68,-46.5 412.03,-46.5 431.4,-46.5"/>
<polygon fill="#63b8ff" stroke="#63b8ff" points="431.22,-50 441.22,-46.5 431.22,-43 431.22,-50"/>
</g>
<!-- Node6 -->
<g id="node6" class="node">
<title>Node6</title>
<g id="a_node6"><a xlink:href="structDummyNode.html#aa3924d8b494b3cc9534db013d76746c0" target="_top" xlink:title=" ">
<polygon fill="white" stroke="#666666" points="561,-19 411,-19 411,0 561,0 561,-19"/>
<text text-anchor="middle" x="486" y="-7" font-family="Helvetica,sans-Serif" font-size="10.00">DummyNode::isGraphNode</text>
</a>
</g>
</g>
<!-- Node2&#45;&gt;Node6 -->
<g id="edge6" class="edge">
<title>Node2&#45;&gt;Node6</title>
<path fill="none" stroke="#63b8ff" d="M338.86,-36.54C363.86,-31.91 393.8,-26.37 420.05,-21.52"/>
<polygon fill="#63b8ff" stroke="#63b8ff" points="420.36,-25.02 429.56,-19.76 419.09,-18.13 420.36,-25.02"/>
</g>
<!-- Node4 -->
<g id="node4" class="node">
<title>Node4</title>
<g id="a_node4"><a xlink:href="classToken.html#a7327713d89dab24b733a7ff9096deea0" target="_top" xlink:title=" ">
<polygon fill="white" stroke="#666666" points="679,-99 604,-99 604,-80 679,-80 679,-99"/>
<text text-anchor="middle" x="641.5" y="-87" font-family="Helvetica,sans-Serif" font-size="10.00">Token::getId</text>
</a>
</g>
</g>
<!-- Node3&#45;&gt;Node4 -->
<g id="edge4" class="edge">
<title>Node3&#45;&gt;Node4</title>
<path fill="none" stroke="#63b8ff" d="M568.24,-89.5C576.46,-89.5 584.6,-89.5 592.3,-89.5"/>
<polygon fill="#63b8ff" stroke="#63b8ff" points="592.08,-93 602.08,-89.5 592.08,-86 592.08,-93"/>
</g>
</g>
</svg>
