<?xml version="1.0" encoding="UTF-8" standalone="no"?>
<!DOCTYPE svg PUBLIC "-//W3C//DTD SVG 1.1//EN"
 "http://www.w3.org/Graphics/SVG/1.1/DTD/svg11.dtd">
<!-- Generated by graphviz version 7.1.0 (0)
 -->
<!-- Title: QtScreenSearchView::addResponder Pages: 1 -->
<!--zoomable 115 -->
<svg id="main" version="1.1" xmlns="http://www.w3.org/2000/svg" xmlns:xlink="http://www.w3.org/1999/xlink" xml:space="preserve" onload="init(evt)">
<style type="text/css"><![CDATA[
.edge:hover path { stroke: red; }
.edge:hover polygon { stroke: red; fill: red; }
]]></style>
<script type="text/javascript"><![CDATA[
var edges = document.getElementsByTagName('g');
if (edges && edges.length) {
  for (var i=0;i<edges.length;i++) {
    if (edges[i].id.substr(0,4)=='edge') {
      edges[i].setAttribute('class','edge');
    }
  }
}
]]></script>
        <defs>
                <circle id="rim" cx="0" cy="0" r="7"/>
                <circle id="rim2" cx="0" cy="0" r="3.5"/>
                <g id="zoomPlus">
                        <use xlink:href="#rim" fill="#404040">
                                <set attributeName="fill" to="#808080" begin="zoomplus.mouseover" end="zoomplus.mouseout"/>
                        </use>
                        <path d="M-4,0h8M0,-4v8" fill="none" stroke="white" stroke-width="1.5" pointer-events="none"/>
                </g>
                <g id="zoomMin">
                        <use xlink:href="#rim" fill="#404040">
                                <set attributeName="fill" to="#808080" begin="zoomminus.mouseover" end="zoomminus.mouseout"/>
                        </use>
                        <path d="M-4,0h8" fill="none" stroke="white" stroke-width="1.5" pointer-events="none"/>
                </g>
                <g id="dirArrow">
                        <path fill="none" stroke="white" stroke-width="1.5" d="M0,-3.0v7 M-2.5,-0.5L0,-3.0L2.5,-0.5"/>
                </g>
               <g id="resetDef">
                       <use xlink:href="#rim2" fill="#404040">
                               <set attributeName="fill" to="#808080" begin="reset.mouseover" end="reset.mouseout"/>
                       </use>
               </g>
        </defs>

<script type="text/javascript">
var viewWidth = 963;
var viewHeight = 115;
var sectionId = 'dynsection-3';
</script>
<script xlink:href="svgpan.js"/>
<svg id="graph" class="graph">
<g id="viewport">
<title>QtScreenSearchView::addResponder</title>
<!-- Node1 -->
<g id="node1" class="node">
<title>Node1</title>
<g id="a_node1"><a xlink:title=" ">
<polygon fill="#999999" stroke="#666666" points="118,-54 0,-54 0,-24 118,-24 118,-54"/>
<text text-anchor="start" x="8" y="-42" font-family="Helvetica,sans-Serif" font-size="10.00">QtScreenSearchView</text>
<text text-anchor="middle" x="59" y="-31" font-family="Helvetica,sans-Serif" font-size="10.00">::addResponder</text>
</a>
</g>
</g>
<!-- Node2 -->
<g id="node2" class="node">
<title>Node2</title>
<g id="a_node2"><a xlink:href="classQtScreenSearchBox.html#a6f7fc303a49dbd0f6e16b1e5e3c41d0c" target="_top" xlink:title=" ">
<polygon fill="white" stroke="#666666" points="273,-54 154,-54 154,-24 273,-24 273,-54"/>
<text text-anchor="start" x="162" y="-42" font-family="Helvetica,sans-Serif" font-size="10.00">QtScreenSearchBox::</text>
<text text-anchor="middle" x="213.5" y="-31" font-family="Helvetica,sans-Serif" font-size="10.00">addResponder</text>
</a>
</g>
</g>
<!-- Node1&#45;&gt;Node2 -->
<g id="edge1" class="edge">
<title>Node1&#45;&gt;Node2</title>
<path fill="none" stroke="#63b8ff" d="M118.09,-39C125.98,-39 134.15,-39 142.24,-39"/>
<polygon fill="#63b8ff" stroke="#63b8ff" points="142.05,-42.5 152.05,-39 142.05,-35.5 142.05,-42.5"/>
</g>
<!-- Node3 -->
<g id="node3" class="node">
<title>Node3</title>
<g id="a_node3"><a xlink:href="classQtScreenSearchBox.html#a7a58d3670edad457024cc25c963faabe" target="_top" xlink:title=" ">
<polygon fill="white" stroke="#666666" points="428,-54 309,-54 309,-24 428,-24 428,-54"/>
<text text-anchor="start" x="317" y="-42" font-family="Helvetica,sans-Serif" font-size="10.00">QtScreenSearchBox::</text>
<text text-anchor="middle" x="368.5" y="-31" font-family="Helvetica,sans-Serif" font-size="10.00">findMatches</text>
</a>
</g>
</g>
<!-- Node2&#45;&gt;Node3 -->
<g id="edge2" class="edge">
<title>Node2&#45;&gt;Node3</title>
<path fill="none" stroke="#63b8ff" d="M273.22,-39C281.12,-39 289.29,-39 297.37,-39"/>
<polygon fill="#63b8ff" stroke="#63b8ff" points="297.17,-42.5 307.17,-39 297.17,-35.5 297.17,-42.5"/>
</g>
<!-- Node4 -->
<g id="node4" class="node">
<title>Node4</title>
<g id="a_node4"><a xlink:href="classControllerProxy.html#a2c3812dac1134864c6fb4982323d6891" target="_top" xlink:title=" ">
<polygon fill="white" stroke="#666666" points="601,-78 464,-78 464,-48 601,-48 601,-78"/>
<text text-anchor="start" x="472" y="-66" font-family="Helvetica,sans-Serif" font-size="10.00">ControllerProxy::execute</text>
<text text-anchor="middle" x="532.5" y="-55" font-family="Helvetica,sans-Serif" font-size="10.00">AsTask</text>
</a>
</g>
</g>
<!-- Node3&#45;&gt;Node4 -->
<g id="edge3" class="edge">
<title>Node3&#45;&gt;Node4</title>
<path fill="none" stroke="#63b8ff" d="M428.44,-47.73C436.19,-48.88 444.23,-50.07 452.25,-51.26"/>
<polygon fill="#63b8ff" stroke="#63b8ff" points="451.63,-54.71 462.04,-52.71 452.66,-47.78 451.63,-54.71"/>
</g>
<!-- Node9 -->
<g id="node9" class="node">
<title>Node9</title>
<g id="a_node9"><a xlink:href="classScreenSearchController.html#a968660dbbbf708da6b223ad3e02f8acf" target="_top" xlink:title=" ">
<polygon fill="white" stroke="#666666" points="598,-30 467,-30 467,0 598,0 598,-30"/>
<text text-anchor="start" x="475" y="-18" font-family="Helvetica,sans-Serif" font-size="10.00">ScreenSearchController</text>
<text text-anchor="middle" x="532.5" y="-7" font-family="Helvetica,sans-Serif" font-size="10.00">::search</text>
</a>
</g>
</g>
<!-- Node3&#45;&gt;Node9 -->
<g id="edge8" class="edge">
<title>Node3&#45;&gt;Node9</title>
<path fill="none" stroke="#63b8ff" d="M428.44,-30.27C437.16,-28.98 446.24,-27.63 455.25,-26.3"/>
<polygon fill="#63b8ff" stroke="#63b8ff" points="455.7,-29.77 465.08,-24.84 454.68,-22.84 455.7,-29.77"/>
</g>
<!-- Node5 -->
<g id="node5" class="node">
<title>Node5</title>
<g id="a_node5"><a xlink:href="classTask.html#afbf3e5b7febfad5362973e6c605e0c91" target="_top" xlink:title=" ">
<polygon fill="white" stroke="#666666" points="745.5,-106.5 659.5,-106.5 659.5,-87.5 745.5,-87.5 745.5,-106.5"/>
<text text-anchor="middle" x="702.5" y="-94.5" font-family="Helvetica,sans-Serif" font-size="10.00">Task::dispatch</text>
</a>
</g>
</g>
<!-- Node4&#45;&gt;Node5 -->
<g id="edge4" class="edge">
<title>Node4&#45;&gt;Node5</title>
<path fill="none" stroke="#63b8ff" d="M601.35,-76.73C616.88,-79.87 633.17,-83.17 648,-86.17"/>
<polygon fill="#63b8ff" stroke="#63b8ff" points="647.04,-89.55 657.53,-88.1 648.43,-82.69 647.04,-89.55"/>
</g>
<!-- Node7 -->
<g id="node7" class="node">
<title>Node7</title>
<g id="a_node7"><a xlink:href="classView.html#aa4d988d307d70568545ad17f89dbe789" target="_top" xlink:title=" ">
<polygon fill="white" stroke="#666666" points="757.5,-69.5 647.5,-69.5 647.5,-50.5 757.5,-50.5 757.5,-69.5"/>
<text text-anchor="middle" x="702.5" y="-57.5" font-family="Helvetica,sans-Serif" font-size="10.00">View::getController</text>
</a>
</g>
</g>
<!-- Node4&#45;&gt;Node7 -->
<g id="edge6" class="edge">
<title>Node4&#45;&gt;Node7</title>
<path fill="none" stroke="#63b8ff" d="M601.35,-61.79C612.75,-61.58 624.57,-61.37 635.92,-61.17"/>
<polygon fill="#63b8ff" stroke="#63b8ff" points="635.63,-64.68 645.56,-61 635.5,-57.68 635.63,-64.68"/>
</g>
<!-- Node6 -->
<g id="node6" class="node">
<title>Node6</title>
<g id="a_node6"><a xlink:href="classTaskManager.html#abad32d382134af5d84739dd12a33beaf" target="_top" xlink:title=" ">
<polygon fill="white" stroke="#666666" points="955,-106.5 804,-106.5 804,-87.5 955,-87.5 955,-106.5"/>
<text text-anchor="middle" x="879.5" y="-94.5" font-family="Helvetica,sans-Serif" font-size="10.00">TaskManager::getScheduler</text>
</a>
</g>
</g>
<!-- Node5&#45;&gt;Node6 -->
<g id="edge5" class="edge">
<title>Node5&#45;&gt;Node6</title>
<path fill="none" stroke="#63b8ff" d="M745.86,-97C760,-97 776.3,-97 792.53,-97"/>
<polygon fill="#63b8ff" stroke="#63b8ff" points="792.22,-100.5 802.22,-97 792.22,-93.5 792.22,-100.5"/>
</g>
<!-- Node8 -->
<g id="node8" class="node">
<title>Node8</title>
<g id="a_node8"><a xlink:href="classComponent.html#a7312b206ac33721ebb1f1fdd364ed1f4" target="_top" xlink:title=" ">
<polygon fill="white" stroke="#666666" points="951,-69.5 808,-69.5 808,-50.5 951,-50.5 951,-69.5"/>
<text text-anchor="middle" x="879.5" y="-57.5" font-family="Helvetica,sans-Serif" font-size="10.00">Component::getController</text>
</a>
</g>
</g>
<!-- Node7&#45;&gt;Node8 -->
<g id="edge7" class="edge">
<title>Node7&#45;&gt;Node8</title>
<path fill="none" stroke="#63b8ff" d="M757.91,-60C770.1,-60 783.28,-60 796.31,-60"/>
<polygon fill="#63b8ff" stroke="#63b8ff" points="796.18,-63.5 806.18,-60 796.18,-56.5 796.18,-63.5"/>
</g>
<!-- Node10 -->
<g id="node10" class="node">
<title>Node10</title>
<g id="a_node10"><a xlink:href="classScreenSearchController.html#a19c4240dd4fd96d766e06aff0a3c6aec" target="_top" xlink:title=" ">
<polygon fill="white" stroke="#666666" points="768,-30 637,-30 637,0 768,0 768,-30"/>
<text text-anchor="start" x="645" y="-18" font-family="Helvetica,sans-Serif" font-size="10.00">ScreenSearchController</text>
<text text-anchor="middle" x="702.5" y="-7" font-family="Helvetica,sans-Serif" font-size="10.00">::clearMatches</text>
</a>
</g>
</g>
<!-- Node9&#45;&gt;Node10 -->
<g id="edge9" class="edge">
<title>Node9&#45;&gt;Node10</title>
<path fill="none" stroke="#63b8ff" d="M598.45,-15C607.28,-15 616.41,-15 625.41,-15"/>
<polygon fill="#63b8ff" stroke="#63b8ff" points="625.21,-18.5 635.21,-15 625.21,-11.5 625.21,-18.5"/>
</g>
</g>
</svg>
        <g id="navigator" transform="translate(0 0)" fill="#404254">
                <rect fill="#f2f5e9" fill-opacity="0.5" stroke="#606060" stroke-width=".5" x="0" y="0" width="60" height="60"/>
                <use id="zoomplus" xlink:href="#zoomPlus" x="17" y="9" onmousedown="handleZoom(evt,'in')"/>
                <use id="zoomminus" xlink:href="#zoomMin" x="42" y="9" onmousedown="handleZoom(evt,'out')"/>
                <use id="reset" xlink:href="#resetDef" x="30" y="36" onmousedown="handleReset()"/>
                <g id="arrowUp" xlink:href="#dirArrow" transform="translate(30 24)" onmousedown="handlePan(0,-1)">
                  <use xlink:href="#rim" fill="#404040">
                        <set attributeName="fill" to="#808080" begin="arrowUp.mouseover" end="arrowUp.mouseout"/>
                  </use>
                  <path fill="none" stroke="white" stroke-width="1.5" d="M0,-3.0v7 M-2.5,-0.5L0,-3.0L2.5,-0.5"/>
                </g>
                <g id="arrowRight" xlink:href="#dirArrow" transform="rotate(90) translate(36 -43)" onmousedown="handlePan(1,0)">
                  <use xlink:href="#rim" fill="#404040">
                        <set attributeName="fill" to="#808080" begin="arrowRight.mouseover" end="arrowRight.mouseout"/>
                  </use>
                  <path fill="none" stroke="white" stroke-width="1.5" d="M0,-3.0v7 M-2.5,-0.5L0,-3.0L2.5,-0.5"/>
                </g>
                <g id="arrowDown" xlink:href="#dirArrow" transform="rotate(180) translate(-30 -48)" onmousedown="handlePan(0,1)">
                  <use xlink:href="#rim" fill="#404040">
                        <set attributeName="fill" to="#808080" begin="arrowDown.mouseover" end="arrowDown.mouseout"/>
                  </use>
                  <path fill="none" stroke="white" stroke-width="1.5" d="M0,-3.0v7 M-2.5,-0.5L0,-3.0L2.5,-0.5"/>
                </g>
                <g id="arrowLeft" xlink:href="#dirArrow" transform="rotate(270) translate(-36 17)" onmousedown="handlePan(-1,0)">
                  <use xlink:href="#rim" fill="#404040">
                        <set attributeName="fill" to="#808080" begin="arrowLeft.mouseover" end="arrowLeft.mouseout"/>
                  </use>
                  <path fill="none" stroke="white" stroke-width="1.5" d="M0,-3.0v7 M-2.5,-0.5L0,-3.0L2.5,-0.5"/>
                </g>
        </g>
        <svg viewBox="0 0 15 15" width="100%" height="30px" preserveAspectRatio="xMaxYMin meet">
         <g id="arrow_out" transform="scale(0.3 0.3)">
          <a xlink:href="classQtScreenSearchView_a7666cf24b1d566f4aa69490ee02fca31_cgraph_org.svg" target="_base">
           <rect id="button" ry="5" rx="5" y="6" x="6" height="38" width="38"
                fill="#f2f5e9" fill-opacity="0.5" stroke="#606060" stroke-width="1.0"/>
           <path id="arrow"
             d="M 11.500037,31.436501 C 11.940474,20.09759 22.043105,11.32322 32.158766,21.979434 L 37.068811,17.246167 C 37.068811,17.246167 37.088388,32 37.088388,32 L 22.160133,31.978069 C 22.160133,31.978069 26.997745,27.140456 26.997745,27.140456 C 18.528582,18.264221 13.291696,25.230495 11.500037,31.436501 z"
             style="fill:#404040;"/>
          </a>
         </g>
        </svg>
</svg>
