<?xml version="1.0" encoding="UTF-8" standalone="no"?>
<!DOCTYPE svg PUBLIC "-//W3C//DTD SVG 1.1//EN"
 "http://www.w3.org/Graphics/SVG/1.1/DTD/svg11.dtd">
<!-- Generated by graphviz version 7.1.0 (0)
 -->
<!-- Title: TokenComponentAccess Pages: 1 -->
<svg width="228pt" height="93pt"
 viewBox="0.00 0.00 228.00 93.00" xmlns="http://www.w3.org/2000/svg" xmlns:xlink="http://www.w3.org/1999/xlink">
<g id="graph0" class="graph" transform="scale(1 1) rotate(0) translate(4 89)">
<title>TokenComponentAccess</title>
<!-- Node1 -->
<g id="node1" class="node">
<title>Node1</title>
<g id="a_node1"><a xlink:title=" ">
<polygon fill="#999999" stroke="#666666" points="176.5,-19 42.5,-19 42.5,0 176.5,0 176.5,-19"/>
<text text-anchor="middle" x="109.5" y="-7" font-family="Helvetica,sans-Serif" font-size="10.00">TokenComponentAccess</text>
</a>
</g>
</g>
<!-- Node2 -->
<g id="node2" class="node">
<title>Node2</title>
<g id="a_node2"><a xlink:href="classTokenComponent.html" target="_top" xlink:title=" ">
<polygon fill="white" stroke="#666666" points="101,-85 0,-85 0,-66 101,-66 101,-85"/>
<text text-anchor="middle" x="50.5" y="-73" font-family="Helvetica,sans-Serif" font-size="10.00">TokenComponent</text>
</a>
</g>
</g>
<!-- Node2&#45;&gt;Node1 -->
<g id="edge1" class="edge">
<title>Node2&#45;&gt;Node1</title>
<path fill="none" stroke="#63b8ff" d="M66.19,-57.48C77.51,-45.2 92.33,-29.13 101.37,-19.32"/>
<polygon fill="#63b8ff" stroke="#63b8ff" points="63.93,-54.76 59.73,-64.49 69.08,-59.51 63.93,-54.76"/>
</g>
<!-- Node3 -->
<g id="node3" class="node">
<title>Node3</title>
<g id="a_node3"><a xlink:title=" ">
<polygon fill="white" stroke="#666666" points="220,-85 119,-85 119,-66 220,-66 220,-85"/>
<text text-anchor="middle" x="169.5" y="-73" font-family="Helvetica,sans-Serif" font-size="10.00">const AccessKind</text>
</a>
</g>
</g>
<!-- Node3&#45;&gt;Node1 -->
<g id="edge2" class="edge">
<title>Node3&#45;&gt;Node1</title>
<path fill="none" stroke="#9a32cd" stroke-dasharray="5,2" d="M153.54,-57.48C142.03,-45.2 126.97,-29.13 117.77,-19.32"/>
<polygon fill="#9a32cd" stroke="#9a32cd" points="150.73,-59.6 160.12,-64.5 155.84,-54.81 150.73,-59.6"/>
<text text-anchor="middle" x="168.5" y="-40" font-family="Helvetica,sans-Serif" font-size="10.00"> m_access</text>
</g>
</g>
</svg>
