<?xml version="1.0" encoding="UTF-8" standalone="no"?>
<!DOCTYPE svg PUBLIC "-//W3C//DTD SVG 1.1//EN"
 "http://www.w3.org/Graphics/SVG/1.1/DTD/svg11.dtd">
<!-- Generated by graphviz version 9.0.0 (0)
 -->
<!-- Title: QtMainView::handleMessage Pages: 1 -->
<svg width="540pt" height="86pt"
 viewBox="0.00 0.00 539.75 85.75" xmlns="http://www.w3.org/2000/svg" xmlns:xlink="http://www.w3.org/1999/xlink">
<g id="graph0" class="graph" transform="scale(1 1) rotate(0) translate(4 81.75)">
<title>QtMainView::handleMessage</title>
<!-- Node1 -->
<g id="Node000001" class="node">
<title>Node1</title>
<g id="a_Node000001"><a xlink:title=" ">
<polygon fill="#999999" stroke="#666666" points="157.75,-39.75 0,-39.75 0,-19 157.75,-19 157.75,-39.75"/>
<text text-anchor="middle" x="78.88" y="-26.25" font-family="Helvetica,sans-Serif" font-size="10.00">QtMainView::handleMessage</text>
</a>
</g>
</g>
<!-- Node2 -->
<g id="Node000002" class="node">
<title>Node2</title>
<g id="a_Node000002"><a xlink:href="classQtMainWindow.html#aed085eb9208ab850b1b325cec61bacae" target="_top" xlink:title=" ">
<polygon fill="white" stroke="#666666" points="342.5,-39.75 193.75,-39.75 193.75,-19 342.5,-19 342.5,-39.75"/>
<text text-anchor="middle" x="268.12" y="-26.25" font-family="Helvetica,sans-Serif" font-size="10.00">QtMainWindow::editProject</text>
</a>
</g>
</g>
<!-- Node1&#45;&gt;Node2 -->
<g id="edge1_Node000001_Node000002" class="edge">
<title>Node1&#45;&gt;Node2</title>
<g id="a_edge1_Node000001_Node000002"><a xlink:title=" ">
<path fill="none" stroke="#63b8ff" d="M158.2,-29.38C166.01,-29.38 173.97,-29.38 181.85,-29.38"/>
<polygon fill="#63b8ff" stroke="#63b8ff" points="181.79,-32.88 191.79,-29.38 181.79,-25.88 181.79,-32.88"/>
</a>
</g>
</g>
<!-- Node3 -->
<g id="Node000003" class="node">
<title>Node3</title>
<g id="a_Node000003"><a xlink:href="classQtProjectWizard.html#a0660b040067074de4647478b9faa2262" target="_top" xlink:title=" ">
<polygon fill="white" stroke="#666666" points="531.75,-59.75 378.5,-59.75 378.5,-39 531.75,-39 531.75,-59.75"/>
<text text-anchor="middle" x="455.12" y="-46.25" font-family="Helvetica,sans-Serif" font-size="10.00">QtProjectWizard::editProject</text>
</a>
</g>
</g>
<!-- Node2&#45;&gt;Node3 -->
<g id="edge2_Node000002_Node000003" class="edge">
<title>Node2&#45;&gt;Node3</title>
<g id="a_edge2_Node000002_Node000003"><a xlink:title=" ">
<path fill="none" stroke="#63b8ff" d="M342.77,-37.34C350.65,-38.19 358.72,-39.06 366.73,-39.93"/>
<polygon fill="#63b8ff" stroke="#63b8ff" points="366.18,-43.39 376.5,-40.98 366.93,-36.43 366.18,-43.39"/>
</a>
</g>
</g>
<!-- Node4 -->
<g id="Node000004" class="node">
<title>Node4</title>
<g id="a_Node000004"><a xlink:href="classApplication.html#add09b97cb9b0946412db8a6636b3f144" target="_top" xlink:title=" ">
<polygon fill="white" stroke="#666666" points="522,-20.75 388.25,-20.75 388.25,0 522,0 522,-20.75"/>
<text text-anchor="middle" x="455.12" y="-7.25" font-family="Helvetica,sans-Serif" font-size="10.00">Application::getInstance</text>
</a>
</g>
</g>
<!-- Node2&#45;&gt;Node4 -->
<g id="edge4_Node000002_Node000004" class="edge">
<title>Node2&#45;&gt;Node4</title>
<g id="a_edge4_Node000002_Node000004"><a xlink:title=" ">
<path fill="none" stroke="#63b8ff" d="M342.77,-21.81C353.96,-20.66 365.53,-19.47 376.79,-18.32"/>
<polygon fill="#63b8ff" stroke="#63b8ff" points="376.82,-21.83 386.41,-17.33 376.11,-14.87 376.82,-21.83"/>
</a>
</g>
</g>
<!-- Node3&#45;&gt;Node3 -->
<g id="edge3_Node000003_Node000003" class="edge">
<title>Node3&#45;&gt;Node3</title>
<g id="a_edge3_Node000003_Node000003"><a xlink:title=" ">
<path fill="none" stroke="#63b8ff" d="M424.99,-60.15C412.94,-68.81 422.98,-77.75 455.12,-77.75 472.7,-77.75 483.67,-75.08 488.03,-71.24"/>
<polygon fill="#63b8ff" stroke="#63b8ff" points="491.45,-70.47 485.62,-61.62 484.66,-72.17 491.45,-70.47"/>
</a>
</g>
</g>
</g>
</svg>
