<?xml version="1.0" encoding="UTF-8" standalone="no"?>
<!DOCTYPE svg PUBLIC "-//W3C//DTD SVG 1.1//EN"
 "http://www.w3.org/Graphics/SVG/1.1/DTD/svg11.dtd">
<!-- Generated by graphviz version 7.1.0 (0)
 -->
<!-- Title: NameHierarchy::getDelimiter Pages: 1 -->
<svg width="943pt" height="182pt"
 viewBox="0.00 0.00 943.00 182.00" xmlns="http://www.w3.org/2000/svg" xmlns:xlink="http://www.w3.org/1999/xlink">
<g id="graph0" class="graph" transform="scale(1 1) rotate(0) translate(4 178)">
<title>NameHierarchy::getDelimiter</title>
<!-- Node1 -->
<g id="node1" class="node">
<title>Node1</title>
<g id="a_node1"><a xlink:title=" ">
<polygon fill="#999999" stroke="#666666" points="935,-120.5 775,-120.5 775,-101.5 935,-101.5 935,-120.5"/>
<text text-anchor="middle" x="855" y="-108.5" font-family="Helvetica,sans-Serif" font-size="10.00">NameHierarchy::getDelimiter</text>
</a>
</g>
</g>
<!-- Node2 -->
<g id="node2" class="node">
<title>Node2</title>
<g id="a_node2"><a xlink:href="classPersistentStorage.html#a7f97bd0e2c92e2d2045006ed1676cfa5" target="_top" xlink:title=" ">
<polygon fill="white" stroke="#666666" points="722.5,-174 613.5,-174 613.5,-144 722.5,-144 722.5,-174"/>
<text text-anchor="start" x="621.5" y="-162" font-family="Helvetica,sans-Serif" font-size="10.00">PersistentStorage::</text>
<text text-anchor="middle" x="668" y="-151" font-family="Helvetica,sans-Serif" font-size="10.00">buildSearchIndex</text>
</a>
</g>
</g>
<!-- Node1&#45;&gt;Node2 -->
<g id="edge1" class="edge">
<title>Node1&#45;&gt;Node2</title>
<path fill="none" stroke="#63b8ff" d="M804.84,-123.76C779.53,-130.32 748.64,-138.34 722.72,-145.06"/>
<polygon fill="#63b8ff" stroke="#63b8ff" points="805.4,-127.23 814.2,-121.33 803.64,-120.45 805.4,-127.23"/>
</g>
<!-- Node5 -->
<g id="node5" class="node">
<title>Node5</title>
<g id="a_node5"><a xlink:href="classPersistentStorage.html#affb6cd0ceacf0f94b0bf3853490689f2" target="_top" xlink:title=" ">
<polygon fill="white" stroke="#666666" points="739,-126 597,-126 597,-96 739,-96 739,-126"/>
<text text-anchor="start" x="605" y="-114" font-family="Helvetica,sans-Serif" font-size="10.00">PersistentStorage::</text>
<text text-anchor="middle" x="668" y="-103" font-family="Helvetica,sans-Serif" font-size="10.00">getTooltipSnippetForNode</text>
</a>
</g>
</g>
<!-- Node1&#45;&gt;Node5 -->
<g id="edge4" class="edge">
<title>Node1&#45;&gt;Node5</title>
<path fill="none" stroke="#63b8ff" d="M763.37,-111C755.29,-111 747.2,-111 739.34,-111"/>
<polygon fill="#63b8ff" stroke="#63b8ff" points="763.22,-114.5 773.22,-111 763.22,-107.5 763.22,-114.5"/>
</g>
<!-- Node7 -->
<g id="node7" class="node">
<title>Node7</title>
<g id="a_node7"><a xlink:href="classNameHierarchy.html#a8f09e39f0ed5c097c2888a731eb64404" target="_top" xlink:title=" ">
<polygon fill="white" stroke="#666666" points="738,-78 598,-78 598,-48 738,-48 738,-78"/>
<text text-anchor="start" x="606" y="-66" font-family="Helvetica,sans-Serif" font-size="10.00">NameHierarchy::serialize</text>
<text text-anchor="middle" x="668" y="-55" font-family="Helvetica,sans-Serif" font-size="10.00">Range</text>
</a>
</g>
</g>
<!-- Node1&#45;&gt;Node7 -->
<g id="edge6" class="edge">
<title>Node1&#45;&gt;Node7</title>
<path fill="none" stroke="#63b8ff" d="M804.59,-98.18C781.16,-92.1 752.99,-84.79 728.41,-78.42"/>
<polygon fill="#63b8ff" stroke="#63b8ff" points="803.64,-101.55 814.2,-100.67 805.4,-94.77 803.64,-101.55"/>
</g>
<!-- Node3 -->
<g id="node3" class="node">
<title>Node3</title>
<g id="a_node3"><a xlink:href="classPersistentStorage.html#a765e1cba2360c511e1ea811ba5c546b1" target="_top" xlink:title=" ">
<polygon fill="white" stroke="#666666" points="542,-174 433,-174 433,-144 542,-144 542,-174"/>
<text text-anchor="start" x="441" y="-162" font-family="Helvetica,sans-Serif" font-size="10.00">PersistentStorage::</text>
<text text-anchor="middle" x="487.5" y="-151" font-family="Helvetica,sans-Serif" font-size="10.00">buildCaches</text>
</a>
</g>
</g>
<!-- Node2&#45;&gt;Node3 -->
<g id="edge2" class="edge">
<title>Node2&#45;&gt;Node3</title>
<path fill="none" stroke="#63b8ff" d="M602.11,-159C582.48,-159 561.15,-159 542.33,-159"/>
<polygon fill="#63b8ff" stroke="#63b8ff" points="601.93,-162.5 611.93,-159 601.93,-155.5 601.93,-162.5"/>
</g>
<!-- Node4 -->
<g id="node4" class="node">
<title>Node4</title>
<g id="a_node4"><a xlink:href="classTaskExecuteCustomCommands.html#af4a74f479f27dcd0117a6f8750eba3ea" target="_top" xlink:title=" ">
<polygon fill="white" stroke="#666666" points="378,-174 208,-174 208,-144 378,-144 378,-174"/>
<text text-anchor="start" x="216" y="-162" font-family="Helvetica,sans-Serif" font-size="10.00">TaskExecuteCustomCommands</text>
<text text-anchor="middle" x="293" y="-151" font-family="Helvetica,sans-Serif" font-size="10.00">::doUpdate</text>
</a>
</g>
</g>
<!-- Node3&#45;&gt;Node4 -->
<g id="edge3" class="edge">
<title>Node3&#45;&gt;Node4</title>
<path fill="none" stroke="#63b8ff" d="M421.24,-159C407.39,-159 392.59,-159 378.15,-159"/>
<polygon fill="#63b8ff" stroke="#63b8ff" points="421.11,-162.5 431.11,-159 421.11,-155.5 421.11,-162.5"/>
</g>
<!-- Node6 -->
<g id="node6" class="node">
<title>Node6</title>
<g id="a_node6"><a xlink:href="classPersistentStorage.html#a4e8e066571898d8762233955dbc3e845" target="_top" xlink:title=" ">
<polygon fill="white" stroke="#666666" points="557.5,-126 417.5,-126 417.5,-96 557.5,-96 557.5,-126"/>
<text text-anchor="start" x="425.5" y="-114" font-family="Helvetica,sans-Serif" font-size="10.00">PersistentStorage::</text>
<text text-anchor="middle" x="487.5" y="-103" font-family="Helvetica,sans-Serif" font-size="10.00">getTooltipInfoForTokenIds</text>
</a>
</g>
</g>
<!-- Node5&#45;&gt;Node6 -->
<g id="edge5" class="edge">
<title>Node5&#45;&gt;Node6</title>
<path fill="none" stroke="#63b8ff" d="M585.21,-111C576.07,-111 566.82,-111 557.85,-111"/>
<polygon fill="#63b8ff" stroke="#63b8ff" points="585.19,-114.5 595.19,-111 585.19,-107.5 585.19,-114.5"/>
</g>
<!-- Node8 -->
<g id="node8" class="node">
<title>Node8</title>
<g id="a_node8"><a xlink:href="classParserClientImpl.html#a940c7625a2a6f9638274f9094b03b66e" target="_top" xlink:title=" ">
<polygon fill="white" stroke="#666666" points="561,-78 414,-78 414,-48 561,-48 561,-78"/>
<text text-anchor="start" x="422" y="-66" font-family="Helvetica,sans-Serif" font-size="10.00">ParserClientImpl::addNode</text>
<text text-anchor="middle" x="487.5" y="-55" font-family="Helvetica,sans-Serif" font-size="10.00">Hierarchy</text>
</a>
</g>
</g>
<!-- Node7&#45;&gt;Node8 -->
<g id="edge7" class="edge">
<title>Node7&#45;&gt;Node8</title>
<path fill="none" stroke="#63b8ff" d="M586.4,-63C578.03,-63 569.55,-63 561.27,-63"/>
<polygon fill="#63b8ff" stroke="#63b8ff" points="586.22,-66.5 596.22,-63 586.22,-59.5 586.22,-66.5"/>
</g>
<!-- Node12 -->
<g id="node12" class="node">
<title>Node12</title>
<g id="a_node12"><a xlink:href="classNameHierarchy.html#a0b0c0f2ba97e519e9d2d87ba12d342d6" target="_top" xlink:title=" ">
<polygon fill="white" stroke="#666666" points="557.5,-27.5 417.5,-27.5 417.5,-8.5 557.5,-8.5 557.5,-27.5"/>
<text text-anchor="middle" x="487.5" y="-15.5" font-family="Helvetica,sans-Serif" font-size="10.00">NameHierarchy::serialize</text>
</a>
</g>
</g>
<!-- Node7&#45;&gt;Node12 -->
<g id="edge11" class="edge">
<title>Node7&#45;&gt;Node12</title>
<path fill="none" stroke="#63b8ff" d="M594.55,-44.73C571.78,-39 547.51,-32.88 527.94,-27.94"/>
<polygon fill="#63b8ff" stroke="#63b8ff" points="593.55,-48.09 604.1,-47.14 595.26,-41.31 593.55,-48.09"/>
</g>
<!-- Node9 -->
<g id="node9" class="node">
<title>Node9</title>
<g id="a_node9"><a xlink:href="classParserClientImpl.html#ab0373e2bebff5883eb88a4fc9243f1c7" target="_top" xlink:title=" ">
<polygon fill="white" stroke="#666666" points="376.5,-115.5 209.5,-115.5 209.5,-96.5 376.5,-96.5 376.5,-115.5"/>
<text text-anchor="middle" x="293" y="-103.5" font-family="Helvetica,sans-Serif" font-size="10.00">ParserClientImpl::addFileName</text>
</a>
</g>
</g>
<!-- Node8&#45;&gt;Node9 -->
<g id="edge8" class="edge">
<title>Node8&#45;&gt;Node9</title>
<path fill="none" stroke="#63b8ff" d="M406.08,-80.96C383.01,-86.12 358.7,-91.55 338.64,-96.03"/>
<polygon fill="#63b8ff" stroke="#63b8ff" points="406.8,-84.39 415.8,-78.79 405.28,-77.56 406.8,-84.39"/>
</g>
<!-- Node11 -->
<g id="node11" class="node">
<title>Node11</title>
<g id="a_node11"><a xlink:href="classParserClientImpl.html#aa4915a8b3f6eb71ed3f1e084edee6057" target="_top" xlink:title=" ">
<polygon fill="white" stroke="#666666" points="360,-78 226,-78 226,-48 360,-48 360,-78"/>
<text text-anchor="start" x="234" y="-66" font-family="Helvetica,sans-Serif" font-size="10.00">ParserClientImpl::record</text>
<text text-anchor="middle" x="293" y="-55" font-family="Helvetica,sans-Serif" font-size="10.00">Symbol</text>
</a>
</g>
</g>
<!-- Node8&#45;&gt;Node11 -->
<g id="edge10" class="edge">
<title>Node8&#45;&gt;Node11</title>
<path fill="none" stroke="#63b8ff" d="M402.48,-63C388.34,-63 373.84,-63 360.23,-63"/>
<polygon fill="#63b8ff" stroke="#63b8ff" points="402.21,-66.5 412.21,-63 402.21,-59.5 402.21,-66.5"/>
</g>
<!-- Node10 -->
<g id="node10" class="node">
<title>Node10</title>
<g id="a_node10"><a xlink:href="classParserClientImpl.html#a254726d0926a918e12827e210612c76e" target="_top" xlink:title=" ">
<polygon fill="white" stroke="#666666" points="161.5,-115.5 10.5,-115.5 10.5,-96.5 161.5,-96.5 161.5,-115.5"/>
<text text-anchor="middle" x="86" y="-103.5" font-family="Helvetica,sans-Serif" font-size="10.00">ParserClientImpl::recordFile</text>
</a>
</g>
</g>
<!-- Node9&#45;&gt;Node10 -->
<g id="edge9" class="edge">
<title>Node9&#45;&gt;Node10</title>
<path fill="none" stroke="#63b8ff" d="M197.74,-106C185.7,-106 173.5,-106 161.83,-106"/>
<polygon fill="#63b8ff" stroke="#63b8ff" points="197.7,-109.5 207.7,-106 197.7,-102.5 197.7,-109.5"/>
</g>
<!-- Node13 -->
<g id="node13" class="node">
<title>Node13</title>
<g id="a_node13"><a xlink:href="classPersistentStorage.html#a81e098b9dd0046082f3c12abd84bed2e" target="_top" xlink:title=" ">
<polygon fill="white" stroke="#666666" points="372,-30 214,-30 214,0 372,0 372,-30"/>
<text text-anchor="start" x="222" y="-18" font-family="Helvetica,sans-Serif" font-size="10.00">PersistentStorage::</text>
<text text-anchor="middle" x="293" y="-7" font-family="Helvetica,sans-Serif" font-size="10.00">getNodeIdForNameHierarchy</text>
</a>
</g>
</g>
<!-- Node12&#45;&gt;Node13 -->
<g id="edge12" class="edge">
<title>Node12&#45;&gt;Node13</title>
<path fill="none" stroke="#63b8ff" d="M405.61,-16.74C394.55,-16.57 383.22,-16.39 372.21,-16.22"/>
<polygon fill="#63b8ff" stroke="#63b8ff" points="405.44,-20.24 415.49,-16.89 405.55,-13.24 405.44,-20.24"/>
</g>
<!-- Node14 -->
<g id="node14" class="node">
<title>Node14</title>
<g id="a_node14"><a xlink:href="classPersistentStorage.html#a95ac68ed86a85ce2c9bd4057c44b7286" target="_top" xlink:title=" ">
<polygon fill="white" stroke="#666666" points="172,-30 0,-30 0,0 172,0 172,-30"/>
<text text-anchor="start" x="8" y="-18" font-family="Helvetica,sans-Serif" font-size="10.00">PersistentStorage::</text>
<text text-anchor="middle" x="86" y="-7" font-family="Helvetica,sans-Serif" font-size="10.00">getNodeIdsForNameHierarchies</text>
</a>
</g>
</g>
<!-- Node13&#45;&gt;Node14 -->
<g id="edge13" class="edge">
<title>Node13&#45;&gt;Node14</title>
<path fill="none" stroke="#63b8ff" d="M202.38,-15C192.34,-15 182.14,-15 172.16,-15"/>
<polygon fill="#63b8ff" stroke="#63b8ff" points="202.11,-18.5 212.11,-15 202.11,-11.5 202.11,-18.5"/>
</g>
</g>
</svg>
