<?xml version="1.0" encoding="UTF-8" standalone="no"?>
<!DOCTYPE svg PUBLIC "-//W3C//DTD SVG 1.1//EN"
 "http://www.w3.org/Graphics/SVG/1.1/DTD/svg11.dtd">
<!-- Generated by graphviz version 9.0.0 (0)
 -->
<!-- Title: ProjectWizardModel Pages: 1 -->
<!--zoomable 224 -->

<svg id="main" version="1.1" xmlns="http://www.w3.org/2000/svg" xmlns:xlink="http://www.w3.org/1999/xlink" xml:space="preserve" onload="init(evt)">
<style type="text/css"><![CDATA[
.node, .edge {opacity: 0.7;}
.node.selected, .edge.selected {opacity: 1;}
.edge:hover path { stroke: red; }
.edge:hover polygon { stroke: red; fill: red; }
]]></style>

<defs>
  <circle id="rim" cx="0" cy="0" r="7"/>
  <circle id="rim2" cx="0" cy="0" r="3.5"/>
  <g id="zoomPlus">
    <use xlink:href="#rim" fill="#404040"><set attributeName="fill" to="#808080" begin="zoomplus.mouseover" end="zoomplus.mouseout"/></use>
    <path d="M-4,0h8M0,-4v8" fill="none" stroke="white" stroke-width="1.5" pointer-events="none"/>
  </g>
  <g id="zoomMin">
    <use xlink:href="#rim" fill="#404040"><set attributeName="fill" to="#808080" begin="zoomminus.mouseover" end="zoomminus.mouseout"/></use>
    <path d="M-4,0h8" fill="none" stroke="white" stroke-width="1.5" pointer-events="none"/>
  </g>
  <g id="arrowUp" transform="translate(30 24)">
    <use xlink:href="#rim"/>
    <path pointer-events="none" fill="none" stroke="white" stroke-width="1.5" d="M0,-3.0v7 M-2.5,-0.5L0,-3.0L2.5,-0.5"/>
  </g>
  <g id="arrowRight" transform="rotate(90) translate(36 -43)">
    <use xlink:href="#rim"/>
    <path pointer-events="none" fill="none" stroke="white" stroke-width="1.5" d="M0,-3.0v7 M-2.5,-0.5L0,-3.0L2.5,-0.5"/>
  </g>
  <g id="arrowDown" transform="rotate(180) translate(-30 -48)">
    <use xlink:href="#rim"/>
    <path pointer-events="none" fill="none" stroke="white" stroke-width="1.5" d="M0,-3.0v7 M-2.5,-0.5L0,-3.0L2.5,-0.5"/>
  </g>
  <g id="arrowLeft" transform="rotate(270) translate(-36 17)">
    <use xlink:href="#rim"/>
    <path pointer-events="none" fill="none" stroke="white" stroke-width="1.5" d="M0,-3.0v7 M-2.5,-0.5L0,-3.0L2.5,-0.5"/>
  </g>
  <g id="resetDef">
    <use xlink:href="#rim2" fill="#404040"><set attributeName="fill" to="#808080" begin="reset.mouseover" end="reset.mouseout"/></use>
  </g>
</defs>
<script type="application/ecmascript">
var viewWidth = 961;
var viewHeight = 224;
var sectionId = 'dynsection-0';
</script>
<script type="application/ecmascript" xlink:href="svg.min.js"/>
<svg id="graph" class="graph">
<g id="viewport">
<title>ProjectWizardModel</title>
<!-- Node1 -->
<g id="Node000001" class="node">
<title>Node1</title>
<g id="a_Node000001"><a xlink:title=" ">
<polygon fill="#999999" stroke="#666666" points="952.75,-169.75 839.25,-169.75 839.25,-149 952.75,-149 952.75,-169.75"/>
<text text-anchor="middle" x="896" y="-156.25" font-family="Helvetica,sans-Serif" font-size="10.00">ProjectWizardModel</text>
</a>
</g>
</g>
<!-- Node2 -->
<g id="Node000002" class="node">
<title>Node2</title>
<g id="a_Node000002"><a xlink:title=" ">
<polygon fill="white" stroke="#666666" points="742.5,-202.12 561.5,-202.12 561.5,-168.62 742.5,-168.62 742.5,-202.12"/>
<text text-anchor="start" x="569.5" y="-188.62" font-family="Helvetica,sans-Serif" font-size="10.00">shared_ptr&lt; SourceGroupSettings</text>
<text text-anchor="middle" x="652" y="-175.88" font-family="Helvetica,sans-Serif" font-size="10.00">CxxCdb &gt;</text>
</a>
</g>
</g>
<!-- Node2&#45;&gt;Node1 -->
<g id="edge1_Node000001_Node000002" class="edge">
<title>Node2&#45;&gt;Node1</title>
<g id="a_edge1_Node000001_Node000002"><a xlink:title=" ">
<path fill="none" stroke="#9a32cd" stroke-dasharray="5,2" d="M753.85,-174.54C783,-171.41 813.75,-168.1 839.09,-165.38"/>
<polygon fill="#9a32cd" stroke="#9a32cd" points="753.84,-171.02 744.27,-175.57 754.59,-177.98 753.84,-171.02"/>
</a>
</g>
<text text-anchor="middle" x="790.88" y="-175.62" font-family="Helvetica,sans-Serif" font-size="10.00" fill="grey"> m_settings</text>
</g>
<!-- Node3 -->
<g id="Node000003" class="node">
<title>Node3</title>
<g id="a_Node000003"><a xlink:href="classSingleValueCache.html" target="_top" xlink:title=" ">
<polygon fill="white" stroke="#666666" points="717,-150.12 587,-150.12 587,-116.62 717,-116.62 717,-150.12"/>
<text text-anchor="start" x="595" y="-136.62" font-family="Helvetica,sans-Serif" font-size="10.00">SingleValueCache&lt; std</text>
<text text-anchor="middle" x="652" y="-123.88" font-family="Helvetica,sans-Serif" font-size="10.00">::vector&lt; FilePath &gt; &gt;</text>
</a>
</g>
</g>
<!-- Node3&#45;&gt;Node1 -->
<g id="edge2_Node000001_Node000003" class="edge">
<title>Node3&#45;&gt;Node1</title>
<g id="a_edge2_Node000001_Node000003"><a xlink:title=" ">
<path fill="none" stroke="#9a32cd" stroke-dasharray="5,2" d="M728.63,-140.87C757.61,-143.81 790.98,-147.28 821.25,-150.62 827.02,-151.26 833.04,-151.95 839.04,-152.64"/>
<polygon fill="#9a32cd" stroke="#9a32cd" points="729.15,-137.4 718.85,-139.88 728.44,-144.37 729.15,-137.4"/>
</a>
</g>
<text text-anchor="middle" x="790.88" y="-153.62" font-family="Helvetica,sans-Serif" font-size="10.00" fill="grey"> m_filePaths</text>
</g>
<!-- Node4 -->
<g id="Node000004" class="node">
<title>Node4</title>
<g id="a_Node000004"><a xlink:href="classstd_1_1function_3_01std_1_1vector_3_01FilePath_01_4_07_08_4.html" target="_top" xlink:title=" ">
<polygon fill="white" stroke="#666666" points="364.62,-216.12 245.88,-216.12 245.88,-182.62 364.62,-182.62 364.62,-216.12"/>
<text text-anchor="start" x="253.88" y="-202.62" font-family="Helvetica,sans-Serif" font-size="10.00">function&lt; std::vector</text>
<text text-anchor="middle" x="305.25" y="-189.88" font-family="Helvetica,sans-Serif" font-size="10.00">&lt; FilePath &gt;()&gt;</text>
</a>
</g>
</g>
<!-- Node4&#45;&gt;Node3 -->
<g id="edge3_Node000003_Node000004" class="edge">
<title>Node4&#45;&gt;Node3</title>
<g id="a_edge3_Node000003_Node000004"><a xlink:title=" ">
<path fill="none" stroke="#9a32cd" stroke-dasharray="5,2" d="M376.05,-191.58C423.55,-185.67 487.68,-176.48 543.5,-164.38 546.24,-163.78 568.39,-157.41 591.88,-150.6"/>
<polygon fill="#9a32cd" stroke="#9a32cd" points="375.66,-188.1 366.16,-192.79 376.51,-195.05 375.66,-188.1"/>
</a>
</g>
<text text-anchor="middle" x="474.5" y="-189.62" font-family="Helvetica,sans-Serif" font-size="10.00" fill="grey"> m_calculator</text>
</g>
<!-- Node5 -->
<g id="Node000005" class="node">
<title>Node5</title>
<g id="a_Node000005"><a xlink:title=" ">
<polygon fill="white" stroke="#666666" points="359,-164.75 251.5,-164.75 251.5,-144 359,-144 359,-164.75"/>
<text text-anchor="middle" x="305.25" y="-151.25" font-family="Helvetica,sans-Serif" font-size="10.00">vector&lt; FilePath &gt;</text>
</a>
</g>
</g>
<!-- Node5&#45;&gt;Node3 -->
<g id="edge4_Node000003_Node000005" class="edge">
<title>Node5&#45;&gt;Node3</title>
<g id="a_edge4_Node000003_Node000005"><a xlink:title=" ">
<path fill="none" stroke="#9a32cd" stroke-dasharray="5,2" d="M370.51,-150.46C432.22,-146.7 524.93,-141.05 586.67,-137.29"/>
<polygon fill="#9a32cd" stroke="#9a32cd" points="370.64,-146.95 360.87,-151.05 371.07,-153.93 370.64,-146.95"/>
</a>
</g>
<text text-anchor="middle" x="474.5" y="-150.62" font-family="Helvetica,sans-Serif" font-size="10.00" fill="grey"> m_value</text>
</g>
<!-- Node6 -->
<g id="Node000006" class="node">
<title>Node6</title>
<g id="a_Node000006"><a xlink:title=" ">
<polygon fill="white" stroke="#666666" points="79,-110.75 42,-110.75 42,-90 79,-90 79,-110.75"/>
<text text-anchor="middle" x="60.5" y="-97.25" font-family="Helvetica,sans-Serif" font-size="10.00">bool</text>
</a>
</g>
</g>
<!-- Node6&#45;&gt;Node3 -->
<g id="edge5_Node000003_Node000006" class="edge">
<title>Node6&#45;&gt;Node3</title>
<g id="a_edge5_Node000003_Node000006"><a xlink:title=" ">
<path fill="none" stroke="#9a32cd" stroke-dasharray="5,2" d="M90.75,-102.01C181.47,-107.09 459.55,-122.66 586.54,-129.77"/>
<polygon fill="#9a32cd" stroke="#9a32cd" points="91.16,-98.53 80.98,-101.47 90.76,-105.52 91.16,-98.53"/>
</a>
</g>
<text text-anchor="middle" x="305.25" y="-121.62" font-family="Helvetica,sans-Serif" font-size="10.00" fill="grey"> m_hasValue</text>
</g>
<!-- Node7 -->
<g id="Node000007" class="node">
<title>Node7</title>
<g id="a_Node000007"><a xlink:href="classSingleValueCache.html" target="_top" xlink:title=" ">
<polygon fill="white" stroke="#666666" points="387.5,-68.75 223,-68.75 223,-48 387.5,-48 387.5,-68.75"/>
<text text-anchor="middle" x="305.25" y="-55.25" font-family="Helvetica,sans-Serif" font-size="10.00">SingleValueCache&lt; ValType &gt;</text>
</a>
</g>
</g>
<!-- Node6&#45;&gt;Node7 -->
<g id="edge9_Node000007_Node000006" class="edge">
<title>Node6&#45;&gt;Node7</title>
<g id="a_edge9_Node000007_Node000006"><a xlink:title=" ">
<path fill="none" stroke="#9a32cd" stroke-dasharray="5,2" d="M90.66,-95.16C105.18,-92.57 123.01,-89.41 139,-86.62 172.4,-80.81 209.63,-74.43 240.28,-69.22"/>
<polygon fill="#9a32cd" stroke="#9a32cd" points="90.07,-91.71 80.84,-96.91 91.3,-98.6 90.07,-91.71"/>
</a>
</g>
<text text-anchor="middle" x="172" y="-89.62" font-family="Helvetica,sans-Serif" font-size="10.00" fill="grey"> m_hasValue</text>
</g>
<!-- Node7&#45;&gt;Node3 -->
<g id="edge6_Node000003_Node000007" class="edge">
<title>Node7&#45;&gt;Node3</title>
<g id="a_edge6_Node000003_Node000007"><a xlink:title=" ">
<path fill="none" stroke="orange" stroke-dasharray="5,2" d="M399.15,-63.14C443.44,-67 496.81,-73.99 543.5,-86.62 569.63,-93.7 597.62,-106.04 618.49,-116.27"/>
<polygon fill="orange" stroke="orange" points="399.57,-59.66 389.31,-62.33 398.99,-66.64 399.57,-59.66"/>
</a>
</g>
<text text-anchor="middle" x="474.5" y="-89.62" font-family="Helvetica,sans-Serif" font-size="10.00" fill="grey"> &lt; std::vector&lt; FilePath &gt; &gt;</text>
</g>
<!-- Node8 -->
<g id="Node000008" class="node">
<title>Node8</title>
<g id="a_Node000008"><a xlink:title=" ">
<polygon fill="white" stroke="#666666" points="121,-59.75 0,-59.75 0,-39 121,-39 121,-59.75"/>
<text text-anchor="middle" x="60.5" y="-46.25" font-family="Helvetica,sans-Serif" font-size="10.00">function&lt; ValType()&gt;</text>
</a>
</g>
</g>
<!-- Node8&#45;&gt;Node7 -->
<g id="edge7_Node000007_Node000008" class="edge">
<title>Node8&#45;&gt;Node7</title>
<g id="a_edge7_Node000007_Node000008"><a xlink:title=" ">
<path fill="none" stroke="#9a32cd" stroke-dasharray="5,2" d="M132.67,-49.02C155.75,-49.17 181.47,-49.61 205,-50.62 210.78,-50.88 216.75,-51.19 222.76,-51.56"/>
<polygon fill="#9a32cd" stroke="#9a32cd" points="132.75,-45.52 122.73,-48.98 132.72,-52.52 132.75,-45.52"/>
</a>
</g>
<text text-anchor="middle" x="172" y="-53.62" font-family="Helvetica,sans-Serif" font-size="10.00" fill="grey"> m_calculator</text>
</g>
<!-- Node9 -->
<g id="Node000009" class="node">
<title>Node9</title>
<g id="a_Node000009"><a xlink:title=" ">
<polygon fill="white" stroke="#666666" points="87.62,-20.75 33.38,-20.75 33.38,0 87.62,0 87.62,-20.75"/>
<text text-anchor="middle" x="60.5" y="-7.25" font-family="Helvetica,sans-Serif" font-size="10.00">ValType</text>
</a>
</g>
</g>
<!-- Node9&#45;&gt;Node7 -->
<g id="edge8_Node000007_Node000009" class="edge">
<title>Node9&#45;&gt;Node7</title>
<g id="a_edge8_Node000007_Node000009"><a xlink:title=" ">
<path fill="none" stroke="#9a32cd" stroke-dasharray="5,2" d="M99.39,-14.77C128.45,-18.43 169.46,-24.23 205,-31.62 226.14,-36.02 249.47,-42.24 268.2,-47.57"/>
<polygon fill="#9a32cd" stroke="#9a32cd" points="99.97,-11.31 89.61,-13.56 99.11,-18.26 99.97,-11.31"/>
</a>
</g>
<text text-anchor="middle" x="172" y="-35.62" font-family="Helvetica,sans-Serif" font-size="10.00" fill="grey"> m_value</text>
</g>
</g>
</svg>

<g id="navigator" transform="translate(0 0)" fill="#404254">
  <rect fill="#f2f5e9" fill-opacity="0.5" stroke="#606060" stroke-width=".5" x="0" y="0" width="60" height="60"/>
  <use id="zoomplus" xlink:href="#zoomPlus" x="17" y="9" onmousedown="handleZoom(evt,'in')"/>
  <use id="zoomminus" xlink:href="#zoomMin" x="42" y="9" onmousedown="handleZoom(evt,'out')"/>
  <use id="reset" xlink:href="#resetDef" x="30" y="36" onmousedown="handleReset()"/>
   <use id="arrowup" xlink:href="#arrowUp" x="0" y="0" onmousedown="handlePan(0,-1)"/>
  <use id="arrowright" xlink:href="#arrowRight" x="0" y="0" onmousedown="handlePan(1,0)"/>
  <use id="arrowdown" xlink:href="#arrowDown" x="0" y="0" onmousedown="handlePan(0,1)"/>
  <use id="arrowleft" xlink:href="#arrowLeft" x="0" y="0" onmousedown="handlePan(-1,0)"/>
</g>
<svg viewBox="0 0 15 15" width="100%" height="30px" preserveAspectRatio="xMaxYMin meet">
 <g id="arrow_out" transform="scale(0.3 0.3)">
  <a xlink:href="classProjectWizardModel__coll__graph_org.svg" target="_base">
   <rect id="button" ry="5" rx="5" y="6" x="6" height="38" width="38"
        fill="#f2f5e9" fill-opacity="0.5" stroke="#606060" stroke-width="1.0"/>
   <path id="arrow"
     d="M 11.500037,31.436501 C 11.940474,20.09759 22.043105,11.32322 32.158766,21.979434 L 37.068811,17.246167 C 37.068811,17.246167 37.088388,32 37.088388,32 L 22.160133,31.978069 C 22.160133,31.978069 26.997745,27.140456 26.997745,27.140456 C 18.528582,18.264221 13.291696,25.230495 11.500037,31.436501 z"
     style="fill:#404040;"/>
  </a>
 </g>
</svg>

<style type='text/css'>
<![CDATA[
[data-mouse-over-selected='false'] { opacity: 0.7; }
[data-mouse-over-selected='true']  { opacity: 1.0; }
]]>
</style>
<script type="application/ecmascript"><![CDATA[
document.addEventListener('DOMContentLoaded', (event) => {
  highlightEdges();
  highlightAdjacentNodes();
});
]]></script>
</svg>
