<?xml version="1.0" encoding="UTF-8" standalone="no"?>
<!DOCTYPE svg PUBLIC "-//W3C//DTD SVG 1.1//EN"
 "http://www.w3.org/Graphics/SVG/1.1/DTD/svg11.dtd">
<!-- Generated by graphviz version 7.1.0 (0)
 -->
<!-- Title: MessageActivateOverview::getSearchMatches Pages: 1 -->
<!--zoomable 113 -->
<svg id="main" version="1.1" xmlns="http://www.w3.org/2000/svg" xmlns:xlink="http://www.w3.org/1999/xlink" xml:space="preserve" onload="init(evt)">
<style type="text/css"><![CDATA[
.edge:hover path { stroke: red; }
.edge:hover polygon { stroke: red; fill: red; }
]]></style>
<script type="text/javascript"><![CDATA[
var edges = document.getElementsByTagName('g');
if (edges && edges.length) {
  for (var i=0;i<edges.length;i++) {
    if (edges[i].id.substr(0,4)=='edge') {
      edges[i].setAttribute('class','edge');
    }
  }
}
]]></script>
        <defs>
                <circle id="rim" cx="0" cy="0" r="7"/>
                <circle id="rim2" cx="0" cy="0" r="3.5"/>
                <g id="zoomPlus">
                        <use xlink:href="#rim" fill="#404040">
                                <set attributeName="fill" to="#808080" begin="zoomplus.mouseover" end="zoomplus.mouseout"/>
                        </use>
                        <path d="M-4,0h8M0,-4v8" fill="none" stroke="white" stroke-width="1.5" pointer-events="none"/>
                </g>
                <g id="zoomMin">
                        <use xlink:href="#rim" fill="#404040">
                                <set attributeName="fill" to="#808080" begin="zoomminus.mouseover" end="zoomminus.mouseout"/>
                        </use>
                        <path d="M-4,0h8" fill="none" stroke="white" stroke-width="1.5" pointer-events="none"/>
                </g>
                <g id="dirArrow">
                        <path fill="none" stroke="white" stroke-width="1.5" d="M0,-3.0v7 M-2.5,-0.5L0,-3.0L2.5,-0.5"/>
                </g>
               <g id="resetDef">
                       <use xlink:href="#rim2" fill="#404040">
                               <set attributeName="fill" to="#808080" begin="reset.mouseover" end="reset.mouseout"/>
                       </use>
               </g>
        </defs>

<script type="text/javascript">
var viewWidth = 1039;
var viewHeight = 113;
var sectionId = 'dynsection-5';
</script>
<script xlink:href="svgpan.js"/>
<svg id="graph" class="graph">
<g id="viewport">
<title>MessageActivateOverview::getSearchMatches</title>
<!-- Node1 -->
<g id="node1" class="node">
<title>Node1</title>
<g id="a_node1"><a xlink:title=" ">
<polygon fill="#999999" stroke="#666666" points="147,-73 0,-73 0,-43 147,-43 147,-73"/>
<text text-anchor="start" x="8" y="-61" font-family="Helvetica,sans-Serif" font-size="10.00">MessageActivateOverview</text>
<text text-anchor="middle" x="73.5" y="-50" font-family="Helvetica,sans-Serif" font-size="10.00">::getSearchMatches</text>
</a>
</g>
</g>
<!-- Node2 -->
<g id="node2" class="node">
<title>Node2</title>
<g id="a_node2"><a xlink:href="classNodeTypeSet.html#ac310cbfe0cbbbc68c028a2ae31216284" target="_top" xlink:title=" ">
<polygon fill="white" stroke="#666666" points="318,-104.5 220,-104.5 220,-85.5 318,-85.5 318,-104.5"/>
<text text-anchor="middle" x="269" y="-92.5" font-family="Helvetica,sans-Serif" font-size="10.00">NodeTypeSet::all</text>
</a>
</g>
</g>
<!-- Node1&#45;&gt;Node2 -->
<g id="edge1" class="edge">
<title>Node1&#45;&gt;Node2</title>
<path fill="none" stroke="#63b8ff" d="M147.38,-71.94C167.53,-75.79 189.15,-79.92 208.45,-83.61"/>
<polygon fill="#63b8ff" stroke="#63b8ff" points="207.54,-87 218.02,-85.44 208.86,-80.13 207.54,-87"/>
</g>
<!-- Node3 -->
<g id="node3" class="node">
<title>Node3</title>
<g id="a_node3"><a xlink:href="structSearchMatch.html#ad967179074ac77a66d6d0996d72d9531" target="_top" xlink:title=" ">
<polygon fill="white" stroke="#666666" points="352.5,-67.5 185.5,-67.5 185.5,-48.5 352.5,-48.5 352.5,-67.5"/>
<text text-anchor="middle" x="269" y="-55.5" font-family="Helvetica,sans-Serif" font-size="10.00">SearchMatch::createCommand</text>
</a>
</g>
</g>
<!-- Node1&#45;&gt;Node3 -->
<g id="edge2" class="edge">
<title>Node1&#45;&gt;Node3</title>
<path fill="none" stroke="#63b8ff" d="M147.38,-58C156.04,-58 164.98,-58 173.88,-58"/>
<polygon fill="#63b8ff" stroke="#63b8ff" points="173.61,-61.5 183.61,-58 173.61,-54.5 173.61,-61.5"/>
</g>
<!-- Node5 -->
<g id="node5" class="node">
<title>Node5</title>
<g id="a_node5"><a xlink:href="structSearchMatch.html#a0ab419bfb5e06b5f6c1583654f3a13d2" target="_top" xlink:title=" ">
<polygon fill="white" stroke="#666666" points="355,-30 183,-30 183,0 355,0 355,-30"/>
<text text-anchor="start" x="191" y="-18" font-family="Helvetica,sans-Serif" font-size="10.00">SearchMatch::createCommands</text>
<text text-anchor="middle" x="269" y="-7" font-family="Helvetica,sans-Serif" font-size="10.00">ForNodeTypes</text>
</a>
</g>
</g>
<!-- Node1&#45;&gt;Node5 -->
<g id="edge4" class="edge">
<title>Node1&#45;&gt;Node5</title>
<path fill="none" stroke="#63b8ff" d="M144.08,-42.54C158.16,-39.41 173.07,-36.1 187.48,-32.89"/>
<polygon fill="#63b8ff" stroke="#63b8ff" points="187.9,-36.38 196.91,-30.8 186.38,-29.55 187.9,-36.38"/>
</g>
<!-- Node4 -->
<g id="node4" class="node">
<title>Node4</title>
<g id="a_node4"><a xlink:href="structSearchMatch.html#a2ba82380b2fdc39c3f9a178adae3209e" target="_top" xlink:title=" ">
<polygon fill="white" stroke="#666666" points="572,-67.5 391,-67.5 391,-48.5 572,-48.5 572,-67.5"/>
<text text-anchor="middle" x="481.5" y="-55.5" font-family="Helvetica,sans-Serif" font-size="10.00">SearchMatch::getCommandName</text>
</a>
</g>
</g>
<!-- Node3&#45;&gt;Node4 -->
<g id="edge3" class="edge">
<title>Node3&#45;&gt;Node4</title>
<path fill="none" stroke="#63b8ff" d="M352.89,-58C361.63,-58 370.58,-58 379.49,-58"/>
<polygon fill="#63b8ff" stroke="#63b8ff" points="379.23,-61.5 389.23,-58 379.23,-54.5 379.23,-61.5"/>
</g>
<!-- Node6 -->
<g id="node6" class="node">
<title>Node6</title>
<g id="a_node6"><a xlink:href="classNodeTypeSet.html#ad78d1b11b904a27d2351cbc69ab5373c" target="_top" xlink:title=" ">
<polygon fill="white" stroke="#666666" points="559,-24.5 404,-24.5 404,-5.5 559,-5.5 559,-24.5"/>
<text text-anchor="middle" x="481.5" y="-12.5" font-family="Helvetica,sans-Serif" font-size="10.00">NodeTypeSet::getNodeTypes</text>
</a>
</g>
</g>
<!-- Node5&#45;&gt;Node6 -->
<g id="edge5" class="edge">
<title>Node5&#45;&gt;Node6</title>
<path fill="none" stroke="#63b8ff" d="M355.31,-15C367.53,-15 380.12,-15 392.39,-15"/>
<polygon fill="#63b8ff" stroke="#63b8ff" points="392.03,-18.5 402.03,-15 392.03,-11.5 392.03,-18.5"/>
</g>
<!-- Node7 -->
<g id="node7" class="node">
<title>Node7</title>
<g id="a_node7"><a xlink:href="classNodeTypeSet.html#a888db7c5cf1b5ea070182ea71e5ff92f" target="_top" xlink:title=" ">
<polygon fill="white" stroke="#666666" points="778,-24.5 608,-24.5 608,-5.5 778,-5.5 778,-24.5"/>
<text text-anchor="middle" x="693" y="-12.5" font-family="Helvetica,sans-Serif" font-size="10.00">NodeTypeSet::nodeTypeToMask</text>
</a>
</g>
</g>
<!-- Node6&#45;&gt;Node7 -->
<g id="edge6" class="edge">
<title>Node6&#45;&gt;Node7</title>
<path fill="none" stroke="#63b8ff" d="M559.32,-15C571.39,-15 583.99,-15 596.43,-15"/>
<polygon fill="#63b8ff" stroke="#63b8ff" points="596.26,-18.5 606.26,-15 596.26,-11.5 596.26,-18.5"/>
</g>
<!-- Node8 -->
<g id="node8" class="node">
<title>Node8</title>
<g id="a_node8"><a xlink:href="classNodeType.html#a5867325c5a22c439188f707ba524f0e1" target="_top" xlink:title=" ">
<polygon fill="white" stroke="#666666" points="909,-24.5 814,-24.5 814,-5.5 909,-5.5 909,-24.5"/>
<text text-anchor="middle" x="861.5" y="-12.5" font-family="Helvetica,sans-Serif" font-size="10.00">NodeType::getId</text>
</a>
</g>
</g>
<!-- Node7&#45;&gt;Node8 -->
<g id="edge7" class="edge">
<title>Node7&#45;&gt;Node8</title>
<path fill="none" stroke="#63b8ff" d="M778.23,-15C786.46,-15 794.69,-15 802.58,-15"/>
<polygon fill="#63b8ff" stroke="#63b8ff" points="802.34,-18.5 812.34,-15 802.34,-11.5 802.34,-18.5"/>
</g>
<!-- Node9 -->
<g id="node9" class="node">
<title>Node9</title>
<g id="a_node9"><a xlink:href="NodeKind_8cpp.html#ab1eacbc56ca3143746b078cad695b17f" target="_top" xlink:title=" ">
<polygon fill="white" stroke="#666666" points="1031,-24.5 945,-24.5 945,-5.5 1031,-5.5 1031,-24.5"/>
<text text-anchor="middle" x="988" y="-12.5" font-family="Helvetica,sans-Serif" font-size="10.00">nodeKindToInt</text>
</a>
</g>
</g>
<!-- Node8&#45;&gt;Node9 -->
<g id="edge8" class="edge">
<title>Node8&#45;&gt;Node9</title>
<path fill="none" stroke="#63b8ff" d="M909.21,-15C917,-15 925.14,-15 933.09,-15"/>
<polygon fill="#63b8ff" stroke="#63b8ff" points="933.03,-18.5 943.03,-15 933.03,-11.5 933.03,-18.5"/>
</g>
</g>
</svg>
        <g id="navigator" transform="translate(0 0)" fill="#404254">
                <rect fill="#f2f5e9" fill-opacity="0.5" stroke="#606060" stroke-width=".5" x="0" y="0" width="60" height="60"/>
                <use id="zoomplus" xlink:href="#zoomPlus" x="17" y="9" onmousedown="handleZoom(evt,'in')"/>
                <use id="zoomminus" xlink:href="#zoomMin" x="42" y="9" onmousedown="handleZoom(evt,'out')"/>
                <use id="reset" xlink:href="#resetDef" x="30" y="36" onmousedown="handleReset()"/>
                <g id="arrowUp" xlink:href="#dirArrow" transform="translate(30 24)" onmousedown="handlePan(0,-1)">
                  <use xlink:href="#rim" fill="#404040">
                        <set attributeName="fill" to="#808080" begin="arrowUp.mouseover" end="arrowUp.mouseout"/>
                  </use>
                  <path fill="none" stroke="white" stroke-width="1.5" d="M0,-3.0v7 M-2.5,-0.5L0,-3.0L2.5,-0.5"/>
                </g>
                <g id="arrowRight" xlink:href="#dirArrow" transform="rotate(90) translate(36 -43)" onmousedown="handlePan(1,0)">
                  <use xlink:href="#rim" fill="#404040">
                        <set attributeName="fill" to="#808080" begin="arrowRight.mouseover" end="arrowRight.mouseout"/>
                  </use>
                  <path fill="none" stroke="white" stroke-width="1.5" d="M0,-3.0v7 M-2.5,-0.5L0,-3.0L2.5,-0.5"/>
                </g>
                <g id="arrowDown" xlink:href="#dirArrow" transform="rotate(180) translate(-30 -48)" onmousedown="handlePan(0,1)">
                  <use xlink:href="#rim" fill="#404040">
                        <set attributeName="fill" to="#808080" begin="arrowDown.mouseover" end="arrowDown.mouseout"/>
                  </use>
                  <path fill="none" stroke="white" stroke-width="1.5" d="M0,-3.0v7 M-2.5,-0.5L0,-3.0L2.5,-0.5"/>
                </g>
                <g id="arrowLeft" xlink:href="#dirArrow" transform="rotate(270) translate(-36 17)" onmousedown="handlePan(-1,0)">
                  <use xlink:href="#rim" fill="#404040">
                        <set attributeName="fill" to="#808080" begin="arrowLeft.mouseover" end="arrowLeft.mouseout"/>
                  </use>
                  <path fill="none" stroke="white" stroke-width="1.5" d="M0,-3.0v7 M-2.5,-0.5L0,-3.0L2.5,-0.5"/>
                </g>
        </g>
        <svg viewBox="0 0 15 15" width="100%" height="30px" preserveAspectRatio="xMaxYMin meet">
         <g id="arrow_out" transform="scale(0.3 0.3)">
          <a xlink:href="classMessageActivateOverview_a84f8e7e938363f63cecd4e42db76217e_cgraph_org.svg" target="_base">
           <rect id="button" ry="5" rx="5" y="6" x="6" height="38" width="38"
                fill="#f2f5e9" fill-opacity="0.5" stroke="#606060" stroke-width="1.0"/>
           <path id="arrow"
             d="M 11.500037,31.436501 C 11.940474,20.09759 22.043105,11.32322 32.158766,21.979434 L 37.068811,17.246167 C 37.068811,17.246167 37.088388,32 37.088388,32 L 22.160133,31.978069 C 22.160133,31.978069 26.997745,27.140456 26.997745,27.140456 C 18.528582,18.264221 13.291696,25.230495 11.500037,31.436501 z"
             style="fill:#404040;"/>
          </a>
         </g>
        </svg>
</svg>
