<?xml version="1.0" encoding="UTF-8" standalone="no"?>
<!DOCTYPE svg PUBLIC "-//W3C//DTD SVG 1.1//EN"
 "http://www.w3.org/Graphics/SVG/1.1/DTD/svg11.dtd">
<!-- Generated by graphviz version 7.1.0 (0)
 -->
<!-- Title: QtCountCircleItem Pages: 1 -->
<svg width="339pt" height="159pt"
 viewBox="0.00 0.00 338.50 159.00" xmlns="http://www.w3.org/2000/svg" xmlns:xlink="http://www.w3.org/1999/xlink">
<g id="graph0" class="graph" transform="scale(1 1) rotate(0) translate(4 155)">
<title>QtCountCircleItem</title>
<!-- Node1 -->
<g id="node1" class="node">
<title>Node1</title>
<g id="a_node1"><a xlink:title=" ">
<polygon fill="#999999" stroke="#666666" points="232,-19 125,-19 125,0 232,0 232,-19"/>
<text text-anchor="middle" x="178.5" y="-7" font-family="Helvetica,sans-Serif" font-size="10.00">QtCountCircleItem</text>
</a>
</g>
</g>
<!-- Node2 -->
<g id="node2" class="node">
<title>Node2</title>
<g id="a_node2"><a xlink:href="classQtRoundedRectItem.html" target="_top" xlink:title=" ">
<polygon fill="white" stroke="#666666" points="160,-85 45,-85 45,-66 160,-66 160,-85"/>
<text text-anchor="middle" x="102.5" y="-73" font-family="Helvetica,sans-Serif" font-size="10.00">QtRoundedRectItem</text>
</a>
</g>
</g>
<!-- Node2&#45;&gt;Node1 -->
<g id="edge1" class="edge">
<title>Node2&#45;&gt;Node1</title>
<path fill="none" stroke="#63b8ff" d="M121.87,-58.19C136.55,-45.83 156.15,-29.32 168.02,-19.32"/>
<polygon fill="#63b8ff" stroke="#63b8ff" points="119.62,-55.51 114.23,-64.63 124.13,-60.86 119.62,-55.51"/>
</g>
<!-- Node3 -->
<g id="node3" class="node">
<title>Node3</title>
<g id="a_node3"><a xlink:href="classQGraphicsRectItem.html" target="_top" xlink:title=" ">
<polygon fill="white" stroke="#666666" points="111,-151 0,-151 0,-132 111,-132 111,-151"/>
<text text-anchor="middle" x="55.5" y="-139" font-family="Helvetica,sans-Serif" font-size="10.00">QGraphicsRectItem</text>
</a>
</g>
</g>
<!-- Node3&#45;&gt;Node2 -->
<g id="edge2" class="edge">
<title>Node3&#45;&gt;Node2</title>
<path fill="none" stroke="#63b8ff" d="M68.8,-122.4C77.7,-110.27 89.03,-94.84 96.02,-85.32"/>
<polygon fill="#63b8ff" stroke="#63b8ff" points="66.03,-120.25 62.93,-130.38 71.67,-124.39 66.03,-120.25"/>
</g>
<!-- Node4 -->
<g id="node4" class="node">
<title>Node4</title>
<g id="a_node4"><a xlink:title=" ">
<polygon fill="white" stroke="#666666" points="170,-151 129,-151 129,-132 170,-132 170,-151"/>
<text text-anchor="middle" x="149.5" y="-139" font-family="Helvetica,sans-Serif" font-size="10.00">qreal</text>
</a>
</g>
</g>
<!-- Node4&#45;&gt;Node2 -->
<g id="edge3" class="edge">
<title>Node4&#45;&gt;Node2</title>
<path fill="none" stroke="#9a32cd" stroke-dasharray="5,2" d="M136.2,-122.4C127.3,-110.27 115.97,-94.84 108.98,-85.32"/>
<polygon fill="#9a32cd" stroke="#9a32cd" points="133.33,-124.39 142.07,-130.38 138.97,-120.25 133.33,-124.39"/>
<text text-anchor="middle" x="154" y="-106" font-family="Helvetica,sans-Serif" font-size="10.00"> m_radius</text>
</g>
<!-- Node5 -->
<g id="node5" class="node">
<title>Node5</title>
<g id="a_node5"><a xlink:title=" ">
<polygon fill="white" stroke="#666666" points="330.5,-85 178.5,-85 178.5,-66 330.5,-66 330.5,-85"/>
<text text-anchor="middle" x="254.5" y="-73" font-family="Helvetica,sans-Serif" font-size="10.00">QGraphicsSimpleTextItem *</text>
</a>
</g>
</g>
<!-- Node5&#45;&gt;Node1 -->
<g id="edge4" class="edge">
<title>Node5&#45;&gt;Node1</title>
<path fill="none" stroke="#9a32cd" stroke-dasharray="5,2" d="M235.13,-58.19C220.45,-45.83 200.85,-29.32 188.98,-19.32"/>
<polygon fill="#9a32cd" stroke="#9a32cd" points="232.87,-60.86 242.77,-64.63 237.38,-55.51 232.87,-60.86"/>
<text text-anchor="middle" x="248.5" y="-40" font-family="Helvetica,sans-Serif" font-size="10.00"> m_number</text>
</g>
</g>
</svg>
