<?xml version="1.0" encoding="UTF-8" standalone="no"?>
<!DOCTYPE svg PUBLIC "-//W3C//DTD SVG 1.1//EN"
 "http://www.w3.org/Graphics/SVG/1.1/DTD/svg11.dtd">
<!-- Generated by graphviz version 9.0.0 (0)
 -->
<!-- Title: QtCodeFileTitleBar::setMaximized Pages: 1 -->
<svg width="1211pt" height="107pt"
 viewBox="0.00 0.00 1211.25 106.75" xmlns="http://www.w3.org/2000/svg" xmlns:xlink="http://www.w3.org/1999/xlink">
<g id="graph0" class="graph" transform="scale(1 1) rotate(0) translate(4 102.75)">
<title>QtCodeFileTitleBar::setMaximized</title>
<!-- Node1 -->
<g id="Node000001" class="node">
<title>Node1</title>
<g id="a_Node000001"><a xlink:title=" ">
<polygon fill="#999999" stroke="#666666" points="1203.25,-66.12 1097.25,-66.12 1097.25,-32.62 1203.25,-32.62 1203.25,-66.12"/>
<text text-anchor="start" x="1105.25" y="-52.62" font-family="Helvetica,sans-Serif" font-size="10.00">QtCodeFileTitleBar</text>
<text text-anchor="middle" x="1150.25" y="-39.88" font-family="Helvetica,sans-Serif" font-size="10.00">::setMaximized</text>
</a>
</g>
</g>
<!-- Node2 -->
<g id="Node000002" class="node">
<title>Node2</title>
<g id="a_Node000002"><a xlink:href="classQtCodeFileSingle.html#a5fb50acd63b16160f3ac343d11726839" target="_top" xlink:title=" ">
<polygon fill="white" stroke="#666666" points="1061.25,-59.75 902,-59.75 902,-39 1061.25,-39 1061.25,-59.75"/>
<text text-anchor="middle" x="981.62" y="-46.25" font-family="Helvetica,sans-Serif" font-size="10.00">QtCodeFileSingle::setFileData</text>
</a>
</g>
</g>
<!-- Node1&#45;&gt;Node2 -->
<g id="edge1_Node000001_Node000002" class="edge">
<title>Node1&#45;&gt;Node2</title>
<g id="a_edge1_Node000001_Node000002"><a xlink:title=" ">
<path fill="none" stroke="#63b8ff" d="M1085.65,-49.38C1077.77,-49.38 1069.63,-49.38 1061.56,-49.38"/>
<polygon fill="#63b8ff" stroke="#63b8ff" points="1085.47,-52.88 1095.47,-49.38 1085.47,-45.88 1085.47,-52.88"/>
</a>
</g>
</g>
<!-- Node3 -->
<g id="Node000003" class="node">
<title>Node3</title>
<g id="a_Node000003"><a xlink:href="classQtCodeFileSingle.html#a9a79da8d37022afa497a602193893364" target="_top" xlink:title=" ">
<polygon fill="white" stroke="#666666" points="863,-98.75 724,-98.75 724,-78 863,-78 863,-98.75"/>
<text text-anchor="middle" x="793.5" y="-85.25" font-family="Helvetica,sans-Serif" font-size="10.00">QtCodeFileSingle::addFile</text>
</a>
</g>
</g>
<!-- Node2&#45;&gt;Node3 -->
<g id="edge2_Node000002_Node000003" class="edge">
<title>Node2&#45;&gt;Node3</title>
<g id="a_edge2_Node000002_Node000003"><a xlink:title=" ">
<path fill="none" stroke="#63b8ff" d="M917.65,-62.57C894.47,-67.43 868.49,-72.87 846.39,-77.5"/>
<polygon fill="#63b8ff" stroke="#63b8ff" points="918.23,-66.03 927.3,-60.55 916.79,-59.17 918.23,-66.03"/>
</a>
</g>
</g>
<!-- Node6 -->
<g id="Node000006" class="node">
<title>Node6</title>
<g id="a_Node000006"><a xlink:href="classQtCodeFileSingle.html#abcb6f719eb9ddb78599b5b068ff3fc65" target="_top" xlink:title=" ">
<polygon fill="white" stroke="#666666" points="866,-59.75 721,-59.75 721,-39 866,-39 866,-59.75"/>
<text text-anchor="middle" x="793.5" y="-46.25" font-family="Helvetica,sans-Serif" font-size="10.00">QtCodeFileSingle::clearFile</text>
</a>
</g>
</g>
<!-- Node2&#45;&gt;Node6 -->
<g id="edge5_Node000002_Node000006" class="edge">
<title>Node2&#45;&gt;Node6</title>
<g id="a_edge5_Node000002_Node000006"><a xlink:title=" ">
<path fill="none" stroke="#63b8ff" d="M890.39,-49.38C882.36,-49.38 874.31,-49.38 866.46,-49.38"/>
<polygon fill="#63b8ff" stroke="#63b8ff" points="890.18,-52.88 900.18,-49.38 890.18,-45.88 890.18,-52.88"/>
</a>
</g>
</g>
<!-- Node13 -->
<g id="Node000013" class="node">
<title>Node13</title>
<g id="a_Node000013"><a xlink:href="classQtCodeFileSingle.html#a025dfc782328c0e8ea4c66b036c321d3" target="_top" xlink:title=" ">
<polygon fill="white" stroke="#666666" points="864.12,-20.75 722.88,-20.75 722.88,0 864.12,0 864.12,-20.75"/>
<text text-anchor="middle" x="793.5" y="-7.25" font-family="Helvetica,sans-Serif" font-size="10.00">QtCodeFileSingle::scrollTo</text>
</a>
</g>
</g>
<!-- Node2&#45;&gt;Node13 -->
<g id="edge14_Node000002_Node000013" class="edge">
<title>Node2&#45;&gt;Node13</title>
<g id="a_edge14_Node000002_Node000013"><a xlink:title=" ">
<path fill="none" stroke="#63b8ff" d="M917.65,-36.18C894.47,-31.32 868.49,-25.88 846.39,-21.25"/>
<polygon fill="#63b8ff" stroke="#63b8ff" points="916.79,-39.58 927.3,-38.2 918.23,-32.72 916.79,-39.58"/>
</a>
</g>
</g>
<!-- Node4 -->
<g id="Node000004" class="node">
<title>Node4</title>
<g id="a_Node000004"><a xlink:href="classQtCodeNavigator.html#aef582a683123b6752860443d2a302712" target="_top" xlink:title=" ">
<polygon fill="white" stroke="#666666" points="685,-98.75 514.5,-98.75 514.5,-78 685,-78 685,-98.75"/>
<text text-anchor="middle" x="599.75" y="-85.25" font-family="Helvetica,sans-Serif" font-size="10.00">QtCodeNavigator::addSingleFile</text>
</a>
</g>
</g>
<!-- Node3&#45;&gt;Node4 -->
<g id="edge3_Node000003_Node000004" class="edge">
<title>Node3&#45;&gt;Node4</title>
<g id="a_edge3_Node000003_Node000004"><a xlink:title=" ">
<path fill="none" stroke="#63b8ff" d="M712.1,-88.38C703.3,-88.38 694.32,-88.38 685.47,-88.38"/>
<polygon fill="#63b8ff" stroke="#63b8ff" points="712.03,-91.88 722.03,-88.38 712.03,-84.88 712.03,-91.88"/>
</a>
</g>
</g>
<!-- Node5 -->
<g id="Node000005" class="node">
<title>Node5</title>
<g id="a_Node000005"><a xlink:href="classQtCodeView.html#a03d33b6b0d51a10ab3c407765c6e8c6d" target="_top" xlink:title=" ">
<polygon fill="white" stroke="#666666" points="475.5,-97.75 321.5,-97.75 321.5,-77 475.5,-77 475.5,-97.75"/>
<text text-anchor="middle" x="398.5" y="-84.25" font-family="Helvetica,sans-Serif" font-size="10.00">QtCodeView::showSingleFile</text>
</a>
</g>
</g>
<!-- Node4&#45;&gt;Node5 -->
<g id="edge4_Node000004_Node000005" class="edge">
<title>Node4&#45;&gt;Node5</title>
<g id="a_edge4_Node000004_Node000005"><a xlink:title=" ">
<path fill="none" stroke="#63b8ff" d="M502.85,-87.89C493.81,-87.85 484.73,-87.8 475.91,-87.76"/>
<polygon fill="#63b8ff" stroke="#63b8ff" points="502.72,-91.39 512.74,-87.94 502.75,-84.39 502.72,-91.39"/>
</a>
</g>
</g>
<!-- Node7 -->
<g id="Node000007" class="node">
<title>Node7</title>
<g id="a_Node000007"><a xlink:href="classQtCodeFileSingle.html#ab2434a5b1ff78fb8bdb38706489a5539" target="_top" xlink:title=" ">
<polygon fill="white" stroke="#666666" points="679,-20.75 520.5,-20.75 520.5,0 679,0 679,-20.75"/>
<text text-anchor="middle" x="599.75" y="-7.25" font-family="Helvetica,sans-Serif" font-size="10.00">QtCodeFileSingle::clearCache</text>
</a>
</g>
</g>
<!-- Node6&#45;&gt;Node7 -->
<g id="edge6_Node000006_Node000007" class="edge">
<title>Node6&#45;&gt;Node7</title>
<g id="a_edge6_Node000006_Node000007"><a xlink:title=" ">
<path fill="none" stroke="#63b8ff" d="M727.95,-36.25C703.98,-31.37 677.08,-25.9 654.21,-21.25"/>
<polygon fill="#63b8ff" stroke="#63b8ff" points="727.11,-39.65 737.6,-38.21 728.5,-32.79 727.11,-39.65"/>
</a>
</g>
</g>
<!-- Node12 -->
<g id="Node000012" class="node">
<title>Node12</title>
<g id="a_Node000012"><a xlink:href="classQtCodeNavigator.html#a4b7d596f4bb1e551ab3d51312537bf8d" target="_top" xlink:title=" ">
<polygon fill="white" stroke="#666666" points="673,-59.75 526.5,-59.75 526.5,-39 673,-39 673,-59.75"/>
<text text-anchor="middle" x="599.75" y="-46.25" font-family="Helvetica,sans-Serif" font-size="10.00">QtCodeNavigator::clearFile</text>
</a>
</g>
</g>
<!-- Node6&#45;&gt;Node12 -->
<g id="edge11_Node000006_Node000012" class="edge">
<title>Node6&#45;&gt;Node12</title>
<g id="a_edge11_Node000006_Node000012"><a xlink:title=" ">
<path fill="none" stroke="#63b8ff" d="M709.23,-49.38C697.3,-49.38 685.12,-49.38 673.42,-49.38"/>
<polygon fill="#63b8ff" stroke="#63b8ff" points="709.04,-52.88 719.04,-49.38 709.04,-45.88 709.04,-52.88"/>
</a>
</g>
</g>
<!-- Node8 -->
<g id="Node000008" class="node">
<title>Node8</title>
<g id="a_Node000008"><a xlink:href="classQtCodeNavigator.html#aa01dcef203163f03740b7be346af57ab" target="_top" xlink:title=" ">
<polygon fill="white" stroke="#666666" points="478.5,-20.75 318.5,-20.75 318.5,0 478.5,0 478.5,-20.75"/>
<text text-anchor="middle" x="398.5" y="-7.25" font-family="Helvetica,sans-Serif" font-size="10.00">QtCodeNavigator::clearCache</text>
</a>
</g>
</g>
<!-- Node7&#45;&gt;Node8 -->
<g id="edge7_Node000007_Node000008" class="edge">
<title>Node7&#45;&gt;Node8</title>
<g id="a_edge7_Node000007_Node000008"><a xlink:title=" ">
<path fill="none" stroke="#63b8ff" d="M508.52,-10.38C498.67,-10.38 488.69,-10.38 478.98,-10.38"/>
<polygon fill="#63b8ff" stroke="#63b8ff" points="508.49,-13.88 518.49,-10.38 508.49,-6.88 508.49,-13.88"/>
</a>
</g>
</g>
<!-- Node9 -->
<g id="Node000009" class="node">
<title>Node9</title>
<g id="a_Node000009"><a xlink:href="classQtCodeNavigator.html#a3370003f440df20925362f6b4fd322c1" target="_top" xlink:title=" ">
<polygon fill="white" stroke="#666666" points="277.25,-59.75 147.25,-59.75 147.25,-39 277.25,-39 277.25,-59.75"/>
<text text-anchor="middle" x="212.25" y="-46.25" font-family="Helvetica,sans-Serif" font-size="10.00">QtCodeNavigator::clear</text>
</a>
</g>
</g>
<!-- Node8&#45;&gt;Node9 -->
<g id="edge8_Node000008_Node000009" class="edge">
<title>Node8&#45;&gt;Node9</title>
<g id="a_edge8_Node000008_Node000009"><a xlink:title=" ">
<path fill="none" stroke="#63b8ff" d="M335.16,-23.57C312.21,-28.43 286.49,-33.87 264.62,-38.5"/>
<polygon fill="#63b8ff" stroke="#63b8ff" points="335.64,-27.05 344.7,-21.55 334.19,-20.2 335.64,-27.05"/>
</a>
</g>
</g>
<!-- Node11 -->
<g id="Node000011" class="node">
<title>Node11</title>
<g id="a_Node000011"><a xlink:href="classQtCodeView.html#a2422f2f7a3cfbf0807e297079215269e" target="_top" xlink:title=" ">
<polygon fill="white" stroke="#666666" points="282.5,-20.75 142,-20.75 142,0 282.5,0 282.5,-20.75"/>
<text text-anchor="middle" x="212.25" y="-7.25" font-family="Helvetica,sans-Serif" font-size="10.00">QtCodeView::refreshView</text>
</a>
</g>
</g>
<!-- Node8&#45;&gt;Node11 -->
<g id="edge10_Node000008_Node000011" class="edge">
<title>Node8&#45;&gt;Node11</title>
<g id="a_edge10_Node000008_Node000011"><a xlink:title=" ">
<path fill="none" stroke="#63b8ff" d="M306.73,-10.38C298.72,-10.38 290.7,-10.38 282.9,-10.38"/>
<polygon fill="#63b8ff" stroke="#63b8ff" points="306.51,-13.88 316.51,-10.38 306.51,-6.88 306.51,-13.88"/>
</a>
</g>
</g>
<!-- Node10 -->
<g id="Node000010" class="node">
<title>Node10</title>
<g id="a_Node000010"><a xlink:href="classQtCodeView.html#a1aaf5c5052390354591e851390e54d55" target="_top" xlink:title=" ">
<polygon fill="white" stroke="#666666" points="106,-59.75 0,-59.75 0,-39 106,-39 106,-59.75"/>
<text text-anchor="middle" x="53" y="-46.25" font-family="Helvetica,sans-Serif" font-size="10.00">QtCodeView::clear</text>
</a>
</g>
</g>
<!-- Node9&#45;&gt;Node10 -->
<g id="edge9_Node000009_Node000010" class="edge">
<title>Node9&#45;&gt;Node10</title>
<g id="a_edge9_Node000009_Node000010"><a xlink:title=" ">
<path fill="none" stroke="#63b8ff" d="M135.61,-49.38C125.61,-49.38 115.54,-49.38 106.06,-49.38"/>
<polygon fill="#63b8ff" stroke="#63b8ff" points="135.32,-52.88 145.32,-49.38 135.32,-45.88 135.32,-52.88"/>
</a>
</g>
</g>
<!-- Node12&#45;&gt;Node5 -->
<g id="edge13_Node000012_Node000005" class="edge">
<title>Node12&#45;&gt;Node5</title>
<g id="a_edge13_Node000012_Node000005"><a xlink:title=" ">
<path fill="none" stroke="#63b8ff" d="M530.67,-62.36C506.49,-66.97 479.55,-72.11 456.41,-76.52"/>
<polygon fill="#63b8ff" stroke="#63b8ff" points="531.27,-65.81 540.43,-60.5 529.95,-58.93 531.27,-65.81"/>
</a>
</g>
</g>
<!-- Node12&#45;&gt;Node9 -->
<g id="edge12_Node000012_Node000009" class="edge">
<title>Node12&#45;&gt;Node9</title>
<g id="a_edge12_Node000012_Node000009"><a xlink:title=" ">
<path fill="none" stroke="#63b8ff" d="M515.07,-49.38C443.8,-49.38 342.89,-49.38 277.75,-49.38"/>
<polygon fill="#63b8ff" stroke="#63b8ff" points="514.73,-52.88 524.73,-49.38 514.73,-45.88 514.73,-52.88"/>
</a>
</g>
</g>
</g>
</svg>
