<?xml version="1.0" encoding="UTF-8" standalone="no"?>
<!DOCTYPE svg PUBLIC "-//W3C//DTD SVG 1.1//EN"
 "http://www.w3.org/Graphics/SVG/1.1/DTD/svg11.dtd">
<!-- Generated by graphviz version 7.1.0 (0)
 -->
<!-- Title: NodeTypeSet::getNodeTypeIds Pages: 1 -->
<svg width="631pt" height="27pt"
 viewBox="0.00 0.00 631.00 27.00" xmlns="http://www.w3.org/2000/svg" xmlns:xlink="http://www.w3.org/1999/xlink">
<g id="graph0" class="graph" transform="scale(1 1) rotate(0) translate(4 23)">
<title>NodeTypeSet::getNodeTypeIds</title>
<!-- Node1 -->
<g id="node1" class="node">
<title>Node1</title>
<g id="a_node1"><a xlink:title=" ">
<polygon fill="#999999" stroke="#666666" points="164,-19 0,-19 0,0 164,0 164,-19"/>
<text text-anchor="middle" x="82" y="-7" font-family="Helvetica,sans-Serif" font-size="10.00">NodeTypeSet::getNodeTypeIds</text>
</a>
</g>
</g>
<!-- Node2 -->
<g id="node2" class="node">
<title>Node2</title>
<g id="a_node2"><a xlink:href="classNodeTypeSet.html#a888db7c5cf1b5ea070182ea71e5ff92f" target="_top" xlink:title=" ">
<polygon fill="white" stroke="#666666" points="370,-19 200,-19 200,0 370,0 370,-19"/>
<text text-anchor="middle" x="285" y="-7" font-family="Helvetica,sans-Serif" font-size="10.00">NodeTypeSet::nodeTypeToMask</text>
</a>
</g>
</g>
<!-- Node1&#45;&gt;Node2 -->
<g id="edge1" class="edge">
<title>Node1&#45;&gt;Node2</title>
<path fill="none" stroke="#63b8ff" d="M164.46,-9.5C172.38,-9.5 180.46,-9.5 188.49,-9.5"/>
<polygon fill="#63b8ff" stroke="#63b8ff" points="188.29,-13 198.29,-9.5 188.29,-6 188.29,-13"/>
</g>
<!-- Node3 -->
<g id="node3" class="node">
<title>Node3</title>
<g id="a_node3"><a xlink:href="classNodeType.html#a5867325c5a22c439188f707ba524f0e1" target="_top" xlink:title=" ">
<polygon fill="white" stroke="#666666" points="501,-19 406,-19 406,0 501,0 501,-19"/>
<text text-anchor="middle" x="453.5" y="-7" font-family="Helvetica,sans-Serif" font-size="10.00">NodeType::getId</text>
</a>
</g>
</g>
<!-- Node2&#45;&gt;Node3 -->
<g id="edge2" class="edge">
<title>Node2&#45;&gt;Node3</title>
<path fill="none" stroke="#63b8ff" d="M370.23,-9.5C378.46,-9.5 386.69,-9.5 394.58,-9.5"/>
<polygon fill="#63b8ff" stroke="#63b8ff" points="394.34,-13 404.34,-9.5 394.34,-6 394.34,-13"/>
</g>
<!-- Node4 -->
<g id="node4" class="node">
<title>Node4</title>
<g id="a_node4"><a xlink:href="NodeKind_8cpp.html#ab1eacbc56ca3143746b078cad695b17f" target="_top" xlink:title=" ">
<polygon fill="white" stroke="#666666" points="623,-19 537,-19 537,0 623,0 623,-19"/>
<text text-anchor="middle" x="580" y="-7" font-family="Helvetica,sans-Serif" font-size="10.00">nodeKindToInt</text>
</a>
</g>
</g>
<!-- Node3&#45;&gt;Node4 -->
<g id="edge3" class="edge">
<title>Node3&#45;&gt;Node4</title>
<path fill="none" stroke="#63b8ff" d="M501.21,-9.5C509,-9.5 517.14,-9.5 525.09,-9.5"/>
<polygon fill="#63b8ff" stroke="#63b8ff" points="525.03,-13 535.03,-9.5 525.03,-6 525.03,-13"/>
</g>
</g>
</svg>
