<?xml version="1.0" encoding="UTF-8" standalone="no"?>
<!DOCTYPE svg PUBLIC "-//W3C//DTD SVG 1.1//EN"
 "http://www.w3.org/Graphics/SVG/1.1/DTD/svg11.dtd">
<!-- Generated by graphviz version 7.1.0 (0)
 -->
<!-- Title: ProjectSettings::getProjectDirectoryPath Pages: 1 -->
<svg width="634pt" height="393pt"
 viewBox="0.00 0.00 634.00 392.50" xmlns="http://www.w3.org/2000/svg" xmlns:xlink="http://www.w3.org/1999/xlink">
<g id="graph0" class="graph" transform="scale(1 1) rotate(0) translate(4 388.5)">
<title>ProjectSettings::getProjectDirectoryPath</title>
<!-- Node1 -->
<g id="node1" class="node">
<title>Node1</title>
<g id="a_node1"><a xlink:title=" ">
<polygon fill="#999999" stroke="#666666" points="626,-272 480,-272 480,-242 626,-242 626,-272"/>
<text text-anchor="start" x="488" y="-260" font-family="Helvetica,sans-Serif" font-size="10.00">ProjectSettings::getProject</text>
<text text-anchor="middle" x="553" y="-249" font-family="Helvetica,sans-Serif" font-size="10.00">DirectoryPath</text>
</a>
</g>
</g>
<!-- Node2 -->
<g id="node2" class="node">
<title>Node2</title>
<g id="a_node2"><a xlink:href="classProjectSettings.html#a74bf61a4688841acde8f3de9ef6f1fe7" target="_top" xlink:title=" ">
<polygon fill="white" stroke="#666666" points="431.5,-373 250.5,-373 250.5,-343 431.5,-343 431.5,-373"/>
<text text-anchor="start" x="258.5" y="-361" font-family="Helvetica,sans-Serif" font-size="10.00">ProjectSettings::getDependencies</text>
<text text-anchor="middle" x="341" y="-350" font-family="Helvetica,sans-Serif" font-size="10.00">DirectoryPath</text>
</a>
</g>
</g>
<!-- Node1&#45;&gt;Node2 -->
<g id="edge1" class="edge">
<title>Node1&#45;&gt;Node2</title>
<path fill="none" stroke="#63b8ff" d="M524.2,-279.07C503.2,-294.84 473.1,-315.57 444,-329 432.63,-334.25 420.11,-338.75 407.84,-342.54"/>
<polygon fill="#63b8ff" stroke="#63b8ff" points="526.15,-281.98 531.98,-273.13 521.91,-276.42 526.15,-281.98"/>
</g>
<!-- Node4 -->
<g id="node4" class="node">
<title>Node4</title>
<g id="a_node4"><a xlink:href="classSourceGroupSettingsWithExcludeFilters.html#a23103bb8b30bad73f306963f137f5388" target="_top" xlink:title=" ">
<polygon fill="white" stroke="#666666" points="444,-320 238,-320 238,-290 444,-290 444,-320"/>
<text text-anchor="start" x="246" y="-308" font-family="Helvetica,sans-Serif" font-size="10.00">SourceGroupSettingsWithExclude</text>
<text text-anchor="middle" x="341" y="-297" font-family="Helvetica,sans-Serif" font-size="10.00">Filters::getFiltersExpandedAndAbsolute</text>
</a>
</g>
</g>
<!-- Node1&#45;&gt;Node4 -->
<g id="edge3" class="edge">
<title>Node1&#45;&gt;Node4</title>
<path fill="none" stroke="#63b8ff" d="M473.25,-275C452.27,-279.8 429.79,-284.93 409.47,-289.58"/>
<polygon fill="#63b8ff" stroke="#63b8ff" points="473.95,-278.43 482.92,-272.79 472.39,-271.61 473.95,-278.43"/>
</g>
<!-- Node6 -->
<g id="node6" class="node">
<title>Node6</title>
<g id="a_node6"><a xlink:href="classSourceGroupSettings.html#a45cd8881275720f7f8ed681f38a3c2a1" target="_top" xlink:title=" ">
<polygon fill="white" stroke="#666666" points="410.5,-272 271.5,-272 271.5,-242 410.5,-242 410.5,-272"/>
<text text-anchor="start" x="279.5" y="-260" font-family="Helvetica,sans-Serif" font-size="10.00">SourceGroupSettings</text>
<text text-anchor="middle" x="341" y="-249" font-family="Helvetica,sans-Serif" font-size="10.00">::getProjectDirectoryPath</text>
</a>
</g>
</g>
<!-- Node1&#45;&gt;Node6 -->
<g id="edge5" class="edge">
<title>Node1&#45;&gt;Node6</title>
<path fill="none" stroke="#63b8ff" d="M468.33,-257C449.26,-257 429.22,-257 410.86,-257"/>
<polygon fill="#63b8ff" stroke="#63b8ff" points="468.22,-260.5 478.22,-257 468.22,-253.5 468.22,-260.5"/>
</g>
<!-- Node7 -->
<g id="node7" class="node">
<title>Node7</title>
<g id="a_node7"><a xlink:href="classProjectSettings.html#ab5a89c98d9b538e7614f65f7a6255c99" target="_top" xlink:title=" ">
<polygon fill="white" stroke="#666666" points="413.5,-224 268.5,-224 268.5,-194 413.5,-194 413.5,-224"/>
<text text-anchor="start" x="276.5" y="-212" font-family="Helvetica,sans-Serif" font-size="10.00">ProjectSettings::makePath</text>
<text text-anchor="middle" x="341" y="-201" font-family="Helvetica,sans-Serif" font-size="10.00">ExpandedAndAbsolute</text>
</a>
</g>
</g>
<!-- Node1&#45;&gt;Node7 -->
<g id="edge6" class="edge">
<title>Node1&#45;&gt;Node7</title>
<path fill="none" stroke="#63b8ff" d="M473.25,-239C452.27,-234.2 429.79,-229.07 409.47,-224.42"/>
<polygon fill="#63b8ff" stroke="#63b8ff" points="472.39,-242.39 482.92,-241.21 473.95,-235.57 472.39,-242.39"/>
</g>
<!-- Node8 -->
<g id="node8" class="node">
<title>Node8</title>
<g id="a_node8"><a xlink:href="classProjectSettings.html#adf7874c353382e0d836e08b0f7d61d4a" target="_top" xlink:title=" ">
<polygon fill="white" stroke="#666666" points="416,-160 266,-160 266,-130 416,-130 416,-160"/>
<text text-anchor="start" x="274" y="-148" font-family="Helvetica,sans-Serif" font-size="10.00">ProjectSettings::makePaths</text>
<text text-anchor="middle" x="341" y="-137" font-family="Helvetica,sans-Serif" font-size="10.00">ExpandedAndAbsolute</text>
</a>
</g>
</g>
<!-- Node1&#45;&gt;Node8 -->
<g id="edge7" class="edge">
<title>Node1&#45;&gt;Node8</title>
<path fill="none" stroke="#63b8ff" d="M522.63,-234.91C501.49,-219.65 471.89,-199.55 444,-185 426.12,-175.67 405.56,-167.21 387.61,-160.5"/>
<polygon fill="#63b8ff" stroke="#63b8ff" points="520.35,-237.58 530.49,-240.65 524.48,-231.93 520.35,-237.58"/>
</g>
<!-- Node3 -->
<g id="node3" class="node">
<title>Node3</title>
<g id="a_node3"><a xlink:href="classSourceGroupSettings.html#a6d9436a75862ac78b4e3f203099b9f25" target="_top" xlink:title=" ">
<polygon fill="white" stroke="#666666" points="186,-384.5 16,-384.5 16,-343.5 186,-343.5 186,-384.5"/>
<text text-anchor="start" x="24" y="-372.5" font-family="Helvetica,sans-Serif" font-size="10.00">SourceGroupSettings</text>
<text text-anchor="start" x="24" y="-361.5" font-family="Helvetica,sans-Serif" font-size="10.00">::getSourceGroupDependencies</text>
<text text-anchor="middle" x="101" y="-350.5" font-family="Helvetica,sans-Serif" font-size="10.00">DirectoryPath</text>
</a>
</g>
</g>
<!-- Node2&#45;&gt;Node3 -->
<g id="edge2" class="edge">
<title>Node2&#45;&gt;Node3</title>
<path fill="none" stroke="#63b8ff" d="M238.63,-360.56C221.16,-361 203.17,-361.45 186.22,-361.88"/>
<polygon fill="#63b8ff" stroke="#63b8ff" points="238.6,-364.06 248.51,-360.31 238.42,-357.06 238.6,-364.06"/>
</g>
<!-- Node5 -->
<g id="node5" class="node">
<title>Node5</title>
<g id="a_node5"><a xlink:href="classSourceGroupSettingsWithExcludeFilters.html#ad8d9cea67470e14815af33a02fdc5f57" target="_top" xlink:title=" ">
<polygon fill="white" stroke="#666666" points="192.5,-325.5 9.5,-325.5 9.5,-284.5 192.5,-284.5 192.5,-325.5"/>
<text text-anchor="start" x="17.5" y="-313.5" font-family="Helvetica,sans-Serif" font-size="10.00">SourceGroupSettingsWithExclude</text>
<text text-anchor="start" x="17.5" y="-302.5" font-family="Helvetica,sans-Serif" font-size="10.00">Filters::getExcludeFiltersExpanded</text>
<text text-anchor="middle" x="101" y="-291.5" font-family="Helvetica,sans-Serif" font-size="10.00">AndAbsolute</text>
</a>
</g>
</g>
<!-- Node4&#45;&gt;Node5 -->
<g id="edge4" class="edge">
<title>Node4&#45;&gt;Node5</title>
<path fill="none" stroke="#63b8ff" d="M226.48,-305C215.25,-305 203.94,-305 192.98,-305"/>
<polygon fill="#63b8ff" stroke="#63b8ff" points="226.17,-308.5 236.17,-305 226.17,-301.5 226.17,-308.5"/>
</g>
<!-- Node9 -->
<g id="node9" class="node">
<title>Node9</title>
<g id="a_node9"><a xlink:href="classSourceGroupSettingsWithCxxPathsAndFlags.html#aea5c38bc8a40579aa9f09469eea4bd99" target="_top" xlink:title=" ">
<polygon fill="white" stroke="#666666" points="200,-266.5 2,-266.5 2,-225.5 200,-225.5 200,-266.5"/>
<text text-anchor="start" x="10" y="-254.5" font-family="Helvetica,sans-Serif" font-size="10.00">SourceGroupSettingsWithCxx</text>
<text text-anchor="start" x="10" y="-243.5" font-family="Helvetica,sans-Serif" font-size="10.00">PathsAndFlags::getFrameworkSearch</text>
<text text-anchor="middle" x="101" y="-232.5" font-family="Helvetica,sans-Serif" font-size="10.00">PathsExpandedAndAbsolute</text>
</a>
</g>
</g>
<!-- Node8&#45;&gt;Node9 -->
<g id="edge8" class="edge">
<title>Node8&#45;&gt;Node9</title>
<path fill="none" stroke="#63b8ff" d="M279.67,-164.59C265.53,-170.28 250.86,-177.11 238,-185 219.75,-196.19 220.74,-206.65 202,-217 196.62,-219.97 190.9,-222.66 185.04,-225.1"/>
<polygon fill="#63b8ff" stroke="#63b8ff" points="280.86,-167.89 288.92,-161.02 278.33,-161.36 280.86,-167.89"/>
</g>
<!-- Node10 -->
<g id="node10" class="node">
<title>Node10</title>
<g id="a_node10"><a xlink:href="classSourceGroupSettingsWithCxxPathsAndFlags.html#a9c42d32d8904e1e03664aa708d282d0e" target="_top" xlink:title=" ">
<polygon fill="white" stroke="#666666" points="190.5,-207.5 11.5,-207.5 11.5,-166.5 190.5,-166.5 190.5,-207.5"/>
<text text-anchor="start" x="19.5" y="-195.5" font-family="Helvetica,sans-Serif" font-size="10.00">SourceGroupSettingsWithCxx</text>
<text text-anchor="start" x="19.5" y="-184.5" font-family="Helvetica,sans-Serif" font-size="10.00">PathsAndFlags::getHeaderSearch</text>
<text text-anchor="middle" x="101" y="-173.5" font-family="Helvetica,sans-Serif" font-size="10.00">PathsExpandedAndAbsolute</text>
</a>
</g>
</g>
<!-- Node8&#45;&gt;Node10 -->
<g id="edge9" class="edge">
<title>Node8&#45;&gt;Node10</title>
<path fill="none" stroke="#63b8ff" d="M254.36,-160.11C233.7,-163.76 211.59,-167.66 190.79,-171.33"/>
<polygon fill="#63b8ff" stroke="#63b8ff" points="254.94,-163.56 264.18,-158.38 253.73,-156.67 254.94,-163.56"/>
</g>
<!-- Node11 -->
<g id="node11" class="node">
<title>Node11</title>
<g id="a_node11"><a xlink:href="classSourceGroupSettingsWithIndexedHeaderPaths.html#a21b006ccb30e87c85ac8a15468790dce" target="_top" xlink:title=" ">
<polygon fill="white" stroke="#666666" points="202,-148.5 0,-148.5 0,-107.5 202,-107.5 202,-148.5"/>
<text text-anchor="start" x="8" y="-136.5" font-family="Helvetica,sans-Serif" font-size="10.00">SourceGroupSettingsWithIndexed</text>
<text text-anchor="start" x="8" y="-125.5" font-family="Helvetica,sans-Serif" font-size="10.00">HeaderPaths::getIndexedHeaderPaths</text>
<text text-anchor="middle" x="101" y="-114.5" font-family="Helvetica,sans-Serif" font-size="10.00">ExpandedAndAbsolute</text>
</a>
</g>
</g>
<!-- Node8&#45;&gt;Node11 -->
<g id="edge10" class="edge">
<title>Node8&#45;&gt;Node11</title>
<path fill="none" stroke="#63b8ff" d="M254.21,-138.87C237.39,-137.67 219.62,-136.4 202.38,-135.17"/>
<polygon fill="#63b8ff" stroke="#63b8ff" points="253.94,-142.36 264.16,-139.58 254.44,-135.38 253.94,-142.36"/>
</g>
<!-- Node12 -->
<g id="node12" class="node">
<title>Node12</title>
<g id="a_node12"><a xlink:href="classSourceGroupSettingsWithSourcePaths.html#aad1450a7b874e87ead50f4d2124419e2" target="_top" xlink:title=" ">
<polygon fill="white" stroke="#666666" points="197,-89.5 5,-89.5 5,-48.5 197,-48.5 197,-89.5"/>
<text text-anchor="start" x="13" y="-77.5" font-family="Helvetica,sans-Serif" font-size="10.00">SourceGroupSettingsWithSource</text>
<text text-anchor="start" x="13" y="-66.5" font-family="Helvetica,sans-Serif" font-size="10.00">Paths::getSourcePathsExpandedAnd</text>
<text text-anchor="middle" x="101" y="-55.5" font-family="Helvetica,sans-Serif" font-size="10.00">Absolute</text>
</a>
</g>
</g>
<!-- Node8&#45;&gt;Node12 -->
<g id="edge11" class="edge">
<title>Node8&#45;&gt;Node12</title>
<path fill="none" stroke="#63b8ff" d="M285.49,-125.79C260.19,-117.04 229.65,-106.71 202,-98 193.55,-95.34 184.67,-92.63 175.84,-90"/>
<polygon fill="#63b8ff" stroke="#63b8ff" points="284.33,-129.09 294.92,-129.06 286.62,-122.48 284.33,-129.09"/>
</g>
<!-- Node13 -->
<g id="node13" class="node">
<title>Node13</title>
<g id="a_node13"><a xlink:href="classSourceGroupSettings.html#aecfcac2d41ef83d4158a40fd7835769c" target="_top" xlink:title=" ">
<polygon fill="white" stroke="#666666" points="194,-30 8,-30 8,0 194,0 194,-30"/>
<text text-anchor="start" x="16" y="-18" font-family="Helvetica,sans-Serif" font-size="10.00">SourceGroupSettings</text>
<text text-anchor="middle" x="101" y="-7" font-family="Helvetica,sans-Serif" font-size="10.00">::makePathsExpandedAndAbsolute</text>
</a>
</g>
</g>
<!-- Node8&#45;&gt;Node13 -->
<g id="edge12" class="edge">
<title>Node8&#45;&gt;Node13</title>
<path fill="none" stroke="#63b8ff" d="M316.86,-122.22C291,-98.03 246.83,-60.39 202,-39 195.15,-35.73 187.82,-32.89 180.36,-30.42"/>
<polygon fill="#63b8ff" stroke="#63b8ff" points="314.15,-124.47 323.81,-128.82 318.97,-119.4 314.15,-124.47"/>
</g>
</g>
</svg>
