<?xml version="1.0" encoding="UTF-8" standalone="no"?>
<!DOCTYPE svg PUBLIC "-//W3C//DTD SVG 1.1//EN"
 "http://www.w3.org/Graphics/SVG/1.1/DTD/svg11.dtd">
<!-- Generated by graphviz version 7.1.0 (0)
 -->
<!-- Title: Node::forEachChildNode Pages: 1 -->
<svg width="322pt" height="64pt"
 viewBox="0.00 0.00 322.00 64.00" xmlns="http://www.w3.org/2000/svg" xmlns:xlink="http://www.w3.org/1999/xlink">
<g id="graph0" class="graph" transform="scale(1 1) rotate(0) translate(4 60)">
<title>Node::forEachChildNode</title>
<!-- Node1 -->
<g id="node1" class="node">
<title>Node1</title>
<g id="a_node1"><a xlink:title=" ">
<polygon fill="#999999" stroke="#666666" points="135,-37 0,-37 0,-18 135,-18 135,-37"/>
<text text-anchor="middle" x="67.5" y="-25" font-family="Helvetica,sans-Serif" font-size="10.00">Node::forEachChildNode</text>
</a>
</g>
</g>
<!-- Node2 -->
<g id="node2" class="node">
<title>Node2</title>
<g id="a_node2"><a xlink:href="classNode.html#af174ff3d736a93109d028fffe5957cdf" target="_top" xlink:title=" ">
<polygon fill="white" stroke="#666666" points="314,-56 171,-56 171,-37 314,-37 314,-56"/>
<text text-anchor="middle" x="242.5" y="-44" font-family="Helvetica,sans-Serif" font-size="10.00">Node::forEachEdgeOfType</text>
</a>
</g>
</g>
<!-- Node1&#45;&gt;Node2 -->
<g id="edge1" class="edge">
<title>Node1&#45;&gt;Node2</title>
<path fill="none" stroke="#63b8ff" d="M135.39,-34.85C143.27,-35.71 151.38,-36.6 159.45,-37.49"/>
<polygon fill="#63b8ff" stroke="#63b8ff" points="158.95,-40.96 169.28,-38.57 159.72,-34 158.95,-40.96"/>
</g>
<!-- Node3 -->
<g id="node3" class="node">
<title>Node3</title>
<g id="a_node3"><a xlink:href="classEdge.html#a8aead758c19cbce8c4bda7a2e2989071" target="_top" xlink:title=" ">
<polygon fill="white" stroke="#666666" points="279,-19 206,-19 206,0 279,0 279,-19"/>
<text text-anchor="middle" x="242.5" y="-7" font-family="Helvetica,sans-Serif" font-size="10.00">Edge::getTo</text>
</a>
</g>
</g>
<!-- Node1&#45;&gt;Node3 -->
<g id="edge2" class="edge">
<title>Node1&#45;&gt;Node3</title>
<path fill="none" stroke="#63b8ff" d="M135.39,-20.54C155.14,-18.49 176.32,-16.28 194.53,-14.39"/>
<polygon fill="#63b8ff" stroke="#63b8ff" points="194.65,-17.89 204.23,-13.38 193.92,-10.93 194.65,-17.89"/>
</g>
</g>
</svg>
