<?xml version="1.0" encoding="UTF-8" standalone="no"?>
<!DOCTYPE svg PUBLIC "-//W3C//DTD SVG 1.1//EN"
 "http://www.w3.org/Graphics/SVG/1.1/DTD/svg11.dtd">
<!-- Generated by graphviz version 9.0.0 (0)
 -->
<!-- Title: Application::getUUID Pages: 1 -->
<svg width="424pt" height="68pt"
 viewBox="0.00 0.00 424.25 67.75" xmlns="http://www.w3.org/2000/svg" xmlns:xlink="http://www.w3.org/1999/xlink">
<g id="graph0" class="graph" transform="scale(1 1) rotate(0) translate(4 63.75)">
<title>Application::getUUID</title>
<!-- Node1 -->
<g id="Node000001" class="node">
<title>Node1</title>
<g id="a_Node000001"><a xlink:title=" ">
<polygon fill="#999999" stroke="#666666" points="118,-39.75 0,-39.75 0,-19 118,-19 118,-39.75"/>
<text text-anchor="middle" x="59" y="-26.25" font-family="Helvetica,sans-Serif" font-size="10.00">Application::getUUID</text>
</a>
</g>
</g>
<!-- Node2 -->
<g id="Node000002" class="node">
<title>Node2</title>
<g id="a_Node000002"><a xlink:href="namespaceutility.html#a34a8a3e09fde7002644db59ab2a59b4b" target="_top" xlink:title=" ">
<polygon fill="white" stroke="#666666" points="270.5,-39.75 154,-39.75 154,-19 270.5,-19 270.5,-39.75"/>
<text text-anchor="middle" x="212.25" y="-26.25" font-family="Helvetica,sans-Serif" font-size="10.00">utility::getUuidString</text>
</a>
</g>
</g>
<!-- Node1&#45;&gt;Node2 -->
<g id="edge1_Node000001_Node000002" class="edge">
<title>Node1&#45;&gt;Node2</title>
<g id="a_edge1_Node000001_Node000002"><a xlink:title=" ">
<path fill="none" stroke="#63b8ff" d="M118.48,-29.38C126.39,-29.38 134.56,-29.38 142.63,-29.38"/>
<polygon fill="#63b8ff" stroke="#63b8ff" points="142.41,-32.88 152.41,-29.38 142.41,-25.88 142.41,-32.88"/>
</a>
</g>
</g>
<!-- Node3 -->
<g id="Node000003" class="node">
<title>Node3</title>
<g id="a_Node000003"><a xlink:href="namespaceutility.html#aa535ea159c4aa0adb78b191c638a54d9" target="_top" xlink:title=" ">
<polygon fill="white" stroke="#666666" points="405.38,-59.75 317.38,-59.75 317.38,-39 405.38,-39 405.38,-59.75"/>
<text text-anchor="middle" x="361.38" y="-46.25" font-family="Helvetica,sans-Serif" font-size="10.00">utility::getUuid</text>
</a>
</g>
</g>
<!-- Node2&#45;&gt;Node3 -->
<g id="edge2_Node000002_Node000003" class="edge">
<title>Node2&#45;&gt;Node3</title>
<g id="a_edge2_Node000002_Node000003"><a xlink:title=" ">
<path fill="none" stroke="#63b8ff" d="M270.98,-37.22C282.45,-38.78 294.46,-40.41 305.82,-41.96"/>
<polygon fill="#63b8ff" stroke="#63b8ff" points="305.04,-45.39 315.42,-43.26 305.98,-38.45 305.04,-45.39"/>
</a>
</g>
</g>
<!-- Node4 -->
<g id="Node000004" class="node">
<title>Node4</title>
<g id="a_Node000004"><a xlink:href="namespaceutility.html#af74967d66fb4d53a94457015432afc2b" target="_top" xlink:title=" ">
<polygon fill="white" stroke="#666666" points="416.25,-20.75 306.5,-20.75 306.5,0 416.25,0 416.25,-20.75"/>
<text text-anchor="middle" x="361.38" y="-7.25" font-family="Helvetica,sans-Serif" font-size="10.00">utility::uuidToString</text>
</a>
</g>
</g>
<!-- Node2&#45;&gt;Node4 -->
<g id="edge3_Node000002_Node000004" class="edge">
<title>Node2&#45;&gt;Node4</title>
<g id="a_edge3_Node000002_Node000004"><a xlink:title=" ">
<path fill="none" stroke="#63b8ff" d="M270.98,-21.92C278.85,-20.9 286.99,-19.85 294.99,-18.82"/>
<polygon fill="#63b8ff" stroke="#63b8ff" points="295.21,-22.32 304.68,-17.57 294.31,-15.38 295.21,-22.32"/>
</a>
</g>
</g>
</g>
</svg>
