<?xml version="1.0" encoding="UTF-8" standalone="no"?>
<!DOCTYPE svg PUBLIC "-//W3C//DTD SVG 1.1//EN"
 "http://www.w3.org/Graphics/SVG/1.1/DTD/svg11.dtd">
<!-- Generated by graphviz version 9.0.0 (0)
 -->
<!-- Title: SharedMemory::checkSharedMutex Pages: 1 -->
<svg width="551pt" height="42pt"
 viewBox="0.00 0.00 551.00 41.50" xmlns="http://www.w3.org/2000/svg" xmlns:xlink="http://www.w3.org/1999/xlink">
<g id="graph0" class="graph" transform="scale(1 1) rotate(0) translate(4 37.5)">
<title>SharedMemory::checkSharedMutex</title>
<!-- Node1 -->
<g id="Node000001" class="node">
<title>Node1</title>
<g id="a_Node000001"><a xlink:title=" ">
<polygon fill="#999999" stroke="#666666" points="157.75,-33.5 0,-33.5 0,0 157.75,0 157.75,-33.5"/>
<text text-anchor="start" x="8" y="-20" font-family="Helvetica,sans-Serif" font-size="10.00">SharedMemory::checkShared</text>
<text text-anchor="middle" x="78.88" y="-7.25" font-family="Helvetica,sans-Serif" font-size="10.00">Mutex</text>
</a>
</g>
</g>
<!-- Node2 -->
<g id="Node000002" class="node">
<title>Node2</title>
<g id="a_Node000002"><a xlink:href="classSharedMemory.html#a48f68f8c3d15add029c4d573c4c6bec6" target="_top" xlink:title=" ">
<polygon fill="white" stroke="#666666" points="335.75,-27.12 193.75,-27.12 193.75,-6.38 335.75,-6.38 335.75,-27.12"/>
<text text-anchor="middle" x="264.75" y="-13.62" font-family="Helvetica,sans-Serif" font-size="10.00">SharedMemory::getMutex</text>
</a>
</g>
</g>
<!-- Node1&#45;&gt;Node2 -->
<g id="edge1_Node000001_Node000002" class="edge">
<title>Node1&#45;&gt;Node2</title>
<g id="a_edge1_Node000001_Node000002"><a xlink:title=" ">
<path fill="none" stroke="#63b8ff" d="M158.12,-16.75C166,-16.75 174.02,-16.75 181.94,-16.75"/>
<polygon fill="#63b8ff" stroke="#63b8ff" points="181.92,-20.25 191.92,-16.75 181.92,-13.25 181.92,-20.25"/>
</a>
</g>
</g>
<!-- Node3 -->
<g id="Node000003" class="node">
<title>Node3</title>
<g id="a_Node000003"><a xlink:href="classSharedMemory.html#a2d5a52138337bb903e51993ce8929c95" target="_top" xlink:title=" ">
<polygon fill="white" stroke="#666666" points="543,-27.12 371.75,-27.12 371.75,-6.38 543,-6.38 543,-27.12"/>
<text text-anchor="middle" x="457.38" y="-13.62" font-family="Helvetica,sans-Serif" font-size="10.00">SharedMemory::getMutexName</text>
</a>
</g>
</g>
<!-- Node2&#45;&gt;Node3 -->
<g id="edge2_Node000002_Node000003" class="edge">
<title>Node2&#45;&gt;Node3</title>
<g id="a_edge2_Node000002_Node000003"><a xlink:title=" ">
<path fill="none" stroke="#63b8ff" d="M336.19,-16.75C343.98,-16.75 352,-16.75 360.03,-16.75"/>
<polygon fill="#63b8ff" stroke="#63b8ff" points="359.86,-20.25 369.86,-16.75 359.86,-13.25 359.86,-20.25"/>
</a>
</g>
</g>
</g>
</svg>
