<?xml version="1.0" encoding="UTF-8" standalone="no"?>
<!DOCTYPE svg PUBLIC "-//W3C//DTD SVG 1.1//EN"
 "http://www.w3.org/Graphics/SVG/1.1/DTD/svg11.dtd">
<!-- Generated by graphviz version 7.1.0 (0)
 -->
<!-- Title: Indexer&lt; T &gt; Pages: 1 -->
<svg width="246pt" height="104pt"
 viewBox="0.00 0.00 245.50 104.00" xmlns="http://www.w3.org/2000/svg" xmlns:xlink="http://www.w3.org/1999/xlink">
<g id="graph0" class="graph" transform="scale(1 1) rotate(0) translate(4 100)">
<title>Indexer&lt; T &gt;</title>
<!-- Node1 -->
<g id="node1" class="node">
<title>Node1</title>
<g id="a_node1"><a xlink:title=" ">
<polygon fill="#999999" stroke="#666666" points="143.5,-19 61.5,-19 61.5,0 143.5,0 143.5,-19"/>
<text text-anchor="middle" x="102.5" y="-7" font-family="Helvetica,sans-Serif" font-size="10.00">Indexer&lt; T &gt;</text>
</a>
</g>
</g>
<!-- Node2 -->
<g id="node2" class="node">
<title>Node2</title>
<g id="a_node2"><a xlink:href="classIndexerBase.html" target="_top" xlink:title=" ">
<polygon fill="white" stroke="#666666" points="77,-90.5 0,-90.5 0,-71.5 77,-71.5 77,-90.5"/>
<text text-anchor="middle" x="38.5" y="-78.5" font-family="Helvetica,sans-Serif" font-size="10.00">IndexerBase</text>
</a>
</g>
</g>
<!-- Node2&#45;&gt;Node1 -->
<g id="edge1" class="edge">
<title>Node2&#45;&gt;Node1</title>
<path fill="none" stroke="#63b8ff" d="M54.13,-63.03C66.8,-49.27 84.15,-30.43 94.26,-19.45"/>
<polygon fill="#63b8ff" stroke="#63b8ff" points="51.83,-60.36 47.63,-70.08 56.98,-65.1 51.83,-60.36"/>
</g>
<!-- Node3 -->
<g id="node3" class="node">
<title>Node3</title>
<g id="a_node3"><a xlink:title=" ">
<polygon fill="white" stroke="#666666" points="237.5,-96 95.5,-96 95.5,-66 237.5,-66 237.5,-96"/>
<text text-anchor="start" x="103.5" y="-84" font-family="Helvetica,sans-Serif" font-size="10.00">shared_ptr&lt; IndexerState</text>
<text text-anchor="middle" x="166.5" y="-73" font-family="Helvetica,sans-Serif" font-size="10.00">Info &gt;</text>
</a>
</g>
</g>
<!-- Node3&#45;&gt;Node1 -->
<g id="edge2" class="edge">
<title>Node3&#45;&gt;Node1</title>
<path fill="none" stroke="#9a32cd" stroke-dasharray="5,2" d="M145.77,-57.49C133.74,-44.43 119.28,-28.72 110.49,-19.18"/>
<polygon fill="#9a32cd" stroke="#9a32cd" points="142.87,-59.5 152.21,-64.49 148.01,-54.76 142.87,-59.5"/>
<text text-anchor="middle" x="185.5" y="-40" font-family="Helvetica,sans-Serif" font-size="10.00"> m_indexerStateInfo</text>
</g>
</g>
</svg>
