<?xml version="1.0" encoding="UTF-8" standalone="no"?>
<!DOCTYPE svg PUBLIC "-//W3C//DTD SVG 1.1//EN"
 "http://www.w3.org/Graphics/SVG/1.1/DTD/svg11.dtd">
<!-- Generated by graphviz version 9.0.0 (0)
 -->
<!-- Title: MessageErrorCountUpdate Pages: 1 -->
<svg width="436pt" height="391pt"
 viewBox="0.00 0.00 436.12 391.25" xmlns="http://www.w3.org/2000/svg" xmlns:xlink="http://www.w3.org/1999/xlink">
<g id="graph0" class="graph" transform="scale(1 1) rotate(0) translate(4 387.25)">
<title>MessageErrorCountUpdate</title>
<!-- Node1 -->
<g id="Node000001" class="node">
<title>Node1</title>
<g id="a_Node000001"><a xlink:title=" ">
<polygon fill="#999999" stroke="#666666" points="361.75,-20.75 215.25,-20.75 215.25,0 361.75,0 361.75,-20.75"/>
<text text-anchor="middle" x="288.5" y="-7.25" font-family="Helvetica,sans-Serif" font-size="10.00">MessageErrorCountUpdate</text>
</a>
</g>
</g>
<!-- Node2 -->
<g id="Node000002" class="node">
<title>Node2</title>
<g id="a_Node000002"><a xlink:href="classMessage.html" target="_top" xlink:title=" ">
<polygon fill="white" stroke="#666666" points="192.5,-103 26.5,-103 26.5,-69.5 192.5,-69.5 192.5,-103"/>
<text text-anchor="start" x="34.5" y="-89.5" font-family="Helvetica,sans-Serif" font-size="10.00">Message&lt; MessageErrorCount</text>
<text text-anchor="middle" x="109.5" y="-76.75" font-family="Helvetica,sans-Serif" font-size="10.00">Update &gt;</text>
</a>
</g>
</g>
<!-- Node2&#45;&gt;Node1 -->
<g id="edge1_Node000001_Node000002" class="edge">
<title>Node2&#45;&gt;Node1</title>
<g id="a_edge1_Node000001_Node000002"><a xlink:title=" ">
<path fill="none" stroke="#63b8ff" d="M159.12,-64.77C193.54,-50.57 237.86,-32.27 264.68,-21.21"/>
<polygon fill="#63b8ff" stroke="#63b8ff" points="158.09,-61.41 150.18,-68.46 160.76,-67.88 158.09,-61.41"/>
</a>
</g>
</g>
<!-- Node3 -->
<g id="Node000003" class="node">
<title>Node3</title>
<g id="a_Node000003"><a xlink:href="classMessageBase.html" target="_top" xlink:title=" ">
<polygon fill="white" stroke="#666666" points="136.25,-250 52.75,-250 52.75,-229.25 136.25,-229.25 136.25,-250"/>
<text text-anchor="middle" x="94.5" y="-236.5" font-family="Helvetica,sans-Serif" font-size="10.00">MessageBase</text>
</a>
</g>
</g>
<!-- Node3&#45;&gt;Node2 -->
<g id="edge2_Node000002_Node000003" class="edge">
<title>Node3&#45;&gt;Node2</title>
<g id="a_edge2_Node000002_Node000003"><a xlink:title=" ">
<path fill="none" stroke="#63b8ff" d="M83.64,-218.78C75.38,-201.14 66.39,-174.69 72.5,-151.75 77.25,-133.91 88.24,-115.88 97.02,-103.43"/>
<polygon fill="#63b8ff" stroke="#63b8ff" points="80.47,-220.27 88.11,-227.61 86.72,-217.11 80.47,-220.27"/>
</a>
</g>
</g>
<!-- Node7 -->
<g id="Node000007" class="node">
<title>Node7</title>
<g id="a_Node000007"><a xlink:href="classMessage.html" target="_top" xlink:title=" ">
<polygon fill="white" stroke="#666666" points="229.5,-172.5 81.5,-172.5 81.5,-151.75 229.5,-151.75 229.5,-172.5"/>
<text text-anchor="middle" x="155.5" y="-159" font-family="Helvetica,sans-Serif" font-size="10.00">Message&lt; MessageType &gt;</text>
</a>
</g>
</g>
<!-- Node3&#45;&gt;Node7 -->
<g id="edge7_Node000007_Node000003" class="edge">
<title>Node3&#45;&gt;Node7</title>
<g id="a_edge7_Node000007_Node000003"><a xlink:title=" ">
<path fill="none" stroke="#63b8ff" d="M109.67,-219.85C121.75,-204.9 138.16,-184.58 147.72,-172.76"/>
<polygon fill="#63b8ff" stroke="#63b8ff" points="106.99,-217.6 103.43,-227.58 112.43,-222 106.99,-217.6"/>
</a>
</g>
</g>
<!-- Node4 -->
<g id="Node000004" class="node">
<title>Node4</title>
<g id="a_Node000004"><a xlink:title=" ">
<polygon fill="white" stroke="#666666" points="55,-383.25 0,-383.25 0,-362.5 55,-362.5 55,-383.25"/>
<text text-anchor="middle" x="27.5" y="-369.75" font-family="Helvetica,sans-Serif" font-size="10.00">static Id</text>
</a>
</g>
</g>
<!-- Node4&#45;&gt;Node3 -->
<g id="edge3_Node000003_Node000004" class="edge">
<title>Node4&#45;&gt;Node3</title>
<g id="a_edge3_Node000003_Node000004"><a xlink:title=" ">
<path fill="none" stroke="#9a32cd" stroke-dasharray="5,2" d="M26.29,-351.02C26.04,-328.52 28.81,-292.61 46.25,-268 51.6,-260.46 59.72,-254.72 67.78,-250.5"/>
<polygon fill="#9a32cd" stroke="#9a32cd" points="22.79,-350.88 26.63,-360.75 29.78,-350.63 22.79,-350.88"/>
</a>
</g>
<text text-anchor="middle" x="68.62" y="-303.12" font-family="Helvetica,sans-Serif" font-size="10.00" fill="grey"> s_nextId</text>
</g>
<!-- Node5 -->
<g id="Node000005" class="node">
<title>Node5</title>
<g id="a_Node000005"><a xlink:title=" ">
<polygon fill="white" stroke="#666666" points="263.75,-383.25 219.25,-383.25 219.25,-362.5 263.75,-362.5 263.75,-383.25"/>
<text text-anchor="middle" x="241.5" y="-369.75" font-family="Helvetica,sans-Serif" font-size="10.00">size_t</text>
</a>
</g>
</g>
<!-- Node5&#45;&gt;Node3 -->
<g id="edge4_Node000003_Node000005" class="edge">
<title>Node5&#45;&gt;Node3</title>
<g id="a_edge4_Node000003_Node000005"><a xlink:title=" ">
<path fill="none" stroke="#9a32cd" stroke-dasharray="5,2" d="M209.5,-357.28C204.17,-353.71 199.12,-349.47 195.25,-344.5 173.43,-316.54 196.97,-293.68 172.5,-268 163,-258.02 149.65,-251.68 136.68,-247.65"/>
<polygon fill="#9a32cd" stroke="#9a32cd" points="207.51,-360.17 217.91,-362.21 211.05,-354.13 207.51,-360.17"/>
</a>
</g>
<text text-anchor="middle" x="231.12" y="-309.5" font-family="Helvetica,sans-Serif" font-size="10.00" fill="grey"> m_id</text>
<text text-anchor="middle" x="231.12" y="-296.75" font-family="Helvetica,sans-Serif" font-size="10.00" fill="grey">m_schedulerId</text>
</g>
<!-- Node8 -->
<g id="Node000008" class="node">
<title>Node8</title>
<g id="a_Node000008"><a xlink:href="structErrorCountInfo.html" target="_top" xlink:title=" ">
<polygon fill="white" stroke="#666666" points="331.75,-211.25 245.25,-211.25 245.25,-190.5 331.75,-190.5 331.75,-211.25"/>
<text text-anchor="middle" x="288.5" y="-197.75" font-family="Helvetica,sans-Serif" font-size="10.00">ErrorCountInfo</text>
</a>
</g>
</g>
<!-- Node5&#45;&gt;Node8 -->
<g id="edge9_Node000008_Node000005" class="edge">
<title>Node5&#45;&gt;Node8</title>
<g id="a_edge9_Node000008_Node000005"><a xlink:title=" ">
<path fill="none" stroke="#9a32cd" stroke-dasharray="5,2" d="M260.68,-353.69C262.93,-350.8 264.97,-347.71 266.5,-344.5 288.57,-298.4 289.44,-235.2 288.88,-211.43"/>
<polygon fill="#9a32cd" stroke="#9a32cd" points="258.24,-351.17 254.13,-360.94 263.43,-355.86 258.24,-351.17"/>
</a>
</g>
<text text-anchor="middle" x="299.25" y="-309.5" font-family="Helvetica,sans-Serif" font-size="10.00" fill="grey"> fatal</text>
<text text-anchor="middle" x="299.25" y="-296.75" font-family="Helvetica,sans-Serif" font-size="10.00" fill="grey">total</text>
</g>
<!-- Node6 -->
<g id="Node000006" class="node">
<title>Node6</title>
<g id="a_Node000006"><a xlink:title=" ">
<polygon fill="white" stroke="#666666" points="113,-383.25 76,-383.25 76,-362.5 113,-362.5 113,-383.25"/>
<text text-anchor="middle" x="94.5" y="-369.75" font-family="Helvetica,sans-Serif" font-size="10.00">bool</text>
</a>
</g>
</g>
<!-- Node6&#45;&gt;Node3 -->
<g id="edge5_Node000003_Node000006" class="edge">
<title>Node6&#45;&gt;Node3</title>
<g id="a_edge5_Node000003_Node000006"><a xlink:title=" ">
<path fill="none" stroke="#9a32cd" stroke-dasharray="5,2" d="M94.5,-350.79C94.5,-321.94 94.5,-271.32 94.5,-250.25"/>
<polygon fill="#9a32cd" stroke="#9a32cd" points="91,-350.5 94.5,-360.5 98,-350.5 91,-350.5"/>
</a>
</g>
<text text-anchor="middle" x="132.75" y="-335" font-family="Helvetica,sans-Serif" font-size="10.00" fill="grey"> m_isLast</text>
<text text-anchor="middle" x="132.75" y="-322.25" font-family="Helvetica,sans-Serif" font-size="10.00" fill="grey">m_isLogged</text>
<text text-anchor="middle" x="132.75" y="-309.5" font-family="Helvetica,sans-Serif" font-size="10.00" fill="grey">m_isParallel</text>
<text text-anchor="middle" x="132.75" y="-296.75" font-family="Helvetica,sans-Serif" font-size="10.00" fill="grey">m_isReplayed</text>
<text text-anchor="middle" x="132.75" y="-284" font-family="Helvetica,sans-Serif" font-size="10.00" fill="grey">m_keepContent</text>
<text text-anchor="middle" x="132.75" y="-271.25" font-family="Helvetica,sans-Serif" font-size="10.00" fill="grey">m_sendAsTask</text>
</g>
<!-- Node7&#45;&gt;Node2 -->
<g id="edge6_Node000002_Node000007" class="edge">
<title>Node7&#45;&gt;Node2</title>
<g id="a_edge6_Node000002_Node000007"><a xlink:title=" ">
<path fill="none" stroke="orange" stroke-dasharray="5,2" d="M120.59,-145.14C116.59,-141.92 113.03,-138.15 110.5,-133.75 105.26,-124.66 105.08,-112.81 106.18,-103.35"/>
<polygon fill="orange" stroke="orange" points="118.35,-147.86 128.62,-150.49 122.23,-142.03 118.35,-147.86"/>
</a>
</g>
<text text-anchor="middle" x="188.5" y="-124.25" font-family="Helvetica,sans-Serif" font-size="10.00" fill="grey"> &lt; MessageErrorCountUpdate &gt;</text>
</g>
<!-- Node8&#45;&gt;Node1 -->
<g id="edge8_Node000001_Node000008" class="edge">
<title>Node8&#45;&gt;Node1</title>
<g id="a_edge8_Node000001_Node000008"><a xlink:title=" ">
<path fill="none" stroke="#9a32cd" stroke-dasharray="5,2" d="M288.5,-178.56C288.5,-137.83 288.5,-50.41 288.5,-21.15"/>
<polygon fill="#9a32cd" stroke="#9a32cd" points="285,-178.49 288.5,-188.49 292,-178.49 285,-178.49"/>
</a>
</g>
<text text-anchor="middle" x="315.88" y="-124.25" font-family="Helvetica,sans-Serif" font-size="10.00" fill="grey"> errorCount</text>
</g>
<!-- Node9 -->
<g id="Node000009" class="node">
<title>Node9</title>
<g id="a_Node000009"><a xlink:title=" ">
<polygon fill="white" stroke="#666666" points="428.12,-96.62 316.88,-96.62 316.88,-75.88 428.12,-75.88 428.12,-96.62"/>
<text text-anchor="middle" x="372.5" y="-83.12" font-family="Helvetica,sans-Serif" font-size="10.00">vector&lt; ErrorInfo &gt;</text>
</a>
</g>
</g>
<!-- Node9&#45;&gt;Node1 -->
<g id="edge10_Node000001_Node000009" class="edge">
<title>Node9&#45;&gt;Node1</title>
<g id="a_edge10_Node000001_Node000009"><a xlink:title=" ">
<path fill="none" stroke="#9a32cd" stroke-dasharray="5,2" d="M353.07,-68.16C336.43,-53.53 313.07,-32.98 299.48,-21.04"/>
<polygon fill="#9a32cd" stroke="#9a32cd" points="350.56,-70.62 360.38,-74.59 355.18,-65.36 350.56,-70.62"/>
</a>
</g>
<text text-anchor="middle" x="358.38" y="-42" font-family="Helvetica,sans-Serif" font-size="10.00" fill="grey"> newErrors</text>
</g>
</g>
</svg>
