<?xml version="1.0" encoding="UTF-8" standalone="no"?>
<!DOCTYPE svg PUBLIC "-//W3C//DTD SVG 1.1//EN"
 "http://www.w3.org/Graphics/SVG/1.1/DTD/svg11.dtd">
<!-- Generated by graphviz version 9.0.0 (0)
 -->
<!-- Title: CodeController::handleMessage Pages: 1 -->
<svg width="1321pt" height="878pt"
 viewBox="0.00 0.00 1320.75 877.85" xmlns="http://www.w3.org/2000/svg" xmlns:xlink="http://www.w3.org/1999/xlink">
<g id="graph0" class="graph" transform="scale(1 1) rotate(0) translate(4 873.85)">
<title>CodeController::handleMessage</title>
<!-- Node1 -->
<g id="Node000001" class="node">
<title>Node1</title>
<g id="a_Node000001"><a xlink:title=" ">
<polygon fill="#999999" stroke="#666666" points="171.25,-557.12 0,-557.12 0,-536.38 171.25,-536.38 171.25,-557.12"/>
<text text-anchor="middle" x="85.62" y="-543.62" font-family="Helvetica,sans-Serif" font-size="10.00">CodeController::handleMessage</text>
</a>
</g>
</g>
<!-- Node2 -->
<g id="Node000002" class="node">
<title>Node2</title>
<g id="a_Node000002"><a xlink:href="classCodeView.html#abd49d20a4e65e2fe16fe98e2524fa84a" target="_top" xlink:title=" ">
<polygon fill="white" stroke="#666666" points="1151.25,-782.12 1056.5,-782.12 1056.5,-761.38 1151.25,-761.38 1151.25,-782.12"/>
<text text-anchor="middle" x="1103.88" y="-768.62" font-family="Helvetica,sans-Serif" font-size="10.00">CodeView::clear</text>
</a>
</g>
</g>
<!-- Node1&#45;&gt;Node2 -->
<g id="edge1_Node000001_Node000002" class="edge">
<title>Node1&#45;&gt;Node2</title>
<g id="a_edge1_Node000001_Node000002"><a xlink:title=" ">
<path fill="none" stroke="#63b8ff" d="M93.3,-557.59C128.35,-612.98 297.21,-861.75 503.62,-861.75 503.62,-861.75 503.62,-861.75 723.75,-861.75 852.58,-861.75 892.75,-888.99 1013,-842.75 1041.92,-831.63 1068.94,-807.74 1085.65,-790.74"/>
<polygon fill="#63b8ff" stroke="#63b8ff" points="1088,-793.35 1092.36,-783.69 1082.93,-788.52 1088,-793.35"/>
</a>
</g>
</g>
<!-- Node3 -->
<g id="Node000003" class="node">
<title>Node3</title>
<g id="a_Node000003"><a xlink:href="classCodeController.html#affaa2a65b109b9f7f6a9ff097069a636" target="_top" xlink:title=" ">
<polygon fill="white" stroke="#666666" points="999.12,-373.12 864.62,-373.12 864.62,-352.38 999.12,-352.38 999.12,-373.12"/>
<text text-anchor="middle" x="931.88" y="-359.62" font-family="Helvetica,sans-Serif" font-size="10.00">CodeController::getView</text>
</a>
</g>
</g>
<!-- Node1&#45;&gt;Node3 -->
<g id="edge2_Node000001_Node000003" class="edge">
<title>Node1&#45;&gt;Node3</title>
<g id="a_edge2_Node000001_Node000003"><a xlink:title=" ">
<path fill="none" stroke="#63b8ff" d="M94.45,-536.14C127.31,-492.6 259.67,-327.24 414.5,-270.75 498.26,-240.19 729.98,-271.11 814.75,-298.75 848.53,-309.76 883.8,-330.76 906.47,-345.7"/>
<polygon fill="#63b8ff" stroke="#63b8ff" points="904.45,-348.56 914.7,-351.24 908.35,-342.75 904.45,-348.56"/>
</a>
</g>
</g>
<!-- Node6 -->
<g id="Node000006" class="node">
<title>Node6</title>
<g id="a_Node000006"><a xlink:href="classCodeController.html#a40c530867143e5e8e3fc10a8b871f6f0" target="_top" xlink:title=" ">
<polygon fill="white" stroke="#666666" points="378.5,-557.12 207.25,-557.12 207.25,-536.38 378.5,-536.38 378.5,-557.12"/>
<text text-anchor="middle" x="292.88" y="-543.62" font-family="Helvetica,sans-Serif" font-size="10.00">CodeController::handleMessage</text>
</a>
</g>
</g>
<!-- Node1&#45;&gt;Node6 -->
<g id="edge5_Node000001_Node000006" class="edge">
<title>Node1&#45;&gt;Node6</title>
<g id="a_edge5_Node000001_Node000006"><a xlink:title=" ">
<path fill="none" stroke="#63b8ff" d="M171.59,-546.75C179.54,-546.75 187.63,-546.75 195.67,-546.75"/>
<polygon fill="#63b8ff" stroke="#63b8ff" points="195.46,-550.25 205.46,-546.75 195.46,-543.25 195.46,-550.25"/>
</a>
</g>
</g>
<!-- Node4 -->
<g id="Node000004" class="node">
<title>Node4</title>
<g id="a_Node000004"><a xlink:href="classController.html#a431a774ef12696f8bb22903cada1485c" target="_top" xlink:title=" ">
<polygon fill="white" stroke="#666666" points="1158.75,-373.12 1049,-373.12 1049,-352.38 1158.75,-352.38 1158.75,-373.12"/>
<text text-anchor="middle" x="1103.88" y="-359.62" font-family="Helvetica,sans-Serif" font-size="10.00">Controller::getView</text>
</a>
</g>
</g>
<!-- Node3&#45;&gt;Node4 -->
<g id="edge3_Node000003_Node000004" class="edge">
<title>Node3&#45;&gt;Node4</title>
<g id="a_edge3_Node000003_Node000004"><a xlink:title=" ">
<path fill="none" stroke="#63b8ff" d="M999.58,-362.75C1012.04,-362.75 1025.05,-362.75 1037.48,-362.75"/>
<polygon fill="#63b8ff" stroke="#63b8ff" points="1037.17,-366.25 1047.17,-362.75 1037.17,-359.25 1037.17,-366.25"/>
</a>
</g>
</g>
<!-- Node5 -->
<g id="Node000005" class="node">
<title>Node5</title>
<g id="a_Node000005"><a xlink:href="classComponent.html#a9f4dbd8f986abae9d6014b4a34d2b014" target="_top" xlink:title=" ">
<polygon fill="white" stroke="#666666" points="1312.75,-373.12 1194.75,-373.12 1194.75,-352.38 1312.75,-352.38 1312.75,-373.12"/>
<text text-anchor="middle" x="1253.75" y="-359.62" font-family="Helvetica,sans-Serif" font-size="10.00">Component::getView</text>
</a>
</g>
</g>
<!-- Node4&#45;&gt;Node5 -->
<g id="edge4_Node000004_Node000005" class="edge">
<title>Node4&#45;&gt;Node5</title>
<g id="a_edge4_Node000004_Node000005"><a xlink:title=" ">
<path fill="none" stroke="#63b8ff" d="M1159.1,-362.75C1166.89,-362.75 1174.99,-362.75 1183.02,-362.75"/>
<polygon fill="#63b8ff" stroke="#63b8ff" points="1182.79,-366.25 1192.79,-362.75 1182.79,-359.25 1182.79,-366.25"/>
</a>
</g>
</g>
<!-- Node6&#45;&gt;Node3 -->
<g id="edge28_Node000006_Node000003" class="edge">
<title>Node6&#45;&gt;Node3</title>
<g id="a_edge28_Node000006_Node000003"><a xlink:title=" ">
<path fill="none" stroke="#63b8ff" d="M308.51,-557.6C330.28,-572.99 373.09,-600.45 414.5,-610.75 500.86,-632.24 740.64,-646.03 814.75,-596.75 889.98,-546.72 918.44,-432.87 927.37,-384.81"/>
<polygon fill="#63b8ff" stroke="#63b8ff" points="930.8,-385.54 929.06,-375.08 923.9,-384.34 930.8,-385.54"/>
</a>
</g>
</g>
<!-- Node7 -->
<g id="Node000007" class="node">
<title>Node7</title>
<g id="a_Node000007"><a xlink:href="classCodeController.html#a79db1efd76132af117489dc631fac642" target="_top" xlink:title=" ">
<polygon fill="white" stroke="#666666" points="594.75,-678.12 414.5,-678.12 414.5,-657.38 594.75,-657.38 594.75,-678.12"/>
<text text-anchor="middle" x="504.62" y="-664.62" font-family="Helvetica,sans-Serif" font-size="10.00">CodeController::createReferences</text>
</a>
</g>
</g>
<!-- Node6&#45;&gt;Node7 -->
<g id="edge6_Node000006_Node000007" class="edge">
<title>Node6&#45;&gt;Node7</title>
<g id="a_edge6_Node000006_Node000007"><a xlink:title=" ">
<path fill="none" stroke="#63b8ff" d="M304.1,-557.52C323.65,-577.5 368.5,-620.38 414.5,-643.75 421.95,-647.54 430.06,-650.77 438.26,-653.53"/>
<polygon fill="#63b8ff" stroke="#63b8ff" points="437,-656.81 447.59,-656.44 439.08,-650.12 437,-656.81"/>
</a>
</g>
</g>
<!-- Node10 -->
<g id="Node000010" class="node">
<title>Node10</title>
<g id="a_Node000010"><a xlink:href="classFilePath.html#ae09c07f1ae9ac6f650a765cc11cc6494" target="_top" xlink:title=" ">
<polygon fill="white" stroke="#666666" points="550.5,-352.12 458.75,-352.12 458.75,-331.38 550.5,-331.38 550.5,-352.12"/>
<text text-anchor="middle" x="504.62" y="-338.62" font-family="Helvetica,sans-Serif" font-size="10.00">FilePath::empty</text>
</a>
</g>
</g>
<!-- Node6&#45;&gt;Node10 -->
<g id="edge12_Node000006_Node000010" class="edge">
<title>Node6&#45;&gt;Node10</title>
<g id="a_edge12_Node000006_Node000010"><a xlink:title=" ">
<path fill="none" stroke="#63b8ff" d="M298.84,-536.14C312.93,-507.07 356,-425.17 414.5,-378.75 426.32,-369.37 440.85,-362.01 454.72,-356.41"/>
<polygon fill="#63b8ff" stroke="#63b8ff" points="455.62,-359.82 463.73,-353.01 453.14,-353.27 455.62,-359.82"/>
</a>
</g>
</g>
<!-- Node11 -->
<g id="Node000011" class="node">
<title>Node11</title>
<g id="a_Node000011"><a xlink:href="classCodeController.html#a406f2b57ef19e6227d575a7f475afa68" target="_top" xlink:title=" ">
<polygon fill="white" stroke="#666666" points="586.5,-563.5 422.75,-563.5 422.75,-530 586.5,-530 586.5,-563.5"/>
<text text-anchor="start" x="430.75" y="-550" font-family="Helvetica,sans-Serif" font-size="10.00">CodeController::expandVisible</text>
<text text-anchor="middle" x="504.62" y="-537.25" font-family="Helvetica,sans-Serif" font-size="10.00">Files</text>
</a>
</g>
</g>
<!-- Node6&#45;&gt;Node11 -->
<g id="edge14_Node000006_Node000011" class="edge">
<title>Node6&#45;&gt;Node11</title>
<g id="a_edge14_Node000006_Node000011"><a xlink:title=" ">
<path fill="none" stroke="#63b8ff" d="M378.89,-546.75C389.59,-546.75 400.58,-546.75 411.39,-546.75"/>
<polygon fill="#63b8ff" stroke="#63b8ff" points="411.05,-550.25 421.05,-546.75 411.05,-543.25 411.05,-550.25"/>
</a>
</g>
</g>
<!-- Node14 -->
<g id="Node000014" class="node">
<title>Node14</title>
<g id="a_Node000014"><a xlink:href="classCodeController.html#ad963e44f718cba0b88285bdc5ee96228" target="_top" xlink:title=" ">
<polygon fill="white" stroke="#666666" points="586.5,-833.5 422.75,-833.5 422.75,-800 586.5,-800 586.5,-833.5"/>
<text text-anchor="start" x="430.75" y="-820" font-family="Helvetica,sans-Serif" font-size="10.00">CodeController::firstReference</text>
<text text-anchor="middle" x="504.62" y="-807.25" font-family="Helvetica,sans-Serif" font-size="10.00">ScrollParams</text>
</a>
</g>
</g>
<!-- Node6&#45;&gt;Node14 -->
<g id="edge19_Node000006_Node000014" class="edge">
<title>Node6&#45;&gt;Node14</title>
<g id="a_edge19_Node000006_Node000014"><a xlink:title=" ">
<path fill="none" stroke="#63b8ff" d="M295.95,-557.43C303.89,-595.36 335.92,-724.87 414.5,-790.75 415.77,-791.82 417.09,-792.84 418.44,-793.82"/>
<polygon fill="#63b8ff" stroke="#63b8ff" points="416.22,-796.57 426.56,-798.91 419.94,-790.63 416.22,-796.57"/>
</a>
</g>
</g>
<!-- Node17 -->
<g id="Node000017" class="node">
<title>Node17</title>
<g id="a_Node000017"><a xlink:href="classStorageAccess.html#ac662e9f143765a325f1b9a086e8abd32" target="_top" xlink:title=" ">
<polygon fill="white" stroke="#666666" points="573.38,-313.5 435.88,-313.5 435.88,-280 573.38,-280 573.38,-313.5"/>
<text text-anchor="start" x="443.88" y="-300" font-family="Helvetica,sans-Serif" font-size="10.00">StorageAccess::getErrors</text>
<text text-anchor="middle" x="504.62" y="-287.25" font-family="Helvetica,sans-Serif" font-size="10.00">ForFileLimited</text>
</a>
</g>
</g>
<!-- Node6&#45;&gt;Node17 -->
<g id="edge23_Node000006_Node000017" class="edge">
<title>Node6&#45;&gt;Node17</title>
<g id="a_edge23_Node000006_Node000017"><a xlink:title=" ">
<path fill="none" stroke="#63b8ff" d="M296.49,-535.95C305.77,-499.88 340.68,-382.49 414.5,-322.75 417.93,-319.98 421.64,-317.5 425.53,-315.29"/>
<polygon fill="#63b8ff" stroke="#63b8ff" points="426.79,-318.57 434.19,-310.99 423.67,-312.3 426.79,-318.57"/>
</a>
</g>
</g>
<!-- Node18 -->
<g id="Node000018" class="node">
<title>Node18</title>
<g id="a_Node000018"><a xlink:href="classStorageAccess.html#a25d17db8756a4a1ead16fc3c9ae945a9" target="_top" xlink:title=" ">
<polygon fill="white" stroke="#666666" points="573.38,-781.5 435.88,-781.5 435.88,-748 573.38,-748 573.38,-781.5"/>
<text text-anchor="start" x="443.88" y="-768" font-family="Helvetica,sans-Serif" font-size="10.00">StorageAccess::getErrors</text>
<text text-anchor="middle" x="504.62" y="-755.25" font-family="Helvetica,sans-Serif" font-size="10.00">Limited</text>
</a>
</g>
</g>
<!-- Node6&#45;&gt;Node18 -->
<g id="edge24_Node000006_Node000018" class="edge">
<title>Node6&#45;&gt;Node18</title>
<g id="a_edge24_Node000006_Node000018"><a xlink:title=" ">
<path fill="none" stroke="#63b8ff" d="M297.44,-557.36C308.88,-589.79 347.9,-688.45 414.5,-738.75 417.85,-741.28 421.44,-743.56 425.18,-745.62"/>
<polygon fill="#63b8ff" stroke="#63b8ff" points="423.52,-748.71 434.05,-749.92 426.57,-742.41 423.52,-748.71"/>
</a>
</g>
</g>
<!-- Node19 -->
<g id="Node000019" class="node">
<title>Node19</title>
<g id="a_Node000019"><a xlink:href="classStorageAccess.html#a5a6d2d5aad250b5bb0fb6a073ca5b479" target="_top" xlink:title=" ">
<polygon fill="white" stroke="#666666" points="587.25,-729.5 422,-729.5 422,-696 587.25,-696 587.25,-729.5"/>
<text text-anchor="start" x="430" y="-716" font-family="Helvetica,sans-Serif" font-size="10.00">StorageAccess::getErrorSource</text>
<text text-anchor="middle" x="504.62" y="-703.25" font-family="Helvetica,sans-Serif" font-size="10.00">Locations</text>
</a>
</g>
</g>
<!-- Node6&#45;&gt;Node19 -->
<g id="edge25_Node000006_Node000019" class="edge">
<title>Node6&#45;&gt;Node19</title>
<g id="a_edge25_Node000006_Node000019"><a xlink:title=" ">
<path fill="none" stroke="#63b8ff" d="M299.97,-557.35C315.54,-583.46 359.46,-651.34 414.5,-686.75 416.51,-688.04 418.59,-689.28 420.72,-690.45"/>
<polygon fill="#63b8ff" stroke="#63b8ff" points="419.14,-693.57 429.66,-694.84 422.23,-687.29 419.14,-693.57"/>
</a>
</g>
</g>
<!-- Node20 -->
<g id="Node000020" class="node">
<title>Node20</title>
<g id="a_Node000020"><a xlink:href="classCodeController.html#a18ad66c91880a9ff098cd4798de47129" target="_top" xlink:title=" ">
<polygon fill="white" stroke="#666666" points="570.75,-421.5 438.5,-421.5 438.5,-388 570.75,-388 570.75,-421.5"/>
<text text-anchor="start" x="446.5" y="-408" font-family="Helvetica,sans-Serif" font-size="10.00">CodeController::getFiles</text>
<text text-anchor="middle" x="504.62" y="-395.25" font-family="Helvetica,sans-Serif" font-size="10.00">ForCollection</text>
</a>
</g>
</g>
<!-- Node6&#45;&gt;Node20 -->
<g id="edge26_Node000006_Node000020" class="edge">
<title>Node6&#45;&gt;Node20</title>
<g id="a_edge26_Node000006_Node000020"><a xlink:title=" ">
<path fill="none" stroke="#63b8ff" d="M301.98,-536.02C319.78,-513.2 364.72,-459.58 414.5,-430.75 418.77,-428.28 423.3,-426.02 427.96,-423.97"/>
<polygon fill="#63b8ff" stroke="#63b8ff" points="428.95,-427.34 436.92,-420.36 426.34,-420.85 428.95,-427.34"/>
</a>
</g>
</g>
<!-- Node21 -->
<g id="Node000021" class="node">
<title>Node21</title>
<g id="a_Node000021"><a xlink:href="classMessageBase.html#a503147e0eb9af4a3edf5b2ffeed77270" target="_top" xlink:title=" ">
<polygon fill="white" stroke="#666666" points="794.5,-468.12 651,-468.12 651,-447.38 794.5,-447.38 794.5,-468.12"/>
<text text-anchor="middle" x="722.75" y="-454.62" font-family="Helvetica,sans-Serif" font-size="10.00">MessageBase::isReplayed</text>
</a>
</g>
</g>
<!-- Node6&#45;&gt;Node21 -->
<g id="edge29_Node000006_Node000021" class="edge">
<title>Node6&#45;&gt;Node21</title>
<g id="a_edge29_Node000006_Node000021"><a xlink:title=" ">
<path fill="none" stroke="#63b8ff" d="M343.74,-535.89C365.46,-531.18 391.23,-525.64 414.5,-520.75 498.15,-503.16 594.74,-483.45 656.95,-470.84"/>
<polygon fill="#63b8ff" stroke="#63b8ff" points="657.57,-474.29 666.67,-468.87 656.18,-467.43 657.57,-474.29"/>
</a>
</g>
</g>
<!-- Node22 -->
<g id="Node000022" class="node">
<title>Node22</title>
<g id="a_Node000022"><a xlink:href="classCodeController.html#a6f55464e6cc378be0ba5da006c7f0df6" target="_top" xlink:title=" ">
<polygon fill="white" stroke="#666666" points="588,-473.5 421.25,-473.5 421.25,-440 588,-440 588,-473.5"/>
<text text-anchor="start" x="429.25" y="-460" font-family="Helvetica,sans-Serif" font-size="10.00">CodeController::saveOrRestore</text>
<text text-anchor="middle" x="504.62" y="-447.25" font-family="Helvetica,sans-Serif" font-size="10.00">ViewMode</text>
</a>
</g>
</g>
<!-- Node6&#45;&gt;Node22 -->
<g id="edge30_Node000006_Node000022" class="edge">
<title>Node6&#45;&gt;Node22</title>
<g id="a_edge30_Node000006_Node000022"><a xlink:title=" ">
<path fill="none" stroke="#63b8ff" d="M314.02,-535.97C337.7,-523.52 378.35,-502.81 414.5,-487.75 422.78,-484.3 431.59,-480.91 440.33,-477.71"/>
<polygon fill="#63b8ff" stroke="#63b8ff" points="441.26,-481.09 449.49,-474.42 438.9,-474.5 441.26,-481.09"/>
</a>
</g>
</g>
<!-- Node25 -->
<g id="Node000025" class="node">
<title>Node25</title>
<g id="a_Node000025"><a xlink:href="classCodeController.html#a6d0631179cf8204726f817c510f0a267" target="_top" xlink:title=" ">
<polygon fill="white" stroke="#666666" points="575.62,-156.12 433.62,-156.12 433.62,-135.38 575.62,-135.38 575.62,-156.12"/>
<text text-anchor="middle" x="504.62" y="-142.62" font-family="Helvetica,sans-Serif" font-size="10.00">CodeController::showFiles</text>
</a>
</g>
</g>
<!-- Node6&#45;&gt;Node25 -->
<g id="edge35_Node000006_Node000025" class="edge">
<title>Node6&#45;&gt;Node25</title>
<g id="a_edge35_Node000006_Node000025"><a xlink:title=" ">
<path fill="none" stroke="#63b8ff" d="M297.62,-536.1C311,-498.54 358.67,-369.24 414.5,-270.75 436.8,-231.42 468.68,-189.33 487.65,-165.4"/>
<polygon fill="#63b8ff" stroke="#63b8ff" points="490.23,-167.78 493.75,-157.79 484.77,-163.4 490.23,-167.78"/>
</a>
</g>
</g>
<!-- Node34 -->
<g id="Node000034" class="node">
<title>Node34</title>
<g id="a_Node000034"><a xlink:href="structCodeFileParams.html#acd50cbb11c225628361e1bf394db6554" target="_top" xlink:title=" ">
<polygon fill="white" stroke="#666666" points="574.88,-602.12 434.38,-602.12 434.38,-581.38 574.88,-581.38 574.88,-602.12"/>
<text text-anchor="middle" x="504.62" y="-588.62" font-family="Helvetica,sans-Serif" font-size="10.00">CodeFileParams::sortById</text>
</a>
</g>
</g>
<!-- Node6&#45;&gt;Node34 -->
<g id="edge47_Node000006_Node000034" class="edge">
<title>Node6&#45;&gt;Node34</title>
<g id="a_edge47_Node000006_Node000034"><a xlink:title=" ">
<path fill="none" stroke="#63b8ff" d="M344.05,-557.59C365.72,-562.27 391.35,-567.79 414.5,-572.75 423.3,-574.64 432.59,-576.62 441.71,-578.57"/>
<polygon fill="#63b8ff" stroke="#63b8ff" points="440.73,-581.94 451.24,-580.6 442.19,-575.09 440.73,-581.94"/>
</a>
</g>
</g>
<!-- Node7&#45;&gt;Node3 -->
<g id="edge11_Node000007_Node000003" class="edge">
<title>Node7&#45;&gt;Node3</title>
<g id="a_edge11_Node000007_Node000003"><a xlink:title=" ">
<path fill="none" stroke="#63b8ff" d="M555.43,-678.59C621.4,-689.95 738.32,-699.27 814.75,-643.75 901.93,-580.42 923.91,-439.42 929.24,-384.88"/>
<polygon fill="#63b8ff" stroke="#63b8ff" points="932.72,-385.29 930.1,-375.02 925.75,-384.68 932.72,-385.29"/>
</a>
</g>
</g>
<!-- Node8 -->
<g id="Node000008" class="node">
<title>Node8</title>
<g id="a_Node000008"><a xlink:href="classCodeController.html#acabfff8ee11097b3f518c53ad07305d8" target="_top" xlink:title=" ">
<polygon fill="white" stroke="#666666" points="809.5,-754.12 636,-754.12 636,-733.38 809.5,-733.38 809.5,-754.12"/>
<text text-anchor="middle" x="722.75" y="-740.62" font-family="Helvetica,sans-Serif" font-size="10.00">CodeController::clearReferences</text>
</a>
</g>
</g>
<!-- Node7&#45;&gt;Node8 -->
<g id="edge7_Node000007_Node000008" class="edge">
<title>Node7&#45;&gt;Node8</title>
<g id="a_edge7_Node000007_Node000008"><a xlink:title=" ">
<path fill="none" stroke="#63b8ff" d="M565.06,-678.58C575.07,-680.93 585.28,-683.65 594.75,-686.75 628.92,-697.92 666.26,-715.35 691.55,-728"/>
<polygon fill="#63b8ff" stroke="#63b8ff" points="689.75,-731.01 700.25,-732.41 692.91,-724.77 689.75,-731.01"/>
</a>
</g>
</g>
<!-- Node8&#45;&gt;Node2 -->
<g id="edge8_Node000008_Node000002" class="edge">
<title>Node8&#45;&gt;Node2</title>
<g id="a_edge8_Node000008_Node000002"><a xlink:title=" ">
<path fill="none" stroke="#63b8ff" d="M809.78,-750.1C881.66,-755.41 982.19,-762.84 1044.87,-767.47"/>
<polygon fill="#63b8ff" stroke="#63b8ff" points="1044.38,-770.94 1054.61,-768.19 1044.89,-763.96 1044.38,-770.94"/>
</a>
</g>
</g>
<!-- Node9 -->
<g id="Node000009" class="node">
<title>Node9</title>
<g id="a_Node000009"><a xlink:href="classCodeController.html#ac5ae05d9b87da34bc4124b0f01f26515" target="_top" xlink:title=" ">
<polygon fill="white" stroke="#666666" points="1004,-743.5 859.75,-743.5 859.75,-710 1004,-710 1004,-743.5"/>
<text text-anchor="start" x="867.75" y="-730" font-family="Helvetica,sans-Serif" font-size="10.00">CodeController::clearLocal</text>
<text text-anchor="middle" x="931.88" y="-717.25" font-family="Helvetica,sans-Serif" font-size="10.00">References</text>
</a>
</g>
</g>
<!-- Node8&#45;&gt;Node9 -->
<g id="edge9_Node000008_Node000009" class="edge">
<title>Node8&#45;&gt;Node9</title>
<g id="a_edge9_Node000008_Node000009"><a xlink:title=" ">
<path fill="none" stroke="#63b8ff" d="M809.79,-736.69C822.47,-735.65 835.51,-734.58 848.12,-733.54"/>
<polygon fill="#63b8ff" stroke="#63b8ff" points="848.37,-737.03 858.05,-732.73 847.8,-730.06 848.37,-737.03"/>
</a>
</g>
</g>
<!-- Node9&#45;&gt;Node2 -->
<g id="edge10_Node000009_Node000002" class="edge">
<title>Node9&#45;&gt;Node2</title>
<g id="a_edge10_Node000009_Node000002"><a xlink:title=" ">
<path fill="none" stroke="#63b8ff" d="M997.63,-743.89C1015.33,-748.58 1034.28,-753.59 1051.15,-758.06"/>
<polygon fill="#63b8ff" stroke="#63b8ff" points="1049.88,-761.34 1060.44,-760.52 1051.67,-754.57 1049.88,-761.34"/>
</a>
</g>
</g>
<!-- Node10&#45;&gt;Node10 -->
<g id="edge13_Node000010_Node000010" class="edge">
<title>Node10&#45;&gt;Node10</title>
<g id="a_edge13_Node000010_Node000010"><a xlink:title=" ">
<path fill="none" stroke="#63b8ff" d="M470.51,-352.52C456.86,-361.18 468.23,-370.12 504.62,-370.12 525.1,-370.12 537.65,-367.3 542.29,-363.28"/>
<polygon fill="#63b8ff" stroke="#63b8ff" points="545.67,-362.36 539.22,-353.96 539.02,-364.55 545.67,-362.36"/>
</a>
</g>
</g>
<!-- Node11&#45;&gt;Node3 -->
<g id="edge15_Node000011_Node000003" class="edge">
<title>Node11&#45;&gt;Node3</title>
<g id="a_edge15_Node000011_Node000003"><a xlink:title=" ">
<path fill="none" stroke="#63b8ff" d="M575.71,-563.94C593.55,-567.59 612.76,-570.9 630.75,-572.75 712.1,-581.11 744.31,-614.29 814.75,-572.75 885.44,-531.06 916.1,-429.2 926.48,-384.44"/>
<polygon fill="#63b8ff" stroke="#63b8ff" points="929.84,-385.43 928.56,-374.91 923,-383.93 929.84,-385.43"/>
</a>
</g>
</g>
<!-- Node12 -->
<g id="Node000012" class="node">
<title>Node12</title>
<g id="a_Node000012"><a xlink:href="classCodeView.html#a523ae797b1501500d269e17f516f1c4d" target="_top" xlink:title=" ">
<polygon fill="white" stroke="#666666" points="788.88,-564.12 656.62,-564.12 656.62,-543.38 788.88,-543.38 788.88,-564.12"/>
<text text-anchor="middle" x="722.75" y="-550.62" font-family="Helvetica,sans-Serif" font-size="10.00">CodeView::isInListMode</text>
</a>
</g>
</g>
<!-- Node11&#45;&gt;Node12 -->
<g id="edge16_Node000011_Node000012" class="edge">
<title>Node11&#45;&gt;Node12</title>
<g id="a_edge16_Node000011_Node000012"><a xlink:title=" ">
<path fill="none" stroke="#63b8ff" d="M586.72,-549.38C605.85,-550 626.19,-550.65 645.12,-551.27"/>
<polygon fill="#63b8ff" stroke="#63b8ff" points="644.77,-554.76 654.88,-551.58 645,-547.76 644.77,-554.76"/>
</a>
</g>
</g>
<!-- Node13 -->
<g id="Node000013" class="node">
<title>Node13</title>
<g id="a_Node000013"><a xlink:href="classCodeController.html#ab5824829c32e92a5b312912019246f49" target="_top" xlink:title=" ">
<polygon fill="white" stroke="#666666" points="798.62,-507.12 646.88,-507.12 646.88,-486.38 798.62,-486.38 798.62,-507.12"/>
<text text-anchor="middle" x="722.75" y="-493.62" font-family="Helvetica,sans-Serif" font-size="10.00">CodeController::setFileState</text>
</a>
</g>
</g>
<!-- Node11&#45;&gt;Node13 -->
<g id="edge17_Node000011_Node000013" class="edge">
<title>Node11&#45;&gt;Node13</title>
<g id="a_edge17_Node000011_Node000013"><a xlink:title=" ">
<path fill="none" stroke="#63b8ff" d="M580,-529.54C607.44,-523.19 638.11,-516.1 663.87,-510.14"/>
<polygon fill="#63b8ff" stroke="#63b8ff" points="664.54,-513.58 673.49,-507.91 662.96,-506.76 664.54,-513.58"/>
</a>
</g>
</g>
<!-- Node13&#45;&gt;Node13 -->
<g id="edge18_Node000013_Node000013" class="edge">
<title>Node13&#45;&gt;Node13</title>
<g id="a_edge18_Node000013_Node000013"><a xlink:title=" ">
<path fill="none" stroke="#63b8ff" d="M689.05,-507.52C675.57,-516.18 686.81,-525.12 722.75,-525.12 742.97,-525.12 755.37,-522.3 759.95,-518.28"/>
<polygon fill="#63b8ff" stroke="#63b8ff" points="763.34,-517.39 756.92,-508.96 756.68,-519.55 763.34,-517.39"/>
</a>
</g>
</g>
<!-- Node14&#45;&gt;Node3 -->
<g id="edge20_Node000014_Node000003" class="edge">
<title>Node14&#45;&gt;Node3</title>
<g id="a_edge20_Node000014_Node000003"><a xlink:title=" ">
<path fill="none" stroke="#63b8ff" d="M581.26,-799.53C586.05,-796.99 590.61,-794.08 594.75,-790.75 620.78,-769.8 604.32,-745.19 630.75,-724.75 697.43,-673.19 752.04,-735.08 814.75,-678.75 904.5,-598.14 925.01,-442.11 929.59,-384.67"/>
<polygon fill="#63b8ff" stroke="#63b8ff" points="933.07,-385.13 930.28,-374.91 926.09,-384.64 933.07,-385.13"/>
</a>
</g>
</g>
<!-- Node15 -->
<g id="Node000015" class="node">
<title>Node15</title>
<g id="a_Node000015"><a xlink:href="structCodeScrollParams.html#a429e03699961c71795e2c5ad23938f9c" target="_top" xlink:title=" ">
<polygon fill="white" stroke="#666666" points="807.62,-827.12 637.88,-827.12 637.88,-806.38 807.62,-806.38 807.62,-827.12"/>
<text text-anchor="middle" x="722.75" y="-813.62" font-family="Helvetica,sans-Serif" font-size="10.00">CodeScrollParams::toReference</text>
</a>
</g>
</g>
<!-- Node14&#45;&gt;Node15 -->
<g id="edge21_Node000014_Node000015" class="edge">
<title>Node14&#45;&gt;Node15</title>
<g id="a_edge21_Node000014_Node000015"><a xlink:title=" ">
<path fill="none" stroke="#63b8ff" d="M586.72,-816.75C599.59,-816.75 613.02,-816.75 626.19,-816.75"/>
<polygon fill="#63b8ff" stroke="#63b8ff" points="626.17,-820.25 636.17,-816.75 626.17,-813.25 626.17,-820.25"/>
</a>
</g>
</g>
<!-- Node16 -->
<g id="Node000016" class="node">
<title>Node16</title>
<g id="a_Node000016"><a xlink:href="structCodeScrollParams.html#a8c72d070589c62c003807b372b287c0c" target="_top" xlink:title=" ">
<polygon fill="white" stroke="#666666" points="1013,-833.5 850.75,-833.5 850.75,-800 1013,-800 1013,-833.5"/>
<text text-anchor="start" x="858.75" y="-820" font-family="Helvetica,sans-Serif" font-size="10.00">CodeScrollParams::CodeScroll</text>
<text text-anchor="middle" x="931.88" y="-807.25" font-family="Helvetica,sans-Serif" font-size="10.00">Params</text>
</a>
</g>
</g>
<!-- Node15&#45;&gt;Node16 -->
<g id="edge22_Node000015_Node000016" class="edge">
<title>Node15&#45;&gt;Node16</title>
<g id="a_edge22_Node000015_Node000016"><a xlink:title=" ">
<path fill="none" stroke="#63b8ff" d="M808,-816.75C818.28,-816.75 828.82,-816.75 839.2,-816.75"/>
<polygon fill="#63b8ff" stroke="#63b8ff" points="838.87,-820.25 848.87,-816.75 838.87,-813.25 838.87,-820.25"/>
</a>
</g>
</g>
<!-- Node20&#45;&gt;Node3 -->
<g id="edge27_Node000020_Node000003" class="edge">
<title>Node20&#45;&gt;Node3</title>
<g id="a_edge27_Node000020_Node000003"><a xlink:title=" ">
<path fill="none" stroke="#63b8ff" d="M571,-391.59C579.45,-388.24 587.63,-384.03 594.75,-378.75 618.23,-361.36 605.05,-337.64 630.75,-323.75 718.9,-276.1 842.27,-321.09 899.47,-347.13"/>
<polygon fill="#63b8ff" stroke="#63b8ff" points="897.76,-350.2 908.3,-351.26 900.73,-343.86 897.76,-350.2"/>
</a>
</g>
</g>
<!-- Node22&#45;&gt;Node3 -->
<g id="edge32_Node000022_Node000003" class="edge">
<title>Node22&#45;&gt;Node3</title>
<g id="a_edge32_Node000022_Node000003"><a xlink:title=" ">
<path fill="none" stroke="#63b8ff" d="M588.29,-444.93C650.93,-435.21 738.87,-419.94 814.75,-400.75 840.44,-394.25 868.7,-385.05 890.91,-377.33"/>
<polygon fill="#63b8ff" stroke="#63b8ff" points="891.91,-380.69 900.18,-374.06 889.59,-374.08 891.91,-380.69"/>
</a>
</g>
</g>
<!-- Node22&#45;&gt;Node21 -->
<g id="edge33_Node000022_Node000021" class="edge">
<title>Node22&#45;&gt;Node21</title>
<g id="a_edge33_Node000022_Node000021"><a xlink:title=" ">
<path fill="none" stroke="#63b8ff" d="M588.26,-457.13C605.01,-457.21 622.62,-457.29 639.36,-457.37"/>
<polygon fill="#63b8ff" stroke="#63b8ff" points="639.26,-460.87 649.28,-457.41 639.3,-453.87 639.26,-460.87"/>
</a>
</g>
</g>
<!-- Node23 -->
<g id="Node000023" class="node">
<title>Node23</title>
<g id="a_Node000023"><a xlink:href="classMessageBase.html#a8b22dcbfc6bd7df5d1cfd25838366f19" target="_top" xlink:title=" ">
<polygon fill="white" stroke="#666666" points="779.88,-392.12 665.62,-392.12 665.62,-371.38 779.88,-371.38 779.88,-392.12"/>
<text text-anchor="middle" x="722.75" y="-378.62" font-family="Helvetica,sans-Serif" font-size="10.00">MessageBase::getId</text>
</a>
</g>
</g>
<!-- Node22&#45;&gt;Node23 -->
<g id="edge31_Node000022_Node000023" class="edge">
<title>Node22&#45;&gt;Node23</title>
<g id="a_edge31_Node000022_Node000023"><a xlink:title=" ">
<path fill="none" stroke="#63b8ff" d="M573.17,-439.58C580.58,-436.96 587.91,-434.01 594.75,-430.75 612.33,-422.36 613.06,-413.91 630.75,-405.75 639.08,-401.9 648.14,-398.59 657.2,-395.76"/>
<polygon fill="#63b8ff" stroke="#63b8ff" points="658.14,-399.13 666.75,-392.97 656.17,-392.41 658.14,-399.13"/>
</a>
</g>
</g>
<!-- Node24 -->
<g id="Node000024" class="node">
<title>Node24</title>
<g id="a_Node000024"><a xlink:href="classCodeView.html#a83b64177325b582dca73df10e01243db" target="_top" xlink:title=" ">
<polygon fill="white" stroke="#666666" points="779.12,-353.12 666.38,-353.12 666.38,-332.38 779.12,-332.38 779.12,-353.12"/>
<text text-anchor="middle" x="722.75" y="-339.62" font-family="Helvetica,sans-Serif" font-size="10.00">CodeView::setMode</text>
</a>
</g>
</g>
<!-- Node22&#45;&gt;Node24 -->
<g id="edge34_Node000022_Node000024" class="edge">
<title>Node22&#45;&gt;Node24</title>
<g id="a_edge34_Node000022_Node000024"><a xlink:title=" ">
<path fill="none" stroke="#63b8ff" d="M581.3,-439.58C586.09,-437.04 590.63,-434.11 594.75,-430.75 621.26,-409.14 603.53,-383.45 630.75,-362.75 637.98,-357.25 646.42,-353.2 655.19,-350.23"/>
<polygon fill="#63b8ff" stroke="#63b8ff" points="655.89,-353.67 664.53,-347.54 653.95,-346.95 655.89,-353.67"/>
</a>
</g>
</g>
<!-- Node25&#45;&gt;Node3 -->
<g id="edge43_Node000025_Node000003" class="edge">
<title>Node25&#45;&gt;Node3</title>
<g id="a_edge43_Node000025_Node000003"><a xlink:title=" ">
<path fill="none" stroke="#63b8ff" d="M557.67,-156.58C580.15,-161.25 606.74,-166.78 630.75,-171.75 712.52,-188.69 744.12,-165.21 814.75,-209.75 867.21,-242.83 904.73,-308.59 921.34,-342.1"/>
<polygon fill="#63b8ff" stroke="#63b8ff" points="918.02,-343.26 925.5,-350.76 924.33,-340.23 918.02,-343.26"/>
</a>
</g>
</g>
<!-- Node26 -->
<g id="Node000026" class="node">
<title>Node26</title>
<g id="a_Node000026"><a xlink:href="classCodeController.html#aecaf689a7af3973a707055ffc6f34492" target="_top" xlink:title=" ">
<polygon fill="white" stroke="#666666" points="802,-162.5 643.5,-162.5 643.5,-129 802,-129 802,-162.5"/>
<text text-anchor="start" x="651.5" y="-149" font-family="Helvetica,sans-Serif" font-size="10.00">CodeController::addAllSource</text>
<text text-anchor="middle" x="722.75" y="-136.25" font-family="Helvetica,sans-Serif" font-size="10.00">Locations</text>
</a>
</g>
</g>
<!-- Node25&#45;&gt;Node26 -->
<g id="edge36_Node000025_Node000026" class="edge">
<title>Node25&#45;&gt;Node26</title>
<g id="a_edge36_Node000025_Node000026"><a xlink:title=" ">
<path fill="none" stroke="#63b8ff" d="M576.09,-145.75C593.84,-145.75 613.14,-145.75 631.7,-145.75"/>
<polygon fill="#63b8ff" stroke="#63b8ff" points="631.64,-149.25 641.64,-145.75 631.64,-142.25 631.64,-149.25"/>
</a>
</g>
</g>
<!-- Node29 -->
<g id="Node000029" class="node">
<title>Node29</title>
<g id="a_Node000029"><a xlink:href="classCodeController.html#ab41bcaf84d8fb761741bab81916fde79" target="_top" xlink:title=" ">
<polygon fill="white" stroke="#666666" points="809.5,-33.5 636,-33.5 636,0 809.5,0 809.5,-33.5"/>
<text text-anchor="start" x="644" y="-20" font-family="Helvetica,sans-Serif" font-size="10.00">CodeController::addModification</text>
<text text-anchor="middle" x="722.75" y="-7.25" font-family="Helvetica,sans-Serif" font-size="10.00">Times</text>
</a>
</g>
</g>
<!-- Node25&#45;&gt;Node29 -->
<g id="edge40_Node000025_Node000029" class="edge">
<title>Node25&#45;&gt;Node29</title>
<g id="a_edge40_Node000025_Node000029"><a xlink:title=" ">
<path fill="none" stroke="#63b8ff" d="M515.58,-135.02C535.48,-114.19 582.42,-68.13 630.75,-42.75 633.78,-41.16 636.92,-39.65 640.13,-38.23"/>
<polygon fill="#63b8ff" stroke="#63b8ff" points="641.24,-41.56 649.18,-34.55 638.6,-35.08 641.24,-41.56"/>
</a>
</g>
</g>
<!-- Node31 -->
<g id="Node000031" class="node">
<title>Node31</title>
<g id="a_Node000031"><a xlink:href="classCodeView.html#a8a9808052c4a667d0907de8950537523" target="_top" xlink:title=" ">
<polygon fill="white" stroke="#666666" points="794.12,-72.12 651.38,-72.12 651.38,-51.38 794.12,-51.38 794.12,-72.12"/>
<text text-anchor="middle" x="722.75" y="-58.62" font-family="Helvetica,sans-Serif" font-size="10.00">CodeView::showSingleFile</text>
</a>
</g>
</g>
<!-- Node25&#45;&gt;Node31 -->
<g id="edge44_Node000025_Node000031" class="edge">
<title>Node25&#45;&gt;Node31</title>
<g id="a_edge44_Node000025_Node000031"><a xlink:title=" ">
<path fill="none" stroke="#63b8ff" d="M523.21,-134.91C546.85,-120.78 590.56,-96.17 630.75,-81.75 637.24,-79.42 644.1,-77.31 651.02,-75.41"/>
<polygon fill="#63b8ff" stroke="#63b8ff" points="651.62,-78.87 660.43,-72.98 649.87,-72.09 651.62,-78.87"/>
</a>
</g>
</g>
<!-- Node32 -->
<g id="Node000032" class="node">
<title>Node32</title>
<g id="a_Node000032"><a xlink:href="classCodeView.html#abf450d7390a4e8d20a4b15221bc8a876" target="_top" xlink:title=" ">
<polygon fill="white" stroke="#666666" points="791.88,-239.12 653.62,-239.12 653.62,-218.38 791.88,-218.38 791.88,-239.12"/>
<text text-anchor="middle" x="722.75" y="-225.62" font-family="Helvetica,sans-Serif" font-size="10.00">CodeView::showSnippets</text>
</a>
</g>
</g>
<!-- Node25&#45;&gt;Node32 -->
<g id="edge45_Node000025_Node000032" class="edge">
<title>Node25&#45;&gt;Node32</title>
<g id="a_edge45_Node000025_Node000032"><a xlink:title=" ">
<path fill="none" stroke="#63b8ff" d="M525.51,-156.52C549.8,-169.35 592.39,-190.78 630.75,-204.75 641,-208.48 652.1,-211.9 662.91,-214.92"/>
<polygon fill="#63b8ff" stroke="#63b8ff" points="661.99,-218.3 672.55,-217.52 663.81,-211.54 661.99,-218.3"/>
</a>
</g>
</g>
<!-- Node33 -->
<g id="Node000033" class="node">
<title>Node33</title>
<g id="a_Node000033"><a xlink:href="classCodeView.html#ac2fb6ceb514870163af2b4e98949dcdc" target="_top" xlink:title=" ">
<polygon fill="white" stroke="#666666" points="814.75,-111.12 630.75,-111.12 630.75,-90.38 814.75,-90.38 814.75,-111.12"/>
<text text-anchor="middle" x="722.75" y="-97.62" font-family="Helvetica,sans-Serif" font-size="10.00">CodeView::updateSourceLocations</text>
</a>
</g>
</g>
<!-- Node25&#45;&gt;Node33 -->
<g id="edge46_Node000025_Node000033" class="edge">
<title>Node25&#45;&gt;Node33</title>
<g id="a_edge46_Node000025_Node000033"><a xlink:title=" ">
<path fill="none" stroke="#63b8ff" d="M557.67,-134.91C588.06,-128.59 626.62,-120.56 658.72,-113.87"/>
<polygon fill="#63b8ff" stroke="#63b8ff" points="659.23,-117.34 668.3,-111.88 657.8,-110.49 659.23,-117.34"/>
</a>
</g>
</g>
<!-- Node26&#45;&gt;Node3 -->
<g id="edge39_Node000026_Node000003" class="edge">
<title>Node26&#45;&gt;Node3</title>
<g id="a_edge39_Node000026_Node000003"><a xlink:title=" ">
<path fill="none" stroke="#63b8ff" d="M791.59,-162.95C799.86,-166.7 807.82,-171.25 814.75,-176.75 871.66,-221.89 908.25,-303.07 923.19,-341.49"/>
<polygon fill="#63b8ff" stroke="#63b8ff" points="919.87,-342.61 926.67,-350.74 926.43,-340.15 919.87,-342.61"/>
</a>
</g>
</g>
<!-- Node27 -->
<g id="Node000027" class="node">
<title>Node27</title>
<g id="a_Node000027"><a xlink:href="classStorageAccess.html#a9ed911b22e44d50d69f2fc70b8b77031" target="_top" xlink:title=" ">
<polygon fill="white" stroke="#666666" points="1002.88,-136.5 860.88,-136.5 860.88,-103 1002.88,-103 1002.88,-136.5"/>
<text text-anchor="start" x="868.88" y="-123" font-family="Helvetica,sans-Serif" font-size="10.00">StorageAccess::getSource</text>
<text text-anchor="middle" x="931.88" y="-110.25" font-family="Helvetica,sans-Serif" font-size="10.00">LocationsForFile</text>
</a>
</g>
</g>
<!-- Node26&#45;&gt;Node27 -->
<g id="edge37_Node000026_Node000027" class="edge">
<title>Node26&#45;&gt;Node27</title>
<g id="a_edge37_Node000026_Node000027"><a xlink:title=" ">
<path fill="none" stroke="#63b8ff" d="M802.35,-135.88C817.73,-133.95 833.89,-131.92 849.36,-129.98"/>
<polygon fill="#63b8ff" stroke="#63b8ff" points="849.5,-133.49 858.98,-128.77 848.62,-126.55 849.5,-133.49"/>
</a>
</g>
</g>
<!-- Node28 -->
<g id="Node000028" class="node">
<title>Node28</title>
<g id="a_Node000028"><a xlink:href="classStorageAccess.html#a970d7d87a7ac6039cf9729d1d1a73f53" target="_top" xlink:title=" ">
<polygon fill="white" stroke="#666666" points="1002.88,-188.5 860.88,-188.5 860.88,-155 1002.88,-155 1002.88,-188.5"/>
<text text-anchor="start" x="868.88" y="-175" font-family="Helvetica,sans-Serif" font-size="10.00">StorageAccess::getSource</text>
<text text-anchor="middle" x="931.88" y="-162.25" font-family="Helvetica,sans-Serif" font-size="10.00">LocationsForLinesInFile</text>
</a>
</g>
</g>
<!-- Node26&#45;&gt;Node28 -->
<g id="edge38_Node000026_Node000028" class="edge">
<title>Node26&#45;&gt;Node28</title>
<g id="a_edge38_Node000026_Node000028"><a xlink:title=" ">
<path fill="none" stroke="#63b8ff" d="M802.35,-155.62C817.73,-157.55 833.89,-159.58 849.36,-161.52"/>
<polygon fill="#63b8ff" stroke="#63b8ff" points="848.62,-164.95 858.98,-162.73 849.5,-158.01 848.62,-164.95"/>
</a>
</g>
</g>
<!-- Node29&#45;&gt;Node3 -->
<g id="edge42_Node000029_Node000003" class="edge">
<title>Node29&#45;&gt;Node3</title>
<g id="a_edge42_Node000029_Node000003"><a xlink:title=" ">
<path fill="none" stroke="#63b8ff" d="M804.18,-33.95C808.01,-36.5 811.58,-39.42 814.75,-42.75 863.49,-93.99 827.16,-131.08 850.75,-197.75 869.86,-251.76 901.68,-311.35 918.91,-342"/>
<polygon fill="#63b8ff" stroke="#63b8ff" points="915.82,-343.64 923.8,-350.6 921.9,-340.18 915.82,-343.64"/>
</a>
</g>
</g>
<!-- Node30 -->
<g id="Node000030" class="node">
<title>Node30</title>
<g id="a_Node000030"><a xlink:href="classStorageAccess.html#a7851a57e5092a9b5bcda798152ee64fb" target="_top" xlink:title=" ">
<polygon fill="white" stroke="#666666" points="1006.62,-33.5 857.12,-33.5 857.12,0 1006.62,0 1006.62,-33.5"/>
<text text-anchor="start" x="865.12" y="-20" font-family="Helvetica,sans-Serif" font-size="10.00">StorageAccess::getFileInfos</text>
<text text-anchor="middle" x="931.88" y="-7.25" font-family="Helvetica,sans-Serif" font-size="10.00">ForFilePaths</text>
</a>
</g>
</g>
<!-- Node29&#45;&gt;Node30 -->
<g id="edge41_Node000029_Node000030" class="edge">
<title>Node29&#45;&gt;Node30</title>
<g id="a_edge41_Node000029_Node000030"><a xlink:title=" ">
<path fill="none" stroke="#63b8ff" d="M809.79,-16.75C821.58,-16.75 833.69,-16.75 845.47,-16.75"/>
<polygon fill="#63b8ff" stroke="#63b8ff" points="845.13,-20.25 855.13,-16.75 845.13,-13.25 845.13,-20.25"/>
</a>
</g>
</g>
</g>
</svg>
