<?xml version="1.0" encoding="UTF-8" standalone="no"?>
<!DOCTYPE svg PUBLIC "-//W3C//DTD SVG 1.1//EN"
 "http://www.w3.org/Graphics/SVG/1.1/DTD/svg11.dtd">
<!-- Generated by graphviz version 9.0.0 (0)
 -->
<!-- Title: QtGraphNode::moved Pages: 1 -->
<!--zoomable 991 -->

<svg id="main" version="1.1" xmlns="http://www.w3.org/2000/svg" xmlns:xlink="http://www.w3.org/1999/xlink" xml:space="preserve" onload="init(evt)">
<style type="text/css"><![CDATA[
.node, .edge {opacity: 0.7;}
.node.selected, .edge.selected {opacity: 1;}
.edge:hover path { stroke: red; }
.edge:hover polygon { stroke: red; fill: red; }
]]></style>

<defs>
  <circle id="rim" cx="0" cy="0" r="7"/>
  <circle id="rim2" cx="0" cy="0" r="3.5"/>
  <g id="zoomPlus">
    <use xlink:href="#rim" fill="#404040"><set attributeName="fill" to="#808080" begin="zoomplus.mouseover" end="zoomplus.mouseout"/></use>
    <path d="M-4,0h8M0,-4v8" fill="none" stroke="white" stroke-width="1.5" pointer-events="none"/>
  </g>
  <g id="zoomMin">
    <use xlink:href="#rim" fill="#404040"><set attributeName="fill" to="#808080" begin="zoomminus.mouseover" end="zoomminus.mouseout"/></use>
    <path d="M-4,0h8" fill="none" stroke="white" stroke-width="1.5" pointer-events="none"/>
  </g>
  <g id="arrowUp" transform="translate(30 24)">
    <use xlink:href="#rim"/>
    <path pointer-events="none" fill="none" stroke="white" stroke-width="1.5" d="M0,-3.0v7 M-2.5,-0.5L0,-3.0L2.5,-0.5"/>
  </g>
  <g id="arrowRight" transform="rotate(90) translate(36 -43)">
    <use xlink:href="#rim"/>
    <path pointer-events="none" fill="none" stroke="white" stroke-width="1.5" d="M0,-3.0v7 M-2.5,-0.5L0,-3.0L2.5,-0.5"/>
  </g>
  <g id="arrowDown" transform="rotate(180) translate(-30 -48)">
    <use xlink:href="#rim"/>
    <path pointer-events="none" fill="none" stroke="white" stroke-width="1.5" d="M0,-3.0v7 M-2.5,-0.5L0,-3.0L2.5,-0.5"/>
  </g>
  <g id="arrowLeft" transform="rotate(270) translate(-36 17)">
    <use xlink:href="#rim"/>
    <path pointer-events="none" fill="none" stroke="white" stroke-width="1.5" d="M0,-3.0v7 M-2.5,-0.5L0,-3.0L2.5,-0.5"/>
  </g>
  <g id="resetDef">
    <use xlink:href="#rim2" fill="#404040"><set attributeName="fill" to="#808080" begin="reset.mouseover" end="reset.mouseout"/></use>
  </g>
</defs>
<script type="application/ecmascript">
var viewWidth = 1344;
var viewHeight = 991;
var sectionId = 'dynsection-50';
</script>
<script type="application/ecmascript" xlink:href="svg.min.js"/>
<svg id="graph" class="graph">
<g id="viewport">
<title>QtGraphNode::moved</title>
<!-- Node1 -->
<g id="Node000001" class="node">
<title>Node1</title>
<g id="a_Node000001"><a xlink:title=" ">
<polygon fill="#999999" stroke="#666666" points="121.75,-848.75 0,-848.75 0,-828 121.75,-828 121.75,-848.75"/>
<text text-anchor="middle" x="60.88" y="-835.25" font-family="Helvetica,sans-Serif" font-size="10.00">QtGraphNode::moved</text>
</a>
</g>
</g>
<!-- Node2 -->
<g id="Node000002" class="node">
<title>Node2</title>
<g id="a_Node000002"><a xlink:href="classGraphViewStyle.html#add16af79faec6ab318d11bedb393fcbf" target="_top" xlink:title=" ">
<polygon fill="white" stroke="#666666" points="326.75,-982.75 157.75,-982.75 157.75,-962 326.75,-962 326.75,-982.75"/>
<text text-anchor="middle" x="242.25" y="-969.25" font-family="Helvetica,sans-Serif" font-size="10.00">GraphViewStyle::alignOnRaster</text>
</a>
</g>
</g>
<!-- Node1&#45;&gt;Node2 -->
<g id="edge1_Node000001_Node000002" class="edge">
<title>Node1&#45;&gt;Node2</title>
<g id="a_edge1_Node000001_Node000002"><a xlink:title=" ">
<path fill="none" stroke="#63b8ff" d="M67.7,-849.13C80.66,-871.99 114.19,-925.47 157.75,-952.38 160.54,-954.1 163.48,-955.68 166.5,-957.12"/>
<polygon fill="#63b8ff" stroke="#63b8ff" points="165.1,-960.33 175.68,-960.93 167.79,-953.86 165.1,-960.33"/>
</a>
</g>
</g>
<!-- Node3 -->
<g id="Node000003" class="node">
<title>Node3</title>
<g id="a_Node000003"><a xlink:href="classMessage.html#a4556438d5bb073d6f19ea777fe3faf10" target="_top" xlink:title=" ">
<polygon fill="white" stroke="#666666" points="295.62,-943.75 188.88,-943.75 188.88,-923 295.62,-923 295.62,-943.75"/>
<text text-anchor="middle" x="242.25" y="-930.25" font-family="Helvetica,sans-Serif" font-size="10.00">Message::dispatch</text>
</a>
</g>
</g>
<!-- Node1&#45;&gt;Node3 -->
<g id="edge2_Node000001_Node000003" class="edge">
<title>Node1&#45;&gt;Node3</title>
<g id="a_edge2_Node000001_Node000003"><a xlink:title=" ">
<path fill="none" stroke="#63b8ff" d="M73.37,-849.07C90.5,-864.47 124.32,-892.87 157.75,-909.38 165.27,-913.09 173.47,-916.32 181.69,-919.11"/>
<polygon fill="#63b8ff" stroke="#63b8ff" points="180.43,-922.38 191.02,-922.06 182.54,-915.71 180.43,-922.38"/>
</a>
</g>
</g>
<!-- Node6 -->
<g id="Node000006" class="node">
<title>Node6</title>
<g id="a_Node000006"><a xlink:href="classQtGraphNode.html#a7062333378814d720310aa702200c420" target="_top" xlink:title=" ">
<polygon fill="white" stroke="#666666" points="1130.25,-829.75 987.5,-829.75 987.5,-809 1130.25,-809 1130.25,-829.75"/>
<text text-anchor="middle" x="1058.88" y="-816.25" font-family="Helvetica,sans-Serif" font-size="10.00">QtGraphNode::getPosition</text>
</a>
</g>
</g>
<!-- Node1&#45;&gt;Node6 -->
<g id="edge5_Node000001_Node000006" class="edge">
<title>Node1&#45;&gt;Node6</title>
<g id="a_edge5_Node000001_Node000006"><a xlink:title=" ">
<path fill="none" stroke="#63b8ff" d="M122.09,-843.24C197.02,-848.87 328.93,-857.38 442.12,-857.38 442.12,-857.38 442.12,-857.38 646.5,-857.38 761.07,-857.38 892.83,-842.58 975.72,-831.45"/>
<polygon fill="#63b8ff" stroke="#63b8ff" points="976.14,-834.93 985.58,-830.11 975.2,-827.99 976.14,-834.93"/>
</a>
</g>
</g>
<!-- Node7 -->
<g id="Node000007" class="node">
<title>Node7</title>
<g id="a_Node000007"><a xlink:href="classQtGraphNode.html#a2d3bd80632525a68bb9ed9c816767d0a" target="_top" xlink:title=" ">
<polygon fill="white" stroke="#666666" points="312.5,-790.75 172,-790.75 172,-770 312.5,-770 312.5,-790.75"/>
<text text-anchor="middle" x="242.25" y="-777.25" font-family="Helvetica,sans-Serif" font-size="10.00">QtGraphNode::getTokenId</text>
</a>
</g>
</g>
<!-- Node1&#45;&gt;Node7 -->
<g id="edge6_Node000001_Node000007" class="edge">
<title>Node1&#45;&gt;Node7</title>
<g id="a_edge6_Node000001_Node000007"><a xlink:title=" ">
<path fill="none" stroke="#63b8ff" d="M86.36,-827.55C105.53,-819.35 133,-808.2 157.75,-800.38 164.91,-798.11 172.49,-795.96 180.04,-793.97"/>
<polygon fill="#63b8ff" stroke="#63b8ff" points="180.74,-797.41 189.57,-791.55 179.02,-790.62 180.74,-797.41"/>
</a>
</g>
</g>
<!-- Node8 -->
<g id="Node000008" class="node">
<title>Node8</title>
<g id="a_Node000008"><a xlink:href="classQtGraphNode.html#a94383b3d4f6d1fbb247208dc9ddaae29" target="_top" xlink:title=" ">
<polygon fill="white" stroke="#666666" points="320,-751.75 164.5,-751.75 164.5,-731 320,-731 320,-751.75"/>
<text text-anchor="middle" x="242.25" y="-738.25" font-family="Helvetica,sans-Serif" font-size="10.00">QtGraphNode::isBundleNode</text>
</a>
</g>
</g>
<!-- Node1&#45;&gt;Node8 -->
<g id="edge7_Node000001_Node000008" class="edge">
<title>Node1&#45;&gt;Node8</title>
<g id="a_edge7_Node000001_Node000008"><a xlink:title=" ">
<path fill="none" stroke="#63b8ff" d="M71.99,-827.63C88.38,-810.88 122.48,-778.67 157.75,-761.38 161.97,-759.31 166.41,-757.45 170.96,-755.77"/>
<polygon fill="#63b8ff" stroke="#63b8ff" points="171.89,-759.15 180.28,-752.67 169.68,-752.51 171.89,-759.15"/>
</a>
</g>
</g>
<!-- Node9 -->
<g id="Node000009" class="node">
<title>Node9</title>
<g id="a_Node000009"><a xlink:href="classQtGraphNode.html#aedee20d1765b8b71485183ec80811484" target="_top" xlink:title=" ">
<polygon fill="white" stroke="#666666" points="314.75,-712.75 169.75,-712.75 169.75,-692 314.75,-692 314.75,-712.75"/>
<text text-anchor="middle" x="242.25" y="-699.25" font-family="Helvetica,sans-Serif" font-size="10.00">QtGraphNode::isDataNode</text>
</a>
</g>
</g>
<!-- Node1&#45;&gt;Node9 -->
<g id="edge8_Node000001_Node000009" class="edge">
<title>Node1&#45;&gt;Node9</title>
<g id="a_edge8_Node000001_Node000009"><a xlink:title=" ">
<path fill="none" stroke="#63b8ff" d="M67.46,-827.78C80.17,-804.72 113.63,-749.89 157.75,-722.38 160.54,-720.64 163.46,-719.05 166.48,-717.6"/>
<polygon fill="#63b8ff" stroke="#63b8ff" points="167.77,-720.86 175.65,-713.77 165.07,-714.4 167.77,-720.86"/>
</a>
</g>
</g>
<!-- Node10 -->
<g id="Node000010" class="node">
<title>Node10</title>
<g id="a_Node000010"><a xlink:href="classQtGraphNode.html#a9bbea603843a4bd7827c64d1da41817a" target="_top" xlink:title=" ">
<polygon fill="white" stroke="#666666" points="1332.25,-594.75 1181.25,-594.75 1181.25,-574 1332.25,-574 1332.25,-594.75"/>
<text text-anchor="middle" x="1256.75" y="-581.25" font-family="Helvetica,sans-Serif" font-size="10.00">QtGraphNode::isGroupNode</text>
</a>
</g>
</g>
<!-- Node1&#45;&gt;Node10 -->
<g id="edge9_Node000001_Node000010" class="edge">
<title>Node1&#45;&gt;Node10</title>
<g id="a_edge9_Node000001_Node000010"><a xlink:title=" ">
<path fill="none" stroke="#63b8ff" d="M96.63,-849.21C114.7,-854.48 137.24,-860.5 157.75,-864.38 282.68,-887.97 314.99,-895.38 442.12,-895.38 442.12,-895.38 442.12,-895.38 854.88,-895.38 984.76,-895.38 1039.87,-919.26 1141.5,-838.38 1217.37,-777.99 1244.48,-656.34 1252.67,-606.47"/>
<polygon fill="#63b8ff" stroke="#63b8ff" points="1256.12,-607.07 1254.17,-596.66 1249.2,-606.02 1256.12,-607.07"/>
</a>
</g>
</g>
<!-- Node11 -->
<g id="Node000011" class="node">
<title>Node11</title>
<g id="a_Node000011"><a xlink:href="classQtGraphNode.html#ab338c9bff514ee4280727bf3800ddac8" target="_top" xlink:title=" ">
<polygon fill="white" stroke="#666666" points="313.25,-829.75 171.25,-829.75 171.25,-809 313.25,-809 313.25,-829.75"/>
<text text-anchor="middle" x="242.25" y="-816.25" font-family="Helvetica,sans-Serif" font-size="10.00">QtGraphNode::setPosition</text>
</a>
</g>
</g>
<!-- Node1&#45;&gt;Node11 -->
<g id="edge10_Node000001_Node000011" class="edge">
<title>Node1&#45;&gt;Node11</title>
<g id="a_edge10_Node000001_Node000011"><a xlink:title=" ">
<path fill="none" stroke="#63b8ff" d="M122.1,-832C134.23,-830.71 147.16,-829.34 159.86,-828"/>
<polygon fill="#63b8ff" stroke="#63b8ff" points="159.86,-831.52 169.44,-826.98 159.13,-824.55 159.86,-831.52"/>
</a>
</g>
</g>
<!-- Node4 -->
<g id="Node000004" class="node">
<title>Node4</title>
<g id="a_Node000004"><a xlink:href="classMessageQueue.html#a085ebbc4ba9c58eeeaad64e77efc8e07" target="_top" xlink:title=" ">
<polygon fill="white" stroke="#666666" points="520.12,-943.75 366.12,-943.75 366.12,-923 520.12,-923 520.12,-943.75"/>
<text text-anchor="middle" x="443.12" y="-930.25" font-family="Helvetica,sans-Serif" font-size="10.00">MessageQueue::getInstance</text>
</a>
</g>
</g>
<!-- Node3&#45;&gt;Node4 -->
<g id="edge3_Node000003_Node000004" class="edge">
<title>Node3&#45;&gt;Node4</title>
<g id="a_edge3_Node000003_Node000004"><a xlink:title=" ">
<path fill="none" stroke="#63b8ff" d="M296.02,-933.38C314,-933.38 334.61,-933.38 354.56,-933.38"/>
<polygon fill="#63b8ff" stroke="#63b8ff" points="354.38,-936.88 364.38,-933.38 354.38,-929.88 354.38,-936.88"/>
</a>
</g>
</g>
<!-- Node5 -->
<g id="Node000005" class="node">
<title>Node5</title>
<g id="a_Node000005"><a xlink:href="classMessageQueue.html#a006069f4b83d2372c989c52784fac5de" target="_top" xlink:title=" ">
<polygon fill="white" stroke="#666666" points="731.5,-943.75 559.5,-943.75 559.5,-923 731.5,-923 731.5,-943.75"/>
<text text-anchor="middle" x="645.5" y="-930.25" font-family="Helvetica,sans-Serif" font-size="10.00">MessageQueue::MessageQueue</text>
</a>
</g>
</g>
<!-- Node4&#45;&gt;Node5 -->
<g id="edge4_Node000004_Node000005" class="edge">
<title>Node4&#45;&gt;Node5</title>
<g id="a_edge4_Node000004_Node000005"><a xlink:title=" ">
<path fill="none" stroke="#63b8ff" d="M520.45,-933.38C529.31,-933.38 538.44,-933.38 547.54,-933.38"/>
<polygon fill="#63b8ff" stroke="#63b8ff" points="547.5,-936.88 557.5,-933.38 547.5,-929.88 547.5,-936.88"/>
</a>
</g>
</g>
<!-- Node11&#45;&gt;Node6 -->
<g id="edge11_Node000011_Node000006" class="edge">
<title>Node11&#45;&gt;Node6</title>
<g id="a_edge11_Node000011_Node000006"><a xlink:title=" ">
<path fill="none" stroke="#63b8ff" d="M313.41,-819.38C463.6,-819.38 815.57,-819.38 975.81,-819.38"/>
<polygon fill="#63b8ff" stroke="#63b8ff" points="975.5,-822.88 985.5,-819.38 975.5,-815.88 975.5,-822.88"/>
</a>
</g>
</g>
<!-- Node12 -->
<g id="Node000012" class="node">
<title>Node12</title>
<g id="a_Node000012"><a xlink:href="classQtGraphNode.html#a5d32f85ff785f68a203d3c8991386d1c" target="_top" xlink:title=" ">
<polygon fill="white" stroke="#666666" points="516,-639.12 370.25,-639.12 370.25,-605.62 516,-605.62 516,-639.12"/>
<text text-anchor="start" x="378.25" y="-625.62" font-family="Helvetica,sans-Serif" font-size="10.00">QtGraphNode::notifyEdges</text>
<text text-anchor="middle" x="443.12" y="-612.88" font-family="Helvetica,sans-Serif" font-size="10.00">AfterMove</text>
</a>
</g>
</g>
<!-- Node11&#45;&gt;Node12 -->
<g id="edge12_Node000011_Node000012" class="edge">
<title>Node11&#45;&gt;Node12</title>
<g id="a_edge12_Node000011_Node000012"><a xlink:title=" ">
<path fill="none" stroke="#63b8ff" d="M309.59,-808.55C315.68,-806.09 321.51,-803.07 326.75,-799.38 354.79,-779.6 403.46,-694.21 427.64,-649.66"/>
<polygon fill="#63b8ff" stroke="#63b8ff" points="430.71,-651.33 432.37,-640.86 424.55,-648.01 430.71,-651.33"/>
</a>
</g>
</g>
<!-- Node41 -->
<g id="Node000041" class="node">
<title>Node41</title>
<g id="a_Node000041"><a xlink:href="classQtGraphNode.html#a163a643e2b22b8b9a0b5199a4da288f1" target="_top" xlink:title=" ">
<polygon fill="white" stroke="#666666" points="523.5,-791.75 362.75,-791.75 362.75,-771 523.5,-771 523.5,-791.75"/>
<text text-anchor="middle" x="443.12" y="-778.25" font-family="Helvetica,sans-Serif" font-size="10.00">QtGraphNode::setColumnSize</text>
</a>
</g>
</g>
<!-- Node11&#45;&gt;Node41 -->
<g id="edge49_Node000011_Node000041" class="edge">
<title>Node11&#45;&gt;Node41</title>
<g id="a_edge49_Node000011_Node000041"><a xlink:title=" ">
<path fill="none" stroke="#63b8ff" d="M299.97,-808.54C323.07,-804.12 349.95,-798.99 374.09,-794.37"/>
<polygon fill="#63b8ff" stroke="#63b8ff" points="374.67,-797.83 383.84,-792.51 373.36,-790.95 374.67,-797.83"/>
</a>
</g>
</g>
<!-- Node13 -->
<g id="Node000013" class="node">
<title>Node13</title>
<g id="a_Node000013"><a xlink:href="classQtGraphEdge.html#afc6c2be21429928177cc455e4176456f" target="_top" xlink:title=" ">
<polygon fill="white" stroke="#666666" points="711.62,-612.75 579.38,-612.75 579.38,-592 711.62,-592 711.62,-612.75"/>
<text text-anchor="middle" x="645.5" y="-599.25" font-family="Helvetica,sans-Serif" font-size="10.00">QtGraphEdge::clearPath</text>
</a>
</g>
</g>
<!-- Node12&#45;&gt;Node13 -->
<g id="edge13_Node000012_Node000013" class="edge">
<title>Node12&#45;&gt;Node13</title>
<g id="a_edge13_Node000012_Node000013"><a xlink:title=" ">
<path fill="none" stroke="#63b8ff" d="M516.46,-615.15C533.04,-613.5 550.72,-611.74 567.49,-610.06"/>
<polygon fill="#63b8ff" stroke="#63b8ff" points="567.82,-613.55 577.42,-609.07 567.12,-606.58 567.82,-613.55"/>
</a>
</g>
</g>
<!-- Node14 -->
<g id="Node000014" class="node">
<title>Node14</title>
<g id="a_Node000014"><a xlink:href="classQtGraphNode.html#a0aad72991e96f4cd90a4b76ed529219a" target="_top" xlink:title=" ">
<polygon fill="white" stroke="#666666" points="719.88,-651.75 571.12,-651.75 571.12,-631 719.88,-631 719.88,-651.75"/>
<text text-anchor="middle" x="645.5" y="-638.25" font-family="Helvetica,sans-Serif" font-size="10.00">QtGraphNode::forEachEdge</text>
</a>
</g>
</g>
<!-- Node12&#45;&gt;Node14 -->
<g id="edge14_Node000012_Node000014" class="edge">
<title>Node12&#45;&gt;Node14</title>
<g id="a_edge14_Node000012_Node000014"><a xlink:title=" ">
<path fill="none" stroke="#63b8ff" d="M516.46,-629.23C530.44,-630.56 545.2,-631.96 559.54,-633.32"/>
<polygon fill="#63b8ff" stroke="#63b8ff" points="559.13,-636.8 569.41,-634.25 559.79,-629.83 559.13,-636.8"/>
</a>
</g>
</g>
<!-- Node15 -->
<g id="Node000015" class="node">
<title>Node15</title>
<g id="a_Node000015"><a xlink:href="classQtGraphEdge.html#ac2530e71e523f1a4df007fdd1ea95a5d" target="_top" xlink:title=" ">
<polygon fill="white" stroke="#666666" points="715.75,-458.75 575.25,-458.75 575.25,-438 715.75,-438 715.75,-458.75"/>
<text text-anchor="middle" x="645.5" y="-445.25" font-family="Helvetica,sans-Serif" font-size="10.00">QtGraphEdge::updateLine</text>
</a>
</g>
</g>
<!-- Node12&#45;&gt;Node15 -->
<g id="edge15_Node000012_Node000015" class="edge">
<title>Node12&#45;&gt;Node15</title>
<g id="a_edge15_Node000012_Node000015"><a xlink:title=" ">
<path fill="none" stroke="#63b8ff" d="M463.7,-605.37C501.63,-572.44 584.79,-500.22 623.68,-466.45"/>
<polygon fill="#63b8ff" stroke="#63b8ff" points="625.74,-469.3 630.99,-460.1 621.15,-464.02 625.74,-469.3"/>
</a>
</g>
</g>
<!-- Node15&#45;&gt;Node10 -->
<g id="edge42_Node000015_Node000010" class="edge">
<title>Node15&#45;&gt;Node10</title>
<g id="a_edge42_Node000015_Node000010"><a xlink:title=" ">
<path fill="none" stroke="#63b8ff" d="M655.12,-437.77C673.23,-416.43 717.71,-368.87 767.5,-351.38 839.94,-325.92 865.4,-334.28 940.25,-351.38 1037.05,-373.49 1063.1,-387.45 1141.5,-448.38 1185.09,-482.25 1223.58,-535.25 1242.79,-564.07"/>
<polygon fill="#63b8ff" stroke="#63b8ff" points="1239.74,-565.79 1248.14,-572.24 1245.6,-561.96 1239.74,-565.79"/>
</a>
</g>
</g>
<!-- Node16 -->
<g id="Node000016" class="node">
<title>Node16</title>
<g id="a_Node000016"><a xlink:href="classQtGraphNode.html#a2561beb7d9d674c0603d45820b61815a" target="_top" xlink:title=" ">
<polygon fill="white" stroke="#666666" points="939.5,-662.75 768.25,-662.75 768.25,-642 939.5,-642 939.5,-662.75"/>
<text text-anchor="middle" x="853.88" y="-649.25" font-family="Helvetica,sans-Serif" font-size="10.00">QtGraphNode::getBoundingRect</text>
</a>
</g>
</g>
<!-- Node15&#45;&gt;Node16 -->
<g id="edge16_Node000015_Node000016" class="edge">
<title>Node15&#45;&gt;Node16</title>
<g id="a_edge16_Node000015_Node000016"><a xlink:title=" ">
<path fill="none" stroke="#63b8ff" d="M653.14,-459C677.2,-497.45 758.9,-627.42 767.5,-633.38 769.28,-634.61 771.13,-635.76 773.02,-636.84"/>
<polygon fill="#63b8ff" stroke="#63b8ff" points="771.02,-639.76 781.55,-640.99 774.09,-633.46 771.02,-639.76"/>
</a>
</g>
</g>
<!-- Node18 -->
<g id="Node000018" class="node">
<title>Node18</title>
<g id="a_Node000018"><a xlink:href="classQtGraphNode.html#a6bc48d89d42c8437ae7997a87ffeff31" target="_top" xlink:title=" ">
<polygon fill="white" stroke="#666666" points="934.62,-534.75 773.12,-534.75 773.12,-514 934.62,-514 934.62,-534.75"/>
<text text-anchor="middle" x="853.88" y="-521.25" font-family="Helvetica,sans-Serif" font-size="10.00">QtGraphNode::getColumnSize</text>
</a>
</g>
</g>
<!-- Node15&#45;&gt;Node18 -->
<g id="edge19_Node000015_Node000018" class="edge">
<title>Node15&#45;&gt;Node18</title>
<g id="a_edge19_Node000015_Node000018"><a xlink:title=" ">
<path fill="none" stroke="#63b8ff" d="M668.89,-459.06C692.92,-470.26 732.36,-487.95 767.5,-500.38 777.63,-503.96 788.57,-507.37 799.14,-510.44"/>
<polygon fill="#63b8ff" stroke="#63b8ff" points="797.94,-513.73 808.51,-513.09 799.85,-507 797.94,-513.73"/>
</a>
</g>
</g>
<!-- Node19 -->
<g id="Node000019" class="node">
<title>Node19</title>
<g id="a_Node000019"><a xlink:href="classToken.html#ad53aa6ea860f60ad982f8cd9a7215591" target="_top" xlink:title=" ">
<polygon fill="white" stroke="#666666" points="1119.75,-477.75 998,-477.75 998,-457 1119.75,-457 1119.75,-477.75"/>
<text text-anchor="middle" x="1058.88" y="-464.25" font-family="Helvetica,sans-Serif" font-size="10.00">Token::getComponent</text>
</a>
</g>
</g>
<!-- Node15&#45;&gt;Node19 -->
<g id="edge20_Node000015_Node000019" class="edge">
<title>Node15&#45;&gt;Node19</title>
<g id="a_edge20_Node000015_Node000019"><a xlink:title=" ">
<path fill="none" stroke="#63b8ff" d="M703.53,-459.2C723.66,-462.52 746.51,-465.74 767.5,-467.38 841.95,-473.18 927.46,-472.27 986.3,-470.47"/>
<polygon fill="#63b8ff" stroke="#63b8ff" points="986.31,-473.97 996.19,-470.15 986.09,-466.98 986.31,-473.97"/>
</a>
</g>
</g>
<!-- Node20 -->
<g id="Node000020" class="node">
<title>Node20</title>
<g id="a_Node000020"><a xlink:href="classQtGraphEdge.html#a0f6d3385440bbb07fcc495e071e8ab2f" target="_top" xlink:title=" ">
<polygon fill="white" stroke="#666666" points="916.62,-419.75 791.12,-419.75 791.12,-399 916.62,-399 916.62,-419.75"/>
<text text-anchor="middle" x="853.88" y="-406.25" font-family="Helvetica,sans-Serif" font-size="10.00">QtGraphEdge::getData</text>
</a>
</g>
</g>
<!-- Node15&#45;&gt;Node20 -->
<g id="edge21_Node000015_Node000020" class="edge">
<title>Node15&#45;&gt;Node20</title>
<g id="a_edge21_Node000015_Node000020"><a xlink:title=" ">
<path fill="none" stroke="#63b8ff" d="M703.99,-437.51C728.82,-432.82 758.07,-427.29 784.05,-422.38"/>
<polygon fill="#63b8ff" stroke="#63b8ff" points="784.68,-425.83 793.85,-420.53 783.38,-418.95 784.68,-425.83"/>
</a>
</g>
</g>
<!-- Node21 -->
<g id="Node000021" class="node">
<title>Node21</title>
<g id="a_Node000021"><a xlink:href="classQtGraphNode.html#a9f7901d87045b87e40c3b0f282997867" target="_top" xlink:title=" ">
<polygon fill="white" stroke="#666666" points="925.25,-380.75 782.5,-380.75 782.5,-360 925.25,-360 925.25,-380.75"/>
<text text-anchor="middle" x="853.88" y="-367.25" font-family="Helvetica,sans-Serif" font-size="10.00">QtGraphNode::getIsActive</text>
</a>
</g>
</g>
<!-- Node15&#45;&gt;Node21 -->
<g id="edge22_Node000015_Node000021" class="edge">
<title>Node15&#45;&gt;Node21</title>
<g id="a_edge22_Node000015_Node000021"><a xlink:title=" ">
<path fill="none" stroke="#63b8ff" d="M665.64,-437.59C689.04,-424.79 730.15,-403.53 767.5,-390.38 774,-388.09 780.87,-385.98 787.78,-384.07"/>
<polygon fill="#63b8ff" stroke="#63b8ff" points="788.38,-387.53 797.16,-381.6 786.6,-380.76 788.38,-387.53"/>
</a>
</g>
</g>
<!-- Node22 -->
<g id="Node000022" class="node">
<title>Node22</title>
<g id="a_Node000022"><a xlink:href="classQtGraphNode.html#ae7188812026e1fd6e4e67276927d2b9b" target="_top" xlink:title=" ">
<polygon fill="white" stroke="#666666" points="940.25,-624.12 767.5,-624.12 767.5,-590.62 940.25,-590.62 940.25,-624.12"/>
<text text-anchor="start" x="775.5" y="-610.62" font-family="Helvetica,sans-Serif" font-size="10.00">QtGraphNode::getLastNonGroup</text>
<text text-anchor="middle" x="853.88" y="-597.88" font-family="Helvetica,sans-Serif" font-size="10.00">Parent</text>
</a>
</g>
</g>
<!-- Node15&#45;&gt;Node22 -->
<g id="edge23_Node000015_Node000022" class="edge">
<title>Node15&#45;&gt;Node22</title>
<g id="a_edge23_Node000015_Node000022"><a xlink:title=" ">
<path fill="none" stroke="#63b8ff" d="M653.74,-458.89C670.83,-482.97 716.12,-542.64 767.5,-576.38 772.61,-579.73 778.13,-582.78 783.81,-585.54"/>
<polygon fill="#63b8ff" stroke="#63b8ff" points="782.24,-588.67 792.8,-589.57 785.11,-582.28 782.24,-588.67"/>
</a>
</g>
</g>
<!-- Node23 -->
<g id="Node000023" class="node">
<title>Node23</title>
<g id="a_Node000023"><a xlink:href="classQtGraphNode.html#a6d5e8a87cf5537fbe492bc93e0bda49f" target="_top" xlink:title=" ">
<polygon fill="white" stroke="#666666" points="1136.62,-594.75 981.12,-594.75 981.12,-574 1136.62,-574 1136.62,-594.75"/>
<text text-anchor="middle" x="1058.88" y="-581.25" font-family="Helvetica,sans-Serif" font-size="10.00">QtGraphNode::getLastParent</text>
</a>
</g>
</g>
<!-- Node15&#45;&gt;Node23 -->
<g id="edge26_Node000015_Node000023" class="edge">
<title>Node15&#45;&gt;Node23</title>
<g id="a_edge26_Node000015_Node000023"><a xlink:title=" ">
<path fill="none" stroke="#63b8ff" d="M656.26,-459.13C675.39,-479.43 720.08,-523.16 767.5,-543.38 802.9,-558.46 897.74,-570.03 969.48,-576.97"/>
<polygon fill="#63b8ff" stroke="#63b8ff" points="968.99,-580.44 979.27,-577.9 969.65,-573.47 968.99,-580.44"/>
</a>
</g>
</g>
<!-- Node24 -->
<g id="Node000024" class="node">
<title>Node24</title>
<g id="a_Node000024"><a xlink:href="classGraphViewStyle.html#a6b74a5696869c3e926d480a7286d34b5" target="_top" xlink:title=" ">
<polygon fill="white" stroke="#666666" points="924.12,-110.12 783.62,-110.12 783.62,-76.62 924.12,-76.62 924.12,-110.12"/>
<text text-anchor="start" x="791.62" y="-96.62" font-family="Helvetica,sans-Serif" font-size="10.00">GraphViewStyle::getStyle</text>
<text text-anchor="middle" x="853.88" y="-83.88" font-family="Helvetica,sans-Serif" font-size="10.00">ForEdgeType</text>
</a>
</g>
</g>
<!-- Node15&#45;&gt;Node24 -->
<g id="edge27_Node000015_Node000024" class="edge">
<title>Node15&#45;&gt;Node24</title>
<g id="a_edge27_Node000015_Node000024"><a xlink:title=" ">
<path fill="none" stroke="#63b8ff" d="M647.12,-437.73C650.33,-392.24 669.07,-212.37 767.5,-119.38 769.38,-117.6 771.37,-115.95 773.46,-114.41"/>
<polygon fill="#63b8ff" stroke="#63b8ff" points="775.23,-117.43 781.86,-109.16 771.52,-111.49 775.23,-117.43"/>
</a>
</g>
</g>
<!-- Node32 -->
<g id="Node000032" class="node">
<title>Node32</title>
<g id="a_Node000032"><a xlink:href="classEdge.html#a418b71a5deda9c6ab6a69414af03bc25" target="_top" xlink:title=" ">
<polygon fill="white" stroke="#666666" points="896,-304.75 811.75,-304.75 811.75,-284 896,-284 896,-304.75"/>
<text text-anchor="middle" x="853.88" y="-291.25" font-family="Helvetica,sans-Serif" font-size="10.00">Edge::getType</text>
</a>
</g>
</g>
<!-- Node15&#45;&gt;Node32 -->
<g id="edge38_Node000015_Node000032" class="edge">
<title>Node15&#45;&gt;Node32</title>
<g id="a_edge38_Node000015_Node000032"><a xlink:title=" ">
<path fill="none" stroke="#63b8ff" d="M653.28,-437.79C669.73,-413 714.33,-350.8 767.5,-318.38 777.56,-312.24 789.24,-307.63 800.66,-304.18"/>
<polygon fill="#63b8ff" stroke="#63b8ff" points="801.3,-307.63 810.02,-301.61 799.45,-300.88 801.3,-307.63"/>
</a>
</g>
</g>
<!-- Node33 -->
<g id="Node000033" class="node">
<title>Node33</title>
<g id="a_Node000033"><a xlink:href="classQtGraphNode.html#ad6f5220428940bb17cda708a1a999a38" target="_top" xlink:title=" ">
<polygon fill="white" stroke="#666666" points="934.25,-265.75 773.5,-265.75 773.5,-245 934.25,-245 934.25,-265.75"/>
<text text-anchor="middle" x="853.88" y="-252.25" font-family="Helvetica,sans-Serif" font-size="10.00">QtGraphNode::hasActiveChild</text>
</a>
</g>
</g>
<!-- Node15&#45;&gt;Node33 -->
<g id="edge39_Node000015_Node000033" class="edge">
<title>Node15&#45;&gt;Node33</title>
<g id="a_edge39_Node000015_Node000033"><a xlink:title=" ">
<path fill="none" stroke="#63b8ff" d="M650.64,-437.81C663.17,-407.3 703.77,-318.54 767.5,-275.38 769.87,-273.77 772.36,-272.29 774.92,-270.93"/>
<polygon fill="#63b8ff" stroke="#63b8ff" points="776.16,-274.22 783.8,-266.88 773.25,-267.85 776.16,-274.22"/>
</a>
</g>
</g>
<!-- Node34 -->
<g id="Node000034" class="node">
<title>Node34</title>
<g id="a_Node000034"><a xlink:href="classQtGraphEdge.html#a125ea4296a8f2dc3908607560b03e315" target="_top" xlink:title=" ">
<polygon fill="white" stroke="#666666" points="928.62,-458.75 779.12,-458.75 779.12,-438 928.62,-438 928.62,-458.75"/>
<text text-anchor="middle" x="853.88" y="-445.25" font-family="Helvetica,sans-Serif" font-size="10.00">QtGraphEdge::isAmbiguous</text>
</a>
</g>
</g>
<!-- Node15&#45;&gt;Node34 -->
<g id="edge40_Node000015_Node000034" class="edge">
<title>Node15&#45;&gt;Node34</title>
<g id="a_edge40_Node000015_Node000034"><a xlink:title=" ">
<path fill="none" stroke="#63b8ff" d="M716.08,-448.38C732.59,-448.38 750.39,-448.38 767.51,-448.38"/>
<polygon fill="#63b8ff" stroke="#63b8ff" points="767.14,-451.88 777.14,-448.38 767.14,-444.88 767.14,-451.88"/>
</a>
</g>
</g>
<!-- Node35 -->
<g id="Node000035" class="node">
<title>Node35</title>
<g id="a_Node000035"><a xlink:href="classQtLineItemBase.html#aa831656f7f86451d2041f3faaa054ca7" target="_top" xlink:title=" ">
<polygon fill="white" stroke="#666666" points="936.12,-226.75 771.62,-226.75 771.62,-206 936.12,-206 936.12,-226.75"/>
<text text-anchor="middle" x="853.88" y="-213.25" font-family="Helvetica,sans-Serif" font-size="10.00">QtLineItemBase::setEarlyBend</text>
</a>
</g>
</g>
<!-- Node15&#45;&gt;Node35 -->
<g id="edge43_Node000015_Node000035" class="edge">
<title>Node15&#45;&gt;Node35</title>
<g id="a_edge43_Node000015_Node000035"><a xlink:title=" ">
<path fill="none" stroke="#63b8ff" d="M649.33,-437.51C659.1,-402.32 694.82,-290.62 767.5,-236.38 769.53,-234.86 771.66,-233.45 773.87,-232.16"/>
<polygon fill="#63b8ff" stroke="#63b8ff" points="775.23,-235.39 782.6,-227.78 772.09,-229.13 775.23,-235.39"/>
</a>
</g>
</g>
<!-- Node36 -->
<g id="Node000036" class="node">
<title>Node36</title>
<g id="a_Node000036"><a xlink:href="classQtLineItemBase.html#a1cfd1eb28e29734d1d6771b3649d2bc1" target="_top" xlink:title=" ">
<polygon fill="white" stroke="#666666" points="930.12,-187.75 777.62,-187.75 777.62,-167 930.12,-167 930.12,-187.75"/>
<text text-anchor="middle" x="853.88" y="-174.25" font-family="Helvetica,sans-Serif" font-size="10.00">QtLineItemBase::setOnBack</text>
</a>
</g>
</g>
<!-- Node15&#45;&gt;Node36 -->
<g id="edge44_Node000015_Node000036" class="edge">
<title>Node15&#45;&gt;Node36</title>
<g id="a_edge44_Node000015_Node000036"><a xlink:title=" ">
<path fill="none" stroke="#63b8ff" d="M648.32,-437.52C655.47,-398.35 685.41,-263.19 767.5,-197.38 769.24,-195.98 771.05,-194.68 772.94,-193.47"/>
<polygon fill="#63b8ff" stroke="#63b8ff" points="774.37,-196.68 781.49,-188.84 771.03,-190.52 774.37,-196.68"/>
</a>
</g>
</g>
<!-- Node37 -->
<g id="Node000037" class="node">
<title>Node37</title>
<g id="a_Node000037"><a xlink:href="classQtLineItemBase.html#ae2d610f472d2ba94916a495e47775823" target="_top" xlink:title=" ">
<polygon fill="white" stroke="#666666" points="930.5,-148.75 777.25,-148.75 777.25,-128 930.5,-128 930.5,-148.75"/>
<text text-anchor="middle" x="853.88" y="-135.25" font-family="Helvetica,sans-Serif" font-size="10.00">QtLineItemBase::setOnFront</text>
</a>
</g>
</g>
<!-- Node15&#45;&gt;Node37 -->
<g id="edge45_Node000015_Node000037" class="edge">
<title>Node15&#45;&gt;Node37</title>
<g id="a_edge45_Node000015_Node000037"><a xlink:title=" ">
<path fill="none" stroke="#63b8ff" d="M647.54,-437.68C652.28,-395.09 675.71,-236.13 767.5,-158.38 768.98,-157.12 770.52,-155.95 772.11,-154.84"/>
<polygon fill="#63b8ff" stroke="#63b8ff" points="773.56,-158.05 780.46,-150.01 770.05,-151.99 773.56,-158.05"/>
</a>
</g>
</g>
<!-- Node38 -->
<g id="Node000038" class="node">
<title>Node38</title>
<g id="a_Node000038"><a xlink:href="classQtLineItemBase.html#a63e08f7aaa72cbb9c2c0bf64a1d0815e" target="_top" xlink:title=" ">
<polygon fill="white" stroke="#666666" points="925.62,-791.75 782.12,-791.75 782.12,-771 925.62,-771 925.62,-791.75"/>
<text text-anchor="middle" x="853.88" y="-778.25" font-family="Helvetica,sans-Serif" font-size="10.00">QtLineItemBase::setRoute</text>
</a>
</g>
</g>
<!-- Node15&#45;&gt;Node38 -->
<g id="edge46_Node000015_Node000038" class="edge">
<title>Node15&#45;&gt;Node38</title>
<g id="a_edge46_Node000015_Node000038"><a xlink:title=" ">
<path fill="none" stroke="#63b8ff" d="M655.26,-459.17C672.63,-481.15 711.46,-533.22 731.5,-583.38 761.61,-658.73 710.71,-704.41 767.5,-762.38 769.05,-763.96 770.71,-765.43 772.45,-766.78"/>
<polygon fill="#63b8ff" stroke="#63b8ff" points="770.17,-769.49 780.49,-771.87 773.91,-763.57 770.17,-769.49"/>
</a>
</g>
</g>
<!-- Node39 -->
<g id="Node000039" class="node">
<title>Node39</title>
<g id="a_Node000039"><a xlink:href="classQtLineItemStraight.html#af86971bea68b25711de0da166e6a8762" target="_top" xlink:title=" ">
<polygon fill="white" stroke="#666666" points="908,-753.12 799.75,-753.12 799.75,-719.62 908,-719.62 908,-753.12"/>
<text text-anchor="start" x="807.75" y="-739.62" font-family="Helvetica,sans-Serif" font-size="10.00">QtLineItemStraight</text>
<text text-anchor="middle" x="853.88" y="-726.88" font-family="Helvetica,sans-Serif" font-size="10.00">::updateLine</text>
</a>
</g>
</g>
<!-- Node15&#45;&gt;Node39 -->
<g id="edge47_Node000015_Node000039" class="edge">
<title>Node15&#45;&gt;Node39</title>
<g id="a_edge47_Node000015_Node000039"><a xlink:title=" ">
<path fill="none" stroke="#63b8ff" d="M654.68,-458.97C671.32,-481 709.41,-533.79 731.5,-583.38 755.37,-636.97 726.42,-668.49 767.5,-710.38 773.53,-716.53 780.98,-721.23 788.93,-724.83"/>
<polygon fill="#63b8ff" stroke="#63b8ff" points="787.61,-728.07 798.2,-728.41 790.13,-721.54 787.61,-728.07"/>
</a>
</g>
</g>
<!-- Node40 -->
<g id="Node000040" class="node">
<title>Node40</title>
<g id="a_Node000040"><a xlink:href="classQtLineItemBase.html#a97a2095ca5bd537345c09ff2b1296598" target="_top" xlink:title=" ">
<polygon fill="white" stroke="#666666" points="930.88,-701.75 776.88,-701.75 776.88,-681 930.88,-681 930.88,-701.75"/>
<text text-anchor="middle" x="853.88" y="-688.25" font-family="Helvetica,sans-Serif" font-size="10.00">QtLineItemBase::updateLine</text>
</a>
</g>
</g>
<!-- Node15&#45;&gt;Node40 -->
<g id="edge48_Node000015_Node000040" class="edge">
<title>Node15&#45;&gt;Node40</title>
<g id="a_edge48_Node000015_Node000040"><a xlink:title=" ">
<path fill="none" stroke="#63b8ff" d="M654.23,-459.19C670.03,-481.61 706.67,-535.1 731.5,-583.38 750.83,-620.95 735.35,-643.95 767.5,-671.38 768.97,-672.63 770.51,-673.81 772.1,-674.92"/>
<polygon fill="#63b8ff" stroke="#63b8ff" points="770.03,-677.77 780.43,-679.77 773.55,-671.72 770.03,-677.77"/>
</a>
</g>
</g>
<!-- Node16&#45;&gt;Node6 -->
<g id="edge17_Node000016_Node000006" class="edge">
<title>Node16&#45;&gt;Node6</title>
<g id="a_edge17_Node000016_Node000006"><a xlink:title=" ">
<path fill="none" stroke="#63b8ff" d="M921.02,-663.12C927.78,-665.6 934.33,-668.64 940.25,-672.38 991.18,-704.52 1029.74,-766.56 1047.34,-798.79"/>
<polygon fill="#63b8ff" stroke="#63b8ff" points="1044.19,-800.33 1051.97,-807.52 1050.38,-797.04 1044.19,-800.33"/>
</a>
</g>
</g>
<!-- Node17 -->
<g id="Node000017" class="node">
<title>Node17</title>
<g id="a_Node000017"><a xlink:href="classQtGraphNode.html#a3be8fc2cf178da6982c69a162c7a2a54" target="_top" xlink:title=" ">
<polygon fill="white" stroke="#666666" points="1120.88,-662.75 996.88,-662.75 996.88,-642 1120.88,-642 1120.88,-662.75"/>
<text text-anchor="middle" x="1058.88" y="-649.25" font-family="Helvetica,sans-Serif" font-size="10.00">QtGraphNode::getSize</text>
</a>
</g>
</g>
<!-- Node16&#45;&gt;Node17 -->
<g id="edge18_Node000016_Node000017" class="edge">
<title>Node16&#45;&gt;Node17</title>
<g id="a_edge18_Node000016_Node000017"><a xlink:title=" ">
<path fill="none" stroke="#63b8ff" d="M939.79,-652.38C954.94,-652.38 970.6,-652.38 985.36,-652.38"/>
<polygon fill="#63b8ff" stroke="#63b8ff" points="984.94,-655.88 994.94,-652.38 984.94,-648.88 984.94,-655.88"/>
</a>
</g>
</g>
<!-- Node22&#45;&gt;Node23 -->
<g id="edge24_Node000022_Node000023" class="edge">
<title>Node22&#45;&gt;Node23</title>
<g id="a_edge24_Node000022_Node000023"><a xlink:title=" ">
<path fill="none" stroke="#63b8ff" d="M940.67,-597.65C950.24,-596.57 959.99,-595.46 969.59,-594.38"/>
<polygon fill="#63b8ff" stroke="#63b8ff" points="969.72,-597.89 979.26,-593.28 968.93,-590.93 969.72,-597.89"/>
</a>
</g>
</g>
<!-- Node23&#45;&gt;Node10 -->
<g id="edge25_Node000023_Node000010" class="edge">
<title>Node23&#45;&gt;Node10</title>
<g id="a_edge25_Node000023_Node000010"><a xlink:title=" ">
<path fill="none" stroke="#63b8ff" d="M1137.01,-584.38C1147.74,-584.38 1158.81,-584.38 1169.69,-584.38"/>
<polygon fill="#63b8ff" stroke="#63b8ff" points="1169.42,-587.88 1179.42,-584.38 1169.42,-580.88 1169.42,-587.88"/>
</a>
</g>
</g>
<!-- Node25 -->
<g id="Node000025" class="node">
<title>Node25</title>
<g id="a_Node000025"><a xlink:href="namespaceutility.html#a4959dcb82d86854e88fa8757194a00ec" target="_top" xlink:title=" ">
<polygon fill="white" stroke="#666666" points="1117.12,-200.75 1000.62,-200.75 1000.62,-180 1117.12,-180 1117.12,-200.75"/>
<text text-anchor="middle" x="1058.88" y="-187.25" font-family="Helvetica,sans-Serif" font-size="10.00">utility::encodeToUtf8</text>
</a>
</g>
</g>
<!-- Node24&#45;&gt;Node25 -->
<g id="edge28_Node000024_Node000025" class="edge">
<title>Node24&#45;&gt;Node25</title>
<g id="a_edge28_Node000024_Node000025"><a xlink:title=" ">
<path fill="none" stroke="#63b8ff" d="M924.39,-110.07C929.99,-112.73 935.37,-115.81 940.25,-119.38 962.96,-135.95 953,-155.57 976.25,-171.38 980.42,-174.21 984.97,-176.63 989.7,-178.69"/>
<polygon fill="#63b8ff" stroke="#63b8ff" points="988.29,-181.9 998.88,-182.12 990.74,-175.34 988.29,-181.9"/>
</a>
</g>
</g>
<!-- Node26 -->
<g id="Node000026" class="node">
<title>Node26</title>
<g id="a_Node000026"><a xlink:href="classGraphViewStyle.html#ac979837a03cc145f9effc4b153e028a3" target="_top" xlink:title=" ">
<polygon fill="white" stroke="#666666" points="1141.5,-20.75 976.25,-20.75 976.25,0 1141.5,0 1141.5,-20.75"/>
<text text-anchor="middle" x="1058.88" y="-7.25" font-family="Helvetica,sans-Serif" font-size="10.00">GraphViewStyle::getEdgeColor</text>
</a>
</g>
</g>
<!-- Node24&#45;&gt;Node26 -->
<g id="edge29_Node000024_Node000026" class="edge">
<title>Node24&#45;&gt;Node26</title>
<g id="a_edge29_Node000024_Node000026"><a xlink:title=" ">
<path fill="none" stroke="#63b8ff" d="M886.43,-76.24C910.55,-63.58 944.89,-46.51 976.25,-34.38 985.56,-30.77 995.64,-27.4 1005.44,-24.39"/>
<polygon fill="#63b8ff" stroke="#63b8ff" points="1006.29,-27.79 1014.87,-21.58 1004.29,-21.08 1006.29,-27.79"/>
</a>
</g>
</g>
<!-- Node27 -->
<g id="Node000027" class="node">
<title>Node27</title>
<g id="a_Node000027"><a xlink:href="classColorScheme.html#ab65eb4d23939345b1569002b38ed3caf" target="_top" xlink:title=" ">
<polygon fill="white" stroke="#666666" points="1328.5,-58.75 1185,-58.75 1185,-38 1328.5,-38 1328.5,-58.75"/>
<text text-anchor="middle" x="1256.75" y="-45.25" font-family="Helvetica,sans-Serif" font-size="10.00">ColorScheme::getInstance</text>
</a>
</g>
</g>
<!-- Node24&#45;&gt;Node27 -->
<g id="edge33_Node000024_Node000027" class="edge">
<title>Node24&#45;&gt;Node27</title>
<g id="a_edge33_Node000024_Node000027"><a xlink:title=" ">
<path fill="none" stroke="#63b8ff" d="M924.53,-76.67C941.38,-73.12 959.39,-69.74 976.25,-67.38 1042.15,-58.13 1117.45,-53.34 1173.27,-50.88"/>
<polygon fill="#63b8ff" stroke="#63b8ff" points="1173.17,-54.39 1183.01,-50.47 1172.87,-47.39 1173.17,-54.39"/>
</a>
</g>
</g>
<!-- Node28 -->
<g id="Node000028" class="node">
<title>Node28</title>
<g id="a_Node000028"><a xlink:href="classGraphViewStyle.html#ae16dec6bf606239cd8cad1cce87aac6c" target="_top" xlink:title=" ">
<polygon fill="white" stroke="#666666" points="1130.62,-110.12 987.12,-110.12 987.12,-76.62 1130.62,-76.62 1130.62,-110.12"/>
<text text-anchor="start" x="995.12" y="-96.62" font-family="Helvetica,sans-Serif" font-size="10.00">GraphViewStyle::getFocus</text>
<text text-anchor="middle" x="1058.88" y="-83.88" font-family="Helvetica,sans-Serif" font-size="10.00">Color</text>
</a>
</g>
</g>
<!-- Node24&#45;&gt;Node28 -->
<g id="edge31_Node000024_Node000028" class="edge">
<title>Node24&#45;&gt;Node28</title>
<g id="a_edge31_Node000024_Node000028"><a xlink:title=" ">
<path fill="none" stroke="#63b8ff" d="M924.45,-93.38C940.93,-93.38 958.65,-93.38 975.63,-93.38"/>
<polygon fill="#63b8ff" stroke="#63b8ff" points="975.15,-96.88 985.15,-93.38 975.15,-89.88 975.15,-96.88"/>
</a>
</g>
</g>
<!-- Node29 -->
<g id="Node000029" class="node">
<title>Node29</title>
<g id="a_Node000029"><a xlink:href="classEdge.html#a20a2ae2bd3f75b8eecccbe499aac5723" target="_top" xlink:title=" ">
<polygon fill="white" stroke="#666666" points="1131.75,-162.12 986,-162.12 986,-128.62 1131.75,-128.62 1131.75,-162.12"/>
<text text-anchor="start" x="994" y="-148.62" font-family="Helvetica,sans-Serif" font-size="10.00">Edge::getUnderscoredType</text>
<text text-anchor="middle" x="1058.88" y="-135.88" font-family="Helvetica,sans-Serif" font-size="10.00">String</text>
</a>
</g>
</g>
<!-- Node24&#45;&gt;Node29 -->
<g id="edge34_Node000024_Node000029" class="edge">
<title>Node24&#45;&gt;Node29</title>
<g id="a_edge34_Node000024_Node000029"><a xlink:title=" ">
<path fill="none" stroke="#63b8ff" d="M922.19,-110.62C940.62,-115.34 960.75,-120.49 979.72,-125.36"/>
<polygon fill="#63b8ff" stroke="#63b8ff" points="978.72,-128.71 989.28,-127.8 980.46,-121.93 978.72,-128.71"/>
</a>
</g>
</g>
<!-- Node26&#45;&gt;Node27 -->
<g id="edge30_Node000026_Node000027" class="edge">
<title>Node26&#45;&gt;Node27</title>
<g id="a_edge30_Node000026_Node000027"><a xlink:title=" ">
<path fill="none" stroke="#63b8ff" d="M1115.74,-21.21C1138.49,-25.63 1164.97,-30.76 1188.74,-35.38"/>
<polygon fill="#63b8ff" stroke="#63b8ff" points="1187.84,-38.77 1198.32,-37.23 1189.17,-31.89 1187.84,-38.77"/>
</a>
</g>
</g>
<!-- Node28&#45;&gt;Node27 -->
<g id="edge32_Node000028_Node000027" class="edge">
<title>Node28&#45;&gt;Node27</title>
<g id="a_edge32_Node000028_Node000027"><a xlink:title=" ">
<path fill="none" stroke="#63b8ff" d="M1130.87,-77.07C1152.77,-72.03 1176.62,-66.55 1197.56,-61.74"/>
<polygon fill="#63b8ff" stroke="#63b8ff" points="1198.09,-65.21 1207.06,-59.56 1196.53,-58.39 1198.09,-65.21"/>
</a>
</g>
</g>
<!-- Node30 -->
<g id="Node000030" class="node">
<title>Node30</title>
<g id="a_Node000030"><a xlink:href="classEdge.html#af8501511c0d49c7d339135b06f5ba78f" target="_top" xlink:title=" ">
<polygon fill="white" stroke="#666666" points="1336,-174.75 1177.5,-174.75 1177.5,-154 1336,-154 1336,-174.75"/>
<text text-anchor="middle" x="1256.75" y="-161.25" font-family="Helvetica,sans-Serif" font-size="10.00">Edge::getReadableTypeString</text>
</a>
</g>
</g>
<!-- Node29&#45;&gt;Node30 -->
<g id="edge35_Node000029_Node000030" class="edge">
<title>Node29&#45;&gt;Node30</title>
<g id="a_edge35_Node000029_Node000030"><a xlink:title=" ">
<path fill="none" stroke="#63b8ff" d="M1131.98,-152.37C1143.02,-153.44 1154.54,-154.56 1165.91,-155.66"/>
<polygon fill="#63b8ff" stroke="#63b8ff" points="1165.41,-159.13 1175.7,-156.61 1166.09,-152.16 1165.41,-159.13"/>
</a>
</g>
</g>
<!-- Node31 -->
<g id="Node000031" class="node">
<title>Node31</title>
<g id="a_Node000031"><a xlink:href="namespaceutility.html#a239deb522abcf6865fc4409d6fff2914" target="_top" xlink:title=" ">
<polygon fill="white" stroke="#666666" points="1299.62,-135.75 1213.88,-135.75 1213.88,-115 1299.62,-115 1299.62,-135.75"/>
<text text-anchor="middle" x="1256.75" y="-122.25" font-family="Helvetica,sans-Serif" font-size="10.00">utility::replace</text>
</a>
</g>
</g>
<!-- Node29&#45;&gt;Node31 -->
<g id="edge37_Node000029_Node000031" class="edge">
<title>Node29&#45;&gt;Node31</title>
<g id="a_edge37_Node000029_Node000031"><a xlink:title=" ">
<path fill="none" stroke="#63b8ff" d="M1131.98,-138.01C1155.19,-135.64 1180.48,-133.06 1202.12,-130.85"/>
<polygon fill="#63b8ff" stroke="#63b8ff" points="1202.3,-134.35 1211.89,-129.85 1201.59,-127.39 1202.3,-134.35"/>
</a>
</g>
</g>
<!-- Node30&#45;&gt;Node30 -->
<g id="edge36_Node000030_Node000030" class="edge">
<title>Node30&#45;&gt;Node30</title>
<g id="a_edge36_Node000030_Node000030"><a xlink:title=" ">
<path fill="none" stroke="#63b8ff" d="M1224.87,-175.15C1212.11,-183.81 1222.74,-192.75 1256.75,-192.75 1275.35,-192.75 1286.96,-190.08 1291.57,-186.24"/>
<polygon fill="#63b8ff" stroke="#63b8ff" points="1294.96,-185.38 1289.02,-176.61 1288.2,-187.17 1294.96,-185.38"/>
</a>
</g>
</g>
<!-- Node34&#45;&gt;Node19 -->
<g id="edge41_Node000034_Node000019" class="edge">
<title>Node34&#45;&gt;Node19</title>
<g id="a_edge41_Node000034_Node000019"><a xlink:title=" ">
<path fill="none" stroke="#63b8ff" d="M929.02,-455.32C947.69,-457.06 967.69,-458.93 986.23,-460.67"/>
<polygon fill="#63b8ff" stroke="#63b8ff" points="985.77,-464.14 996.05,-461.59 986.42,-457.17 985.77,-464.14"/>
</a>
</g>
</g>
</g>
</svg>

<g id="navigator" transform="translate(0 0)" fill="#404254">
  <rect fill="#f2f5e9" fill-opacity="0.5" stroke="#606060" stroke-width=".5" x="0" y="0" width="60" height="60"/>
  <use id="zoomplus" xlink:href="#zoomPlus" x="17" y="9" onmousedown="handleZoom(evt,'in')"/>
  <use id="zoomminus" xlink:href="#zoomMin" x="42" y="9" onmousedown="handleZoom(evt,'out')"/>
  <use id="reset" xlink:href="#resetDef" x="30" y="36" onmousedown="handleReset()"/>
   <use id="arrowup" xlink:href="#arrowUp" x="0" y="0" onmousedown="handlePan(0,-1)"/>
  <use id="arrowright" xlink:href="#arrowRight" x="0" y="0" onmousedown="handlePan(1,0)"/>
  <use id="arrowdown" xlink:href="#arrowDown" x="0" y="0" onmousedown="handlePan(0,1)"/>
  <use id="arrowleft" xlink:href="#arrowLeft" x="0" y="0" onmousedown="handlePan(-1,0)"/>
</g>
<svg viewBox="0 0 15 15" width="100%" height="30px" preserveAspectRatio="xMaxYMin meet">
 <g id="arrow_out" transform="scale(0.3 0.3)">
  <a xlink:href="classQtGraphNode_a7df151eeb6979bab719f5a11c350035d_cgraph_org.svg" target="_base">
   <rect id="button" ry="5" rx="5" y="6" x="6" height="38" width="38"
        fill="#f2f5e9" fill-opacity="0.5" stroke="#606060" stroke-width="1.0"/>
   <path id="arrow"
     d="M 11.500037,31.436501 C 11.940474,20.09759 22.043105,11.32322 32.158766,21.979434 L 37.068811,17.246167 C 37.068811,17.246167 37.088388,32 37.088388,32 L 22.160133,31.978069 C 22.160133,31.978069 26.997745,27.140456 26.997745,27.140456 C 18.528582,18.264221 13.291696,25.230495 11.500037,31.436501 z"
     style="fill:#404040;"/>
  </a>
 </g>
</svg>

<style type='text/css'>
<![CDATA[
[data-mouse-over-selected='false'] { opacity: 0.7; }
[data-mouse-over-selected='true']  { opacity: 1.0; }
]]>
</style>
<script type="application/ecmascript"><![CDATA[
document.addEventListener('DOMContentLoaded', (event) => {
  highlightEdges();
  highlightAdjacentNodes();
});
]]></script>
</svg>
