<?xml version="1.0" encoding="UTF-8" standalone="no"?>
<!DOCTYPE svg PUBLIC "-//W3C//DTD SVG 1.1//EN"
 "http://www.w3.org/Graphics/SVG/1.1/DTD/svg11.dtd">
<!-- Generated by graphviz version 9.0.0 (0)
 -->
<!-- Title: SqliteIndexStorage::getEdgesByTargetId Pages: 1 -->
<svg width="303pt" height="94pt"
 viewBox="0.00 0.00 302.50 93.50" xmlns="http://www.w3.org/2000/svg" xmlns:xlink="http://www.w3.org/1999/xlink">
<g id="graph0" class="graph" transform="scale(1 1) rotate(0) translate(4 89.5)">
<title>SqliteIndexStorage::getEdgesByTargetId</title>
<!-- Node1 -->
<g id="Node000001" class="node">
<title>Node1</title>
<g id="a_Node000001"><a xlink:title=" ">
<polygon fill="#999999" stroke="#666666" points="294.5,-59.5 175.75,-59.5 175.75,-26 294.5,-26 294.5,-59.5"/>
<text text-anchor="start" x="183.75" y="-46" font-family="Helvetica,sans-Serif" font-size="10.00">SqliteIndexStorage</text>
<text text-anchor="middle" x="235.12" y="-33.25" font-family="Helvetica,sans-Serif" font-size="10.00">::getEdgesByTargetId</text>
</a>
</g>
</g>
<!-- Node2 -->
<g id="Node000002" class="node">
<title>Node2</title>
<g id="a_Node000002"><a xlink:href="classPersistentStorage.html#a345ce0dafd43d07f1a32360d3577eacf" target="_top" xlink:title=" ">
<polygon fill="white" stroke="#666666" points="134.12,-85.5 5.62,-85.5 5.62,-52 134.12,-52 134.12,-85.5"/>
<text text-anchor="start" x="13.62" y="-72" font-family="Helvetica,sans-Serif" font-size="10.00">PersistentStorage::</text>
<text text-anchor="middle" x="69.88" y="-59.25" font-family="Helvetica,sans-Serif" font-size="10.00">getActiveTokenIdsForId</text>
</a>
</g>
</g>
<!-- Node1&#45;&gt;Node2 -->
<g id="edge1_Node000001_Node000002" class="edge">
<title>Node1&#45;&gt;Node2</title>
<g id="a_edge1_Node000001_Node000002"><a xlink:title=" ">
<path fill="none" stroke="#63b8ff" d="M164.52,-53.84C154.55,-55.42 144.32,-57.05 134.47,-58.62"/>
<polygon fill="#63b8ff" stroke="#63b8ff" points="164.83,-57.33 174.15,-52.3 163.73,-50.42 164.83,-57.33"/>
</a>
</g>
</g>
<!-- Node3 -->
<g id="Node000003" class="node">
<title>Node3</title>
<g id="a_Node000003"><a xlink:href="classPersistentStorage.html#a4e8e066571898d8762233955dbc3e845" target="_top" xlink:title=" ">
<polygon fill="white" stroke="#666666" points="139.75,-33.5 0,-33.5 0,0 139.75,0 139.75,-33.5"/>
<text text-anchor="start" x="8" y="-20" font-family="Helvetica,sans-Serif" font-size="10.00">PersistentStorage::</text>
<text text-anchor="middle" x="69.88" y="-7.25" font-family="Helvetica,sans-Serif" font-size="10.00">getTooltipInfoForTokenIds</text>
</a>
</g>
</g>
<!-- Node1&#45;&gt;Node3 -->
<g id="edge2_Node000001_Node000003" class="edge">
<title>Node1&#45;&gt;Node3</title>
<g id="a_edge2_Node000001_Node000003"><a xlink:title=" ">
<path fill="none" stroke="#63b8ff" d="M164.4,-31.65C156.34,-30.36 148.13,-29.05 140.08,-27.77"/>
<polygon fill="#63b8ff" stroke="#63b8ff" points="163.73,-35.08 174.15,-33.2 164.83,-28.17 163.73,-35.08"/>
</a>
</g>
</g>
</g>
</svg>
