<?xml version="1.0" encoding="UTF-8" standalone="no"?>
<!DOCTYPE svg PUBLIC "-//W3C//DTD SVG 1.1//EN"
 "http://www.w3.org/Graphics/SVG/1.1/DTD/svg11.dtd">
<!-- Generated by graphviz version 7.1.0 (0)
 -->
<!-- Title: SqliteIndexStorage::addComponentAccesses Pages: 1 -->
<svg width="483pt" height="86pt"
 viewBox="0.00 0.00 483.00 86.00" xmlns="http://www.w3.org/2000/svg" xmlns:xlink="http://www.w3.org/1999/xlink">
<g id="graph0" class="graph" transform="scale(1 1) rotate(0) translate(4 82)">
<title>SqliteIndexStorage::addComponentAccesses</title>
<!-- Node1 -->
<g id="node1" class="node">
<title>Node1</title>
<g id="a_node1"><a xlink:title=" ">
<polygon fill="#999999" stroke="#666666" points="475,-54 333,-54 333,-24 475,-24 475,-54"/>
<text text-anchor="start" x="341" y="-42" font-family="Helvetica,sans-Serif" font-size="10.00">SqliteIndexStorage</text>
<text text-anchor="middle" x="404" y="-31" font-family="Helvetica,sans-Serif" font-size="10.00">::addComponentAccesses</text>
</a>
</g>
</g>
<!-- Node2 -->
<g id="node2" class="node">
<title>Node2</title>
<g id="a_node2"><a xlink:href="classSqliteIndexStorage.html#a8aed420b706a2476db78436272b8b4fe" target="_top" xlink:title=" ">
<polygon fill="white" stroke="#666666" points="294.5,-78 163.5,-78 163.5,-48 294.5,-48 294.5,-78"/>
<text text-anchor="start" x="171.5" y="-66" font-family="Helvetica,sans-Serif" font-size="10.00">SqliteIndexStorage</text>
<text text-anchor="middle" x="229" y="-55" font-family="Helvetica,sans-Serif" font-size="10.00">::addComponentAccess</text>
</a>
</g>
</g>
<!-- Node1&#45;&gt;Node2 -->
<g id="edge1" class="edge">
<title>Node1&#45;&gt;Node2</title>
<path fill="none" stroke="#63b8ff" d="M321.38,-50.32C312.43,-51.56 303.42,-52.81 294.73,-54.02"/>
<polygon fill="#63b8ff" stroke="#63b8ff" points="321.71,-53.81 331.14,-48.97 320.75,-46.88 321.71,-53.81"/>
</g>
<!-- Node4 -->
<g id="node4" class="node">
<title>Node4</title>
<g id="a_node4"><a xlink:href="classPersistentStorage.html#ac3e78d25db60fbf933d773e391d48d5d" target="_top" xlink:title=" ">
<polygon fill="white" stroke="#666666" points="297,-30 161,-30 161,0 297,0 297,-30"/>
<text text-anchor="start" x="169" y="-18" font-family="Helvetica,sans-Serif" font-size="10.00">PersistentStorage::</text>
<text text-anchor="middle" x="229" y="-7" font-family="Helvetica,sans-Serif" font-size="10.00">addComponentAccesses</text>
</a>
</g>
</g>
<!-- Node1&#45;&gt;Node4 -->
<g id="edge3" class="edge">
<title>Node1&#45;&gt;Node4</title>
<path fill="none" stroke="#63b8ff" d="M321.3,-27.67C313.24,-26.55 305.12,-25.42 297.23,-24.33"/>
<polygon fill="#63b8ff" stroke="#63b8ff" points="320.75,-31.12 331.14,-29.03 321.71,-24.19 320.75,-31.12"/>
</g>
<!-- Node3 -->
<g id="node3" class="node">
<title>Node3</title>
<g id="a_node3"><a xlink:href="classPersistentStorage.html#a17e8b67035e8162ec3b552b9d922c21c" target="_top" xlink:title=" ">
<polygon fill="white" stroke="#666666" points="125,-78 0,-78 0,-48 125,-48 125,-78"/>
<text text-anchor="start" x="8" y="-66" font-family="Helvetica,sans-Serif" font-size="10.00">PersistentStorage::</text>
<text text-anchor="middle" x="62.5" y="-55" font-family="Helvetica,sans-Serif" font-size="10.00">addComponentAccess</text>
</a>
</g>
</g>
<!-- Node2&#45;&gt;Node3 -->
<g id="edge2" class="edge">
<title>Node2&#45;&gt;Node3</title>
<path fill="none" stroke="#63b8ff" d="M152.19,-63C143.23,-63 134.17,-63 125.43,-63"/>
<polygon fill="#63b8ff" stroke="#63b8ff" points="151.94,-66.5 161.94,-63 151.94,-59.5 151.94,-66.5"/>
</g>
</g>
</svg>
