<?xml version="1.0" encoding="UTF-8" standalone="no"?>
<!DOCTYPE svg PUBLIC "-//W3C//DTD SVG 1.1//EN"
 "http://www.w3.org/Graphics/SVG/1.1/DTD/svg11.dtd">
<!-- Generated by graphviz version 7.1.0 (0)
 -->
<!-- Title: QtTabbedView::showView Pages: 1 -->
<svg width="491pt" height="153pt"
 viewBox="0.00 0.00 491.00 152.50" xmlns="http://www.w3.org/2000/svg" xmlns:xlink="http://www.w3.org/1999/xlink">
<g id="graph0" class="graph" transform="scale(1 1) rotate(0) translate(4 148.5)">
<title>QtTabbedView::showView</title>
<!-- Node1 -->
<g id="node1" class="node">
<title>Node1</title>
<g id="a_node1"><a xlink:title=" ">
<polygon fill="#999999" stroke="#666666" points="142,-75 0,-75 0,-56 142,-56 142,-75"/>
<text text-anchor="middle" x="71" y="-63" font-family="Helvetica,sans-Serif" font-size="10.00">QtTabbedView::showView</text>
</a>
</g>
</g>
<!-- Node2 -->
<g id="node2" class="node">
<title>Node2</title>
<g id="a_node2"><a xlink:href="classQtViewWidgetWrapper.html#aa659b4c3a0fec8e22a1710675fda6c53" target="_top" xlink:title=" ">
<polygon fill="white" stroke="#666666" points="307.5,-102.5 179.5,-102.5 179.5,-72.5 307.5,-72.5 307.5,-102.5"/>
<text text-anchor="start" x="187.5" y="-90.5" font-family="Helvetica,sans-Serif" font-size="10.00">QtViewWidgetWrapper</text>
<text text-anchor="middle" x="243.5" y="-79.5" font-family="Helvetica,sans-Serif" font-size="10.00">::getWidgetOfView</text>
</a>
</g>
</g>
<!-- Node1&#45;&gt;Node2 -->
<g id="edge1" class="edge">
<title>Node1&#45;&gt;Node2</title>
<path fill="none" stroke="#63b8ff" d="M142.33,-74.58C150.72,-75.66 159.31,-76.77 167.75,-77.86"/>
<polygon fill="#63b8ff" stroke="#63b8ff" points="167.29,-81.32 177.65,-79.13 168.18,-74.38 167.29,-81.32"/>
</g>
<!-- Node5 -->
<g id="node5" class="node">
<title>Node5</title>
<g id="a_node5"><a xlink:href="classTabbedView.html#a51e6d26b4a666e8f968ba14f479ea428" target="_top" xlink:title=" ">
<polygon fill="white" stroke="#666666" points="309,-54 178,-54 178,-35 309,-35 309,-54"/>
<text text-anchor="middle" x="243.5" y="-42" font-family="Helvetica,sans-Serif" font-size="10.00">TabbedView::showView</text>
</a>
</g>
</g>
<!-- Node1&#45;&gt;Node5 -->
<g id="edge4" class="edge">
<title>Node1&#45;&gt;Node5</title>
<path fill="none" stroke="#63b8ff" d="M142.33,-56.84C150.25,-55.86 158.35,-54.86 166.33,-53.88"/>
<polygon fill="#63b8ff" stroke="#63b8ff" points="166.53,-57.38 176.02,-52.69 165.67,-50.44 166.53,-57.38"/>
</g>
<!-- Node3 -->
<g id="node3" class="node">
<title>Node3</title>
<g id="a_node3"><a xlink:href="classQtViewWidgetWrapper.html#a71c7ef42ca3c100256d5feacc5c706fe" target="_top" xlink:title=" ">
<polygon fill="white" stroke="#666666" points="478,-144.5 350,-144.5 350,-114.5 478,-114.5 478,-144.5"/>
<text text-anchor="start" x="358" y="-132.5" font-family="Helvetica,sans-Serif" font-size="10.00">QtViewWidgetWrapper</text>
<text text-anchor="middle" x="414" y="-121.5" font-family="Helvetica,sans-Serif" font-size="10.00">::getWidget</text>
</a>
</g>
</g>
<!-- Node2&#45;&gt;Node3 -->
<g id="edge2" class="edge">
<title>Node2&#45;&gt;Node3</title>
<path fill="none" stroke="#63b8ff" d="M306.29,-102.9C317.21,-105.62 328.67,-108.48 339.86,-111.27"/>
<polygon fill="#63b8ff" stroke="#63b8ff" points="338.92,-114.64 349.47,-113.66 340.61,-107.85 338.92,-114.64"/>
</g>
<!-- Node4 -->
<g id="node4" class="node">
<title>Node4</title>
<g id="a_node4"><a xlink:href="classView.html#a3cbf5820d5c11e82b48e3fabb7b0e640" target="_top" xlink:title=" ">
<polygon fill="white" stroke="#666666" points="483,-96 345,-96 345,-77 483,-77 483,-96"/>
<text text-anchor="middle" x="414" y="-84" font-family="Helvetica,sans-Serif" font-size="10.00">View::getWidgetWrapper</text>
</a>
</g>
</g>
<!-- Node2&#45;&gt;Node4 -->
<g id="edge3" class="edge">
<title>Node2&#45;&gt;Node4</title>
<path fill="none" stroke="#63b8ff" d="M307.72,-87.12C316.1,-87.08 324.77,-87.02 333.38,-86.97"/>
<polygon fill="#63b8ff" stroke="#63b8ff" points="333.13,-90.47 343.11,-86.91 333.09,-83.47 333.13,-90.47"/>
</g>
<!-- Node6 -->
<g id="node6" class="node">
<title>Node6</title>
<g id="a_node6"><a xlink:href="classView.html#a816b2d71d2ce85e5a1cac19ace11b53f" target="_top" xlink:title=" ">
<polygon fill="white" stroke="#666666" points="473.5,-56 354.5,-56 354.5,-37 473.5,-37 473.5,-56"/>
<text text-anchor="middle" x="414" y="-44" font-family="Helvetica,sans-Serif" font-size="10.00">View::getViewLayout</text>
</a>
</g>
</g>
<!-- Node5&#45;&gt;Node6 -->
<g id="edge5" class="edge">
<title>Node5&#45;&gt;Node6</title>
<path fill="none" stroke="#63b8ff" d="M309.16,-45.27C320.12,-45.4 331.54,-45.53 342.63,-45.66"/>
<polygon fill="#63b8ff" stroke="#63b8ff" points="342.48,-49.16 352.52,-45.78 342.56,-42.16 342.48,-49.16"/>
</g>
<!-- Node7 -->
<g id="node7" class="node">
<title>Node7</title>
<g id="a_node7"><a xlink:href="classViewLayout.html#ac9e6a9ddd0b984990b65b46927025a16" target="_top" xlink:title=" ">
<polygon fill="white" stroke="#666666" points="478.5,-19 349.5,-19 349.5,0 478.5,0 478.5,-19"/>
<text text-anchor="middle" x="414" y="-7" font-family="Helvetica,sans-Serif" font-size="10.00">ViewLayout::showView</text>
</a>
</g>
</g>
<!-- Node5&#45;&gt;Node7 -->
<g id="edge6" class="edge">
<title>Node5&#45;&gt;Node7</title>
<path fill="none" stroke="#63b8ff" d="M292.33,-34.56C311.46,-30.59 333.68,-25.98 353.8,-21.8"/>
<polygon fill="#63b8ff" stroke="#63b8ff" points="354.48,-25.23 363.56,-19.77 353.06,-18.38 354.48,-25.23"/>
</g>
</g>
</svg>
