<?xml version="1.0" encoding="UTF-8" standalone="no"?>
<!DOCTYPE svg PUBLIC "-//W3C//DTD SVG 1.1//EN"
 "http://www.w3.org/Graphics/SVG/1.1/DTD/svg11.dtd">
<!-- Generated by graphviz version 7.1.0 (0)
 -->
<!-- Title: Settings::clear Pages: 1 -->
<svg width="496pt" height="27pt"
 viewBox="0.00 0.00 496.00 27.00" xmlns="http://www.w3.org/2000/svg" xmlns:xlink="http://www.w3.org/1999/xlink">
<g id="graph0" class="graph" transform="scale(1 1) rotate(0) translate(4 23)">
<title>Settings::clear</title>
<!-- Node1 -->
<g id="node1" class="node">
<title>Node1</title>
<g id="a_node1"><a xlink:title=" ">
<polygon fill="#999999" stroke="#666666" points="86,-19 0,-19 0,0 86,0 86,-19"/>
<text text-anchor="middle" x="43" y="-7" font-family="Helvetica,sans-Serif" font-size="10.00">Settings::clear</text>
</a>
</g>
</g>
<!-- Node2 -->
<g id="node2" class="node">
<title>Node2</title>
<g id="a_node2"><a xlink:href="classConfigManager.html#a8e991b3813c52fb99e21cf42e50d434c" target="_top" xlink:title=" ">
<polygon fill="white" stroke="#666666" points="281,-19 122,-19 122,0 281,0 281,-19"/>
<text text-anchor="middle" x="201.5" y="-7" font-family="Helvetica,sans-Serif" font-size="10.00">ConfigManager::createEmpty</text>
</a>
</g>
</g>
<!-- Node1&#45;&gt;Node2 -->
<g id="edge1" class="edge">
<title>Node1&#45;&gt;Node2</title>
<path fill="none" stroke="#63b8ff" d="M86.35,-9.5C93.88,-9.5 101.98,-9.5 110.26,-9.5"/>
<polygon fill="#63b8ff" stroke="#63b8ff" points="110.11,-13 120.11,-9.5 110.11,-6 110.11,-13"/>
</g>
<!-- Node3 -->
<g id="node3" class="node">
<title>Node3</title>
<g id="a_node3"><a xlink:href="classConfigManager.html#a7d3d7c10423d969f7544509f6fcca32f" target="_top" xlink:title=" ">
<polygon fill="white" stroke="#666666" points="488,-19 317,-19 317,0 488,0 488,-19"/>
<text text-anchor="middle" x="402.5" y="-7" font-family="Helvetica,sans-Serif" font-size="10.00">ConfigManager::ConfigManager</text>
</a>
</g>
</g>
<!-- Node2&#45;&gt;Node3 -->
<g id="edge2" class="edge">
<title>Node2&#45;&gt;Node3</title>
<path fill="none" stroke="#63b8ff" d="M281.44,-9.5C289.33,-9.5 297.4,-9.5 305.44,-9.5"/>
<polygon fill="#63b8ff" stroke="#63b8ff" points="305.26,-13 315.26,-9.5 305.26,-6 305.26,-13"/>
</g>
</g>
</svg>
