<?xml version="1.0" encoding="UTF-8" standalone="no"?>
<!DOCTYPE svg PUBLIC "-//W3C//DTD SVG 1.1//EN"
 "http://www.w3.org/Graphics/SVG/1.1/DTD/svg11.dtd">
<!-- Generated by graphviz version 9.0.0 (0)
 -->
<!-- Title: QtBookmarkBrowser::getSelectedOrder Pages: 1 -->
<svg width="694pt" height="42pt"
 viewBox="0.00 0.00 693.75 41.50" xmlns="http://www.w3.org/2000/svg" xmlns:xlink="http://www.w3.org/1999/xlink">
<g id="graph0" class="graph" transform="scale(1 1) rotate(0) translate(4 37.5)">
<title>QtBookmarkBrowser::getSelectedOrder</title>
<!-- Node1 -->
<g id="Node000001" class="node">
<title>Node1</title>
<g id="a_Node000001"><a xlink:title=" ">
<polygon fill="#999999" stroke="#666666" points="685.75,-33.5 562.5,-33.5 562.5,0 685.75,0 685.75,-33.5"/>
<text text-anchor="start" x="570.5" y="-20" font-family="Helvetica,sans-Serif" font-size="10.00">QtBookmarkBrowser::</text>
<text text-anchor="middle" x="624.12" y="-7.25" font-family="Helvetica,sans-Serif" font-size="10.00">getSelectedOrder</text>
</a>
</g>
</g>
<!-- Node2 -->
<g id="Node000002" class="node">
<title>Node2</title>
<g id="a_Node000002"><a xlink:href="classQtBookmarkBrowser.html#af3ef27b9ddb5ec0142b1f2091510b67e" target="_top" xlink:title=" ">
<polygon fill="white" stroke="#666666" points="526.5,-33.5 403.25,-33.5 403.25,0 526.5,0 526.5,-33.5"/>
<text text-anchor="start" x="411.25" y="-20" font-family="Helvetica,sans-Serif" font-size="10.00">QtBookmarkBrowser::</text>
<text text-anchor="middle" x="464.88" y="-7.25" font-family="Helvetica,sans-Serif" font-size="10.00">filterOrOrderChanged</text>
</a>
</g>
</g>
<!-- Node1&#45;&gt;Node2 -->
<g id="edge1_Node000001_Node000002" class="edge">
<title>Node1&#45;&gt;Node2</title>
<g id="a_edge1_Node000001_Node000002"><a xlink:title=" ">
<path fill="none" stroke="#63b8ff" d="M550.98,-16.75C542.89,-16.75 534.7,-16.75 526.77,-16.75"/>
<polygon fill="#63b8ff" stroke="#63b8ff" points="550.81,-20.25 560.81,-16.75 550.81,-13.25 550.81,-20.25"/>
</a>
</g>
</g>
<!-- Node3 -->
<g id="Node000003" class="node">
<title>Node3</title>
<g id="a_Node000003"><a xlink:href="classQtBookmarkBrowser.html#a22e535ba1c82fba982b831c11ab8aa84" target="_top" xlink:title=" ">
<polygon fill="white" stroke="#666666" points="367.25,-33.5 234.25,-33.5 234.25,0 367.25,0 367.25,-33.5"/>
<text text-anchor="start" x="242.25" y="-20" font-family="Helvetica,sans-Serif" font-size="10.00">QtBookmarkBrowser::</text>
<text text-anchor="middle" x="300.75" y="-7.25" font-family="Helvetica,sans-Serif" font-size="10.00">setupBookmarkBrowser</text>
</a>
</g>
</g>
<!-- Node2&#45;&gt;Node3 -->
<g id="edge2_Node000002_Node000003" class="edge">
<title>Node2&#45;&gt;Node3</title>
<g id="a_edge2_Node000002_Node000003"><a xlink:title=" ">
<path fill="none" stroke="#63b8ff" d="M391.76,-16.75C383.7,-16.75 375.51,-16.75 367.54,-16.75"/>
<polygon fill="#63b8ff" stroke="#63b8ff" points="391.53,-20.25 401.53,-16.75 391.53,-13.25 391.53,-20.25"/>
</a>
</g>
</g>
<!-- Node4 -->
<g id="Node000004" class="node">
<title>Node4</title>
<g id="a_Node000004"><a xlink:href="classQtBookmarkView.html#ace17bd707600267bc2ddfd40e98a0b4a" target="_top" xlink:title=" ">
<polygon fill="white" stroke="#666666" points="198.25,-27.12 0,-27.12 0,-6.38 198.25,-6.38 198.25,-27.12"/>
<text text-anchor="middle" x="99.12" y="-13.62" font-family="Helvetica,sans-Serif" font-size="10.00">QtBookmarkView::displayBookmarks</text>
</a>
</g>
</g>
<!-- Node3&#45;&gt;Node4 -->
<g id="edge3_Node000003_Node000004" class="edge">
<title>Node3&#45;&gt;Node4</title>
<g id="a_edge3_Node000003_Node000004"><a xlink:title=" ">
<path fill="none" stroke="#63b8ff" d="M222.46,-16.75C214.59,-16.75 206.52,-16.75 198.46,-16.75"/>
<polygon fill="#63b8ff" stroke="#63b8ff" points="222.32,-20.25 232.32,-16.75 222.32,-13.25 222.32,-20.25"/>
</a>
</g>
</g>
</g>
</svg>
