<?xml version="1.0" encoding="UTF-8" standalone="no"?>
<!DOCTYPE svg PUBLIC "-//W3C//DTD SVG 1.1//EN"
 "http://www.w3.org/Graphics/SVG/1.1/DTD/svg11.dtd">
<!-- Generated by graphviz version 7.1.0 (0)
 -->
<!-- Title: ComponentFactory::createRefreshComponent Pages: 1 -->
<svg width="446pt" height="38pt"
 viewBox="0.00 0.00 446.00 38.00" xmlns="http://www.w3.org/2000/svg" xmlns:xlink="http://www.w3.org/1999/xlink">
<g id="graph0" class="graph" transform="scale(1 1) rotate(0) translate(4 34)">
<title>ComponentFactory::createRefreshComponent</title>
<!-- Node1 -->
<g id="node1" class="node">
<title>Node1</title>
<g id="a_node1"><a xlink:title=" ">
<polygon fill="#999999" stroke="#666666" points="438,-30 293,-30 293,0 438,0 438,-30"/>
<text text-anchor="start" x="301" y="-18" font-family="Helvetica,sans-Serif" font-size="10.00">ComponentFactory::create</text>
<text text-anchor="middle" x="365.5" y="-7" font-family="Helvetica,sans-Serif" font-size="10.00">RefreshComponent</text>
</a>
</g>
</g>
<!-- Node2 -->
<g id="node2" class="node">
<title>Node2</title>
<g id="a_node2"><a xlink:href="classComponentManager.html#ac10a0f162f32895e6250cdaec5e53e89" target="_top" xlink:title=" ">
<polygon fill="white" stroke="#666666" points="257,-24.5 92,-24.5 92,-5.5 257,-5.5 257,-24.5"/>
<text text-anchor="middle" x="174.5" y="-12.5" font-family="Helvetica,sans-Serif" font-size="10.00">ComponentManager::setupTab</text>
</a>
</g>
</g>
<!-- Node1&#45;&gt;Node2 -->
<g id="edge1" class="edge">
<title>Node1&#45;&gt;Node2</title>
<path fill="none" stroke="#63b8ff" d="M281.09,-15C273.22,-15 265.25,-15 257.4,-15"/>
<polygon fill="#63b8ff" stroke="#63b8ff" points="280.99,-18.5 290.99,-15 280.99,-11.5 280.99,-18.5"/>
</g>
<!-- Node3 -->
<g id="node3" class="node">
<title>Node3</title>
<g id="a_node3"><a xlink:href="classTab.html#a8cbecd4a67cd995c14a3a7528abe01e5" target="_top" xlink:title=" ">
<polygon fill="white" stroke="#666666" points="56,-24.5 0,-24.5 0,-5.5 56,-5.5 56,-24.5"/>
<text text-anchor="middle" x="28" y="-12.5" font-family="Helvetica,sans-Serif" font-size="10.00">Tab::Tab</text>
</a>
</g>
</g>
<!-- Node2&#45;&gt;Node3 -->
<g id="edge2" class="edge">
<title>Node2&#45;&gt;Node3</title>
<path fill="none" stroke="#63b8ff" d="M80.17,-15C71.67,-15 63.6,-15 56.48,-15"/>
<polygon fill="#63b8ff" stroke="#63b8ff" points="80.03,-18.5 90.03,-15 80.03,-11.5 80.03,-18.5"/>
</g>
</g>
</svg>
