<?xml version="1.0" encoding="UTF-8" standalone="no"?>
<!DOCTYPE svg PUBLIC "-//W3C//DTD SVG 1.1//EN"
 "http://www.w3.org/Graphics/SVG/1.1/DTD/svg11.dtd">
<!-- Generated by graphviz version 7.1.0 (0)
 -->
<!-- Title: ApplicationSettings::getScreenAutoScaling Pages: 1 -->
<svg width="364pt" height="172pt"
 viewBox="0.00 0.00 364.00 171.50" xmlns="http://www.w3.org/2000/svg" xmlns:xlink="http://www.w3.org/1999/xlink">
<g id="graph0" class="graph" transform="scale(1 1) rotate(0) translate(4 167.5)">
<title>ApplicationSettings::getScreenAutoScaling</title>
<!-- Node1 -->
<g id="node1" class="node">
<title>Node1</title>
<g id="a_node1"><a xlink:title=" ">
<polygon fill="#999999" stroke="#666666" points="356,-91.5 227,-91.5 227,-61.5 356,-61.5 356,-91.5"/>
<text text-anchor="start" x="235" y="-79.5" font-family="Helvetica,sans-Serif" font-size="10.00">ApplicationSettings</text>
<text text-anchor="middle" x="291.5" y="-68.5" font-family="Helvetica,sans-Serif" font-size="10.00">::getScreenAutoScaling</text>
</a>
</g>
</g>
<!-- Node2 -->
<g id="node2" class="node">
<title>Node2</title>
<g id="a_node2"><a xlink:href="classQtPreferencesWindow.html#a29f8a0bfa062824baf9c5b2668f4a7ac" target="_top" xlink:title=" ">
<polygon fill="white" stroke="#666666" points="158,-163.5 33,-163.5 33,-133.5 158,-133.5 158,-163.5"/>
<text text-anchor="start" x="41" y="-151.5" font-family="Helvetica,sans-Serif" font-size="10.00">QtPreferencesWindow</text>
<text text-anchor="middle" x="95.5" y="-140.5" font-family="Helvetica,sans-Serif" font-size="10.00">::handleNext</text>
</a>
</g>
</g>
<!-- Node1&#45;&gt;Node2 -->
<g id="edge1" class="edge">
<title>Node1&#45;&gt;Node2</title>
<path fill="none" stroke="#63b8ff" d="M252.23,-97.19C234.05,-106.44 211.79,-116.93 191,-124.5 180.58,-128.29 169.31,-131.72 158.3,-134.71"/>
<polygon fill="#63b8ff" stroke="#63b8ff" points="253.8,-100.32 261.08,-92.62 250.59,-94.1 253.8,-100.32"/>
</g>
<!-- Node3 -->
<g id="node3" class="node">
<title>Node3</title>
<g id="a_node3"><a xlink:href="classQtProjectWizardContentPreferences.html#ab545c91de592dffea84dc0b2de9dfac8" target="_top" xlink:title=" ">
<polygon fill="white" stroke="#666666" points="191,-115.5 0,-115.5 0,-85.5 191,-85.5 191,-115.5"/>
<text text-anchor="start" x="8" y="-103.5" font-family="Helvetica,sans-Serif" font-size="10.00">QtProjectWizardContentPreferences</text>
<text text-anchor="middle" x="95.5" y="-92.5" font-family="Helvetica,sans-Serif" font-size="10.00">::load</text>
</a>
</g>
</g>
<!-- Node1&#45;&gt;Node3 -->
<g id="edge2" class="edge">
<title>Node1&#45;&gt;Node3</title>
<path fill="none" stroke="#63b8ff" d="M215.31,-85.8C207.42,-86.78 199.32,-87.78 191.24,-88.78"/>
<polygon fill="#63b8ff" stroke="#63b8ff" points="215.71,-89.28 225.21,-84.58 214.85,-82.33 215.71,-89.28"/>
</g>
<!-- Node4 -->
<g id="node4" class="node">
<title>Node4</title>
<g id="a_node4"><a xlink:href="classQtPreferencesWindow.html#ac5edf9559e2202f0c7585c4d9a2f8e73" target="_top" xlink:title=" ">
<polygon fill="white" stroke="#666666" points="161,-67.5 30,-67.5 30,-37.5 161,-37.5 161,-67.5"/>
<text text-anchor="start" x="38" y="-55.5" font-family="Helvetica,sans-Serif" font-size="10.00">QtPreferencesWindow</text>
<text text-anchor="middle" x="95.5" y="-44.5" font-family="Helvetica,sans-Serif" font-size="10.00">::QtPreferencesWindow</text>
</a>
</g>
</g>
<!-- Node1&#45;&gt;Node4 -->
<g id="edge3" class="edge">
<title>Node1&#45;&gt;Node4</title>
<path fill="none" stroke="#63b8ff" d="M215.45,-67.22C197.59,-65.01 178.68,-62.67 161.33,-60.52"/>
<polygon fill="#63b8ff" stroke="#63b8ff" points="214.85,-70.67 225.21,-68.42 215.71,-63.72 214.85,-70.67"/>
</g>
<!-- Node5 -->
<g id="node5" class="node">
<title>Node5</title>
<g id="a_node5"><a xlink:href="includesLinux_8h.html#a12b6fe380831dd374fe41f6a3c11510f" target="_top" xlink:title=" ">
<polygon fill="white" stroke="#666666" points="138.5,-19 52.5,-19 52.5,0 138.5,0 138.5,-19"/>
<text text-anchor="middle" x="95.5" y="-7" font-family="Helvetica,sans-Serif" font-size="10.00">setupPlatform</text>
</a>
</g>
</g>
<!-- Node1&#45;&gt;Node5 -->
<g id="edge4" class="edge">
<title>Node1&#45;&gt;Node5</title>
<path fill="none" stroke="#63b8ff" d="M253.44,-55.87C235.11,-46.39 212.38,-35.68 191,-28.5 174.34,-22.91 155.45,-18.71 138.96,-15.7"/>
<polygon fill="#63b8ff" stroke="#63b8ff" points="251.59,-58.85 262.07,-60.42 254.85,-52.66 251.59,-58.85"/>
</g>
</g>
</svg>
