<?xml version="1.0" encoding="UTF-8" standalone="no"?>
<!DOCTYPE svg PUBLIC "-//W3C//DTD SVG 1.1//EN"
 "http://www.w3.org/Graphics/SVG/1.1/DTD/svg11.dtd">
<!-- Generated by graphviz version 9.0.0 (0)
 -->
<!-- Title: SourceLocation::getEndLocation Pages: 1 -->
<!--zoomable 244 -->

<svg id="main" version="1.1" xmlns="http://www.w3.org/2000/svg" xmlns:xlink="http://www.w3.org/1999/xlink" xml:space="preserve" onload="init(evt)">
<style type="text/css"><![CDATA[
.node, .edge {opacity: 0.7;}
.node.selected, .edge.selected {opacity: 1;}
.edge:hover path { stroke: red; }
.edge:hover polygon { stroke: red; fill: red; }
]]></style>

<defs>
  <circle id="rim" cx="0" cy="0" r="7"/>
  <circle id="rim2" cx="0" cy="0" r="3.5"/>
  <g id="zoomPlus">
    <use xlink:href="#rim" fill="#404040"><set attributeName="fill" to="#808080" begin="zoomplus.mouseover" end="zoomplus.mouseout"/></use>
    <path d="M-4,0h8M0,-4v8" fill="none" stroke="white" stroke-width="1.5" pointer-events="none"/>
  </g>
  <g id="zoomMin">
    <use xlink:href="#rim" fill="#404040"><set attributeName="fill" to="#808080" begin="zoomminus.mouseover" end="zoomminus.mouseout"/></use>
    <path d="M-4,0h8" fill="none" stroke="white" stroke-width="1.5" pointer-events="none"/>
  </g>
  <g id="arrowUp" transform="translate(30 24)">
    <use xlink:href="#rim"/>
    <path pointer-events="none" fill="none" stroke="white" stroke-width="1.5" d="M0,-3.0v7 M-2.5,-0.5L0,-3.0L2.5,-0.5"/>
  </g>
  <g id="arrowRight" transform="rotate(90) translate(36 -43)">
    <use xlink:href="#rim"/>
    <path pointer-events="none" fill="none" stroke="white" stroke-width="1.5" d="M0,-3.0v7 M-2.5,-0.5L0,-3.0L2.5,-0.5"/>
  </g>
  <g id="arrowDown" transform="rotate(180) translate(-30 -48)">
    <use xlink:href="#rim"/>
    <path pointer-events="none" fill="none" stroke="white" stroke-width="1.5" d="M0,-3.0v7 M-2.5,-0.5L0,-3.0L2.5,-0.5"/>
  </g>
  <g id="arrowLeft" transform="rotate(270) translate(-36 17)">
    <use xlink:href="#rim"/>
    <path pointer-events="none" fill="none" stroke="white" stroke-width="1.5" d="M0,-3.0v7 M-2.5,-0.5L0,-3.0L2.5,-0.5"/>
  </g>
  <g id="resetDef">
    <use xlink:href="#rim2" fill="#404040"><set attributeName="fill" to="#808080" begin="reset.mouseover" end="reset.mouseout"/></use>
  </g>
</defs>
<script type="application/ecmascript">
var viewWidth = 1165;
var viewHeight = 244;
var sectionId = 'dynsection-7';
</script>
<script type="application/ecmascript" xlink:href="svg.min.js"/>
<svg id="graph" class="graph">
<g id="viewport">
<title>SourceLocation::getEndLocation</title>
<!-- Node1 -->
<g id="Node000001" class="node">
<title>Node1</title>
<g id="a_Node000001"><a xlink:title=" ">
<polygon fill="#999999" stroke="#666666" points="1156.5,-126.75 985.25,-126.75 985.25,-106 1156.5,-106 1156.5,-126.75"/>
<text text-anchor="middle" x="1070.88" y="-113.25" font-family="Helvetica,sans-Serif" font-size="10.00">SourceLocation::getEndLocation</text>
</a>
</g>
</g>
<!-- Node2 -->
<g id="Node000002" class="node">
<title>Node2</title>
<g id="a_Node000002"><a xlink:href="classSourceLocation.html#a0447891031dba55b8fdc350ef72849c0" target="_top" xlink:title=" ">
<polygon fill="white" stroke="#666666" points="931.62,-225.75 794.12,-225.75 794.12,-205 931.62,-205 931.62,-225.75"/>
<text text-anchor="middle" x="862.88" y="-212.25" font-family="Helvetica,sans-Serif" font-size="10.00">SourceLocation::contains</text>
</a>
</g>
</g>
<!-- Node1&#45;&gt;Node2 -->
<g id="edge1_Node000001_Node000002" class="edge">
<title>Node1&#45;&gt;Node2</title>
<g id="a_edge1_Node000001_Node000002"><a xlink:title=" ">
<path fill="none" stroke="#63b8ff" d="M1046.61,-133.63C1023.09,-150.38 985.18,-175.54 949.25,-191.38 937.27,-196.65 923.84,-201.07 911.23,-204.62"/>
<polygon fill="#63b8ff" stroke="#63b8ff" points="1048.48,-136.6 1054.53,-127.9 1044.38,-130.92 1048.48,-136.6"/>
</a>
</g>
</g>
<!-- Node3 -->
<g id="Node000003" class="node">
<title>Node3</title>
<g id="a_Node000003"><a xlink:href="classPersistentStorage.html#affb6cd0ceacf0f94b0bf3853490689f2" target="_top" xlink:title=" ">
<polygon fill="white" stroke="#666666" points="732.25,-232.12 591,-232.12 591,-198.62 732.25,-198.62 732.25,-232.12"/>
<text text-anchor="start" x="599" y="-218.62" font-family="Helvetica,sans-Serif" font-size="10.00">PersistentStorage::</text>
<text text-anchor="middle" x="661.62" y="-205.88" font-family="Helvetica,sans-Serif" font-size="10.00">getTooltipSnippetForNode</text>
</a>
</g>
</g>
<!-- Node1&#45;&gt;Node3 -->
<g id="edge11_Node000001_Node000003" class="edge">
<title>Node1&#45;&gt;Node3</title>
<g id="a_edge11_Node000001_Node000003"><a xlink:title=" ">
<path fill="none" stroke="#63b8ff" d="M1031.85,-131.14C1008.31,-139.89 977.33,-150.73 949.25,-158.38 909.29,-169.25 803.74,-189.43 732.5,-202.63"/>
<polygon fill="#63b8ff" stroke="#63b8ff" points="1032.89,-134.49 1041.01,-127.69 1030.42,-127.94 1032.89,-134.49"/>
</a>
</g>
</g>
<!-- Node5 -->
<g id="Node000005" class="node">
<title>Node5</title>
<g id="a_Node000005"><a xlink:href="classQtCodeField.html#a97d316c63bca19793607216be3da7458" target="_top" xlink:title=" ">
<polygon fill="white" stroke="#666666" points="947.75,-149.75 778,-149.75 778,-129 947.75,-129 947.75,-149.75"/>
<text text-anchor="middle" x="862.88" y="-136.25" font-family="Helvetica,sans-Serif" font-size="10.00">QtCodeField::createAnnotations</text>
</a>
</g>
</g>
<!-- Node1&#45;&gt;Node5 -->
<g id="edge4_Node000001_Node000005" class="edge">
<title>Node1&#45;&gt;Node5</title>
<g id="a_edge4_Node000001_Node000005"><a xlink:title=" ">
<path fill="none" stroke="#63b8ff" d="M973.68,-127.12C965.1,-128.07 956.46,-129.04 947.99,-129.98"/>
<polygon fill="#63b8ff" stroke="#63b8ff" points="973.84,-130.62 983.39,-126.03 973.07,-123.66 973.84,-130.62"/>
</a>
</g>
</g>
<!-- Node12 -->
<g id="Node000012" class="node">
<title>Node12</title>
<g id="a_Node000012"><a xlink:href="classIDECommunicationController.html#aa98a35e2b11952439b630c76b878ea0e" target="_top" xlink:title=" ">
<polygon fill="white" stroke="#666666" points="949.25,-111.12 776.5,-111.12 776.5,-77.62 949.25,-77.62 949.25,-111.12"/>
<text text-anchor="start" x="784.5" y="-97.62" font-family="Helvetica,sans-Serif" font-size="10.00">IDECommunicationController</text>
<text text-anchor="middle" x="862.88" y="-84.88" font-family="Helvetica,sans-Serif" font-size="10.00">::handleSetActiveTokenMessage</text>
</a>
</g>
</g>
<!-- Node1&#45;&gt;Node12 -->
<g id="edge12_Node000001_Node000012" class="edge">
<title>Node1&#45;&gt;Node12</title>
<g id="a_edge12_Node000001_Node000012"><a xlink:title=" ">
<path fill="none" stroke="#63b8ff" d="M973.64,-106.1C965.63,-105.24 957.57,-104.38 949.66,-103.54"/>
<polygon fill="#63b8ff" stroke="#63b8ff" points="973.08,-109.56 983.39,-107.14 973.82,-102.6 973.08,-109.56"/>
</a>
</g>
</g>
<!-- Node15 -->
<g id="Node000015" class="node">
<title>Node15</title>
<g id="a_Node000015"><a xlink:href="SourceLocationCollectionTestSuite_8cpp.html#af3cb38457014698c980a1f8c5f961aa0" target="_top" xlink:title=" ">
<polygon fill="white" stroke="#666666" points="888.5,-59.75 837.25,-59.75 837.25,-39 888.5,-39 888.5,-59.75"/>
<text text-anchor="middle" x="862.88" y="-46.25" font-family="Helvetica,sans-Serif" font-size="10.00">TEST_F</text>
</a>
</g>
</g>
<!-- Node1&#45;&gt;Node15 -->
<g id="edge15_Node000001_Node000015" class="edge">
<title>Node1&#45;&gt;Node15</title>
<g id="a_edge15_Node000001_Node000015"><a xlink:title=" ">
<path fill="none" stroke="#63b8ff" d="M1035.95,-101.19C1012.06,-90.91 979.14,-77.58 949.25,-68.38 929.22,-62.21 905.98,-57.17 888.81,-53.83"/>
<polygon fill="#63b8ff" stroke="#63b8ff" points="1034.29,-104.28 1044.86,-105.06 1037.09,-97.86 1034.29,-104.28"/>
</a>
</g>
</g>
<!-- Node16 -->
<g id="Node000016" class="node">
<title>Node16</title>
<g id="a_Node000016"><a xlink:href="SourceLocationCollectionTestSuite_8cpp.html#a12e7a958b75448b168697091b5d060fa" target="_top" xlink:title=" ">
<polygon fill="white" stroke="#666666" points="888.5,-20.75 837.25,-20.75 837.25,0 888.5,0 888.5,-20.75"/>
<text text-anchor="middle" x="862.88" y="-7.25" font-family="Helvetica,sans-Serif" font-size="10.00">TEST_F</text>
</a>
</g>
</g>
<!-- Node1&#45;&gt;Node16 -->
<g id="edge16_Node000001_Node000016" class="edge">
<title>Node1&#45;&gt;Node16</title>
<g id="a_edge16_Node000001_Node000016"><a xlink:title=" ">
<path fill="none" stroke="#63b8ff" d="M1049.74,-98.21C1026.96,-78.62 987.97,-47.89 949.25,-30.38 929.97,-21.66 906.46,-16.51 888.99,-13.62"/>
<polygon fill="#63b8ff" stroke="#63b8ff" points="1047.22,-100.66 1057.05,-104.62 1051.83,-95.39 1047.22,-100.66"/>
</a>
</g>
</g>
<!-- Node2&#45;&gt;Node3 -->
<g id="edge2_Node000002_Node000003" class="edge">
<title>Node2&#45;&gt;Node3</title>
<g id="a_edge2_Node000002_Node000003"><a xlink:title=" ">
<path fill="none" stroke="#63b8ff" d="M782.59,-215.38C766.1,-215.38 748.84,-215.38 732.71,-215.38"/>
<polygon fill="#63b8ff" stroke="#63b8ff" points="782.35,-218.88 792.35,-215.38 782.35,-211.88 782.35,-218.88"/>
</a>
</g>
</g>
<!-- Node4 -->
<g id="Node000004" class="node">
<title>Node4</title>
<g id="a_Node000004"><a xlink:href="classPersistentStorage.html#a4e8e066571898d8762233955dbc3e845" target="_top" xlink:title=" ">
<polygon fill="white" stroke="#666666" points="529.12,-236.12 389.38,-236.12 389.38,-202.62 529.12,-202.62 529.12,-236.12"/>
<text text-anchor="start" x="397.38" y="-222.62" font-family="Helvetica,sans-Serif" font-size="10.00">PersistentStorage::</text>
<text text-anchor="middle" x="459.25" y="-209.88" font-family="Helvetica,sans-Serif" font-size="10.00">getTooltipInfoForTokenIds</text>
</a>
</g>
</g>
<!-- Node3&#45;&gt;Node4 -->
<g id="edge3_Node000003_Node000004" class="edge">
<title>Node3&#45;&gt;Node4</title>
<g id="a_edge3_Node000003_Node000004"><a xlink:title=" ">
<path fill="none" stroke="#63b8ff" d="M579.28,-217C562.8,-217.33 545.63,-217.67 529.62,-217.99"/>
<polygon fill="#63b8ff" stroke="#63b8ff" points="579.1,-220.5 589.03,-216.8 578.96,-213.5 579.1,-220.5"/>
</a>
</g>
</g>
<!-- Node6 -->
<g id="Node000006" class="node">
<title>Node6</title>
<g id="a_Node000006"><a xlink:href="classQtCodeField.html#a2a22c06ec26342e1c7dc4bc4cef0d411" target="_top" xlink:title=" ">
<polygon fill="white" stroke="#666666" points="731.12,-173.75 592.12,-173.75 592.12,-153 731.12,-153 731.12,-173.75"/>
<text text-anchor="middle" x="661.62" y="-160.25" font-family="Helvetica,sans-Serif" font-size="10.00">QtCodeField::QtCodeField</text>
</a>
</g>
</g>
<!-- Node5&#45;&gt;Node6 -->
<g id="edge5_Node000005_Node000006" class="edge">
<title>Node5&#45;&gt;Node6</title>
<g id="a_edge5_Node000005_Node000006"><a xlink:title=" ">
<path fill="none" stroke="#63b8ff" d="M766.41,-150.87C754.62,-152.29 742.75,-153.72 731.47,-155.08"/>
<polygon fill="#63b8ff" stroke="#63b8ff" points="766.65,-154.37 776.16,-149.7 765.81,-147.42 766.65,-154.37"/>
</a>
</g>
</g>
<!-- Node7 -->
<g id="Node000007" class="node">
<title>Node7</title>
<g id="a_Node000007"><a xlink:href="classQtCodeArea.html#a7fd0b14e7544f1698bc5811568db4621" target="_top" xlink:title=" ">
<polygon fill="white" stroke="#666666" points="735.25,-135.12 588,-135.12 588,-101.62 735.25,-101.62 735.25,-135.12"/>
<text text-anchor="start" x="596" y="-121.62" font-family="Helvetica,sans-Serif" font-size="10.00">QtCodeArea::updateSource</text>
<text text-anchor="middle" x="661.62" y="-108.88" font-family="Helvetica,sans-Serif" font-size="10.00">Locations</text>
</a>
</g>
</g>
<!-- Node5&#45;&gt;Node7 -->
<g id="edge6_Node000005_Node000007" class="edge">
<title>Node5&#45;&gt;Node7</title>
<g id="a_edge6_Node000005_Node000007"><a xlink:title=" ">
<path fill="none" stroke="#63b8ff" d="M766.42,-129.32C756.03,-128.22 745.57,-127.12 735.5,-126.06"/>
<polygon fill="#63b8ff" stroke="#63b8ff" points="765.85,-132.77 776.16,-130.34 766.58,-125.81 765.85,-132.77"/>
</a>
</g>
</g>
<!-- Node8 -->
<g id="Node000008" class="node">
<title>Node8</title>
<g id="a_Node000008"><a xlink:href="classQtCodeSnippet.html#ac4f99cc9745a4ce48f3bf1bd78c26f69" target="_top" xlink:title=" ">
<polygon fill="white" stroke="#666666" points="540,-184.12 378.5,-184.12 378.5,-150.62 540,-150.62 540,-184.12"/>
<text text-anchor="start" x="386.5" y="-170.62" font-family="Helvetica,sans-Serif" font-size="10.00">QtCodeSnippet::updateSource</text>
<text text-anchor="middle" x="459.25" y="-157.88" font-family="Helvetica,sans-Serif" font-size="10.00">Locations</text>
</a>
</g>
</g>
<!-- Node7&#45;&gt;Node8 -->
<g id="edge7_Node000007_Node000008" class="edge">
<title>Node7&#45;&gt;Node8</title>
<g id="a_edge7_Node000007_Node000008"><a xlink:title=" ">
<path fill="none" stroke="#63b8ff" d="M579.27,-138.27C563.2,-142.2 546.46,-146.29 530.78,-150.13"/>
<polygon fill="#63b8ff" stroke="#63b8ff" points="579.91,-141.72 588.79,-135.94 578.25,-134.92 579.91,-141.72"/>
</a>
</g>
</g>
<!-- Node11 -->
<g id="Node000011" class="node">
<title>Node11</title>
<g id="a_Node000011"><a xlink:href="classQtCodeFileSingle.html#a2ad4acf9fcdfa0deff804ef1dadc5aaa" target="_top" xlink:title=" ">
<polygon fill="white" stroke="#666666" points="528.38,-132.12 390.12,-132.12 390.12,-98.62 528.38,-98.62 528.38,-132.12"/>
<text text-anchor="start" x="398.12" y="-118.62" font-family="Helvetica,sans-Serif" font-size="10.00">QtCodeFileSingle::update</text>
<text text-anchor="middle" x="459.25" y="-105.88" font-family="Helvetica,sans-Serif" font-size="10.00">SourceLocations</text>
</a>
</g>
</g>
<!-- Node7&#45;&gt;Node11 -->
<g id="edge10_Node000007_Node000011" class="edge">
<title>Node7&#45;&gt;Node11</title>
<g id="a_edge10_Node000007_Node000011"><a xlink:title=" ">
<path fill="none" stroke="#63b8ff" d="M576.3,-117.11C560.45,-116.88 544.06,-116.63 528.77,-116.4"/>
<polygon fill="#63b8ff" stroke="#63b8ff" points="576.15,-120.61 586.2,-117.26 576.26,-113.61 576.15,-120.61"/>
</a>
</g>
</g>
<!-- Node9 -->
<g id="Node000009" class="node">
<title>Node9</title>
<g id="a_Node000009"><a xlink:href="classQtCodeFile.html#abff38401b7321a3ffcb4c0c7a9789b82" target="_top" xlink:title=" ">
<polygon fill="white" stroke="#666666" points="335.75,-184.12 194.5,-184.12 194.5,-150.62 335.75,-150.62 335.75,-184.12"/>
<text text-anchor="start" x="202.5" y="-170.62" font-family="Helvetica,sans-Serif" font-size="10.00">QtCodeFile::updateSource</text>
<text text-anchor="middle" x="265.12" y="-157.88" font-family="Helvetica,sans-Serif" font-size="10.00">Locations</text>
</a>
</g>
</g>
<!-- Node8&#45;&gt;Node9 -->
<g id="edge8_Node000008_Node000009" class="edge">
<title>Node8&#45;&gt;Node9</title>
<g id="a_edge8_Node000008_Node000009"><a xlink:title=" ">
<path fill="none" stroke="#63b8ff" d="M366.93,-167.38C356.53,-167.38 346.05,-167.38 335.99,-167.38"/>
<polygon fill="#63b8ff" stroke="#63b8ff" points="366.65,-170.88 376.65,-167.38 366.65,-163.88 366.65,-170.88"/>
</a>
</g>
</g>
<!-- Node10 -->
<g id="Node000010" class="node">
<title>Node10</title>
<g id="a_Node000010"><a xlink:href="classQtCodeFileList.html#aa0277bce0e2bc5b2588fa686bfcdb45f" target="_top" xlink:title=" ">
<polygon fill="white" stroke="#666666" points="158.5,-184.12 0,-184.12 0,-150.62 158.5,-150.62 158.5,-184.12"/>
<text text-anchor="start" x="8" y="-170.62" font-family="Helvetica,sans-Serif" font-size="10.00">QtCodeFileList::updateSource</text>
<text text-anchor="middle" x="79.25" y="-157.88" font-family="Helvetica,sans-Serif" font-size="10.00">Locations</text>
</a>
</g>
</g>
<!-- Node9&#45;&gt;Node10 -->
<g id="edge9_Node000009_Node000010" class="edge">
<title>Node9&#45;&gt;Node10</title>
<g id="a_edge9_Node000009_Node000010"><a xlink:title=" ">
<path fill="none" stroke="#63b8ff" d="M182.84,-167.38C174.82,-167.38 166.69,-167.38 158.69,-167.38"/>
<polygon fill="#63b8ff" stroke="#63b8ff" points="182.57,-170.88 192.57,-167.38 182.57,-163.88 182.57,-170.88"/>
</a>
</g>
</g>
<!-- Node13 -->
<g id="Node000013" class="node">
<title>Node13</title>
<g id="a_Node000013"><a xlink:href="classIDECommunicationController.html#ad31a8677711a2212cd517e89bafba0d3" target="_top" xlink:title=" ">
<polygon fill="white" stroke="#666666" points="740.5,-83.12 582.75,-83.12 582.75,-49.62 740.5,-49.62 740.5,-83.12"/>
<text text-anchor="start" x="590.75" y="-69.62" font-family="Helvetica,sans-Serif" font-size="10.00">IDECommunicationController</text>
<text text-anchor="middle" x="661.62" y="-56.88" font-family="Helvetica,sans-Serif" font-size="10.00">::handleIncomingMessage</text>
</a>
</g>
</g>
<!-- Node12&#45;&gt;Node13 -->
<g id="edge13_Node000012_Node000013" class="edge">
<title>Node12&#45;&gt;Node13</title>
<g id="a_edge13_Node000012_Node000013"><a xlink:title=" ">
<path fill="none" stroke="#63b8ff" d="M764.91,-80.75C756.88,-79.62 748.83,-78.49 740.97,-77.38"/>
<polygon fill="#63b8ff" stroke="#63b8ff" points="764.33,-84.2 774.72,-82.13 765.3,-77.27 764.33,-84.2"/>
</a>
</g>
</g>
<!-- Node14 -->
<g id="Node000014" class="node">
<title>Node14</title>
<g id="a_Node000014"><a xlink:href="classQtIDECommunicationController.html#a0c742d22bccba1e0f8882d02bca3be55" target="_top" xlink:title=" ">
<polygon fill="white" stroke="#666666" points="546.75,-80.12 371.75,-80.12 371.75,-46.62 546.75,-46.62 546.75,-80.12"/>
<text text-anchor="start" x="379.75" y="-66.62" font-family="Helvetica,sans-Serif" font-size="10.00">QtIDECommunicationController</text>
<text text-anchor="middle" x="459.25" y="-53.88" font-family="Helvetica,sans-Serif" font-size="10.00">::QtIDECommunicationController</text>
</a>
</g>
</g>
<!-- Node13&#45;&gt;Node14 -->
<g id="edge14_Node000013_Node000014" class="edge">
<title>Node13&#45;&gt;Node14</title>
<g id="a_edge14_Node000013_Node000014"><a xlink:title=" ">
<path fill="none" stroke="#63b8ff" d="M570.84,-65.03C562.97,-64.91 555,-64.79 547.15,-64.68"/>
<polygon fill="#63b8ff" stroke="#63b8ff" points="570.73,-68.53 580.78,-65.18 570.83,-61.53 570.73,-68.53"/>
</a>
</g>
</g>
</g>
</svg>

<g id="navigator" transform="translate(0 0)" fill="#404254">
  <rect fill="#f2f5e9" fill-opacity="0.5" stroke="#606060" stroke-width=".5" x="0" y="0" width="60" height="60"/>
  <use id="zoomplus" xlink:href="#zoomPlus" x="17" y="9" onmousedown="handleZoom(evt,'in')"/>
  <use id="zoomminus" xlink:href="#zoomMin" x="42" y="9" onmousedown="handleZoom(evt,'out')"/>
  <use id="reset" xlink:href="#resetDef" x="30" y="36" onmousedown="handleReset()"/>
   <use id="arrowup" xlink:href="#arrowUp" x="0" y="0" onmousedown="handlePan(0,-1)"/>
  <use id="arrowright" xlink:href="#arrowRight" x="0" y="0" onmousedown="handlePan(1,0)"/>
  <use id="arrowdown" xlink:href="#arrowDown" x="0" y="0" onmousedown="handlePan(0,1)"/>
  <use id="arrowleft" xlink:href="#arrowLeft" x="0" y="0" onmousedown="handlePan(-1,0)"/>
</g>
<svg viewBox="0 0 15 15" width="100%" height="30px" preserveAspectRatio="xMaxYMin meet">
 <g id="arrow_out" transform="scale(0.3 0.3)">
  <a xlink:href="classSourceLocation_a40374d38f5964d6f8f2da4556172b916_icgraph_org.svg" target="_base">
   <rect id="button" ry="5" rx="5" y="6" x="6" height="38" width="38"
        fill="#f2f5e9" fill-opacity="0.5" stroke="#606060" stroke-width="1.0"/>
   <path id="arrow"
     d="M 11.500037,31.436501 C 11.940474,20.09759 22.043105,11.32322 32.158766,21.979434 L 37.068811,17.246167 C 37.068811,17.246167 37.088388,32 37.088388,32 L 22.160133,31.978069 C 22.160133,31.978069 26.997745,27.140456 26.997745,27.140456 C 18.528582,18.264221 13.291696,25.230495 11.500037,31.436501 z"
     style="fill:#404040;"/>
  </a>
 </g>
</svg>

<style type='text/css'>
<![CDATA[
[data-mouse-over-selected='false'] { opacity: 0.7; }
[data-mouse-over-selected='true']  { opacity: 1.0; }
]]>
</style>
<script type="application/ecmascript"><![CDATA[
document.addEventListener('DOMContentLoaded', (event) => {
  highlightEdges();
  highlightAdjacentNodes();
});
]]></script>
</svg>
