<?xml version="1.0" encoding="UTF-8" standalone="no"?>
<!DOCTYPE svg PUBLIC "-//W3C//DTD SVG 1.1//EN"
 "http://www.w3.org/Graphics/SVG/1.1/DTD/svg11.dtd">
<!-- Generated by graphviz version 9.0.0 (0)
 -->
<!-- Title: PersistentStorage::addElementComponents Pages: 1 -->
<svg width="708pt" height="68pt"
 viewBox="0.00 0.00 708.00 67.75" xmlns="http://www.w3.org/2000/svg" xmlns:xlink="http://www.w3.org/1999/xlink">
<g id="graph0" class="graph" transform="scale(1 1) rotate(0) translate(4 63.75)">
<title>PersistentStorage::addElementComponents</title>
<!-- Node1 -->
<g id="Node000001" class="node">
<title>Node1</title>
<g id="a_Node000001"><a xlink:title=" ">
<polygon fill="#999999" stroke="#666666" points="136,-46.12 0,-46.12 0,-12.62 136,-12.62 136,-46.12"/>
<text text-anchor="start" x="8" y="-32.62" font-family="Helvetica,sans-Serif" font-size="10.00">PersistentStorage::</text>
<text text-anchor="middle" x="68" y="-19.88" font-family="Helvetica,sans-Serif" font-size="10.00">addElementComponents</text>
</a>
</g>
</g>
<!-- Node2 -->
<g id="Node000002" class="node">
<title>Node2</title>
<g id="a_Node000002"><a xlink:href="classSqliteIndexStorage.html#ae8354af73bb856b63ccebccacb7792b2" target="_top" xlink:title=" ">
<polygon fill="white" stroke="#666666" points="314,-46.12 172,-46.12 172,-12.62 314,-12.62 314,-46.12"/>
<text text-anchor="start" x="180" y="-32.62" font-family="Helvetica,sans-Serif" font-size="10.00">SqliteIndexStorage</text>
<text text-anchor="middle" x="243" y="-19.88" font-family="Helvetica,sans-Serif" font-size="10.00">::addElementComponents</text>
</a>
</g>
</g>
<!-- Node1&#45;&gt;Node2 -->
<g id="edge1_Node000001_Node000002" class="edge">
<title>Node1&#45;&gt;Node2</title>
<g id="a_edge1_Node000001_Node000002"><a xlink:title=" ">
<path fill="none" stroke="#63b8ff" d="M136.38,-29.38C144.25,-29.38 152.34,-29.38 160.37,-29.38"/>
<polygon fill="#63b8ff" stroke="#63b8ff" points="160.15,-32.88 170.15,-29.38 160.15,-25.88 160.15,-32.88"/>
</a>
</g>
</g>
<!-- Node3 -->
<g id="Node000003" class="node">
<title>Node3</title>
<g id="a_Node000003"><a xlink:href="classSqliteIndexStorage.html#a3d90826d88caadae3beaaa95bf350e33" target="_top" xlink:title=" ">
<polygon fill="white" stroke="#666666" points="486.75,-46.12 350,-46.12 350,-12.62 486.75,-12.62 486.75,-46.12"/>
<text text-anchor="start" x="358" y="-32.62" font-family="Helvetica,sans-Serif" font-size="10.00">SqliteIndexStorage</text>
<text text-anchor="middle" x="418.38" y="-19.88" font-family="Helvetica,sans-Serif" font-size="10.00">::addElementComponent</text>
</a>
</g>
</g>
<!-- Node2&#45;&gt;Node3 -->
<g id="edge2_Node000002_Node000003" class="edge">
<title>Node2&#45;&gt;Node3</title>
<g id="a_edge2_Node000002_Node000003"><a xlink:title=" ">
<path fill="none" stroke="#63b8ff" d="M314.02,-29.38C322,-29.38 330.18,-29.38 338.28,-29.38"/>
<polygon fill="#63b8ff" stroke="#63b8ff" points="338.11,-32.88 348.11,-29.38 338.11,-25.88 338.11,-32.88"/>
</a>
</g>
</g>
<!-- Node4 -->
<g id="Node000004" class="node">
<title>Node4</title>
<g id="a_Node000004"><a xlink:href="namespaceutility.html#a4959dcb82d86854e88fa8757194a00ec" target="_top" xlink:title=" ">
<polygon fill="white" stroke="#666666" points="669.62,-59.75 553.12,-59.75 553.12,-39 669.62,-39 669.62,-59.75"/>
<text text-anchor="middle" x="611.38" y="-46.25" font-family="Helvetica,sans-Serif" font-size="10.00">utility::encodeToUtf8</text>
</a>
</g>
</g>
<!-- Node3&#45;&gt;Node4 -->
<g id="edge3_Node000003_Node000004" class="edge">
<title>Node3&#45;&gt;Node4</title>
<g id="a_edge3_Node000003_Node000004"><a xlink:title=" ">
<path fill="none" stroke="#63b8ff" d="M486.98,-36.45C504.59,-38.3 523.58,-40.29 541.26,-42.14"/>
<polygon fill="#63b8ff" stroke="#63b8ff" points="540.85,-45.61 551.16,-43.17 541.58,-38.65 540.85,-45.61"/>
</a>
</g>
</g>
<!-- Node5 -->
<g id="Node000005" class="node">
<title>Node5</title>
<g id="a_Node000005"><a xlink:href="classSqliteStorage.html#a6cc9f021cdd876e5dbc6a9c69e65c6b9" target="_top" xlink:title=" ">
<polygon fill="white" stroke="#666666" points="700,-20.75 522.75,-20.75 522.75,0 700,0 700,-20.75"/>
<text text-anchor="middle" x="611.38" y="-7.25" font-family="Helvetica,sans-Serif" font-size="10.00">SqliteStorage::executeStatement</text>
</a>
</g>
</g>
<!-- Node3&#45;&gt;Node5 -->
<g id="edge4_Node000003_Node000005" class="edge">
<title>Node3&#45;&gt;Node5</title>
<g id="a_edge4_Node000003_Node000005"><a xlink:title=" ">
<path fill="none" stroke="#63b8ff" d="M486.98,-22.65C494.88,-21.86 503.05,-21.05 511.26,-20.23"/>
<polygon fill="#63b8ff" stroke="#63b8ff" points="511.34,-23.74 520.95,-19.27 510.65,-16.78 511.34,-23.74"/>
</a>
</g>
</g>
</g>
</svg>
