<?xml version="1.0" encoding="UTF-8" standalone="no"?>
<!DOCTYPE svg PUBLIC "-//W3C//DTD SVG 1.1//EN"
 "http://www.w3.org/Graphics/SVG/1.1/DTD/svg11.dtd">
<!-- Generated by graphviz version 7.1.0 (0)
 -->
<!-- Title: GraphViewStyle::getStyleForNodeType Pages: 1 -->
<svg width="936pt" height="187pt"
 viewBox="0.00 0.00 936.00 187.00" xmlns="http://www.w3.org/2000/svg" xmlns:xlink="http://www.w3.org/1999/xlink">
<g id="graph0" class="graph" transform="scale(1 1) rotate(0) translate(4 183)">
<title>GraphViewStyle::getStyleForNodeType</title>
<!-- Node1 -->
<g id="node1" class="node">
<title>Node1</title>
<g id="a_node1"><a xlink:title=" ">
<polygon fill="#999999" stroke="#666666" points="141,-110.5 0,-110.5 0,-80.5 141,-80.5 141,-110.5"/>
<text text-anchor="start" x="8" y="-98.5" font-family="Helvetica,sans-Serif" font-size="10.00">GraphViewStyle::getStyle</text>
<text text-anchor="middle" x="70.5" y="-87.5" font-family="Helvetica,sans-Serif" font-size="10.00">ForNodeType</text>
</a>
</g>
</g>
<!-- Node1&#45;&gt;Node1 -->
<g id="edge9" class="edge">
<title>Node1&#45;&gt;Node1</title>
<path fill="none" stroke="#63b8ff" d="M38.77,-110.78C31.72,-119.91 42.3,-128.5 70.5,-128.5 85.92,-128.5 96.08,-125.93 100.96,-122.11"/>
<polygon fill="#63b8ff" stroke="#63b8ff" points="104.42,-122.61 102.06,-112.28 97.47,-121.83 104.42,-122.61"/>
</g>
<!-- Node2 -->
<g id="node2" class="node">
<title>Node2</title>
<g id="a_node2"><a xlink:href="classNodeType.html#a7999210cd23677558f3c9ec734f4b1cc" target="_top" xlink:title=" ">
<polygon fill="white" stroke="#666666" points="315,-142 187,-142 187,-123 315,-123 315,-142"/>
<text text-anchor="middle" x="251" y="-130" font-family="Helvetica,sans-Serif" font-size="10.00">NodeType::getIconPath</text>
</a>
</g>
</g>
<!-- Node1&#45;&gt;Node2 -->
<g id="edge1" class="edge">
<title>Node1&#45;&gt;Node2</title>
<path fill="none" stroke="#63b8ff" d="M141.28,-109.96C157.57,-113.34 174.76,-116.9 190.55,-120.18"/>
<polygon fill="#63b8ff" stroke="#63b8ff" points="189.79,-123.59 200.29,-122.2 191.21,-116.74 189.79,-123.59"/>
</g>
<!-- Node8 -->
<g id="node8" class="node">
<title>Node8</title>
<g id="a_node8"><a xlink:href="classNodeType.html#a5517b3defe0af869129a65c01cdf8660" target="_top" xlink:title=" ">
<polygon fill="white" stroke="#666666" points="319.5,-105 182.5,-105 182.5,-86 319.5,-86 319.5,-105"/>
<text text-anchor="middle" x="251" y="-93" font-family="Helvetica,sans-Serif" font-size="10.00">NodeType::getNodeStyle</text>
</a>
</g>
</g>
<!-- Node1&#45;&gt;Node8 -->
<g id="edge8" class="edge">
<title>Node1&#45;&gt;Node8</title>
<path fill="none" stroke="#63b8ff" d="M141.28,-95.5C150.91,-95.5 160.85,-95.5 170.64,-95.5"/>
<polygon fill="#63b8ff" stroke="#63b8ff" points="170.51,-99 180.51,-95.5 170.51,-92 170.51,-99"/>
</g>
<!-- Node9 -->
<g id="node9" class="node">
<title>Node9</title>
<g id="a_node9"><a xlink:href="classNodeType.html#aada8e1ad40ccf2d1a2328a20ff872392" target="_top" xlink:title=" ">
<polygon fill="white" stroke="#666666" points="325,-67.5 177,-67.5 177,-37.5 325,-37.5 325,-67.5"/>
<text text-anchor="start" x="185" y="-55.5" font-family="Helvetica,sans-Serif" font-size="10.00">NodeType::getUnderscored</text>
<text text-anchor="middle" x="251" y="-44.5" font-family="Helvetica,sans-Serif" font-size="10.00">TypeString</text>
</a>
</g>
</g>
<!-- Node1&#45;&gt;Node9 -->
<g id="edge10" class="edge">
<title>Node1&#45;&gt;Node9</title>
<path fill="none" stroke="#63b8ff" d="M135.69,-80.04C148.42,-76.97 161.89,-73.73 174.94,-70.58"/>
<polygon fill="#63b8ff" stroke="#63b8ff" points="175.41,-74.07 184.31,-68.32 173.77,-67.26 175.41,-74.07"/>
</g>
<!-- Node3 -->
<g id="node3" class="node">
<title>Node3</title>
<g id="a_node3"><a xlink:href="classFilePath.html#a1f9e209dcb9a8d2b3d39ec6cfdd5c17f" target="_top" xlink:title=" ">
<polygon fill="white" stroke="#666666" points="753,-179 632,-179 632,-160 753,-160 753,-179"/>
<text text-anchor="middle" x="692.5" y="-167" font-family="Helvetica,sans-Serif" font-size="10.00">FilePath::concatenate</text>
</a>
</g>
</g>
<!-- Node2&#45;&gt;Node3 -->
<g id="edge2" class="edge">
<title>Node2&#45;&gt;Node3</title>
<path fill="none" stroke="#63b8ff" d="M302.02,-142.5C320.48,-145.85 341.63,-149.29 361,-151.5 450.05,-161.65 553.28,-166.11 620.35,-168.05"/>
<polygon fill="#63b8ff" stroke="#63b8ff" points="620.01,-171.54 630.1,-168.32 620.2,-164.55 620.01,-171.54"/>
</g>
<!-- Node5 -->
<g id="node5" class="node">
<title>Node5</title>
<g id="a_node5"><a xlink:href="classResourcePaths.html#aac268005efee61f8dcba454dd4e5a097" target="_top" xlink:title=" ">
<polygon fill="white" stroke="#666666" points="555,-142 361,-142 361,-123 555,-123 555,-142"/>
<text text-anchor="middle" x="458" y="-130" font-family="Helvetica,sans-Serif" font-size="10.00">ResourcePaths::getGuiDirectoryPath</text>
</a>
</g>
</g>
<!-- Node2&#45;&gt;Node5 -->
<g id="edge4" class="edge">
<title>Node2&#45;&gt;Node5</title>
<path fill="none" stroke="#63b8ff" d="M315.46,-132.5C326.33,-132.5 337.89,-132.5 349.54,-132.5"/>
<polygon fill="#63b8ff" stroke="#63b8ff" points="349.2,-136 359.2,-132.5 349.2,-129 349.2,-136"/>
</g>
<!-- Node7 -->
<g id="node7" class="node">
<title>Node7</title>
<g id="a_node7"><a xlink:href="classNodeType.html#af95a7bb5a659fb7b97f33292f356f14d" target="_top" xlink:title=" ">
<polygon fill="white" stroke="#666666" points="518,-105 398,-105 398,-86 518,-86 518,-105"/>
<text text-anchor="middle" x="458" y="-93" font-family="Helvetica,sans-Serif" font-size="10.00">NodeType::isPackage</text>
</a>
</g>
</g>
<!-- Node2&#45;&gt;Node7 -->
<g id="edge7" class="edge">
<title>Node2&#45;&gt;Node7</title>
<path fill="none" stroke="#63b8ff" d="M307.21,-122.54C332.84,-117.91 363.52,-112.37 390.42,-107.52"/>
<polygon fill="#63b8ff" stroke="#63b8ff" points="390.99,-110.97 400.21,-105.75 389.74,-104.08 390.99,-110.97"/>
</g>
<!-- Node4 -->
<g id="node4" class="node">
<title>Node4</title>
<g id="a_node4"><a xlink:href="classFilePath.html#a544387c4aea50aec855062fd02e436ae" target="_top" xlink:title=" ">
<polygon fill="white" stroke="#666666" points="928,-179 830,-179 830,-160 928,-160 928,-179"/>
<text text-anchor="middle" x="879" y="-167" font-family="Helvetica,sans-Serif" font-size="10.00">FilePath::getPath</text>
</a>
</g>
</g>
<!-- Node3&#45;&gt;Node4 -->
<g id="edge3" class="edge">
<title>Node3&#45;&gt;Node4</title>
<path fill="none" stroke="#63b8ff" d="M753.4,-169.5C774.27,-169.5 797.66,-169.5 818.49,-169.5"/>
<polygon fill="#63b8ff" stroke="#63b8ff" points="818.25,-173 828.25,-169.5 818.25,-166 818.25,-173"/>
</g>
<!-- Node5&#45;&gt;Node3 -->
<g id="edge5" class="edge">
<title>Node5&#45;&gt;Node3</title>
<path fill="none" stroke="#63b8ff" d="M521.61,-142.46C552.04,-147.31 588.74,-153.15 620.24,-158.16"/>
<polygon fill="#63b8ff" stroke="#63b8ff" points="619.66,-161.61 630.09,-159.73 620.76,-154.7 619.66,-161.61"/>
</g>
<!-- Node6 -->
<g id="node6" class="node">
<title>Node6</title>
<g id="a_node6"><a xlink:href="classAppPath.html#afb2974614a9eee22c6f8a75fada9ac23" target="_top" xlink:title=" ">
<polygon fill="white" stroke="#666666" points="794,-142 591,-142 591,-123 794,-123 794,-142"/>
<text text-anchor="middle" x="692.5" y="-130" font-family="Helvetica,sans-Serif" font-size="10.00">AppPath::getSharedDataDirectoryPath</text>
</a>
</g>
</g>
<!-- Node5&#45;&gt;Node6 -->
<g id="edge6" class="edge">
<title>Node5&#45;&gt;Node6</title>
<path fill="none" stroke="#63b8ff" d="M555.24,-132.5C563.23,-132.5 571.34,-132.5 579.42,-132.5"/>
<polygon fill="#63b8ff" stroke="#63b8ff" points="579.3,-136 589.3,-132.5 579.3,-129 579.3,-136"/>
</g>
<!-- Node10 -->
<g id="node10" class="node">
<title>Node10</title>
<g id="a_node10"><a xlink:href="classNodeType.html#a548ab2f69a65eb56317fe50281804d45" target="_top" xlink:title=" ">
<polygon fill="white" stroke="#666666" points="535.5,-67.5 380.5,-67.5 380.5,-37.5 535.5,-37.5 535.5,-67.5"/>
<text text-anchor="start" x="388.5" y="-55.5" font-family="Helvetica,sans-Serif" font-size="10.00">NodeType::getReadableType</text>
<text text-anchor="middle" x="458" y="-44.5" font-family="Helvetica,sans-Serif" font-size="10.00">String</text>
</a>
</g>
</g>
<!-- Node9&#45;&gt;Node10 -->
<g id="edge11" class="edge">
<title>Node9&#45;&gt;Node10</title>
<path fill="none" stroke="#63b8ff" d="M325.43,-52.5C339.48,-52.5 354.33,-52.5 368.79,-52.5"/>
<polygon fill="#63b8ff" stroke="#63b8ff" points="368.76,-56 378.76,-52.5 368.76,-49 368.76,-56"/>
</g>
<!-- Node12 -->
<g id="node12" class="node">
<title>Node12</title>
<g id="a_node12"><a xlink:href="namespaceutility.html#a239deb522abcf6865fc4409d6fff2914" target="_top" xlink:title=" ">
<polygon fill="white" stroke="#666666" points="501,-19 415,-19 415,0 501,0 501,-19"/>
<text text-anchor="middle" x="458" y="-7" font-family="Helvetica,sans-Serif" font-size="10.00">utility::replace</text>
</a>
</g>
</g>
<!-- Node9&#45;&gt;Node12 -->
<g id="edge13" class="edge">
<title>Node9&#45;&gt;Node12</title>
<path fill="none" stroke="#63b8ff" d="M321.15,-37.04C334.37,-34.15 348.1,-31.2 361,-28.5 374.91,-25.59 389.98,-22.56 403.96,-19.79"/>
<polygon fill="#63b8ff" stroke="#63b8ff" points="404.28,-23.29 413.42,-17.92 402.93,-16.42 404.28,-23.29"/>
</g>
<!-- Node11 -->
<g id="node11" class="node">
<title>Node11</title>
<g id="a_node11"><a xlink:href="NodeKind_8cpp.html#a1df24373c5d37e19daf04ca7f2621443" target="_top" xlink:title=" ">
<polygon fill="white" stroke="#666666" points="769.5,-62 615.5,-62 615.5,-43 769.5,-43 769.5,-62"/>
<text text-anchor="middle" x="692.5" y="-50" font-family="Helvetica,sans-Serif" font-size="10.00">getReadableNodeKindString</text>
</a>
</g>
</g>
<!-- Node10&#45;&gt;Node11 -->
<g id="edge12" class="edge">
<title>Node10&#45;&gt;Node11</title>
<path fill="none" stroke="#63b8ff" d="M535.77,-52.5C557.61,-52.5 581.56,-52.5 603.99,-52.5"/>
<polygon fill="#63b8ff" stroke="#63b8ff" points="603.69,-56 613.69,-52.5 603.69,-49 603.69,-56"/>
</g>
</g>
</svg>
