<?xml version="1.0" encoding="UTF-8" standalone="no"?>
<!DOCTYPE svg PUBLIC "-//W3C//DTD SVG 1.1//EN"
 "http://www.w3.org/Graphics/SVG/1.1/DTD/svg11.dtd">
<!-- Generated by graphviz version 9.0.0 (0)
 -->
<!-- Title: CxxDeclNameResolver::getName Pages: 1 -->
<svg width="809pt" height="1497pt"
 viewBox="0.00 0.00 808.50 1497.11" xmlns="http://www.w3.org/2000/svg" xmlns:xlink="http://www.w3.org/1999/xlink">
<g id="graph0" class="graph" transform="scale(1 1) rotate(0) translate(4 1493.11)">
<title>CxxDeclNameResolver::getName</title>
<!-- Node1 -->
<g id="Node000001" class="node">
<title>Node1</title>
<g id="a_Node000001"><a xlink:title=" ">
<polygon fill="#999999" stroke="#666666" points="800.5,-451.11 672,-451.11 672,-417.61 800.5,-417.61 800.5,-451.11"/>
<text text-anchor="start" x="680" y="-437.61" font-family="Helvetica,sans-Serif" font-size="10.00">CxxDeclNameResolver</text>
<text text-anchor="middle" x="736.25" y="-424.86" font-family="Helvetica,sans-Serif" font-size="10.00">::getName</text>
</a>
</g>
</g>
<!-- Node1&#45;&gt;Node1 -->
<g id="edge1_Node000001_Node000001" class="edge">
<title>Node1&#45;&gt;Node1</title>
<g id="a_edge1_Node000001_Node000001"><a xlink:title=" ">
<path fill="none" stroke="#63b8ff" d="M767.77,-462.5C762.64,-466.46 752.13,-469.11 736.25,-469.11 708.01,-469.11 696.76,-460.72 702.5,-451.52"/>
<polygon fill="#63b8ff" stroke="#63b8ff" points="771.14,-463.5 769.7,-453.01 764.28,-462.11 771.14,-463.5"/>
</a>
</g>
</g>
<!-- Node2 -->
<g id="Node000002" class="node">
<title>Node2</title>
<g id="a_Node000002"><a xlink:href="classCxxSpecifierNameResolver.html#ac4da287f678a4fbcf10a941c233e7868" target="_top" xlink:title=" ">
<polygon fill="white" stroke="#666666" points="623.25,-1123.11 473.75,-1123.11 473.75,-1089.61 623.25,-1089.61 623.25,-1123.11"/>
<text text-anchor="start" x="481.75" y="-1109.61" font-family="Helvetica,sans-Serif" font-size="10.00">CxxSpecifierNameResolver</text>
<text text-anchor="middle" x="548.5" y="-1096.86" font-family="Helvetica,sans-Serif" font-size="10.00">::getName</text>
</a>
</g>
</g>
<!-- Node1&#45;&gt;Node2 -->
<g id="edge2_Node000001_Node000002" class="edge">
<title>Node1&#45;&gt;Node2</title>
<g id="a_edge2_Node000001_Node000002"><a xlink:title=" ">
<path fill="none" stroke="#63b8ff" d="M727.58,-462.1C696.37,-575.02 579.35,-998.37 554.26,-1089.15"/>
<polygon fill="#63b8ff" stroke="#63b8ff" points="730.87,-463.33 730.16,-452.76 724.12,-461.47 730.87,-463.33"/>
</a>
</g>
</g>
<!-- Node3 -->
<g id="Node000003" class="node">
<title>Node3</title>
<g id="a_Node000003"><a xlink:href="classCxxTypeNameResolver.html#aa6f95cc1c5830dae756834b6a868149d" target="_top" xlink:title=" ">
<polygon fill="white" stroke="#666666" points="382.62,-1489.11 253.38,-1489.11 253.38,-1455.61 382.62,-1455.61 382.62,-1489.11"/>
<text text-anchor="start" x="261.38" y="-1475.61" font-family="Helvetica,sans-Serif" font-size="10.00">CxxTypeNameResolver</text>
<text text-anchor="middle" x="318" y="-1462.86" font-family="Helvetica,sans-Serif" font-size="10.00">::getName</text>
</a>
</g>
</g>
<!-- Node1&#45;&gt;Node3 -->
<g id="edge5_Node000001_Node000003" class="edge">
<title>Node1&#45;&gt;Node3</title>
<g id="a_edge5_Node000001_Node000003"><a xlink:title=" ">
<path fill="none" stroke="#63b8ff" d="M733.12,-462.94C724.12,-579.8 687.34,-1021.25 636,-1150.36 576.3,-1300.48 558.7,-1355.67 425,-1446.36 412.53,-1454.81 397.59,-1460.53 382.9,-1464.38"/>
<polygon fill="#63b8ff" stroke="#63b8ff" points="736.61,-463.23 733.88,-452.99 729.63,-462.7 736.61,-463.23"/>
</a>
</g>
</g>
<!-- Node4 -->
<g id="Node000004" class="node">
<title>Node4</title>
<g id="a_Node000004"><a xlink:href="classCxxAstVisitorComponentIndexer.html#ac86b28417f10d223b63a36255cfc57cd" target="_top" xlink:title=" ">
<polygon fill="white" stroke="#666666" points="636,-768.11 461,-768.11 461,-734.61 636,-734.61 636,-768.11"/>
<text text-anchor="start" x="469" y="-754.61" font-family="Helvetica,sans-Serif" font-size="10.00">CxxAstVisitorComponentIndexer</text>
<text text-anchor="middle" x="548.5" y="-741.86" font-family="Helvetica,sans-Serif" font-size="10.00">::getOrCreateSymbolId</text>
</a>
</g>
</g>
<!-- Node1&#45;&gt;Node4 -->
<g id="edge6_Node000001_Node000004" class="edge">
<title>Node1&#45;&gt;Node4</title>
<g id="a_edge6_Node000001_Node000004"><a xlink:title=" ">
<path fill="none" stroke="#63b8ff" d="M719.61,-461.06C682.53,-524.32 590.15,-681.98 559.54,-734.23"/>
<polygon fill="#63b8ff" stroke="#63b8ff" points="722.46,-463.1 724.5,-452.71 716.42,-459.57 722.46,-463.1"/>
</a>
</g>
</g>
<!-- Node31 -->
<g id="Node000031" class="node">
<title>Node31</title>
<g id="a_Node000031"><a xlink:href="classCxxDeclNameResolver.html#a57b956a9d3068f671ca4543ffa947a7c" target="_top" xlink:title=" ">
<polygon fill="white" stroke="#666666" points="632.25,-89.48 464.75,-89.48 464.75,-43.23 632.25,-43.23 632.25,-89.48"/>
<text text-anchor="start" x="472.75" y="-75.98" font-family="Helvetica,sans-Serif" font-size="10.00">CxxDeclNameResolver</text>
<text text-anchor="start" x="472.75" y="-63.23" font-family="Helvetica,sans-Serif" font-size="10.00">::getTemplateParameterStrings</text>
<text text-anchor="middle" x="548.5" y="-50.48" font-family="Helvetica,sans-Serif" font-size="10.00">OfPartialSpecialization</text>
</a>
</g>
</g>
<!-- Node1&#45;&gt;Node31 -->
<g id="edge36_Node000001_Node000031" class="edge">
<title>Node1&#45;&gt;Node31</title>
<g id="a_edge36_Node000001_Node000031"><a xlink:title=" ">
<path fill="none" stroke="#63b8ff" d="M734.52,-405.89C731.42,-343.35 715.61,-192.5 636,-103.36 631.43,-98.24 626.03,-93.81 620.2,-89.97"/>
<polygon fill="#63b8ff" stroke="#63b8ff" points="731.01,-405.81 734.92,-415.66 738.01,-405.52 731.01,-405.81"/>
</a>
</g>
</g>
<!-- Node2&#45;&gt;Node2 -->
<g id="edge3_Node000002_Node000002" class="edge">
<title>Node2&#45;&gt;Node2</title>
<g id="a_edge3_Node000002_Node000002"><a xlink:title=" ">
<path fill="none" stroke="#63b8ff" d="M580.02,-1134.5C574.89,-1138.46 564.38,-1141.11 548.5,-1141.11 520.26,-1141.11 509.01,-1132.72 514.75,-1123.52"/>
<polygon fill="#63b8ff" stroke="#63b8ff" points="583.39,-1135.5 581.95,-1125.01 576.53,-1134.11 583.39,-1135.5"/>
</a>
</g>
</g>
<!-- Node2&#45;&gt;Node3 -->
<g id="edge4_Node000002_Node000003" class="edge">
<title>Node2&#45;&gt;Node3</title>
<g id="a_edge4_Node000002_Node000003"><a xlink:title=" ">
<path fill="none" stroke="#63b8ff" d="M534.08,-1133.63C515.75,-1171.63 482.7,-1243 461,-1306.36 440.18,-1367.14 470.68,-1401.18 425,-1446.36 413.68,-1457.55 398.38,-1464.2 382.93,-1468.07"/>
<polygon fill="#63b8ff" stroke="#63b8ff" points="537.17,-1135.27 538.39,-1124.75 530.87,-1132.22 537.17,-1135.27"/>
</a>
</g>
</g>
<!-- Node5 -->
<g id="Node000005" class="node">
<title>Node5</title>
<g id="a_Node000005"><a xlink:href="classCxxAstVisitorComponentIndexer.html#ae0a2634372a703fa6fd2698206317141" target="_top" xlink:title=" ">
<polygon fill="white" stroke="#666666" points="425,-969.11 211,-969.11 211,-935.61 425,-935.61 425,-969.11"/>
<text text-anchor="start" x="219" y="-955.61" font-family="Helvetica,sans-Serif" font-size="10.00">CxxAstVisitorComponentIndexer</text>
<text text-anchor="middle" x="318" y="-942.86" font-family="Helvetica,sans-Serif" font-size="10.00">::beginTraverseNestedNameSpecifierLoc</text>
</a>
</g>
</g>
<!-- Node4&#45;&gt;Node5 -->
<g id="edge7_Node000004_Node000005" class="edge">
<title>Node4&#45;&gt;Node5</title>
<g id="a_edge7_Node000004_Node000005"><a xlink:title=" ">
<path fill="none" stroke="#63b8ff" d="M535.99,-778.7C518.13,-817.7 479.99,-888.71 425,-926.36 420.07,-929.73 414.76,-932.66 409.22,-935.22"/>
<polygon fill="#63b8ff" stroke="#63b8ff" points="539.1,-780.32 539.97,-769.77 532.71,-777.48 539.1,-780.32"/>
</a>
</g>
</g>
<!-- Node6 -->
<g id="Node000006" class="node">
<title>Node6</title>
<g id="a_Node000006"><a xlink:href="classCxxAstVisitorComponentIndexer.html#a1c12b8778f640fa1ad51a3f02487d1e6" target="_top" xlink:title=" ">
<polygon fill="white" stroke="#666666" points="418.25,-917.11 217.75,-917.11 217.75,-883.61 418.25,-883.61 418.25,-917.11"/>
<text text-anchor="start" x="225.75" y="-903.61" font-family="Helvetica,sans-Serif" font-size="10.00">CxxAstVisitorComponentIndexer</text>
<text text-anchor="middle" x="318" y="-890.86" font-family="Helvetica,sans-Serif" font-size="10.00">::beginTraverseTemplateArgumentLoc</text>
</a>
</g>
</g>
<!-- Node4&#45;&gt;Node6 -->
<g id="edge8_Node000004_Node000006" class="edge">
<title>Node4&#45;&gt;Node6</title>
<g id="a_edge8_Node000004_Node000006"><a xlink:title=" ">
<path fill="none" stroke="#63b8ff" d="M528.61,-777.51C506.82,-805.71 468.38,-849.86 425,-874.36 419.06,-877.71 412.69,-880.64 406.14,-883.19"/>
<polygon fill="#63b8ff" stroke="#63b8ff" points="531.19,-779.9 534.43,-769.81 525.6,-775.68 531.19,-779.9"/>
</a>
</g>
</g>
<!-- Node7 -->
<g id="Node000007" class="node">
<title>Node7</title>
<g id="a_Node000007"><a xlink:href="classCxxAstVisitorComponentIndexer.html#a451d4de03b1f0cd9e1976af019df9887" target="_top" xlink:title=" ">
<polygon fill="white" stroke="#666666" points="405.5,-865.11 230.5,-865.11 230.5,-831.61 405.5,-831.61 405.5,-865.11"/>
<text text-anchor="start" x="238.5" y="-851.61" font-family="Helvetica,sans-Serif" font-size="10.00">CxxAstVisitorComponentIndexer</text>
<text text-anchor="middle" x="318" y="-838.86" font-family="Helvetica,sans-Serif" font-size="10.00">::getOrCreateSymbolId</text>
</a>
</g>
</g>
<!-- Node4&#45;&gt;Node7 -->
<g id="edge9_Node000004_Node000007" class="edge">
<title>Node4&#45;&gt;Node7</title>
<g id="a_edge9_Node000004_Node000007"><a xlink:title=" ">
<path fill="none" stroke="#63b8ff" d="M513.14,-774.84C489.3,-790.22 456.32,-809.74 425,-822.36 416.91,-825.61 408.31,-828.54 399.64,-831.15"/>
<polygon fill="#63b8ff" stroke="#63b8ff" points="515.06,-777.77 521.5,-769.36 511.22,-771.91 515.06,-777.77"/>
</a>
</g>
</g>
<!-- Node8 -->
<g id="Node000008" class="node">
<title>Node8</title>
<g id="a_Node000008"><a xlink:href="classCxxAstVisitorComponentIndexer.html#ad61732e75e2f238d310bae7069598638" target="_top" xlink:title=" ">
<polygon fill="white" stroke="#666666" points="405.5,-813.11 230.5,-813.11 230.5,-779.61 405.5,-779.61 405.5,-813.11"/>
<text text-anchor="start" x="238.5" y="-799.61" font-family="Helvetica,sans-Serif" font-size="10.00">CxxAstVisitorComponentIndexer</text>
<text text-anchor="middle" x="318" y="-786.86" font-family="Helvetica,sans-Serif" font-size="10.00">::getOrCreateSymbolId</text>
</a>
</g>
</g>
<!-- Node4&#45;&gt;Node8 -->
<g id="edge10_Node000004_Node000008" class="edge">
<title>Node4&#45;&gt;Node8</title>
<g id="a_edge10_Node000004_Node000008"><a xlink:title=" ">
<path fill="none" stroke="#63b8ff" d="M449.68,-770.62C435.04,-773.5 420.04,-776.46 405.65,-779.29"/>
<polygon fill="#63b8ff" stroke="#63b8ff" points="450.17,-774.09 459.3,-768.73 448.82,-767.23 450.17,-774.09"/>
</a>
</g>
</g>
<!-- Node9 -->
<g id="Node000009" class="node">
<title>Node9</title>
<g id="a_Node000009"><a xlink:href="classCxxAstVisitorComponentIndexer.html#a1b663d213aed0e121ac70732ebc90e9c" target="_top" xlink:title=" ">
<polygon fill="white" stroke="#666666" points="421.25,-685.11 214.75,-685.11 214.75,-651.61 421.25,-651.61 421.25,-685.11"/>
<text text-anchor="start" x="222.75" y="-671.61" font-family="Helvetica,sans-Serif" font-size="10.00">CxxAstVisitorComponentIndexer</text>
<text text-anchor="middle" x="318" y="-658.86" font-family="Helvetica,sans-Serif" font-size="10.00">::recordTemplateMemberSpecialization</text>
</a>
</g>
</g>
<!-- Node4&#45;&gt;Node9 -->
<g id="edge11_Node000004_Node000009" class="edge">
<title>Node4&#45;&gt;Node9</title>
<g id="a_edge11_Node000004_Node000009"><a xlink:title=" ">
<path fill="none" stroke="#63b8ff" d="M499.87,-729.61C477.4,-719.74 450.08,-708.31 425,-699.36 411.37,-694.49 396.56,-689.8 382.45,-685.6"/>
<polygon fill="#63b8ff" stroke="#63b8ff" points="498.2,-732.7 508.77,-733.54 501.04,-726.3 498.2,-732.7"/>
</a>
</g>
</g>
<!-- Node10 -->
<g id="Node000010" class="node">
<title>Node10</title>
<g id="a_Node000010"><a xlink:href="classCxxAstVisitorComponentIndexer.html#ac9e217b974b8f9c930ea64234ef63be3" target="_top" xlink:title=" ">
<polygon fill="white" stroke="#666666" points="175,-765.11 0,-765.11 0,-731.61 175,-731.61 175,-765.11"/>
<text text-anchor="start" x="8" y="-751.61" font-family="Helvetica,sans-Serif" font-size="10.00">CxxAstVisitorComponentIndexer</text>
<text text-anchor="middle" x="87.5" y="-738.86" font-family="Helvetica,sans-Serif" font-size="10.00">::visitCXXMethodDecl</text>
</a>
</g>
</g>
<!-- Node4&#45;&gt;Node10 -->
<g id="edge19_Node000004_Node000010" class="edge">
<title>Node4&#45;&gt;Node10</title>
<g id="a_edge19_Node000004_Node000010"><a xlink:title=" ">
<path fill="none" stroke="#63b8ff" d="M449.38,-750.72C368.03,-750.18 253.49,-749.44 175.41,-748.93"/>
<polygon fill="#63b8ff" stroke="#63b8ff" points="449.09,-754.21 459.11,-750.78 449.14,-747.21 449.09,-754.21"/>
</a>
</g>
</g>
<!-- Node11 -->
<g id="Node000011" class="node">
<title>Node11</title>
<g id="a_Node000011"><a xlink:href="classCxxAstVisitorComponentIndexer.html#ab2a78c3313d56980c89efbe2e86566be" target="_top" xlink:title=" ">
<polygon fill="white" stroke="#666666" points="175,-707.11 0,-707.11 0,-673.61 175,-673.61 175,-707.11"/>
<text text-anchor="start" x="8" y="-693.61" font-family="Helvetica,sans-Serif" font-size="10.00">CxxAstVisitorComponentIndexer</text>
<text text-anchor="middle" x="87.5" y="-680.86" font-family="Helvetica,sans-Serif" font-size="10.00">::visitTagDecl</text>
</a>
</g>
</g>
<!-- Node4&#45;&gt;Node11 -->
<g id="edge28_Node000004_Node000011" class="edge">
<title>Node4&#45;&gt;Node11</title>
<g id="a_edge28_Node000004_Node000011"><a xlink:title=" ">
<path fill="none" stroke="#63b8ff" d="M449.38,-738.32C368.03,-727.51 253.49,-712.28 175.41,-701.91"/>
<polygon fill="#63b8ff" stroke="#63b8ff" points="448.75,-741.76 459.13,-739.61 449.67,-734.83 448.75,-741.76"/>
</a>
</g>
</g>
<!-- Node12 -->
<g id="Node000012" class="node">
<title>Node12</title>
<g id="a_Node000012"><a xlink:href="classCxxAstVisitorComponentIndexer.html#a441140747ff73e4210e42e4d5772c765" target="_top" xlink:title=" ">
<polygon fill="white" stroke="#666666" points="175,-643.11 0,-643.11 0,-609.61 175,-609.61 175,-643.11"/>
<text text-anchor="start" x="8" y="-629.61" font-family="Helvetica,sans-Serif" font-size="10.00">CxxAstVisitorComponentIndexer</text>
<text text-anchor="middle" x="87.5" y="-616.86" font-family="Helvetica,sans-Serif" font-size="10.00">::visitVarDecl</text>
</a>
</g>
</g>
<!-- Node4&#45;&gt;Node12 -->
<g id="edge34_Node000004_Node000012" class="edge">
<title>Node4&#45;&gt;Node12</title>
<g id="a_edge34_Node000004_Node000012"><a xlink:title=" ">
<path fill="none" stroke="#63b8ff" d="M527.68,-725.5C505.79,-699.19 467.91,-659.86 425,-642.36 344.99,-609.72 245.25,-609.42 175.2,-615.01"/>
<polygon fill="#63b8ff" stroke="#63b8ff" points="524.77,-727.47 533.78,-733.03 530.2,-723.06 524.77,-727.47"/>
</a>
</g>
</g>
<!-- Node13 -->
<g id="Node000013" class="node">
<title>Node13</title>
<g id="a_Node000013"><a xlink:href="classCxxAstVisitorComponentIndexer.html#a0510373cd1c450570477c2c036c1087f" target="_top" xlink:title=" ">
<polygon fill="white" stroke="#666666" points="420.12,-595.11 215.88,-595.11 215.88,-561.61 420.12,-561.61 420.12,-595.11"/>
<text text-anchor="start" x="223.88" y="-581.61" font-family="Helvetica,sans-Serif" font-size="10.00">CxxAstVisitorComponentIndexer</text>
<text text-anchor="middle" x="318" y="-568.86" font-family="Helvetica,sans-Serif" font-size="10.00">::visitClassTemplateSpecializationDecl</text>
</a>
</g>
</g>
<!-- Node4&#45;&gt;Node13 -->
<g id="edge15_Node000004_Node000013" class="edge">
<title>Node4&#45;&gt;Node13</title>
<g id="a_edge15_Node000004_Node000013"><a xlink:title=" ">
<path fill="none" stroke="#63b8ff" d="M531.27,-724.5C510.54,-692.44 471.7,-639.4 425,-609.36 416.45,-603.86 406.9,-599.31 397.13,-595.55"/>
<polygon fill="#63b8ff" stroke="#63b8ff" points="528.24,-726.25 536.54,-732.83 534.16,-722.51 528.24,-726.25"/>
</a>
</g>
</g>
<!-- Node14 -->
<g id="Node000014" class="node">
<title>Node14</title>
<g id="a_Node000014"><a xlink:href="classCxxAstVisitorComponentIndexer.html#acd44b5441e3e3e7a81eb20d1d599c885" target="_top" xlink:title=" ">
<polygon fill="white" stroke="#666666" points="405.5,-543.11 230.5,-543.11 230.5,-509.61 405.5,-509.61 405.5,-543.11"/>
<text text-anchor="start" x="238.5" y="-529.61" font-family="Helvetica,sans-Serif" font-size="10.00">CxxAstVisitorComponentIndexer</text>
<text text-anchor="middle" x="318" y="-516.86" font-family="Helvetica,sans-Serif" font-size="10.00">::visitConstructorInitializer</text>
</a>
</g>
</g>
<!-- Node4&#45;&gt;Node14 -->
<g id="edge16_Node000004_Node000014" class="edge">
<title>Node4&#45;&gt;Node14</title>
<g id="a_edge16_Node000004_Node000014"><a xlink:title=" ">
<path fill="none" stroke="#63b8ff" d="M538.21,-723.46C522.24,-679.94 485.35,-596.33 425,-552.36 419.1,-548.06 412.58,-544.47 405.76,-541.47"/>
<polygon fill="#63b8ff" stroke="#63b8ff" points="534.84,-724.43 541.49,-732.68 541.44,-722.09 534.84,-724.43"/>
</a>
</g>
</g>
<!-- Node15 -->
<g id="Node000015" class="node">
<title>Node15</title>
<g id="a_Node000015"><a xlink:href="classCxxAstVisitorComponentIndexer.html#a8c5463052f8f3e774f171c5bafed0979" target="_top" xlink:title=" ">
<polygon fill="white" stroke="#666666" points="405.5,-491.11 230.5,-491.11 230.5,-457.61 405.5,-457.61 405.5,-491.11"/>
<text text-anchor="start" x="238.5" y="-477.61" font-family="Helvetica,sans-Serif" font-size="10.00">CxxAstVisitorComponentIndexer</text>
<text text-anchor="middle" x="318" y="-464.86" font-family="Helvetica,sans-Serif" font-size="10.00">::visitCXXConstructExpr</text>
</a>
</g>
</g>
<!-- Node4&#45;&gt;Node15 -->
<g id="edge17_Node000004_Node000015" class="edge">
<title>Node4&#45;&gt;Node15</title>
<g id="a_edge17_Node000004_Node000015"><a xlink:title=" ">
<path fill="none" stroke="#63b8ff" d="M541.96,-723.13C530.16,-670.81 497.49,-558.81 425,-500.36 419.25,-495.72 412.79,-491.89 405.97,-488.73"/>
<polygon fill="#63b8ff" stroke="#63b8ff" points="538.5,-723.7 544.02,-732.74 545.34,-722.22 538.5,-723.7"/>
</a>
</g>
</g>
<!-- Node16 -->
<g id="Node000016" class="node">
<title>Node16</title>
<g id="a_Node000016"><a xlink:href="classCxxAstVisitorComponentIndexer.html#a5b89ec0b77d5e932ee473a8f15ec5956" target="_top" xlink:title=" ">
<polygon fill="white" stroke="#666666" points="405.5,-439.11 230.5,-439.11 230.5,-405.61 405.5,-405.61 405.5,-439.11"/>
<text text-anchor="start" x="238.5" y="-425.61" font-family="Helvetica,sans-Serif" font-size="10.00">CxxAstVisitorComponentIndexer</text>
<text text-anchor="middle" x="318" y="-412.86" font-family="Helvetica,sans-Serif" font-size="10.00">::visitCXXDeleteExpr</text>
</a>
</g>
</g>
<!-- Node4&#45;&gt;Node16 -->
<g id="edge18_Node000004_Node000016" class="edge">
<title>Node4&#45;&gt;Node16</title>
<g id="a_edge18_Node000004_Node000016"><a xlink:title=" ">
<path fill="none" stroke="#63b8ff" d="M544.55,-722.95C536.73,-662.75 509.88,-521.84 425,-448.36 419.27,-443.4 412.74,-439.35 405.81,-436.06"/>
<polygon fill="#63b8ff" stroke="#63b8ff" points="541.05,-723.18 545.73,-732.69 548,-722.34 541.05,-723.18"/>
</a>
</g>
</g>
<!-- Node17 -->
<g id="Node000017" class="node">
<title>Node17</title>
<g id="a_Node000017"><a xlink:href="classCxxAstVisitorComponentIndexer.html#af6ceda2446fb1c429da45e900fa90e67" target="_top" xlink:title=" ">
<polygon fill="white" stroke="#666666" points="405.5,-387.11 230.5,-387.11 230.5,-353.61 405.5,-353.61 405.5,-387.11"/>
<text text-anchor="start" x="238.5" y="-373.61" font-family="Helvetica,sans-Serif" font-size="10.00">CxxAstVisitorComponentIndexer</text>
<text text-anchor="middle" x="318" y="-360.86" font-family="Helvetica,sans-Serif" font-size="10.00">::visitDeclRefExpr</text>
</a>
</g>
</g>
<!-- Node4&#45;&gt;Node17 -->
<g id="edge20_Node000004_Node000017" class="edge">
<title>Node4&#45;&gt;Node17</title>
<g id="a_edge20_Node000004_Node000017"><a xlink:title=" ">
<path fill="none" stroke="#63b8ff" d="M546.46,-722.89C542.4,-655.51 522.49,-485.29 425,-396.36 419.33,-391.19 412.8,-387 405.83,-383.62"/>
<polygon fill="#63b8ff" stroke="#63b8ff" points="542.96,-722.91 546.97,-732.72 549.95,-722.55 542.96,-722.91"/>
</a>
</g>
</g>
<!-- Node18 -->
<g id="Node000018" class="node">
<title>Node18</title>
<g id="a_Node000018"><a xlink:href="classCxxAstVisitorComponentIndexer.html#a7ab9caa27d99cca0d4a1e94d47adc976" target="_top" xlink:title=" ">
<polygon fill="white" stroke="#666666" points="405.5,-335.11 230.5,-335.11 230.5,-301.61 405.5,-301.61 405.5,-335.11"/>
<text text-anchor="start" x="238.5" y="-321.61" font-family="Helvetica,sans-Serif" font-size="10.00">CxxAstVisitorComponentIndexer</text>
<text text-anchor="middle" x="318" y="-308.86" font-family="Helvetica,sans-Serif" font-size="10.00">::visitEnumConstantDecl</text>
</a>
</g>
</g>
<!-- Node4&#45;&gt;Node18 -->
<g id="edge21_Node000004_Node000018" class="edge">
<title>Node4&#45;&gt;Node18</title>
<g id="a_edge21_Node000004_Node000018"><a xlink:title=" ">
<path fill="none" stroke="#63b8ff" d="M547.93,-723.36C547.44,-649.76 535.51,-449.28 425,-344.36 419.37,-339.01 412.82,-334.71 405.79,-331.25"/>
<polygon fill="#63b8ff" stroke="#63b8ff" points="544.43,-722.92 547.92,-732.92 551.43,-722.93 544.43,-722.92"/>
</a>
</g>
</g>
<!-- Node19 -->
<g id="Node000019" class="node">
<title>Node19</title>
<g id="a_Node000019"><a xlink:href="classCxxAstVisitorComponentIndexer.html#a0080311e993dde5efbbec1c959546d9f" target="_top" xlink:title=" ">
<polygon fill="white" stroke="#666666" points="405.5,-283.11 230.5,-283.11 230.5,-249.61 405.5,-249.61 405.5,-283.11"/>
<text text-anchor="start" x="238.5" y="-269.61" font-family="Helvetica,sans-Serif" font-size="10.00">CxxAstVisitorComponentIndexer</text>
<text text-anchor="middle" x="318" y="-256.86" font-family="Helvetica,sans-Serif" font-size="10.00">::visitFieldDecl</text>
</a>
</g>
</g>
<!-- Node4&#45;&gt;Node19 -->
<g id="edge22_Node000004_Node000019" class="edge">
<title>Node4&#45;&gt;Node19</title>
<g id="a_edge22_Node000004_Node000019"><a xlink:title=" ">
<path fill="none" stroke="#63b8ff" d="M543.72,-722.93C531.15,-632.53 487.94,-354.03 425,-292.36 419.45,-286.92 412.96,-282.56 405.97,-279.06"/>
<polygon fill="#63b8ff" stroke="#63b8ff" points="540.23,-723.23 545.06,-732.66 547.17,-722.28 540.23,-723.23"/>
</a>
</g>
</g>
<!-- Node20 -->
<g id="Node000020" class="node">
<title>Node20</title>
<g id="a_Node000020"><a xlink:href="classCxxAstVisitorComponentIndexer.html#a2da86428e87e552a62071eeca376c0aa" target="_top" xlink:title=" ">
<polygon fill="white" stroke="#666666" points="405.5,-231.11 230.5,-231.11 230.5,-197.61 405.5,-197.61 405.5,-231.11"/>
<text text-anchor="start" x="238.5" y="-217.61" font-family="Helvetica,sans-Serif" font-size="10.00">CxxAstVisitorComponentIndexer</text>
<text text-anchor="middle" x="318" y="-204.86" font-family="Helvetica,sans-Serif" font-size="10.00">::visitFunctionDecl</text>
</a>
</g>
</g>
<!-- Node4&#45;&gt;Node20 -->
<g id="edge23_Node000004_Node000020" class="edge">
<title>Node4&#45;&gt;Node20</title>
<g id="a_edge23_Node000004_Node000020"><a xlink:title=" ">
<path fill="none" stroke="#63b8ff" d="M544.55,-722.96C533.93,-626.01 494.49,-310.21 425,-240.36 419.45,-234.78 412.92,-230.33 405.87,-226.79"/>
<polygon fill="#63b8ff" stroke="#63b8ff" points="541.05,-723.09 545.6,-732.66 548.01,-722.34 541.05,-723.09"/>
</a>
</g>
</g>
<!-- Node21 -->
<g id="Node000021" class="node">
<title>Node21</title>
<g id="a_Node000021"><a xlink:href="classCxxAstVisitorComponentIndexer.html#abfb00060302e4203c28644d246930a23" target="_top" xlink:title=" ">
<polygon fill="white" stroke="#666666" points="405.5,-179.11 230.5,-179.11 230.5,-145.61 405.5,-145.61 405.5,-179.11"/>
<text text-anchor="start" x="238.5" y="-165.61" font-family="Helvetica,sans-Serif" font-size="10.00">CxxAstVisitorComponentIndexer</text>
<text text-anchor="middle" x="318" y="-152.86" font-family="Helvetica,sans-Serif" font-size="10.00">::visitLambdaExpr</text>
</a>
</g>
</g>
<!-- Node4&#45;&gt;Node21 -->
<g id="edge24_Node000004_Node000021" class="edge">
<title>Node4&#45;&gt;Node21</title>
<g id="a_edge24_Node000004_Node000021"><a xlink:title=" ">
<path fill="none" stroke="#63b8ff" d="M545.22,-722.84C536.38,-619.46 501.04,-266.42 425,-188.36 419.51,-182.72 413.02,-178.23 405.99,-174.67"/>
<polygon fill="#63b8ff" stroke="#63b8ff" points="541.72,-722.99 546.04,-732.66 548.7,-722.4 541.72,-722.99"/>
</a>
</g>
</g>
<!-- Node22 -->
<g id="Node000022" class="node">
<title>Node22</title>
<g id="a_Node000022"><a xlink:href="classCxxAstVisitorComponentIndexer.html#a676084833a1df214cc26dd5285d74718" target="_top" xlink:title=" ">
<polygon fill="white" stroke="#666666" points="405.5,-1437.11 230.5,-1437.11 230.5,-1403.61 405.5,-1403.61 405.5,-1437.11"/>
<text text-anchor="start" x="238.5" y="-1423.61" font-family="Helvetica,sans-Serif" font-size="10.00">CxxAstVisitorComponentIndexer</text>
<text text-anchor="middle" x="318" y="-1410.86" font-family="Helvetica,sans-Serif" font-size="10.00">::visitMemberExpr</text>
</a>
</g>
</g>
<!-- Node4&#45;&gt;Node22 -->
<g id="edge25_Node000004_Node000022" class="edge">
<title>Node4&#45;&gt;Node22</title>
<g id="a_edge25_Node000004_Node000022"><a xlink:title=" ">
<path fill="none" stroke="#63b8ff" d="M538.76,-779.11C521.37,-835.36 482.27,-967.1 461,-1080.36 448.04,-1149.39 471.43,-1341.66 425,-1394.36 419.61,-1400.47 413.05,-1405.26 405.85,-1409.01"/>
<polygon fill="#63b8ff" stroke="#63b8ff" points="542.05,-780.32 541.68,-769.73 535.36,-778.24 542.05,-780.32"/>
</a>
</g>
</g>
<!-- Node23 -->
<g id="Node000023" class="node">
<title>Node23</title>
<g id="a_Node000023"><a xlink:href="classCxxAstVisitorComponentIndexer.html#a467dc47d5a94fc31f17ce57f4130cfda" target="_top" xlink:title=" ">
<polygon fill="white" stroke="#666666" points="405.5,-1385.11 230.5,-1385.11 230.5,-1351.61 405.5,-1351.61 405.5,-1385.11"/>
<text text-anchor="start" x="238.5" y="-1371.61" font-family="Helvetica,sans-Serif" font-size="10.00">CxxAstVisitorComponentIndexer</text>
<text text-anchor="middle" x="318" y="-1358.86" font-family="Helvetica,sans-Serif" font-size="10.00">::visitNamespaceAliasDecl</text>
</a>
</g>
</g>
<!-- Node4&#45;&gt;Node23 -->
<g id="edge26_Node000004_Node000023" class="edge">
<title>Node4&#45;&gt;Node23</title>
<g id="a_edge26_Node000004_Node000023"><a xlink:title=" ">
<path fill="none" stroke="#63b8ff" d="M538.97,-779.15C521.97,-835.48 483.54,-967.35 461,-1080.36 449.51,-1137.99 464.34,-1298.7 425,-1342.36 419.61,-1348.34 413.09,-1353.05 405.96,-1356.75"/>
<polygon fill="#63b8ff" stroke="#63b8ff" points="542.27,-780.35 541.82,-769.76 535.57,-778.31 542.27,-780.35"/>
</a>
</g>
</g>
<!-- Node24 -->
<g id="Node000024" class="node">
<title>Node24</title>
<g id="a_Node000024"><a xlink:href="classCxxAstVisitorComponentIndexer.html#a8de283fd58e40272b18e2f1f467112e6" target="_top" xlink:title=" ">
<polygon fill="white" stroke="#666666" points="405.5,-1333.11 230.5,-1333.11 230.5,-1299.61 405.5,-1299.61 405.5,-1333.11"/>
<text text-anchor="start" x="238.5" y="-1319.61" font-family="Helvetica,sans-Serif" font-size="10.00">CxxAstVisitorComponentIndexer</text>
<text text-anchor="middle" x="318" y="-1306.86" font-family="Helvetica,sans-Serif" font-size="10.00">::visitNamespaceDecl</text>
</a>
</g>
</g>
<!-- Node4&#45;&gt;Node24 -->
<g id="edge27_Node000004_Node000024" class="edge">
<title>Node4&#45;&gt;Node24</title>
<g id="a_edge27_Node000004_Node000024"><a xlink:title=" ">
<path fill="none" stroke="#63b8ff" d="M539.29,-779.22C522.86,-835.66 485.41,-967.74 461,-1080.36 440.94,-1172.9 489.55,-1221.07 425,-1290.36 419.51,-1296.25 412.92,-1300.9 405.75,-1304.56"/>
<polygon fill="#63b8ff" stroke="#63b8ff" points="542.6,-780.39 542.04,-769.81 535.88,-778.43 542.6,-780.39"/>
</a>
</g>
</g>
<!-- Node25 -->
<g id="Node000025" class="node">
<title>Node25</title>
<g id="a_Node000025"><a xlink:href="classCxxAstVisitorComponentIndexer.html#ad2a4b336a87855412b30e469e01f693f" target="_top" xlink:title=" ">
<polygon fill="white" stroke="#666666" points="405.5,-1281.11 230.5,-1281.11 230.5,-1247.61 405.5,-1247.61 405.5,-1281.11"/>
<text text-anchor="start" x="238.5" y="-1267.61" font-family="Helvetica,sans-Serif" font-size="10.00">CxxAstVisitorComponentIndexer</text>
<text text-anchor="middle" x="318" y="-1254.86" font-family="Helvetica,sans-Serif" font-size="10.00">::visitTypeAliasDecl</text>
</a>
</g>
</g>
<!-- Node4&#45;&gt;Node25 -->
<g id="edge29_Node000004_Node000025" class="edge">
<title>Node4&#45;&gt;Node25</title>
<g id="a_edge29_Node000004_Node000025"><a xlink:title=" ">
<path fill="none" stroke="#63b8ff" d="M539.81,-779.34C524.31,-836 488.45,-968.44 461,-1080.36 443.84,-1150.31 475.51,-1187.01 425,-1238.36 419.49,-1243.96 412.97,-1248.44 405.93,-1251.99"/>
<polygon fill="#63b8ff" stroke="#63b8ff" points="543.13,-780.46 542.4,-769.89 536.38,-778.61 543.13,-780.46"/>
</a>
</g>
</g>
<!-- Node26 -->
<g id="Node000026" class="node">
<title>Node26</title>
<g id="a_Node000026"><a xlink:href="classCxxAstVisitorComponentIndexer.html#a8f136cff2e81e7fdf1d7137b3d359a9e" target="_top" xlink:title=" ">
<polygon fill="white" stroke="#666666" points="405.5,-1229.11 230.5,-1229.11 230.5,-1195.61 405.5,-1195.61 405.5,-1229.11"/>
<text text-anchor="start" x="238.5" y="-1215.61" font-family="Helvetica,sans-Serif" font-size="10.00">CxxAstVisitorComponentIndexer</text>
<text text-anchor="middle" x="318" y="-1202.86" font-family="Helvetica,sans-Serif" font-size="10.00">::visitTypedefDecl</text>
</a>
</g>
</g>
<!-- Node4&#45;&gt;Node26 -->
<g id="edge30_Node000004_Node000026" class="edge">
<title>Node4&#45;&gt;Node26</title>
<g id="a_edge30_Node000004_Node000026"><a xlink:title=" ">
<path fill="none" stroke="#63b8ff" d="M540.42,-779.43C516.64,-873.37 440.2,-1171.67 425,-1186.36 419.41,-1191.76 412.9,-1196.09 405.89,-1199.57"/>
<polygon fill="#63b8ff" stroke="#63b8ff" points="543.75,-780.56 542.81,-770 536.96,-778.84 543.75,-780.56"/>
</a>
</g>
</g>
<!-- Node27 -->
<g id="Node000027" class="node">
<title>Node27</title>
<g id="a_Node000027"><a xlink:href="classCxxAstVisitorComponentIndexer.html#a7cb366490179bc9757448d99d02c830f" target="_top" xlink:title=" ">
<polygon fill="white" stroke="#666666" points="405.5,-1177.11 230.5,-1177.11 230.5,-1143.61 405.5,-1143.61 405.5,-1177.11"/>
<text text-anchor="start" x="238.5" y="-1163.61" font-family="Helvetica,sans-Serif" font-size="10.00">CxxAstVisitorComponentIndexer</text>
<text text-anchor="middle" x="318" y="-1150.86" font-family="Helvetica,sans-Serif" font-size="10.00">::visitTypeLoc</text>
</a>
</g>
</g>
<!-- Node4&#45;&gt;Node27 -->
<g id="edge31_Node000004_Node000027" class="edge">
<title>Node4&#45;&gt;Node27</title>
<g id="a_edge31_Node000004_Node000027"><a xlink:title=" ">
<path fill="none" stroke="#63b8ff" d="M542.19,-779.47C526.57,-859.23 478.52,-1084.41 425,-1134.36 419.39,-1139.59 412.9,-1143.82 405.95,-1147.23"/>
<polygon fill="#63b8ff" stroke="#63b8ff" points="545.58,-780.35 544.05,-769.87 538.71,-779.02 545.58,-780.35"/>
</a>
</g>
</g>
<!-- Node28 -->
<g id="Node000028" class="node">
<title>Node28</title>
<g id="a_Node000028"><a xlink:href="classCxxAstVisitorComponentIndexer.html#af923c3c38be44ee223152fe1ba1cc9f1" target="_top" xlink:title=" ">
<polygon fill="white" stroke="#666666" points="405.5,-1125.11 230.5,-1125.11 230.5,-1091.61 405.5,-1091.61 405.5,-1125.11"/>
<text text-anchor="start" x="238.5" y="-1111.61" font-family="Helvetica,sans-Serif" font-size="10.00">CxxAstVisitorComponentIndexer</text>
<text text-anchor="middle" x="318" y="-1098.86" font-family="Helvetica,sans-Serif" font-size="10.00">::visitUsingDecl</text>
</a>
</g>
</g>
<!-- Node4&#45;&gt;Node28 -->
<g id="edge32_Node000004_Node000028" class="edge">
<title>Node4&#45;&gt;Node28</title>
<g id="a_edge32_Node000004_Node000028"><a xlink:title=" ">
<path fill="none" stroke="#63b8ff" d="M545.66,-779.68C539.91,-843.74 516.71,-1000.54 425,-1082.36 419.34,-1087.4 412.87,-1091.51 405.97,-1094.84"/>
<polygon fill="#63b8ff" stroke="#63b8ff" points="549.12,-780.26 546.44,-770 542.14,-779.69 549.12,-780.26"/>
</a>
</g>
</g>
<!-- Node29 -->
<g id="Node000029" class="node">
<title>Node29</title>
<g id="a_Node000029"><a xlink:href="classCxxAstVisitorComponentIndexer.html#afa4db831372759933246621722800f10" target="_top" xlink:title=" ">
<polygon fill="white" stroke="#666666" points="405.5,-1073.11 230.5,-1073.11 230.5,-1039.61 405.5,-1039.61 405.5,-1073.11"/>
<text text-anchor="start" x="238.5" y="-1059.61" font-family="Helvetica,sans-Serif" font-size="10.00">CxxAstVisitorComponentIndexer</text>
<text text-anchor="middle" x="318" y="-1046.86" font-family="Helvetica,sans-Serif" font-size="10.00">::visitUsingDirectiveDecl</text>
</a>
</g>
</g>
<!-- Node4&#45;&gt;Node29 -->
<g id="edge33_Node000004_Node000029" class="edge">
<title>Node4&#45;&gt;Node29</title>
<g id="a_edge33_Node000004_Node000029"><a xlink:title=" ">
<path fill="none" stroke="#63b8ff" d="M543.43,-779.87C533.77,-836.62 504.05,-963.94 425,-1030.36 419.27,-1035.17 412.78,-1039.12 405.91,-1042.35"/>
<polygon fill="#63b8ff" stroke="#63b8ff" points="546.87,-780.49 545,-770.07 539.96,-779.39 546.87,-780.49"/>
</a>
</g>
</g>
<!-- Node30 -->
<g id="Node000030" class="node">
<title>Node30</title>
<g id="a_Node000030"><a xlink:href="classCxxAstVisitorComponentIndexer.html#af981d167e3fec957e93e26ff28890cd8" target="_top" xlink:title=" ">
<polygon fill="white" stroke="#666666" points="415.25,-1021.11 220.75,-1021.11 220.75,-987.61 415.25,-987.61 415.25,-1021.11"/>
<text text-anchor="start" x="228.75" y="-1007.61" font-family="Helvetica,sans-Serif" font-size="10.00">CxxAstVisitorComponentIndexer</text>
<text text-anchor="middle" x="318" y="-994.86" font-family="Helvetica,sans-Serif" font-size="10.00">::visitVarTemplateSpecializationDecl</text>
</a>
</g>
</g>
<!-- Node4&#45;&gt;Node30 -->
<g id="edge35_Node000004_Node000030" class="edge">
<title>Node4&#45;&gt;Node30</title>
<g id="a_edge35_Node000004_Node000030"><a xlink:title=" ">
<path fill="none" stroke="#63b8ff" d="M540.46,-779.29C526.79,-827.61 491.93,-926.6 425,-978.36 420.65,-981.72 415.93,-984.65 410.97,-987.21"/>
<polygon fill="#63b8ff" stroke="#63b8ff" points="543.77,-780.45 543.02,-769.88 537.02,-778.61 543.77,-780.45"/>
</a>
</g>
</g>
<!-- Node9&#45;&gt;Node10 -->
<g id="edge12_Node000009_Node000010" class="edge">
<title>Node9&#45;&gt;Node10</title>
<g id="a_edge12_Node000009_Node000010"><a xlink:title=" ">
<path fill="none" stroke="#63b8ff" d="M257.25,-689.28C219.94,-702.34 172.51,-718.95 137.44,-731.22"/>
<polygon fill="#63b8ff" stroke="#63b8ff" points="258.27,-692.63 266.55,-686.02 255.96,-686.02 258.27,-692.63"/>
</a>
</g>
</g>
<!-- Node9&#45;&gt;Node11 -->
<g id="edge13_Node000009_Node000011" class="edge">
<title>Node9&#45;&gt;Node11</title>
<g id="a_edge13_Node000009_Node000011"><a xlink:title=" ">
<path fill="none" stroke="#63b8ff" d="M203.09,-679.32C193.77,-680.22 184.45,-681.12 175.37,-681.99"/>
<polygon fill="#63b8ff" stroke="#63b8ff" points="203.32,-682.82 212.94,-678.38 202.65,-675.85 203.32,-682.82"/>
</a>
</g>
</g>
<!-- Node9&#45;&gt;Node12 -->
<g id="edge14_Node000009_Node000012" class="edge">
<title>Node9&#45;&gt;Node12</title>
<g id="a_edge14_Node000009_Node000012"><a xlink:title=" ">
<path fill="none" stroke="#63b8ff" d="M212.15,-649.09C199.83,-646.82 187.37,-644.53 175.34,-642.32"/>
<polygon fill="#63b8ff" stroke="#63b8ff" points="211.44,-652.51 221.91,-650.88 212.71,-645.63 211.44,-652.51"/>
</a>
</g>
</g>
<!-- Node32 -->
<g id="Node000032" class="node">
<title>Node32</title>
<g id="a_Node000032"><a xlink:href="classCxxDeclNameResolver.html#a427ae03c05aefd651485ea6f624ef052" target="_top" xlink:title=" ">
<polygon fill="white" stroke="#666666" points="382.25,-71.11 253.75,-71.11 253.75,-37.61 382.25,-37.61 382.25,-71.11"/>
<text text-anchor="start" x="261.75" y="-57.61" font-family="Helvetica,sans-Serif" font-size="10.00">CxxDeclNameResolver</text>
<text text-anchor="middle" x="318" y="-44.86" font-family="Helvetica,sans-Serif" font-size="10.00">::getDeclName</text>
</a>
</g>
</g>
<!-- Node31&#45;&gt;Node32 -->
<g id="edge37_Node000031_Node000032" class="edge">
<title>Node31&#45;&gt;Node32</title>
<g id="a_edge37_Node000031_Node000032"><a xlink:title=" ">
<path fill="none" stroke="#63b8ff" d="M452.87,-61.39C429.24,-60.15 404.46,-58.85 382.73,-57.7"/>
<polygon fill="#63b8ff" stroke="#63b8ff" points="452.68,-64.88 462.85,-61.91 453.05,-57.89 452.68,-64.88"/>
</a>
</g>
</g>
<!-- Node32&#45;&gt;Node1 -->
<g id="edge42_Node000032_Node000001" class="edge">
<title>Node32&#45;&gt;Node1</title>
<g id="a_edge42_Node000032_Node000001"><a xlink:title=" ">
<path fill="none" stroke="#63b8ff" d="M367.84,-33.07C435.66,-7.17 558.7,26.11 636,-34.36 698.42,-83.18 727.12,-346.97 733.73,-417.18"/>
<polygon fill="#63b8ff" stroke="#63b8ff" points="366.89,-29.68 358.86,-36.59 369.45,-36.2 366.89,-29.68"/>
</a>
</g>
</g>
<!-- Node32&#45;&gt;Node32 -->
<g id="edge41_Node000032_Node000032" class="edge">
<title>Node32&#45;&gt;Node32</title>
<g id="a_edge41_Node000032_Node000032"><a xlink:title=" ">
<path fill="none" stroke="#63b8ff" d="M356.7,-82.5C350.4,-86.46 337.5,-89.11 318,-89.11 283.33,-89.11 269.52,-80.72 276.56,-71.52"/>
<polygon fill="#63b8ff" stroke="#63b8ff" points="360.05,-83.54 359.07,-72.99 353.26,-81.85 360.05,-83.54"/>
</a>
</g>
</g>
<!-- Node33 -->
<g id="Node000033" class="node">
<title>Node33</title>
<g id="a_Node000033"><a xlink:href="classCxxDeclNameResolver.html#a34058009a9001c20981e268a4a9b7877" target="_top" xlink:title=" ">
<polygon fill="white" stroke="#666666" points="151.75,-103.11 23.25,-103.11 23.25,-69.61 151.75,-69.61 151.75,-103.11"/>
<text text-anchor="start" x="31.25" y="-89.61" font-family="Helvetica,sans-Serif" font-size="10.00">CxxDeclNameResolver</text>
<text text-anchor="middle" x="87.5" y="-76.86" font-family="Helvetica,sans-Serif" font-size="10.00">::getContextName</text>
</a>
</g>
</g>
<!-- Node32&#45;&gt;Node33 -->
<g id="edge38_Node000032_Node000033" class="edge">
<title>Node32&#45;&gt;Node33</title>
<g id="a_edge38_Node000032_Node000033"><a xlink:title=" ">
<path fill="none" stroke="#63b8ff" d="M242.01,-64.86C212.97,-68.93 180.07,-73.53 152.2,-77.44"/>
<polygon fill="#63b8ff" stroke="#63b8ff" points="242.43,-68.33 251.85,-63.48 241.46,-61.4 242.43,-68.33"/>
</a>
</g>
</g>
<!-- Node33&#45;&gt;Node1 -->
<g id="edge40_Node000033_Node000001" class="edge">
<title>Node33&#45;&gt;Node1</title>
<g id="a_edge40_Node000033_Node000001"><a xlink:title=" ">
<path fill="none" stroke="#63b8ff" d="M163.25,-95.02C255.19,-106.06 401.97,-125.05 425,-136.36 567.13,-206.14 686.62,-364.71 723.5,-417.16"/>
<polygon fill="#63b8ff" stroke="#63b8ff" points="163.89,-91.58 153.55,-93.86 163.06,-98.53 163.89,-91.58"/>
</a>
</g>
</g>
<!-- Node33&#45;&gt;Node33 -->
<g id="edge39_Node000033_Node000033" class="edge">
<title>Node33&#45;&gt;Node33</title>
<g id="a_edge39_Node000033_Node000033"><a xlink:title=" ">
<path fill="none" stroke="#63b8ff" d="M126.2,-114.5C119.9,-118.46 107,-121.11 87.5,-121.11 52.83,-121.11 39.02,-112.72 46.06,-103.52"/>
<polygon fill="#63b8ff" stroke="#63b8ff" points="129.55,-115.54 128.57,-104.99 122.76,-113.85 129.55,-115.54"/>
</a>
</g>
</g>
</g>
</svg>
