<?xml version="1.0" encoding="UTF-8" standalone="no"?>
<!DOCTYPE svg PUBLIC "-//W3C//DTD SVG 1.1//EN"
 "http://www.w3.org/Graphics/SVG/1.1/DTD/svg11.dtd">
<!-- Generated by graphviz version 7.1.0 (0)
 -->
<!-- Title: SourceGroup::filterToContainedFilePaths Pages: 1 -->
<svg width="476pt" height="38pt"
 viewBox="0.00 0.00 476.00 38.00" xmlns="http://www.w3.org/2000/svg" xmlns:xlink="http://www.w3.org/1999/xlink">
<g id="graph0" class="graph" transform="scale(1 1) rotate(0) translate(4 34)">
<title>SourceGroup::filterToContainedFilePaths</title>
<!-- Node1 -->
<g id="node1" class="node">
<title>Node1</title>
<g id="a_node1"><a xlink:title=" ">
<polygon fill="#999999" stroke="#666666" points="168,-30 0,-30 0,0 168,0 168,-30"/>
<text text-anchor="start" x="8" y="-18" font-family="Helvetica,sans-Serif" font-size="10.00">SourceGroup::filterToContained</text>
<text text-anchor="middle" x="84" y="-7" font-family="Helvetica,sans-Serif" font-size="10.00">FilePaths</text>
</a>
</g>
</g>
<!-- Node2 -->
<g id="node2" class="node">
<title>Node2</title>
<g id="a_node2"><a xlink:href="classFilePathFilter.html#a4ba42cd479e2edd0a46091dcd4bb34e0" target="_top" xlink:title=" ">
<polygon fill="white" stroke="#666666" points="350,-24.5 204,-24.5 204,-5.5 350,-5.5 350,-24.5"/>
<text text-anchor="middle" x="277" y="-12.5" font-family="Helvetica,sans-Serif" font-size="10.00">FilePathFilter::areMatching</text>
</a>
</g>
</g>
<!-- Node1&#45;&gt;Node2 -->
<g id="edge1" class="edge">
<title>Node1&#45;&gt;Node2</title>
<path fill="none" stroke="#63b8ff" d="M168.5,-15C176.39,-15 184.39,-15 192.28,-15"/>
<polygon fill="#63b8ff" stroke="#63b8ff" points="192.23,-18.5 202.23,-15 192.23,-11.5 192.23,-18.5"/>
</g>
<!-- Node3 -->
<g id="node3" class="node">
<title>Node3</title>
<g id="a_node3"><a xlink:href="classFilePath.html#a989e098726c8387d4f4690bca3314ce8" target="_top" xlink:title=" ">
<polygon fill="white" stroke="#666666" points="468,-24.5 386,-24.5 386,-5.5 468,-5.5 468,-24.5"/>
<text text-anchor="middle" x="427" y="-12.5" font-family="Helvetica,sans-Serif" font-size="10.00">FilePath::wstr</text>
</a>
</g>
</g>
<!-- Node2&#45;&gt;Node3 -->
<g id="edge2" class="edge">
<title>Node2&#45;&gt;Node3</title>
<path fill="none" stroke="#63b8ff" d="M350.27,-15C358.35,-15 366.47,-15 374.23,-15"/>
<polygon fill="#63b8ff" stroke="#63b8ff" points="374.16,-18.5 384.16,-15 374.16,-11.5 374.16,-18.5"/>
</g>
</g>
</svg>
