<?xml version="1.0" encoding="UTF-8" standalone="no"?>
<!DOCTYPE svg PUBLIC "-//W3C//DTD SVG 1.1//EN"
 "http://www.w3.org/Graphics/SVG/1.1/DTD/svg11.dtd">
<!-- Generated by graphviz version 9.0.0 (0)
 -->
<!-- Title: QtCodeFileTitleBar::setIsComplete Pages: 1 -->
<svg width="1429pt" height="229pt"
 viewBox="0.00 0.00 1429.00 228.75" xmlns="http://www.w3.org/2000/svg" xmlns:xlink="http://www.w3.org/1999/xlink">
<g id="graph0" class="graph" transform="scale(1 1) rotate(0) translate(4 224.75)">
<title>QtCodeFileTitleBar::setIsComplete</title>
<!-- Node1 -->
<g id="Node000001" class="node">
<title>Node1</title>
<g id="a_Node000001"><a xlink:title=" ">
<polygon fill="#999999" stroke="#666666" points="106,-198.12 0,-198.12 0,-164.62 106,-164.62 106,-198.12"/>
<text text-anchor="start" x="8" y="-184.62" font-family="Helvetica,sans-Serif" font-size="10.00">QtCodeFileTitleBar</text>
<text text-anchor="middle" x="53" y="-171.88" font-family="Helvetica,sans-Serif" font-size="10.00">::setIsComplete</text>
</a>
</g>
</g>
<!-- Node2 -->
<g id="Node000002" class="node">
<title>Node2</title>
<g id="a_Node000002"><a xlink:href="classApplication.html#add09b97cb9b0946412db8a6636b3f144" target="_top" xlink:title=" ">
<polygon fill="white" stroke="#666666" points="275.75,-214.75 142,-214.75 142,-194 275.75,-194 275.75,-214.75"/>
<text text-anchor="middle" x="208.88" y="-201.25" font-family="Helvetica,sans-Serif" font-size="10.00">Application::getInstance</text>
</a>
</g>
</g>
<!-- Node1&#45;&gt;Node2 -->
<g id="edge1_Node000001_Node000002" class="edge">
<title>Node1&#45;&gt;Node2</title>
<g id="a_edge1_Node000001_Node000002"><a xlink:title=" ">
<path fill="none" stroke="#63b8ff" d="M106.1,-189.16C113.95,-190.34 122.19,-191.57 130.43,-192.8"/>
<polygon fill="#63b8ff" stroke="#63b8ff" points="129.74,-196.24 140.15,-194.25 130.78,-189.31 129.74,-196.24"/>
</a>
</g>
</g>
<!-- Node3 -->
<g id="Node000003" class="node">
<title>Node3</title>
<g id="a_Node000003"><a xlink:href="classQtCodeFileTitleButton.html#a3166dac49163f867f517dc8ae03bf9f5" target="_top" xlink:title=" ">
<polygon fill="white" stroke="#666666" points="269.75,-176.12 148,-176.12 148,-142.62 269.75,-142.62 269.75,-176.12"/>
<text text-anchor="start" x="156" y="-162.62" font-family="Helvetica,sans-Serif" font-size="10.00">QtCodeFileTitleButton</text>
<text text-anchor="middle" x="208.88" y="-149.88" font-family="Helvetica,sans-Serif" font-size="10.00">::setIsComplete</text>
</a>
</g>
</g>
<!-- Node1&#45;&gt;Node3 -->
<g id="edge2_Node000001_Node000003" class="edge">
<title>Node1&#45;&gt;Node3</title>
<g id="a_edge2_Node000001_Node000003"><a xlink:title=" ">
<path fill="none" stroke="#63b8ff" d="M106.1,-173.93C115.79,-172.54 126.07,-171.07 136.23,-169.62"/>
<polygon fill="#63b8ff" stroke="#63b8ff" points="136.7,-173.09 146.11,-168.21 135.71,-166.16 136.7,-173.09"/>
</a>
</g>
</g>
<!-- Node4 -->
<g id="Node000004" class="node">
<title>Node4</title>
<g id="a_Node000004"><a xlink:href="classQtCodeFileTitleButton.html#aa5adc18ac9195030e2e1baddee083f66" target="_top" xlink:title=" ">
<polygon fill="white" stroke="#666666" points="433.5,-202.12 311.75,-202.12 311.75,-168.62 433.5,-168.62 433.5,-202.12"/>
<text text-anchor="start" x="319.75" y="-188.62" font-family="Helvetica,sans-Serif" font-size="10.00">QtCodeFileTitleButton</text>
<text text-anchor="middle" x="372.62" y="-175.88" font-family="Helvetica,sans-Serif" font-size="10.00">::isComplete</text>
</a>
</g>
</g>
<!-- Node3&#45;&gt;Node4 -->
<g id="edge3_Node000003_Node000004" class="edge">
<title>Node3&#45;&gt;Node4</title>
<g id="a_edge3_Node000003_Node000004"><a xlink:title=" ">
<path fill="none" stroke="#63b8ff" d="M270.1,-169.06C279.89,-170.63 290.12,-172.27 300.14,-173.88"/>
<polygon fill="#63b8ff" stroke="#63b8ff" points="299.42,-177.31 309.85,-175.45 300.53,-170.4 299.42,-177.31"/>
</a>
</g>
</g>
<!-- Node5 -->
<g id="Node000005" class="node">
<title>Node5</title>
<g id="a_Node000005"><a xlink:href="classQtCodeFileTitleButton.html#a23c04380cbe9f6ae9fe3821bc2060fac" target="_top" xlink:title=" ">
<polygon fill="white" stroke="#666666" points="433.5,-150.12 311.75,-150.12 311.75,-116.62 433.5,-116.62 433.5,-150.12"/>
<text text-anchor="start" x="319.75" y="-136.62" font-family="Helvetica,sans-Serif" font-size="10.00">QtCodeFileTitleButton</text>
<text text-anchor="middle" x="372.62" y="-123.88" font-family="Helvetica,sans-Serif" font-size="10.00">::updateIcon</text>
</a>
</g>
</g>
<!-- Node3&#45;&gt;Node5 -->
<g id="edge4_Node000003_Node000005" class="edge">
<title>Node3&#45;&gt;Node5</title>
<g id="a_edge4_Node000003_Node000005"><a xlink:title=" ">
<path fill="none" stroke="#63b8ff" d="M270.1,-149.69C279.89,-148.12 290.12,-146.48 300.14,-144.87"/>
<polygon fill="#63b8ff" stroke="#63b8ff" points="300.53,-148.35 309.85,-143.3 299.42,-141.44 300.53,-148.35"/>
</a>
</g>
</g>
<!-- Node6 -->
<g id="Node000006" class="node">
<title>Node6</title>
<g id="a_Node000006"><a xlink:href="classFilePath.html#ae09c07f1ae9ac6f650a765cc11cc6494" target="_top" xlink:title=" ">
<polygon fill="white" stroke="#666666" points="1048.88,-140.75 957.12,-140.75 957.12,-120 1048.88,-120 1048.88,-140.75"/>
<text text-anchor="middle" x="1003" y="-127.25" font-family="Helvetica,sans-Serif" font-size="10.00">FilePath::empty</text>
</a>
</g>
</g>
<!-- Node5&#45;&gt;Node6 -->
<g id="edge5_Node000005_Node000006" class="edge">
<title>Node5&#45;&gt;Node6</title>
<g id="a_edge5_Node000005_Node000006"><a xlink:title=" ">
<path fill="none" stroke="#63b8ff" d="M433.88,-133.09C555.17,-132.51 827.27,-131.21 945.43,-130.65"/>
<polygon fill="#63b8ff" stroke="#63b8ff" points="945.22,-134.15 955.2,-130.6 945.18,-127.15 945.22,-134.15"/>
</a>
</g>
</g>
<!-- Node7 -->
<g id="Node000007" class="node">
<title>Node7</title>
<g id="a_Node000007"><a xlink:href="classResourcePaths.html#aac268005efee61f8dcba454dd4e5a097" target="_top" xlink:title=" ">
<polygon fill="white" stroke="#666666" points="662.5,-181.75 469.5,-181.75 469.5,-161 662.5,-161 662.5,-181.75"/>
<text text-anchor="middle" x="566" y="-168.25" font-family="Helvetica,sans-Serif" font-size="10.00">ResourcePaths::getGuiDirectoryPath</text>
</a>
</g>
</g>
<!-- Node5&#45;&gt;Node7 -->
<g id="edge7_Node000005_Node000007" class="edge">
<title>Node5&#45;&gt;Node7</title>
<g id="a_edge7_Node000005_Node000007"><a xlink:title=" ">
<path fill="none" stroke="#63b8ff" d="M433.91,-145.35C454.72,-149.48 478.12,-154.12 499.33,-158.34"/>
<polygon fill="#63b8ff" stroke="#63b8ff" points="498.55,-161.75 509.04,-160.26 499.92,-154.88 498.55,-161.75"/>
</a>
</g>
</g>
<!-- Node11 -->
<g id="Node000011" class="node">
<title>Node11</title>
<g id="a_Node000011"><a xlink:href="classQtSelfRefreshIconButton.html#a94b171a501840c40af377a52b3714604" target="_top" xlink:title=" ">
<polygon fill="white" stroke="#666666" points="634,-105.12 498,-105.12 498,-71.62 634,-71.62 634,-105.12"/>
<text text-anchor="start" x="506" y="-91.62" font-family="Helvetica,sans-Serif" font-size="10.00">QtSelfRefreshIconButton</text>
<text text-anchor="middle" x="566" y="-78.88" font-family="Helvetica,sans-Serif" font-size="10.00">::setIconPath</text>
</a>
</g>
</g>
<!-- Node5&#45;&gt;Node11 -->
<g id="edge11_Node000005_Node000011" class="edge">
<title>Node5&#45;&gt;Node11</title>
<g id="a_edge11_Node000005_Node000011"><a xlink:title=" ">
<path fill="none" stroke="#63b8ff" d="M433.91,-119.2C450.7,-115.25 469.18,-110.91 486.83,-106.76"/>
<polygon fill="#63b8ff" stroke="#63b8ff" points="487.29,-110.24 496.22,-104.55 485.68,-103.43 487.29,-110.24"/>
</a>
</g>
</g>
<!-- Node6&#45;&gt;Node6 -->
<g id="edge6_Node000006_Node000006" class="edge">
<title>Node6&#45;&gt;Node6</title>
<g id="a_edge6_Node000006_Node000006"><a xlink:title=" ">
<path fill="none" stroke="#63b8ff" d="M974.92,-141.15C963.69,-149.81 973.05,-158.75 1003,-158.75 1019.38,-158.75 1029.6,-156.08 1033.66,-152.24"/>
<polygon fill="#63b8ff" stroke="#63b8ff" points="1037.1,-151.57 1031.42,-142.62 1030.28,-153.15 1037.1,-151.57"/>
</a>
</g>
</g>
<!-- Node8 -->
<g id="Node000008" class="node">
<title>Node8</title>
<g id="a_Node000008"><a xlink:href="classFilePath.html#a1f9e209dcb9a8d2b3d39ec6cfdd5c17f" target="_top" xlink:title=" ">
<polygon fill="white" stroke="#666666" points="859.62,-220.75 739.38,-220.75 739.38,-200 859.62,-200 859.62,-220.75"/>
<text text-anchor="middle" x="799.5" y="-207.25" font-family="Helvetica,sans-Serif" font-size="10.00">FilePath::concatenate</text>
</a>
</g>
</g>
<!-- Node7&#45;&gt;Node8 -->
<g id="edge8_Node000007_Node000008" class="edge">
<title>Node7&#45;&gt;Node8</title>
<g id="a_edge8_Node000007_Node000008"><a xlink:title=" ">
<path fill="none" stroke="#63b8ff" d="M631.49,-182.24C661.51,-187.3 697.31,-193.33 728.04,-198.51"/>
<polygon fill="#63b8ff" stroke="#63b8ff" points="727.18,-201.91 737.63,-200.12 728.35,-195.01 727.18,-201.91"/>
</a>
</g>
</g>
<!-- Node10 -->
<g id="Node000010" class="node">
<title>Node10</title>
<g id="a_Node000010"><a xlink:href="classAppPath.html#afb2974614a9eee22c6f8a75fada9ac23" target="_top" xlink:title=" ">
<polygon fill="white" stroke="#666666" points="900.5,-181.75 698.5,-181.75 698.5,-161 900.5,-161 900.5,-181.75"/>
<text text-anchor="middle" x="799.5" y="-168.25" font-family="Helvetica,sans-Serif" font-size="10.00">AppPath::getSharedDataDirectoryPath</text>
</a>
</g>
</g>
<!-- Node7&#45;&gt;Node10 -->
<g id="edge10_Node000007_Node000010" class="edge">
<title>Node7&#45;&gt;Node10</title>
<g id="a_edge10_Node000007_Node000010"><a xlink:title=" ">
<path fill="none" stroke="#63b8ff" d="M662.83,-171.38C670.78,-171.38 678.85,-171.38 686.9,-171.38"/>
<polygon fill="#63b8ff" stroke="#63b8ff" points="686.74,-174.88 696.74,-171.38 686.74,-167.88 686.74,-174.88"/>
</a>
</g>
</g>
<!-- Node9 -->
<g id="Node000009" class="node">
<title>Node9</title>
<g id="a_Node000009"><a xlink:href="classFilePath.html#a544387c4aea50aec855062fd02e436ae" target="_top" xlink:title=" ">
<polygon fill="white" stroke="#666666" points="1051.88,-220.75 954.12,-220.75 954.12,-200 1051.88,-200 1051.88,-220.75"/>
<text text-anchor="middle" x="1003" y="-207.25" font-family="Helvetica,sans-Serif" font-size="10.00">FilePath::getPath</text>
</a>
</g>
</g>
<!-- Node8&#45;&gt;Node9 -->
<g id="edge9_Node000008_Node000009" class="edge">
<title>Node8&#45;&gt;Node9</title>
<g id="a_edge9_Node000008_Node000009"><a xlink:title=" ">
<path fill="none" stroke="#63b8ff" d="M859.87,-210.38C885.96,-210.38 916.53,-210.38 942.62,-210.38"/>
<polygon fill="#63b8ff" stroke="#63b8ff" points="942.37,-213.88 952.37,-210.38 942.37,-206.88 942.37,-213.88"/>
</a>
</g>
</g>
<!-- Node12 -->
<g id="Node000012" class="node">
<title>Node12</title>
<g id="a_Node000012"><a xlink:href="classQtSelfRefreshIconButton.html#affa285341fcf0a96079707550b15f0e6" target="_top" xlink:title=" ">
<polygon fill="white" stroke="#666666" points="867.5,-105.12 731.5,-105.12 731.5,-71.62 867.5,-71.62 867.5,-105.12"/>
<text text-anchor="start" x="739.5" y="-91.62" font-family="Helvetica,sans-Serif" font-size="10.00">QtSelfRefreshIconButton</text>
<text text-anchor="middle" x="799.5" y="-78.88" font-family="Helvetica,sans-Serif" font-size="10.00">::refresh</text>
</a>
</g>
</g>
<!-- Node11&#45;&gt;Node12 -->
<g id="edge12_Node000011_Node000012" class="edge">
<title>Node11&#45;&gt;Node12</title>
<g id="a_edge12_Node000011_Node000012"><a xlink:title=" ">
<path fill="none" stroke="#63b8ff" d="M634.27,-88.38C661.02,-88.38 691.99,-88.38 719.78,-88.38"/>
<polygon fill="#63b8ff" stroke="#63b8ff" points="719.55,-91.88 729.55,-88.38 719.55,-84.88 719.55,-91.88"/>
</a>
</g>
</g>
<!-- Node12&#45;&gt;Node6 -->
<g id="edge20_Node000012_Node000006" class="edge">
<title>Node12&#45;&gt;Node6</title>
<g id="a_edge20_Node000012_Node000006"><a xlink:title=" ">
<path fill="none" stroke="#63b8ff" d="M867.88,-102.42C893.16,-107.69 921.61,-113.62 945.77,-118.66"/>
<polygon fill="#63b8ff" stroke="#63b8ff" points="944.92,-122.05 955.42,-120.67 946.35,-115.2 944.92,-122.05"/>
</a>
</g>
</g>
<!-- Node13 -->
<g id="Node000013" class="node">
<title>Node13</title>
<g id="a_Node000013"><a xlink:href="namespaceutility.html#ac6fc0b4935fe77c3d7178bc38508e415" target="_top" xlink:title=" ">
<polygon fill="white" stroke="#666666" points="1069.5,-98.75 936.5,-98.75 936.5,-78 1069.5,-78 1069.5,-98.75"/>
<text text-anchor="middle" x="1003" y="-85.25" font-family="Helvetica,sans-Serif" font-size="10.00">utility::createButtonIcon</text>
</a>
</g>
</g>
<!-- Node12&#45;&gt;Node13 -->
<g id="edge13_Node000012_Node000013" class="edge">
<title>Node12&#45;&gt;Node13</title>
<g id="a_edge13_Node000012_Node000013"><a xlink:title=" ">
<path fill="none" stroke="#63b8ff" d="M867.88,-88.38C886.07,-88.38 905.9,-88.38 924.59,-88.38"/>
<polygon fill="#63b8ff" stroke="#63b8ff" points="924.54,-91.88 934.54,-88.38 924.54,-84.88 924.54,-91.88"/>
</a>
</g>
</g>
<!-- Node14 -->
<g id="Node000014" class="node">
<title>Node14</title>
<g id="a_Node000014"><a xlink:href="namespaceutility.html#a4bf1871a6845e609c024121372197d78" target="_top" xlink:title=" ">
<polygon fill="white" stroke="#666666" points="1239.62,-176.75 1114.88,-176.75 1114.88,-156 1239.62,-156 1239.62,-176.75"/>
<text text-anchor="middle" x="1177.25" y="-163.25" font-family="Helvetica,sans-Serif" font-size="10.00">utility::colorizePixmap</text>
</a>
</g>
</g>
<!-- Node13&#45;&gt;Node14 -->
<g id="edge14_Node000013_Node000014" class="edge">
<title>Node13&#45;&gt;Node14</title>
<g id="a_edge14_Node000013_Node000014"><a xlink:title=" ">
<path fill="none" stroke="#63b8ff" d="M1043.72,-99.22C1052.54,-102.46 1061.61,-106.49 1069.5,-111.38 1088.47,-123.12 1086.17,-135.22 1105.5,-146.38 1108.65,-148.19 1111.98,-149.85 1115.4,-151.37"/>
<polygon fill="#63b8ff" stroke="#63b8ff" points="1113.89,-154.54 1124.48,-154.95 1116.45,-148.02 1113.89,-154.54"/>
</a>
</g>
</g>
<!-- Node15 -->
<g id="Node000015" class="node">
<title>Node15</title>
<g id="a_Node000015"><a xlink:href="classColorScheme.html#aee1ebc3d8135a7046491f25b13a97812" target="_top" xlink:title=" ">
<polygon fill="white" stroke="#666666" points="1241.12,-137.75 1113.38,-137.75 1113.38,-117 1241.12,-117 1241.12,-137.75"/>
<text text-anchor="middle" x="1177.25" y="-124.25" font-family="Helvetica,sans-Serif" font-size="10.00">ColorScheme::getColor</text>
</a>
</g>
</g>
<!-- Node13&#45;&gt;Node15 -->
<g id="edge15_Node000013_Node000015" class="edge">
<title>Node13&#45;&gt;Node15</title>
<g id="a_edge15_Node000013_Node000015"><a xlink:title=" ">
<path fill="none" stroke="#63b8ff" d="M1051.98,-99.24C1072.15,-103.8 1095.81,-109.16 1117.05,-113.97"/>
<polygon fill="#63b8ff" stroke="#63b8ff" points="1116.23,-117.37 1126.75,-116.17 1117.77,-110.55 1116.23,-117.37"/>
</a>
</g>
</g>
<!-- Node16 -->
<g id="Node000016" class="node">
<title>Node16</title>
<g id="a_Node000016"><a xlink:href="classColorScheme.html#ab65eb4d23939345b1569002b38ed3caf" target="_top" xlink:title=" ">
<polygon fill="white" stroke="#666666" points="1249,-98.75 1105.5,-98.75 1105.5,-78 1249,-78 1249,-98.75"/>
<text text-anchor="middle" x="1177.25" y="-85.25" font-family="Helvetica,sans-Serif" font-size="10.00">ColorScheme::getInstance</text>
</a>
</g>
</g>
<!-- Node13&#45;&gt;Node16 -->
<g id="edge16_Node000013_Node000016" class="edge">
<title>Node13&#45;&gt;Node16</title>
<g id="a_edge16_Node000013_Node000016"><a xlink:title=" ">
<path fill="none" stroke="#63b8ff" d="M1069.61,-88.38C1077.5,-88.38 1085.62,-88.38 1093.71,-88.38"/>
<polygon fill="#63b8ff" stroke="#63b8ff" points="1093.57,-91.88 1103.57,-88.38 1093.57,-84.88 1093.57,-91.88"/>
</a>
</g>
</g>
<!-- Node17 -->
<g id="Node000017" class="node">
<title>Node17</title>
<g id="a_Node000017"><a xlink:href="classColorScheme.html#ac583e1b307c4167a2e967335a2f4d0f0" target="_top" xlink:title=" ">
<polygon fill="white" stroke="#666666" points="1241.88,-59.75 1112.62,-59.75 1112.62,-39 1241.88,-39 1241.88,-59.75"/>
<text text-anchor="middle" x="1177.25" y="-46.25" font-family="Helvetica,sans-Serif" font-size="10.00">ColorScheme::hasColor</text>
</a>
</g>
</g>
<!-- Node13&#45;&gt;Node17 -->
<g id="edge17_Node000013_Node000017" class="edge">
<title>Node13&#45;&gt;Node17</title>
<g id="a_edge17_Node000013_Node000017"><a xlink:title=" ">
<path fill="none" stroke="#63b8ff" d="M1051.98,-77.51C1072.15,-72.95 1095.81,-67.59 1117.05,-62.78"/>
<polygon fill="#63b8ff" stroke="#63b8ff" points="1117.77,-66.2 1126.75,-60.58 1116.23,-59.38 1117.77,-66.2"/>
</a>
</g>
</g>
<!-- Node19 -->
<g id="Node000019" class="node">
<title>Node19</title>
<g id="a_Node000019"><a xlink:href="classFilePath.html#a989e098726c8387d4f4690bca3314ce8" target="_top" xlink:title=" ">
<polygon fill="white" stroke="#666666" points="1217.88,-20.75 1136.62,-20.75 1136.62,0 1217.88,0 1217.88,-20.75"/>
<text text-anchor="middle" x="1177.25" y="-7.25" font-family="Helvetica,sans-Serif" font-size="10.00">FilePath::wstr</text>
</a>
</g>
</g>
<!-- Node13&#45;&gt;Node19 -->
<g id="edge19_Node000013_Node000019" class="edge">
<title>Node13&#45;&gt;Node19</title>
<g id="a_edge19_Node000013_Node000019"><a xlink:title=" ">
<path fill="none" stroke="#63b8ff" d="M1019.9,-77.66C1039.37,-64.92 1073.69,-43.73 1105.5,-30.38 1111.91,-27.68 1118.8,-25.23 1125.66,-23.04"/>
<polygon fill="#63b8ff" stroke="#63b8ff" points="1126.36,-26.49 1134.92,-20.25 1124.34,-19.79 1126.36,-26.49"/>
</a>
</g>
</g>
<!-- Node18 -->
<g id="Node000018" class="node">
<title>Node18</title>
<g id="a_Node000018"><a xlink:href="classSettings.html#a6cc133c8dfcdc0975d913530d71db42e" target="_top" xlink:title=" ">
<polygon fill="white" stroke="#666666" points="1421,-59.75 1285,-59.75 1285,-39 1421,-39 1421,-59.75"/>
<text text-anchor="middle" x="1353" y="-46.25" font-family="Helvetica,sans-Serif" font-size="10.00">Settings::isValueDefined</text>
</a>
</g>
</g>
<!-- Node17&#45;&gt;Node18 -->
<g id="edge18_Node000017_Node000018" class="edge">
<title>Node17&#45;&gt;Node18</title>
<g id="a_edge18_Node000017_Node000018"><a xlink:title=" ">
<path fill="none" stroke="#63b8ff" d="M1241.96,-49.38C1252.2,-49.38 1262.91,-49.38 1273.45,-49.38"/>
<polygon fill="#63b8ff" stroke="#63b8ff" points="1273.28,-52.88 1283.28,-49.38 1273.28,-45.88 1273.28,-52.88"/>
</a>
</g>
</g>
</g>
</svg>
