<?xml version="1.0" encoding="UTF-8" standalone="no"?>
<!DOCTYPE svg PUBLIC "-//W3C//DTD SVG 1.1//EN"
 "http://www.w3.org/Graphics/SVG/1.1/DTD/svg11.dtd">
<!-- Generated by graphviz version 9.0.0 (0)
 -->
<!-- Title: SourceGroupSettingsWithCxxPchOptions Pages: 1 -->
<svg width="660pt" height="244pt"
 viewBox="0.00 0.00 660.12 244.25" xmlns="http://www.w3.org/2000/svg" xmlns:xlink="http://www.w3.org/1999/xlink">
<g id="graph0" class="graph" transform="scale(1 1) rotate(0) translate(4 240.25)">
<title>SourceGroupSettingsWithCxxPchOptions</title>
<!-- Node1 -->
<g id="Node000001" class="node">
<title>Node1</title>
<g id="a_Node000001"><a xlink:title=" ">
<polygon fill="#999999" stroke="#666666" points="424.62,-33.5 265.38,-33.5 265.38,0 424.62,0 424.62,-33.5"/>
<text text-anchor="start" x="273.38" y="-20" font-family="Helvetica,sans-Serif" font-size="10.00">SourceGroupSettingsWithCxx</text>
<text text-anchor="middle" x="345" y="-7.25" font-family="Helvetica,sans-Serif" font-size="10.00">PchOptions</text>
</a>
</g>
</g>
<!-- Node2 -->
<g id="Node000002" class="node">
<title>Node2</title>
<g id="a_Node000002"><a xlink:href="classSourceGroupSettingsComponent.html" target="_top" xlink:title=" ">
<polygon fill="white" stroke="#666666" points="196.12,-103 21.88,-103 21.88,-82.25 196.12,-82.25 196.12,-103"/>
<text text-anchor="middle" x="109" y="-89.5" font-family="Helvetica,sans-Serif" font-size="10.00">SourceGroupSettingsComponent</text>
</a>
</g>
</g>
<!-- Node2&#45;&gt;Node1 -->
<g id="edge1_Node000001_Node000002" class="edge">
<title>Node2&#45;&gt;Node1</title>
<g id="a_edge1_Node000001_Node000002"><a xlink:title=" ">
<path fill="none" stroke="#63b8ff" d="M151.24,-78.4C190.98,-65.96 250.57,-47.31 293.17,-33.97"/>
<polygon fill="#63b8ff" stroke="#63b8ff" points="150.28,-75.04 141.78,-81.36 152.37,-81.72 150.28,-75.04"/>
</a>
</g>
</g>
<!-- Node3 -->
<g id="Node000003" class="node">
<title>Node3</title>
<g id="a_Node000003"><a xlink:href="classSourceGroupSettingsBase.html" target="_top" xlink:title=" ">
<polygon fill="white" stroke="#666666" points="142,-229.88 0,-229.88 0,-209.12 142,-209.12 142,-229.88"/>
<text text-anchor="middle" x="71" y="-216.38" font-family="Helvetica,sans-Serif" font-size="10.00">SourceGroupSettingsBase</text>
</a>
</g>
</g>
<!-- Node3&#45;&gt;Node2 -->
<g id="edge2_Node000002_Node000003" class="edge">
<title>Node3&#45;&gt;Node2</title>
<g id="a_edge2_Node000002_Node000003"><a xlink:title=" ">
<path fill="none" stroke="#63b8ff" d="M77.33,-197.7C85.64,-170.39 99.88,-123.58 106.03,-103.38"/>
<polygon fill="#63b8ff" stroke="#63b8ff" points="73.99,-196.67 74.42,-207.25 80.68,-198.71 73.99,-196.67"/>
</a>
</g>
</g>
<!-- Node4 -->
<g id="Node000004" class="node">
<title>Node4</title>
<g id="a_Node000004"><a xlink:href="classFilePath.html" target="_top" xlink:title=" ">
<polygon fill="white" stroke="#666666" points="306.12,-103 251.88,-103 251.88,-82.25 306.12,-82.25 306.12,-103"/>
<text text-anchor="middle" x="279" y="-89.5" font-family="Helvetica,sans-Serif" font-size="10.00">FilePath</text>
</a>
</g>
</g>
<!-- Node4&#45;&gt;Node1 -->
<g id="edge3_Node000001_Node000004" class="edge">
<title>Node4&#45;&gt;Node1</title>
<g id="a_edge3_Node000001_Node000004"><a xlink:title=" ">
<path fill="none" stroke="#9a32cd" stroke-dasharray="5,2" d="M281.48,-70.74C283.04,-64.11 285.59,-57.06 289.75,-51.5 295,-44.48 302.18,-38.6 309.63,-33.83"/>
<polygon fill="#9a32cd" stroke="#9a32cd" points="278.07,-69.89 279.85,-80.34 284.97,-71.06 278.07,-69.89"/>
</a>
</g>
<text text-anchor="middle" x="339.12" y="-54.75" font-family="Helvetica,sans-Serif" font-size="10.00" fill="grey"> m_pchInputFilePath</text>
</g>
<!-- Node5 -->
<g id="Node000005" class="node">
<title>Node5</title>
<g id="a_Node000005"><a xlink:title=" ">
<polygon fill="white" stroke="#666666" points="272,-236.25 160,-236.25 160,-202.75 272,-202.75 272,-236.25"/>
<text text-anchor="start" x="168" y="-222.75" font-family="Helvetica,sans-Serif" font-size="10.00">unique_ptr&lt; boost::</text>
<text text-anchor="middle" x="216" y="-210" font-family="Helvetica,sans-Serif" font-size="10.00">filesystem::path &gt;</text>
</a>
</g>
</g>
<!-- Node5&#45;&gt;Node4 -->
<g id="edge4_Node000004_Node000005" class="edge">
<title>Node5&#45;&gt;Node4</title>
<g id="a_edge4_Node000004_Node000005"><a xlink:title=" ">
<path fill="none" stroke="#9a32cd" stroke-dasharray="5,2" d="M208.97,-191.45C205.15,-170.49 203.63,-141.65 217.25,-121 224.93,-109.35 238.82,-102.62 251.48,-98.75"/>
<polygon fill="#9a32cd" stroke="#9a32cd" points="205.49,-191.93 210.99,-200.99 212.34,-190.48 205.49,-191.93"/>
</a>
</g>
<text text-anchor="middle" x="237.88" y="-149.75" font-family="Helvetica,sans-Serif" font-size="10.00" fill="grey"> m_path</text>
</g>
<!-- Node6 -->
<g id="Node000006" class="node">
<title>Node6</title>
<g id="a_Node000006"><a xlink:title=" ">
<polygon fill="white" stroke="#666666" points="374.5,-229.88 337.5,-229.88 337.5,-209.12 374.5,-209.12 374.5,-229.88"/>
<text text-anchor="middle" x="356" y="-216.38" font-family="Helvetica,sans-Serif" font-size="10.00">bool</text>
</a>
</g>
</g>
<!-- Node6&#45;&gt;Node1 -->
<g id="edge7_Node000001_Node000006" class="edge">
<title>Node6&#45;&gt;Node1</title>
<g id="a_edge7_Node000001_Node000006"><a xlink:title=" ">
<path fill="none" stroke="#9a32cd" stroke-dasharray="5,2" d="M377.19,-201.09C381.59,-196.3 385.61,-190.75 388,-184.75 409.93,-129.74 413.9,-104.76 388,-51.5 384.68,-44.67 379.24,-38.82 373.32,-33.99"/>
<polygon fill="#9a32cd" stroke="#9a32cd" points="375.01,-198.32 370.22,-207.78 379.86,-203.37 375.01,-198.32"/>
</a>
</g>
<text text-anchor="middle" x="458.88" y="-89.5" font-family="Helvetica,sans-Serif" font-size="10.00" fill="grey"> m_useCompilerFlags</text>
</g>
<!-- Node6&#45;&gt;Node4 -->
<g id="edge5_Node000004_Node000006" class="edge">
<title>Node6&#45;&gt;Node4</title>
<g id="a_edge5_Node000004_Node000006"><a xlink:title=" ">
<path fill="none" stroke="#9a32cd" stroke-dasharray="5,2" d="M326.39,-213.42C309.75,-208.89 290.32,-200.43 280,-184.75 263.39,-159.51 271.01,-121.21 275.95,-103.38"/>
<polygon fill="#9a32cd" stroke="#9a32cd" points="325.3,-216.76 335.84,-215.62 326.89,-209.94 325.3,-216.76"/>
</a>
</g>
<text text-anchor="middle" x="334" y="-175.25" font-family="Helvetica,sans-Serif" font-size="10.00" fill="grey"> m_canonicalized</text>
<text text-anchor="middle" x="334" y="-162.5" font-family="Helvetica,sans-Serif" font-size="10.00" fill="grey">m_checkedExists</text>
<text text-anchor="middle" x="334" y="-149.75" font-family="Helvetica,sans-Serif" font-size="10.00" fill="grey">m_checkedIsDirectory</text>
<text text-anchor="middle" x="334" y="-137" font-family="Helvetica,sans-Serif" font-size="10.00" fill="grey">m_exists</text>
<text text-anchor="middle" x="334" y="-124.25" font-family="Helvetica,sans-Serif" font-size="10.00" fill="grey">m_isDirectory</text>
</g>
<!-- Node7 -->
<g id="Node000007" class="node">
<title>Node7</title>
<g id="a_Node000007"><a xlink:title=" ">
<polygon fill="white" stroke="#666666" points="652.12,-103 525.88,-103 525.88,-82.25 652.12,-82.25 652.12,-103"/>
<text text-anchor="middle" x="589" y="-89.5" font-family="Helvetica,sans-Serif" font-size="10.00">vector&lt; std::wstring &gt;</text>
</a>
</g>
</g>
<!-- Node7&#45;&gt;Node1 -->
<g id="edge6_Node000001_Node000007" class="edge">
<title>Node7&#45;&gt;Node1</title>
<g id="a_edge6_Node000001_Node000007"><a xlink:title=" ">
<path fill="none" stroke="#9a32cd" stroke-dasharray="5,2" d="M545.59,-78.48C504.51,-66.04 442.72,-47.34 398.59,-33.97"/>
<polygon fill="#9a32cd" stroke="#9a32cd" points="544.56,-81.83 555.15,-81.38 546.59,-75.13 544.56,-81.83"/>
</a>
</g>
<text text-anchor="middle" x="526.75" y="-54.75" font-family="Helvetica,sans-Serif" font-size="10.00" fill="grey"> m_pchFlags</text>
</g>
</g>
</svg>
