<?xml version="1.0" encoding="UTF-8" standalone="no"?>
<!DOCTYPE svg PUBLIC "-//W3C//DTD SVG 1.1//EN"
 "http://www.w3.org/Graphics/SVG/1.1/DTD/svg11.dtd">
<!-- Generated by graphviz version 9.0.0 (0)
 -->
<!-- Title: NodeTypeSet::containsMatching Pages: 1 -->
<svg width="366pt" height="94pt"
 viewBox="0.00 0.00 366.25 93.50" xmlns="http://www.w3.org/2000/svg" xmlns:xlink="http://www.w3.org/1999/xlink">
<g id="graph0" class="graph" transform="scale(1 1) rotate(0) translate(4 89.5)">
<title>NodeTypeSet::containsMatching</title>
<!-- Node1 -->
<g id="Node000001" class="node">
<title>Node1</title>
<g id="a_Node000001"><a xlink:title=" ">
<polygon fill="#999999" stroke="#666666" points="358.25,-53.12 186.25,-53.12 186.25,-32.38 358.25,-32.38 358.25,-53.12"/>
<text text-anchor="middle" x="272.25" y="-39.62" font-family="Helvetica,sans-Serif" font-size="10.00">NodeTypeSet::containsMatching</text>
</a>
</g>
</g>
<!-- Node2 -->
<g id="Node000002" class="node">
<title>Node2</title>
<g id="a_Node000002"><a xlink:href="classPersistentStorage.html#a6e9bf015702ab246b02e348a1ea6ae00" target="_top" xlink:title=" ">
<polygon fill="white" stroke="#666666" points="150.25,-85.5 0,-85.5 0,-52 150.25,-52 150.25,-85.5"/>
<text text-anchor="start" x="8" y="-72" font-family="Helvetica,sans-Serif" font-size="10.00">PersistentStorage::</text>
<text text-anchor="middle" x="75.12" y="-59.25" font-family="Helvetica,sans-Serif" font-size="10.00">getAutocompletionMatches</text>
</a>
</g>
</g>
<!-- Node1&#45;&gt;Node2 -->
<g id="edge1_Node000001_Node000002" class="edge">
<title>Node1&#45;&gt;Node2</title>
<g id="a_edge1_Node000001_Node000002"><a xlink:title=" ">
<path fill="none" stroke="#63b8ff" d="M178.5,-55.11C169.1,-56.36 159.64,-57.62 150.47,-58.84"/>
<polygon fill="#63b8ff" stroke="#63b8ff" points="178.96,-58.58 188.41,-53.79 178.04,-51.64 178.96,-58.58"/>
</a>
</g>
</g>
<!-- Node3 -->
<g id="Node000003" class="node">
<title>Node3</title>
<g id="a_Node000003"><a xlink:href="classPersistentStorage.html#a7cfe97aac2495e1f2bbdb143f142994a" target="_top" xlink:title=" ">
<polygon fill="white" stroke="#666666" points="139.75,-33.5 10.5,-33.5 10.5,0 139.75,0 139.75,-33.5"/>
<text text-anchor="start" x="18.5" y="-20" font-family="Helvetica,sans-Serif" font-size="10.00">PersistentStorage::</text>
<text text-anchor="middle" x="75.12" y="-7.25" font-family="Helvetica,sans-Serif" font-size="10.00">getGraphForNodeTypes</text>
</a>
</g>
</g>
<!-- Node1&#45;&gt;Node3 -->
<g id="edge2_Node000001_Node000003" class="edge">
<title>Node1&#45;&gt;Node3</title>
<g id="a_edge2_Node000001_Node000003"><a xlink:title=" ">
<path fill="none" stroke="#63b8ff" d="M178.54,-30.4C165.53,-28.66 152.41,-26.91 140.1,-25.27"/>
<polygon fill="#63b8ff" stroke="#63b8ff" points="178.04,-33.86 188.41,-31.71 178.96,-26.92 178.04,-33.86"/>
</a>
</g>
</g>
</g>
</svg>
