<?xml version="1.0" encoding="UTF-8" standalone="no"?>
<!DOCTYPE svg PUBLIC "-//W3C//DTD SVG 1.1//EN"
 "http://www.w3.org/Graphics/SVG/1.1/DTD/svg11.dtd">
<!-- Generated by graphviz version 7.1.0 (0)
 -->
<!-- Title: QtGraphView::doResize Pages: 1 -->
<svg width="924pt" height="159pt"
 viewBox="0.00 0.00 924.00 158.93" xmlns="http://www.w3.org/2000/svg" xmlns:xlink="http://www.w3.org/1999/xlink">
<g id="graph0" class="graph" transform="scale(1 1) rotate(0) translate(4 154.93)">
<title>QtGraphView::doResize</title>
<!-- Node1 -->
<g id="node1" class="node">
<title>Node1</title>
<g id="a_node1"><a xlink:title=" ">
<polygon fill="#999999" stroke="#666666" points="916,-94.93 785,-94.93 785,-75.93 916,-75.93 916,-94.93"/>
<text text-anchor="middle" x="850.5" y="-82.93" font-family="Helvetica,sans-Serif" font-size="10.00">QtGraphView::doResize</text>
</a>
</g>
</g>
<!-- Node2 -->
<g id="node2" class="node">
<title>Node2</title>
<g id="a_node2"><a xlink:href="classQtGraphView.html#af5714c14b551133d2c387da391becb50" target="_top" xlink:title=" ">
<polygon fill="white" stroke="#666666" points="746.5,-150.93 600.5,-150.93 600.5,-131.93 746.5,-131.93 746.5,-150.93"/>
<text text-anchor="middle" x="673.5" y="-138.93" font-family="Helvetica,sans-Serif" font-size="10.00">QtGraphView::refreshView</text>
</a>
</g>
</g>
<!-- Node1&#45;&gt;Node2 -->
<g id="edge1" class="edge">
<title>Node1&#45;&gt;Node2</title>
<path fill="none" stroke="#63b8ff" d="M815.17,-99.62C795.92,-107.27 771.35,-116.53 749,-123.43 739.59,-126.33 729.4,-129.06 719.66,-131.47"/>
<polygon fill="#63b8ff" stroke="#63b8ff" points="816.45,-102.88 824.43,-95.9 813.84,-96.38 816.45,-102.88"/>
</g>
<!-- Node3 -->
<g id="node3" class="node">
<title>Node3</title>
<g id="a_node3"><a xlink:href="classQtGraphView.html#ac244eda211048c672c24864b4f9ea731" target="_top" xlink:title=" ">
<polygon fill="white" stroke="#666666" points="734.5,-113.93 612.5,-113.93 612.5,-94.93 734.5,-94.93 734.5,-113.93"/>
<text text-anchor="middle" x="673.5" y="-101.93" font-family="Helvetica,sans-Serif" font-size="10.00">QtGraphView::resized</text>
</a>
</g>
</g>
<!-- Node1&#45;&gt;Node3 -->
<g id="edge2" class="edge">
<title>Node1&#45;&gt;Node3</title>
<path fill="none" stroke="#63b8ff" d="M773.57,-93.67C760.62,-95.08 747.32,-96.52 734.84,-97.88"/>
<polygon fill="#63b8ff" stroke="#63b8ff" points="773.77,-97.17 783.33,-92.61 773.01,-90.21 773.77,-97.17"/>
</g>
<!-- Node5 -->
<g id="node5" class="node">
<title>Node5</title>
<g id="a_node5"><a xlink:href="classQtGraphView.html#afe49f069835b6b5de2a4b0a8cc48443f" target="_top" xlink:title=" ">
<polygon fill="white" stroke="#666666" points="743.5,-76.93 603.5,-76.93 603.5,-57.93 743.5,-57.93 743.5,-76.93"/>
<text text-anchor="middle" x="673.5" y="-64.93" font-family="Helvetica,sans-Serif" font-size="10.00">QtGraphView::resizeView</text>
</a>
</g>
</g>
<!-- Node1&#45;&gt;Node5 -->
<g id="edge4" class="edge">
<title>Node1&#45;&gt;Node5</title>
<path fill="none" stroke="#63b8ff" d="M773.43,-77.6C763.61,-76.59 753.6,-75.56 743.9,-74.56"/>
<polygon fill="#63b8ff" stroke="#63b8ff" points="773.02,-81.08 783.33,-78.62 773.74,-74.12 773.02,-81.08"/>
</g>
<!-- Node6 -->
<g id="node6" class="node">
<title>Node6</title>
<g id="a_node6"><a xlink:href="classQtGraphView.html#a0e0e64b352f8e05561b94d64f3711a28" target="_top" xlink:title=" ">
<polygon fill="white" stroke="#666666" points="749,-39.43 598,-39.43 598,-9.43 749,-9.43 749,-39.43"/>
<text text-anchor="start" x="606" y="-27.43" font-family="Helvetica,sans-Serif" font-size="10.00">QtGraphView::switchToNew</text>
<text text-anchor="middle" x="673.5" y="-16.43" font-family="Helvetica,sans-Serif" font-size="10.00">GraphData</text>
</a>
</g>
</g>
<!-- Node1&#45;&gt;Node6 -->
<g id="edge5" class="edge">
<title>Node1&#45;&gt;Node6</title>
<path fill="none" stroke="#63b8ff" d="M812.97,-71.57C793.96,-64.46 770.3,-55.78 749,-48.43 740.78,-45.59 732.01,-42.67 723.49,-39.89"/>
<polygon fill="#63b8ff" stroke="#63b8ff" points="811.57,-74.78 822.16,-75.02 814.03,-68.23 811.57,-74.78"/>
</g>
<!-- Node4 -->
<g id="node4" class="node">
<title>Node4</title>
<g id="a_node4"><a xlink:href="classQtGraphView.html#ad62e4097c2649e7e7ce879278132d4cb" target="_top" xlink:title=" ">
<polygon fill="white" stroke="#666666" points="551,-113.93 399,-113.93 399,-94.93 551,-94.93 551,-113.93"/>
<text text-anchor="middle" x="475" y="-101.93" font-family="Helvetica,sans-Serif" font-size="10.00">QtGraphView::QtGraphView</text>
</a>
</g>
</g>
<!-- Node3&#45;&gt;Node4 -->
<g id="edge3" class="edge">
<title>Node3&#45;&gt;Node4</title>
<path fill="none" stroke="#63b8ff" d="M600.74,-104.43C584.7,-104.43 567.64,-104.43 551.46,-104.43"/>
<polygon fill="#63b8ff" stroke="#63b8ff" points="600.69,-107.93 610.69,-104.43 600.69,-100.93 600.69,-107.93"/>
</g>
<!-- Node7 -->
<g id="node7" class="node">
<title>Node7</title>
<g id="a_node7"><a xlink:href="classQtGraphView.html#a226a73962b96aed00b9cecab82c8dba1" target="_top" xlink:title=" ">
<polygon fill="white" stroke="#666666" points="352,-33.93 186,-33.93 186,-14.93 352,-14.93 352,-33.93"/>
<text text-anchor="middle" x="269" y="-21.93" font-family="Helvetica,sans-Serif" font-size="10.00">QtGraphView::createTransition</text>
</a>
</g>
</g>
<!-- Node6&#45;&gt;Node7 -->
<g id="edge6" class="edge">
<title>Node6&#45;&gt;Node7</title>
<path fill="none" stroke="#63b8ff" d="M586.44,-24.43C517.21,-24.43 420.56,-24.43 352.33,-24.43"/>
<polygon fill="#63b8ff" stroke="#63b8ff" points="586.22,-27.93 596.22,-24.43 586.22,-20.93 586.22,-27.93"/>
</g>
<!-- Node8 -->
<g id="node8" class="node">
<title>Node8</title>
<g id="a_node8"><a xlink:href="classQtGraphView.html#a71858975a5b07059726b0337d19fe296" target="_top" xlink:title=" ">
<polygon fill="white" stroke="#666666" points="150,-33.93 0,-33.93 0,-14.93 150,-14.93 150,-33.93"/>
<text text-anchor="middle" x="75" y="-21.93" font-family="Helvetica,sans-Serif" font-size="10.00">QtGraphView::rebuildGraph</text>
</a>
</g>
</g>
<!-- Node6&#45;&gt;Node8 -->
<g id="edge12" class="edge">
<title>Node6&#45;&gt;Node8</title>
<path fill="none" stroke="#63b8ff" d="M586.53,-14.62C489.19,-5.01 325.94,6.57 186,-5.43 165.24,-7.21 142.52,-10.84 123.15,-14.46"/>
<polygon fill="#63b8ff" stroke="#63b8ff" points="585.97,-18.08 596.27,-15.6 586.67,-11.12 585.97,-18.08"/>
</g>
<!-- Node9 -->
<g id="node9" class="node">
<title>Node9</title>
<g id="a_node9"><a xlink:href="classQtGraphView.html#a1c25190e97e9022d070d506c19d16f75" target="_top" xlink:title=" ">
<polygon fill="white" stroke="#666666" points="562,-71.93 388,-71.93 388,-52.93 562,-52.93 562,-71.93"/>
<text text-anchor="middle" x="475" y="-59.93" font-family="Helvetica,sans-Serif" font-size="10.00">QtGraphView::finishedTransition</text>
</a>
</g>
</g>
<!-- Node6&#45;&gt;Node9 -->
<g id="edge8" class="edge">
<title>Node6&#45;&gt;Node9</title>
<path fill="none" stroke="#63b8ff" d="M586.55,-41.05C566.41,-44.94 545.56,-48.97 527.48,-52.47"/>
<polygon fill="#63b8ff" stroke="#63b8ff" points="587.01,-44.52 596.17,-39.19 585.68,-37.65 587.01,-44.52"/>
</g>
<!-- Node7&#45;&gt;Node8 -->
<g id="edge7" class="edge">
<title>Node7&#45;&gt;Node8</title>
<path fill="none" stroke="#63b8ff" d="M174.33,-24.43C166.23,-24.43 158.11,-24.43 150.2,-24.43"/>
<polygon fill="#63b8ff" stroke="#63b8ff" points="174.23,-27.93 184.23,-24.43 174.23,-20.93 174.23,-27.93"/>
</g>
<!-- Node9&#45;&gt;Node7 -->
<g id="edge10" class="edge">
<title>Node9&#45;&gt;Node7</title>
<path fill="none" stroke="#63b8ff" d="M409.26,-50.37C381.66,-45.23 349.84,-39.3 323.59,-34.41"/>
<polygon fill="#63b8ff" stroke="#63b8ff" points="408.44,-53.78 418.91,-52.17 409.72,-46.89 408.44,-53.78"/>
</g>
<!-- Node9&#45;&gt;Node8 -->
<g id="edge11" class="edge">
<title>Node9&#45;&gt;Node8</title>
<path fill="none" stroke="#63b8ff" d="M422.16,-74.74C363.88,-86.51 266.84,-99.82 186,-80.43 148.91,-71.53 110.22,-47.93 90.08,-34.38"/>
<polygon fill="#63b8ff" stroke="#63b8ff" points="422.73,-78.2 431.8,-72.73 421.3,-71.35 422.73,-78.2"/>
</g>
<!-- Node10 -->
<g id="node10" class="node">
<title>Node10</title>
<g id="a_node10"><a xlink:href="classQtGraphView.html#a22c7370507ab74241d6d1f7df1ffccbd" target="_top" xlink:title=" ">
<polygon fill="white" stroke="#666666" points="344.5,-70.93 193.5,-70.93 193.5,-51.93 344.5,-51.93 344.5,-70.93"/>
<text text-anchor="middle" x="269" y="-58.93" font-family="Helvetica,sans-Serif" font-size="10.00">QtGraphView::activateEdge</text>
</a>
</g>
</g>
<!-- Node9&#45;&gt;Node10 -->
<g id="edge9" class="edge">
<title>Node9&#45;&gt;Node10</title>
<path fill="none" stroke="#63b8ff" d="M376.36,-61.95C365.8,-61.9 355.17,-61.84 344.93,-61.79"/>
<polygon fill="#63b8ff" stroke="#63b8ff" points="376.25,-65.45 386.27,-62 376.29,-58.45 376.25,-65.45"/>
</g>
</g>
</svg>
