<?xml version="1.0" encoding="UTF-8" standalone="no"?>
<!DOCTYPE svg PUBLIC "-//W3C//DTD SVG 1.1//EN"
 "http://www.w3.org/Graphics/SVG/1.1/DTD/svg11.dtd">
<!-- Generated by graphviz version 9.0.0 (0)
 -->
<!-- Title: SourceLocationsGetUniqueIdButBothEndsHaveTheSame::SetUp Pages: 1 -->
<svg width="720pt" height="184pt"
 viewBox="0.00 0.00 720.00 184.12" xmlns="http://www.w3.org/2000/svg" xmlns:xlink="http://www.w3.org/1999/xlink">
<g id="graph0" class="graph" transform="scale(1 1) rotate(0) translate(4 180.12)">
<title>SourceLocationsGetUniqueIdButBothEndsHaveTheSame::SetUp</title>
<!-- Node1 -->
<g id="Node000001" class="node">
<title>Node1</title>
<g id="a_Node000001"><a xlink:title=" ">
<polygon fill="#999999" stroke="#666666" points="158.5,-104.5 0,-104.5 0,-58.25 158.5,-58.25 158.5,-104.5"/>
<text text-anchor="start" x="8" y="-91" font-family="Helvetica,sans-Serif" font-size="10.00">SourceLocationsGetUnique</text>
<text text-anchor="start" x="8" y="-78.25" font-family="Helvetica,sans-Serif" font-size="10.00">IdButBothEndsHaveTheSame</text>
<text text-anchor="middle" x="79.25" y="-65.5" font-family="Helvetica,sans-Serif" font-size="10.00">::SetUp</text>
</a>
</g>
</g>
<!-- Node2 -->
<g id="Node000002" class="node">
<title>Node2</title>
<g id="a_Node000002"><a xlink:href="classSourceLocationCollection.html#a0db579453761e2eaaffad1ffe9022468" target="_top" xlink:title=" ">
<polygon fill="white" stroke="#666666" points="333.5,-98.12 194.5,-98.12 194.5,-64.62 333.5,-64.62 333.5,-98.12"/>
<text text-anchor="start" x="202.5" y="-84.62" font-family="Helvetica,sans-Serif" font-size="10.00">SourceLocationCollection</text>
<text text-anchor="middle" x="264" y="-71.88" font-family="Helvetica,sans-Serif" font-size="10.00">::addSourceLocation</text>
</a>
</g>
</g>
<!-- Node1&#45;&gt;Node2 -->
<g id="edge1_Node000001_Node000002" class="edge">
<title>Node1&#45;&gt;Node2</title>
<g id="a_edge1_Node000001_Node000002"><a xlink:title=" ">
<path fill="none" stroke="#63b8ff" d="M158.81,-81.38C166.83,-81.38 174.99,-81.38 183.03,-81.38"/>
<polygon fill="#63b8ff" stroke="#63b8ff" points="182.77,-84.88 192.77,-81.38 182.77,-77.88 182.77,-84.88"/>
</a>
</g>
</g>
<!-- Node3 -->
<g id="Node000003" class="node">
<title>Node3</title>
<g id="a_Node000003"><a xlink:href="classSourceLocationFile.html#ab04afb9bc01bfc14c89fa02df841ba2e" target="_top" xlink:title=" ">
<polygon fill="white" stroke="#666666" points="498.38,-176.12 384.12,-176.12 384.12,-142.62 498.38,-142.62 498.38,-176.12"/>
<text text-anchor="start" x="392.12" y="-162.62" font-family="Helvetica,sans-Serif" font-size="10.00">SourceLocationFile</text>
<text text-anchor="middle" x="441.25" y="-149.88" font-family="Helvetica,sans-Serif" font-size="10.00">::addSourceLocation</text>
</a>
</g>
</g>
<!-- Node2&#45;&gt;Node3 -->
<g id="edge2_Node000002_Node000003" class="edge">
<title>Node2&#45;&gt;Node3</title>
<g id="a_edge2_Node000002_Node000003"><a xlink:title=" ">
<path fill="none" stroke="#63b8ff" d="M297.05,-98.46C317.51,-109.09 344.75,-122.71 369.5,-133.38 373.09,-134.92 376.81,-136.47 380.58,-137.98"/>
<polygon fill="#63b8ff" stroke="#63b8ff" points="379.26,-141.22 389.85,-141.61 381.82,-134.71 379.26,-141.22"/>
</a>
</g>
</g>
<!-- Node4 -->
<g id="Node000004" class="node">
<title>Node4</title>
<g id="a_Node000004"><a xlink:href="classSourceLocationCollection.html#a69b02a9070cc297130373872812acaf8" target="_top" xlink:title=" ">
<polygon fill="white" stroke="#666666" points="513,-124.12 369.5,-124.12 369.5,-90.62 513,-90.62 513,-124.12"/>
<text text-anchor="start" x="377.5" y="-110.62" font-family="Helvetica,sans-Serif" font-size="10.00">SourceLocationCollection</text>
<text text-anchor="middle" x="441.25" y="-97.88" font-family="Helvetica,sans-Serif" font-size="10.00">::createSourceLocationFile</text>
</a>
</g>
</g>
<!-- Node2&#45;&gt;Node4 -->
<g id="edge3_Node000002_Node000004" class="edge">
<title>Node2&#45;&gt;Node4</title>
<g id="a_edge3_Node000002_Node000004"><a xlink:title=" ">
<path fill="none" stroke="#63b8ff" d="M333.76,-91.58C341.65,-92.75 349.75,-93.95 357.79,-95.14"/>
<polygon fill="#63b8ff" stroke="#63b8ff" points="357.19,-98.59 367.6,-96.6 358.22,-91.67 357.19,-98.59"/>
</a>
</g>
</g>
<!-- Node6 -->
<g id="Node000006" class="node">
<title>Node6</title>
<g id="a_Node000006"><a xlink:href="classSourceLocationFile.html#ae0e695cb09009143683103873542f5fe" target="_top" xlink:title=" ">
<polygon fill="white" stroke="#666666" points="494.62,-72.12 387.88,-72.12 387.88,-38.62 494.62,-38.62 494.62,-72.12"/>
<text text-anchor="start" x="395.88" y="-58.62" font-family="Helvetica,sans-Serif" font-size="10.00">SourceLocationFile</text>
<text text-anchor="middle" x="441.25" y="-45.88" font-family="Helvetica,sans-Serif" font-size="10.00">::isWhole</text>
</a>
</g>
</g>
<!-- Node2&#45;&gt;Node6 -->
<g id="edge5_Node000002_Node000006" class="edge">
<title>Node2&#45;&gt;Node6</title>
<g id="a_edge5_Node000002_Node000006"><a xlink:title=" ">
<path fill="none" stroke="#63b8ff" d="M333.76,-71.17C347.69,-69.11 362.3,-66.94 376.07,-64.9"/>
<polygon fill="#63b8ff" stroke="#63b8ff" points="376.53,-68.37 385.91,-63.44 375.5,-61.44 376.53,-68.37"/>
</a>
</g>
</g>
<!-- Node7 -->
<g id="Node000007" class="node">
<title>Node7</title>
<g id="a_Node000007"><a xlink:href="classFilePath.html#ae43df68f4d64aa712319fcebebf5236b" target="_top" xlink:title=" ">
<polygon fill="white" stroke="#666666" points="477.75,-20.75 404.75,-20.75 404.75,0 477.75,0 477.75,-20.75"/>
<text text-anchor="middle" x="441.25" y="-7.25" font-family="Helvetica,sans-Serif" font-size="10.00">FilePath::str</text>
</a>
</g>
</g>
<!-- Node2&#45;&gt;Node7 -->
<g id="edge6_Node000002_Node000007" class="edge">
<title>Node2&#45;&gt;Node7</title>
<g id="a_edge6_Node000002_Node000007"><a xlink:title=" ">
<path fill="none" stroke="#63b8ff" d="M295.37,-64.24C315.85,-53.2 343.73,-39.14 369.5,-29.38 377.19,-26.46 385.5,-23.81 393.64,-21.47"/>
<polygon fill="#63b8ff" stroke="#63b8ff" points="394.36,-24.9 403.08,-18.88 392.51,-18.15 394.36,-24.9"/>
</a>
</g>
</g>
<!-- Node5 -->
<g id="Node000005" class="node">
<title>Node5</title>
<g id="a_Node000005"><a xlink:href="classSourceLocationCollection.html#af97beb240941ae51a3896bc3315e43cc" target="_top" xlink:title=" ">
<polygon fill="white" stroke="#666666" points="712,-124.12 549,-124.12 549,-90.62 712,-90.62 712,-124.12"/>
<text text-anchor="start" x="557" y="-110.62" font-family="Helvetica,sans-Serif" font-size="10.00">SourceLocationCollection</text>
<text text-anchor="middle" x="630.5" y="-97.88" font-family="Helvetica,sans-Serif" font-size="10.00">::getSourceLocationFileByPath</text>
</a>
</g>
</g>
<!-- Node4&#45;&gt;Node5 -->
<g id="edge4_Node000004_Node000005" class="edge">
<title>Node4&#45;&gt;Node5</title>
<g id="a_edge4_Node000004_Node000005"><a xlink:title=" ">
<path fill="none" stroke="#63b8ff" d="M513.31,-107.38C521.18,-107.38 529.29,-107.38 537.37,-107.38"/>
<polygon fill="#63b8ff" stroke="#63b8ff" points="537.26,-110.88 547.26,-107.38 537.26,-103.88 537.26,-110.88"/>
</a>
</g>
</g>
</g>
</svg>
