<?xml version="1.0" encoding="UTF-8" standalone="no"?>
<!DOCTYPE svg PUBLIC "-//W3C//DTD SVG 1.1//EN"
 "http://www.w3.org/Graphics/SVG/1.1/DTD/svg11.dtd">
<!-- Generated by graphviz version 7.1.0 (0)
 -->
<!-- Title: AppPath Pages: 1 -->
<svg width="263pt" height="225pt"
 viewBox="0.00 0.00 262.50 225.00" xmlns="http://www.w3.org/2000/svg" xmlns:xlink="http://www.w3.org/1999/xlink">
<g id="graph0" class="graph" transform="scale(1 1) rotate(0) translate(4 221)">
<title>AppPath</title>
<!-- Node1 -->
<g id="node1" class="node">
<title>Node1</title>
<g id="a_node1"><a xlink:title=" ">
<polygon fill="#999999" stroke="#666666" points="132,-19 75,-19 75,0 132,0 132,-19"/>
<text text-anchor="middle" x="103.5" y="-7" font-family="Helvetica,sans-Serif" font-size="10.00">AppPath</text>
</a>
</g>
</g>
<!-- Node2 -->
<g id="node2" class="node">
<title>Node2</title>
<g id="a_node2"><a xlink:href="classFilePath.html" target="_top" xlink:title=" ">
<polygon fill="white" stroke="#666666" points="131,-96 76,-96 76,-77 131,-77 131,-96"/>
<text text-anchor="middle" x="103.5" y="-84" font-family="Helvetica,sans-Serif" font-size="10.00">FilePath</text>
</a>
</g>
</g>
<!-- Node2&#45;&gt;Node1 -->
<g id="edge1" class="edge">
<title>Node2&#45;&gt;Node1</title>
<path fill="none" stroke="#9a32cd" stroke-dasharray="5,2" d="M103.5,-65.42C103.5,-50.43 103.5,-30.66 103.5,-19.39"/>
<polygon fill="#9a32cd" stroke="#9a32cd" points="100,-65.09 103.5,-75.09 107,-65.09 100,-65.09"/>
<text text-anchor="middle" x="171" y="-51" font-family="Helvetica,sans-Serif" font-size="10.00"> s_cxxIndexerDirectoryPath</text>
<text text-anchor="middle" x="171" y="-40" font-family="Helvetica,sans-Serif" font-size="10.00">s_sharedDataDirectoryPath</text>
</g>
<!-- Node3 -->
<g id="node3" class="node">
<title>Node3</title>
<g id="a_node3"><a xlink:title=" ">
<polygon fill="white" stroke="#666666" points="113,-217 0,-217 0,-187 113,-187 113,-217"/>
<text text-anchor="start" x="8" y="-205" font-family="Helvetica,sans-Serif" font-size="10.00">unique_ptr&lt; boost::</text>
<text text-anchor="middle" x="56.5" y="-194" font-family="Helvetica,sans-Serif" font-size="10.00">filesystem::path &gt;</text>
</a>
</g>
</g>
<!-- Node3&#45;&gt;Node2 -->
<g id="edge2" class="edge">
<title>Node3&#45;&gt;Node2</title>
<path fill="none" stroke="#9a32cd" stroke-dasharray="5,2" d="M64.58,-175.73C70.5,-158.13 79.11,-134.27 88.5,-114 91.34,-107.86 95.09,-101.23 98.13,-96.14"/>
<polygon fill="#9a32cd" stroke="#9a32cd" points="61.29,-174.52 61.49,-185.11 67.94,-176.71 61.29,-174.52"/>
<text text-anchor="middle" x="108.5" y="-139" font-family="Helvetica,sans-Serif" font-size="10.00"> m_path</text>
</g>
<!-- Node4 -->
<g id="node4" class="node">
<title>Node4</title>
<g id="a_node4"><a xlink:title=" ">
<polygon fill="white" stroke="#666666" points="169.5,-211.5 131.5,-211.5 131.5,-192.5 169.5,-192.5 169.5,-211.5"/>
<text text-anchor="middle" x="150.5" y="-199.5" font-family="Helvetica,sans-Serif" font-size="10.00">bool</text>
</a>
</g>
</g>
<!-- Node4&#45;&gt;Node2 -->
<g id="edge3" class="edge">
<title>Node4&#45;&gt;Node2</title>
<path fill="none" stroke="#9a32cd" stroke-dasharray="5,2" d="M148.33,-180.75C145.69,-162.4 140.08,-135.09 128.5,-114 124.85,-107.35 119.13,-101.11 114.08,-96.36"/>
<polygon fill="#9a32cd" stroke="#9a32cd" points="144.84,-181.07 149.55,-190.57 151.79,-180.21 144.84,-181.07"/>
<text text-anchor="middle" x="200" y="-161" font-family="Helvetica,sans-Serif" font-size="10.00"> m_canonicalized</text>
<text text-anchor="middle" x="200" y="-150" font-family="Helvetica,sans-Serif" font-size="10.00">m_checkedExists</text>
<text text-anchor="middle" x="200" y="-139" font-family="Helvetica,sans-Serif" font-size="10.00">m_checkedIsDirectory</text>
<text text-anchor="middle" x="200" y="-128" font-family="Helvetica,sans-Serif" font-size="10.00">m_exists</text>
<text text-anchor="middle" x="200" y="-117" font-family="Helvetica,sans-Serif" font-size="10.00">m_isDirectory</text>
</g>
</g>
</svg>
