<?xml version="1.0" encoding="UTF-8" standalone="no"?>
<!DOCTYPE svg PUBLIC "-//W3C//DTD SVG 1.1//EN"
 "http://www.w3.org/Graphics/SVG/1.1/DTD/svg11.dtd">
<!-- Generated by graphviz version 9.0.0 (0)
 -->
<!-- Title: IndexerCommandCustom::getCommand Pages: 1 -->
<svg width="519pt" height="119pt"
 viewBox="0.00 0.00 518.75 119.12" xmlns="http://www.w3.org/2000/svg" xmlns:xlink="http://www.w3.org/1999/xlink">
<g id="graph0" class="graph" transform="scale(1 1) rotate(0) translate(4 115.12)">
<title>IndexerCommandCustom::getCommand</title>
<!-- Node1 -->
<g id="Node000001" class="node">
<title>Node1</title>
<g id="a_Node000001"><a xlink:title=" ">
<polygon fill="#999999" stroke="#666666" points="140.5,-66.12 0,-66.12 0,-32.62 140.5,-32.62 140.5,-66.12"/>
<text text-anchor="start" x="8" y="-52.62" font-family="Helvetica,sans-Serif" font-size="10.00">IndexerCommandCustom</text>
<text text-anchor="middle" x="70.25" y="-39.88" font-family="Helvetica,sans-Serif" font-size="10.00">::getCommand</text>
</a>
</g>
</g>
<!-- Node2 -->
<g id="Node000002" class="node">
<title>Node2</title>
<g id="a_Node000002"><a xlink:href="classIndexerCommandCustom.html#a21ee5b51a0127ddfb1e206aad3aed214" target="_top" xlink:title=" ">
<polygon fill="white" stroke="#666666" points="317,-66.12 176.5,-66.12 176.5,-32.62 317,-32.62 317,-66.12"/>
<text text-anchor="start" x="184.5" y="-52.62" font-family="Helvetica,sans-Serif" font-size="10.00">IndexerCommandCustom</text>
<text text-anchor="middle" x="246.75" y="-39.88" font-family="Helvetica,sans-Serif" font-size="10.00">::replaceVariables</text>
</a>
</g>
</g>
<!-- Node1&#45;&gt;Node2 -->
<g id="edge1_Node000001_Node000002" class="edge">
<title>Node1&#45;&gt;Node2</title>
<g id="a_edge1_Node000001_Node000002"><a xlink:title=" ">
<path fill="none" stroke="#63b8ff" d="M140.97,-49.38C148.75,-49.38 156.73,-49.38 164.63,-49.38"/>
<polygon fill="#63b8ff" stroke="#63b8ff" points="164.63,-52.88 174.63,-49.38 164.63,-45.88 164.63,-52.88"/>
</a>
</g>
</g>
<!-- Node3 -->
<g id="Node000003" class="node">
<title>Node3</title>
<g id="a_Node000003"><a xlink:href="classIndexerCommand.html#a4c40244329ccf4b7c9f819979c477a6a" target="_top" xlink:title=" ">
<polygon fill="white" stroke="#666666" points="510.75,-111.12 353,-111.12 353,-77.62 510.75,-77.62 510.75,-111.12"/>
<text text-anchor="start" x="361" y="-97.62" font-family="Helvetica,sans-Serif" font-size="10.00">IndexerCommand::getSource</text>
<text text-anchor="middle" x="431.88" y="-84.88" font-family="Helvetica,sans-Serif" font-size="10.00">FilePath</text>
</a>
</g>
</g>
<!-- Node2&#45;&gt;Node3 -->
<g id="edge2_Node000002_Node000003" class="edge">
<title>Node2&#45;&gt;Node3</title>
<g id="a_edge2_Node000002_Node000003"><a xlink:title=" ">
<path fill="none" stroke="#63b8ff" d="M317.24,-66.45C327.83,-69.05 338.84,-71.76 349.65,-74.42"/>
<polygon fill="#63b8ff" stroke="#63b8ff" points="348.81,-77.81 359.35,-76.8 350.48,-71.01 348.81,-77.81"/>
</a>
</g>
</g>
<!-- Node4 -->
<g id="Node000004" class="node">
<title>Node4</title>
<g id="a_Node000004"><a xlink:href="namespaceutility.html#a239deb522abcf6865fc4409d6fff2914" target="_top" xlink:title=" ">
<polygon fill="white" stroke="#666666" points="474.75,-59.75 389,-59.75 389,-39 474.75,-39 474.75,-59.75"/>
<text text-anchor="middle" x="431.88" y="-46.25" font-family="Helvetica,sans-Serif" font-size="10.00">utility::replace</text>
</a>
</g>
</g>
<!-- Node2&#45;&gt;Node4 -->
<g id="edge3_Node000002_Node000004" class="edge">
<title>Node2&#45;&gt;Node4</title>
<g id="a_edge3_Node000002_Node000004"><a xlink:title=" ">
<path fill="none" stroke="#63b8ff" d="M317.24,-49.38C337.18,-49.38 358.61,-49.38 377.43,-49.38"/>
<polygon fill="#63b8ff" stroke="#63b8ff" points="377.25,-52.88 387.25,-49.38 377.25,-45.88 377.25,-52.88"/>
</a>
</g>
</g>
<!-- Node5 -->
<g id="Node000005" class="node">
<title>Node5</title>
<g id="a_Node000005"><a xlink:href="classFilePath.html#a989e098726c8387d4f4690bca3314ce8" target="_top" xlink:title=" ">
<polygon fill="white" stroke="#666666" points="472.5,-20.75 391.25,-20.75 391.25,0 472.5,0 472.5,-20.75"/>
<text text-anchor="middle" x="431.88" y="-7.25" font-family="Helvetica,sans-Serif" font-size="10.00">FilePath::wstr</text>
</a>
</g>
</g>
<!-- Node2&#45;&gt;Node5 -->
<g id="edge4_Node000002_Node000005" class="edge">
<title>Node2&#45;&gt;Node5</title>
<g id="a_edge4_Node000002_Node000005"><a xlink:title=" ">
<path fill="none" stroke="#63b8ff" d="M317.24,-34.58C338.05,-30.14 360.47,-25.37 379.86,-21.24"/>
<polygon fill="#63b8ff" stroke="#63b8ff" points="380.35,-24.71 389.41,-19.21 378.9,-17.87 380.35,-24.71"/>
</a>
</g>
</g>
</g>
</svg>
