<?xml version="1.0" encoding="UTF-8" standalone="no"?>
<!DOCTYPE svg PUBLIC "-//W3C//DTD SVG 1.1//EN"
 "http://www.w3.org/Graphics/SVG/1.1/DTD/svg11.dtd">
<!-- Generated by graphviz version 9.0.0 (0)
 -->
<!-- Title: QtCodeSnippet::focusTop Pages: 1 -->
<svg width="1907pt" height="221pt"
 viewBox="0.00 0.00 1906.50 221.25" xmlns="http://www.w3.org/2000/svg" xmlns:xlink="http://www.w3.org/1999/xlink">
<g id="graph0" class="graph" transform="scale(1 1) rotate(0) translate(4 217.25)">
<title>QtCodeSnippet::focusTop</title>
<!-- Node1 -->
<g id="Node000001" class="node">
<title>Node1</title>
<g id="a_Node000001"><a xlink:title=" ">
<polygon fill="#999999" stroke="#666666" points="137.5,-162.12 0,-162.12 0,-141.38 137.5,-141.38 137.5,-162.12"/>
<text text-anchor="middle" x="68.75" y="-148.62" font-family="Helvetica,sans-Serif" font-size="10.00">QtCodeSnippet::focusTop</text>
</a>
</g>
</g>
<!-- Node2 -->
<g id="Node000002" class="node">
<title>Node2</title>
<g id="a_Node000002"><a xlink:href="classQtCodeField.html#a65485f01f783ed6b80e414657ed7816a" target="_top" xlink:title=" ">
<polygon fill="white" stroke="#666666" points="722.88,-211.5 583.12,-211.5 583.12,-178 722.88,-178 722.88,-211.5"/>
<text text-anchor="start" x="591.12" y="-198" font-family="Helvetica,sans-Serif" font-size="10.00">QtCodeField::getStartLine</text>
<text text-anchor="middle" x="653" y="-185.25" font-family="Helvetica,sans-Serif" font-size="10.00">Number</text>
</a>
</g>
</g>
<!-- Node1&#45;&gt;Node2 -->
<g id="edge1_Node000001_Node000002" class="edge">
<title>Node1&#45;&gt;Node2</title>
<g id="a_edge1_Node000001_Node000002"><a xlink:title=" ">
<path fill="none" stroke="#63b8ff" d="M89.29,-162.59C109.61,-173.19 142.71,-188.62 173.5,-194.75 311.1,-222.14 475.4,-213.39 571.28,-204.26"/>
<polygon fill="#63b8ff" stroke="#63b8ff" points="571.51,-207.76 581.12,-203.3 570.83,-200.79 571.51,-207.76"/>
</a>
</g>
</g>
<!-- Node3 -->
<g id="Node000003" class="node">
<title>Node3</title>
<g id="a_Node000003"><a xlink:href="classQtCodeSnippet.html#a4f26f50ee7f6b5ee03f96a43b262b9f9" target="_top" xlink:title=" ">
<polygon fill="white" stroke="#666666" points="327.5,-185.5 173.5,-185.5 173.5,-152 327.5,-152 327.5,-185.5"/>
<text text-anchor="start" x="181.5" y="-172" font-family="Helvetica,sans-Serif" font-size="10.00">QtCodeSnippet::getStartLine</text>
<text text-anchor="middle" x="250.5" y="-159.25" font-family="Helvetica,sans-Serif" font-size="10.00">Number</text>
</a>
</g>
</g>
<!-- Node1&#45;&gt;Node3 -->
<g id="edge2_Node000001_Node000003" class="edge">
<title>Node1&#45;&gt;Node3</title>
<g id="a_edge2_Node000001_Node000003"><a xlink:title=" ">
<path fill="none" stroke="#63b8ff" d="M137.96,-158.2C145.79,-158.94 153.86,-159.7 161.9,-160.46"/>
<polygon fill="#63b8ff" stroke="#63b8ff" points="161.43,-163.94 171.71,-161.39 162.09,-156.97 161.43,-163.94"/>
</a>
</g>
</g>
<!-- Node4 -->
<g id="Node000004" class="node">
<title>Node4</title>
<g id="a_Node000004"><a xlink:href="classQtCodeArea.html#ad6b222888e3bdeb13c0ba064f1e72f54" target="_top" xlink:title=" ">
<polygon fill="white" stroke="#666666" points="318.5,-127.12 182.5,-127.12 182.5,-106.38 318.5,-106.38 318.5,-127.12"/>
<text text-anchor="middle" x="250.5" y="-113.62" font-family="Helvetica,sans-Serif" font-size="10.00">QtCodeArea::moveFocus</text>
</a>
</g>
</g>
<!-- Node1&#45;&gt;Node4 -->
<g id="edge4_Node000001_Node000004" class="edge">
<title>Node1&#45;&gt;Node4</title>
<g id="a_edge4_Node000001_Node000004"><a xlink:title=" ">
<path fill="none" stroke="#63b8ff" d="M125.15,-140.96C143.26,-137.44 163.57,-133.48 182.44,-129.81"/>
<polygon fill="#63b8ff" stroke="#63b8ff" points="183.03,-133.26 192.18,-127.91 181.7,-126.39 183.03,-133.26"/>
</a>
</g>
</g>
<!-- Node20 -->
<g id="Node000020" class="node">
<title>Node20</title>
<g id="a_Node000020"><a xlink:href="classCodeFocusHandler.html#aff548609affcc51f2b437b497f7a7dec" target="_top" xlink:title=" ">
<polygon fill="white" stroke="#666666" points="943.25,-37.5 775.75,-37.5 775.75,-4 943.25,-4 943.25,-37.5"/>
<text text-anchor="start" x="783.75" y="-24" font-family="Helvetica,sans-Serif" font-size="10.00">CodeFocusHandler::setFocused</text>
<text text-anchor="middle" x="859.5" y="-11.25" font-family="Helvetica,sans-Serif" font-size="10.00">ScopeLine</text>
</a>
</g>
</g>
<!-- Node1&#45;&gt;Node20 -->
<g id="edge25_Node000001_Node000020" class="edge">
<title>Node1&#45;&gt;Node20</title>
<g id="a_edge25_Node000001_Node000020"><a xlink:title=" ">
<path fill="none" stroke="#63b8ff" d="M88,-140.94C108.35,-129.2 142.49,-110.43 173.5,-97.75 255.23,-64.34 276.44,-54.45 363.5,-39.75 501.49,-16.44 664.06,-15.09 764.21,-17.2"/>
<polygon fill="#63b8ff" stroke="#63b8ff" points="763.91,-20.69 773.99,-17.42 764.07,-13.69 763.91,-20.69"/>
</a>
</g>
</g>
<!-- Node3&#45;&gt;Node2 -->
<g id="edge3_Node000003_Node000002" class="edge">
<title>Node3&#45;&gt;Node2</title>
<g id="a_edge3_Node000003_Node000002"><a xlink:title=" ">
<path fill="none" stroke="#63b8ff" d="M327.77,-173.7C397.57,-178.23 500.5,-184.92 571.58,-189.53"/>
<polygon fill="#63b8ff" stroke="#63b8ff" points="570.99,-193 581.19,-190.15 571.44,-186.01 570.99,-193"/>
</a>
</g>
</g>
<!-- Node5 -->
<g id="Node000005" class="node">
<title>Node5</title>
<g id="a_Node000005"><a xlink:href="classCodeFocusHandler.html#ad07652cbec85ba4bf361042fbe69de67" target="_top" xlink:title=" ">
<polygon fill="white" stroke="#666666" points="526.12,-82.5 367.62,-82.5 367.62,-49 526.12,-49 526.12,-82.5"/>
<text text-anchor="start" x="375.62" y="-69" font-family="Helvetica,sans-Serif" font-size="10.00">CodeFocusHandler::getTarget</text>
<text text-anchor="middle" x="446.88" y="-56.25" font-family="Helvetica,sans-Serif" font-size="10.00">Column</text>
</a>
</g>
</g>
<!-- Node4&#45;&gt;Node5 -->
<g id="edge5_Node000004_Node000005" class="edge">
<title>Node4&#45;&gt;Node5</title>
<g id="a_edge5_Node000004_Node000005"><a xlink:title=" ">
<path fill="none" stroke="#63b8ff" d="M292.72,-105.93C314.95,-100.1 343.11,-92.71 369.21,-85.87"/>
<polygon fill="#63b8ff" stroke="#63b8ff" points="369.99,-89.28 378.77,-83.36 368.21,-82.51 369.99,-89.28"/>
</a>
</g>
</g>
<!-- Node6 -->
<g id="Node000006" class="node">
<title>Node6</title>
<g id="a_Node000006"><a xlink:href="classQtCodeArea.html#aa902ebd476d33d46ec19e0f6ccaecac8" target="_top" xlink:title=" ">
<polygon fill="white" stroke="#666666" points="529.5,-121.12 364.25,-121.12 364.25,-100.38 529.5,-100.38 529.5,-121.12"/>
<text text-anchor="middle" x="446.88" y="-107.62" font-family="Helvetica,sans-Serif" font-size="10.00">QtCodeArea::moveFocusInLine</text>
</a>
</g>
</g>
<!-- Node4&#45;&gt;Node6 -->
<g id="edge6_Node000004_Node000006" class="edge">
<title>Node4&#45;&gt;Node6</title>
<g id="a_edge6_Node000004_Node000006"><a xlink:title=" ">
<path fill="none" stroke="#63b8ff" d="M318.94,-114.67C329.79,-114.33 341.2,-113.98 352.53,-113.63"/>
<polygon fill="#63b8ff" stroke="#63b8ff" points="352.42,-117.14 362.3,-113.33 352.2,-110.14 352.42,-117.14"/>
</a>
</g>
</g>
<!-- Node18 -->
<g id="Node000018" class="node">
<title>Node18</title>
<g id="a_Node000018"><a xlink:href="classQtCodeArea.html#a595e5592580f3abb8e942ebd7531b8bc" target="_top" xlink:title=" ">
<polygon fill="white" stroke="#666666" points="530.25,-160.12 363.5,-160.12 363.5,-139.38 530.25,-139.38 530.25,-160.12"/>
<text text-anchor="middle" x="446.88" y="-146.62" font-family="Helvetica,sans-Serif" font-size="10.00">QtCodeArea::moveFocusToLine</text>
</a>
</g>
</g>
<!-- Node4&#45;&gt;Node18 -->
<g id="edge20_Node000004_Node000018" class="edge">
<title>Node4&#45;&gt;Node18</title>
<g id="a_edge20_Node000004_Node000018"><a xlink:title=" ">
<path fill="none" stroke="#63b8ff" d="M315.41,-127.6C333.1,-130.6 352.46,-133.89 370.72,-136.99"/>
<polygon fill="#63b8ff" stroke="#63b8ff" points="369.98,-140.42 380.43,-138.64 371.16,-133.51 369.98,-140.42"/>
</a>
</g>
</g>
<!-- Node7 -->
<g id="Node000007" class="node">
<title>Node7</title>
<g id="a_Node000007"><a xlink:href="classQtCodeArea.html#a278551156e4a130f6d0e572afbec43a0" target="_top" xlink:title=" ">
<polygon fill="white" stroke="#666666" points="733,-121.12 573,-121.12 573,-100.38 733,-100.38 733,-121.12"/>
<text text-anchor="middle" x="653" y="-107.62" font-family="Helvetica,sans-Serif" font-size="10.00">QtCodeArea::focusAnnotation</text>
</a>
</g>
</g>
<!-- Node6&#45;&gt;Node7 -->
<g id="edge7_Node000006_Node000007" class="edge">
<title>Node6&#45;&gt;Node7</title>
<g id="a_edge7_Node000006_Node000007"><a xlink:title=" ">
<path fill="none" stroke="#63b8ff" d="M529.72,-110.75C540.15,-110.75 550.87,-110.75 561.42,-110.75"/>
<polygon fill="#63b8ff" stroke="#63b8ff" points="561.27,-114.25 571.27,-110.75 561.27,-107.25 561.27,-114.25"/>
</a>
</g>
</g>
<!-- Node17 -->
<g id="Node000017" class="node">
<title>Node17</title>
<g id="a_Node000017"><a xlink:href="classQtCodeField.html#a1be788a10f70468beb82f9d11e0b6c06" target="_top" xlink:title=" ">
<polygon fill="white" stroke="#666666" points="727.38,-82.5 578.62,-82.5 578.62,-49 727.38,-49 727.38,-82.5"/>
<text text-anchor="start" x="586.62" y="-69" font-family="Helvetica,sans-Serif" font-size="10.00">QtCodeField::getInteractive</text>
<text text-anchor="middle" x="653" y="-56.25" font-family="Helvetica,sans-Serif" font-size="10.00">AnnotationsForLineNumber</text>
</a>
</g>
</g>
<!-- Node6&#45;&gt;Node17 -->
<g id="edge19_Node000006_Node000017" class="edge">
<title>Node6&#45;&gt;Node17</title>
<g id="a_edge19_Node000006_Node000017"><a xlink:title=" ">
<path fill="none" stroke="#63b8ff" d="M497.03,-99.91C518.01,-95.29 543.11,-89.76 566.94,-84.5"/>
<polygon fill="#63b8ff" stroke="#63b8ff" points="567.65,-87.93 576.66,-82.36 566.15,-81.09 567.65,-87.93"/>
</a>
</g>
</g>
<!-- Node8 -->
<g id="Node000008" class="node">
<title>Node8</title>
<g id="a_Node000008"><a xlink:href="classCodeFocusHandler.html#a68ee5826f09eae26f72f0452a4a4632f" target="_top" xlink:title=" ">
<polygon fill="white" stroke="#666666" points="943.25,-127.5 775.75,-127.5 775.75,-94 943.25,-94 943.25,-127.5"/>
<text text-anchor="start" x="783.75" y="-114" font-family="Helvetica,sans-Serif" font-size="10.00">CodeFocusHandler::setFocused</text>
<text text-anchor="middle" x="859.5" y="-101.25" font-family="Helvetica,sans-Serif" font-size="10.00">LocationId</text>
</a>
</g>
</g>
<!-- Node7&#45;&gt;Node8 -->
<g id="edge8_Node000007_Node000008" class="edge">
<title>Node7&#45;&gt;Node8</title>
<g id="a_edge8_Node000007_Node000008"><a xlink:title=" ">
<path fill="none" stroke="#63b8ff" d="M733.36,-110.75C743.39,-110.75 753.73,-110.75 763.97,-110.75"/>
<polygon fill="#63b8ff" stroke="#63b8ff" points="763.96,-114.25 773.96,-110.75 763.96,-107.25 763.96,-114.25"/>
</a>
</g>
</g>
<!-- Node16 -->
<g id="Node000016" class="node">
<title>Node16</title>
<g id="a_Node000016"><a xlink:href="namespaceutility.html#aaf52f1ff3ca887705d82c1e674f434c0" target="_top" xlink:title=" ">
<polygon fill="white" stroke="#666666" points="905,-76.12 814,-76.12 814,-55.38 905,-55.38 905,-76.12"/>
<text text-anchor="middle" x="859.5" y="-62.62" font-family="Helvetica,sans-Serif" font-size="10.00">utility::toVector</text>
</a>
</g>
</g>
<!-- Node7&#45;&gt;Node16 -->
<g id="edge18_Node000007_Node000016" class="edge">
<title>Node7&#45;&gt;Node16</title>
<g id="a_edge18_Node000007_Node000016"><a xlink:title=" ">
<path fill="none" stroke="#63b8ff" d="M703.24,-99.91C733.14,-93.34 771.39,-84.92 802.44,-78.09"/>
<polygon fill="#63b8ff" stroke="#63b8ff" points="803.03,-81.54 812.05,-75.97 801.53,-74.7 803.03,-81.54"/>
</a>
</g>
</g>
<!-- Node9 -->
<g id="Node000009" class="node">
<title>Node9</title>
<g id="a_Node000009"><a xlink:href="classCodeFocusHandler.html#a490e77f69ddbfb9839de943c88817683" target="_top" xlink:title=" ">
<polygon fill="white" stroke="#666666" points="1118.25,-79.12 979.25,-79.12 979.25,-58.38 1118.25,-58.38 1118.25,-79.12"/>
<text text-anchor="middle" x="1048.75" y="-65.62" font-family="Helvetica,sans-Serif" font-size="10.00">CodeFocusHandler::focus</text>
</a>
</g>
</g>
<!-- Node8&#45;&gt;Node9 -->
<g id="edge9_Node000008_Node000009" class="edge">
<title>Node8&#45;&gt;Node9</title>
<g id="a_edge9_Node000008_Node000009"><a xlink:title=" ">
<path fill="none" stroke="#63b8ff" d="M937.2,-93.55C954.27,-89.72 972.12,-85.71 988.37,-82.07"/>
<polygon fill="#63b8ff" stroke="#63b8ff" points="988.86,-85.55 997.85,-79.94 987.33,-78.72 988.86,-85.55"/>
</a>
</g>
</g>
<!-- Node11 -->
<g id="Node000011" class="node">
<title>Node11</title>
<g id="a_Node000011"><a xlink:href="classCodeFocusHandler.html#a6cba54f52c7627d75c0846ed76d88957" target="_top" xlink:title=" ">
<polygon fill="white" stroke="#666666" points="1318,-85.5 1154.25,-85.5 1154.25,-52 1318,-52 1318,-85.5"/>
<text text-anchor="start" x="1162.25" y="-72" font-family="Helvetica,sans-Serif" font-size="10.00">CodeFocusHandler::setCurrent</text>
<text text-anchor="middle" x="1236.12" y="-59.25" font-family="Helvetica,sans-Serif" font-size="10.00">Focus</text>
</a>
</g>
</g>
<!-- Node8&#45;&gt;Node11 -->
<g id="edge17_Node000008_Node000011" class="edge">
<title>Node8&#45;&gt;Node11</title>
<g id="a_edge17_Node000008_Node000011"><a xlink:title=" ">
<path fill="none" stroke="#63b8ff" d="M943.66,-104.86C994.24,-100.9 1060.08,-95.06 1118.25,-87.75 1126.17,-86.75 1134.38,-85.62 1142.61,-84.42"/>
<polygon fill="#63b8ff" stroke="#63b8ff" points="1142.94,-87.91 1152.31,-82.97 1141.91,-80.99 1142.94,-87.91"/>
</a>
</g>
</g>
<!-- Node10 -->
<g id="Node000010" class="node">
<title>Node10</title>
<g id="a_Node000010"><a xlink:href="structCodeFocusHandler_1_1Focus.html#acb42596bc1f6572b7b8b396db1280bf3" target="_top" xlink:title=" ">
<polygon fill="white" stroke="#666666" points="1306.38,-33.5 1165.88,-33.5 1165.88,0 1306.38,0 1306.38,-33.5"/>
<text text-anchor="start" x="1173.88" y="-20" font-family="Helvetica,sans-Serif" font-size="10.00">CodeFocusHandler::Focus</text>
<text text-anchor="middle" x="1236.12" y="-7.25" font-family="Helvetica,sans-Serif" font-size="10.00">::isEmpty</text>
</a>
</g>
</g>
<!-- Node9&#45;&gt;Node10 -->
<g id="edge10_Node000009_Node000010" class="edge">
<title>Node9&#45;&gt;Node10</title>
<g id="a_edge10_Node000009_Node000010"><a xlink:title=" ">
<path fill="none" stroke="#63b8ff" d="M1088.16,-57.98C1109.78,-51.91 1137.49,-44.14 1163,-36.98"/>
<polygon fill="#63b8ff" stroke="#63b8ff" points="1163.64,-40.44 1172.32,-34.37 1161.75,-33.7 1163.64,-40.44"/>
</a>
</g>
</g>
<!-- Node9&#45;&gt;Node11 -->
<g id="edge11_Node000009_Node000011" class="edge">
<title>Node9&#45;&gt;Node11</title>
<g id="a_edge11_Node000009_Node000011"><a xlink:title=" ">
<path fill="none" stroke="#63b8ff" d="M1118.51,-62.2C1126.36,-62.07 1134.45,-62 1142.53,-62"/>
<polygon fill="#63b8ff" stroke="#63b8ff" points="1142.42,-65.5 1152.43,-62.04 1142.44,-58.5 1142.42,-65.5"/>
</a>
</g>
</g>
<!-- Node11&#45;&gt;Node9 -->
<g id="edge15_Node000011_Node000009" class="edge">
<title>Node11&#45;&gt;Node9</title>
<g id="a_edge15_Node000011_Node000009"><a xlink:title=" ">
<path fill="none" stroke="#63b8ff" d="M1153.94,-75.45C1146,-75.52 1137.95,-75.52 1130.02,-75.45"/>
<polygon fill="#63b8ff" stroke="#63b8ff" points="1130.07,-71.95 1120.03,-75.32 1129.98,-78.95 1130.07,-71.95"/>
</a>
</g>
</g>
<!-- Node12 -->
<g id="Node000012" class="node">
<title>Node12</title>
<g id="a_Node000012"><a xlink:href="classMessage.html#a4556438d5bb073d6f19ea777fe3faf10" target="_top" xlink:title=" ">
<polygon fill="white" stroke="#666666" points="1480.62,-101.12 1373.88,-101.12 1373.88,-80.38 1480.62,-80.38 1480.62,-101.12"/>
<text text-anchor="middle" x="1427.25" y="-87.62" font-family="Helvetica,sans-Serif" font-size="10.00">Message::dispatch</text>
</a>
</g>
</g>
<!-- Node11&#45;&gt;Node12 -->
<g id="edge12_Node000011_Node000012" class="edge">
<title>Node11&#45;&gt;Node12</title>
<g id="a_edge12_Node000011_Node000012"><a xlink:title=" ">
<path fill="none" stroke="#63b8ff" d="M1318.43,-78.21C1333.12,-79.92 1348.25,-81.68 1362.36,-83.32"/>
<polygon fill="#63b8ff" stroke="#63b8ff" points="1361.59,-86.75 1371.92,-84.43 1362.39,-79.8 1361.59,-86.75"/>
</a>
</g>
</g>
<!-- Node15 -->
<g id="Node000015" class="node">
<title>Node15</title>
<g id="a_Node000015"><a xlink:href="classCodeFocusHandler.html#a06f799c6b1b33d77618fc5150f06b32e" target="_top" xlink:title=" ">
<polygon fill="white" stroke="#666666" points="1500.5,-62.5 1354,-62.5 1354,-29 1500.5,-29 1500.5,-62.5"/>
<text text-anchor="start" x="1362" y="-49" font-family="Helvetica,sans-Serif" font-size="10.00">CodeFocusHandler::update</text>
<text text-anchor="middle" x="1427.25" y="-36.25" font-family="Helvetica,sans-Serif" font-size="10.00">Files</text>
</a>
</g>
</g>
<!-- Node11&#45;&gt;Node15 -->
<g id="edge16_Node000011_Node000015" class="edge">
<title>Node11&#45;&gt;Node15</title>
<g id="a_edge16_Node000011_Node000015"><a xlink:title=" ">
<path fill="none" stroke="#63b8ff" d="M1318.43,-58.86C1326.39,-57.89 1334.48,-56.91 1342.47,-55.94"/>
<polygon fill="#63b8ff" stroke="#63b8ff" points="1342.65,-59.44 1352.16,-54.76 1341.81,-52.49 1342.65,-59.44"/>
</a>
</g>
</g>
<!-- Node13 -->
<g id="Node000013" class="node">
<title>Node13</title>
<g id="a_Node000013"><a xlink:href="classMessageQueue.html#a085ebbc4ba9c58eeeaad64e77efc8e07" target="_top" xlink:title=" ">
<polygon fill="white" stroke="#666666" points="1690.5,-101.12 1536.5,-101.12 1536.5,-80.38 1690.5,-80.38 1690.5,-101.12"/>
<text text-anchor="middle" x="1613.5" y="-87.62" font-family="Helvetica,sans-Serif" font-size="10.00">MessageQueue::getInstance</text>
</a>
</g>
</g>
<!-- Node12&#45;&gt;Node13 -->
<g id="edge13_Node000012_Node000013" class="edge">
<title>Node12&#45;&gt;Node13</title>
<g id="a_edge13_Node000012_Node000013"><a xlink:title=" ">
<path fill="none" stroke="#63b8ff" d="M1481.05,-90.75C1494.69,-90.75 1509.75,-90.75 1524.66,-90.75"/>
<polygon fill="#63b8ff" stroke="#63b8ff" points="1524.49,-94.25 1534.49,-90.75 1524.49,-87.25 1524.49,-94.25"/>
</a>
</g>
</g>
<!-- Node14 -->
<g id="Node000014" class="node">
<title>Node14</title>
<g id="a_Node000014"><a xlink:href="classMessageQueue.html#a006069f4b83d2372c989c52784fac5de" target="_top" xlink:title=" ">
<polygon fill="white" stroke="#666666" points="1898.5,-101.12 1726.5,-101.12 1726.5,-80.38 1898.5,-80.38 1898.5,-101.12"/>
<text text-anchor="middle" x="1812.5" y="-87.62" font-family="Helvetica,sans-Serif" font-size="10.00">MessageQueue::MessageQueue</text>
</a>
</g>
</g>
<!-- Node13&#45;&gt;Node14 -->
<g id="edge14_Node000013_Node000014" class="edge">
<title>Node13&#45;&gt;Node14</title>
<g id="a_edge14_Node000013_Node000014"><a xlink:title=" ">
<path fill="none" stroke="#63b8ff" d="M1690.95,-90.75C1698.81,-90.75 1706.88,-90.75 1714.92,-90.75"/>
<polygon fill="#63b8ff" stroke="#63b8ff" points="1714.75,-94.25 1724.75,-90.75 1714.75,-87.25 1714.75,-94.25"/>
</a>
</g>
</g>
<!-- Node18&#45;&gt;Node2 -->
<g id="edge24_Node000018_Node000002" class="edge">
<title>Node18&#45;&gt;Node2</title>
<g id="a_edge24_Node000018_Node000002"><a xlink:title=" ">
<path fill="none" stroke="#63b8ff" d="M497.03,-160.59C519.43,-165.52 546.53,-171.5 571.77,-177.06"/>
<polygon fill="#63b8ff" stroke="#63b8ff" points="570.83,-180.44 581.35,-179.17 572.34,-173.6 570.83,-180.44"/>
</a>
</g>
</g>
<!-- Node18&#45;&gt;Node7 -->
<g id="edge21_Node000018_Node000007" class="edge">
<title>Node18&#45;&gt;Node7</title>
<g id="a_edge21_Node000018_Node000007"><a xlink:title=" ">
<path fill="none" stroke="#63b8ff" d="M504.74,-138.89C529.29,-134.19 558.23,-128.67 583.92,-123.76"/>
<polygon fill="#63b8ff" stroke="#63b8ff" points="584.44,-127.22 593.6,-121.91 583.13,-120.35 584.44,-127.22"/>
</a>
</g>
</g>
<!-- Node18&#45;&gt;Node17 -->
<g id="edge23_Node000018_Node000017" class="edge">
<title>Node18&#45;&gt;Node17</title>
<g id="a_edge23_Node000018_Node000017"><a xlink:title=" ">
<path fill="none" stroke="#63b8ff" d="M509.68,-138.91C516.86,-136.45 523.88,-133.44 530.25,-129.75 550.38,-118.08 546.46,-103.98 566.25,-91.75 568.54,-90.34 570.91,-88.99 573.34,-87.72"/>
<polygon fill="#63b8ff" stroke="#63b8ff" points="574.71,-90.95 582.26,-83.52 571.72,-84.62 574.71,-90.95"/>
</a>
</g>
</g>
<!-- Node19 -->
<g id="Node000019" class="node">
<title>Node19</title>
<g id="a_Node000019"><a xlink:href="classQtCodeField.html#af19a184b253c2fdac253c19a66056281" target="_top" xlink:title=" ">
<polygon fill="white" stroke="#666666" points="739.75,-160.12 566.25,-160.12 566.25,-139.38 739.75,-139.38 739.75,-160.12"/>
<text text-anchor="middle" x="653" y="-146.62" font-family="Helvetica,sans-Serif" font-size="10.00">QtCodeField::getEndLineNumber</text>
</a>
</g>
</g>
<!-- Node18&#45;&gt;Node19 -->
<g id="edge22_Node000018_Node000019" class="edge">
<title>Node18&#45;&gt;Node19</title>
<g id="a_edge22_Node000018_Node000019"><a xlink:title=" ">
<path fill="none" stroke="#63b8ff" d="M530.61,-149.75C538.49,-149.75 546.54,-149.75 554.55,-149.75"/>
<polygon fill="#63b8ff" stroke="#63b8ff" points="554.31,-153.25 564.31,-149.75 554.31,-146.25 554.31,-153.25"/>
</a>
</g>
</g>
<!-- Node20&#45;&gt;Node9 -->
<g id="edge26_Node000020_Node000009" class="edge">
<title>Node20&#45;&gt;Node9</title>
<g id="a_edge26_Node000020_Node000009"><a xlink:title=" ">
<path fill="none" stroke="#63b8ff" d="M927.57,-37.94C949.63,-43.6 973.84,-49.8 994.71,-55.15"/>
<polygon fill="#63b8ff" stroke="#63b8ff" points="993.58,-58.48 1004.14,-57.57 995.32,-51.7 993.58,-58.48"/>
</a>
</g>
</g>
<!-- Node20&#45;&gt;Node11 -->
<g id="edge27_Node000020_Node000011" class="edge">
<title>Node20&#45;&gt;Node11</title>
<g id="a_edge27_Node000020_Node000011"><a xlink:title=" ">
<path fill="none" stroke="#63b8ff" d="M943.63,-29.06C994.19,-34.37 1060.03,-41.75 1118.25,-49.75 1126.16,-50.84 1134.36,-52.03 1142.58,-53.28"/>
<polygon fill="#63b8ff" stroke="#63b8ff" points="1141.87,-56.71 1152.28,-54.77 1142.93,-49.79 1141.87,-56.71"/>
</a>
</g>
</g>
</g>
</svg>
