<?xml version="1.0" encoding="UTF-8" standalone="no"?>
<!DOCTYPE svg PUBLIC "-//W3C//DTD SVG 1.1//EN"
 "http://www.w3.org/Graphics/SVG/1.1/DTD/svg11.dtd">
<!-- Generated by graphviz version 9.0.0 (0)
 -->
<!-- Title: ResourcePaths::getFontsDirectoryPath Pages: 1 -->
<svg width="583pt" height="68pt"
 viewBox="0.00 0.00 582.50 67.75" xmlns="http://www.w3.org/2000/svg" xmlns:xlink="http://www.w3.org/1999/xlink">
<g id="graph0" class="graph" transform="scale(1 1) rotate(0) translate(4 63.75)">
<title>ResourcePaths::getFontsDirectoryPath</title>
<!-- Node1 -->
<g id="Node000001" class="node">
<title>Node1</title>
<g id="a_Node000001"><a xlink:title=" ">
<polygon fill="#999999" stroke="#666666" points="202.75,-39.75 0,-39.75 0,-19 202.75,-19 202.75,-39.75"/>
<text text-anchor="middle" x="101.38" y="-26.25" font-family="Helvetica,sans-Serif" font-size="10.00">ResourcePaths::getFontsDirectoryPath</text>
</a>
</g>
</g>
<!-- Node2 -->
<g id="Node000002" class="node">
<title>Node2</title>
<g id="a_Node000002"><a xlink:href="classFilePath.html#a1f9e209dcb9a8d2b3d39ec6cfdd5c17f" target="_top" xlink:title=" ">
<polygon fill="white" stroke="#666666" points="399.88,-59.75 279.62,-59.75 279.62,-39 399.88,-39 399.88,-59.75"/>
<text text-anchor="middle" x="339.75" y="-46.25" font-family="Helvetica,sans-Serif" font-size="10.00">FilePath::concatenate</text>
</a>
</g>
</g>
<!-- Node1&#45;&gt;Node2 -->
<g id="edge1_Node000001_Node000002" class="edge">
<title>Node1&#45;&gt;Node2</title>
<g id="a_edge1_Node000001_Node000002"><a xlink:title=" ">
<path fill="none" stroke="#63b8ff" d="M202.96,-37.89C224.81,-39.73 247.47,-41.65 267.88,-43.38"/>
<polygon fill="#63b8ff" stroke="#63b8ff" points="267.52,-46.86 277.78,-44.22 268.11,-39.89 267.52,-46.86"/>
</a>
</g>
</g>
<!-- Node4 -->
<g id="Node000004" class="node">
<title>Node4</title>
<g id="a_Node000004"><a xlink:href="classAppPath.html#afb2974614a9eee22c6f8a75fada9ac23" target="_top" xlink:title=" ">
<polygon fill="white" stroke="#666666" points="440.75,-20.75 238.75,-20.75 238.75,0 440.75,0 440.75,-20.75"/>
<text text-anchor="middle" x="339.75" y="-7.25" font-family="Helvetica,sans-Serif" font-size="10.00">AppPath::getSharedDataDirectoryPath</text>
</a>
</g>
</g>
<!-- Node1&#45;&gt;Node4 -->
<g id="edge3_Node000001_Node000004" class="edge">
<title>Node1&#45;&gt;Node4</title>
<g id="a_edge3_Node000001_Node000004"><a xlink:title=" ">
<path fill="none" stroke="#63b8ff" d="M202.96,-21.29C210.9,-20.65 218.96,-20 226.97,-19.36"/>
<polygon fill="#63b8ff" stroke="#63b8ff" points="227.06,-22.86 236.74,-18.57 226.5,-15.89 227.06,-22.86"/>
</a>
</g>
</g>
<!-- Node3 -->
<g id="Node000003" class="node">
<title>Node3</title>
<g id="a_Node000003"><a xlink:href="classFilePath.html#a544387c4aea50aec855062fd02e436ae" target="_top" xlink:title=" ">
<polygon fill="white" stroke="#666666" points="574.5,-59.75 476.75,-59.75 476.75,-39 574.5,-39 574.5,-59.75"/>
<text text-anchor="middle" x="525.62" y="-46.25" font-family="Helvetica,sans-Serif" font-size="10.00">FilePath::getPath</text>
</a>
</g>
</g>
<!-- Node2&#45;&gt;Node3 -->
<g id="edge2_Node000002_Node000003" class="edge">
<title>Node2&#45;&gt;Node3</title>
<g id="a_edge2_Node000002_Node000003"><a xlink:title=" ">
<path fill="none" stroke="#63b8ff" d="M400.2,-49.38C421,-49.38 444.35,-49.38 465.16,-49.38"/>
<polygon fill="#63b8ff" stroke="#63b8ff" points="464.91,-52.88 474.91,-49.38 464.91,-45.88 464.91,-52.88"/>
</a>
</g>
</g>
</g>
</svg>
