<?xml version="1.0" encoding="UTF-8" standalone="no"?>
<!DOCTYPE svg PUBLIC "-//W3C//DTD SVG 1.1//EN"
 "http://www.w3.org/Graphics/SVG/1.1/DTD/svg11.dtd">
<!-- Generated by graphviz version 7.1.0 (0)
 -->
<!-- Title: SqliteIndexStorage::addLocalSymbols Pages: 1 -->
<svg width="496pt" height="69pt"
 viewBox="0.00 0.00 496.00 68.50" xmlns="http://www.w3.org/2000/svg" xmlns:xlink="http://www.w3.org/1999/xlink">
<g id="graph0" class="graph" transform="scale(1 1) rotate(0) translate(4 64.5)">
<title>SqliteIndexStorage::addLocalSymbols</title>
<!-- Node1 -->
<g id="node1" class="node">
<title>Node1</title>
<g id="a_node1"><a xlink:title=" ">
<polygon fill="#999999" stroke="#666666" points="109,-30 0,-30 0,0 109,0 109,-30"/>
<text text-anchor="start" x="8" y="-18" font-family="Helvetica,sans-Serif" font-size="10.00">SqliteIndexStorage</text>
<text text-anchor="middle" x="54.5" y="-7" font-family="Helvetica,sans-Serif" font-size="10.00">::addLocalSymbols</text>
</a>
</g>
</g>
<!-- Node2 -->
<g id="node2" class="node">
<title>Node2</title>
<g id="a_node2"><a xlink:href="classSqliteIndexStorage_1_1InsertBatchStatement.html#acaa5199762bf4a7671c03fb87a03abfb" target="_top" xlink:title=" ">
<polygon fill="white" stroke="#666666" points="274,-60.5 145,-60.5 145,-19.5 274,-19.5 274,-60.5"/>
<text text-anchor="start" x="153" y="-48.5" font-family="Helvetica,sans-Serif" font-size="10.00">SqliteIndexStorage</text>
<text text-anchor="start" x="153" y="-37.5" font-family="Helvetica,sans-Serif" font-size="10.00">::InsertBatchStatement</text>
<text text-anchor="middle" x="209.5" y="-26.5" font-family="Helvetica,sans-Serif" font-size="10.00">::execute</text>
</a>
</g>
</g>
<!-- Node1&#45;&gt;Node2 -->
<g id="edge1" class="edge">
<title>Node1&#45;&gt;Node2</title>
<path fill="none" stroke="#63b8ff" d="M109.44,-23.81C117.16,-25.08 125.22,-26.39 133.25,-27.7"/>
<polygon fill="#63b8ff" stroke="#63b8ff" points="132.64,-31.15 143.07,-29.31 133.77,-24.24 132.64,-31.15"/>
</g>
<!-- Node3 -->
<g id="node3" class="node">
<title>Node3</title>
<g id="a_node3"><a xlink:href="classSqliteStorage.html#a6cc9f021cdd876e5dbc6a9c69e65c6b9" target="_top" xlink:title=" ">
<polygon fill="white" stroke="#666666" points="488,-24.5 310,-24.5 310,-5.5 488,-5.5 488,-24.5"/>
<text text-anchor="middle" x="399" y="-12.5" font-family="Helvetica,sans-Serif" font-size="10.00">SqliteStorage::executeStatement</text>
</a>
</g>
</g>
<!-- Node1&#45;&gt;Node3 -->
<g id="edge3" class="edge">
<title>Node1&#45;&gt;Node3</title>
<path fill="none" stroke="#63b8ff" d="M109.44,-12.2C121.16,-11.7 133.49,-11.26 145,-11 202.32,-9.72 216.67,-10.08 274,-11 281.92,-11.13 290.13,-11.3 298.37,-11.5"/>
<polygon fill="#63b8ff" stroke="#63b8ff" points="298.01,-15 308.1,-11.76 298.19,-8 298.01,-15"/>
</g>
<!-- Node2&#45;&gt;Node3 -->
<g id="edge2" class="edge">
<title>Node2&#45;&gt;Node3</title>
<path fill="none" stroke="#63b8ff" d="M274.24,-31.5C286.39,-29.88 299.3,-28.16 312.01,-26.47"/>
<polygon fill="#63b8ff" stroke="#63b8ff" points="312.16,-29.98 321.61,-25.19 311.23,-23.04 312.16,-29.98"/>
</g>
</g>
</svg>
