<?xml version="1.0" encoding="UTF-8" standalone="no"?>
<!DOCTYPE svg PUBLIC "-//W3C//DTD SVG 1.1//EN"
 "http://www.w3.org/Graphics/SVG/1.1/DTD/svg11.dtd">
<!-- Generated by graphviz version 7.1.0 (0)
 -->
<!-- Title: QtStatusView::addStatus Pages: 1 -->
<svg width="646pt" height="133pt"
 viewBox="0.00 0.00 646.00 132.50" xmlns="http://www.w3.org/2000/svg" xmlns:xlink="http://www.w3.org/1999/xlink">
<g id="graph0" class="graph" transform="scale(1 1) rotate(0) translate(4 128.5)">
<title>QtStatusView::addStatus</title>
<!-- Node1 -->
<g id="node1" class="node">
<title>Node1</title>
<g id="a_node1"><a xlink:title=" ">
<polygon fill="#999999" stroke="#666666" points="137,-86.5 0,-86.5 0,-67.5 137,-67.5 137,-86.5"/>
<text text-anchor="middle" x="68.5" y="-74.5" font-family="Helvetica,sans-Serif" font-size="10.00">QtStatusView::addStatus</text>
</a>
</g>
</g>
<!-- Node2 -->
<g id="node2" class="node">
<title>Node2</title>
<g id="a_node2"><a xlink:href="classQtTable.html#a8182c3dcada35d763d461c5d22d6215a" target="_top" xlink:title=" ">
<polygon fill="white" stroke="#666666" points="485,-124.5 335,-124.5 335,-105.5 485,-105.5 485,-124.5"/>
<text text-anchor="middle" x="410" y="-112.5" font-family="Helvetica,sans-Serif" font-size="10.00">QtTable::getFilledRowCount</text>
</a>
</g>
</g>
<!-- Node1&#45;&gt;Node2 -->
<g id="edge1" class="edge">
<title>Node1&#45;&gt;Node2</title>
<path fill="none" stroke="#63b8ff" d="M89.91,-86.94C110.37,-96.3 143.03,-109.67 173,-115 222.17,-123.74 278.02,-124.16 323.04,-122.2"/>
<polygon fill="#63b8ff" stroke="#63b8ff" points="323.21,-125.69 333.03,-121.71 322.87,-118.7 323.21,-125.69"/>
</g>
<!-- Node3 -->
<g id="node3" class="node">
<title>Node3</title>
<g id="a_node3"><a xlink:href="classQtTable.html#a9587ccaba00b0d38f0b2ad898d7d2f10" target="_top" xlink:title=" ">
<polygon fill="white" stroke="#666666" points="471,-67.5 349,-67.5 349,-48.5 471,-48.5 471,-67.5"/>
<text text-anchor="middle" x="410" y="-55.5" font-family="Helvetica,sans-Serif" font-size="10.00">QtTable::hasSelection</text>
</a>
</g>
</g>
<!-- Node1&#45;&gt;Node3 -->
<g id="edge2" class="edge">
<title>Node1&#45;&gt;Node3</title>
<path fill="none" stroke="#63b8ff" d="M137.39,-73.2C195.26,-69.96 278.19,-65.32 337.17,-62.02"/>
<polygon fill="#63b8ff" stroke="#63b8ff" points="337.33,-65.52 347.12,-61.46 336.94,-58.53 337.33,-65.52"/>
</g>
<!-- Node4 -->
<g id="node4" class="node">
<title>Node4</title>
<g id="a_node4"><a xlink:href="classQtTable.html#a9f44f3c0553e76e9d6aa9202c01f7890" target="_top" xlink:title=" ">
<polygon fill="white" stroke="#666666" points="299,-105.5 173,-105.5 173,-86.5 299,-86.5 299,-105.5"/>
<text text-anchor="middle" x="236" y="-93.5" font-family="Helvetica,sans-Serif" font-size="10.00">QtTable::showLastRow</text>
</a>
</g>
</g>
<!-- Node1&#45;&gt;Node4 -->
<g id="edge3" class="edge">
<title>Node1&#45;&gt;Node4</title>
<path fill="none" stroke="#63b8ff" d="M137.29,-84.78C145.24,-85.7 153.38,-86.63 161.4,-87.55"/>
<polygon fill="#63b8ff" stroke="#63b8ff" points="160.8,-91 171.13,-88.67 161.6,-84.05 160.8,-91"/>
</g>
<!-- Node5 -->
<g id="node5" class="node">
<title>Node5</title>
<g id="a_node5"><a xlink:href="classQtTable.html#a5f1148b5f6442198f8fb849abd60a91e" target="_top" xlink:title=" ">
<polygon fill="white" stroke="#666666" points="295.5,-29.5 176.5,-29.5 176.5,-10.5 295.5,-10.5 295.5,-29.5"/>
<text text-anchor="middle" x="236" y="-17.5" font-family="Helvetica,sans-Serif" font-size="10.00">QtTable::updateRows</text>
</a>
</g>
</g>
<!-- Node1&#45;&gt;Node5 -->
<g id="edge5" class="edge">
<title>Node1&#45;&gt;Node5</title>
<path fill="none" stroke="#63b8ff" d="M98.33,-67.07C125.3,-57.78 165.81,-43.83 195.73,-33.53"/>
<polygon fill="#63b8ff" stroke="#63b8ff" points="196.48,-36.97 204.79,-30.4 194.2,-30.35 196.48,-36.97"/>
</g>
<!-- Node4&#45;&gt;Node2 -->
<g id="edge4" class="edge">
<title>Node4&#45;&gt;Node2</title>
<path fill="none" stroke="#63b8ff" d="M299.1,-102.86C307.03,-103.74 315.27,-104.65 323.5,-105.55"/>
<polygon fill="#63b8ff" stroke="#63b8ff" points="322.86,-109.01 333.18,-106.62 323.62,-102.05 322.86,-109.01"/>
</g>
<!-- Node5&#45;&gt;Node3 -->
<g id="edge8" class="edge">
<title>Node5&#45;&gt;Node3</title>
<path fill="none" stroke="#63b8ff" d="M282.19,-29.98C303.83,-34.77 329.96,-40.54 352.86,-45.6"/>
<polygon fill="#63b8ff" stroke="#63b8ff" points="351.82,-48.95 362.33,-47.69 353.33,-42.12 351.82,-48.95"/>
</g>
<!-- Node6 -->
<g id="node6" class="node">
<title>Node6</title>
<g id="a_node6"><a xlink:href="classApplicationSettings.html#a59fd66f9eab421c8e7ea4da03c4b0d1e" target="_top" xlink:title=" ">
<polygon fill="white" stroke="#666666" points="465.5,-30 354.5,-30 354.5,0 465.5,0 465.5,-30"/>
<text text-anchor="start" x="362.5" y="-18" font-family="Helvetica,sans-Serif" font-size="10.00">ApplicationSettings</text>
<text text-anchor="middle" x="410" y="-7" font-family="Helvetica,sans-Serif" font-size="10.00">::getInstance</text>
</a>
</g>
</g>
<!-- Node5&#45;&gt;Node6 -->
<g id="edge6" class="edge">
<title>Node5&#45;&gt;Node6</title>
<path fill="none" stroke="#63b8ff" d="M295.71,-18.29C310.9,-17.85 327.36,-17.37 342.91,-16.92"/>
<polygon fill="#63b8ff" stroke="#63b8ff" points="342.62,-20.43 352.52,-16.64 342.42,-13.43 342.62,-20.43"/>
</g>
<!-- Node7 -->
<g id="node7" class="node">
<title>Node7</title>
<g id="a_node7"><a xlink:href="classApplicationSettings.html#a577f5c7696669ffd72b37c28eb3eb04c" target="_top" xlink:title=" ">
<polygon fill="white" stroke="#666666" points="638,-30 521,-30 521,0 638,0 638,-30"/>
<text text-anchor="start" x="529" y="-18" font-family="Helvetica,sans-Serif" font-size="10.00">ApplicationSettings</text>
<text text-anchor="middle" x="579.5" y="-7" font-family="Helvetica,sans-Serif" font-size="10.00">::ApplicationSettings</text>
</a>
</g>
</g>
<!-- Node6&#45;&gt;Node7 -->
<g id="edge7" class="edge">
<title>Node6&#45;&gt;Node7</title>
<path fill="none" stroke="#63b8ff" d="M465.85,-15C479.7,-15 494.75,-15 509.21,-15"/>
<polygon fill="#63b8ff" stroke="#63b8ff" points="509.14,-18.5 519.14,-15 509.14,-11.5 509.14,-18.5"/>
</g>
</g>
</svg>
