<?xml version="1.0" encoding="UTF-8" standalone="no"?>
<!DOCTYPE svg PUBLIC "-//W3C//DTD SVG 1.1//EN"
 "http://www.w3.org/Graphics/SVG/1.1/DTD/svg11.dtd">
<!-- Generated by graphviz version 7.1.0 (0)
 -->
<!-- Title: TaskFillIndexerCommandsQueue::doUpdate Pages: 1 -->
<svg width="1168pt" height="364pt"
 viewBox="0.00 0.00 1168.00 364.00" xmlns="http://www.w3.org/2000/svg" xmlns:xlink="http://www.w3.org/1999/xlink">
<g id="graph0" class="graph" transform="scale(1 1) rotate(0) translate(4 360)">
<title>TaskFillIndexerCommandsQueue::doUpdate</title>
<!-- Node1 -->
<g id="node1" class="node">
<title>Node1</title>
<g id="a_node1"><a xlink:title=" ">
<polygon fill="#999999" stroke="#666666" points="176,-222 0,-222 0,-192 176,-192 176,-222"/>
<text text-anchor="start" x="8" y="-210" font-family="Helvetica,sans-Serif" font-size="10.00">TaskFillIndexerCommandsQueue</text>
<text text-anchor="middle" x="88" y="-199" font-family="Helvetica,sans-Serif" font-size="10.00">::doUpdate</text>
</a>
</g>
</g>
<!-- Node2 -->
<g id="node2" class="node">
<title>Node2</title>
<g id="a_node2"><a xlink:href="classTaskFillIndexerCommandsQueue.html#a04c4f74d679c9a6ab7e3a008c92c26ba" target="_top" xlink:title=" ">
<polygon fill="white" stroke="#666666" points="388,-222 212,-222 212,-192 388,-192 388,-222"/>
<text text-anchor="start" x="220" y="-210" font-family="Helvetica,sans-Serif" font-size="10.00">TaskFillIndexerCommandsQueue</text>
<text text-anchor="middle" x="300" y="-199" font-family="Helvetica,sans-Serif" font-size="10.00">::fillCommandQueue</text>
</a>
</g>
</g>
<!-- Node1&#45;&gt;Node2 -->
<g id="edge1" class="edge">
<title>Node1&#45;&gt;Node2</title>
<path fill="none" stroke="#63b8ff" d="M176.23,-207C184.2,-207 192.31,-207 200.36,-207"/>
<polygon fill="#63b8ff" stroke="#63b8ff" points="200.19,-210.5 210.19,-207 200.19,-203.5 200.19,-210.5"/>
</g>
<!-- Node3 -->
<g id="node3" class="node">
<title>Node3</title>
<g id="a_node3"><a xlink:href="classInterprocessIndexerCommandManager.html#abcc6fab068063c658d1c4a2acb6e0baf" target="_top" xlink:title=" ">
<polygon fill="white" stroke="#666666" points="605,-277 424,-277 424,-247 605,-247 605,-277"/>
<text text-anchor="start" x="432" y="-265" font-family="Helvetica,sans-Serif" font-size="10.00">InterprocessIndexerCommand</text>
<text text-anchor="middle" x="514.5" y="-254" font-family="Helvetica,sans-Serif" font-size="10.00">Manager::indexerCommandCount</text>
</a>
</g>
</g>
<!-- Node2&#45;&gt;Node3 -->
<g id="edge2" class="edge">
<title>Node2&#45;&gt;Node3</title>
<path fill="none" stroke="#63b8ff" d="M360.76,-222.47C386.33,-229.09 416.37,-236.86 443.02,-243.76"/>
<polygon fill="#63b8ff" stroke="#63b8ff" points="441.8,-247.06 452.36,-246.17 443.55,-240.28 441.8,-247.06"/>
</g>
<!-- Node6 -->
<g id="node6" class="node">
<title>Node6</title>
<g id="a_node6"><a xlink:href="classInterprocessIndexerCommandManager.html#a5ec0bb17b47ed34cda10af987c80a87a" target="_top" xlink:title=" ">
<polygon fill="white" stroke="#666666" points="605,-198 424,-198 424,-168 605,-168 605,-198"/>
<text text-anchor="start" x="432" y="-186" font-family="Helvetica,sans-Serif" font-size="10.00">InterprocessIndexerCommand</text>
<text text-anchor="middle" x="514.5" y="-175" font-family="Helvetica,sans-Serif" font-size="10.00">Manager::pushIndexerCommands</text>
</a>
</g>
</g>
<!-- Node2&#45;&gt;Node6 -->
<g id="edge5" class="edge">
<title>Node2&#45;&gt;Node6</title>
<path fill="none" stroke="#63b8ff" d="M388.35,-197.13C396.29,-196.24 404.37,-195.33 412.41,-194.42"/>
<polygon fill="#63b8ff" stroke="#63b8ff" points="412.69,-197.91 422.23,-193.31 411.9,-190.95 412.69,-197.91"/>
</g>
<!-- Node4 -->
<g id="node4" class="node">
<title>Node4</title>
<g id="a_node4"><a xlink:href="classSharedMemory_1_1ScopedAccess.html#a2d8027e6c2dd6df9a66dac209793cc93" target="_top" xlink:title=" ">
<polygon fill="white" stroke="#666666" points="806,-308 641,-308 641,-278 806,-278 806,-308"/>
<text text-anchor="start" x="649" y="-296" font-family="Helvetica,sans-Serif" font-size="10.00">SharedMemory::ScopedAccess</text>
<text text-anchor="middle" x="723.5" y="-285" font-family="Helvetica,sans-Serif" font-size="10.00">::accessValueWithAllocator</text>
</a>
</g>
</g>
<!-- Node3&#45;&gt;Node4 -->
<g id="edge3" class="edge">
<title>Node3&#45;&gt;Node4</title>
<path fill="none" stroke="#63b8ff" d="M605.39,-275.46C613.33,-276.65 621.37,-277.85 629.33,-279.05"/>
<polygon fill="#63b8ff" stroke="#63b8ff" points="628.61,-282.48 639.01,-280.5 629.64,-275.55 628.61,-282.48"/>
</g>
<!-- Node5 -->
<g id="node5" class="node">
<title>Node5</title>
<g id="a_node5"><a xlink:href="classSharedMemory_1_1ScopedAccess.html#ab30438bfd4b6345dba19341fcb8f032f" target="_top" xlink:title=" ">
<polygon fill="white" stroke="#666666" points="1007,-356 842,-356 842,-326 1007,-326 1007,-356"/>
<text text-anchor="start" x="850" y="-344" font-family="Helvetica,sans-Serif" font-size="10.00">SharedMemory::ScopedAccess</text>
<text text-anchor="middle" x="924.5" y="-333" font-family="Helvetica,sans-Serif" font-size="10.00">::getAllocator</text>
</a>
</g>
</g>
<!-- Node4&#45;&gt;Node5 -->
<g id="edge4" class="edge">
<title>Node4&#45;&gt;Node5</title>
<path fill="none" stroke="#63b8ff" d="M788.56,-308.45C807.65,-313.06 828.73,-318.14 848.45,-322.9"/>
<polygon fill="#63b8ff" stroke="#63b8ff" points="847.55,-326.28 858.09,-325.22 849.19,-319.48 847.55,-326.28"/>
</g>
<!-- Node6&#45;&gt;Node4 -->
<g id="edge6" class="edge">
<title>Node6&#45;&gt;Node4</title>
<path fill="none" stroke="#63b8ff" d="M541.67,-198.38C559.69,-209.14 584.06,-224.03 605,-238 621.42,-248.95 623.53,-254.82 641,-264 647.52,-267.43 654.54,-270.6 661.61,-273.5"/>
<polygon fill="#63b8ff" stroke="#63b8ff" points="659.98,-276.62 670.57,-277 662.53,-270.1 659.98,-276.62"/>
</g>
<!-- Node6&#45;&gt;Node5 -->
<g id="edge17" class="edge">
<title>Node6&#45;&gt;Node5</title>
<path fill="none" stroke="#63b8ff" d="M551.83,-198.43C576.64,-208.59 610.43,-221.68 641,-231 712.98,-252.94 742.92,-227.96 806,-269 828.35,-283.54 820.09,-301.79 842,-317 843.77,-318.23 845.61,-319.4 847.49,-320.51"/>
<polygon fill="#63b8ff" stroke="#63b8ff" points="845.45,-323.39 855.94,-324.88 848.67,-317.17 845.45,-323.39"/>
</g>
<!-- Node7 -->
<g id="node7" class="node">
<title>Node7</title>
<g id="a_node7"><a xlink:href="classSharedIndexerCommand.html#a260525ca13e49ebbc67f161d3ab2b8de" target="_top" xlink:title=" ">
<polygon fill="white" stroke="#666666" points="792,-222 655,-222 655,-192 792,-192 792,-222"/>
<text text-anchor="start" x="663" y="-210" font-family="Helvetica,sans-Serif" font-size="10.00">SharedIndexerCommand</text>
<text text-anchor="middle" x="723.5" y="-199" font-family="Helvetica,sans-Serif" font-size="10.00">::fromLocal</text>
</a>
</g>
</g>
<!-- Node6&#45;&gt;Node7 -->
<g id="edge7" class="edge">
<title>Node6&#45;&gt;Node7</title>
<path fill="none" stroke="#63b8ff" d="M605.39,-193.42C618,-194.88 630.89,-196.38 643.29,-197.82"/>
<polygon fill="#63b8ff" stroke="#63b8ff" points="642.67,-201.27 653.01,-198.94 643.48,-194.31 642.67,-201.27"/>
</g>
<!-- Node16 -->
<g id="node16" class="node">
<title>Node16</title>
<g id="a_node16"><a xlink:href="classSharedMemory_1_1ScopedAccess.html#acaa8dbdd8c8a32d2f72308755b570403" target="_top" xlink:title=" ">
<polygon fill="white" stroke="#666666" points="806,-174 641,-174 641,-144 806,-144 806,-174"/>
<text text-anchor="start" x="649" y="-162" font-family="Helvetica,sans-Serif" font-size="10.00">SharedMemory::ScopedAccess</text>
<text text-anchor="middle" x="723.5" y="-151" font-family="Helvetica,sans-Serif" font-size="10.00">::getFreeMemorySize</text>
</a>
</g>
</g>
<!-- Node6&#45;&gt;Node16 -->
<g id="edge18" class="edge">
<title>Node6&#45;&gt;Node16</title>
<path fill="none" stroke="#63b8ff" d="M605.39,-172.58C613.33,-171.66 621.37,-170.73 629.33,-169.8"/>
<polygon fill="#63b8ff" stroke="#63b8ff" points="629.48,-173.31 639.01,-168.68 628.67,-166.36 629.48,-173.31"/>
</g>
<!-- Node17 -->
<g id="node17" class="node">
<title>Node17</title>
<g id="a_node17"><a xlink:href="classSharedMemory_1_1ScopedAccess.html#adacee40c189e7cbc235d68b45bdfc1b4" target="_top" xlink:title=" ">
<polygon fill="white" stroke="#666666" points="806,-126 641,-126 641,-96 806,-96 806,-126"/>
<text text-anchor="start" x="649" y="-114" font-family="Helvetica,sans-Serif" font-size="10.00">SharedMemory::ScopedAccess</text>
<text text-anchor="middle" x="723.5" y="-103" font-family="Helvetica,sans-Serif" font-size="10.00">::getMemorySize</text>
</a>
</g>
</g>
<!-- Node6&#45;&gt;Node17 -->
<g id="edge19" class="edge">
<title>Node6&#45;&gt;Node17</title>
<path fill="none" stroke="#63b8ff" d="M553.66,-167.5C578.39,-157.69 611.39,-145.01 641,-135 646.28,-133.22 651.78,-131.44 657.31,-129.7"/>
<polygon fill="#63b8ff" stroke="#63b8ff" points="657.98,-133.15 666.51,-126.86 655.92,-126.46 657.98,-133.15"/>
</g>
<!-- Node18 -->
<g id="node18" class="node">
<title>Node18</title>
<g id="a_node18"><a xlink:href="classSharedMemory_1_1ScopedAccess.html#a9c1a4fec6467a641f1bb86e39c5202d9" target="_top" xlink:title=" ">
<polygon fill="white" stroke="#666666" points="806,-78 641,-78 641,-48 806,-48 806,-78"/>
<text text-anchor="start" x="649" y="-66" font-family="Helvetica,sans-Serif" font-size="10.00">SharedMemory::ScopedAccess</text>
<text text-anchor="middle" x="723.5" y="-55" font-family="Helvetica,sans-Serif" font-size="10.00">::growMemory</text>
</a>
</g>
</g>
<!-- Node6&#45;&gt;Node18 -->
<g id="edge20" class="edge">
<title>Node6&#45;&gt;Node18</title>
<path fill="none" stroke="#63b8ff" d="M531.23,-167.85C553.79,-146.88 597.46,-109.1 641,-87 644.06,-85.45 647.23,-83.98 650.48,-82.59"/>
<polygon fill="#63b8ff" stroke="#63b8ff" points="651.59,-85.91 659.62,-78.99 649.03,-79.4 651.59,-85.91"/>
</g>
<!-- Node19 -->
<g id="node19" class="node">
<title>Node19</title>
<g id="a_node19"><a xlink:href="classSharedMemory_1_1ScopedAccess.html#a72942dd31464a0aecf2cfbb01abb65ee" target="_top" xlink:title=" ">
<polygon fill="white" stroke="#666666" points="806,-30 641,-30 641,0 806,0 806,-30"/>
<text text-anchor="start" x="649" y="-18" font-family="Helvetica,sans-Serif" font-size="10.00">SharedMemory::ScopedAccess</text>
<text text-anchor="middle" x="723.5" y="-7" font-family="Helvetica,sans-Serif" font-size="10.00">::logString</text>
</a>
</g>
</g>
<!-- Node6&#45;&gt;Node19 -->
<g id="edge21" class="edge">
<title>Node6&#45;&gt;Node19</title>
<path fill="none" stroke="#63b8ff" d="M524.49,-167.86C542.7,-138.52 586.84,-73.73 641,-39 642.99,-37.72 645.05,-36.52 647.16,-35.37"/>
<polygon fill="#63b8ff" stroke="#63b8ff" points="648.52,-38.6 656.01,-31.1 645.48,-32.29 648.52,-38.6"/>
</g>
<!-- Node8 -->
<g id="node8" class="node">
<title>Node8</title>
<g id="a_node8"><a xlink:href="namespaceutility.html#aa2aad75e2450a26e520180d5b059c638" target="_top" xlink:title=" ">
<polygon fill="white" stroke="#666666" points="990,-307.5 859,-307.5 859,-288.5 990,-288.5 990,-307.5"/>
<text text-anchor="middle" x="924.5" y="-295.5" font-family="Helvetica,sans-Serif" font-size="10.00">utility::decodeFromUtf8</text>
</a>
</g>
</g>
<!-- Node7&#45;&gt;Node8 -->
<g id="edge8" class="edge">
<title>Node7&#45;&gt;Node8</title>
<path fill="none" stroke="#63b8ff" d="M780.38,-222.38C789.35,-226.1 798.23,-230.6 806,-236 826.46,-250.23 820.77,-265.94 842,-279 844.94,-280.81 848.03,-282.44 851.23,-283.92"/>
<polygon fill="#63b8ff" stroke="#63b8ff" points="849.72,-287.09 860.3,-287.57 852.33,-280.59 849.72,-287.09"/>
</g>
<!-- Node9 -->
<g id="node9" class="node">
<title>Node9</title>
<g id="a_node9"><a xlink:href="classIndexerCommand.html#af724aa87829e397d54576a769f822e2a" target="_top" xlink:title=" ">
<polygon fill="white" stroke="#666666" points="1005.5,-270 843.5,-270 843.5,-240 1005.5,-240 1005.5,-270"/>
<text text-anchor="start" x="851.5" y="-258" font-family="Helvetica,sans-Serif" font-size="10.00">IndexerCommand::getIndexer</text>
<text text-anchor="middle" x="924.5" y="-247" font-family="Helvetica,sans-Serif" font-size="10.00">CommandType</text>
</a>
</g>
</g>
<!-- Node7&#45;&gt;Node9 -->
<g id="edge9" class="edge">
<title>Node7&#45;&gt;Node9</title>
<path fill="none" stroke="#63b8ff" d="M788.56,-222.45C807.65,-227.06 828.73,-232.14 848.45,-236.9"/>
<polygon fill="#63b8ff" stroke="#63b8ff" points="847.55,-240.28 858.09,-239.22 849.19,-233.48 847.55,-240.28"/>
</g>
<!-- Node10 -->
<g id="node10" class="node">
<title>Node10</title>
<g id="a_node10"><a xlink:href="classIndexerCommand.html#a4c40244329ccf4b7c9f819979c477a6a" target="_top" xlink:title=" ">
<polygon fill="white" stroke="#666666" points="1003.5,-222 845.5,-222 845.5,-192 1003.5,-192 1003.5,-222"/>
<text text-anchor="start" x="853.5" y="-210" font-family="Helvetica,sans-Serif" font-size="10.00">IndexerCommand::getSource</text>
<text text-anchor="middle" x="924.5" y="-199" font-family="Helvetica,sans-Serif" font-size="10.00">FilePath</text>
</a>
</g>
</g>
<!-- Node7&#45;&gt;Node10 -->
<g id="edge10" class="edge">
<title>Node7&#45;&gt;Node10</title>
<path fill="none" stroke="#63b8ff" d="M792.43,-207C805.84,-207 820.11,-207 834.11,-207"/>
<polygon fill="#63b8ff" stroke="#63b8ff" points="833.75,-210.5 843.75,-207 833.75,-203.5 833.75,-210.5"/>
</g>
<!-- Node11 -->
<g id="node11" class="node">
<title>Node11</title>
<g id="a_node11"><a xlink:href="IndexerCommandType_8cpp.html#a912c7ce4085b0447b1e08a730753421e" target="_top" xlink:title=" ">
<polygon fill="white" stroke="#666666" points="1007,-173.5 842,-173.5 842,-154.5 1007,-154.5 1007,-173.5"/>
<text text-anchor="middle" x="924.5" y="-161.5" font-family="Helvetica,sans-Serif" font-size="10.00">indexerCommandTypeToString</text>
</a>
</g>
</g>
<!-- Node7&#45;&gt;Node11 -->
<g id="edge11" class="edge">
<title>Node7&#45;&gt;Node11</title>
<path fill="none" stroke="#63b8ff" d="M792.43,-192.32C816.52,-187.12 843.37,-181.31 866.46,-176.32"/>
<polygon fill="#63b8ff" stroke="#63b8ff" points="866.95,-179.8 875.99,-174.27 865.48,-172.96 866.95,-179.8"/>
</g>
<!-- Node12 -->
<g id="node12" class="node">
<title>Node12</title>
<g id="a_node12"><a xlink:href="classSharedIndexerCommand.html#ac75c288bd04765c3cfe569e80229064c" target="_top" xlink:title=" ">
<polygon fill="white" stroke="#666666" points="993,-136 856,-136 856,-106 993,-106 993,-136"/>
<text text-anchor="start" x="864" y="-124" font-family="Helvetica,sans-Serif" font-size="10.00">SharedIndexerCommand</text>
<text text-anchor="middle" x="924.5" y="-113" font-family="Helvetica,sans-Serif" font-size="10.00">::setSourceFilePath</text>
</a>
</g>
</g>
<!-- Node7&#45;&gt;Node12 -->
<g id="edge12" class="edge">
<title>Node7&#45;&gt;Node12</title>
<path fill="none" stroke="#63b8ff" d="M788.59,-191.61C794.66,-189.13 800.57,-186.28 806,-183 825.65,-171.15 822.42,-157.96 842,-146 844.94,-144.21 848.01,-142.53 851.18,-140.97"/>
<polygon fill="#63b8ff" stroke="#63b8ff" points="852.44,-144.24 860.15,-136.97 849.59,-137.85 852.44,-144.24"/>
</g>
<!-- Node14 -->
<g id="node14" class="node">
<title>Node14</title>
<g id="a_node14"><a xlink:href="classFilePath.html#a989e098726c8387d4f4690bca3314ce8" target="_top" xlink:title=" ">
<polygon fill="white" stroke="#666666" points="1142.5,-90.5 1060.5,-90.5 1060.5,-71.5 1142.5,-71.5 1142.5,-90.5"/>
<text text-anchor="middle" x="1101.5" y="-78.5" font-family="Helvetica,sans-Serif" font-size="10.00">FilePath::wstr</text>
</a>
</g>
</g>
<!-- Node7&#45;&gt;Node14 -->
<g id="edge16" class="edge">
<title>Node7&#45;&gt;Node14</title>
<path fill="none" stroke="#63b8ff" d="M792.46,-192.35C797.34,-189.73 801.93,-186.64 806,-183 836.87,-155.36 808.23,-121.01 842,-97 902.68,-53.85 993.02,-59.83 1049.26,-69.43"/>
<polygon fill="#63b8ff" stroke="#63b8ff" points="1048.42,-72.84 1058.88,-71.18 1049.67,-65.95 1048.42,-72.84"/>
</g>
<!-- Node15 -->
<g id="node15" class="node">
<title>Node15</title>
<g id="a_node15"><a xlink:href="classSharedIndexerCommand.html#a373d73077ebd43d0cefd7391e7f67d3b" target="_top" xlink:title=" ">
<polygon fill="white" stroke="#666666" points="993,-50 856,-50 856,-20 993,-20 993,-50"/>
<text text-anchor="start" x="864" y="-38" font-family="Helvetica,sans-Serif" font-size="10.00">SharedIndexerCommand</text>
<text text-anchor="middle" x="924.5" y="-27" font-family="Helvetica,sans-Serif" font-size="10.00">::setType</text>
</a>
</g>
</g>
<!-- Node7&#45;&gt;Node15 -->
<g id="edge15" class="edge">
<title>Node7&#45;&gt;Node15</title>
<path fill="none" stroke="#63b8ff" d="M792.49,-193.02C797.43,-190.25 802.02,-186.95 806,-183 845.22,-144.07 803.88,-104 842,-64 844.72,-61.14 847.75,-58.56 850.98,-56.24"/>
<polygon fill="#63b8ff" stroke="#63b8ff" points="852.61,-59.35 859.29,-51.13 848.94,-53.39 852.61,-59.35"/>
</g>
<!-- Node13 -->
<g id="node13" class="node">
<title>Node13</title>
<g id="a_node13"><a xlink:href="namespaceutility.html#a3370ea0d4afa1a0a4376d2fe034799ce" target="_top" xlink:title=" ">
<polygon fill="white" stroke="#666666" points="1160,-130.5 1043,-130.5 1043,-111.5 1160,-111.5 1160,-130.5"/>
<text text-anchor="middle" x="1101.5" y="-118.5" font-family="Helvetica,sans-Serif" font-size="10.00">utility::encodeToUtf8</text>
</a>
</g>
</g>
<!-- Node12&#45;&gt;Node13 -->
<g id="edge13" class="edge">
<title>Node12&#45;&gt;Node13</title>
<path fill="none" stroke="#63b8ff" d="M993.41,-121C1005.84,-121 1018.83,-121 1031.3,-121"/>
<polygon fill="#63b8ff" stroke="#63b8ff" points="1031.06,-124.5 1041.06,-121 1031.06,-117.5 1031.06,-124.5"/>
</g>
<!-- Node12&#45;&gt;Node14 -->
<g id="edge14" class="edge">
<title>Node12&#45;&gt;Node14</title>
<path fill="none" stroke="#63b8ff" d="M993.16,-105.53C1011.7,-101.3 1031.5,-96.77 1048.97,-92.78"/>
<polygon fill="#63b8ff" stroke="#63b8ff" points="1049.64,-96.21 1058.61,-90.57 1048.08,-89.39 1049.64,-96.21"/>
</g>
</g>
</svg>
