<?xml version="1.0" encoding="UTF-8" standalone="no"?>
<!DOCTYPE svg PUBLIC "-//W3C//DTD SVG 1.1//EN"
 "http://www.w3.org/Graphics/SVG/1.1/DTD/svg11.dtd">
<!-- Generated by graphviz version 9.0.0 (0)
 -->
<!-- Title: QtBookmark::editClicked Pages: 1 -->
<!--zoomable 161 -->

<svg id="main" version="1.1" xmlns="http://www.w3.org/2000/svg" xmlns:xlink="http://www.w3.org/1999/xlink" xml:space="preserve" onload="init(evt)">
<style type="text/css"><![CDATA[
.node, .edge {opacity: 0.7;}
.node.selected, .edge.selected {opacity: 1;}
.edge:hover path { stroke: red; }
.edge:hover polygon { stroke: red; fill: red; }
]]></style>

<defs>
  <circle id="rim" cx="0" cy="0" r="7"/>
  <circle id="rim2" cx="0" cy="0" r="3.5"/>
  <g id="zoomPlus">
    <use xlink:href="#rim" fill="#404040"><set attributeName="fill" to="#808080" begin="zoomplus.mouseover" end="zoomplus.mouseout"/></use>
    <path d="M-4,0h8M0,-4v8" fill="none" stroke="white" stroke-width="1.5" pointer-events="none"/>
  </g>
  <g id="zoomMin">
    <use xlink:href="#rim" fill="#404040"><set attributeName="fill" to="#808080" begin="zoomminus.mouseover" end="zoomminus.mouseout"/></use>
    <path d="M-4,0h8" fill="none" stroke="white" stroke-width="1.5" pointer-events="none"/>
  </g>
  <g id="arrowUp" transform="translate(30 24)">
    <use xlink:href="#rim"/>
    <path pointer-events="none" fill="none" stroke="white" stroke-width="1.5" d="M0,-3.0v7 M-2.5,-0.5L0,-3.0L2.5,-0.5"/>
  </g>
  <g id="arrowRight" transform="rotate(90) translate(36 -43)">
    <use xlink:href="#rim"/>
    <path pointer-events="none" fill="none" stroke="white" stroke-width="1.5" d="M0,-3.0v7 M-2.5,-0.5L0,-3.0L2.5,-0.5"/>
  </g>
  <g id="arrowDown" transform="rotate(180) translate(-30 -48)">
    <use xlink:href="#rim"/>
    <path pointer-events="none" fill="none" stroke="white" stroke-width="1.5" d="M0,-3.0v7 M-2.5,-0.5L0,-3.0L2.5,-0.5"/>
  </g>
  <g id="arrowLeft" transform="rotate(270) translate(-36 17)">
    <use xlink:href="#rim"/>
    <path pointer-events="none" fill="none" stroke="white" stroke-width="1.5" d="M0,-3.0v7 M-2.5,-0.5L0,-3.0L2.5,-0.5"/>
  </g>
  <g id="resetDef">
    <use xlink:href="#rim2" fill="#404040"><set attributeName="fill" to="#808080" begin="reset.mouseover" end="reset.mouseout"/></use>
  </g>
</defs>
<script type="application/ecmascript">
var viewWidth = 715;
var viewHeight = 161;
var sectionId = 'dynsection-9';
</script>
<script type="application/ecmascript" xlink:href="svg.min.js"/>
<svg id="graph" class="graph">
<g id="viewport">
<title>QtBookmark::editClicked</title>
<!-- Node1 -->
<g id="Node000001" class="node">
<title>Node1</title>
<g id="a_Node000001"><a xlink:title=" ">
<polygon fill="#999999" stroke="#666666" points="137.5,-89.75 0,-89.75 0,-69 137.5,-69 137.5,-89.75"/>
<text text-anchor="middle" x="68.75" y="-76.25" font-family="Helvetica,sans-Serif" font-size="10.00">QtBookmark::editClicked</text>
</a>
</g>
</g>
<!-- Node2 -->
<g id="Node000002" class="node">
<title>Node2</title>
<g id="a_Node000002"><a xlink:href="classControllerProxy.html#aff70b62084483194c2c94e861d064cfb" target="_top" xlink:title=" ">
<polygon fill="white" stroke="#666666" points="309.5,-122.12 173.5,-122.12 173.5,-88.62 309.5,-88.62 309.5,-122.12"/>
<text text-anchor="start" x="181.5" y="-108.62" font-family="Helvetica,sans-Serif" font-size="10.00">ControllerProxy::execute</text>
<text text-anchor="middle" x="241.5" y="-95.88" font-family="Helvetica,sans-Serif" font-size="10.00">AsTaskWithArgs</text>
</a>
</g>
</g>
<!-- Node1&#45;&gt;Node2 -->
<g id="edge1_Node000001_Node000002" class="edge">
<title>Node1&#45;&gt;Node2</title>
<g id="a_edge1_Node000001_Node000002"><a xlink:title=" ">
<path fill="none" stroke="#63b8ff" d="M137.73,-89.73C145.63,-90.93 153.74,-92.16 161.77,-93.39"/>
<polygon fill="#63b8ff" stroke="#63b8ff" points="161.13,-96.83 171.54,-94.87 162.18,-89.91 161.13,-96.83"/>
</a>
</g>
</g>
<!-- Node7 -->
<g id="Node000007" class="node">
<title>Node7</title>
<g id="a_Node000007"><a xlink:href="classBookmarkController.html#a358865d603b242a714906efbe6b2b2e8" target="_top" xlink:title=" ">
<polygon fill="white" stroke="#666666" points="304.62,-70.12 178.38,-70.12 178.38,-36.62 304.62,-36.62 304.62,-70.12"/>
<text text-anchor="start" x="186.38" y="-56.62" font-family="Helvetica,sans-Serif" font-size="10.00">BookmarkController</text>
<text text-anchor="middle" x="241.5" y="-43.88" font-family="Helvetica,sans-Serif" font-size="10.00">::showBookmarkEditor</text>
</a>
</g>
</g>
<!-- Node1&#45;&gt;Node7 -->
<g id="edge6_Node000001_Node000007" class="edge">
<title>Node1&#45;&gt;Node7</title>
<g id="a_edge6_Node000001_Node000007"><a xlink:title=" ">
<path fill="none" stroke="#63b8ff" d="M137.73,-69.02C147.28,-67.57 157.15,-66.07 166.81,-64.6"/>
<polygon fill="#63b8ff" stroke="#63b8ff" points="167.17,-68.08 176.53,-63.12 166.11,-61.16 167.17,-68.08"/>
</a>
</g>
</g>
<!-- Node3 -->
<g id="Node000003" class="node">
<title>Node3</title>
<g id="a_Node000003"><a xlink:href="classTask.html#afbf3e5b7febfad5362973e6c605e0c91" target="_top" xlink:title=" ">
<polygon fill="white" stroke="#666666" points="464.62,-152.75 379.62,-152.75 379.62,-132 464.62,-132 464.62,-152.75"/>
<text text-anchor="middle" x="422.12" y="-139.25" font-family="Helvetica,sans-Serif" font-size="10.00">Task::dispatch</text>
</a>
</g>
</g>
<!-- Node2&#45;&gt;Node3 -->
<g id="edge2_Node000002_Node000003" class="edge">
<title>Node2&#45;&gt;Node3</title>
<g id="a_edge2_Node000002_Node000003"><a xlink:title=" ">
<path fill="none" stroke="#63b8ff" d="M309.78,-119.31C329.1,-123.31 349.9,-127.62 368.23,-131.42"/>
<polygon fill="#63b8ff" stroke="#63b8ff" points="367.3,-134.8 377.8,-133.4 368.72,-127.95 367.3,-134.8"/>
</a>
</g>
</g>
<!-- Node5 -->
<g id="Node000005" class="node">
<title>Node5</title>
<g id="a_Node000005"><a xlink:href="classView.html#aa4d988d307d70568545ad17f89dbe789" target="_top" xlink:title=" ">
<polygon fill="white" stroke="#666666" points="477,-113.75 367.25,-113.75 367.25,-93 477,-93 477,-113.75"/>
<text text-anchor="middle" x="422.12" y="-100.25" font-family="Helvetica,sans-Serif" font-size="10.00">View::getController</text>
</a>
</g>
</g>
<!-- Node2&#45;&gt;Node5 -->
<g id="edge4_Node000002_Node000005" class="edge">
<title>Node2&#45;&gt;Node5</title>
<g id="a_edge4_Node000002_Node000005"><a xlink:title=" ">
<path fill="none" stroke="#63b8ff" d="M309.78,-104.62C324.83,-104.45 340.77,-104.27 355.75,-104.11"/>
<polygon fill="#63b8ff" stroke="#63b8ff" points="355.5,-107.61 365.46,-104 355.42,-100.61 355.5,-107.61"/>
</a>
</g>
</g>
<!-- Node4 -->
<g id="Node000004" class="node">
<title>Node4</title>
<g id="a_Node000004"><a xlink:href="classTaskManager.html#abad32d382134af5d84739dd12a33beaf" target="_top" xlink:title=" ">
<polygon fill="white" stroke="#666666" points="695.88,-152.75 545.62,-152.75 545.62,-132 695.88,-132 695.88,-152.75"/>
<text text-anchor="middle" x="620.75" y="-139.25" font-family="Helvetica,sans-Serif" font-size="10.00">TaskManager::getScheduler</text>
</a>
</g>
</g>
<!-- Node3&#45;&gt;Node4 -->
<g id="edge3_Node000003_Node000004" class="edge">
<title>Node3&#45;&gt;Node4</title>
<g id="a_edge3_Node000003_Node000004"><a xlink:title=" ">
<path fill="none" stroke="#63b8ff" d="M464.82,-142.38C484.97,-142.38 509.92,-142.38 533.88,-142.38"/>
<polygon fill="#63b8ff" stroke="#63b8ff" points="533.65,-145.88 543.65,-142.38 533.65,-138.88 533.65,-145.88"/>
</a>
</g>
</g>
<!-- Node6 -->
<g id="Node000006" class="node">
<title>Node6</title>
<g id="a_Node000006"><a xlink:href="classComponent.html#a7312b206ac33721ebb1f1fdd364ed1f4" target="_top" xlink:title=" ">
<polygon fill="white" stroke="#666666" points="691.75,-113.75 549.75,-113.75 549.75,-93 691.75,-93 691.75,-113.75"/>
<text text-anchor="middle" x="620.75" y="-100.25" font-family="Helvetica,sans-Serif" font-size="10.00">Component::getController</text>
</a>
</g>
</g>
<!-- Node5&#45;&gt;Node6 -->
<g id="edge5_Node000005_Node000006" class="edge">
<title>Node5&#45;&gt;Node6</title>
<g id="a_edge5_Node000005_Node000006"><a xlink:title=" ">
<path fill="none" stroke="#63b8ff" d="M477.37,-103.38C496.17,-103.38 517.68,-103.38 538.19,-103.38"/>
<polygon fill="#63b8ff" stroke="#63b8ff" points="537.94,-106.88 547.94,-103.38 537.94,-99.88 537.94,-106.88"/>
</a>
</g>
</g>
<!-- Node8 -->
<g id="Node000008" class="node">
<title>Node8</title>
<g id="a_Node000008"><a xlink:href="classBookmarkController.html#afcba4fa97aeb318e0359b2331dc2c078" target="_top" xlink:title=" ">
<polygon fill="white" stroke="#666666" points="498.75,-72.12 345.5,-72.12 345.5,-38.62 498.75,-38.62 498.75,-72.12"/>
<text text-anchor="start" x="353.5" y="-58.62" font-family="Helvetica,sans-Serif" font-size="10.00">BookmarkController</text>
<text text-anchor="middle" x="422.12" y="-45.88" font-family="Helvetica,sans-Serif" font-size="10.00">::getAllBookmarkCategories</text>
</a>
</g>
</g>
<!-- Node7&#45;&gt;Node8 -->
<g id="edge7_Node000007_Node000008" class="edge">
<title>Node7&#45;&gt;Node8</title>
<g id="a_edge7_Node000007_Node000008"><a xlink:title=" ">
<path fill="none" stroke="#63b8ff" d="M304.97,-54.07C314.3,-54.18 324.06,-54.29 333.79,-54.4"/>
<polygon fill="#63b8ff" stroke="#63b8ff" points="333.61,-57.9 343.65,-54.51 333.69,-50.9 333.61,-57.9"/>
</a>
</g>
</g>
<!-- Node10 -->
<g id="Node000010" class="node">
<title>Node10</title>
<g id="a_Node000010"><a xlink:href="classController.html#a431a774ef12696f8bb22903cada1485c" target="_top" xlink:title=" ">
<polygon fill="white" stroke="#666666" points="477,-20.75 367.25,-20.75 367.25,0 477,0 477,-20.75"/>
<text text-anchor="middle" x="422.12" y="-7.25" font-family="Helvetica,sans-Serif" font-size="10.00">Controller::getView</text>
</a>
</g>
</g>
<!-- Node7&#45;&gt;Node10 -->
<g id="edge9_Node000007_Node000010" class="edge">
<title>Node7&#45;&gt;Node10</title>
<g id="a_edge9_Node000007_Node000010"><a xlink:title=" ">
<path fill="none" stroke="#63b8ff" d="M304.97,-38.34C324.57,-33.62 346.07,-28.44 365.18,-23.84"/>
<polygon fill="#63b8ff" stroke="#63b8ff" points="365.75,-27.31 374.65,-21.56 364.11,-20.5 365.75,-27.31"/>
</a>
</g>
</g>
<!-- Node9 -->
<g id="Node000009" class="node">
<title>Node9</title>
<g id="a_Node000009"><a xlink:href="classStorageAccess.html#a9a22b13d32d988b8350315d695e98d8a" target="_top" xlink:title=" ">
<polygon fill="white" stroke="#666666" points="706.75,-72.12 534.75,-72.12 534.75,-38.62 706.75,-38.62 706.75,-72.12"/>
<text text-anchor="start" x="542.75" y="-58.62" font-family="Helvetica,sans-Serif" font-size="10.00">StorageAccess::getAllBookmark</text>
<text text-anchor="middle" x="620.75" y="-45.88" font-family="Helvetica,sans-Serif" font-size="10.00">Categories</text>
</a>
</g>
</g>
<!-- Node8&#45;&gt;Node9 -->
<g id="edge8_Node000008_Node000009" class="edge">
<title>Node8&#45;&gt;Node9</title>
<g id="a_edge8_Node000008_Node000009"><a xlink:title=" ">
<path fill="none" stroke="#63b8ff" d="M499.15,-55.38C507,-55.38 515.06,-55.38 523.11,-55.38"/>
<polygon fill="#63b8ff" stroke="#63b8ff" points="522.94,-58.88 532.94,-55.38 522.94,-51.88 522.94,-58.88"/>
</a>
</g>
</g>
<!-- Node11 -->
<g id="Node000011" class="node">
<title>Node11</title>
<g id="a_Node000011"><a xlink:href="classComponent.html#a9f4dbd8f986abae9d6014b4a34d2b014" target="_top" xlink:title=" ">
<polygon fill="white" stroke="#666666" points="679.75,-20.75 561.75,-20.75 561.75,0 679.75,0 679.75,-20.75"/>
<text text-anchor="middle" x="620.75" y="-7.25" font-family="Helvetica,sans-Serif" font-size="10.00">Component::getView</text>
</a>
</g>
</g>
<!-- Node10&#45;&gt;Node11 -->
<g id="edge10_Node000010_Node000011" class="edge">
<title>Node10&#45;&gt;Node11</title>
<g id="a_edge10_Node000010_Node000011"><a xlink:title=" ">
<path fill="none" stroke="#63b8ff" d="M477.37,-10.38C499.84,-10.38 526.18,-10.38 550.05,-10.38"/>
<polygon fill="#63b8ff" stroke="#63b8ff" points="550.03,-13.88 560.03,-10.38 550.03,-6.88 550.03,-13.88"/>
</a>
</g>
</g>
</g>
</svg>

<g id="navigator" transform="translate(0 0)" fill="#404254">
  <rect fill="#f2f5e9" fill-opacity="0.5" stroke="#606060" stroke-width=".5" x="0" y="0" width="60" height="60"/>
  <use id="zoomplus" xlink:href="#zoomPlus" x="17" y="9" onmousedown="handleZoom(evt,'in')"/>
  <use id="zoomminus" xlink:href="#zoomMin" x="42" y="9" onmousedown="handleZoom(evt,'out')"/>
  <use id="reset" xlink:href="#resetDef" x="30" y="36" onmousedown="handleReset()"/>
   <use id="arrowup" xlink:href="#arrowUp" x="0" y="0" onmousedown="handlePan(0,-1)"/>
  <use id="arrowright" xlink:href="#arrowRight" x="0" y="0" onmousedown="handlePan(1,0)"/>
  <use id="arrowdown" xlink:href="#arrowDown" x="0" y="0" onmousedown="handlePan(0,1)"/>
  <use id="arrowleft" xlink:href="#arrowLeft" x="0" y="0" onmousedown="handlePan(-1,0)"/>
</g>
<svg viewBox="0 0 15 15" width="100%" height="30px" preserveAspectRatio="xMaxYMin meet">
 <g id="arrow_out" transform="scale(0.3 0.3)">
  <a xlink:href="classQtBookmark_a112e8c8732b75248334e4cb70d68db00_cgraph_org.svg" target="_base">
   <rect id="button" ry="5" rx="5" y="6" x="6" height="38" width="38"
        fill="#f2f5e9" fill-opacity="0.5" stroke="#606060" stroke-width="1.0"/>
   <path id="arrow"
     d="M 11.500037,31.436501 C 11.940474,20.09759 22.043105,11.32322 32.158766,21.979434 L 37.068811,17.246167 C 37.068811,17.246167 37.088388,32 37.088388,32 L 22.160133,31.978069 C 22.160133,31.978069 26.997745,27.140456 26.997745,27.140456 C 18.528582,18.264221 13.291696,25.230495 11.500037,31.436501 z"
     style="fill:#404040;"/>
  </a>
 </g>
</svg>

<style type='text/css'>
<![CDATA[
[data-mouse-over-selected='false'] { opacity: 0.7; }
[data-mouse-over-selected='true']  { opacity: 1.0; }
]]>
</style>
<script type="application/ecmascript"><![CDATA[
document.addEventListener('DOMContentLoaded', (event) => {
  highlightEdges();
  highlightAdjacentNodes();
});
]]></script>
</svg>
