<?xml version="1.0" encoding="UTF-8" standalone="no"?>
<!DOCTYPE svg PUBLIC "-//W3C//DTD SVG 1.1//EN"
 "http://www.w3.org/Graphics/SVG/1.1/DTD/svg11.dtd">
<!-- Generated by graphviz version 9.0.0 (0)
 -->
<!-- Title: BookmarkController::getActiveEdgeDisplayNames Pages: 1 -->
<!--zoomable 249 -->

<svg id="main" version="1.1" xmlns="http://www.w3.org/2000/svg" xmlns:xlink="http://www.w3.org/1999/xlink" xml:space="preserve" onload="init(evt)">
<style type="text/css"><![CDATA[
.node, .edge {opacity: 0.7;}
.node.selected, .edge.selected {opacity: 1;}
.edge:hover path { stroke: red; }
.edge:hover polygon { stroke: red; fill: red; }
]]></style>

<defs>
  <circle id="rim" cx="0" cy="0" r="7"/>
  <circle id="rim2" cx="0" cy="0" r="3.5"/>
  <g id="zoomPlus">
    <use xlink:href="#rim" fill="#404040"><set attributeName="fill" to="#808080" begin="zoomplus.mouseover" end="zoomplus.mouseout"/></use>
    <path d="M-4,0h8M0,-4v8" fill="none" stroke="white" stroke-width="1.5" pointer-events="none"/>
  </g>
  <g id="zoomMin">
    <use xlink:href="#rim" fill="#404040"><set attributeName="fill" to="#808080" begin="zoomminus.mouseover" end="zoomminus.mouseout"/></use>
    <path d="M-4,0h8" fill="none" stroke="white" stroke-width="1.5" pointer-events="none"/>
  </g>
  <g id="arrowUp" transform="translate(30 24)">
    <use xlink:href="#rim"/>
    <path pointer-events="none" fill="none" stroke="white" stroke-width="1.5" d="M0,-3.0v7 M-2.5,-0.5L0,-3.0L2.5,-0.5"/>
  </g>
  <g id="arrowRight" transform="rotate(90) translate(36 -43)">
    <use xlink:href="#rim"/>
    <path pointer-events="none" fill="none" stroke="white" stroke-width="1.5" d="M0,-3.0v7 M-2.5,-0.5L0,-3.0L2.5,-0.5"/>
  </g>
  <g id="arrowDown" transform="rotate(180) translate(-30 -48)">
    <use xlink:href="#rim"/>
    <path pointer-events="none" fill="none" stroke="white" stroke-width="1.5" d="M0,-3.0v7 M-2.5,-0.5L0,-3.0L2.5,-0.5"/>
  </g>
  <g id="arrowLeft" transform="rotate(270) translate(-36 17)">
    <use xlink:href="#rim"/>
    <path pointer-events="none" fill="none" stroke="white" stroke-width="1.5" d="M0,-3.0v7 M-2.5,-0.5L0,-3.0L2.5,-0.5"/>
  </g>
  <g id="resetDef">
    <use xlink:href="#rim2" fill="#404040"><set attributeName="fill" to="#808080" begin="reset.mouseover" end="reset.mouseout"/></use>
  </g>
</defs>
<script type="application/ecmascript">
var viewWidth = 586;
var viewHeight = 249;
var sectionId = 'dynsection-24';
</script>
<script type="application/ecmascript" xlink:href="svg.min.js"/>
<svg id="graph" class="graph">
<g id="viewport">
<title>BookmarkController::getActiveEdgeDisplayNames</title>
<!-- Node1 -->
<g id="Node000001" class="node">
<title>Node1</title>
<g id="a_Node000001"><a xlink:title=" ">
<polygon fill="#999999" stroke="#666666" points="163.75,-149.12 0,-149.12 0,-115.62 163.75,-115.62 163.75,-149.12"/>
<text text-anchor="start" x="8" y="-135.62" font-family="Helvetica,sans-Serif" font-size="10.00">BookmarkController</text>
<text text-anchor="middle" x="81.88" y="-122.88" font-family="Helvetica,sans-Serif" font-size="10.00">::getActiveEdgeDisplayNames</text>
</a>
</g>
</g>
<!-- Node2 -->
<g id="Node000002" class="node">
<title>Node2</title>
<g id="a_Node000002"><a xlink:href="classTabId.html#a0a4390a7d6a81d9443e6c8a615c149b9" target="_top" xlink:title=" ">
<polygon fill="white" stroke="#666666" points="326.38,-204.75 227.88,-204.75 227.88,-184 326.38,-184 326.38,-204.75"/>
<text text-anchor="middle" x="277.12" y="-191.25" font-family="Helvetica,sans-Serif" font-size="10.00">TabId::currentTab</text>
</a>
</g>
</g>
<!-- Node1&#45;&gt;Node2 -->
<g id="edge1_Node000001_Node000002" class="edge">
<title>Node1&#45;&gt;Node2</title>
<g id="a_edge1_Node000001_Node000002"><a xlink:title=" ">
<path fill="none" stroke="#63b8ff" d="M127.79,-149.57C149.4,-157.57 175.76,-166.94 199.75,-174.38 206.54,-176.48 213.71,-178.55 220.83,-180.52"/>
<polygon fill="#63b8ff" stroke="#63b8ff" points="219.89,-183.89 230.45,-183.12 221.71,-177.13 219.89,-183.89"/>
</a>
</g>
</g>
<!-- Node3 -->
<g id="Node000003" class="node">
<title>Node3</title>
<g id="a_Node000003"><a xlink:href="classStorageAccess.html#a52563fe16129547745ffb2035287c435" target="_top" xlink:title=" ">
<polygon fill="white" stroke="#666666" points="354.5,-165.75 199.75,-165.75 199.75,-145 354.5,-145 354.5,-165.75"/>
<text text-anchor="middle" x="277.12" y="-152.25" font-family="Helvetica,sans-Serif" font-size="10.00">StorageAccess::getEdgeById</text>
</a>
</g>
</g>
<!-- Node1&#45;&gt;Node3 -->
<g id="edge2_Node000001_Node000003" class="edge">
<title>Node1&#45;&gt;Node3</title>
<g id="a_edge2_Node000001_Node000003"><a xlink:title=" ">
<path fill="none" stroke="#63b8ff" d="M163.99,-142.03C171.99,-142.98 180.14,-143.95 188.21,-144.91"/>
<polygon fill="#63b8ff" stroke="#63b8ff" points="187.69,-148.37 198.04,-146.08 188.52,-141.42 187.69,-148.37"/>
</a>
</g>
</g>
<!-- Node4 -->
<g id="Node000004" class="node">
<title>Node4</title>
<g id="a_Node000004"><a xlink:href="classBookmarkController.html#a0554464b9b590a7c4e8f8e5b6f4da958" target="_top" xlink:title=" ">
<polygon fill="white" stroke="#666666" points="341.75,-127.12 212.5,-127.12 212.5,-93.62 341.75,-93.62 341.75,-127.12"/>
<text text-anchor="start" x="220.5" y="-113.62" font-family="Helvetica,sans-Serif" font-size="10.00">BookmarkController</text>
<text text-anchor="middle" x="277.12" y="-100.88" font-family="Helvetica,sans-Serif" font-size="10.00">::getNodeDisplayName</text>
</a>
</g>
</g>
<!-- Node1&#45;&gt;Node4 -->
<g id="edge3_Node000001_Node000004" class="edge">
<title>Node1&#45;&gt;Node4</title>
<g id="a_edge3_Node000001_Node000004"><a xlink:title=" ">
<path fill="none" stroke="#63b8ff" d="M163.99,-123.14C176.2,-121.75 188.75,-120.32 200.83,-118.95"/>
<polygon fill="#63b8ff" stroke="#63b8ff" points="201.2,-122.43 210.74,-117.82 200.41,-115.47 201.2,-122.43"/>
</a>
</g>
</g>
<!-- Node10 -->
<g id="Node000010" class="node">
<title>Node10</title>
<g id="a_Node000010"><a xlink:href="classController.html#a431a774ef12696f8bb22903cada1485c" target="_top" xlink:title=" ">
<polygon fill="white" stroke="#666666" points="332,-59.75 222.25,-59.75 222.25,-39 332,-39 332,-59.75"/>
<text text-anchor="middle" x="277.12" y="-46.25" font-family="Helvetica,sans-Serif" font-size="10.00">Controller::getView</text>
</a>
</g>
</g>
<!-- Node1&#45;&gt;Node10 -->
<g id="edge9_Node000001_Node000010" class="edge">
<title>Node1&#45;&gt;Node10</title>
<g id="a_edge9_Node000001_Node000010"><a xlink:title=" ">
<path fill="none" stroke="#63b8ff" d="M122.92,-115.18C157.63,-100.27 207.39,-78.89 240.69,-64.59"/>
<polygon fill="#63b8ff" stroke="#63b8ff" points="241.68,-67.98 249.49,-60.82 238.92,-61.55 241.68,-67.98"/>
</a>
</g>
</g>
<!-- Node5 -->
<g id="Node000005" class="node">
<title>Node5</title>
<g id="a_Node000005"><a xlink:href="classFilePath.html#a353c6c2dc5333ffc3f328f1daac2ea97" target="_top" xlink:title=" ">
<polygon fill="white" stroke="#666666" points="536.62,-240.75 431.38,-240.75 431.38,-220 536.62,-220 536.62,-240.75"/>
<text text-anchor="middle" x="484" y="-227.25" font-family="Helvetica,sans-Serif" font-size="10.00">FilePath::fileName</text>
</a>
</g>
</g>
<!-- Node4&#45;&gt;Node5 -->
<g id="edge4_Node000004_Node000005" class="edge">
<title>Node4&#45;&gt;Node5</title>
<g id="a_edge4_Node000004_Node000005"><a xlink:title=" ">
<path fill="none" stroke="#63b8ff" d="M342.04,-127.56C346.51,-130.11 350.73,-133.03 354.5,-136.38 382.16,-160.91 361.36,-188.62 390.5,-211.38 399.04,-218.04 409.32,-222.53 419.89,-225.52"/>
<polygon fill="#63b8ff" stroke="#63b8ff" points="418.94,-228.89 429.48,-227.78 420.55,-222.08 418.94,-228.89"/>
</a>
</g>
</g>
<!-- Node6 -->
<g id="Node000006" class="node">
<title>Node6</title>
<g id="a_Node000006"><a xlink:href="classStorageAccess.html#a158a98c2aeb5f0d785f0db1e05b8f169" target="_top" xlink:title=" ">
<polygon fill="white" stroke="#666666" points="576.75,-202.12 391.25,-202.12 391.25,-168.62 576.75,-168.62 576.75,-202.12"/>
<text text-anchor="start" x="399.25" y="-188.62" font-family="Helvetica,sans-Serif" font-size="10.00">StorageAccess::getNameHierarchy</text>
<text text-anchor="middle" x="484" y="-175.88" font-family="Helvetica,sans-Serif" font-size="10.00">ForNodeId</text>
</a>
</g>
</g>
<!-- Node4&#45;&gt;Node6 -->
<g id="edge5_Node000004_Node000006" class="edge">
<title>Node4&#45;&gt;Node6</title>
<g id="a_edge5_Node000004_Node000006"><a xlink:title=" ">
<path fill="none" stroke="#63b8ff" d="M333.82,-127.58C340.89,-130.27 347.94,-133.22 354.5,-136.38 371.61,-144.6 373.17,-151.61 390.5,-159.38 394.5,-161.17 398.65,-162.86 402.87,-164.47"/>
<polygon fill="#63b8ff" stroke="#63b8ff" points="401.49,-167.69 412.08,-167.75 403.84,-161.09 401.49,-167.69"/>
</a>
</g>
</g>
<!-- Node7 -->
<g id="Node000007" class="node">
<title>Node7</title>
<g id="a_Node000007"><a xlink:href="classStorageAccess.html#aac2d195292cefd7eb7e7db14cb19b4db" target="_top" xlink:title=" ">
<polygon fill="white" stroke="#666666" points="562.5,-150.12 405.5,-150.12 405.5,-116.62 562.5,-116.62 562.5,-150.12"/>
<text text-anchor="start" x="413.5" y="-136.62" font-family="Helvetica,sans-Serif" font-size="10.00">StorageAccess::getNodeType</text>
<text text-anchor="middle" x="484" y="-123.88" font-family="Helvetica,sans-Serif" font-size="10.00">ForNodeWithId</text>
</a>
</g>
</g>
<!-- Node4&#45;&gt;Node7 -->
<g id="edge6_Node000004_Node000007" class="edge">
<title>Node4&#45;&gt;Node7</title>
<g id="a_edge6_Node000004_Node000007"><a xlink:title=" ">
<path fill="none" stroke="#63b8ff" d="M342.11,-117.56C358.48,-119.4 376.39,-121.41 393.77,-123.36"/>
<polygon fill="#63b8ff" stroke="#63b8ff" points="393.27,-126.82 403.6,-124.46 394.05,-119.87 393.27,-126.82"/>
</a>
</g>
</g>
<!-- Node8 -->
<g id="Node000008" class="node">
<title>Node8</title>
<g id="a_Node000008"><a xlink:href="classNameHierarchy.html#a13e670a2f7acdded37033ddf9f2d8f3c" target="_top" xlink:title=" ">
<polygon fill="white" stroke="#666666" points="577.5,-98.75 390.5,-98.75 390.5,-78 577.5,-78 577.5,-98.75"/>
<text text-anchor="middle" x="484" y="-85.25" font-family="Helvetica,sans-Serif" font-size="10.00">NameHierarchy::getQualifiedName</text>
</a>
</g>
</g>
<!-- Node4&#45;&gt;Node8 -->
<g id="edge7_Node000004_Node000008" class="edge">
<title>Node4&#45;&gt;Node8</title>
<g id="a_edge7_Node000004_Node000008"><a xlink:title=" ">
<path fill="none" stroke="#63b8ff" d="M342.11,-103.5C353.91,-102.24 366.51,-100.88 379.14,-99.53"/>
<polygon fill="#63b8ff" stroke="#63b8ff" points="379.16,-103.05 388.73,-98.5 378.41,-96.09 379.16,-103.05"/>
</a>
</g>
</g>
<!-- Node9 -->
<g id="Node000009" class="node">
<title>Node9</title>
<g id="a_Node000009"><a xlink:href="classNodeType.html#a81656eb0721b620e931dd46669a8e4eb" target="_top" xlink:title=" ">
<polygon fill="white" stroke="#666666" points="531.38,-59.75 436.62,-59.75 436.62,-39 531.38,-39 531.38,-59.75"/>
<text text-anchor="middle" x="484" y="-46.25" font-family="Helvetica,sans-Serif" font-size="10.00">NodeType::isFile</text>
</a>
</g>
</g>
<!-- Node4&#45;&gt;Node9 -->
<g id="edge8_Node000004_Node000009" class="edge">
<title>Node4&#45;&gt;Node9</title>
<g id="a_edge8_Node000004_Node000009"><a xlink:title=" ">
<path fill="none" stroke="#63b8ff" d="M320.89,-93.21C341.68,-85.27 367.16,-76.12 390.5,-69.38 401.74,-66.12 413.89,-63.14 425.57,-60.51"/>
<polygon fill="#63b8ff" stroke="#63b8ff" points="426.08,-63.98 435.1,-58.44 424.59,-57.14 426.08,-63.98"/>
</a>
</g>
</g>
<!-- Node11 -->
<g id="Node000011" class="node">
<title>Node11</title>
<g id="a_Node000011"><a xlink:href="classComponent.html#a9f4dbd8f986abae9d6014b4a34d2b014" target="_top" xlink:title=" ">
<polygon fill="white" stroke="#666666" points="543,-20.75 425,-20.75 425,0 543,0 543,-20.75"/>
<text text-anchor="middle" x="484" y="-7.25" font-family="Helvetica,sans-Serif" font-size="10.00">Component::getView</text>
</a>
</g>
</g>
<!-- Node10&#45;&gt;Node11 -->
<g id="edge10_Node000010_Node000011" class="edge">
<title>Node10&#45;&gt;Node11</title>
<g id="a_edge10_Node000010_Node000011"><a xlink:title=" ">
<path fill="none" stroke="#63b8ff" d="M332.49,-39.03C357.7,-34.23 387.92,-28.47 414.65,-23.39"/>
<polygon fill="#63b8ff" stroke="#63b8ff" points="415.22,-26.84 424.39,-21.53 413.91,-19.96 415.22,-26.84"/>
</a>
</g>
</g>
</g>
</svg>

<g id="navigator" transform="translate(0 0)" fill="#404254">
  <rect fill="#f2f5e9" fill-opacity="0.5" stroke="#606060" stroke-width=".5" x="0" y="0" width="60" height="60"/>
  <use id="zoomplus" xlink:href="#zoomPlus" x="17" y="9" onmousedown="handleZoom(evt,'in')"/>
  <use id="zoomminus" xlink:href="#zoomMin" x="42" y="9" onmousedown="handleZoom(evt,'out')"/>
  <use id="reset" xlink:href="#resetDef" x="30" y="36" onmousedown="handleReset()"/>
   <use id="arrowup" xlink:href="#arrowUp" x="0" y="0" onmousedown="handlePan(0,-1)"/>
  <use id="arrowright" xlink:href="#arrowRight" x="0" y="0" onmousedown="handlePan(1,0)"/>
  <use id="arrowdown" xlink:href="#arrowDown" x="0" y="0" onmousedown="handlePan(0,1)"/>
  <use id="arrowleft" xlink:href="#arrowLeft" x="0" y="0" onmousedown="handlePan(-1,0)"/>
</g>
<svg viewBox="0 0 15 15" width="100%" height="30px" preserveAspectRatio="xMaxYMin meet">
 <g id="arrow_out" transform="scale(0.3 0.3)">
  <a xlink:href="classBookmarkController_aef6ea624de2a76c6c3bb0ea3cda12f63_cgraph_org.svg" target="_base">
   <rect id="button" ry="5" rx="5" y="6" x="6" height="38" width="38"
        fill="#f2f5e9" fill-opacity="0.5" stroke="#606060" stroke-width="1.0"/>
   <path id="arrow"
     d="M 11.500037,31.436501 C 11.940474,20.09759 22.043105,11.32322 32.158766,21.979434 L 37.068811,17.246167 C 37.068811,17.246167 37.088388,32 37.088388,32 L 22.160133,31.978069 C 22.160133,31.978069 26.997745,27.140456 26.997745,27.140456 C 18.528582,18.264221 13.291696,25.230495 11.500037,31.436501 z"
     style="fill:#404040;"/>
  </a>
 </g>
</svg>

<style type='text/css'>
<![CDATA[
[data-mouse-over-selected='false'] { opacity: 0.7; }
[data-mouse-over-selected='true']  { opacity: 1.0; }
]]>
</style>
<script type="application/ecmascript"><![CDATA[
document.addEventListener('DOMContentLoaded', (event) => {
  highlightEdges();
  highlightAdjacentNodes();
});
]]></script>
</svg>
