<?xml version="1.0" encoding="UTF-8" standalone="no"?>
<!DOCTYPE svg PUBLIC "-//W3C//DTD SVG 1.1//EN"
 "http://www.w3.org/Graphics/SVG/1.1/DTD/svg11.dtd">
<!-- Generated by graphviz version 9.0.0 (0)
 -->
<!-- Title: CodeFocusHandler::getCurrentFocus Pages: 1 -->
<svg width="1689pt" height="398pt"
 viewBox="0.00 0.00 1688.75 398.12" xmlns="http://www.w3.org/2000/svg" xmlns:xlink="http://www.w3.org/1999/xlink">
<g id="graph0" class="graph" transform="scale(1 1) rotate(0) translate(4 394.12)">
<title>CodeFocusHandler::getCurrentFocus</title>
<!-- Node1 -->
<g id="Node000001" class="node">
<title>Node1</title>
<g id="a_Node000001"><a xlink:title=" ">
<polygon fill="#999999" stroke="#666666" points="1680.75,-187.5 1516.25,-187.5 1516.25,-154 1680.75,-154 1680.75,-187.5"/>
<text text-anchor="start" x="1524.25" y="-174" font-family="Helvetica,sans-Serif" font-size="10.00">CodeFocusHandler::getCurrent</text>
<text text-anchor="middle" x="1598.5" y="-161.25" font-family="Helvetica,sans-Serif" font-size="10.00">Focus</text>
</a>
</g>
</g>
<!-- Node2 -->
<g id="Node000002" class="node">
<title>Node2</title>
<g id="a_Node000002"><a xlink:href="classQtCodeFileList.html#a0f5d8585a8e2ddc5e448c201f0bc5810" target="_top" xlink:title=" ">
<polygon fill="white" stroke="#666666" points="1462.25,-348.12 1336,-348.12 1336,-327.38 1462.25,-327.38 1462.25,-348.12"/>
<text text-anchor="middle" x="1399.12" y="-334.62" font-family="Helvetica,sans-Serif" font-size="10.00">QtCodeFileList::addFile</text>
</a>
</g>
</g>
<!-- Node1&#45;&gt;Node2 -->
<g id="edge1_Node000001_Node000002" class="edge">
<title>Node1&#45;&gt;Node2</title>
<g id="a_edge1_Node000001_Node000002"><a xlink:title=" ">
<path fill="none" stroke="#63b8ff" d="M1578.18,-197.16C1556.7,-225.14 1519.79,-269.25 1480.25,-298.75 1464.5,-310.5 1444.66,-320.19 1428.66,-326.97"/>
<polygon fill="#63b8ff" stroke="#63b8ff" points="1580.97,-199.29 1584.2,-189.2 1575.38,-195.07 1580.97,-199.29"/>
</a>
</g>
</g>
<!-- Node5 -->
<g id="Node000005" class="node">
<title>Node5</title>
<g id="a_Node000005"><a xlink:href="classQtCodeArea.html#a8640afe59b0e1f47f0c4df61fb255913" target="_top" xlink:title=" ">
<polygon fill="white" stroke="#666666" points="1471.25,-290.12 1327,-290.12 1327,-269.38 1471.25,-269.38 1471.25,-290.12"/>
<text text-anchor="middle" x="1399.12" y="-276.62" font-family="Helvetica,sans-Serif" font-size="10.00">QtCodeArea::annotateText</text>
</a>
</g>
</g>
<!-- Node1&#45;&gt;Node5 -->
<g id="edge4_Node000001_Node000005" class="edge">
<title>Node1&#45;&gt;Node5</title>
<g id="a_edge4_Node000001_Node000005"><a xlink:title=" ">
<path fill="none" stroke="#63b8ff" d="M1569.75,-195.03C1547.02,-213.85 1513.33,-239.4 1480.25,-255.75 1469.45,-261.09 1457.22,-265.49 1445.64,-269"/>
<polygon fill="#63b8ff" stroke="#63b8ff" points="1571.93,-197.77 1577.33,-188.65 1567.42,-192.42 1571.93,-197.77"/>
</a>
</g>
</g>
<!-- Node26 -->
<g id="Node000026" class="node">
<title>Node26</title>
<g id="a_Node000026"><a xlink:href="classQtCodeNavigator.html#afd9d87b4e73c23ed7706971459ae695f" target="_top" xlink:title=" ">
<polygon fill="white" stroke="#666666" points="1268.12,-209.5 1118.62,-209.5 1118.62,-176 1268.12,-176 1268.12,-209.5"/>
<text text-anchor="start" x="1126.62" y="-196" font-family="Helvetica,sans-Serif" font-size="10.00">QtCodeNavigator::keyPress</text>
<text text-anchor="middle" x="1193.38" y="-183.25" font-family="Helvetica,sans-Serif" font-size="10.00">Event</text>
</a>
</g>
</g>
<!-- Node1&#45;&gt;Node26 -->
<g id="edge27_Node000001_Node000026" class="edge">
<title>Node1&#45;&gt;Node26</title>
<g id="a_edge27_Node000001_Node000026"><a xlink:title=" ">
<path fill="none" stroke="#63b8ff" d="M1558.3,-193.09C1536.15,-204.41 1507.52,-216.97 1480.25,-222.75 1409.7,-237.69 1389.6,-231.31 1318,-222.75 1296.51,-220.18 1273.36,-215.18 1252.96,-209.99"/>
<polygon fill="#63b8ff" stroke="#63b8ff" points="1559.74,-196.28 1566.96,-188.53 1556.48,-190.09 1559.74,-196.28"/>
</a>
</g>
</g>
<!-- Node27 -->
<g id="Node000027" class="node">
<title>Node27</title>
<g id="a_Node000027"><a xlink:href="classQtCodeArea.html#ae7d6811b15eeff76bfd95a7439d183f8" target="_top" xlink:title=" ">
<polygon fill="white" stroke="#666666" points="1479.12,-161.5 1319.12,-161.5 1319.12,-128 1479.12,-128 1479.12,-161.5"/>
<text text-anchor="start" x="1327.12" y="-148" font-family="Helvetica,sans-Serif" font-size="10.00">QtCodeArea::lineNumberArea</text>
<text text-anchor="middle" x="1399.12" y="-135.25" font-family="Helvetica,sans-Serif" font-size="10.00">PaintEvent</text>
</a>
</g>
</g>
<!-- Node1&#45;&gt;Node27 -->
<g id="edge28_Node000001_Node000027" class="edge">
<title>Node1&#45;&gt;Node27</title>
<g id="a_edge28_Node000001_Node000027"><a xlink:title=" ">
<path fill="none" stroke="#63b8ff" d="M1504.48,-158.5C1496.14,-157.4 1487.75,-156.29 1479.55,-155.21"/>
<polygon fill="#63b8ff" stroke="#63b8ff" points="1503.92,-161.95 1514.29,-159.79 1504.84,-155.01 1503.92,-161.95"/>
</a>
</g>
</g>
<!-- Node29 -->
<g id="Node000029" class="node">
<title>Node29</title>
<g id="a_Node000029"><a xlink:href="classQtCodeNavigator.html#a32f12006f74b8a02a16bc5c874645589" target="_top" xlink:title=" ">
<polygon fill="white" stroke="#666666" points="1470.5,-213.5 1327.75,-213.5 1327.75,-180 1470.5,-180 1470.5,-213.5"/>
<text text-anchor="start" x="1335.75" y="-200" font-family="Helvetica,sans-Serif" font-size="10.00">QtCodeNavigator::scrollTo</text>
<text text-anchor="middle" x="1399.12" y="-187.25" font-family="Helvetica,sans-Serif" font-size="10.00">Focus</text>
</a>
</g>
</g>
<!-- Node1&#45;&gt;Node29 -->
<g id="edge30_Node000001_Node000029" class="edge">
<title>Node1&#45;&gt;Node29</title>
<g id="a_edge30_Node000001_Node000029"><a xlink:title=" ">
<path fill="none" stroke="#63b8ff" d="M1504.5,-183C1493.15,-184.5 1481.7,-186 1470.76,-187.45"/>
<polygon fill="#63b8ff" stroke="#63b8ff" points="1504.84,-186.49 1514.29,-181.71 1503.92,-179.55 1504.84,-186.49"/>
</a>
</g>
</g>
<!-- Node30 -->
<g id="Node000030" class="node">
<title>Node30</title>
<g id="a_Node000030"><a xlink:href="classQtCodeFile.html#a7f1200a159ad2ad4e5e6a33cd26187a8" target="_top" xlink:title=" ">
<polygon fill="white" stroke="#666666" points="1472.38,-110.12 1325.88,-110.12 1325.88,-89.38 1472.38,-89.38 1472.38,-110.12"/>
<text text-anchor="middle" x="1399.12" y="-96.62" font-family="Helvetica,sans-Serif" font-size="10.00">QtCodeFile::updateContent</text>
</a>
</g>
</g>
<!-- Node1&#45;&gt;Node30 -->
<g id="edge32_Node000001_Node000030" class="edge">
<title>Node1&#45;&gt;Node30</title>
<g id="a_edge32_Node000001_Node000030"><a xlink:title=" ">
<path fill="none" stroke="#63b8ff" d="M1553.1,-148.73C1531.49,-138.62 1504.91,-127.06 1480.25,-118.75 1471.17,-115.69 1461.36,-112.93 1451.82,-110.52"/>
<polygon fill="#63b8ff" stroke="#63b8ff" points="1551.38,-151.79 1561.91,-152.91 1554.38,-145.47 1551.38,-151.79"/>
</a>
</g>
</g>
<!-- Node31 -->
<g id="Node000031" class="node">
<title>Node31</title>
<g id="a_Node000031"><a xlink:href="classQtCodeSnippet.html#ac50543333f380dd2aa765294068be211" target="_top" xlink:title=" ">
<polygon fill="white" stroke="#666666" points="1272.25,-97.5 1114.5,-97.5 1114.5,-64 1272.25,-64 1272.25,-97.5"/>
<text text-anchor="start" x="1122.5" y="-84" font-family="Helvetica,sans-Serif" font-size="10.00">QtCodeSnippet::updateScope</text>
<text text-anchor="middle" x="1193.38" y="-71.25" font-family="Helvetica,sans-Serif" font-size="10.00">LineFocus</text>
</a>
</g>
</g>
<!-- Node1&#45;&gt;Node31 -->
<g id="edge33_Node000001_Node000031" class="edge">
<title>Node1&#45;&gt;Node31</title>
<g id="a_edge33_Node000001_Node000031"><a xlink:title=" ">
<path fill="none" stroke="#63b8ff" d="M1574.52,-145.53C1552.72,-123.64 1517.79,-93.5 1480.25,-80.75 1412.93,-57.89 1331.44,-60.61 1272.71,-67.45"/>
<polygon fill="#63b8ff" stroke="#63b8ff" points="1571.96,-147.92 1581.43,-152.67 1576.99,-143.05 1571.96,-147.92"/>
</a>
</g>
</g>
<!-- Node32 -->
<g id="Node000032" class="node">
<title>Node32</title>
<g id="a_Node000032"><a xlink:href="classQtCodeFileList.html#a1c4c778b9a4e71ab47ea62fbf6b947d1" target="_top" xlink:title=" ">
<polygon fill="white" stroke="#666666" points="1480.25,-33.5 1318,-33.5 1318,0 1480.25,0 1480.25,-33.5"/>
<text text-anchor="start" x="1326" y="-20" font-family="Helvetica,sans-Serif" font-size="10.00">QtCodeFileList::updateSnippet</text>
<text text-anchor="middle" x="1399.12" y="-7.25" font-family="Helvetica,sans-Serif" font-size="10.00">TitleAndScrollBarSlot</text>
</a>
</g>
</g>
<!-- Node1&#45;&gt;Node32 -->
<g id="edge35_Node000001_Node000032" class="edge">
<title>Node1&#45;&gt;Node32</title>
<g id="a_edge35_Node000001_Node000032"><a xlink:title=" ">
<path fill="none" stroke="#63b8ff" d="M1578.42,-144.78C1557.15,-117.4 1520.4,-74.59 1480.25,-47.75 1472.31,-42.45 1463.34,-37.86 1454.34,-33.95"/>
<polygon fill="#63b8ff" stroke="#63b8ff" points="1575.52,-146.74 1584.37,-152.57 1581.08,-142.49 1575.52,-146.74"/>
</a>
</g>
</g>
<!-- Node3 -->
<g id="Node000003" class="node">
<title>Node3</title>
<g id="a_Node000003"><a xlink:href="classQtCodeNavigator.html#ad23c7d3c5aeaa930c29893bf4e1fdb21" target="_top" xlink:title=" ">
<polygon fill="white" stroke="#666666" points="1282,-364.12 1104.75,-364.12 1104.75,-343.38 1282,-343.38 1282,-364.12"/>
<text text-anchor="middle" x="1193.38" y="-350.62" font-family="Helvetica,sans-Serif" font-size="10.00">QtCodeNavigator::addSnippetFile</text>
</a>
</g>
</g>
<!-- Node2&#45;&gt;Node3 -->
<g id="edge2_Node000002_Node000003" class="edge">
<title>Node2&#45;&gt;Node3</title>
<g id="a_edge2_Node000002_Node000003"><a xlink:title=" ">
<path fill="none" stroke="#63b8ff" d="M1324.33,-343.54C1310.68,-344.62 1296.3,-345.75 1282.27,-346.85"/>
<polygon fill="#63b8ff" stroke="#63b8ff" points="1324.4,-347.05 1334.1,-342.78 1323.86,-340.07 1324.4,-347.05"/>
</a>
</g>
</g>
<!-- Node4 -->
<g id="Node000004" class="node">
<title>Node4</title>
<g id="a_Node000004"><a xlink:href="classQtCodeView.html#a47df56cbb087ef2d989d78970ea8bb98" target="_top" xlink:title=" ">
<polygon fill="white" stroke="#666666" points="1060.12,-390.12 910.62,-390.12 910.62,-369.38 1060.12,-369.38 1060.12,-390.12"/>
<text text-anchor="middle" x="985.38" y="-376.62" font-family="Helvetica,sans-Serif" font-size="10.00">QtCodeView::showSnippets</text>
</a>
</g>
</g>
<!-- Node3&#45;&gt;Node4 -->
<g id="edge3_Node000003_Node000004" class="edge">
<title>Node3&#45;&gt;Node4</title>
<g id="a_edge3_Node000003_Node000004"><a xlink:title=" ">
<path fill="none" stroke="#63b8ff" d="M1095.28,-366C1083.53,-367.49 1071.66,-368.99 1060.32,-370.42"/>
<polygon fill="#63b8ff" stroke="#63b8ff" points="1095.52,-369.5 1105,-364.78 1094.64,-362.56 1095.52,-369.5"/>
</a>
</g>
</g>
<!-- Node6 -->
<g id="Node000006" class="node">
<title>Node6</title>
<g id="a_Node000006"><a xlink:href="classQtCodeArea.html#af1ab57ec0e107067d8622987b9eea536" target="_top" xlink:title=" ">
<polygon fill="white" stroke="#666666" points="1269.62,-248.12 1117.12,-248.12 1117.12,-227.38 1269.62,-227.38 1269.62,-248.12"/>
<text text-anchor="middle" x="1193.38" y="-234.62" font-family="Helvetica,sans-Serif" font-size="10.00">QtCodeArea::updateContent</text>
</a>
</g>
</g>
<!-- Node5&#45;&gt;Node6 -->
<g id="edge5_Node000005_Node000006" class="edge">
<title>Node5&#45;&gt;Node6</title>
<g id="a_edge5_Node000005_Node000006"><a xlink:title=" ">
<path fill="none" stroke="#63b8ff" d="M1334.45,-266.62C1306.3,-260.82 1273.61,-254.08 1246.89,-248.58"/>
<polygon fill="#63b8ff" stroke="#63b8ff" points="1333.41,-269.98 1343.91,-268.57 1334.82,-263.13 1333.41,-269.98"/>
</a>
</g>
</g>
<!-- Node21 -->
<g id="Node000021" class="node">
<title>Node21</title>
<g id="a_Node000021"><a xlink:href="classQtCodeArea.html#a7fd0b14e7544f1698bc5811568db4621" target="_top" xlink:title=" ">
<polygon fill="white" stroke="#666666" points="1267,-299.5 1119.75,-299.5 1119.75,-266 1267,-266 1267,-299.5"/>
<text text-anchor="start" x="1127.75" y="-286" font-family="Helvetica,sans-Serif" font-size="10.00">QtCodeArea::updateSource</text>
<text text-anchor="middle" x="1193.38" y="-273.25" font-family="Helvetica,sans-Serif" font-size="10.00">Locations</text>
</a>
</g>
</g>
<!-- Node5&#45;&gt;Node21 -->
<g id="edge22_Node000005_Node000021" class="edge">
<title>Node5&#45;&gt;Node21</title>
<g id="a_edge22_Node000005_Node000021"><a xlink:title=" ">
<path fill="none" stroke="#63b8ff" d="M1315.2,-280.97C1299.39,-281.2 1282.95,-281.45 1267.47,-281.67"/>
<polygon fill="#63b8ff" stroke="#63b8ff" points="1315.12,-284.47 1325.06,-280.83 1315.01,-277.47 1315.12,-284.47"/>
</a>
</g>
</g>
<!-- Node7 -->
<g id="Node000007" class="node">
<title>Node7</title>
<g id="a_Node000007"><a xlink:href="classQtCodeFileSingle.html#a5fb50acd63b16160f3ac343d11726839" target="_top" xlink:title=" ">
<polygon fill="white" stroke="#666666" points="1065,-248.12 905.75,-248.12 905.75,-227.38 1065,-227.38 1065,-248.12"/>
<text text-anchor="middle" x="985.38" y="-234.62" font-family="Helvetica,sans-Serif" font-size="10.00">QtCodeFileSingle::setFileData</text>
</a>
</g>
</g>
<!-- Node6&#45;&gt;Node7 -->
<g id="edge6_Node000006_Node000007" class="edge">
<title>Node6&#45;&gt;Node7</title>
<g id="a_edge6_Node000006_Node000007"><a xlink:title=" ">
<path fill="none" stroke="#63b8ff" d="M1105.71,-237.75C1092.32,-237.75 1078.56,-237.75 1065.36,-237.75"/>
<polygon fill="#63b8ff" stroke="#63b8ff" points="1105.32,-241.25 1115.32,-237.75 1105.32,-234.25 1105.32,-241.25"/>
</a>
</g>
</g>
<!-- Node19 -->
<g id="Node000019" class="node">
<title>Node19</title>
<g id="a_Node000019"><a xlink:href="classQtCodeSnippet.html#adbeebdf943b0065c60750be7a5c08abc" target="_top" xlink:title=" ">
<polygon fill="white" stroke="#666666" points="1068.75,-126.12 902,-126.12 902,-105.38 1068.75,-105.38 1068.75,-126.12"/>
<text text-anchor="middle" x="985.38" y="-112.62" font-family="Helvetica,sans-Serif" font-size="10.00">QtCodeSnippet::updateContent</text>
</a>
</g>
</g>
<!-- Node6&#45;&gt;Node19 -->
<g id="edge20_Node000006_Node000019" class="edge">
<title>Node6&#45;&gt;Node19</title>
<g id="a_edge20_Node000006_Node000019"><a xlink:title=" ">
<path fill="none" stroke="#63b8ff" d="M1110.47,-222.22C1108.5,-221.14 1106.59,-219.98 1104.75,-218.75 1081.38,-203.13 1089.13,-186.11 1068.75,-166.75 1050.95,-149.84 1026.66,-135.63 1009.07,-126.54"/>
<polygon fill="#63b8ff" stroke="#63b8ff" points="1108.76,-225.28 1119.3,-226.39 1111.75,-218.95 1108.76,-225.28"/>
</a>
</g>
</g>
<!-- Node20 -->
<g id="Node000020" class="node">
<title>Node20</title>
<g id="a_Node000020"><a xlink:href="classQtCodeFileSingle.html#a7ef021e65510aa955430bdf2bfa9f01b" target="_top" xlink:title=" ">
<polygon fill="white" stroke="#666666" points="1054.5,-209.5 916.25,-209.5 916.25,-176 1054.5,-176 1054.5,-209.5"/>
<text text-anchor="start" x="924.25" y="-196" font-family="Helvetica,sans-Serif" font-size="10.00">QtCodeFileSingle::update</text>
<text text-anchor="middle" x="985.38" y="-183.25" font-family="Helvetica,sans-Serif" font-size="10.00">Files</text>
</a>
</g>
</g>
<!-- Node6&#45;&gt;Node20 -->
<g id="edge21_Node000006_Node000020" class="edge">
<title>Node6&#45;&gt;Node20</title>
<g id="a_edge21_Node000006_Node000020"><a xlink:title=" ">
<path fill="none" stroke="#63b8ff" d="M1131.21,-224.51C1122.33,-222.58 1113.3,-220.62 1104.75,-218.75 1088.61,-215.23 1071.24,-211.42 1054.91,-207.84"/>
<polygon fill="#63b8ff" stroke="#63b8ff" points="1130.33,-227.9 1140.85,-226.6 1131.82,-221.06 1130.33,-227.9"/>
</a>
</g>
</g>
<!-- Node8 -->
<g id="Node000008" class="node">
<title>Node8</title>
<g id="a_Node000008"><a xlink:href="classQtCodeFileSingle.html#a9a79da8d37022afa497a602193893364" target="_top" xlink:title=" ">
<polygon fill="white" stroke="#666666" points="863,-287.12 724,-287.12 724,-266.38 863,-266.38 863,-287.12"/>
<text text-anchor="middle" x="793.5" y="-273.62" font-family="Helvetica,sans-Serif" font-size="10.00">QtCodeFileSingle::addFile</text>
</a>
</g>
</g>
<!-- Node7&#45;&gt;Node8 -->
<g id="edge7_Node000007_Node000008" class="edge">
<title>Node7&#45;&gt;Node8</title>
<g id="a_edge7_Node000007_Node000008"><a xlink:title=" ">
<path fill="none" stroke="#63b8ff" d="M920.45,-250.88C896.72,-255.75 870.08,-261.23 847.44,-265.88"/>
<polygon fill="#63b8ff" stroke="#63b8ff" points="920.91,-254.36 930,-248.92 919.5,-247.5 920.91,-254.36"/>
</a>
</g>
</g>
<!-- Node11 -->
<g id="Node000011" class="node">
<title>Node11</title>
<g id="a_Node000011"><a xlink:href="classQtCodeFileSingle.html#abcb6f719eb9ddb78599b5b068ff3fc65" target="_top" xlink:title=" ">
<polygon fill="white" stroke="#666666" points="866,-248.12 721,-248.12 721,-227.38 866,-227.38 866,-248.12"/>
<text text-anchor="middle" x="793.5" y="-234.62" font-family="Helvetica,sans-Serif" font-size="10.00">QtCodeFileSingle::clearFile</text>
</a>
</g>
</g>
<!-- Node7&#45;&gt;Node11 -->
<g id="edge10_Node000007_Node000011" class="edge">
<title>Node7&#45;&gt;Node11</title>
<g id="a_edge10_Node000007_Node000011"><a xlink:title=" ">
<path fill="none" stroke="#63b8ff" d="M894.2,-237.75C884.89,-237.75 875.52,-237.75 866.45,-237.75"/>
<polygon fill="#63b8ff" stroke="#63b8ff" points="893.99,-241.25 903.99,-237.75 893.99,-234.25 893.99,-241.25"/>
</a>
</g>
</g>
<!-- Node18 -->
<g id="Node000018" class="node">
<title>Node18</title>
<g id="a_Node000018"><a xlink:href="classQtCodeFileSingle.html#a025dfc782328c0e8ea4c66b036c321d3" target="_top" xlink:title=" ">
<polygon fill="white" stroke="#666666" points="864.12,-209.12 722.88,-209.12 722.88,-188.38 864.12,-188.38 864.12,-209.12"/>
<text text-anchor="middle" x="793.5" y="-195.62" font-family="Helvetica,sans-Serif" font-size="10.00">QtCodeFileSingle::scrollTo</text>
</a>
</g>
</g>
<!-- Node7&#45;&gt;Node18 -->
<g id="edge19_Node000007_Node000018" class="edge">
<title>Node7&#45;&gt;Node18</title>
<g id="a_edge19_Node000007_Node000018"><a xlink:title=" ">
<path fill="none" stroke="#63b8ff" d="M920.45,-224.62C896.72,-219.75 870.08,-214.27 847.44,-209.62"/>
<polygon fill="#63b8ff" stroke="#63b8ff" points="919.5,-228 930,-226.58 920.91,-221.14 919.5,-228"/>
</a>
</g>
</g>
<!-- Node9 -->
<g id="Node000009" class="node">
<title>Node9</title>
<g id="a_Node000009"><a xlink:href="classQtCodeNavigator.html#aef582a683123b6752860443d2a302712" target="_top" xlink:title=" ">
<polygon fill="white" stroke="#666666" points="685,-287.12 514.5,-287.12 514.5,-266.38 685,-266.38 685,-287.12"/>
<text text-anchor="middle" x="599.75" y="-273.62" font-family="Helvetica,sans-Serif" font-size="10.00">QtCodeNavigator::addSingleFile</text>
</a>
</g>
</g>
<!-- Node8&#45;&gt;Node9 -->
<g id="edge8_Node000008_Node000009" class="edge">
<title>Node8&#45;&gt;Node9</title>
<g id="a_edge8_Node000008_Node000009"><a xlink:title=" ">
<path fill="none" stroke="#63b8ff" d="M712.1,-276.75C703.3,-276.75 694.32,-276.75 685.47,-276.75"/>
<polygon fill="#63b8ff" stroke="#63b8ff" points="712.03,-280.25 722.03,-276.75 712.03,-273.25 712.03,-280.25"/>
</a>
</g>
</g>
<!-- Node10 -->
<g id="Node000010" class="node">
<title>Node10</title>
<g id="a_Node000010"><a xlink:href="classQtCodeView.html#a03d33b6b0d51a10ab3c407765c6e8c6d" target="_top" xlink:title=" ">
<polygon fill="white" stroke="#666666" points="475.5,-286.12 321.5,-286.12 321.5,-265.38 475.5,-265.38 475.5,-286.12"/>
<text text-anchor="middle" x="398.5" y="-272.62" font-family="Helvetica,sans-Serif" font-size="10.00">QtCodeView::showSingleFile</text>
</a>
</g>
</g>
<!-- Node9&#45;&gt;Node10 -->
<g id="edge9_Node000009_Node000010" class="edge">
<title>Node9&#45;&gt;Node10</title>
<g id="a_edge9_Node000009_Node000010"><a xlink:title=" ">
<path fill="none" stroke="#63b8ff" d="M502.85,-276.27C493.81,-276.22 484.73,-276.18 475.91,-276.13"/>
<polygon fill="#63b8ff" stroke="#63b8ff" points="502.72,-279.77 512.74,-276.32 502.75,-272.77 502.72,-279.77"/>
</a>
</g>
</g>
<!-- Node12 -->
<g id="Node000012" class="node">
<title>Node12</title>
<g id="a_Node000012"><a xlink:href="classQtCodeFileSingle.html#ab2434a5b1ff78fb8bdb38706489a5539" target="_top" xlink:title=" ">
<polygon fill="white" stroke="#666666" points="679,-209.12 520.5,-209.12 520.5,-188.38 679,-188.38 679,-209.12"/>
<text text-anchor="middle" x="599.75" y="-195.62" font-family="Helvetica,sans-Serif" font-size="10.00">QtCodeFileSingle::clearCache</text>
</a>
</g>
</g>
<!-- Node11&#45;&gt;Node12 -->
<g id="edge11_Node000011_Node000012" class="edge">
<title>Node11&#45;&gt;Node12</title>
<g id="a_edge11_Node000011_Node000012"><a xlink:title=" ">
<path fill="none" stroke="#63b8ff" d="M727.95,-224.62C703.98,-219.75 677.08,-214.27 654.21,-209.62"/>
<polygon fill="#63b8ff" stroke="#63b8ff" points="727.11,-228.02 737.6,-226.58 728.5,-221.16 727.11,-228.02"/>
</a>
</g>
</g>
<!-- Node17 -->
<g id="Node000017" class="node">
<title>Node17</title>
<g id="a_Node000017"><a xlink:href="classQtCodeNavigator.html#a4b7d596f4bb1e551ab3d51312537bf8d" target="_top" xlink:title=" ">
<polygon fill="white" stroke="#666666" points="673,-248.12 526.5,-248.12 526.5,-227.38 673,-227.38 673,-248.12"/>
<text text-anchor="middle" x="599.75" y="-234.62" font-family="Helvetica,sans-Serif" font-size="10.00">QtCodeNavigator::clearFile</text>
</a>
</g>
</g>
<!-- Node11&#45;&gt;Node17 -->
<g id="edge16_Node000011_Node000017" class="edge">
<title>Node11&#45;&gt;Node17</title>
<g id="a_edge16_Node000011_Node000017"><a xlink:title=" ">
<path fill="none" stroke="#63b8ff" d="M709.23,-237.75C697.3,-237.75 685.12,-237.75 673.42,-237.75"/>
<polygon fill="#63b8ff" stroke="#63b8ff" points="709.04,-241.25 719.04,-237.75 709.04,-234.25 709.04,-241.25"/>
</a>
</g>
</g>
<!-- Node13 -->
<g id="Node000013" class="node">
<title>Node13</title>
<g id="a_Node000013"><a xlink:href="classQtCodeNavigator.html#aa01dcef203163f03740b7be346af57ab" target="_top" xlink:title=" ">
<polygon fill="white" stroke="#666666" points="478.5,-209.12 318.5,-209.12 318.5,-188.38 478.5,-188.38 478.5,-209.12"/>
<text text-anchor="middle" x="398.5" y="-195.62" font-family="Helvetica,sans-Serif" font-size="10.00">QtCodeNavigator::clearCache</text>
</a>
</g>
</g>
<!-- Node12&#45;&gt;Node13 -->
<g id="edge12_Node000012_Node000013" class="edge">
<title>Node12&#45;&gt;Node13</title>
<g id="a_edge12_Node000012_Node000013"><a xlink:title=" ">
<path fill="none" stroke="#63b8ff" d="M508.52,-198.75C498.67,-198.75 488.69,-198.75 478.98,-198.75"/>
<polygon fill="#63b8ff" stroke="#63b8ff" points="508.49,-202.25 518.49,-198.75 508.49,-195.25 508.49,-202.25"/>
</a>
</g>
</g>
<!-- Node14 -->
<g id="Node000014" class="node">
<title>Node14</title>
<g id="a_Node000014"><a xlink:href="classQtCodeNavigator.html#a3370003f440df20925362f6b4fd322c1" target="_top" xlink:title=" ">
<polygon fill="white" stroke="#666666" points="277.25,-248.12 147.25,-248.12 147.25,-227.38 277.25,-227.38 277.25,-248.12"/>
<text text-anchor="middle" x="212.25" y="-234.62" font-family="Helvetica,sans-Serif" font-size="10.00">QtCodeNavigator::clear</text>
</a>
</g>
</g>
<!-- Node13&#45;&gt;Node14 -->
<g id="edge13_Node000013_Node000014" class="edge">
<title>Node13&#45;&gt;Node14</title>
<g id="a_edge13_Node000013_Node000014"><a xlink:title=" ">
<path fill="none" stroke="#63b8ff" d="M335.16,-211.95C312.21,-216.8 286.49,-222.25 264.62,-226.88"/>
<polygon fill="#63b8ff" stroke="#63b8ff" points="335.64,-215.42 344.7,-209.93 334.19,-208.57 335.64,-215.42"/>
</a>
</g>
</g>
<!-- Node16 -->
<g id="Node000016" class="node">
<title>Node16</title>
<g id="a_Node000016"><a xlink:href="classQtCodeView.html#a2422f2f7a3cfbf0807e297079215269e" target="_top" xlink:title=" ">
<polygon fill="white" stroke="#666666" points="282.5,-209.12 142,-209.12 142,-188.38 282.5,-188.38 282.5,-209.12"/>
<text text-anchor="middle" x="212.25" y="-195.62" font-family="Helvetica,sans-Serif" font-size="10.00">QtCodeView::refreshView</text>
</a>
</g>
</g>
<!-- Node13&#45;&gt;Node16 -->
<g id="edge15_Node000013_Node000016" class="edge">
<title>Node13&#45;&gt;Node16</title>
<g id="a_edge15_Node000013_Node000016"><a xlink:title=" ">
<path fill="none" stroke="#63b8ff" d="M306.73,-198.75C298.72,-198.75 290.7,-198.75 282.9,-198.75"/>
<polygon fill="#63b8ff" stroke="#63b8ff" points="306.51,-202.25 316.51,-198.75 306.51,-195.25 306.51,-202.25"/>
</a>
</g>
</g>
<!-- Node15 -->
<g id="Node000015" class="node">
<title>Node15</title>
<g id="a_Node000015"><a xlink:href="classQtCodeView.html#a1aaf5c5052390354591e851390e54d55" target="_top" xlink:title=" ">
<polygon fill="white" stroke="#666666" points="106,-248.12 0,-248.12 0,-227.38 106,-227.38 106,-248.12"/>
<text text-anchor="middle" x="53" y="-234.62" font-family="Helvetica,sans-Serif" font-size="10.00">QtCodeView::clear</text>
</a>
</g>
</g>
<!-- Node14&#45;&gt;Node15 -->
<g id="edge14_Node000014_Node000015" class="edge">
<title>Node14&#45;&gt;Node15</title>
<g id="a_edge14_Node000014_Node000015"><a xlink:title=" ">
<path fill="none" stroke="#63b8ff" d="M135.61,-237.75C125.61,-237.75 115.54,-237.75 106.06,-237.75"/>
<polygon fill="#63b8ff" stroke="#63b8ff" points="135.32,-241.25 145.32,-237.75 135.32,-234.25 135.32,-241.25"/>
</a>
</g>
</g>
<!-- Node17&#45;&gt;Node10 -->
<g id="edge18_Node000017_Node000010" class="edge">
<title>Node17&#45;&gt;Node10</title>
<g id="a_edge18_Node000017_Node000010"><a xlink:title=" ">
<path fill="none" stroke="#63b8ff" d="M530.67,-250.73C506.49,-255.35 479.55,-260.48 456.41,-264.9"/>
<polygon fill="#63b8ff" stroke="#63b8ff" points="531.27,-254.18 540.43,-248.87 529.95,-247.31 531.27,-254.18"/>
</a>
</g>
</g>
<!-- Node17&#45;&gt;Node14 -->
<g id="edge17_Node000017_Node000014" class="edge">
<title>Node17&#45;&gt;Node14</title>
<g id="a_edge17_Node000017_Node000014"><a xlink:title=" ">
<path fill="none" stroke="#63b8ff" d="M515.07,-237.75C443.8,-237.75 342.89,-237.75 277.75,-237.75"/>
<polygon fill="#63b8ff" stroke="#63b8ff" points="514.73,-241.25 524.73,-237.75 514.73,-234.25 514.73,-241.25"/>
</a>
</g>
</g>
<!-- Node22 -->
<g id="Node000022" class="node">
<title>Node22</title>
<g id="a_Node000022"><a xlink:href="classQtCodeSnippet.html#ac4f99cc9745a4ce48f3bf1bd78c26f69" target="_top" xlink:title=" ">
<polygon fill="white" stroke="#666666" points="1066.12,-351.5 904.62,-351.5 904.62,-318 1066.12,-318 1066.12,-351.5"/>
<text text-anchor="start" x="912.62" y="-338" font-family="Helvetica,sans-Serif" font-size="10.00">QtCodeSnippet::updateSource</text>
<text text-anchor="middle" x="985.38" y="-325.25" font-family="Helvetica,sans-Serif" font-size="10.00">Locations</text>
</a>
</g>
</g>
<!-- Node21&#45;&gt;Node22 -->
<g id="edge23_Node000021_Node000022" class="edge">
<title>Node21&#45;&gt;Node22</title>
<g id="a_edge23_Node000021_Node000022"><a xlink:title=" ">
<path fill="none" stroke="#63b8ff" d="M1113.15,-302.75C1093.8,-307.63 1073.27,-312.81 1054.5,-317.55"/>
<polygon fill="#63b8ff" stroke="#63b8ff" points="1113.76,-306.2 1122.6,-300.36 1112.05,-299.42 1113.76,-306.2"/>
</a>
</g>
</g>
<!-- Node25 -->
<g id="Node000025" class="node">
<title>Node25</title>
<g id="a_Node000025"><a xlink:href="classQtCodeFileSingle.html#a2ad4acf9fcdfa0deff804ef1dadc5aaa" target="_top" xlink:title=" ">
<polygon fill="white" stroke="#666666" points="1054.5,-299.5 916.25,-299.5 916.25,-266 1054.5,-266 1054.5,-299.5"/>
<text text-anchor="start" x="924.25" y="-286" font-family="Helvetica,sans-Serif" font-size="10.00">QtCodeFileSingle::update</text>
<text text-anchor="middle" x="985.38" y="-273.25" font-family="Helvetica,sans-Serif" font-size="10.00">SourceLocations</text>
</a>
</g>
</g>
<!-- Node21&#45;&gt;Node25 -->
<g id="edge26_Node000021_Node000025" class="edge">
<title>Node21&#45;&gt;Node25</title>
<g id="a_edge26_Node000021_Node000025"><a xlink:title=" ">
<path fill="none" stroke="#63b8ff" d="M1107.95,-282.75C1090.23,-282.75 1071.75,-282.75 1054.71,-282.75"/>
<polygon fill="#63b8ff" stroke="#63b8ff" points="1107.94,-286.25 1117.94,-282.75 1107.94,-279.25 1107.94,-286.25"/>
</a>
</g>
</g>
<!-- Node23 -->
<g id="Node000023" class="node">
<title>Node23</title>
<g id="a_Node000023"><a xlink:href="classQtCodeFile.html#abff38401b7321a3ffcb4c0c7a9789b82" target="_top" xlink:title=" ">
<polygon fill="white" stroke="#666666" points="864.12,-351.5 722.88,-351.5 722.88,-318 864.12,-318 864.12,-351.5"/>
<text text-anchor="start" x="730.88" y="-338" font-family="Helvetica,sans-Serif" font-size="10.00">QtCodeFile::updateSource</text>
<text text-anchor="middle" x="793.5" y="-325.25" font-family="Helvetica,sans-Serif" font-size="10.00">Locations</text>
</a>
</g>
</g>
<!-- Node22&#45;&gt;Node23 -->
<g id="edge24_Node000022_Node000023" class="edge">
<title>Node22&#45;&gt;Node23</title>
<g id="a_edge24_Node000022_Node000023"><a xlink:title=" ">
<path fill="none" stroke="#63b8ff" d="M892.64,-334.75C883.19,-334.75 873.7,-334.75 864.54,-334.75"/>
<polygon fill="#63b8ff" stroke="#63b8ff" points="892.61,-338.25 902.61,-334.75 892.61,-331.25 892.61,-338.25"/>
</a>
</g>
</g>
<!-- Node24 -->
<g id="Node000024" class="node">
<title>Node24</title>
<g id="a_Node000024"><a xlink:href="classQtCodeFileList.html#aa0277bce0e2bc5b2588fa686bfcdb45f" target="_top" xlink:title=" ">
<polygon fill="white" stroke="#666666" points="679,-351.5 520.5,-351.5 520.5,-318 679,-318 679,-351.5"/>
<text text-anchor="start" x="528.5" y="-338" font-family="Helvetica,sans-Serif" font-size="10.00">QtCodeFileList::updateSource</text>
<text text-anchor="middle" x="599.75" y="-325.25" font-family="Helvetica,sans-Serif" font-size="10.00">Locations</text>
</a>
</g>
</g>
<!-- Node23&#45;&gt;Node24 -->
<g id="edge25_Node000023_Node000024" class="edge">
<title>Node23&#45;&gt;Node24</title>
<g id="a_edge25_Node000023_Node000024"><a xlink:title=" ">
<path fill="none" stroke="#63b8ff" d="M711.15,-334.75C700.61,-334.75 689.84,-334.75 679.35,-334.75"/>
<polygon fill="#63b8ff" stroke="#63b8ff" points="710.95,-338.25 720.95,-334.75 710.95,-331.25 710.95,-338.25"/>
</a>
</g>
</g>
<!-- Node28 -->
<g id="Node000028" class="node">
<title>Node28</title>
<g id="a_Node000028"><a xlink:href="classQtLineNumberArea.html#a856132f7a1d9748775168f5c22e147d4" target="_top" xlink:title=" ">
<polygon fill="white" stroke="#666666" points="1277.12,-155.12 1109.62,-155.12 1109.62,-134.38 1277.12,-134.38 1277.12,-155.12"/>
<text text-anchor="middle" x="1193.38" y="-141.62" font-family="Helvetica,sans-Serif" font-size="10.00">QtLineNumberArea::paintEvent</text>
</a>
</g>
</g>
<!-- Node27&#45;&gt;Node28 -->
<g id="edge29_Node000027_Node000028" class="edge">
<title>Node27&#45;&gt;Node28</title>
<g id="a_edge29_Node000027_Node000028"><a xlink:title=" ">
<path fill="none" stroke="#63b8ff" d="M1307.57,-144.75C1297.58,-144.75 1287.45,-144.75 1277.55,-144.75"/>
<polygon fill="#63b8ff" stroke="#63b8ff" points="1307.25,-148.25 1317.25,-144.75 1307.25,-141.25 1307.25,-148.25"/>
</a>
</g>
</g>
<!-- Node29&#45;&gt;Node26 -->
<g id="edge31_Node000029_Node000026" class="edge">
<title>Node29&#45;&gt;Node26</title>
<g id="a_edge31_Node000029_Node000026"><a xlink:title=" ">
<path fill="none" stroke="#63b8ff" d="M1316.09,-195.14C1300.33,-194.83 1283.9,-194.51 1268.4,-194.2"/>
<polygon fill="#63b8ff" stroke="#63b8ff" points="1315.85,-198.64 1325.92,-195.33 1315.99,-191.64 1315.85,-198.64"/>
</a>
</g>
</g>
<!-- Node31&#45;&gt;Node19 -->
<g id="edge34_Node000031_Node000019" class="edge">
<title>Node31&#45;&gt;Node19</title>
<g id="a_edge34_Node000031_Node000019"><a xlink:title=" ">
<path fill="none" stroke="#63b8ff" d="M1102.92,-95.95C1085.14,-98.97 1066.81,-102.08 1050.1,-104.92"/>
<polygon fill="#63b8ff" stroke="#63b8ff" points="1103.44,-99.41 1112.71,-94.29 1102.26,-92.51 1103.44,-99.41"/>
</a>
</g>
</g>
<!-- Node33 -->
<g id="Node000033" class="node">
<title>Node33</title>
<g id="a_Node000033"><a xlink:href="classQtCodeFileList.html#a439038865130d06b122e3bfa00f74262" target="_top" xlink:title=" ">
<polygon fill="white" stroke="#666666" points="1267,-27.12 1119.75,-27.12 1119.75,-6.38 1267,-6.38 1267,-27.12"/>
<text text-anchor="middle" x="1193.38" y="-13.62" font-family="Helvetica,sans-Serif" font-size="10.00">QtCodeFileList::updateFiles</text>
</a>
</g>
</g>
<!-- Node32&#45;&gt;Node33 -->
<g id="edge36_Node000032_Node000033" class="edge">
<title>Node32&#45;&gt;Node33</title>
<g id="a_edge36_Node000032_Node000033"><a xlink:title=" ">
<path fill="none" stroke="#63b8ff" d="M1306.23,-16.75C1293.21,-16.75 1279.97,-16.75 1267.37,-16.75"/>
<polygon fill="#63b8ff" stroke="#63b8ff" points="1306.08,-20.25 1316.08,-16.75 1306.08,-13.25 1306.08,-20.25"/>
</a>
</g>
</g>
</g>
</svg>
