<?xml version="1.0" encoding="UTF-8" standalone="no"?>
<!DOCTYPE svg PUBLIC "-//W3C//DTD SVG 1.1//EN"
 "http://www.w3.org/Graphics/SVG/1.1/DTD/svg11.dtd">
<!-- Generated by graphviz version 7.1.0 (0)
 -->
<!-- Title: QtCompositeView::refreshView Pages: 1 -->
<svg width="759pt" height="87pt"
 viewBox="0.00 0.00 759.00 86.50" xmlns="http://www.w3.org/2000/svg" xmlns:xlink="http://www.w3.org/1999/xlink">
<g id="graph0" class="graph" transform="scale(1 1) rotate(0) translate(4 82.5)">
<title>QtCompositeView::refreshView</title>
<!-- Node1 -->
<g id="node1" class="node">
<title>Node1</title>
<g id="a_node1"><a xlink:title=" ">
<polygon fill="#999999" stroke="#666666" points="169,-46.5 0,-46.5 0,-27.5 169,-27.5 169,-46.5"/>
<text text-anchor="middle" x="84.5" y="-34.5" font-family="Helvetica,sans-Serif" font-size="10.00">QtCompositeView::refreshView</text>
</a>
</g>
</g>
<!-- Node2 -->
<g id="node2" class="node">
<title>Node2</title>
<g id="a_node2"><a xlink:href="classColorScheme.html#ab65eb4d23939345b1569002b38ed3caf" target="_top" xlink:title=" ">
<polygon fill="white" stroke="#666666" points="556,-78.5 412,-78.5 412,-59.5 556,-59.5 556,-78.5"/>
<text text-anchor="middle" x="484" y="-66.5" font-family="Helvetica,sans-Serif" font-size="10.00">ColorScheme::getInstance</text>
</a>
</g>
</g>
<!-- Node1&#45;&gt;Node2 -->
<g id="edge1" class="edge">
<title>Node1&#45;&gt;Node2</title>
<path fill="none" stroke="#63b8ff" d="M126.16,-46.95C149.15,-52.12 178.51,-57.98 205,-61 270.41,-68.46 345.01,-70.24 400.46,-70.28"/>
<polygon fill="#63b8ff" stroke="#63b8ff" points="400.12,-73.78 410.12,-70.26 400.11,-66.78 400.12,-73.78"/>
</g>
<!-- Node4 -->
<g id="node4" class="node">
<title>Node4</title>
<g id="a_node4"><a xlink:href="namespaceutility.html#a44e682351a3b7df45a80d4a86ff8dbb3" target="_top" xlink:title=" ">
<polygon fill="white" stroke="#666666" points="563,-30 405,-30 405,0 563,0 563,-30"/>
<text text-anchor="start" x="413" y="-18" font-family="Helvetica,sans-Serif" font-size="10.00">utility::setWidgetBackground</text>
<text text-anchor="middle" x="484" y="-7" font-family="Helvetica,sans-Serif" font-size="10.00">Color</text>
</a>
</g>
</g>
<!-- Node1&#45;&gt;Node4 -->
<g id="edge3" class="edge">
<title>Node1&#45;&gt;Node4</title>
<path fill="none" stroke="#63b8ff" d="M125.04,-27.01C148.17,-21.68 178.05,-15.68 205,-13 267.66,-6.77 338.66,-7.41 393.22,-9.53"/>
<polygon fill="#63b8ff" stroke="#63b8ff" points="392.96,-13.03 403.1,-9.95 393.25,-6.03 392.96,-13.03"/>
</g>
<!-- Node5 -->
<g id="node5" class="node">
<title>Node5</title>
<g id="a_node5"><a xlink:href="classQtCompositeView.html#a3492c0c4de471c71745f6758c19d2b37" target="_top" xlink:title=" ">
<polygon fill="white" stroke="#666666" points="369,-52 205,-52 205,-22 369,-22 369,-52"/>
<text text-anchor="start" x="213" y="-40" font-family="Helvetica,sans-Serif" font-size="10.00">QtCompositeView::showFocus</text>
<text text-anchor="middle" x="287" y="-29" font-family="Helvetica,sans-Serif" font-size="10.00">Indicator</text>
</a>
</g>
</g>
<!-- Node1&#45;&gt;Node5 -->
<g id="edge4" class="edge">
<title>Node1&#45;&gt;Node5</title>
<path fill="none" stroke="#63b8ff" d="M169.37,-37C177.32,-37 185.41,-37 193.44,-37"/>
<polygon fill="#63b8ff" stroke="#63b8ff" points="193.2,-40.5 203.2,-37 193.2,-33.5 193.2,-40.5"/>
</g>
<!-- Node3 -->
<g id="node3" class="node">
<title>Node3</title>
<g id="a_node3"><a xlink:href="classColorScheme.html#ac359cbede591576e3cd630bba4ef2dd0" target="_top" xlink:title=" ">
<polygon fill="white" stroke="#666666" points="751,-78.5 599,-78.5 599,-59.5 751,-59.5 751,-78.5"/>
<text text-anchor="middle" x="675" y="-66.5" font-family="Helvetica,sans-Serif" font-size="10.00">ColorScheme::ColorScheme</text>
</a>
</g>
</g>
<!-- Node2&#45;&gt;Node3 -->
<g id="edge2" class="edge">
<title>Node2&#45;&gt;Node3</title>
<path fill="none" stroke="#63b8ff" d="M556.45,-69C566.59,-69 577.1,-69 587.48,-69"/>
<polygon fill="#63b8ff" stroke="#63b8ff" points="587.15,-72.5 597.15,-69 587.15,-65.5 587.15,-72.5"/>
</g>
<!-- Node5&#45;&gt;Node2 -->
<g id="edge5" class="edge">
<title>Node5&#45;&gt;Node2</title>
<path fill="none" stroke="#63b8ff" d="M369.29,-50.34C383.16,-52.62 397.5,-54.97 411.11,-57.2"/>
<polygon fill="#63b8ff" stroke="#63b8ff" points="410.42,-60.64 420.86,-58.8 411.56,-53.73 410.42,-60.64"/>
</g>
<!-- Node5&#45;&gt;Node4 -->
<g id="edge6" class="edge">
<title>Node5&#45;&gt;Node4</title>
<path fill="none" stroke="#63b8ff" d="M369.29,-27.83C377.24,-26.93 385.34,-26.02 393.38,-25.11"/>
<polygon fill="#63b8ff" stroke="#63b8ff" points="393.61,-28.61 403.16,-24.01 392.83,-21.65 393.61,-28.61"/>
</g>
</g>
</svg>
