<?xml version="1.0" encoding="UTF-8" standalone="no"?>
<!DOCTYPE svg PUBLIC "-//W3C//DTD SVG 1.1//EN"
 "http://www.w3.org/Graphics/SVG/1.1/DTD/svg11.dtd">
<!-- Generated by graphviz version 9.0.0 (0)
 -->
<!-- Title: NameHierarchy::serializeRange Pages: 1 -->
<svg width="343pt" height="228pt"
 viewBox="0.00 0.00 343.00 227.75" xmlns="http://www.w3.org/2000/svg" xmlns:xlink="http://www.w3.org/1999/xlink">

<svg id="main" version="1.1" xmlns="http://www.w3.org/2000/svg" xmlns:xlink="http://www.w3.org/1999/xlink" xml:space="preserve" onload="init(evt)">
<style type="text/css"><![CDATA[
.node, .edge {opacity: 0.7;}
.node.selected, .edge.selected {opacity: 1;}
.edge:hover path { stroke: red; }
.edge:hover polygon { stroke: red; fill: red; }
]]></style>
<script type="application/ecmascript" xlink:href="svg.min.js"/>
<svg id="graph" class="graph">
<g id="graph0" class="graph" transform="scale(1 1) rotate(0) translate(4 223.75)">
<title>NameHierarchy::serializeRange</title>
<!-- Node1 -->
<g id="Node000001" class="node">
<title>Node1</title>
<g id="a_Node000001"><a xlink:title=" ">
<polygon fill="#999999" stroke="#666666" points="139,-129.12 0,-129.12 0,-95.62 139,-95.62 139,-129.12"/>
<text text-anchor="start" x="8" y="-115.62" font-family="Helvetica,sans-Serif" font-size="10.00">NameHierarchy::serialize</text>
<text text-anchor="middle" x="69.5" y="-102.88" font-family="Helvetica,sans-Serif" font-size="10.00">Range</text>
</a>
</g>
</g>
<!-- Node2 -->
<g id="Node000002" class="node">
<title>Node2</title>
<g id="a_Node000002"><a xlink:href="classNameHierarchy.html#a120b074b23a0f96740d3245a1ca9f6d9" target="_top" xlink:title=" ">
<polygon fill="white" stroke="#666666" points="334.62,-219.75 175.38,-219.75 175.38,-199 334.62,-199 334.62,-219.75"/>
<text text-anchor="middle" x="255" y="-206.25" font-family="Helvetica,sans-Serif" font-size="10.00">NameHierarchy::getDelimiter</text>
</a>
</g>
</g>
<!-- Node1&#45;&gt;Node2 -->
<g id="edge1_Node000001_Node000002" class="edge">
<title>Node1&#45;&gt;Node2</title>
<g id="a_edge1_Node000001_Node000002"><a xlink:title=" ">
<path fill="none" stroke="#63b8ff" d="M88.63,-129.57C108.36,-147.37 141.59,-174.7 175,-190.38 178.56,-192.04 182.27,-193.57 186.07,-194.98"/>
<polygon fill="#63b8ff" stroke="#63b8ff" points="184.91,-198.28 195.51,-198.12 187.13,-191.64 184.91,-198.28"/>
</a>
</g>
</g>
<!-- Node3 -->
<g id="Node000003" class="node">
<title>Node3</title>
<g id="a_Node000003"><a xlink:href="classNameElement_1_1Signature.html#a4bb81f51eb96fb5546311bd60d959dcb" target="_top" xlink:title=" ">
<polygon fill="white" stroke="#666666" points="324.12,-181.12 185.88,-181.12 185.88,-147.62 324.12,-147.62 324.12,-181.12"/>
<text text-anchor="start" x="193.88" y="-167.62" font-family="Helvetica,sans-Serif" font-size="10.00">NameElement::Signature</text>
<text text-anchor="middle" x="255" y="-154.88" font-family="Helvetica,sans-Serif" font-size="10.00">::getPostfix</text>
</a>
</g>
</g>
<!-- Node1&#45;&gt;Node3 -->
<g id="edge2_Node000001_Node000003" class="edge">
<title>Node1&#45;&gt;Node3</title>
<g id="a_edge2_Node000001_Node000003"><a xlink:title=" ">
<path fill="none" stroke="#63b8ff" d="M131.35,-129.62C147.69,-134.25 165.52,-139.3 182.39,-144.08"/>
<polygon fill="#63b8ff" stroke="#63b8ff" points="181.29,-147.41 191.86,-146.77 183.19,-140.67 181.29,-147.41"/>
</a>
</g>
</g>
<!-- Node4 -->
<g id="Node000004" class="node">
<title>Node4</title>
<g id="a_Node000004"><a xlink:href="classNameElement_1_1Signature.html#a42b4dce71a17904b4063c7357a9e8394" target="_top" xlink:title=" ">
<polygon fill="white" stroke="#666666" points="324.12,-129.12 185.88,-129.12 185.88,-95.62 324.12,-95.62 324.12,-129.12"/>
<text text-anchor="start" x="193.88" y="-115.62" font-family="Helvetica,sans-Serif" font-size="10.00">NameElement::Signature</text>
<text text-anchor="middle" x="255" y="-102.88" font-family="Helvetica,sans-Serif" font-size="10.00">::getPrefix</text>
</a>
</g>
</g>
<!-- Node1&#45;&gt;Node4 -->
<g id="edge3_Node000001_Node000004" class="edge">
<title>Node1&#45;&gt;Node4</title>
<g id="a_edge3_Node000001_Node000004"><a xlink:title=" ">
<path fill="none" stroke="#63b8ff" d="M139.35,-112.38C150.72,-112.38 162.58,-112.38 174.19,-112.38"/>
<polygon fill="#63b8ff" stroke="#63b8ff" points="174.16,-115.88 184.16,-112.38 174.16,-108.88 174.16,-115.88"/>
</a>
</g>
</g>
<!-- Node5 -->
<g id="Node000005" class="node">
<title>Node5</title>
<g id="a_Node000005"><a xlink:href="classNameHierarchy.html#a36548b2b6d62fc9f72ceb07c777c8463" target="_top" xlink:title=" ">
<polygon fill="white" stroke="#666666" points="335,-77.75 175,-77.75 175,-57 335,-57 335,-77.75"/>
<text text-anchor="middle" x="255" y="-64.25" font-family="Helvetica,sans-Serif" font-size="10.00">NameHierarchy::getSignature</text>
</a>
</g>
</g>
<!-- Node1&#45;&gt;Node5 -->
<g id="edge4_Node000001_Node000005" class="edge">
<title>Node1&#45;&gt;Node5</title>
<g id="a_edge4_Node000001_Node000005"><a xlink:title=" ">
<path fill="none" stroke="#63b8ff" d="M139.34,-95.17C151.23,-92.22 163.47,-89.2 175,-86.38 182.36,-84.57 190.12,-82.69 197.78,-80.84"/>
<polygon fill="#63b8ff" stroke="#63b8ff" points="198.49,-84.27 207.39,-78.52 196.85,-77.46 198.49,-84.27"/>
</a>
</g>
</g>
<!-- Node6 -->
<g id="Node000006" class="node">
<title>Node6</title>
<g id="a_Node000006"><a xlink:href="classNameHierarchy.html#a760966798a0edd110618a6179d646810" target="_top" xlink:title=" ">
<polygon fill="white" stroke="#666666" points="313.62,-20.75 196.38,-20.75 196.38,0 313.62,0 313.62,-20.75"/>
<text text-anchor="middle" x="255" y="-7.25" font-family="Helvetica,sans-Serif" font-size="10.00">NameHierarchy::size</text>
</a>
</g>
</g>
<!-- Node1&#45;&gt;Node6 -->
<g id="edge5_Node000001_Node000006" class="edge">
<title>Node1&#45;&gt;Node6</title>
<g id="a_edge5_Node000001_Node000006"><a xlink:title=" ">
<path fill="none" stroke="#63b8ff" d="M96.69,-95.31C117.57,-81.96 147.73,-63.24 175,-48.38 189.38,-40.54 205.62,-32.58 219.62,-25.98"/>
<polygon fill="#63b8ff" stroke="#63b8ff" points="220.87,-29.26 228.46,-21.87 217.91,-22.92 220.87,-29.26"/>
</a>
</g>
</g>
<!-- Node6&#45;&gt;Node6 -->
<g id="edge6_Node000006_Node000006" class="edge">
<title>Node6&#45;&gt;Node6</title>
<g id="a_edge6_Node000006_Node000006"><a xlink:title=" ">
<path fill="none" stroke="#63b8ff" d="M225.11,-21.15C213.15,-29.81 223.12,-38.75 255,-38.75 272.44,-38.75 283.32,-36.08 287.64,-32.24"/>
<polygon fill="#63b8ff" stroke="#63b8ff" points="291.06,-31.48 285.25,-22.62 284.27,-33.16 291.06,-31.48"/>
</a>
</g>
</g>
</g>
</svg>
</svg>

<style type='text/css'>
<![CDATA[
[data-mouse-over-selected='false'] { opacity: 0.7; }
[data-mouse-over-selected='true']  { opacity: 1.0; }
]]>
</style>
<script type="application/ecmascript"><![CDATA[
document.addEventListener('DOMContentLoaded', (event) => {
  highlightEdges();
  highlightAdjacentNodes();
});
]]></script>
</svg>
