<?xml version="1.0" encoding="UTF-8" standalone="no"?>
<!DOCTYPE svg PUBLIC "-//W3C//DTD SVG 1.1//EN"
 "http://www.w3.org/Graphics/SVG/1.1/DTD/svg11.dtd">
<!-- Generated by graphviz version 7.1.0 (0)
 -->
<!-- Title: MessageActivateTokens::MessageActivateTokens Pages: 1 -->
<svg width="539pt" height="177pt"
 viewBox="0.00 0.00 539.00 177.00" xmlns="http://www.w3.org/2000/svg" xmlns:xlink="http://www.w3.org/1999/xlink">
<g id="graph0" class="graph" transform="scale(1 1) rotate(0) translate(4 173)">
<title>MessageActivateTokens::MessageActivateTokens</title>
<!-- Node1 -->
<g id="node1" class="node">
<title>Node1</title>
<g id="a_node1"><a xlink:title=" ">
<polygon fill="#999999" stroke="#666666" points="140,-98.5 0,-98.5 0,-68.5 140,-68.5 140,-98.5"/>
<text text-anchor="start" x="8" y="-86.5" font-family="Helvetica,sans-Serif" font-size="10.00">MessageActivateTokens</text>
<text text-anchor="middle" x="70" y="-75.5" font-family="Helvetica,sans-Serif" font-size="10.00">::MessageActivateTokens</text>
</a>
</g>
</g>
<!-- Node2 -->
<g id="node2" class="node">
<title>Node2</title>
<g id="a_node2"><a xlink:href="classMessageBase.html#afd36f69f78a741be829f6a8555806eb6" target="_top" xlink:title=" ">
<polygon fill="white" stroke="#666666" points="341,-169 178,-169 178,-150 341,-150 341,-169"/>
<text text-anchor="middle" x="259.5" y="-157" font-family="Helvetica,sans-Serif" font-size="10.00">MessageBase::getSchedulerId</text>
</a>
</g>
</g>
<!-- Node1&#45;&gt;Node2 -->
<g id="edge1" class="edge">
<title>Node1&#45;&gt;Node2</title>
<path fill="none" stroke="#63b8ff" d="M98.47,-98.78C119.31,-109.95 148.89,-124.94 176,-135.5 186.21,-139.48 197.36,-143.15 208.06,-146.36"/>
<polygon fill="#63b8ff" stroke="#63b8ff" points="206.96,-149.69 217.54,-149.12 208.92,-142.97 206.96,-149.69"/>
</g>
<!-- Node3 -->
<g id="node3" class="node">
<title>Node3</title>
<g id="a_node3"><a xlink:href="classMessageBase.html#a0d970a784f19e4f22216abcc18cda3f5" target="_top" xlink:title=" ">
<polygon fill="white" stroke="#666666" points="531,-112 379,-112 379,-93 531,-93 531,-112"/>
<text text-anchor="middle" x="455" y="-100" font-family="Helvetica,sans-Serif" font-size="10.00">MessageBase::keepContent</text>
</a>
</g>
</g>
<!-- Node1&#45;&gt;Node3 -->
<g id="edge2" class="edge">
<title>Node1&#45;&gt;Node3</title>
<path fill="none" stroke="#63b8ff" d="M140.23,-97.84C152.11,-99.78 164.38,-101.46 176,-102.5 239.84,-108.23 312.26,-108.01 367.17,-106.48"/>
<polygon fill="#63b8ff" stroke="#63b8ff" points="367.22,-109.98 377.11,-106.18 367,-102.98 367.22,-109.98"/>
</g>
<!-- Node4 -->
<g id="node4" class="node">
<title>Node4</title>
<g id="a_node4"><a xlink:href="classMessageBase.html#a7b4739a759e536906bcbfe2b7b7501fe" target="_top" xlink:title=" ">
<polygon fill="white" stroke="#666666" points="334.5,-56 184.5,-56 184.5,-37 334.5,-37 334.5,-56"/>
<text text-anchor="middle" x="259.5" y="-44" font-family="Helvetica,sans-Serif" font-size="10.00">MessageBase::setIsParallel</text>
</a>
</g>
</g>
<!-- Node1&#45;&gt;Node4 -->
<g id="edge3" class="edge">
<title>Node1&#45;&gt;Node4</title>
<path fill="none" stroke="#63b8ff" d="M140.29,-69.83C158.77,-66.18 178.62,-62.26 196.68,-58.7"/>
<polygon fill="#63b8ff" stroke="#63b8ff" points="197.34,-62.14 206.47,-56.77 195.98,-55.27 197.34,-62.14"/>
</g>
<!-- Node6 -->
<g id="node6" class="node">
<title>Node6</title>
<g id="a_node6"><a xlink:href="classMessageBase.html#a997a94805515072b51b88761e089b518" target="_top" xlink:title=" ">
<polygon fill="white" stroke="#666666" points="343,-93 176,-93 176,-74 343,-74 343,-93"/>
<text text-anchor="middle" x="259.5" y="-81" font-family="Helvetica,sans-Serif" font-size="10.00">MessageBase::setKeepContent</text>
</a>
</g>
</g>
<!-- Node1&#45;&gt;Node6 -->
<g id="edge5" class="edge">
<title>Node1&#45;&gt;Node6</title>
<path fill="none" stroke="#63b8ff" d="M140.29,-83.5C148.08,-83.5 156.13,-83.5 164.18,-83.5"/>
<polygon fill="#63b8ff" stroke="#63b8ff" points="164.02,-87 174.02,-83.5 164.02,-80 164.02,-87"/>
</g>
<!-- Node7 -->
<g id="node7" class="node">
<title>Node7</title>
<g id="a_node7"><a xlink:href="classMessageBase.html#a78b74840a194c335f7ce17712e97e136" target="_top" xlink:title=" ">
<polygon fill="white" stroke="#666666" points="340.5,-19 178.5,-19 178.5,0 340.5,0 340.5,-19"/>
<text text-anchor="middle" x="259.5" y="-7" font-family="Helvetica,sans-Serif" font-size="10.00">MessageBase::setSchedulerId</text>
</a>
</g>
</g>
<!-- Node1&#45;&gt;Node7 -->
<g id="edge7" class="edge">
<title>Node1&#45;&gt;Node7</title>
<path fill="none" stroke="#63b8ff" d="M95.14,-68.15C115.86,-55.58 146.91,-38.2 176,-27.5 181.07,-25.64 186.38,-23.94 191.77,-22.39"/>
<polygon fill="#63b8ff" stroke="#63b8ff" points="192.64,-25.78 201.41,-19.83 190.84,-19.02 192.64,-25.78"/>
</g>
<!-- Node5 -->
<g id="node5" class="node">
<title>Node5</title>
<g id="a_node5"><a xlink:href="classMessageBase.html#a0dab5c6a372ef7246d07754128117df7" target="_top" xlink:title=" ">
<polygon fill="white" stroke="#666666" points="522.5,-56 387.5,-56 387.5,-37 522.5,-37 522.5,-56"/>
<text text-anchor="middle" x="455" y="-44" font-family="Helvetica,sans-Serif" font-size="10.00">MessageBase::isParallel</text>
</a>
</g>
</g>
<!-- Node4&#45;&gt;Node5 -->
<g id="edge4" class="edge">
<title>Node4&#45;&gt;Node5</title>
<path fill="none" stroke="#63b8ff" d="M334.76,-46.5C348.25,-46.5 362.35,-46.5 375.95,-46.5"/>
<polygon fill="#63b8ff" stroke="#63b8ff" points="375.71,-50 385.71,-46.5 375.71,-43 375.71,-50"/>
</g>
<!-- Node6&#45;&gt;Node3 -->
<g id="edge6" class="edge">
<title>Node6&#45;&gt;Node3</title>
<path fill="none" stroke="#63b8ff" d="M343.4,-91.64C351.35,-92.42 359.43,-93.21 367.41,-94"/>
<polygon fill="#63b8ff" stroke="#63b8ff" points="366.81,-97.46 377.1,-94.95 367.49,-90.49 366.81,-97.46"/>
</g>
</g>
</svg>
