<?xml version="1.0" encoding="UTF-8" standalone="no"?>
<!DOCTYPE svg PUBLIC "-//W3C//DTD SVG 1.1//EN"
 "http://www.w3.org/Graphics/SVG/1.1/DTD/svg11.dtd">
<!-- Generated by graphviz version 7.1.0 (0)
 -->
<!-- Title: QtCodeNavigable::getScrollArea Pages: 1 -->
<!--zoomable 321 -->
<svg id="main" version="1.1" xmlns="http://www.w3.org/2000/svg" xmlns:xlink="http://www.w3.org/1999/xlink" xml:space="preserve" onload="init(evt)">
<style type="text/css"><![CDATA[
.edge:hover path { stroke: red; }
.edge:hover polygon { stroke: red; fill: red; }
]]></style>
<script type="text/javascript"><![CDATA[
var edges = document.getElementsByTagName('g');
if (edges && edges.length) {
  for (var i=0;i<edges.length;i++) {
    if (edges[i].id.substr(0,4)=='edge') {
      edges[i].setAttribute('class','edge');
    }
  }
}
]]></script>
        <defs>
                <circle id="rim" cx="0" cy="0" r="7"/>
                <circle id="rim2" cx="0" cy="0" r="3.5"/>
                <g id="zoomPlus">
                        <use xlink:href="#rim" fill="#404040">
                                <set attributeName="fill" to="#808080" begin="zoomplus.mouseover" end="zoomplus.mouseout"/>
                        </use>
                        <path d="M-4,0h8M0,-4v8" fill="none" stroke="white" stroke-width="1.5" pointer-events="none"/>
                </g>
                <g id="zoomMin">
                        <use xlink:href="#rim" fill="#404040">
                                <set attributeName="fill" to="#808080" begin="zoomminus.mouseover" end="zoomminus.mouseout"/>
                        </use>
                        <path d="M-4,0h8" fill="none" stroke="white" stroke-width="1.5" pointer-events="none"/>
                </g>
                <g id="dirArrow">
                        <path fill="none" stroke="white" stroke-width="1.5" d="M0,-3.0v7 M-2.5,-0.5L0,-3.0L2.5,-0.5"/>
                </g>
               <g id="resetDef">
                       <use xlink:href="#rim2" fill="#404040">
                               <set attributeName="fill" to="#808080" begin="reset.mouseover" end="reset.mouseout"/>
                       </use>
               </g>
        </defs>

<script type="text/javascript">
var viewWidth = 779;
var viewHeight = 321;
var sectionId = 'dynsection-8';
</script>
<script xlink:href="svgpan.js"/>
<svg id="graph" class="graph">
<g id="viewport">
<title>QtCodeNavigable::getScrollArea</title>
<!-- Node1 -->
<g id="node1" class="node">
<title>Node1</title>
<g id="a_node1"><a xlink:title=" ">
<polygon fill="#999999" stroke="#666666" points="771,-259 598,-259 598,-240 771,-240 771,-259"/>
<text text-anchor="middle" x="684.5" y="-247" font-family="Helvetica,sans-Serif" font-size="10.00">QtCodeNavigable::getScrollArea</text>
</a>
</g>
</g>
<!-- Node2 -->
<g id="node2" class="node">
<title>Node2</title>
<g id="a_node2"><a xlink:href="classQtCodeNavigable.html#a19e0e99ac612af73d9d7253c2a6e056e" target="_top" xlink:title=" ">
<polygon fill="white" stroke="#666666" points="562,-312.5 384,-312.5 384,-282.5 562,-282.5 562,-312.5"/>
<text text-anchor="start" x="392" y="-300.5" font-family="Helvetica,sans-Serif" font-size="10.00">QtCodeNavigable::ensurePercent</text>
<text text-anchor="middle" x="473" y="-289.5" font-family="Helvetica,sans-Serif" font-size="10.00">VisibleAnimated</text>
</a>
</g>
</g>
<!-- Node1&#45;&gt;Node2 -->
<g id="edge1" class="edge">
<title>Node1&#45;&gt;Node2</title>
<path fill="none" stroke="#63b8ff" d="M628.98,-261.99C602.18,-268.13 569.62,-275.59 541.28,-282.08"/>
<polygon fill="#63b8ff" stroke="#63b8ff" points="629.65,-265.43 638.62,-259.78 628.09,-258.61 629.65,-265.43"/>
</g>
<!-- Node4 -->
<g id="node4" class="node">
<title>Node4</title>
<g id="a_node4"><a xlink:href="classQtCodeNavigable.html#aeda385399049cebeed1918d946b742ac" target="_top" xlink:title=" ">
<polygon fill="white" stroke="#666666" points="561,-264.5 385,-264.5 385,-234.5 561,-234.5 561,-264.5"/>
<text text-anchor="start" x="393" y="-252.5" font-family="Helvetica,sans-Serif" font-size="10.00">QtCodeNavigable::ensureWidget</text>
<text text-anchor="middle" x="473" y="-241.5" font-family="Helvetica,sans-Serif" font-size="10.00">VisibleAnimated</text>
</a>
</g>
</g>
<!-- Node1&#45;&gt;Node4 -->
<g id="edge3" class="edge">
<title>Node1&#45;&gt;Node4</title>
<path fill="none" stroke="#63b8ff" d="M586.37,-249.5C578.04,-249.5 569.63,-249.5 561.38,-249.5"/>
<polygon fill="#63b8ff" stroke="#63b8ff" points="586.17,-253 596.17,-249.5 586.17,-246 586.17,-253"/>
</g>
<!-- Node6 -->
<g id="node6" class="node">
<title>Node6</title>
<g id="a_node6"><a xlink:href="classQtCodeNavigator.html#afbd2613391d77ee268af3b0c2f38d523" target="_top" xlink:title=" ">
<polygon fill="white" stroke="#666666" points="544.5,-136 401.5,-136 401.5,-117 544.5,-117 544.5,-136"/>
<text text-anchor="middle" x="473" y="-124" font-family="Helvetica,sans-Serif" font-size="10.00">QtCodeNavigator::scrollTo</text>
</a>
</g>
</g>
<!-- Node1&#45;&gt;Node6 -->
<g id="edge5" class="edge">
<title>Node1&#45;&gt;Node6</title>
<path fill="none" stroke="#63b8ff" d="M656.79,-233.82C613,-208.11 527.18,-157.72 490.87,-136.4"/>
<polygon fill="#63b8ff" stroke="#63b8ff" points="655.01,-236.83 665.4,-238.88 658.55,-230.79 655.01,-236.83"/>
</g>
<!-- Node3 -->
<g id="node3" class="node">
<title>Node3</title>
<g id="a_node3"><a xlink:href="classQtCodeFileSingle.html#a025dfc782328c0e8ea4c66b036c321d3" target="_top" xlink:title=" ">
<polygon fill="white" stroke="#666666" points="339,-307 197,-307 197,-288 339,-288 339,-307"/>
<text text-anchor="middle" x="268" y="-295" font-family="Helvetica,sans-Serif" font-size="10.00">QtCodeFileSingle::scrollTo</text>
</a>
</g>
</g>
<!-- Node2&#45;&gt;Node3 -->
<g id="edge2" class="edge">
<title>Node2&#45;&gt;Node3</title>
<path fill="none" stroke="#63b8ff" d="M372.1,-297.5C361.07,-297.5 350.02,-297.5 339.47,-297.5"/>
<polygon fill="#63b8ff" stroke="#63b8ff" points="372.04,-301 382.04,-297.5 372.04,-294 372.04,-301"/>
</g>
<!-- Node5 -->
<g id="node5" class="node">
<title>Node5</title>
<g id="a_node5"><a xlink:href="classQtCodeFileList.html#ae583f8c6844413b184ee9b087ffb1fd4" target="_top" xlink:title=" ">
<polygon fill="white" stroke="#666666" points="332.5,-265 203.5,-265 203.5,-246 332.5,-246 332.5,-265"/>
<text text-anchor="middle" x="268" y="-253" font-family="Helvetica,sans-Serif" font-size="10.00">QtCodeFileList::scrollTo</text>
</a>
</g>
</g>
<!-- Node4&#45;&gt;Node5 -->
<g id="edge4" class="edge">
<title>Node4&#45;&gt;Node5</title>
<path fill="none" stroke="#63b8ff" d="M373.25,-252.42C359.53,-252.82 345.75,-253.23 332.9,-253.61"/>
<polygon fill="#63b8ff" stroke="#63b8ff" points="373.33,-255.92 383.22,-252.12 373.12,-248.92 373.33,-255.92"/>
</g>
<!-- Node7 -->
<g id="node7" class="node">
<title>Node7</title>
<g id="a_node7"><a xlink:href="classQtCodeNavigator.html#a164cd09c4a33270e9e3fa1034d78c9b5" target="_top" xlink:title=" ">
<polygon fill="white" stroke="#666666" points="341,-227.5 195,-227.5 195,-197.5 341,-197.5 341,-227.5"/>
<text text-anchor="start" x="203" y="-215.5" font-family="Helvetica,sans-Serif" font-size="10.00">QtCodeNavigator::activate</text>
<text text-anchor="middle" x="268" y="-204.5" font-family="Helvetica,sans-Serif" font-size="10.00">ScreenMatch</text>
</a>
</g>
</g>
<!-- Node6&#45;&gt;Node7 -->
<g id="edge6" class="edge">
<title>Node6&#45;&gt;Node7</title>
<path fill="none" stroke="#63b8ff" d="M444.7,-141.83C419.97,-155.3 382.28,-174.84 348,-188.5 340.41,-191.53 332.28,-194.39 324.24,-197.02"/>
<polygon fill="#63b8ff" stroke="#63b8ff" points="446.37,-144.9 453.44,-137.01 442.99,-138.77 446.37,-144.9"/>
</g>
<!-- Node9 -->
<g id="node9" class="node">
<title>Node9</title>
<g id="a_node9"><a xlink:href="classQtCodeView.html#a506061ae95b2f2fbd1973bc28de00b9a" target="_top" xlink:title=" ">
<polygon fill="white" stroke="#666666" points="327.5,-179 208.5,-179 208.5,-160 327.5,-160 327.5,-179"/>
<text text-anchor="middle" x="268" y="-167" font-family="Helvetica,sans-Serif" font-size="10.00">QtCodeView::scrollTo</text>
</a>
</g>
</g>
<!-- Node6&#45;&gt;Node9 -->
<g id="edge8" class="edge">
<title>Node6&#45;&gt;Node9</title>
<path fill="none" stroke="#63b8ff" d="M413.84,-138.82C382.88,-145.38 345.3,-153.34 316.18,-159.51"/>
<polygon fill="#63b8ff" stroke="#63b8ff" points="414.38,-142.28 423.44,-136.79 412.93,-135.44 414.38,-142.28"/>
</g>
<!-- Node10 -->
<g id="node10" class="node">
<title>Node10</title>
<g id="a_node10"><a xlink:href="classQtCodeNavigator.html#a32f12006f74b8a02a16bc5c874645589" target="_top" xlink:title=" ">
<polygon fill="white" stroke="#666666" points="339.5,-141.5 196.5,-141.5 196.5,-111.5 339.5,-111.5 339.5,-141.5"/>
<text text-anchor="start" x="204.5" y="-129.5" font-family="Helvetica,sans-Serif" font-size="10.00">QtCodeNavigator::scrollTo</text>
<text text-anchor="middle" x="268" y="-118.5" font-family="Helvetica,sans-Serif" font-size="10.00">Focus</text>
</a>
</g>
</g>
<!-- Node6&#45;&gt;Node10 -->
<g id="edge9" class="edge">
<title>Node6&#45;&gt;Node10</title>
<path fill="none" stroke="#63b8ff" d="M389.72,-126.5C373.22,-126.5 356.03,-126.5 339.96,-126.5"/>
<polygon fill="#63b8ff" stroke="#63b8ff" points="389.49,-130 399.49,-126.5 389.49,-123 389.49,-130"/>
</g>
<!-- Node12 -->
<g id="node12" class="node">
<title>Node12</title>
<g id="a_node12"><a xlink:href="classQtCodeNavigator.html#a561cd4f9396925bf62d81fe7cf874dc0" target="_top" xlink:title=" ">
<polygon fill="white" stroke="#666666" points="348,-93 188,-93 188,-74 348,-74 348,-93"/>
<text text-anchor="middle" x="268" y="-81" font-family="Helvetica,sans-Serif" font-size="10.00">QtCodeNavigator::showEvent</text>
</a>
</g>
</g>
<!-- Node6&#45;&gt;Node12 -->
<g id="edge11" class="edge">
<title>Node6&#45;&gt;Node12</title>
<path fill="none" stroke="#63b8ff" d="M413.84,-114.18C382.88,-107.62 345.3,-99.66 316.18,-93.49"/>
<polygon fill="#63b8ff" stroke="#63b8ff" points="412.93,-117.56 423.44,-116.21 414.38,-110.72 412.93,-117.56"/>
</g>
<!-- Node13 -->
<g id="node13" class="node">
<title>Node13</title>
<g id="a_node13"><a xlink:href="classQtCodeView.html#a03d33b6b0d51a10ab3c407765c6e8c6d" target="_top" xlink:title=" ">
<polygon fill="white" stroke="#666666" points="345.5,-56 190.5,-56 190.5,-37 345.5,-37 345.5,-56"/>
<text text-anchor="middle" x="268" y="-44" font-family="Helvetica,sans-Serif" font-size="10.00">QtCodeView::showSingleFile</text>
</a>
</g>
</g>
<!-- Node6&#45;&gt;Node13 -->
<g id="edge12" class="edge">
<title>Node6&#45;&gt;Node13</title>
<path fill="none" stroke="#63b8ff" d="M445.34,-110.82C420.77,-96.94 382.94,-77.01 348,-64.5 339.39,-61.42 330.06,-58.74 320.93,-56.46"/>
<polygon fill="#63b8ff" stroke="#63b8ff" points="443.59,-113.85 454.01,-115.78 447.07,-107.77 443.59,-113.85"/>
</g>
<!-- Node14 -->
<g id="node14" class="node">
<title>Node14</title>
<g id="a_node14"><a xlink:href="classQtCodeView.html#a47df56cbb087ef2d989d78970ea8bb98" target="_top" xlink:title=" ">
<polygon fill="white" stroke="#666666" points="343,-19 193,-19 193,0 343,0 343,-19"/>
<text text-anchor="middle" x="268" y="-7" font-family="Helvetica,sans-Serif" font-size="10.00">QtCodeView::showSnippets</text>
</a>
</g>
</g>
<!-- Node6&#45;&gt;Node14 -->
<g id="edge13" class="edge">
<title>Node6&#45;&gt;Node14</title>
<path fill="none" stroke="#63b8ff" d="M454.9,-108.56C432.48,-86.14 390.94,-48.19 348,-27.5 341.28,-24.26 333.96,-21.6 326.57,-19.4"/>
<polygon fill="#63b8ff" stroke="#63b8ff" points="452.22,-110.82 461.72,-115.51 457.21,-105.92 452.22,-110.82"/>
</g>
<!-- Node8 -->
<g id="node8" class="node">
<title>Node8</title>
<g id="a_node8"><a xlink:href="classQtCodeView.html#af5545196a70d3e3098a892506f91097a" target="_top" xlink:title=" ">
<polygon fill="white" stroke="#666666" points="152,-222 0,-222 0,-203 152,-203 152,-222"/>
<text text-anchor="middle" x="76" y="-210" font-family="Helvetica,sans-Serif" font-size="10.00">QtCodeView::activateMatch</text>
</a>
</g>
</g>
<!-- Node7&#45;&gt;Node8 -->
<g id="edge7" class="edge">
<title>Node7&#45;&gt;Node8</title>
<path fill="none" stroke="#63b8ff" d="M183.14,-212.5C172.89,-212.5 162.45,-212.5 152.33,-212.5"/>
<polygon fill="#63b8ff" stroke="#63b8ff" points="183.11,-216 193.11,-212.5 183.11,-209 183.11,-216"/>
</g>
<!-- Node11 -->
<g id="node11" class="node">
<title>Node11</title>
<g id="a_node11"><a xlink:href="classQtCodeNavigator.html#afd9d87b4e73c23ed7706971459ae695f" target="_top" xlink:title=" ">
<polygon fill="white" stroke="#666666" points="151,-141.5 1,-141.5 1,-111.5 151,-111.5 151,-141.5"/>
<text text-anchor="start" x="9" y="-129.5" font-family="Helvetica,sans-Serif" font-size="10.00">QtCodeNavigator::keyPress</text>
<text text-anchor="middle" x="76" y="-118.5" font-family="Helvetica,sans-Serif" font-size="10.00">Event</text>
</a>
</g>
</g>
<!-- Node10&#45;&gt;Node11 -->
<g id="edge10" class="edge">
<title>Node10&#45;&gt;Node11</title>
<path fill="none" stroke="#63b8ff" d="M184.77,-126.5C173.64,-126.5 162.28,-126.5 151.31,-126.5"/>
<polygon fill="#63b8ff" stroke="#63b8ff" points="184.74,-130 194.74,-126.5 184.74,-123 184.74,-130"/>
</g>
</g>
</svg>
        <g id="navigator" transform="translate(0 0)" fill="#404254">
                <rect fill="#f2f5e9" fill-opacity="0.5" stroke="#606060" stroke-width=".5" x="0" y="0" width="60" height="60"/>
                <use id="zoomplus" xlink:href="#zoomPlus" x="17" y="9" onmousedown="handleZoom(evt,'in')"/>
                <use id="zoomminus" xlink:href="#zoomMin" x="42" y="9" onmousedown="handleZoom(evt,'out')"/>
                <use id="reset" xlink:href="#resetDef" x="30" y="36" onmousedown="handleReset()"/>
                <g id="arrowUp" xlink:href="#dirArrow" transform="translate(30 24)" onmousedown="handlePan(0,-1)">
                  <use xlink:href="#rim" fill="#404040">
                        <set attributeName="fill" to="#808080" begin="arrowUp.mouseover" end="arrowUp.mouseout"/>
                  </use>
                  <path fill="none" stroke="white" stroke-width="1.5" d="M0,-3.0v7 M-2.5,-0.5L0,-3.0L2.5,-0.5"/>
                </g>
                <g id="arrowRight" xlink:href="#dirArrow" transform="rotate(90) translate(36 -43)" onmousedown="handlePan(1,0)">
                  <use xlink:href="#rim" fill="#404040">
                        <set attributeName="fill" to="#808080" begin="arrowRight.mouseover" end="arrowRight.mouseout"/>
                  </use>
                  <path fill="none" stroke="white" stroke-width="1.5" d="M0,-3.0v7 M-2.5,-0.5L0,-3.0L2.5,-0.5"/>
                </g>
                <g id="arrowDown" xlink:href="#dirArrow" transform="rotate(180) translate(-30 -48)" onmousedown="handlePan(0,1)">
                  <use xlink:href="#rim" fill="#404040">
                        <set attributeName="fill" to="#808080" begin="arrowDown.mouseover" end="arrowDown.mouseout"/>
                  </use>
                  <path fill="none" stroke="white" stroke-width="1.5" d="M0,-3.0v7 M-2.5,-0.5L0,-3.0L2.5,-0.5"/>
                </g>
                <g id="arrowLeft" xlink:href="#dirArrow" transform="rotate(270) translate(-36 17)" onmousedown="handlePan(-1,0)">
                  <use xlink:href="#rim" fill="#404040">
                        <set attributeName="fill" to="#808080" begin="arrowLeft.mouseover" end="arrowLeft.mouseout"/>
                  </use>
                  <path fill="none" stroke="white" stroke-width="1.5" d="M0,-3.0v7 M-2.5,-0.5L0,-3.0L2.5,-0.5"/>
                </g>
        </g>
        <svg viewBox="0 0 15 15" width="100%" height="30px" preserveAspectRatio="xMaxYMin meet">
         <g id="arrow_out" transform="scale(0.3 0.3)">
          <a xlink:href="classQtCodeNavigable_a3af0f2468fb11827b4ceb2782ece2f13_icgraph_org.svg" target="_base">
           <rect id="button" ry="5" rx="5" y="6" x="6" height="38" width="38"
                fill="#f2f5e9" fill-opacity="0.5" stroke="#606060" stroke-width="1.0"/>
           <path id="arrow"
             d="M 11.500037,31.436501 C 11.940474,20.09759 22.043105,11.32322 32.158766,21.979434 L 37.068811,17.246167 C 37.068811,17.246167 37.088388,32 37.088388,32 L 22.160133,31.978069 C 22.160133,31.978069 26.997745,27.140456 26.997745,27.140456 C 18.528582,18.264221 13.291696,25.230495 11.500037,31.436501 z"
             style="fill:#404040;"/>
          </a>
         </g>
        </svg>
</svg>
