<?xml version="1.0" encoding="UTF-8" standalone="no"?>
<!DOCTYPE svg PUBLIC "-//W3C//DTD SVG 1.1//EN"
 "http://www.w3.org/Graphics/SVG/1.1/DTD/svg11.dtd">
<!-- Generated by graphviz version 7.1.0 (0)
 -->
<!-- Title: QtPathListBox::makeRelativeIfShorter Pages: 1 -->
<svg width="494pt" height="76pt"
 viewBox="0.00 0.00 494.00 75.50" xmlns="http://www.w3.org/2000/svg" xmlns:xlink="http://www.w3.org/1999/xlink">
<g id="graph0" class="graph" transform="scale(1 1) rotate(0) translate(4 71.5)">
<title>QtPathListBox::makeRelativeIfShorter</title>
<!-- Node1 -->
<g id="node1" class="node">
<title>Node1</title>
<g id="a_node1"><a xlink:title=" ">
<polygon fill="#999999" stroke="#666666" points="486,-51 327,-51 327,-21 486,-21 486,-51"/>
<text text-anchor="start" x="335" y="-39" font-family="Helvetica,sans-Serif" font-size="10.00">QtPathListBox::makeRelative</text>
<text text-anchor="middle" x="406.5" y="-28" font-family="Helvetica,sans-Serif" font-size="10.00">IfShorter</text>
</a>
</g>
</g>
<!-- Node2 -->
<g id="node2" class="node">
<title>Node2</title>
<g id="a_node2"><a xlink:href="classQtPathListBox.html#a709c73be8ab20e2d155812eee3dd1224" target="_top" xlink:title=" ">
<polygon fill="white" stroke="#666666" points="291,-67.5 150,-67.5 150,-48.5 291,-48.5 291,-67.5"/>
<text text-anchor="middle" x="220.5" y="-55.5" font-family="Helvetica,sans-Serif" font-size="10.00">QtPathListBox::dropEvent</text>
</a>
</g>
</g>
<!-- Node1&#45;&gt;Node2 -->
<g id="edge1" class="edge">
<title>Node1&#45;&gt;Node2</title>
<path fill="none" stroke="#63b8ff" d="M315.36,-46.78C307.33,-47.74 299.28,-48.7 291.46,-49.64"/>
<polygon fill="#63b8ff" stroke="#63b8ff" points="315.65,-50.27 325.16,-45.61 314.82,-43.32 315.65,-50.27"/>
</g>
<!-- Node3 -->
<g id="node3" class="node">
<title>Node3</title>
<g id="a_node3"><a xlink:href="classQtPathListBoxItem.html#a18e11036ca183adbb7c2a3ff8d94f6af" target="_top" xlink:title=" ">
<polygon fill="white" stroke="#666666" points="277.5,-30 163.5,-30 163.5,0 277.5,0 277.5,-30"/>
<text text-anchor="start" x="171.5" y="-18" font-family="Helvetica,sans-Serif" font-size="10.00">QtPathListBoxItem::</text>
<text text-anchor="middle" x="220.5" y="-7" font-family="Helvetica,sans-Serif" font-size="10.00">handleButtonPress</text>
</a>
</g>
</g>
<!-- Node1&#45;&gt;Node3 -->
<g id="edge2" class="edge">
<title>Node1&#45;&gt;Node3</title>
<path fill="none" stroke="#63b8ff" d="M315.47,-25.72C302.68,-24.26 289.84,-22.8 277.94,-21.44"/>
<polygon fill="#63b8ff" stroke="#63b8ff" points="314.83,-29.17 325.16,-26.83 315.62,-22.22 314.83,-29.17"/>
</g>
<!-- Node4 -->
<g id="node4" class="node">
<title>Node4</title>
<g id="a_node4"><a xlink:href="classQtPathListBoxItem.html#aa854db3f08ab40275889f68d75022f0e" target="_top" xlink:title=" ">
<polygon fill="white" stroke="#666666" points="114,-30 0,-30 0,0 114,0 114,-30"/>
<text text-anchor="start" x="8" y="-18" font-family="Helvetica,sans-Serif" font-size="10.00">QtPathListBoxItem::</text>
<text text-anchor="middle" x="57" y="-7" font-family="Helvetica,sans-Serif" font-size="10.00">QtPathListBoxItem</text>
</a>
</g>
</g>
<!-- Node3&#45;&gt;Node4 -->
<g id="edge3" class="edge">
<title>Node3&#45;&gt;Node4</title>
<path fill="none" stroke="#63b8ff" d="M151.76,-15C139.34,-15 126.5,-15 114.45,-15"/>
<polygon fill="#63b8ff" stroke="#63b8ff" points="151.5,-18.5 161.5,-15 151.5,-11.5 151.5,-18.5"/>
</g>
</g>
</svg>
