<?xml version="1.0" encoding="UTF-8" standalone="no"?>
<!DOCTYPE svg PUBLIC "-//W3C//DTD SVG 1.1//EN"
 "http://www.w3.org/Graphics/SVG/1.1/DTD/svg11.dtd">
<!-- Generated by graphviz version 7.1.0 (0)
 -->
<!-- Title: QtScreenSearchBox::QtScreenSearchBox Pages: 1 -->
<svg width="1278pt" height="355pt"
 viewBox="0.00 0.00 1278.00 355.00" xmlns="http://www.w3.org/2000/svg" xmlns:xlink="http://www.w3.org/1999/xlink">
<g id="graph0" class="graph" transform="scale(1 1) rotate(0) translate(4 351)">
<title>QtScreenSearchBox::QtScreenSearchBox</title>
<!-- Node1 -->
<g id="node1" class="node">
<title>Node1</title>
<g id="a_node1"><a xlink:title=" ">
<polygon fill="#999999" stroke="#666666" points="119,-178 0,-178 0,-148 119,-148 119,-178"/>
<text text-anchor="start" x="8" y="-166" font-family="Helvetica,sans-Serif" font-size="10.00">QtScreenSearchBox::</text>
<text text-anchor="middle" x="59.5" y="-155" font-family="Helvetica,sans-Serif" font-size="10.00">QtScreenSearchBox</text>
</a>
</g>
</g>
<!-- Node2 -->
<g id="node2" class="node">
<title>Node2</title>
<g id="a_node2"><a xlink:href="classQtScreenSearchBox.html#a7a58d3670edad457024cc25c963faabe" target="_top" xlink:title=" ">
<polygon fill="white" stroke="#666666" points="743,-321 624,-321 624,-291 743,-291 743,-321"/>
<text text-anchor="start" x="632" y="-309" font-family="Helvetica,sans-Serif" font-size="10.00">QtScreenSearchBox::</text>
<text text-anchor="middle" x="683.5" y="-298" font-family="Helvetica,sans-Serif" font-size="10.00">findMatches</text>
</a>
</g>
</g>
<!-- Node1&#45;&gt;Node2 -->
<g id="edge1" class="edge">
<title>Node1&#45;&gt;Node2</title>
<path fill="none" stroke="#63b8ff" d="M67.83,-178.25C81.11,-203.96 111.84,-255.25 155,-277 303.77,-351.97 506.97,-335.16 612.48,-319.06"/>
<polygon fill="#63b8ff" stroke="#63b8ff" points="612.79,-322.55 622.12,-317.54 611.7,-315.64 612.79,-322.55"/>
</g>
<!-- Node10 -->
<g id="node10" class="node">
<title>Node10</title>
<g id="a_node10"><a xlink:href="classResourcePaths.html#aac268005efee61f8dcba454dd4e5a097" target="_top" xlink:title=" ">
<polygon fill="white" stroke="#666666" points="349,-153.5 155,-153.5 155,-134.5 349,-134.5 349,-153.5"/>
<text text-anchor="middle" x="252" y="-141.5" font-family="Helvetica,sans-Serif" font-size="10.00">ResourcePaths::getGuiDirectoryPath</text>
</a>
</g>
</g>
<!-- Node1&#45;&gt;Node10 -->
<g id="edge9" class="edge">
<title>Node1&#45;&gt;Node10</title>
<path fill="none" stroke="#63b8ff" d="M119.47,-157.12C127.21,-156.35 135.32,-155.54 143.56,-154.72"/>
<polygon fill="#63b8ff" stroke="#63b8ff" points="143.74,-158.22 153.34,-153.74 143.04,-151.25 143.74,-158.22"/>
</g>
<!-- Node14 -->
<g id="node14" class="node">
<title>Node14</title>
<g id="a_node14"><a xlink:href="classQtScreenSearchBox.html#a5eb2bc13c44a9b57c29cc611f348d3af" target="_top" xlink:title=" ">
<polygon fill="white" stroke="#666666" points="546,-228 427,-228 427,-198 546,-198 546,-228"/>
<text text-anchor="start" x="435" y="-216" font-family="Helvetica,sans-Serif" font-size="10.00">QtScreenSearchBox::</text>
<text text-anchor="middle" x="486.5" y="-205" font-family="Helvetica,sans-Serif" font-size="10.00">nextPressed</text>
</a>
</g>
</g>
<!-- Node1&#45;&gt;Node14 -->
<g id="edge13" class="edge">
<title>Node1&#45;&gt;Node14</title>
<path fill="none" stroke="#63b8ff" d="M119.15,-169.9C196.57,-179.01 332.73,-195.03 415.46,-204.76"/>
<polygon fill="#63b8ff" stroke="#63b8ff" points="414.93,-208.22 425.27,-205.91 415.75,-201.27 414.93,-208.22"/>
</g>
<!-- Node18 -->
<g id="node18" class="node">
<title>Node18</title>
<g id="a_node18"><a xlink:href="classQtScreenSearchBox.html#a6d407a0a87345fe75fa8e0bfe849192e" target="_top" xlink:title=" ">
<polygon fill="white" stroke="#666666" points="546,-276 427,-276 427,-246 546,-246 546,-276"/>
<text text-anchor="start" x="435" y="-264" font-family="Helvetica,sans-Serif" font-size="10.00">QtScreenSearchBox::</text>
<text text-anchor="middle" x="486.5" y="-253" font-family="Helvetica,sans-Serif" font-size="10.00">previousPressed</text>
</a>
</g>
</g>
<!-- Node1&#45;&gt;Node18 -->
<g id="edge19" class="edge">
<title>Node1&#45;&gt;Node18</title>
<path fill="none" stroke="#63b8ff" d="M71.56,-178.28C87.39,-198.74 118.64,-234.17 155,-249 239.48,-283.46 346.42,-279.76 415.39,-272"/>
<polygon fill="#63b8ff" stroke="#63b8ff" points="415.53,-275.51 425.04,-270.85 414.7,-268.56 415.53,-275.51"/>
</g>
<!-- Node19 -->
<g id="node19" class="node">
<title>Node19</title>
<g id="a_node19"><a xlink:href="classQtScreenSearchBox.html#a17c7d4c46994c74db012b35935770f23" target="_top" xlink:title=" ">
<polygon fill="white" stroke="#666666" points="311.5,-240 192.5,-240 192.5,-210 311.5,-210 311.5,-240"/>
<text text-anchor="start" x="200.5" y="-228" font-family="Helvetica,sans-Serif" font-size="10.00">QtScreenSearchBox::</text>
<text text-anchor="middle" x="252" y="-217" font-family="Helvetica,sans-Serif" font-size="10.00">returnPressed</text>
</a>
</g>
</g>
<!-- Node1&#45;&gt;Node19 -->
<g id="edge21" class="edge">
<title>Node1&#45;&gt;Node19</title>
<path fill="none" stroke="#63b8ff" d="M103.18,-178.34C119.36,-184.04 137.98,-190.46 155,-196 165.55,-199.44 176.81,-202.96 187.75,-206.31"/>
<polygon fill="#63b8ff" stroke="#63b8ff" points="186.53,-209.6 197.11,-209.16 188.56,-202.9 186.53,-209.6"/>
</g>
<!-- Node20 -->
<g id="node20" class="node">
<title>Node20</title>
<g id="a_node20"><a xlink:href="classQtScreenSearchBox.html#a99488183be10b5fcefebc98e27bc68bf" target="_top" xlink:title=" ">
<polygon fill="white" stroke="#666666" points="547,-84 426,-84 426,-54 547,-54 547,-84"/>
<text text-anchor="start" x="434" y="-72" font-family="Helvetica,sans-Serif" font-size="10.00">QtScreenSearchBox::</text>
<text text-anchor="middle" x="486.5" y="-61" font-family="Helvetica,sans-Serif" font-size="10.00">searchQueryChanged</text>
</a>
</g>
</g>
<!-- Node1&#45;&gt;Node20 -->
<g id="edge24" class="edge">
<title>Node1&#45;&gt;Node20</title>
<path fill="none" stroke="#63b8ff" d="M93.57,-147.67C111.43,-139.91 134.07,-130.91 155,-125 202.54,-111.58 332.37,-91.33 414.44,-79.21"/>
<polygon fill="#63b8ff" stroke="#63b8ff" points="414.81,-82.7 424.2,-77.78 413.79,-75.77 414.81,-82.7"/>
</g>
<!-- Node21 -->
<g id="node21" class="node">
<title>Node21</title>
<g id="a_node21"><a xlink:href="classQtScreenSearchBox.html#a5e61dbd33ed954c18ffce6ef4be24218" target="_top" xlink:title=" ">
<polygon fill="white" stroke="#666666" points="311.5,-78 192.5,-78 192.5,-48 311.5,-48 311.5,-78"/>
<text text-anchor="start" x="200.5" y="-66" font-family="Helvetica,sans-Serif" font-size="10.00">QtScreenSearchBox::</text>
<text text-anchor="middle" x="252" y="-55" font-family="Helvetica,sans-Serif" font-size="10.00">setFocus</text>
</a>
</g>
</g>
<!-- Node1&#45;&gt;Node21 -->
<g id="edge25" class="edge">
<title>Node1&#45;&gt;Node21</title>
<path fill="none" stroke="#63b8ff" d="M77.04,-147.68C95.01,-131.77 125.16,-107.11 155,-92 163.32,-87.79 172.35,-84.07 181.45,-80.82"/>
<polygon fill="#63b8ff" stroke="#63b8ff" points="182.32,-84.22 190.67,-77.71 180.08,-77.59 182.32,-84.22"/>
</g>
<!-- Node22 -->
<g id="node22" class="node">
<title>Node22</title>
<g id="a_node22"><a xlink:href="classQtScreenSearchBox.html#a1f5438810294bc41ad73a9f019c53ff2" target="_top" xlink:title=" ">
<polygon fill="white" stroke="#666666" points="311.5,-30 192.5,-30 192.5,0 311.5,0 311.5,-30"/>
<text text-anchor="start" x="200.5" y="-18" font-family="Helvetica,sans-Serif" font-size="10.00">QtScreenSearchBox::</text>
<text text-anchor="middle" x="252" y="-7" font-family="Helvetica,sans-Serif" font-size="10.00">setMatchCount</text>
</a>
</g>
</g>
<!-- Node1&#45;&gt;Node22 -->
<g id="edge27" class="edge">
<title>Node1&#45;&gt;Node22</title>
<path fill="none" stroke="#63b8ff" d="M67.75,-147.75C81.13,-121.31 112.27,-67.13 155,-39 162.94,-33.77 171.94,-29.68 181.16,-26.48"/>
<polygon fill="#63b8ff" stroke="#63b8ff" points="182.07,-29.86 190.59,-23.57 180,-23.18 182.07,-29.86"/>
</g>
<!-- Node3 -->
<g id="node3" class="node">
<title>Node3</title>
<g id="a_node3"><a xlink:href="classControllerProxy.html#a2c3812dac1134864c6fb4982323d6891" target="_top" xlink:title=" ">
<polygon fill="white" stroke="#666666" points="916,-299 779,-299 779,-269 916,-269 916,-299"/>
<text text-anchor="start" x="787" y="-287" font-family="Helvetica,sans-Serif" font-size="10.00">ControllerProxy::execute</text>
<text text-anchor="middle" x="847.5" y="-276" font-family="Helvetica,sans-Serif" font-size="10.00">AsTask</text>
</a>
</g>
</g>
<!-- Node2&#45;&gt;Node3 -->
<g id="edge2" class="edge">
<title>Node2&#45;&gt;Node3</title>
<path fill="none" stroke="#63b8ff" d="M743.44,-298C751.19,-296.94 759.23,-295.85 767.25,-294.76"/>
<polygon fill="#63b8ff" stroke="#63b8ff" points="767.59,-298.25 777.03,-293.43 766.65,-291.31 767.59,-298.25"/>
</g>
<!-- Node8 -->
<g id="node8" class="node">
<title>Node8</title>
<g id="a_node8"><a xlink:href="classScreenSearchController.html#a968660dbbbf708da6b223ad3e02f8acf" target="_top" xlink:title=" ">
<polygon fill="white" stroke="#666666" points="913,-347 782,-347 782,-317 913,-317 913,-347"/>
<text text-anchor="start" x="790" y="-335" font-family="Helvetica,sans-Serif" font-size="10.00">ScreenSearchController</text>
<text text-anchor="middle" x="847.5" y="-324" font-family="Helvetica,sans-Serif" font-size="10.00">::search</text>
</a>
</g>
</g>
<!-- Node2&#45;&gt;Node8 -->
<g id="edge7" class="edge">
<title>Node2&#45;&gt;Node8</title>
<path fill="none" stroke="#63b8ff" d="M743.44,-315.46C752.16,-316.86 761.24,-318.32 770.25,-319.76"/>
<polygon fill="#63b8ff" stroke="#63b8ff" points="769.65,-323.21 780.08,-321.34 770.76,-316.3 769.65,-323.21"/>
</g>
<!-- Node4 -->
<g id="node4" class="node">
<title>Node4</title>
<g id="a_node4"><a xlink:href="classTask.html#afbf3e5b7febfad5362973e6c605e0c91" target="_top" xlink:title=" ">
<polygon fill="white" stroke="#666666" points="1060.5,-264.5 974.5,-264.5 974.5,-245.5 1060.5,-245.5 1060.5,-264.5"/>
<text text-anchor="middle" x="1017.5" y="-252.5" font-family="Helvetica,sans-Serif" font-size="10.00">Task::dispatch</text>
</a>
</g>
</g>
<!-- Node3&#45;&gt;Node4 -->
<g id="edge3" class="edge">
<title>Node3&#45;&gt;Node4</title>
<path fill="none" stroke="#63b8ff" d="M916.35,-272.29C931.88,-269.61 948.17,-266.79 963,-264.24"/>
<polygon fill="#63b8ff" stroke="#63b8ff" points="963.27,-267.74 972.53,-262.59 962.08,-260.84 963.27,-267.74"/>
</g>
<!-- Node6 -->
<g id="node6" class="node">
<title>Node6</title>
<g id="a_node6"><a xlink:href="classView.html#aa4d988d307d70568545ad17f89dbe789" target="_top" xlink:title=" ">
<polygon fill="white" stroke="#666666" points="1072.5,-212.5 962.5,-212.5 962.5,-193.5 1072.5,-193.5 1072.5,-212.5"/>
<text text-anchor="middle" x="1017.5" y="-200.5" font-family="Helvetica,sans-Serif" font-size="10.00">View::getController</text>
</a>
</g>
</g>
<!-- Node3&#45;&gt;Node6 -->
<g id="edge5" class="edge">
<title>Node3&#45;&gt;Node6</title>
<path fill="none" stroke="#63b8ff" d="M896.27,-268.55C902.99,-265.93 909.74,-263.06 916,-260 933.05,-251.65 935.59,-246.55 952,-237 963.11,-230.54 975.56,-223.85 986.53,-218.14"/>
<polygon fill="#63b8ff" stroke="#63b8ff" points="987.88,-221.38 995.16,-213.69 984.67,-215.16 987.88,-221.38"/>
</g>
<!-- Node5 -->
<g id="node5" class="node">
<title>Node5</title>
<g id="a_node5"><a xlink:href="classTaskManager.html#abad32d382134af5d84739dd12a33beaf" target="_top" xlink:title=" ">
<polygon fill="white" stroke="#666666" points="1270,-264.5 1119,-264.5 1119,-245.5 1270,-245.5 1270,-264.5"/>
<text text-anchor="middle" x="1194.5" y="-252.5" font-family="Helvetica,sans-Serif" font-size="10.00">TaskManager::getScheduler</text>
</a>
</g>
</g>
<!-- Node4&#45;&gt;Node5 -->
<g id="edge4" class="edge">
<title>Node4&#45;&gt;Node5</title>
<path fill="none" stroke="#63b8ff" d="M1060.86,-255C1075,-255 1091.3,-255 1107.53,-255"/>
<polygon fill="#63b8ff" stroke="#63b8ff" points="1107.22,-258.5 1117.22,-255 1107.22,-251.5 1107.22,-258.5"/>
</g>
<!-- Node7 -->
<g id="node7" class="node">
<title>Node7</title>
<g id="a_node7"><a xlink:href="classComponent.html#a7312b206ac33721ebb1f1fdd364ed1f4" target="_top" xlink:title=" ">
<polygon fill="white" stroke="#666666" points="1266,-212.5 1123,-212.5 1123,-193.5 1266,-193.5 1266,-212.5"/>
<text text-anchor="middle" x="1194.5" y="-200.5" font-family="Helvetica,sans-Serif" font-size="10.00">Component::getController</text>
</a>
</g>
</g>
<!-- Node6&#45;&gt;Node7 -->
<g id="edge6" class="edge">
<title>Node6&#45;&gt;Node7</title>
<path fill="none" stroke="#63b8ff" d="M1072.91,-203C1085.1,-203 1098.28,-203 1111.31,-203"/>
<polygon fill="#63b8ff" stroke="#63b8ff" points="1111.18,-206.5 1121.18,-203 1111.18,-199.5 1111.18,-206.5"/>
</g>
<!-- Node9 -->
<g id="node9" class="node">
<title>Node9</title>
<g id="a_node9"><a xlink:href="classScreenSearchController.html#a19c4240dd4fd96d766e06aff0a3c6aec" target="_top" xlink:title=" ">
<polygon fill="white" stroke="#666666" points="1083,-347 952,-347 952,-317 1083,-317 1083,-347"/>
<text text-anchor="start" x="960" y="-335" font-family="Helvetica,sans-Serif" font-size="10.00">ScreenSearchController</text>
<text text-anchor="middle" x="1017.5" y="-324" font-family="Helvetica,sans-Serif" font-size="10.00">::clearMatches</text>
</a>
</g>
</g>
<!-- Node8&#45;&gt;Node9 -->
<g id="edge8" class="edge">
<title>Node8&#45;&gt;Node9</title>
<path fill="none" stroke="#63b8ff" d="M913.45,-332C922.28,-332 931.41,-332 940.41,-332"/>
<polygon fill="#63b8ff" stroke="#63b8ff" points="940.21,-335.5 950.21,-332 940.21,-328.5 940.21,-335.5"/>
</g>
<!-- Node11 -->
<g id="node11" class="node">
<title>Node11</title>
<g id="a_node11"><a xlink:href="classFilePath.html#a1f9e209dcb9a8d2b3d39ec6cfdd5c17f" target="_top" xlink:title=" ">
<polygon fill="white" stroke="#666666" points="547,-135.5 426,-135.5 426,-116.5 547,-116.5 547,-135.5"/>
<text text-anchor="middle" x="486.5" y="-123.5" font-family="Helvetica,sans-Serif" font-size="10.00">FilePath::concatenate</text>
</a>
</g>
</g>
<!-- Node10&#45;&gt;Node11 -->
<g id="edge10" class="edge">
<title>Node10&#45;&gt;Node11</title>
<path fill="none" stroke="#63b8ff" d="M349.24,-136.55C370.96,-134.87 393.64,-133.11 414.12,-131.53"/>
<polygon fill="#63b8ff" stroke="#63b8ff" points="414.37,-135.02 424.07,-130.76 413.83,-128.04 414.37,-135.02"/>
</g>
<!-- Node13 -->
<g id="node13" class="node">
<title>Node13</title>
<g id="a_node13"><a xlink:href="classAppPath.html#afb2974614a9eee22c6f8a75fada9ac23" target="_top" xlink:title=" ">
<polygon fill="white" stroke="#666666" points="588,-172.5 385,-172.5 385,-153.5 588,-153.5 588,-172.5"/>
<text text-anchor="middle" x="486.5" y="-160.5" font-family="Helvetica,sans-Serif" font-size="10.00">AppPath::getSharedDataDirectoryPath</text>
</a>
</g>
</g>
<!-- Node10&#45;&gt;Node13 -->
<g id="edge12" class="edge">
<title>Node10&#45;&gt;Node13</title>
<path fill="none" stroke="#63b8ff" d="M349.24,-151.87C357.23,-152.52 365.34,-153.18 373.42,-153.84"/>
<polygon fill="#63b8ff" stroke="#63b8ff" points="373.06,-157.32 383.31,-154.65 373.63,-150.35 373.06,-157.32"/>
</g>
<!-- Node12 -->
<g id="node12" class="node">
<title>Node12</title>
<g id="a_node12"><a xlink:href="classFilePath.html#a544387c4aea50aec855062fd02e436ae" target="_top" xlink:title=" ">
<polygon fill="white" stroke="#666666" points="732.5,-135.5 634.5,-135.5 634.5,-116.5 732.5,-116.5 732.5,-135.5"/>
<text text-anchor="middle" x="683.5" y="-123.5" font-family="Helvetica,sans-Serif" font-size="10.00">FilePath::getPath</text>
</a>
</g>
</g>
<!-- Node11&#45;&gt;Node12 -->
<g id="edge11" class="edge">
<title>Node11&#45;&gt;Node12</title>
<path fill="none" stroke="#63b8ff" d="M547.33,-126C571.29,-126 598.83,-126 622.78,-126"/>
<polygon fill="#63b8ff" stroke="#63b8ff" points="622.7,-129.5 632.7,-126 622.7,-122.5 622.7,-129.5"/>
</g>
<!-- Node15 -->
<g id="node15" class="node">
<title>Node15</title>
<g id="a_node15"><a xlink:href="classQtScreenSearchBox.html#a43f4558da3a7a8c9f28ea4b7cafa94b3" target="_top" xlink:title=" ">
<polygon fill="white" stroke="#666666" points="743,-239 624,-239 624,-209 743,-209 743,-239"/>
<text text-anchor="start" x="632" y="-227" font-family="Helvetica,sans-Serif" font-size="10.00">QtScreenSearchBox::</text>
<text text-anchor="middle" x="683.5" y="-216" font-family="Helvetica,sans-Serif" font-size="10.00">activateMatch</text>
</a>
</g>
</g>
<!-- Node14&#45;&gt;Node15 -->
<g id="edge14" class="edge">
<title>Node14&#45;&gt;Node15</title>
<path fill="none" stroke="#63b8ff" d="M546.27,-216.32C566.99,-217.48 590.5,-218.81 612.09,-220.03"/>
<polygon fill="#63b8ff" stroke="#63b8ff" points="611.82,-223.52 622,-220.59 612.21,-216.53 611.82,-223.52"/>
</g>
<!-- Node16 -->
<g id="node16" class="node">
<title>Node16</title>
<g id="a_node16"><a xlink:href="classScreenSearchController.html#ab281e6cc68fcb2e1381c4cfad62a836d" target="_top" xlink:title=" ">
<polygon fill="white" stroke="#666666" points="913,-251 782,-251 782,-221 913,-221 913,-251"/>
<text text-anchor="start" x="790" y="-239" font-family="Helvetica,sans-Serif" font-size="10.00">ScreenSearchController</text>
<text text-anchor="middle" x="847.5" y="-228" font-family="Helvetica,sans-Serif" font-size="10.00">::activateMatch</text>
</a>
</g>
</g>
<!-- Node15&#45;&gt;Node16 -->
<g id="edge15" class="edge">
<title>Node15&#45;&gt;Node16</title>
<path fill="none" stroke="#63b8ff" d="M743.44,-228.37C752.16,-229.01 761.24,-229.68 770.25,-230.35"/>
<polygon fill="#63b8ff" stroke="#63b8ff" points="769.84,-233.83 780.07,-231.08 770.35,-226.85 769.84,-233.83"/>
</g>
<!-- Node17 -->
<g id="node17" class="node">
<title>Node17</title>
<g id="a_node17"><a xlink:href="classControllerProxy.html#aff70b62084483194c2c94e861d064cfb" target="_top" xlink:title=" ">
<polygon fill="white" stroke="#666666" points="916,-203 779,-203 779,-173 916,-173 916,-203"/>
<text text-anchor="start" x="787" y="-191" font-family="Helvetica,sans-Serif" font-size="10.00">ControllerProxy::execute</text>
<text text-anchor="middle" x="847.5" y="-180" font-family="Helvetica,sans-Serif" font-size="10.00">AsTaskWithArgs</text>
</a>
</g>
</g>
<!-- Node15&#45;&gt;Node17 -->
<g id="edge16" class="edge">
<title>Node15&#45;&gt;Node17</title>
<path fill="none" stroke="#63b8ff" d="M743.44,-210.9C751.28,-209.16 759.42,-207.35 767.52,-205.55"/>
<polygon fill="#63b8ff" stroke="#63b8ff" points="768.05,-209.02 777.06,-203.43 766.53,-202.18 768.05,-209.02"/>
</g>
<!-- Node17&#45;&gt;Node4 -->
<g id="edge17" class="edge">
<title>Node17&#45;&gt;Node4</title>
<path fill="none" stroke="#63b8ff" d="M893.31,-203.49C900.91,-206.24 908.7,-209.14 916,-212 938.86,-220.94 964.27,-231.83 983.82,-240.4"/>
<polygon fill="#63b8ff" stroke="#63b8ff" points="982.37,-243.59 992.93,-244.42 985.19,-237.18 982.37,-243.59"/>
</g>
<!-- Node17&#45;&gt;Node6 -->
<g id="edge18" class="edge">
<title>Node17&#45;&gt;Node6</title>
<path fill="none" stroke="#63b8ff" d="M916.35,-194.06C927.75,-195.08 939.57,-196.13 950.92,-197.14"/>
<polygon fill="#63b8ff" stroke="#63b8ff" points="950.3,-200.6 960.57,-198.01 950.92,-193.63 950.3,-200.6"/>
</g>
<!-- Node18&#45;&gt;Node15 -->
<g id="edge20" class="edge">
<title>Node18&#45;&gt;Node15</title>
<path fill="none" stroke="#63b8ff" d="M546.27,-249.85C567.09,-245.9 590.72,-241.41 612.39,-237.3"/>
<polygon fill="#63b8ff" stroke="#63b8ff" points="612.85,-240.78 622.03,-235.47 611.55,-233.9 612.85,-240.78"/>
</g>
<!-- Node19&#45;&gt;Node14 -->
<g id="edge22" class="edge">
<title>Node19&#45;&gt;Node14</title>
<path fill="none" stroke="#63b8ff" d="M311.97,-221.96C343.38,-220.34 382.23,-218.33 415.2,-216.63"/>
<polygon fill="#63b8ff" stroke="#63b8ff" points="415.27,-220.13 425.08,-216.12 414.91,-213.14 415.27,-220.13"/>
</g>
<!-- Node19&#45;&gt;Node18 -->
<g id="edge23" class="edge">
<title>Node19&#45;&gt;Node18</title>
<path fill="none" stroke="#63b8ff" d="M311.97,-234.13C343.52,-239.02 382.57,-245.06 415.63,-250.18"/>
<polygon fill="#63b8ff" stroke="#63b8ff" points="414.68,-253.58 425.1,-251.65 415.75,-246.66 414.68,-253.58"/>
</g>
<!-- Node21&#45;&gt;Node20 -->
<g id="edge26" class="edge">
<title>Node21&#45;&gt;Node20</title>
<path fill="none" stroke="#63b8ff" d="M311.97,-64.52C343.14,-65.33 381.63,-66.32 414.44,-67.17"/>
<polygon fill="#63b8ff" stroke="#63b8ff" points="414.18,-70.66 424.27,-67.42 414.36,-63.66 414.18,-70.66"/>
</g>
<!-- Node23 -->
<g id="node23" class="node">
<title>Node23</title>
<g id="a_node23"><a xlink:href="classQtScreenSearchBox.html#a421d060aca4a4a78a832022f59f48fee" target="_top" xlink:title=" ">
<polygon fill="white" stroke="#666666" points="546,-30 427,-30 427,0 546,0 546,-30"/>
<text text-anchor="start" x="435" y="-18" font-family="Helvetica,sans-Serif" font-size="10.00">QtScreenSearchBox::</text>
<text text-anchor="middle" x="486.5" y="-7" font-family="Helvetica,sans-Serif" font-size="10.00">updateMatchLabel</text>
</a>
</g>
</g>
<!-- Node22&#45;&gt;Node23 -->
<g id="edge28" class="edge">
<title>Node22&#45;&gt;Node23</title>
<path fill="none" stroke="#63b8ff" d="M311.97,-15C343.38,-15 382.23,-15 415.2,-15"/>
<polygon fill="#63b8ff" stroke="#63b8ff" points="415.08,-18.5 425.08,-15 415.08,-11.5 415.08,-18.5"/>
</g>
</g>
</svg>
