<?xml version="1.0" encoding="UTF-8" standalone="no"?>
<!DOCTYPE svg PUBLIC "-//W3C//DTD SVG 1.1//EN"
 "http://www.w3.org/Graphics/SVG/1.1/DTD/svg11.dtd">
<!-- Generated by graphviz version 7.1.0 (0)
 -->
<!-- Title: IndexerCommandCustom::replaceVariables Pages: 1 -->
<svg width="343pt" height="113pt"
 viewBox="0.00 0.00 343.00 112.50" xmlns="http://www.w3.org/2000/svg" xmlns:xlink="http://www.w3.org/1999/xlink">
<g id="graph0" class="graph" transform="scale(1 1) rotate(0) translate(4 108.5)">
<title>IndexerCommandCustom::replaceVariables</title>
<!-- Node1 -->
<g id="node1" class="node">
<title>Node1</title>
<g id="a_node1"><a xlink:title=" ">
<polygon fill="#999999" stroke="#666666" points="141,-61.5 0,-61.5 0,-31.5 141,-31.5 141,-61.5"/>
<text text-anchor="start" x="8" y="-49.5" font-family="Helvetica,sans-Serif" font-size="10.00">IndexerCommandCustom</text>
<text text-anchor="middle" x="70.5" y="-38.5" font-family="Helvetica,sans-Serif" font-size="10.00">::replaceVariables</text>
</a>
</g>
</g>
<!-- Node2 -->
<g id="node2" class="node">
<title>Node2</title>
<g id="a_node2"><a xlink:href="classIndexerCommand.html#a4c40244329ccf4b7c9f819979c477a6a" target="_top" xlink:title=" ">
<polygon fill="white" stroke="#666666" points="335,-104.5 177,-104.5 177,-74.5 335,-74.5 335,-104.5"/>
<text text-anchor="start" x="185" y="-92.5" font-family="Helvetica,sans-Serif" font-size="10.00">IndexerCommand::getSource</text>
<text text-anchor="middle" x="256" y="-81.5" font-family="Helvetica,sans-Serif" font-size="10.00">FilePath</text>
</a>
</g>
</g>
<!-- Node1&#45;&gt;Node2 -->
<g id="edge1" class="edge">
<title>Node1&#45;&gt;Node2</title>
<path fill="none" stroke="#63b8ff" d="M137.49,-61.96C150.57,-65.03 164.42,-68.27 177.84,-71.42"/>
<polygon fill="#63b8ff" stroke="#63b8ff" points="176.97,-74.81 187.51,-73.68 178.57,-67.99 176.97,-74.81"/>
</g>
<!-- Node3 -->
<g id="node3" class="node">
<title>Node3</title>
<g id="a_node3"><a xlink:href="namespaceutility.html#a239deb522abcf6865fc4409d6fff2914" target="_top" xlink:title=" ">
<polygon fill="white" stroke="#666666" points="299,-56 213,-56 213,-37 299,-37 299,-56"/>
<text text-anchor="middle" x="256" y="-44" font-family="Helvetica,sans-Serif" font-size="10.00">utility::replace</text>
</a>
</g>
</g>
<!-- Node1&#45;&gt;Node3 -->
<g id="edge2" class="edge">
<title>Node1&#45;&gt;Node3</title>
<path fill="none" stroke="#63b8ff" d="M141.4,-46.5C161.28,-46.5 182.61,-46.5 201.36,-46.5"/>
<polygon fill="#63b8ff" stroke="#63b8ff" points="201.15,-50 211.15,-46.5 201.15,-43 201.15,-50"/>
</g>
<!-- Node4 -->
<g id="node4" class="node">
<title>Node4</title>
<g id="a_node4"><a xlink:href="classFilePath.html#a989e098726c8387d4f4690bca3314ce8" target="_top" xlink:title=" ">
<polygon fill="white" stroke="#666666" points="297,-19 215,-19 215,0 297,0 297,-19"/>
<text text-anchor="middle" x="256" y="-7" font-family="Helvetica,sans-Serif" font-size="10.00">FilePath::wstr</text>
</a>
</g>
</g>
<!-- Node1&#45;&gt;Node4 -->
<g id="edge3" class="edge">
<title>Node1&#45;&gt;Node4</title>
<path fill="none" stroke="#63b8ff" d="M141.4,-32.41C161.96,-28.26 184.08,-23.8 203.28,-19.93"/>
<polygon fill="#63b8ff" stroke="#63b8ff" points="203.93,-23.37 213.04,-17.96 202.54,-16.51 203.93,-23.37"/>
</g>
</g>
</svg>
