<?xml version="1.0" encoding="UTF-8" standalone="no"?>
<!DOCTYPE svg PUBLIC "-//W3C//DTD SVG 1.1//EN"
 "http://www.w3.org/Graphics/SVG/1.1/DTD/svg11.dtd">
<!-- Generated by graphviz version 7.1.0 (0)
 -->
<!-- Title: SqliteStorage::getMetaValue Pages: 1 -->
<svg width="1205pt" height="255pt"
 viewBox="0.00 0.00 1205.00 255.00" xmlns="http://www.w3.org/2000/svg" xmlns:xlink="http://www.w3.org/1999/xlink">
<g id="graph0" class="graph" transform="scale(1 1) rotate(0) translate(4 251)">
<title>SqliteStorage::getMetaValue</title>
<!-- Node1 -->
<g id="node1" class="node">
<title>Node1</title>
<g id="a_node1"><a xlink:title=" ">
<polygon fill="#999999" stroke="#666666" points="1197,-193.5 1041,-193.5 1041,-174.5 1197,-174.5 1197,-193.5"/>
<text text-anchor="middle" x="1119" y="-181.5" font-family="Helvetica,sans-Serif" font-size="10.00">SqliteStorage::getMetaValue</text>
</a>
</g>
</g>
<!-- Node2 -->
<g id="node2" class="node">
<title>Node2</title>
<g id="a_node2"><a xlink:href="classSqliteIndexStorage.html#a48f43abdbfcca0ac19c58468dd6d5ae2" target="_top" xlink:title=" ">
<polygon fill="white" stroke="#666666" points="1001,-244 869,-244 869,-214 1001,-214 1001,-244"/>
<text text-anchor="start" x="877" y="-232" font-family="Helvetica,sans-Serif" font-size="10.00">SqliteIndexStorage</text>
<text text-anchor="middle" x="935" y="-221" font-family="Helvetica,sans-Serif" font-size="10.00">::getProjectSettingsText</text>
</a>
</g>
</g>
<!-- Node1&#45;&gt;Node2 -->
<g id="edge1" class="edge">
<title>Node1&#45;&gt;Node2</title>
<path fill="none" stroke="#63b8ff" d="M1066.57,-196.72C1045.39,-201.95 1020.66,-208.07 998.45,-213.56"/>
<polygon fill="#63b8ff" stroke="#63b8ff" points="1067.27,-200.15 1076.14,-194.35 1065.59,-193.35 1067.27,-200.15"/>
</g>
<!-- Node4 -->
<g id="node4" class="node">
<title>Node4</title>
<g id="a_node4"><a xlink:href="classSqliteStorage.html#a2cae6736778db6f61b765a2f5e37a684" target="_top" xlink:title=" ">
<polygon fill="white" stroke="#666666" points="999,-193.5 871,-193.5 871,-174.5 999,-174.5 999,-193.5"/>
<text text-anchor="middle" x="935" y="-181.5" font-family="Helvetica,sans-Serif" font-size="10.00">SqliteStorage::getTime</text>
</a>
</g>
</g>
<!-- Node1&#45;&gt;Node4 -->
<g id="edge3" class="edge">
<title>Node1&#45;&gt;Node4</title>
<path fill="none" stroke="#63b8ff" d="M1029.21,-184C1019.13,-184 1009.02,-184 999.36,-184"/>
<polygon fill="#63b8ff" stroke="#63b8ff" points="1029.04,-187.5 1039.04,-184 1029.04,-180.5 1029.04,-187.5"/>
</g>
<!-- Node6 -->
<g id="node6" class="node">
<title>Node6</title>
<g id="a_node6"><a xlink:href="classSqliteStorage.html#aab4c9d524cde137023da3a1129c94dde" target="_top" xlink:title=" ">
<polygon fill="white" stroke="#666666" points="1005,-150.5 865,-150.5 865,-131.5 1005,-131.5 1005,-150.5"/>
<text text-anchor="middle" x="935" y="-138.5" font-family="Helvetica,sans-Serif" font-size="10.00">SqliteStorage::getVersion</text>
</a>
</g>
</g>
<!-- Node1&#45;&gt;Node6 -->
<g id="edge5" class="edge">
<title>Node1&#45;&gt;Node6</title>
<path fill="none" stroke="#63b8ff" d="M1064.76,-171.42C1037.22,-164.91 1004.06,-157.08 978.3,-150.99"/>
<polygon fill="#63b8ff" stroke="#63b8ff" points="1063.78,-174.79 1074.32,-173.68 1065.39,-167.97 1063.78,-174.79"/>
</g>
<!-- Node3 -->
<g id="node3" class="node">
<title>Node3</title>
<g id="a_node3"><a xlink:href="classPersistentStorage.html#a39f9f1cf1dd2960348f4489ef039d087" target="_top" xlink:title=" ">
<polygon fill="white" stroke="#666666" points="828,-247 702,-247 702,-217 828,-217 828,-247"/>
<text text-anchor="start" x="710" y="-235" font-family="Helvetica,sans-Serif" font-size="10.00">PersistentStorage::</text>
<text text-anchor="middle" x="765" y="-224" font-family="Helvetica,sans-Serif" font-size="10.00">getProjectSettingsText</text>
</a>
</g>
</g>
<!-- Node2&#45;&gt;Node3 -->
<g id="edge2" class="edge">
<title>Node2&#45;&gt;Node3</title>
<path fill="none" stroke="#63b8ff" d="M857.25,-230.37C847.53,-230.54 837.68,-230.72 828.23,-230.89"/>
<polygon fill="#63b8ff" stroke="#63b8ff" points="857.12,-233.87 867.05,-230.2 856.99,-226.87 857.12,-233.87"/>
</g>
<!-- Node5 -->
<g id="node5" class="node">
<title>Node5</title>
<g id="a_node5"><a xlink:href="classPersistentStorage.html#a4aefbc764daffda522d8f413ea352057" target="_top" xlink:title=" ">
<polygon fill="white" stroke="#666666" points="819.5,-199 710.5,-199 710.5,-169 819.5,-169 819.5,-199"/>
<text text-anchor="start" x="718.5" y="-187" font-family="Helvetica,sans-Serif" font-size="10.00">PersistentStorage::</text>
<text text-anchor="middle" x="765" y="-176" font-family="Helvetica,sans-Serif" font-size="10.00">getStorageStats</text>
</a>
</g>
</g>
<!-- Node4&#45;&gt;Node5 -->
<g id="edge4" class="edge">
<title>Node4&#45;&gt;Node5</title>
<path fill="none" stroke="#63b8ff" d="M859.76,-184C846.3,-184 832.49,-184 819.76,-184"/>
<polygon fill="#63b8ff" stroke="#63b8ff" points="859.45,-187.5 869.45,-184 859.45,-180.5 859.45,-187.5"/>
</g>
<!-- Node7 -->
<g id="node7" class="node">
<title>Node7</title>
<g id="a_node7"><a xlink:href="classSqliteStorage.html#a1f5696fc4597e5e020480a0f33369caa" target="_top" xlink:title=" ">
<polygon fill="white" stroke="#666666" points="829,-110.5 701,-110.5 701,-91.5 829,-91.5 829,-110.5"/>
<text text-anchor="middle" x="765" y="-98.5" font-family="Helvetica,sans-Serif" font-size="10.00">SqliteStorage::isEmpty</text>
</a>
</g>
</g>
<!-- Node6&#45;&gt;Node7 -->
<g id="edge6" class="edge">
<title>Node6&#45;&gt;Node7</title>
<path fill="none" stroke="#63b8ff" d="M881.11,-128.41C857.43,-122.77 829.91,-116.22 807.72,-110.93"/>
<polygon fill="#63b8ff" stroke="#63b8ff" points="880.03,-131.75 890.57,-130.66 881.65,-124.94 880.03,-131.75"/>
</g>
<!-- Node9 -->
<g id="node9" class="node">
<title>Node9</title>
<g id="a_node9"><a xlink:href="classSqliteStorage.html#a876f4f796e70c151fa5994020ed35c7d" target="_top" xlink:title=" ">
<polygon fill="white" stroke="#666666" points="665,-153.5 505,-153.5 505,-134.5 665,-134.5 665,-153.5"/>
<text text-anchor="middle" x="585" y="-141.5" font-family="Helvetica,sans-Serif" font-size="10.00">SqliteStorage::isIncompatible</text>
</a>
</g>
</g>
<!-- Node6&#45;&gt;Node9 -->
<g id="edge17" class="edge">
<title>Node6&#45;&gt;Node9</title>
<path fill="none" stroke="#63b8ff" d="M853.42,-141.69C796.89,-142.18 721.65,-142.83 665.38,-143.32"/>
<polygon fill="#63b8ff" stroke="#63b8ff" points="853.35,-145.2 863.32,-141.61 853.29,-138.2 853.35,-145.2"/>
</g>
<!-- Node8 -->
<g id="node8" class="node">
<title>Node8</title>
<g id="a_node8"><a xlink:href="classPersistentStorage.html#ac2b48cdbef840cf9fda035a00cce1b75" target="_top" xlink:title=" ">
<polygon fill="white" stroke="#666666" points="639.5,-116 530.5,-116 530.5,-86 639.5,-86 639.5,-116"/>
<text text-anchor="start" x="538.5" y="-104" font-family="Helvetica,sans-Serif" font-size="10.00">PersistentStorage::</text>
<text text-anchor="middle" x="585" y="-93" font-family="Helvetica,sans-Serif" font-size="10.00">isEmpty</text>
</a>
</g>
</g>
<!-- Node7&#45;&gt;Node8 -->
<g id="edge7" class="edge">
<title>Node7&#45;&gt;Node8</title>
<path fill="none" stroke="#63b8ff" d="M689.39,-101C672.79,-101 655.5,-101 639.92,-101"/>
<polygon fill="#63b8ff" stroke="#63b8ff" points="689.23,-104.5 699.23,-101 689.23,-97.5 689.23,-104.5"/>
</g>
<!-- Node7&#45;&gt;Node9 -->
<g id="edge8" class="edge">
<title>Node7&#45;&gt;Node9</title>
<path fill="none" stroke="#63b8ff" d="M712.27,-113.56C697.05,-117.25 680.36,-121.29 665,-125 652.8,-127.95 639.53,-131.14 627.41,-134.05"/>
<polygon fill="#63b8ff" stroke="#63b8ff" points="712.7,-117.06 721.59,-111.3 711.05,-110.25 712.7,-117.06"/>
</g>
<!-- Node11 -->
<g id="node11" class="node">
<title>Node11</title>
<g id="a_node11"><a xlink:href="classSqliteStorage.html#a57fb337324f9dc5eb2ac7228d17d268f" target="_top" xlink:title=" ">
<polygon fill="white" stroke="#666666" points="469,-89.5 354,-89.5 354,-70.5 469,-70.5 469,-89.5"/>
<text text-anchor="middle" x="411.5" y="-77.5" font-family="Helvetica,sans-Serif" font-size="10.00">SqliteStorage::setup</text>
</a>
</g>
</g>
<!-- Node7&#45;&gt;Node11 -->
<g id="edge15" class="edge">
<title>Node7&#45;&gt;Node11</title>
<path fill="none" stroke="#63b8ff" d="M720.55,-88.1C703.41,-83.64 683.44,-79.2 665,-77 598.18,-69.02 520.71,-71.69 469.39,-75.1"/>
<polygon fill="#63b8ff" stroke="#63b8ff" points="719.33,-91.4 729.9,-90.62 721.15,-84.64 719.33,-91.4"/>
</g>
<!-- Node16 -->
<g id="node16" class="node">
<title>Node16</title>
<g id="a_node16"><a xlink:href="classPersistentStorage.html#aa268d08ed4d81c748dcb255e279db13b" target="_top" xlink:title=" ">
<polygon fill="white" stroke="#666666" points="639.5,-30 530.5,-30 530.5,0 639.5,0 639.5,-30"/>
<text text-anchor="start" x="538.5" y="-18" font-family="Helvetica,sans-Serif" font-size="10.00">PersistentStorage::</text>
<text text-anchor="middle" x="585" y="-7" font-family="Helvetica,sans-Serif" font-size="10.00">updateVersion</text>
</a>
</g>
</g>
<!-- Node7&#45;&gt;Node16 -->
<g id="edge16" class="edge">
<title>Node7&#45;&gt;Node16</title>
<path fill="none" stroke="#63b8ff" d="M738.98,-85C719.33,-72.83 691.04,-56.17 665,-44 654.54,-39.11 643.02,-34.48 632.08,-30.41"/>
<polygon fill="#63b8ff" stroke="#63b8ff" points="737.05,-87.92 747.38,-90.27 740.77,-81.99 737.05,-87.92"/>
</g>
<!-- Node10 -->
<g id="node10" class="node">
<title>Node10</title>
<g id="a_node10"><a xlink:href="classPersistentStorage.html#a5fb6c0a56bc66dc2d6611898da541e0e" target="_top" xlink:title=" ">
<polygon fill="white" stroke="#666666" points="466,-159 357,-159 357,-129 466,-129 466,-159"/>
<text text-anchor="start" x="365" y="-147" font-family="Helvetica,sans-Serif" font-size="10.00">PersistentStorage::</text>
<text text-anchor="middle" x="411.5" y="-136" font-family="Helvetica,sans-Serif" font-size="10.00">isIncompatible</text>
</a>
</g>
</g>
<!-- Node9&#45;&gt;Node10 -->
<g id="edge9" class="edge">
<title>Node9&#45;&gt;Node10</title>
<path fill="none" stroke="#63b8ff" d="M493.26,-144C484.03,-144 474.88,-144 466.24,-144"/>
<polygon fill="#63b8ff" stroke="#63b8ff" points="493.01,-147.5 503.01,-144 493.01,-140.5 493.01,-147.5"/>
</g>
<!-- Node9&#45;&gt;Node11 -->
<g id="edge10" class="edge">
<title>Node9&#45;&gt;Node11</title>
<path fill="none" stroke="#63b8ff" d="M524.39,-131.13C517.79,-129.27 511.21,-127.23 505,-125 477.94,-115.29 448.33,-100 430.08,-89.98"/>
<polygon fill="#63b8ff" stroke="#63b8ff" points="523.44,-134.5 534,-133.69 525.24,-127.74 523.44,-134.5"/>
</g>
<!-- Node12 -->
<g id="node12" class="node">
<title>Node12</title>
<g id="a_node12"><a xlink:href="classSqliteStorage.html#a563c05ddc1d28664a0f070ff8cd61377" target="_top" xlink:title=" ">
<polygon fill="white" stroke="#666666" points="318,-112.5 206,-112.5 206,-93.5 318,-93.5 318,-112.5"/>
<text text-anchor="middle" x="262" y="-100.5" font-family="Helvetica,sans-Serif" font-size="10.00">SqliteStorage::clear</text>
</a>
</g>
</g>
<!-- Node11&#45;&gt;Node12 -->
<g id="edge11" class="edge">
<title>Node11&#45;&gt;Node12</title>
<path fill="none" stroke="#63b8ff" d="M342.79,-90.56C334.57,-91.84 326.25,-93.14 318.24,-94.39"/>
<polygon fill="#63b8ff" stroke="#63b8ff" points="343.06,-94.06 352.4,-89.06 341.98,-87.14 343.06,-94.06"/>
</g>
<!-- Node14 -->
<g id="node14" class="node">
<title>Node14</title>
<g id="a_node14"><a xlink:href="classPersistentStorage.html#abc1fd27ad170e28d1d8c750c4f7b6503" target="_top" xlink:title=" ">
<polygon fill="white" stroke="#666666" points="316.5,-74 207.5,-74 207.5,-44 316.5,-44 316.5,-74"/>
<text text-anchor="start" x="215.5" y="-62" font-family="Helvetica,sans-Serif" font-size="10.00">PersistentStorage::</text>
<text text-anchor="middle" x="262" y="-51" font-family="Helvetica,sans-Serif" font-size="10.00">setup</text>
</a>
</g>
</g>
<!-- Node11&#45;&gt;Node14 -->
<g id="edge13" class="edge">
<title>Node11&#45;&gt;Node14</title>
<path fill="none" stroke="#63b8ff" d="M342.61,-70.33C333.95,-69.1 325.18,-67.85 316.79,-66.66"/>
<polygon fill="#63b8ff" stroke="#63b8ff" points="342,-73.78 352.4,-71.73 342.99,-66.85 342,-73.78"/>
</g>
<!-- Node13 -->
<g id="node13" class="node">
<title>Node13</title>
<g id="a_node13"><a xlink:href="classPersistentStorage.html#a5b3eea5249e7355dbeedec39ede2ca55" target="_top" xlink:title=" ">
<polygon fill="white" stroke="#666666" points="139.5,-120 30.5,-120 30.5,-90 139.5,-90 139.5,-120"/>
<text text-anchor="start" x="38.5" y="-108" font-family="Helvetica,sans-Serif" font-size="10.00">PersistentStorage::</text>
<text text-anchor="middle" x="85" y="-97" font-family="Helvetica,sans-Serif" font-size="10.00">clear</text>
</a>
</g>
</g>
<!-- Node12&#45;&gt;Node13 -->
<g id="edge12" class="edge">
<title>Node12&#45;&gt;Node13</title>
<path fill="none" stroke="#63b8ff" d="M194.31,-103.76C176.29,-103.97 157.03,-104.19 139.81,-104.38"/>
<polygon fill="#63b8ff" stroke="#63b8ff" points="194.16,-107.26 204.12,-103.65 194.08,-100.26 194.16,-107.26"/>
</g>
<!-- Node15 -->
<g id="node15" class="node">
<title>Node15</title>
<g id="a_node15"><a xlink:href="classTaskExecuteCustomCommands.html#af4a74f479f27dcd0117a6f8750eba3ea" target="_top" xlink:title=" ">
<polygon fill="white" stroke="#666666" points="170,-72 0,-72 0,-42 170,-42 170,-72"/>
<text text-anchor="start" x="8" y="-60" font-family="Helvetica,sans-Serif" font-size="10.00">TaskExecuteCustomCommands</text>
<text text-anchor="middle" x="85" y="-49" font-family="Helvetica,sans-Serif" font-size="10.00">::doUpdate</text>
</a>
</g>
</g>
<!-- Node14&#45;&gt;Node15 -->
<g id="edge14" class="edge">
<title>Node14&#45;&gt;Node15</title>
<path fill="none" stroke="#63b8ff" d="M195.62,-58.25C187.36,-58.16 178.83,-58.06 170.33,-57.96"/>
<polygon fill="#63b8ff" stroke="#63b8ff" points="195.51,-61.75 205.55,-58.37 195.59,-54.75 195.51,-61.75"/>
</g>
</g>
</svg>
