<?xml version="1.0" encoding="UTF-8" standalone="no"?>
<!DOCTYPE svg PUBLIC "-//W3C//DTD SVG 1.1//EN"
 "http://www.w3.org/Graphics/SVG/1.1/DTD/svg11.dtd">
<!-- Generated by graphviz version 7.1.0 (0)
 -->
<!-- Title: GraphController::layoutTrail Pages: 1 -->
<svg width="584pt" height="76pt"
 viewBox="0.00 0.00 584.00 75.50" xmlns="http://www.w3.org/2000/svg" xmlns:xlink="http://www.w3.org/1999/xlink">
<g id="graph0" class="graph" transform="scale(1 1) rotate(0) translate(4 71.5)">
<title>GraphController::layoutTrail</title>
<!-- Node1 -->
<g id="node1" class="node">
<title>Node1</title>
<g id="a_node1"><a xlink:title=" ">
<polygon fill="#999999" stroke="#666666" points="576,-45.5 424,-45.5 424,-26.5 576,-26.5 576,-45.5"/>
<text text-anchor="middle" x="500" y="-33.5" font-family="Helvetica,sans-Serif" font-size="10.00">GraphController::layoutTrail</text>
</a>
</g>
</g>
<!-- Node2 -->
<g id="node2" class="node">
<title>Node2</title>
<g id="a_node2"><a xlink:href="classGraphController.html#adcf865b84ce0a6e46ab05f50e3fb0925" target="_top" xlink:title=" ">
<polygon fill="white" stroke="#666666" points="388,-67.5 212,-67.5 212,-48.5 388,-48.5 388,-67.5"/>
<text text-anchor="middle" x="300" y="-55.5" font-family="Helvetica,sans-Serif" font-size="10.00">GraphController::handleMessage</text>
</a>
</g>
</g>
<!-- Node1&#45;&gt;Node2 -->
<g id="edge1" class="edge">
<title>Node1&#45;&gt;Node2</title>
<path fill="none" stroke="#63b8ff" d="M412.16,-45.65C404.3,-46.52 396.34,-47.41 388.47,-48.28"/>
<polygon fill="#63b8ff" stroke="#63b8ff" points="412.52,-49.13 422.08,-44.55 411.75,-42.17 412.52,-49.13"/>
</g>
<!-- Node3 -->
<g id="node3" class="node">
<title>Node3</title>
<g id="a_node3"><a xlink:href="classGraphController.html#aa15472df149e558607ad5f72d47ac26d" target="_top" xlink:title=" ">
<polygon fill="white" stroke="#666666" points="370,-30 230,-30 230,0 370,0 370,-30"/>
<text text-anchor="start" x="238" y="-18" font-family="Helvetica,sans-Serif" font-size="10.00">GraphController::relayout</text>
<text text-anchor="middle" x="300" y="-7" font-family="Helvetica,sans-Serif" font-size="10.00">Graph</text>
</a>
</g>
</g>
<!-- Node1&#45;&gt;Node3 -->
<g id="edge2" class="edge">
<title>Node1&#45;&gt;Node3</title>
<path fill="none" stroke="#63b8ff" d="M412.4,-26.81C398.34,-25.32 383.94,-23.8 370.36,-22.36"/>
<polygon fill="#63b8ff" stroke="#63b8ff" points="411.76,-30.27 422.07,-27.84 412.5,-23.31 411.76,-30.27"/>
</g>
<!-- Node4 -->
<g id="node4" class="node">
<title>Node4</title>
<g id="a_node4"><a xlink:href="classGraphController.html#ae0ab00507f80232071a9a4ef70f41b9a" target="_top" xlink:title=" ">
<polygon fill="white" stroke="#666666" points="176,-24.5 0,-24.5 0,-5.5 176,-5.5 176,-24.5"/>
<text text-anchor="middle" x="88" y="-12.5" font-family="Helvetica,sans-Serif" font-size="10.00">GraphController::handleMessage</text>
</a>
</g>
</g>
<!-- Node3&#45;&gt;Node4 -->
<g id="edge3" class="edge">
<title>Node3&#45;&gt;Node4</title>
<path fill="none" stroke="#63b8ff" d="M218.26,-15C204.51,-15 190.16,-15 176.25,-15"/>
<polygon fill="#63b8ff" stroke="#63b8ff" points="218.14,-18.5 228.14,-15 218.14,-11.5 218.14,-18.5"/>
</g>
</g>
</svg>
