<?xml version="1.0" encoding="UTF-8" standalone="no"?>
<!DOCTYPE svg PUBLIC "-//W3C//DTD SVG 1.1//EN"
 "http://www.w3.org/Graphics/SVG/1.1/DTD/svg11.dtd">
<!-- Generated by graphviz version 9.0.0 (0)
 -->
<!-- Title: QtProjectWizardContent::refresh Pages: 1 -->
<!--zoomable 172 -->

<svg id="main" version="1.1" xmlns="http://www.w3.org/2000/svg" xmlns:xlink="http://www.w3.org/1999/xlink" xml:space="preserve" onload="init(evt)">
<style type="text/css"><![CDATA[
.node, .edge {opacity: 0.7;}
.node.selected, .edge.selected {opacity: 1;}
.edge:hover path { stroke: red; }
.edge:hover polygon { stroke: red; fill: red; }
]]></style>

<defs>
  <circle id="rim" cx="0" cy="0" r="7"/>
  <circle id="rim2" cx="0" cy="0" r="3.5"/>
  <g id="zoomPlus">
    <use xlink:href="#rim" fill="#404040"><set attributeName="fill" to="#808080" begin="zoomplus.mouseover" end="zoomplus.mouseout"/></use>
    <path d="M-4,0h8M0,-4v8" fill="none" stroke="white" stroke-width="1.5" pointer-events="none"/>
  </g>
  <g id="zoomMin">
    <use xlink:href="#rim" fill="#404040"><set attributeName="fill" to="#808080" begin="zoomminus.mouseover" end="zoomminus.mouseout"/></use>
    <path d="M-4,0h8" fill="none" stroke="white" stroke-width="1.5" pointer-events="none"/>
  </g>
  <g id="arrowUp" transform="translate(30 24)">
    <use xlink:href="#rim"/>
    <path pointer-events="none" fill="none" stroke="white" stroke-width="1.5" d="M0,-3.0v7 M-2.5,-0.5L0,-3.0L2.5,-0.5"/>
  </g>
  <g id="arrowRight" transform="rotate(90) translate(36 -43)">
    <use xlink:href="#rim"/>
    <path pointer-events="none" fill="none" stroke="white" stroke-width="1.5" d="M0,-3.0v7 M-2.5,-0.5L0,-3.0L2.5,-0.5"/>
  </g>
  <g id="arrowDown" transform="rotate(180) translate(-30 -48)">
    <use xlink:href="#rim"/>
    <path pointer-events="none" fill="none" stroke="white" stroke-width="1.5" d="M0,-3.0v7 M-2.5,-0.5L0,-3.0L2.5,-0.5"/>
  </g>
  <g id="arrowLeft" transform="rotate(270) translate(-36 17)">
    <use xlink:href="#rim"/>
    <path pointer-events="none" fill="none" stroke="white" stroke-width="1.5" d="M0,-3.0v7 M-2.5,-0.5L0,-3.0L2.5,-0.5"/>
  </g>
  <g id="resetDef">
    <use xlink:href="#rim2" fill="#404040"><set attributeName="fill" to="#808080" begin="reset.mouseover" end="reset.mouseout"/></use>
  </g>
</defs>
<script type="application/ecmascript">
var viewWidth = 1041;
var viewHeight = 172;
var sectionId = 'dynsection-21';
</script>
<script type="application/ecmascript" xlink:href="svg.min.js"/>
<svg id="graph" class="graph">
<g id="viewport">
<title>QtProjectWizardContent::refresh</title>
<!-- Node1 -->
<g id="Node000001" class="node">
<title>Node1</title>
<g id="a_Node000001"><a xlink:title=" ">
<polygon fill="#999999" stroke="#666666" points="1032.75,-111.5 899.75,-111.5 899.75,-78 1032.75,-78 1032.75,-111.5"/>
<text text-anchor="start" x="907.75" y="-98" font-family="Helvetica,sans-Serif" font-size="10.00">QtProjectWizardContent</text>
<text text-anchor="middle" x="966.25" y="-85.25" font-family="Helvetica,sans-Serif" font-size="10.00">::refresh</text>
</a>
</g>
</g>
<!-- Node2 -->
<g id="Node000002" class="node">
<title>Node2</title>
<g id="a_Node000002"><a xlink:href="classQtProjectWizardWindow.html#abcd469343f7405e5fe564cfba153b6ce" target="_top" xlink:title=" ">
<polygon fill="white" stroke="#666666" points="863.75,-111.5 730,-111.5 730,-78 863.75,-78 863.75,-111.5"/>
<text text-anchor="start" x="738" y="-98" font-family="Helvetica,sans-Serif" font-size="10.00">QtProjectWizardWindow</text>
<text text-anchor="middle" x="796.88" y="-85.25" font-family="Helvetica,sans-Serif" font-size="10.00">::refreshContent</text>
</a>
</g>
</g>
<!-- Node1&#45;&gt;Node2 -->
<g id="edge1_Node000001_Node000002" class="edge">
<title>Node1&#45;&gt;Node2</title>
<g id="a_edge1_Node000001_Node000002"><a xlink:title=" ">
<path fill="none" stroke="#63b8ff" d="M888.28,-94.75C880.23,-94.75 872.1,-94.75 864.18,-94.75"/>
<polygon fill="#63b8ff" stroke="#63b8ff" points="888.07,-98.25 898.07,-94.75 888.07,-91.25 888.07,-98.25"/>
</a>
</g>
</g>
<!-- Node3 -->
<g id="Node000003" class="node">
<title>Node3</title>
<g id="a_Node000003"><a xlink:href="classQtProjectWizardContent.html#ab13e54fc5e6b7199b12425516a2033ce" target="_top" xlink:title=" ">
<polygon fill="white" stroke="#666666" points="694,-111.5 561,-111.5 561,-78 694,-78 694,-111.5"/>
<text text-anchor="start" x="569" y="-98" font-family="Helvetica,sans-Serif" font-size="10.00">QtProjectWizardContent</text>
<text text-anchor="middle" x="627.5" y="-85.25" font-family="Helvetica,sans-Serif" font-size="10.00">::filesButtonClicked</text>
</a>
</g>
</g>
<!-- Node2&#45;&gt;Node3 -->
<g id="edge2_Node000002_Node000003" class="edge">
<title>Node2&#45;&gt;Node3</title>
<g id="a_edge2_Node000002_Node000003"><a xlink:title=" ">
<path fill="none" stroke="#63b8ff" d="M718.46,-94.75C710.43,-94.75 702.33,-94.75 694.44,-94.75"/>
<polygon fill="#63b8ff" stroke="#63b8ff" points="718.21,-98.25 728.21,-94.75 718.21,-91.25 718.21,-98.25"/>
</a>
</g>
</g>
<!-- Node4 -->
<g id="Node000004" class="node">
<title>Node4</title>
<g id="a_Node000004"><a xlink:href="classQtProjectWizardContent.html#a64c255569c9185b26dce569c4e832bbe" target="_top" xlink:title=" ">
<polygon fill="white" stroke="#666666" points="525,-111.5 392,-111.5 392,-78 525,-78 525,-111.5"/>
<text text-anchor="start" x="400" y="-98" font-family="Helvetica,sans-Serif" font-size="10.00">QtProjectWizardContent</text>
<text text-anchor="middle" x="458.5" y="-85.25" font-family="Helvetica,sans-Serif" font-size="10.00">::addFilesButton</text>
</a>
</g>
</g>
<!-- Node3&#45;&gt;Node4 -->
<g id="edge3_Node000003_Node000004" class="edge">
<title>Node3&#45;&gt;Node4</title>
<g id="a_edge3_Node000003_Node000004"><a xlink:title=" ">
<path fill="none" stroke="#63b8ff" d="M549.62,-94.75C541.52,-94.75 533.34,-94.75 525.38,-94.75"/>
<polygon fill="#63b8ff" stroke="#63b8ff" points="549.46,-98.25 559.46,-94.75 549.46,-91.25 549.46,-98.25"/>
</a>
</g>
</g>
<!-- Node5 -->
<g id="Node000005" class="node">
<title>Node5</title>
<g id="a_Node000005"><a xlink:href="classQtProjectWizardContentPathCDB.html#a4709222ceddec53a908ac4c1770000c5" target="_top" xlink:title=" ">
<polygon fill="white" stroke="#666666" points="353.38,-163.5 198.62,-163.5 198.62,-130 353.38,-130 353.38,-163.5"/>
<text text-anchor="start" x="206.62" y="-150" font-family="Helvetica,sans-Serif" font-size="10.00">QtProjectWizardContentPath</text>
<text text-anchor="middle" x="276" y="-137.25" font-family="Helvetica,sans-Serif" font-size="10.00">CDB::populate</text>
</a>
</g>
</g>
<!-- Node4&#45;&gt;Node5 -->
<g id="edge4_Node000004_Node000005" class="edge">
<title>Node4&#45;&gt;Node5</title>
<g id="a_edge4_Node000004_Node000005"><a xlink:title=" ">
<path fill="none" stroke="#63b8ff" d="M386.9,-115.09C370.29,-119.87 352.76,-124.92 336.69,-129.55"/>
<polygon fill="#63b8ff" stroke="#63b8ff" points="387.55,-118.54 396.19,-112.41 385.61,-111.82 387.55,-118.54"/>
</a>
</g>
</g>
<!-- Node6 -->
<g id="Node000006" class="node">
<title>Node6</title>
<g id="a_Node000006"><a xlink:href="classQtProjectWizardContentPathCodeblocksProject.html#ae65b06107078ab5cd9507a5ef1d4e0cf" target="_top" xlink:title=" ">
<polygon fill="white" stroke="#666666" points="353.38,-111.5 198.62,-111.5 198.62,-78 353.38,-78 353.38,-111.5"/>
<text text-anchor="start" x="206.62" y="-98" font-family="Helvetica,sans-Serif" font-size="10.00">QtProjectWizardContentPath</text>
<text text-anchor="middle" x="276" y="-85.25" font-family="Helvetica,sans-Serif" font-size="10.00">CodeblocksProject::populate</text>
</a>
</g>
</g>
<!-- Node4&#45;&gt;Node6 -->
<g id="edge5_Node000004_Node000006" class="edge">
<title>Node4&#45;&gt;Node6</title>
<g id="a_edge5_Node000004_Node000006"><a xlink:title=" ">
<path fill="none" stroke="#63b8ff" d="M380.19,-94.75C371.43,-94.75 362.51,-94.75 353.77,-94.75"/>
<polygon fill="#63b8ff" stroke="#63b8ff" points="380.06,-98.25 390.06,-94.75 380.06,-91.25 380.06,-98.25"/>
</a>
</g>
</g>
<!-- Node7 -->
<g id="Node000007" class="node">
<title>Node7</title>
<g id="a_Node000007"><a xlink:href="classQtProjectWizardContentPaths.html#a7c40cd62ef4cb68cfa7f2d0204c5c588" target="_top" xlink:title=" ">
<polygon fill="white" stroke="#666666" points="356,-59.5 196,-59.5 196,-26 356,-26 356,-59.5"/>
<text text-anchor="start" x="204" y="-46" font-family="Helvetica,sans-Serif" font-size="10.00">QtProjectWizardContentPaths</text>
<text text-anchor="middle" x="276" y="-33.25" font-family="Helvetica,sans-Serif" font-size="10.00">::populate</text>
</a>
</g>
</g>
<!-- Node4&#45;&gt;Node7 -->
<g id="edge6_Node000004_Node000007" class="edge">
<title>Node4&#45;&gt;Node7</title>
<g id="a_edge6_Node000004_Node000007"><a xlink:title=" ">
<path fill="none" stroke="#63b8ff" d="M386.9,-74.41C370.29,-69.63 352.76,-64.58 336.69,-59.95"/>
<polygon fill="#63b8ff" stroke="#63b8ff" points="385.61,-77.68 396.19,-77.09 387.55,-70.96 385.61,-77.68"/>
</a>
</g>
</g>
<!-- Node8 -->
<g id="Node000008" class="node">
<title>Node8</title>
<g id="a_Node000008"><a xlink:href="classQtProjectWizardContentPathsHeaderSearch.html#a16d6ec27e776e2547dff55c1d17bf02e" target="_top" xlink:title=" ">
<polygon fill="white" stroke="#666666" points="160,-85.5 0,-85.5 0,-52 160,-52 160,-85.5"/>
<text text-anchor="start" x="8" y="-72" font-family="Helvetica,sans-Serif" font-size="10.00">QtProjectWizardContentPaths</text>
<text text-anchor="middle" x="80" y="-59.25" font-family="Helvetica,sans-Serif" font-size="10.00">HeaderSearch::populate</text>
</a>
</g>
</g>
<!-- Node7&#45;&gt;Node8 -->
<g id="edge7_Node000007_Node000008" class="edge">
<title>Node7&#45;&gt;Node8</title>
<g id="a_edge7_Node000007_Node000008"><a xlink:title=" ">
<path fill="none" stroke="#63b8ff" d="M184.29,-54.91C176.29,-55.98 168.24,-57.06 160.34,-58.12"/>
<polygon fill="#63b8ff" stroke="#63b8ff" points="184.59,-58.4 194.03,-53.6 183.66,-51.46 184.59,-58.4"/>
</a>
</g>
</g>
<!-- Node9 -->
<g id="Node000009" class="node">
<title>Node9</title>
<g id="a_Node000009"><a xlink:href="classQtProjectWizardContentPathsIndexedHeaders.html#adf90b029e5b823c80e3ef17f4fea48b5" target="_top" xlink:title=" ">
<polygon fill="white" stroke="#666666" points="160,-33.5 0,-33.5 0,0 160,0 160,-33.5"/>
<text text-anchor="start" x="8" y="-20" font-family="Helvetica,sans-Serif" font-size="10.00">QtProjectWizardContentPaths</text>
<text text-anchor="middle" x="80" y="-7.25" font-family="Helvetica,sans-Serif" font-size="10.00">IndexedHeaders::populate</text>
</a>
</g>
</g>
<!-- Node7&#45;&gt;Node9 -->
<g id="edge8_Node000007_Node000009" class="edge">
<title>Node7&#45;&gt;Node9</title>
<g id="a_edge8_Node000007_Node000009"><a xlink:title=" ">
<path fill="none" stroke="#63b8ff" d="M184.29,-30.59C176.29,-29.52 168.24,-28.44 160.34,-27.38"/>
<polygon fill="#63b8ff" stroke="#63b8ff" points="183.66,-34.04 194.03,-31.9 184.59,-27.1 183.66,-34.04"/>
</a>
</g>
</g>
</g>
</svg>

<g id="navigator" transform="translate(0 0)" fill="#404254">
  <rect fill="#f2f5e9" fill-opacity="0.5" stroke="#606060" stroke-width=".5" x="0" y="0" width="60" height="60"/>
  <use id="zoomplus" xlink:href="#zoomPlus" x="17" y="9" onmousedown="handleZoom(evt,'in')"/>
  <use id="zoomminus" xlink:href="#zoomMin" x="42" y="9" onmousedown="handleZoom(evt,'out')"/>
  <use id="reset" xlink:href="#resetDef" x="30" y="36" onmousedown="handleReset()"/>
   <use id="arrowup" xlink:href="#arrowUp" x="0" y="0" onmousedown="handlePan(0,-1)"/>
  <use id="arrowright" xlink:href="#arrowRight" x="0" y="0" onmousedown="handlePan(1,0)"/>
  <use id="arrowdown" xlink:href="#arrowDown" x="0" y="0" onmousedown="handlePan(0,1)"/>
  <use id="arrowleft" xlink:href="#arrowLeft" x="0" y="0" onmousedown="handlePan(-1,0)"/>
</g>
<svg viewBox="0 0 15 15" width="100%" height="30px" preserveAspectRatio="xMaxYMin meet">
 <g id="arrow_out" transform="scale(0.3 0.3)">
  <a xlink:href="classQtProjectWizardContent_ac8f81c932cfdf9e7a330d4931b01f7ae_icgraph_org.svg" target="_base">
   <rect id="button" ry="5" rx="5" y="6" x="6" height="38" width="38"
        fill="#f2f5e9" fill-opacity="0.5" stroke="#606060" stroke-width="1.0"/>
   <path id="arrow"
     d="M 11.500037,31.436501 C 11.940474,20.09759 22.043105,11.32322 32.158766,21.979434 L 37.068811,17.246167 C 37.068811,17.246167 37.088388,32 37.088388,32 L 22.160133,31.978069 C 22.160133,31.978069 26.997745,27.140456 26.997745,27.140456 C 18.528582,18.264221 13.291696,25.230495 11.500037,31.436501 z"
     style="fill:#404040;"/>
  </a>
 </g>
</svg>

<style type='text/css'>
<![CDATA[
[data-mouse-over-selected='false'] { opacity: 0.7; }
[data-mouse-over-selected='true']  { opacity: 1.0; }
]]>
</style>
<script type="application/ecmascript"><![CDATA[
document.addEventListener('DOMContentLoaded', (event) => {
  highlightEdges();
  highlightAdjacentNodes();
});
]]></script>
</svg>
