<?xml version="1.0" encoding="UTF-8" standalone="no"?>
<!DOCTYPE svg PUBLIC "-//W3C//DTD SVG 1.1//EN"
 "http://www.w3.org/Graphics/SVG/1.1/DTD/svg11.dtd">
<!-- Generated by graphviz version 7.1.0 (0)
 -->
<!-- Title: QtGraphNode::onHide Pages: 1 -->
<svg width="708pt" height="101pt"
 viewBox="0.00 0.00 708.00 101.00" xmlns="http://www.w3.org/2000/svg" xmlns:xlink="http://www.w3.org/1999/xlink">
<g id="graph0" class="graph" transform="scale(1 1) rotate(0) translate(4 97)">
<title>QtGraphNode::onHide</title>
<!-- Node1 -->
<g id="node1" class="node">
<title>Node1</title>
<g id="a_node1"><a xlink:title=" ">
<polygon fill="#999999" stroke="#666666" points="123,-56 0,-56 0,-37 123,-37 123,-56"/>
<text text-anchor="middle" x="61.5" y="-44" font-family="Helvetica,sans-Serif" font-size="10.00">QtGraphNode::onHide</text>
</a>
</g>
</g>
<!-- Node1&#45;&gt;Node1 -->
<g id="edge6" class="edge">
<title>Node1&#45;&gt;Node1</title>
<path fill="none" stroke="#63b8ff" d="M35.2,-56.37C23.2,-64.94 31.97,-74 61.5,-74 78.11,-74 88.15,-71.13 91.62,-67.1"/>
<polygon fill="#63b8ff" stroke="#63b8ff" points="94.96,-66.04 88.31,-57.79 88.37,-68.39 94.96,-66.04"/>
</g>
<!-- Node2 -->
<g id="node2" class="node">
<title>Node2</title>
<g id="a_node2"><a xlink:href="classMessage.html#aa60564025ee950bf52c8deb6ac1bb843" target="_top" xlink:title=" ">
<polygon fill="white" stroke="#666666" points="283,-93 176,-93 176,-74 283,-74 283,-93"/>
<text text-anchor="middle" x="229.5" y="-81" font-family="Helvetica,sans-Serif" font-size="10.00">Message::dispatch</text>
</a>
</g>
</g>
<!-- Node1&#45;&gt;Node2 -->
<g id="edge1" class="edge">
<title>Node1&#45;&gt;Node2</title>
<path fill="none" stroke="#63b8ff" d="M106.98,-56.42C127.17,-60.92 151.27,-66.29 172.66,-71.05"/>
<polygon fill="#63b8ff" stroke="#63b8ff" points="171.89,-74.47 182.41,-73.23 173.42,-67.64 171.89,-74.47"/>
</g>
<!-- Node5 -->
<g id="node5" class="node">
<title>Node5</title>
<g id="a_node5"><a xlink:href="classQtGraphNode.html#aca688798fc05b28e3e168edbbdf8d92e" target="_top" xlink:title=" ">
<polygon fill="white" stroke="#666666" points="297.5,-56 161.5,-56 161.5,-37 297.5,-37 297.5,-56"/>
<text text-anchor="middle" x="229.5" y="-44" font-family="Helvetica,sans-Serif" font-size="10.00">QtGraphNode::getParent</text>
</a>
</g>
</g>
<!-- Node1&#45;&gt;Node5 -->
<g id="edge4" class="edge">
<title>Node1&#45;&gt;Node5</title>
<path fill="none" stroke="#63b8ff" d="M123.37,-46.5C132.02,-46.5 141.02,-46.5 149.95,-46.5"/>
<polygon fill="#63b8ff" stroke="#63b8ff" points="149.68,-50 159.68,-46.5 149.68,-43 149.68,-50"/>
</g>
<!-- Node6 -->
<g id="node6" class="node">
<title>Node6</title>
<g id="a_node6"><a xlink:href="classQtGraphNode.html#a2d3bd80632525a68bb9ed9c816767d0a" target="_top" xlink:title=" ">
<polygon fill="white" stroke="#666666" points="300,-19 159,-19 159,0 300,0 300,-19"/>
<text text-anchor="middle" x="229.5" y="-7" font-family="Helvetica,sans-Serif" font-size="10.00">QtGraphNode::getTokenId</text>
</a>
</g>
</g>
<!-- Node1&#45;&gt;Node6 -->
<g id="edge5" class="edge">
<title>Node1&#45;&gt;Node6</title>
<path fill="none" stroke="#63b8ff" d="M106.98,-36.58C127.17,-32.08 151.27,-26.71 172.66,-21.95"/>
<polygon fill="#63b8ff" stroke="#63b8ff" points="173.42,-25.36 182.41,-19.77 171.89,-18.53 173.42,-25.36"/>
</g>
<!-- Node3 -->
<g id="node3" class="node">
<title>Node3</title>
<g id="a_node3"><a xlink:href="classMessageQueue.html#ae42d768ad6ffd631d627fe101e38f711" target="_top" xlink:title=" ">
<polygon fill="white" stroke="#666666" points="491,-93 336,-93 336,-74 491,-74 491,-93"/>
<text text-anchor="middle" x="413.5" y="-81" font-family="Helvetica,sans-Serif" font-size="10.00">MessageQueue::getInstance</text>
</a>
</g>
</g>
<!-- Node2&#45;&gt;Node3 -->
<g id="edge2" class="edge">
<title>Node2&#45;&gt;Node3</title>
<path fill="none" stroke="#63b8ff" d="M283.14,-83.5C296.06,-83.5 310.25,-83.5 324.35,-83.5"/>
<polygon fill="#63b8ff" stroke="#63b8ff" points="324.09,-87 334.09,-83.5 324.09,-80 324.09,-87"/>
</g>
<!-- Node4 -->
<g id="node4" class="node">
<title>Node4</title>
<g id="a_node4"><a xlink:href="classMessageQueue.html#a006069f4b83d2372c989c52784fac5de" target="_top" xlink:title=" ">
<polygon fill="white" stroke="#666666" points="700,-93 527,-93 527,-74 700,-74 700,-93"/>
<text text-anchor="middle" x="613.5" y="-81" font-family="Helvetica,sans-Serif" font-size="10.00">MessageQueue::MessageQueue</text>
</a>
</g>
</g>
<!-- Node3&#45;&gt;Node4 -->
<g id="edge3" class="edge">
<title>Node3&#45;&gt;Node4</title>
<path fill="none" stroke="#63b8ff" d="M491.34,-83.5C499.17,-83.5 507.19,-83.5 515.21,-83.5"/>
<polygon fill="#63b8ff" stroke="#63b8ff" points="514.99,-87 524.99,-83.5 514.99,-80 514.99,-87"/>
</g>
</g>
</svg>
