<?xml version="1.0" encoding="UTF-8" standalone="no"?>
<!DOCTYPE svg PUBLIC "-//W3C//DTD SVG 1.1//EN"
 "http://www.w3.org/Graphics/SVG/1.1/DTD/svg11.dtd">
<!-- Generated by graphviz version 7.1.0 (0)
 -->
<!-- Title: MessageIndexingStatus Pages: 1 -->
<svg width="421pt" height="337pt"
 viewBox="0.00 0.00 420.50 337.00" xmlns="http://www.w3.org/2000/svg" xmlns:xlink="http://www.w3.org/1999/xlink">
<g id="graph0" class="graph" transform="scale(1 1) rotate(0) translate(4 333)">
<title>MessageIndexingStatus</title>
<!-- Node1 -->
<g id="node1" class="node">
<title>Node1</title>
<g id="a_node1"><a xlink:title=" ">
<polygon fill="#999999" stroke="#666666" points="216,-19 83,-19 83,0 216,0 216,-19"/>
<text text-anchor="middle" x="149.5" y="-7" font-family="Helvetica,sans-Serif" font-size="10.00">MessageIndexingStatus</text>
</a>
</g>
</g>
<!-- Node2 -->
<g id="node2" class="node">
<title>Node2</title>
<g id="a_node2"><a xlink:href="classMessage.html" target="_top" xlink:title=" ">
<polygon fill="white" stroke="#666666" points="228,-86 71,-86 71,-56 228,-56 228,-86"/>
<text text-anchor="start" x="79" y="-74" font-family="Helvetica,sans-Serif" font-size="10.00">Message&lt; MessageIndexing</text>
<text text-anchor="middle" x="149.5" y="-63" font-family="Helvetica,sans-Serif" font-size="10.00">Status &gt;</text>
</a>
</g>
</g>
<!-- Node2&#45;&gt;Node1 -->
<g id="edge1" class="edge">
<title>Node2&#45;&gt;Node1</title>
<path fill="none" stroke="#63b8ff" d="M149.5,-44.13C149.5,-35.29 149.5,-25.99 149.5,-19.42"/>
<polygon fill="#63b8ff" stroke="#63b8ff" points="146,-44.08 149.5,-54.08 153,-44.08 146,-44.08"/>
</g>
<!-- Node3 -->
<g id="node3" class="node">
<title>Node3</title>
<g id="a_node3"><a xlink:href="classMessageBase.html" target="_top" xlink:title=" ">
<polygon fill="white" stroke="#666666" points="210.5,-208 126.5,-208 126.5,-189 210.5,-189 210.5,-208"/>
<text text-anchor="middle" x="168.5" y="-196" font-family="Helvetica,sans-Serif" font-size="10.00">MessageBase</text>
</a>
</g>
</g>
<!-- Node3&#45;&gt;Node2 -->
<g id="edge2" class="edge">
<title>Node3&#45;&gt;Node2</title>
<path fill="none" stroke="#63b8ff" d="M156.99,-178.59C152.81,-170.67 148.6,-161.18 146.5,-152 141.35,-129.51 144.14,-102.55 146.74,-86.37"/>
<polygon fill="#63b8ff" stroke="#63b8ff" points="153.92,-180.27 161.91,-187.23 160.01,-176.8 153.92,-180.27"/>
</g>
<!-- Node7 -->
<g id="node7" class="node">
<title>Node7</title>
<g id="a_node7"><a xlink:href="classMessage.html" target="_top" xlink:title=" ">
<polygon fill="white" stroke="#666666" points="305,-152 156,-152 156,-133 305,-133 305,-152"/>
<text text-anchor="middle" x="230.5" y="-140" font-family="Helvetica,sans-Serif" font-size="10.00">Message&lt; MessageType &gt;</text>
</a>
</g>
</g>
<!-- Node3&#45;&gt;Node7 -->
<g id="edge7" class="edge">
<title>Node3&#45;&gt;Node7</title>
<path fill="none" stroke="#63b8ff" d="M187.19,-181.22C198.12,-171.7 211.49,-160.06 220.45,-152.25"/>
<polygon fill="#63b8ff" stroke="#63b8ff" points="185.12,-178.38 179.88,-187.59 189.72,-183.66 185.12,-178.38"/>
</g>
<!-- Node4 -->
<g id="node4" class="node">
<title>Node4</title>
<g id="a_node4"><a xlink:title=" ">
<polygon fill="white" stroke="#666666" points="196.5,-329 140.5,-329 140.5,-310 196.5,-310 196.5,-329"/>
<text text-anchor="middle" x="168.5" y="-317" font-family="Helvetica,sans-Serif" font-size="10.00">static Id</text>
</a>
</g>
</g>
<!-- Node4&#45;&gt;Node3 -->
<g id="edge3" class="edge">
<title>Node4&#45;&gt;Node3</title>
<path fill="none" stroke="#9a32cd" stroke-dasharray="5,2" d="M168.5,-298.32C168.5,-271.99 168.5,-227.07 168.5,-208.22"/>
<polygon fill="#9a32cd" stroke="#9a32cd" points="165,-298.04 168.5,-308.04 172,-298.04 165,-298.04"/>
<text text-anchor="middle" x="191" y="-256.5" font-family="Helvetica,sans-Serif" font-size="10.00"> s_nextId</text>
</g>
<!-- Node5 -->
<g id="node5" class="node">
<title>Node5</title>
<g id="a_node5"><a xlink:title=" ">
<polygon fill="white" stroke="#666666" points="45,-329 0,-329 0,-310 45,-310 45,-329"/>
<text text-anchor="middle" x="22.5" y="-317" font-family="Helvetica,sans-Serif" font-size="10.00">size_t</text>
</a>
</g>
</g>
<!-- Node5&#45;&gt;Node1 -->
<g id="edge9" class="edge">
<title>Node5&#45;&gt;Node1</title>
<path fill="none" stroke="#9a32cd" stroke-dasharray="5,2" d="M21.13,-298.26C19.65,-274.59 17.5,-234.22 17.5,-199.5 17.5,-199.5 17.5,-199.5 17.5,-70 17.5,-38.08 49.99,-23.18 82.73,-16.28"/>
<polygon fill="#9a32cd" stroke="#9a32cd" points="17.63,-298.29 21.77,-308.04 24.61,-297.83 17.63,-298.29"/>
<text text-anchor="middle" x="58.5" y="-140" font-family="Helvetica,sans-Serif" font-size="10.00"> progressPercent</text>
</g>
<!-- Node5&#45;&gt;Node3 -->
<g id="edge4" class="edge">
<title>Node5&#45;&gt;Node3</title>
<path fill="none" stroke="#9a32cd" stroke-dasharray="5,2" d="M32.3,-299.62C44.01,-278.81 65.44,-245.7 92.5,-226 103.23,-218.19 116.47,-212.52 128.86,-208.49"/>
<polygon fill="#9a32cd" stroke="#9a32cd" points="29.23,-297.95 27.55,-308.41 35.38,-301.28 29.23,-297.95"/>
<text text-anchor="middle" x="128.5" y="-262" font-family="Helvetica,sans-Serif" font-size="10.00"> m_id</text>
<text text-anchor="middle" x="128.5" y="-251" font-family="Helvetica,sans-Serif" font-size="10.00">m_schedulerId</text>
</g>
<!-- Node6 -->
<g id="node6" class="node">
<title>Node6</title>
<g id="a_node6"><a xlink:title=" ">
<polygon fill="white" stroke="#666666" points="312.5,-329 274.5,-329 274.5,-310 312.5,-310 312.5,-329"/>
<text text-anchor="middle" x="293.5" y="-317" font-family="Helvetica,sans-Serif" font-size="10.00">bool</text>
</a>
</g>
</g>
<!-- Node6&#45;&gt;Node1 -->
<g id="edge8" class="edge">
<title>Node6&#45;&gt;Node1</title>
<path fill="none" stroke="#9a32cd" stroke-dasharray="5,2" d="M318.57,-302.69C322.03,-299.54 325.18,-295.96 327.5,-292 348.5,-256.11 341.5,-241.08 341.5,-199.5 341.5,-199.5 341.5,-199.5 341.5,-70 341.5,-43.09 271.79,-27 216.38,-18.47"/>
<polygon fill="#9a32cd" stroke="#9a32cd" points="316.58,-299.81 310.85,-308.72 320.89,-305.33 316.58,-299.81"/>
<text text-anchor="middle" x="377" y="-140" font-family="Helvetica,sans-Serif" font-size="10.00"> showProgress</text>
</g>
<!-- Node6&#45;&gt;Node3 -->
<g id="edge5" class="edge">
<title>Node6&#45;&gt;Node3</title>
<path fill="none" stroke="#9a32cd" stroke-dasharray="5,2" d="M264.56,-303.77C259.48,-300.36 254.54,-296.42 250.5,-292 228.36,-267.81 240.31,-249.56 217.5,-226 210.23,-218.5 200.38,-212.61 191.41,-208.31"/>
<polygon fill="#9a32cd" stroke="#9a32cd" points="262.62,-306.69 272.99,-308.87 266.25,-300.7 262.62,-306.69"/>
<text text-anchor="middle" x="289" y="-284" font-family="Helvetica,sans-Serif" font-size="10.00"> m_isLast</text>
<text text-anchor="middle" x="289" y="-273" font-family="Helvetica,sans-Serif" font-size="10.00">m_isLogged</text>
<text text-anchor="middle" x="289" y="-262" font-family="Helvetica,sans-Serif" font-size="10.00">m_isParallel</text>
<text text-anchor="middle" x="289" y="-251" font-family="Helvetica,sans-Serif" font-size="10.00">m_isReplayed</text>
<text text-anchor="middle" x="289" y="-240" font-family="Helvetica,sans-Serif" font-size="10.00">m_keepContent</text>
<text text-anchor="middle" x="289" y="-229" font-family="Helvetica,sans-Serif" font-size="10.00">m_sendAsTask</text>
</g>
<!-- Node7&#45;&gt;Node2 -->
<g id="edge6" class="edge">
<title>Node7&#45;&gt;Node2</title>
<path fill="none" stroke="orange" stroke-dasharray="5,2" d="M202.74,-127.17C196.79,-123.56 190.73,-119.43 185.5,-115 175.55,-106.57 166.15,-95.18 159.45,-86.24"/>
<polygon fill="orange" stroke="orange" points="200.75,-130.06 211.17,-131.98 204.22,-123.98 200.75,-130.06"/>
<text text-anchor="middle" x="256.5" y="-107" font-family="Helvetica,sans-Serif" font-size="10.00"> &lt; MessageIndexingStatus &gt;</text>
</g>
</g>
</svg>
