<?xml version="1.0" encoding="UTF-8" standalone="no"?>
<!DOCTYPE svg PUBLIC "-//W3C//DTD SVG 1.1//EN"
 "http://www.w3.org/Graphics/SVG/1.1/DTD/svg11.dtd">
<!-- Generated by graphviz version 7.1.0 (0)
 -->
<!-- Title: QtStatusView::refreshView Pages: 1 -->
<!--zoomable 201 -->
<svg id="main" version="1.1" xmlns="http://www.w3.org/2000/svg" xmlns:xlink="http://www.w3.org/1999/xlink" xml:space="preserve" onload="init(evt)">
<style type="text/css"><![CDATA[
.edge:hover path { stroke: red; }
.edge:hover polygon { stroke: red; fill: red; }
]]></style>
<script type="text/javascript"><![CDATA[
var edges = document.getElementsByTagName('g');
if (edges && edges.length) {
  for (var i=0;i<edges.length;i++) {
    if (edges[i].id.substr(0,4)=='edge') {
      edges[i].setAttribute('class','edge');
    }
  }
}
]]></script>
        <defs>
                <circle id="rim" cx="0" cy="0" r="7"/>
                <circle id="rim2" cx="0" cy="0" r="3.5"/>
                <g id="zoomPlus">
                        <use xlink:href="#rim" fill="#404040">
                                <set attributeName="fill" to="#808080" begin="zoomplus.mouseover" end="zoomplus.mouseout"/>
                        </use>
                        <path d="M-4,0h8M0,-4v8" fill="none" stroke="white" stroke-width="1.5" pointer-events="none"/>
                </g>
                <g id="zoomMin">
                        <use xlink:href="#rim" fill="#404040">
                                <set attributeName="fill" to="#808080" begin="zoomminus.mouseover" end="zoomminus.mouseout"/>
                        </use>
                        <path d="M-4,0h8" fill="none" stroke="white" stroke-width="1.5" pointer-events="none"/>
                </g>
                <g id="dirArrow">
                        <path fill="none" stroke="white" stroke-width="1.5" d="M0,-3.0v7 M-2.5,-0.5L0,-3.0L2.5,-0.5"/>
                </g>
               <g id="resetDef">
                       <use xlink:href="#rim2" fill="#404040">
                               <set attributeName="fill" to="#808080" begin="reset.mouseover" end="reset.mouseout"/>
                       </use>
               </g>
        </defs>

<script type="text/javascript">
var viewWidth = 690;
var viewHeight = 201;
var sectionId = 'dynsection-14';
</script>
<script xlink:href="svgpan.js"/>
<svg id="graph" class="graph">
<g id="viewport">
<title>QtStatusView::refreshView</title>
<!-- Node1 -->
<g id="node1" class="node">
<title>Node1</title>
<g id="a_node1"><a xlink:title=" ">
<polygon fill="#999999" stroke="#666666" points="147,-126 0,-126 0,-107 147,-107 147,-126"/>
<text text-anchor="middle" x="73.5" y="-114" font-family="Helvetica,sans-Serif" font-size="10.00">QtStatusView::refreshView</text>
</a>
</g>
</g>
<!-- Node2 -->
<g id="node2" class="node">
<title>Node2</title>
<g id="a_node2"><a xlink:href="classColorScheme.html#ab65eb4d23939345b1569002b38ed3caf" target="_top" xlink:title=" ">
<polygon fill="white" stroke="#666666" points="334,-193 190,-193 190,-174 334,-174 334,-193"/>
<text text-anchor="middle" x="262" y="-181" font-family="Helvetica,sans-Serif" font-size="10.00">ColorScheme::getInstance</text>
</a>
</g>
</g>
<!-- Node1&#45;&gt;Node2 -->
<g id="edge1" class="edge">
<title>Node1&#45;&gt;Node2</title>
<path fill="none" stroke="#63b8ff" d="M94.08,-126.43C115.48,-136.99 151.02,-153.63 183,-164.5 189.58,-166.74 196.56,-168.82 203.53,-170.73"/>
<polygon fill="#63b8ff" stroke="#63b8ff" points="202.39,-174.05 212.95,-173.2 204.17,-167.28 202.39,-174.05"/>
</g>
<!-- Node4 -->
<g id="node4" class="node">
<title>Node4</title>
<g id="a_node4"><a xlink:href="classQtViewWidgetWrapper.html#aa659b4c3a0fec8e22a1710675fda6c53" target="_top" xlink:title=" ">
<polygon fill="white" stroke="#666666" points="326,-155.5 198,-155.5 198,-125.5 326,-125.5 326,-155.5"/>
<text text-anchor="start" x="206" y="-143.5" font-family="Helvetica,sans-Serif" font-size="10.00">QtViewWidgetWrapper</text>
<text text-anchor="middle" x="262" y="-132.5" font-family="Helvetica,sans-Serif" font-size="10.00">::getWidgetOfView</text>
</a>
</g>
</g>
<!-- Node1&#45;&gt;Node4 -->
<g id="edge3" class="edge">
<title>Node1&#45;&gt;Node4</title>
<path fill="none" stroke="#63b8ff" d="M147.41,-125.88C160.21,-127.53 173.55,-129.25 186.39,-130.9"/>
<polygon fill="#63b8ff" stroke="#63b8ff" points="185.66,-134.33 196.03,-132.14 186.56,-127.39 185.66,-134.33"/>
</g>
<!-- Node7 -->
<g id="node7" class="node">
<title>Node7</title>
<g id="a_node7"><a xlink:href="namespaceutility.html#a44e682351a3b7df45a80d4a86ff8dbb3" target="_top" xlink:title=" ">
<polygon fill="white" stroke="#666666" points="341,-107.5 183,-107.5 183,-77.5 341,-77.5 341,-107.5"/>
<text text-anchor="start" x="191" y="-95.5" font-family="Helvetica,sans-Serif" font-size="10.00">utility::setWidgetBackground</text>
<text text-anchor="middle" x="262" y="-84.5" font-family="Helvetica,sans-Serif" font-size="10.00">Color</text>
</a>
</g>
</g>
<!-- Node1&#45;&gt;Node7 -->
<g id="edge6" class="edge">
<title>Node1&#45;&gt;Node7</title>
<path fill="none" stroke="#63b8ff" d="M147.41,-107.12C155.25,-106.11 163.3,-105.07 171.32,-104.04"/>
<polygon fill="#63b8ff" stroke="#63b8ff" points="171.62,-107.53 181.1,-102.78 170.73,-100.59 171.62,-107.53"/>
</g>
<!-- Node8 -->
<g id="node8" class="node">
<title>Node8</title>
<g id="a_node8"><a xlink:href="classQtTable.html#a5f1148b5f6442198f8fb849abd60a91e" target="_top" xlink:title=" ">
<polygon fill="white" stroke="#666666" points="321.5,-59 202.5,-59 202.5,-40 321.5,-40 321.5,-59"/>
<text text-anchor="middle" x="262" y="-47" font-family="Helvetica,sans-Serif" font-size="10.00">QtTable::updateRows</text>
</a>
</g>
</g>
<!-- Node1&#45;&gt;Node8 -->
<g id="edge7" class="edge">
<title>Node1&#45;&gt;Node8</title>
<path fill="none" stroke="#63b8ff" d="M94.08,-106.57C115.48,-96.01 151.02,-79.37 183,-68.5 189.58,-66.26 196.56,-64.18 203.53,-62.27"/>
<polygon fill="#63b8ff" stroke="#63b8ff" points="204.17,-65.72 212.95,-59.8 202.39,-58.95 204.17,-65.72"/>
</g>
<!-- Node3 -->
<g id="node3" class="node">
<title>Node3</title>
<g id="a_node3"><a xlink:href="classColorScheme.html#ac359cbede591576e3cd630bba4ef2dd0" target="_top" xlink:title=" ">
<polygon fill="white" stroke="#666666" points="529,-193 377,-193 377,-174 529,-174 529,-193"/>
<text text-anchor="middle" x="453" y="-181" font-family="Helvetica,sans-Serif" font-size="10.00">ColorScheme::ColorScheme</text>
</a>
</g>
</g>
<!-- Node2&#45;&gt;Node3 -->
<g id="edge2" class="edge">
<title>Node2&#45;&gt;Node3</title>
<path fill="none" stroke="#63b8ff" d="M334.45,-183.5C344.59,-183.5 355.1,-183.5 365.48,-183.5"/>
<polygon fill="#63b8ff" stroke="#63b8ff" points="365.15,-187 375.15,-183.5 365.15,-180 365.15,-187"/>
</g>
<!-- Node5 -->
<g id="node5" class="node">
<title>Node5</title>
<g id="a_node5"><a xlink:href="classQtViewWidgetWrapper.html#a71c7ef42ca3c100256d5feacc5c706fe" target="_top" xlink:title=" ">
<polygon fill="white" stroke="#666666" points="517,-155.5 389,-155.5 389,-125.5 517,-125.5 517,-155.5"/>
<text text-anchor="start" x="397" y="-143.5" font-family="Helvetica,sans-Serif" font-size="10.00">QtViewWidgetWrapper</text>
<text text-anchor="middle" x="453" y="-132.5" font-family="Helvetica,sans-Serif" font-size="10.00">::getWidget</text>
</a>
</g>
</g>
<!-- Node4&#45;&gt;Node5 -->
<g id="edge4" class="edge">
<title>Node4&#45;&gt;Node5</title>
<path fill="none" stroke="#63b8ff" d="M326.46,-140.5C342.75,-140.5 360.43,-140.5 377.24,-140.5"/>
<polygon fill="#63b8ff" stroke="#63b8ff" points="377.19,-144 387.19,-140.5 377.19,-137 377.19,-144"/>
</g>
<!-- Node6 -->
<g id="node6" class="node">
<title>Node6</title>
<g id="a_node6"><a xlink:href="classView.html#a3cbf5820d5c11e82b48e3fabb7b0e640" target="_top" xlink:title=" ">
<polygon fill="white" stroke="#666666" points="522,-107 384,-107 384,-88 522,-88 522,-107"/>
<text text-anchor="middle" x="453" y="-95" font-family="Helvetica,sans-Serif" font-size="10.00">View::getWidgetWrapper</text>
</a>
</g>
</g>
<!-- Node4&#45;&gt;Node6 -->
<g id="edge5" class="edge">
<title>Node4&#45;&gt;Node6</title>
<path fill="none" stroke="#63b8ff" d="M326.46,-126.06C349.29,-120.87 374.84,-115.06 396.9,-110.04"/>
<polygon fill="#63b8ff" stroke="#63b8ff" points="397.63,-113.46 406.61,-107.83 396.08,-106.63 397.63,-113.46"/>
</g>
<!-- Node9 -->
<g id="node9" class="node">
<title>Node9</title>
<g id="a_node9"><a xlink:href="classApplicationSettings.html#a59fd66f9eab421c8e7ea4da03c4b0d1e" target="_top" xlink:title=" ">
<polygon fill="white" stroke="#666666" points="508.5,-67.5 397.5,-67.5 397.5,-37.5 508.5,-37.5 508.5,-67.5"/>
<text text-anchor="start" x="405.5" y="-55.5" font-family="Helvetica,sans-Serif" font-size="10.00">ApplicationSettings</text>
<text text-anchor="middle" x="453" y="-44.5" font-family="Helvetica,sans-Serif" font-size="10.00">::getInstance</text>
</a>
</g>
</g>
<!-- Node8&#45;&gt;Node9 -->
<g id="edge8" class="edge">
<title>Node8&#45;&gt;Node9</title>
<path fill="none" stroke="#63b8ff" d="M321.76,-50.43C342.06,-50.75 364.94,-51.12 385.79,-51.45"/>
<polygon fill="#63b8ff" stroke="#63b8ff" points="385.57,-54.95 395.63,-51.61 385.68,-47.95 385.57,-54.95"/>
</g>
<!-- Node11 -->
<g id="node11" class="node">
<title>Node11</title>
<g id="a_node11"><a xlink:href="classQtTable.html#a9587ccaba00b0d38f0b2ad898d7d2f10" target="_top" xlink:title=" ">
<polygon fill="white" stroke="#666666" points="514,-19 392,-19 392,0 514,0 514,-19"/>
<text text-anchor="middle" x="453" y="-7" font-family="Helvetica,sans-Serif" font-size="10.00">QtTable::hasSelection</text>
</a>
</g>
</g>
<!-- Node8&#45;&gt;Node11 -->
<g id="edge10" class="edge">
<title>Node8&#45;&gt;Node11</title>
<path fill="none" stroke="#63b8ff" d="M310.21,-39.51C335.56,-34.14 367.03,-27.48 393.88,-21.8"/>
<polygon fill="#63b8ff" stroke="#63b8ff" points="394.53,-25.24 403.59,-19.75 393.08,-18.39 394.53,-25.24"/>
</g>
<!-- Node10 -->
<g id="node10" class="node">
<title>Node10</title>
<g id="a_node10"><a xlink:href="classApplicationSettings.html#a577f5c7696669ffd72b37c28eb3eb04c" target="_top" xlink:title=" ">
<polygon fill="white" stroke="#666666" points="682,-67.5 565,-67.5 565,-37.5 682,-37.5 682,-67.5"/>
<text text-anchor="start" x="573" y="-55.5" font-family="Helvetica,sans-Serif" font-size="10.00">ApplicationSettings</text>
<text text-anchor="middle" x="623.5" y="-44.5" font-family="Helvetica,sans-Serif" font-size="10.00">::ApplicationSettings</text>
</a>
</g>
</g>
<!-- Node9&#45;&gt;Node10 -->
<g id="edge9" class="edge">
<title>Node9&#45;&gt;Node10</title>
<path fill="none" stroke="#63b8ff" d="M508.71,-52.5C522.95,-52.5 538.48,-52.5 553.37,-52.5"/>
<polygon fill="#63b8ff" stroke="#63b8ff" points="553.07,-56 563.07,-52.5 553.07,-49 553.07,-56"/>
</g>
</g>
</svg>
        <g id="navigator" transform="translate(0 0)" fill="#404254">
                <rect fill="#f2f5e9" fill-opacity="0.5" stroke="#606060" stroke-width=".5" x="0" y="0" width="60" height="60"/>
                <use id="zoomplus" xlink:href="#zoomPlus" x="17" y="9" onmousedown="handleZoom(evt,'in')"/>
                <use id="zoomminus" xlink:href="#zoomMin" x="42" y="9" onmousedown="handleZoom(evt,'out')"/>
                <use id="reset" xlink:href="#resetDef" x="30" y="36" onmousedown="handleReset()"/>
                <g id="arrowUp" xlink:href="#dirArrow" transform="translate(30 24)" onmousedown="handlePan(0,-1)">
                  <use xlink:href="#rim" fill="#404040">
                        <set attributeName="fill" to="#808080" begin="arrowUp.mouseover" end="arrowUp.mouseout"/>
                  </use>
                  <path fill="none" stroke="white" stroke-width="1.5" d="M0,-3.0v7 M-2.5,-0.5L0,-3.0L2.5,-0.5"/>
                </g>
                <g id="arrowRight" xlink:href="#dirArrow" transform="rotate(90) translate(36 -43)" onmousedown="handlePan(1,0)">
                  <use xlink:href="#rim" fill="#404040">
                        <set attributeName="fill" to="#808080" begin="arrowRight.mouseover" end="arrowRight.mouseout"/>
                  </use>
                  <path fill="none" stroke="white" stroke-width="1.5" d="M0,-3.0v7 M-2.5,-0.5L0,-3.0L2.5,-0.5"/>
                </g>
                <g id="arrowDown" xlink:href="#dirArrow" transform="rotate(180) translate(-30 -48)" onmousedown="handlePan(0,1)">
                  <use xlink:href="#rim" fill="#404040">
                        <set attributeName="fill" to="#808080" begin="arrowDown.mouseover" end="arrowDown.mouseout"/>
                  </use>
                  <path fill="none" stroke="white" stroke-width="1.5" d="M0,-3.0v7 M-2.5,-0.5L0,-3.0L2.5,-0.5"/>
                </g>
                <g id="arrowLeft" xlink:href="#dirArrow" transform="rotate(270) translate(-36 17)" onmousedown="handlePan(-1,0)">
                  <use xlink:href="#rim" fill="#404040">
                        <set attributeName="fill" to="#808080" begin="arrowLeft.mouseover" end="arrowLeft.mouseout"/>
                  </use>
                  <path fill="none" stroke="white" stroke-width="1.5" d="M0,-3.0v7 M-2.5,-0.5L0,-3.0L2.5,-0.5"/>
                </g>
        </g>
        <svg viewBox="0 0 15 15" width="100%" height="30px" preserveAspectRatio="xMaxYMin meet">
         <g id="arrow_out" transform="scale(0.3 0.3)">
          <a xlink:href="classQtStatusView_acceaeceef6429443b269ef6c86ccb668_cgraph_org.svg" target="_base">
           <rect id="button" ry="5" rx="5" y="6" x="6" height="38" width="38"
                fill="#f2f5e9" fill-opacity="0.5" stroke="#606060" stroke-width="1.0"/>
           <path id="arrow"
             d="M 11.500037,31.436501 C 11.940474,20.09759 22.043105,11.32322 32.158766,21.979434 L 37.068811,17.246167 C 37.068811,17.246167 37.088388,32 37.088388,32 L 22.160133,31.978069 C 22.160133,31.978069 26.997745,27.140456 26.997745,27.140456 C 18.528582,18.264221 13.291696,25.230495 11.500037,31.436501 z"
             style="fill:#404040;"/>
          </a>
         </g>
        </svg>
</svg>
