<?xml version="1.0" encoding="UTF-8" standalone="no"?>
<!DOCTYPE svg PUBLIC "-//W3C//DTD SVG 1.1//EN"
 "http://www.w3.org/Graphics/SVG/1.1/DTD/svg11.dtd">
<!-- Generated by graphviz version 7.1.0 (0)
 -->
<!-- Title: QtWindow::canceled Pages: 1 -->
<svg width="2198pt" height="754pt"
 viewBox="0.00 0.00 2198.00 753.50" xmlns="http://www.w3.org/2000/svg" xmlns:xlink="http://www.w3.org/1999/xlink">
<g id="graph0" class="graph" transform="scale(1 1) rotate(0) translate(4 749.5)">
<title>QtWindow::canceled</title>
<!-- Node1 -->
<g id="node1" class="node">
<title>Node1</title>
<g id="a_node1"><a xlink:title=" ">
<polygon fill="#999999" stroke="#666666" points="2190,-209 2074,-209 2074,-190 2190,-190 2190,-209"/>
<text text-anchor="middle" x="2132" y="-197" font-family="Helvetica,sans-Serif" font-size="10.00">QtWindow::canceled</text>
</a>
</g>
</g>
<!-- Node2 -->
<g id="node2" class="node">
<title>Node2</title>
<g id="a_node2"><a xlink:href="classQtProjectWizardContentPathsIndexedHeaders.html#a41095321087e5397c64b387388f4757b" target="_top" xlink:title=" ">
<polygon fill="white" stroke="#666666" points="1248,-611.5 1079,-611.5 1079,-581.5 1248,-581.5 1248,-611.5"/>
<text text-anchor="start" x="1087" y="-599.5" font-family="Helvetica,sans-Serif" font-size="10.00">QtProjectWizardContentPaths</text>
<text text-anchor="middle" x="1163.5" y="-588.5" font-family="Helvetica,sans-Serif" font-size="10.00">IndexedHeaders::buttonClicked</text>
</a>
</g>
</g>
<!-- Node1&#45;&gt;Node2 -->
<g id="edge1" class="edge">
<title>Node1&#45;&gt;Node2</title>
<path fill="none" stroke="#63b8ff" d="M2114.8,-217.84C2063.91,-273.31 1900.41,-435.5 1728.5,-435.5 1728.5,-435.5 1728.5,-435.5 1539.5,-435.5 1402.75,-435.5 1392.5,-525.73 1264,-572.5 1255.4,-575.63 1246.23,-578.47 1237.08,-581.02"/>
<polygon fill="#63b8ff" stroke="#63b8ff" points="2117.36,-220.23 2121.46,-210.46 2112.16,-215.54 2117.36,-220.23"/>
</g>
<!-- Node4 -->
<g id="node4" class="node">
<title>Node4</title>
<g id="a_node4"><a xlink:href="classQtProjectWizard.html#a8e971da9120626a871b0927da589c970" target="_top" xlink:title=" ">
<polygon fill="white" stroke="#666666" points="2024.5,-152 1857.5,-152 1857.5,-133 2024.5,-133 2024.5,-152"/>
<text text-anchor="middle" x="1941" y="-140" font-family="Helvetica,sans-Serif" font-size="10.00">QtProjectWizard::cancelWizard</text>
</a>
</g>
</g>
<!-- Node1&#45;&gt;Node4 -->
<g id="edge3" class="edge">
<title>Node1&#45;&gt;Node4</title>
<path fill="none" stroke="#63b8ff" d="M2094.54,-185.65C2077.49,-179.41 2056.84,-172.18 2038,-166.5 2021.06,-161.39 2002.21,-156.51 1985.73,-152.49"/>
<polygon fill="#63b8ff" stroke="#63b8ff" points="2093.15,-188.87 2103.74,-189.06 2095.58,-182.3 2093.15,-188.87"/>
</g>
<!-- Node5 -->
<g id="node5" class="node">
<title>Node5</title>
<g id="a_node5"><a xlink:href="classQtMainWindow.html#a437d96721ecb0132b0b99b801c0b6856" target="_top" xlink:title=" ">
<polygon fill="white" stroke="#666666" points="2024.5,-115 1857.5,-115 1857.5,-96 2024.5,-96 2024.5,-115"/>
<text text-anchor="middle" x="1941" y="-103" font-family="Helvetica,sans-Serif" font-size="10.00">QtMainWindow::createWindow</text>
</a>
</g>
</g>
<!-- Node1&#45;&gt;Node5 -->
<g id="edge4" class="edge">
<title>Node1&#45;&gt;Node5</title>
<path fill="none" stroke="#63b8ff" d="M2114.01,-181.45C2096.61,-164.09 2067.93,-138.48 2038,-124.5 2030.15,-120.83 2021.62,-117.87 2012.99,-115.48"/>
<polygon fill="#63b8ff" stroke="#63b8ff" points="2111.49,-183.87 2120.98,-188.59 2116.5,-178.98 2111.49,-183.87"/>
</g>
<!-- Node6 -->
<g id="node6" class="node">
<title>Node6</title>
<g id="a_node6"><a xlink:href="classQtProjectWizard.html#aebfe5cd6eeb8e5429d17fc385c556d63" target="_top" xlink:title=" ">
<polygon fill="white" stroke="#666666" points="1249,-317.5 1078,-317.5 1078,-287.5 1249,-287.5 1249,-317.5"/>
<text text-anchor="start" x="1086" y="-305.5" font-family="Helvetica,sans-Serif" font-size="10.00">QtProjectWizard::createWindow</text>
<text text-anchor="middle" x="1163.5" y="-294.5" font-family="Helvetica,sans-Serif" font-size="10.00">WithContent</text>
</a>
</g>
</g>
<!-- Node1&#45;&gt;Node6 -->
<g id="edge5" class="edge">
<title>Node1&#45;&gt;Node6</title>
<path fill="none" stroke="#63b8ff" d="M2108.18,-215.71C2090.03,-227.8 2063.52,-243.68 2038,-252.5 1906.56,-297.93 1867.57,-298.5 1728.5,-298.5 1728.5,-298.5 1728.5,-298.5 1539.5,-298.5 1439.88,-298.5 1325.39,-299.93 1249.39,-301.08"/>
<polygon fill="#63b8ff" stroke="#63b8ff" points="2110.06,-218.67 2116.34,-210.14 2106.11,-212.89 2110.06,-218.67"/>
</g>
<!-- Node13 -->
<g id="node13" class="node">
<title>Node13</title>
<g id="a_node13"><a xlink:href="classQtProjectWizardContentPathsHeaderSearch.html#a6d7d2c5f48d72bc3292282c0e043413e" target="_top" xlink:title=" ">
<polygon fill="white" stroke="#666666" points="2038,-78 1844,-78 1844,-37 2038,-37 2038,-78"/>
<text text-anchor="start" x="1852" y="-66" font-family="Helvetica,sans-Serif" font-size="10.00">QtProjectWizardContentPaths</text>
<text text-anchor="start" x="1852" y="-55" font-family="Helvetica,sans-Serif" font-size="10.00">HeaderSearch::detectIncludesButton</text>
<text text-anchor="middle" x="1941" y="-44" font-family="Helvetica,sans-Serif" font-size="10.00">Clicked</text>
</a>
</g>
</g>
<!-- Node1&#45;&gt;Node13 -->
<g id="edge15" class="edge">
<title>Node1&#45;&gt;Node13</title>
<path fill="none" stroke="#63b8ff" d="M2119.79,-180.02C2104.44,-155.03 2074.58,-112.01 2038,-87.5 2032.92,-84.1 2027.44,-81.07 2021.76,-78.36"/>
<polygon fill="#63b8ff" stroke="#63b8ff" points="2116.72,-181.71 2124.85,-188.51 2122.74,-178.12 2116.72,-181.71"/>
</g>
<!-- Node15 -->
<g id="node15" class="node">
<title>Node15</title>
<g id="a_node15"><a xlink:href="classQtWindow.html#a2ba2b21448b4008f0a30e174b6794b6e" target="_top" xlink:title=" ">
<polygon fill="white" stroke="#666666" points="2007.5,-532 1874.5,-532 1874.5,-513 2007.5,-513 2007.5,-532"/>
<text text-anchor="middle" x="1941" y="-520" font-family="Helvetica,sans-Serif" font-size="10.00">QtWindow::handleClose</text>
</a>
</g>
</g>
<!-- Node1&#45;&gt;Node15 -->
<g id="edge17" class="edge">
<title>Node1&#45;&gt;Node15</title>
<path fill="none" stroke="#63b8ff" d="M2127.37,-220.27C2118.61,-265.66 2092.87,-375.56 2038,-449.5 2017.04,-477.75 1982.25,-500.36 1960.8,-512.57"/>
<polygon fill="#63b8ff" stroke="#63b8ff" points="2130.79,-220.99 2129.16,-210.52 2123.91,-219.72 2130.79,-220.99"/>
</g>
<!-- Node35 -->
<g id="node35" class="node">
<title>Node35</title>
<g id="a_node35"><a xlink:href="classQtProjectWizardContentPathsHeaderSearch.html#aa7700e2c2df0de0442d2e369ecc74355" target="_top" xlink:title=" ">
<polygon fill="white" stroke="#666666" points="1264,-269 1063,-269 1063,-228 1264,-228 1264,-269"/>
<text text-anchor="start" x="1071" y="-257" font-family="Helvetica,sans-Serif" font-size="10.00">QtProjectWizardContentPaths</text>
<text text-anchor="start" x="1071" y="-246" font-family="Helvetica,sans-Serif" font-size="10.00">HeaderSearch::showDetectedIncludes</text>
<text text-anchor="middle" x="1163.5" y="-235" font-family="Helvetica,sans-Serif" font-size="10.00">Result</text>
</a>
</g>
</g>
<!-- Node1&#45;&gt;Node35 -->
<g id="edge57" class="edge">
<title>Node1&#45;&gt;Node35</title>
<path fill="none" stroke="#63b8ff" d="M2088.07,-212.57C2072.44,-216.93 2054.54,-221.44 2038,-224.5 1902.02,-249.64 1866.79,-256.5 1728.5,-256.5 1728.5,-256.5 1728.5,-256.5 1539.5,-256.5 1446.22,-256.5 1339.91,-254 1264.37,-251.79"/>
<polygon fill="#63b8ff" stroke="#63b8ff" points="2088.9,-215.98 2097.55,-209.87 2086.98,-209.25 2088.9,-215.98"/>
</g>
<!-- Node36 -->
<g id="node36" class="node">
<title>Node36</title>
<g id="a_node36"><a xlink:href="classQtProjectWizardContent.html#a87eb197c3827ae090af86517027fc980" target="_top" xlink:title=" ">
<polygon fill="white" stroke="#666666" points="1230.5,-209.5 1096.5,-209.5 1096.5,-179.5 1230.5,-179.5 1230.5,-209.5"/>
<text text-anchor="start" x="1104.5" y="-197.5" font-family="Helvetica,sans-Serif" font-size="10.00">QtProjectWizardContent</text>
<text text-anchor="middle" x="1163.5" y="-186.5" font-family="Helvetica,sans-Serif" font-size="10.00">::showFilesDialog</text>
</a>
</g>
</g>
<!-- Node1&#45;&gt;Node36 -->
<g id="edge60" class="edge">
<title>Node1&#45;&gt;Node36</title>
<path fill="none" stroke="#63b8ff" d="M2062.32,-204.72C1982.24,-210.34 1845.85,-218.5 1728.5,-218.5 1728.5,-218.5 1728.5,-218.5 1539.5,-218.5 1431.21,-218.5 1305.68,-208.41 1230.8,-201.31"/>
<polygon fill="#63b8ff" stroke="#63b8ff" points="2062.48,-208.21 2072.21,-204.01 2061.99,-201.23 2062.48,-208.21"/>
</g>
<!-- Node40 -->
<g id="node40" class="node">
<title>Node40</title>
<g id="a_node40"><a xlink:href="classQtProjectWizardContentPathsHeaderSearch.html#a46df2437c18a80286516df4d3eb1b112" target="_top" xlink:title=" ">
<polygon fill="white" stroke="#666666" points="1262,-161.5 1065,-161.5 1065,-131.5 1262,-131.5 1262,-161.5"/>
<text text-anchor="start" x="1073" y="-149.5" font-family="Helvetica,sans-Serif" font-size="10.00">QtProjectWizardContentPaths</text>
<text text-anchor="middle" x="1163.5" y="-138.5" font-family="Helvetica,sans-Serif" font-size="10.00">HeaderSearch::showValidationResult</text>
</a>
</g>
</g>
<!-- Node1&#45;&gt;Node40 -->
<g id="edge61" class="edge">
<title>Node1&#45;&gt;Node40</title>
<path fill="none" stroke="#63b8ff" d="M2062.32,-194.28C1982.24,-188.66 1845.85,-180.5 1728.5,-180.5 1728.5,-180.5 1728.5,-180.5 1539.5,-180.5 1445.04,-180.5 1337.74,-169.67 1262.19,-160.23"/>
<polygon fill="#63b8ff" stroke="#63b8ff" points="2061.99,-197.77 2072.21,-194.99 2062.48,-190.79 2061.99,-197.77"/>
</g>
<!-- Node48 -->
<g id="node48" class="node">
<title>Node48</title>
<g id="a_node48"><a xlink:href="classQtListBox.html#a194f38aaf1151ae184f3bb4eb2f98ec7" target="_top" xlink:title=" ">
<polygon fill="white" stroke="#666666" points="2014,-19 1868,-19 1868,0 2014,0 2014,-19"/>
<text text-anchor="middle" x="1941" y="-7" font-family="Helvetica,sans-Serif" font-size="10.00">QtListBox::showEditDialog</text>
</a>
</g>
</g>
<!-- Node1&#45;&gt;Node48 -->
<g id="edge58" class="edge">
<title>Node1&#45;&gt;Node48</title>
<path fill="none" stroke="#63b8ff" d="M2126.11,-178.95C2116.22,-142.22 2090.24,-65.61 2038,-27.5 2030.88,-22.3 2022.69,-18.48 2014.16,-15.67"/>
<polygon fill="#63b8ff" stroke="#63b8ff" points="2122.63,-179.47 2128.48,-188.3 2129.41,-177.74 2122.63,-179.47"/>
</g>
<!-- Node3 -->
<g id="node3" class="node">
<title>Node3</title>
<g id="a_node3"><a xlink:href="classQtProjectWizardContentPathsIndexedHeaders.html#adf90b029e5b823c80e3ef17f4fea48b5" target="_top" xlink:title=" ">
<polygon fill="white" stroke="#666666" points="1021,-611.5 860,-611.5 860,-581.5 1021,-581.5 1021,-611.5"/>
<text text-anchor="start" x="868" y="-599.5" font-family="Helvetica,sans-Serif" font-size="10.00">QtProjectWizardContentPaths</text>
<text text-anchor="middle" x="940.5" y="-588.5" font-family="Helvetica,sans-Serif" font-size="10.00">IndexedHeaders::populate</text>
</a>
</g>
</g>
<!-- Node2&#45;&gt;Node3 -->
<g id="edge2" class="edge">
<title>Node2&#45;&gt;Node3</title>
<path fill="none" stroke="#63b8ff" d="M1067.51,-596.5C1052.1,-596.5 1036.29,-596.5 1021.3,-596.5"/>
<polygon fill="#63b8ff" stroke="#63b8ff" points="1067.12,-600 1077.12,-596.5 1067.12,-593 1067.12,-600"/>
</g>
<!-- Node7 -->
<g id="node7" class="node">
<title>Node7</title>
<g id="a_node7"><a xlink:href="classQtProjectWizard.html#a86bf458db1053ae53a0633346def8c1b" target="_top" xlink:title=" ">
<polygon fill="white" stroke="#666666" points="593,-274.5 438,-274.5 438,-244.5 593,-244.5 593,-274.5"/>
<text text-anchor="start" x="446" y="-262.5" font-family="Helvetica,sans-Serif" font-size="10.00">QtProjectWizard::newSource</text>
<text text-anchor="middle" x="515.5" y="-251.5" font-family="Helvetica,sans-Serif" font-size="10.00">Group</text>
</a>
</g>
</g>
<!-- Node6&#45;&gt;Node7 -->
<g id="edge6" class="edge">
<title>Node6&#45;&gt;Node7</title>
<path fill="none" stroke="#63b8ff" d="M1066.64,-303.53C961.41,-303.6 787.62,-300.65 639,-283.5 621.56,-281.49 602.89,-278.35 585.52,-274.99"/>
<polygon fill="#63b8ff" stroke="#63b8ff" points="1066.36,-307.03 1076.36,-303.51 1066.35,-300.03 1066.36,-307.03"/>
</g>
<!-- Node11 -->
<g id="node11" class="node">
<title>Node11</title>
<g id="a_node11"><a xlink:href="classQtProjectWizard.html#a057c1ff5c06e74f85ea132a7da6577fc" target="_top" xlink:title=" ">
<polygon fill="white" stroke="#666666" points="1018,-274.5 863,-274.5 863,-244.5 1018,-244.5 1018,-274.5"/>
<text text-anchor="start" x="871" y="-262.5" font-family="Helvetica,sans-Serif" font-size="10.00">QtProjectWizard::newSource</text>
<text text-anchor="middle" x="940.5" y="-251.5" font-family="Helvetica,sans-Serif" font-size="10.00">GroupFromVS</text>
</a>
</g>
</g>
<!-- Node6&#45;&gt;Node11 -->
<g id="edge11" class="edge">
<title>Node6&#45;&gt;Node11</title>
<path fill="none" stroke="#63b8ff" d="M1071.8,-284.85C1054.07,-281.4 1035.65,-277.82 1018.42,-274.47"/>
<polygon fill="#63b8ff" stroke="#63b8ff" points="1071.06,-288.27 1081.54,-286.75 1072.39,-281.4 1071.06,-288.27"/>
</g>
<!-- Node8 -->
<g id="node8" class="node">
<title>Node8</title>
<g id="a_node8"><a xlink:href="classQtProjectWizard.html#a07441a9d111d82f9e93b7af8903cfe6b" target="_top" xlink:title=" ">
<polygon fill="white" stroke="#666666" points="372.5,-274.5 226.5,-274.5 226.5,-244.5 372.5,-244.5 372.5,-274.5"/>
<text text-anchor="start" x="234.5" y="-262.5" font-family="Helvetica,sans-Serif" font-size="10.00">QtProjectWizard::duplicate</text>
<text text-anchor="middle" x="299.5" y="-251.5" font-family="Helvetica,sans-Serif" font-size="10.00">SelectedSourceGroup</text>
</a>
</g>
</g>
<!-- Node7&#45;&gt;Node8 -->
<g id="edge7" class="edge">
<title>Node7&#45;&gt;Node8</title>
<path fill="none" stroke="#63b8ff" d="M426.03,-259.5C408.33,-259.5 389.93,-259.5 372.85,-259.5"/>
<polygon fill="#63b8ff" stroke="#63b8ff" points="426.03,-263 436.03,-259.5 426.03,-256 426.03,-263"/>
</g>
<!-- Node9 -->
<g id="node9" class="node">
<title>Node9</title>
<g id="a_node9"><a xlink:href="classQtProjectWizard.html#a38dd4706c9e55056686b25901902aa34" target="_top" xlink:title=" ">
<polygon fill="white" stroke="#666666" points="157.5,-296.5 13.5,-296.5 13.5,-266.5 157.5,-266.5 157.5,-296.5"/>
<text text-anchor="start" x="21.5" y="-284.5" font-family="Helvetica,sans-Serif" font-size="10.00">QtProjectWizard::populate</text>
<text text-anchor="middle" x="85.5" y="-273.5" font-family="Helvetica,sans-Serif" font-size="10.00">Window</text>
</a>
</g>
</g>
<!-- Node7&#45;&gt;Node9 -->
<g id="edge9" class="edge">
<title>Node7&#45;&gt;Node9</title>
<path fill="none" stroke="#63b8ff" d="M436.89,-277.05C422.07,-279.73 406.61,-282.08 392,-283.5 312.15,-291.25 220.02,-289.14 157.98,-286.12"/>
<polygon fill="#63b8ff" stroke="#63b8ff" points="437.42,-280.51 446.6,-275.22 436.13,-273.63 437.42,-280.51"/>
</g>
<!-- Node10 -->
<g id="node10" class="node">
<title>Node10</title>
<g id="a_node10"><a xlink:href="classQtProjectWizard.html#a439497d35f27306ce0eacc4833eabecf" target="_top" xlink:title=" ">
<polygon fill="white" stroke="#666666" points="384.5,-226 214.5,-226 214.5,-207 384.5,-207 384.5,-226"/>
<text text-anchor="middle" x="299.5" y="-214" font-family="Helvetica,sans-Serif" font-size="10.00">QtProjectWizard::windowReady</text>
</a>
</g>
</g>
<!-- Node7&#45;&gt;Node10 -->
<g id="edge10" class="edge">
<title>Node7&#45;&gt;Node10</title>
<path fill="none" stroke="#63b8ff" d="M426.49,-241.82C400.44,-236.58 372.83,-231.03 350.12,-226.47"/>
<polygon fill="#63b8ff" stroke="#63b8ff" points="425.57,-245.2 436.06,-243.74 426.95,-238.34 425.57,-245.2"/>
</g>
<!-- Node8&#45;&gt;Node9 -->
<g id="edge8" class="edge">
<title>Node8&#45;&gt;Node9</title>
<path fill="none" stroke="#63b8ff" d="M214.85,-268.18C195.98,-270.14 176.13,-272.2 157.82,-274.1"/>
<polygon fill="#63b8ff" stroke="#63b8ff" points="215.04,-271.68 224.63,-267.17 214.32,-264.72 215.04,-271.68"/>
</g>
<!-- Node12 -->
<g id="node12" class="node">
<title>Node12</title>
<g id="a_node12"><a xlink:href="classQtProjectWizard.html#a8bb797436f035c70437f9bfac60d8b6f" target="_top" xlink:title=" ">
<polygon fill="white" stroke="#666666" points="800,-274.5 657,-274.5 657,-244.5 800,-244.5 800,-274.5"/>
<text text-anchor="start" x="665" y="-262.5" font-family="Helvetica,sans-Serif" font-size="10.00">QtProjectWizard::selected</text>
<text text-anchor="middle" x="728.5" y="-251.5" font-family="Helvetica,sans-Serif" font-size="10.00">ProjectType</text>
</a>
</g>
</g>
<!-- Node11&#45;&gt;Node12 -->
<g id="edge12" class="edge">
<title>Node11&#45;&gt;Node12</title>
<path fill="none" stroke="#63b8ff" d="M851.67,-252.83C834.59,-252.67 816.88,-252.75 800.42,-253.08"/>
<polygon fill="#63b8ff" stroke="#63b8ff" points="851.24,-256.33 861.28,-252.95 851.33,-249.33 851.24,-256.33"/>
</g>
<!-- Node12&#45;&gt;Node7 -->
<g id="edge13" class="edge">
<title>Node12&#45;&gt;Node7</title>
<path fill="none" stroke="#63b8ff" d="M645.51,-259.5C628.34,-259.5 610.29,-259.5 593.32,-259.5"/>
<polygon fill="#63b8ff" stroke="#63b8ff" points="645.14,-263 655.14,-259.5 645.14,-256 645.14,-263"/>
</g>
<!-- Node12&#45;&gt;Node11 -->
<g id="edge14" class="edge">
<title>Node12&#45;&gt;Node11</title>
<path fill="none" stroke="#63b8ff" d="M811.88,-266.11C828.65,-266.32 846.23,-266.29 862.79,-266.03"/>
<polygon fill="#63b8ff" stroke="#63b8ff" points="811.99,-262.61 801.93,-265.95 811.87,-269.61 811.99,-262.61"/>
</g>
<!-- Node14 -->
<g id="node14" class="node">
<title>Node14</title>
<g id="a_node14"><a xlink:href="classQtProjectWizardContentPathsHeaderSearch.html#a16d6ec27e776e2547dff55c1d17bf02e" target="_top" xlink:title=" ">
<polygon fill="white" stroke="#666666" points="1808,-72.5 1647,-72.5 1647,-42.5 1808,-42.5 1808,-72.5"/>
<text text-anchor="start" x="1655" y="-60.5" font-family="Helvetica,sans-Serif" font-size="10.00">QtProjectWizardContentPaths</text>
<text text-anchor="middle" x="1727.5" y="-49.5" font-family="Helvetica,sans-Serif" font-size="10.00">HeaderSearch::populate</text>
</a>
</g>
</g>
<!-- Node13&#45;&gt;Node14 -->
<g id="edge16" class="edge">
<title>Node13&#45;&gt;Node14</title>
<path fill="none" stroke="#63b8ff" d="M1832.2,-57.5C1824.18,-57.5 1816.17,-57.5 1808.36,-57.5"/>
<polygon fill="#63b8ff" stroke="#63b8ff" points="1832.02,-61 1842.02,-57.5 1832.02,-54 1832.02,-61"/>
</g>
<!-- Node16 -->
<g id="node16" class="node">
<title>Node16</title>
<g id="a_node16"><a xlink:href="classQtWindow.html#a01f1b161e7d863f8e2b8c924da8e6fbb" target="_top" xlink:title=" ">
<polygon fill="white" stroke="#666666" points="1790.5,-532 1664.5,-532 1664.5,-513 1790.5,-513 1790.5,-532"/>
<text text-anchor="middle" x="1727.5" y="-520" font-family="Helvetica,sans-Serif" font-size="10.00">QtWindow::closeEvent</text>
</a>
</g>
</g>
<!-- Node15&#45;&gt;Node16 -->
<g id="edge18" class="edge">
<title>Node15&#45;&gt;Node16</title>
<path fill="none" stroke="#63b8ff" d="M1862.82,-522.5C1839.19,-522.5 1813.49,-522.5 1790.97,-522.5"/>
<polygon fill="#63b8ff" stroke="#63b8ff" points="1862.73,-526 1872.73,-522.5 1862.73,-519 1862.73,-526"/>
</g>
<!-- Node17 -->
<g id="node17" class="node">
<title>Node17</title>
<g id="a_node17"><a xlink:href="classQtWindow.html#a3fd4d4aa1c2f10535c8f3b0805143d54" target="_top" xlink:title=" ">
<polygon fill="white" stroke="#666666" points="1807,-633 1648,-633 1648,-614 1807,-614 1807,-633"/>
<text text-anchor="middle" x="1727.5" y="-621" font-family="Helvetica,sans-Serif" font-size="10.00">QtWindow::handleClosePress</text>
</a>
</g>
</g>
<!-- Node15&#45;&gt;Node17 -->
<g id="edge19" class="edge">
<title>Node15&#45;&gt;Node17</title>
<path fill="none" stroke="#63b8ff" d="M1909.01,-537.3C1865.27,-558.19 1786.59,-595.76 1749.25,-613.59"/>
<polygon fill="#63b8ff" stroke="#63b8ff" points="1910.45,-540.49 1917.97,-533.02 1907.44,-534.17 1910.45,-540.49"/>
</g>
<!-- Node46 -->
<g id="node46" class="node">
<title>Node46</title>
<g id="a_node46"><a xlink:href="classQtPreferencesWindow.html#a29f8a0bfa062824baf9c5b2668f4a7ac" target="_top" xlink:title=" ">
<polygon fill="white" stroke="#666666" points="1790,-494.5 1665,-494.5 1665,-464.5 1790,-464.5 1790,-494.5"/>
<text text-anchor="start" x="1673" y="-482.5" font-family="Helvetica,sans-Serif" font-size="10.00">QtPreferencesWindow</text>
<text text-anchor="middle" x="1727.5" y="-471.5" font-family="Helvetica,sans-Serif" font-size="10.00">::handleNext</text>
</a>
</g>
</g>
<!-- Node15&#45;&gt;Node46 -->
<g id="edge55" class="edge">
<title>Node15&#45;&gt;Node46</title>
<path fill="none" stroke="#63b8ff" d="M1879.69,-510.24C1851.66,-504.54 1818.37,-497.77 1790.17,-492.04"/>
<polygon fill="#63b8ff" stroke="#63b8ff" points="1878.97,-513.66 1889.46,-512.23 1880.36,-506.8 1878.97,-513.66"/>
</g>
<!-- Node47 -->
<g id="node47" class="node">
<title>Node47</title>
<g id="a_node47"><a xlink:href="classQtWindow.html#a480755df1c85958ff99e3cdfca2ce2e4" target="_top" xlink:title=" ">
<polygon fill="white" stroke="#666666" points="1799.5,-569 1655.5,-569 1655.5,-550 1799.5,-550 1799.5,-569"/>
<text text-anchor="middle" x="1727.5" y="-557" font-family="Helvetica,sans-Serif" font-size="10.00">QtWindow::keyPressEvent</text>
</a>
</g>
</g>
<!-- Node15&#45;&gt;Node47 -->
<g id="edge56" class="edge">
<title>Node15&#45;&gt;Node47</title>
<path fill="none" stroke="#63b8ff" d="M1871.79,-534.43C1843.95,-539.3 1812.13,-544.87 1785.56,-549.52"/>
<polygon fill="#63b8ff" stroke="#63b8ff" points="1872.31,-537.9 1881.55,-532.72 1871.1,-531 1872.31,-537.9"/>
</g>
<!-- Node18 -->
<g id="node18" class="node">
<title>Node18</title>
<g id="a_node18"><a xlink:href="classQtWindow.html#a93109d9942e168167f5ce24d815560c7" target="_top" xlink:title=" ">
<polygon fill="white" stroke="#666666" points="1611,-634 1470,-634 1470,-615 1611,-615 1611,-634"/>
<text text-anchor="middle" x="1540.5" y="-622" font-family="Helvetica,sans-Serif" font-size="10.00">QtWindow::createButtons</text>
</a>
</g>
</g>
<!-- Node17&#45;&gt;Node18 -->
<g id="edge20" class="edge">
<title>Node17&#45;&gt;Node18</title>
<path fill="none" stroke="#63b8ff" d="M1636.21,-623.99C1627.89,-624.03 1619.56,-624.08 1611.46,-624.12"/>
<polygon fill="#63b8ff" stroke="#63b8ff" points="1636.01,-627.49 1645.99,-623.94 1635.97,-620.49 1636.01,-627.49"/>
</g>
<!-- Node19 -->
<g id="node19" class="node">
<title>Node19</title>
<g id="a_node19"><a xlink:href="classQtWindow.html#a75eba6bb1626f298f32680bead1410ae" target="_top" xlink:title=" ">
<polygon fill="white" stroke="#666666" points="1417,-394 1317,-394 1317,-375 1417,-375 1417,-394"/>
<text text-anchor="middle" x="1367" y="-382" font-family="Helvetica,sans-Serif" font-size="10.00">QtWindow::setup</text>
</a>
</g>
</g>
<!-- Node18&#45;&gt;Node19 -->
<g id="edge21" class="edge">
<title>Node18&#45;&gt;Node19</title>
<path fill="none" stroke="#63b8ff" d="M1525.9,-605.47C1491.31,-557.07 1400.91,-430.56 1375.02,-394.33"/>
<polygon fill="#63b8ff" stroke="#63b8ff" points="1523.02,-607.46 1531.68,-613.56 1528.72,-603.39 1523.02,-607.46"/>
</g>
<!-- Node41 -->
<g id="node41" class="node">
<title>Node41</title>
<g id="a_node41"><a xlink:href="classQtBookmarkBrowser.html#a22e535ba1c82fba982b831c11ab8aa84" target="_top" xlink:title=" ">
<polygon fill="white" stroke="#666666" points="1434,-642.5 1300,-642.5 1300,-612.5 1434,-612.5 1434,-642.5"/>
<text text-anchor="start" x="1308" y="-630.5" font-family="Helvetica,sans-Serif" font-size="10.00">QtBookmarkBrowser::</text>
<text text-anchor="middle" x="1367" y="-619.5" font-family="Helvetica,sans-Serif" font-size="10.00">setupBookmarkBrowser</text>
</a>
</g>
</g>
<!-- Node18&#45;&gt;Node41 -->
<g id="edge50" class="edge">
<title>Node18&#45;&gt;Node41</title>
<path fill="none" stroke="#63b8ff" d="M1458.42,-625.92C1450.36,-626.06 1442.25,-626.2 1434.37,-626.34"/>
<polygon fill="#63b8ff" stroke="#63b8ff" points="1458.29,-629.42 1468.23,-625.75 1458.17,-622.42 1458.29,-629.42"/>
</g>
<!-- Node43 -->
<g id="node43" class="node">
<title>Node43</title>
<g id="a_node43"><a xlink:href="classQtBookmarkCreator.html#ac6fd8c9e3df2feb79f801483f3020f13" target="_top" xlink:title=" ">
<polygon fill="white" stroke="#666666" points="1432,-697.5 1302,-697.5 1302,-667.5 1432,-667.5 1432,-697.5"/>
<text text-anchor="start" x="1310" y="-685.5" font-family="Helvetica,sans-Serif" font-size="10.00">QtBookmarkCreator::</text>
<text text-anchor="middle" x="1367" y="-674.5" font-family="Helvetica,sans-Serif" font-size="10.00">setupBookmarkCreator</text>
</a>
</g>
</g>
<!-- Node18&#45;&gt;Node43 -->
<g id="edge52" class="edge">
<title>Node18&#45;&gt;Node43</title>
<path fill="none" stroke="#63b8ff" d="M1499.16,-638.14C1473.48,-646.83 1440.16,-658.1 1413.53,-667.1"/>
<polygon fill="#63b8ff" stroke="#63b8ff" points="1500.23,-641.47 1508.58,-634.96 1497.99,-634.84 1500.23,-641.47"/>
</g>
<!-- Node19&#45;&gt;Node2 -->
<g id="edge22" class="edge">
<title>Node19&#45;&gt;Node2</title>
<path fill="none" stroke="#63b8ff" d="M1327.21,-399.38C1317.06,-404.94 1307.01,-412.22 1300,-421.5 1258.41,-476.55 1312.72,-523.65 1264,-572.5 1259.36,-577.16 1253.98,-580.97 1248.17,-584.08"/>
<polygon fill="#63b8ff" stroke="#63b8ff" points="1328.53,-402.63 1335.93,-395.05 1325.42,-396.36 1328.53,-402.63"/>
</g>
<!-- Node19&#45;&gt;Node6 -->
<g id="edge23" class="edge">
<title>Node19&#45;&gt;Node6</title>
<path fill="none" stroke="#63b8ff" d="M1341.83,-368.58C1321.71,-355.94 1291.94,-338.59 1264,-327.5 1254.98,-323.92 1245.29,-320.73 1235.62,-317.93"/>
<polygon fill="#63b8ff" stroke="#63b8ff" points="1339.82,-371.46 1350.13,-373.89 1343.59,-365.56 1339.82,-371.46"/>
</g>
<!-- Node20 -->
<g id="node20" class="node">
<title>Node20</title>
<g id="a_node20"><a xlink:href="classQtProjectWizard.html#a3f75e33f067e7c55ff625953fe657a84" target="_top" xlink:title=" ">
<polygon fill="white" stroke="#666666" points="1240.5,-478 1086.5,-478 1086.5,-459 1240.5,-459 1240.5,-478"/>
<text text-anchor="middle" x="1163.5" y="-466" font-family="Helvetica,sans-Serif" font-size="10.00">QtProjectWizard::editProject</text>
</a>
</g>
</g>
<!-- Node19&#45;&gt;Node20 -->
<g id="edge24" class="edge">
<title>Node19&#45;&gt;Node20</title>
<path fill="none" stroke="#63b8ff" d="M1336.41,-399.85C1324.82,-406.18 1311.56,-413.82 1300,-421.5 1283.11,-432.71 1282.47,-441.14 1264,-449.5 1255.91,-453.16 1247.14,-456.12 1238.27,-458.5"/>
<polygon fill="#63b8ff" stroke="#63b8ff" points="1338,-402.97 1345.15,-395.16 1334.69,-396.81 1338,-402.97"/>
</g>
<!-- Node21 -->
<g id="node21" class="node">
<title>Node21</title>
<g id="a_node21"><a xlink:href="classQtProjectWizard.html#a2760efcb95c2ad517a9d4d8bfd49254a" target="_top" xlink:title=" ">
<polygon fill="white" stroke="#666666" points="1241,-392 1086,-392 1086,-373 1241,-373 1241,-392"/>
<text text-anchor="middle" x="1163.5" y="-380" font-family="Helvetica,sans-Serif" font-size="10.00">QtProjectWizard::newProject</text>
</a>
</g>
</g>
<!-- Node19&#45;&gt;Node21 -->
<g id="edge25" class="edge">
<title>Node19&#45;&gt;Node21</title>
<path fill="none" stroke="#63b8ff" d="M1305.45,-383.9C1285.24,-383.7 1262.44,-383.47 1241.16,-383.26"/>
<polygon fill="#63b8ff" stroke="#63b8ff" points="1305.16,-387.4 1315.19,-384 1305.23,-380.4 1305.16,-387.4"/>
</g>
<!-- Node30 -->
<g id="node30" class="node">
<title>Node30</title>
<g id="a_node30"><a xlink:href="classQtProjectWizard.html#a37eed23c3c03afff75d7261065beda1e" target="_top" xlink:title=" ">
<polygon fill="white" stroke="#666666" points="1241,-563.5 1086,-563.5 1086,-533.5 1241,-533.5 1241,-563.5"/>
<text text-anchor="start" x="1094" y="-551.5" font-family="Helvetica,sans-Serif" font-size="10.00">QtProjectWizard::newProject</text>
<text text-anchor="middle" x="1163.5" y="-540.5" font-family="Helvetica,sans-Serif" font-size="10.00">FromCDB</text>
</a>
</g>
</g>
<!-- Node19&#45;&gt;Node30 -->
<g id="edge36" class="edge">
<title>Node19&#45;&gt;Node30</title>
<path fill="none" stroke="#63b8ff" d="M1328.58,-399.43C1318.19,-405.06 1307.66,-412.37 1300,-421.5 1268.83,-458.65 1299.95,-491.96 1264,-524.5 1257.41,-530.46 1249.6,-535.01 1241.3,-538.47"/>
<polygon fill="#63b8ff" stroke="#63b8ff" points="1330.06,-402.61 1337.46,-395.03 1326.95,-396.33 1330.06,-402.61"/>
</g>
<!-- Node33 -->
<g id="node33" class="node">
<title>Node33</title>
<g id="a_node33"><a xlink:href="classQtMainWindow.html#a8370abeee5ca1398b671bb1ff51a392b" target="_top" xlink:title=" ">
<polygon fill="white" stroke="#666666" points="1244,-355 1083,-355 1083,-336 1244,-336 1244,-355"/>
<text text-anchor="middle" x="1163.5" y="-343" font-family="Helvetica,sans-Serif" font-size="10.00">QtMainWindow::openSettings</text>
</a>
</g>
</g>
<!-- Node19&#45;&gt;Node33 -->
<g id="edge39" class="edge">
<title>Node19&#45;&gt;Node33</title>
<path fill="none" stroke="#63b8ff" d="M1305.48,-372.58C1291.84,-369.91 1277.43,-367.1 1264,-364.5 1248.72,-361.54 1232.11,-358.36 1216.92,-355.46"/>
<polygon fill="#63b8ff" stroke="#63b8ff" points="1304.75,-376.01 1315.24,-374.5 1306.1,-369.14 1304.75,-376.01"/>
</g>
<!-- Node19&#45;&gt;Node35 -->
<g id="edge42" class="edge">
<title>Node19&#45;&gt;Node35</title>
<path fill="none" stroke="#63b8ff" d="M1352.75,-365.67C1335.12,-341.97 1301.75,-301.58 1264,-278.5 1258.54,-275.16 1252.67,-272.17 1246.63,-269.49"/>
<polygon fill="#63b8ff" stroke="#63b8ff" points="1349.71,-367.44 1358.42,-373.48 1355.38,-363.33 1349.71,-367.44"/>
</g>
<!-- Node19&#45;&gt;Node36 -->
<g id="edge43" class="edge">
<title>Node19&#45;&gt;Node36</title>
<path fill="none" stroke="#63b8ff" d="M1359.2,-364.09C1346.4,-328.91 1315.3,-257.03 1264,-219.5 1254.23,-212.35 1242.62,-207.23 1230.85,-203.57"/>
<polygon fill="#63b8ff" stroke="#63b8ff" points="1355.87,-365.17 1362.47,-373.46 1362.48,-362.86 1355.87,-365.17"/>
</g>
<!-- Node37 -->
<g id="node37" class="node">
<title>Node37</title>
<g id="a_node37"><a xlink:href="classQtMainWindow.html#acc7121bc2be7adf4e72f0818fd9bcf23" target="_top" xlink:title=" ">
<polygon fill="white" stroke="#666666" points="1247.5,-440.5 1079.5,-440.5 1079.5,-410.5 1247.5,-410.5 1247.5,-440.5"/>
<text text-anchor="start" x="1087.5" y="-428.5" font-family="Helvetica,sans-Serif" font-size="10.00">QtMainWindow::showKeyboard</text>
<text text-anchor="middle" x="1163.5" y="-417.5" font-family="Helvetica,sans-Serif" font-size="10.00">Shortcuts</text>
</a>
</g>
</g>
<!-- Node19&#45;&gt;Node37 -->
<g id="edge44" class="edge">
<title>Node19&#45;&gt;Node37</title>
<path fill="none" stroke="#63b8ff" d="M1305.88,-396.73C1285.36,-400.91 1262.16,-405.63 1240.56,-410.02"/>
<polygon fill="#63b8ff" stroke="#63b8ff" points="1306.38,-400.2 1315.48,-394.78 1304.98,-393.34 1306.38,-400.2"/>
</g>
<!-- Node39 -->
<g id="node39" class="node">
<title>Node39</title>
<g id="a_node39"><a xlink:href="classQtMainWindow.html#ae4182ae80d590634778845cbd0f9c9fe" target="_top" xlink:title=" ">
<polygon fill="white" stroke="#666666" points="1245.5,-515 1081.5,-515 1081.5,-496 1245.5,-496 1245.5,-515"/>
<text text-anchor="middle" x="1163.5" y="-503" font-family="Helvetica,sans-Serif" font-size="10.00">QtMainWindow::showLicenses</text>
</a>
</g>
</g>
<!-- Node19&#45;&gt;Node39 -->
<g id="edge47" class="edge">
<title>Node19&#45;&gt;Node39</title>
<path fill="none" stroke="#63b8ff" d="M1330.84,-399.51C1320.06,-405.28 1308.75,-412.65 1300,-421.5 1276.51,-445.26 1291.09,-467.94 1264,-487.5 1258.45,-491.51 1252.28,-494.71 1245.81,-497.26"/>
<polygon fill="#63b8ff" stroke="#63b8ff" points="1332.18,-402.76 1339.55,-395.15 1329.05,-396.5 1332.18,-402.76"/>
</g>
<!-- Node19&#45;&gt;Node40 -->
<g id="edge49" class="edge">
<title>Node19&#45;&gt;Node40</title>
<path fill="none" stroke="#63b8ff" d="M1362.22,-363.51C1353.32,-320.36 1326.85,-221.46 1264,-170.5 1260,-167.25 1255.62,-164.44 1251.02,-161.99"/>
<polygon fill="#63b8ff" stroke="#63b8ff" points="1358.74,-363.92 1364.08,-373.07 1365.61,-362.59 1358.74,-363.92"/>
</g>
<!-- Node22 -->
<g id="node22" class="node">
<title>Node22</title>
<g id="a_node22"><a xlink:href="classQtMainWindow.html#a7c2acddade0de0d92cf150427e8b634e" target="_top" xlink:title=" ">
<polygon fill="white" stroke="#666666" points="1016,-392 865,-392 865,-373 1016,-373 1016,-392"/>
<text text-anchor="middle" x="940.5" y="-380" font-family="Helvetica,sans-Serif" font-size="10.00">QtMainWindow::newProject</text>
</a>
</g>
</g>
<!-- Node21&#45;&gt;Node22 -->
<g id="edge26" class="edge">
<title>Node21&#45;&gt;Node22</title>
<path fill="none" stroke="#63b8ff" d="M1074.06,-382.5C1054.94,-382.5 1034.89,-382.5 1016.35,-382.5"/>
<polygon fill="#63b8ff" stroke="#63b8ff" points="1074,-386 1084,-382.5 1074,-379 1074,-386"/>
</g>
<!-- Node23 -->
<g id="node23" class="node">
<title>Node23</title>
<g id="a_node23"><a xlink:href="classQtMainWindow.html#a664153854c294f6243af5fbb203687e1" target="_top" xlink:title=" ">
<polygon fill="white" stroke="#666666" points="392,-425 207,-425 207,-406 392,-406 392,-425"/>
<text text-anchor="middle" x="299.5" y="-413" font-family="Helvetica,sans-Serif" font-size="10.00">QtMainWindow::setupProjectMenu</text>
</a>
</g>
</g>
<!-- Node22&#45;&gt;Node23 -->
<g id="edge27" class="edge">
<title>Node22&#45;&gt;Node23</title>
<path fill="none" stroke="#63b8ff" d="M853.38,-382.54C751.6,-383.19 577.21,-386.25 428,-398.5 407.64,-400.17 385.54,-402.82 365.55,-405.53"/>
<polygon fill="#63b8ff" stroke="#63b8ff" points="853.33,-386.04 863.31,-382.48 853.29,-379.04 853.33,-386.04"/>
</g>
<!-- Node25 -->
<g id="node25" class="node">
<title>Node25</title>
<g id="a_node25"><a xlink:href="classQtMainWindow.html#a404ebb484bf058583023f652765ec5b2" target="_top" xlink:title=" ">
<polygon fill="white" stroke="#666666" points="818,-445 639,-445 639,-426 818,-426 818,-445"/>
<text text-anchor="middle" x="728.5" y="-433" font-family="Helvetica,sans-Serif" font-size="10.00">QtMainWindow::showStartScreen</text>
</a>
</g>
</g>
<!-- Node22&#45;&gt;Node25 -->
<g id="edge29" class="edge">
<title>Node22&#45;&gt;Node25</title>
<path fill="none" stroke="#63b8ff" d="M888.98,-395.25C852.09,-404.56 802.79,-417 768.82,-425.58"/>
<polygon fill="#63b8ff" stroke="#63b8ff" points="889.69,-398.68 898.53,-392.84 887.98,-391.89 889.69,-398.68"/>
</g>
<!-- Node24 -->
<g id="node24" class="node">
<title>Node24</title>
<g id="a_node24"><a xlink:href="classQtMainWindow.html#ab526da2f9eb598fdbee15a62a4323ad0" target="_top" xlink:title=" ">
<polygon fill="white" stroke="#666666" points="171,-462 0,-462 0,-443 171,-443 171,-462"/>
<text text-anchor="middle" x="85.5" y="-450" font-family="Helvetica,sans-Serif" font-size="10.00">QtMainWindow::QtMainWindow</text>
</a>
</g>
</g>
<!-- Node23&#45;&gt;Node24 -->
<g id="edge28" class="edge">
<title>Node23&#45;&gt;Node24</title>
<path fill="none" stroke="#63b8ff" d="M230.13,-427.43C202.23,-432.3 170.33,-437.87 143.69,-442.52"/>
<polygon fill="#63b8ff" stroke="#63b8ff" points="230.67,-430.89 239.92,-425.72 229.47,-424 230.67,-430.89"/>
</g>
<!-- Node26 -->
<g id="node26" class="node">
<title>Node26</title>
<g id="a_node26"><a xlink:href="classQtMainWindow.html#aa58fe1b13bce5824a67d5084087b9670" target="_top" xlink:title=" ">
<polygon fill="white" stroke="#666666" points="593.5,-426 437.5,-426 437.5,-407 593.5,-407 593.5,-426"/>
<text text-anchor="middle" x="515.5" y="-414" font-family="Helvetica,sans-Serif" font-size="10.00">QtMainWindow::closeProject</text>
</a>
</g>
</g>
<!-- Node25&#45;&gt;Node26 -->
<g id="edge30" class="edge">
<title>Node25&#45;&gt;Node26</title>
<path fill="none" stroke="#63b8ff" d="M627.41,-426.49C616.15,-425.47 604.81,-424.45 593.89,-423.47"/>
<polygon fill="#63b8ff" stroke="#63b8ff" points="626.85,-429.95 637.12,-427.36 627.48,-422.98 626.85,-429.95"/>
</g>
<!-- Node27 -->
<g id="node27" class="node">
<title>Node27</title>
<g id="a_node27"><a xlink:href="classQtMainWindow.html#a5a89659db627ceb71914275b5bbdd1eb" target="_top" xlink:title=" ">
<polygon fill="white" stroke="#666666" points="594,-463 437,-463 437,-444 594,-444 594,-463"/>
<text text-anchor="middle" x="515.5" y="-451" font-family="Helvetica,sans-Serif" font-size="10.00">QtMainWindow::loadWindow</text>
</a>
</g>
</g>
<!-- Node25&#45;&gt;Node27 -->
<g id="edge32" class="edge">
<title>Node25&#45;&gt;Node27</title>
<path fill="none" stroke="#63b8ff" d="M627.5,-444.03C616.32,-444.98 605.06,-445.94 594.22,-446.87"/>
<polygon fill="#63b8ff" stroke="#63b8ff" points="627.45,-447.55 637.12,-443.21 626.86,-440.57 627.45,-447.55"/>
</g>
<!-- Node29 -->
<g id="node29" class="node">
<title>Node29</title>
<g id="a_node29"><a xlink:href="classQtMainWindow.html#a304f403073f323be6d6a388bb5c64b65" target="_top" xlink:title=" ">
<polygon fill="white" stroke="#666666" points="603,-500 428,-500 428,-481 603,-481 603,-500"/>
<text text-anchor="middle" x="515.5" y="-488" font-family="Helvetica,sans-Serif" font-size="10.00">QtMainWindow::setupViewMenu</text>
</a>
</g>
</g>
<!-- Node25&#45;&gt;Node29 -->
<g id="edge34" class="edge">
<title>Node25&#45;&gt;Node29</title>
<path fill="none" stroke="#63b8ff" d="M685.86,-448.82C661.79,-456.29 630.84,-465.48 603,-472.5 591.7,-475.35 579.48,-478.09 567.89,-480.55"/>
<polygon fill="#63b8ff" stroke="#63b8ff" points="686.8,-452.2 695.3,-445.87 684.71,-445.52 686.8,-452.2"/>
</g>
<!-- Node26&#45;&gt;Node23 -->
<g id="edge31" class="edge">
<title>Node26&#45;&gt;Node23</title>
<path fill="none" stroke="#63b8ff" d="M425.8,-416.09C414.72,-416.03 403.36,-415.98 392.23,-415.93"/>
<polygon fill="#63b8ff" stroke="#63b8ff" points="425.71,-419.59 435.73,-416.13 425.74,-412.59 425.71,-419.59"/>
</g>
<!-- Node28 -->
<g id="node28" class="node">
<title>Node28</title>
<g id="a_node28"><a xlink:href="classQtMainView.html#a245543879da96e4e8a8f30c1724014de" target="_top" xlink:title=" ">
<polygon fill="white" stroke="#666666" points="370.5,-462 228.5,-462 228.5,-443 370.5,-443 370.5,-462"/>
<text text-anchor="middle" x="299.5" y="-450" font-family="Helvetica,sans-Serif" font-size="10.00">QtMainView::loadWindow</text>
</a>
</g>
</g>
<!-- Node27&#45;&gt;Node28 -->
<g id="edge33" class="edge">
<title>Node27&#45;&gt;Node28</title>
<path fill="none" stroke="#63b8ff" d="M425.16,-453.08C407.03,-453 388.21,-452.91 370.85,-452.83"/>
<polygon fill="#63b8ff" stroke="#63b8ff" points="425.11,-456.58 435.12,-453.13 425.14,-449.58 425.11,-456.58"/>
</g>
<!-- Node29&#45;&gt;Node24 -->
<g id="edge35" class="edge">
<title>Node29&#45;&gt;Node24</title>
<path fill="none" stroke="#63b8ff" d="M416.37,-486.81C355.89,-483.94 276.81,-479.14 207,-471.5 185.95,-469.2 162.96,-465.79 142.75,-462.5"/>
<polygon fill="#63b8ff" stroke="#63b8ff" points="416.16,-490.3 426.32,-487.27 416.49,-483.31 416.16,-490.3"/>
</g>
<!-- Node31 -->
<g id="node31" class="node">
<title>Node31</title>
<g id="a_node31"><a xlink:href="classQtMainWindow.html#a87a611d58affd410bec964d84e0d5112" target="_top" xlink:title=" ">
<polygon fill="white" stroke="#666666" points="1016,-563.5 865,-563.5 865,-533.5 1016,-533.5 1016,-563.5"/>
<text text-anchor="start" x="873" y="-551.5" font-family="Helvetica,sans-Serif" font-size="10.00">QtMainWindow::newProject</text>
<text text-anchor="middle" x="940.5" y="-540.5" font-family="Helvetica,sans-Serif" font-size="10.00">FromCDB</text>
</a>
</g>
</g>
<!-- Node30&#45;&gt;Node31 -->
<g id="edge37" class="edge">
<title>Node30&#45;&gt;Node31</title>
<path fill="none" stroke="#63b8ff" d="M1074.06,-548.5C1054.94,-548.5 1034.89,-548.5 1016.35,-548.5"/>
<polygon fill="#63b8ff" stroke="#63b8ff" points="1074,-552 1084,-548.5 1074,-545 1074,-552"/>
</g>
<!-- Node32 -->
<g id="node32" class="node">
<title>Node32</title>
<g id="a_node32"><a xlink:href="classQtMainView.html#aaf1c504629c466f7d92882fd65916ffc" target="_top" xlink:title=" ">
<polygon fill="white" stroke="#666666" points="807.5,-576 649.5,-576 649.5,-557 807.5,-557 807.5,-576"/>
<text text-anchor="middle" x="728.5" y="-564" font-family="Helvetica,sans-Serif" font-size="10.00">QtMainView::handleMessage</text>
</a>
</g>
</g>
<!-- Node31&#45;&gt;Node32 -->
<g id="edge38" class="edge">
<title>Node31&#45;&gt;Node32</title>
<path fill="none" stroke="#63b8ff" d="M853.23,-555.89C838.24,-557.18 822.72,-558.51 807.95,-559.78"/>
<polygon fill="#63b8ff" stroke="#63b8ff" points="853.4,-559.39 863.07,-555.05 852.8,-552.42 853.4,-559.39"/>
</g>
<!-- Node34 -->
<g id="node34" class="node">
<title>Node34</title>
<g id="a_node34"><a xlink:href="classQtMainWindow.html#ab9871250f6bae1a7f161788b2c797781" target="_top" xlink:title=" ">
<polygon fill="white" stroke="#666666" points="813.5,-350 643.5,-350 643.5,-331 813.5,-331 813.5,-350"/>
<text text-anchor="middle" x="728.5" y="-338" font-family="Helvetica,sans-Serif" font-size="10.00">QtMainWindow::setupEditMenu</text>
</a>
</g>
</g>
<!-- Node33&#45;&gt;Node34 -->
<g id="edge40" class="edge">
<title>Node33&#45;&gt;Node34</title>
<path fill="none" stroke="#63b8ff" d="M1071.13,-344.44C995.1,-343.57 887.74,-342.33 813.76,-341.47"/>
<polygon fill="#63b8ff" stroke="#63b8ff" points="1071.02,-347.94 1081.06,-344.56 1071.1,-340.94 1071.02,-347.94"/>
</g>
<!-- Node34&#45;&gt;Node24 -->
<g id="edge41" class="edge">
<title>Node34&#45;&gt;Node24</title>
<path fill="none" stroke="#63b8ff" d="M631.75,-341.9C526.01,-345.52 351.6,-357.69 207,-397.5 168.2,-408.18 126.14,-429.96 103.4,-442.67"/>
<polygon fill="#63b8ff" stroke="#63b8ff" points="631.63,-345.4 641.51,-341.58 631.41,-338.41 631.63,-345.4"/>
</g>
<!-- Node38 -->
<g id="node38" class="node">
<title>Node38</title>
<g id="a_node38"><a xlink:href="classQtMainWindow.html#ab225e8eeed9eae85d5ab3748c1d17903" target="_top" xlink:title=" ">
<polygon fill="white" stroke="#666666" points="1027,-515 854,-515 854,-496 1027,-496 1027,-515"/>
<text text-anchor="middle" x="940.5" y="-503" font-family="Helvetica,sans-Serif" font-size="10.00">QtMainWindow::setupHelpMenu</text>
</a>
</g>
</g>
<!-- Node37&#45;&gt;Node38 -->
<g id="edge45" class="edge">
<title>Node37&#45;&gt;Node38</title>
<path fill="none" stroke="#63b8ff" d="M1083.21,-444.05C1076.33,-446.07 1069.51,-448.23 1063,-450.5 1025.62,-463.54 983.96,-483.7 960.42,-495.65"/>
<polygon fill="#63b8ff" stroke="#63b8ff" points="1083.92,-447.49 1092.59,-441.39 1082.01,-440.75 1083.92,-447.49"/>
</g>
<!-- Node38&#45;&gt;Node24 -->
<g id="edge46" class="edge">
<title>Node38&#45;&gt;Node24</title>
<path fill="none" stroke="#63b8ff" d="M842.37,-514.47C700.98,-525.11 430.91,-536.22 207,-491.5 173.15,-484.74 135.49,-471.6 111.44,-462.45"/>
<polygon fill="#63b8ff" stroke="#63b8ff" points="842.36,-517.99 852.06,-513.73 841.82,-511.01 842.36,-517.99"/>
</g>
<!-- Node39&#45;&gt;Node38 -->
<g id="edge48" class="edge">
<title>Node39&#45;&gt;Node38</title>
<path fill="none" stroke="#63b8ff" d="M1069.89,-505.5C1055.72,-505.5 1041.14,-505.5 1027.13,-505.5"/>
<polygon fill="#63b8ff" stroke="#63b8ff" points="1069.64,-509 1079.64,-505.5 1069.64,-502 1069.64,-509"/>
</g>
<!-- Node42 -->
<g id="node42" class="node">
<title>Node42</title>
<g id="a_node42"><a xlink:href="classQtBookmarkView.html#ace17bd707600267bc2ddfd40e98a0b4a" target="_top" xlink:title=" ">
<polygon fill="white" stroke="#666666" points="1263,-649 1064,-649 1064,-630 1263,-630 1263,-649"/>
<text text-anchor="middle" x="1163.5" y="-637" font-family="Helvetica,sans-Serif" font-size="10.00">QtBookmarkView::displayBookmarks</text>
</a>
</g>
</g>
<!-- Node41&#45;&gt;Node42 -->
<g id="edge51" class="edge">
<title>Node41&#45;&gt;Node42</title>
<path fill="none" stroke="#63b8ff" d="M1288.31,-632.13C1280.1,-632.62 1271.68,-633.12 1263.27,-633.62"/>
<polygon fill="#63b8ff" stroke="#63b8ff" points="1288.46,-635.62 1298.23,-631.54 1288.04,-628.64 1288.46,-635.62"/>
</g>
<!-- Node44 -->
<g id="node44" class="node">
<title>Node44</title>
<g id="a_node44"><a xlink:href="classQtBookmarkView.html#a3ae56c9f3a6c0ba8aff5a29cc55d3383" target="_top" xlink:title=" ">
<polygon fill="white" stroke="#666666" points="1260.5,-745.5 1066.5,-745.5 1066.5,-715.5 1260.5,-715.5 1260.5,-745.5"/>
<text text-anchor="start" x="1074.5" y="-733.5" font-family="Helvetica,sans-Serif" font-size="10.00">QtBookmarkView::displayBookmark</text>
<text text-anchor="middle" x="1163.5" y="-722.5" font-family="Helvetica,sans-Serif" font-size="10.00">Creator</text>
</a>
</g>
</g>
<!-- Node43&#45;&gt;Node44 -->
<g id="edge53" class="edge">
<title>Node43&#45;&gt;Node44</title>
<path fill="none" stroke="#63b8ff" d="M1290.64,-700.45C1270.45,-705.26 1248.8,-710.42 1229.24,-715.08"/>
<polygon fill="#63b8ff" stroke="#63b8ff" points="1291.3,-703.89 1300.22,-698.17 1289.68,-697.08 1291.3,-703.89"/>
</g>
<!-- Node45 -->
<g id="node45" class="node">
<title>Node45</title>
<g id="a_node45"><a xlink:href="classQtBookmarkView.html#ad8fcfeeeb36cf61846c5481f05fe1138" target="_top" xlink:title=" ">
<polygon fill="white" stroke="#666666" points="1260.5,-697.5 1066.5,-697.5 1066.5,-667.5 1260.5,-667.5 1260.5,-697.5"/>
<text text-anchor="start" x="1074.5" y="-685.5" font-family="Helvetica,sans-Serif" font-size="10.00">QtBookmarkView::displayBookmark</text>
<text text-anchor="middle" x="1163.5" y="-674.5" font-family="Helvetica,sans-Serif" font-size="10.00">Editor</text>
</a>
</g>
</g>
<!-- Node43&#45;&gt;Node45 -->
<g id="edge54" class="edge">
<title>Node43&#45;&gt;Node45</title>
<path fill="none" stroke="#63b8ff" d="M1290.19,-682.5C1280.62,-682.5 1270.72,-682.5 1260.88,-682.5"/>
<polygon fill="#63b8ff" stroke="#63b8ff" points="1290.18,-686 1300.18,-682.5 1290.18,-679 1290.18,-686"/>
</g>
<!-- Node49 -->
<g id="node49" class="node">
<title>Node49</title>
<g id="a_node49"><a xlink:href="classQtListBox.html#ae25276fd1d20d8e14aed47e1f3f7aa35" target="_top" xlink:title=" ">
<polygon fill="white" stroke="#666666" points="1786,-19 1669,-19 1669,0 1786,0 1786,-19"/>
<text text-anchor="middle" x="1727.5" y="-7" font-family="Helvetica,sans-Serif" font-size="10.00">QtListBox::QtListBox</text>
</a>
</g>
</g>
<!-- Node48&#45;&gt;Node49 -->
<g id="edge59" class="edge">
<title>Node48&#45;&gt;Node49</title>
<path fill="none" stroke="#63b8ff" d="M1856.15,-9.5C1832.71,-9.5 1807.78,-9.5 1786.22,-9.5"/>
<polygon fill="#63b8ff" stroke="#63b8ff" points="1856,-13 1866,-9.5 1856,-6 1856,-13"/>
</g>
</g>
</svg>
