<?xml version="1.0" encoding="UTF-8" standalone="no"?>
<!DOCTYPE svg PUBLIC "-//W3C//DTD SVG 1.1//EN"
 "http://www.w3.org/Graphics/SVG/1.1/DTD/svg11.dtd">
<!-- Generated by graphviz version 9.0.0 (0)
 -->
<!-- Title: CxxNameResolver::getCanonicalFilePathCache Pages: 1 -->
<!--zoomable 1424 -->

<svg id="main" version="1.1" xmlns="http://www.w3.org/2000/svg" xmlns:xlink="http://www.w3.org/1999/xlink" xml:space="preserve" onload="init(evt)">
<style type="text/css"><![CDATA[
.node, .edge {opacity: 0.7;}
.node.selected, .edge.selected {opacity: 1;}
.edge:hover path { stroke: red; }
.edge:hover polygon { stroke: red; fill: red; }
]]></style>

<defs>
  <circle id="rim" cx="0" cy="0" r="7"/>
  <circle id="rim2" cx="0" cy="0" r="3.5"/>
  <g id="zoomPlus">
    <use xlink:href="#rim" fill="#404040"><set attributeName="fill" to="#808080" begin="zoomplus.mouseover" end="zoomplus.mouseout"/></use>
    <path d="M-4,0h8M0,-4v8" fill="none" stroke="white" stroke-width="1.5" pointer-events="none"/>
  </g>
  <g id="zoomMin">
    <use xlink:href="#rim" fill="#404040"><set attributeName="fill" to="#808080" begin="zoomminus.mouseover" end="zoomminus.mouseout"/></use>
    <path d="M-4,0h8" fill="none" stroke="white" stroke-width="1.5" pointer-events="none"/>
  </g>
  <g id="arrowUp" transform="translate(30 24)">
    <use xlink:href="#rim"/>
    <path pointer-events="none" fill="none" stroke="white" stroke-width="1.5" d="M0,-3.0v7 M-2.5,-0.5L0,-3.0L2.5,-0.5"/>
  </g>
  <g id="arrowRight" transform="rotate(90) translate(36 -43)">
    <use xlink:href="#rim"/>
    <path pointer-events="none" fill="none" stroke="white" stroke-width="1.5" d="M0,-3.0v7 M-2.5,-0.5L0,-3.0L2.5,-0.5"/>
  </g>
  <g id="arrowDown" transform="rotate(180) translate(-30 -48)">
    <use xlink:href="#rim"/>
    <path pointer-events="none" fill="none" stroke="white" stroke-width="1.5" d="M0,-3.0v7 M-2.5,-0.5L0,-3.0L2.5,-0.5"/>
  </g>
  <g id="arrowLeft" transform="rotate(270) translate(-36 17)">
    <use xlink:href="#rim"/>
    <path pointer-events="none" fill="none" stroke="white" stroke-width="1.5" d="M0,-3.0v7 M-2.5,-0.5L0,-3.0L2.5,-0.5"/>
  </g>
  <g id="resetDef">
    <use xlink:href="#rim2" fill="#404040"><set attributeName="fill" to="#808080" begin="reset.mouseover" end="reset.mouseout"/></use>
  </g>
</defs>
<script type="application/ecmascript">
var viewWidth = 1568;
var viewHeight = 1424;
var sectionId = 'dynsection-2';
</script>
<script type="application/ecmascript" xlink:href="svg.min.js"/>
<svg id="graph" class="graph">
<g id="viewport">
<title>CxxNameResolver::getCanonicalFilePathCache</title>
<!-- Node1 -->
<g id="Node000001" class="node">
<title>Node1</title>
<g id="a_Node000001"><a xlink:title=" ">
<polygon fill="#999999" stroke="#666666" points="1559.75,-85.5 1383.25,-85.5 1383.25,-52 1559.75,-52 1559.75,-85.5"/>
<text text-anchor="start" x="1391.25" y="-72" font-family="Helvetica,sans-Serif" font-size="10.00">CxxNameResolver::getCanonical</text>
<text text-anchor="middle" x="1471.5" y="-59.25" font-family="Helvetica,sans-Serif" font-size="10.00">FilePathCache</text>
</a>
</g>
</g>
<!-- Node2 -->
<g id="Node000002" class="node">
<title>Node2</title>
<g id="a_Node000002"><a xlink:href="classCxxDeclNameResolver.html#a427ae03c05aefd651485ea6f624ef052" target="_top" xlink:title=" ">
<polygon fill="white" stroke="#666666" points="1129.5,-85.5 1001,-85.5 1001,-52 1129.5,-52 1129.5,-85.5"/>
<text text-anchor="start" x="1009" y="-72" font-family="Helvetica,sans-Serif" font-size="10.00">CxxDeclNameResolver</text>
<text text-anchor="middle" x="1065.25" y="-59.25" font-family="Helvetica,sans-Serif" font-size="10.00">::getDeclName</text>
</a>
</g>
</g>
<!-- Node1&#45;&gt;Node2 -->
<g id="edge1_Node000001_Node000002" class="edge">
<title>Node1&#45;&gt;Node2</title>
<g id="a_edge1_Node000001_Node000002"><a xlink:title=" ">
<path fill="none" stroke="#63b8ff" d="M1390.2,-88.2C1375.97,-90.92 1361.24,-93.29 1347.25,-94.75 1266.91,-103.13 1245.62,-105.07 1165.5,-94.75 1151.1,-92.9 1135.81,-89.59 1121.66,-85.94"/>
<polygon fill="#63b8ff" stroke="#63b8ff" points="1390.88,-91.63 1400,-86.24 1389.5,-84.77 1390.88,-91.63"/>
</a>
</g>
</g>
<!-- Node35 -->
<g id="Node000035" class="node">
<title>Node35</title>
<g id="a_Node000035"><a xlink:href="classCxxDeclNameResolver.html#a851e6443eab7754ca4cb88e0946c1d95" target="_top" xlink:title=" ">
<polygon fill="white" stroke="#666666" points="1344.62,-85.5 1168.12,-85.5 1168.12,-52 1344.62,-52 1344.62,-85.5"/>
<text text-anchor="start" x="1176.12" y="-72" font-family="Helvetica,sans-Serif" font-size="10.00">CxxDeclNameResolver</text>
<text text-anchor="middle" x="1256.38" y="-59.25" font-family="Helvetica,sans-Serif" font-size="10.00">::getNameForAnonymousSymbol</text>
</a>
</g>
</g>
<!-- Node1&#45;&gt;Node35 -->
<g id="edge44_Node000001_Node000035" class="edge">
<title>Node1&#45;&gt;Node35</title>
<g id="a_edge44_Node000001_Node000035"><a xlink:title=" ">
<path fill="none" stroke="#63b8ff" d="M1371.67,-68.75C1362.76,-68.75 1353.79,-68.75 1344.99,-68.75"/>
<polygon fill="#63b8ff" stroke="#63b8ff" points="1371.38,-72.25 1381.38,-68.75 1371.38,-65.25 1371.38,-72.25"/>
</a>
</g>
</g>
<!-- Node36 -->
<g id="Node000036" class="node">
<title>Node36</title>
<g id="a_Node000036"><a xlink:href="classCxxDeclNameResolver.html#ab3f4d80dafa69f7892e2f508096222ae" target="_top" xlink:title=" ">
<polygon fill="white" stroke="#666666" points="1347.25,-33.5 1165.5,-33.5 1165.5,0 1347.25,0 1347.25,-33.5"/>
<text text-anchor="start" x="1173.5" y="-20" font-family="Helvetica,sans-Serif" font-size="10.00">CxxDeclNameResolver</text>
<text text-anchor="middle" x="1256.38" y="-7.25" font-family="Helvetica,sans-Serif" font-size="10.00">::getTranslationUnitMainFileName</text>
</a>
</g>
</g>
<!-- Node1&#45;&gt;Node36 -->
<g id="edge46_Node000001_Node000036" class="edge">
<title>Node1&#45;&gt;Node36</title>
<g id="a_edge46_Node000001_Node000036"><a xlink:title=" ">
<path fill="none" stroke="#63b8ff" d="M1388.81,-48.82C1368.72,-43.92 1347.37,-38.71 1327.86,-33.95"/>
<polygon fill="#63b8ff" stroke="#63b8ff" points="1387.81,-52.18 1398.36,-51.15 1389.47,-45.38 1387.81,-52.18"/>
</a>
</g>
</g>
<!-- Node2&#45;&gt;Node2 -->
<g id="edge42_Node000002_Node000002" class="edge">
<title>Node2&#45;&gt;Node2</title>
<g id="a_edge42_Node000002_Node000002"><a xlink:title=" ">
<path fill="none" stroke="#63b8ff" d="M1092.87,-96.89C1088.37,-100.85 1079.17,-103.5 1065.25,-103.5 1040.51,-103.5 1030.65,-95.12 1035.68,-85.91"/>
<polygon fill="#63b8ff" stroke="#63b8ff" points="1096.25,-97.86 1094.56,-87.4 1089.36,-96.64 1096.25,-97.86"/>
</a>
</g>
</g>
<!-- Node3 -->
<g id="Node000003" class="node">
<title>Node3</title>
<g id="a_Node000003"><a xlink:href="classCxxDeclNameResolver.html#a34058009a9001c20981e268a4a9b7877" target="_top" xlink:title=" ">
<polygon fill="white" stroke="#666666" points="965,-130.5 836.5,-130.5 836.5,-97 965,-97 965,-130.5"/>
<text text-anchor="start" x="844.5" y="-117" font-family="Helvetica,sans-Serif" font-size="10.00">CxxDeclNameResolver</text>
<text text-anchor="middle" x="900.75" y="-104.25" font-family="Helvetica,sans-Serif" font-size="10.00">::getContextName</text>
</a>
</g>
</g>
<!-- Node2&#45;&gt;Node3 -->
<g id="edge2_Node000002_Node000003" class="edge">
<title>Node2&#45;&gt;Node3</title>
<g id="a_edge2_Node000002_Node000003"><a xlink:title=" ">
<path fill="none" stroke="#63b8ff" d="M991.33,-88.94C982.21,-91.47 972.95,-94.03 964.01,-96.51"/>
<polygon fill="#63b8ff" stroke="#63b8ff" points="992.19,-92.34 1000.89,-86.29 990.32,-85.59 992.19,-92.34"/>
</a>
</g>
</g>
<!-- Node4 -->
<g id="Node000004" class="node">
<title>Node4</title>
<g id="a_Node000004"><a xlink:href="classCxxDeclNameResolver.html#a52923dd99b7b5656bc32c42b564cf6ed" target="_top" xlink:title=" ">
<polygon fill="white" stroke="#666666" points="800.5,-117.5 672,-117.5 672,-84 800.5,-84 800.5,-117.5"/>
<text text-anchor="start" x="680" y="-104" font-family="Helvetica,sans-Serif" font-size="10.00">CxxDeclNameResolver</text>
<text text-anchor="middle" x="736.25" y="-91.25" font-family="Helvetica,sans-Serif" font-size="10.00">::getName</text>
</a>
</g>
</g>
<!-- Node2&#45;&gt;Node4 -->
<g id="edge43_Node000002_Node000004" class="edge">
<title>Node2&#45;&gt;Node4</title>
<g id="a_edge43_Node000002_Node000004"><a xlink:title=" ">
<path fill="none" stroke="#63b8ff" d="M989.54,-74.09C945.05,-77.5 887.49,-82.29 836.5,-87.75 825.01,-88.98 812.79,-90.45 801,-91.95"/>
<polygon fill="#63b8ff" stroke="#63b8ff" points="989.64,-77.6 999.34,-73.35 989.11,-70.62 989.64,-77.6"/>
</a>
</g>
</g>
<!-- Node3&#45;&gt;Node3 -->
<g id="edge3_Node000003_Node000003" class="edge">
<title>Node3&#45;&gt;Node3</title>
<g id="a_edge3_Node000003_Node000003"><a xlink:title=" ">
<path fill="none" stroke="#63b8ff" d="M928.37,-141.89C923.87,-145.85 914.67,-148.5 900.75,-148.5 876.01,-148.5 866.15,-140.12 871.18,-130.91"/>
<polygon fill="#63b8ff" stroke="#63b8ff" points="931.75,-142.86 930.06,-132.4 924.86,-141.64 931.75,-142.86"/>
</a>
</g>
</g>
<!-- Node3&#45;&gt;Node4 -->
<g id="edge4_Node000003_Node000004" class="edge">
<title>Node3&#45;&gt;Node4</title>
<g id="a_edge4_Node000003_Node000004"><a xlink:title=" ">
<path fill="none" stroke="#63b8ff" d="M825.11,-107.78C817.02,-107.13 808.85,-106.48 800.9,-105.84"/>
<polygon fill="#63b8ff" stroke="#63b8ff" points="824.7,-111.26 834.95,-108.57 825.26,-104.28 824.7,-111.26"/>
</a>
</g>
</g>
<!-- Node4&#45;&gt;Node4 -->
<g id="edge5_Node000004_Node000004" class="edge">
<title>Node4&#45;&gt;Node4</title>
<g id="a_edge5_Node000004_Node000004"><a xlink:title=" ">
<path fill="none" stroke="#63b8ff" d="M763.87,-128.89C759.37,-132.85 750.17,-135.5 736.25,-135.5 711.51,-135.5 701.65,-127.12 706.68,-117.91"/>
<polygon fill="#63b8ff" stroke="#63b8ff" points="767.25,-129.86 765.56,-119.4 760.36,-128.64 767.25,-129.86"/>
</a>
</g>
</g>
<!-- Node5 -->
<g id="Node000005" class="node">
<title>Node5</title>
<g id="a_Node000005"><a xlink:href="classCxxSpecifierNameResolver.html#ac4da287f678a4fbcf10a941c233e7868" target="_top" xlink:title=" ">
<polygon fill="white" stroke="#666666" points="623.25,-105.5 473.75,-105.5 473.75,-72 623.25,-72 623.25,-105.5"/>
<text text-anchor="start" x="481.75" y="-92" font-family="Helvetica,sans-Serif" font-size="10.00">CxxSpecifierNameResolver</text>
<text text-anchor="middle" x="548.5" y="-79.25" font-family="Helvetica,sans-Serif" font-size="10.00">::getName</text>
</a>
</g>
</g>
<!-- Node4&#45;&gt;Node5 -->
<g id="edge6_Node000004_Node000005" class="edge">
<title>Node4&#45;&gt;Node5</title>
<g id="a_edge6_Node000004_Node000005"><a xlink:title=" ">
<path fill="none" stroke="#63b8ff" d="M660.19,-95.9C648.13,-95.12 635.67,-94.32 623.64,-93.54"/>
<polygon fill="#63b8ff" stroke="#63b8ff" points="659.87,-99.39 670.07,-96.54 660.32,-92.4 659.87,-99.39"/>
</a>
</g>
</g>
<!-- Node6 -->
<g id="Node000006" class="node">
<title>Node6</title>
<g id="a_Node000006"><a xlink:href="classCxxTypeNameResolver.html#aa6f95cc1c5830dae756834b6a868149d" target="_top" xlink:title=" ">
<polygon fill="white" stroke="#666666" points="382.62,-105.5 253.38,-105.5 253.38,-72 382.62,-72 382.62,-105.5"/>
<text text-anchor="start" x="261.38" y="-92" font-family="Helvetica,sans-Serif" font-size="10.00">CxxTypeNameResolver</text>
<text text-anchor="middle" x="318" y="-79.25" font-family="Helvetica,sans-Serif" font-size="10.00">::getName</text>
</a>
</g>
</g>
<!-- Node4&#45;&gt;Node6 -->
<g id="edge9_Node000004_Node000006" class="edge">
<title>Node4&#45;&gt;Node6</title>
<g id="a_edge9_Node000004_Node000006"><a xlink:title=" ">
<path fill="none" stroke="#63b8ff" d="M681.22,-121.53C666.75,-126.16 650.96,-130.4 636,-132.75 559.17,-144.83 536.7,-150.62 461,-132.75 443.59,-128.64 441.79,-120.92 425,-114.75 411.66,-109.85 397.04,-105.59 383.03,-102.01"/>
<polygon fill="#63b8ff" stroke="#63b8ff" points="682.18,-124.9 690.56,-118.41 679.96,-118.26 682.18,-124.9"/>
</a>
</g>
</g>
<!-- Node7 -->
<g id="Node000007" class="node">
<title>Node7</title>
<g id="a_Node000007"><a xlink:href="classCxxAstVisitorComponentIndexer.html#ac86b28417f10d223b63a36255cfc57cd" target="_top" xlink:title=" ">
<polygon fill="white" stroke="#666666" points="636,-781.5 461,-781.5 461,-748 636,-748 636,-781.5"/>
<text text-anchor="start" x="469" y="-768" font-family="Helvetica,sans-Serif" font-size="10.00">CxxAstVisitorComponentIndexer</text>
<text text-anchor="middle" x="548.5" y="-755.25" font-family="Helvetica,sans-Serif" font-size="10.00">::getOrCreateSymbolId</text>
</a>
</g>
</g>
<!-- Node4&#45;&gt;Node7 -->
<g id="edge10_Node000004_Node000007" class="edge">
<title>Node4&#45;&gt;Node7</title>
<g id="a_edge10_Node000004_Node000007"><a xlink:title=" ">
<path fill="none" stroke="#63b8ff" d="M727.37,-128.91C695.85,-241.61 579.26,-658.36 554.25,-747.78"/>
<polygon fill="#63b8ff" stroke="#63b8ff" points="730.74,-129.86 730.06,-119.29 724,-127.98 730.74,-129.86"/>
</a>
</g>
</g>
<!-- Node34 -->
<g id="Node000034" class="node">
<title>Node34</title>
<g id="a_Node000034"><a xlink:href="classCxxDeclNameResolver.html#a57b956a9d3068f671ca4543ffa947a7c" target="_top" xlink:title=" ">
<polygon fill="white" stroke="#666666" points="632.25,-53.88 464.75,-53.88 464.75,-7.62 632.25,-7.62 632.25,-53.88"/>
<text text-anchor="start" x="472.75" y="-40.38" font-family="Helvetica,sans-Serif" font-size="10.00">CxxDeclNameResolver</text>
<text text-anchor="start" x="472.75" y="-27.62" font-family="Helvetica,sans-Serif" font-size="10.00">::getTemplateParameterStrings</text>
<text text-anchor="middle" x="548.5" y="-14.88" font-family="Helvetica,sans-Serif" font-size="10.00">OfPartialSpecialization</text>
</a>
</g>
</g>
<!-- Node4&#45;&gt;Node34 -->
<g id="edge40_Node000004_Node000034" class="edge">
<title>Node4&#45;&gt;Node34</title>
<g id="a_edge40_Node000004_Node000034"><a xlink:title=" ">
<path fill="none" stroke="#63b8ff" d="M680.1,-79.51C665.76,-74.02 650.31,-68.14 636,-62.75 628.66,-59.99 620.96,-57.11 613.3,-54.26"/>
<polygon fill="#63b8ff" stroke="#63b8ff" points="678.82,-82.77 689.41,-83.08 681.33,-76.23 678.82,-82.77"/>
</a>
</g>
</g>
<!-- Node5&#45;&gt;Node5 -->
<g id="edge7_Node000005_Node000005" class="edge">
<title>Node5&#45;&gt;Node5</title>
<g id="a_edge7_Node000005_Node000005"><a xlink:title=" ">
<path fill="none" stroke="#63b8ff" d="M580.02,-116.89C574.89,-120.85 564.38,-123.5 548.5,-123.5 520.26,-123.5 509.01,-115.12 514.75,-105.91"/>
<polygon fill="#63b8ff" stroke="#63b8ff" points="583.39,-117.89 581.95,-107.4 576.53,-116.5 583.39,-117.89"/>
</a>
</g>
</g>
<!-- Node5&#45;&gt;Node6 -->
<g id="edge8_Node000005_Node000006" class="edge">
<title>Node5&#45;&gt;Node6</title>
<g id="a_edge8_Node000005_Node000006"><a xlink:title=" ">
<path fill="none" stroke="#63b8ff" d="M461.84,-88.75C435.65,-88.75 407.32,-88.75 382.84,-88.75"/>
<polygon fill="#63b8ff" stroke="#63b8ff" points="461.8,-92.25 471.8,-88.75 461.8,-85.25 461.8,-92.25"/>
</a>
</g>
</g>
<!-- Node8 -->
<g id="Node000008" class="node">
<title>Node8</title>
<g id="a_Node000008"><a xlink:href="classCxxAstVisitorComponentIndexer.html#ae0a2634372a703fa6fd2698206317141" target="_top" xlink:title=" ">
<polygon fill="white" stroke="#666666" points="425,-1363.5 211,-1363.5 211,-1330 425,-1330 425,-1363.5"/>
<text text-anchor="start" x="219" y="-1350" font-family="Helvetica,sans-Serif" font-size="10.00">CxxAstVisitorComponentIndexer</text>
<text text-anchor="middle" x="318" y="-1337.25" font-family="Helvetica,sans-Serif" font-size="10.00">::beginTraverseNestedNameSpecifierLoc</text>
</a>
</g>
</g>
<!-- Node7&#45;&gt;Node8 -->
<g id="edge11_Node000007_Node000008" class="edge">
<title>Node7&#45;&gt;Node8</title>
<g id="a_edge11_Node000007_Node000008"><a xlink:title=" ">
<path fill="none" stroke="#63b8ff" d="M545.17,-792.92C536.14,-895.02 500.24,-1243.71 425,-1320.75 421.69,-1324.14 418.02,-1327.11 414.08,-1329.72"/>
<polygon fill="#63b8ff" stroke="#63b8ff" points="548.63,-793.5 546,-783.23 541.66,-792.9 548.63,-793.5"/>
</a>
</g>
</g>
<!-- Node9 -->
<g id="Node000009" class="node">
<title>Node9</title>
<g id="a_Node000009"><a xlink:href="classCxxAstVisitorComponentIndexer.html#a1c12b8778f640fa1ad51a3f02487d1e6" target="_top" xlink:title=" ">
<polygon fill="white" stroke="#666666" points="418.25,-1311.5 217.75,-1311.5 217.75,-1278 418.25,-1278 418.25,-1311.5"/>
<text text-anchor="start" x="225.75" y="-1298" font-family="Helvetica,sans-Serif" font-size="10.00">CxxAstVisitorComponentIndexer</text>
<text text-anchor="middle" x="318" y="-1285.25" font-family="Helvetica,sans-Serif" font-size="10.00">::beginTraverseTemplateArgumentLoc</text>
</a>
</g>
</g>
<!-- Node7&#45;&gt;Node9 -->
<g id="edge12_Node000007_Node000009" class="edge">
<title>Node7&#45;&gt;Node9</title>
<g id="a_edge12_Node000007_Node000009"><a xlink:title=" ">
<path fill="none" stroke="#63b8ff" d="M544.43,-793.38C533.51,-889.72 493.55,-1200.05 425,-1268.75 421.65,-1272.1 417.95,-1275.05 413.99,-1277.64"/>
<polygon fill="#63b8ff" stroke="#63b8ff" points="547.9,-793.81 545.53,-783.48 540.94,-793.03 547.9,-793.81"/>
</a>
</g>
</g>
<!-- Node10 -->
<g id="Node000010" class="node">
<title>Node10</title>
<g id="a_Node000010"><a xlink:href="classCxxAstVisitorComponentIndexer.html#a451d4de03b1f0cd9e1976af019df9887" target="_top" xlink:title=" ">
<polygon fill="white" stroke="#666666" points="405.5,-1259.5 230.5,-1259.5 230.5,-1226 405.5,-1226 405.5,-1259.5"/>
<text text-anchor="start" x="238.5" y="-1246" font-family="Helvetica,sans-Serif" font-size="10.00">CxxAstVisitorComponentIndexer</text>
<text text-anchor="middle" x="318" y="-1233.25" font-family="Helvetica,sans-Serif" font-size="10.00">::getOrCreateSymbolId</text>
</a>
</g>
</g>
<!-- Node7&#45;&gt;Node10 -->
<g id="edge13_Node000007_Node000010" class="edge">
<title>Node7&#45;&gt;Node10</title>
<g id="a_edge13_Node000007_Node000010"><a xlink:title=" ">
<path fill="none" stroke="#63b8ff" d="M543.58,-793.32C530.71,-882.96 487.03,-1156.2 425,-1216.75 419.44,-1222.18 412.94,-1226.53 405.95,-1230.02"/>
<polygon fill="#63b8ff" stroke="#63b8ff" points="547.04,-793.83 544.98,-783.44 540.11,-792.85 547.04,-793.83"/>
</a>
</g>
</g>
<!-- Node11 -->
<g id="Node000011" class="node">
<title>Node11</title>
<g id="a_Node000011"><a xlink:href="classCxxAstVisitorComponentIndexer.html#ad61732e75e2f238d310bae7069598638" target="_top" xlink:title=" ">
<polygon fill="white" stroke="#666666" points="405.5,-1207.5 230.5,-1207.5 230.5,-1174 405.5,-1174 405.5,-1207.5"/>
<text text-anchor="start" x="238.5" y="-1194" font-family="Helvetica,sans-Serif" font-size="10.00">CxxAstVisitorComponentIndexer</text>
<text text-anchor="middle" x="318" y="-1181.25" font-family="Helvetica,sans-Serif" font-size="10.00">::getOrCreateSymbolId</text>
</a>
</g>
</g>
<!-- Node7&#45;&gt;Node11 -->
<g id="edge14_Node000007_Node000011" class="edge">
<title>Node7&#45;&gt;Node11</title>
<g id="a_edge14_Node000007_Node000011"><a xlink:title=" ">
<path fill="none" stroke="#63b8ff" d="M547.35,-793.1C545.38,-865.08 529.98,-1056.45 425,-1159.75 419.4,-1165.26 412.87,-1169.81 405.86,-1173.55"/>
<polygon fill="#63b8ff" stroke="#63b8ff" points="550.84,-793.43 547.54,-783.36 543.84,-793.29 550.84,-793.43"/>
</a>
</g>
</g>
<!-- Node12 -->
<g id="Node000012" class="node">
<title>Node12</title>
<g id="a_Node000012"><a xlink:href="classCxxAstVisitorComponentIndexer.html#a1b663d213aed0e121ac70732ebc90e9c" target="_top" xlink:title=" ">
<polygon fill="white" stroke="#666666" points="421.25,-1079.5 214.75,-1079.5 214.75,-1046 421.25,-1046 421.25,-1079.5"/>
<text text-anchor="start" x="222.75" y="-1066" font-family="Helvetica,sans-Serif" font-size="10.00">CxxAstVisitorComponentIndexer</text>
<text text-anchor="middle" x="318" y="-1053.25" font-family="Helvetica,sans-Serif" font-size="10.00">::recordTemplateMemberSpecialization</text>
</a>
</g>
</g>
<!-- Node7&#45;&gt;Node12 -->
<g id="edge15_Node000007_Node000012" class="edge">
<title>Node7&#45;&gt;Node12</title>
<g id="a_edge15_Node000007_Node000012"><a xlink:title=" ">
<path fill="none" stroke="#63b8ff" d="M542.57,-792.9C531.56,-847.28 499.8,-967.12 425,-1031.75 418.62,-1037.27 411.3,-1041.8 403.55,-1045.53"/>
<polygon fill="#63b8ff" stroke="#63b8ff" points="545.98,-793.7 544.44,-783.22 539.11,-792.38 545.98,-793.7"/>
</a>
</g>
</g>
<!-- Node13 -->
<g id="Node000013" class="node">
<title>Node13</title>
<g id="a_Node000013"><a xlink:href="classCxxAstVisitorComponentIndexer.html#ac9e217b974b8f9c930ea64234ef63be3" target="_top" xlink:title=" ">
<polygon fill="white" stroke="#666666" points="175,-1159.5 0,-1159.5 0,-1126 175,-1126 175,-1159.5"/>
<text text-anchor="start" x="8" y="-1146" font-family="Helvetica,sans-Serif" font-size="10.00">CxxAstVisitorComponentIndexer</text>
<text text-anchor="middle" x="87.5" y="-1133.25" font-family="Helvetica,sans-Serif" font-size="10.00">::visitCXXMethodDecl</text>
</a>
</g>
</g>
<!-- Node7&#45;&gt;Node13 -->
<g id="edge23_Node000007_Node000013" class="edge">
<title>Node7&#45;&gt;Node13</title>
<g id="a_edge23_Node000007_Node000013"><a xlink:title=" ">
<path fill="none" stroke="#63b8ff" d="M547.5,-793.07C545.8,-862.21 530.84,-1039.9 425,-1120.75 387.2,-1149.63 261.8,-1150.71 175.25,-1147.65"/>
<polygon fill="#63b8ff" stroke="#63b8ff" points="551,-793.4 547.66,-783.34 544,-793.29 551,-793.4"/>
</a>
</g>
</g>
<!-- Node14 -->
<g id="Node000014" class="node">
<title>Node14</title>
<g id="a_Node000014"><a xlink:href="classCxxAstVisitorComponentIndexer.html#ab2a78c3313d56980c89efbe2e86566be" target="_top" xlink:title=" ">
<polygon fill="white" stroke="#666666" points="175,-1104.5 0,-1104.5 0,-1071 175,-1071 175,-1104.5"/>
<text text-anchor="start" x="8" y="-1091" font-family="Helvetica,sans-Serif" font-size="10.00">CxxAstVisitorComponentIndexer</text>
<text text-anchor="middle" x="87.5" y="-1078.25" font-family="Helvetica,sans-Serif" font-size="10.00">::visitTagDecl</text>
</a>
</g>
</g>
<!-- Node7&#45;&gt;Node14 -->
<g id="edge32_Node000007_Node000014" class="edge">
<title>Node7&#45;&gt;Node14</title>
<g id="a_edge32_Node000007_Node000014"><a xlink:title=" ">
<path fill="none" stroke="#63b8ff" d="M546.76,-793.17C543.34,-858.67 524.7,-1019.86 425,-1088.75 340.17,-1147.37 212.36,-1124.68 141.16,-1104.94"/>
<polygon fill="#63b8ff" stroke="#63b8ff" points="550.26,-793.4 547.19,-783.26 543.26,-793.1 550.26,-793.4"/>
</a>
</g>
</g>
<!-- Node15 -->
<g id="Node000015" class="node">
<title>Node15</title>
<g id="a_Node000015"><a xlink:href="classCxxAstVisitorComponentIndexer.html#a441140747ff73e4210e42e4d5772c765" target="_top" xlink:title=" ">
<polygon fill="white" stroke="#666666" points="175,-1046.5 0,-1046.5 0,-1013 175,-1013 175,-1046.5"/>
<text text-anchor="start" x="8" y="-1033" font-family="Helvetica,sans-Serif" font-size="10.00">CxxAstVisitorComponentIndexer</text>
<text text-anchor="middle" x="87.5" y="-1020.25" font-family="Helvetica,sans-Serif" font-size="10.00">::visitVarDecl</text>
</a>
</g>
</g>
<!-- Node7&#45;&gt;Node15 -->
<g id="edge38_Node000007_Node000015" class="edge">
<title>Node7&#45;&gt;Node15</title>
<g id="a_edge38_Node000007_Node000015"><a xlink:title=" ">
<path fill="none" stroke="#63b8ff" d="M541.92,-792.78C530.2,-843.55 497.83,-949.96 425,-998.75 385.52,-1025.2 261.25,-1030.59 175.32,-1030.98"/>
<polygon fill="#63b8ff" stroke="#63b8ff" points="545.31,-793.7 544.03,-783.18 538.47,-792.2 545.31,-793.7"/>
</a>
</g>
</g>
<!-- Node16 -->
<g id="Node000016" class="node">
<title>Node16</title>
<g id="a_Node000016"><a xlink:href="classCxxAstVisitorComponentIndexer.html#a0510373cd1c450570477c2c036c1087f" target="_top" xlink:title=" ">
<polygon fill="white" stroke="#666666" points="420.12,-989.5 215.88,-989.5 215.88,-956 420.12,-956 420.12,-989.5"/>
<text text-anchor="start" x="223.88" y="-976" font-family="Helvetica,sans-Serif" font-size="10.00">CxxAstVisitorComponentIndexer</text>
<text text-anchor="middle" x="318" y="-963.25" font-family="Helvetica,sans-Serif" font-size="10.00">::visitClassTemplateSpecializationDecl</text>
</a>
</g>
</g>
<!-- Node7&#45;&gt;Node16 -->
<g id="edge19_Node000007_Node000016" class="edge">
<title>Node7&#45;&gt;Node16</title>
<g id="a_edge19_Node000007_Node000016"><a xlink:title=" ">
<path fill="none" stroke="#63b8ff" d="M536.67,-792.31C519.35,-832.66 481.52,-907.29 425,-946.75 420.18,-950.11 414.98,-953.04 409.55,-955.59"/>
<polygon fill="#63b8ff" stroke="#63b8ff" points="539.81,-793.87 540.43,-783.29 533.35,-791.18 539.81,-793.87"/>
</a>
</g>
</g>
<!-- Node17 -->
<g id="Node000017" class="node">
<title>Node17</title>
<g id="a_Node000017"><a xlink:href="classCxxAstVisitorComponentIndexer.html#acd44b5441e3e3e7a81eb20d1d599c885" target="_top" xlink:title=" ">
<polygon fill="white" stroke="#666666" points="405.5,-937.5 230.5,-937.5 230.5,-904 405.5,-904 405.5,-937.5"/>
<text text-anchor="start" x="238.5" y="-924" font-family="Helvetica,sans-Serif" font-size="10.00">CxxAstVisitorComponentIndexer</text>
<text text-anchor="middle" x="318" y="-911.25" font-family="Helvetica,sans-Serif" font-size="10.00">::visitConstructorInitializer</text>
</a>
</g>
</g>
<!-- Node7&#45;&gt;Node17 -->
<g id="edge20_Node000007_Node000017" class="edge">
<title>Node7&#45;&gt;Node17</title>
<g id="a_edge20_Node000007_Node000017"><a xlink:title=" ">
<path fill="none" stroke="#63b8ff" d="M529.98,-790.97C508.7,-820.72 470.01,-868.51 425,-894.75 419.03,-898.23 412.6,-901.25 405.97,-903.87"/>
<polygon fill="#63b8ff" stroke="#63b8ff" points="532.79,-793.07 535.65,-782.87 527.05,-789.05 532.79,-793.07"/>
</a>
</g>
</g>
<!-- Node18 -->
<g id="Node000018" class="node">
<title>Node18</title>
<g id="a_Node000018"><a xlink:href="classCxxAstVisitorComponentIndexer.html#a8c5463052f8f3e774f171c5bafed0979" target="_top" xlink:title=" ">
<polygon fill="white" stroke="#666666" points="405.5,-885.5 230.5,-885.5 230.5,-852 405.5,-852 405.5,-885.5"/>
<text text-anchor="start" x="238.5" y="-872" font-family="Helvetica,sans-Serif" font-size="10.00">CxxAstVisitorComponentIndexer</text>
<text text-anchor="middle" x="318" y="-859.25" font-family="Helvetica,sans-Serif" font-size="10.00">::visitCXXConstructExpr</text>
</a>
</g>
</g>
<!-- Node7&#45;&gt;Node18 -->
<g id="edge21_Node000007_Node000018" class="edge">
<title>Node7&#45;&gt;Node18</title>
<g id="a_edge21_Node000007_Node000018"><a xlink:title=" ">
<path fill="none" stroke="#63b8ff" d="M516.48,-788.55C492.62,-805.82 458.22,-828.56 425,-842.75 417.33,-846.03 409.17,-848.94 400.91,-851.53"/>
<polygon fill="#63b8ff" stroke="#63b8ff" points="518.51,-791.4 524.49,-782.66 514.36,-785.76 518.51,-791.4"/>
</a>
</g>
</g>
<!-- Node19 -->
<g id="Node000019" class="node">
<title>Node19</title>
<g id="a_Node000019"><a xlink:href="classCxxAstVisitorComponentIndexer.html#a5b89ec0b77d5e932ee473a8f15ec5956" target="_top" xlink:title=" ">
<polygon fill="white" stroke="#666666" points="405.5,-833.5 230.5,-833.5 230.5,-800 405.5,-800 405.5,-833.5"/>
<text text-anchor="start" x="238.5" y="-820" font-family="Helvetica,sans-Serif" font-size="10.00">CxxAstVisitorComponentIndexer</text>
<text text-anchor="middle" x="318" y="-807.25" font-family="Helvetica,sans-Serif" font-size="10.00">::visitCXXDeleteExpr</text>
</a>
</g>
</g>
<!-- Node7&#45;&gt;Node19 -->
<g id="edge22_Node000007_Node000019" class="edge">
<title>Node7&#45;&gt;Node19</title>
<g id="a_edge22_Node000007_Node000019"><a xlink:title=" ">
<path fill="none" stroke="#63b8ff" d="M460.52,-784.54C438.8,-789.49 415.68,-794.75 394.56,-799.55"/>
<polygon fill="#63b8ff" stroke="#63b8ff" points="461.28,-787.96 470.25,-782.33 459.73,-781.14 461.28,-787.96"/>
</a>
</g>
</g>
<!-- Node20 -->
<g id="Node000020" class="node">
<title>Node20</title>
<g id="a_Node000020"><a xlink:href="classCxxAstVisitorComponentIndexer.html#af6ceda2446fb1c429da45e900fa90e67" target="_top" xlink:title=" ">
<polygon fill="white" stroke="#666666" points="405.5,-781.5 230.5,-781.5 230.5,-748 405.5,-748 405.5,-781.5"/>
<text text-anchor="start" x="238.5" y="-768" font-family="Helvetica,sans-Serif" font-size="10.00">CxxAstVisitorComponentIndexer</text>
<text text-anchor="middle" x="318" y="-755.25" font-family="Helvetica,sans-Serif" font-size="10.00">::visitDeclRefExpr</text>
</a>
</g>
</g>
<!-- Node7&#45;&gt;Node20 -->
<g id="edge24_Node000007_Node000020" class="edge">
<title>Node7&#45;&gt;Node20</title>
<g id="a_edge24_Node000007_Node000020"><a xlink:title=" ">
<path fill="none" stroke="#63b8ff" d="M449.68,-764.75C435.04,-764.75 420.04,-764.75 405.65,-764.75"/>
<polygon fill="#63b8ff" stroke="#63b8ff" points="449.27,-768.25 459.27,-764.75 449.27,-761.25 449.27,-768.25"/>
</a>
</g>
</g>
<!-- Node21 -->
<g id="Node000021" class="node">
<title>Node21</title>
<g id="a_Node000021"><a xlink:href="classCxxAstVisitorComponentIndexer.html#a7ab9caa27d99cca0d4a1e94d47adc976" target="_top" xlink:title=" ">
<polygon fill="white" stroke="#666666" points="405.5,-729.5 230.5,-729.5 230.5,-696 405.5,-696 405.5,-729.5"/>
<text text-anchor="start" x="238.5" y="-716" font-family="Helvetica,sans-Serif" font-size="10.00">CxxAstVisitorComponentIndexer</text>
<text text-anchor="middle" x="318" y="-703.25" font-family="Helvetica,sans-Serif" font-size="10.00">::visitEnumConstantDecl</text>
</a>
</g>
</g>
<!-- Node7&#45;&gt;Node21 -->
<g id="edge25_Node000007_Node000021" class="edge">
<title>Node7&#45;&gt;Node21</title>
<g id="a_edge25_Node000007_Node000021"><a xlink:title=" ">
<path fill="none" stroke="#63b8ff" d="M460.52,-744.96C438.8,-740.01 415.68,-734.75 394.56,-729.95"/>
<polygon fill="#63b8ff" stroke="#63b8ff" points="459.73,-748.36 470.25,-747.17 461.28,-741.54 459.73,-748.36"/>
</a>
</g>
</g>
<!-- Node22 -->
<g id="Node000022" class="node">
<title>Node22</title>
<g id="a_Node000022"><a xlink:href="classCxxAstVisitorComponentIndexer.html#a0080311e993dde5efbbec1c959546d9f" target="_top" xlink:title=" ">
<polygon fill="white" stroke="#666666" points="405.5,-677.5 230.5,-677.5 230.5,-644 405.5,-644 405.5,-677.5"/>
<text text-anchor="start" x="238.5" y="-664" font-family="Helvetica,sans-Serif" font-size="10.00">CxxAstVisitorComponentIndexer</text>
<text text-anchor="middle" x="318" y="-651.25" font-family="Helvetica,sans-Serif" font-size="10.00">::visitFieldDecl</text>
</a>
</g>
</g>
<!-- Node7&#45;&gt;Node22 -->
<g id="edge26_Node000007_Node000022" class="edge">
<title>Node7&#45;&gt;Node22</title>
<g id="a_edge26_Node000007_Node000022"><a xlink:title=" ">
<path fill="none" stroke="#63b8ff" d="M516.48,-740.95C492.62,-723.68 458.22,-700.94 425,-686.75 417.33,-683.47 409.17,-680.56 400.91,-677.97"/>
<polygon fill="#63b8ff" stroke="#63b8ff" points="514.36,-743.74 524.49,-746.84 518.51,-738.1 514.36,-743.74"/>
</a>
</g>
</g>
<!-- Node23 -->
<g id="Node000023" class="node">
<title>Node23</title>
<g id="a_Node000023"><a xlink:href="classCxxAstVisitorComponentIndexer.html#a2da86428e87e552a62071eeca376c0aa" target="_top" xlink:title=" ">
<polygon fill="white" stroke="#666666" points="405.5,-625.5 230.5,-625.5 230.5,-592 405.5,-592 405.5,-625.5"/>
<text text-anchor="start" x="238.5" y="-612" font-family="Helvetica,sans-Serif" font-size="10.00">CxxAstVisitorComponentIndexer</text>
<text text-anchor="middle" x="318" y="-599.25" font-family="Helvetica,sans-Serif" font-size="10.00">::visitFunctionDecl</text>
</a>
</g>
</g>
<!-- Node7&#45;&gt;Node23 -->
<g id="edge27_Node000007_Node000023" class="edge">
<title>Node7&#45;&gt;Node23</title>
<g id="a_edge27_Node000007_Node000023"><a xlink:title=" ">
<path fill="none" stroke="#63b8ff" d="M529.98,-738.53C508.7,-708.78 470.01,-660.99 425,-634.75 419.03,-631.27 412.6,-628.25 405.97,-625.63"/>
<polygon fill="#63b8ff" stroke="#63b8ff" points="527.05,-740.45 535.65,-746.63 532.79,-736.43 527.05,-740.45"/>
</a>
</g>
</g>
<!-- Node24 -->
<g id="Node000024" class="node">
<title>Node24</title>
<g id="a_Node000024"><a xlink:href="classCxxAstVisitorComponentIndexer.html#abfb00060302e4203c28644d246930a23" target="_top" xlink:title=" ">
<polygon fill="white" stroke="#666666" points="405.5,-573.5 230.5,-573.5 230.5,-540 405.5,-540 405.5,-573.5"/>
<text text-anchor="start" x="238.5" y="-560" font-family="Helvetica,sans-Serif" font-size="10.00">CxxAstVisitorComponentIndexer</text>
<text text-anchor="middle" x="318" y="-547.25" font-family="Helvetica,sans-Serif" font-size="10.00">::visitLambdaExpr</text>
</a>
</g>
</g>
<!-- Node7&#45;&gt;Node24 -->
<g id="edge28_Node000007_Node000024" class="edge">
<title>Node7&#45;&gt;Node24</title>
<g id="a_edge28_Node000007_Node000024"><a xlink:title=" ">
<path fill="none" stroke="#63b8ff" d="M536.67,-737.19C519.35,-696.84 481.52,-622.21 425,-582.75 419.1,-578.63 412.61,-575.16 405.84,-572.23"/>
<polygon fill="#63b8ff" stroke="#63b8ff" points="533.35,-738.32 540.43,-746.21 539.81,-735.63 533.35,-738.32"/>
</a>
</g>
</g>
<!-- Node25 -->
<g id="Node000025" class="node">
<title>Node25</title>
<g id="a_Node000025"><a xlink:href="classCxxAstVisitorComponentIndexer.html#a676084833a1df214cc26dd5285d74718" target="_top" xlink:title=" ">
<polygon fill="white" stroke="#666666" points="405.5,-521.5 230.5,-521.5 230.5,-488 405.5,-488 405.5,-521.5"/>
<text text-anchor="start" x="238.5" y="-508" font-family="Helvetica,sans-Serif" font-size="10.00">CxxAstVisitorComponentIndexer</text>
<text text-anchor="middle" x="318" y="-495.25" font-family="Helvetica,sans-Serif" font-size="10.00">::visitMemberExpr</text>
</a>
</g>
</g>
<!-- Node7&#45;&gt;Node25 -->
<g id="edge29_Node000007_Node000025" class="edge">
<title>Node7&#45;&gt;Node25</title>
<g id="a_edge29_Node000007_Node000025"><a xlink:title=" ">
<path fill="none" stroke="#63b8ff" d="M540.92,-736.7C527.79,-687.18 493.53,-584.44 425,-530.75 419.18,-526.19 412.68,-522.42 405.83,-519.3"/>
<polygon fill="#63b8ff" stroke="#63b8ff" points="537.51,-737.51 543.37,-746.34 544.29,-735.79 537.51,-737.51"/>
</a>
</g>
</g>
<!-- Node26 -->
<g id="Node000026" class="node">
<title>Node26</title>
<g id="a_Node000026"><a xlink:href="classCxxAstVisitorComponentIndexer.html#a467dc47d5a94fc31f17ce57f4130cfda" target="_top" xlink:title=" ">
<polygon fill="white" stroke="#666666" points="405.5,-469.5 230.5,-469.5 230.5,-436 405.5,-436 405.5,-469.5"/>
<text text-anchor="start" x="238.5" y="-456" font-family="Helvetica,sans-Serif" font-size="10.00">CxxAstVisitorComponentIndexer</text>
<text text-anchor="middle" x="318" y="-443.25" font-family="Helvetica,sans-Serif" font-size="10.00">::visitNamespaceAliasDecl</text>
</a>
</g>
</g>
<!-- Node7&#45;&gt;Node26 -->
<g id="edge30_Node000007_Node000026" class="edge">
<title>Node7&#45;&gt;Node26</title>
<g id="a_edge30_Node000007_Node000026"><a xlink:title=" ">
<path fill="none" stroke="#63b8ff" d="M543.85,-736.73C534.81,-679.19 505.96,-547.4 425,-478.75 419.29,-473.91 412.82,-469.94 405.96,-466.7"/>
<polygon fill="#63b8ff" stroke="#63b8ff" points="540.34,-736.95 545.26,-746.33 547.27,-735.93 540.34,-736.95"/>
</a>
</g>
</g>
<!-- Node27 -->
<g id="Node000027" class="node">
<title>Node27</title>
<g id="a_Node000027"><a xlink:href="classCxxAstVisitorComponentIndexer.html#a8de283fd58e40272b18e2f1f467112e6" target="_top" xlink:title=" ">
<polygon fill="white" stroke="#666666" points="405.5,-417.5 230.5,-417.5 230.5,-384 405.5,-384 405.5,-417.5"/>
<text text-anchor="start" x="238.5" y="-404" font-family="Helvetica,sans-Serif" font-size="10.00">CxxAstVisitorComponentIndexer</text>
<text text-anchor="middle" x="318" y="-391.25" font-family="Helvetica,sans-Serif" font-size="10.00">::visitNamespaceDecl</text>
</a>
</g>
</g>
<!-- Node7&#45;&gt;Node27 -->
<g id="edge31_Node000007_Node000027" class="edge">
<title>Node7&#45;&gt;Node27</title>
<g id="a_edge31_Node000007_Node000027"><a xlink:title=" ">
<path fill="none" stroke="#63b8ff" d="M545.89,-736.3C540.63,-671.21 518.35,-510.6 425,-426.75 419.29,-421.62 412.74,-417.47 405.74,-414.1"/>
<polygon fill="#63b8ff" stroke="#63b8ff" points="542.39,-736.42 546.61,-746.14 549.38,-735.91 542.39,-736.42"/>
</a>
</g>
</g>
<!-- Node28 -->
<g id="Node000028" class="node">
<title>Node28</title>
<g id="a_Node000028"><a xlink:href="classCxxAstVisitorComponentIndexer.html#ad2a4b336a87855412b30e469e01f693f" target="_top" xlink:title=" ">
<polygon fill="white" stroke="#666666" points="405.5,-365.5 230.5,-365.5 230.5,-332 405.5,-332 405.5,-365.5"/>
<text text-anchor="start" x="238.5" y="-352" font-family="Helvetica,sans-Serif" font-size="10.00">CxxAstVisitorComponentIndexer</text>
<text text-anchor="middle" x="318" y="-339.25" font-family="Helvetica,sans-Serif" font-size="10.00">::visitTypeAliasDecl</text>
</a>
</g>
</g>
<!-- Node7&#45;&gt;Node28 -->
<g id="edge33_Node000007_Node000028" class="edge">
<title>Node7&#45;&gt;Node28</title>
<g id="a_edge33_Node000007_Node000028"><a xlink:title=" ">
<path fill="none" stroke="#63b8ff" d="M547.49,-736.47C545.85,-664.75 531.17,-474.36 425,-374.75 419.4,-369.5 412.92,-365.26 405.98,-361.84"/>
<polygon fill="#63b8ff" stroke="#63b8ff" points="543.98,-736.23 547.63,-746.18 550.98,-736.13 543.98,-736.23"/>
</a>
</g>
</g>
<!-- Node29 -->
<g id="Node000029" class="node">
<title>Node29</title>
<g id="a_Node000029"><a xlink:href="classCxxAstVisitorComponentIndexer.html#a8f136cff2e81e7fdf1d7137b3d359a9e" target="_top" xlink:title=" ">
<polygon fill="white" stroke="#666666" points="405.5,-313.5 230.5,-313.5 230.5,-280 405.5,-280 405.5,-313.5"/>
<text text-anchor="start" x="238.5" y="-300" font-family="Helvetica,sans-Serif" font-size="10.00">CxxAstVisitorComponentIndexer</text>
<text text-anchor="middle" x="318" y="-287.25" font-family="Helvetica,sans-Serif" font-size="10.00">::visitTypedefDecl</text>
</a>
</g>
</g>
<!-- Node7&#45;&gt;Node29 -->
<g id="edge34_Node000007_Node000029" class="edge">
<title>Node7&#45;&gt;Node29</title>
<g id="a_edge34_Node000007_Node000029"><a xlink:title=" ">
<path fill="none" stroke="#63b8ff" d="M543.44,-736.51C530.24,-648.53 485.85,-381.81 425,-322.75 419.43,-317.34 412.92,-312.99 405.92,-309.51"/>
<polygon fill="#63b8ff" stroke="#63b8ff" points="539.95,-736.81 544.87,-746.2 546.87,-735.79 539.95,-736.81"/>
</a>
</g>
</g>
<!-- Node30 -->
<g id="Node000030" class="node">
<title>Node30</title>
<g id="a_Node000030"><a xlink:href="classCxxAstVisitorComponentIndexer.html#a7cb366490179bc9757448d99d02c830f" target="_top" xlink:title=" ">
<polygon fill="white" stroke="#666666" points="405.5,-261.5 230.5,-261.5 230.5,-228 405.5,-228 405.5,-261.5"/>
<text text-anchor="start" x="238.5" y="-248" font-family="Helvetica,sans-Serif" font-size="10.00">CxxAstVisitorComponentIndexer</text>
<text text-anchor="middle" x="318" y="-235.25" font-family="Helvetica,sans-Serif" font-size="10.00">::visitTypeLoc</text>
</a>
</g>
</g>
<!-- Node7&#45;&gt;Node30 -->
<g id="edge35_Node000007_Node000030" class="edge">
<title>Node7&#45;&gt;Node30</title>
<g id="a_edge35_Node000007_Node000030"><a xlink:title=" ">
<path fill="none" stroke="#63b8ff" d="M544.3,-736.37C533.06,-641.55 492.35,-337.93 425,-270.75 419.43,-265.2 412.88,-260.76 405.82,-257.23"/>
<polygon fill="#63b8ff" stroke="#63b8ff" points="540.8,-736.57 545.44,-746.1 547.76,-735.76 540.8,-736.57"/>
</a>
</g>
</g>
<!-- Node31 -->
<g id="Node000031" class="node">
<title>Node31</title>
<g id="a_Node000031"><a xlink:href="classCxxAstVisitorComponentIndexer.html#af923c3c38be44ee223152fe1ba1cc9f1" target="_top" xlink:title=" ">
<polygon fill="white" stroke="#666666" points="405.5,-209.5 230.5,-209.5 230.5,-176 405.5,-176 405.5,-209.5"/>
<text text-anchor="start" x="238.5" y="-196" font-family="Helvetica,sans-Serif" font-size="10.00">CxxAstVisitorComponentIndexer</text>
<text text-anchor="middle" x="318" y="-183.25" font-family="Helvetica,sans-Serif" font-size="10.00">::visitUsingDecl</text>
</a>
</g>
</g>
<!-- Node7&#45;&gt;Node31 -->
<g id="edge36_Node000007_Node000031" class="edge">
<title>Node7&#45;&gt;Node31</title>
<g id="a_edge36_Node000007_Node000031"><a xlink:title=" ">
<path fill="none" stroke="#63b8ff" d="M545,-736.1C535.57,-634.6 498.86,-294.08 425,-218.75 419.5,-213.13 412.99,-208.66 405.95,-205.1"/>
<polygon fill="#63b8ff" stroke="#63b8ff" points="541.51,-736.37 545.9,-746.01 548.48,-735.74 541.51,-736.37"/>
</a>
</g>
</g>
<!-- Node32 -->
<g id="Node000032" class="node">
<title>Node32</title>
<g id="a_Node000032"><a xlink:href="classCxxAstVisitorComponentIndexer.html#afa4db831372759933246621722800f10" target="_top" xlink:title=" ">
<polygon fill="white" stroke="#666666" points="405.5,-157.5 230.5,-157.5 230.5,-124 405.5,-124 405.5,-157.5"/>
<text text-anchor="start" x="238.5" y="-144" font-family="Helvetica,sans-Serif" font-size="10.00">CxxAstVisitorComponentIndexer</text>
<text text-anchor="middle" x="318" y="-131.25" font-family="Helvetica,sans-Serif" font-size="10.00">::visitUsingDirectiveDecl</text>
</a>
</g>
</g>
<!-- Node7&#45;&gt;Node32 -->
<g id="edge37_Node000007_Node000032" class="edge">
<title>Node7&#45;&gt;Node32</title>
<g id="a_edge37_Node000007_Node000032"><a xlink:title=" ">
<path fill="none" stroke="#63b8ff" d="M545.61,-736.24C537.93,-628.82 505.49,-250.4 425,-166.75 419.48,-161.02 412.92,-156.46 405.81,-152.86"/>
<polygon fill="#63b8ff" stroke="#63b8ff" points="542.12,-736.45 546.31,-746.18 549.1,-735.96 542.12,-736.45"/>
</a>
</g>
</g>
<!-- Node33 -->
<g id="Node000033" class="node">
<title>Node33</title>
<g id="a_Node000033"><a xlink:href="classCxxAstVisitorComponentIndexer.html#af981d167e3fec957e93e26ff28890cd8" target="_top" xlink:title=" ">
<polygon fill="white" stroke="#666666" points="415.25,-1415.5 220.75,-1415.5 220.75,-1382 415.25,-1382 415.25,-1415.5"/>
<text text-anchor="start" x="228.75" y="-1402" font-family="Helvetica,sans-Serif" font-size="10.00">CxxAstVisitorComponentIndexer</text>
<text text-anchor="middle" x="318" y="-1389.25" font-family="Helvetica,sans-Serif" font-size="10.00">::visitVarTemplateSpecializationDecl</text>
</a>
</g>
</g>
<!-- Node7&#45;&gt;Node33 -->
<g id="edge39_Node000007_Node000033" class="edge">
<title>Node7&#45;&gt;Node33</title>
<g id="a_edge39_Node000007_Node000033"><a xlink:title=" ">
<path fill="none" stroke="#63b8ff" d="M545.73,-793.05C538.4,-901.31 506.82,-1287.45 425,-1372.75 421.72,-1376.17 418.07,-1379.17 414.16,-1381.8"/>
<polygon fill="#63b8ff" stroke="#63b8ff" points="549.21,-793.52 546.37,-783.31 542.22,-793.06 549.21,-793.52"/>
</a>
</g>
</g>
<!-- Node12&#45;&gt;Node13 -->
<g id="edge16_Node000012_Node000013" class="edge">
<title>Node12&#45;&gt;Node13</title>
<g id="a_edge16_Node000012_Node000013"><a xlink:title=" ">
<path fill="none" stroke="#63b8ff" d="M259.37,-1083.76C233.6,-1093.08 202.82,-1104.09 175,-1113.75 163.78,-1117.65 151.71,-1121.75 140.25,-1125.6"/>
<polygon fill="#63b8ff" stroke="#63b8ff" points="260.44,-1087.1 268.66,-1080.4 258.06,-1080.51 260.44,-1087.1"/>
</a>
</g>
</g>
<!-- Node12&#45;&gt;Node14 -->
<g id="edge17_Node000012_Node000014" class="edge">
<title>Node12&#45;&gt;Node14</title>
<g id="a_edge17_Node000012_Node000014"><a xlink:title=" ">
<path fill="none" stroke="#63b8ff" d="M203.09,-1075.21C193.77,-1076.23 184.45,-1077.25 175.37,-1078.25"/>
<polygon fill="#63b8ff" stroke="#63b8ff" points="203.38,-1078.7 212.94,-1074.13 202.62,-1071.74 203.38,-1078.7"/>
</a>
</g>
</g>
<!-- Node12&#45;&gt;Node15 -->
<g id="edge18_Node000012_Node000015" class="edge">
<title>Node12&#45;&gt;Node15</title>
<g id="a_edge18_Node000012_Node000015"><a xlink:title=" ">
<path fill="none" stroke="#63b8ff" d="M203.09,-1046.3C193.77,-1044.95 184.45,-1043.61 175.37,-1042.3"/>
<polygon fill="#63b8ff" stroke="#63b8ff" points="202.55,-1049.76 212.95,-1047.72 203.55,-1042.83 202.55,-1049.76"/>
</a>
</g>
</g>
<!-- Node34&#45;&gt;Node2 -->
<g id="edge41_Node000034_Node000002" class="edge">
<title>Node34&#45;&gt;Node2</title>
<g id="a_edge41_Node000034_Node000002"><a xlink:title=" ">
<path fill="none" stroke="#63b8ff" d="M643.95,-37.72C747.62,-45.38 911.17,-57.45 1000.62,-64.05"/>
<polygon fill="#63b8ff" stroke="#63b8ff" points="644.29,-34.24 634.06,-36.99 643.78,-41.22 644.29,-34.24"/>
</a>
</g>
</g>
<!-- Node35&#45;&gt;Node2 -->
<g id="edge45_Node000035_Node000002" class="edge">
<title>Node35&#45;&gt;Node2</title>
<g id="a_edge45_Node000035_Node000002"><a xlink:title=" ">
<path fill="none" stroke="#63b8ff" d="M1156.35,-68.75C1147.37,-68.75 1138.45,-68.75 1129.9,-68.75"/>
<polygon fill="#63b8ff" stroke="#63b8ff" points="1156.22,-72.25 1166.22,-68.75 1156.22,-65.25 1156.22,-72.25"/>
</a>
</g>
</g>
<!-- Node36&#45;&gt;Node2 -->
<g id="edge47_Node000036_Node000002" class="edge">
<title>Node36&#45;&gt;Node2</title>
<g id="a_edge47_Node000036_Node000002"><a xlink:title=" ">
<path fill="none" stroke="#63b8ff" d="M1181.89,-36.95C1164.35,-41.78 1145.79,-46.88 1128.79,-51.55"/>
<polygon fill="#63b8ff" stroke="#63b8ff" points="1182.49,-40.42 1191.2,-34.39 1180.63,-33.67 1182.49,-40.42"/>
</a>
</g>
</g>
</g>
</svg>

<g id="navigator" transform="translate(0 0)" fill="#404254">
  <rect fill="#f2f5e9" fill-opacity="0.5" stroke="#606060" stroke-width=".5" x="0" y="0" width="60" height="60"/>
  <use id="zoomplus" xlink:href="#zoomPlus" x="17" y="9" onmousedown="handleZoom(evt,'in')"/>
  <use id="zoomminus" xlink:href="#zoomMin" x="42" y="9" onmousedown="handleZoom(evt,'out')"/>
  <use id="reset" xlink:href="#resetDef" x="30" y="36" onmousedown="handleReset()"/>
   <use id="arrowup" xlink:href="#arrowUp" x="0" y="0" onmousedown="handlePan(0,-1)"/>
  <use id="arrowright" xlink:href="#arrowRight" x="0" y="0" onmousedown="handlePan(1,0)"/>
  <use id="arrowdown" xlink:href="#arrowDown" x="0" y="0" onmousedown="handlePan(0,1)"/>
  <use id="arrowleft" xlink:href="#arrowLeft" x="0" y="0" onmousedown="handlePan(-1,0)"/>
</g>
<svg viewBox="0 0 15 15" width="100%" height="30px" preserveAspectRatio="xMaxYMin meet">
 <g id="arrow_out" transform="scale(0.3 0.3)">
  <a xlink:href="classCxxNameResolver_a6fbe93c3fade0ace289cd85e661b4657_icgraph_org.svg" target="_base">
   <rect id="button" ry="5" rx="5" y="6" x="6" height="38" width="38"
        fill="#f2f5e9" fill-opacity="0.5" stroke="#606060" stroke-width="1.0"/>
   <path id="arrow"
     d="M 11.500037,31.436501 C 11.940474,20.09759 22.043105,11.32322 32.158766,21.979434 L 37.068811,17.246167 C 37.068811,17.246167 37.088388,32 37.088388,32 L 22.160133,31.978069 C 22.160133,31.978069 26.997745,27.140456 26.997745,27.140456 C 18.528582,18.264221 13.291696,25.230495 11.500037,31.436501 z"
     style="fill:#404040;"/>
  </a>
 </g>
</svg>

<style type='text/css'>
<![CDATA[
[data-mouse-over-selected='false'] { opacity: 0.7; }
[data-mouse-over-selected='true']  { opacity: 1.0; }
]]>
</style>
<script type="application/ecmascript"><![CDATA[
document.addEventListener('DOMContentLoaded', (event) => {
  highlightEdges();
  highlightAdjacentNodes();
});
]]></script>
</svg>
