<?xml version="1.0" encoding="UTF-8" standalone="no"?>
<!DOCTYPE svg PUBLIC "-//W3C//DTD SVG 1.1//EN"
 "http://www.w3.org/Graphics/SVG/1.1/DTD/svg11.dtd">
<!-- Generated by graphviz version 7.1.0 (0)
 -->
<!-- Title: QtIndexingReportDialog::requestReindexing Pages: 1 -->
<svg width="524pt" height="86pt"
 viewBox="0.00 0.00 524.00 86.00" xmlns="http://www.w3.org/2000/svg" xmlns:xlink="http://www.w3.org/1999/xlink">
<g id="graph0" class="graph" transform="scale(1 1) rotate(0) translate(4 82)">
<title>QtIndexingReportDialog::requestReindexing</title>
<!-- Node1 -->
<g id="node1" class="node">
<title>Node1</title>
<g id="a_node1"><a xlink:title=" ">
<polygon fill="#999999" stroke="#666666" points="516,-54 382,-54 382,-24 516,-24 516,-54"/>
<text text-anchor="start" x="390" y="-42" font-family="Helvetica,sans-Serif" font-size="10.00">QtIndexingReportDialog</text>
<text text-anchor="middle" x="449" y="-31" font-family="Helvetica,sans-Serif" font-size="10.00">::requestReindexing</text>
</a>
</g>
</g>
<!-- Node2 -->
<g id="node2" class="node">
<title>Node2</title>
<g id="a_node2"><a xlink:href="classQtDialogView.html#ac5a2b9b8b8e86b34ca9f4d443a56779c" target="_top" xlink:title=" ">
<polygon fill="white" stroke="#666666" points="346,-78 176,-78 176,-48 346,-48 346,-78"/>
<text text-anchor="start" x="184" y="-66" font-family="Helvetica,sans-Serif" font-size="10.00">QtDialogView::finishedIndexing</text>
<text text-anchor="middle" x="261" y="-55" font-family="Helvetica,sans-Serif" font-size="10.00">Dialog</text>
</a>
</g>
</g>
<!-- Node1&#45;&gt;Node2 -->
<g id="edge1" class="edge">
<title>Node1&#45;&gt;Node2</title>
<path fill="none" stroke="#63b8ff" d="M370.45,-49.01C362.45,-50.04 354.29,-51.09 346.22,-52.13"/>
<polygon fill="#63b8ff" stroke="#63b8ff" points="370.67,-52.51 380.14,-47.76 369.77,-45.57 370.67,-52.51"/>
</g>
<!-- Node3 -->
<g id="node3" class="node">
<title>Node3</title>
<g id="a_node3"><a xlink:href="classQtIndexingReportDialog.html#a8a7b0512ab0b538a5a3a1e5ed97e80fe" target="_top" xlink:title=" ">
<polygon fill="white" stroke="#666666" points="328,-30 194,-30 194,0 328,0 328,-30"/>
<text text-anchor="start" x="202" y="-18" font-family="Helvetica,sans-Serif" font-size="10.00">QtIndexingReportDialog</text>
<text text-anchor="middle" x="261" y="-7" font-family="Helvetica,sans-Serif" font-size="10.00">::onStartInDepthPressed</text>
</a>
</g>
</g>
<!-- Node1&#45;&gt;Node3 -->
<g id="edge2" class="edge">
<title>Node1&#45;&gt;Node3</title>
<path fill="none" stroke="#63b8ff" d="M370.52,-29C356.5,-27.19 342,-25.32 328.34,-23.56"/>
<polygon fill="#63b8ff" stroke="#63b8ff" points="369.77,-32.43 380.14,-30.24 370.67,-25.49 369.77,-32.43"/>
</g>
<!-- Node4 -->
<g id="node4" class="node">
<title>Node4</title>
<g id="a_node4"><a xlink:href="classQtIndexingReportDialog.html#a4e4b2978d072627e7a0e79bca1c4ae2c" target="_top" xlink:title=" ">
<polygon fill="white" stroke="#666666" points="140,-30 0,-30 0,0 140,0 140,-30"/>
<text text-anchor="start" x="8" y="-18" font-family="Helvetica,sans-Serif" font-size="10.00">QtIndexingReportDialog</text>
<text text-anchor="middle" x="70" y="-7" font-family="Helvetica,sans-Serif" font-size="10.00">::QtIndexingReportDialog</text>
</a>
</g>
</g>
<!-- Node3&#45;&gt;Node4 -->
<g id="edge3" class="edge">
<title>Node3&#45;&gt;Node4</title>
<path fill="none" stroke="#63b8ff" d="M182.15,-15C168.32,-15 153.99,-15 140.41,-15"/>
<polygon fill="#63b8ff" stroke="#63b8ff" points="182.12,-18.5 192.12,-15 182.12,-11.5 182.12,-18.5"/>
</g>
</g>
</svg>
