<?xml version="1.0" encoding="UTF-8" standalone="no"?>
<!DOCTYPE svg PUBLIC "-//W3C//DTD SVG 1.1//EN"
 "http://www.w3.org/Graphics/SVG/1.1/DTD/svg11.dtd">
<!-- Generated by graphviz version 9.0.0 (0)
 -->
<!-- Title: SqliteIndexStorage::getEdgesBySourceIds Pages: 1 -->
<svg width="264pt" height="68pt"
 viewBox="0.00 0.00 264.25 67.75" xmlns="http://www.w3.org/2000/svg" xmlns:xlink="http://www.w3.org/1999/xlink">
<g id="graph0" class="graph" transform="scale(1 1) rotate(0) translate(4 63.75)">
<title>SqliteIndexStorage::getEdgesBySourceIds</title>
<!-- Node1 -->
<g id="Node000001" class="node">
<title>Node1</title>
<g id="a_Node000001"><a xlink:title=" ">
<polygon fill="#999999" stroke="#666666" points="127,-46.12 0,-46.12 0,-12.62 127,-12.62 127,-46.12"/>
<text text-anchor="start" x="8" y="-32.62" font-family="Helvetica,sans-Serif" font-size="10.00">SqliteIndexStorage</text>
<text text-anchor="middle" x="63.5" y="-19.88" font-family="Helvetica,sans-Serif" font-size="10.00">::getEdgesBySourceIds</text>
</a>
</g>
</g>
<!-- Node2 -->
<g id="Node000002" class="node">
<title>Node2</title>
<g id="a_Node000002"><a xlink:href="namespaceutility.html#a237f617b0b07dbb7215f63901217c7a4" target="_top" xlink:title=" ">
<polygon fill="white" stroke="#666666" points="243.5,-59.75 175.75,-59.75 175.75,-39 243.5,-39 243.5,-59.75"/>
<text text-anchor="middle" x="209.62" y="-46.25" font-family="Helvetica,sans-Serif" font-size="10.00">utility::join</text>
</a>
</g>
</g>
<!-- Node1&#45;&gt;Node2 -->
<g id="edge1_Node000001_Node000002" class="edge">
<title>Node1&#45;&gt;Node2</title>
<g id="a_edge1_Node000001_Node000002"><a xlink:title=" ">
<path fill="none" stroke="#63b8ff" d="M127.3,-38.09C139.7,-39.81 152.47,-41.58 164.12,-43.2"/>
<polygon fill="#63b8ff" stroke="#63b8ff" points="163.45,-46.64 173.83,-44.55 164.41,-39.71 163.45,-46.64"/>
</a>
</g>
</g>
<!-- Node3 -->
<g id="Node000003" class="node">
<title>Node3</title>
<g id="a_Node000003"><a xlink:href="namespaceutility.html#aea0681f6afa2ac9505f8f5a988bd04f8" target="_top" xlink:title=" ">
<polygon fill="white" stroke="#666666" points="256.25,-20.75 163,-20.75 163,0 256.25,0 256.25,-20.75"/>
<text text-anchor="middle" x="209.62" y="-7.25" font-family="Helvetica,sans-Serif" font-size="10.00">utility::toStrings</text>
</a>
</g>
</g>
<!-- Node1&#45;&gt;Node3 -->
<g id="edge2_Node000001_Node000003" class="edge">
<title>Node1&#45;&gt;Node3</title>
<g id="a_edge2_Node000001_Node000003"><a xlink:title=" ">
<path fill="none" stroke="#63b8ff" d="M127.3,-21.1C135.25,-20.05 143.35,-18.98 151.21,-17.94"/>
<polygon fill="#63b8ff" stroke="#63b8ff" points="151.55,-21.43 161.01,-16.65 150.64,-14.49 151.55,-21.43"/>
</a>
</g>
</g>
</g>
</svg>
