<?xml version="1.0" encoding="UTF-8" standalone="no"?>
<!DOCTYPE svg PUBLIC "-//W3C//DTD SVG 1.1//EN"
 "http://www.w3.org/Graphics/SVG/1.1/DTD/svg11.dtd">
<!-- Generated by graphviz version 7.1.0 (0)
 -->
<!-- Title: QtProjectWizard::selectedSourceGroupChanged Pages: 1 -->
<svg width="690pt" height="364pt"
 viewBox="0.00 0.00 690.00 364.00" xmlns="http://www.w3.org/2000/svg" xmlns:xlink="http://www.w3.org/1999/xlink">
<g id="graph0" class="graph" transform="scale(1 1) rotate(0) translate(4 360)">
<title>QtProjectWizard::selectedSourceGroupChanged</title>
<!-- Node1 -->
<g id="node1" class="node">
<title>Node1</title>
<g id="a_node1"><a xlink:title=" ">
<polygon fill="#999999" stroke="#666666" points="143,-198 0,-198 0,-168 143,-168 143,-198"/>
<text text-anchor="start" x="8" y="-186" font-family="Helvetica,sans-Serif" font-size="10.00">QtProjectWizard::selected</text>
<text text-anchor="middle" x="71.5" y="-175" font-family="Helvetica,sans-Serif" font-size="10.00">SourceGroupChanged</text>
</a>
</g>
</g>
<!-- Node2 -->
<g id="node2" class="node">
<title>Node2</title>
<g id="a_node2"><a xlink:href="classQtProjectWizardContentGroup.html#a207db98ce1cb95bc8853e8bcc0aa7c11" target="_top" xlink:title=" ">
<polygon fill="white" stroke="#666666" points="342,-356 179,-356 179,-326 342,-326 342,-356"/>
<text text-anchor="start" x="187" y="-344" font-family="Helvetica,sans-Serif" font-size="10.00">QtProjectWizardContentGroup</text>
<text text-anchor="middle" x="260.5" y="-333" font-family="Helvetica,sans-Serif" font-size="10.00">::addContent</text>
</a>
</g>
</g>
<!-- Node1&#45;&gt;Node2 -->
<g id="edge1" class="edge">
<title>Node1&#45;&gt;Node2</title>
<path fill="none" stroke="#63b8ff" d="M80.52,-198.38C95.84,-226.26 131.98,-285.21 179,-317 180.81,-318.23 182.69,-319.39 184.61,-320.5"/>
<polygon fill="#63b8ff" stroke="#63b8ff" points="182.75,-323.47 193.25,-324.87 185.91,-317.23 182.75,-323.47"/>
</g>
<!-- Node3 -->
<g id="node3" class="node">
<title>Node3</title>
<g id="a_node3"><a xlink:href="classQtProjectWizardContentGroup.html#a666e243710e3a20a1ef74360e7d41eb7" target="_top" xlink:title=" ">
<polygon fill="white" stroke="#666666" points="342,-308 179,-308 179,-278 342,-278 342,-308"/>
<text text-anchor="start" x="187" y="-296" font-family="Helvetica,sans-Serif" font-size="10.00">QtProjectWizardContentGroup</text>
<text text-anchor="middle" x="260.5" y="-285" font-family="Helvetica,sans-Serif" font-size="10.00">::addSpace</text>
</a>
</g>
</g>
<!-- Node1&#45;&gt;Node3 -->
<g id="edge2" class="edge">
<title>Node1&#45;&gt;Node3</title>
<path fill="none" stroke="#63b8ff" d="M89.09,-198.21C109.14,-215.95 144.51,-245.25 179,-264 185.17,-267.35 191.8,-270.46 198.52,-273.29"/>
<polygon fill="#63b8ff" stroke="#63b8ff" points="197.09,-276.49 207.68,-276.95 199.69,-269.99 197.09,-276.49"/>
</g>
<!-- Node4 -->
<g id="node4" class="node">
<title>Node4</title>
<g id="a_node4"><a xlink:href="classQtProjectWizard.html#a5e09eeea406f5f60e87c676d3a96838e" target="_top" xlink:title=" ">
<polygon fill="white" stroke="#666666" points="329,-222 192,-222 192,-192 329,-192 329,-222"/>
<text text-anchor="start" x="200" y="-210" font-family="Helvetica,sans-Serif" font-size="10.00">QtProjectWizard::canExit</text>
<text text-anchor="middle" x="260.5" y="-199" font-family="Helvetica,sans-Serif" font-size="10.00">Content</text>
</a>
</g>
</g>
<!-- Node1&#45;&gt;Node4 -->
<g id="edge3" class="edge">
<title>Node1&#45;&gt;Node4</title>
<path fill="none" stroke="#63b8ff" d="M143.46,-192.11C155.57,-193.66 168.21,-195.28 180.5,-196.86"/>
<polygon fill="#63b8ff" stroke="#63b8ff" points="179.81,-200.3 190.17,-198.1 180.7,-193.36 179.81,-200.3"/>
</g>
<!-- Node5 -->
<g id="node5" class="node">
<title>Node5</title>
<g id="a_node5"><a xlink:href="classQtProjectWizardWindow.html#a53f13a07e6c716d65e1f442c8f35d422" target="_top" xlink:title=" ">
<polygon fill="white" stroke="#666666" points="512,-267 378,-267 378,-237 512,-237 512,-267"/>
<text text-anchor="start" x="386" y="-255" font-family="Helvetica,sans-Serif" font-size="10.00">QtProjectWizardWindow</text>
<text text-anchor="middle" x="445" y="-244" font-family="Helvetica,sans-Serif" font-size="10.00">::content</text>
</a>
</g>
</g>
<!-- Node1&#45;&gt;Node5 -->
<g id="edge7" class="edge">
<title>Node1&#45;&gt;Node5</title>
<path fill="none" stroke="#63b8ff" d="M99.57,-198.35C120.55,-209.46 150.71,-223.74 179,-231 240.64,-246.82 312.75,-251.69 366.18,-252.82"/>
<polygon fill="#63b8ff" stroke="#63b8ff" points="366.06,-256.32 376.11,-252.98 366.17,-249.32 366.06,-256.32"/>
</g>
<!-- Node8 -->
<g id="node8" class="node">
<title>Node8</title>
<g id="a_node8"><a xlink:href="classQtProjectWizardWindow.html#afacceb91e17ec87c8bbd1a93111f9d35" target="_top" xlink:title=" ">
<polygon fill="white" stroke="#666666" points="327.5,-174 193.5,-174 193.5,-144 327.5,-144 327.5,-174"/>
<text text-anchor="start" x="201.5" y="-162" font-family="Helvetica,sans-Serif" font-size="10.00">QtProjectWizardWindow</text>
<text text-anchor="middle" x="260.5" y="-151" font-family="Helvetica,sans-Serif" font-size="10.00">::loadContent</text>
</a>
</g>
</g>
<!-- Node1&#45;&gt;Node8 -->
<g id="edge8" class="edge">
<title>Node1&#45;&gt;Node8</title>
<path fill="none" stroke="#63b8ff" d="M143.46,-173.89C156.09,-172.27 169.3,-170.58 182.09,-168.93"/>
<polygon fill="#63b8ff" stroke="#63b8ff" points="182.23,-172.45 191.7,-167.7 181.34,-165.5 182.23,-172.45"/>
</g>
<!-- Node10 -->
<g id="node10" class="node">
<title>Node10</title>
<g id="a_node10"><a xlink:href="classQtProjectWizardWindow.html#a01fdbfc33a38e712fcfef2552826c4a5" target="_top" xlink:title=" ">
<polygon fill="white" stroke="#666666" points="327.5,-126 193.5,-126 193.5,-96 327.5,-96 327.5,-126"/>
<text text-anchor="start" x="201.5" y="-114" font-family="Helvetica,sans-Serif" font-size="10.00">QtProjectWizardWindow</text>
<text text-anchor="middle" x="260.5" y="-103" font-family="Helvetica,sans-Serif" font-size="10.00">::populateWindow</text>
</a>
</g>
</g>
<!-- Node1&#45;&gt;Node10 -->
<g id="edge10" class="edge">
<title>Node1&#45;&gt;Node10</title>
<path fill="none" stroke="#63b8ff" d="M103.73,-167.59C124.71,-157.57 153.15,-144.63 179,-135 183.66,-133.26 188.51,-131.56 193.41,-129.92"/>
<polygon fill="#63b8ff" stroke="#63b8ff" points="194.31,-133.31 202.74,-126.89 192.15,-126.65 194.31,-133.31"/>
</g>
<!-- Node13 -->
<g id="node13" class="node">
<title>Node13</title>
<g id="a_node13"><a xlink:href="classQtProjectWizard.html#ad768a7dae364d0983c600b072eb05988" target="_top" xlink:title=" ">
<polygon fill="white" stroke="#666666" points="336,-78 185,-78 185,-48 336,-48 336,-78"/>
<text text-anchor="start" x="193" y="-66" font-family="Helvetica,sans-Serif" font-size="10.00">QtProjectWizard::selected</text>
<text text-anchor="middle" x="260.5" y="-55" font-family="Helvetica,sans-Serif" font-size="10.00">SourceGroupNameChanged</text>
</a>
</g>
</g>
<!-- Node1&#45;&gt;Node13 -->
<g id="edge13" class="edge">
<title>Node1&#45;&gt;Node13</title>
<path fill="none" stroke="#63b8ff" d="M85.38,-167.74C103.97,-146.63 140.37,-108.7 179,-87 181.5,-85.59 184.1,-84.26 186.75,-83"/>
<polygon fill="#63b8ff" stroke="#63b8ff" points="188.06,-86.25 195.86,-79.09 185.29,-79.82 188.06,-86.25"/>
</g>
<!-- Node14 -->
<g id="node14" class="node">
<title>Node14</title>
<g id="a_node14"><a xlink:href="classQtProjectWizardWindow.html#a59b04699b27d10488f983bc4f0047d66" target="_top" xlink:title=" ">
<polygon fill="white" stroke="#666666" points="327.5,-30 193.5,-30 193.5,0 327.5,0 327.5,-30"/>
<text text-anchor="start" x="201.5" y="-18" font-family="Helvetica,sans-Serif" font-size="10.00">QtProjectWizardWindow</text>
<text text-anchor="middle" x="260.5" y="-7" font-family="Helvetica,sans-Serif" font-size="10.00">::setContent</text>
</a>
</g>
</g>
<!-- Node1&#45;&gt;Node14 -->
<g id="edge14" class="edge">
<title>Node1&#45;&gt;Node14</title>
<path fill="none" stroke="#63b8ff" d="M79.53,-167.85C93.92,-138.48 129.62,-73.65 179,-39 180.6,-37.88 182.25,-36.81 183.95,-35.78"/>
<polygon fill="#63b8ff" stroke="#63b8ff" points="185.51,-38.92 192.73,-31.16 182.25,-32.72 185.51,-38.92"/>
</g>
<!-- Node4&#45;&gt;Node5 -->
<g id="edge4" class="edge">
<title>Node4&#45;&gt;Node5</title>
<path fill="none" stroke="#63b8ff" d="M324.31,-222.49C339.16,-226.15 355.13,-230.09 370.41,-233.85"/>
<polygon fill="#63b8ff" stroke="#63b8ff" points="369.37,-237.2 379.92,-236.2 371.05,-230.41 369.37,-237.2"/>
</g>
<!-- Node6 -->
<g id="node6" class="node">
<title>Node6</title>
<g id="a_node6"><a xlink:href="classQtProjectWizardWindow.html#adb65b14dee89b8ecaa923b88c2fffd22" target="_top" xlink:title=" ">
<polygon fill="white" stroke="#666666" points="512,-219 378,-219 378,-189 512,-189 512,-219"/>
<text text-anchor="start" x="386" y="-207" font-family="Helvetica,sans-Serif" font-size="10.00">QtProjectWizardWindow</text>
<text text-anchor="middle" x="445" y="-196" font-family="Helvetica,sans-Serif" font-size="10.00">::saveContent</text>
</a>
</g>
</g>
<!-- Node4&#45;&gt;Node6 -->
<g id="edge5" class="edge">
<title>Node4&#45;&gt;Node6</title>
<path fill="none" stroke="#63b8ff" d="M329.46,-205.88C341.48,-205.69 354.09,-205.48 366.36,-205.28"/>
<polygon fill="#63b8ff" stroke="#63b8ff" points="366.05,-208.78 375.99,-205.12 365.93,-201.78 366.05,-208.78"/>
</g>
<!-- Node7 -->
<g id="node7" class="node">
<title>Node7</title>
<g id="a_node7"><a xlink:href="classQtProjectWizardContent.html#a5894e1a13375d5af780e33c6772d0e24" target="_top" xlink:title=" ">
<polygon fill="white" stroke="#666666" points="682,-219 548,-219 548,-189 682,-189 682,-219"/>
<text text-anchor="start" x="556" y="-207" font-family="Helvetica,sans-Serif" font-size="10.00">QtProjectWizardContent</text>
<text text-anchor="middle" x="615" y="-196" font-family="Helvetica,sans-Serif" font-size="10.00">::save</text>
</a>
</g>
</g>
<!-- Node6&#45;&gt;Node7 -->
<g id="edge6" class="edge">
<title>Node6&#45;&gt;Node7</title>
<path fill="none" stroke="#63b8ff" d="M512.4,-204C520.16,-204 528.14,-204 536.04,-204"/>
<polygon fill="#63b8ff" stroke="#63b8ff" points="536.02,-207.5 546.02,-204 536.02,-200.5 536.02,-207.5"/>
</g>
<!-- Node9 -->
<g id="node9" class="node">
<title>Node9</title>
<g id="a_node9"><a xlink:href="classQtProjectWizardContent.html#afb749a02a553a8dffce9919d77e2ce56" target="_top" xlink:title=" ">
<polygon fill="white" stroke="#666666" points="512,-171 378,-171 378,-141 512,-141 512,-171"/>
<text text-anchor="start" x="386" y="-159" font-family="Helvetica,sans-Serif" font-size="10.00">QtProjectWizardContent</text>
<text text-anchor="middle" x="445" y="-148" font-family="Helvetica,sans-Serif" font-size="10.00">::load</text>
</a>
</g>
</g>
<!-- Node8&#45;&gt;Node9 -->
<g id="edge9" class="edge">
<title>Node8&#45;&gt;Node9</title>
<path fill="none" stroke="#63b8ff" d="M327.9,-157.91C340.44,-157.7 353.65,-157.49 366.49,-157.27"/>
<polygon fill="#63b8ff" stroke="#63b8ff" points="366.19,-160.78 376.13,-157.12 366.08,-153.78 366.19,-160.78"/>
</g>
<!-- Node11 -->
<g id="node11" class="node">
<title>Node11</title>
<g id="a_node11"><a xlink:href="classQtWindow.html#a1ecec13a4a553bc6aabd03c3ab821b2a" target="_top" xlink:title=" ">
<polygon fill="white" stroke="#666666" points="510,-120.5 380,-120.5 380,-101.5 510,-101.5 510,-120.5"/>
<text text-anchor="middle" x="445" y="-108.5" font-family="Helvetica,sans-Serif" font-size="10.00">QtWindow::isScrollAble</text>
</a>
</g>
</g>
<!-- Node10&#45;&gt;Node11 -->
<g id="edge11" class="edge">
<title>Node10&#45;&gt;Node11</title>
<path fill="none" stroke="#63b8ff" d="M327.9,-111C341.12,-111 355.09,-111 368.58,-111"/>
<polygon fill="#63b8ff" stroke="#63b8ff" points="368.27,-114.5 378.27,-111 368.27,-107.5 368.27,-114.5"/>
</g>
<!-- Node12 -->
<g id="node12" class="node">
<title>Node12</title>
<g id="a_node12"><a xlink:href="classQtProjectWizardContent.html#a82828f8e48f1c5f68d82bc7665e02fc3" target="_top" xlink:title=" ">
<polygon fill="white" stroke="#666666" points="512,-83 378,-83 378,-53 512,-53 512,-83"/>
<text text-anchor="start" x="386" y="-71" font-family="Helvetica,sans-Serif" font-size="10.00">QtProjectWizardContent</text>
<text text-anchor="middle" x="445" y="-60" font-family="Helvetica,sans-Serif" font-size="10.00">::populate</text>
</a>
</g>
</g>
<!-- Node10&#45;&gt;Node12 -->
<g id="edge12" class="edge">
<title>Node10&#45;&gt;Node12</title>
<path fill="none" stroke="#63b8ff" d="M327.13,-95.54C340.14,-92.47 353.91,-89.23 367.26,-86.08"/>
<polygon fill="#63b8ff" stroke="#63b8ff" points="367.94,-89.52 376.87,-83.82 366.33,-82.7 367.94,-89.52"/>
</g>
</g>
</svg>
