<?xml version="1.0" encoding="UTF-8" standalone="no"?>
<!DOCTYPE svg PUBLIC "-//W3C//DTD SVG 1.1//EN"
 "http://www.w3.org/Graphics/SVG/1.1/DTD/svg11.dtd">
<!-- Generated by graphviz version 7.1.0 (0)
 -->
<!-- Title: QtRecentProjectButton::updateButtons Pages: 1 -->
<svg width="673pt" height="108pt"
 viewBox="0.00 0.00 673.00 108.00" xmlns="http://www.w3.org/2000/svg" xmlns:xlink="http://www.w3.org/1999/xlink">
<g id="graph0" class="graph" transform="scale(1 1) rotate(0) translate(4 104)">
<title>QtRecentProjectButton::updateButtons</title>
<!-- Node1 -->
<g id="node1" class="node">
<title>Node1</title>
<g id="a_node1"><a xlink:title="A signal emitted when the butten status changed.">
<polygon fill="#999999" stroke="#666666" points="665,-52 537,-52 537,-22 665,-22 665,-52"/>
<text text-anchor="start" x="545" y="-40" font-family="Helvetica,sans-Serif" font-size="10.00">QtRecentProjectButton</text>
<text text-anchor="middle" x="601" y="-29" font-family="Helvetica,sans-Serif" font-size="10.00">::updateButtons</text>
</a>
</g>
</g>
<!-- Node2 -->
<g id="node2" class="node">
<title>Node2</title>
<g id="a_node2"><a xlink:href="classQtRecentProjectButton.html#ad0238fcedb06007d1f05112570bfdeb2" target="_top" xlink:title="This is implemented to receive widget context menu events.">
<polygon fill="white" stroke="#666666" points="501,-100 373,-100 373,-70 501,-70 501,-100"/>
<text text-anchor="start" x="381" y="-88" font-family="Helvetica,sans-Serif" font-size="10.00">QtRecentProjectButton</text>
<text text-anchor="middle" x="437" y="-77" font-family="Helvetica,sans-Serif" font-size="10.00">::contextMenuEvent</text>
</a>
</g>
</g>
<!-- Node1&#45;&gt;Node2 -->
<g id="edge1" class="edge">
<title>Node1&#45;&gt;Node2</title>
<path fill="none" stroke="#63b8ff" d="M537.23,-55.6C521.63,-60.22 505.08,-65.13 490.05,-69.58"/>
<polygon fill="#63b8ff" stroke="#63b8ff" points="537.81,-59.08 546.4,-52.88 535.82,-52.37 537.81,-59.08"/>
</g>
<!-- Node3 -->
<g id="node3" class="node">
<title>Node3</title>
<g id="a_node3"><a xlink:href="classQtRecentProjectButton.html#ac0342c0bfd64cc6a7bdf819b4db0206b" target="_top" xlink:title="A slot to button click.">
<polygon fill="white" stroke="#666666" points="501,-52 373,-52 373,-22 501,-22 501,-52"/>
<text text-anchor="start" x="381" y="-40" font-family="Helvetica,sans-Serif" font-size="10.00">QtRecentProjectButton</text>
<text text-anchor="middle" x="437" y="-29" font-family="Helvetica,sans-Serif" font-size="10.00">::handleButtonClick</text>
</a>
</g>
</g>
<!-- Node1&#45;&gt;Node3 -->
<g id="edge2" class="edge">
<title>Node1&#45;&gt;Node3</title>
<path fill="none" stroke="#63b8ff" d="M525.59,-37C517.53,-37 509.38,-37 501.46,-37"/>
<polygon fill="#63b8ff" stroke="#63b8ff" points="525.39,-40.5 535.39,-37 525.39,-33.5 525.39,-40.5"/>
</g>
<!-- Node4 -->
<g id="node4" class="node">
<title>Node4</title>
<g id="a_node4"><a xlink:href="classQtStartScreen.html#acc4f3487b59417f41c2ed73b13fc3fa8" target="_top" xlink:title="Fill/Refresh the recent projects layout.">
<polygon fill="white" stroke="#666666" points="337,-24.5 176,-24.5 176,-5.5 337,-5.5 337,-24.5"/>
<text text-anchor="middle" x="256.5" y="-12.5" font-family="Helvetica,sans-Serif" font-size="10.00">QtStartScreen::updateButtons</text>
</a>
</g>
</g>
<!-- Node1&#45;&gt;Node4 -->
<g id="edge6" class="edge">
<title>Node1&#45;&gt;Node4</title>
<path fill="none" stroke="#63b8ff" d="M535.1,-18.94C523.81,-16.47 512.13,-14.33 501,-13 446.64,-6.5 384.97,-7.09 337.29,-9.26"/>
<polygon fill="#63b8ff" stroke="#63b8ff" points="534.21,-22.33 544.74,-21.17 535.78,-15.51 534.21,-22.33"/>
</g>
<!-- Node3&#45;&gt;Node4 -->
<g id="edge3" class="edge">
<title>Node3&#45;&gt;Node4</title>
<path fill="none" stroke="#63b8ff" d="M361.15,-27.77C353.26,-26.8 345.22,-25.81 337.28,-24.83"/>
<polygon fill="#63b8ff" stroke="#63b8ff" points="360.71,-31.25 371.06,-29 361.57,-24.3 360.71,-31.25"/>
</g>
<!-- Node4&#45;&gt;Node4 -->
<g id="edge5" class="edge">
<title>Node4&#45;&gt;Node4</title>
<path fill="none" stroke="#63b8ff" d="M288.87,-35.6C285.14,-39.63 274.35,-42.5 256.5,-42.5 224.77,-42.5 215.35,-33.44 228.24,-24.87"/>
<polygon fill="#63b8ff" stroke="#63b8ff" points="292.14,-34.37 285.3,-26.28 285.61,-36.87 292.14,-34.37"/>
</g>
<!-- Node5 -->
<g id="node5" class="node">
<title>Node5</title>
<g id="a_node5"><a xlink:href="classQtStartScreen.html#af94d51fdb8883ce5aa82174c8e8cdf4c" target="_top" xlink:title="Initialize the startup window elements.">
<polygon fill="white" stroke="#666666" points="140,-30 0,-30 0,0 140,0 140,-30"/>
<text text-anchor="start" x="8" y="-18" font-family="Helvetica,sans-Serif" font-size="10.00">QtStartScreen::setupStart</text>
<text text-anchor="middle" x="70" y="-7" font-family="Helvetica,sans-Serif" font-size="10.00">Screen</text>
</a>
</g>
</g>
<!-- Node4&#45;&gt;Node5 -->
<g id="edge4" class="edge">
<title>Node4&#45;&gt;Node5</title>
<path fill="none" stroke="#63b8ff" d="M164.27,-15C156.19,-15 148.11,-15 140.26,-15"/>
<polygon fill="#63b8ff" stroke="#63b8ff" points="164.14,-18.5 174.14,-15 164.14,-11.5 164.14,-18.5"/>
</g>
</g>
</svg>
