<?xml version="1.0" encoding="UTF-8" standalone="no"?>
<!DOCTYPE svg PUBLIC "-//W3C//DTD SVG 1.1//EN"
 "http://www.w3.org/Graphics/SVG/1.1/DTD/svg11.dtd">
<!-- Generated by graphviz version 7.1.0 (0)
 -->
<!-- Title: MessageHistoryRedo::MessageHistoryRedo Pages: 1 -->
<svg width="332pt" height="64pt"
 viewBox="0.00 0.00 332.00 64.00" xmlns="http://www.w3.org/2000/svg" xmlns:xlink="http://www.w3.org/1999/xlink">
<g id="graph0" class="graph" transform="scale(1 1) rotate(0) translate(4 60)">
<title>MessageHistoryRedo::MessageHistoryRedo</title>
<!-- Node1 -->
<g id="node1" class="node">
<title>Node1</title>
<g id="a_node1"><a xlink:title=" ">
<polygon fill="#999999" stroke="#666666" points="126,-42.5 0,-42.5 0,-12.5 126,-12.5 126,-42.5"/>
<text text-anchor="start" x="8" y="-30.5" font-family="Helvetica,sans-Serif" font-size="10.00">MessageHistoryRedo</text>
<text text-anchor="middle" x="63" y="-19.5" font-family="Helvetica,sans-Serif" font-size="10.00">::MessageHistoryRedo</text>
</a>
</g>
</g>
<!-- Node2 -->
<g id="node2" class="node">
<title>Node2</title>
<g id="a_node2"><a xlink:href="classTabId.html#a0a4390a7d6a81d9443e6c8a615c149b9" target="_top" xlink:title=" ">
<polygon fill="white" stroke="#666666" points="292.5,-56 193.5,-56 193.5,-37 292.5,-37 292.5,-56"/>
<text text-anchor="middle" x="243" y="-44" font-family="Helvetica,sans-Serif" font-size="10.00">TabId::currentTab</text>
</a>
</g>
</g>
<!-- Node1&#45;&gt;Node2 -->
<g id="edge1" class="edge">
<title>Node1&#45;&gt;Node2</title>
<path fill="none" stroke="#63b8ff" d="M126.26,-34.15C144.35,-36.08 164.07,-38.18 182.03,-40.1"/>
<polygon fill="#63b8ff" stroke="#63b8ff" points="181.42,-43.55 191.73,-41.13 182.16,-36.59 181.42,-43.55"/>
</g>
<!-- Node3 -->
<g id="node3" class="node">
<title>Node3</title>
<g id="a_node3"><a xlink:href="classMessageBase.html#a78b74840a194c335f7ce17712e97e136" target="_top" xlink:title=" ">
<polygon fill="white" stroke="#666666" points="324,-19 162,-19 162,0 324,0 324,-19"/>
<text text-anchor="middle" x="243" y="-7" font-family="Helvetica,sans-Serif" font-size="10.00">MessageBase::setSchedulerId</text>
</a>
</g>
</g>
<!-- Node1&#45;&gt;Node3 -->
<g id="edge2" class="edge">
<title>Node1&#45;&gt;Node3</title>
<path fill="none" stroke="#63b8ff" d="M126.26,-21.2C134.02,-20.42 142.09,-19.6 150.19,-18.78"/>
<polygon fill="#63b8ff" stroke="#63b8ff" points="150.53,-22.27 160.13,-17.78 149.83,-15.3 150.53,-22.27"/>
</g>
</g>
</svg>
