<?xml version="1.0" encoding="UTF-8" standalone="no"?>
<!DOCTYPE svg PUBLIC "-//W3C//DTD SVG 1.1//EN"
 "http://www.w3.org/Graphics/SVG/1.1/DTD/svg11.dtd">
<!-- Generated by graphviz version 9.0.0 (0)
 -->
<!-- Title: CxxTypeName::toString Pages: 1 -->
<!--zoomable 171 -->

<svg id="main" version="1.1" xmlns="http://www.w3.org/2000/svg" xmlns:xlink="http://www.w3.org/1999/xlink" xml:space="preserve" onload="init(evt)">
<style type="text/css"><![CDATA[
.node, .edge {opacity: 0.7;}
.node.selected, .edge.selected {opacity: 1;}
.edge:hover path { stroke: red; }
.edge:hover polygon { stroke: red; fill: red; }
]]></style>

<defs>
  <circle id="rim" cx="0" cy="0" r="7"/>
  <circle id="rim2" cx="0" cy="0" r="3.5"/>
  <g id="zoomPlus">
    <use xlink:href="#rim" fill="#404040"><set attributeName="fill" to="#808080" begin="zoomplus.mouseover" end="zoomplus.mouseout"/></use>
    <path d="M-4,0h8M0,-4v8" fill="none" stroke="white" stroke-width="1.5" pointer-events="none"/>
  </g>
  <g id="zoomMin">
    <use xlink:href="#rim" fill="#404040"><set attributeName="fill" to="#808080" begin="zoomminus.mouseover" end="zoomminus.mouseout"/></use>
    <path d="M-4,0h8" fill="none" stroke="white" stroke-width="1.5" pointer-events="none"/>
  </g>
  <g id="arrowUp" transform="translate(30 24)">
    <use xlink:href="#rim"/>
    <path pointer-events="none" fill="none" stroke="white" stroke-width="1.5" d="M0,-3.0v7 M-2.5,-0.5L0,-3.0L2.5,-0.5"/>
  </g>
  <g id="arrowRight" transform="rotate(90) translate(36 -43)">
    <use xlink:href="#rim"/>
    <path pointer-events="none" fill="none" stroke="white" stroke-width="1.5" d="M0,-3.0v7 M-2.5,-0.5L0,-3.0L2.5,-0.5"/>
  </g>
  <g id="arrowDown" transform="rotate(180) translate(-30 -48)">
    <use xlink:href="#rim"/>
    <path pointer-events="none" fill="none" stroke="white" stroke-width="1.5" d="M0,-3.0v7 M-2.5,-0.5L0,-3.0L2.5,-0.5"/>
  </g>
  <g id="arrowLeft" transform="rotate(270) translate(-36 17)">
    <use xlink:href="#rim"/>
    <path pointer-events="none" fill="none" stroke="white" stroke-width="1.5" d="M0,-3.0v7 M-2.5,-0.5L0,-3.0L2.5,-0.5"/>
  </g>
  <g id="resetDef">
    <use xlink:href="#rim2" fill="#404040"><set attributeName="fill" to="#808080" begin="reset.mouseover" end="reset.mouseout"/></use>
  </g>
</defs>
<script type="application/ecmascript">
var viewWidth = 661;
var viewHeight = 171;
var sectionId = 'dynsection-11';
</script>
<script type="application/ecmascript" xlink:href="svg.min.js"/>
<svg id="graph" class="graph">
<g id="viewport">
<title>CxxTypeName::toString</title>
<!-- Node1 -->
<g id="Node000001" class="node">
<title>Node1</title>
<g id="a_Node000001"><a xlink:title=" ">
<polygon fill="#999999" stroke="#666666" points="130.75,-91.12 0,-91.12 0,-70.38 130.75,-70.38 130.75,-91.12"/>
<text text-anchor="middle" x="65.38" y="-77.62" font-family="Helvetica,sans-Serif" font-size="10.00">CxxTypeName::toString</text>
</a>
</g>
</g>
<!-- Node2 -->
<g id="Node000002" class="node">
<title>Node2</title>
<g id="a_Node000002"><a xlink:href="classCxxQualifierFlags.html#a7537e504403c15987c11ae86f3f224e0" target="_top" xlink:title=" ">
<polygon fill="white" stroke="#666666" points="314.75,-162.5 205.75,-162.5 205.75,-129 314.75,-129 314.75,-162.5"/>
<text text-anchor="start" x="213.75" y="-149" font-family="Helvetica,sans-Serif" font-size="10.00">CxxQualifierFlags::</text>
<text text-anchor="middle" x="260.25" y="-136.25" font-family="Helvetica,sans-Serif" font-size="10.00">empty</text>
</a>
</g>
</g>
<!-- Node1&#45;&gt;Node2 -->
<g id="edge1_Node000001_Node000002" class="edge">
<title>Node1&#45;&gt;Node2</title>
<g id="a_edge1_Node000001_Node000002"><a xlink:title=" ">
<path fill="none" stroke="#63b8ff" d="M92.12,-91.55C112.25,-99.79 141.04,-111.16 166.75,-119.75 175.73,-122.75 185.28,-125.7 194.71,-128.47"/>
<polygon fill="#63b8ff" stroke="#63b8ff" points="193.63,-131.8 204.21,-131.22 195.58,-125.08 193.63,-131.8"/>
</a>
</g>
</g>
<!-- Node3 -->
<g id="Node000003" class="node">
<title>Node3</title>
<g id="a_Node000003"><a xlink:href="classNameHierarchy.html#a13e670a2f7acdded37033ddf9f2d8f3c" target="_top" xlink:title=" ">
<polygon fill="white" stroke="#666666" points="353.75,-111.12 166.75,-111.12 166.75,-90.38 353.75,-90.38 353.75,-111.12"/>
<text text-anchor="middle" x="260.25" y="-97.62" font-family="Helvetica,sans-Serif" font-size="10.00">NameHierarchy::getQualifiedName</text>
</a>
</g>
</g>
<!-- Node1&#45;&gt;Node3 -->
<g id="edge2_Node000001_Node000003" class="edge">
<title>Node1&#45;&gt;Node3</title>
<g id="a_edge2_Node000001_Node000003"><a xlink:title=" ">
<path fill="none" stroke="#63b8ff" d="M131.14,-87.47C138.96,-88.28 147.1,-89.12 155.31,-89.97"/>
<polygon fill="#63b8ff" stroke="#63b8ff" points="154.72,-93.43 165.02,-90.98 155.44,-86.47 154.72,-93.43"/>
</a>
</g>
</g>
<!-- Node4 -->
<g id="Node000004" class="node">
<title>Node4</title>
<g id="a_Node000004"><a xlink:href="classCxxTypeName.html#a2f1172d1159362f649b6e13c094f4e4e" target="_top" xlink:title=" ">
<polygon fill="white" stroke="#666666" points="349.62,-72.12 170.88,-72.12 170.88,-51.38 349.62,-51.38 349.62,-72.12"/>
<text text-anchor="middle" x="260.25" y="-58.62" font-family="Helvetica,sans-Serif" font-size="10.00">CxxTypeName::toNameHierarchy</text>
</a>
</g>
</g>
<!-- Node1&#45;&gt;Node4 -->
<g id="edge3_Node000001_Node000004" class="edge">
<title>Node1&#45;&gt;Node4</title>
<g id="a_edge3_Node000001_Node000004"><a xlink:title=" ">
<path fill="none" stroke="#63b8ff" d="M131.14,-74.37C140.26,-73.47 149.81,-72.53 159.41,-71.59"/>
<polygon fill="#63b8ff" stroke="#63b8ff" points="159.55,-75.09 169.16,-70.62 158.87,-68.12 159.55,-75.09"/>
</a>
</g>
</g>
<!-- Node9 -->
<g id="Node000009" class="node">
<title>Node9</title>
<g id="a_Node000009"><a xlink:href="classCxxQualifierFlags.html#ab346e7fbeb2d7f5886a29ecddb663bcd" target="_top" xlink:title=" ">
<polygon fill="white" stroke="#666666" points="314.75,-33.5 205.75,-33.5 205.75,0 314.75,0 314.75,-33.5"/>
<text text-anchor="start" x="213.75" y="-20" font-family="Helvetica,sans-Serif" font-size="10.00">CxxQualifierFlags::</text>
<text text-anchor="middle" x="260.25" y="-7.25" font-family="Helvetica,sans-Serif" font-size="10.00">toString</text>
</a>
</g>
</g>
<!-- Node1&#45;&gt;Node9 -->
<g id="edge8_Node000001_Node000009" class="edge">
<title>Node1&#45;&gt;Node9</title>
<g id="a_edge8_Node000001_Node000009"><a xlink:title=" ">
<path fill="none" stroke="#63b8ff" d="M92.99,-69.94C113.09,-61.96 141.44,-51.08 166.75,-42.75 175.75,-39.79 185.3,-36.86 194.73,-34.1"/>
<polygon fill="#63b8ff" stroke="#63b8ff" points="195.6,-37.49 204.24,-31.36 193.66,-30.77 195.6,-37.49"/>
</a>
</g>
</g>
<!-- Node5 -->
<g id="Node000005" class="node">
<title>Node5</title>
<g id="a_Node000005"><a xlink:href="classCxxName.html#a0512d4f840429a763043d8fab0d4a221" target="_top" xlink:title=" ">
<polygon fill="white" stroke="#666666" points="528,-111.12 410.75,-111.12 410.75,-90.38 528,-90.38 528,-111.12"/>
<text text-anchor="middle" x="469.38" y="-97.62" font-family="Helvetica,sans-Serif" font-size="10.00">CxxName::getParent</text>
</a>
</g>
</g>
<!-- Node4&#45;&gt;Node5 -->
<g id="edge4_Node000004_Node000005" class="edge">
<title>Node4&#45;&gt;Node5</title>
<g id="a_edge4_Node000004_Node000005"><a xlink:title=" ">
<path fill="none" stroke="#63b8ff" d="M318.95,-72.61C343.98,-77.33 373.49,-82.88 399.65,-87.81"/>
<polygon fill="#63b8ff" stroke="#63b8ff" points="398.67,-91.19 409.14,-89.6 399.96,-84.31 398.67,-91.19"/>
</a>
</g>
</g>
<!-- Node6 -->
<g id="Node000006" class="node">
<title>Node6</title>
<g id="a_Node000006"><a xlink:href="classCxxName.html#af5978960abe7dc32047ed1b333ee11fa" target="_top" xlink:title=" ">
<polygon fill="white" stroke="#666666" points="549,-72.12 389.75,-72.12 389.75,-51.38 549,-51.38 549,-72.12"/>
<text text-anchor="middle" x="469.38" y="-58.62" font-family="Helvetica,sans-Serif" font-size="10.00">CxxName::getTemplateSuffix</text>
</a>
</g>
</g>
<!-- Node4&#45;&gt;Node6 -->
<g id="edge5_Node000004_Node000006" class="edge">
<title>Node4&#45;&gt;Node6</title>
<g id="a_edge5_Node000004_Node000006"><a xlink:title=" ">
<path fill="none" stroke="#63b8ff" d="M349.99,-61.75C359.28,-61.75 368.73,-61.75 378.04,-61.75"/>
<polygon fill="#63b8ff" stroke="#63b8ff" points="377.78,-65.25 387.78,-61.75 377.78,-58.25 377.78,-65.25"/>
</a>
</g>
</g>
<!-- Node8 -->
<g id="Node000008" class="node">
<title>Node8</title>
<g id="a_Node000008"><a xlink:href="classNameHierarchy.html#ab3e5cdccabb7ceed36c3cd11d1141eff" target="_top" xlink:title=" ">
<polygon fill="white" stroke="#666666" points="529.88,-33.12 408.88,-33.12 408.88,-12.38 529.88,-12.38 529.88,-33.12"/>
<text text-anchor="middle" x="469.38" y="-19.62" font-family="Helvetica,sans-Serif" font-size="10.00">NameHierarchy::push</text>
</a>
</g>
</g>
<!-- Node4&#45;&gt;Node8 -->
<g id="edge7_Node000004_Node000008" class="edge">
<title>Node4&#45;&gt;Node8</title>
<g id="a_edge7_Node000004_Node000008"><a xlink:title=" ">
<path fill="none" stroke="#63b8ff" d="M318.95,-50.89C343.98,-46.17 373.49,-40.62 399.65,-35.69"/>
<polygon fill="#63b8ff" stroke="#63b8ff" points="399.96,-39.19 409.14,-33.9 398.67,-32.31 399.96,-39.19"/>
</a>
</g>
</g>
<!-- Node7 -->
<g id="Node000007" class="node">
<title>Node7</title>
<g id="a_Node000007"><a xlink:href="namespaceutility.html#a237f617b0b07dbb7215f63901217c7a4" target="_top" xlink:title=" ">
<polygon fill="white" stroke="#666666" points="652.75,-72.12 585,-72.12 585,-51.38 652.75,-51.38 652.75,-72.12"/>
<text text-anchor="middle" x="618.88" y="-58.62" font-family="Helvetica,sans-Serif" font-size="10.00">utility::join</text>
</a>
</g>
</g>
<!-- Node6&#45;&gt;Node7 -->
<g id="edge6_Node000006_Node000007" class="edge">
<title>Node6&#45;&gt;Node7</title>
<g id="a_edge6_Node000006_Node000007"><a xlink:title=" ">
<path fill="none" stroke="#63b8ff" d="M549.31,-61.75C557.49,-61.75 565.58,-61.75 573.19,-61.75"/>
<polygon fill="#63b8ff" stroke="#63b8ff" points="573.16,-65.25 583.16,-61.75 573.16,-58.25 573.16,-65.25"/>
</a>
</g>
</g>
</g>
</svg>

<g id="navigator" transform="translate(0 0)" fill="#404254">
  <rect fill="#f2f5e9" fill-opacity="0.5" stroke="#606060" stroke-width=".5" x="0" y="0" width="60" height="60"/>
  <use id="zoomplus" xlink:href="#zoomPlus" x="17" y="9" onmousedown="handleZoom(evt,'in')"/>
  <use id="zoomminus" xlink:href="#zoomMin" x="42" y="9" onmousedown="handleZoom(evt,'out')"/>
  <use id="reset" xlink:href="#resetDef" x="30" y="36" onmousedown="handleReset()"/>
   <use id="arrowup" xlink:href="#arrowUp" x="0" y="0" onmousedown="handlePan(0,-1)"/>
  <use id="arrowright" xlink:href="#arrowRight" x="0" y="0" onmousedown="handlePan(1,0)"/>
  <use id="arrowdown" xlink:href="#arrowDown" x="0" y="0" onmousedown="handlePan(0,1)"/>
  <use id="arrowleft" xlink:href="#arrowLeft" x="0" y="0" onmousedown="handlePan(-1,0)"/>
</g>
<svg viewBox="0 0 15 15" width="100%" height="30px" preserveAspectRatio="xMaxYMin meet">
 <g id="arrow_out" transform="scale(0.3 0.3)">
  <a xlink:href="classCxxTypeName_a35f646fa240d07e13c11aded3a81da7c_cgraph_org.svg" target="_base">
   <rect id="button" ry="5" rx="5" y="6" x="6" height="38" width="38"
        fill="#f2f5e9" fill-opacity="0.5" stroke="#606060" stroke-width="1.0"/>
   <path id="arrow"
     d="M 11.500037,31.436501 C 11.940474,20.09759 22.043105,11.32322 32.158766,21.979434 L 37.068811,17.246167 C 37.068811,17.246167 37.088388,32 37.088388,32 L 22.160133,31.978069 C 22.160133,31.978069 26.997745,27.140456 26.997745,27.140456 C 18.528582,18.264221 13.291696,25.230495 11.500037,31.436501 z"
     style="fill:#404040;"/>
  </a>
 </g>
</svg>

<style type='text/css'>
<![CDATA[
[data-mouse-over-selected='false'] { opacity: 0.7; }
[data-mouse-over-selected='true']  { opacity: 1.0; }
]]>
</style>
<script type="application/ecmascript"><![CDATA[
document.addEventListener('DOMContentLoaded', (event) => {
  highlightEdges();
  highlightAdjacentNodes();
});
]]></script>
</svg>
