<?xml version="1.0" encoding="UTF-8" standalone="no"?>
<!DOCTYPE svg PUBLIC "-//W3C//DTD SVG 1.1//EN"
 "http://www.w3.org/Graphics/SVG/1.1/DTD/svg11.dtd">
<!-- Generated by graphviz version 9.0.0 (0)
 -->
<!-- Title: NodeTypeSet::nodeTypeToMask Pages: 1 -->
<svg width="429pt" height="29pt"
 viewBox="0.00 0.00 428.75 28.75" xmlns="http://www.w3.org/2000/svg" xmlns:xlink="http://www.w3.org/1999/xlink">
<g id="graph0" class="graph" transform="scale(1 1) rotate(0) translate(4 24.75)">
<title>NodeTypeSet::nodeTypeToMask</title>
<!-- Node1 -->
<g id="Node000001" class="node">
<title>Node1</title>
<g id="a_Node000001"><a xlink:title=" ">
<polygon fill="#999999" stroke="#666666" points="169,-20.75 0,-20.75 0,0 169,0 169,-20.75"/>
<text text-anchor="middle" x="84.5" y="-7.25" font-family="Helvetica,sans-Serif" font-size="10.00">NodeTypeSet::nodeTypeToMask</text>
</a>
</g>
</g>
<!-- Node2 -->
<g id="Node000002" class="node">
<title>Node2</title>
<g id="a_Node000002"><a xlink:href="classNodeType.html#a5867325c5a22c439188f707ba524f0e1" target="_top" xlink:title=" ">
<polygon fill="white" stroke="#666666" points="299.75,-20.75 205,-20.75 205,0 299.75,0 299.75,-20.75"/>
<text text-anchor="middle" x="252.38" y="-7.25" font-family="Helvetica,sans-Serif" font-size="10.00">NodeType::getId</text>
</a>
</g>
</g>
<!-- Node1&#45;&gt;Node2 -->
<g id="edge1_Node000001_Node000002" class="edge">
<title>Node1&#45;&gt;Node2</title>
<g id="a_edge1_Node000001_Node000002"><a xlink:title=" ">
<path fill="none" stroke="#63b8ff" d="M169.41,-10.38C177.52,-10.38 185.62,-10.38 193.39,-10.38"/>
<polygon fill="#63b8ff" stroke="#63b8ff" points="193.39,-13.88 203.39,-10.38 193.39,-6.88 193.39,-13.88"/>
</a>
</g>
</g>
<!-- Node3 -->
<g id="Node000003" class="node">
<title>Node3</title>
<g id="a_Node000003"><a xlink:href="NodeKind_8cpp.html#ab1eacbc56ca3143746b078cad695b17f" target="_top" xlink:title=" ">
<polygon fill="white" stroke="#666666" points="420.75,-20.75 335.75,-20.75 335.75,0 420.75,0 420.75,-20.75"/>
<text text-anchor="middle" x="378.25" y="-7.25" font-family="Helvetica,sans-Serif" font-size="10.00">nodeKindToInt</text>
</a>
</g>
</g>
<!-- Node2&#45;&gt;Node3 -->
<g id="edge2_Node000002_Node000003" class="edge">
<title>Node2&#45;&gt;Node3</title>
<g id="a_edge2_Node000002_Node000003"><a xlink:title=" ">
<path fill="none" stroke="#63b8ff" d="M300.21,-10.38C308.03,-10.38 316.2,-10.38 324.17,-10.38"/>
<polygon fill="#63b8ff" stroke="#63b8ff" points="324.12,-13.88 334.12,-10.38 324.12,-6.88 324.12,-13.88"/>
</a>
</g>
</g>
</g>
</svg>
