<?xml version="1.0" encoding="UTF-8" standalone="no"?>
<!DOCTYPE svg PUBLIC "-//W3C//DTD SVG 1.1//EN"
 "http://www.w3.org/Graphics/SVG/1.1/DTD/svg11.dtd">
<!-- Generated by graphviz version 9.0.0 (0)
 -->
<!-- Title: MatrixBase::getValue Pages: 1 -->
<svg width="440pt" height="176pt"
 viewBox="0.00 0.00 440.00 175.75" xmlns="http://www.w3.org/2000/svg" xmlns:xlink="http://www.w3.org/1999/xlink">

<svg id="main" version="1.1" xmlns="http://www.w3.org/2000/svg" xmlns:xlink="http://www.w3.org/1999/xlink" xml:space="preserve" onload="init(evt)">
<style type="text/css"><![CDATA[
.node, .edge {opacity: 0.7;}
.node.selected, .edge.selected {opacity: 1;}
.edge:hover path { stroke: red; }
.edge:hover polygon { stroke: red; fill: red; }
]]></style>
<script type="application/ecmascript" xlink:href="svg.min.js"/>
<svg id="graph" class="graph">
<g id="graph0" class="graph" transform="scale(1 1) rotate(0) translate(4 171.75)">
<title>MatrixBase::getValue</title>
<!-- Node1 -->
<g id="Node000001" class="node">
<title>Node1</title>
<g id="a_Node000001"><a xlink:title=" ">
<polygon fill="#999999" stroke="#666666" points="432,-96.75 311,-96.75 311,-76 432,-76 432,-96.75"/>
<text text-anchor="middle" x="371.5" y="-83.25" font-family="Helvetica,sans-Serif" font-size="10.00">MatrixBase::getValue</text>
</a>
</g>
</g>
<!-- Node2 -->
<g id="Node000002" class="node">
<title>Node2</title>
<g id="a_Node000002"><a xlink:href="classMatrixBase.html#a64191f6cc5b0c4d4d1dd0e46658039d1" target="_top" xlink:title=" ">
<polygon fill="white" stroke="#666666" points="275,-96.75 98.5,-96.75 98.5,-76 275,-76 275,-96.75"/>
<text text-anchor="middle" x="186.75" y="-83.25" font-family="Helvetica,sans-Serif" font-size="10.00">MatrixBase::matrixMultiplication</text>
</a>
</g>
</g>
<!-- Node1&#45;&gt;Node2 -->
<g id="edge1_Node000001_Node000002" class="edge">
<title>Node1&#45;&gt;Node2</title>
<g id="a_edge1_Node000001_Node000002"><a xlink:title=" ">
<path fill="none" stroke="#63b8ff" d="M299.28,-86.38C291.39,-86.38 283.29,-86.38 275.23,-86.38"/>
<polygon fill="#63b8ff" stroke="#63b8ff" points="299.15,-89.88 309.15,-86.38 299.15,-82.88 299.15,-89.88"/>
</a>
</g>
</g>
<!-- Node3 -->
<g id="Node000003" class="node">
<title>Node3</title>
<g id="a_Node000003"><a xlink:href="MatrixBase_8h.html#ab121376521af80a5a5386b18ae491719" target="_top" xlink:title=" ">
<polygon fill="white" stroke="#666666" points="59.5,-167.75 3,-167.75 3,-147 59.5,-147 59.5,-167.75"/>
<text text-anchor="middle" x="31.25" y="-154.25" font-family="Helvetica,sans-Serif" font-size="10.00">multiply</text>
</a>
</g>
</g>
<!-- Node1&#45;&gt;Node3 -->
<g id="edge5_Node000001_Node000003" class="edge">
<title>Node1&#45;&gt;Node3</title>
<g id="a_edge5_Node000001_Node000003"><a xlink:title=" ">
<path fill="none" stroke="#63b8ff" d="M336.53,-101.74C318.57,-109.29 295.95,-117.93 275,-123.38 198.6,-143.24 105.46,-152.17 59.96,-155.58"/>
<polygon fill="#63b8ff" stroke="#63b8ff" points="337.87,-104.97 345.67,-97.81 335.1,-98.54 337.87,-104.97"/>
</a>
</g>
</g>
<!-- Node4 -->
<g id="Node000004" class="node">
<title>Node4</title>
<g id="a_Node000004"><a xlink:href="MatrixBase_8h.html#a032cc729e261083e2b08ed9056274fb5" target="_top" xlink:title=" ">
<polygon fill="white" stroke="#666666" points="59.5,-124.75 3,-124.75 3,-104 59.5,-104 59.5,-124.75"/>
<text text-anchor="middle" x="31.25" y="-111.25" font-family="Helvetica,sans-Serif" font-size="10.00">multiply</text>
</a>
</g>
</g>
<!-- Node1&#45;&gt;Node4 -->
<g id="edge6_Node000001_Node000004" class="edge">
<title>Node1&#45;&gt;Node4</title>
<g id="a_edge6_Node000001_Node000004"><a xlink:title=" ">
<path fill="none" stroke="#63b8ff" d="M312.52,-99.44C300.19,-101.79 287.21,-103.94 275,-105.38 197.3,-114.49 104.75,-115.12 59.66,-114.78"/>
<polygon fill="#63b8ff" stroke="#63b8ff" points="313,-102.92 322.13,-97.54 311.65,-96.05 313,-102.92"/>
</a>
</g>
</g>
<!-- Node5 -->
<g id="Node000005" class="node">
<title>Node5</title>
<g id="a_Node000005"><a xlink:href="MatrixBase_8h.html#ad087bbec39ca90cbbc22d6e20854a18f" target="_top" xlink:title=" ">
<polygon fill="white" stroke="#666666" points="62.5,-76.75 0,-76.75 0,-56 62.5,-56 62.5,-76.75"/>
<text text-anchor="middle" x="31.25" y="-63.25" font-family="Helvetica,sans-Serif" font-size="10.00">operator*</text>
</a>
</g>
</g>
<!-- Node1&#45;&gt;Node5 -->
<g id="edge7_Node000001_Node000005" class="edge">
<title>Node1&#45;&gt;Node5</title>
<g id="a_edge7_Node000001_Node000005"><a xlink:title=" ">
<path fill="none" stroke="#63b8ff" d="M314.5,-73.37C301.6,-70.89 287.88,-68.67 275,-67.38 198.89,-59.72 108.68,-62.42 62.62,-64.63"/>
<polygon fill="#63b8ff" stroke="#63b8ff" points="313.61,-76.76 324.1,-75.29 314.99,-69.89 313.61,-76.76"/>
</a>
</g>
</g>
<!-- Node6 -->
<g id="Node000006" class="node">
<title>Node6</title>
<g id="a_Node000006"><a xlink:href="classMatrixBase.html#a02beb431975c6636d985f5a2fa68bf69" target="_top" xlink:title=" ">
<polygon fill="white" stroke="#666666" points="249.5,-20.75 124,-20.75 124,0 249.5,0 249.5,-20.75"/>
<text text-anchor="middle" x="186.75" y="-7.25" font-family="Helvetica,sans-Serif" font-size="10.00">MatrixBase::setValues</text>
</a>
</g>
</g>
<!-- Node1&#45;&gt;Node6 -->
<g id="edge8_Node000001_Node000006" class="edge">
<title>Node1&#45;&gt;Node6</title>
<g id="a_edge8_Node000001_Node000006"><a xlink:title=" ">
<path fill="none" stroke="#63b8ff" d="M343.89,-69.72C325.16,-58.55 299.23,-44.15 275,-34.38 262.18,-29.2 247.86,-24.75 234.59,-21.13"/>
<polygon fill="#63b8ff" stroke="#63b8ff" points="341.83,-72.57 352.19,-74.76 345.46,-66.58 341.83,-72.57"/>
</a>
</g>
</g>
<!-- Node2&#45;&gt;Node3 -->
<g id="edge2_Node000002_Node000003" class="edge">
<title>Node2&#45;&gt;Node3</title>
<g id="a_edge2_Node000002_Node000003"><a xlink:title=" ">
<path fill="none" stroke="#63b8ff" d="M152.24,-101.87C122.89,-115.45 81.01,-134.82 55.28,-146.72"/>
<polygon fill="#63b8ff" stroke="#63b8ff" points="153.46,-105.17 161.06,-97.79 150.52,-98.82 153.46,-105.17"/>
</a>
</g>
</g>
<!-- Node2&#45;&gt;Node4 -->
<g id="edge3_Node000002_Node000004" class="edge">
<title>Node2&#45;&gt;Node4</title>
<g id="a_edge3_Node000002_Node000004"><a xlink:title=" ">
<path fill="none" stroke="#63b8ff" d="M115.25,-99.24C95.57,-102.82 75.35,-106.51 59.79,-109.35"/>
<polygon fill="#63b8ff" stroke="#63b8ff" points="115.7,-102.71 124.91,-97.47 114.45,-95.82 115.7,-102.71"/>
</a>
</g>
</g>
<!-- Node2&#45;&gt;Node5 -->
<g id="edge4_Node000002_Node000005" class="edge">
<title>Node2&#45;&gt;Node5</title>
<g id="a_edge4_Node000002_Node000005"><a xlink:title=" ">
<path fill="none" stroke="#63b8ff" d="M91.44,-74.09C81.18,-72.75 71.36,-71.47 62.77,-70.35"/>
<polygon fill="#63b8ff" stroke="#63b8ff" points="90.84,-77.54 101.21,-75.36 91.75,-70.6 90.84,-77.54"/>
</a>
</g>
</g>
</g>
</svg>
</svg>

<style type='text/css'>
<![CDATA[
[data-mouse-over-selected='false'] { opacity: 0.7; }
[data-mouse-over-selected='true']  { opacity: 1.0; }
]]>
</style>
<script type="application/ecmascript"><![CDATA[
document.addEventListener('DOMContentLoaded', (event) => {
  highlightEdges();
  highlightAdjacentNodes();
});
]]></script>
</svg>
