<?xml version="1.0" encoding="UTF-8" standalone="no"?>
<!DOCTYPE svg PUBLIC "-//W3C//DTD SVG 1.1//EN"
 "http://www.w3.org/Graphics/SVG/1.1/DTD/svg11.dtd">
<!-- Generated by graphviz version 9.0.0 (0)
 -->
<!-- Title: QtGraphNode::addInEdge Pages: 1 -->
<svg width="703pt" height="58pt"
 viewBox="0.00 0.00 702.75 58.12" xmlns="http://www.w3.org/2000/svg" xmlns:xlink="http://www.w3.org/1999/xlink">
<g id="graph0" class="graph" transform="scale(1 1) rotate(0) translate(4 54.12)">
<title>QtGraphNode::addInEdge</title>
<!-- Node1 -->
<g id="Node000001" class="node">
<title>Node1</title>
<g id="a_Node000001"><a xlink:title=" ">
<polygon fill="#999999" stroke="#666666" points="694.75,-20.75 555.75,-20.75 555.75,0 694.75,0 694.75,-20.75"/>
<text text-anchor="middle" x="625.25" y="-7.25" font-family="Helvetica,sans-Serif" font-size="10.00">QtGraphNode::addInEdge</text>
</a>
</g>
</g>
<!-- Node2 -->
<g id="Node000002" class="node">
<title>Node2</title>
<g id="a_Node000002"><a xlink:href="classQtGraphView.html#a1360a1a08741b59d129c540a2b07693c" target="_top" xlink:title=" ">
<polygon fill="white" stroke="#666666" points="519.75,-20.75 378.5,-20.75 378.5,0 519.75,0 519.75,-20.75"/>
<text text-anchor="middle" x="449.12" y="-7.25" font-family="Helvetica,sans-Serif" font-size="10.00">QtGraphView::createEdge</text>
</a>
</g>
</g>
<!-- Node1&#45;&gt;Node2 -->
<g id="edge1_Node000001_Node000002" class="edge">
<title>Node1&#45;&gt;Node2</title>
<g id="a_edge1_Node000001_Node000002"><a xlink:title=" ">
<path fill="none" stroke="#63b8ff" d="M544.18,-10.38C536.16,-10.38 528.06,-10.38 520.16,-10.38"/>
<polygon fill="#63b8ff" stroke="#63b8ff" points="543.92,-13.88 553.92,-10.38 543.92,-6.88 543.92,-13.88"/>
</a>
</g>
</g>
<!-- Node3 -->
<g id="Node000003" class="node">
<title>Node3</title>
<g id="a_Node000003"><a xlink:href="classQtGraphView.html#aa066040429e23e79fde32586ca8625fe" target="_top" xlink:title=" ">
<polygon fill="white" stroke="#666666" points="342.5,-50.12 185.5,-50.12 185.5,-16.62 342.5,-16.62 342.5,-50.12"/>
<text text-anchor="start" x="193.5" y="-36.62" font-family="Helvetica,sans-Serif" font-size="10.00">QtGraphView::createBundled</text>
<text text-anchor="middle" x="264" y="-23.88" font-family="Helvetica,sans-Serif" font-size="10.00">EdgesEdge</text>
</a>
</g>
</g>
<!-- Node2&#45;&gt;Node3 -->
<g id="edge2_Node000002_Node000003" class="edge">
<title>Node2&#45;&gt;Node3</title>
<g id="a_edge2_Node000002_Node000003"><a xlink:title=" ">
<path fill="none" stroke="#63b8ff" d="M366.93,-20.57C358.95,-21.58 350.86,-22.59 342.92,-23.59"/>
<polygon fill="#63b8ff" stroke="#63b8ff" points="367.12,-24.08 376.61,-19.36 366.25,-17.13 367.12,-24.08"/>
</a>
</g>
</g>
<!-- Node4 -->
<g id="Node000004" class="node">
<title>Node4</title>
<g id="a_Node000004"><a xlink:href="classQtGraphView.html#a71858975a5b07059726b0337d19fe296" target="_top" xlink:title=" ">
<polygon fill="white" stroke="#666666" points="149.5,-20.75 0,-20.75 0,0 149.5,0 149.5,-20.75"/>
<text text-anchor="middle" x="74.75" y="-7.25" font-family="Helvetica,sans-Serif" font-size="10.00">QtGraphView::rebuildGraph</text>
</a>
</g>
</g>
<!-- Node2&#45;&gt;Node4 -->
<g id="edge4_Node000002_Node000004" class="edge">
<title>Node2&#45;&gt;Node4</title>
<g id="a_edge4_Node000002_Node000004"><a xlink:title=" ">
<path fill="none" stroke="#63b8ff" d="M367,-7.84C358.72,-7.65 350.44,-7.49 342.5,-7.38 272.73,-6.38 255.27,-6.42 185.5,-7.38 173.97,-7.53 161.76,-7.78 149.83,-8.07"/>
<polygon fill="#63b8ff" stroke="#63b8ff" points="366.65,-11.33 376.73,-8.07 366.82,-4.33 366.65,-11.33"/>
</a>
</g>
</g>
<!-- Node3&#45;&gt;Node4 -->
<g id="edge3_Node000003_Node000004" class="edge">
<title>Node3&#45;&gt;Node4</title>
<g id="a_edge3_Node000003_Node000004"><a xlink:title=" ">
<path fill="none" stroke="#63b8ff" d="M173.94,-22.44C165.92,-21.45 157.86,-20.46 149.99,-19.49"/>
<polygon fill="#63b8ff" stroke="#63b8ff" points="173.36,-25.89 183.71,-23.64 174.21,-18.94 173.36,-25.89"/>
</a>
</g>
</g>
</g>
</svg>
