<?xml version="1.0" encoding="UTF-8" standalone="no"?>
<!DOCTYPE svg PUBLIC "-//W3C//DTD SVG 1.1//EN"
 "http://www.w3.org/Graphics/SVG/1.1/DTD/svg11.dtd">
<!-- Generated by graphviz version 9.0.0 (0)
 -->
<!-- Title: Settings::setValues Pages: 1 -->
<svg width="855pt" height="340pt"
 viewBox="0.00 0.00 855.25 340.12" xmlns="http://www.w3.org/2000/svg" xmlns:xlink="http://www.w3.org/1999/xlink">
<g id="graph0" class="graph" transform="scale(1 1) rotate(0) translate(4 336.12)">
<title>Settings::setValues</title>
<!-- Node1 -->
<g id="Node000001" class="node">
<title>Node1</title>
<g id="a_Node000001"><a xlink:title=" ">
<polygon fill="#999999" stroke="#666666" points="847.25,-143.75 737.5,-143.75 737.5,-123 847.25,-123 847.25,-143.75"/>
<text text-anchor="middle" x="792.38" y="-130.25" font-family="Helvetica,sans-Serif" font-size="10.00">Settings::setValues</text>
</a>
</g>
</g>
<!-- Node2 -->
<g id="Node000002" class="node">
<title>Node2</title>
<g id="a_Node000002"><a xlink:href="classSettings.html#a0c0d48ed8b29e74ec41168e3bfce759c" target="_top" xlink:title=" ">
<polygon fill="white" stroke="#666666" points="701.5,-169.75 570,-169.75 570,-149 701.5,-149 701.5,-169.75"/>
<text text-anchor="middle" x="635.75" y="-156.25" font-family="Helvetica,sans-Serif" font-size="10.00">Settings::setPathValues</text>
</a>
</g>
</g>
<!-- Node1&#45;&gt;Node2 -->
<g id="edge1_Node000001_Node000002" class="edge">
<title>Node1&#45;&gt;Node2</title>
<g id="a_edge1_Node000001_Node000002"><a xlink:title=" ">
<path fill="none" stroke="#63b8ff" d="M726.16,-144.34C717.89,-145.73 709.42,-147.16 701.16,-148.55"/>
<polygon fill="#63b8ff" stroke="#63b8ff" points="726.52,-147.83 735.8,-142.72 725.36,-140.93 726.52,-147.83"/>
</a>
</g>
</g>
<!-- Node14 -->
<g id="Node000014" class="node">
<title>Node14</title>
<g id="a_Node000014"><a xlink:href="classSettingsMigration.html#a847ab3d8f6e678a3d6a42f5c3437b233" target="_top" xlink:title=" ">
<polygon fill="white" stroke="#666666" points="692.12,-128.12 579.38,-128.12 579.38,-94.62 692.12,-94.62 692.12,-128.12"/>
<text text-anchor="start" x="587.38" y="-114.62" font-family="Helvetica,sans-Serif" font-size="10.00">SettingsMigration::</text>
<text text-anchor="middle" x="635.75" y="-101.88" font-family="Helvetica,sans-Serif" font-size="10.00">setValuesInSettings</text>
</a>
</g>
</g>
<!-- Node1&#45;&gt;Node14 -->
<g id="edge17_Node000001_Node000014" class="edge">
<title>Node1&#45;&gt;Node14</title>
<g id="a_edge17_Node000001_Node000014"><a xlink:title=" ">
<path fill="none" stroke="#63b8ff" d="M726.2,-124.1C714.94,-122.5 703.34,-120.85 692.37,-119.29"/>
<polygon fill="#63b8ff" stroke="#63b8ff" points="725.4,-127.52 735.8,-125.47 726.39,-120.59 725.4,-127.52"/>
</a>
</g>
</g>
<!-- Node3 -->
<g id="Node000003" class="node">
<title>Node3</title>
<g id="a_Node000003"><a xlink:href="classApplicationSettings.html#a0744a994c85188152e9be60d441c5a46" target="_top" xlink:title=" ">
<polygon fill="white" stroke="#666666" points="534,-202.12 382.25,-202.12 382.25,-168.62 534,-168.62 534,-202.12"/>
<text text-anchor="start" x="390.25" y="-188.62" font-family="Helvetica,sans-Serif" font-size="10.00">ApplicationSettings</text>
<text text-anchor="middle" x="458.12" y="-175.88" font-family="Helvetica,sans-Serif" font-size="10.00">::setFrameworkSearchPaths</text>
</a>
</g>
</g>
<!-- Node2&#45;&gt;Node3 -->
<g id="edge2_Node000002_Node000003" class="edge">
<title>Node2&#45;&gt;Node3</title>
<g id="a_edge2_Node000002_Node000003"><a xlink:title=" ">
<path fill="none" stroke="#63b8ff" d="M558.63,-170.64C550.6,-171.83 542.45,-173.04 534.44,-174.23"/>
<polygon fill="#63b8ff" stroke="#63b8ff" points="558.98,-174.13 568.36,-169.2 557.95,-167.21 558.98,-174.13"/>
</a>
</g>
</g>
<!-- Node9 -->
<g id="Node000009" class="node">
<title>Node9</title>
<g id="a_Node000009"><a xlink:href="classApplicationSettings.html#afef82b184614e566fdf96ec84d1939cc" target="_top" xlink:title=" ">
<polygon fill="white" stroke="#666666" points="524.25,-150.12 392,-150.12 392,-116.62 524.25,-116.62 524.25,-150.12"/>
<text text-anchor="start" x="400" y="-136.62" font-family="Helvetica,sans-Serif" font-size="10.00">ApplicationSettings</text>
<text text-anchor="middle" x="458.12" y="-123.88" font-family="Helvetica,sans-Serif" font-size="10.00">::setHeaderSearchPaths</text>
</a>
</g>
</g>
<!-- Node2&#45;&gt;Node9 -->
<g id="edge8_Node000002_Node000009" class="edge">
<title>Node2&#45;&gt;Node9</title>
<g id="a_edge8_Node000002_Node000009"><a xlink:title=" ">
<path fill="none" stroke="#63b8ff" d="M558.64,-148.11C547.31,-146.43 535.72,-144.71 524.64,-143.07"/>
<polygon fill="#63b8ff" stroke="#63b8ff" points="557.95,-151.54 568.36,-149.55 558.98,-144.62 557.95,-151.54"/>
</a>
</g>
</g>
<!-- Node11 -->
<g id="Node000011" class="node">
<title>Node11</title>
<g id="a_Node000011"><a xlink:href="classApplicationSettings.html#af6796cc6e460ed65c4a6b6e63f7c8437" target="_top" xlink:title=" ">
<polygon fill="white" stroke="#666666" points="513.38,-306.12 402.88,-306.12 402.88,-272.62 513.38,-272.62 513.38,-306.12"/>
<text text-anchor="start" x="410.88" y="-292.62" font-family="Helvetica,sans-Serif" font-size="10.00">ApplicationSettings</text>
<text text-anchor="middle" x="458.12" y="-279.88" font-family="Helvetica,sans-Serif" font-size="10.00">::setRecentProjects</text>
</a>
</g>
</g>
<!-- Node2&#45;&gt;Node11 -->
<g id="edge14_Node000002_Node000011" class="edge">
<title>Node2&#45;&gt;Node11</title>
<g id="a_edge14_Node000002_Node000011"><a xlink:title=" ">
<path fill="none" stroke="#63b8ff" d="M610.94,-177C577.18,-201.99 515.8,-247.42 482.36,-272.18"/>
<polygon fill="#63b8ff" stroke="#63b8ff" points="612.91,-179.9 618.86,-171.14 608.74,-174.27 612.91,-179.9"/>
</a>
</g>
</g>
<!-- Node4 -->
<g id="Node000004" class="node">
<title>Node4</title>
<g id="a_Node000004"><a xlink:href="classcommandline_1_1CommandlineCommandConfig.html#a5bbddcb17647d0f4c0e97540aad04950" target="_top" xlink:title=" ">
<polygon fill="white" stroke="#666666" points="346.25,-124.12 189.25,-124.12 189.25,-90.62 346.25,-90.62 346.25,-124.12"/>
<text text-anchor="start" x="197.25" y="-110.62" font-family="Helvetica,sans-Serif" font-size="10.00">commandline::Commandline</text>
<text text-anchor="middle" x="267.75" y="-97.88" font-family="Helvetica,sans-Serif" font-size="10.00">CommandConfig::parse</text>
</a>
</g>
</g>
<!-- Node3&#45;&gt;Node4 -->
<g id="edge3_Node000003_Node000004" class="edge">
<title>Node3&#45;&gt;Node4</title>
<g id="a_edge3_Node000003_Node000004"><a xlink:title=" ">
<path fill="none" stroke="#63b8ff" d="M391.1,-163.68C388.08,-162.3 385.11,-160.86 382.25,-159.38 364.74,-150.26 363.81,-142.39 346.25,-133.38 339.94,-130.13 333.14,-127.16 326.27,-124.49"/>
<polygon fill="#63b8ff" stroke="#63b8ff" points="389.6,-166.84 400.17,-167.54 392.34,-160.4 389.6,-166.84"/>
</a>
</g>
</g>
<!-- Node5 -->
<g id="Node000005" class="node">
<title>Node5</title>
<g id="a_Node000005"><a xlink:href="classApplicationSettingsPrefiller.html#ae55ad0e44c9ba3074a35ad86b464bc6a" target="_top" xlink:title=" ">
<polygon fill="white" stroke="#666666" points="343.25,-280.12 192.25,-280.12 192.25,-246.62 343.25,-246.62 343.25,-280.12"/>
<text text-anchor="start" x="200.25" y="-266.62" font-family="Helvetica,sans-Serif" font-size="10.00">ApplicationSettingsPrefiller</text>
<text text-anchor="middle" x="267.75" y="-253.88" font-family="Helvetica,sans-Serif" font-size="10.00">::prefillCxxFrameworkPaths</text>
</a>
</g>
</g>
<!-- Node3&#45;&gt;Node5 -->
<g id="edge4_Node000003_Node000005" class="edge">
<title>Node3&#45;&gt;Node5</title>
<g id="a_edge4_Node000003_Node000005"><a xlink:title=" ">
<path fill="none" stroke="#63b8ff" d="M413,-207.49C392.88,-217.21 368.6,-228.42 346.25,-237.38 338.61,-240.44 330.45,-243.45 322.41,-246.27"/>
<polygon fill="#63b8ff" stroke="#63b8ff" points="414.29,-210.76 421.75,-203.23 411.23,-204.46 414.29,-210.76"/>
</a>
</g>
</g>
<!-- Node7 -->
<g id="Node000007" class="node">
<title>Node7</title>
<g id="a_Node000007"><a xlink:href="classQtPreferencesWindow.html#ac5edf9559e2202f0c7585c4d9a2f8e73" target="_top" xlink:title=" ">
<polygon fill="white" stroke="#666666" points="332.75,-228.12 202.75,-228.12 202.75,-194.62 332.75,-194.62 332.75,-228.12"/>
<text text-anchor="start" x="210.75" y="-214.62" font-family="Helvetica,sans-Serif" font-size="10.00">QtPreferencesWindow</text>
<text text-anchor="middle" x="267.75" y="-201.88" font-family="Helvetica,sans-Serif" font-size="10.00">::QtPreferencesWindow</text>
</a>
</g>
</g>
<!-- Node3&#45;&gt;Node7 -->
<g id="edge6_Node000003_Node000007" class="edge">
<title>Node3&#45;&gt;Node7</title>
<g id="a_edge6_Node000003_Node000007"><a xlink:title=" ">
<path fill="none" stroke="#63b8ff" d="M370.76,-197.3C358.04,-199.05 345.14,-200.83 332.97,-202.51"/>
<polygon fill="#63b8ff" stroke="#63b8ff" points="370.94,-200.8 380.36,-195.97 369.98,-193.87 370.94,-200.8"/>
</a>
</g>
</g>
<!-- Node8 -->
<g id="Node000008" class="node">
<title>Node8</title>
<g id="a_Node000008"><a xlink:href="classQtProjectWizard.html#acae4faa90c5193dfc40b50d70ad57565" target="_top" xlink:title=" ">
<polygon fill="white" stroke="#666666" points="340.62,-176.12 194.88,-176.12 194.88,-142.62 340.62,-142.62 340.62,-176.12"/>
<text text-anchor="start" x="202.88" y="-162.62" font-family="Helvetica,sans-Serif" font-size="10.00">QtProjectWizard::QtProject</text>
<text text-anchor="middle" x="267.75" y="-149.88" font-family="Helvetica,sans-Serif" font-size="10.00">Wizard</text>
</a>
</g>
</g>
<!-- Node3&#45;&gt;Node8 -->
<g id="edge7_Node000003_Node000008" class="edge">
<title>Node3&#45;&gt;Node8</title>
<g id="a_edge7_Node000003_Node000008"><a xlink:title=" ">
<path fill="none" stroke="#63b8ff" d="M370.67,-173.44C360.69,-172.06 350.59,-170.67 340.83,-169.32"/>
<polygon fill="#63b8ff" stroke="#63b8ff" points="369.98,-176.88 380.36,-174.78 370.94,-169.95 369.98,-176.88"/>
</a>
</g>
</g>
<!-- Node6 -->
<g id="Node000006" class="node">
<title>Node6</title>
<g id="a_Node000006"><a xlink:href="classApplicationSettingsPrefiller.html#a1b534d9eb3ce754683ed2f8e503249f1" target="_top" xlink:title=" ">
<polygon fill="white" stroke="#666666" points="151,-176.12 2.25,-176.12 2.25,-142.62 151,-142.62 151,-176.12"/>
<text text-anchor="start" x="10.25" y="-162.62" font-family="Helvetica,sans-Serif" font-size="10.00">ApplicationSettingsPrefiller</text>
<text text-anchor="middle" x="76.62" y="-149.88" font-family="Helvetica,sans-Serif" font-size="10.00">::prefillPaths</text>
</a>
</g>
</g>
<!-- Node5&#45;&gt;Node6 -->
<g id="edge5_Node000005_Node000006" class="edge">
<title>Node5&#45;&gt;Node6</title>
<g id="a_edge5_Node000005_Node000006"><a xlink:title=" ">
<path fill="none" stroke="#63b8ff" d="M198.75,-241.83C195.5,-240.41 192.32,-238.92 189.25,-237.38 155.26,-220.25 119.87,-193.81 98.29,-176.55"/>
<polygon fill="#63b8ff" stroke="#63b8ff" points="197.29,-245.02 207.87,-245.59 199.96,-238.55 197.29,-245.02"/>
</a>
</g>
</g>
<!-- Node9&#45;&gt;Node4 -->
<g id="edge9_Node000009_Node000004" class="edge">
<title>Node9&#45;&gt;Node4</title>
<g id="a_edge9_Node000009_Node000004"><a xlink:title=" ">
<path fill="none" stroke="#63b8ff" d="M380.43,-122.79C369.22,-121.24 357.66,-119.65 346.43,-118.1"/>
<polygon fill="#63b8ff" stroke="#63b8ff" points="379.62,-126.21 390.01,-124.11 380.58,-119.28 379.62,-126.21"/>
</a>
</g>
</g>
<!-- Node9&#45;&gt;Node7 -->
<g id="edge12_Node000009_Node000007" class="edge">
<title>Node9&#45;&gt;Node7</title>
<g id="a_edge12_Node000009_Node000007"><a xlink:title=" ">
<path fill="none" stroke="#63b8ff" d="M391.1,-155.07C388.08,-156.45 385.11,-157.89 382.25,-159.38 364.74,-168.49 363.81,-176.36 346.25,-185.38 339.94,-188.62 333.14,-191.59 326.27,-194.26"/>
<polygon fill="#63b8ff" stroke="#63b8ff" points="392.34,-158.35 400.17,-151.21 389.6,-151.91 392.34,-158.35"/>
</a>
</g>
</g>
<!-- Node9&#45;&gt;Node8 -->
<g id="edge13_Node000009_Node000008" class="edge">
<title>Node9&#45;&gt;Node8</title>
<g id="a_edge13_Node000009_Node000008"><a xlink:title=" ">
<path fill="none" stroke="#63b8ff" d="M380.22,-143.99C367.22,-145.78 353.76,-147.64 340.89,-149.42"/>
<polygon fill="#63b8ff" stroke="#63b8ff" points="380.58,-147.47 390.01,-142.64 379.62,-140.54 380.58,-147.47"/>
</a>
</g>
</g>
<!-- Node10 -->
<g id="Node000010" class="node">
<title>Node10</title>
<g id="a_Node000010"><a xlink:href="classApplicationSettingsPrefiller.html#ab470ea2ff36a62772ff44b90ed35f82d" target="_top" xlink:title=" ">
<polygon fill="white" stroke="#666666" points="342.12,-72.12 193.38,-72.12 193.38,-38.62 342.12,-38.62 342.12,-72.12"/>
<text text-anchor="start" x="201.38" y="-58.62" font-family="Helvetica,sans-Serif" font-size="10.00">ApplicationSettingsPrefiller</text>
<text text-anchor="middle" x="267.75" y="-45.88" font-family="Helvetica,sans-Serif" font-size="10.00">::prefillCxxHeaderPaths</text>
</a>
</g>
</g>
<!-- Node9&#45;&gt;Node10 -->
<g id="edge10_Node000009_Node000010" class="edge">
<title>Node9&#45;&gt;Node10</title>
<g id="a_edge10_Node000009_Node000010"><a xlink:title=" ">
<path fill="none" stroke="#63b8ff" d="M413,-111.26C392.88,-101.54 368.6,-90.33 346.25,-81.38 338.61,-78.31 330.45,-75.3 322.41,-72.48"/>
<polygon fill="#63b8ff" stroke="#63b8ff" points="411.23,-114.29 421.75,-115.52 414.29,-107.99 411.23,-114.29"/>
</a>
</g>
</g>
<!-- Node10&#45;&gt;Node6 -->
<g id="edge11_Node000010_Node000006" class="edge">
<title>Node10&#45;&gt;Node6</title>
<g id="a_edge11_Node000010_Node000006"><a xlink:title=" ">
<path fill="none" stroke="#63b8ff" d="M198.75,-76.92C195.5,-78.34 192.32,-79.83 189.25,-81.38 155.26,-98.5 119.87,-124.94 98.29,-142.2"/>
<polygon fill="#63b8ff" stroke="#63b8ff" points="199.96,-80.2 207.87,-73.16 197.29,-73.73 199.96,-80.2"/>
</a>
</g>
</g>
<!-- Node12 -->
<g id="Node000012" class="node">
<title>Node12</title>
<g id="a_Node000012"><a xlink:href="classApplication.html#aa072ad82fe34f6b188982efc47c9adf9" target="_top" xlink:title=" ">
<polygon fill="white" stroke="#666666" points="339.88,-332.12 195.62,-332.12 195.62,-298.62 339.88,-298.62 339.88,-332.12"/>
<text text-anchor="start" x="203.62" y="-318.62" font-family="Helvetica,sans-Serif" font-size="10.00">Application::updateRecent</text>
<text text-anchor="middle" x="267.75" y="-305.88" font-family="Helvetica,sans-Serif" font-size="10.00">Projects</text>
</a>
</g>
</g>
<!-- Node11&#45;&gt;Node12 -->
<g id="edge15_Node000011_Node000012" class="edge">
<title>Node11&#45;&gt;Node12</title>
<g id="a_edge15_Node000011_Node000012"><a xlink:title=" ">
<path fill="none" stroke="#63b8ff" d="M391.19,-298.48C374.68,-300.75 356.89,-303.21 340.13,-305.52"/>
<polygon fill="#63b8ff" stroke="#63b8ff" points="391.46,-301.97 400.89,-297.14 390.5,-295.04 391.46,-301.97"/>
</a>
</g>
</g>
<!-- Node13 -->
<g id="Node000013" class="node">
<title>Node13</title>
<g id="a_Node000013"><a xlink:href="classApplication.html#add6b902b939342d39f3827777273b0cb" target="_top" xlink:title="Handle a load project message.">
<polygon fill="white" stroke="#666666" points="153.25,-325.75 0,-325.75 0,-305 153.25,-305 153.25,-325.75"/>
<text text-anchor="middle" x="76.62" y="-312.25" font-family="Helvetica,sans-Serif" font-size="10.00">Application::handleMessage</text>
</a>
</g>
</g>
<!-- Node12&#45;&gt;Node13 -->
<g id="edge16_Node000012_Node000013" class="edge">
<title>Node12&#45;&gt;Node13</title>
<g id="a_edge16_Node000012_Node000013"><a xlink:title=" ">
<path fill="none" stroke="#63b8ff" d="M183.97,-315.38C173.88,-315.38 163.62,-315.38 153.64,-315.38"/>
<polygon fill="#63b8ff" stroke="#63b8ff" points="183.74,-318.88 193.74,-315.38 183.74,-311.88 183.74,-318.88"/>
</a>
</g>
</g>
<!-- Node15 -->
<g id="Node000015" class="node">
<title>Node15</title>
<g id="a_Node000015"><a xlink:href="classApplicationSettings.html#a4672f356690f3e5856aa0c5d96a165b7" target="_top" xlink:title=" ">
<polygon fill="white" stroke="#666666" points="513.38,-76.12 402.88,-76.12 402.88,-42.62 513.38,-42.62 513.38,-76.12"/>
<text text-anchor="start" x="410.88" y="-62.62" font-family="Helvetica,sans-Serif" font-size="10.00">ApplicationSettings</text>
<text text-anchor="middle" x="458.12" y="-49.88" font-family="Helvetica,sans-Serif" font-size="10.00">::load</text>
</a>
</g>
</g>
<!-- Node14&#45;&gt;Node15 -->
<g id="edge18_Node000014_Node000015" class="edge">
<title>Node14&#45;&gt;Node15</title>
<g id="a_edge18_Node000014_Node000015"><a xlink:title=" ">
<path fill="none" stroke="#63b8ff" d="M568.18,-91.67C550.21,-86.34 530.97,-80.65 513.73,-75.54"/>
<polygon fill="#63b8ff" stroke="#63b8ff" points="567.15,-95.01 577.73,-94.49 569.14,-88.3 567.15,-95.01"/>
</a>
</g>
</g>
<!-- Node16 -->
<g id="Node000016" class="node">
<title>Node16</title>
<g id="a_Node000016"><a xlink:href="includesLinux_8h.html#ad40015079b3c84bcb37d86b3a0b58553" target="_top" xlink:title=" ">
<polygon fill="white" stroke="#666666" points="310.25,-20.75 225.25,-20.75 225.25,0 310.25,0 310.25,-20.75"/>
<text text-anchor="middle" x="267.75" y="-7.25" font-family="Helvetica,sans-Serif" font-size="10.00">setupPlatform</text>
</a>
</g>
</g>
<!-- Node15&#45;&gt;Node16 -->
<g id="edge19_Node000015_Node000016" class="edge">
<title>Node15&#45;&gt;Node16</title>
<g id="a_edge19_Node000015_Node000016"><a xlink:title=" ">
<path fill="none" stroke="#63b8ff" d="M391.79,-41.42C376.84,-37.39 361.01,-33.18 346.25,-29.38 334.71,-26.4 322.18,-23.28 310.63,-20.45"/>
<polygon fill="#63b8ff" stroke="#63b8ff" points="390.46,-44.69 401.03,-43.92 392.29,-37.93 390.46,-44.69"/>
</a>
</g>
</g>
</g>
</svg>
