<?xml version="1.0" encoding="UTF-8" standalone="no"?>
<!DOCTYPE svg PUBLIC "-//W3C//DTD SVG 1.1//EN"
 "http://www.w3.org/Graphics/SVG/1.1/DTD/svg11.dtd">
<!-- Generated by graphviz version 9.0.0 (0)
 -->
<!-- Title: NodeTypeSet::intersectsWith Pages: 1 -->
<svg width="936pt" height="146pt"
 viewBox="0.00 0.00 935.50 145.50" xmlns="http://www.w3.org/2000/svg" xmlns:xlink="http://www.w3.org/1999/xlink">
<g id="graph0" class="graph" transform="scale(1 1) rotate(0) translate(4 141.5)">
<title>NodeTypeSet::intersectsWith</title>
<!-- Node1 -->
<g id="Node000001" class="node">
<title>Node1</title>
<g id="a_Node000001"><a xlink:title=" ">
<polygon fill="#999999" stroke="#666666" points="927.5,-79.12 771.25,-79.12 771.25,-58.38 927.5,-58.38 927.5,-79.12"/>
<text text-anchor="middle" x="849.38" y="-65.62" font-family="Helvetica,sans-Serif" font-size="10.00">NodeTypeSet::intersectsWith</text>
</a>
</g>
</g>
<!-- Node2 -->
<g id="Node000002" class="node">
<title>Node2</title>
<g id="a_Node000002"><a xlink:href="classSearchIndex.html#a8f1fee0c2b1f700b56e7554ece37484a" target="_top" xlink:title=" ">
<polygon fill="white" stroke="#666666" points="727,-117.5 581.25,-117.5 581.25,-84 727,-84 727,-117.5"/>
<text text-anchor="start" x="589.25" y="-104" font-family="Helvetica,sans-Serif" font-size="10.00">SearchIndex::createScored</text>
<text text-anchor="middle" x="654.12" y="-91.25" font-family="Helvetica,sans-Serif" font-size="10.00">Results</text>
</a>
</g>
</g>
<!-- Node1&#45;&gt;Node2 -->
<g id="edge1_Node000001_Node000002" class="edge">
<title>Node1&#45;&gt;Node2</title>
<g id="a_edge1_Node000001_Node000002"><a xlink:title=" ">
<path fill="none" stroke="#63b8ff" d="M771.9,-81.41C757.25,-83.84 741.96,-86.37 727.45,-88.77"/>
<polygon fill="#63b8ff" stroke="#63b8ff" points="772.16,-84.92 781.46,-79.83 771.02,-78.01 772.16,-84.92"/>
</a>
</g>
</g>
<!-- Node8 -->
<g id="Node000008" class="node">
<title>Node8</title>
<g id="a_Node000008"><a xlink:href="classSearchIndex.html#adba00a3d9f0f35af487e69a26f0d7bd4" target="_top" xlink:title=" ">
<polygon fill="white" stroke="#666666" points="735.25,-48.12 573,-48.12 573,-27.38 735.25,-27.38 735.25,-48.12"/>
<text text-anchor="middle" x="654.12" y="-34.62" font-family="Helvetica,sans-Serif" font-size="10.00">SearchIndex::searchRecursive</text>
</a>
</g>
</g>
<!-- Node1&#45;&gt;Node8 -->
<g id="edge9_Node000001_Node000008" class="edge">
<title>Node1&#45;&gt;Node8</title>
<g id="a_edge9_Node000001_Node000008"><a xlink:title=" ">
<path fill="none" stroke="#63b8ff" d="M769.59,-56.11C754.03,-53.62 737.83,-51.02 722.68,-48.59"/>
<polygon fill="#63b8ff" stroke="#63b8ff" points="768.86,-59.54 779.29,-57.67 769.97,-52.63 768.86,-59.54"/>
</a>
</g>
</g>
<!-- Node3 -->
<g id="Node000003" class="node">
<title>Node3</title>
<g id="a_Node000003"><a xlink:href="classSearchIndex.html#a2f2ad67cb681b790fd6664d7a59a0970" target="_top" xlink:title=" ">
<polygon fill="white" stroke="#666666" points="537,-79.12 422.75,-79.12 422.75,-58.38 537,-58.38 537,-79.12"/>
<text text-anchor="middle" x="479.88" y="-65.62" font-family="Helvetica,sans-Serif" font-size="10.00">SearchIndex::search</text>
</a>
</g>
</g>
<!-- Node2&#45;&gt;Node3 -->
<g id="edge2_Node000002_Node000003" class="edge">
<title>Node2&#45;&gt;Node3</title>
<g id="a_edge2_Node000002_Node000003"><a xlink:title=" ">
<path fill="none" stroke="#63b8ff" d="M570.07,-85.32C559.02,-83.27 547.9,-81.2 537.45,-79.26"/>
<polygon fill="#63b8ff" stroke="#63b8ff" points="569.11,-88.7 579.59,-87.09 570.39,-81.82 569.11,-88.7"/>
</a>
</g>
</g>
<!-- Node4 -->
<g id="Node000004" class="node">
<title>Node4</title>
<g id="a_Node000004"><a xlink:href="classPersistentStorage.html#a963c8258b44581a1a5c1960f1d3a575d" target="_top" xlink:title=" ">
<polygon fill="white" stroke="#666666" points="386.75,-137.5 186.25,-137.5 186.25,-104 386.75,-104 386.75,-137.5"/>
<text text-anchor="start" x="194.25" y="-124" font-family="Helvetica,sans-Serif" font-size="10.00">PersistentStorage::</text>
<text text-anchor="middle" x="286.5" y="-111.25" font-family="Helvetica,sans-Serif" font-size="10.00">getAutocompletionCommandMatches</text>
</a>
</g>
</g>
<!-- Node3&#45;&gt;Node4 -->
<g id="edge3_Node000003_Node000004" class="edge">
<title>Node3&#45;&gt;Node4</title>
<g id="a_edge3_Node000003_Node000004"><a xlink:title=" ">
<path fill="none" stroke="#63b8ff" d="M430.33,-82.63C416.29,-86.6 400.92,-90.89 386.75,-94.75 376.18,-97.63 364.96,-100.62 354.01,-103.51"/>
<polygon fill="#63b8ff" stroke="#63b8ff" points="431.15,-86.04 439.81,-79.95 429.24,-79.31 431.15,-86.04"/>
</a>
</g>
</g>
<!-- Node6 -->
<g id="Node000006" class="node">
<title>Node6</title>
<g id="a_Node000006"><a xlink:href="classPersistentStorage.html#a28bb71eed6dbc2e857062c708afd95a3" target="_top" xlink:title=" ">
<polygon fill="white" stroke="#666666" points="369.88,-85.5 203.12,-85.5 203.12,-52 369.88,-52 369.88,-85.5"/>
<text text-anchor="start" x="211.12" y="-72" font-family="Helvetica,sans-Serif" font-size="10.00">PersistentStorage::</text>
<text text-anchor="middle" x="286.5" y="-59.25" font-family="Helvetica,sans-Serif" font-size="10.00">getAutocompletionFileMatches</text>
</a>
</g>
</g>
<!-- Node3&#45;&gt;Node6 -->
<g id="edge5_Node000003_Node000006" class="edge">
<title>Node3&#45;&gt;Node6</title>
<g id="a_edge5_Node000003_Node000006"><a xlink:title=" ">
<path fill="none" stroke="#63b8ff" d="M411.07,-68.75C397.8,-68.75 383.76,-68.75 370.07,-68.75"/>
<polygon fill="#63b8ff" stroke="#63b8ff" points="410.98,-72.25 420.98,-68.75 410.98,-65.25 410.98,-72.25"/>
</a>
</g>
</g>
<!-- Node7 -->
<g id="Node000007" class="node">
<title>Node7</title>
<g id="a_Node000007"><a xlink:href="classPersistentStorage.html#a5faf31cae3975ec11040fc177f8ecc30" target="_top" xlink:title=" ">
<polygon fill="white" stroke="#666666" points="380,-33.5 193,-33.5 193,0 380,0 380,-33.5"/>
<text text-anchor="start" x="201" y="-20" font-family="Helvetica,sans-Serif" font-size="10.00">PersistentStorage::</text>
<text text-anchor="middle" x="286.5" y="-7.25" font-family="Helvetica,sans-Serif" font-size="10.00">getAutocompletionSymbolMatches</text>
</a>
</g>
</g>
<!-- Node3&#45;&gt;Node7 -->
<g id="edge7_Node000003_Node000007" class="edge">
<title>Node3&#45;&gt;Node7</title>
<g id="a_edge7_Node000003_Node000007"><a xlink:title=" ">
<path fill="none" stroke="#63b8ff" d="M430.33,-54.87C416.29,-50.9 400.92,-46.61 386.75,-42.75 376.18,-39.87 364.96,-36.88 354.01,-33.99"/>
<polygon fill="#63b8ff" stroke="#63b8ff" points="429.24,-58.19 439.81,-57.55 431.15,-51.46 429.24,-58.19"/>
</a>
</g>
</g>
<!-- Node5 -->
<g id="Node000005" class="node">
<title>Node5</title>
<g id="a_Node000005"><a xlink:href="classPersistentStorage.html#a6e9bf015702ab246b02e348a1ea6ae00" target="_top" xlink:title=" ">
<polygon fill="white" stroke="#666666" points="150.25,-85.5 0,-85.5 0,-52 150.25,-52 150.25,-85.5"/>
<text text-anchor="start" x="8" y="-72" font-family="Helvetica,sans-Serif" font-size="10.00">PersistentStorage::</text>
<text text-anchor="middle" x="75.12" y="-59.25" font-family="Helvetica,sans-Serif" font-size="10.00">getAutocompletionMatches</text>
</a>
</g>
</g>
<!-- Node4&#45;&gt;Node5 -->
<g id="edge4_Node000004_Node000005" class="edge">
<title>Node4&#45;&gt;Node5</title>
<g id="a_edge4_Node000004_Node000005"><a xlink:title=" ">
<path fill="none" stroke="#63b8ff" d="M204.98,-100.75C185.31,-95.87 164.45,-90.69 145.37,-85.95"/>
<polygon fill="#63b8ff" stroke="#63b8ff" points="204.05,-104.13 214.6,-103.14 205.74,-97.33 204.05,-104.13"/>
</a>
</g>
</g>
<!-- Node6&#45;&gt;Node5 -->
<g id="edge6_Node000006_Node000005" class="edge">
<title>Node6&#45;&gt;Node5</title>
<g id="a_edge6_Node000006_Node000005"><a xlink:title=" ">
<path fill="none" stroke="#63b8ff" d="M191.32,-68.75C177.63,-68.75 163.69,-68.75 150.46,-68.75"/>
<polygon fill="#63b8ff" stroke="#63b8ff" points="191.24,-72.25 201.24,-68.75 191.24,-65.25 191.24,-72.25"/>
</a>
</g>
</g>
<!-- Node7&#45;&gt;Node5 -->
<g id="edge8_Node000007_Node000005" class="edge">
<title>Node7&#45;&gt;Node5</title>
<g id="a_edge8_Node000007_Node000005"><a xlink:title=" ">
<path fill="none" stroke="#63b8ff" d="M204.98,-36.75C185.31,-41.63 164.45,-46.81 145.37,-51.55"/>
<polygon fill="#63b8ff" stroke="#63b8ff" points="205.74,-40.17 214.6,-34.36 204.05,-33.37 205.74,-40.17"/>
</a>
</g>
</g>
<!-- Node8&#45;&gt;Node3 -->
<g id="edge10_Node000008_Node000003" class="edge">
<title>Node8&#45;&gt;Node3</title>
<g id="a_edge10_Node000008_Node000003"><a xlink:title=" ">
<path fill="none" stroke="#63b8ff" d="M581.71,-50.6C566.91,-53.27 551.51,-56.04 537.33,-58.59"/>
<polygon fill="#63b8ff" stroke="#63b8ff" points="582.17,-54.08 591.39,-48.86 580.93,-47.19 582.17,-54.08"/>
</a>
</g>
</g>
<!-- Node8&#45;&gt;Node8 -->
<g id="edge11_Node000008_Node000008" class="edge">
<title>Node8&#45;&gt;Node8</title>
<g id="a_edge11_Node000008_Node000008"><a xlink:title=" ">
<path fill="none" stroke="#63b8ff" d="M684.79,-59.61C680.72,-63.45 670.5,-66.12 654.12,-66.12 624.18,-66.12 614.82,-57.18 626.05,-48.52"/>
<polygon fill="#63b8ff" stroke="#63b8ff" points="688.22,-58.94 682.55,-50 681.41,-60.53 688.22,-58.94"/>
</a>
</g>
</g>
</g>
</svg>
