<?xml version="1.0" encoding="UTF-8" standalone="no"?>
<!DOCTYPE svg PUBLIC "-//W3C//DTD SVG 1.1//EN"
 "http://www.w3.org/Graphics/SVG/1.1/DTD/svg11.dtd">
<!-- Generated by graphviz version 7.1.0 (0)
 -->
<!-- Title: ViewLayout::showOriginalViews Pages: 1 -->
<svg width="339pt" height="64pt"
 viewBox="0.00 0.00 339.00 64.00" xmlns="http://www.w3.org/2000/svg" xmlns:xlink="http://www.w3.org/1999/xlink">
<g id="graph0" class="graph" transform="scale(1 1) rotate(0) translate(4 60)">
<title>ViewLayout::showOriginalViews</title>
<!-- Node1 -->
<g id="node1" class="node">
<title>Node1</title>
<g id="a_node1"><a xlink:title=" ">
<polygon fill="#999999" stroke="#666666" points="331,-42.5 188,-42.5 188,-12.5 331,-12.5 331,-42.5"/>
<text text-anchor="start" x="196" y="-30.5" font-family="Helvetica,sans-Serif" font-size="10.00">ViewLayout::showOriginal</text>
<text text-anchor="middle" x="259.5" y="-19.5" font-family="Helvetica,sans-Serif" font-size="10.00">Views</text>
</a>
</g>
</g>
<!-- Node2 -->
<g id="node2" class="node">
<title>Node2</title>
<g id="a_node2"><a xlink:href="classTabsController.html#af9a7339685ba5a2b95e31b012bb18d95" target="_top" xlink:title=" ">
<polygon fill="white" stroke="#666666" points="152,-56 0,-56 0,-37 152,-37 152,-56"/>
<text text-anchor="middle" x="76" y="-44" font-family="Helvetica,sans-Serif" font-size="10.00">TabsController::onClearTabs</text>
</a>
</g>
</g>
<!-- Node1&#45;&gt;Node2 -->
<g id="edge1" class="edge">
<title>Node1&#45;&gt;Node2</title>
<path fill="none" stroke="#63b8ff" d="M176.35,-36.1C168.37,-36.93 160.31,-37.78 152.4,-38.61"/>
<polygon fill="#63b8ff" stroke="#63b8ff" points="176.46,-39.61 186.04,-35.09 175.73,-32.65 176.46,-39.61"/>
</g>
<!-- Node3 -->
<g id="node3" class="node">
<title>Node3</title>
<g id="a_node3"><a xlink:href="classTabsController.html#aa4472c8e12119db37221e084d69cad3c" target="_top" xlink:title=" ">
<polygon fill="white" stroke="#666666" points="143,-19 9,-19 9,0 143,0 143,-19"/>
<text text-anchor="middle" x="76" y="-7" font-family="Helvetica,sans-Serif" font-size="10.00">TabsController::showTab</text>
</a>
</g>
</g>
<!-- Node1&#45;&gt;Node3 -->
<g id="edge2" class="edge">
<title>Node1&#45;&gt;Node3</title>
<path fill="none" stroke="#63b8ff" d="M176.21,-19.34C165.24,-18.25 154.11,-17.15 143.45,-16.09"/>
<polygon fill="#63b8ff" stroke="#63b8ff" points="175.74,-22.81 186.04,-20.31 176.44,-15.84 175.74,-22.81"/>
</g>
</g>
</svg>
