<?xml version="1.0" encoding="UTF-8" standalone="no"?>
<!DOCTYPE svg PUBLIC "-//W3C//DTD SVG 1.1//EN"
 "http://www.w3.org/Graphics/SVG/1.1/DTD/svg11.dtd">
<!-- Generated by graphviz version 7.1.0 (0)
 -->
<!-- Title: QtProjectWizardContentPreferences::QtProjectWizardContentPreferences Pages: 1 -->
<svg width="794pt" height="140pt"
 viewBox="0.00 0.00 794.00 140.00" xmlns="http://www.w3.org/2000/svg" xmlns:xlink="http://www.w3.org/1999/xlink">
<g id="graph0" class="graph" transform="scale(1 1) rotate(0) translate(4 136)">
<title>QtProjectWizardContentPreferences::QtProjectWizardContentPreferences</title>
<!-- Node1 -->
<g id="node1" class="node">
<title>Node1</title>
<g id="a_node1"><a xlink:title=" ">
<polygon fill="#999999" stroke="#666666" points="197,-81.5 0,-81.5 0,-51.5 197,-51.5 197,-81.5"/>
<text text-anchor="start" x="8" y="-69.5" font-family="Helvetica,sans-Serif" font-size="10.00">QtProjectWizardContentPreferences</text>
<text text-anchor="middle" x="98.5" y="-58.5" font-family="Helvetica,sans-Serif" font-size="10.00">::QtProjectWizardContentPreferences</text>
</a>
</g>
</g>
<!-- Node2 -->
<g id="node2" class="node">
<title>Node2</title>
<g id="a_node2"><a xlink:href="classResourcePaths.html#a60fc46be222d96ea71a21c940978a09d" target="_top" xlink:title=" ">
<polygon fill="white" stroke="#666666" points="413,-105.5 233,-105.5 233,-75.5 413,-75.5 413,-105.5"/>
<text text-anchor="start" x="241" y="-93.5" font-family="Helvetica,sans-Serif" font-size="10.00">ResourcePaths::getColorSchemes</text>
<text text-anchor="middle" x="323" y="-82.5" font-family="Helvetica,sans-Serif" font-size="10.00">DirectoryPath</text>
</a>
</g>
</g>
<!-- Node1&#45;&gt;Node2 -->
<g id="edge1" class="edge">
<title>Node1&#45;&gt;Node2</title>
<path fill="none" stroke="#63b8ff" d="M197.42,-77.06C205.42,-77.92 213.52,-78.8 221.54,-79.66"/>
<polygon fill="#63b8ff" stroke="#63b8ff" points="220.99,-83.12 231.31,-80.72 221.74,-76.16 220.99,-83.12"/>
</g>
<!-- Node6 -->
<g id="node6" class="node">
<title>Node6</title>
<g id="a_node6"><a xlink:href="classFileSystem.html#a7dd1727aa4782573e19f65f019396332" target="_top" xlink:title=" ">
<polygon fill="white" stroke="#666666" points="390.5,-57.5 255.5,-57.5 255.5,-27.5 390.5,-27.5 390.5,-57.5"/>
<text text-anchor="start" x="263.5" y="-45.5" font-family="Helvetica,sans-Serif" font-size="10.00">FileSystem::getFilePaths</text>
<text text-anchor="middle" x="323" y="-34.5" font-family="Helvetica,sans-Serif" font-size="10.00">FromDirectory</text>
</a>
</g>
</g>
<!-- Node1&#45;&gt;Node6 -->
<g id="edge5" class="edge">
<title>Node1&#45;&gt;Node6</title>
<path fill="none" stroke="#63b8ff" d="M197.42,-55.94C212.93,-54.26 228.8,-52.55 243.78,-50.94"/>
<polygon fill="#63b8ff" stroke="#63b8ff" points="243.98,-54.44 253.55,-49.88 243.23,-47.48 243.98,-54.44"/>
</g>
<!-- Node3 -->
<g id="node3" class="node">
<title>Node3</title>
<g id="a_node3"><a xlink:href="classFilePath.html#a1f9e209dcb9a8d2b3d39ec6cfdd5c17f" target="_top" xlink:title=" ">
<polygon fill="white" stroke="#666666" points="611,-132 490,-132 490,-113 611,-113 611,-132"/>
<text text-anchor="middle" x="550.5" y="-120" font-family="Helvetica,sans-Serif" font-size="10.00">FilePath::concatenate</text>
</a>
</g>
</g>
<!-- Node2&#45;&gt;Node3 -->
<g id="edge2" class="edge">
<title>Node2&#45;&gt;Node3</title>
<path fill="none" stroke="#63b8ff" d="M413.45,-103.19C435.03,-106.26 457.8,-109.49 478.41,-112.41"/>
<polygon fill="#63b8ff" stroke="#63b8ff" points="477.72,-115.85 488.12,-113.79 478.71,-108.92 477.72,-115.85"/>
</g>
<!-- Node5 -->
<g id="node5" class="node">
<title>Node5</title>
<g id="a_node5"><a xlink:href="classAppPath.html#afb2974614a9eee22c6f8a75fada9ac23" target="_top" xlink:title=" ">
<polygon fill="white" stroke="#666666" points="652,-95 449,-95 449,-76 652,-76 652,-95"/>
<text text-anchor="middle" x="550.5" y="-83" font-family="Helvetica,sans-Serif" font-size="10.00">AppPath::getSharedDataDirectoryPath</text>
</a>
</g>
</g>
<!-- Node2&#45;&gt;Node5 -->
<g id="edge4" class="edge">
<title>Node2&#45;&gt;Node5</title>
<path fill="none" stroke="#63b8ff" d="M413.45,-88.52C421.3,-88.34 429.32,-88.16 437.33,-87.99"/>
<polygon fill="#63b8ff" stroke="#63b8ff" points="437.2,-91.49 447.12,-87.77 437.05,-84.49 437.2,-91.49"/>
</g>
<!-- Node4 -->
<g id="node4" class="node">
<title>Node4</title>
<g id="a_node4"><a xlink:href="classFilePath.html#a544387c4aea50aec855062fd02e436ae" target="_top" xlink:title=" ">
<polygon fill="white" stroke="#666666" points="786,-57 688,-57 688,-38 786,-38 786,-57"/>
<text text-anchor="middle" x="737" y="-45" font-family="Helvetica,sans-Serif" font-size="10.00">FilePath::getPath</text>
</a>
</g>
</g>
<!-- Node3&#45;&gt;Node4 -->
<g id="edge3" class="edge">
<title>Node3&#45;&gt;Node4</title>
<path fill="none" stroke="#63b8ff" d="M611.39,-116.01C625.05,-113.37 639.28,-109.68 652,-104.5 676.01,-94.72 700.17,-77.36 716.37,-64.35"/>
<polygon fill="#63b8ff" stroke="#63b8ff" points="718.28,-67.32 723.77,-58.26 713.82,-61.92 718.28,-67.32"/>
</g>
<!-- Node6&#45;&gt;Node4 -->
<g id="edge6" class="edge">
<title>Node6&#45;&gt;Node4</title>
<path fill="none" stroke="#63b8ff" d="M390.65,-43.31C469.72,-44.27 600.35,-45.85 676.26,-46.77"/>
<polygon fill="#63b8ff" stroke="#63b8ff" points="675.95,-50.27 685.99,-46.89 676.03,-43.27 675.95,-50.27"/>
</g>
<!-- Node7 -->
<g id="node7" class="node">
<title>Node7</title>
<g id="a_node7"><a xlink:href="classFilePath.html#a9720b7e43230f31e635394ba5bf571a9" target="_top" xlink:title=" ">
<polygon fill="white" stroke="#666666" points="607.5,-19 493.5,-19 493.5,0 607.5,0 607.5,-19"/>
<text text-anchor="middle" x="550.5" y="-7" font-family="Helvetica,sans-Serif" font-size="10.00">FilePath::isDirectory</text>
</a>
</g>
</g>
<!-- Node6&#45;&gt;Node7 -->
<g id="edge7" class="edge">
<title>Node6&#45;&gt;Node7</title>
<path fill="none" stroke="#63b8ff" d="M390.74,-32.73C419.52,-28.52 453.12,-23.6 481.99,-19.38"/>
<polygon fill="#63b8ff" stroke="#63b8ff" points="482.32,-22.87 491.71,-17.96 481.31,-15.94 482.32,-22.87"/>
</g>
<!-- Node7&#45;&gt;Node4 -->
<g id="edge8" class="edge">
<title>Node7&#45;&gt;Node4</title>
<path fill="none" stroke="#63b8ff" d="M599.98,-19.48C623.4,-24.31 651.73,-30.14 676.45,-35.24"/>
<polygon fill="#63b8ff" stroke="#63b8ff" points="675.55,-38.62 686.05,-37.21 676.96,-31.77 675.55,-38.62"/>
</g>
</g>
</svg>
