<?xml version="1.0" encoding="UTF-8" standalone="no"?>
<!DOCTYPE svg PUBLIC "-//W3C//DTD SVG 1.1//EN"
 "http://www.w3.org/Graphics/SVG/1.1/DTD/svg11.dtd">
<!-- Generated by graphviz version 9.0.0 (0)
 -->
<!-- Title: ErrorController::handleMessage Pages: 1 -->
<svg width="672pt" height="275pt"
 viewBox="0.00 0.00 672.00 274.75" xmlns="http://www.w3.org/2000/svg" xmlns:xlink="http://www.w3.org/1999/xlink">
<g id="graph0" class="graph" transform="scale(1 1) rotate(0) translate(4 270.75)">
<title>ErrorController::handleMessage</title>
<!-- Node1 -->
<g id="Node000001" class="node">
<title>Node1</title>
<g id="a_Node000001"><a xlink:title=" ">
<polygon fill="#999999" stroke="#666666" points="169.75,-137.75 0,-137.75 0,-117 169.75,-117 169.75,-137.75"/>
<text text-anchor="middle" x="84.88" y="-124.25" font-family="Helvetica,sans-Serif" font-size="10.00">ErrorController::handleMessage</text>
</a>
</g>
</g>
<!-- Node2 -->
<g id="Node000002" class="node">
<title>Node2</title>
<g id="a_Node000002"><a xlink:href="classErrorView.html#a619c0210d357c984cebed1f4e713a497" target="_top" xlink:title=" ">
<polygon fill="white" stroke="#666666" points="333.5,-266.75 217.75,-266.75 217.75,-246 333.5,-246 333.5,-266.75"/>
<text text-anchor="middle" x="275.62" y="-253.25" font-family="Helvetica,sans-Serif" font-size="10.00">ErrorView::addErrors</text>
</a>
</g>
</g>
<!-- Node1&#45;&gt;Node2 -->
<g id="edge1_Node000001_Node000002" class="edge">
<title>Node1&#45;&gt;Node2</title>
<g id="a_edge1_Node000001_Node000002"><a xlink:title=" ">
<path fill="none" stroke="#63b8ff" d="M94.56,-138.25C112.78,-160.32 157.32,-210.55 205.75,-237.38 208.41,-238.85 211.18,-240.21 214.03,-241.47"/>
<polygon fill="#63b8ff" stroke="#63b8ff" points="212.6,-244.67 223.19,-245.06 215.16,-238.15 212.6,-244.67"/>
</a>
</g>
</g>
<!-- Node3 -->
<g id="Node000003" class="node">
<title>Node3</title>
<g id="a_Node000003"><a xlink:href="classStorageAccess.html#a02e204f42c5d02527603b20fc7a75af4" target="_top" xlink:title=" ">
<polygon fill="white" stroke="#666666" points="345.5,-228.12 205.75,-228.12 205.75,-194.62 345.5,-194.62 345.5,-228.12"/>
<text text-anchor="start" x="213.75" y="-214.62" font-family="Helvetica,sans-Serif" font-size="10.00">StorageAccess::addErrors</text>
<text text-anchor="middle" x="275.62" y="-201.88" font-family="Helvetica,sans-Serif" font-size="10.00">ToCache</text>
</a>
</g>
</g>
<!-- Node1&#45;&gt;Node3 -->
<g id="edge2_Node000001_Node000003" class="edge">
<title>Node1&#45;&gt;Node3</title>
<g id="a_edge2_Node000001_Node000003"><a xlink:title=" ">
<path fill="none" stroke="#63b8ff" d="M106.83,-138.22C130.55,-150.34 170.49,-170.23 205.75,-185.38 209.32,-186.91 213.02,-188.45 216.76,-189.96"/>
<polygon fill="#63b8ff" stroke="#63b8ff" points="215.35,-193.17 225.94,-193.61 217.94,-186.67 215.35,-193.17"/>
</a>
</g>
</g>
<!-- Node4 -->
<g id="Node000004" class="node">
<title>Node4</title>
<g id="a_Node000004"><a xlink:href="structErrorFilter.html#a5a80ad27e3d71847b8d2304fa4dd977d" target="_top" xlink:title=" ">
<polygon fill="white" stroke="#666666" points="321.88,-176.75 229.38,-176.75 229.38,-156 321.88,-156 321.88,-176.75"/>
<text text-anchor="middle" x="275.62" y="-163.25" font-family="Helvetica,sans-Serif" font-size="10.00">ErrorFilter::filter</text>
</a>
</g>
</g>
<!-- Node1&#45;&gt;Node4 -->
<g id="edge3_Node000001_Node000004" class="edge">
<title>Node1&#45;&gt;Node4</title>
<g id="a_edge3_Node000001_Node000004"><a xlink:title=" ">
<path fill="none" stroke="#63b8ff" d="M138.45,-138.24C163.14,-143.34 192.61,-149.43 217.81,-154.64"/>
<polygon fill="#63b8ff" stroke="#63b8ff" points="217.08,-158.06 227.58,-156.65 218.49,-151.2 217.08,-158.06"/>
</a>
</g>
</g>
<!-- Node5 -->
<g id="Node000005" class="node">
<title>Node5</title>
<g id="a_Node000005"><a xlink:href="classErrorView.html#ad8e709a7c2e522fe1a7801179fab21f0" target="_top" xlink:title=" ">
<polygon fill="white" stroke="#666666" points="341.75,-137.75 209.5,-137.75 209.5,-117 341.75,-117 341.75,-137.75"/>
<text text-anchor="middle" x="275.62" y="-124.25" font-family="Helvetica,sans-Serif" font-size="10.00">ErrorView::getErrorFilter</text>
</a>
</g>
</g>
<!-- Node1&#45;&gt;Node5 -->
<g id="edge4_Node000001_Node000005" class="edge">
<title>Node1&#45;&gt;Node5</title>
<g id="a_edge4_Node000001_Node000005"><a xlink:title=" ">
<path fill="none" stroke="#63b8ff" d="M170.04,-127.38C179.23,-127.38 188.56,-127.38 197.66,-127.38"/>
<polygon fill="#63b8ff" stroke="#63b8ff" points="197.52,-130.88 207.52,-127.38 197.52,-123.88 197.52,-130.88"/>
</a>
</g>
</g>
<!-- Node6 -->
<g id="Node000006" class="node">
<title>Node6</title>
<g id="a_Node000006"><a xlink:href="classApplication.html#add09b97cb9b0946412db8a6636b3f144" target="_top" xlink:title=" ">
<polygon fill="white" stroke="#666666" points="342.5,-98.75 208.75,-98.75 208.75,-78 342.5,-78 342.5,-98.75"/>
<text text-anchor="middle" x="275.62" y="-85.25" font-family="Helvetica,sans-Serif" font-size="10.00">Application::getInstance</text>
</a>
</g>
</g>
<!-- Node1&#45;&gt;Node6 -->
<g id="edge5_Node000001_Node000006" class="edge">
<title>Node1&#45;&gt;Node6</title>
<g id="a_edge5_Node000001_Node000006"><a xlink:title=" ">
<path fill="none" stroke="#63b8ff" d="M138.45,-116.51C160.96,-111.86 187.44,-106.39 211.04,-101.51"/>
<polygon fill="#63b8ff" stroke="#63b8ff" points="211.44,-105.01 220.52,-99.55 210.02,-98.15 211.44,-105.01"/>
</a>
</g>
</g>
<!-- Node7 -->
<g id="Node000007" class="node">
<title>Node7</title>
<g id="a_Node000007"><a xlink:href="classErrorController.html#a61ef76541bdae4b244badc2af2ddf788" target="_top" xlink:title=" ">
<polygon fill="white" stroke="#666666" points="342.12,-59.75 209.12,-59.75 209.12,-39 342.12,-39 342.12,-59.75"/>
<text text-anchor="middle" x="275.62" y="-46.25" font-family="Helvetica,sans-Serif" font-size="10.00">ErrorController::getView</text>
</a>
</g>
</g>
<!-- Node1&#45;&gt;Node7 -->
<g id="edge6_Node000001_Node000007" class="edge">
<title>Node1&#45;&gt;Node7</title>
<g id="a_edge6_Node000001_Node000007"><a xlink:title=" ">
<path fill="none" stroke="#63b8ff" d="M105.36,-116.68C128.72,-104.17 169.27,-83.38 205.75,-69.38 211.06,-67.34 216.67,-65.39 222.31,-63.56"/>
<polygon fill="#63b8ff" stroke="#63b8ff" points="223.14,-66.97 231.65,-60.66 221.06,-60.28 223.14,-66.97"/>
</a>
</g>
</g>
<!-- Node10 -->
<g id="Node000010" class="node">
<title>Node10</title>
<g id="a_Node000010"><a xlink:href="classView.html#abce42d26620a80d229ed28f70b2dcd08" target="_top" xlink:title=" ">
<polygon fill="white" stroke="#666666" points="341,-20.75 210.25,-20.75 210.25,0 341,0 341,-20.75"/>
<text text-anchor="middle" x="275.62" y="-7.25" font-family="Helvetica,sans-Serif" font-size="10.00">View::showDockWidget</text>
</a>
</g>
</g>
<!-- Node1&#45;&gt;Node10 -->
<g id="edge9_Node000001_Node000010" class="edge">
<title>Node1&#45;&gt;Node10</title>
<g id="a_edge9_Node000001_Node000010"><a xlink:title=" ">
<path fill="none" stroke="#63b8ff" d="M96.06,-116.68C115.54,-96.84 160.19,-54.18 205.75,-30.38 209.44,-28.45 213.35,-26.68 217.35,-25.06"/>
<polygon fill="#63b8ff" stroke="#63b8ff" points="218.46,-28.39 226.64,-21.66 216.05,-21.81 218.46,-28.39"/>
</a>
</g>
</g>
<!-- Node8 -->
<g id="Node000008" class="node">
<title>Node8</title>
<g id="a_Node000008"><a xlink:href="classController.html#a431a774ef12696f8bb22903cada1485c" target="_top" xlink:title=" ">
<polygon fill="white" stroke="#666666" points="500.62,-59.75 390.88,-59.75 390.88,-39 500.62,-39 500.62,-59.75"/>
<text text-anchor="middle" x="445.75" y="-46.25" font-family="Helvetica,sans-Serif" font-size="10.00">Controller::getView</text>
</a>
</g>
</g>
<!-- Node7&#45;&gt;Node8 -->
<g id="edge7_Node000007_Node000008" class="edge">
<title>Node7&#45;&gt;Node8</title>
<g id="a_edge7_Node000007_Node000008"><a xlink:title=" ">
<path fill="none" stroke="#63b8ff" d="M342.59,-49.38C354.65,-49.38 367.23,-49.38 379.28,-49.38"/>
<polygon fill="#63b8ff" stroke="#63b8ff" points="379.12,-52.88 389.12,-49.38 379.12,-45.88 379.12,-52.88"/>
</a>
</g>
</g>
<!-- Node9 -->
<g id="Node000009" class="node">
<title>Node9</title>
<g id="a_Node000009"><a xlink:href="classComponent.html#a9f4dbd8f986abae9d6014b4a34d2b014" target="_top" xlink:title=" ">
<polygon fill="white" stroke="#666666" points="664,-59.75 546,-59.75 546,-39 664,-39 664,-59.75"/>
<text text-anchor="middle" x="605" y="-46.25" font-family="Helvetica,sans-Serif" font-size="10.00">Component::getView</text>
</a>
</g>
</g>
<!-- Node8&#45;&gt;Node9 -->
<g id="edge8_Node000008_Node000009" class="edge">
<title>Node8&#45;&gt;Node9</title>
<g id="a_edge8_Node000008_Node000009"><a xlink:title=" ">
<path fill="none" stroke="#63b8ff" d="M500.87,-49.38C511.73,-49.38 523.28,-49.38 534.58,-49.38"/>
<polygon fill="#63b8ff" stroke="#63b8ff" points="534.24,-52.88 544.24,-49.38 534.24,-45.88 534.24,-52.88"/>
</a>
</g>
</g>
<!-- Node11 -->
<g id="Node000011" class="node">
<title>Node11</title>
<g id="a_Node000011"><a xlink:href="classViewLayout.html#ac9e6a9ddd0b984990b65b46927025a16" target="_top" xlink:title=" ">
<polygon fill="white" stroke="#666666" points="510,-20.75 381.5,-20.75 381.5,0 510,0 510,-20.75"/>
<text text-anchor="middle" x="445.75" y="-7.25" font-family="Helvetica,sans-Serif" font-size="10.00">ViewLayout::showView</text>
</a>
</g>
</g>
<!-- Node10&#45;&gt;Node11 -->
<g id="edge10_Node000010_Node000011" class="edge">
<title>Node10&#45;&gt;Node11</title>
<g id="a_edge10_Node000010_Node000011"><a xlink:title=" ">
<path fill="none" stroke="#63b8ff" d="M341.15,-10.38C350.6,-10.38 360.4,-10.38 370.03,-10.38"/>
<polygon fill="#63b8ff" stroke="#63b8ff" points="369.72,-13.88 379.72,-10.38 369.72,-6.88 369.72,-13.88"/>
</a>
</g>
</g>
</g>
</svg>
