<?xml version="1.0" encoding="UTF-8" standalone="no"?>
<!DOCTYPE svg PUBLIC "-//W3C//DTD SVG 1.1//EN"
 "http://www.w3.org/Graphics/SVG/1.1/DTD/svg11.dtd">
<!-- Generated by graphviz version 9.0.0 (0)
 -->
<!-- Title: QtProjectWizardContentPreferences::addLabel Pages: 1 -->
<svg width="537pt" height="42pt"
 viewBox="0.00 0.00 536.75 41.50" xmlns="http://www.w3.org/2000/svg" xmlns:xlink="http://www.w3.org/1999/xlink">
<g id="graph0" class="graph" transform="scale(1 1) rotate(0) translate(4 37.5)">
<title>QtProjectWizardContentPreferences::addLabel</title>
<!-- Node1 -->
<g id="Node000001" class="node">
<title>Node1</title>
<g id="a_Node000001"><a xlink:title=" ">
<polygon fill="#999999" stroke="#666666" points="190.75,-33.5 0,-33.5 0,0 190.75,0 190.75,-33.5"/>
<text text-anchor="start" x="8" y="-20" font-family="Helvetica,sans-Serif" font-size="10.00">QtProjectWizardContentPreferences</text>
<text text-anchor="middle" x="95.38" y="-7.25" font-family="Helvetica,sans-Serif" font-size="10.00">::addLabel</text>
</a>
</g>
</g>
<!-- Node2 -->
<g id="Node000002" class="node">
<title>Node2</title>
<g id="a_Node000002"><a xlink:href="classQtProjectWizardContent.html#ab1548e716e9d5eb86619c9144244232a" target="_top" xlink:title=" ">
<polygon fill="white" stroke="#666666" points="359.75,-33.5 226.75,-33.5 226.75,0 359.75,0 359.75,-33.5"/>
<text text-anchor="start" x="234.75" y="-20" font-family="Helvetica,sans-Serif" font-size="10.00">QtProjectWizardContent</text>
<text text-anchor="middle" x="293.25" y="-7.25" font-family="Helvetica,sans-Serif" font-size="10.00">::createFormLabel</text>
</a>
</g>
</g>
<!-- Node1&#45;&gt;Node2 -->
<g id="edge1_Node000001_Node000002" class="edge">
<title>Node1&#45;&gt;Node2</title>
<g id="a_edge1_Node000001_Node000002"><a xlink:title=" ">
<path fill="none" stroke="#63b8ff" d="M191.16,-16.75C199.16,-16.75 207.19,-16.75 215.04,-16.75"/>
<polygon fill="#63b8ff" stroke="#63b8ff" points="214.86,-20.25 224.86,-16.75 214.86,-13.25 214.86,-20.25"/>
</a>
</g>
</g>
<!-- Node3 -->
<g id="Node000003" class="node">
<title>Node3</title>
<g id="a_Node000003"><a xlink:href="classQtProjectWizardContent.html#a47454b8e21acec683fb55b4fbdea601e" target="_top" xlink:title=" ">
<polygon fill="white" stroke="#666666" points="528.75,-33.5 395.75,-33.5 395.75,0 528.75,0 528.75,-33.5"/>
<text text-anchor="start" x="403.75" y="-20" font-family="Helvetica,sans-Serif" font-size="10.00">QtProjectWizardContent</text>
<text text-anchor="middle" x="462.25" y="-7.25" font-family="Helvetica,sans-Serif" font-size="10.00">::createFormSubLabel</text>
</a>
</g>
</g>
<!-- Node2&#45;&gt;Node3 -->
<g id="edge2_Node000002_Node000003" class="edge">
<title>Node2&#45;&gt;Node3</title>
<g id="a_edge2_Node000002_Node000003"><a xlink:title=" ">
<path fill="none" stroke="#63b8ff" d="M359.77,-16.75C367.72,-16.75 375.9,-16.75 384,-16.75"/>
<polygon fill="#63b8ff" stroke="#63b8ff" points="383.85,-20.25 393.85,-16.75 383.85,-13.25 383.85,-20.25"/>
</a>
</g>
</g>
</g>
</svg>
