<?xml version="1.0" encoding="UTF-8" standalone="no"?>
<!DOCTYPE svg PUBLIC "-//W3C//DTD SVG 1.1//EN"
 "http://www.w3.org/Graphics/SVG/1.1/DTD/svg11.dtd">
<!-- Generated by graphviz version 9.0.0 (0)
 -->
<!-- Title: SourceLocation::getStartLocation Pages: 1 -->
<!--zoomable 183 -->

<svg id="main" version="1.1" xmlns="http://www.w3.org/2000/svg" xmlns:xlink="http://www.w3.org/1999/xlink" xml:space="preserve" onload="init(evt)">
<style type="text/css"><![CDATA[
.node, .edge {opacity: 0.7;}
.node.selected, .edge.selected {opacity: 1;}
.edge:hover path { stroke: red; }
.edge:hover polygon { stroke: red; fill: red; }
]]></style>

<defs>
  <circle id="rim" cx="0" cy="0" r="7"/>
  <circle id="rim2" cx="0" cy="0" r="3.5"/>
  <g id="zoomPlus">
    <use xlink:href="#rim" fill="#404040"><set attributeName="fill" to="#808080" begin="zoomplus.mouseover" end="zoomplus.mouseout"/></use>
    <path d="M-4,0h8M0,-4v8" fill="none" stroke="white" stroke-width="1.5" pointer-events="none"/>
  </g>
  <g id="zoomMin">
    <use xlink:href="#rim" fill="#404040"><set attributeName="fill" to="#808080" begin="zoomminus.mouseover" end="zoomminus.mouseout"/></use>
    <path d="M-4,0h8" fill="none" stroke="white" stroke-width="1.5" pointer-events="none"/>
  </g>
  <g id="arrowUp" transform="translate(30 24)">
    <use xlink:href="#rim"/>
    <path pointer-events="none" fill="none" stroke="white" stroke-width="1.5" d="M0,-3.0v7 M-2.5,-0.5L0,-3.0L2.5,-0.5"/>
  </g>
  <g id="arrowRight" transform="rotate(90) translate(36 -43)">
    <use xlink:href="#rim"/>
    <path pointer-events="none" fill="none" stroke="white" stroke-width="1.5" d="M0,-3.0v7 M-2.5,-0.5L0,-3.0L2.5,-0.5"/>
  </g>
  <g id="arrowDown" transform="rotate(180) translate(-30 -48)">
    <use xlink:href="#rim"/>
    <path pointer-events="none" fill="none" stroke="white" stroke-width="1.5" d="M0,-3.0v7 M-2.5,-0.5L0,-3.0L2.5,-0.5"/>
  </g>
  <g id="arrowLeft" transform="rotate(270) translate(-36 17)">
    <use xlink:href="#rim"/>
    <path pointer-events="none" fill="none" stroke="white" stroke-width="1.5" d="M0,-3.0v7 M-2.5,-0.5L0,-3.0L2.5,-0.5"/>
  </g>
  <g id="resetDef">
    <use xlink:href="#rim2" fill="#404040"><set attributeName="fill" to="#808080" begin="reset.mouseover" end="reset.mouseout"/></use>
  </g>
</defs>
<script type="application/ecmascript">
var viewWidth = 1102;
var viewHeight = 183;
var sectionId = 'dynsection-14';
</script>
<script type="application/ecmascript" xlink:href="svg.min.js"/>
<svg id="graph" class="graph">
<g id="viewport">
<title>SourceLocation::getStartLocation</title>
<!-- Node1 -->
<g id="Node000001" class="node">
<title>Node1</title>
<g id="a_Node000001"><a xlink:title=" ">
<polygon fill="#999999" stroke="#666666" points="1093.5,-105.12 958.25,-105.12 958.25,-71.62 1093.5,-71.62 1093.5,-105.12"/>
<text text-anchor="start" x="966.25" y="-91.62" font-family="Helvetica,sans-Serif" font-size="10.00">SourceLocation::getStart</text>
<text text-anchor="middle" x="1025.88" y="-78.88" font-family="Helvetica,sans-Serif" font-size="10.00">Location</text>
</a>
</g>
</g>
<!-- Node2 -->
<g id="Node000002" class="node">
<title>Node2</title>
<g id="a_Node000002"><a xlink:href="classSourceLocation.html#a0447891031dba55b8fdc350ef72849c0" target="_top" xlink:title=" ">
<polygon fill="white" stroke="#666666" points="906.12,-174.75 768.62,-174.75 768.62,-154 906.12,-154 906.12,-174.75"/>
<text text-anchor="middle" x="837.38" y="-161.25" font-family="Helvetica,sans-Serif" font-size="10.00">SourceLocation::contains</text>
</a>
</g>
</g>
<!-- Node1&#45;&gt;Node2 -->
<g id="edge1_Node000001_Node000002" class="edge">
<title>Node1&#45;&gt;Node2</title>
<g id="a_edge1_Node000001_Node000002"><a xlink:title=" ">
<path fill="none" stroke="#63b8ff" d="M985.11,-110.75C966.41,-120.69 943.59,-132 922.25,-140.38 909.42,-145.41 895.11,-149.9 882,-153.59"/>
<polygon fill="#63b8ff" stroke="#63b8ff" points="986.56,-113.95 993.7,-106.12 983.24,-107.79 986.56,-113.95"/>
</a>
</g>
</g>
<!-- Node3 -->
<g id="Node000003" class="node">
<title>Node3</title>
<g id="a_Node000003"><a xlink:href="classPersistentStorage.html#affb6cd0ceacf0f94b0bf3853490689f2" target="_top" xlink:title=" ">
<polygon fill="white" stroke="#666666" points="713.5,-169.12 572.25,-169.12 572.25,-135.62 713.5,-135.62 713.5,-169.12"/>
<text text-anchor="start" x="580.25" y="-155.62" font-family="Helvetica,sans-Serif" font-size="10.00">PersistentStorage::</text>
<text text-anchor="middle" x="642.88" y="-142.88" font-family="Helvetica,sans-Serif" font-size="10.00">getTooltipSnippetForNode</text>
</a>
</g>
</g>
<!-- Node1&#45;&gt;Node3 -->
<g id="edge11_Node000001_Node000003" class="edge">
<title>Node1&#45;&gt;Node3</title>
<g id="a_edge11_Node000001_Node000003"><a xlink:title=" ">
<path fill="none" stroke="#63b8ff" d="M946.66,-103.05C938.42,-104.54 930.17,-106 922.25,-107.38 851.34,-119.67 770.08,-132.68 713.73,-141.53"/>
<polygon fill="#63b8ff" stroke="#63b8ff" points="947.14,-106.52 956.35,-101.28 945.89,-99.63 947.14,-106.52"/>
</a>
</g>
</g>
<!-- Node5 -->
<g id="Node000005" class="node">
<title>Node5</title>
<g id="a_Node000005"><a xlink:href="classQtCodeField.html#a97d316c63bca19793607216be3da7458" target="_top" xlink:title=" ">
<polygon fill="white" stroke="#666666" points="922.25,-98.75 752.5,-98.75 752.5,-78 922.25,-78 922.25,-98.75"/>
<text text-anchor="middle" x="837.38" y="-85.25" font-family="Helvetica,sans-Serif" font-size="10.00">QtCodeField::createAnnotations</text>
</a>
</g>
</g>
<!-- Node1&#45;&gt;Node5 -->
<g id="edge4_Node000001_Node000005" class="edge">
<title>Node1&#45;&gt;Node5</title>
<g id="a_edge4_Node000001_Node000005"><a xlink:title=" ">
<path fill="none" stroke="#63b8ff" d="M946.45,-88.38C938.6,-88.38 930.62,-88.38 922.72,-88.38"/>
<polygon fill="#63b8ff" stroke="#63b8ff" points="946.29,-91.88 956.29,-88.38 946.29,-84.88 946.29,-91.88"/>
</a>
</g>
</g>
<!-- Node12 -->
<g id="Node000012" class="node">
<title>Node12</title>
<g id="a_Node000012"><a xlink:href="SourceLocationCollectionTestSuite_8cpp.html#af3cb38457014698c980a1f8c5f961aa0" target="_top" xlink:title=" ">
<polygon fill="white" stroke="#666666" points="863,-59.75 811.75,-59.75 811.75,-39 863,-39 863,-59.75"/>
<text text-anchor="middle" x="837.38" y="-46.25" font-family="Helvetica,sans-Serif" font-size="10.00">TEST_F</text>
</a>
</g>
</g>
<!-- Node1&#45;&gt;Node12 -->
<g id="edge12_Node000001_Node000012" class="edge">
<title>Node1&#45;&gt;Node12</title>
<g id="a_edge12_Node000001_Node000012"><a xlink:title=" ">
<path fill="none" stroke="#63b8ff" d="M946.9,-72.07C916.98,-65.81 884.89,-59.1 863.43,-54.61"/>
<polygon fill="#63b8ff" stroke="#63b8ff" points="945.82,-75.42 956.33,-74.04 947.25,-68.57 945.82,-75.42"/>
</a>
</g>
</g>
<!-- Node13 -->
<g id="Node000013" class="node">
<title>Node13</title>
<g id="a_Node000013"><a xlink:href="SourceLocationCollectionTestSuite_8cpp.html#a12e7a958b75448b168697091b5d060fa" target="_top" xlink:title=" ">
<polygon fill="white" stroke="#666666" points="863,-20.75 811.75,-20.75 811.75,0 863,0 863,-20.75"/>
<text text-anchor="middle" x="837.38" y="-7.25" font-family="Helvetica,sans-Serif" font-size="10.00">TEST_F</text>
</a>
</g>
</g>
<!-- Node1&#45;&gt;Node13 -->
<g id="edge13_Node000001_Node000013" class="edge">
<title>Node1&#45;&gt;Node13</title>
<g id="a_edge13_Node000001_Node000013"><a xlink:title=" ">
<path fill="none" stroke="#63b8ff" d="M989.75,-65.27C970.48,-53.43 945.77,-39.61 922.25,-30.38 903.02,-22.82 880.15,-17.6 863.15,-14.39"/>
<polygon fill="#63b8ff" stroke="#63b8ff" points="987.69,-68.1 998.02,-70.43 991.4,-62.16 987.69,-68.1"/>
</a>
</g>
</g>
<!-- Node2&#45;&gt;Node3 -->
<g id="edge2_Node000002_Node000003" class="edge">
<title>Node2&#45;&gt;Node3</title>
<g id="a_edge2_Node000002_Node000003"><a xlink:title=" ">
<path fill="none" stroke="#63b8ff" d="M756.92,-159.42C742.64,-158.53 727.86,-157.61 713.87,-156.74"/>
<polygon fill="#63b8ff" stroke="#63b8ff" points="756.53,-162.9 766.73,-160.03 756.96,-155.92 756.53,-162.9"/>
</a>
</g>
</g>
<!-- Node4 -->
<g id="Node000004" class="node">
<title>Node4</title>
<g id="a_Node000004"><a xlink:href="classPersistentStorage.html#a4e8e066571898d8762233955dbc3e845" target="_top" xlink:title=" ">
<polygon fill="white" stroke="#666666" points="522.38,-169.12 382.62,-169.12 382.62,-135.62 522.38,-135.62 522.38,-169.12"/>
<text text-anchor="start" x="390.62" y="-155.62" font-family="Helvetica,sans-Serif" font-size="10.00">PersistentStorage::</text>
<text text-anchor="middle" x="452.5" y="-142.88" font-family="Helvetica,sans-Serif" font-size="10.00">getTooltipInfoForTokenIds</text>
</a>
</g>
</g>
<!-- Node3&#45;&gt;Node4 -->
<g id="edge3_Node000003_Node000004" class="edge">
<title>Node3&#45;&gt;Node4</title>
<g id="a_edge3_Node000003_Node000004"><a xlink:title=" ">
<path fill="none" stroke="#63b8ff" d="M560.52,-152.38C547.9,-152.38 534.96,-152.38 522.64,-152.38"/>
<polygon fill="#63b8ff" stroke="#63b8ff" points="560.49,-155.88 570.49,-152.38 560.49,-148.88 560.49,-155.88"/>
</a>
</g>
</g>
<!-- Node6 -->
<g id="Node000006" class="node">
<title>Node6</title>
<g id="a_Node000006"><a xlink:href="classQtCodeField.html#a2a22c06ec26342e1c7dc4bc4cef0d411" target="_top" xlink:title=" ">
<polygon fill="white" stroke="#666666" points="712.38,-110.75 573.38,-110.75 573.38,-90 712.38,-90 712.38,-110.75"/>
<text text-anchor="middle" x="642.88" y="-97.25" font-family="Helvetica,sans-Serif" font-size="10.00">QtCodeField::QtCodeField</text>
</a>
</g>
</g>
<!-- Node5&#45;&gt;Node6 -->
<g id="edge5_Node000005_Node000006" class="edge">
<title>Node5&#45;&gt;Node6</title>
<g id="a_edge5_Node000005_Node000006"><a xlink:title=" ">
<path fill="none" stroke="#63b8ff" d="M740.76,-94.34C731.35,-94.92 721.92,-95.51 712.85,-96.08"/>
<polygon fill="#63b8ff" stroke="#63b8ff" points="740.95,-97.83 750.71,-93.72 740.51,-90.84 740.95,-97.83"/>
</a>
</g>
</g>
<!-- Node7 -->
<g id="Node000007" class="node">
<title>Node7</title>
<g id="a_Node000007"><a xlink:href="classQtCodeArea.html#a7fd0b14e7544f1698bc5811568db4621" target="_top" xlink:title=" ">
<polygon fill="white" stroke="#666666" points="716.5,-72.12 569.25,-72.12 569.25,-38.62 716.5,-38.62 716.5,-72.12"/>
<text text-anchor="start" x="577.25" y="-58.62" font-family="Helvetica,sans-Serif" font-size="10.00">QtCodeArea::updateSource</text>
<text text-anchor="middle" x="642.88" y="-45.88" font-family="Helvetica,sans-Serif" font-size="10.00">Locations</text>
</a>
</g>
</g>
<!-- Node5&#45;&gt;Node7 -->
<g id="edge6_Node000005_Node000007" class="edge">
<title>Node5&#45;&gt;Node7</title>
<g id="a_edge6_Node000005_Node000007"><a xlink:title=" ">
<path fill="none" stroke="#63b8ff" d="M761.93,-75.61C747.15,-73.08 731.63,-70.42 716.89,-67.89"/>
<polygon fill="#63b8ff" stroke="#63b8ff" points="761.14,-79.03 771.58,-77.27 762.32,-72.13 761.14,-79.03"/>
</a>
</g>
</g>
<!-- Node8 -->
<g id="Node000008" class="node">
<title>Node8</title>
<g id="a_Node000008"><a xlink:href="classQtCodeSnippet.html#ac4f99cc9745a4ce48f3bf1bd78c26f69" target="_top" xlink:title=" ">
<polygon fill="white" stroke="#666666" points="533.25,-95.12 371.75,-95.12 371.75,-61.62 533.25,-61.62 533.25,-95.12"/>
<text text-anchor="start" x="379.75" y="-81.62" font-family="Helvetica,sans-Serif" font-size="10.00">QtCodeSnippet::updateSource</text>
<text text-anchor="middle" x="452.5" y="-68.88" font-family="Helvetica,sans-Serif" font-size="10.00">Locations</text>
</a>
</g>
</g>
<!-- Node7&#45;&gt;Node8 -->
<g id="edge7_Node000007_Node000008" class="edge">
<title>Node7&#45;&gt;Node8</title>
<g id="a_edge7_Node000007_Node000008"><a xlink:title=" ">
<path fill="none" stroke="#63b8ff" d="M557.36,-65.69C549.5,-66.65 541.56,-67.62 533.74,-68.58"/>
<polygon fill="#63b8ff" stroke="#63b8ff" points="557.77,-69.17 567.27,-64.48 556.92,-62.22 557.77,-69.17"/>
</a>
</g>
</g>
<!-- Node11 -->
<g id="Node000011" class="node">
<title>Node11</title>
<g id="a_Node000011"><a xlink:href="classQtCodeFileSingle.html#a2ad4acf9fcdfa0deff804ef1dadc5aaa" target="_top" xlink:title=" ">
<polygon fill="white" stroke="#666666" points="521.62,-43.12 383.38,-43.12 383.38,-9.62 521.62,-9.62 521.62,-43.12"/>
<text text-anchor="start" x="391.38" y="-29.62" font-family="Helvetica,sans-Serif" font-size="10.00">QtCodeFileSingle::update</text>
<text text-anchor="middle" x="452.5" y="-16.88" font-family="Helvetica,sans-Serif" font-size="10.00">SourceLocations</text>
</a>
</g>
</g>
<!-- Node7&#45;&gt;Node11 -->
<g id="edge10_Node000007_Node000011" class="edge">
<title>Node7&#45;&gt;Node11</title>
<g id="a_edge10_Node000007_Node000011"><a xlink:title=" ">
<path fill="none" stroke="#63b8ff" d="M557.46,-42.38C545.57,-40.55 533.47,-38.69 521.93,-36.91"/>
<polygon fill="#63b8ff" stroke="#63b8ff" points="556.86,-45.83 567.28,-43.89 557.93,-38.91 556.86,-45.83"/>
</a>
</g>
</g>
<!-- Node9 -->
<g id="Node000009" class="node">
<title>Node9</title>
<g id="a_Node000009"><a xlink:href="classQtCodeFile.html#abff38401b7321a3ffcb4c0c7a9789b82" target="_top" xlink:title=" ">
<polygon fill="white" stroke="#666666" points="335.75,-95.12 194.5,-95.12 194.5,-61.62 335.75,-61.62 335.75,-95.12"/>
<text text-anchor="start" x="202.5" y="-81.62" font-family="Helvetica,sans-Serif" font-size="10.00">QtCodeFile::updateSource</text>
<text text-anchor="middle" x="265.12" y="-68.88" font-family="Helvetica,sans-Serif" font-size="10.00">Locations</text>
</a>
</g>
</g>
<!-- Node8&#45;&gt;Node9 -->
<g id="edge8_Node000008_Node000009" class="edge">
<title>Node8&#45;&gt;Node9</title>
<g id="a_edge8_Node000008_Node000009"><a xlink:title=" ">
<path fill="none" stroke="#63b8ff" d="M359.93,-78.38C351.88,-78.38 343.83,-78.38 336,-78.38"/>
<polygon fill="#63b8ff" stroke="#63b8ff" points="359.76,-81.88 369.76,-78.38 359.76,-74.88 359.76,-81.88"/>
</a>
</g>
</g>
<!-- Node10 -->
<g id="Node000010" class="node">
<title>Node10</title>
<g id="a_Node000010"><a xlink:href="classQtCodeFileList.html#aa0277bce0e2bc5b2588fa686bfcdb45f" target="_top" xlink:title=" ">
<polygon fill="white" stroke="#666666" points="158.5,-95.12 0,-95.12 0,-61.62 158.5,-61.62 158.5,-95.12"/>
<text text-anchor="start" x="8" y="-81.62" font-family="Helvetica,sans-Serif" font-size="10.00">QtCodeFileList::updateSource</text>
<text text-anchor="middle" x="79.25" y="-68.88" font-family="Helvetica,sans-Serif" font-size="10.00">Locations</text>
</a>
</g>
</g>
<!-- Node9&#45;&gt;Node10 -->
<g id="edge9_Node000009_Node000010" class="edge">
<title>Node9&#45;&gt;Node10</title>
<g id="a_edge9_Node000009_Node000010"><a xlink:title=" ">
<path fill="none" stroke="#63b8ff" d="M182.84,-78.38C174.82,-78.38 166.69,-78.38 158.69,-78.38"/>
<polygon fill="#63b8ff" stroke="#63b8ff" points="182.57,-81.88 192.57,-78.38 182.57,-74.88 182.57,-81.88"/>
</a>
</g>
</g>
</g>
</svg>

<g id="navigator" transform="translate(0 0)" fill="#404254">
  <rect fill="#f2f5e9" fill-opacity="0.5" stroke="#606060" stroke-width=".5" x="0" y="0" width="60" height="60"/>
  <use id="zoomplus" xlink:href="#zoomPlus" x="17" y="9" onmousedown="handleZoom(evt,'in')"/>
  <use id="zoomminus" xlink:href="#zoomMin" x="42" y="9" onmousedown="handleZoom(evt,'out')"/>
  <use id="reset" xlink:href="#resetDef" x="30" y="36" onmousedown="handleReset()"/>
   <use id="arrowup" xlink:href="#arrowUp" x="0" y="0" onmousedown="handlePan(0,-1)"/>
  <use id="arrowright" xlink:href="#arrowRight" x="0" y="0" onmousedown="handlePan(1,0)"/>
  <use id="arrowdown" xlink:href="#arrowDown" x="0" y="0" onmousedown="handlePan(0,1)"/>
  <use id="arrowleft" xlink:href="#arrowLeft" x="0" y="0" onmousedown="handlePan(-1,0)"/>
</g>
<svg viewBox="0 0 15 15" width="100%" height="30px" preserveAspectRatio="xMaxYMin meet">
 <g id="arrow_out" transform="scale(0.3 0.3)">
  <a xlink:href="classSourceLocation_a28785e9e82c344caa534b5b2dbc617e6_icgraph_org.svg" target="_base">
   <rect id="button" ry="5" rx="5" y="6" x="6" height="38" width="38"
        fill="#f2f5e9" fill-opacity="0.5" stroke="#606060" stroke-width="1.0"/>
   <path id="arrow"
     d="M 11.500037,31.436501 C 11.940474,20.09759 22.043105,11.32322 32.158766,21.979434 L 37.068811,17.246167 C 37.068811,17.246167 37.088388,32 37.088388,32 L 22.160133,31.978069 C 22.160133,31.978069 26.997745,27.140456 26.997745,27.140456 C 18.528582,18.264221 13.291696,25.230495 11.500037,31.436501 z"
     style="fill:#404040;"/>
  </a>
 </g>
</svg>

<style type='text/css'>
<![CDATA[
[data-mouse-over-selected='false'] { opacity: 0.7; }
[data-mouse-over-selected='true']  { opacity: 1.0; }
]]>
</style>
<script type="application/ecmascript"><![CDATA[
document.addEventListener('DOMContentLoaded', (event) => {
  highlightEdges();
  highlightAdjacentNodes();
});
]]></script>
</svg>
