<?xml version="1.0" encoding="UTF-8" standalone="no"?>
<!DOCTYPE svg PUBLIC "-//W3C//DTD SVG 1.1//EN"
 "http://www.w3.org/Graphics/SVG/1.1/DTD/svg11.dtd">
<!-- Generated by graphviz version 7.1.0 (0)
 -->
<!-- Title: QtCodeArea::getLocationIdOfFirstActiveLocation Pages: 1 -->
<svg width="756pt" height="129pt"
 viewBox="0.00 0.00 756.00 129.00" xmlns="http://www.w3.org/2000/svg" xmlns:xlink="http://www.w3.org/1999/xlink">
<g id="graph0" class="graph" transform="scale(1 1) rotate(0) translate(4 125)">
<title>QtCodeArea::getLocationIdOfFirstActiveLocation</title>
<!-- Node1 -->
<g id="node1" class="node">
<title>Node1</title>
<g id="a_node1"><a xlink:title=" ">
<polygon fill="#999999" stroke="#666666" points="748,-97 601,-97 601,-67 748,-67 748,-97"/>
<text text-anchor="start" x="609" y="-85" font-family="Helvetica,sans-Serif" font-size="10.00">QtCodeArea::getLocationId</text>
<text text-anchor="middle" x="674.5" y="-74" font-family="Helvetica,sans-Serif" font-size="10.00">OfFirstActiveLocation</text>
</a>
</g>
</g>
<!-- Node2 -->
<g id="node2" class="node">
<title>Node2</title>
<g id="a_node2"><a xlink:href="classQtCodeSnippet.html#a076f2c4c02b8606fc00e4bf66bfbc4a8" target="_top" xlink:title=" ">
<polygon fill="white" stroke="#666666" points="557.5,-121 395.5,-121 395.5,-91 557.5,-91 557.5,-121"/>
<text text-anchor="start" x="403.5" y="-109" font-family="Helvetica,sans-Serif" font-size="10.00">QtCodeSnippet::getFirstActive</text>
<text text-anchor="middle" x="476.5" y="-98" font-family="Helvetica,sans-Serif" font-size="10.00">LocationId</text>
</a>
</g>
</g>
<!-- Node1&#45;&gt;Node2 -->
<g id="edge1" class="edge">
<title>Node1&#45;&gt;Node2</title>
<path fill="none" stroke="#63b8ff" d="M589.29,-92.31C578.84,-93.59 568.17,-94.9 557.79,-96.17"/>
<polygon fill="#63b8ff" stroke="#63b8ff" points="589.51,-95.81 599.01,-91.12 588.66,-88.86 589.51,-95.81"/>
</g>
<!-- Node3 -->
<g id="node3" class="node">
<title>Node3</title>
<g id="a_node3"><a xlink:href="classQtCodeFileSingle.html#a5a6185cc467ff98e6a7fccd4ad410f2b" target="_top" xlink:title=" ">
<polygon fill="white" stroke="#666666" points="565,-73 388,-73 388,-43 565,-43 565,-73"/>
<text text-anchor="start" x="396" y="-61" font-family="Helvetica,sans-Serif" font-size="10.00">QtCodeFileSingle::getLocation</text>
<text text-anchor="middle" x="476.5" y="-50" font-family="Helvetica,sans-Serif" font-size="10.00">IdOfFirstActiveLocationOfTokenId</text>
</a>
</g>
</g>
<!-- Node1&#45;&gt;Node3 -->
<g id="edge2" class="edge">
<title>Node1&#45;&gt;Node3</title>
<path fill="none" stroke="#63b8ff" d="M589.13,-71.67C581.29,-70.71 573.33,-69.73 565.45,-68.77"/>
<polygon fill="#63b8ff" stroke="#63b8ff" points="588.66,-75.14 599.01,-72.88 589.51,-68.19 588.66,-75.14"/>
</g>
<!-- Node4 -->
<g id="node4" class="node">
<title>Node4</title>
<g id="a_node4"><a xlink:href="classQtCodeNavigator.html#a9b9e1bb2def8402dcd41fb4464dd23df" target="_top" xlink:title=" ">
<polygon fill="white" stroke="#666666" points="352,-73 191,-73 191,-43 352,-43 352,-73"/>
<text text-anchor="start" x="199" y="-61" font-family="Helvetica,sans-Serif" font-size="10.00">QtCodeNavigator::focusInitial</text>
<text text-anchor="middle" x="271.5" y="-50" font-family="Helvetica,sans-Serif" font-size="10.00">Location</text>
</a>
</g>
</g>
<!-- Node3&#45;&gt;Node4 -->
<g id="edge3" class="edge">
<title>Node3&#45;&gt;Node4</title>
<path fill="none" stroke="#63b8ff" d="M376.36,-58C368.36,-58 360.34,-58 352.5,-58"/>
<polygon fill="#63b8ff" stroke="#63b8ff" points="376.13,-61.5 386.13,-58 376.13,-54.5 376.13,-61.5"/>
</g>
<!-- Node5 -->
<g id="node5" class="node">
<title>Node5</title>
<g id="a_node5"><a xlink:href="classQtCodeView.html#a03d33b6b0d51a10ab3c407765c6e8c6d" target="_top" xlink:title=" ">
<polygon fill="white" stroke="#666666" points="155,-104.5 0,-104.5 0,-85.5 155,-85.5 155,-104.5"/>
<text text-anchor="middle" x="77.5" y="-92.5" font-family="Helvetica,sans-Serif" font-size="10.00">QtCodeView::showSingleFile</text>
</a>
</g>
</g>
<!-- Node4&#45;&gt;Node5 -->
<g id="edge4" class="edge">
<title>Node4&#45;&gt;Node5</title>
<path fill="none" stroke="#63b8ff" d="M179.67,-75.5C162.74,-78.77 145.6,-82.07 130.35,-85.01"/>
<polygon fill="#63b8ff" stroke="#63b8ff" points="180.1,-78.99 189.26,-73.66 178.77,-72.11 180.1,-78.99"/>
</g>
<!-- Node6 -->
<g id="node6" class="node">
<title>Node6</title>
<g id="a_node6"><a xlink:href="classQtCodeView.html#a47df56cbb087ef2d989d78970ea8bb98" target="_top" xlink:title=" ">
<polygon fill="white" stroke="#666666" points="152.5,-67.5 2.5,-67.5 2.5,-48.5 152.5,-48.5 152.5,-67.5"/>
<text text-anchor="middle" x="77.5" y="-55.5" font-family="Helvetica,sans-Serif" font-size="10.00">QtCodeView::showSnippets</text>
</a>
</g>
</g>
<!-- Node4&#45;&gt;Node6 -->
<g id="edge5" class="edge">
<title>Node4&#45;&gt;Node6</title>
<path fill="none" stroke="#63b8ff" d="M179.47,-58C170.53,-58 161.53,-58 152.78,-58"/>
<polygon fill="#63b8ff" stroke="#63b8ff" points="179.23,-61.5 189.23,-58 179.23,-54.5 179.23,-61.5"/>
</g>
<!-- Node7 -->
<g id="node7" class="node">
<title>Node7</title>
<g id="a_node7"><a xlink:href="classQtCodeView.html#aa979fa8e1d0e5f9590940f1c345d6251" target="_top" xlink:title=" ">
<polygon fill="white" stroke="#666666" points="152,-30 3,-30 3,0 152,0 152,-30"/>
<text text-anchor="start" x="11" y="-18" font-family="Helvetica,sans-Serif" font-size="10.00">QtCodeView::updateSource</text>
<text text-anchor="middle" x="77.5" y="-7" font-family="Helvetica,sans-Serif" font-size="10.00">Locations</text>
</a>
</g>
</g>
<!-- Node4&#45;&gt;Node7 -->
<g id="edge6" class="edge">
<title>Node4&#45;&gt;Node7</title>
<path fill="none" stroke="#63b8ff" d="M190.64,-40.11C176.34,-36.91 161.54,-33.6 147.58,-30.47"/>
<polygon fill="#63b8ff" stroke="#63b8ff" points="189.45,-43.44 199.98,-42.21 190.98,-36.61 189.45,-43.44"/>
</g>
</g>
</svg>
