<?xml version="1.0" encoding="UTF-8" standalone="no"?>
<!DOCTYPE svg PUBLIC "-//W3C//DTD SVG 1.1//EN"
 "http://www.w3.org/Graphics/SVG/1.1/DTD/svg11.dtd">
<!-- Generated by graphviz version 7.1.0 (0)
 -->
<!-- Title: QtFlowLayout::heightForWidth Pages: 1 -->
<svg width="737pt" height="76pt"
 viewBox="0.00 0.00 737.00 75.50" xmlns="http://www.w3.org/2000/svg" xmlns:xlink="http://www.w3.org/1999/xlink">
<g id="graph0" class="graph" transform="scale(1 1) rotate(0) translate(4 71.5)">
<title>QtFlowLayout::heightForWidth</title>
<!-- Node1 -->
<g id="node1" class="node">
<title>Node1</title>
<g id="a_node1"><a xlink:title=" ">
<polygon fill="#999999" stroke="#666666" points="164,-40 0,-40 0,-21 164,-21 164,-40"/>
<text text-anchor="middle" x="82" y="-28" font-family="Helvetica,sans-Serif" font-size="10.00">QtFlowLayout::heightForWidth</text>
</a>
</g>
</g>
<!-- Node2 -->
<g id="node2" class="node">
<title>Node2</title>
<g id="a_node2"><a xlink:href="classQtFlowLayout.html#a86edc02da1453eca895957b1a3e437bf" target="_top" xlink:title=" ">
<polygon fill="white" stroke="#666666" points="335,-40 200,-40 200,-21 335,-21 335,-40"/>
<text text-anchor="middle" x="267.5" y="-28" font-family="Helvetica,sans-Serif" font-size="10.00">QtFlowLayout::doLayout</text>
</a>
</g>
</g>
<!-- Node1&#45;&gt;Node2 -->
<g id="edge1" class="edge">
<title>Node1&#45;&gt;Node2</title>
<path fill="none" stroke="#63b8ff" d="M164.29,-30.5C172.21,-30.5 180.24,-30.5 188.13,-30.5"/>
<polygon fill="#63b8ff" stroke="#63b8ff" points="188.06,-34 198.06,-30.5 188.06,-27 188.06,-34"/>
</g>
<!-- Node3 -->
<g id="node3" class="node">
<title>Node3</title>
<g id="a_node3"><a xlink:href="classQtFlowLayout.html#a083cd5350285de2eddd8bc891729d3c4" target="_top" xlink:title=" ">
<polygon fill="white" stroke="#666666" points="523,-67.5 384,-67.5 384,-37.5 523,-37.5 523,-67.5"/>
<text text-anchor="start" x="392" y="-55.5" font-family="Helvetica,sans-Serif" font-size="10.00">QtFlowLayout::horizontal</text>
<text text-anchor="middle" x="453.5" y="-44.5" font-family="Helvetica,sans-Serif" font-size="10.00">Spacing</text>
</a>
</g>
</g>
<!-- Node2&#45;&gt;Node3 -->
<g id="edge2" class="edge">
<title>Node2&#45;&gt;Node3</title>
<path fill="none" stroke="#63b8ff" d="M335.45,-38.5C347.49,-39.94 360.14,-41.46 372.5,-42.94"/>
<polygon fill="#63b8ff" stroke="#63b8ff" points="371.9,-46.39 382.24,-44.1 372.73,-39.44 371.9,-46.39"/>
</g>
<!-- Node5 -->
<g id="node5" class="node">
<title>Node5</title>
<g id="a_node5"><a xlink:href="classQtFlowLayout.html#a9d657f001da313b034c8be75761d178c" target="_top" xlink:title=" ">
<polygon fill="white" stroke="#666666" points="536,-19 371,-19 371,0 536,0 536,-19"/>
<text text-anchor="middle" x="453.5" y="-7" font-family="Helvetica,sans-Serif" font-size="10.00">QtFlowLayout::verticalSpacing</text>
</a>
</g>
</g>
<!-- Node2&#45;&gt;Node5 -->
<g id="edge4" class="edge">
<title>Node2&#45;&gt;Node5</title>
<path fill="none" stroke="#63b8ff" d="M335.45,-22.86C343.2,-21.97 351.21,-21.06 359.23,-20.14"/>
<polygon fill="#63b8ff" stroke="#63b8ff" points="359.51,-23.64 369.05,-19.02 358.72,-16.68 359.51,-23.64"/>
</g>
<!-- Node4 -->
<g id="node4" class="node">
<title>Node4</title>
<g id="a_node4"><a xlink:href="classQtFlowLayout.html#a1d39748546114547c27df26a7c23988a" target="_top" xlink:title=" ">
<polygon fill="white" stroke="#666666" points="729,-40 572,-40 572,-21 729,-21 729,-40"/>
<text text-anchor="middle" x="650.5" y="-28" font-family="Helvetica,sans-Serif" font-size="10.00">QtFlowLayout::smartSpacing</text>
</a>
</g>
</g>
<!-- Node3&#45;&gt;Node4 -->
<g id="edge3" class="edge">
<title>Node3&#45;&gt;Node4</title>
<path fill="none" stroke="#63b8ff" d="M523.25,-44.74C535.25,-43.39 547.9,-41.96 560.36,-40.56"/>
<polygon fill="#63b8ff" stroke="#63b8ff" points="560.68,-44.04 570.22,-39.44 559.89,-37.09 560.68,-44.04"/>
</g>
<!-- Node5&#45;&gt;Node4 -->
<g id="edge5" class="edge">
<title>Node5&#45;&gt;Node4</title>
<path fill="none" stroke="#63b8ff" d="M536.35,-18.31C544.28,-19.17 552.36,-20.04 560.36,-20.9"/>
<polygon fill="#63b8ff" stroke="#63b8ff" points="559.78,-24.36 570.09,-21.95 560.53,-17.4 559.78,-24.36"/>
</g>
</g>
</svg>
