<?xml version="1.0" encoding="UTF-8" standalone="no"?>
<!DOCTYPE svg PUBLIC "-//W3C//DTD SVG 1.1//EN"
 "http://www.w3.org/Graphics/SVG/1.1/DTD/svg11.dtd">
<!-- Generated by graphviz version 9.0.0 (0)
 -->
<!-- Title: QtSmartSearchBox::layoutElements Pages: 1 -->
<svg width="1933pt" height="927pt"
 viewBox="0.00 0.00 1932.50 927.40" xmlns="http://www.w3.org/2000/svg" xmlns:xlink="http://www.w3.org/1999/xlink">
<g id="graph0" class="graph" transform="scale(1 1) rotate(0) translate(4 923.4)">
<title>QtSmartSearchBox::layoutElements</title>
<!-- Node1 -->
<g id="Node000001" class="node">
<title>Node1</title>
<g id="a_Node000001"><a xlink:title=" ">
<polygon fill="#999999" stroke="#666666" points="1924.5,-332.78 1779.5,-332.78 1779.5,-299.28 1924.5,-299.28 1924.5,-332.78"/>
<text text-anchor="start" x="1787.5" y="-319.28" font-family="Helvetica,sans-Serif" font-size="10.00">QtSmartSearchBox::layout</text>
<text text-anchor="middle" x="1852" y="-306.53" font-family="Helvetica,sans-Serif" font-size="10.00">Elements</text>
</a>
</g>
</g>
<!-- Node2 -->
<g id="Node000002" class="node">
<title>Node2</title>
<g id="a_Node000002"><a xlink:href="classQtSmartSearchBox.html#a7b10f7d2924f575ef15fcb69f280f622" target="_top" xlink:title=" ">
<polygon fill="white" stroke="#666666" points="900.25,-253.78 750.75,-253.78 750.75,-220.28 900.25,-220.28 900.25,-253.78"/>
<text text-anchor="start" x="758.75" y="-240.28" font-family="Helvetica,sans-Serif" font-size="10.00">QtSmartSearchBox::focusIn</text>
<text text-anchor="middle" x="825.5" y="-227.53" font-family="Helvetica,sans-Serif" font-size="10.00">Event</text>
</a>
</g>
</g>
<!-- Node1&#45;&gt;Node2 -->
<g id="edge1_Node000001_Node000002" class="edge">
<title>Node1&#45;&gt;Node2</title>
<g id="a_edge1_Node000001_Node000002"><a xlink:title=" ">
<path fill="none" stroke="#63b8ff" d="M1828.4,-290.4C1773.23,-230.83 1624.6,-88.03 1467.75,-88.03 1467.75,-88.03 1467.75,-88.03 1263.75,-88.03 1129.93,-88.03 1070,-26.33 963.25,-107.03 924.9,-136.02 962.38,-176.21 927.25,-209.03 919.62,-216.15 910.34,-221.49 900.53,-225.48"/>
<polygon fill="#63b8ff" stroke="#63b8ff" points="1825.8,-292.75 1835.13,-297.77 1830.97,-288.03 1825.8,-292.75"/>
</a>
</g>
</g>
<!-- Node3 -->
<g id="Node000003" class="node">
<title>Node3</title>
<g id="a_Node000003"><a xlink:href="classQtSmartSearchBox.html#a42acffd3ed003ed9dca6c0eb45ec2caa" target="_top" xlink:title=" ">
<polygon fill="white" stroke="#666666" points="904.38,-356.78 746.62,-356.78 746.62,-323.28 904.38,-323.28 904.38,-356.78"/>
<text text-anchor="start" x="754.62" y="-343.28" font-family="Helvetica,sans-Serif" font-size="10.00">QtSmartSearchBox::keyPress</text>
<text text-anchor="middle" x="825.5" y="-330.53" font-family="Helvetica,sans-Serif" font-size="10.00">Event</text>
</a>
</g>
</g>
<!-- Node1&#45;&gt;Node3 -->
<g id="edge2_Node000001_Node000003" class="edge">
<title>Node1&#45;&gt;Node3</title>
<g id="a_edge2_Node000001_Node000003"><a xlink:title=" ">
<path fill="none" stroke="#63b8ff" d="M1768.16,-316.03C1690.54,-316.03 1571.28,-316.03 1467.75,-316.03 1467.75,-316.03 1467.75,-316.03 1263.75,-316.03 1137.93,-316.03 992.04,-326.06 904.62,-333.15"/>
<polygon fill="#63b8ff" stroke="#63b8ff" points="1767.79,-319.53 1777.79,-316.03 1767.79,-312.53 1767.79,-319.53"/>
</a>
</g>
</g>
<!-- Node4 -->
<g id="Node000004" class="node">
<title>Node4</title>
<g id="a_Node000004"><a xlink:href="classQtSmartSearchBox.html#aef0a337c1c0f6bd4dd165e48eef12973" target="_top" xlink:title=" ">
<polygon fill="white" stroke="#666666" points="912.62,-512.78 738.38,-512.78 738.38,-479.28 912.62,-479.28 912.62,-512.78"/>
<text text-anchor="start" x="746.38" y="-499.28" font-family="Helvetica,sans-Serif" font-size="10.00">QtSmartSearchBox::mouseMove</text>
<text text-anchor="middle" x="825.5" y="-486.53" font-family="Helvetica,sans-Serif" font-size="10.00">Event</text>
</a>
</g>
</g>
<!-- Node1&#45;&gt;Node4 -->
<g id="edge3_Node000001_Node000004" class="edge">
<title>Node1&#45;&gt;Node4</title>
<g id="a_edge3_Node000001_Node000004"><a xlink:title=" ">
<path fill="none" stroke="#63b8ff" d="M1825.71,-341.09C1805.27,-359.82 1774.83,-384.45 1743.5,-398.03 1493.89,-506.24 1408.26,-461.72 1136.75,-479.03 1061.25,-483.84 975.35,-488.48 913.12,-491.7"/>
<polygon fill="#63b8ff" stroke="#63b8ff" points="1828.1,-343.65 1832.99,-334.25 1823.31,-338.54 1828.1,-343.65"/>
</a>
</g>
</g>
<!-- Node5 -->
<g id="Node000005" class="node">
<title>Node5</title>
<g id="a_Node000005"><a xlink:href="classQtSmartSearchBox.html#a87cffbe57c5e6ec12098e6b4ae2158ae" target="_top" xlink:title=" ">
<polygon fill="white" stroke="#666666" points="918.62,-142.78 732.38,-142.78 732.38,-109.28 918.62,-109.28 918.62,-142.78"/>
<text text-anchor="start" x="740.38" y="-129.28" font-family="Helvetica,sans-Serif" font-size="10.00">QtSmartSearchBox::mouseRelease</text>
<text text-anchor="middle" x="825.5" y="-116.53" font-family="Helvetica,sans-Serif" font-size="10.00">Event</text>
</a>
</g>
</g>
<!-- Node1&#45;&gt;Node5 -->
<g id="edge4_Node000001_Node000005" class="edge">
<title>Node1&#45;&gt;Node5</title>
<g id="a_edge4_Node000001_Node000005"><a xlink:title=" ">
<path fill="none" stroke="#63b8ff" d="M1848.93,-287.61C1843.18,-231.19 1821.78,-105.3 1743.5,-45.03 1645.7,30.27 1591.18,-12.03 1467.75,-12.03 1467.75,-12.03 1467.75,-12.03 1263.75,-12.03 1129.66,-12.03 1090.19,4.18 963.25,-39.03 917.43,-54.62 871.45,-88.54 846.21,-109.11"/>
<polygon fill="#63b8ff" stroke="#63b8ff" points="1845.43,-287.71 1849.83,-297.35 1852.4,-287.07 1845.43,-287.71"/>
</a>
</g>
</g>
<!-- Node6 -->
<g id="Node000006" class="node">
<title>Node6</title>
<g id="a_Node000006"><a xlink:href="classQtSmartSearchBox.html#a46d7dc77feb4c89ea90787455a216ee4" target="_top" xlink:title=" ">
<polygon fill="white" stroke="#666666" points="1356.75,-212.4 1172.75,-212.4 1172.75,-191.65 1356.75,-191.65 1356.75,-212.4"/>
<text text-anchor="middle" x="1264.75" y="-198.9" font-family="Helvetica,sans-Serif" font-size="10.00">QtSmartSearchBox::moveCursorTo</text>
</a>
</g>
</g>
<!-- Node1&#45;&gt;Node6 -->
<g id="edge5_Node000001_Node000006" class="edge">
<title>Node1&#45;&gt;Node6</title>
<g id="a_edge5_Node000001_Node000006"><a xlink:title=" ">
<path fill="none" stroke="#63b8ff" d="M1768.2,-299.9C1647.13,-276.32 1424.96,-233.04 1321.5,-212.89"/>
<polygon fill="#63b8ff" stroke="#63b8ff" points="1767.27,-303.28 1777.75,-301.76 1768.6,-296.41 1767.27,-303.28"/>
</a>
</g>
</g>
<!-- Node8 -->
<g id="Node000008" class="node">
<title>Node8</title>
<g id="a_Node000008"><a xlink:href="classQtSmartSearchBox.html#a59783b72e94247f668ef19ffd708de1e" target="_top" xlink:title=" ">
<polygon fill="white" stroke="#666666" points="1743.5,-388.78 1576.75,-388.78 1576.75,-355.28 1743.5,-355.28 1743.5,-388.78"/>
<text text-anchor="start" x="1584.75" y="-375.28" font-family="Helvetica,sans-Serif" font-size="10.00">QtSmartSearchBox::onElement</text>
<text text-anchor="middle" x="1660.12" y="-362.53" font-family="Helvetica,sans-Serif" font-size="10.00">Selected</text>
</a>
</g>
</g>
<!-- Node1&#45;&gt;Node8 -->
<g id="edge10_Node000001_Node000008" class="edge">
<title>Node1&#45;&gt;Node8</title>
<g id="a_edge10_Node000001_Node000008"><a xlink:title=" ">
<path fill="none" stroke="#63b8ff" d="M1781.91,-336.4C1761.47,-342.43 1739.3,-348.97 1719.6,-354.78"/>
<polygon fill="#63b8ff" stroke="#63b8ff" points="1782.69,-339.82 1791.29,-333.64 1780.71,-333.11 1782.69,-339.82"/>
</a>
</g>
</g>
<!-- Node9 -->
<g id="Node000009" class="node">
<title>Node9</title>
<g id="a_Node000009"><a xlink:href="classQtSmartSearchBox.html#a8cb7515c5efa6313804fb113ffb8d244" target="_top" xlink:title=" ">
<polygon fill="white" stroke="#666666" points="1540.75,-610.78 1392.75,-610.78 1392.75,-577.28 1540.75,-577.28 1540.75,-610.78"/>
<text text-anchor="start" x="1400.75" y="-597.28" font-family="Helvetica,sans-Serif" font-size="10.00">QtSmartSearchBox::update</text>
<text text-anchor="middle" x="1466.75" y="-584.53" font-family="Helvetica,sans-Serif" font-size="10.00">Elements</text>
</a>
</g>
</g>
<!-- Node1&#45;&gt;Node9 -->
<g id="edge63_Node000001_Node000009" class="edge">
<title>Node1&#45;&gt;Node9</title>
<g id="a_edge63_Node000001_Node000009"><a xlink:title=" ">
<path fill="none" stroke="#63b8ff" d="M1845.11,-344.15C1833.86,-390.57 1804.78,-482.88 1743.5,-531.03 1685.77,-576.38 1601.42,-590.25 1541.24,-593.94"/>
<polygon fill="#63b8ff" stroke="#63b8ff" points="1848.47,-345.13 1847.31,-334.6 1841.65,-343.56 1848.47,-345.13"/>
</a>
</g>
</g>
<!-- Node14 -->
<g id="Node000014" class="node">
<title>Node14</title>
<g id="a_Node000014"><a xlink:href="classQtSmartSearchBox.html#a7b6419b94703d2c5d89ccff746981868" target="_top" xlink:title=" ">
<polygon fill="white" stroke="#666666" points="897.25,-199.78 753.75,-199.78 753.75,-166.28 897.25,-166.28 897.25,-199.78"/>
<text text-anchor="start" x="761.75" y="-186.28" font-family="Helvetica,sans-Serif" font-size="10.00">QtSmartSearchBox::resize</text>
<text text-anchor="middle" x="825.5" y="-173.53" font-family="Helvetica,sans-Serif" font-size="10.00">Event</text>
</a>
</g>
</g>
<!-- Node1&#45;&gt;Node14 -->
<g id="edge62_Node000001_Node000014" class="edge">
<title>Node1&#45;&gt;Node14</title>
<g id="a_edge62_Node000001_Node000014"><a xlink:title=" ">
<path fill="none" stroke="#63b8ff" d="M1844.82,-287.91C1833.26,-242.36 1803.89,-152.92 1743.5,-107.03 1643.86,-31.31 1592.9,-50.03 1467.75,-50.03 1467.75,-50.03 1467.75,-50.03 1263.75,-50.03 1196.9,-50.03 1017.87,-25.48 963.25,-64.03 928.72,-88.39 958.44,-123.52 927.25,-152.03 918.81,-159.74 908.48,-165.54 897.7,-169.89"/>
<polygon fill="#63b8ff" stroke="#63b8ff" points="1841.39,-288.64 1847.14,-297.54 1848.2,-287 1841.39,-288.64"/>
</a>
</g>
</g>
<!-- Node26 -->
<g id="Node000026" class="node">
<title>Node26</title>
<g id="a_Node000026"><a xlink:href="classQtSmartSearchBox.html#ad9767d6694a5048a3a916016c58088db" target="_top" xlink:title=" ">
<polygon fill="white" stroke="#666666" points="1123.25,-828.78 976.75,-828.78 976.75,-795.28 1123.25,-795.28 1123.25,-828.78"/>
<text text-anchor="start" x="984.75" y="-815.28" font-family="Helvetica,sans-Serif" font-size="10.00">QtSmartSearchBox::onText</text>
<text text-anchor="middle" x="1050" y="-802.53" font-family="Helvetica,sans-Serif" font-size="10.00">Edited</text>
</a>
</g>
</g>
<!-- Node1&#45;&gt;Node26 -->
<g id="edge61_Node000001_Node000026" class="edge">
<title>Node1&#45;&gt;Node26</title>
<g id="a_edge61_Node000001_Node000026"><a xlink:title=" ">
<path fill="none" stroke="#63b8ff" d="M1845.91,-344.17C1835.31,-395.62 1806.41,-505.85 1743.5,-574.03 1576.15,-755.41 1264.4,-798.56 1123.48,-808.83"/>
<polygon fill="#63b8ff" stroke="#63b8ff" points="1849.33,-344.95 1847.83,-334.46 1842.46,-343.59 1849.33,-344.95"/>
</a>
</g>
</g>
<!-- Node6&#45;&gt;Node3 -->
<g id="edge6_Node000006_Node000003" class="edge">
<title>Node6&#45;&gt;Node3</title>
<g id="a_edge6_Node000006_Node000003"><a xlink:title=" ">
<path fill="none" stroke="#63b8ff" d="M1197.49,-215.23C1135.93,-228.33 1042.15,-250.41 963.25,-278.03 926.96,-290.73 887.09,-309.38 859.81,-322.9"/>
<polygon fill="#63b8ff" stroke="#63b8ff" points="1198.06,-218.69 1207.12,-213.2 1196.61,-211.84 1198.06,-218.69"/>
</a>
</g>
</g>
<!-- Node7 -->
<g id="Node000007" class="node">
<title>Node7</title>
<g id="a_Node000007"><a xlink:href="classQtSmartSearchBox.html#a0717fa8ffc9b4280cd62a18060927a58" target="_top" xlink:title=" ">
<polygon fill="white" stroke="#666666" points="1136.75,-136.4 963.25,-136.4 963.25,-115.65 1136.75,-115.65 1136.75,-136.4"/>
<text text-anchor="middle" x="1050" y="-122.9" font-family="Helvetica,sans-Serif" font-size="10.00">QtSmartSearchBox::moveCursor</text>
</a>
</g>
</g>
<!-- Node6&#45;&gt;Node7 -->
<g id="edge7_Node000006_Node000007" class="edge">
<title>Node6&#45;&gt;Node7</title>
<g id="a_edge7_Node000006_Node000007"><a xlink:title=" ">
<path fill="none" stroke="#63b8ff" d="M1229.19,-186.61C1203.88,-175.63 1168.55,-160.95 1136.75,-150.03 1122.71,-145.21 1107.15,-140.63 1093.17,-136.79"/>
<polygon fill="#63b8ff" stroke="#63b8ff" points="1227.77,-189.81 1238.33,-190.61 1230.57,-183.39 1227.77,-189.81"/>
</a>
</g>
</g>
<!-- Node7&#45;&gt;Node3 -->
<g id="edge8_Node000007_Node000003" class="edge">
<title>Node7&#45;&gt;Node3</title>
<g id="a_edge8_Node000007_Node000003"><a xlink:title=" ">
<path fill="none" stroke="#63b8ff" d="M1019.02,-142.51C1001.06,-153.55 978.78,-169.44 963.25,-188.03 939.54,-216.4 950.58,-234.34 927.25,-263.03 907.25,-287.62 877.87,-308.91 855.99,-322.83"/>
<polygon fill="#63b8ff" stroke="#63b8ff" points="1020.63,-145.63 1027.44,-137.52 1017.06,-139.61 1020.63,-145.63"/>
</a>
</g>
</g>
<!-- Node7&#45;&gt;Node5 -->
<g id="edge9_Node000007_Node000005" class="edge">
<title>Node7&#45;&gt;Node5</title>
<g id="a_edge9_Node000007_Node000005"><a xlink:title=" ">
<path fill="none" stroke="#63b8ff" d="M951.71,-126.03C940.83,-126.03 929.76,-126.03 918.93,-126.03"/>
<polygon fill="#63b8ff" stroke="#63b8ff" points="951.46,-129.53 961.46,-126.03 951.46,-122.53 951.46,-129.53"/>
</a>
</g>
</g>
<!-- Node8&#45;&gt;Node9 -->
<g id="edge11_Node000008_Node000009" class="edge">
<title>Node8&#45;&gt;Node9</title>
<g id="a_edge11_Node000008_Node000009"><a xlink:title=" ">
<path fill="none" stroke="#63b8ff" d="M1637.13,-397.54C1597.69,-443.3 1515.94,-538.12 1482.5,-576.92"/>
<polygon fill="#63b8ff" stroke="#63b8ff" points="1639.56,-400.09 1643.44,-390.23 1634.26,-395.51 1639.56,-400.09"/>
</a>
</g>
</g>
<!-- Node10 -->
<g id="Node000010" class="node">
<title>Node10</title>
<g id="a_Node000010"><a xlink:href="classQtSmartSearchBox.html#ad1d16982306c1d9bf00c067fb8d90e00" target="_top" xlink:title=" ">
<polygon fill="white" stroke="#666666" points="1345.88,-578.78 1183.62,-578.78 1183.62,-545.28 1345.88,-545.28 1345.88,-578.78"/>
<text text-anchor="start" x="1191.62" y="-565.28" font-family="Helvetica,sans-Serif" font-size="10.00">QtSmartSearchBox::addMatch</text>
<text text-anchor="middle" x="1264.75" y="-552.53" font-family="Helvetica,sans-Serif" font-size="10.00">AndUpdate</text>
</a>
</g>
</g>
<!-- Node9&#45;&gt;Node10 -->
<g id="edge12_Node000009_Node000010" class="edge">
<title>Node9&#45;&gt;Node10</title>
<g id="a_edge12_Node000009_Node000010"><a xlink:title=" ">
<path fill="none" stroke="#63b8ff" d="M1381.35,-580.52C1369.69,-578.66 1357.74,-576.75 1346.16,-574.89"/>
<polygon fill="#63b8ff" stroke="#63b8ff" points="1380.49,-583.93 1390.92,-582.05 1381.6,-577.02 1380.49,-583.93"/>
</a>
</g>
</g>
<!-- Node20 -->
<g id="Node000020" class="node">
<title>Node20</title>
<g id="a_Node000020"><a xlink:href="classQtSmartSearchBox.html#aee74b24a835e4a0739b61109aef533d9" target="_top" xlink:title=" ">
<polygon fill="white" stroke="#666666" points="1134.88,-572.4 965.12,-572.4 965.12,-551.65 1134.88,-551.65 1134.88,-572.4"/>
<text text-anchor="middle" x="1050" y="-558.9" font-family="Helvetica,sans-Serif" font-size="10.00">QtSmartSearchBox::startSearch</text>
</a>
</g>
</g>
<!-- Node9&#45;&gt;Node20 -->
<g id="edge60_Node000009_Node000020" class="edge">
<title>Node9&#45;&gt;Node20</title>
<g id="a_edge60_Node000009_Node000020"><a xlink:title=" ">
<path fill="none" stroke="#63b8ff" d="M1380.9,-596.53C1322.24,-597.23 1242.52,-596.12 1172.75,-588.03 1145.59,-584.88 1115.54,-578.49 1092.1,-572.84"/>
<polygon fill="#63b8ff" stroke="#63b8ff" points="1380.88,-600.03 1390.83,-596.39 1380.78,-593.03 1380.88,-600.03"/>
</a>
</g>
</g>
<!-- Node22 -->
<g id="Node000022" class="node">
<title>Node22</title>
<g id="a_Node000022"><a xlink:href="classQtSmartSearchBox.html#a15d1d34aa93c4ceba411322eba65af92" target="_top" xlink:title=" ">
<polygon fill="white" stroke="#666666" points="1337.25,-724.78 1192.25,-724.78 1192.25,-691.28 1337.25,-691.28 1337.25,-724.78"/>
<text text-anchor="start" x="1200.25" y="-711.28" font-family="Helvetica,sans-Serif" font-size="10.00">QtSmartSearchBox::delete</text>
<text text-anchor="middle" x="1264.75" y="-698.53" font-family="Helvetica,sans-Serif" font-size="10.00">SelectedElements</text>
</a>
</g>
</g>
<!-- Node9&#45;&gt;Node22 -->
<g id="edge32_Node000009_Node000022" class="edge">
<title>Node9&#45;&gt;Node22</title>
<g id="a_edge32_Node000009_Node000022"><a xlink:title=" ">
<path fill="none" stroke="#63b8ff" d="M1439.41,-618.46C1418.37,-636.92 1387.41,-661.77 1356.75,-678.03 1347.64,-682.86 1337.6,-687.11 1327.62,-690.78"/>
<polygon fill="#63b8ff" stroke="#63b8ff" points="1441.53,-621.26 1446.67,-611.99 1436.88,-616.04 1441.53,-621.26"/>
</a>
</g>
</g>
<!-- Node9&#45;&gt;Node26 -->
<g id="edge50_Node000009_Node000026" class="edge">
<title>Node9&#45;&gt;Node26</title>
<g id="a_edge50_Node000009_Node000026"><a xlink:title=" ">
<path fill="none" stroke="#63b8ff" d="M1451.88,-621.21C1434.18,-653.14 1400.52,-705.38 1356.75,-734.03 1337.18,-746.83 1207.7,-777.26 1123.63,-796.1"/>
<polygon fill="#63b8ff" stroke="#63b8ff" points="1454.89,-623.02 1456.55,-612.56 1448.72,-619.7 1454.89,-623.02"/>
</a>
</g>
</g>
<!-- Node28 -->
<g id="Node000028" class="node">
<title>Node28</title>
<g id="a_Node000028"><a xlink:href="classQtSmartSearchBox.html#aef172e88a1450af62b08d584c537314f" target="_top" xlink:title=" ">
<polygon fill="white" stroke="#666666" points="1351.5,-288.4 1178,-288.4 1178,-267.65 1351.5,-267.65 1351.5,-288.4"/>
<text text-anchor="middle" x="1264.75" y="-274.9" font-family="Helvetica,sans-Serif" font-size="10.00">QtSmartSearchBox::editElement</text>
</a>
</g>
</g>
<!-- Node9&#45;&gt;Node28 -->
<g id="edge40_Node000009_Node000028" class="edge">
<title>Node9&#45;&gt;Node28</title>
<g id="a_edge40_Node000009_Node000028"><a xlink:title=" ">
<path fill="none" stroke="#63b8ff" d="M1450.46,-567.16C1429.83,-531.21 1391.64,-465.62 1356.75,-411.03 1327.07,-364.58 1289.18,-310.86 1273.29,-288.56"/>
<polygon fill="#63b8ff" stroke="#63b8ff" points="1447.28,-568.65 1455.28,-575.59 1453.35,-565.18 1447.28,-568.65"/>
</a>
</g>
</g>
<!-- Node29 -->
<g id="Node000029" class="node">
<title>Node29</title>
<g id="a_Node000029"><a xlink:href="classQtSmartSearchBox.html#aa5867b91794590eece4a9a1707b2ec6b" target="_top" xlink:title=" ">
<polygon fill="white" stroke="#666666" points="1341.38,-453.78 1188.12,-453.78 1188.12,-420.28 1341.38,-420.28 1341.38,-453.78"/>
<text text-anchor="start" x="1196.12" y="-440.28" font-family="Helvetica,sans-Serif" font-size="10.00">QtSmartSearchBox::editText</text>
<text text-anchor="middle" x="1264.75" y="-427.53" font-family="Helvetica,sans-Serif" font-size="10.00">ToElement</text>
</a>
</g>
</g>
<!-- Node9&#45;&gt;Node29 -->
<g id="edge44_Node000009_Node000029" class="edge">
<title>Node9&#45;&gt;Node29</title>
<g id="a_edge44_Node000009_Node000029"><a xlink:title=" ">
<path fill="none" stroke="#63b8ff" d="M1435.01,-569.9C1394.21,-537.87 1323.18,-482.11 1287.51,-454.11"/>
<polygon fill="#63b8ff" stroke="#63b8ff" points="1432.75,-572.57 1442.78,-575.99 1437.07,-567.06 1432.75,-572.57"/>
</a>
</g>
</g>
<!-- Node30 -->
<g id="Node000030" class="node">
<title>Node30</title>
<g id="a_Node000030"><a xlink:href="classQtSmartSearchBox.html#a22091a7105aec2ebb0c74d3ab99ef6a6" target="_top" xlink:title=" ">
<polygon fill="white" stroke="#666666" points="1339.12,-668.78 1190.38,-668.78 1190.38,-635.28 1339.12,-635.28 1339.12,-668.78"/>
<text text-anchor="start" x="1198.38" y="-655.28" font-family="Helvetica,sans-Serif" font-size="10.00">QtSmartSearchBox::refresh</text>
<text text-anchor="middle" x="1264.75" y="-642.53" font-family="Helvetica,sans-Serif" font-size="10.00">Style</text>
</a>
</g>
</g>
<!-- Node9&#45;&gt;Node30 -->
<g id="edge51_Node000009_Node000030" class="edge">
<title>Node9&#45;&gt;Node30</title>
<g id="a_edge51_Node000009_Node000030"><a xlink:title=" ">
<path fill="none" stroke="#63b8ff" d="M1395.53,-614.39C1372.49,-621.07 1347.13,-628.43 1324.99,-634.85"/>
<polygon fill="#63b8ff" stroke="#63b8ff" points="1396.2,-617.84 1404.83,-611.69 1394.25,-611.12 1396.2,-617.84"/>
</a>
</g>
</g>
<!-- Node34 -->
<g id="Node000034" class="node">
<title>Node34</title>
<g id="a_Node000034"><a xlink:href="classQtSmartSearchBox.html#a90add4bec252a51b40cc5b883bc670f8" target="_top" xlink:title=" ">
<polygon fill="white" stroke="#666666" points="1350,-874.4 1179.5,-874.4 1179.5,-853.65 1350,-853.65 1350,-874.4"/>
<text text-anchor="middle" x="1264.75" y="-860.9" font-family="Helvetica,sans-Serif" font-size="10.00">QtSmartSearchBox::setMatches</text>
</a>
</g>
</g>
<!-- Node9&#45;&gt;Node34 -->
<g id="edge56_Node000009_Node000034" class="edge">
<title>Node9&#45;&gt;Node34</title>
<g id="a_edge56_Node000009_Node000034"><a xlink:title=" ">
<path fill="none" stroke="#63b8ff" d="M1451.95,-621C1432.86,-657.21 1396.25,-722.78 1356.75,-773.03 1331.76,-804.82 1296.62,-837.15 1278.17,-853.36"/>
<polygon fill="#63b8ff" stroke="#63b8ff" points="1454.85,-623.01 1456.38,-612.53 1448.65,-619.77 1454.85,-623.01"/>
</a>
</g>
</g>
<!-- Node10&#45;&gt;Node3 -->
<g id="edge22_Node000010_Node000003" class="edge">
<title>Node10&#45;&gt;Node3</title>
<g id="a_edge22_Node000010_Node000003"><a xlink:title=" ">
<path fill="none" stroke="#63b8ff" d="M1183.47,-541.67C1118.04,-521.78 1026.44,-486.05 963.25,-429.03 939.31,-407.42 952.88,-385.6 927.25,-366.03 920.5,-360.88 912.84,-356.74 904.82,-353.42"/>
<polygon fill="#63b8ff" stroke="#63b8ff" points="1182.12,-544.92 1192.7,-544.42 1184.11,-538.21 1182.12,-544.92"/>
</a>
</g>
</g>
<!-- Node11 -->
<g id="Node000011" class="node">
<title>Node11</title>
<g id="a_Node000011"><a xlink:href="classQtSmartSearchBox.html#a6474d870d5163a4279cd7b4e45af0439" target="_top" xlink:title=" ">
<polygon fill="white" stroke="#666666" points="1121,-402.4 979,-402.4 979,-381.65 1121,-381.65 1121,-402.4"/>
<text text-anchor="middle" x="1050" y="-388.9" font-family="Helvetica,sans-Serif" font-size="10.00">QtSmartSearchBox::event</text>
</a>
</g>
</g>
<!-- Node10&#45;&gt;Node11 -->
<g id="edge13_Node000010_Node000011" class="edge">
<title>Node10&#45;&gt;Node11</title>
<g id="a_edge13_Node000010_Node000011"><a xlink:title=" ">
<path fill="none" stroke="#63b8ff" d="M1233.37,-537.75C1186.44,-500.25 1098.19,-429.74 1064.52,-402.83"/>
<polygon fill="#63b8ff" stroke="#63b8ff" points="1231,-540.34 1241,-543.85 1235.37,-534.87 1231,-540.34"/>
</a>
</g>
</g>
<!-- Node15 -->
<g id="Node000015" class="node">
<title>Node15</title>
<g id="a_Node000015"><a xlink:href="classQtSmartSearchBox.html#a943d2015fd2e9508a9739e232d6043b9" target="_top" xlink:title=" ">
<polygon fill="white" stroke="#666666" points="927.25,-597.78 723.75,-597.78 723.75,-564.28 927.25,-564.28 927.25,-597.78"/>
<text text-anchor="start" x="731.75" y="-584.28" font-family="Helvetica,sans-Serif" font-size="10.00">QtSmartSearchBox::onAutocompletion</text>
<text text-anchor="middle" x="825.5" y="-571.53" font-family="Helvetica,sans-Serif" font-size="10.00">Activated</text>
</a>
</g>
</g>
<!-- Node10&#45;&gt;Node15 -->
<g id="edge23_Node000010_Node000015" class="edge">
<title>Node10&#45;&gt;Node15</title>
<g id="a_edge23_Node000010_Node000015"><a xlink:title=" ">
<path fill="none" stroke="#63b8ff" d="M1172.04,-577.4C1160.2,-578.9 1148.21,-580.18 1136.75,-581.03 1067.06,-586.21 988.31,-586.14 927.59,-584.81"/>
<polygon fill="#63b8ff" stroke="#63b8ff" points="1172.38,-580.88 1181.83,-576.1 1171.46,-573.94 1172.38,-580.88"/>
</a>
</g>
</g>
<!-- Node10&#45;&gt;Node20 -->
<g id="edge28_Node000010_Node000020" class="edge">
<title>Node10&#45;&gt;Node20</title>
<g id="a_edge28_Node000010_Node000020"><a xlink:title=" ">
<path fill="none" stroke="#63b8ff" d="M1172.12,-562.03C1159.82,-562.03 1147.25,-562.03 1135.09,-562.03"/>
<polygon fill="#63b8ff" stroke="#63b8ff" points="1171.8,-565.53 1181.8,-562.03 1171.8,-558.53 1171.8,-565.53"/>
</a>
</g>
</g>
<!-- Node11&#45;&gt;Node2 -->
<g id="edge15_Node000011_Node000002" class="edge">
<title>Node11&#45;&gt;Node2</title>
<g id="a_edge15_Node000011_Node000002"><a xlink:title=" ">
<path fill="none" stroke="#63b8ff" d="M1024.31,-374.83C981.47,-344.99 893.85,-283.95 851.08,-254.15"/>
<polygon fill="#63b8ff" stroke="#63b8ff" points="1022.26,-377.66 1032.46,-380.51 1026.26,-371.92 1022.26,-377.66"/>
</a>
</g>
</g>
<!-- Node11&#45;&gt;Node3 -->
<g id="edge17_Node000011_Node000003" class="edge">
<title>Node11&#45;&gt;Node3</title>
<g id="a_edge17_Node000011_Node000003"><a xlink:title=" ">
<path fill="none" stroke="#63b8ff" d="M991.46,-378.58C963.55,-372.06 929.71,-364.15 899.96,-357.2"/>
<polygon fill="#63b8ff" stroke="#63b8ff" points="990.62,-381.98 1001.15,-380.85 992.21,-375.16 990.62,-381.98"/>
</a>
</g>
</g>
<!-- Node11&#45;&gt;Node4 -->
<g id="edge18_Node000011_Node000004" class="edge">
<title>Node11&#45;&gt;Node4</title>
<g id="a_edge18_Node000011_Node000004"><a xlink:title=" ">
<path fill="none" stroke="#63b8ff" d="M1011.14,-407.3C995.64,-414.37 977.93,-423.53 963.25,-434.03 944.84,-447.18 946.9,-458.8 927.25,-470.03 921.45,-473.34 915.22,-476.24 908.8,-478.78"/>
<polygon fill="#63b8ff" stroke="#63b8ff" points="1012.33,-410.6 1020.07,-403.36 1009.5,-404.2 1012.33,-410.6"/>
</a>
</g>
</g>
<!-- Node11&#45;&gt;Node5 -->
<g id="edge20_Node000011_Node000005" class="edge">
<title>Node11&#45;&gt;Node5</title>
<g id="a_edge20_Node000011_Node000005"><a xlink:title=" ">
<path fill="none" stroke="#63b8ff" d="M1043.81,-370.19C1031.68,-323.87 997.04,-215.29 927.25,-157.03 920.65,-151.52 913.07,-146.98 905.11,-143.25"/>
<polygon fill="#63b8ff" stroke="#63b8ff" points="1040.4,-370.95 1046.22,-379.8 1047.19,-369.25 1040.4,-370.95"/>
</a>
</g>
</g>
<!-- Node11&#45;&gt;Node11 -->
<g id="edge14_Node000011_Node000011" class="edge">
<title>Node11&#45;&gt;Node11</title>
<g id="a_edge14_Node000011_Node000011"><a xlink:title=" ">
<path fill="none" stroke="#63b8ff" d="M1088.2,-413.56C1083.49,-417.57 1070.76,-420.4 1050,-420.4 1013.09,-420.4 1001.56,-411.46 1015.4,-402.8"/>
<polygon fill="#63b8ff" stroke="#63b8ff" points="1091.57,-412.61 1085.08,-404.24 1084.93,-414.83 1091.57,-412.61"/>
</a>
</g>
</g>
<!-- Node12 -->
<g id="Node000012" class="node">
<title>Node12</title>
<g id="a_Node000012"><a xlink:href="classQtSmartSearchBox.html#a19df91f9da6445f3474b9bb0f979ad27" target="_top" xlink:title=" ">
<polygon fill="white" stroke="#666666" points="904.38,-460.78 746.62,-460.78 746.62,-427.28 904.38,-427.28 904.38,-460.78"/>
<text text-anchor="start" x="754.62" y="-447.28" font-family="Helvetica,sans-Serif" font-size="10.00">QtSmartSearchBox::focusOut</text>
<text text-anchor="middle" x="825.5" y="-434.53" font-family="Helvetica,sans-Serif" font-size="10.00">Event</text>
</a>
</g>
</g>
<!-- Node11&#45;&gt;Node12 -->
<g id="edge16_Node000011_Node000012" class="edge">
<title>Node11&#45;&gt;Node12</title>
<g id="a_edge16_Node000011_Node000012"><a xlink:title=" ">
<path fill="none" stroke="#63b8ff" d="M991.46,-405.48C963.55,-412 929.71,-419.91 899.96,-426.86"/>
<polygon fill="#63b8ff" stroke="#63b8ff" points="992.21,-408.89 1001.15,-403.21 990.62,-402.08 992.21,-408.89"/>
</a>
</g>
</g>
<!-- Node13 -->
<g id="Node000013" class="node">
<title>Node13</title>
<g id="a_Node000013"><a xlink:href="classQtSmartSearchBox.html#ac2bae6622754927e3013bc0b189dae71" target="_top" xlink:title=" ">
<polygon fill="white" stroke="#666666" points="912.25,-408.78 738.75,-408.78 738.75,-375.28 912.25,-375.28 912.25,-408.78"/>
<text text-anchor="start" x="746.75" y="-395.28" font-family="Helvetica,sans-Serif" font-size="10.00">QtSmartSearchBox::mousePress</text>
<text text-anchor="middle" x="825.5" y="-382.53" font-family="Helvetica,sans-Serif" font-size="10.00">Event</text>
</a>
</g>
</g>
<!-- Node11&#45;&gt;Node13 -->
<g id="edge19_Node000011_Node000013" class="edge">
<title>Node11&#45;&gt;Node13</title>
<g id="a_edge19_Node000011_Node000013"><a xlink:title=" ">
<path fill="none" stroke="#63b8ff" d="M967.33,-392.03C949.46,-392.03 930.48,-392.03 912.44,-392.03"/>
<polygon fill="#63b8ff" stroke="#63b8ff" points="967.09,-395.53 977.09,-392.03 967.09,-388.53 967.09,-395.53"/>
</a>
</g>
</g>
<!-- Node11&#45;&gt;Node14 -->
<g id="edge21_Node000011_Node000014" class="edge">
<title>Node11&#45;&gt;Node14</title>
<g id="a_edge21_Node000011_Node000014"><a xlink:title=" ">
<path fill="none" stroke="#63b8ff" d="M1040.84,-371.26C1024.9,-333.45 985.98,-253.39 927.25,-211.03 918.42,-204.66 908.19,-199.73 897.71,-195.93"/>
<polygon fill="#63b8ff" stroke="#63b8ff" points="1037.45,-372.22 1044.47,-380.15 1043.93,-369.57 1037.45,-372.22"/>
</a>
</g>
</g>
<!-- Node16 -->
<g id="Node000016" class="node">
<title>Node16</title>
<g id="a_Node000016"><a xlink:href="classQtSmartSearchBox.html#a73a76a12933eb79d8c47b1e0ced69cc7" target="_top" xlink:title=" ">
<polygon fill="white" stroke="#666666" points="687.75,-591.4 464,-591.4 464,-570.65 687.75,-570.65 687.75,-591.4"/>
<text text-anchor="middle" x="575.88" y="-577.9" font-family="Helvetica,sans-Serif" font-size="10.00">QtSmartSearchBox::setAutocompletionList</text>
</a>
</g>
</g>
<!-- Node15&#45;&gt;Node16 -->
<g id="edge24_Node000015_Node000016" class="edge">
<title>Node15&#45;&gt;Node16</title>
<g id="a_edge24_Node000015_Node000016"><a xlink:title=" ">
<path fill="none" stroke="#63b8ff" d="M712.17,-581.03C704.17,-581.03 696.11,-581.03 688.12,-581.03"/>
<polygon fill="#63b8ff" stroke="#63b8ff" points="711.91,-584.53 721.91,-581.03 711.91,-577.53 711.91,-584.53"/>
</a>
</g>
</g>
<!-- Node17 -->
<g id="Node000017" class="node">
<title>Node17</title>
<g id="a_Node000017"><a xlink:href="classQtSearchBar.html#a36e1e739ef34ff27e11a6b61bca5c1bb" target="_top" xlink:title=" ">
<polygon fill="white" stroke="#666666" points="428,-614.4 235.75,-614.4 235.75,-593.65 428,-593.65 428,-614.4"/>
<text text-anchor="middle" x="331.88" y="-600.9" font-family="Helvetica,sans-Serif" font-size="10.00">QtSearchBar::setAutocompletionList</text>
</a>
</g>
</g>
<!-- Node16&#45;&gt;Node17 -->
<g id="edge25_Node000016_Node000017" class="edge">
<title>Node16&#45;&gt;Node17</title>
<g id="a_edge25_Node000016_Node000017"><a xlink:title=" ">
<path fill="none" stroke="#63b8ff" d="M452.42,-592.67C444.38,-593.43 436.34,-594.19 428.45,-594.94"/>
<polygon fill="#63b8ff" stroke="#63b8ff" points="452.66,-596.16 462.28,-591.73 452,-589.19 452.66,-596.16"/>
</a>
</g>
</g>
<!-- Node19 -->
<g id="Node000019" class="node">
<title>Node19</title>
<g id="a_Node000019"><a xlink:href="classQtCustomTrailView.html#a15b70d194b219b3fd549546c520986f0" target="_top" xlink:title=" ">
<polygon fill="white" stroke="#666666" points="393.88,-575.78 269.88,-575.78 269.88,-542.28 393.88,-542.28 393.88,-575.78"/>
<text text-anchor="start" x="277.88" y="-562.28" font-family="Helvetica,sans-Serif" font-size="10.00">QtCustomTrailView::</text>
<text text-anchor="middle" x="331.88" y="-549.53" font-family="Helvetica,sans-Serif" font-size="10.00">showAutocompletions</text>
</a>
</g>
</g>
<!-- Node16&#45;&gt;Node19 -->
<g id="edge27_Node000016_Node000019" class="edge">
<title>Node16&#45;&gt;Node19</title>
<g id="a_edge27_Node000016_Node000019"><a xlink:title=" ">
<path fill="none" stroke="#63b8ff" d="M452.53,-569.91C432.23,-568.06 411.99,-566.22 394.08,-564.59"/>
<polygon fill="#63b8ff" stroke="#63b8ff" points="452.01,-573.37 462.28,-570.79 452.64,-566.4 452.01,-573.37"/>
</a>
</g>
</g>
<!-- Node18 -->
<g id="Node000018" class="node">
<title>Node18</title>
<g id="a_Node000018"><a xlink:href="classQtSearchView.html#adf60cc68e8ea212f571fcb16ca91d20a" target="_top" xlink:title=" ">
<polygon fill="white" stroke="#666666" points="199.75,-614.4 0,-614.4 0,-593.65 199.75,-593.65 199.75,-614.4"/>
<text text-anchor="middle" x="99.88" y="-600.9" font-family="Helvetica,sans-Serif" font-size="10.00">QtSearchView::setAutocompletionList</text>
</a>
</g>
</g>
<!-- Node17&#45;&gt;Node18 -->
<g id="edge26_Node000017_Node000018" class="edge">
<title>Node17&#45;&gt;Node18</title>
<g id="a_edge26_Node000017_Node000018"><a xlink:title=" ">
<path fill="none" stroke="#63b8ff" d="M223.84,-604.03C215.96,-604.03 208.03,-604.03 200.2,-604.03"/>
<polygon fill="#63b8ff" stroke="#63b8ff" points="223.82,-607.53 233.82,-604.03 223.82,-600.53 223.82,-607.53"/>
</a>
</g>
</g>
<!-- Node20&#45;&gt;Node3 -->
<g id="edge29_Node000020_Node000003" class="edge">
<title>Node20&#45;&gt;Node3</title>
<g id="a_edge29_Node000020_Node000003"><a xlink:title=" ">
<path fill="none" stroke="#63b8ff" d="M1016.35,-545.67C998.2,-535.01 976.65,-519.46 963.25,-500.03 928.25,-449.26 971.07,-409.42 927.25,-366.03 920.83,-359.67 913.08,-354.81 904.75,-351.09"/>
<polygon fill="#63b8ff" stroke="#63b8ff" points="1014.52,-548.66 1024.95,-550.49 1017.94,-542.55 1014.52,-548.66"/>
</a>
</g>
</g>
<!-- Node20&#45;&gt;Node15 -->
<g id="edge30_Node000020_Node000015" class="edge">
<title>Node20&#45;&gt;Node15</title>
<g id="a_edge30_Node000020_Node000015"><a xlink:title=" ">
<path fill="none" stroke="#63b8ff" d="M953.64,-570.17C945.01,-570.91 936.25,-571.66 927.58,-572.4"/>
<polygon fill="#63b8ff" stroke="#63b8ff" points="953.71,-573.68 963.37,-569.34 953.11,-566.7 953.71,-573.68"/>
</a>
</g>
</g>
<!-- Node21 -->
<g id="Node000021" class="node">
<title>Node21</title>
<g id="a_Node000021"><a xlink:href="classQtSearchBar.html#ab1586c7b89f8c4f4e3377e35b690aa09" target="_top" xlink:title=" ">
<polygon fill="white" stroke="#666666" points="897.25,-677.4 753.75,-677.4 753.75,-656.65 897.25,-656.65 897.25,-677.4"/>
<text text-anchor="middle" x="825.5" y="-663.9" font-family="Helvetica,sans-Serif" font-size="10.00">QtSearchBar::QtSearchBar</text>
</a>
</g>
</g>
<!-- Node20&#45;&gt;Node21 -->
<g id="edge31_Node000020_Node000021" class="edge">
<title>Node20&#45;&gt;Node21</title>
<g id="a_edge31_Node000020_Node000021"><a xlink:title=" ">
<path fill="none" stroke="#63b8ff" d="M1015.75,-577.72C970,-599.31 888.84,-637.61 849.35,-656.25"/>
<polygon fill="#63b8ff" stroke="#63b8ff" points="1017.11,-580.95 1024.66,-573.52 1014.12,-574.62 1017.11,-580.95"/>
</a>
</g>
</g>
<!-- Node22&#45;&gt;Node3 -->
<g id="edge36_Node000022_Node000003" class="edge">
<title>Node22&#45;&gt;Node3</title>
<g id="a_edge36_Node000022_Node000003"><a xlink:title=" ">
<path fill="none" stroke="#63b8ff" d="M1180.67,-708.89C1102.39,-707.81 992.84,-700.77 963.25,-671.03 866.98,-574.27 1017.03,-468.84 927.25,-366.03 921.07,-358.95 913.25,-353.68 904.7,-349.77"/>
<polygon fill="#63b8ff" stroke="#63b8ff" points="1180.42,-712.39 1190.46,-708.99 1180.5,-705.39 1180.42,-712.39"/>
</a>
</g>
</g>
<!-- Node23 -->
<g id="Node000023" class="node">
<title>Node23</title>
<g id="a_Node000023"><a xlink:href="classQtSmartSearchBox.html#a9af8830fdfa536a251ecc28fb17a124c" target="_top" xlink:title=" ">
<polygon fill="white" stroke="#666666" points="1134.88,-777.4 965.12,-777.4 965.12,-756.65 1134.88,-756.65 1134.88,-777.4"/>
<text text-anchor="middle" x="1050" y="-763.9" font-family="Helvetica,sans-Serif" font-size="10.00">QtSmartSearchBox::findFulltext</text>
</a>
</g>
</g>
<!-- Node22&#45;&gt;Node23 -->
<g id="edge33_Node000022_Node000023" class="edge">
<title>Node22&#45;&gt;Node23</title>
<g id="a_edge33_Node000022_Node000023"><a xlink:title=" ">
<path fill="none" stroke="#63b8ff" d="M1199.65,-728.65C1179.59,-734.85 1157.32,-741.48 1136.75,-747.03 1124.94,-750.21 1112.14,-753.36 1100.12,-756.18"/>
<polygon fill="#63b8ff" stroke="#63b8ff" points="1200.58,-732.03 1209.09,-725.71 1198.5,-725.34 1200.58,-732.03"/>
</a>
</g>
</g>
<!-- Node22&#45;&gt;Node26 -->
<g id="edge37_Node000022_Node000026" class="edge">
<title>Node22&#45;&gt;Node26</title>
<g id="a_edge37_Node000022_Node000026"><a xlink:title=" ">
<path fill="none" stroke="#63b8ff" d="M1199.17,-729.87C1189.93,-734.24 1180.83,-739.28 1172.75,-745.03 1152.99,-759.08 1157.14,-772.89 1136.75,-786.03 1131.52,-789.4 1125.83,-792.35 1119.95,-794.93"/>
<polygon fill="#63b8ff" stroke="#63b8ff" points="1200.52,-733.11 1208.24,-725.85 1197.68,-726.71 1200.52,-733.11"/>
</a>
</g>
</g>
<!-- Node24 -->
<g id="Node000024" class="node">
<title>Node24</title>
<g id="a_Node000024"><a xlink:href="classQtSearchBar.html#a1114294a367ab74c57a17987a01b35f3" target="_top" xlink:title=" ">
<polygon fill="white" stroke="#666666" points="894.62,-777.4 756.38,-777.4 756.38,-756.65 894.62,-756.65 894.62,-777.4"/>
<text text-anchor="middle" x="825.5" y="-763.9" font-family="Helvetica,sans-Serif" font-size="10.00">QtSearchBar::findFulltext</text>
</a>
</g>
</g>
<!-- Node23&#45;&gt;Node24 -->
<g id="edge34_Node000023_Node000024" class="edge">
<title>Node23&#45;&gt;Node24</title>
<g id="a_edge34_Node000023_Node000024"><a xlink:title=" ">
<path fill="none" stroke="#63b8ff" d="M953.38,-767.03C933.68,-767.03 913.31,-767.03 894.82,-767.03"/>
<polygon fill="#63b8ff" stroke="#63b8ff" points="953.37,-770.53 963.37,-767.03 953.37,-763.53 953.37,-770.53"/>
</a>
</g>
</g>
<!-- Node25 -->
<g id="Node000025" class="node">
<title>Node25</title>
<g id="a_Node000025"><a xlink:href="classQtSearchView.html#a8fd904c8e56a453be0a9d1d274781e63" target="_top" xlink:title=" ">
<polygon fill="white" stroke="#666666" points="648.75,-777.4 503,-777.4 503,-756.65 648.75,-756.65 648.75,-777.4"/>
<text text-anchor="middle" x="575.88" y="-763.9" font-family="Helvetica,sans-Serif" font-size="10.00">QtSearchView::findFulltext</text>
</a>
</g>
</g>
<!-- Node24&#45;&gt;Node25 -->
<g id="edge35_Node000024_Node000025" class="edge">
<title>Node24&#45;&gt;Node25</title>
<g id="a_edge35_Node000024_Node000025"><a xlink:title=" ">
<path fill="none" stroke="#63b8ff" d="M745.01,-767.03C714.12,-767.03 678.99,-767.03 648.86,-767.03"/>
<polygon fill="#63b8ff" stroke="#63b8ff" points="744.67,-770.53 754.67,-767.03 744.67,-763.53 744.67,-770.53"/>
</a>
</g>
</g>
<!-- Node26&#45;&gt;Node3 -->
<g id="edge38_Node000026_Node000003" class="edge">
<title>Node26&#45;&gt;Node3</title>
<g id="a_edge38_Node000026_Node000003"><a xlink:title=" ">
<path fill="none" stroke="#63b8ff" d="M967.75,-790.87C966.15,-789.36 964.65,-787.75 963.25,-786.03 904.28,-713.24 987.73,-437.56 927.25,-366.03 921.07,-358.72 913.13,-353.32 904.42,-349.35"/>
<polygon fill="#63b8ff" stroke="#63b8ff" points="965.2,-793.32 975.25,-796.65 969.47,-787.77 965.2,-793.32"/>
</a>
</g>
</g>
<!-- Node27 -->
<g id="Node000027" class="node">
<title>Node27</title>
<g id="a_Node000027"><a xlink:href="classQtSmartSearchBox.html#a99ffcb6d25c1d4c418540a516e9d201a" target="_top" xlink:title=" ">
<polygon fill="white" stroke="#666666" points="902.88,-828.78 748.12,-828.78 748.12,-795.28 902.88,-795.28 902.88,-828.78"/>
<text text-anchor="start" x="756.12" y="-815.28" font-family="Helvetica,sans-Serif" font-size="10.00">QtSmartSearchBox::QtSmart</text>
<text text-anchor="middle" x="825.5" y="-802.53" font-family="Helvetica,sans-Serif" font-size="10.00">SearchBox</text>
</a>
</g>
</g>
<!-- Node26&#45;&gt;Node27 -->
<g id="edge39_Node000026_Node000027" class="edge">
<title>Node26&#45;&gt;Node27</title>
<g id="a_edge39_Node000026_Node000027"><a xlink:title=" ">
<path fill="none" stroke="#63b8ff" d="M965,-812.03C944.7,-812.03 923.1,-812.03 903.16,-812.03"/>
<polygon fill="#63b8ff" stroke="#63b8ff" points="964.94,-815.53 974.94,-812.03 964.94,-808.53 964.94,-815.53"/>
</a>
</g>
</g>
<!-- Node28&#45;&gt;Node2 -->
<g id="edge41_Node000028_Node000002" class="edge">
<title>Node28&#45;&gt;Node2</title>
<g id="a_edge41_Node000028_Node000002"><a xlink:title=" ">
<path fill="none" stroke="#63b8ff" d="M1234.31,-262.12C1209.2,-249.51 1171.73,-232.91 1136.75,-226.03 1057.16,-210.37 963.92,-216.92 900.59,-224.98"/>
<polygon fill="#63b8ff" stroke="#63b8ff" points="1232.43,-265.09 1242.92,-266.55 1235.63,-258.86 1232.43,-265.09"/>
</a>
</g>
</g>
<!-- Node28&#45;&gt;Node3 -->
<g id="edge42_Node000028_Node000003" class="edge">
<title>Node28&#45;&gt;Node3</title>
<g id="a_edge42_Node000028_Node000003"><a xlink:title=" ">
<path fill="none" stroke="#63b8ff" d="M1166.5,-281.08C1107.37,-284.1 1030.54,-290.1 963.25,-302.03 935.1,-307.01 904.39,-315.28 879.21,-322.84"/>
<polygon fill="#63b8ff" stroke="#63b8ff" points="1166.38,-284.59 1176.2,-280.61 1166.04,-277.6 1166.38,-284.59"/>
</a>
</g>
</g>
<!-- Node28&#45;&gt;Node8 -->
<g id="edge43_Node000028_Node000008" class="edge">
<title>Node28&#45;&gt;Node8</title>
<g id="a_edge43_Node000028_Node000008"><a xlink:title=" ">
<path fill="none" stroke="#63b8ff" d="M1322.25,-291.53C1391.99,-308.19 1510.7,-336.56 1586.97,-354.79"/>
<polygon fill="#63b8ff" stroke="#63b8ff" points="1323.08,-288.13 1312.55,-289.21 1321.46,-294.94 1323.08,-288.13"/>
</a>
</g>
</g>
<!-- Node29&#45;&gt;Node2 -->
<g id="edge45_Node000029_Node000002" class="edge">
<title>Node29&#45;&gt;Node2</title>
<g id="a_edge45_Node000029_Node000002"><a xlink:title=" ">
<path fill="none" stroke="#63b8ff" d="M1237.36,-412.65C1212.85,-391.08 1174.54,-360.01 1136.75,-340.03 1060.49,-299.7 965.41,-270.95 900.75,-254.25"/>
<polygon fill="#63b8ff" stroke="#63b8ff" points="1234.82,-415.07 1244.61,-419.12 1239.48,-409.85 1234.82,-415.07"/>
</a>
</g>
</g>
<!-- Node29&#45;&gt;Node3 -->
<g id="edge46_Node000029_Node000003" class="edge">
<title>Node29&#45;&gt;Node3</title>
<g id="a_edge46_Node000029_Node000003"><a xlink:title=" ">
<path fill="none" stroke="#63b8ff" d="M1227.55,-414.35C1202.91,-400.04 1169.02,-382.53 1136.75,-373.03 1059.98,-350.42 968.48,-342.92 904.83,-340.61"/>
<polygon fill="#63b8ff" stroke="#63b8ff" points="1225.5,-417.2 1235.88,-419.28 1229.06,-411.17 1225.5,-417.2"/>
</a>
</g>
</g>
<!-- Node29&#45;&gt;Node4 -->
<g id="edge47_Node000029_Node000004" class="edge">
<title>Node29&#45;&gt;Node4</title>
<g id="a_edge47_Node000029_Node000004"><a xlink:title=" ">
<path fill="none" stroke="#63b8ff" d="M1177.04,-448.73C1100.45,-459.06 989.34,-474.05 912.85,-484.38"/>
<polygon fill="#63b8ff" stroke="#63b8ff" points="1177.14,-452.25 1186.59,-447.44 1176.21,-445.31 1177.14,-452.25"/>
</a>
</g>
</g>
<!-- Node29&#45;&gt;Node8 -->
<g id="edge48_Node000029_Node000008" class="edge">
<title>Node29&#45;&gt;Node8</title>
<g id="a_edge48_Node000029_Node000008"><a xlink:title=" ">
<path fill="none" stroke="#63b8ff" d="M1353.1,-422.59C1419.83,-411.57 1511.17,-396.48 1576.66,-385.65"/>
<polygon fill="#63b8ff" stroke="#63b8ff" points="1352.56,-419.14 1343.27,-424.22 1353.7,-426.04 1352.56,-419.14"/>
</a>
</g>
</g>
<!-- Node29&#45;&gt;Node20 -->
<g id="edge49_Node000029_Node000020" class="edge">
<title>Node29&#45;&gt;Node20</title>
<g id="a_edge49_Node000029_Node000020"><a xlink:title=" ">
<path fill="none" stroke="#63b8ff" d="M1224.97,-459.81C1178.9,-486.88 1103.97,-530.91 1069.46,-551.18"/>
<polygon fill="#63b8ff" stroke="#63b8ff" points="1226.46,-463 1233.31,-454.91 1222.91,-456.96 1226.46,-463"/>
</a>
</g>
</g>
<!-- Node31 -->
<g id="Node000031" class="node">
<title>Node31</title>
<g id="a_Node000031"><a xlink:href="classQtSearchBar.html#a63595b4c6ccd9a74c49d431701d66ac4" target="_top" xlink:title=" ">
<polygon fill="white" stroke="#666666" points="1121,-738.4 979,-738.4 979,-717.65 1121,-717.65 1121,-738.4"/>
<text text-anchor="middle" x="1050" y="-724.9" font-family="Helvetica,sans-Serif" font-size="10.00">QtSearchBar::refreshStyle</text>
</a>
</g>
</g>
<!-- Node30&#45;&gt;Node31 -->
<g id="edge52_Node000030_Node000031" class="edge">
<title>Node30&#45;&gt;Node31</title>
<g id="a_edge52_Node000030_Node000031"><a xlink:title=" ">
<path fill="none" stroke="#63b8ff" d="M1199.37,-672.87C1190.41,-675.88 1181.34,-678.99 1172.75,-682.03 1140.16,-693.55 1103.03,-707.73 1078.44,-717.28"/>
<polygon fill="#63b8ff" stroke="#63b8ff" points="1200.39,-676.22 1208.77,-669.73 1198.18,-669.58 1200.39,-676.22"/>
</a>
</g>
</g>
<!-- Node33 -->
<g id="Node000033" class="node">
<title>Node33</title>
<g id="a_Node000033"><a xlink:href="classQtCustomTrailView.html#a5aeec972b7d5847941c37085e20f04fe" target="_top" xlink:title=" ">
<polygon fill="white" stroke="#666666" points="1107.88,-661.78 992.12,-661.78 992.12,-628.28 1107.88,-628.28 1107.88,-661.78"/>
<text text-anchor="start" x="1000.12" y="-648.28" font-family="Helvetica,sans-Serif" font-size="10.00">QtCustomTrailView::</text>
<text text-anchor="middle" x="1050" y="-635.53" font-family="Helvetica,sans-Serif" font-size="10.00">refreshView</text>
</a>
</g>
</g>
<!-- Node30&#45;&gt;Node33 -->
<g id="edge55_Node000030_Node000033" class="edge">
<title>Node30&#45;&gt;Node33</title>
<g id="a_edge55_Node000030_Node000033"><a xlink:title=" ">
<path fill="none" stroke="#63b8ff" d="M1178.49,-649.22C1154.88,-648.45 1129.83,-647.62 1108.25,-646.91"/>
<polygon fill="#63b8ff" stroke="#63b8ff" points="1178.32,-652.72 1188.42,-649.55 1178.55,-645.72 1178.32,-652.72"/>
</a>
</g>
</g>
<!-- Node31&#45;&gt;Node21 -->
<g id="edge53_Node000031_Node000021" class="edge">
<title>Node31&#45;&gt;Node21</title>
<g id="a_edge53_Node000031_Node000021"><a xlink:title=" ">
<path fill="none" stroke="#63b8ff" d="M998.59,-714.21C958.43,-703.2 903.01,-688 866.03,-677.86"/>
<polygon fill="#63b8ff" stroke="#63b8ff" points="997.45,-717.52 1008.02,-716.79 999.3,-710.77 997.45,-717.52"/>
</a>
</g>
</g>
<!-- Node32 -->
<g id="Node000032" class="node">
<title>Node32</title>
<g id="a_Node000032"><a xlink:href="classQtSearchView.html#a0e6677c7ba553694bcf715925b35ab8d" target="_top" xlink:title=" ">
<polygon fill="white" stroke="#666666" points="899.88,-738.4 751.12,-738.4 751.12,-717.65 899.88,-717.65 899.88,-738.4"/>
<text text-anchor="middle" x="825.5" y="-724.9" font-family="Helvetica,sans-Serif" font-size="10.00">QtSearchView::refreshView</text>
</a>
</g>
</g>
<!-- Node31&#45;&gt;Node32 -->
<g id="edge54_Node000031_Node000032" class="edge">
<title>Node31&#45;&gt;Node32</title>
<g id="a_edge54_Node000031_Node000032"><a xlink:title=" ">
<path fill="none" stroke="#63b8ff" d="M967.3,-728.03C945.36,-728.03 921.76,-728.03 900.28,-728.03"/>
<polygon fill="#63b8ff" stroke="#63b8ff" points="967.09,-731.53 977.09,-728.03 967.09,-724.53 967.09,-731.53"/>
</a>
</g>
</g>
<!-- Node35 -->
<g id="Node000035" class="node">
<title>Node35</title>
<g id="a_Node000035"><a xlink:href="classQtCustomTrailView.html#acca81bf8d37a554e88e5d805eadecdd2" target="_top" xlink:title=" ">
<polygon fill="white" stroke="#666666" points="1107.88,-880.78 992.12,-880.78 992.12,-847.28 1107.88,-847.28 1107.88,-880.78"/>
<text text-anchor="start" x="1000.12" y="-867.28" font-family="Helvetica,sans-Serif" font-size="10.00">QtCustomTrailView::</text>
<text text-anchor="middle" x="1050" y="-854.53" font-family="Helvetica,sans-Serif" font-size="10.00">clearView</text>
</a>
</g>
</g>
<!-- Node34&#45;&gt;Node35 -->
<g id="edge57_Node000034_Node000035" class="edge">
<title>Node34&#45;&gt;Node35</title>
<g id="a_edge57_Node000034_Node000035"><a xlink:title=" ">
<path fill="none" stroke="#63b8ff" d="M1167.55,-864.03C1147.3,-864.03 1126.55,-864.03 1108.29,-864.03"/>
<polygon fill="#63b8ff" stroke="#63b8ff" points="1167.54,-867.53 1177.54,-864.03 1167.54,-860.53 1167.54,-867.53"/>
</a>
</g>
</g>
<!-- Node36 -->
<g id="Node000036" class="node">
<title>Node36</title>
<g id="a_Node000036"><a xlink:href="classQtSearchBar.html#ae70f093074a6a104eea1a7813aad668a" target="_top" xlink:title=" ">
<polygon fill="white" stroke="#666666" points="1119.5,-919.4 980.5,-919.4 980.5,-898.65 1119.5,-898.65 1119.5,-919.4"/>
<text text-anchor="middle" x="1050" y="-905.9" font-family="Helvetica,sans-Serif" font-size="10.00">QtSearchBar::setMatches</text>
</a>
</g>
</g>
<!-- Node34&#45;&gt;Node36 -->
<g id="edge58_Node000034_Node000036" class="edge">
<title>Node34&#45;&gt;Node36</title>
<g id="a_edge58_Node000034_Node000036"><a xlink:title=" ">
<path fill="none" stroke="#63b8ff" d="M1201.63,-877.17C1170.01,-883.85 1132.06,-891.88 1102.15,-898.21"/>
<polygon fill="#63b8ff" stroke="#63b8ff" points="1201.98,-880.67 1211.04,-875.18 1200.53,-873.82 1201.98,-880.67"/>
</a>
</g>
</g>
<!-- Node37 -->
<g id="Node000037" class="node">
<title>Node37</title>
<g id="a_Node000037"><a xlink:href="classQtSearchView.html#a3bec52d5bef11974fd993fa106dfd6d6" target="_top" xlink:title=" ">
<polygon fill="white" stroke="#666666" points="898.75,-919.4 752.25,-919.4 752.25,-898.65 898.75,-898.65 898.75,-919.4"/>
<text text-anchor="middle" x="825.5" y="-905.9" font-family="Helvetica,sans-Serif" font-size="10.00">QtSearchView::setMatches</text>
</a>
</g>
</g>
<!-- Node36&#45;&gt;Node37 -->
<g id="edge59_Node000036_Node000037" class="edge">
<title>Node36&#45;&gt;Node37</title>
<g id="a_edge59_Node000036_Node000037"><a xlink:title=" ">
<path fill="none" stroke="#63b8ff" d="M968.74,-909.03C945.93,-909.03 921.22,-909.03 898.9,-909.03"/>
<polygon fill="#63b8ff" stroke="#63b8ff" points="968.61,-912.53 978.61,-909.03 968.61,-905.53 968.61,-912.53"/>
</a>
</g>
</g>
</g>
</svg>
