<?xml version="1.0" encoding="UTF-8" standalone="no"?>
<!DOCTYPE svg PUBLIC "-//W3C//DTD SVG 1.1//EN"
 "http://www.w3.org/Graphics/SVG/1.1/DTD/svg11.dtd">
<!-- Generated by graphviz version 7.1.0 (0)
 -->
<!-- Title: CodeController::handleMessage Pages: 1 -->
<svg width="817pt" height="662pt"
 viewBox="0.00 0.00 817.00 661.50" xmlns="http://www.w3.org/2000/svg" xmlns:xlink="http://www.w3.org/1999/xlink">
<g id="graph0" class="graph" transform="scale(1 1) rotate(0) translate(4 657.5)">
<title>CodeController::handleMessage</title>
<!-- Node1 -->
<g id="node1" class="node">
<title>Node1</title>
<g id="a_node1"><a xlink:title=" ">
<polygon fill="#999999" stroke="#666666" points="172,-297 0,-297 0,-278 172,-278 172,-297"/>
<text text-anchor="middle" x="86" y="-285" font-family="Helvetica,sans-Serif" font-size="10.00">CodeController::handleMessage</text>
</a>
</g>
</g>
<!-- Node2 -->
<g id="node2" class="node">
<title>Node2</title>
<g id="a_node2"><a xlink:href="classCodeController.html#a79db1efd76132af117489dc631fac642" target="_top" xlink:title=" ">
<polygon fill="white" stroke="#666666" points="389,-574 208,-574 208,-555 389,-555 389,-574"/>
<text text-anchor="middle" x="298.5" y="-562" font-family="Helvetica,sans-Serif" font-size="10.00">CodeController::createReferences</text>
</a>
</g>
</g>
<!-- Node1&#45;&gt;Node2 -->
<g id="edge1" class="edge">
<title>Node1&#45;&gt;Node2</title>
<path fill="none" stroke="#63b8ff" d="M89.92,-297.48C100.46,-331.94 139.53,-447.61 208,-516.5 222.41,-531 242.12,-542.21 259.38,-550.14"/>
<polygon fill="#63b8ff" stroke="#63b8ff" points="257.79,-553.26 268.36,-554.05 260.58,-546.84 257.79,-553.26"/>
</g>
<!-- Node8 -->
<g id="node8" class="node">
<title>Node8</title>
<g id="a_node8"><a xlink:href="classFilePath.html#ae09c07f1ae9ac6f650a765cc11cc6494" target="_top" xlink:title=" ">
<polygon fill="white" stroke="#666666" points="344.5,-507 252.5,-507 252.5,-488 344.5,-488 344.5,-507"/>
<text text-anchor="middle" x="298.5" y="-495" font-family="Helvetica,sans-Serif" font-size="10.00">FilePath::empty</text>
</a>
</g>
</g>
<!-- Node1&#45;&gt;Node8 -->
<g id="edge7" class="edge">
<title>Node1&#45;&gt;Node8</title>
<path fill="none" stroke="#63b8ff" d="M90.47,-297.4C101.93,-328.54 141.6,-425.29 208,-473.5 217.87,-480.66 229.74,-485.69 241.56,-489.22"/>
<polygon fill="#63b8ff" stroke="#63b8ff" points="240.32,-492.51 250.88,-491.67 242.1,-485.74 240.32,-492.51"/>
</g>
<!-- Node9 -->
<g id="node9" class="node">
<title>Node9</title>
<g id="a_node9"><a xlink:href="classCodeController.html#a406f2b57ef19e6227d575a7f475afa68" target="_top" xlink:title=" ">
<polygon fill="white" stroke="#666666" points="380.5,-345.5 216.5,-345.5 216.5,-315.5 380.5,-315.5 380.5,-345.5"/>
<text text-anchor="start" x="224.5" y="-333.5" font-family="Helvetica,sans-Serif" font-size="10.00">CodeController::expandVisible</text>
<text text-anchor="middle" x="298.5" y="-322.5" font-family="Helvetica,sans-Serif" font-size="10.00">Files</text>
</a>
</g>
</g>
<!-- Node1&#45;&gt;Node9 -->
<g id="edge8" class="edge">
<title>Node1&#45;&gt;Node9</title>
<path fill="none" stroke="#63b8ff" d="M135.82,-297.47C158.04,-302.01 185.02,-307.52 210.52,-312.73"/>
<polygon fill="#63b8ff" stroke="#63b8ff" points="209.75,-316.15 220.24,-314.72 211.15,-309.29 209.75,-316.15"/>
</g>
<!-- Node10 -->
<g id="node10" class="node">
<title>Node10</title>
<g id="a_node10"><a xlink:href="classCodeController.html#affaa2a65b109b9f7f6a9ff097069a636" target="_top" xlink:title=" ">
<polygon fill="white" stroke="#666666" points="585,-389 450,-389 450,-370 585,-370 585,-389"/>
<text text-anchor="middle" x="517.5" y="-377" font-family="Helvetica,sans-Serif" font-size="10.00">CodeController::getView</text>
</a>
</g>
</g>
<!-- Node1&#45;&gt;Node10 -->
<g id="edge20" class="edge">
<title>Node1&#45;&gt;Node10</title>
<path fill="none" stroke="#63b8ff" d="M100.29,-297.39C121.7,-312.7 165.7,-341.73 208,-354.5 283.91,-377.42 374.81,-382.23 438.2,-382.18"/>
<polygon fill="#63b8ff" stroke="#63b8ff" points="438.21,-385.68 448.19,-382.13 438.17,-378.68 438.21,-385.68"/>
</g>
<!-- Node13 -->
<g id="node13" class="node">
<title>Node13</title>
<g id="a_node13"><a xlink:href="classCodeController.html#ad963e44f718cba0b88285bdc5ee96228" target="_top" xlink:title=" ">
<polygon fill="white" stroke="#666666" points="380.5,-259.5 216.5,-259.5 216.5,-229.5 380.5,-229.5 380.5,-259.5"/>
<text text-anchor="start" x="224.5" y="-247.5" font-family="Helvetica,sans-Serif" font-size="10.00">CodeController::firstReference</text>
<text text-anchor="middle" x="298.5" y="-236.5" font-family="Helvetica,sans-Serif" font-size="10.00">ScrollParams</text>
</a>
</g>
</g>
<!-- Node1&#45;&gt;Node13 -->
<g id="edge13" class="edge">
<title>Node1&#45;&gt;Node13</title>
<path fill="none" stroke="#63b8ff" d="M135.82,-277.53C158.04,-272.99 185.02,-267.48 210.52,-262.27"/>
<polygon fill="#63b8ff" stroke="#63b8ff" points="211.15,-265.71 220.24,-260.28 209.75,-258.85 211.15,-265.71"/>
</g>
<!-- Node16 -->
<g id="node16" class="node">
<title>Node16</title>
<g id="a_node16"><a xlink:href="classStorageAccess.html#ac662e9f143765a325f1b9a086e8abd32" target="_top" xlink:title=" ">
<polygon fill="white" stroke="#666666" points="367.5,-211.5 229.5,-211.5 229.5,-181.5 367.5,-181.5 367.5,-211.5"/>
<text text-anchor="start" x="237.5" y="-199.5" font-family="Helvetica,sans-Serif" font-size="10.00">StorageAccess::getErrors</text>
<text text-anchor="middle" x="298.5" y="-188.5" font-family="Helvetica,sans-Serif" font-size="10.00">ForFileLimited</text>
</a>
</g>
</g>
<!-- Node1&#45;&gt;Node16 -->
<g id="edge16" class="edge">
<title>Node1&#45;&gt;Node16</title>
<path fill="none" stroke="#63b8ff" d="M102.06,-277.57C124.38,-263.23 167.92,-236.69 208,-220.5 212.36,-218.74 216.9,-217.07 221.51,-215.48"/>
<polygon fill="#63b8ff" stroke="#63b8ff" points="222.48,-218.85 230.91,-212.43 220.32,-212.19 222.48,-218.85"/>
</g>
<!-- Node17 -->
<g id="node17" class="node">
<title>Node17</title>
<g id="a_node17"><a xlink:href="classStorageAccess.html#a25d17db8756a4a1ead16fc3c9ae945a9" target="_top" xlink:title=" ">
<polygon fill="white" stroke="#666666" points="367.5,-163.5 229.5,-163.5 229.5,-133.5 367.5,-133.5 367.5,-163.5"/>
<text text-anchor="start" x="237.5" y="-151.5" font-family="Helvetica,sans-Serif" font-size="10.00">StorageAccess::getErrors</text>
<text text-anchor="middle" x="298.5" y="-140.5" font-family="Helvetica,sans-Serif" font-size="10.00">Limited</text>
</a>
</g>
</g>
<!-- Node1&#45;&gt;Node17 -->
<g id="edge17" class="edge">
<title>Node1&#45;&gt;Node17</title>
<path fill="none" stroke="#63b8ff" d="M94.32,-277.8C111.57,-255.63 157.19,-200.99 208,-172.5 211.4,-170.59 214.96,-168.83 218.62,-167.21"/>
<polygon fill="#63b8ff" stroke="#63b8ff" points="219.76,-170.52 227.73,-163.54 217.14,-164.03 219.76,-170.52"/>
</g>
<!-- Node18 -->
<g id="node18" class="node">
<title>Node18</title>
<g id="a_node18"><a xlink:href="classStorageAccess.html#a5a6d2d5aad250b5bb0fb6a073ca5b479" target="_top" xlink:title=" ">
<polygon fill="white" stroke="#666666" points="381.5,-115.5 215.5,-115.5 215.5,-85.5 381.5,-85.5 381.5,-115.5"/>
<text text-anchor="start" x="223.5" y="-103.5" font-family="Helvetica,sans-Serif" font-size="10.00">StorageAccess::getErrorSource</text>
<text text-anchor="middle" x="298.5" y="-92.5" font-family="Helvetica,sans-Serif" font-size="10.00">Locations</text>
</a>
</g>
</g>
<!-- Node1&#45;&gt;Node18 -->
<g id="edge18" class="edge">
<title>Node1&#45;&gt;Node18</title>
<path fill="none" stroke="#63b8ff" d="M91.39,-277.63C104.58,-249.14 146.8,-166.11 208,-124.5 209.8,-123.28 211.65,-122.12 213.56,-121.02"/>
<polygon fill="#63b8ff" stroke="#63b8ff" points="214.75,-124.34 222.07,-116.68 211.57,-118.1 214.75,-124.34"/>
</g>
<!-- Node19 -->
<g id="node19" class="node">
<title>Node19</title>
<g id="a_node19"><a xlink:href="classCodeController.html#a18ad66c91880a9ff098cd4798de47129" target="_top" xlink:title=" ">
<polygon fill="white" stroke="#666666" points="365,-67.5 232,-67.5 232,-37.5 365,-37.5 365,-67.5"/>
<text text-anchor="start" x="240" y="-55.5" font-family="Helvetica,sans-Serif" font-size="10.00">CodeController::getFiles</text>
<text text-anchor="middle" x="298.5" y="-44.5" font-family="Helvetica,sans-Serif" font-size="10.00">ForCollection</text>
</a>
</g>
</g>
<!-- Node1&#45;&gt;Node19 -->
<g id="edge19" class="edge">
<title>Node1&#45;&gt;Node19</title>
<path fill="none" stroke="#63b8ff" d="M89.65,-277.73C99.27,-244.1 135.72,-132.14 208,-76.5 212.05,-73.38 216.48,-70.66 221.13,-68.3"/>
<polygon fill="#63b8ff" stroke="#63b8ff" points="222.47,-71.53 230.2,-64.28 219.64,-65.13 222.47,-71.53"/>
</g>
<!-- Node20 -->
<g id="node20" class="node">
<title>Node20</title>
<g id="a_node20"><a xlink:href="classMessageBase.html#a503147e0eb9af4a3edf5b2ffeed77270" target="_top" xlink:title=" ">
<polygon fill="white" stroke="#666666" points="589.5,-500 445.5,-500 445.5,-481 589.5,-481 589.5,-500"/>
<text text-anchor="middle" x="517.5" y="-488" font-family="Helvetica,sans-Serif" font-size="10.00">MessageBase::isReplayed</text>
</a>
</g>
</g>
<!-- Node1&#45;&gt;Node20 -->
<g id="edge21" class="edge">
<title>Node1&#45;&gt;Node20</title>
<path fill="none" stroke="#63b8ff" d="M91.57,-297.45C104.94,-325.36 146.97,-404.65 208,-440.5 245.29,-462.41 355.76,-476.42 433.81,-483.87"/>
<polygon fill="#63b8ff" stroke="#63b8ff" points="433.29,-487.34 443.57,-484.78 433.94,-480.37 433.29,-487.34"/>
</g>
<!-- Node21 -->
<g id="node21" class="node">
<title>Node21</title>
<g id="a_node21"><a xlink:href="classCodeController.html#a6f55464e6cc378be0ba5da006c7f0df6" target="_top" xlink:title=" ">
<polygon fill="white" stroke="#666666" points="382,-431.5 215,-431.5 215,-401.5 382,-401.5 382,-431.5"/>
<text text-anchor="start" x="223" y="-419.5" font-family="Helvetica,sans-Serif" font-size="10.00">CodeController::saveOrRestore</text>
<text text-anchor="middle" x="298.5" y="-408.5" font-family="Helvetica,sans-Serif" font-size="10.00">ViewMode</text>
</a>
</g>
</g>
<!-- Node1&#45;&gt;Node21 -->
<g id="edge22" class="edge">
<title>Node1&#45;&gt;Node21</title>
<path fill="none" stroke="#63b8ff" d="M96.4,-297.47C115.59,-317.29 161.41,-361.93 208,-387.5 214.45,-391.04 221.39,-394.23 228.46,-397.08"/>
<polygon fill="#63b8ff" stroke="#63b8ff" points="226.86,-400.22 237.45,-400.49 229.34,-393.68 226.86,-400.22"/>
</g>
<!-- Node24 -->
<g id="node24" class="node">
<title>Node24</title>
<g id="a_node24"><a xlink:href="classCodeController.html#a6d0631179cf8204726f817c510f0a267" target="_top" xlink:title=" ">
<polygon fill="white" stroke="#666666" points="370,-297 227,-297 227,-278 370,-278 370,-297"/>
<text text-anchor="middle" x="298.5" y="-285" font-family="Helvetica,sans-Serif" font-size="10.00">CodeController::showFiles</text>
</a>
</g>
</g>
<!-- Node1&#45;&gt;Node24 -->
<g id="edge27" class="edge">
<title>Node1&#45;&gt;Node24</title>
<path fill="none" stroke="#63b8ff" d="M172.31,-287.5C186.52,-287.5 201.23,-287.5 215.36,-287.5"/>
<polygon fill="#63b8ff" stroke="#63b8ff" points="215.03,-291 225.03,-287.5 215.03,-284 215.03,-291"/>
</g>
<!-- Node33 -->
<g id="node33" class="node">
<title>Node33</title>
<g id="a_node33"><a xlink:href="structCodeFileParams.html#acd50cbb11c225628361e1bf394db6554" target="_top" xlink:title=" ">
<polygon fill="white" stroke="#666666" points="369,-19 228,-19 228,0 369,0 369,-19"/>
<text text-anchor="middle" x="298.5" y="-7" font-family="Helvetica,sans-Serif" font-size="10.00">CodeFileParams::sortById</text>
</a>
</g>
</g>
<!-- Node1&#45;&gt;Node33 -->
<g id="edge37" class="edge">
<title>Node1&#45;&gt;Node33</title>
<path fill="none" stroke="#63b8ff" d="M88.43,-277.6C94.6,-238.88 122.52,-96.43 208,-28.5 210.92,-26.18 214.06,-24.12 217.36,-22.3"/>
<polygon fill="#63b8ff" stroke="#63b8ff" points="218.66,-25.55 226.26,-18.16 215.71,-19.21 218.66,-25.55"/>
</g>
<!-- Node3 -->
<g id="node3" class="node">
<title>Node3</title>
<g id="a_node3"><a xlink:href="classCodeController.html#acabfff8ee11097b3f518c53ad07305d8" target="_top" xlink:title=" ">
<polygon fill="white" stroke="#666666" points="604.5,-648 430.5,-648 430.5,-629 604.5,-629 604.5,-648"/>
<text text-anchor="middle" x="517.5" y="-636" font-family="Helvetica,sans-Serif" font-size="10.00">CodeController::clearReferences</text>
</a>
</g>
</g>
<!-- Node2&#45;&gt;Node3 -->
<g id="edge2" class="edge">
<title>Node2&#45;&gt;Node3</title>
<path fill="none" stroke="#63b8ff" d="M318.11,-574.41C342.17,-586.84 385.65,-608.03 425,-620.5 431.48,-622.55 438.3,-624.42 445.17,-626.1"/>
<polygon fill="#63b8ff" stroke="#63b8ff" points="443.96,-629.41 454.49,-628.26 445.53,-622.59 443.96,-629.41"/>
</g>
<!-- Node5 -->
<g id="node5" class="node">
<title>Node5</title>
<g id="a_node5"><a xlink:href="classSourceLocation.html#a7b412dc68d84ca7a29ce250ecabbc83a" target="_top" xlink:title=" ">
<polygon fill="white" stroke="#666666" points="595,-611 440,-611 440,-592 595,-592 595,-611"/>
<text text-anchor="middle" x="517.5" y="-599" font-family="Helvetica,sans-Serif" font-size="10.00">SourceLocation::getTokenIds</text>
</a>
</g>
</g>
<!-- Node2&#45;&gt;Node5 -->
<g id="edge4" class="edge">
<title>Node2&#45;&gt;Node5</title>
<path fill="none" stroke="#63b8ff" d="M357.94,-574.46C385.31,-579.13 418.13,-584.73 446.79,-589.61"/>
<polygon fill="#63b8ff" stroke="#63b8ff" points="446.02,-593.03 456.47,-591.26 447.2,-586.13 446.02,-593.03"/>
</g>
<!-- Node6 -->
<g id="node6" class="node">
<title>Node6</title>
<g id="a_node6"><a xlink:href="classSourceLocation.html#a0c0fdcc9faf5384643b914df77c3ccae" target="_top" xlink:title=" ">
<polygon fill="white" stroke="#666666" points="585,-574 450,-574 450,-555 585,-555 585,-574"/>
<text text-anchor="middle" x="517.5" y="-562" font-family="Helvetica,sans-Serif" font-size="10.00">SourceLocation::getType</text>
</a>
</g>
</g>
<!-- Node2&#45;&gt;Node6 -->
<g id="edge5" class="edge">
<title>Node2&#45;&gt;Node6</title>
<path fill="none" stroke="#63b8ff" d="M389.33,-564.5C405.56,-564.5 422.37,-564.5 438.24,-564.5"/>
<polygon fill="#63b8ff" stroke="#63b8ff" points="438.09,-568 448.09,-564.5 438.09,-561 438.09,-568"/>
</g>
<!-- Node7 -->
<g id="node7" class="node">
<title>Node7</title>
<g id="a_node7"><a xlink:href="classSourceLocation.html#a9d74ca5133eb6cafa80cf18d6c18270f" target="_top" xlink:title=" ">
<polygon fill="white" stroke="#666666" points="605.5,-537 429.5,-537 429.5,-518 605.5,-518 605.5,-537"/>
<text text-anchor="middle" x="517.5" y="-525" font-family="Helvetica,sans-Serif" font-size="10.00">SourceLocation::isScopeLocation</text>
</a>
</g>
</g>
<!-- Node2&#45;&gt;Node7 -->
<g id="edge6" class="edge">
<title>Node2&#45;&gt;Node7</title>
<path fill="none" stroke="#63b8ff" d="M357.94,-554.54C385.31,-549.87 418.13,-544.27 446.79,-539.39"/>
<polygon fill="#63b8ff" stroke="#63b8ff" points="447.2,-542.87 456.47,-537.74 446.02,-535.97 447.2,-542.87"/>
</g>
<!-- Node4 -->
<g id="node4" class="node">
<title>Node4</title>
<g id="a_node4"><a xlink:href="classCodeController.html#ac5ae05d9b87da34bc4124b0f01f26515" target="_top" xlink:title=" ">
<polygon fill="white" stroke="#666666" points="800,-653.5 655,-653.5 655,-623.5 800,-623.5 800,-653.5"/>
<text text-anchor="start" x="663" y="-641.5" font-family="Helvetica,sans-Serif" font-size="10.00">CodeController::clearLocal</text>
<text text-anchor="middle" x="727.5" y="-630.5" font-family="Helvetica,sans-Serif" font-size="10.00">References</text>
</a>
</g>
</g>
<!-- Node3&#45;&gt;Node4 -->
<g id="edge3" class="edge">
<title>Node3&#45;&gt;Node4</title>
<path fill="none" stroke="#63b8ff" d="M604.9,-638.5C617.55,-638.5 630.56,-638.5 643.14,-638.5"/>
<polygon fill="#63b8ff" stroke="#63b8ff" points="643.05,-642 653.05,-638.5 643.05,-635 643.05,-642"/>
</g>
<!-- Node9&#45;&gt;Node10 -->
<g id="edge9" class="edge">
<title>Node9&#45;&gt;Node10</title>
<path fill="none" stroke="#63b8ff" d="M359.69,-345.99C380.34,-351.14 403.64,-356.76 425,-361.5 433.88,-363.47 443.26,-365.44 452.51,-367.32"/>
<polygon fill="#63b8ff" stroke="#63b8ff" points="451.69,-370.72 462.19,-369.26 453.07,-363.86 451.69,-370.72"/>
</g>
<!-- Node11 -->
<g id="node11" class="node">
<title>Node11</title>
<g id="a_node11"><a xlink:href="classCodeView.html#a523ae797b1501500d269e17f516f1c4d" target="_top" xlink:title=" ">
<polygon fill="white" stroke="#666666" points="584,-352 451,-352 451,-333 584,-333 584,-352"/>
<text text-anchor="middle" x="517.5" y="-340" font-family="Helvetica,sans-Serif" font-size="10.00">CodeView::isInListMode</text>
</a>
</g>
</g>
<!-- Node9&#45;&gt;Node11 -->
<g id="edge10" class="edge">
<title>Node9&#45;&gt;Node11</title>
<path fill="none" stroke="#63b8ff" d="M380.92,-335C400.03,-336.06 420.34,-337.18 439.26,-338.23"/>
<polygon fill="#63b8ff" stroke="#63b8ff" points="438.84,-341.71 449.02,-338.77 439.23,-334.72 438.84,-341.71"/>
</g>
<!-- Node12 -->
<g id="node12" class="node">
<title>Node12</title>
<g id="a_node12"><a xlink:href="classCodeController.html#ab5824829c32e92a5b312912019246f49" target="_top" xlink:title=" ">
<polygon fill="white" stroke="#666666" points="593.5,-297 441.5,-297 441.5,-278 593.5,-278 593.5,-297"/>
<text text-anchor="middle" x="517.5" y="-285" font-family="Helvetica,sans-Serif" font-size="10.00">CodeController::setFileState</text>
</a>
</g>
</g>
<!-- Node9&#45;&gt;Node12 -->
<g id="edge11" class="edge">
<title>Node9&#45;&gt;Node12</title>
<path fill="none" stroke="#63b8ff" d="M377.54,-315.04C403.02,-309.99 430.96,-304.45 455.05,-299.68"/>
<polygon fill="#63b8ff" stroke="#63b8ff" points="455.57,-303.14 464.7,-297.77 454.21,-296.28 455.57,-303.14"/>
</g>
<!-- Node12&#45;&gt;Node12 -->
<g id="edge12" class="edge">
<title>Node12&#45;&gt;Node12</title>
<path fill="none" stroke="#63b8ff" d="M484.62,-297.37C469.63,-305.94 480.59,-315 517.5,-315 539.42,-315 552.19,-311.8 555.8,-307.42"/>
<polygon fill="#63b8ff" stroke="#63b8ff" points="558.93,-305.84 551.1,-298.7 552.77,-309.16 558.93,-305.84"/>
</g>
<!-- Node14 -->
<g id="node14" class="node">
<title>Node14</title>
<g id="a_node14"><a xlink:href="structCodeScrollParams.html#a429e03699961c71795e2c5ad23938f9c" target="_top" xlink:title=" ">
<polygon fill="white" stroke="#666666" points="602.5,-50 432.5,-50 432.5,-31 602.5,-31 602.5,-50"/>
<text text-anchor="middle" x="517.5" y="-38" font-family="Helvetica,sans-Serif" font-size="10.00">CodeScrollParams::toReference</text>
</a>
</g>
</g>
<!-- Node13&#45;&gt;Node14 -->
<g id="edge14" class="edge">
<title>Node13&#45;&gt;Node14</title>
<path fill="none" stroke="#63b8ff" d="M378.59,-229.03C382.37,-226.57 385.88,-223.75 389,-220.5 439.22,-168.27 373.84,-112.81 425,-61.5 426.82,-59.67 428.77,-57.99 430.82,-56.44"/>
<polygon fill="#63b8ff" stroke="#63b8ff" points="432.47,-59.54 439.11,-51.28 428.77,-53.59 432.47,-59.54"/>
</g>
<!-- Node15 -->
<g id="node15" class="node">
<title>Node15</title>
<g id="a_node15"><a xlink:href="structCodeScrollParams.html#a81306e63fc903009522b84aa62ce1bcf" target="_top" xlink:title=" ">
<polygon fill="white" stroke="#666666" points="809,-52.5 646,-52.5 646,-22.5 809,-22.5 809,-52.5"/>
<text text-anchor="start" x="654" y="-40.5" font-family="Helvetica,sans-Serif" font-size="10.00">CodeScrollParams::CodeScroll</text>
<text text-anchor="middle" x="727.5" y="-29.5" font-family="Helvetica,sans-Serif" font-size="10.00">Params</text>
</a>
</g>
</g>
<!-- Node14&#45;&gt;Node15 -->
<g id="edge15" class="edge">
<title>Node14&#45;&gt;Node15</title>
<path fill="none" stroke="#63b8ff" d="M602.8,-39.28C613.22,-39.13 623.92,-38.98 634.44,-38.83"/>
<polygon fill="#63b8ff" stroke="#63b8ff" points="634.32,-42.33 644.27,-38.69 634.22,-35.33 634.32,-42.33"/>
</g>
<!-- Node21&#45;&gt;Node10 -->
<g id="edge24" class="edge">
<title>Node21&#45;&gt;Node10</title>
<path fill="none" stroke="#63b8ff" d="M382.47,-402.35C403.77,-398.72 426.46,-394.85 447,-391.35"/>
<polygon fill="#63b8ff" stroke="#63b8ff" points="447.41,-394.83 456.68,-389.7 446.23,-387.93 447.41,-394.83"/>
</g>
<!-- Node21&#45;&gt;Node20 -->
<g id="edge25" class="edge">
<title>Node21&#45;&gt;Node20</title>
<path fill="none" stroke="#63b8ff" d="M356.51,-431.84C367.56,-435.68 378.85,-440.24 389,-445.5 406.75,-454.71 406.73,-464.37 425,-472.5 428.96,-474.26 433.1,-475.86 437.33,-477.29"/>
<polygon fill="#63b8ff" stroke="#63b8ff" points="435.95,-480.53 446.54,-480.11 438,-473.84 435.95,-480.53"/>
</g>
<!-- Node22 -->
<g id="node22" class="node">
<title>Node22</title>
<g id="a_node22"><a xlink:href="classMessageBase.html#a8b22dcbfc6bd7df5d1cfd25838366f19" target="_top" xlink:title=" ">
<polygon fill="white" stroke="#666666" points="575,-463 460,-463 460,-444 575,-444 575,-463"/>
<text text-anchor="middle" x="517.5" y="-451" font-family="Helvetica,sans-Serif" font-size="10.00">MessageBase::getId</text>
</a>
</g>
</g>
<!-- Node21&#45;&gt;Node22 -->
<g id="edge23" class="edge">
<title>Node21&#45;&gt;Node22</title>
<path fill="none" stroke="#63b8ff" d="M382.47,-430.65C404.37,-434.38 427.75,-438.37 448.75,-441.95"/>
<polygon fill="#63b8ff" stroke="#63b8ff" points="447.88,-445.35 458.33,-443.58 449.06,-438.45 447.88,-445.35"/>
</g>
<!-- Node23 -->
<g id="node23" class="node">
<title>Node23</title>
<g id="a_node23"><a xlink:href="classCodeView.html#a83b64177325b582dca73df10e01243db" target="_top" xlink:title=" ">
<polygon fill="white" stroke="#666666" points="574,-426 461,-426 461,-407 574,-407 574,-426"/>
<text text-anchor="middle" x="517.5" y="-414" font-family="Helvetica,sans-Serif" font-size="10.00">CodeView::setMode</text>
</a>
</g>
</g>
<!-- Node21&#45;&gt;Node23 -->
<g id="edge26" class="edge">
<title>Node21&#45;&gt;Node23</title>
<path fill="none" stroke="#63b8ff" d="M382.47,-416.5C404.58,-416.5 428.18,-416.5 449.33,-416.5"/>
<polygon fill="#63b8ff" stroke="#63b8ff" points="449.29,-420 459.29,-416.5 449.29,-413 449.29,-420"/>
</g>
<!-- Node24&#45;&gt;Node10 -->
<g id="edge33" class="edge">
<title>Node24&#45;&gt;Node10</title>
<path fill="none" stroke="#63b8ff" d="M370.11,-296.89C376.8,-299.4 383.23,-302.55 389,-306.5 413.11,-323 400.77,-345.18 425,-361.5 429.27,-364.38 433.89,-366.81 438.71,-368.88"/>
<polygon fill="#63b8ff" stroke="#63b8ff" points="437.5,-372.17 448.09,-372.31 439.9,-365.59 437.5,-372.17"/>
</g>
<!-- Node25 -->
<g id="node25" class="node">
<title>Node25</title>
<g id="a_node25"><a xlink:href="classCodeController.html#aecaf689a7af3973a707055ffc6f34492" target="_top" xlink:title=" ">
<polygon fill="white" stroke="#666666" points="597,-148.5 438,-148.5 438,-118.5 597,-118.5 597,-148.5"/>
<text text-anchor="start" x="446" y="-136.5" font-family="Helvetica,sans-Serif" font-size="10.00">CodeController::addAllSource</text>
<text text-anchor="middle" x="517.5" y="-125.5" font-family="Helvetica,sans-Serif" font-size="10.00">Locations</text>
</a>
</g>
</g>
<!-- Node24&#45;&gt;Node25 -->
<g id="edge28" class="edge">
<title>Node24&#45;&gt;Node25</title>
<path fill="none" stroke="#63b8ff" d="M370.4,-279.98C377.19,-277.12 383.56,-273.38 389,-268.5 427.27,-234.13 387.74,-193.96 425,-158.5 426.23,-157.33 427.51,-156.21 428.83,-155.15"/>
<polygon fill="#63b8ff" stroke="#63b8ff" points="430.57,-158.2 436.88,-149.68 426.64,-152.41 430.57,-158.2"/>
</g>
<!-- Node28 -->
<g id="node28" class="node">
<title>Node28</title>
<g id="a_node28"><a xlink:href="classCodeController.html#ab41bcaf84d8fb761741bab81916fde79" target="_top" xlink:title=" ">
<polygon fill="white" stroke="#666666" points="604.5,-100.5 430.5,-100.5 430.5,-70.5 604.5,-70.5 604.5,-100.5"/>
<text text-anchor="start" x="438.5" y="-88.5" font-family="Helvetica,sans-Serif" font-size="10.00">CodeController::addModification</text>
<text text-anchor="middle" x="517.5" y="-77.5" font-family="Helvetica,sans-Serif" font-size="10.00">Times</text>
</a>
</g>
</g>
<!-- Node24&#45;&gt;Node28 -->
<g id="edge31" class="edge">
<title>Node24&#45;&gt;Node28</title>
<path fill="none" stroke="#63b8ff" d="M370.43,-280.67C377.31,-277.7 383.69,-273.74 389,-268.5 440.58,-217.61 374.64,-161.59 425,-109.5 425.6,-108.88 426.21,-108.28 426.84,-107.69"/>
<polygon fill="#63b8ff" stroke="#63b8ff" points="428.71,-110.66 434.45,-101.76 424.41,-105.14 428.71,-110.66"/>
</g>
<!-- Node30 -->
<g id="node30" class="node">
<title>Node30</title>
<g id="a_node30"><a xlink:href="classCodeView.html#a8a9808052c4a667d0907de8950537523" target="_top" xlink:title=" ">
<polygon fill="white" stroke="#666666" points="589,-260 446,-260 446,-241 589,-241 589,-260"/>
<text text-anchor="middle" x="517.5" y="-248" font-family="Helvetica,sans-Serif" font-size="10.00">CodeView::showSingleFile</text>
</a>
</g>
</g>
<!-- Node24&#45;&gt;Node30 -->
<g id="edge34" class="edge">
<title>Node24&#45;&gt;Node30</title>
<path fill="none" stroke="#63b8ff" d="M357.94,-277.54C385.31,-272.87 418.13,-267.27 446.79,-262.39"/>
<polygon fill="#63b8ff" stroke="#63b8ff" points="447.2,-265.87 456.47,-260.74 446.02,-258.97 447.2,-265.87"/>
</g>
<!-- Node31 -->
<g id="node31" class="node">
<title>Node31</title>
<g id="a_node31"><a xlink:href="classCodeView.html#abf450d7390a4e8d20a4b15221bc8a876" target="_top" xlink:title=" ">
<polygon fill="white" stroke="#666666" points="587,-223 448,-223 448,-204 587,-204 587,-223"/>
<text text-anchor="middle" x="517.5" y="-211" font-family="Helvetica,sans-Serif" font-size="10.00">CodeView::showSnippets</text>
</a>
</g>
</g>
<!-- Node24&#45;&gt;Node31 -->
<g id="edge35" class="edge">
<title>Node24&#45;&gt;Node31</title>
<path fill="none" stroke="#63b8ff" d="M367,-277.6C374.66,-275.2 382.16,-272.21 389,-268.5 408.89,-257.71 405.09,-243.25 425,-232.5 428.9,-230.39 433.02,-228.52 437.25,-226.85"/>
<polygon fill="#63b8ff" stroke="#63b8ff" points="438.25,-230.21 446.54,-223.62 435.95,-223.6 438.25,-230.21"/>
</g>
<!-- Node32 -->
<g id="node32" class="node">
<title>Node32</title>
<g id="a_node32"><a xlink:href="classCodeView.html#ac2fb6ceb514870163af2b4e98949dcdc" target="_top" xlink:title=" ">
<polygon fill="white" stroke="#666666" points="610,-186 425,-186 425,-167 610,-167 610,-186"/>
<text text-anchor="middle" x="517.5" y="-174" font-family="Helvetica,sans-Serif" font-size="10.00">CodeView::updateSourceLocations</text>
</a>
</g>
</g>
<!-- Node24&#45;&gt;Node32 -->
<g id="edge36" class="edge">
<title>Node24&#45;&gt;Node32</title>
<path fill="none" stroke="#63b8ff" d="M370.18,-279C376.93,-276.32 383.36,-272.89 389,-268.5 417.56,-246.29 396.39,-217.64 425,-195.5 426.78,-194.12 428.64,-192.84 430.55,-191.64"/>
<polygon fill="#63b8ff" stroke="#63b8ff" points="432.04,-194.81 439.26,-187.06 428.78,-188.62 432.04,-194.81"/>
</g>
<!-- Node26 -->
<g id="node26" class="node">
<title>Node26</title>
<g id="a_node26"><a xlink:href="classStorageAccess.html#a9ed911b22e44d50d69f2fc70b8b77031" target="_top" xlink:title=" ">
<polygon fill="white" stroke="#666666" points="799,-148.5 656,-148.5 656,-118.5 799,-118.5 799,-148.5"/>
<text text-anchor="start" x="664" y="-136.5" font-family="Helvetica,sans-Serif" font-size="10.00">StorageAccess::getSource</text>
<text text-anchor="middle" x="727.5" y="-125.5" font-family="Helvetica,sans-Serif" font-size="10.00">LocationsForFile</text>
</a>
</g>
</g>
<!-- Node25&#45;&gt;Node26 -->
<g id="edge29" class="edge">
<title>Node25&#45;&gt;Node26</title>
<path fill="none" stroke="#63b8ff" d="M597.43,-133.5C612.88,-133.5 629.1,-133.5 644.64,-133.5"/>
<polygon fill="#63b8ff" stroke="#63b8ff" points="644.3,-137 654.3,-133.5 644.3,-130 644.3,-137"/>
</g>
<!-- Node27 -->
<g id="node27" class="node">
<title>Node27</title>
<g id="a_node27"><a xlink:href="classStorageAccess.html#a970d7d87a7ac6039cf9729d1d1a73f53" target="_top" xlink:title=" ">
<polygon fill="white" stroke="#666666" points="799,-196.5 656,-196.5 656,-166.5 799,-166.5 799,-196.5"/>
<text text-anchor="start" x="664" y="-184.5" font-family="Helvetica,sans-Serif" font-size="10.00">StorageAccess::getSource</text>
<text text-anchor="middle" x="727.5" y="-173.5" font-family="Helvetica,sans-Serif" font-size="10.00">LocationsForLinesInFile</text>
</a>
</g>
</g>
<!-- Node25&#45;&gt;Node27 -->
<g id="edge30" class="edge">
<title>Node25&#45;&gt;Node27</title>
<path fill="none" stroke="#63b8ff" d="M585.46,-148.95C605.59,-153.6 627.85,-158.74 648.63,-163.53"/>
<polygon fill="#63b8ff" stroke="#63b8ff" points="647.66,-166.9 658.19,-165.74 649.24,-160.08 647.66,-166.9"/>
</g>
<!-- Node29 -->
<g id="node29" class="node">
<title>Node29</title>
<g id="a_node29"><a xlink:href="classStorageAccess.html#a7851a57e5092a9b5bcda798152ee64fb" target="_top" xlink:title=" ">
<polygon fill="white" stroke="#666666" points="802.5,-100.5 652.5,-100.5 652.5,-70.5 802.5,-70.5 802.5,-100.5"/>
<text text-anchor="start" x="660.5" y="-88.5" font-family="Helvetica,sans-Serif" font-size="10.00">StorageAccess::getFileInfos</text>
<text text-anchor="middle" x="727.5" y="-77.5" font-family="Helvetica,sans-Serif" font-size="10.00">ForFilePaths</text>
</a>
</g>
</g>
<!-- Node28&#45;&gt;Node29 -->
<g id="edge32" class="edge">
<title>Node28&#45;&gt;Node29</title>
<path fill="none" stroke="#63b8ff" d="M604.9,-85.5C616.83,-85.5 629.07,-85.5 640.98,-85.5"/>
<polygon fill="#63b8ff" stroke="#63b8ff" points="640.77,-89 650.77,-85.5 640.77,-82 640.77,-89"/>
</g>
</g>
</svg>
