<?xml version="1.0" encoding="UTF-8" standalone="no"?>
<!DOCTYPE svg PUBLIC "-//W3C//DTD SVG 1.1//EN"
 "http://www.w3.org/Graphics/SVG/1.1/DTD/svg11.dtd">
<!-- Generated by graphviz version 7.1.0 (0)
 -->
<!-- Title: QtMainView::clearBookmarksMenu Pages: 1 -->
<!--zoomable 209 -->
<svg id="main" version="1.1" xmlns="http://www.w3.org/2000/svg" xmlns:xlink="http://www.w3.org/1999/xlink" xml:space="preserve" onload="init(evt)">
<style type="text/css"><![CDATA[
.edge:hover path { stroke: red; }
.edge:hover polygon { stroke: red; fill: red; }
]]></style>
<script type="text/javascript"><![CDATA[
var edges = document.getElementsByTagName('g');
if (edges && edges.length) {
  for (var i=0;i<edges.length;i++) {
    if (edges[i].id.substr(0,4)=='edge') {
      edges[i].setAttribute('class','edge');
    }
  }
}
]]></script>
        <defs>
                <circle id="rim" cx="0" cy="0" r="7"/>
                <circle id="rim2" cx="0" cy="0" r="3.5"/>
                <g id="zoomPlus">
                        <use xlink:href="#rim" fill="#404040">
                                <set attributeName="fill" to="#808080" begin="zoomplus.mouseover" end="zoomplus.mouseout"/>
                        </use>
                        <path d="M-4,0h8M0,-4v8" fill="none" stroke="white" stroke-width="1.5" pointer-events="none"/>
                </g>
                <g id="zoomMin">
                        <use xlink:href="#rim" fill="#404040">
                                <set attributeName="fill" to="#808080" begin="zoomminus.mouseover" end="zoomminus.mouseout"/>
                        </use>
                        <path d="M-4,0h8" fill="none" stroke="white" stroke-width="1.5" pointer-events="none"/>
                </g>
                <g id="dirArrow">
                        <path fill="none" stroke="white" stroke-width="1.5" d="M0,-3.0v7 M-2.5,-0.5L0,-3.0L2.5,-0.5"/>
                </g>
               <g id="resetDef">
                       <use xlink:href="#rim2" fill="#404040">
                               <set attributeName="fill" to="#808080" begin="reset.mouseover" end="reset.mouseout"/>
                       </use>
               </g>
        </defs>

<script type="text/javascript">
var viewWidth = 1687;
var viewHeight = 209;
var sectionId = 'dynsection-5';
</script>
<script xlink:href="svgpan.js"/>
<svg id="graph" class="graph">
<g id="viewport">
<title>QtMainView::clearBookmarksMenu</title>
<!-- Node1 -->
<g id="node1" class="node">
<title>Node1</title>
<g id="a_node1"><a xlink:title=" ">
<polygon fill="#999999" stroke="#666666" points="188,-115.5 0,-115.5 0,-96.5 188,-96.5 188,-115.5"/>
<text text-anchor="middle" x="94" y="-103.5" font-family="Helvetica,sans-Serif" font-size="10.00">QtMainView::clearBookmarksMenu</text>
</a>
</g>
</g>
<!-- Node2 -->
<g id="node2" class="node">
<title>Node2</title>
<g id="a_node2"><a xlink:href="classQtMainView.html#a3013a29d044176cd15663856d012c323" target="_top" xlink:title=" ">
<polygon fill="white" stroke="#666666" points="422,-115.5 224,-115.5 224,-96.5 422,-96.5 422,-115.5"/>
<text text-anchor="middle" x="323" y="-103.5" font-family="Helvetica,sans-Serif" font-size="10.00">QtMainView::updateBookmarksMenu</text>
</a>
</g>
</g>
<!-- Node1&#45;&gt;Node2 -->
<g id="edge1" class="edge">
<title>Node1&#45;&gt;Node2</title>
<path fill="none" stroke="#63b8ff" d="M188.31,-106C196.21,-106 204.24,-106 212.24,-106"/>
<polygon fill="#63b8ff" stroke="#63b8ff" points="212.02,-109.5 222.02,-106 212.02,-102.5 212.02,-109.5"/>
</g>
<!-- Node3 -->
<g id="node3" class="node">
<title>Node3</title>
<g id="a_node3"><a xlink:href="classQtMainWindow.html#ac9f9ea7439f5010a0ab80f5b58e5c3c0" target="_top" xlink:title=" ">
<polygon fill="white" stroke="#666666" points="671,-115.5 458,-115.5 458,-96.5 671,-96.5 671,-115.5"/>
<text text-anchor="middle" x="564.5" y="-103.5" font-family="Helvetica,sans-Serif" font-size="10.00">QtMainWindow::updateBookmarksMenu</text>
</a>
</g>
</g>
<!-- Node2&#45;&gt;Node3 -->
<g id="edge2" class="edge">
<title>Node2&#45;&gt;Node3</title>
<path fill="none" stroke="#63b8ff" d="M422.45,-106C430.34,-106 438.36,-106 446.37,-106"/>
<polygon fill="#63b8ff" stroke="#63b8ff" points="446.14,-109.5 456.14,-106 446.14,-102.5 446.14,-109.5"/>
</g>
<!-- Node4 -->
<g id="node4" class="node">
<title>Node4</title>
<g id="a_node4"><a xlink:href="classQtMainWindow.html#a1d3da319d1f86c0283ac2a71fc564720" target="_top" xlink:title=" ">
<polygon fill="white" stroke="#666666" points="913,-115.5 707,-115.5 707,-96.5 913,-96.5 913,-115.5"/>
<text text-anchor="middle" x="810" y="-103.5" font-family="Helvetica,sans-Serif" font-size="10.00">QtMainWindow::setupBookmarksMenu</text>
</a>
</g>
</g>
<!-- Node3&#45;&gt;Node4 -->
<g id="edge3" class="edge">
<title>Node3&#45;&gt;Node4</title>
<path fill="none" stroke="#63b8ff" d="M671.24,-106C679.27,-106 687.39,-106 695.46,-106"/>
<polygon fill="#63b8ff" stroke="#63b8ff" points="695.31,-109.5 705.31,-106 695.31,-102.5 695.31,-109.5"/>
</g>
<!-- Node5 -->
<g id="node5" class="node">
<title>Node5</title>
<g id="a_node5"><a xlink:href="classQtMainWindow.html#afa08067abcac67434cedf5a0b4177ffa" target="_top" xlink:title=" ">
<polygon fill="white" stroke="#666666" points="1136,-201 949,-201 949,-171 1136,-171 1136,-201"/>
<text text-anchor="start" x="957" y="-189" font-family="Helvetica,sans-Serif" font-size="10.00">QtMainWindow::activateBookmark</text>
<text text-anchor="middle" x="1042.5" y="-178" font-family="Helvetica,sans-Serif" font-size="10.00">Action</text>
</a>
</g>
</g>
<!-- Node4&#45;&gt;Node5 -->
<g id="edge4" class="edge">
<title>Node4&#45;&gt;Node5</title>
<path fill="none" stroke="#63b8ff" d="M832.66,-115.83C859.55,-127.79 907.03,-148.11 949,-162 954.71,-163.89 960.66,-165.73 966.66,-167.49"/>
<polygon fill="#63b8ff" stroke="#63b8ff" points="965.45,-170.78 976.03,-170.15 967.37,-164.05 965.45,-170.78"/>
</g>
<!-- Node9 -->
<g id="node9" class="node">
<title>Node9</title>
<g id="a_node9"><a xlink:href="namespaceutility.html#a7c55783775b1bc896a7998beef639527" target="_top" xlink:title=" ">
<polygon fill="white" stroke="#666666" points="1079.5,-152.5 1005.5,-152.5 1005.5,-133.5 1079.5,-133.5 1079.5,-152.5"/>
<text text-anchor="middle" x="1042.5" y="-140.5" font-family="Helvetica,sans-Serif" font-size="10.00">utility::elide</text>
</a>
</g>
</g>
<!-- Node4&#45;&gt;Node9 -->
<g id="edge8" class="edge">
<title>Node4&#45;&gt;Node9</title>
<path fill="none" stroke="#63b8ff" d="M873.07,-115.96C911.05,-122.06 958.89,-129.74 993.87,-135.35"/>
<polygon fill="#63b8ff" stroke="#63b8ff" points="993.29,-138.81 1003.72,-136.93 994.4,-131.89 993.29,-138.81"/>
</g>
<!-- Node10 -->
<g id="node10" class="node">
<title>Node10</title>
<g id="a_node10"><a xlink:href="classBookmark.html#ade9e4cf3d23fe515524082c8dcf11162" target="_top" xlink:title=" ">
<polygon fill="white" stroke="#666666" points="1101.5,-115.5 983.5,-115.5 983.5,-96.5 1101.5,-96.5 1101.5,-115.5"/>
<text text-anchor="middle" x="1042.5" y="-103.5" font-family="Helvetica,sans-Serif" font-size="10.00">Bookmark::getName</text>
</a>
</g>
</g>
<!-- Node4&#45;&gt;Node10 -->
<g id="edge9" class="edge">
<title>Node4&#45;&gt;Node10</title>
<path fill="none" stroke="#63b8ff" d="M913.44,-106C933.16,-106 953.39,-106 971.78,-106"/>
<polygon fill="#63b8ff" stroke="#63b8ff" points="971.75,-109.5 981.75,-106 971.75,-102.5 971.75,-109.5"/>
</g>
<!-- Node11 -->
<g id="node11" class="node">
<title>Node11</title>
<g id="a_node11"><a xlink:href="classQtMainWindow.html#a5f52689e9428d86212e69ef147b79807" target="_top" xlink:title=" ">
<polygon fill="white" stroke="#666666" points="1129,-78 956,-78 956,-48 1129,-48 1129,-78"/>
<text text-anchor="start" x="964" y="-66" font-family="Helvetica,sans-Serif" font-size="10.00">QtMainWindow::showBookmark</text>
<text text-anchor="middle" x="1042.5" y="-55" font-family="Helvetica,sans-Serif" font-size="10.00">Browser</text>
</a>
</g>
</g>
<!-- Node4&#45;&gt;Node11 -->
<g id="edge10" class="edge">
<title>Node4&#45;&gt;Node11</title>
<path fill="none" stroke="#63b8ff" d="M864.46,-96.03C889.12,-91.43 919.13,-85.83 947.39,-80.56"/>
<polygon fill="#63b8ff" stroke="#63b8ff" points="947.85,-84.03 957.04,-78.76 946.57,-77.15 947.85,-84.03"/>
</g>
<!-- Node12 -->
<g id="node12" class="node">
<title>Node12</title>
<g id="a_node12"><a xlink:href="classQtMainWindow.html#a149020452a66269846de0f8303b69235" target="_top" xlink:title=" ">
<polygon fill="white" stroke="#666666" points="1129,-30 956,-30 956,0 1129,0 1129,-30"/>
<text text-anchor="start" x="964" y="-18" font-family="Helvetica,sans-Serif" font-size="10.00">QtMainWindow::showBookmark</text>
<text text-anchor="middle" x="1042.5" y="-7" font-family="Helvetica,sans-Serif" font-size="10.00">Creator</text>
</a>
</g>
</g>
<!-- Node4&#45;&gt;Node12 -->
<g id="edge12" class="edge">
<title>Node4&#45;&gt;Node12</title>
<path fill="none" stroke="#63b8ff" d="M828.37,-96.17C854.07,-81.96 904.02,-55.57 949,-39 953.99,-37.16 959.18,-35.41 964.45,-33.74"/>
<polygon fill="#63b8ff" stroke="#63b8ff" points="965.3,-37.14 973.86,-30.9 963.28,-30.44 965.3,-37.14"/>
</g>
<!-- Node6 -->
<g id="node6" class="node">
<title>Node6</title>
<g id="a_node6"><a xlink:href="classMessage.html#aa60564025ee950bf52c8deb6ac1bb843" target="_top" xlink:title=" ">
<polygon fill="white" stroke="#666666" points="1279,-72.5 1172,-72.5 1172,-53.5 1279,-53.5 1279,-72.5"/>
<text text-anchor="middle" x="1225.5" y="-60.5" font-family="Helvetica,sans-Serif" font-size="10.00">Message::dispatch</text>
</a>
</g>
</g>
<!-- Node5&#45;&gt;Node6 -->
<g id="edge5" class="edge">
<title>Node5&#45;&gt;Node6</title>
<path fill="none" stroke="#63b8ff" d="M1118.78,-170.57C1124.79,-168.12 1130.62,-165.28 1136,-162 1169.3,-141.69 1197.25,-104.98 1212.36,-82.42"/>
<polygon fill="#63b8ff" stroke="#63b8ff" points="1215.22,-84.45 1217.73,-74.16 1209.35,-80.64 1215.22,-84.45"/>
</g>
<!-- Node7 -->
<g id="node7" class="node">
<title>Node7</title>
<g id="a_node7"><a xlink:href="classMessageQueue.html#ae42d768ad6ffd631d627fe101e38f711" target="_top" xlink:title=" ">
<polygon fill="white" stroke="#666666" points="1470,-72.5 1315,-72.5 1315,-53.5 1470,-53.5 1470,-72.5"/>
<text text-anchor="middle" x="1392.5" y="-60.5" font-family="Helvetica,sans-Serif" font-size="10.00">MessageQueue::getInstance</text>
</a>
</g>
</g>
<!-- Node6&#45;&gt;Node7 -->
<g id="edge6" class="edge">
<title>Node6&#45;&gt;Node7</title>
<path fill="none" stroke="#63b8ff" d="M1279.16,-63C1286.94,-63 1295.13,-63 1303.4,-63"/>
<polygon fill="#63b8ff" stroke="#63b8ff" points="1303.17,-66.5 1313.17,-63 1303.17,-59.5 1303.17,-66.5"/>
</g>
<!-- Node8 -->
<g id="node8" class="node">
<title>Node8</title>
<g id="a_node8"><a xlink:href="classMessageQueue.html#a006069f4b83d2372c989c52784fac5de" target="_top" xlink:title=" ">
<polygon fill="white" stroke="#666666" points="1679,-72.5 1506,-72.5 1506,-53.5 1679,-53.5 1679,-72.5"/>
<text text-anchor="middle" x="1592.5" y="-60.5" font-family="Helvetica,sans-Serif" font-size="10.00">MessageQueue::MessageQueue</text>
</a>
</g>
</g>
<!-- Node7&#45;&gt;Node8 -->
<g id="edge7" class="edge">
<title>Node7&#45;&gt;Node8</title>
<path fill="none" stroke="#63b8ff" d="M1470.34,-63C1478.17,-63 1486.19,-63 1494.21,-63"/>
<polygon fill="#63b8ff" stroke="#63b8ff" points="1493.99,-66.5 1503.99,-63 1493.99,-59.5 1493.99,-66.5"/>
</g>
<!-- Node11&#45;&gt;Node6 -->
<g id="edge11" class="edge">
<title>Node11&#45;&gt;Node6</title>
<path fill="none" stroke="#63b8ff" d="M1129.49,-63C1139.85,-63 1150.29,-63 1160.26,-63"/>
<polygon fill="#63b8ff" stroke="#63b8ff" points="1160.21,-66.5 1170.21,-63 1160.21,-59.5 1160.21,-66.5"/>
</g>
<!-- Node12&#45;&gt;Node6 -->
<g id="edge13" class="edge">
<title>Node12&#45;&gt;Node6</title>
<path fill="none" stroke="#63b8ff" d="M1103.24,-30.4C1114.14,-33.24 1125.42,-36.19 1136,-39 1149.46,-42.57 1164.06,-46.51 1177.45,-50.14"/>
<polygon fill="#63b8ff" stroke="#63b8ff" points="1176.33,-53.46 1186.89,-52.7 1178.16,-46.7 1176.33,-53.46"/>
</g>
</g>
</svg>
        <g id="navigator" transform="translate(0 0)" fill="#404254">
                <rect fill="#f2f5e9" fill-opacity="0.5" stroke="#606060" stroke-width=".5" x="0" y="0" width="60" height="60"/>
                <use id="zoomplus" xlink:href="#zoomPlus" x="17" y="9" onmousedown="handleZoom(evt,'in')"/>
                <use id="zoomminus" xlink:href="#zoomMin" x="42" y="9" onmousedown="handleZoom(evt,'out')"/>
                <use id="reset" xlink:href="#resetDef" x="30" y="36" onmousedown="handleReset()"/>
                <g id="arrowUp" xlink:href="#dirArrow" transform="translate(30 24)" onmousedown="handlePan(0,-1)">
                  <use xlink:href="#rim" fill="#404040">
                        <set attributeName="fill" to="#808080" begin="arrowUp.mouseover" end="arrowUp.mouseout"/>
                  </use>
                  <path fill="none" stroke="white" stroke-width="1.5" d="M0,-3.0v7 M-2.5,-0.5L0,-3.0L2.5,-0.5"/>
                </g>
                <g id="arrowRight" xlink:href="#dirArrow" transform="rotate(90) translate(36 -43)" onmousedown="handlePan(1,0)">
                  <use xlink:href="#rim" fill="#404040">
                        <set attributeName="fill" to="#808080" begin="arrowRight.mouseover" end="arrowRight.mouseout"/>
                  </use>
                  <path fill="none" stroke="white" stroke-width="1.5" d="M0,-3.0v7 M-2.5,-0.5L0,-3.0L2.5,-0.5"/>
                </g>
                <g id="arrowDown" xlink:href="#dirArrow" transform="rotate(180) translate(-30 -48)" onmousedown="handlePan(0,1)">
                  <use xlink:href="#rim" fill="#404040">
                        <set attributeName="fill" to="#808080" begin="arrowDown.mouseover" end="arrowDown.mouseout"/>
                  </use>
                  <path fill="none" stroke="white" stroke-width="1.5" d="M0,-3.0v7 M-2.5,-0.5L0,-3.0L2.5,-0.5"/>
                </g>
                <g id="arrowLeft" xlink:href="#dirArrow" transform="rotate(270) translate(-36 17)" onmousedown="handlePan(-1,0)">
                  <use xlink:href="#rim" fill="#404040">
                        <set attributeName="fill" to="#808080" begin="arrowLeft.mouseover" end="arrowLeft.mouseout"/>
                  </use>
                  <path fill="none" stroke="white" stroke-width="1.5" d="M0,-3.0v7 M-2.5,-0.5L0,-3.0L2.5,-0.5"/>
                </g>
        </g>
        <svg viewBox="0 0 15 15" width="100%" height="30px" preserveAspectRatio="xMaxYMin meet">
         <g id="arrow_out" transform="scale(0.3 0.3)">
          <a xlink:href="classQtMainView_ae8a9587d64b163790f8eca700f50e815_cgraph_org.svg" target="_base">
           <rect id="button" ry="5" rx="5" y="6" x="6" height="38" width="38"
                fill="#f2f5e9" fill-opacity="0.5" stroke="#606060" stroke-width="1.0"/>
           <path id="arrow"
             d="M 11.500037,31.436501 C 11.940474,20.09759 22.043105,11.32322 32.158766,21.979434 L 37.068811,17.246167 C 37.068811,17.246167 37.088388,32 37.088388,32 L 22.160133,31.978069 C 22.160133,31.978069 26.997745,27.140456 26.997745,27.140456 C 18.528582,18.264221 13.291696,25.230495 11.500037,31.436501 z"
             style="fill:#404040;"/>
          </a>
         </g>
        </svg>
</svg>
