<?xml version="1.0" encoding="UTF-8" standalone="no"?>
<!DOCTYPE svg PUBLIC "-//W3C//DTD SVG 1.1//EN"
 "http://www.w3.org/Graphics/SVG/1.1/DTD/svg11.dtd">
<!-- Generated by graphviz version 9.0.0 (0)
 -->
<!-- Title: NodeTypeSet::remove Pages: 1 -->
<!--zoomable 132 -->

<svg id="main" version="1.1" xmlns="http://www.w3.org/2000/svg" xmlns:xlink="http://www.w3.org/1999/xlink" xml:space="preserve" onload="init(evt)">
<style type="text/css"><![CDATA[
.node, .edge {opacity: 0.7;}
.node.selected, .edge.selected {opacity: 1;}
.edge:hover path { stroke: red; }
.edge:hover polygon { stroke: red; fill: red; }
]]></style>

<defs>
  <circle id="rim" cx="0" cy="0" r="7"/>
  <circle id="rim2" cx="0" cy="0" r="3.5"/>
  <g id="zoomPlus">
    <use xlink:href="#rim" fill="#404040"><set attributeName="fill" to="#808080" begin="zoomplus.mouseover" end="zoomplus.mouseout"/></use>
    <path d="M-4,0h8M0,-4v8" fill="none" stroke="white" stroke-width="1.5" pointer-events="none"/>
  </g>
  <g id="zoomMin">
    <use xlink:href="#rim" fill="#404040"><set attributeName="fill" to="#808080" begin="zoomminus.mouseover" end="zoomminus.mouseout"/></use>
    <path d="M-4,0h8" fill="none" stroke="white" stroke-width="1.5" pointer-events="none"/>
  </g>
  <g id="arrowUp" transform="translate(30 24)">
    <use xlink:href="#rim"/>
    <path pointer-events="none" fill="none" stroke="white" stroke-width="1.5" d="M0,-3.0v7 M-2.5,-0.5L0,-3.0L2.5,-0.5"/>
  </g>
  <g id="arrowRight" transform="rotate(90) translate(36 -43)">
    <use xlink:href="#rim"/>
    <path pointer-events="none" fill="none" stroke="white" stroke-width="1.5" d="M0,-3.0v7 M-2.5,-0.5L0,-3.0L2.5,-0.5"/>
  </g>
  <g id="arrowDown" transform="rotate(180) translate(-30 -48)">
    <use xlink:href="#rim"/>
    <path pointer-events="none" fill="none" stroke="white" stroke-width="1.5" d="M0,-3.0v7 M-2.5,-0.5L0,-3.0L2.5,-0.5"/>
  </g>
  <g id="arrowLeft" transform="rotate(270) translate(-36 17)">
    <use xlink:href="#rim"/>
    <path pointer-events="none" fill="none" stroke="white" stroke-width="1.5" d="M0,-3.0v7 M-2.5,-0.5L0,-3.0L2.5,-0.5"/>
  </g>
  <g id="resetDef">
    <use xlink:href="#rim2" fill="#404040"><set attributeName="fill" to="#808080" begin="reset.mouseover" end="reset.mouseout"/></use>
  </g>
</defs>
<script type="application/ecmascript">
var viewWidth = 749;
var viewHeight = 132;
var sectionId = 'dynsection-28';
</script>
<script type="application/ecmascript" xlink:href="svg.min.js"/>
<svg id="graph" class="graph">
<g id="viewport">
<title>NodeTypeSet::remove</title>
<!-- Node1 -->
<g id="Node000001" class="node">
<title>Node1</title>
<g id="a_Node000001"><a xlink:title=" ">
<polygon fill="#999999" stroke="#666666" points="740.5,-72.12 617.25,-72.12 617.25,-51.38 740.5,-51.38 740.5,-72.12"/>
<text text-anchor="middle" x="678.88" y="-58.62" font-family="Helvetica,sans-Serif" font-size="10.00">NodeTypeSet::remove</text>
</a>
</g>
</g>
<!-- Node2 -->
<g id="Node000002" class="node">
<title>Node2</title>
<g id="a_Node000002"><a xlink:href="classCustomTrailController.html#a50e7b39b9042014ac4fe70424f4f7de8" target="_top" xlink:title=" ">
<polygon fill="white" stroke="#666666" points="558.38,-123.5 435.88,-123.5 435.88,-90 558.38,-90 558.38,-123.5"/>
<text text-anchor="start" x="443.88" y="-110" font-family="Helvetica,sans-Serif" font-size="10.00">CustomTrailController</text>
<text text-anchor="middle" x="497.12" y="-97.25" font-family="Helvetica,sans-Serif" font-size="10.00">::autocomplete</text>
</a>
</g>
</g>
<!-- Node1&#45;&gt;Node2 -->
<g id="edge1_Node000001_Node000002" class="edge">
<title>Node1&#45;&gt;Node2</title>
<g id="a_edge1_Node000001_Node000002"><a xlink:title=" ">
<path fill="none" stroke="#63b8ff" d="M623.79,-75.29C603.31,-80.42 579.88,-86.28 558.84,-91.55"/>
<polygon fill="#63b8ff" stroke="#63b8ff" points="624.5,-78.72 633.35,-72.9 622.8,-71.93 624.5,-78.72"/>
</a>
</g>
</g>
<!-- Node4 -->
<g id="Node000004" class="node">
<title>Node4</title>
<g id="a_Node000004"><a xlink:href="classNodeTypeSet.html#ae66a99b8077ec8744fc4c8098857bcdc" target="_top" xlink:title=" ">
<polygon fill="white" stroke="#666666" points="574.12,-72.12 420.12,-72.12 420.12,-51.38 574.12,-51.38 574.12,-72.12"/>
<text text-anchor="middle" x="497.12" y="-58.62" font-family="Helvetica,sans-Serif" font-size="10.00">NodeTypeSet::keepMatching</text>
</a>
</g>
</g>
<!-- Node1&#45;&gt;Node4 -->
<g id="edge3_Node000001_Node000004" class="edge">
<title>Node1&#45;&gt;Node4</title>
<g id="a_edge3_Node000001_Node000004"><a xlink:title=" ">
<path fill="none" stroke="#63b8ff" d="M605.39,-61.75C595.17,-61.75 584.63,-61.75 574.34,-61.75"/>
<polygon fill="#63b8ff" stroke="#63b8ff" points="605.26,-65.25 615.26,-61.75 605.26,-58.25 605.26,-65.25"/>
</a>
</g>
</g>
<!-- Node6 -->
<g id="Node000006" class="node">
<title>Node6</title>
<g id="a_Node000006"><a xlink:href="classNodeTypeSet.html#aefcd54b7e8616579f6136f87a2ea644a" target="_top" xlink:title=" ">
<polygon fill="white" stroke="#666666" points="581.25,-30.12 413,-30.12 413,-9.38 581.25,-9.38 581.25,-30.12"/>
<text text-anchor="middle" x="497.12" y="-16.62" font-family="Helvetica,sans-Serif" font-size="10.00">NodeTypeSet::removeMatching</text>
</a>
</g>
</g>
<!-- Node1&#45;&gt;Node6 -->
<g id="edge5_Node000001_Node000006" class="edge">
<title>Node1&#45;&gt;Node6</title>
<g id="a_edge5_Node000001_Node000006"><a xlink:title=" ">
<path fill="none" stroke="#63b8ff" d="M620.61,-48.37C596.07,-42.63 567.78,-36.02 544.57,-30.6"/>
<polygon fill="#63b8ff" stroke="#63b8ff" points="619.58,-51.72 630.11,-50.59 621.17,-44.91 619.58,-51.72"/>
</a>
</g>
</g>
<!-- Node3 -->
<g id="Node000003" class="node">
<title>Node3</title>
<g id="a_Node000003"><a xlink:href="classQtCustomTrailView.html#aa2704fa930734ebf8b63a024388255a6" target="_top" xlink:title=" ">
<polygon fill="white" stroke="#666666" points="339.5,-123.5 223.75,-123.5 223.75,-90 339.5,-90 339.5,-123.5"/>
<text text-anchor="start" x="231.75" y="-110" font-family="Helvetica,sans-Serif" font-size="10.00">QtCustomTrailView::</text>
<text text-anchor="middle" x="281.62" y="-97.25" font-family="Helvetica,sans-Serif" font-size="10.00">QtCustomTrailView</text>
</a>
</g>
</g>
<!-- Node2&#45;&gt;Node3 -->
<g id="edge2_Node000002_Node000003" class="edge">
<title>Node2&#45;&gt;Node3</title>
<g id="a_edge2_Node000002_Node000003"><a xlink:title=" ">
<path fill="none" stroke="#63b8ff" d="M424.34,-106.75C396.78,-106.75 365.72,-106.75 339.72,-106.75"/>
<polygon fill="#63b8ff" stroke="#63b8ff" points="424,-110.25 434,-106.75 424,-103.25 424,-110.25"/>
</a>
</g>
</g>
<!-- Node5 -->
<g id="Node000005" class="node">
<title>Node5</title>
<g id="a_Node000005"><a xlink:href="classNodeTypeSet.html#abef25548300260a709a3441ffb9fc4ab" target="_top" xlink:title=" ">
<polygon fill="white" stroke="#666666" points="377,-72.12 186.25,-72.12 186.25,-51.38 377,-51.38 377,-72.12"/>
<text text-anchor="middle" x="281.62" y="-58.62" font-family="Helvetica,sans-Serif" font-size="10.00">NodeTypeSet::getWithMatchingKept</text>
</a>
</g>
</g>
<!-- Node4&#45;&gt;Node5 -->
<g id="edge4_Node000004_Node000005" class="edge">
<title>Node4&#45;&gt;Node5</title>
<g id="a_edge4_Node000004_Node000005"><a xlink:title=" ">
<path fill="none" stroke="#63b8ff" d="M408.22,-61.75C397.99,-61.75 387.52,-61.75 377.2,-61.75"/>
<polygon fill="#63b8ff" stroke="#63b8ff" points="408.14,-65.25 418.14,-61.75 408.14,-58.25 408.14,-65.25"/>
</a>
</g>
</g>
<!-- Node7 -->
<g id="Node000007" class="node">
<title>Node7</title>
<g id="a_Node000007"><a xlink:href="classNodeTypeSet.html#a62c6bedc6f9346b59d698eef34614b17" target="_top" xlink:title=" ">
<polygon fill="white" stroke="#666666" points="366.12,-33.5 197.12,-33.5 197.12,0 366.12,0 366.12,-33.5"/>
<text text-anchor="start" x="205.12" y="-20" font-family="Helvetica,sans-Serif" font-size="10.00">NodeTypeSet::getWithMatching</text>
<text text-anchor="middle" x="281.62" y="-7.25" font-family="Helvetica,sans-Serif" font-size="10.00">Removed</text>
</a>
</g>
</g>
<!-- Node6&#45;&gt;Node7 -->
<g id="edge6_Node000006_Node000007" class="edge">
<title>Node6&#45;&gt;Node7</title>
<g id="a_edge6_Node000006_Node000007"><a xlink:title=" ">
<path fill="none" stroke="#63b8ff" d="M401.16,-18.42C389.57,-18.25 377.79,-18.09 366.38,-17.93"/>
<polygon fill="#63b8ff" stroke="#63b8ff" points="401.1,-21.92 411.15,-18.56 401.2,-14.92 401.1,-21.92"/>
</a>
</g>
</g>
<!-- Node8 -->
<g id="Node000008" class="node">
<title>Node8</title>
<g id="a_Node000008"><a xlink:href="classPersistentStorage.html#a6e9bf015702ab246b02e348a1ea6ae00" target="_top" xlink:title=" ">
<polygon fill="white" stroke="#666666" points="150.25,-33.5 0,-33.5 0,0 150.25,0 150.25,-33.5"/>
<text text-anchor="start" x="8" y="-20" font-family="Helvetica,sans-Serif" font-size="10.00">PersistentStorage::</text>
<text text-anchor="middle" x="75.12" y="-7.25" font-family="Helvetica,sans-Serif" font-size="10.00">getAutocompletionMatches</text>
</a>
</g>
</g>
<!-- Node7&#45;&gt;Node8 -->
<g id="edge7_Node000007_Node000008" class="edge">
<title>Node7&#45;&gt;Node8</title>
<g id="a_edge7_Node000007_Node000008"><a xlink:title=" ">
<path fill="none" stroke="#63b8ff" d="M185.64,-16.75C173.87,-16.75 161.98,-16.75 150.58,-16.75"/>
<polygon fill="#63b8ff" stroke="#63b8ff" points="185.34,-20.25 195.34,-16.75 185.34,-13.25 185.34,-20.25"/>
</a>
</g>
</g>
</g>
</svg>

<g id="navigator" transform="translate(0 0)" fill="#404254">
  <rect fill="#f2f5e9" fill-opacity="0.5" stroke="#606060" stroke-width=".5" x="0" y="0" width="60" height="60"/>
  <use id="zoomplus" xlink:href="#zoomPlus" x="17" y="9" onmousedown="handleZoom(evt,'in')"/>
  <use id="zoomminus" xlink:href="#zoomMin" x="42" y="9" onmousedown="handleZoom(evt,'out')"/>
  <use id="reset" xlink:href="#resetDef" x="30" y="36" onmousedown="handleReset()"/>
   <use id="arrowup" xlink:href="#arrowUp" x="0" y="0" onmousedown="handlePan(0,-1)"/>
  <use id="arrowright" xlink:href="#arrowRight" x="0" y="0" onmousedown="handlePan(1,0)"/>
  <use id="arrowdown" xlink:href="#arrowDown" x="0" y="0" onmousedown="handlePan(0,1)"/>
  <use id="arrowleft" xlink:href="#arrowLeft" x="0" y="0" onmousedown="handlePan(-1,0)"/>
</g>
<svg viewBox="0 0 15 15" width="100%" height="30px" preserveAspectRatio="xMaxYMin meet">
 <g id="arrow_out" transform="scale(0.3 0.3)">
  <a xlink:href="classNodeTypeSet_aa687a02512116e2afc75b945025ef18a_icgraph_org.svg" target="_base">
   <rect id="button" ry="5" rx="5" y="6" x="6" height="38" width="38"
        fill="#f2f5e9" fill-opacity="0.5" stroke="#606060" stroke-width="1.0"/>
   <path id="arrow"
     d="M 11.500037,31.436501 C 11.940474,20.09759 22.043105,11.32322 32.158766,21.979434 L 37.068811,17.246167 C 37.068811,17.246167 37.088388,32 37.088388,32 L 22.160133,31.978069 C 22.160133,31.978069 26.997745,27.140456 26.997745,27.140456 C 18.528582,18.264221 13.291696,25.230495 11.500037,31.436501 z"
     style="fill:#404040;"/>
  </a>
 </g>
</svg>

<style type='text/css'>
<![CDATA[
[data-mouse-over-selected='false'] { opacity: 0.7; }
[data-mouse-over-selected='true']  { opacity: 1.0; }
]]>
</style>
<script type="application/ecmascript"><![CDATA[
document.addEventListener('DOMContentLoaded', (event) => {
  highlightEdges();
  highlightAdjacentNodes();
});
]]></script>
</svg>
