<?xml version="1.0" encoding="UTF-8" standalone="no"?>
<!DOCTYPE svg PUBLIC "-//W3C//DTD SVG 1.1//EN"
 "http://www.w3.org/Graphics/SVG/1.1/DTD/svg11.dtd">
<!-- Generated by graphviz version 7.1.0 (0)
 -->
<!-- Title: QtCodeNavigator::setModeSingle Pages: 1 -->
<svg width="1180pt" height="410pt"
 viewBox="0.00 0.00 1180.00 409.50" xmlns="http://www.w3.org/2000/svg" xmlns:xlink="http://www.w3.org/1999/xlink">
<g id="graph0" class="graph" transform="scale(1 1) rotate(0) translate(4 405.5)">
<title>QtCodeNavigator::setModeSingle</title>
<!-- Node1 -->
<g id="node1" class="node">
<title>Node1</title>
<g id="a_node1"><a xlink:title=" ">
<polygon fill="#999999" stroke="#666666" points="149,-187.5 0,-187.5 0,-157.5 149,-157.5 149,-187.5"/>
<text text-anchor="start" x="8" y="-175.5" font-family="Helvetica,sans-Serif" font-size="10.00">QtCodeNavigator::setMode</text>
<text text-anchor="middle" x="74.5" y="-164.5" font-family="Helvetica,sans-Serif" font-size="10.00">Single</text>
</a>
</g>
</g>
<!-- Node2 -->
<g id="node2" class="node">
<title>Node2</title>
<g id="a_node2"><a xlink:href="classCodeFocusHandler.html#aaa426a1919c4f6017c505006f55106b6" target="_top" xlink:title=" ">
<polygon fill="white" stroke="#666666" points="358,-362.5 185,-362.5 185,-332.5 358,-332.5 358,-362.5"/>
<text text-anchor="start" x="193" y="-350.5" font-family="Helvetica,sans-Serif" font-size="10.00">CodeFocusHandler::clearCurrent</text>
<text text-anchor="middle" x="271.5" y="-339.5" font-family="Helvetica,sans-Serif" font-size="10.00">Focus</text>
</a>
</g>
</g>
<!-- Node1&#45;&gt;Node2 -->
<g id="edge1" class="edge">
<title>Node1&#45;&gt;Node2</title>
<path fill="none" stroke="#63b8ff" d="M87.2,-187.69C106.13,-211.67 145.36,-259.01 185,-292.5 199.71,-304.93 217.41,-316.75 232.88,-326.23"/>
<polygon fill="#63b8ff" stroke="#63b8ff" points="231,-329.18 241.38,-331.32 234.6,-323.18 231,-329.18"/>
</g>
<!-- Node10 -->
<g id="node10" class="node">
<title>Node10</title>
<g id="a_node10"><a xlink:href="classQtCodeFile.html#a74b22ae69600b0be6eb8acd5d8033cbc" target="_top" xlink:title=" ">
<polygon fill="white" stroke="#666666" points="350,-187.5 193,-187.5 193,-157.5 350,-157.5 350,-187.5"/>
<text text-anchor="start" x="201" y="-175.5" font-family="Helvetica,sans-Serif" font-size="10.00">QtCodeFile::clickedMaximize</text>
<text text-anchor="middle" x="271.5" y="-164.5" font-family="Helvetica,sans-Serif" font-size="10.00">Button</text>
</a>
</g>
</g>
<!-- Node1&#45;&gt;Node10 -->
<g id="edge10" class="edge">
<title>Node1&#45;&gt;Node10</title>
<path fill="none" stroke="#63b8ff" d="M149.5,-172.5C159.86,-172.5 170.61,-172.5 181.22,-172.5"/>
<polygon fill="#63b8ff" stroke="#63b8ff" points="181.14,-176 191.14,-172.5 181.14,-169 181.14,-176"/>
</g>
<!-- Node19 -->
<g id="node19" class="node">
<title>Node19</title>
<g id="a_node19"><a xlink:href="classCodeFocusHandler.html#a634d1f3ae2b688d246b04b58c73f76cb" target="_top" xlink:title=" ">
<polygon fill="white" stroke="#666666" points="353.5,-284 189.5,-284 189.5,-265 353.5,-265 353.5,-284"/>
<text text-anchor="middle" x="271.5" y="-272" font-family="Helvetica,sans-Serif" font-size="10.00">CodeFocusHandler::focusView</text>
</a>
</g>
</g>
<!-- Node1&#45;&gt;Node19 -->
<g id="edge21" class="edge">
<title>Node1&#45;&gt;Node19</title>
<path fill="none" stroke="#63b8ff" d="M105.12,-187.99C142.06,-207.32 204.83,-240.15 241.49,-259.32"/>
<polygon fill="#63b8ff" stroke="#63b8ff" points="239.71,-262.34 250.19,-263.88 242.95,-256.14 239.71,-262.34"/>
</g>
<!-- Node20 -->
<g id="node20" class="node">
<title>Node20</title>
<g id="a_node20"><a xlink:href="classQtCodeFileList.html#afdde6971d0c721bd7670c9aa8a0c6b5b" target="_top" xlink:title=" ">
<polygon fill="white" stroke="#666666" points="340,-139.5 203,-139.5 203,-109.5 340,-109.5 340,-139.5"/>
<text text-anchor="start" x="211" y="-127.5" font-family="Helvetica,sans-Serif" font-size="10.00">QtCodeFileList::getFirst</text>
<text text-anchor="middle" x="271.5" y="-116.5" font-family="Helvetica,sans-Serif" font-size="10.00">FileWithActiveLocationId</text>
</a>
</g>
</g>
<!-- Node1&#45;&gt;Node20 -->
<g id="edge23" class="edge">
<title>Node1&#45;&gt;Node20</title>
<path fill="none" stroke="#63b8ff" d="M138.27,-157.05C156.89,-152.47 177.44,-147.41 196.69,-142.67"/>
<polygon fill="#63b8ff" stroke="#63b8ff" points="197.5,-146.07 206.38,-140.28 195.83,-139.28 197.5,-146.07"/>
</g>
<!-- Node21 -->
<g id="node21" class="node">
<title>Node21</title>
<g id="a_node21"><a xlink:href="classQtCodeFileList.html#adaa835d57881e6ec2be932dc2cd80754" target="_top" xlink:title=" ">
<polygon fill="white" stroke="#666666" points="342,-91.5 201,-91.5 201,-61.5 342,-61.5 342,-91.5"/>
<text text-anchor="start" x="209" y="-79.5" font-family="Helvetica,sans-Serif" font-size="10.00">QtCodeFileList::maximize</text>
<text text-anchor="middle" x="271.5" y="-68.5" font-family="Helvetica,sans-Serif" font-size="10.00">FirstFile</text>
</a>
</g>
</g>
<!-- Node1&#45;&gt;Node21 -->
<g id="edge24" class="edge">
<title>Node1&#45;&gt;Node21</title>
<path fill="none" stroke="#63b8ff" d="M94.61,-157.28C115.66,-141.17 151.05,-115.98 185,-100.5 188.73,-98.8 192.6,-97.2 196.55,-95.69"/>
<polygon fill="#63b8ff" stroke="#63b8ff" points="197.47,-99.07 205.71,-92.41 195.12,-92.48 197.47,-99.07"/>
</g>
<!-- Node3 -->
<g id="node3" class="node">
<title>Node3</title>
<g id="a_node3"><a xlink:href="classCodeFocusHandler.html#a6cba54f52c7627d75c0846ed76d88957" target="_top" xlink:title=" ">
<polygon fill="white" stroke="#666666" points="565.5,-377.5 401.5,-377.5 401.5,-347.5 565.5,-347.5 565.5,-377.5"/>
<text text-anchor="start" x="409.5" y="-365.5" font-family="Helvetica,sans-Serif" font-size="10.00">CodeFocusHandler::setCurrent</text>
<text text-anchor="middle" x="483.5" y="-354.5" font-family="Helvetica,sans-Serif" font-size="10.00">Focus</text>
</a>
</g>
</g>
<!-- Node2&#45;&gt;Node3 -->
<g id="edge2" class="edge">
<title>Node2&#45;&gt;Node3</title>
<path fill="none" stroke="#63b8ff" d="M358.22,-353.62C368.63,-354.37 379.3,-355.13 389.81,-355.88"/>
<polygon fill="#63b8ff" stroke="#63b8ff" points="389.39,-359.36 399.61,-356.58 389.89,-352.38 389.39,-359.36"/>
</g>
<!-- Node4 -->
<g id="node4" class="node">
<title>Node4</title>
<g id="a_node4"><a xlink:href="classMessage.html#aa60564025ee950bf52c8deb6ac1bb843" target="_top" xlink:title=" ">
<polygon fill="white" stroke="#666666" points="744,-310 637,-310 637,-291 744,-291 744,-310"/>
<text text-anchor="middle" x="690.5" y="-298" font-family="Helvetica,sans-Serif" font-size="10.00">Message::dispatch</text>
</a>
</g>
</g>
<!-- Node3&#45;&gt;Node4 -->
<g id="edge3" class="edge">
<title>Node3&#45;&gt;Node4</title>
<path fill="none" stroke="#63b8ff" d="M533.35,-347.02C546.29,-342.77 560.21,-338.08 573,-333.5 589.16,-327.71 592.61,-324.6 609,-319.5 616.19,-317.27 623.8,-315.15 631.37,-313.2"/>
<polygon fill="#63b8ff" stroke="#63b8ff" points="632.05,-316.64 640.91,-310.83 630.36,-309.85 632.05,-316.64"/>
</g>
<!-- Node7 -->
<g id="node7" class="node">
<title>Node7</title>
<g id="a_node7"><a xlink:href="classCodeFocusHandler.html#a490e77f69ddbfb9839de943c88817683" target="_top" xlink:title=" ">
<polygon fill="white" stroke="#666666" points="760.5,-396 620.5,-396 620.5,-377 760.5,-377 760.5,-396"/>
<text text-anchor="middle" x="690.5" y="-384" font-family="Helvetica,sans-Serif" font-size="10.00">CodeFocusHandler::focus</text>
</a>
</g>
</g>
<!-- Node3&#45;&gt;Node7 -->
<g id="edge6" class="edge">
<title>Node3&#45;&gt;Node7</title>
<path fill="none" stroke="#63b8ff" d="M565.82,-365.4C590.66,-368 617.24,-371.35 639.37,-374.74"/>
<polygon fill="#63b8ff" stroke="#63b8ff" points="638.59,-378.15 649.01,-376.26 639.68,-371.24 638.59,-378.15"/>
</g>
<!-- Node9 -->
<g id="node9" class="node">
<title>Node9</title>
<g id="a_node9"><a xlink:href="classCodeFocusHandler.html#a06f799c6b1b33d77618fc5150f06b32e" target="_top" xlink:title=" ">
<polygon fill="white" stroke="#666666" points="764,-358.5 617,-358.5 617,-328.5 764,-328.5 764,-358.5"/>
<text text-anchor="start" x="625" y="-346.5" font-family="Helvetica,sans-Serif" font-size="10.00">CodeFocusHandler::update</text>
<text text-anchor="middle" x="690.5" y="-335.5" font-family="Helvetica,sans-Serif" font-size="10.00">Files</text>
</a>
</g>
</g>
<!-- Node3&#45;&gt;Node9 -->
<g id="edge9" class="edge">
<title>Node3&#45;&gt;Node9</title>
<path fill="none" stroke="#63b8ff" d="M565.82,-354.96C578.78,-353.76 592.23,-352.52 605.26,-351.31"/>
<polygon fill="#63b8ff" stroke="#63b8ff" points="605.45,-354.81 615.08,-350.4 604.8,-347.84 605.45,-354.81"/>
</g>
<!-- Node5 -->
<g id="node5" class="node">
<title>Node5</title>
<g id="a_node5"><a xlink:href="classMessageQueue.html#ae42d768ad6ffd631d627fe101e38f711" target="_top" xlink:title=" ">
<polygon fill="white" stroke="#666666" points="963,-310 808,-310 808,-291 963,-291 963,-310"/>
<text text-anchor="middle" x="885.5" y="-298" font-family="Helvetica,sans-Serif" font-size="10.00">MessageQueue::getInstance</text>
</a>
</g>
</g>
<!-- Node4&#45;&gt;Node5 -->
<g id="edge4" class="edge">
<title>Node4&#45;&gt;Node5</title>
<path fill="none" stroke="#63b8ff" d="M744.49,-300.5C760.59,-300.5 778.73,-300.5 796.48,-300.5"/>
<polygon fill="#63b8ff" stroke="#63b8ff" points="796.25,-304 806.25,-300.5 796.25,-297 796.25,-304"/>
</g>
<!-- Node6 -->
<g id="node6" class="node">
<title>Node6</title>
<g id="a_node6"><a xlink:href="classMessageQueue.html#a006069f4b83d2372c989c52784fac5de" target="_top" xlink:title=" ">
<polygon fill="white" stroke="#666666" points="1172,-310 999,-310 999,-291 1172,-291 1172,-310"/>
<text text-anchor="middle" x="1085.5" y="-298" font-family="Helvetica,sans-Serif" font-size="10.00">MessageQueue::MessageQueue</text>
</a>
</g>
</g>
<!-- Node5&#45;&gt;Node6 -->
<g id="edge5" class="edge">
<title>Node5&#45;&gt;Node6</title>
<path fill="none" stroke="#63b8ff" d="M963.34,-300.5C971.17,-300.5 979.19,-300.5 987.21,-300.5"/>
<polygon fill="#63b8ff" stroke="#63b8ff" points="986.99,-304 996.99,-300.5 986.99,-297 986.99,-304"/>
</g>
<!-- Node7&#45;&gt;Node3 -->
<g id="edge8" class="edge">
<title>Node7&#45;&gt;Node3</title>
<path fill="none" stroke="#63b8ff" d="M620.21,-384.81C604.7,-383.31 588.05,-381.45 571.91,-379.42"/>
<polygon fill="#63b8ff" stroke="#63b8ff" points="572.7,-375.99 562.34,-378.18 571.8,-382.93 572.7,-375.99"/>
</g>
<!-- Node8 -->
<g id="node8" class="node">
<title>Node8</title>
<g id="a_node8"><a xlink:href="structCodeFocusHandler_1_1Focus.html#acb42596bc1f6572b7b8b396db1280bf3" target="_top" xlink:title=" ">
<polygon fill="white" stroke="#666666" points="956,-401.5 815,-401.5 815,-371.5 956,-371.5 956,-401.5"/>
<text text-anchor="start" x="823" y="-389.5" font-family="Helvetica,sans-Serif" font-size="10.00">CodeFocusHandler::Focus</text>
<text text-anchor="middle" x="885.5" y="-378.5" font-family="Helvetica,sans-Serif" font-size="10.00">::isEmpty</text>
</a>
</g>
</g>
<!-- Node7&#45;&gt;Node8 -->
<g id="edge7" class="edge">
<title>Node7&#45;&gt;Node8</title>
<path fill="none" stroke="#63b8ff" d="M760.9,-386.5C774.72,-386.5 789.34,-386.5 803.5,-386.5"/>
<polygon fill="#63b8ff" stroke="#63b8ff" points="803.22,-390 813.22,-386.5 803.22,-383 803.22,-390"/>
</g>
<!-- Node10&#45;&gt;Node4 -->
<g id="edge11" class="edge">
<title>Node10&#45;&gt;Node4</title>
<path fill="none" stroke="#63b8ff" d="M287.8,-187.77C309.41,-208.31 351.05,-244.26 394,-261.5 434.82,-277.89 551.76,-289.71 625.71,-295.8"/>
<polygon fill="#63b8ff" stroke="#63b8ff" points="624.98,-299.26 635.23,-296.57 625.55,-292.28 624.98,-299.26"/>
</g>
<!-- Node11 -->
<g id="node11" class="node">
<title>Node11</title>
<g id="a_node11"><a xlink:href="classQtCodeFile.html#aa508403a9e8545d5a8c564eb9ff2bc33" target="_top" xlink:title=" ">
<polygon fill="white" stroke="#666666" points="557.5,-215.5 409.5,-215.5 409.5,-185.5 557.5,-185.5 557.5,-215.5"/>
<text text-anchor="start" x="417.5" y="-203.5" font-family="Helvetica,sans-Serif" font-size="10.00">QtCodeFile::getFirstSnippet</text>
<text text-anchor="middle" x="483.5" y="-192.5" font-family="Helvetica,sans-Serif" font-size="10.00">WithActiveLocationId</text>
</a>
</g>
</g>
<!-- Node10&#45;&gt;Node11 -->
<g id="edge12" class="edge">
<title>Node10&#45;&gt;Node11</title>
<path fill="none" stroke="#63b8ff" d="M350.4,-182.89C365.9,-184.95 382.24,-187.13 397.95,-189.23"/>
<polygon fill="#63b8ff" stroke="#63b8ff" points="397.38,-192.68 407.75,-190.53 398.3,-185.74 397.38,-192.68"/>
</g>
<!-- Node12 -->
<g id="node12" class="node">
<title>Node12</title>
<g id="a_node12"><a xlink:href="classQtCodeNavigator.html#a1656afa59c32d9e5c97fab8e1b37f8fe" target="_top" xlink:title=" ">
<polygon fill="white" stroke="#666666" points="573,-167 394,-167 394,-148 573,-148 573,-167"/>
<text text-anchor="middle" x="483.5" y="-155" font-family="Helvetica,sans-Serif" font-size="10.00">QtCodeNavigator::getSchedulerId</text>
</a>
</g>
</g>
<!-- Node10&#45;&gt;Node12 -->
<g id="edge13" class="edge">
<title>Node10&#45;&gt;Node12</title>
<path fill="none" stroke="#63b8ff" d="M350.4,-166.94C360.88,-166.19 371.75,-165.41 382.55,-164.64"/>
<polygon fill="#63b8ff" stroke="#63b8ff" points="382.52,-168.15 392.25,-163.95 382.02,-161.17 382.52,-168.15"/>
</g>
<!-- Node13 -->
<g id="node13" class="node">
<title>Node13</title>
<g id="a_node13"><a xlink:href="classQtCodeFile.html#adf7b1a9b7473adfa0b3d10ce61003da7" target="_top" xlink:title=" ">
<polygon fill="white" stroke="#666666" points="566.5,-130 400.5,-130 400.5,-111 566.5,-111 566.5,-130"/>
<text text-anchor="middle" x="483.5" y="-118" font-family="Helvetica,sans-Serif" font-size="10.00">QtCodeFile::getVisibleSnippets</text>
</a>
</g>
</g>
<!-- Node10&#45;&gt;Node13 -->
<g id="edge14" class="edge">
<title>Node10&#45;&gt;Node13</title>
<path fill="none" stroke="#63b8ff" d="M327.42,-157.09C358.76,-148.3 392.21,-138.93 394,-138.5 402.16,-136.53 410.78,-134.6 419.31,-132.77"/>
<polygon fill="#63b8ff" stroke="#63b8ff" points="419.87,-136.23 428.94,-130.75 418.43,-129.38 419.87,-136.23"/>
</g>
<!-- Node14 -->
<g id="node14" class="node">
<title>Node14</title>
<g id="a_node14"><a xlink:href="classQtCodeNavigator.html#a23721fb81b6766e1077216242bac171c" target="_top" xlink:title=" ">
<polygon fill="white" stroke="#666666" points="558,-93 409,-93 409,-74 558,-74 558,-93"/>
<text text-anchor="middle" x="483.5" y="-81" font-family="Helvetica,sans-Serif" font-size="10.00">QtCodeNavigator::setMode</text>
</a>
</g>
</g>
<!-- Node10&#45;&gt;Node14 -->
<g id="edge15" class="edge">
<title>Node10&#45;&gt;Node14</title>
<path fill="none" stroke="#63b8ff" d="M342.36,-157.08C347.86,-154.62 353.15,-151.79 358,-148.5 379.78,-133.74 371.69,-115.45 394,-101.5 396.03,-100.23 398.12,-99.05 400.28,-97.96"/>
<polygon fill="#63b8ff" stroke="#63b8ff" points="401.57,-101.21 409.33,-93.99 398.76,-94.8 401.57,-101.21"/>
</g>
<!-- Node15 -->
<g id="node15" class="node">
<title>Node15</title>
<g id="a_node15"><a xlink:href="classMessageBase.html#a78b74840a194c335f7ce17712e97e136" target="_top" xlink:title=" ">
<polygon fill="white" stroke="#666666" points="564.5,-56 402.5,-56 402.5,-37 564.5,-37 564.5,-56"/>
<text text-anchor="middle" x="483.5" y="-44" font-family="Helvetica,sans-Serif" font-size="10.00">MessageBase::setSchedulerId</text>
</a>
</g>
</g>
<!-- Node10&#45;&gt;Node15 -->
<g id="edge16" class="edge">
<title>Node10&#45;&gt;Node15</title>
<path fill="none" stroke="#63b8ff" d="M345.81,-157C350.17,-154.57 354.29,-151.75 358,-148.5 388.54,-121.72 362.5,-90.14 394,-64.5 394.97,-63.71 395.97,-62.95 396.99,-62.22"/>
<polygon fill="#63b8ff" stroke="#63b8ff" points="398.61,-65.33 405.44,-57.22 395.05,-59.3 398.61,-65.33"/>
</g>
<!-- Node16 -->
<g id="node16" class="node">
<title>Node16</title>
<g id="a_node16"><a xlink:href="structCodeScrollParams.html#a6ff87237d484100131ec72880b578708" target="_top" xlink:title=" ">
<polygon fill="white" stroke="#666666" points="554,-19 413,-19 413,0 554,0 554,-19"/>
<text text-anchor="middle" x="483.5" y="-7" font-family="Helvetica,sans-Serif" font-size="10.00">CodeScrollParams::toLine</text>
</a>
</g>
</g>
<!-- Node10&#45;&gt;Node16 -->
<g id="edge17" class="edge">
<title>Node10&#45;&gt;Node16</title>
<path fill="none" stroke="#63b8ff" d="M346.65,-157.24C350.76,-154.75 354.59,-151.85 358,-148.5 397.98,-109.14 352.61,-65.38 394,-27.5 396.63,-25.09 399.5,-22.97 402.53,-21.1"/>
<polygon fill="#63b8ff" stroke="#63b8ff" points="404.02,-24.27 411.37,-16.64 400.87,-18.02 404.02,-24.27"/>
</g>
<!-- Node18 -->
<g id="node18" class="node">
<title>Node18</title>
<g id="a_node18"><a xlink:href="structCodeScrollParams.html#a429e03699961c71795e2c5ad23938f9c" target="_top" xlink:title=" ">
<polygon fill="white" stroke="#666666" points="568.5,-253 398.5,-253 398.5,-234 568.5,-234 568.5,-253"/>
<text text-anchor="middle" x="483.5" y="-241" font-family="Helvetica,sans-Serif" font-size="10.00">CodeScrollParams::toReference</text>
</a>
</g>
</g>
<!-- Node10&#45;&gt;Node18 -->
<g id="edge19" class="edge">
<title>Node10&#45;&gt;Node18</title>
<path fill="none" stroke="#63b8ff" d="M303.84,-187.9C328.01,-199.28 362.51,-214.49 394,-224.5 401.43,-226.86 409.31,-229.02 417.17,-230.97"/>
<polygon fill="#63b8ff" stroke="#63b8ff" points="416.23,-234.35 426.77,-233.24 417.84,-227.53 416.23,-234.35"/>
</g>
<!-- Node17 -->
<g id="node17" class="node">
<title>Node17</title>
<g id="a_node17"><a xlink:href="structCodeScrollParams.html#a81306e63fc903009522b84aa62ce1bcf" target="_top" xlink:title=" ">
<polygon fill="white" stroke="#666666" points="772,-158.5 609,-158.5 609,-128.5 772,-128.5 772,-158.5"/>
<text text-anchor="start" x="617" y="-146.5" font-family="Helvetica,sans-Serif" font-size="10.00">CodeScrollParams::CodeScroll</text>
<text text-anchor="middle" x="690.5" y="-135.5" font-family="Helvetica,sans-Serif" font-size="10.00">Params</text>
</a>
</g>
</g>
<!-- Node16&#45;&gt;Node17 -->
<g id="edge18" class="edge">
<title>Node16&#45;&gt;Node17</title>
<path fill="none" stroke="#63b8ff" d="M553.55,-19.38C560.31,-21.57 566.92,-24.24 573,-27.5 614.9,-49.95 651.59,-92.29 672.11,-119.13"/>
<polygon fill="#63b8ff" stroke="#63b8ff" points="669.23,-121.12 678.02,-127.04 674.84,-116.94 669.23,-121.12"/>
</g>
<!-- Node18&#45;&gt;Node17 -->
<g id="edge20" class="edge">
<title>Node18&#45;&gt;Node17</title>
<path fill="none" stroke="#63b8ff" d="M545.96,-233.62C555.21,-231.19 564.49,-228.19 573,-224.5 606.96,-209.76 641.2,-184.41 663.69,-165.99"/>
<polygon fill="#63b8ff" stroke="#63b8ff" points="665.68,-168.88 671.12,-159.78 661.2,-163.5 665.68,-168.88"/>
</g>
<!-- Node19&#45;&gt;Node4 -->
<g id="edge22" class="edge">
<title>Node19&#45;&gt;Node4</title>
<path fill="none" stroke="#63b8ff" d="M320.17,-284.49C342.48,-288.72 369.49,-293.19 394,-295.5 473.42,-302.99 565.37,-303.23 625.33,-302.26"/>
<polygon fill="#63b8ff" stroke="#63b8ff" points="625.07,-305.76 635,-302.08 624.94,-298.76 625.07,-305.76"/>
</g>
</g>
</svg>
