<?xml version="1.0" encoding="UTF-8" standalone="no"?>
<!DOCTYPE svg PUBLIC "-//W3C//DTD SVG 1.1//EN"
 "http://www.w3.org/Graphics/SVG/1.1/DTD/svg11.dtd">
<!-- Generated by graphviz version 7.1.0 (0)
 -->
<!-- Title: ProjectSettings::needMigration Pages: 1 -->
<svg width="921pt" height="296pt"
 viewBox="0.00 0.00 921.00 295.50" xmlns="http://www.w3.org/2000/svg" xmlns:xlink="http://www.w3.org/1999/xlink">
<g id="graph0" class="graph" transform="scale(1 1) rotate(0) translate(4 291.5)">
<title>ProjectSettings::needMigration</title>
<!-- Node1 -->
<g id="node1" class="node">
<title>Node1</title>
<g id="a_node1"><a xlink:title=" ">
<polygon fill="#999999" stroke="#666666" points="167,-121.5 0,-121.5 0,-102.5 167,-102.5 167,-121.5"/>
<text text-anchor="middle" x="83.5" y="-109.5" font-family="Helvetica,sans-Serif" font-size="10.00">ProjectSettings::needMigration</text>
</a>
</g>
</g>
<!-- Node2 -->
<g id="node2" class="node">
<title>Node2</title>
<g id="a_node2"><a xlink:href="classProjectSettings.html#afeae7d6d10afd7e12007013f62db1958" target="_top" xlink:title=" ">
<polygon fill="white" stroke="#666666" points="367,-158.5 203,-158.5 203,-139.5 367,-139.5 367,-158.5"/>
<text text-anchor="middle" x="285" y="-146.5" font-family="Helvetica,sans-Serif" font-size="10.00">ProjectSettings::getMigrations</text>
</a>
</g>
</g>
<!-- Node1&#45;&gt;Node2 -->
<g id="edge1" class="edge">
<title>Node1&#45;&gt;Node2</title>
<path fill="none" stroke="#63b8ff" d="M138.22,-121.96C163.17,-126.59 193.03,-132.13 219.21,-136.98"/>
<polygon fill="#63b8ff" stroke="#63b8ff" points="218.22,-140.36 228.69,-138.74 219.5,-133.48 218.22,-140.36"/>
</g>
<!-- Node15 -->
<g id="node15" class="node">
<title>Node15</title>
<g id="a_node15"><a xlink:href="classSettings.html#a40b8a941d49c2584e2ba1f8e18aab29b" target="_top" xlink:title=" ">
<polygon fill="white" stroke="#666666" points="342.5,-121.5 227.5,-121.5 227.5,-102.5 342.5,-102.5 342.5,-121.5"/>
<text text-anchor="middle" x="285" y="-109.5" font-family="Helvetica,sans-Serif" font-size="10.00">Settings::getVersion</text>
</a>
</g>
</g>
<!-- Node1&#45;&gt;Node15 -->
<g id="edge15" class="edge">
<title>Node1&#45;&gt;Node15</title>
<path fill="none" stroke="#63b8ff" d="M167.37,-112C183.57,-112 200.38,-112 216.02,-112"/>
<polygon fill="#63b8ff" stroke="#63b8ff" points="215.66,-115.5 225.66,-112 215.66,-108.5 215.66,-115.5"/>
</g>
<!-- Node16 -->
<g id="node16" class="node">
<title>Node16</title>
<g id="a_node16"><a xlink:href="classMigrator.html#aff01ab8190ee25fedf35b12551d438b6" target="_top" xlink:title=" ">
<polygon fill="white" stroke="#666666" points="344.5,-84.5 225.5,-84.5 225.5,-65.5 344.5,-65.5 344.5,-84.5"/>
<text text-anchor="middle" x="285" y="-72.5" font-family="Helvetica,sans-Serif" font-size="10.00">Migrator::willMigrate</text>
</a>
</g>
</g>
<!-- Node1&#45;&gt;Node16 -->
<g id="edge16" class="edge">
<title>Node1&#45;&gt;Node16</title>
<path fill="none" stroke="#63b8ff" d="M138.22,-102.04C163.17,-97.41 193.03,-91.87 219.21,-87.02"/>
<polygon fill="#63b8ff" stroke="#63b8ff" points="219.5,-90.52 228.69,-85.26 218.22,-83.64 219.5,-90.52"/>
</g>
<!-- Node3 -->
<g id="node3" class="node">
<title>Node3</title>
<g id="a_node3"><a xlink:href="classMigrator.html#a284ca9eb85170ecf3503b73ac153adb0" target="_top" xlink:title=" ">
<polygon fill="white" stroke="#666666" points="546,-287.5 418,-287.5 418,-268.5 546,-268.5 546,-287.5"/>
<text text-anchor="middle" x="482" y="-275.5" font-family="Helvetica,sans-Serif" font-size="10.00">Migrator::addMigration</text>
</a>
</g>
</g>
<!-- Node2&#45;&gt;Node3 -->
<g id="edge2" class="edge">
<title>Node2&#45;&gt;Node3</title>
<path fill="none" stroke="#63b8ff" d="M293.56,-159C310.58,-180.76 354.22,-232.56 403,-259 406.47,-260.88 410.14,-262.58 413.9,-264.12"/>
<polygon fill="#63b8ff" stroke="#63b8ff" points="412.7,-267.4 423.29,-267.5 415.07,-260.82 412.7,-267.4"/>
</g>
<!-- Node4 -->
<g id="node4" class="node">
<title>Node4</title>
<g id="a_node4"><a xlink:href="classProjectSettings.html#a6211c20b91a35e884a1adc176ca94b7c" target="_top" xlink:title=" ">
<polygon fill="white" stroke="#666666" points="561,-250 403,-250 403,-220 561,-220 561,-250"/>
<text text-anchor="start" x="411" y="-238" font-family="Helvetica,sans-Serif" font-size="10.00">ProjectSettings::getAllSource</text>
<text text-anchor="middle" x="482" y="-227" font-family="Helvetica,sans-Serif" font-size="10.00">GroupSettings</text>
</a>
</g>
</g>
<!-- Node2&#45;&gt;Node4 -->
<g id="edge3" class="edge">
<title>Node2&#45;&gt;Node4</title>
<path fill="none" stroke="#63b8ff" d="M304.79,-158.86C327.68,-170.7 367.69,-190.88 403,-206 410.58,-209.25 418.65,-212.49 426.63,-215.56"/>
<polygon fill="#63b8ff" stroke="#63b8ff" points="425.38,-218.83 435.97,-219.1 427.86,-212.28 425.38,-218.83"/>
</g>
<!-- Node6 -->
<g id="node6" class="node">
<title>Node6</title>
<g id="a_node6"><a xlink:href="SourceGroupType_8cpp.html#a0514a21d54f7f00085b3411ee63719d8" target="_top" xlink:title=" ">
<polygon fill="white" stroke="#666666" points="913,-221.5 773,-221.5 773,-202.5 913,-202.5 913,-221.5"/>
<text text-anchor="middle" x="843" y="-209.5" font-family="Helvetica,sans-Serif" font-size="10.00">sourceGroupTypeToString</text>
</a>
</g>
</g>
<!-- Node2&#45;&gt;Node6 -->
<g id="edge14" class="edge">
<title>Node2&#45;&gt;Node6</title>
<path fill="none" stroke="#63b8ff" d="M328.58,-158.95C350.68,-163.8 378.18,-169.36 403,-173 527.39,-191.22 672.93,-202.12 761.25,-207.59"/>
<polygon fill="#63b8ff" stroke="#63b8ff" points="760.82,-211.07 771.01,-208.18 761.25,-204.08 760.82,-211.07"/>
</g>
<!-- Node7 -->
<g id="node7" class="node">
<title>Node7</title>
<g id="a_node7"><a xlink:href="LanguageType_8cpp.html#ad1f4f5ae8e6b8b3fe69579ee08fc08dc" target="_top" xlink:title=" ">
<polygon fill="white" stroke="#666666" points="557,-164 407,-164 407,-134 557,-134 557,-164"/>
<text text-anchor="start" x="415" y="-152" font-family="Helvetica,sans-Serif" font-size="10.00">getLanguageTypeForSource</text>
<text text-anchor="middle" x="482" y="-141" font-family="Helvetica,sans-Serif" font-size="10.00">GroupType</text>
</a>
</g>
</g>
<!-- Node2&#45;&gt;Node7 -->
<g id="edge6" class="edge">
<title>Node2&#45;&gt;Node7</title>
<path fill="none" stroke="#63b8ff" d="M367.29,-149C376.57,-149 386.06,-149 395.4,-149"/>
<polygon fill="#63b8ff" stroke="#63b8ff" points="395.19,-152.5 405.19,-149 395.19,-145.5 395.19,-152.5"/>
</g>
<!-- Node8 -->
<g id="node8" class="node">
<title>Node8</title>
<g id="a_node8"><a xlink:href="namespaceutility.html#a34a8a3e09fde7002644db59ab2a59b4b" target="_top" xlink:title=" ">
<polygon fill="white" stroke="#666666" points="540.5,-115.5 423.5,-115.5 423.5,-96.5 540.5,-96.5 540.5,-115.5"/>
<text text-anchor="middle" x="482" y="-103.5" font-family="Helvetica,sans-Serif" font-size="10.00">utility::getUuidString</text>
</a>
</g>
</g>
<!-- Node2&#45;&gt;Node8 -->
<g id="edge7" class="edge">
<title>Node2&#45;&gt;Node8</title>
<path fill="none" stroke="#63b8ff" d="M331.23,-139.03C359.06,-132.89 394.97,-124.97 424.64,-118.43"/>
<polygon fill="#63b8ff" stroke="#63b8ff" points="425.19,-121.89 434.2,-116.32 423.68,-115.05 425.19,-121.89"/>
</g>
<!-- Node11 -->
<g id="node11" class="node">
<title>Node11</title>
<g id="a_node11"><a xlink:href="classSettingsMigration.html#ab4aa1de19151b15bb17515323f2c03b0" target="_top" xlink:title=" ">
<polygon fill="white" stroke="#666666" points="544.5,-78 419.5,-78 419.5,-48 544.5,-48 544.5,-78"/>
<text text-anchor="start" x="427.5" y="-66" font-family="Helvetica,sans-Serif" font-size="10.00">SettingsMigration::</text>
<text text-anchor="middle" x="482" y="-55" font-family="Helvetica,sans-Serif" font-size="10.00">getValueFromSettings</text>
</a>
</g>
</g>
<!-- Node2&#45;&gt;Node11 -->
<g id="edge10" class="edge">
<title>Node2&#45;&gt;Node11</title>
<path fill="none" stroke="#63b8ff" d="M349.92,-139.04C355.91,-136.86 361.71,-134.22 367,-131 388.3,-118.05 382.32,-101.91 403,-88 405.51,-86.31 408.15,-84.73 410.87,-83.25"/>
<polygon fill="#63b8ff" stroke="#63b8ff" points="412.18,-86.5 419.65,-78.99 409.13,-80.2 412.18,-86.5"/>
</g>
<!-- Node13 -->
<g id="node13" class="node">
<title>Node13</title>
<g id="a_node13"><a xlink:href="classSettingsMigration.html#ae72a479f4787faa43b601ea1a4b49217" target="_top" xlink:title=" ">
<polygon fill="white" stroke="#666666" points="536.5,-30 427.5,-30 427.5,0 536.5,0 536.5,-30"/>
<text text-anchor="start" x="435.5" y="-18" font-family="Helvetica,sans-Serif" font-size="10.00">SettingsMigration::</text>
<text text-anchor="middle" x="482" y="-7" font-family="Helvetica,sans-Serif" font-size="10.00">setValueInSettings</text>
</a>
</g>
</g>
<!-- Node2&#45;&gt;Node13 -->
<g id="edge12" class="edge">
<title>Node2&#45;&gt;Node13</title>
<path fill="none" stroke="#63b8ff" d="M354.7,-139.06C359.12,-136.84 363.28,-134.19 367,-131 400.35,-102.44 370.82,-68.87 403,-39 407.18,-35.12 411.97,-31.87 417.07,-29.15"/>
<polygon fill="#63b8ff" stroke="#63b8ff" points="418.18,-32.49 425.83,-25.15 415.28,-26.12 418.18,-32.49"/>
</g>
<!-- Node5 -->
<g id="node5" class="node">
<title>Node5</title>
<g id="a_node5"><a xlink:href="SourceGroupType_8cpp.html#aca096ea3f95ec2bccfd18edc07d8c7ac" target="_top" xlink:title=" ">
<polygon fill="white" stroke="#666666" points="737,-241.5 597,-241.5 597,-222.5 737,-222.5 737,-241.5"/>
<text text-anchor="middle" x="667" y="-229.5" font-family="Helvetica,sans-Serif" font-size="10.00">stringToSourceGroupType</text>
</a>
</g>
</g>
<!-- Node4&#45;&gt;Node5 -->
<g id="edge4" class="edge">
<title>Node4&#45;&gt;Node5</title>
<path fill="none" stroke="#63b8ff" d="M561.4,-233.71C569.29,-233.59 577.31,-233.45 585.22,-233.32"/>
<polygon fill="#63b8ff" stroke="#63b8ff" points="585.25,-236.82 595.19,-233.16 585.14,-229.83 585.25,-236.82"/>
</g>
<!-- Node5&#45;&gt;Node6 -->
<g id="edge5" class="edge">
<title>Node5&#45;&gt;Node6</title>
<path fill="none" stroke="#63b8ff" d="M737.27,-224.04C745.19,-223.13 753.32,-222.19 761.38,-221.27"/>
<polygon fill="#63b8ff" stroke="#63b8ff" points="761.65,-224.76 771.18,-220.14 760.85,-217.8 761.65,-224.76"/>
</g>
<!-- Node9 -->
<g id="node9" class="node">
<title>Node9</title>
<g id="a_node9"><a xlink:href="namespaceutility.html#aa535ea159c4aa0adb78b191c638a54d9" target="_top" xlink:title=" ">
<polygon fill="white" stroke="#666666" points="711.5,-149.5 622.5,-149.5 622.5,-130.5 711.5,-130.5 711.5,-149.5"/>
<text text-anchor="middle" x="667" y="-137.5" font-family="Helvetica,sans-Serif" font-size="10.00">utility::getUuid</text>
</a>
</g>
</g>
<!-- Node8&#45;&gt;Node9 -->
<g id="edge8" class="edge">
<title>Node8&#45;&gt;Node9</title>
<path fill="none" stroke="#63b8ff" d="M536.42,-115.93C559.81,-120.27 587.25,-125.37 610.83,-129.75"/>
<polygon fill="#63b8ff" stroke="#63b8ff" points="610.11,-133.18 620.58,-131.56 611.39,-126.29 610.11,-133.18"/>
</g>
<!-- Node10 -->
<g id="node10" class="node">
<title>Node10</title>
<g id="a_node10"><a xlink:href="namespaceutility.html#af74967d66fb4d53a94457015432afc2b" target="_top" xlink:title=" ">
<polygon fill="white" stroke="#666666" points="722,-112.5 612,-112.5 612,-93.5 722,-93.5 722,-112.5"/>
<text text-anchor="middle" x="667" y="-100.5" font-family="Helvetica,sans-Serif" font-size="10.00">utility::uuidToString</text>
</a>
</g>
</g>
<!-- Node8&#45;&gt;Node10 -->
<g id="edge9" class="edge">
<title>Node8&#45;&gt;Node10</title>
<path fill="none" stroke="#63b8ff" d="M540.9,-105.05C559.72,-104.74 580.74,-104.4 600.1,-104.08"/>
<polygon fill="#63b8ff" stroke="#63b8ff" points="600.13,-107.58 610.08,-103.92 600.02,-100.58 600.13,-107.58"/>
</g>
<!-- Node12 -->
<g id="node12" class="node">
<title>Node12</title>
<g id="a_node12"><a xlink:href="classSettings.html#a2f3b8756fcb6e3a1c592938be4df19b3" target="_top" xlink:title=" ">
<polygon fill="white" stroke="#666666" points="720,-72.5 614,-72.5 614,-53.5 720,-53.5 720,-72.5"/>
<text text-anchor="middle" x="667" y="-60.5" font-family="Helvetica,sans-Serif" font-size="10.00">Settings::getValue</text>
</a>
</g>
</g>
<!-- Node11&#45;&gt;Node12 -->
<g id="edge11" class="edge">
<title>Node11&#45;&gt;Node12</title>
<path fill="none" stroke="#63b8ff" d="M544.96,-63C563.42,-63 583.68,-63 602.25,-63"/>
<polygon fill="#63b8ff" stroke="#63b8ff" points="602.05,-66.5 612.05,-63 602.05,-59.5 602.05,-66.5"/>
</g>
<!-- Node14 -->
<g id="node14" class="node">
<title>Node14</title>
<g id="a_node14"><a xlink:href="classSettings.html#a42e56bc9829dfe95fa757e0e5afd3507" target="_top" xlink:title=" ">
<polygon fill="white" stroke="#666666" points="719.5,-24.5 614.5,-24.5 614.5,-5.5 719.5,-5.5 719.5,-24.5"/>
<text text-anchor="middle" x="667" y="-12.5" font-family="Helvetica,sans-Serif" font-size="10.00">Settings::setValue</text>
</a>
</g>
</g>
<!-- Node13&#45;&gt;Node14 -->
<g id="edge13" class="edge">
<title>Node13&#45;&gt;Node14</title>
<path fill="none" stroke="#63b8ff" d="M536.92,-15C557.56,-15 581.29,-15 602.73,-15"/>
<polygon fill="#63b8ff" stroke="#63b8ff" points="602.53,-18.5 612.53,-15 602.53,-11.5 602.53,-18.5"/>
</g>
</g>
</svg>
