<?xml version="1.0" encoding="UTF-8" standalone="no"?>
<!DOCTYPE svg PUBLIC "-//W3C//DTD SVG 1.1//EN"
 "http://www.w3.org/Graphics/SVG/1.1/DTD/svg11.dtd">
<!-- Generated by graphviz version 7.1.0 (0)
 -->
<!-- Title: TextAccess::splitStringByLines Pages: 1 -->
<svg width="1052pt" height="172pt"
 viewBox="0.00 0.00 1052.00 171.50" xmlns="http://www.w3.org/2000/svg" xmlns:xlink="http://www.w3.org/1999/xlink">
<g id="graph0" class="graph" transform="scale(1 1) rotate(0) translate(4 167.5)">
<title>TextAccess::splitStringByLines</title>
<!-- Node1 -->
<g id="node1" class="node">
<title>Node1</title>
<g id="a_node1"><a xlink:title=" ">
<polygon fill="#999999" stroke="#666666" points="1044,-103.5 905,-103.5 905,-73.5 1044,-73.5 1044,-103.5"/>
<text text-anchor="start" x="913" y="-91.5" font-family="Helvetica,sans-Serif" font-size="10.00">TextAccess::splitStringBy</text>
<text text-anchor="middle" x="974.5" y="-80.5" font-family="Helvetica,sans-Serif" font-size="10.00">Lines</text>
</a>
</g>
</g>
<!-- Node2 -->
<g id="node2" class="node">
<title>Node2</title>
<g id="a_node2"><a xlink:href="classTextAccess.html#ad29173a474a19d33efa045d51e70a86d" target="_top" xlink:title=" ">
<polygon fill="white" stroke="#666666" points="869,-98 708,-98 708,-79 869,-79 869,-98"/>
<text text-anchor="middle" x="788.5" y="-86" font-family="Helvetica,sans-Serif" font-size="10.00">TextAccess::createFromString</text>
</a>
</g>
</g>
<!-- Node1&#45;&gt;Node2 -->
<g id="edge1" class="edge">
<title>Node1&#45;&gt;Node2</title>
<path fill="none" stroke="#63b8ff" d="M893.23,-88.5C885.31,-88.5 877.27,-88.5 869.35,-88.5"/>
<polygon fill="#63b8ff" stroke="#63b8ff" points="893.21,-92 903.21,-88.5 893.21,-85 893.21,-92"/>
</g>
<!-- Node3 -->
<g id="node3" class="node">
<title>Node3</title>
<g id="a_node3"><a xlink:href="classSqliteIndexStorage.html#a2ea7b5f24ce22f70eeab775d4452022c" target="_top" xlink:title=" ">
<polygon fill="white" stroke="#666666" points="661,-157.5 546,-157.5 546,-127.5 661,-127.5 661,-157.5"/>
<text text-anchor="start" x="554" y="-145.5" font-family="Helvetica,sans-Serif" font-size="10.00">SqliteIndexStorage</text>
<text text-anchor="middle" x="603.5" y="-134.5" font-family="Helvetica,sans-Serif" font-size="10.00">::getFileContentById</text>
</a>
</g>
</g>
<!-- Node2&#45;&gt;Node3 -->
<g id="edge2" class="edge">
<title>Node2&#45;&gt;Node3</title>
<path fill="none" stroke="#63b8ff" d="M742.91,-101.66C716.95,-109.32 684.09,-119.02 656.9,-127.04"/>
<polygon fill="#63b8ff" stroke="#63b8ff" points="743.88,-105.02 752.48,-98.83 741.9,-98.31 743.88,-105.02"/>
</g>
<!-- Node6 -->
<g id="node6" class="node">
<title>Node6</title>
<g id="a_node6"><a xlink:href="classSqliteIndexStorage.html#ad82466fc517994be5ea8e77e711e752f" target="_top" xlink:title=" ">
<polygon fill="white" stroke="#666666" points="667.5,-103.5 539.5,-103.5 539.5,-73.5 667.5,-73.5 667.5,-103.5"/>
<text text-anchor="start" x="547.5" y="-91.5" font-family="Helvetica,sans-Serif" font-size="10.00">SqliteIndexStorage</text>
<text text-anchor="middle" x="603.5" y="-80.5" font-family="Helvetica,sans-Serif" font-size="10.00">::getFileContentByPath</text>
</a>
</g>
</g>
<!-- Node2&#45;&gt;Node6 -->
<g id="edge5" class="edge">
<title>Node2&#45;&gt;Node6</title>
<path fill="none" stroke="#63b8ff" d="M696.41,-88.5C686.72,-88.5 677.02,-88.5 667.75,-88.5"/>
<polygon fill="#63b8ff" stroke="#63b8ff" points="696.25,-92 706.25,-88.5 696.25,-85 696.25,-92"/>
</g>
<!-- Node11 -->
<g id="node11" class="node">
<title>Node11</title>
<g id="a_node11"><a xlink:href="classSettings.html#a9b137c22f21186e2b04db5bb7a92458c" target="_top" xlink:title=" ">
<polygon fill="white" stroke="#666666" points="672,-43 535,-43 535,-24 672,-24 672,-43"/>
<text text-anchor="middle" x="603.5" y="-31" font-family="Helvetica,sans-Serif" font-size="10.00">Settings::loadFromString</text>
</a>
</g>
</g>
<!-- Node2&#45;&gt;Node11 -->
<g id="edge11" class="edge">
<title>Node2&#45;&gt;Node11</title>
<path fill="none" stroke="#63b8ff" d="M743.36,-75.23C710.84,-65.46 667.3,-52.37 637.7,-43.48"/>
<polygon fill="#63b8ff" stroke="#63b8ff" points="742.33,-78.58 752.91,-78.1 744.34,-71.87 742.33,-78.58"/>
</g>
<!-- Node4 -->
<g id="node4" class="node">
<title>Node4</title>
<g id="a_node4"><a xlink:href="classPersistentStorage.html#aa3ec38a7048d92fc1524c9bb7da44afd" target="_top" xlink:title=" ">
<polygon fill="white" stroke="#666666" points="499,-163.5 361,-163.5 361,-133.5 499,-133.5 499,-163.5"/>
<text text-anchor="start" x="369" y="-151.5" font-family="Helvetica,sans-Serif" font-size="10.00">PersistentStorage::</text>
<text text-anchor="middle" x="430" y="-140.5" font-family="Helvetica,sans-Serif" font-size="10.00">buildFullTextSearchIndex</text>
</a>
</g>
</g>
<!-- Node3&#45;&gt;Node4 -->
<g id="edge3" class="edge">
<title>Node3&#45;&gt;Node4</title>
<path fill="none" stroke="#63b8ff" d="M534.46,-144.88C522.86,-145.29 510.81,-145.71 499.21,-146.11"/>
<polygon fill="#63b8ff" stroke="#63b8ff" points="534.49,-148.38 544.36,-144.53 534.24,-141.39 534.49,-148.38"/>
</g>
<!-- Node5 -->
<g id="node5" class="node">
<title>Node5</title>
<g id="a_node5"><a xlink:href="classPersistentStorage.html#a9f32a552d5d29d7e5ed7107da1a72f7c" target="_top" xlink:title=" ">
<polygon fill="white" stroke="#666666" points="325,-163.5 176,-163.5 176,-133.5 325,-133.5 325,-163.5"/>
<text text-anchor="start" x="184" y="-151.5" font-family="Helvetica,sans-Serif" font-size="10.00">PersistentStorage::</text>
<text text-anchor="middle" x="250.5" y="-140.5" font-family="Helvetica,sans-Serif" font-size="10.00">getFullTextSearchLocations</text>
</a>
</g>
</g>
<!-- Node4&#45;&gt;Node5 -->
<g id="edge4" class="edge">
<title>Node4&#45;&gt;Node5</title>
<path fill="none" stroke="#63b8ff" d="M349.16,-148.5C341.26,-148.5 333.27,-148.5 325.44,-148.5"/>
<polygon fill="#63b8ff" stroke="#63b8ff" points="349.11,-152 359.11,-148.5 349.11,-145 349.11,-152"/>
</g>
<!-- Node7 -->
<g id="node7" class="node">
<title>Node7</title>
<g id="a_node7"><a xlink:href="classPersistentStorage.html#aaedca58db823846eb42b5b8704f0ead4" target="_top" xlink:title=" ">
<polygon fill="white" stroke="#666666" points="484.5,-115.5 375.5,-115.5 375.5,-85.5 484.5,-85.5 484.5,-115.5"/>
<text text-anchor="start" x="383.5" y="-103.5" font-family="Helvetica,sans-Serif" font-size="10.00">PersistentStorage::</text>
<text text-anchor="middle" x="430" y="-92.5" font-family="Helvetica,sans-Serif" font-size="10.00">getFileContent</text>
</a>
</g>
</g>
<!-- Node6&#45;&gt;Node7 -->
<g id="edge6" class="edge">
<title>Node6&#45;&gt;Node7</title>
<path fill="none" stroke="#63b8ff" d="M527.68,-93.74C513.26,-94.74 498.42,-95.78 484.82,-96.73"/>
<polygon fill="#63b8ff" stroke="#63b8ff" points="527.89,-97.23 537.62,-93.04 527.4,-90.25 527.89,-97.23"/>
</g>
<!-- Node10 -->
<g id="node10" class="node">
<title>Node10</title>
<g id="a_node10"><a xlink:href="classPersistentStorage.html#a6d80bdb84d3687be28b52cd49225f81f" target="_top" xlink:title=" ">
<polygon fill="white" stroke="#666666" points="484.5,-67.5 375.5,-67.5 375.5,-37.5 484.5,-37.5 484.5,-67.5"/>
<text text-anchor="start" x="383.5" y="-55.5" font-family="Helvetica,sans-Serif" font-size="10.00">PersistentStorage::</text>
<text text-anchor="middle" x="430" y="-44.5" font-family="Helvetica,sans-Serif" font-size="10.00">hasContentForFile</text>
</a>
</g>
</g>
<!-- Node6&#45;&gt;Node10 -->
<g id="edge10" class="edge">
<title>Node6&#45;&gt;Node10</title>
<path fill="none" stroke="#63b8ff" d="M528.11,-72.88C513.55,-69.83 498.55,-66.68 484.82,-63.8"/>
<polygon fill="#63b8ff" stroke="#63b8ff" points="527.14,-76.26 537.65,-74.89 528.58,-69.41 527.14,-76.26"/>
</g>
<!-- Node7&#45;&gt;Node5 -->
<g id="edge7" class="edge">
<title>Node7&#45;&gt;Node5</title>
<path fill="none" stroke="#63b8ff" d="M364.18,-118.03C346.03,-122.94 326.43,-128.24 308.76,-133.02"/>
<polygon fill="#63b8ff" stroke="#63b8ff" points="365.06,-121.42 373.8,-115.43 363.23,-114.66 365.06,-121.42"/>
</g>
<!-- Node8 -->
<g id="node8" class="node">
<title>Node8</title>
<g id="a_node8"><a xlink:href="classPersistentStorage.html#affb6cd0ceacf0f94b0bf3853490689f2" target="_top" xlink:title=" ">
<polygon fill="white" stroke="#666666" points="321.5,-115.5 179.5,-115.5 179.5,-85.5 321.5,-85.5 321.5,-115.5"/>
<text text-anchor="start" x="187.5" y="-103.5" font-family="Helvetica,sans-Serif" font-size="10.00">PersistentStorage::</text>
<text text-anchor="middle" x="250.5" y="-92.5" font-family="Helvetica,sans-Serif" font-size="10.00">getTooltipSnippetForNode</text>
</a>
</g>
</g>
<!-- Node7&#45;&gt;Node8 -->
<g id="edge8" class="edge">
<title>Node7&#45;&gt;Node8</title>
<path fill="none" stroke="#63b8ff" d="M363.96,-100.5C350.23,-100.5 335.69,-100.5 321.79,-100.5"/>
<polygon fill="#63b8ff" stroke="#63b8ff" points="363.75,-104 373.75,-100.5 363.75,-97 363.75,-104"/>
</g>
<!-- Node9 -->
<g id="node9" class="node">
<title>Node9</title>
<g id="a_node9"><a xlink:href="classPersistentStorage.html#a4e8e066571898d8762233955dbc3e845" target="_top" xlink:title=" ">
<polygon fill="white" stroke="#666666" points="140,-115.5 0,-115.5 0,-85.5 140,-85.5 140,-115.5"/>
<text text-anchor="start" x="8" y="-103.5" font-family="Helvetica,sans-Serif" font-size="10.00">PersistentStorage::</text>
<text text-anchor="middle" x="70" y="-92.5" font-family="Helvetica,sans-Serif" font-size="10.00">getTooltipInfoForTokenIds</text>
</a>
</g>
</g>
<!-- Node8&#45;&gt;Node9 -->
<g id="edge9" class="edge">
<title>Node8&#45;&gt;Node9</title>
<path fill="none" stroke="#63b8ff" d="M167.71,-100.5C158.57,-100.5 149.32,-100.5 140.35,-100.5"/>
<polygon fill="#63b8ff" stroke="#63b8ff" points="167.69,-104 177.69,-100.5 167.69,-97 167.69,-104"/>
</g>
<!-- Node12 -->
<g id="node12" class="node">
<title>Node12</title>
<g id="a_node12"><a xlink:href="classProject.html#a744fcd821ba36738a8bd87acaa5a8cc2" target="_top" xlink:title=" ">
<polygon fill="white" stroke="#666666" points="468.5,-19 391.5,-19 391.5,0 468.5,0 468.5,-19"/>
<text text-anchor="middle" x="430" y="-7" font-family="Helvetica,sans-Serif" font-size="10.00">Project::load</text>
</a>
</g>
</g>
<!-- Node11&#45;&gt;Node12 -->
<g id="edge12" class="edge">
<title>Node11&#45;&gt;Node12</title>
<path fill="none" stroke="#63b8ff" d="M523.55,-22.45C504.44,-19.78 484.88,-17.04 468.69,-14.77"/>
<polygon fill="#63b8ff" stroke="#63b8ff" points="522.83,-25.89 533.22,-23.8 523.8,-18.95 522.83,-25.89"/>
</g>
</g>
</svg>
