<?xml version="1.0" encoding="UTF-8" standalone="no"?>
<!DOCTYPE svg PUBLIC "-//W3C//DTD SVG 1.1//EN"
 "http://www.w3.org/Graphics/SVG/1.1/DTD/svg11.dtd">
<!-- Generated by graphviz version 9.0.0 (0)
 -->
<!-- Title: Codeblocks::Project::load Pages: 1 -->
<svg width="587pt" height="88pt"
 viewBox="0.00 0.00 587.25 87.75" xmlns="http://www.w3.org/2000/svg" xmlns:xlink="http://www.w3.org/1999/xlink">
<g id="graph0" class="graph" transform="scale(1 1) rotate(0) translate(4 83.75)">
<title>Codeblocks::Project::load</title>
<!-- Node1 -->
<g id="Node000001" class="node">
<title>Node1</title>
<g id="a_Node000001"><a xlink:title=" ">
<polygon fill="#999999" stroke="#666666" points="112,-46.12 0,-46.12 0,-12.62 112,-12.62 112,-46.12"/>
<text text-anchor="start" x="8" y="-32.62" font-family="Helvetica,sans-Serif" font-size="10.00">Codeblocks::Project</text>
<text text-anchor="middle" x="56" y="-19.88" font-family="Helvetica,sans-Serif" font-size="10.00">::load</text>
</a>
</g>
</g>
<!-- Node1&#45;&gt;Node1 -->
<g id="edge6_Node000001_Node000001" class="edge">
<title>Node1&#45;&gt;Node1</title>
<g id="a_edge6_Node000001_Node000001"><a xlink:title=" ">
<path fill="none" stroke="#63b8ff" d="M26.16,-46.54C21.09,-55.74 31.04,-64.12 56,-64.12 70.04,-64.12 79.33,-61.47 83.87,-57.51"/>
<polygon fill="#63b8ff" stroke="#63b8ff" points="87.25,-58.49 85.57,-48.03 80.36,-57.25 87.25,-58.49"/>
</a>
</g>
</g>
<!-- Node2 -->
<g id="Node000002" class="node">
<title>Node2</title>
<g id="a_Node000002"><a xlink:href="classTextAccess.html#a5155a7b9df2dcfd960d50f4961fb4936" target="_top" xlink:title=" ">
<polygon fill="white" stroke="#666666" points="296,-39.75 148,-39.75 148,-19 296,-19 296,-39.75"/>
<text text-anchor="middle" x="222" y="-26.25" font-family="Helvetica,sans-Serif" font-size="10.00">TextAccess::createFromFile</text>
</a>
</g>
</g>
<!-- Node1&#45;&gt;Node2 -->
<g id="edge1_Node000001_Node000002" class="edge">
<title>Node1&#45;&gt;Node2</title>
<g id="a_edge1_Node000001_Node000002"><a xlink:title=" ">
<path fill="none" stroke="#63b8ff" d="M112.07,-29.38C119.93,-29.38 128.18,-29.38 136.45,-29.38"/>
<polygon fill="#63b8ff" stroke="#63b8ff" points="136.21,-32.88 146.21,-29.38 136.21,-25.88 136.21,-32.88"/>
</a>
</g>
</g>
<!-- Node3 -->
<g id="Node000003" class="node">
<title>Node3</title>
<g id="a_Node000003"><a xlink:href="classTextAccess.html#a3024169774f0b035fb68057243388c9e" target="_top" xlink:title=" ">
<polygon fill="white" stroke="#666666" points="454.12,-59.75 339.88,-59.75 339.88,-39 454.12,-39 454.12,-59.75"/>
<text text-anchor="middle" x="397" y="-46.25" font-family="Helvetica,sans-Serif" font-size="10.00">TextAccess::readFile</text>
</a>
</g>
</g>
<!-- Node2&#45;&gt;Node3 -->
<g id="edge2_Node000002_Node000003" class="edge">
<title>Node2&#45;&gt;Node3</title>
<g id="a_edge2_Node000002_Node000003"><a xlink:title=" ">
<path fill="none" stroke="#63b8ff" d="M296.37,-37.86C306.99,-39.08 317.87,-40.34 328.37,-41.56"/>
<polygon fill="#63b8ff" stroke="#63b8ff" points="327.74,-45.01 338.08,-42.68 328.54,-38.05 327.74,-45.01"/>
</a>
</g>
</g>
<!-- Node6 -->
<g id="Node000006" class="node">
<title>Node6</title>
<g id="a_Node000006"><a xlink:href="classTextAccess.html#a17086d2cc3eee9bbef8352489382f721" target="_top" xlink:title=" ">
<polygon fill="white" stroke="#666666" points="462,-20.75 332,-20.75 332,0 462,0 462,-20.75"/>
<text text-anchor="middle" x="397" y="-7.25" font-family="Helvetica,sans-Serif" font-size="10.00">TextAccess::TextAccess</text>
</a>
</g>
</g>
<!-- Node2&#45;&gt;Node6 -->
<g id="edge5_Node000002_Node000006" class="edge">
<title>Node2&#45;&gt;Node6</title>
<g id="a_edge5_Node000002_Node000006"><a xlink:title=" ">
<path fill="none" stroke="#63b8ff" d="M296.37,-21.32C304.23,-20.45 312.23,-19.57 320.12,-18.71"/>
<polygon fill="#63b8ff" stroke="#63b8ff" points="320.49,-22.19 330.05,-17.62 319.73,-15.23 320.49,-22.19"/>
</a>
</g>
</g>
<!-- Node4 -->
<g id="Node000004" class="node">
<title>Node4</title>
<g id="a_Node000004"><a xlink:href="classFilePath.html#ae43df68f4d64aa712319fcebebf5236b" target="_top" xlink:title=" ">
<polygon fill="white" stroke="#666666" points="575.12,-79.75 502.12,-79.75 502.12,-59 575.12,-59 575.12,-79.75"/>
<text text-anchor="middle" x="538.62" y="-66.25" font-family="Helvetica,sans-Serif" font-size="10.00">FilePath::str</text>
</a>
</g>
</g>
<!-- Node3&#45;&gt;Node4 -->
<g id="edge3_Node000003_Node000004" class="edge">
<title>Node3&#45;&gt;Node4</title>
<g id="a_edge3_Node000003_Node000004"><a xlink:title=" ">
<path fill="none" stroke="#63b8ff" d="M454.39,-57.45C466.42,-59.18 479.01,-60.98 490.65,-62.65"/>
<polygon fill="#63b8ff" stroke="#63b8ff" points="490.02,-66.09 500.41,-64.04 491.01,-59.16 490.02,-66.09"/>
</a>
</g>
</g>
<!-- Node5 -->
<g id="Node000005" class="node">
<title>Node5</title>
<g id="a_Node000005"><a xlink:href="classFilePath.html#a989e098726c8387d4f4690bca3314ce8" target="_top" xlink:title=" ">
<polygon fill="white" stroke="#666666" points="579.25,-40.75 498,-40.75 498,-20 579.25,-20 579.25,-40.75"/>
<text text-anchor="middle" x="538.62" y="-27.25" font-family="Helvetica,sans-Serif" font-size="10.00">FilePath::wstr</text>
</a>
</g>
</g>
<!-- Node3&#45;&gt;Node5 -->
<g id="edge4_Node000003_Node000005" class="edge">
<title>Node3&#45;&gt;Node5</title>
<g id="a_edge4_Node000003_Node000005"><a xlink:title=" ">
<path fill="none" stroke="#63b8ff" d="M454.39,-41.7C465.06,-40.25 476.17,-38.74 486.66,-37.31"/>
<polygon fill="#63b8ff" stroke="#63b8ff" points="486.82,-40.82 496.25,-36 485.87,-33.89 486.82,-40.82"/>
</a>
</g>
</g>
</g>
</svg>
