<?xml version="1.0" encoding="UTF-8" standalone="no"?>
<!DOCTYPE svg PUBLIC "-//W3C//DTD SVG 1.1//EN"
 "http://www.w3.org/Graphics/SVG/1.1/DTD/svg11.dtd">
<!-- Generated by graphviz version 7.1.0 (0)
 -->
<!-- Title: QtDeviceScaledPixmap::width Pages: 1 -->
<!--zoomable 172 -->
<svg id="main" version="1.1" xmlns="http://www.w3.org/2000/svg" xmlns:xlink="http://www.w3.org/1999/xlink" xml:space="preserve" onload="init(evt)">
<style type="text/css"><![CDATA[
.edge:hover path { stroke: red; }
.edge:hover polygon { stroke: red; fill: red; }
]]></style>
<script type="text/javascript"><![CDATA[
var edges = document.getElementsByTagName('g');
if (edges && edges.length) {
  for (var i=0;i<edges.length;i++) {
    if (edges[i].id.substr(0,4)=='edge') {
      edges[i].setAttribute('class','edge');
    }
  }
}
]]></script>
        <defs>
                <circle id="rim" cx="0" cy="0" r="7"/>
                <circle id="rim2" cx="0" cy="0" r="3.5"/>
                <g id="zoomPlus">
                        <use xlink:href="#rim" fill="#404040">
                                <set attributeName="fill" to="#808080" begin="zoomplus.mouseover" end="zoomplus.mouseout"/>
                        </use>
                        <path d="M-4,0h8M0,-4v8" fill="none" stroke="white" stroke-width="1.5" pointer-events="none"/>
                </g>
                <g id="zoomMin">
                        <use xlink:href="#rim" fill="#404040">
                                <set attributeName="fill" to="#808080" begin="zoomminus.mouseover" end="zoomminus.mouseout"/>
                        </use>
                        <path d="M-4,0h8" fill="none" stroke="white" stroke-width="1.5" pointer-events="none"/>
                </g>
                <g id="dirArrow">
                        <path fill="none" stroke="white" stroke-width="1.5" d="M0,-3.0v7 M-2.5,-0.5L0,-3.0L2.5,-0.5"/>
                </g>
               <g id="resetDef">
                       <use xlink:href="#rim2" fill="#404040">
                               <set attributeName="fill" to="#808080" begin="reset.mouseover" end="reset.mouseout"/>
                       </use>
               </g>
        </defs>

<script type="text/javascript">
var viewWidth = 907;
var viewHeight = 172;
var sectionId = 'dynsection-15';
</script>
<script xlink:href="svgpan.js"/>
<svg id="graph" class="graph">
<g id="viewport">
<title>QtDeviceScaledPixmap::width</title>
<!-- Node1 -->
<g id="node1" class="node">
<title>Node1</title>
<g id="a_node1"><a xlink:title=" ">
<polygon fill="#999999" stroke="#666666" points="899,-89.5 768,-89.5 768,-59.5 899,-59.5 899,-89.5"/>
<text text-anchor="start" x="776" y="-77.5" font-family="Helvetica,sans-Serif" font-size="10.00">QtDeviceScaledPixmap</text>
<text text-anchor="middle" x="833.5" y="-66.5" font-family="Helvetica,sans-Serif" font-size="10.00">::width</text>
</a>
</g>
</g>
<!-- Node2 -->
<g id="node2" class="node">
<title>Node2</title>
<g id="a_node2"><a xlink:href="classQtWindow.html#a39f04f628173069055fed83678075602" target="_top" xlink:title=" ">
<polygon fill="white" stroke="#666666" points="547.5,-153 433.5,-153 433.5,-134 547.5,-134 547.5,-153"/>
<text text-anchor="middle" x="490.5" y="-141" font-family="Helvetica,sans-Serif" font-size="10.00">QtWindow::addLogo</text>
</a>
</g>
</g>
<!-- Node1&#45;&gt;Node2 -->
<g id="edge1" class="edge">
<title>Node1&#45;&gt;Node2</title>
<path fill="none" stroke="#63b8ff" d="M797.19,-95.21C778.45,-105.19 754.66,-116.32 732,-122.5 670.54,-139.27 597.28,-143.53 547.9,-144.22"/>
<polygon fill="#63b8ff" stroke="#63b8ff" points="798.63,-98.41 805.72,-90.54 795.27,-92.27 798.63,-98.41"/>
</g>
<!-- Node4 -->
<g id="node4" class="node">
<title>Node4</title>
<g id="a_node4"><a xlink:href="classQtIndexingDialog.html#afb98bfd48e656f913d9ff9b3ec3a4627" target="_top" xlink:title=" ">
<polygon fill="white" stroke="#666666" points="559.5,-67.5 421.5,-67.5 421.5,-37.5 559.5,-37.5 559.5,-67.5"/>
<text text-anchor="start" x="429.5" y="-55.5" font-family="Helvetica,sans-Serif" font-size="10.00">QtIndexingDialog::create</text>
<text text-anchor="middle" x="490.5" y="-44.5" font-family="Helvetica,sans-Serif" font-size="10.00">FlagLabel</text>
</a>
</g>
</g>
<!-- Node1&#45;&gt;Node4 -->
<g id="edge3" class="edge">
<title>Node1&#45;&gt;Node4</title>
<path fill="none" stroke="#63b8ff" d="M756.08,-69.57C697.17,-65.77 616.45,-60.56 559.71,-56.9"/>
<polygon fill="#63b8ff" stroke="#63b8ff" points="755.84,-73.06 766.05,-70.21 756.29,-66.08 755.84,-73.06"/>
</g>
<!-- Node6 -->
<g id="node6" class="node">
<title>Node6</title>
<g id="a_node6"><a xlink:href="classQtDeviceScaledPixmap.html#a3f1d5b44ed8eb9c8e0057abefb158a5f" target="_top" xlink:title=" ">
<polygon fill="white" stroke="#666666" points="732,-113.5 601,-113.5 601,-83.5 732,-83.5 732,-113.5"/>
<text text-anchor="start" x="609" y="-101.5" font-family="Helvetica,sans-Serif" font-size="10.00">QtDeviceScaledPixmap</text>
<text text-anchor="middle" x="666.5" y="-90.5" font-family="Helvetica,sans-Serif" font-size="10.00">::scaleToWidth</text>
</a>
</g>
</g>
<!-- Node1&#45;&gt;Node6 -->
<g id="edge5" class="edge">
<title>Node1&#45;&gt;Node6</title>
<path fill="none" stroke="#63b8ff" d="M756.45,-85.56C748.39,-86.73 740.24,-87.92 732.32,-89.07"/>
<polygon fill="#63b8ff" stroke="#63b8ff" points="756.87,-89.04 766.26,-84.13 755.86,-82.11 756.87,-89.04"/>
</g>
<!-- Node9 -->
<g id="node9" class="node">
<title>Node9</title>
<g id="a_node9"><a xlink:href="classQtAbout.html#a0aa719f212e205f0b248cbdf375f30bd" target="_top" xlink:title=" ">
<polygon fill="white" stroke="#666666" points="725.5,-23 607.5,-23 607.5,-4 725.5,-4 725.5,-23"/>
<text text-anchor="middle" x="666.5" y="-11" font-family="Helvetica,sans-Serif" font-size="10.00">QtAbout::setupAbout</text>
</a>
</g>
</g>
<!-- Node1&#45;&gt;Node9 -->
<g id="edge10" class="edge">
<title>Node1&#45;&gt;Node9</title>
<path fill="none" stroke="#63b8ff" d="M780.2,-55.17C751.57,-44.58 717.31,-31.91 694.14,-23.35"/>
<polygon fill="#63b8ff" stroke="#63b8ff" points="778.85,-58.4 789.44,-58.58 781.28,-51.83 778.85,-58.4"/>
</g>
<!-- Node3 -->
<g id="node3" class="node">
<title>Node3</title>
<g id="a_node3"><a xlink:href="classQtStartScreen.html#af94d51fdb8883ce5aa82174c8e8cdf4c" target="_top" xlink:title="Initialize the startup window elements.">
<polygon fill="white" stroke="#666666" points="363.5,-163.5 223.5,-163.5 223.5,-133.5 363.5,-133.5 363.5,-163.5"/>
<text text-anchor="start" x="231.5" y="-151.5" font-family="Helvetica,sans-Serif" font-size="10.00">QtStartScreen::setupStart</text>
<text text-anchor="middle" x="293.5" y="-140.5" font-family="Helvetica,sans-Serif" font-size="10.00">Screen</text>
</a>
</g>
</g>
<!-- Node2&#45;&gt;Node3 -->
<g id="edge2" class="edge">
<title>Node2&#45;&gt;Node3</title>
<path fill="none" stroke="#63b8ff" d="M421.7,-145.24C403.01,-145.72 382.71,-146.24 363.94,-146.72"/>
<polygon fill="#63b8ff" stroke="#63b8ff" points="421.68,-148.74 431.58,-144.99 421.5,-141.74 421.68,-148.74"/>
</g>
<!-- Node5 -->
<g id="node5" class="node">
<title>Node5</title>
<g id="a_node5"><a xlink:href="classQtIndexingReportDialog.html#a4e4b2978d072627e7a0e79bca1c4ae2c" target="_top" xlink:title=" ">
<polygon fill="white" stroke="#666666" points="363.5,-67.5 223.5,-67.5 223.5,-37.5 363.5,-37.5 363.5,-67.5"/>
<text text-anchor="start" x="231.5" y="-55.5" font-family="Helvetica,sans-Serif" font-size="10.00">QtIndexingReportDialog</text>
<text text-anchor="middle" x="293.5" y="-44.5" font-family="Helvetica,sans-Serif" font-size="10.00">::QtIndexingReportDialog</text>
</a>
</g>
</g>
<!-- Node4&#45;&gt;Node5 -->
<g id="edge4" class="edge">
<title>Node4&#45;&gt;Node5</title>
<path fill="none" stroke="#63b8ff" d="M409.56,-52.5C394.38,-52.5 378.61,-52.5 363.8,-52.5"/>
<polygon fill="#63b8ff" stroke="#63b8ff" points="409.51,-56 419.51,-52.5 409.51,-49 409.51,-56"/>
</g>
<!-- Node6&#45;&gt;Node2 -->
<g id="edge6" class="edge">
<title>Node6&#45;&gt;Node2</title>
<path fill="none" stroke="#63b8ff" d="M594.59,-116.85C584.66,-119.42 574.57,-122.02 565,-124.5 553.64,-127.44 541.3,-130.63 530.03,-133.54"/>
<polygon fill="#63b8ff" stroke="#63b8ff" points="595.45,-120.24 604.25,-114.35 593.69,-113.46 595.45,-120.24"/>
</g>
<!-- Node6&#45;&gt;Node4 -->
<g id="edge9" class="edge">
<title>Node6&#45;&gt;Node4</title>
<path fill="none" stroke="#63b8ff" d="M596.13,-80.16C580.87,-76.13 564.85,-71.89 550.07,-67.98"/>
<polygon fill="#63b8ff" stroke="#63b8ff" points="595.05,-83.5 605.61,-82.67 596.84,-76.73 595.05,-83.5"/>
</g>
<!-- Node7 -->
<g id="node7" class="node">
<title>Node7</title>
<g id="a_node7"><a xlink:href="classQtAutocompletionDelegate.html#a5f7f27a56804fbc2e5c7764b8e20815b" target="_top" xlink:title=" ">
<polygon fill="white" stroke="#666666" points="565,-115.5 416,-115.5 416,-85.5 565,-85.5 565,-115.5"/>
<text text-anchor="start" x="424" y="-103.5" font-family="Helvetica,sans-Serif" font-size="10.00">QtAutocompletionDelegate</text>
<text text-anchor="middle" x="490.5" y="-92.5" font-family="Helvetica,sans-Serif" font-size="10.00">::calculateCharSizes</text>
</a>
</g>
</g>
<!-- Node6&#45;&gt;Node7 -->
<g id="edge7" class="edge">
<title>Node6&#45;&gt;Node7</title>
<path fill="none" stroke="#63b8ff" d="M589.24,-99.38C581.34,-99.47 573.31,-99.56 565.43,-99.65"/>
<polygon fill="#63b8ff" stroke="#63b8ff" points="589.24,-102.88 599.2,-99.26 589.16,-95.88 589.24,-102.88"/>
</g>
<!-- Node8 -->
<g id="node8" class="node">
<title>Node8</title>
<g id="a_node8"><a xlink:href="classQtAutocompletionDelegate.html#a064883215eebd544fa8c79e4e9e459cf" target="_top" xlink:title=" ">
<polygon fill="white" stroke="#666666" points="368,-115.5 219,-115.5 219,-85.5 368,-85.5 368,-115.5"/>
<text text-anchor="start" x="227" y="-103.5" font-family="Helvetica,sans-Serif" font-size="10.00">QtAutocompletionDelegate</text>
<text text-anchor="middle" x="293.5" y="-92.5" font-family="Helvetica,sans-Serif" font-size="10.00">::sizeHint</text>
</a>
</g>
</g>
<!-- Node7&#45;&gt;Node8 -->
<g id="edge8" class="edge">
<title>Node7&#45;&gt;Node8</title>
<path fill="none" stroke="#63b8ff" d="M404.18,-100.5C392.28,-100.5 380.12,-100.5 368.45,-100.5"/>
<polygon fill="#63b8ff" stroke="#63b8ff" points="403.99,-104 413.99,-100.5 403.99,-97 403.99,-104"/>
</g>
<!-- Node10 -->
<g id="node10" class="node">
<title>Node10</title>
<g id="a_node10"><a xlink:href="classQtMainWindow.html#a37bd6469f1d56ba750e9e0a33ff38c9b" target="_top" xlink:title=" ">
<polygon fill="white" stroke="#666666" points="553,-19 428,-19 428,0 553,0 553,-19"/>
<text text-anchor="middle" x="490.5" y="-7" font-family="Helvetica,sans-Serif" font-size="10.00">QtMainWindow::about</text>
</a>
</g>
</g>
<!-- Node9&#45;&gt;Node10 -->
<g id="edge11" class="edge">
<title>Node9&#45;&gt;Node10</title>
<path fill="none" stroke="#63b8ff" d="M595.95,-11.9C581.86,-11.58 567.14,-11.24 553.34,-10.92"/>
<polygon fill="#63b8ff" stroke="#63b8ff" points="595.49,-15.39 605.56,-12.12 595.65,-8.39 595.49,-15.39"/>
</g>
<!-- Node11 -->
<g id="node11" class="node">
<title>Node11</title>
<g id="a_node11"><a xlink:href="classQtMainWindow.html#ab225e8eeed9eae85d5ab3748c1d17903" target="_top" xlink:title=" ">
<polygon fill="white" stroke="#666666" points="380,-19 207,-19 207,0 380,0 380,-19"/>
<text text-anchor="middle" x="293.5" y="-7" font-family="Helvetica,sans-Serif" font-size="10.00">QtMainWindow::setupHelpMenu</text>
</a>
</g>
</g>
<!-- Node10&#45;&gt;Node11 -->
<g id="edge12" class="edge">
<title>Node10&#45;&gt;Node11</title>
<path fill="none" stroke="#63b8ff" d="M416.02,-9.5C404.32,-9.5 392.13,-9.5 380.18,-9.5"/>
<polygon fill="#63b8ff" stroke="#63b8ff" points="416.02,-13 426.02,-9.5 416.02,-6 416.02,-13"/>
</g>
<!-- Node12 -->
<g id="node12" class="node">
<title>Node12</title>
<g id="a_node12"><a xlink:href="classQtMainWindow.html#ab526da2f9eb598fdbee15a62a4323ad0" target="_top" xlink:title=" ">
<polygon fill="white" stroke="#666666" points="171,-19 0,-19 0,0 171,0 171,-19"/>
<text text-anchor="middle" x="85.5" y="-7" font-family="Helvetica,sans-Serif" font-size="10.00">QtMainWindow::QtMainWindow</text>
</a>
</g>
</g>
<!-- Node11&#45;&gt;Node12 -->
<g id="edge13" class="edge">
<title>Node11&#45;&gt;Node12</title>
<path fill="none" stroke="#63b8ff" d="M195.31,-9.5C187.27,-9.5 179.18,-9.5 171.24,-9.5"/>
<polygon fill="#63b8ff" stroke="#63b8ff" points="195.12,-13 205.12,-9.5 195.12,-6 195.12,-13"/>
</g>
</g>
</svg>
        <g id="navigator" transform="translate(0 0)" fill="#404254">
                <rect fill="#f2f5e9" fill-opacity="0.5" stroke="#606060" stroke-width=".5" x="0" y="0" width="60" height="60"/>
                <use id="zoomplus" xlink:href="#zoomPlus" x="17" y="9" onmousedown="handleZoom(evt,'in')"/>
                <use id="zoomminus" xlink:href="#zoomMin" x="42" y="9" onmousedown="handleZoom(evt,'out')"/>
                <use id="reset" xlink:href="#resetDef" x="30" y="36" onmousedown="handleReset()"/>
                <g id="arrowUp" xlink:href="#dirArrow" transform="translate(30 24)" onmousedown="handlePan(0,-1)">
                  <use xlink:href="#rim" fill="#404040">
                        <set attributeName="fill" to="#808080" begin="arrowUp.mouseover" end="arrowUp.mouseout"/>
                  </use>
                  <path fill="none" stroke="white" stroke-width="1.5" d="M0,-3.0v7 M-2.5,-0.5L0,-3.0L2.5,-0.5"/>
                </g>
                <g id="arrowRight" xlink:href="#dirArrow" transform="rotate(90) translate(36 -43)" onmousedown="handlePan(1,0)">
                  <use xlink:href="#rim" fill="#404040">
                        <set attributeName="fill" to="#808080" begin="arrowRight.mouseover" end="arrowRight.mouseout"/>
                  </use>
                  <path fill="none" stroke="white" stroke-width="1.5" d="M0,-3.0v7 M-2.5,-0.5L0,-3.0L2.5,-0.5"/>
                </g>
                <g id="arrowDown" xlink:href="#dirArrow" transform="rotate(180) translate(-30 -48)" onmousedown="handlePan(0,1)">
                  <use xlink:href="#rim" fill="#404040">
                        <set attributeName="fill" to="#808080" begin="arrowDown.mouseover" end="arrowDown.mouseout"/>
                  </use>
                  <path fill="none" stroke="white" stroke-width="1.5" d="M0,-3.0v7 M-2.5,-0.5L0,-3.0L2.5,-0.5"/>
                </g>
                <g id="arrowLeft" xlink:href="#dirArrow" transform="rotate(270) translate(-36 17)" onmousedown="handlePan(-1,0)">
                  <use xlink:href="#rim" fill="#404040">
                        <set attributeName="fill" to="#808080" begin="arrowLeft.mouseover" end="arrowLeft.mouseout"/>
                  </use>
                  <path fill="none" stroke="white" stroke-width="1.5" d="M0,-3.0v7 M-2.5,-0.5L0,-3.0L2.5,-0.5"/>
                </g>
        </g>
        <svg viewBox="0 0 15 15" width="100%" height="30px" preserveAspectRatio="xMaxYMin meet">
         <g id="arrow_out" transform="scale(0.3 0.3)">
          <a xlink:href="classQtDeviceScaledPixmap_af0fb10e63a1b537132d7378d2c888b2d_icgraph_org.svg" target="_base">
           <rect id="button" ry="5" rx="5" y="6" x="6" height="38" width="38"
                fill="#f2f5e9" fill-opacity="0.5" stroke="#606060" stroke-width="1.0"/>
           <path id="arrow"
             d="M 11.500037,31.436501 C 11.940474,20.09759 22.043105,11.32322 32.158766,21.979434 L 37.068811,17.246167 C 37.068811,17.246167 37.088388,32 37.088388,32 L 22.160133,31.978069 C 22.160133,31.978069 26.997745,27.140456 26.997745,27.140456 C 18.528582,18.264221 13.291696,25.230495 11.500037,31.436501 z"
             style="fill:#404040;"/>
          </a>
         </g>
        </svg>
</svg>
