<?xml version="1.0" encoding="UTF-8" standalone="no"?>
<!DOCTYPE svg PUBLIC "-//W3C//DTD SVG 1.1//EN"
 "http://www.w3.org/Graphics/SVG/1.1/DTD/svg11.dtd">
<!-- Generated by graphviz version 7.1.0 (0)
 -->
<!-- Title: GraphViewStyle Pages: 1 -->
<svg width="404pt" height="374pt"
 viewBox="0.00 0.00 404.00 374.00" xmlns="http://www.w3.org/2000/svg" xmlns:xlink="http://www.w3.org/1999/xlink">
<g id="graph0" class="graph" transform="scale(1 1) rotate(0) translate(4 370)">
<title>GraphViewStyle</title>
<!-- Node1 -->
<g id="node1" class="node">
<title>Node1</title>
<g id="a_node1"><a xlink:title=" ">
<polygon fill="#999999" stroke="#666666" points="396,-180.5 301,-180.5 301,-161.5 396,-161.5 396,-180.5"/>
<text text-anchor="middle" x="348.5" y="-168.5" font-family="Helvetica,sans-Serif" font-size="10.00">GraphViewStyle</text>
</a>
</g>
</g>
<!-- Node2 -->
<g id="node2" class="node">
<title>Node2</title>
<g id="a_node2"><a xlink:title=" ">
<polygon fill="white" stroke="#666666" points="93.5,-335.5 64.5,-335.5 64.5,-316.5 93.5,-316.5 93.5,-335.5"/>
<text text-anchor="middle" x="79" y="-323.5" font-family="Helvetica,sans-Serif" font-size="10.00">int</text>
</a>
</g>
</g>
<!-- Node2&#45;&gt;Node1 -->
<g id="edge1" class="edge">
<title>Node2&#45;&gt;Node1</title>
<path fill="none" stroke="#9a32cd" stroke-dasharray="5,2" d="M105.02,-330.13C146.2,-335.5 229.05,-340.15 283,-302 325.43,-272 341.27,-206.04 345.89,-180.95"/>
<polygon fill="#9a32cd" stroke="#9a32cd" points="105.78,-326.7 95.39,-328.74 104.78,-333.63 105.78,-326.7"/>
<text text-anchor="middle" x="229.5" y="-358" font-family="Helvetica,sans-Serif" font-size="10.00"> s_fontSize</text>
<text text-anchor="middle" x="229.5" y="-347" font-family="Helvetica,sans-Serif" font-size="10.00">s_gridCellPadding</text>
<text text-anchor="middle" x="229.5" y="-336" font-family="Helvetica,sans-Serif" font-size="10.00">s_gridCellSize</text>
</g>
<!-- Node3 -->
<g id="node3" class="node">
<title>Node3</title>
<g id="a_node3"><a xlink:title=" ">
<polygon fill="white" stroke="#666666" points="156,-297 2,-297 2,-267 156,-267 156,-297"/>
<text text-anchor="start" x="10" y="-285" font-family="Helvetica,sans-Serif" font-size="10.00">map&lt; NodeType::StyleType,</text>
<text text-anchor="middle" x="79" y="-274" font-family="Helvetica,sans-Serif" font-size="10.00"> float &gt;</text>
</a>
</g>
</g>
<!-- Node3&#45;&gt;Node1 -->
<g id="edge2" class="edge">
<title>Node3&#45;&gt;Node1</title>
<path fill="none" stroke="#9a32cd" stroke-dasharray="5,2" d="M167.81,-278.2C205.26,-273.48 248.24,-263.72 283,-244 310.36,-228.48 332.01,-196.97 341.81,-180.91"/>
<polygon fill="#9a32cd" stroke="#9a32cd" points="167.42,-274.72 157.89,-279.34 168.22,-281.68 167.42,-274.72"/>
<text text-anchor="middle" x="229.5" y="-290" font-family="Helvetica,sans-Serif" font-size="10.00"> s_charHeights</text>
<text text-anchor="middle" x="229.5" y="-279" font-family="Helvetica,sans-Serif" font-size="10.00">s_charWidths</text>
</g>
<!-- Node4 -->
<g id="node4" class="node">
<title>Node4</title>
<g id="a_node4"><a xlink:title=" ">
<polygon fill="white" stroke="#666666" points="158,-249 0,-249 0,-219 158,-219 158,-249"/>
<text text-anchor="start" x="8" y="-237" font-family="Helvetica,sans-Serif" font-size="10.00">shared_ptr&lt; GraphViewStyle</text>
<text text-anchor="middle" x="79" y="-226" font-family="Helvetica,sans-Serif" font-size="10.00">Impl &gt;</text>
</a>
</g>
</g>
<!-- Node4&#45;&gt;Node1 -->
<g id="edge3" class="edge">
<title>Node4&#45;&gt;Node1</title>
<path fill="none" stroke="#9a32cd" stroke-dasharray="5,2" d="M169.77,-230.86C205.71,-227.58 247.05,-221.21 283,-209 302.2,-202.48 321.95,-189.79 334.45,-180.88"/>
<polygon fill="#9a32cd" stroke="#9a32cd" points="169.48,-227.38 159.81,-231.7 170.06,-234.35 169.48,-227.38"/>
<text text-anchor="middle" x="229.5" y="-232" font-family="Helvetica,sans-Serif" font-size="10.00"> s_impl</text>
</g>
<!-- Node5 -->
<g id="node5" class="node">
<title>Node5</title>
<g id="a_node5"><a xlink:title=" ">
<polygon fill="white" stroke="#666666" points="101,-200.5 57,-200.5 57,-181.5 101,-181.5 101,-200.5"/>
<text text-anchor="middle" x="79" y="-188.5" font-family="Helvetica,sans-Serif" font-size="10.00">string</text>
</a>
</g>
</g>
<!-- Node5&#45;&gt;Node1 -->
<g id="edge4" class="edge">
<title>Node5&#45;&gt;Node1</title>
<path fill="none" stroke="#9a32cd" stroke-dasharray="5,2" d="M112.78,-188.55C159.86,-185.03 246.87,-178.52 300.71,-174.5"/>
<polygon fill="#9a32cd" stroke="#9a32cd" points="112.66,-185.05 102.95,-189.28 113.18,-192.03 112.66,-185.05"/>
<text text-anchor="middle" x="229.5" y="-197" font-family="Helvetica,sans-Serif" font-size="10.00"> s_focusColor</text>
<text text-anchor="middle" x="229.5" y="-186" font-family="Helvetica,sans-Serif" font-size="10.00">s_fontName</text>
</g>
<!-- Node6 -->
<g id="node6" class="node">
<title>Node6</title>
<g id="a_node6"><a xlink:title=" ">
<polygon fill="white" stroke="#666666" points="113.5,-163.5 44.5,-163.5 44.5,-144.5 113.5,-144.5 113.5,-163.5"/>
<text text-anchor="middle" x="79" y="-151.5" font-family="Helvetica,sans-Serif" font-size="10.00">static float</text>
</a>
</g>
</g>
<!-- Node6&#45;&gt;Node1 -->
<g id="edge5" class="edge">
<title>Node6&#45;&gt;Node1</title>
<path fill="none" stroke="#9a32cd" stroke-dasharray="5,2" d="M125.22,-151.63C166.47,-150.14 229.06,-149.54 283,-156 292.13,-157.09 301.86,-158.97 310.91,-161.03"/>
<polygon fill="#9a32cd" stroke="#9a32cd" points="125.27,-148.13 115.42,-152.02 125.55,-155.12 125.27,-148.13"/>
<text text-anchor="middle" x="229.5" y="-159" font-family="Helvetica,sans-Serif" font-size="10.00"> s_zoomFactor</text>
</g>
<!-- Node7 -->
<g id="node7" class="node">
<title>Node7</title>
<g id="a_node7"><a xlink:title=" ">
<polygon fill="white" stroke="#666666" points="158,-126 0,-126 0,-96 158,-96 158,-126"/>
<text text-anchor="start" x="8" y="-114" font-family="Helvetica,sans-Serif" font-size="10.00">map&lt; std::string, GraphView</text>
<text text-anchor="middle" x="79" y="-103" font-family="Helvetica,sans-Serif" font-size="10.00">Style::NodeColor &gt;</text>
</a>
</g>
</g>
<!-- Node7&#45;&gt;Node1 -->
<g id="edge6" class="edge">
<title>Node7&#45;&gt;Node1</title>
<path fill="none" stroke="#9a32cd" stroke-dasharray="5,2" d="M169.62,-114.04C205.54,-117.19 246.9,-123.3 283,-135 301.79,-141.09 321.31,-152.88 333.89,-161.31"/>
<polygon fill="#9a32cd" stroke="#9a32cd" points="169.91,-110.55 159.66,-113.24 169.35,-117.53 169.91,-110.55"/>
<text text-anchor="middle" x="229.5" y="-138" font-family="Helvetica,sans-Serif" font-size="10.00"> s_nodeColors</text>
</g>
<!-- Node8 -->
<g id="node8" class="node">
<title>Node8</title>
<g id="a_node8"><a xlink:title=" ">
<polygon fill="white" stroke="#666666" points="138.5,-78 19.5,-78 19.5,-48 138.5,-48 138.5,-78"/>
<text text-anchor="start" x="27.5" y="-66" font-family="Helvetica,sans-Serif" font-size="10.00">map&lt; std::string, std</text>
<text text-anchor="middle" x="79" y="-55" font-family="Helvetica,sans-Serif" font-size="10.00">::string &gt;</text>
</a>
</g>
</g>
<!-- Node8&#45;&gt;Node1 -->
<g id="edge7" class="edge">
<title>Node8&#45;&gt;Node1</title>
<path fill="none" stroke="#9a32cd" stroke-dasharray="5,2" d="M150.2,-64.18C191.15,-67.53 242.55,-76.48 283,-99 310.27,-114.18 331.96,-145.31 341.79,-161.2"/>
<polygon fill="#9a32cd" stroke="#9a32cd" points="150.68,-60.71 140.45,-63.49 150.18,-67.69 150.68,-60.71"/>
<text text-anchor="middle" x="229.5" y="-102" font-family="Helvetica,sans-Serif" font-size="10.00"> s_edgeColors</text>
</g>
<!-- Node9 -->
<g id="node9" class="node">
<title>Node9</title>
<g id="a_node9"><a xlink:title=" ">
<polygon fill="white" stroke="#666666" points="156.5,-30 1.5,-30 1.5,0 156.5,0 156.5,-30"/>
<text text-anchor="start" x="9.5" y="-18" font-family="Helvetica,sans-Serif" font-size="10.00">map&lt; bool, GraphViewStyle</text>
<text text-anchor="middle" x="79" y="-7" font-family="Helvetica,sans-Serif" font-size="10.00">::NodeColor &gt;</text>
</a>
</g>
</g>
<!-- Node9&#45;&gt;Node1 -->
<g id="edge8" class="edge">
<title>Node9&#45;&gt;Node1</title>
<path fill="none" stroke="#9a32cd" stroke-dasharray="5,2" d="M167.8,-14.42C206.24,-18.11 250,-28.08 283,-52 321.43,-79.86 339.37,-137.84 345.23,-161.07"/>
<polygon fill="#9a32cd" stroke="#9a32cd" points="168.35,-10.96 158.09,-13.63 167.78,-17.93 168.35,-10.96"/>
<text text-anchor="middle" x="229.5" y="-55" font-family="Helvetica,sans-Serif" font-size="10.00"> s_screenMatchColors</text>
</g>
</g>
</svg>
