<?xml version="1.0" encoding="UTF-8" standalone="no"?>
<!DOCTYPE svg PUBLIC "-//W3C//DTD SVG 1.1//EN"
 "http://www.w3.org/Graphics/SVG/1.1/DTD/svg11.dtd">
<!-- Generated by graphviz version 9.0.0 (0)
 -->
<!-- Title: utility::CompilationDatabase::getAllHeaderPaths Pages: 1 -->
<svg width="404pt" height="86pt"
 viewBox="0.00 0.00 404.00 85.75" xmlns="http://www.w3.org/2000/svg" xmlns:xlink="http://www.w3.org/1999/xlink">

<svg id="main" version="1.1" xmlns="http://www.w3.org/2000/svg" xmlns:xlink="http://www.w3.org/1999/xlink" xml:space="preserve" onload="init(evt)">
<style type="text/css"><![CDATA[
.node, .edge {opacity: 0.7;}
.node.selected, .edge.selected {opacity: 1;}
.edge:hover path { stroke: red; }
.edge:hover polygon { stroke: red; fill: red; }
]]></style>
<script type="application/ecmascript" xlink:href="svg.min.js"/>
<svg id="graph" class="graph">
<g id="graph0" class="graph" transform="scale(1 1) rotate(0) translate(4 81.75)">
<title>utility::CompilationDatabase::getAllHeaderPaths</title>
<!-- Node1 -->
<g id="Node000001" class="node">
<title>Node1</title>
<g id="a_Node000001"><a xlink:title=" ">
<polygon fill="#999999" stroke="#666666" points="155.5,-55.12 0,-55.12 0,-21.62 155.5,-21.62 155.5,-55.12"/>
<text text-anchor="start" x="8" y="-41.62" font-family="Helvetica,sans-Serif" font-size="10.00">utility::CompilationDatabase</text>
<text text-anchor="middle" x="77.75" y="-28.88" font-family="Helvetica,sans-Serif" font-size="10.00">::getAllHeaderPaths</text>
</a>
</g>
</g>
<!-- Node2 -->
<g id="Node000002" class="node">
<title>Node2</title>
<g id="a_Node000002"><a xlink:href="namespaceutility.html#a8cfebdfc01731e1d56bab4fa4d83bad6" target="_top" xlink:title=" ">
<polygon fill="white" stroke="#666666" points="273.88,-77.75 191.88,-77.75 191.88,-57 273.88,-57 273.88,-77.75"/>
<text text-anchor="middle" x="232.88" y="-64.25" font-family="Helvetica,sans-Serif" font-size="10.00">utility::concat</text>
</a>
</g>
</g>
<!-- Node1&#45;&gt;Node2 -->
<g id="edge1_Node000001_Node000002" class="edge">
<title>Node1&#45;&gt;Node2</title>
<g id="a_edge1_Node000001_Node000002"><a xlink:title=" ">
<path fill="none" stroke="#63b8ff" d="M155.76,-52.96C164.07,-54.53 172.37,-56.1 180.27,-57.6"/>
<polygon fill="#63b8ff" stroke="#63b8ff" points="179.55,-61.03 190.03,-59.45 180.85,-54.15 179.55,-61.03"/>
</a>
</g>
</g>
<!-- Node4 -->
<g id="Node000004" class="node">
<title>Node4</title>
<g id="a_Node000004"><a xlink:href="namespaceutility.html#a1a0ae6f41c7b8ae5ff4bd311be01ba0c" target="_top" xlink:title=" ">
<polygon fill="white" stroke="#666666" points="274.25,-20.75 191.5,-20.75 191.5,0 274.25,0 274.25,-20.75"/>
<text text-anchor="middle" x="232.88" y="-7.25" font-family="Helvetica,sans-Serif" font-size="10.00">utility::unique</text>
</a>
</g>
</g>
<!-- Node1&#45;&gt;Node4 -->
<g id="edge3_Node000001_Node000004" class="edge">
<title>Node1&#45;&gt;Node4</title>
<g id="a_edge3_Node000001_Node000004"><a xlink:title=" ">
<path fill="none" stroke="#63b8ff" d="M155.76,-24.29C163.97,-22.79 172.17,-21.29 179.98,-19.86"/>
<polygon fill="#63b8ff" stroke="#63b8ff" points="180.42,-23.34 189.62,-18.1 179.16,-16.46 180.42,-23.34"/>
</a>
</g>
</g>
<!-- Node3 -->
<g id="Node000003" class="node">
<title>Node3</title>
<g id="a_Node000003"><a xlink:href="namespaceutility.html#a20e313ed6af8386f5e95f86b77027904" target="_top" xlink:title=" ">
<polygon fill="white" stroke="#666666" points="396,-77.75 310.25,-77.75 310.25,-57 396,-57 396,-77.75"/>
<text text-anchor="middle" x="353.12" y="-64.25" font-family="Helvetica,sans-Serif" font-size="10.00">utility::append</text>
</a>
</g>
</g>
<!-- Node2&#45;&gt;Node3 -->
<g id="edge2_Node000002_Node000003" class="edge">
<title>Node2&#45;&gt;Node3</title>
<g id="a_edge2_Node000002_Node000003"><a xlink:title=" ">
<path fill="none" stroke="#63b8ff" d="M274.24,-67.38C282.06,-67.38 290.37,-67.38 298.54,-67.38"/>
<polygon fill="#63b8ff" stroke="#63b8ff" points="298.41,-70.88 308.41,-67.38 298.41,-63.88 298.41,-70.88"/>
</a>
</g>
</g>
<!-- Node4&#45;&gt;Node4 -->
<g id="edge4_Node000004_Node000004" class="edge">
<title>Node4&#45;&gt;Node4</title>
<g id="a_edge4_Node000004_Node000004"><a xlink:title=" ">
<path fill="none" stroke="#63b8ff" d="M213.5,-21.15C205.75,-29.81 212.21,-38.75 232.88,-38.75 244.18,-38.75 251.23,-36.08 254.03,-32.24"/>
<polygon fill="#63b8ff" stroke="#63b8ff" points="257.54,-31.96 252.49,-22.64 250.62,-33.07 257.54,-31.96"/>
</a>
</g>
</g>
</g>
</svg>
</svg>

<style type='text/css'>
<![CDATA[
[data-mouse-over-selected='false'] { opacity: 0.7; }
[data-mouse-over-selected='true']  { opacity: 1.0; }
]]>
</style>
<script type="application/ecmascript"><![CDATA[
document.addEventListener('DOMContentLoaded', (event) => {
  highlightEdges();
  highlightAdjacentNodes();
});
]]></script>
</svg>
