<?xml version="1.0" encoding="UTF-8" standalone="no"?>
<!DOCTYPE svg PUBLIC "-//W3C//DTD SVG 1.1//EN"
 "http://www.w3.org/Graphics/SVG/1.1/DTD/svg11.dtd">
<!-- Generated by graphviz version 9.0.0 (0)
 -->
<!-- Title: QtIndexingProgressDialog::updateIndexingProgress Pages: 1 -->
<!--zoomable 189 -->

<svg id="main" version="1.1" xmlns="http://www.w3.org/2000/svg" xmlns:xlink="http://www.w3.org/1999/xlink" xml:space="preserve" onload="init(evt)">
<style type="text/css"><![CDATA[
.node, .edge {opacity: 0.7;}
.node.selected, .edge.selected {opacity: 1;}
.edge:hover path { stroke: red; }
.edge:hover polygon { stroke: red; fill: red; }
]]></style>

<defs>
  <circle id="rim" cx="0" cy="0" r="7"/>
  <circle id="rim2" cx="0" cy="0" r="3.5"/>
  <g id="zoomPlus">
    <use xlink:href="#rim" fill="#404040"><set attributeName="fill" to="#808080" begin="zoomplus.mouseover" end="zoomplus.mouseout"/></use>
    <path d="M-4,0h8M0,-4v8" fill="none" stroke="white" stroke-width="1.5" pointer-events="none"/>
  </g>
  <g id="zoomMin">
    <use xlink:href="#rim" fill="#404040"><set attributeName="fill" to="#808080" begin="zoomminus.mouseover" end="zoomminus.mouseout"/></use>
    <path d="M-4,0h8" fill="none" stroke="white" stroke-width="1.5" pointer-events="none"/>
  </g>
  <g id="arrowUp" transform="translate(30 24)">
    <use xlink:href="#rim"/>
    <path pointer-events="none" fill="none" stroke="white" stroke-width="1.5" d="M0,-3.0v7 M-2.5,-0.5L0,-3.0L2.5,-0.5"/>
  </g>
  <g id="arrowRight" transform="rotate(90) translate(36 -43)">
    <use xlink:href="#rim"/>
    <path pointer-events="none" fill="none" stroke="white" stroke-width="1.5" d="M0,-3.0v7 M-2.5,-0.5L0,-3.0L2.5,-0.5"/>
  </g>
  <g id="arrowDown" transform="rotate(180) translate(-30 -48)">
    <use xlink:href="#rim"/>
    <path pointer-events="none" fill="none" stroke="white" stroke-width="1.5" d="M0,-3.0v7 M-2.5,-0.5L0,-3.0L2.5,-0.5"/>
  </g>
  <g id="arrowLeft" transform="rotate(270) translate(-36 17)">
    <use xlink:href="#rim"/>
    <path pointer-events="none" fill="none" stroke="white" stroke-width="1.5" d="M0,-3.0v7 M-2.5,-0.5L0,-3.0L2.5,-0.5"/>
  </g>
  <g id="resetDef">
    <use xlink:href="#rim2" fill="#404040"><set attributeName="fill" to="#808080" begin="reset.mouseover" end="reset.mouseout"/></use>
  </g>
</defs>
<script type="application/ecmascript">
var viewWidth = 648;
var viewHeight = 189;
var sectionId = 'dynsection-33';
</script>
<script type="application/ecmascript" xlink:href="svg.min.js"/>
<svg id="graph" class="graph">
<g id="viewport">
<title>QtIndexingProgressDialog::updateIndexingProgress</title>
<!-- Node1 -->
<g id="Node000001" class="node">
<title>Node1</title>
<g id="a_Node000001"><a xlink:title=" ">
<polygon fill="#999999" stroke="#666666" points="142.75,-98.12 0,-98.12 0,-64.62 142.75,-64.62 142.75,-98.12"/>
<text text-anchor="start" x="8" y="-84.62" font-family="Helvetica,sans-Serif" font-size="10.00">QtIndexingProgressDialog</text>
<text text-anchor="middle" x="71.38" y="-71.88" font-family="Helvetica,sans-Serif" font-size="10.00">::updateIndexingProgress</text>
</a>
</g>
</g>
<!-- Node2 -->
<g id="Node000002" class="node">
<title>Node2</title>
<g id="a_Node000002"><a xlink:href="classFilePath.html#ae09c07f1ae9ac6f650a765cc11cc6494" target="_top" xlink:title=" ">
<polygon fill="white" stroke="#666666" points="283.25,-162.75 191.5,-162.75 191.5,-142 283.25,-142 283.25,-162.75"/>
<text text-anchor="middle" x="237.38" y="-149.25" font-family="Helvetica,sans-Serif" font-size="10.00">FilePath::empty</text>
</a>
</g>
</g>
<!-- Node1&#45;&gt;Node2 -->
<g id="edge1_Node000001_Node000002" class="edge">
<title>Node1&#45;&gt;Node2</title>
<g id="a_edge1_Node000001_Node000002"><a xlink:title=" ">
<path fill="none" stroke="#63b8ff" d="M104.44,-98.47C125.29,-109.23 153.24,-122.99 178.75,-133.38 182.53,-134.92 186.49,-136.42 190.49,-137.88"/>
<polygon fill="#63b8ff" stroke="#63b8ff" points="189.03,-141.08 199.62,-141.07 191.34,-134.47 189.03,-141.08"/>
</a>
</g>
</g>
<!-- Node3 -->
<g id="Node000003" class="node">
<title>Node3</title>
<g id="a_Node000003"><a xlink:href="classQtProgressBarDialog.html#ad59f6c7077a841ed154f66dc62800d95" target="_top" xlink:title=" ">
<polygon fill="white" stroke="#666666" points="296,-124.12 178.75,-124.12 178.75,-90.62 296,-90.62 296,-124.12"/>
<text text-anchor="start" x="186.75" y="-110.62" font-family="Helvetica,sans-Serif" font-size="10.00">QtProgressBarDialog</text>
<text text-anchor="middle" x="237.38" y="-97.88" font-family="Helvetica,sans-Serif" font-size="10.00">::updateMessage</text>
</a>
</g>
</g>
<!-- Node1&#45;&gt;Node3 -->
<g id="edge3_Node000001_Node000003" class="edge">
<title>Node1&#45;&gt;Node3</title>
<g id="a_edge3_Node000001_Node000003"><a xlink:title=" ">
<path fill="none" stroke="#63b8ff" d="M142.88,-92.55C150.9,-93.82 159.08,-95.12 167.09,-96.39"/>
<polygon fill="#63b8ff" stroke="#63b8ff" points="166.35,-99.82 176.77,-97.93 167.44,-92.9 166.35,-99.82"/>
</a>
</g>
</g>
<!-- Node4 -->
<g id="Node000004" class="node">
<title>Node4</title>
<g id="a_Node000004"><a xlink:href="classQtProgressBarDialog.html#a9922b37800f5ce8c45b5ad229a653a74" target="_top" xlink:title=" ">
<polygon fill="white" stroke="#666666" points="296,-72.12 178.75,-72.12 178.75,-38.62 296,-38.62 296,-72.12"/>
<text text-anchor="start" x="186.75" y="-58.62" font-family="Helvetica,sans-Serif" font-size="10.00">QtProgressBarDialog</text>
<text text-anchor="middle" x="237.38" y="-45.88" font-family="Helvetica,sans-Serif" font-size="10.00">::updateProgress</text>
</a>
</g>
</g>
<!-- Node1&#45;&gt;Node4 -->
<g id="edge4_Node000001_Node000004" class="edge">
<title>Node1&#45;&gt;Node4</title>
<g id="a_edge4_Node000001_Node000004"><a xlink:title=" ">
<path fill="none" stroke="#63b8ff" d="M142.88,-70.2C150.9,-68.93 159.08,-67.63 167.09,-66.36"/>
<polygon fill="#63b8ff" stroke="#63b8ff" points="167.44,-69.85 176.77,-64.82 166.35,-62.93 167.44,-69.85"/>
</a>
</g>
</g>
<!-- Node8 -->
<g id="Node000008" class="node">
<title>Node8</title>
<g id="a_Node000008"><a xlink:href="classFilePath.html#a989e098726c8387d4f4690bca3314ce8" target="_top" xlink:title=" ">
<polygon fill="white" stroke="#666666" points="278,-20.75 196.75,-20.75 196.75,0 278,0 278,-20.75"/>
<text text-anchor="middle" x="237.38" y="-7.25" font-family="Helvetica,sans-Serif" font-size="10.00">FilePath::wstr</text>
</a>
</g>
</g>
<!-- Node1&#45;&gt;Node8 -->
<g id="edge8_Node000001_Node000008" class="edge">
<title>Node1&#45;&gt;Node8</title>
<g id="a_edge8_Node000001_Node000008"><a xlink:title=" ">
<path fill="none" stroke="#63b8ff" d="M104.44,-64.28C125.29,-53.52 153.24,-39.76 178.75,-29.38 182.53,-27.83 186.49,-26.33 190.49,-24.87"/>
<polygon fill="#63b8ff" stroke="#63b8ff" points="191.34,-28.28 199.62,-21.68 189.03,-21.67 191.34,-28.28"/>
</a>
</g>
</g>
<!-- Node2&#45;&gt;Node2 -->
<g id="edge2_Node000002_Node000002" class="edge">
<title>Node2&#45;&gt;Node2</title>
<g id="a_edge2_Node000002_Node000002"><a xlink:title=" ">
<path fill="none" stroke="#63b8ff" d="M210.63,-163.15C199.93,-171.81 208.84,-180.75 237.38,-180.75 252.98,-180.75 262.71,-178.08 266.58,-174.24"/>
<polygon fill="#63b8ff" stroke="#63b8ff" points="270.04,-173.63 264.45,-164.62 263.2,-175.15 270.04,-173.63"/>
</a>
</g>
</g>
<!-- Node5 -->
<g id="Node000005" class="node">
<title>Node5</title>
<g id="a_Node000005"><a xlink:href="classQtProgressBarDialog.html#adfea6e8db89c0d3f1c1f2470f73411b4" target="_top" xlink:title=" ">
<polygon fill="white" stroke="#666666" points="470.25,-94.12 353,-94.12 353,-60.62 470.25,-60.62 470.25,-94.12"/>
<text text-anchor="start" x="361" y="-80.62" font-family="Helvetica,sans-Serif" font-size="10.00">QtProgressBarDialog</text>
<text text-anchor="middle" x="411.62" y="-67.88" font-family="Helvetica,sans-Serif" font-size="10.00">::setGeometries</text>
</a>
</g>
</g>
<!-- Node4&#45;&gt;Node5 -->
<g id="edge5_Node000004_Node000005" class="edge">
<title>Node4&#45;&gt;Node5</title>
<g id="a_edge5_Node000004_Node000005"><a xlink:title=" ">
<path fill="none" stroke="#63b8ff" d="M296.21,-62.76C310.7,-64.61 326.38,-66.62 341.36,-68.53"/>
<polygon fill="#63b8ff" stroke="#63b8ff" points="340.78,-71.98 351.15,-69.78 341.67,-65.04 340.78,-71.98"/>
</a>
</g>
</g>
<!-- Node6 -->
<g id="Node000006" class="node">
<title>Node6</title>
<g id="a_Node000006"><a xlink:href="classQtProgressBar.html#ada4b83a2eb86b055d8a672f90999e123" target="_top" xlink:title=" ">
<polygon fill="white" stroke="#666666" points="491.25,-42.75 332,-42.75 332,-22 491.25,-22 491.25,-42.75"/>
<text text-anchor="middle" x="411.62" y="-29.25" font-family="Helvetica,sans-Serif" font-size="10.00">QtProgressBar::showProgress</text>
</a>
</g>
</g>
<!-- Node4&#45;&gt;Node6 -->
<g id="edge6_Node000004_Node000006" class="edge">
<title>Node4&#45;&gt;Node6</title>
<g id="a_edge6_Node000004_Node000006"><a xlink:title=" ">
<path fill="none" stroke="#63b8ff" d="M296.21,-47.65C304.01,-46.61 312.15,-45.52 320.34,-44.43"/>
<polygon fill="#63b8ff" stroke="#63b8ff" points="320.57,-47.93 330.01,-43.14 319.64,-40.99 320.57,-47.93"/>
</a>
</g>
</g>
<!-- Node7 -->
<g id="Node000007" class="node">
<title>Node7</title>
<g id="a_Node000007"><a xlink:href="classQtProgressBar.html#ad808e8e776101607ac05b17770eddb54" target="_top" xlink:title=" ">
<polygon fill="white" stroke="#666666" points="640,-42.75 527.25,-42.75 527.25,-22 640,-22 640,-42.75"/>
<text text-anchor="middle" x="583.62" y="-29.25" font-family="Helvetica,sans-Serif" font-size="10.00">QtProgressBar::stop</text>
</a>
</g>
</g>
<!-- Node6&#45;&gt;Node7 -->
<g id="edge7_Node000006_Node000007" class="edge">
<title>Node6&#45;&gt;Node7</title>
<g id="a_edge7_Node000006_Node000007"><a xlink:title=" ">
<path fill="none" stroke="#63b8ff" d="M491.65,-32.38C499.69,-32.38 507.8,-32.38 515.7,-32.38"/>
<polygon fill="#63b8ff" stroke="#63b8ff" points="515.56,-35.88 525.56,-32.38 515.56,-28.88 515.56,-35.88"/>
</a>
</g>
</g>
</g>
</svg>

<g id="navigator" transform="translate(0 0)" fill="#404254">
  <rect fill="#f2f5e9" fill-opacity="0.5" stroke="#606060" stroke-width=".5" x="0" y="0" width="60" height="60"/>
  <use id="zoomplus" xlink:href="#zoomPlus" x="17" y="9" onmousedown="handleZoom(evt,'in')"/>
  <use id="zoomminus" xlink:href="#zoomMin" x="42" y="9" onmousedown="handleZoom(evt,'out')"/>
  <use id="reset" xlink:href="#resetDef" x="30" y="36" onmousedown="handleReset()"/>
   <use id="arrowup" xlink:href="#arrowUp" x="0" y="0" onmousedown="handlePan(0,-1)"/>
  <use id="arrowright" xlink:href="#arrowRight" x="0" y="0" onmousedown="handlePan(1,0)"/>
  <use id="arrowdown" xlink:href="#arrowDown" x="0" y="0" onmousedown="handlePan(0,1)"/>
  <use id="arrowleft" xlink:href="#arrowLeft" x="0" y="0" onmousedown="handlePan(-1,0)"/>
</g>
<svg viewBox="0 0 15 15" width="100%" height="30px" preserveAspectRatio="xMaxYMin meet">
 <g id="arrow_out" transform="scale(0.3 0.3)">
  <a xlink:href="classQtIndexingProgressDialog_a1048945868fded4edc1f564a3f0e60ec_cgraph_org.svg" target="_base">
   <rect id="button" ry="5" rx="5" y="6" x="6" height="38" width="38"
        fill="#f2f5e9" fill-opacity="0.5" stroke="#606060" stroke-width="1.0"/>
   <path id="arrow"
     d="M 11.500037,31.436501 C 11.940474,20.09759 22.043105,11.32322 32.158766,21.979434 L 37.068811,17.246167 C 37.068811,17.246167 37.088388,32 37.088388,32 L 22.160133,31.978069 C 22.160133,31.978069 26.997745,27.140456 26.997745,27.140456 C 18.528582,18.264221 13.291696,25.230495 11.500037,31.436501 z"
     style="fill:#404040;"/>
  </a>
 </g>
</svg>

<style type='text/css'>
<![CDATA[
[data-mouse-over-selected='false'] { opacity: 0.7; }
[data-mouse-over-selected='true']  { opacity: 1.0; }
]]>
</style>
<script type="application/ecmascript"><![CDATA[
document.addEventListener('DOMContentLoaded', (event) => {
  highlightEdges();
  highlightAdjacentNodes();
});
]]></script>
</svg>
