<?xml version="1.0" encoding="UTF-8" standalone="no"?>
<!DOCTYPE svg PUBLIC "-//W3C//DTD SVG 1.1//EN"
 "http://www.w3.org/Graphics/SVG/1.1/DTD/svg11.dtd">
<!-- Generated by graphviz version 7.1.0 (0)
 -->
<!-- Title: ConfigManager::getSublevelKeys Pages: 1 -->
<svg width="314pt" height="64pt"
 viewBox="0.00 0.00 314.00 64.00" xmlns="http://www.w3.org/2000/svg" xmlns:xlink="http://www.w3.org/1999/xlink">
<g id="graph0" class="graph" transform="scale(1 1) rotate(0) translate(4 60)">
<title>ConfigManager::getSublevelKeys</title>
<!-- Node1 -->
<g id="node1" class="node">
<title>Node1</title>
<g id="a_node1"><a xlink:title=" ">
<polygon fill="#999999" stroke="#666666" points="178,-37 0,-37 0,-18 178,-18 178,-37"/>
<text text-anchor="middle" x="89" y="-25" font-family="Helvetica,sans-Serif" font-size="10.00">ConfigManager::getSublevelKeys</text>
</a>
</g>
</g>
<!-- Node2 -->
<g id="node2" class="node">
<title>Node2</title>
<g id="a_node2"><a xlink:href="namespaceutility.html#a600e7e7f7c8fba53113010d767e9e7a2" target="_top" xlink:title=" ">
<polygon fill="white" stroke="#666666" points="303.5,-56 216.5,-56 216.5,-37 303.5,-37 303.5,-56"/>
<text text-anchor="middle" x="260" y="-44" font-family="Helvetica,sans-Serif" font-size="10.00">utility::isPrefix</text>
</a>
</g>
</g>
<!-- Node1&#45;&gt;Node2 -->
<g id="edge1" class="edge">
<title>Node1&#45;&gt;Node2</title>
<path fill="none" stroke="#63b8ff" d="M178.46,-37.45C187.46,-38.46 196.41,-39.46 204.88,-40.42"/>
<polygon fill="#63b8ff" stroke="#63b8ff" points="204.28,-43.87 214.6,-41.51 205.06,-36.91 204.28,-43.87"/>
</g>
<!-- Node3 -->
<g id="node3" class="node">
<title>Node3</title>
<g id="a_node3"><a xlink:href="namespaceutility.html#aaf52f1ff3ca887705d82c1e674f434c0" target="_top" xlink:title=" ">
<polygon fill="white" stroke="#666666" points="306,-19 214,-19 214,0 306,0 306,-19"/>
<text text-anchor="middle" x="260" y="-7" font-family="Helvetica,sans-Serif" font-size="10.00">utility::toVector</text>
</a>
</g>
</g>
<!-- Node1&#45;&gt;Node3 -->
<g id="edge2" class="edge">
<title>Node1&#45;&gt;Node3</title>
<path fill="none" stroke="#63b8ff" d="M178.46,-18.08C186.52,-17.22 194.53,-16.37 202.2,-15.55"/>
<polygon fill="#63b8ff" stroke="#63b8ff" points="202.47,-19.04 212.04,-14.5 201.72,-12.08 202.47,-19.04"/>
</g>
</g>
</svg>
