<?xml version="1.0" encoding="UTF-8" standalone="no"?>
<!DOCTYPE svg PUBLIC "-//W3C//DTD SVG 1.1//EN"
 "http://www.w3.org/Graphics/SVG/1.1/DTD/svg11.dtd">
<!-- Generated by graphviz version 9.0.0 (0)
 -->
<!-- Title: QtStringListBox::setStrings Pages: 1 -->
<!--zoomable 157 -->

<svg id="main" version="1.1" xmlns="http://www.w3.org/2000/svg" xmlns:xlink="http://www.w3.org/1999/xlink" xml:space="preserve" onload="init(evt)">
<style type="text/css"><![CDATA[
.node, .edge {opacity: 0.7;}
.node.selected, .edge.selected {opacity: 1;}
.edge:hover path { stroke: red; }
.edge:hover polygon { stroke: red; fill: red; }
]]></style>

<defs>
  <circle id="rim" cx="0" cy="0" r="7"/>
  <circle id="rim2" cx="0" cy="0" r="3.5"/>
  <g id="zoomPlus">
    <use xlink:href="#rim" fill="#404040"><set attributeName="fill" to="#808080" begin="zoomplus.mouseover" end="zoomplus.mouseout"/></use>
    <path d="M-4,0h8M0,-4v8" fill="none" stroke="white" stroke-width="1.5" pointer-events="none"/>
  </g>
  <g id="zoomMin">
    <use xlink:href="#rim" fill="#404040"><set attributeName="fill" to="#808080" begin="zoomminus.mouseover" end="zoomminus.mouseout"/></use>
    <path d="M-4,0h8" fill="none" stroke="white" stroke-width="1.5" pointer-events="none"/>
  </g>
  <g id="arrowUp" transform="translate(30 24)">
    <use xlink:href="#rim"/>
    <path pointer-events="none" fill="none" stroke="white" stroke-width="1.5" d="M0,-3.0v7 M-2.5,-0.5L0,-3.0L2.5,-0.5"/>
  </g>
  <g id="arrowRight" transform="rotate(90) translate(36 -43)">
    <use xlink:href="#rim"/>
    <path pointer-events="none" fill="none" stroke="white" stroke-width="1.5" d="M0,-3.0v7 M-2.5,-0.5L0,-3.0L2.5,-0.5"/>
  </g>
  <g id="arrowDown" transform="rotate(180) translate(-30 -48)">
    <use xlink:href="#rim"/>
    <path pointer-events="none" fill="none" stroke="white" stroke-width="1.5" d="M0,-3.0v7 M-2.5,-0.5L0,-3.0L2.5,-0.5"/>
  </g>
  <g id="arrowLeft" transform="rotate(270) translate(-36 17)">
    <use xlink:href="#rim"/>
    <path pointer-events="none" fill="none" stroke="white" stroke-width="1.5" d="M0,-3.0v7 M-2.5,-0.5L0,-3.0L2.5,-0.5"/>
  </g>
  <g id="resetDef">
    <use xlink:href="#rim2" fill="#404040"><set attributeName="fill" to="#808080" begin="reset.mouseover" end="reset.mouseout"/></use>
  </g>
</defs>
<script type="application/ecmascript">
var viewWidth = 726;
var viewHeight = 157;
var sectionId = 'dynsection-17';
</script>
<script type="application/ecmascript" xlink:href="svg.min.js"/>
<svg id="graph" class="graph">
<g id="viewport">
<title>QtStringListBox::setStrings</title>
<!-- Node1 -->
<g id="Node000001" class="node">
<title>Node1</title>
<g id="a_Node000001"><a xlink:title=" ">
<polygon fill="#999999" stroke="#666666" points="146.5,-66.12 0,-66.12 0,-45.38 146.5,-45.38 146.5,-66.12"/>
<text text-anchor="middle" x="73.25" y="-52.62" font-family="Helvetica,sans-Serif" font-size="10.00">QtStringListBox::setStrings</text>
</a>
</g>
</g>
<!-- Node2 -->
<g id="Node000002" class="node">
<title>Node2</title>
<g id="a_Node000002"><a xlink:href="classQtListBox.html#ac42b92a2e2a8eb509458dca8def467c8" target="_top" xlink:title=" ">
<polygon fill="white" stroke="#666666" points="332.38,-117.5 186.62,-117.5 186.62,-84 332.38,-84 332.38,-117.5"/>
<text text-anchor="start" x="194.62" y="-104" font-family="Helvetica,sans-Serif" font-size="10.00">QtListBox::addListBoxItem</text>
<text text-anchor="middle" x="259.5" y="-91.25" font-family="Helvetica,sans-Serif" font-size="10.00">WithText</text>
</a>
</g>
</g>
<!-- Node1&#45;&gt;Node2 -->
<g id="edge1_Node000001_Node000002" class="edge">
<title>Node1&#45;&gt;Node2</title>
<g id="a_edge1_Node000001_Node000002"><a xlink:title=" ">
<path fill="none" stroke="#63b8ff" d="M118.38,-66.53C135.99,-70.83 156.84,-75.92 177,-80.85"/>
<polygon fill="#63b8ff" stroke="#63b8ff" points="176.09,-84.23 186.64,-83.2 177.75,-77.43 176.09,-84.23"/>
</a>
</g>
</g>
<!-- Node7 -->
<g id="Node000007" class="node">
<title>Node7</title>
<g id="a_Node000007"><a xlink:href="classQtListBox.html#a2d1bd3966d59c8d45560a819e2709dfd" target="_top" xlink:title=" ">
<polygon fill="white" stroke="#666666" points="306.12,-66.12 212.88,-66.12 212.88,-45.38 306.12,-45.38 306.12,-66.12"/>
<text text-anchor="middle" x="259.5" y="-52.62" font-family="Helvetica,sans-Serif" font-size="10.00">QtListBox::clear</text>
</a>
</g>
</g>
<!-- Node1&#45;&gt;Node7 -->
<g id="edge6_Node000001_Node000007" class="edge">
<title>Node1&#45;&gt;Node7</title>
<g id="a_edge6_Node000001_Node000007"><a xlink:title=" ">
<path fill="none" stroke="#63b8ff" d="M146.81,-55.75C164.98,-55.75 184.22,-55.75 201.51,-55.75"/>
<polygon fill="#63b8ff" stroke="#63b8ff" points="201.05,-59.25 211.05,-55.75 201.05,-52.25 201.05,-59.25"/>
</a>
</g>
</g>
<!-- Node8 -->
<g id="Node000008" class="node">
<title>Node8</title>
<g id="a_Node000008"><a xlink:href="classQtListBoxItem.html#a1d042d61978d8d5d143b130a3cdd6ab8" target="_top" xlink:title=" ">
<polygon fill="white" stroke="#666666" points="336.5,-27.12 182.5,-27.12 182.5,-6.38 336.5,-6.38 336.5,-27.12"/>
<text text-anchor="middle" x="259.5" y="-13.62" font-family="Helvetica,sans-Serif" font-size="10.00">QtListBoxItem::setReadOnly</text>
</a>
</g>
</g>
<!-- Node1&#45;&gt;Node8 -->
<g id="edge7_Node000001_Node000008" class="edge">
<title>Node1&#45;&gt;Node8</title>
<g id="a_edge7_Node000001_Node000008"><a xlink:title=" ">
<path fill="none" stroke="#63b8ff" d="M125.57,-44.89C147.44,-40.26 173.16,-34.81 196.11,-29.96"/>
<polygon fill="#63b8ff" stroke="#63b8ff" points="196.59,-33.43 205.65,-27.94 195.14,-26.58 196.59,-33.43"/>
</a>
</g>
</g>
<!-- Node3 -->
<g id="Node000003" class="node">
<title>Node3</title>
<g id="a_Node000003"><a xlink:href="classQtListBox.html#ab85600b8cd5aa6c035abd21c2e86d928" target="_top" xlink:title=" ">
<polygon fill="white" stroke="#666666" points="520.88,-130.12 375.12,-130.12 375.12,-109.38 520.88,-109.38 520.88,-130.12"/>
<text text-anchor="middle" x="448" y="-116.62" font-family="Helvetica,sans-Serif" font-size="10.00">QtListBox::addListBoxItem</text>
</a>
</g>
</g>
<!-- Node2&#45;&gt;Node3 -->
<g id="edge2_Node000002_Node000003" class="edge">
<title>Node2&#45;&gt;Node3</title>
<g id="a_edge2_Node000002_Node000003"><a xlink:title=" ">
<path fill="none" stroke="#63b8ff" d="M332.87,-108.12C342.84,-109.14 353.15,-110.19 363.3,-111.22"/>
<polygon fill="#63b8ff" stroke="#63b8ff" points="362.86,-114.7 373.16,-112.23 363.57,-107.73 362.86,-114.7"/>
</a>
</g>
</g>
<!-- Node6 -->
<g id="Node000006" class="node">
<title>Node6</title>
<g id="a_Node000006"><a xlink:href="classQtListBoxItem.html#a3f75a39f922940872590ebb3146a8ba4" target="_top" xlink:title=" ">
<polygon fill="white" stroke="#666666" points="511.5,-91.12 384.5,-91.12 384.5,-70.38 511.5,-70.38 511.5,-91.12"/>
<text text-anchor="middle" x="448" y="-77.62" font-family="Helvetica,sans-Serif" font-size="10.00">QtListBoxItem::setText</text>
</a>
</g>
</g>
<!-- Node2&#45;&gt;Node6 -->
<g id="edge5_Node000002_Node000006" class="edge">
<title>Node2&#45;&gt;Node6</title>
<g id="a_edge5_Node000002_Node000006"><a xlink:title=" ">
<path fill="none" stroke="#63b8ff" d="M332.87,-92.99C345.94,-91.59 359.58,-90.12 372.7,-88.72"/>
<polygon fill="#63b8ff" stroke="#63b8ff" points="373,-92.21 382.57,-87.66 372.25,-85.25 373,-92.21"/>
</a>
</g>
</g>
<!-- Node4 -->
<g id="Node000004" class="node">
<title>Node4</title>
<g id="a_Node000004"><a xlink:href="classQtListBox.html#aded0d85d73468d463ffc4f06150c190e" target="_top" xlink:title=" ">
<polygon fill="white" stroke="#666666" points="718,-149.12 559.5,-149.12 559.5,-128.38 718,-128.38 718,-149.12"/>
<text text-anchor="middle" x="638.75" y="-135.62" font-family="Helvetica,sans-Serif" font-size="10.00">QtListBox::createListBoxItem</text>
</a>
</g>
</g>
<!-- Node3&#45;&gt;Node4 -->
<g id="edge3_Node000003_Node000004" class="edge">
<title>Node3&#45;&gt;Node4</title>
<g id="a_edge3_Node000003_Node000004"><a xlink:title=" ">
<path fill="none" stroke="#63b8ff" d="M521.17,-127.01C529.87,-127.89 538.85,-128.79 547.77,-129.69"/>
<polygon fill="#63b8ff" stroke="#63b8ff" points="547.22,-133.15 557.52,-130.67 547.92,-126.19 547.22,-133.15"/>
</a>
</g>
</g>
<!-- Node5 -->
<g id="Node000005" class="node">
<title>Node5</title>
<g id="a_Node000005"><a xlink:href="classQtListBoxItem.html#a988c59cb0ddbc7285981ede21fb61422" target="_top" xlink:title=" ">
<polygon fill="white" stroke="#666666" points="706,-110.12 571.5,-110.12 571.5,-89.38 706,-89.38 706,-110.12"/>
<text text-anchor="middle" x="638.75" y="-96.62" font-family="Helvetica,sans-Serif" font-size="10.00">QtListBoxItem::setFocus</text>
</a>
</g>
</g>
<!-- Node3&#45;&gt;Node5 -->
<g id="edge4_Node000003_Node000005" class="edge">
<title>Node3&#45;&gt;Node5</title>
<g id="a_edge4_Node000003_Node000005"><a xlink:title=" ">
<path fill="none" stroke="#63b8ff" d="M521.17,-112.1C533.88,-110.76 547.17,-109.35 560.03,-107.98"/>
<polygon fill="#63b8ff" stroke="#63b8ff" points="560.12,-111.5 569.7,-106.96 559.38,-104.53 560.12,-111.5"/>
</a>
</g>
</g>
<!-- Node9 -->
<g id="Node000009" class="node">
<title>Node9</title>
<g id="a_Node000009"><a xlink:href="classQtListBoxItem.html#a967053bd48b913a5bbc3076ca638b52b" target="_top" xlink:title=" ">
<polygon fill="white" stroke="#666666" points="523.5,-33.5 372.5,-33.5 372.5,0 523.5,0 523.5,-33.5"/>
<text text-anchor="start" x="380.5" y="-20" font-family="Helvetica,sans-Serif" font-size="10.00">QtListBoxItem::onReadOnly</text>
<text text-anchor="middle" x="448" y="-7.25" font-family="Helvetica,sans-Serif" font-size="10.00">Changed</text>
</a>
</g>
</g>
<!-- Node8&#45;&gt;Node9 -->
<g id="edge8_Node000008_Node000009" class="edge">
<title>Node8&#45;&gt;Node9</title>
<g id="a_edge8_Node000008_Node000009"><a xlink:title=" ">
<path fill="none" stroke="#63b8ff" d="M336.89,-16.75C344.83,-16.75 352.93,-16.75 360.95,-16.75"/>
<polygon fill="#63b8ff" stroke="#63b8ff" points="360.72,-20.25 370.72,-16.75 360.72,-13.25 360.72,-20.25"/>
</a>
</g>
</g>
</g>
</svg>

<g id="navigator" transform="translate(0 0)" fill="#404254">
  <rect fill="#f2f5e9" fill-opacity="0.5" stroke="#606060" stroke-width=".5" x="0" y="0" width="60" height="60"/>
  <use id="zoomplus" xlink:href="#zoomPlus" x="17" y="9" onmousedown="handleZoom(evt,'in')"/>
  <use id="zoomminus" xlink:href="#zoomMin" x="42" y="9" onmousedown="handleZoom(evt,'out')"/>
  <use id="reset" xlink:href="#resetDef" x="30" y="36" onmousedown="handleReset()"/>
   <use id="arrowup" xlink:href="#arrowUp" x="0" y="0" onmousedown="handlePan(0,-1)"/>
  <use id="arrowright" xlink:href="#arrowRight" x="0" y="0" onmousedown="handlePan(1,0)"/>
  <use id="arrowdown" xlink:href="#arrowDown" x="0" y="0" onmousedown="handlePan(0,1)"/>
  <use id="arrowleft" xlink:href="#arrowLeft" x="0" y="0" onmousedown="handlePan(-1,0)"/>
</g>
<svg viewBox="0 0 15 15" width="100%" height="30px" preserveAspectRatio="xMaxYMin meet">
 <g id="arrow_out" transform="scale(0.3 0.3)">
  <a xlink:href="classQtStringListBox_a38914b0ca6a9b5cb4eac25cf8f65e51f_cgraph_org.svg" target="_base">
   <rect id="button" ry="5" rx="5" y="6" x="6" height="38" width="38"
        fill="#f2f5e9" fill-opacity="0.5" stroke="#606060" stroke-width="1.0"/>
   <path id="arrow"
     d="M 11.500037,31.436501 C 11.940474,20.09759 22.043105,11.32322 32.158766,21.979434 L 37.068811,17.246167 C 37.068811,17.246167 37.088388,32 37.088388,32 L 22.160133,31.978069 C 22.160133,31.978069 26.997745,27.140456 26.997745,27.140456 C 18.528582,18.264221 13.291696,25.230495 11.500037,31.436501 z"
     style="fill:#404040;"/>
  </a>
 </g>
</svg>

<style type='text/css'>
<![CDATA[
[data-mouse-over-selected='false'] { opacity: 0.7; }
[data-mouse-over-selected='true']  { opacity: 1.0; }
]]>
</style>
<script type="application/ecmascript"><![CDATA[
document.addEventListener('DOMContentLoaded', (event) => {
  highlightEdges();
  highlightAdjacentNodes();
});
]]></script>
</svg>
