<?xml version="1.0" encoding="UTF-8" standalone="no"?>
<!DOCTYPE svg PUBLIC "-//W3C//DTD SVG 1.1//EN"
 "http://www.w3.org/Graphics/SVG/1.1/DTD/svg11.dtd">
<!-- Generated by graphviz version 7.1.0 (0)
 -->
<!-- Title: QtTable::hasSelection Pages: 1 -->
<!--zoomable 212 -->
<svg id="main" version="1.1" xmlns="http://www.w3.org/2000/svg" xmlns:xlink="http://www.w3.org/1999/xlink" xml:space="preserve" onload="init(evt)">
<style type="text/css"><![CDATA[
.edge:hover path { stroke: red; }
.edge:hover polygon { stroke: red; fill: red; }
]]></style>
<script type="text/javascript"><![CDATA[
var edges = document.getElementsByTagName('g');
if (edges && edges.length) {
  for (var i=0;i<edges.length;i++) {
    if (edges[i].id.substr(0,4)=='edge') {
      edges[i].setAttribute('class','edge');
    }
  }
}
]]></script>
        <defs>
                <circle id="rim" cx="0" cy="0" r="7"/>
                <circle id="rim2" cx="0" cy="0" r="3.5"/>
                <g id="zoomPlus">
                        <use xlink:href="#rim" fill="#404040">
                                <set attributeName="fill" to="#808080" begin="zoomplus.mouseover" end="zoomplus.mouseout"/>
                        </use>
                        <path d="M-4,0h8M0,-4v8" fill="none" stroke="white" stroke-width="1.5" pointer-events="none"/>
                </g>
                <g id="zoomMin">
                        <use xlink:href="#rim" fill="#404040">
                                <set attributeName="fill" to="#808080" begin="zoomminus.mouseover" end="zoomminus.mouseout"/>
                        </use>
                        <path d="M-4,0h8" fill="none" stroke="white" stroke-width="1.5" pointer-events="none"/>
                </g>
                <g id="dirArrow">
                        <path fill="none" stroke="white" stroke-width="1.5" d="M0,-3.0v7 M-2.5,-0.5L0,-3.0L2.5,-0.5"/>
                </g>
               <g id="resetDef">
                       <use xlink:href="#rim2" fill="#404040">
                               <set attributeName="fill" to="#808080" begin="reset.mouseover" end="reset.mouseout"/>
                       </use>
               </g>
        </defs>

<script type="text/javascript">
var viewWidth = 646;
var viewHeight = 212;
var sectionId = 'dynsection-5';
</script>
<script xlink:href="svgpan.js"/>
<svg id="graph" class="graph">
<g id="viewport">
<title>QtTable::hasSelection</title>
<!-- Node1 -->
<g id="node1" class="node">
<title>Node1</title>
<g id="a_node1"><a xlink:title=" ">
<polygon fill="#999999" stroke="#666666" points="638,-149 516,-149 516,-130 638,-130 638,-149"/>
<text text-anchor="middle" x="577" y="-137" font-family="Helvetica,sans-Serif" font-size="10.00">QtTable::hasSelection</text>
</a>
</g>
</g>
<!-- Node2 -->
<g id="node2" class="node">
<title>Node2</title>
<g id="a_node2"><a xlink:href="classQtStatusView.html#abd830958e8b8224b46f02cab656e91a4" target="_top" xlink:title=" ">
<polygon fill="white" stroke="#666666" points="319,-204 182,-204 182,-185 319,-185 319,-204"/>
<text text-anchor="middle" x="250.5" y="-192" font-family="Helvetica,sans-Serif" font-size="10.00">QtStatusView::addStatus</text>
</a>
</g>
</g>
<!-- Node1&#45;&gt;Node2 -->
<g id="edge1" class="edge">
<title>Node1&#45;&gt;Node2</title>
<path fill="none" stroke="#63b8ff" d="M505.9,-151.38C447.53,-161.27 365.37,-175.2 310.37,-184.52"/>
<polygon fill="#63b8ff" stroke="#63b8ff" points="506.47,-154.83 515.74,-149.71 505.3,-147.93 506.47,-154.83"/>
</g>
<!-- Node3 -->
<g id="node3" class="node">
<title>Node3</title>
<g id="a_node3"><a xlink:href="classQtTable.html#a5f1148b5f6442198f8fb849abd60a91e" target="_top" xlink:title=" ">
<polygon fill="white" stroke="#666666" points="480,-130 361,-130 361,-111 480,-111 480,-130"/>
<text text-anchor="middle" x="420.5" y="-118" font-family="Helvetica,sans-Serif" font-size="10.00">QtTable::updateRows</text>
</a>
</g>
</g>
<!-- Node1&#45;&gt;Node3 -->
<g id="edge2" class="edge">
<title>Node1&#45;&gt;Node3</title>
<path fill="none" stroke="#63b8ff" d="M504.54,-130.71C496.49,-129.72 488.36,-128.72 480.5,-127.76"/>
<polygon fill="#63b8ff" stroke="#63b8ff" points="503.97,-134.17 514.32,-131.91 504.82,-127.22 503.97,-134.17"/>
</g>
<!-- Node3&#45;&gt;Node2 -->
<g id="edge4" class="edge">
<title>Node3&#45;&gt;Node2</title>
<path fill="none" stroke="#63b8ff" d="M396.42,-136.81C377.88,-149.25 350.77,-165.98 325,-176.5 317.34,-179.63 308.99,-182.31 300.77,-184.57"/>
<polygon fill="#63b8ff" stroke="#63b8ff" points="398.25,-139.8 404.52,-131.27 394.29,-134.02 398.25,-139.8"/>
</g>
<!-- Node4 -->
<g id="node4" class="node">
<title>Node4</title>
<g id="a_node4"><a xlink:href="classQtErrorView.html#a54bd1b4379a35fc612785cfd235ec4d0" target="_top" xlink:title=" ">
<polygon fill="white" stroke="#666666" points="314.5,-167 186.5,-167 186.5,-148 314.5,-148 314.5,-167"/>
<text text-anchor="middle" x="250.5" y="-155" font-family="Helvetica,sans-Serif" font-size="10.00">QtErrorView::addErrors</text>
</a>
</g>
</g>
<!-- Node3&#45;&gt;Node4 -->
<g id="edge3" class="edge">
<title>Node3&#45;&gt;Node4</title>
<path fill="none" stroke="#63b8ff" d="M363.42,-132.85C341.71,-137.63 317.19,-143.03 296.65,-147.56"/>
<polygon fill="#63b8ff" stroke="#63b8ff" points="363.99,-136.31 373,-130.74 362.48,-129.47 363.99,-136.31"/>
</g>
<!-- Node5 -->
<g id="node5" class="node">
<title>Node5</title>
<g id="a_node5"><a xlink:href="classQtErrorView.html#ac938220f454240285e295740d1a7cbb1" target="_top" xlink:title=" ">
<polygon fill="white" stroke="#666666" points="303,-130 198,-130 198,-111 303,-111 303,-130"/>
<text text-anchor="middle" x="250.5" y="-118" font-family="Helvetica,sans-Serif" font-size="10.00">QtErrorView::clear</text>
</a>
</g>
</g>
<!-- Node3&#45;&gt;Node5 -->
<g id="edge5" class="edge">
<title>Node3&#45;&gt;Node5</title>
<path fill="none" stroke="#63b8ff" d="M349.58,-120.5C334.06,-120.5 317.87,-120.5 303.23,-120.5"/>
<polygon fill="#63b8ff" stroke="#63b8ff" points="349.23,-124 359.23,-120.5 349.23,-117 349.23,-124"/>
</g>
<!-- Node6 -->
<g id="node6" class="node">
<title>Node6</title>
<g id="a_node6"><a xlink:href="classQtStatusView.html#acceaeceef6429443b269ef6c86ccb668" target="_top" xlink:title=" ">
<polygon fill="white" stroke="#666666" points="324,-93 177,-93 177,-74 324,-74 324,-93"/>
<text text-anchor="middle" x="250.5" y="-81" font-family="Helvetica,sans-Serif" font-size="10.00">QtStatusView::refreshView</text>
</a>
</g>
</g>
<!-- Node3&#45;&gt;Node6 -->
<g id="edge6" class="edge">
<title>Node3&#45;&gt;Node6</title>
<path fill="none" stroke="#63b8ff" d="M363.42,-108.15C341.71,-103.37 317.19,-97.97 296.65,-93.44"/>
<polygon fill="#63b8ff" stroke="#63b8ff" points="362.48,-111.53 373,-110.26 363.99,-104.69 362.48,-111.53"/>
</g>
<!-- Node7 -->
<g id="node7" class="node">
<title>Node7</title>
<g id="a_node7"><a xlink:href="classQtTable.html#ada45aee836cd061ed5a24460310bcb40" target="_top" xlink:title=" ">
<polygon fill="white" stroke="#666666" points="308.5,-56 192.5,-56 192.5,-37 308.5,-37 308.5,-56"/>
<text text-anchor="middle" x="250.5" y="-44" font-family="Helvetica,sans-Serif" font-size="10.00">QtTable::resizeEvent</text>
</a>
</g>
</g>
<!-- Node3&#45;&gt;Node7 -->
<g id="edge7" class="edge">
<title>Node3&#45;&gt;Node7</title>
<path fill="none" stroke="#63b8ff" d="M396.01,-104.38C377.44,-92.25 350.48,-75.97 325,-65.5 316.47,-61.99 307.1,-58.98 298.01,-56.46"/>
<polygon fill="#63b8ff" stroke="#63b8ff" points="393.88,-107.17 404.15,-109.79 397.76,-101.34 393.88,-107.17"/>
</g>
<!-- Node8 -->
<g id="node8" class="node">
<title>Node8</title>
<g id="a_node8"><a xlink:href="classQtErrorView.html#a66c5bc4a991df31c1c59765350909f98" target="_top" xlink:title=" ">
<polygon fill="white" stroke="#666666" points="325,-19 176,-19 176,0 325,0 325,-19"/>
<text text-anchor="middle" x="250.5" y="-7" font-family="Helvetica,sans-Serif" font-size="10.00">QtErrorView::setStyleSheet</text>
</a>
</g>
</g>
<!-- Node3&#45;&gt;Node8 -->
<g id="edge8" class="edge">
<title>Node3&#45;&gt;Node8</title>
<path fill="none" stroke="#63b8ff" d="M405.49,-101.57C388.73,-80.29 358.67,-46.28 325,-27.5 319.26,-24.3 312.96,-21.66 306.54,-19.49"/>
<polygon fill="#63b8ff" stroke="#63b8ff" points="402.64,-103.59 411.5,-109.4 408.19,-99.34 402.64,-103.59"/>
</g>
<!-- Node9 -->
<g id="node9" class="node">
<title>Node9</title>
<g id="a_node9"><a xlink:href="classQtErrorView.html#a7f68ffccbea19232907549a76ba76648" target="_top" xlink:title=" ">
<polygon fill="white" stroke="#666666" points="140,-19 0,-19 0,0 140,0 140,-19"/>
<text text-anchor="middle" x="70" y="-7" font-family="Helvetica,sans-Serif" font-size="10.00">QtErrorView::refreshView</text>
</a>
</g>
</g>
<!-- Node8&#45;&gt;Node9 -->
<g id="edge9" class="edge">
<title>Node8&#45;&gt;Node9</title>
<path fill="none" stroke="#63b8ff" d="M164.28,-9.5C156.23,-9.5 148.13,-9.5 140.25,-9.5"/>
<polygon fill="#63b8ff" stroke="#63b8ff" points="164.1,-13 174.1,-9.5 164.1,-6 164.1,-13"/>
</g>
</g>
</svg>
        <g id="navigator" transform="translate(0 0)" fill="#404254">
                <rect fill="#f2f5e9" fill-opacity="0.5" stroke="#606060" stroke-width=".5" x="0" y="0" width="60" height="60"/>
                <use id="zoomplus" xlink:href="#zoomPlus" x="17" y="9" onmousedown="handleZoom(evt,'in')"/>
                <use id="zoomminus" xlink:href="#zoomMin" x="42" y="9" onmousedown="handleZoom(evt,'out')"/>
                <use id="reset" xlink:href="#resetDef" x="30" y="36" onmousedown="handleReset()"/>
                <g id="arrowUp" xlink:href="#dirArrow" transform="translate(30 24)" onmousedown="handlePan(0,-1)">
                  <use xlink:href="#rim" fill="#404040">
                        <set attributeName="fill" to="#808080" begin="arrowUp.mouseover" end="arrowUp.mouseout"/>
                  </use>
                  <path fill="none" stroke="white" stroke-width="1.5" d="M0,-3.0v7 M-2.5,-0.5L0,-3.0L2.5,-0.5"/>
                </g>
                <g id="arrowRight" xlink:href="#dirArrow" transform="rotate(90) translate(36 -43)" onmousedown="handlePan(1,0)">
                  <use xlink:href="#rim" fill="#404040">
                        <set attributeName="fill" to="#808080" begin="arrowRight.mouseover" end="arrowRight.mouseout"/>
                  </use>
                  <path fill="none" stroke="white" stroke-width="1.5" d="M0,-3.0v7 M-2.5,-0.5L0,-3.0L2.5,-0.5"/>
                </g>
                <g id="arrowDown" xlink:href="#dirArrow" transform="rotate(180) translate(-30 -48)" onmousedown="handlePan(0,1)">
                  <use xlink:href="#rim" fill="#404040">
                        <set attributeName="fill" to="#808080" begin="arrowDown.mouseover" end="arrowDown.mouseout"/>
                  </use>
                  <path fill="none" stroke="white" stroke-width="1.5" d="M0,-3.0v7 M-2.5,-0.5L0,-3.0L2.5,-0.5"/>
                </g>
                <g id="arrowLeft" xlink:href="#dirArrow" transform="rotate(270) translate(-36 17)" onmousedown="handlePan(-1,0)">
                  <use xlink:href="#rim" fill="#404040">
                        <set attributeName="fill" to="#808080" begin="arrowLeft.mouseover" end="arrowLeft.mouseout"/>
                  </use>
                  <path fill="none" stroke="white" stroke-width="1.5" d="M0,-3.0v7 M-2.5,-0.5L0,-3.0L2.5,-0.5"/>
                </g>
        </g>
        <svg viewBox="0 0 15 15" width="100%" height="30px" preserveAspectRatio="xMaxYMin meet">
         <g id="arrow_out" transform="scale(0.3 0.3)">
          <a xlink:href="classQtTable_a9587ccaba00b0d38f0b2ad898d7d2f10_icgraph_org.svg" target="_base">
           <rect id="button" ry="5" rx="5" y="6" x="6" height="38" width="38"
                fill="#f2f5e9" fill-opacity="0.5" stroke="#606060" stroke-width="1.0"/>
           <path id="arrow"
             d="M 11.500037,31.436501 C 11.940474,20.09759 22.043105,11.32322 32.158766,21.979434 L 37.068811,17.246167 C 37.068811,17.246167 37.088388,32 37.088388,32 L 22.160133,31.978069 C 22.160133,31.978069 26.997745,27.140456 26.997745,27.140456 C 18.528582,18.264221 13.291696,25.230495 11.500037,31.436501 z"
             style="fill:#404040;"/>
          </a>
         </g>
        </svg>
</svg>
