<?xml version="1.0" encoding="UTF-8" standalone="no"?>
<!DOCTYPE svg PUBLIC "-//W3C//DTD SVG 1.1//EN"
 "http://www.w3.org/Graphics/SVG/1.1/DTD/svg11.dtd">
<!-- Generated by graphviz version 9.0.0 (0)
 -->
<!-- Title: MouseReleaseFilter Pages: 1 -->
<svg width="176pt" height="111pt"
 viewBox="0.00 0.00 176.25 111.00" xmlns="http://www.w3.org/2000/svg" xmlns:xlink="http://www.w3.org/1999/xlink">
<g id="graph0" class="graph" transform="scale(1 1) rotate(0) translate(4 107)">
<title>MouseReleaseFilter</title>
<!-- Node1 -->
<g id="Node000001" class="node">
<title>Node1</title>
<g id="a_Node000001"><a xlink:title=" ">
<polygon fill="#999999" stroke="#666666" points="117.12,-20.75 5.88,-20.75 5.88,0 117.12,0 117.12,-20.75"/>
<text text-anchor="middle" x="61.5" y="-7.25" font-family="Helvetica,sans-Serif" font-size="10.00">MouseReleaseFilter</text>
</a>
</g>
</g>
<!-- Node2 -->
<g id="Node000002" class="node">
<title>Node2</title>
<g id="a_Node000002"><a xlink:href="classQObject.html" target="_top" xlink:title=" ">
<polygon fill="white" stroke="#666666" points="55,-103 0,-103 0,-82.25 55,-82.25 55,-103"/>
<text text-anchor="middle" x="27.5" y="-89.5" font-family="Helvetica,sans-Serif" font-size="10.00">QObject</text>
</a>
</g>
</g>
<!-- Node2&#45;&gt;Node1 -->
<g id="edge1_Node000001_Node000002" class="edge">
<title>Node2&#45;&gt;Node1</title>
<g id="a_edge1_Node000001_Node000002"><a xlink:title=" ">
<path fill="none" stroke="#63b8ff" d="M36.15,-71.22C43.01,-55.02 52.29,-33.11 57.51,-20.8"/>
<polygon fill="#63b8ff" stroke="#63b8ff" points="32.94,-69.82 32.26,-80.39 39.38,-72.55 32.94,-69.82"/>
</a>
</g>
</g>
<!-- Node3 -->
<g id="Node000003" class="node">
<title>Node3</title>
<g id="a_Node000003"><a xlink:title=" ">
<polygon fill="white" stroke="#666666" points="117.75,-103 73.25,-103 73.25,-82.25 117.75,-82.25 117.75,-103"/>
<text text-anchor="middle" x="95.5" y="-89.5" font-family="Helvetica,sans-Serif" font-size="10.00">size_t</text>
</a>
</g>
</g>
<!-- Node3&#45;&gt;Node1 -->
<g id="edge2_Node000001_Node000003" class="edge">
<title>Node3&#45;&gt;Node1</title>
<g id="a_edge2_Node000001_Node000003"><a xlink:title=" ">
<path fill="none" stroke="#9a32cd" stroke-dasharray="5,2" d="M86.85,-71.22C79.99,-55.02 70.71,-33.11 65.49,-20.8"/>
<polygon fill="#9a32cd" stroke="#9a32cd" points="83.62,-72.55 90.74,-80.39 90.06,-69.82 83.62,-72.55"/>
</a>
</g>
<text text-anchor="middle" x="125.88" y="-54.75" font-family="Helvetica,sans-Serif" font-size="10.00" fill="grey"> m_backButton</text>
<text text-anchor="middle" x="125.88" y="-42" font-family="Helvetica,sans-Serif" font-size="10.00" fill="grey">m_forwardButton</text>
</g>
</g>
</svg>
