<?xml version="1.0" encoding="UTF-8" standalone="no"?>
<!DOCTYPE svg PUBLIC "-//W3C//DTD SVG 1.1//EN"
 "http://www.w3.org/Graphics/SVG/1.1/DTD/svg11.dtd">
<!-- Generated by graphviz version 7.1.0 (0)
 -->
<!-- Title: MessageActivateTokens Pages: 1 -->
<!--zoomable 306 -->
<svg id="main" version="1.1" xmlns="http://www.w3.org/2000/svg" xmlns:xlink="http://www.w3.org/1999/xlink" xml:space="preserve" onload="init(evt)">
<style type="text/css"><![CDATA[
.edge:hover path { stroke: red; }
.edge:hover polygon { stroke: red; fill: red; }
]]></style>
<script type="text/javascript"><![CDATA[
var edges = document.getElementsByTagName('g');
if (edges && edges.length) {
  for (var i=0;i<edges.length;i++) {
    if (edges[i].id.substr(0,4)=='edge') {
      edges[i].setAttribute('class','edge');
    }
  }
}
]]></script>
        <defs>
                <circle id="rim" cx="0" cy="0" r="7"/>
                <circle id="rim2" cx="0" cy="0" r="3.5"/>
                <g id="zoomPlus">
                        <use xlink:href="#rim" fill="#404040">
                                <set attributeName="fill" to="#808080" begin="zoomplus.mouseover" end="zoomplus.mouseout"/>
                        </use>
                        <path d="M-4,0h8M0,-4v8" fill="none" stroke="white" stroke-width="1.5" pointer-events="none"/>
                </g>
                <g id="zoomMin">
                        <use xlink:href="#rim" fill="#404040">
                                <set attributeName="fill" to="#808080" begin="zoomminus.mouseover" end="zoomminus.mouseout"/>
                        </use>
                        <path d="M-4,0h8" fill="none" stroke="white" stroke-width="1.5" pointer-events="none"/>
                </g>
                <g id="dirArrow">
                        <path fill="none" stroke="white" stroke-width="1.5" d="M0,-3.0v7 M-2.5,-0.5L0,-3.0L2.5,-0.5"/>
                </g>
               <g id="resetDef">
                       <use xlink:href="#rim2" fill="#404040">
                               <set attributeName="fill" to="#808080" begin="reset.mouseover" end="reset.mouseout"/>
                       </use>
               </g>
        </defs>

<script type="text/javascript">
var viewWidth = 1028;
var viewHeight = 306;
var sectionId = 'dynsection-1';
</script>
<script xlink:href="svgpan.js"/>
<svg id="graph" class="graph">
<g id="viewport">
<title>MessageActivateTokens</title>
<!-- Node1 -->
<g id="node1" class="node">
<title>Node1</title>
<g id="a_node1"><a xlink:title=" ">
<polygon fill="#999999" stroke="#666666" points="1020,-93 886,-93 886,-74 1020,-74 1020,-93"/>
<text text-anchor="middle" x="953" y="-81" font-family="Helvetica,sans-Serif" font-size="10.00">MessageActivateTokens</text>
</a>
</g>
</g>
<!-- Node2 -->
<g id="node2" class="node">
<title>Node2</title>
<g id="a_node2"><a xlink:href="classMessage.html" target="_top" xlink:title=" ">
<polygon fill="white" stroke="#666666" points="773,-208.5 618,-208.5 618,-178.5 773,-178.5 773,-208.5"/>
<text text-anchor="start" x="626" y="-196.5" font-family="Helvetica,sans-Serif" font-size="10.00">Message&lt; MessageActivate</text>
<text text-anchor="middle" x="695.5" y="-185.5" font-family="Helvetica,sans-Serif" font-size="10.00">Tokens &gt;</text>
</a>
</g>
</g>
<!-- Node2&#45;&gt;Node1 -->
<g id="edge1" class="edge">
<title>Node2&#45;&gt;Node1</title>
<path fill="none" stroke="#63b8ff" d="M763.28,-174.81C795.59,-164.79 834.53,-151.26 868,-135.5 894.07,-123.22 922.1,-104.66 938.29,-93.36"/>
<polygon fill="#63b8ff" stroke="#63b8ff" points="762.58,-171.36 754.04,-177.63 764.63,-178.06 762.58,-171.36"/>
</g>
<!-- Node3 -->
<g id="node3" class="node">
<title>Node3</title>
<g id="a_node3"><a xlink:href="classMessageBase.html" target="_top" xlink:title=" ">
<polygon fill="white" stroke="#666666" points="253,-241 169,-241 169,-222 253,-222 253,-241"/>
<text text-anchor="middle" x="211" y="-229" font-family="Helvetica,sans-Serif" font-size="10.00">MessageBase</text>
</a>
</g>
</g>
<!-- Node3&#45;&gt;Node2 -->
<g id="edge2" class="edge">
<title>Node3&#45;&gt;Node2</title>
<path fill="none" stroke="#63b8ff" d="M264.88,-230.01C339.69,-227.53 480.61,-221.48 600,-208.5 605.78,-207.87 611.75,-207.13 617.74,-206.33"/>
<polygon fill="#63b8ff" stroke="#63b8ff" points="264.85,-226.51 254.97,-230.33 265.08,-233.51 264.85,-226.51"/>
</g>
<!-- Node7 -->
<g id="node7" class="node">
<title>Node7</title>
<g id="a_node7"><a xlink:href="classMessage.html" target="_top" xlink:title=" ">
<polygon fill="white" stroke="#666666" points="439,-203 290,-203 290,-184 439,-184 439,-203"/>
<text text-anchor="middle" x="364.5" y="-191" font-family="Helvetica,sans-Serif" font-size="10.00">Message&lt; MessageType &gt;</text>
</a>
</g>
</g>
<!-- Node3&#45;&gt;Node7 -->
<g id="edge7" class="edge">
<title>Node3&#45;&gt;Node7</title>
<path fill="none" stroke="#63b8ff" d="M262.83,-218.75C282.67,-213.77 305.07,-208.16 323.7,-203.48"/>
<polygon fill="#63b8ff" stroke="#63b8ff" points="262.12,-215.32 253.27,-221.15 263.82,-222.11 262.12,-215.32"/>
</g>
<!-- Node4 -->
<g id="node4" class="node">
<title>Node4</title>
<g id="a_node4"><a xlink:title=" ">
<polygon fill="white" stroke="#666666" points="56,-298 0,-298 0,-279 56,-279 56,-298"/>
<text text-anchor="middle" x="28" y="-286" font-family="Helvetica,sans-Serif" font-size="10.00">static Id</text>
</a>
</g>
</g>
<!-- Node4&#45;&gt;Node3 -->
<g id="edge3" class="edge">
<title>Node4&#45;&gt;Node3</title>
<path fill="none" stroke="#9a32cd" stroke-dasharray="5,2" d="M67.7,-284.58C92.14,-281.29 124.08,-275.47 151,-265.5 167.41,-259.43 184.56,-249.01 196.12,-241.3"/>
<polygon fill="#9a32cd" stroke="#9a32cd" points="67.35,-281.1 57.86,-285.81 68.21,-288.04 67.35,-281.1"/>
<text text-anchor="middle" x="112.5" y="-285.5" font-family="Helvetica,sans-Serif" font-size="10.00"> s_nextId</text>
</g>
<!-- Node5 -->
<g id="node5" class="node">
<title>Node5</title>
<g id="a_node5"><a xlink:title=" ">
<polygon fill="white" stroke="#666666" points="50.5,-253 5.5,-253 5.5,-234 50.5,-234 50.5,-253"/>
<text text-anchor="middle" x="28" y="-241" font-family="Helvetica,sans-Serif" font-size="10.00">size_t</text>
</a>
</g>
</g>
<!-- Node5&#45;&gt;Node3 -->
<g id="edge4" class="edge">
<title>Node5&#45;&gt;Node3</title>
<path fill="none" stroke="#9a32cd" stroke-dasharray="5,2" d="M61.97,-241.31C92,-239.32 136.48,-236.37 168.83,-234.23"/>
<polygon fill="#9a32cd" stroke="#9a32cd" points="62.09,-237.8 52.34,-241.95 62.55,-244.78 62.09,-237.8"/>
<text text-anchor="middle" x="112.5" y="-253.5" font-family="Helvetica,sans-Serif" font-size="10.00"> m_id</text>
<text text-anchor="middle" x="112.5" y="-242.5" font-family="Helvetica,sans-Serif" font-size="10.00">m_schedulerId</text>
</g>
<!-- Node6 -->
<g id="node6" class="node">
<title>Node6</title>
<g id="a_node6"><a xlink:title=" ">
<polygon fill="white" stroke="#666666" points="47,-148 9,-148 9,-129 47,-129 47,-148"/>
<text text-anchor="middle" x="28" y="-136" font-family="Helvetica,sans-Serif" font-size="10.00">bool</text>
</a>
</g>
</g>
<!-- Node6&#45;&gt;Node1 -->
<g id="edge11" class="edge">
<title>Node6&#45;&gt;Node1</title>
<path fill="none" stroke="#9a32cd" stroke-dasharray="5,2" d="M58.51,-134.02C94.28,-128.98 156.41,-121.5 210,-121.5 210,-121.5 210,-121.5 696.5,-121.5 772.74,-121.5 860.39,-104.74 910.68,-93.48"/>
<polygon fill="#9a32cd" stroke="#9a32cd" points="58.34,-130.5 48.94,-135.4 59.34,-137.43 58.34,-130.5"/>
<text text-anchor="middle" x="364.5" y="-146.5" font-family="Helvetica,sans-Serif" font-size="10.00"> isBundledEdges</text>
<text text-anchor="middle" x="364.5" y="-135.5" font-family="Helvetica,sans-Serif" font-size="10.00">isEdge</text>
<text text-anchor="middle" x="364.5" y="-124.5" font-family="Helvetica,sans-Serif" font-size="10.00">isFromSearch</text>
</g>
<!-- Node6&#45;&gt;Node3 -->
<g id="edge5" class="edge">
<title>Node6&#45;&gt;Node3</title>
<path fill="none" stroke="#9a32cd" stroke-dasharray="5,2" d="M58.55,-139.96C84.47,-142.38 122.39,-148.76 151,-165.5 175.14,-179.63 194.78,-207.03 204.11,-221.69"/>
<polygon fill="#9a32cd" stroke="#9a32cd" points="58.97,-136.48 48.73,-139.2 58.43,-143.46 58.97,-136.48"/>
<text text-anchor="middle" x="112.5" y="-223.5" font-family="Helvetica,sans-Serif" font-size="10.00"> m_isLast</text>
<text text-anchor="middle" x="112.5" y="-212.5" font-family="Helvetica,sans-Serif" font-size="10.00">m_isLogged</text>
<text text-anchor="middle" x="112.5" y="-201.5" font-family="Helvetica,sans-Serif" font-size="10.00">m_isParallel</text>
<text text-anchor="middle" x="112.5" y="-190.5" font-family="Helvetica,sans-Serif" font-size="10.00">m_isReplayed</text>
<text text-anchor="middle" x="112.5" y="-179.5" font-family="Helvetica,sans-Serif" font-size="10.00">m_keepContent</text>
<text text-anchor="middle" x="112.5" y="-168.5" font-family="Helvetica,sans-Serif" font-size="10.00">m_sendAsTask</text>
</g>
<!-- Node7&#45;&gt;Node2 -->
<g id="edge6" class="edge">
<title>Node7&#45;&gt;Node2</title>
<path fill="none" stroke="orange" stroke-dasharray="5,2" d="M450.8,-193.5C502.44,-193.5 567.76,-193.5 617.77,-193.5"/>
<polygon fill="orange" stroke="orange" points="450.85,-190 440.85,-193.5 450.85,-197 450.85,-190"/>
<text text-anchor="middle" x="528.5" y="-196.5" font-family="Helvetica,sans-Serif" font-size="10.00"> &lt; MessageActivateTokens &gt;</text>
</g>
<!-- Node8 -->
<g id="node8" class="node">
<title>Node8</title>
<g id="a_node8"><a xlink:href="classMessageActivateBase.html" target="_top" xlink:title=" ">
<polygon fill="white" stroke="#666666" points="758,-93 633,-93 633,-74 758,-74 758,-93"/>
<text text-anchor="middle" x="695.5" y="-81" font-family="Helvetica,sans-Serif" font-size="10.00">MessageActivateBase</text>
</a>
</g>
</g>
<!-- Node8&#45;&gt;Node1 -->
<g id="edge8" class="edge">
<title>Node8&#45;&gt;Node1</title>
<path fill="none" stroke="#63b8ff" d="M769.46,-83.5C806.1,-83.5 850.15,-83.5 885.8,-83.5"/>
<polygon fill="#63b8ff" stroke="#63b8ff" points="769.86,-80 759.86,-83.5 769.86,-87 769.86,-80"/>
</g>
<!-- Node9 -->
<g id="node9" class="node">
<title>Node9</title>
<g id="a_node9"><a xlink:title=" ">
<polygon fill="white" stroke="#666666" points="735,-56 656,-56 656,-37 735,-37 735,-56"/>
<text text-anchor="middle" x="695.5" y="-44" font-family="Helvetica,sans-Serif" font-size="10.00">vector&lt; Id &gt;</text>
</a>
</g>
</g>
<!-- Node9&#45;&gt;Node1 -->
<g id="edge9" class="edge">
<title>Node9&#45;&gt;Node1</title>
<path fill="none" stroke="#9a32cd" stroke-dasharray="5,2" d="M746.53,-52.26C780.78,-56.37 827.21,-62.25 868,-68.5 877.81,-70 888.24,-71.75 898.29,-73.5"/>
<polygon fill="#9a32cd" stroke="#9a32cd" points="747.25,-48.82 736.9,-51.12 746.42,-55.77 747.25,-48.82"/>
<text text-anchor="middle" x="829.5" y="-71.5" font-family="Helvetica,sans-Serif" font-size="10.00"> tokenIds</text>
</g>
<!-- Node10 -->
<g id="node10" class="node">
<title>Node10</title>
<g id="a_node10"><a xlink:title=" ">
<polygon fill="white" stroke="#666666" points="762,-19 629,-19 629,0 762,0 762,-19"/>
<text text-anchor="middle" x="695.5" y="-7" font-family="Helvetica,sans-Serif" font-size="10.00">vector&lt; SearchMatch &gt;</text>
</a>
</g>
</g>
<!-- Node10&#45;&gt;Node1 -->
<g id="edge10" class="edge">
<title>Node10&#45;&gt;Node1</title>
<path fill="none" stroke="#9a32cd" stroke-dasharray="5,2" d="M773.53,-19.87C803.47,-25.05 837.78,-32.41 868,-42.5 892.32,-50.62 918.62,-64.33 935.19,-73.64"/>
<polygon fill="#9a32cd" stroke="#9a32cd" points="774.22,-16.44 763.77,-18.24 773.06,-23.34 774.22,-16.44"/>
<text text-anchor="middle" x="829.5" y="-45.5" font-family="Helvetica,sans-Serif" font-size="10.00"> searchMatches</text>
</g>
</g>
</svg>
        <g id="navigator" transform="translate(0 0)" fill="#404254">
                <rect fill="#f2f5e9" fill-opacity="0.5" stroke="#606060" stroke-width=".5" x="0" y="0" width="60" height="60"/>
                <use id="zoomplus" xlink:href="#zoomPlus" x="17" y="9" onmousedown="handleZoom(evt,'in')"/>
                <use id="zoomminus" xlink:href="#zoomMin" x="42" y="9" onmousedown="handleZoom(evt,'out')"/>
                <use id="reset" xlink:href="#resetDef" x="30" y="36" onmousedown="handleReset()"/>
                <g id="arrowUp" xlink:href="#dirArrow" transform="translate(30 24)" onmousedown="handlePan(0,-1)">
                  <use xlink:href="#rim" fill="#404040">
                        <set attributeName="fill" to="#808080" begin="arrowUp.mouseover" end="arrowUp.mouseout"/>
                  </use>
                  <path fill="none" stroke="white" stroke-width="1.5" d="M0,-3.0v7 M-2.5,-0.5L0,-3.0L2.5,-0.5"/>
                </g>
                <g id="arrowRight" xlink:href="#dirArrow" transform="rotate(90) translate(36 -43)" onmousedown="handlePan(1,0)">
                  <use xlink:href="#rim" fill="#404040">
                        <set attributeName="fill" to="#808080" begin="arrowRight.mouseover" end="arrowRight.mouseout"/>
                  </use>
                  <path fill="none" stroke="white" stroke-width="1.5" d="M0,-3.0v7 M-2.5,-0.5L0,-3.0L2.5,-0.5"/>
                </g>
                <g id="arrowDown" xlink:href="#dirArrow" transform="rotate(180) translate(-30 -48)" onmousedown="handlePan(0,1)">
                  <use xlink:href="#rim" fill="#404040">
                        <set attributeName="fill" to="#808080" begin="arrowDown.mouseover" end="arrowDown.mouseout"/>
                  </use>
                  <path fill="none" stroke="white" stroke-width="1.5" d="M0,-3.0v7 M-2.5,-0.5L0,-3.0L2.5,-0.5"/>
                </g>
                <g id="arrowLeft" xlink:href="#dirArrow" transform="rotate(270) translate(-36 17)" onmousedown="handlePan(-1,0)">
                  <use xlink:href="#rim" fill="#404040">
                        <set attributeName="fill" to="#808080" begin="arrowLeft.mouseover" end="arrowLeft.mouseout"/>
                  </use>
                  <path fill="none" stroke="white" stroke-width="1.5" d="M0,-3.0v7 M-2.5,-0.5L0,-3.0L2.5,-0.5"/>
                </g>
        </g>
        <svg viewBox="0 0 15 15" width="100%" height="30px" preserveAspectRatio="xMaxYMin meet">
         <g id="arrow_out" transform="scale(0.3 0.3)">
          <a xlink:href="classMessageActivateTokens__coll__graph_org.svg" target="_base">
           <rect id="button" ry="5" rx="5" y="6" x="6" height="38" width="38"
                fill="#f2f5e9" fill-opacity="0.5" stroke="#606060" stroke-width="1.0"/>
           <path id="arrow"
             d="M 11.500037,31.436501 C 11.940474,20.09759 22.043105,11.32322 32.158766,21.979434 L 37.068811,17.246167 C 37.068811,17.246167 37.088388,32 37.088388,32 L 22.160133,31.978069 C 22.160133,31.978069 26.997745,27.140456 26.997745,27.140456 C 18.528582,18.264221 13.291696,25.230495 11.500037,31.436501 z"
             style="fill:#404040;"/>
          </a>
         </g>
        </svg>
</svg>
