<?xml version="1.0" encoding="UTF-8" standalone="no"?>
<!DOCTYPE svg PUBLIC "-//W3C//DTD SVG 1.1//EN"
 "http://www.w3.org/Graphics/SVG/1.1/DTD/svg11.dtd">
<!-- Generated by graphviz version 7.1.0 (0)
 -->
<!-- Title: QtGraphicsView::toQImage Pages: 1 -->
<!--zoomable 177 -->
<svg id="main" version="1.1" xmlns="http://www.w3.org/2000/svg" xmlns:xlink="http://www.w3.org/1999/xlink" xml:space="preserve" onload="init(evt)">
<style type="text/css"><![CDATA[
.edge:hover path { stroke: red; }
.edge:hover polygon { stroke: red; fill: red; }
]]></style>
<script type="text/javascript"><![CDATA[
var edges = document.getElementsByTagName('g');
if (edges && edges.length) {
  for (var i=0;i<edges.length;i++) {
    if (edges[i].id.substr(0,4)=='edge') {
      edges[i].setAttribute('class','edge');
    }
  }
}
]]></script>
        <defs>
                <circle id="rim" cx="0" cy="0" r="7"/>
                <circle id="rim2" cx="0" cy="0" r="3.5"/>
                <g id="zoomPlus">
                        <use xlink:href="#rim" fill="#404040">
                                <set attributeName="fill" to="#808080" begin="zoomplus.mouseover" end="zoomplus.mouseout"/>
                        </use>
                        <path d="M-4,0h8M0,-4v8" fill="none" stroke="white" stroke-width="1.5" pointer-events="none"/>
                </g>
                <g id="zoomMin">
                        <use xlink:href="#rim" fill="#404040">
                                <set attributeName="fill" to="#808080" begin="zoomminus.mouseover" end="zoomminus.mouseout"/>
                        </use>
                        <path d="M-4,0h8" fill="none" stroke="white" stroke-width="1.5" pointer-events="none"/>
                </g>
                <g id="dirArrow">
                        <path fill="none" stroke="white" stroke-width="1.5" d="M0,-3.0v7 M-2.5,-0.5L0,-3.0L2.5,-0.5"/>
                </g>
               <g id="resetDef">
                       <use xlink:href="#rim2" fill="#404040">
                               <set attributeName="fill" to="#808080" begin="reset.mouseover" end="reset.mouseout"/>
                       </use>
               </g>
        </defs>

<script type="text/javascript">
var viewWidth = 1360;
var viewHeight = 177;
var sectionId = 'dynsection-56';
</script>
<script xlink:href="svgpan.js"/>
<svg id="graph" class="graph">
<g id="viewport">
<title>QtGraphicsView::toQImage</title>
<!-- Node1 -->
<g id="node1" class="node">
<title>Node1</title>
<g id="a_node1"><a xlink:title=" ">
<polygon fill="#999999" stroke="#666666" points="1352,-131.93 1203,-131.93 1203,-112.93 1352,-112.93 1352,-131.93"/>
<text text-anchor="middle" x="1277.5" y="-119.93" font-family="Helvetica,sans-Serif" font-size="10.00">QtGraphicsView::toQImage</text>
</a>
</g>
</g>
<!-- Node2 -->
<g id="node2" class="node">
<title>Node2</title>
<g id="a_node2"><a xlink:href="classQtGraphicsView.html#a96ea10ce02d673968f1ab256bcae9532" target="_top" xlink:title=" ">
<polygon fill="white" stroke="#666666" points="1160,-168.93 1007,-168.93 1007,-149.93 1160,-149.93 1160,-168.93"/>
<text text-anchor="middle" x="1083.5" y="-156.93" font-family="Helvetica,sans-Serif" font-size="10.00">QtGraphicsView::copyGraph</text>
</a>
</g>
</g>
<!-- Node1&#45;&gt;Node2 -->
<g id="edge1" class="edge">
<title>Node1&#45;&gt;Node2</title>
<path fill="none" stroke="#63b8ff" d="M1213.57,-134.55C1188.54,-139.38 1160.1,-144.86 1136.3,-149.45"/>
<polygon fill="#63b8ff" stroke="#63b8ff" points="1214.15,-138.01 1223.31,-132.68 1212.83,-131.13 1214.15,-138.01"/>
</g>
<!-- Node4 -->
<g id="node4" class="node">
<title>Node4</title>
<g id="a_node4"><a xlink:href="classQtGraphicsView.html#a85f2419a724f1870abea78483ac23eda" target="_top" xlink:title=" ">
<polygon fill="white" stroke="#666666" points="1164,-131.93 1003,-131.93 1003,-112.93 1164,-112.93 1164,-131.93"/>
<text text-anchor="middle" x="1083.5" y="-119.93" font-family="Helvetica,sans-Serif" font-size="10.00">QtGraphicsView::exportGraph</text>
</a>
</g>
</g>
<!-- Node1&#45;&gt;Node4 -->
<g id="edge3" class="edge">
<title>Node1&#45;&gt;Node4</title>
<path fill="none" stroke="#63b8ff" d="M1191.33,-122.43C1182.4,-122.43 1173.34,-122.43 1164.48,-122.43"/>
<polygon fill="#63b8ff" stroke="#63b8ff" points="1191.03,-125.93 1201.03,-122.43 1191.03,-118.93 1191.03,-125.93"/>
</g>
<!-- Node5 -->
<g id="node5" class="node">
<title>Node5</title>
<g id="a_node5"><a xlink:href="classQtGraphicsView.html#a5c59dc79c285bbad4a2f8f5e3691efac" target="_top" xlink:title=" ">
<polygon fill="white" stroke="#666666" points="1167,-94.93 1000,-94.93 1000,-75.93 1167,-75.93 1167,-94.93"/>
<text text-anchor="middle" x="1083.5" y="-82.93" font-family="Helvetica,sans-Serif" font-size="10.00">QtGraphicsView::setSceneRect</text>
</a>
</g>
</g>
<!-- Node1&#45;&gt;Node5 -->
<g id="edge5" class="edge">
<title>Node1&#45;&gt;Node5</title>
<path fill="none" stroke="#63b8ff" d="M1213.57,-110.3C1188.54,-105.48 1160.1,-100 1136.3,-95.41"/>
<polygon fill="#63b8ff" stroke="#63b8ff" points="1212.83,-113.72 1223.31,-112.18 1214.15,-106.85 1212.83,-113.72"/>
</g>
<!-- Node3 -->
<g id="node3" class="node">
<title>Node3</title>
<g id="a_node3"><a xlink:href="classQtGraphicsView.html#ab69869837036049ee2a035a33e2bf7cc" target="_top" xlink:title=" ">
<polygon fill="white" stroke="#666666" points="964,-149.93 785,-149.93 785,-130.93 964,-130.93 964,-149.93"/>
<text text-anchor="middle" x="874.5" y="-137.93" font-family="Helvetica,sans-Serif" font-size="10.00">QtGraphicsView::QtGraphicsView</text>
</a>
</g>
</g>
<!-- Node2&#45;&gt;Node3 -->
<g id="edge2" class="edge">
<title>Node2&#45;&gt;Node3</title>
<path fill="none" stroke="#63b8ff" d="M995.2,-151.41C985,-150.48 974.59,-149.52 964.37,-148.58"/>
<polygon fill="#63b8ff" stroke="#63b8ff" points="994.81,-154.89 1005.09,-152.32 995.45,-147.92 994.81,-154.89"/>
</g>
<!-- Node4&#45;&gt;Node3 -->
<g id="edge4" class="edge">
<title>Node4&#45;&gt;Node3</title>
<path fill="none" stroke="#63b8ff" d="M991.5,-130.34C982.53,-131.12 973.44,-131.91 964.5,-132.69"/>
<polygon fill="#63b8ff" stroke="#63b8ff" points="991.6,-133.84 1001.26,-129.49 990.99,-126.87 991.6,-133.84"/>
</g>
<!-- Node6 -->
<g id="node6" class="node">
<title>Node6</title>
<g id="a_node6"><a xlink:href="classQtGraphView.html#a60f6576890d1bf8bb6c26545c88de3b8" target="_top" xlink:title=" ">
<polygon fill="white" stroke="#666666" points="940,-94.93 809,-94.93 809,-75.93 940,-75.93 940,-94.93"/>
<text text-anchor="middle" x="874.5" y="-82.93" font-family="Helvetica,sans-Serif" font-size="10.00">QtGraphView::doResize</text>
</a>
</g>
</g>
<!-- Node5&#45;&gt;Node6 -->
<g id="edge6" class="edge">
<title>Node5&#45;&gt;Node6</title>
<path fill="none" stroke="#63b8ff" d="M988.56,-85.43C972.22,-85.43 955.56,-85.43 940.22,-85.43"/>
<polygon fill="#63b8ff" stroke="#63b8ff" points="988.28,-88.93 998.28,-85.43 988.28,-81.93 988.28,-88.93"/>
</g>
<!-- Node7 -->
<g id="node7" class="node">
<title>Node7</title>
<g id="a_node7"><a xlink:href="classQtGraphView.html#af5714c14b551133d2c387da391becb50" target="_top" xlink:title=" ">
<polygon fill="white" stroke="#666666" points="746.5,-150.93 600.5,-150.93 600.5,-131.93 746.5,-131.93 746.5,-150.93"/>
<text text-anchor="middle" x="673.5" y="-138.93" font-family="Helvetica,sans-Serif" font-size="10.00">QtGraphView::refreshView</text>
</a>
</g>
</g>
<!-- Node6&#45;&gt;Node7 -->
<g id="edge7" class="edge">
<title>Node6&#45;&gt;Node7</title>
<path fill="none" stroke="#63b8ff" d="M831.8,-98.83C807.71,-106.4 776.76,-115.84 749,-123.43 738.86,-126.2 727.88,-128.97 717.55,-131.48"/>
<polygon fill="#63b8ff" stroke="#63b8ff" points="832.77,-102.19 841.25,-95.84 830.66,-95.52 832.77,-102.19"/>
</g>
<!-- Node8 -->
<g id="node8" class="node">
<title>Node8</title>
<g id="a_node8"><a xlink:href="classQtGraphView.html#ac244eda211048c672c24864b4f9ea731" target="_top" xlink:title=" ">
<polygon fill="white" stroke="#666666" points="734.5,-113.93 612.5,-113.93 612.5,-94.93 734.5,-94.93 734.5,-113.93"/>
<text text-anchor="middle" x="673.5" y="-101.93" font-family="Helvetica,sans-Serif" font-size="10.00">QtGraphView::resized</text>
</a>
</g>
</g>
<!-- Node6&#45;&gt;Node8 -->
<g id="edge8" class="edge">
<title>Node6&#45;&gt;Node8</title>
<path fill="none" stroke="#63b8ff" d="M797.31,-92.7C776.65,-94.67 754.57,-96.78 734.91,-98.66"/>
<polygon fill="#63b8ff" stroke="#63b8ff" points="797.49,-96.2 807.11,-91.77 796.82,-89.23 797.49,-96.2"/>
</g>
<!-- Node10 -->
<g id="node10" class="node">
<title>Node10</title>
<g id="a_node10"><a xlink:href="classQtGraphView.html#afe49f069835b6b5de2a4b0a8cc48443f" target="_top" xlink:title=" ">
<polygon fill="white" stroke="#666666" points="743.5,-76.93 603.5,-76.93 603.5,-57.93 743.5,-57.93 743.5,-76.93"/>
<text text-anchor="middle" x="673.5" y="-64.93" font-family="Helvetica,sans-Serif" font-size="10.00">QtGraphView::resizeView</text>
</a>
</g>
</g>
<!-- Node6&#45;&gt;Node10 -->
<g id="edge10" class="edge">
<title>Node6&#45;&gt;Node10</title>
<path fill="none" stroke="#63b8ff" d="M797.23,-78.53C779.64,-76.94 761.02,-75.25 743.75,-73.69"/>
<polygon fill="#63b8ff" stroke="#63b8ff" points="796.83,-82.01 807.11,-79.42 797.46,-75.04 796.83,-82.01"/>
</g>
<!-- Node11 -->
<g id="node11" class="node">
<title>Node11</title>
<g id="a_node11"><a xlink:href="classQtGraphView.html#a0e0e64b352f8e05561b94d64f3711a28" target="_top" xlink:title=" ">
<polygon fill="white" stroke="#666666" points="749,-39.43 598,-39.43 598,-9.43 749,-9.43 749,-39.43"/>
<text text-anchor="start" x="606" y="-27.43" font-family="Helvetica,sans-Serif" font-size="10.00">QtGraphView::switchToNew</text>
<text text-anchor="middle" x="673.5" y="-16.43" font-family="Helvetica,sans-Serif" font-size="10.00">GraphData</text>
</a>
</g>
</g>
<!-- Node6&#45;&gt;Node11 -->
<g id="edge11" class="edge">
<title>Node6&#45;&gt;Node11</title>
<path fill="none" stroke="#63b8ff" d="M830.18,-72.15C799.16,-62.64 757.31,-49.81 724.81,-39.85"/>
<polygon fill="#63b8ff" stroke="#63b8ff" points="829.05,-75.46 839.64,-75.05 831.1,-68.77 829.05,-75.46"/>
</g>
<!-- Node9 -->
<g id="node9" class="node">
<title>Node9</title>
<g id="a_node9"><a xlink:href="classQtGraphView.html#ad62e4097c2649e7e7ce879278132d4cb" target="_top" xlink:title=" ">
<polygon fill="white" stroke="#666666" points="551,-113.93 399,-113.93 399,-94.93 551,-94.93 551,-113.93"/>
<text text-anchor="middle" x="475" y="-101.93" font-family="Helvetica,sans-Serif" font-size="10.00">QtGraphView::QtGraphView</text>
</a>
</g>
</g>
<!-- Node8&#45;&gt;Node9 -->
<g id="edge9" class="edge">
<title>Node8&#45;&gt;Node9</title>
<path fill="none" stroke="#63b8ff" d="M600.74,-104.43C584.7,-104.43 567.64,-104.43 551.46,-104.43"/>
<polygon fill="#63b8ff" stroke="#63b8ff" points="600.69,-107.93 610.69,-104.43 600.69,-100.93 600.69,-107.93"/>
</g>
<!-- Node12 -->
<g id="node12" class="node">
<title>Node12</title>
<g id="a_node12"><a xlink:href="classQtGraphView.html#a226a73962b96aed00b9cecab82c8dba1" target="_top" xlink:title=" ">
<polygon fill="white" stroke="#666666" points="352,-33.93 186,-33.93 186,-14.93 352,-14.93 352,-33.93"/>
<text text-anchor="middle" x="269" y="-21.93" font-family="Helvetica,sans-Serif" font-size="10.00">QtGraphView::createTransition</text>
</a>
</g>
</g>
<!-- Node11&#45;&gt;Node12 -->
<g id="edge12" class="edge">
<title>Node11&#45;&gt;Node12</title>
<path fill="none" stroke="#63b8ff" d="M586.44,-24.43C517.21,-24.43 420.56,-24.43 352.33,-24.43"/>
<polygon fill="#63b8ff" stroke="#63b8ff" points="586.22,-27.93 596.22,-24.43 586.22,-20.93 586.22,-27.93"/>
</g>
<!-- Node13 -->
<g id="node13" class="node">
<title>Node13</title>
<g id="a_node13"><a xlink:href="classQtGraphView.html#a71858975a5b07059726b0337d19fe296" target="_top" xlink:title=" ">
<polygon fill="white" stroke="#666666" points="150,-33.93 0,-33.93 0,-14.93 150,-14.93 150,-33.93"/>
<text text-anchor="middle" x="75" y="-21.93" font-family="Helvetica,sans-Serif" font-size="10.00">QtGraphView::rebuildGraph</text>
</a>
</g>
</g>
<!-- Node11&#45;&gt;Node13 -->
<g id="edge18" class="edge">
<title>Node11&#45;&gt;Node13</title>
<path fill="none" stroke="#63b8ff" d="M586.53,-14.62C489.19,-5.01 325.94,6.57 186,-5.43 165.24,-7.21 142.52,-10.84 123.15,-14.46"/>
<polygon fill="#63b8ff" stroke="#63b8ff" points="585.97,-18.08 596.27,-15.6 586.67,-11.12 585.97,-18.08"/>
</g>
<!-- Node14 -->
<g id="node14" class="node">
<title>Node14</title>
<g id="a_node14"><a xlink:href="classQtGraphView.html#a1c25190e97e9022d070d506c19d16f75" target="_top" xlink:title=" ">
<polygon fill="white" stroke="#666666" points="562,-71.93 388,-71.93 388,-52.93 562,-52.93 562,-71.93"/>
<text text-anchor="middle" x="475" y="-59.93" font-family="Helvetica,sans-Serif" font-size="10.00">QtGraphView::finishedTransition</text>
</a>
</g>
</g>
<!-- Node11&#45;&gt;Node14 -->
<g id="edge14" class="edge">
<title>Node11&#45;&gt;Node14</title>
<path fill="none" stroke="#63b8ff" d="M586.55,-41.05C566.41,-44.94 545.56,-48.97 527.48,-52.47"/>
<polygon fill="#63b8ff" stroke="#63b8ff" points="587.01,-44.52 596.17,-39.19 585.68,-37.65 587.01,-44.52"/>
</g>
<!-- Node12&#45;&gt;Node13 -->
<g id="edge13" class="edge">
<title>Node12&#45;&gt;Node13</title>
<path fill="none" stroke="#63b8ff" d="M174.33,-24.43C166.23,-24.43 158.11,-24.43 150.2,-24.43"/>
<polygon fill="#63b8ff" stroke="#63b8ff" points="174.23,-27.93 184.23,-24.43 174.23,-20.93 174.23,-27.93"/>
</g>
<!-- Node14&#45;&gt;Node12 -->
<g id="edge16" class="edge">
<title>Node14&#45;&gt;Node12</title>
<path fill="none" stroke="#63b8ff" d="M409.26,-50.37C381.66,-45.23 349.84,-39.3 323.59,-34.41"/>
<polygon fill="#63b8ff" stroke="#63b8ff" points="408.44,-53.78 418.91,-52.17 409.72,-46.89 408.44,-53.78"/>
</g>
<!-- Node14&#45;&gt;Node13 -->
<g id="edge17" class="edge">
<title>Node14&#45;&gt;Node13</title>
<path fill="none" stroke="#63b8ff" d="M422.16,-74.74C363.88,-86.51 266.84,-99.82 186,-80.43 148.91,-71.53 110.22,-47.93 90.08,-34.38"/>
<polygon fill="#63b8ff" stroke="#63b8ff" points="422.73,-78.2 431.8,-72.73 421.3,-71.35 422.73,-78.2"/>
</g>
<!-- Node15 -->
<g id="node15" class="node">
<title>Node15</title>
<g id="a_node15"><a xlink:href="classQtGraphView.html#a22c7370507ab74241d6d1f7df1ffccbd" target="_top" xlink:title=" ">
<polygon fill="white" stroke="#666666" points="344.5,-70.93 193.5,-70.93 193.5,-51.93 344.5,-51.93 344.5,-70.93"/>
<text text-anchor="middle" x="269" y="-58.93" font-family="Helvetica,sans-Serif" font-size="10.00">QtGraphView::activateEdge</text>
</a>
</g>
</g>
<!-- Node14&#45;&gt;Node15 -->
<g id="edge15" class="edge">
<title>Node14&#45;&gt;Node15</title>
<path fill="none" stroke="#63b8ff" d="M376.36,-61.95C365.8,-61.9 355.17,-61.84 344.93,-61.79"/>
<polygon fill="#63b8ff" stroke="#63b8ff" points="376.25,-65.45 386.27,-62 376.29,-58.45 376.25,-65.45"/>
</g>
</g>
</svg>
        <g id="navigator" transform="translate(0 0)" fill="#404254">
                <rect fill="#f2f5e9" fill-opacity="0.5" stroke="#606060" stroke-width=".5" x="0" y="0" width="60" height="60"/>
                <use id="zoomplus" xlink:href="#zoomPlus" x="17" y="9" onmousedown="handleZoom(evt,'in')"/>
                <use id="zoomminus" xlink:href="#zoomMin" x="42" y="9" onmousedown="handleZoom(evt,'out')"/>
                <use id="reset" xlink:href="#resetDef" x="30" y="36" onmousedown="handleReset()"/>
                <g id="arrowUp" xlink:href="#dirArrow" transform="translate(30 24)" onmousedown="handlePan(0,-1)">
                  <use xlink:href="#rim" fill="#404040">
                        <set attributeName="fill" to="#808080" begin="arrowUp.mouseover" end="arrowUp.mouseout"/>
                  </use>
                  <path fill="none" stroke="white" stroke-width="1.5" d="M0,-3.0v7 M-2.5,-0.5L0,-3.0L2.5,-0.5"/>
                </g>
                <g id="arrowRight" xlink:href="#dirArrow" transform="rotate(90) translate(36 -43)" onmousedown="handlePan(1,0)">
                  <use xlink:href="#rim" fill="#404040">
                        <set attributeName="fill" to="#808080" begin="arrowRight.mouseover" end="arrowRight.mouseout"/>
                  </use>
                  <path fill="none" stroke="white" stroke-width="1.5" d="M0,-3.0v7 M-2.5,-0.5L0,-3.0L2.5,-0.5"/>
                </g>
                <g id="arrowDown" xlink:href="#dirArrow" transform="rotate(180) translate(-30 -48)" onmousedown="handlePan(0,1)">
                  <use xlink:href="#rim" fill="#404040">
                        <set attributeName="fill" to="#808080" begin="arrowDown.mouseover" end="arrowDown.mouseout"/>
                  </use>
                  <path fill="none" stroke="white" stroke-width="1.5" d="M0,-3.0v7 M-2.5,-0.5L0,-3.0L2.5,-0.5"/>
                </g>
                <g id="arrowLeft" xlink:href="#dirArrow" transform="rotate(270) translate(-36 17)" onmousedown="handlePan(-1,0)">
                  <use xlink:href="#rim" fill="#404040">
                        <set attributeName="fill" to="#808080" begin="arrowLeft.mouseover" end="arrowLeft.mouseout"/>
                  </use>
                  <path fill="none" stroke="white" stroke-width="1.5" d="M0,-3.0v7 M-2.5,-0.5L0,-3.0L2.5,-0.5"/>
                </g>
        </g>
        <svg viewBox="0 0 15 15" width="100%" height="30px" preserveAspectRatio="xMaxYMin meet">
         <g id="arrow_out" transform="scale(0.3 0.3)">
          <a xlink:href="classQtGraphicsView_abe0270ebc6709e8df987c4f260c938b6_icgraph_org.svg" target="_base">
           <rect id="button" ry="5" rx="5" y="6" x="6" height="38" width="38"
                fill="#f2f5e9" fill-opacity="0.5" stroke="#606060" stroke-width="1.0"/>
           <path id="arrow"
             d="M 11.500037,31.436501 C 11.940474,20.09759 22.043105,11.32322 32.158766,21.979434 L 37.068811,17.246167 C 37.068811,17.246167 37.088388,32 37.088388,32 L 22.160133,31.978069 C 22.160133,31.978069 26.997745,27.140456 26.997745,27.140456 C 18.528582,18.264221 13.291696,25.230495 11.500037,31.436501 z"
             style="fill:#404040;"/>
          </a>
         </g>
        </svg>
</svg>
