<?xml version="1.0" encoding="UTF-8" standalone="no"?>
<!DOCTYPE svg PUBLIC "-//W3C//DTD SVG 1.1//EN"
 "http://www.w3.org/Graphics/SVG/1.1/DTD/svg11.dtd">
<!-- Generated by graphviz version 7.1.0 (0)
 -->
<!-- Title: CodeController::toReferenceScrollParams Pages: 1 -->
<svg width="995pt" height="119pt"
 viewBox="0.00 0.00 995.00 118.50" xmlns="http://www.w3.org/2000/svg" xmlns:xlink="http://www.w3.org/1999/xlink">
<g id="graph0" class="graph" transform="scale(1 1) rotate(0) translate(4 114.5)">
<title>CodeController::toReferenceScrollParams</title>
<!-- Node1 -->
<g id="node1" class="node">
<title>Node1</title>
<g id="a_node1"><a xlink:title=" ">
<polygon fill="#999999" stroke="#666666" points="987,-73 832,-73 832,-43 987,-43 987,-73"/>
<text text-anchor="start" x="840" y="-61" font-family="Helvetica,sans-Serif" font-size="10.00">CodeController::toReference</text>
<text text-anchor="middle" x="909.5" y="-50" font-family="Helvetica,sans-Serif" font-size="10.00">ScrollParams</text>
</a>
</g>
</g>
<!-- Node2 -->
<g id="node2" class="node">
<title>Node2</title>
<g id="a_node2"><a xlink:href="classCodeController.html#a93218efc55dd924cbb08d72f34555860" target="_top" xlink:title=" ">
<polygon fill="white" stroke="#666666" points="796,-110.5 624,-110.5 624,-91.5 796,-91.5 796,-110.5"/>
<text text-anchor="middle" x="710" y="-98.5" font-family="Helvetica,sans-Serif" font-size="10.00">CodeController::handleMessage</text>
</a>
</g>
</g>
<!-- Node1&#45;&gt;Node2 -->
<g id="edge1" class="edge">
<title>Node1&#45;&gt;Node2</title>
<path fill="none" stroke="#63b8ff" d="M826.31,-75.89C802.55,-81.07 777.48,-86.53 756.8,-91.03"/>
<polygon fill="#63b8ff" stroke="#63b8ff" points="826.97,-79.33 836,-73.79 825.48,-72.49 826.97,-79.33"/>
</g>
<!-- Node3 -->
<g id="node3" class="node">
<title>Node3</title>
<g id="a_node3"><a xlink:href="classCodeController.html#a14fe0f87b5b1d3eeadcd8718b676460b" target="_top" xlink:title=" ">
<polygon fill="white" stroke="#666666" points="788.5,-73 631.5,-73 631.5,-43 788.5,-43 788.5,-73"/>
<text text-anchor="start" x="639.5" y="-61" font-family="Helvetica,sans-Serif" font-size="10.00">CodeController::showCurrent</text>
<text text-anchor="middle" x="710" y="-50" font-family="Helvetica,sans-Serif" font-size="10.00">LocalReference</text>
</a>
</g>
</g>
<!-- Node1&#45;&gt;Node3 -->
<g id="edge2" class="edge">
<title>Node1&#45;&gt;Node3</title>
<path fill="none" stroke="#63b8ff" d="M820.25,-58C809.73,-58 799.05,-58 788.69,-58"/>
<polygon fill="#63b8ff" stroke="#63b8ff" points="820.06,-61.5 830.06,-58 820.06,-54.5 820.06,-61.5"/>
</g>
<!-- Node7 -->
<g id="node7" class="node">
<title>Node7</title>
<g id="a_node7"><a xlink:href="classCodeController.html#ae730b4828066c4ce2d937307c4eba439" target="_top" xlink:title=" ">
<polygon fill="white" stroke="#666666" points="364.5,-30 223.5,-30 223.5,0 364.5,0 364.5,-30"/>
<text text-anchor="start" x="231.5" y="-18" font-family="Helvetica,sans-Serif" font-size="10.00">CodeController::showFirst</text>
<text text-anchor="middle" x="294" y="-7" font-family="Helvetica,sans-Serif" font-size="10.00">ActiveReference</text>
</a>
</g>
</g>
<!-- Node1&#45;&gt;Node7 -->
<g id="edge8" class="edge">
<title>Node1&#45;&gt;Node7</title>
<path fill="none" stroke="#63b8ff" d="M834.4,-40.3C821.65,-37.8 808.49,-35.56 796,-34 642.9,-14.91 461.63,-13.15 364.6,-13.87"/>
<polygon fill="#63b8ff" stroke="#63b8ff" points="833.48,-43.69 843.98,-42.25 834.88,-36.83 833.48,-43.69"/>
</g>
<!-- Node4 -->
<g id="node4" class="node">
<title>Node4</title>
<g id="a_node4"><a xlink:href="classCodeController.html#a2e2dd95e2e8f880d18cf977c0a32da6b" target="_top" xlink:title=" ">
<polygon fill="white" stroke="#666666" points="588,-110.5 416,-110.5 416,-91.5 588,-91.5 588,-110.5"/>
<text text-anchor="middle" x="502" y="-98.5" font-family="Helvetica,sans-Serif" font-size="10.00">CodeController::handleMessage</text>
</a>
</g>
</g>
<!-- Node3&#45;&gt;Node4 -->
<g id="edge3" class="edge">
<title>Node3&#45;&gt;Node4</title>
<path fill="none" stroke="#63b8ff" d="M623.95,-75.75C598.97,-80.97 572.53,-86.49 550.77,-91.03"/>
<polygon fill="#63b8ff" stroke="#63b8ff" points="624.36,-79.24 633.44,-73.77 622.93,-72.39 624.36,-79.24"/>
</g>
<!-- Node5 -->
<g id="node5" class="node">
<title>Node5</title>
<g id="a_node5"><a xlink:href="classCodeController.html#a7710a073db003f2ce9b48c040e185e4b" target="_top" xlink:title=" ">
<polygon fill="white" stroke="#666666" points="578.5,-73 425.5,-73 425.5,-43 578.5,-43 578.5,-73"/>
<text text-anchor="start" x="433.5" y="-61" font-family="Helvetica,sans-Serif" font-size="10.00">CodeController::iterateLocal</text>
<text text-anchor="middle" x="502" y="-50" font-family="Helvetica,sans-Serif" font-size="10.00">Reference</text>
</a>
</g>
</g>
<!-- Node3&#45;&gt;Node5 -->
<g id="edge4" class="edge">
<title>Node3&#45;&gt;Node5</title>
<path fill="none" stroke="#63b8ff" d="M619.78,-58C606.17,-58 592.23,-58 578.94,-58"/>
<polygon fill="#63b8ff" stroke="#63b8ff" points="619.61,-61.5 629.61,-58 619.61,-54.5 619.61,-61.5"/>
</g>
<!-- Node6 -->
<g id="node6" class="node">
<title>Node6</title>
<g id="a_node6"><a xlink:href="classCodeController.html#a86cf4dfa0b4e8df66e2fbbf5e0fd0ceb" target="_top" xlink:title=" ">
<polygon fill="white" stroke="#666666" points="380,-67.5 208,-67.5 208,-48.5 380,-48.5 380,-67.5"/>
<text text-anchor="middle" x="294" y="-55.5" font-family="Helvetica,sans-Serif" font-size="10.00">CodeController::handleMessage</text>
</a>
</g>
</g>
<!-- Node5&#45;&gt;Node6 -->
<g id="edge5" class="edge">
<title>Node5&#45;&gt;Node6</title>
<path fill="none" stroke="#63b8ff" d="M413.77,-58C402.72,-58 391.42,-58 380.4,-58"/>
<polygon fill="#63b8ff" stroke="#63b8ff" points="413.66,-61.5 423.66,-58 413.66,-54.5 413.66,-61.5"/>
</g>
<!-- Node5&#45;&gt;Node7 -->
<g id="edge6" class="edge">
<title>Node5&#45;&gt;Node7</title>
<path fill="none" stroke="#63b8ff" d="M415.9,-40.24C398.96,-36.7 381.35,-33.02 364.99,-29.61"/>
<polygon fill="#63b8ff" stroke="#63b8ff" points="414.93,-43.61 425.44,-42.23 416.36,-36.76 414.93,-43.61"/>
</g>
<!-- Node8 -->
<g id="node8" class="node">
<title>Node8</title>
<g id="a_node8"><a xlink:href="classCodeController.html#abba425547c401ee407e08c3874c66144" target="_top" xlink:title=" ">
<polygon fill="white" stroke="#666666" points="172,-24.5 0,-24.5 0,-5.5 172,-5.5 172,-24.5"/>
<text text-anchor="middle" x="86" y="-12.5" font-family="Helvetica,sans-Serif" font-size="10.00">CodeController::handleMessage</text>
</a>
</g>
</g>
<!-- Node7&#45;&gt;Node8 -->
<g id="edge7" class="edge">
<title>Node7&#45;&gt;Node8</title>
<path fill="none" stroke="#63b8ff" d="M211.98,-15C198.98,-15 185.49,-15 172.39,-15"/>
<polygon fill="#63b8ff" stroke="#63b8ff" points="211.74,-18.5 221.74,-15 211.74,-11.5 211.74,-18.5"/>
</g>
</g>
</svg>
