<?xml version="1.0" encoding="UTF-8" standalone="no"?>
<!DOCTYPE svg PUBLIC "-//W3C//DTD SVG 1.1//EN"
 "http://www.w3.org/Graphics/SVG/1.1/DTD/svg11.dtd">
<!-- Generated by graphviz version 7.1.0 (0)
 -->
<!-- Title: SourceGroupSettingsWithCppStandard::getCppStandard Pages: 1 -->
<svg width="600pt" height="49pt"
 viewBox="0.00 0.00 600.00 49.00" xmlns="http://www.w3.org/2000/svg" xmlns:xlink="http://www.w3.org/1999/xlink">
<g id="graph0" class="graph" transform="scale(1 1) rotate(0) translate(4 45)">
<title>SourceGroupSettingsWithCppStandard::getCppStandard</title>
<!-- Node1 -->
<g id="node1" class="node">
<title>Node1</title>
<g id="a_node1"><a xlink:title=" ">
<polygon fill="#999999" stroke="#666666" points="160,-35.5 0,-35.5 0,-5.5 160,-5.5 160,-35.5"/>
<text text-anchor="start" x="8" y="-23.5" font-family="Helvetica,sans-Serif" font-size="10.00">SourceGroupSettingsWithCpp</text>
<text text-anchor="middle" x="80" y="-12.5" font-family="Helvetica,sans-Serif" font-size="10.00">Standard::getCppStandard</text>
</a>
</g>
</g>
<!-- Node2 -->
<g id="node2" class="node">
<title>Node2</title>
<g id="a_node2"><a xlink:href="classSourceGroupSettingsWithCppStandard.html#a0f5f7ecf56cba5099b400a1c1c850fa2" target="_top" xlink:title=" ">
<polygon fill="white" stroke="#666666" points="376,-35.5 196,-35.5 196,-5.5 376,-5.5 376,-35.5"/>
<text text-anchor="start" x="204" y="-23.5" font-family="Helvetica,sans-Serif" font-size="10.00">SourceGroupSettingsWithCpp</text>
<text text-anchor="middle" x="286" y="-12.5" font-family="Helvetica,sans-Serif" font-size="10.00">Standard::getDefaultCppStandard</text>
</a>
</g>
</g>
<!-- Node1&#45;&gt;Node2 -->
<g id="edge1" class="edge">
<title>Node1&#45;&gt;Node2</title>
<path fill="none" stroke="#63b8ff" d="M160.46,-20.5C168.29,-20.5 176.31,-20.5 184.31,-20.5"/>
<polygon fill="#63b8ff" stroke="#63b8ff" points="184.09,-24 194.09,-20.5 184.09,-17 184.09,-24"/>
</g>
<!-- Node3 -->
<g id="node3" class="node">
<title>Node3</title>
<g id="a_node3"><a xlink:href="classSourceGroupSettingsWithCppStandard.html#aa072471413846cd4bd69255a95d8d5f1" target="_top" xlink:title=" ">
<polygon fill="white" stroke="#666666" points="592,-41 412,-41 412,0 592,0 592,-41"/>
<text text-anchor="start" x="420" y="-29" font-family="Helvetica,sans-Serif" font-size="10.00">SourceGroupSettingsWithCpp</text>
<text text-anchor="start" x="420" y="-18" font-family="Helvetica,sans-Serif" font-size="10.00">Standard::getDefaultCppStandard</text>
<text text-anchor="middle" x="502" y="-7" font-family="Helvetica,sans-Serif" font-size="10.00">Static</text>
</a>
</g>
</g>
<!-- Node2&#45;&gt;Node3 -->
<g id="edge2" class="edge">
<title>Node2&#45;&gt;Node3</title>
<path fill="none" stroke="#63b8ff" d="M376.21,-20.5C384.16,-20.5 392.24,-20.5 400.28,-20.5"/>
<polygon fill="#63b8ff" stroke="#63b8ff" points="400.08,-24 410.08,-20.5 400.08,-17 400.08,-24"/>
</g>
</g>
</svg>
