<?xml version="1.0" encoding="UTF-8" standalone="no"?>
<!DOCTYPE svg PUBLIC "-//W3C//DTD SVG 1.1//EN"
 "http://www.w3.org/Graphics/SVG/1.1/DTD/svg11.dtd">
<!-- Generated by graphviz version 7.1.0 (0)
 -->
<!-- Title: PersistentStorage::getTooltipSnippetForNode Pages: 1 -->
<svg width="728pt" height="1442pt"
 viewBox="0.00 0.00 728.00 1442.00" xmlns="http://www.w3.org/2000/svg" xmlns:xlink="http://www.w3.org/1999/xlink">
<g id="graph0" class="graph" transform="scale(1 1) rotate(0) translate(4 1438)">
<title>PersistentStorage::getTooltipSnippetForNode</title>
<!-- Node1 -->
<g id="node1" class="node">
<title>Node1</title>
<g id="a_node1"><a xlink:title=" ">
<polygon fill="#999999" stroke="#666666" points="142,-750.5 0,-750.5 0,-720.5 142,-720.5 142,-750.5"/>
<text text-anchor="start" x="8" y="-738.5" font-family="Helvetica,sans-Serif" font-size="10.00">PersistentStorage::</text>
<text text-anchor="middle" x="71" y="-727.5" font-family="Helvetica,sans-Serif" font-size="10.00">getTooltipSnippetForNode</text>
</a>
</g>
</g>
<!-- Node2 -->
<g id="node2" class="node">
<title>Node2</title>
<g id="a_node2"><a xlink:href="namespaceutility.html#acbc3d285734dc5cca7766de10d580995" target="_top" xlink:title=" ">
<polygon fill="white" stroke="#666666" points="334.5,-1416 209.5,-1416 209.5,-1397 334.5,-1397 334.5,-1416"/>
<text text-anchor="middle" x="272" y="-1404" font-family="Helvetica,sans-Serif" font-size="10.00">utility::breakSignature</text>
</a>
</g>
</g>
<!-- Node1&#45;&gt;Node2 -->
<g id="edge1" class="edge">
<title>Node1&#45;&gt;Node2</title>
<path fill="none" stroke="#63b8ff" d="M72.32,-750.88C74.47,-839.65 89.61,-1285.76 178,-1382.5 183.79,-1388.83 191,-1393.59 198.84,-1397.15"/>
<polygon fill="#63b8ff" stroke="#63b8ff" points="197.43,-1400.36 208.03,-1400.63 199.92,-1393.81 197.43,-1400.36"/>
</g>
<!-- Node3 -->
<g id="node3" class="node">
<title>Node3</title>
<g id="a_node3"><a xlink:href="classSourceLocation.html#a0447891031dba55b8fdc350ef72849c0" target="_top" xlink:title=" ">
<polygon fill="white" stroke="#666666" points="341,-1302 203,-1302 203,-1283 341,-1283 341,-1302"/>
<text text-anchor="middle" x="272" y="-1290" font-family="Helvetica,sans-Serif" font-size="10.00">SourceLocation::contains</text>
</a>
</g>
</g>
<!-- Node1&#45;&gt;Node3 -->
<g id="edge3" class="edge">
<title>Node1&#45;&gt;Node3</title>
<path fill="none" stroke="#63b8ff" d="M72.91,-750.95C77.87,-830.2 104.28,-1190.51 178,-1268.5 182.22,-1272.97 187.16,-1276.65 192.52,-1279.67"/>
<polygon fill="#63b8ff" stroke="#63b8ff" points="190.65,-1282.66 201.18,-1283.79 193.65,-1276.34 190.65,-1282.66"/>
</g>
<!-- Node4 -->
<g id="node4" class="node">
<title>Node4</title>
<g id="a_node4"><a xlink:href="classSourceLocation.html#aeed8b94990bcea9119ac83ec49654b39" target="_top" xlink:title=" ">
<polygon fill="white" stroke="#666666" points="571,-1382.5 421,-1382.5 421,-1352.5 571,-1352.5 571,-1382.5"/>
<text text-anchor="start" x="429" y="-1370.5" font-family="Helvetica,sans-Serif" font-size="10.00">SourceLocation::getColumn</text>
<text text-anchor="middle" x="496" y="-1359.5" font-family="Helvetica,sans-Serif" font-size="10.00">Number</text>
</a>
</g>
</g>
<!-- Node1&#45;&gt;Node4 -->
<g id="edge25" class="edge">
<title>Node1&#45;&gt;Node4</title>
<path fill="none" stroke="#63b8ff" d="M72.3,-750.86C74.28,-836.58 88.52,-1254.9 178,-1337.5 210.64,-1367.63 327.2,-1371.75 409.47,-1370.65"/>
<polygon fill="#63b8ff" stroke="#63b8ff" points="409.39,-1374.15 419.33,-1370.49 409.27,-1367.15 409.39,-1374.15"/>
</g>
<!-- Node5 -->
<g id="node5" class="node">
<title>Node5</title>
<g id="a_node5"><a xlink:href="classSourceLocation.html#a40374d38f5964d6f8f2da4556172b916" target="_top" xlink:title=" ">
<polygon fill="white" stroke="#666666" points="582,-1334 410,-1334 410,-1315 582,-1315 582,-1334"/>
<text text-anchor="middle" x="496" y="-1322" font-family="Helvetica,sans-Serif" font-size="10.00">SourceLocation::getEndLocation</text>
</a>
</g>
</g>
<!-- Node1&#45;&gt;Node5 -->
<g id="edge28" class="edge">
<title>Node1&#45;&gt;Node5</title>
<path fill="none" stroke="#63b8ff" d="M72.35,-750.82C74.64,-834.49 90.08,-1235.18 178,-1311.5 209.88,-1339.17 317.24,-1338.37 398.26,-1333.27"/>
<polygon fill="#63b8ff" stroke="#63b8ff" points="398.25,-1336.77 407.99,-1332.62 397.78,-1329.79 398.25,-1336.77"/>
</g>
<!-- Node6 -->
<g id="node6" class="node">
<title>Node6</title>
<g id="a_node6"><a xlink:href="classSourceLocation.html#a376e3d556cf0c701c8208b8c5cdec769" target="_top" xlink:title=" ">
<polygon fill="white" stroke="#666666" points="582,-1297 410,-1297 410,-1278 582,-1278 582,-1297"/>
<text text-anchor="middle" x="496" y="-1285" font-family="Helvetica,sans-Serif" font-size="10.00">SourceLocation::getLineNumber</text>
</a>
</g>
</g>
<!-- Node1&#45;&gt;Node6 -->
<g id="edge39" class="edge">
<title>Node1&#45;&gt;Node6</title>
<path fill="none" stroke="#63b8ff" d="M73.04,-750.98C78.48,-827.27 106.24,-1162.25 178,-1231.5 193.97,-1246.91 312.09,-1264.74 399.49,-1276.07"/>
<polygon fill="#63b8ff" stroke="#63b8ff" points="398.93,-1279.53 409.3,-1277.33 399.82,-1272.59 398.93,-1279.53"/>
</g>
<!-- Node7 -->
<g id="node7" class="node">
<title>Node7</title>
<g id="a_node7"><a xlink:href="classSourceLocation.html#a28785e9e82c344caa534b5b2dbc617e6" target="_top" xlink:title=" ">
<polygon fill="white" stroke="#666666" points="564,-1258.5 428,-1258.5 428,-1228.5 564,-1228.5 564,-1258.5"/>
<text text-anchor="start" x="436" y="-1246.5" font-family="Helvetica,sans-Serif" font-size="10.00">SourceLocation::getStart</text>
<text text-anchor="middle" x="496" y="-1235.5" font-family="Helvetica,sans-Serif" font-size="10.00">Location</text>
</a>
</g>
</g>
<!-- Node1&#45;&gt;Node7 -->
<g id="edge58" class="edge">
<title>Node1&#45;&gt;Node7</title>
<path fill="none" stroke="#63b8ff" d="M73.25,-750.93C79.5,-824.04 109.78,-1134.62 178,-1197.5 211.78,-1228.64 334.01,-1238.74 416.44,-1242"/>
<polygon fill="#63b8ff" stroke="#63b8ff" points="416.16,-1245.49 426.28,-1242.35 416.42,-1238.49 416.16,-1245.49"/>
</g>
<!-- Node8 -->
<g id="node8" class="node">
<title>Node8</title>
<g id="a_node8"><a xlink:href="namespaceutility.html#a61d5b7a5b94c31ae3e274074387329ce" target="_top" xlink:title=" ">
<polygon fill="white" stroke="#666666" points="338,-1188 206,-1188 206,-1169 338,-1169 338,-1188"/>
<text text-anchor="middle" x="272" y="-1176" font-family="Helvetica,sans-Serif" font-size="10.00">utility::containsElement</text>
</a>
</g>
</g>
<!-- Node1&#45;&gt;Node8 -->
<g id="edge8" class="edge">
<title>Node1&#45;&gt;Node8</title>
<path fill="none" stroke="#63b8ff" d="M73.68,-750.96C81.5,-820.18 116.62,-1100.73 178,-1159.5 183.08,-1164.36 189.04,-1168.13 195.46,-1171.04"/>
<polygon fill="#63b8ff" stroke="#63b8ff" points="193.85,-1174.17 204.44,-1174.39 196.3,-1167.61 193.85,-1174.17"/>
</g>
<!-- Node9 -->
<g id="node9" class="node">
<title>Node9</title>
<g id="a_node9"><a xlink:href="namespaceutility.html#a9664986128cb425cdd42332a7dd6d25b" target="_top" xlink:title=" ">
<polygon fill="white" stroke="#666666" points="347,-1150.5 197,-1150.5 197,-1120.5 347,-1120.5 347,-1150.5"/>
<text text-anchor="start" x="205" y="-1138.5" font-family="Helvetica,sans-Serif" font-size="10.00">utility::convertWhiteSpaces</text>
<text text-anchor="middle" x="272" y="-1127.5" font-family="Helvetica,sans-Serif" font-size="10.00">ToSingleSpaces</text>
</a>
</g>
</g>
<!-- Node1&#45;&gt;Node9 -->
<g id="edge9" class="edge">
<title>Node1&#45;&gt;Node9</title>
<path fill="none" stroke="#63b8ff" d="M71.57,-750.69C70.85,-806.45 75.98,-1002.01 178,-1106.5 180.8,-1109.37 183.88,-1111.96 187.17,-1114.29"/>
<polygon fill="#63b8ff" stroke="#63b8ff" points="185.25,-1117.22 195.61,-1119.42 188.88,-1111.24 185.25,-1117.22"/>
</g>
<!-- Node11 -->
<g id="node11" class="node">
<title>Node11</title>
<g id="a_node11"><a xlink:href="namespaceutility.html#aa2aad75e2450a26e520180d5b059c638" target="_top" xlink:title=" ">
<polygon fill="white" stroke="#666666" points="561.5,-1133 430.5,-1133 430.5,-1114 561.5,-1114 561.5,-1133"/>
<text text-anchor="middle" x="496" y="-1121" font-family="Helvetica,sans-Serif" font-size="10.00">utility::decodeFromUtf8</text>
</a>
</g>
</g>
<!-- Node1&#45;&gt;Node11 -->
<g id="edge11" class="edge">
<title>Node1&#45;&gt;Node11</title>
<path fill="none" stroke="#63b8ff" d="M72.5,-750.72C74.97,-800.05 89.75,-956.84 178,-1035.5 241.99,-1092.53 283.63,-1054.79 366,-1078.5 397.57,-1087.59 432.74,-1100.01 458.37,-1109.51"/>
<polygon fill="#63b8ff" stroke="#63b8ff" points="457.07,-1112.76 467.67,-1112.98 459.52,-1106.2 457.07,-1112.76"/>
</g>
<!-- Node12 -->
<g id="node12" class="node">
<title>Node12</title>
<g id="a_node12"><a xlink:href="classNameHierarchy.html#aac9041eb78a248b2366f927bc7466b52" target="_top" xlink:title=" ">
<polygon fill="white" stroke="#666666" points="348,-864 196,-864 196,-845 348,-845 348,-864"/>
<text text-anchor="middle" x="272" y="-852" font-family="Helvetica,sans-Serif" font-size="10.00">NameHierarchy::deserialize</text>
</a>
</g>
</g>
<!-- Node1&#45;&gt;Node12 -->
<g id="edge12" class="edge">
<title>Node1&#45;&gt;Node12</title>
<path fill="none" stroke="#63b8ff" d="M84.73,-750.8C103.12,-771.92 139.22,-809.73 178,-830.5 186.05,-834.81 194.91,-838.37 203.86,-841.31"/>
<polygon fill="#63b8ff" stroke="#63b8ff" points="202.75,-844.63 213.33,-844.16 204.76,-837.93 202.75,-844.63"/>
</g>
<!-- Node15 -->
<g id="node15" class="node">
<title>Node15</title>
<g id="a_node15"><a xlink:href="classNameElement_1_1Signature.html#a4bb81f51eb96fb5546311bd60d959dcb" target="_top" xlink:title=" ">
<polygon fill="white" stroke="#666666" points="565.5,-923.5 426.5,-923.5 426.5,-893.5 565.5,-893.5 565.5,-923.5"/>
<text text-anchor="start" x="434.5" y="-911.5" font-family="Helvetica,sans-Serif" font-size="10.00">NameElement::Signature</text>
<text text-anchor="middle" x="496" y="-900.5" font-family="Helvetica,sans-Serif" font-size="10.00">::getPostfix</text>
</a>
</g>
</g>
<!-- Node1&#45;&gt;Node15 -->
<g id="edge45" class="edge">
<title>Node1&#45;&gt;Node15</title>
<path fill="none" stroke="#63b8ff" d="M78.65,-750.8C92.39,-780.32 126.93,-844.74 178,-873.5 217.28,-895.62 334.85,-903.76 415.22,-906.76"/>
<polygon fill="#63b8ff" stroke="#63b8ff" points="414.67,-910.24 424.79,-907.09 414.92,-903.24 414.67,-910.24"/>
</g>
<!-- Node16 -->
<g id="node16" class="node">
<title>Node16</title>
<g id="a_node16"><a xlink:href="classNameElement_1_1Signature.html#a42b4dce71a17904b4063c7357a9e8394" target="_top" xlink:title=" ">
<polygon fill="white" stroke="#666666" points="565.5,-615.5 426.5,-615.5 426.5,-585.5 565.5,-585.5 565.5,-615.5"/>
<text text-anchor="start" x="434.5" y="-603.5" font-family="Helvetica,sans-Serif" font-size="10.00">NameElement::Signature</text>
<text text-anchor="middle" x="496" y="-592.5" font-family="Helvetica,sans-Serif" font-size="10.00">::getPrefix</text>
</a>
</g>
</g>
<!-- Node1&#45;&gt;Node16 -->
<g id="edge46" class="edge">
<title>Node1&#45;&gt;Node16</title>
<path fill="none" stroke="#63b8ff" d="M90.9,-750.79C111.07,-766.04 144.66,-788.47 178,-797.5 258.65,-819.35 301.15,-850.18 366,-797.5 426.62,-748.26 348.35,-682.26 402,-625.5 406.06,-621.21 410.77,-617.62 415.88,-614.63"/>
<polygon fill="#63b8ff" stroke="#63b8ff" points="417.33,-617.81 424.75,-610.25 414.24,-611.54 417.33,-617.81"/>
</g>
<!-- Node23 -->
<g id="node22" class="node">
<title>Node23</title>
<g id="a_node22"><a xlink:href="classSqliteIndexStorage.html#a1c9bd502715f6853cfe32cab32dbca18" target="_top" xlink:title=" ">
<polygon fill="white" stroke="#666666" points="550.5,-971.5 441.5,-971.5 441.5,-941.5 550.5,-941.5 550.5,-971.5"/>
<text text-anchor="start" x="449.5" y="-959.5" font-family="Helvetica,sans-Serif" font-size="10.00">SqliteIndexStorage</text>
<text text-anchor="middle" x="496" y="-948.5" font-family="Helvetica,sans-Serif" font-size="10.00">::getAllByIds</text>
</a>
</g>
</g>
<!-- Node1&#45;&gt;Node23 -->
<g id="edge22" class="edge">
<title>Node1&#45;&gt;Node23</title>
<path fill="none" stroke="#63b8ff" d="M76.88,-750.77C88.45,-784.33 120.96,-864.56 178,-902.5 218.34,-929.34 349.73,-944.61 430.14,-951.66"/>
<polygon fill="#63b8ff" stroke="#63b8ff" points="429.36,-955.1 439.62,-952.47 429.96,-948.13 429.36,-955.1"/>
</g>
<!-- Node24 -->
<g id="node23" class="node">
<title>Node24</title>
<g id="a_node23"><a xlink:href="namespaceutility.html#a237f617b0b07dbb7215f63901217c7a4" target="_top" xlink:title=" ">
<polygon fill="white" stroke="#666666" points="707,-1073 639,-1073 639,-1054 707,-1054 707,-1073"/>
<text text-anchor="middle" x="673" y="-1061" font-family="Helvetica,sans-Serif" font-size="10.00">utility::join</text>
</a>
</g>
</g>
<!-- Node1&#45;&gt;Node24 -->
<g id="edge64" class="edge">
<title>Node1&#45;&gt;Node24</title>
<path fill="none" stroke="#63b8ff" d="M71.83,-750.98C72.12,-804.26 80.66,-981.7 178,-1070.5 241.18,-1128.14 289.48,-1073.32 366,-1111.5 384.89,-1120.93 382.21,-1135.15 402,-1142.5 480.33,-1171.58 512.51,-1173.75 590,-1142.5 619.68,-1130.53 644.62,-1102.1 658.94,-1082.82"/>
<polygon fill="#63b8ff" stroke="#63b8ff" points="661.78,-1084.87 664.72,-1074.69 656.07,-1080.81 661.78,-1084.87"/>
</g>
<!-- Node26 -->
<g id="node25" class="node">
<title>Node26</title>
<g id="a_node25"><a xlink:href="classNameHierarchy.html#a120b074b23a0f96740d3245a1ca9f6d9" target="_top" xlink:title=" ">
<polygon fill="white" stroke="#666666" points="352,-788 192,-788 192,-769 352,-769 352,-788"/>
<text text-anchor="middle" x="272" y="-776" font-family="Helvetica,sans-Serif" font-size="10.00">NameHierarchy::getDelimiter</text>
</a>
</g>
</g>
<!-- Node1&#45;&gt;Node26 -->
<g id="edge26" class="edge">
<title>Node1&#45;&gt;Node26</title>
<path fill="none" stroke="#63b8ff" d="M139.24,-750.95C152.1,-753.84 165.46,-756.8 178,-759.5 188.4,-761.74 199.47,-764.06 210.21,-766.27"/>
<polygon fill="#63b8ff" stroke="#63b8ff" points="209.26,-769.65 219.76,-768.23 210.67,-762.79 209.26,-769.65"/>
</g>
<!-- Node27 -->
<g id="node26" class="node">
<title>Node27</title>
<g id="a_node26"><a xlink:href="classSqliteIndexStorage.html#abad5ea780f129837408e2d34ed682c3a" target="_top" xlink:title=" ">
<polygon fill="white" stroke="#666666" points="333,-750.5 211,-750.5 211,-720.5 333,-720.5 333,-750.5"/>
<text text-anchor="start" x="219" y="-738.5" font-family="Helvetica,sans-Serif" font-size="10.00">SqliteIndexStorage</text>
<text text-anchor="middle" x="272" y="-727.5" font-family="Helvetica,sans-Serif" font-size="10.00">::getEdgesBySourceId</text>
</a>
</g>
</g>
<!-- Node1&#45;&gt;Node27 -->
<g id="edge27" class="edge">
<title>Node1&#45;&gt;Node27</title>
<path fill="none" stroke="#63b8ff" d="M142.44,-735.5C160.87,-735.5 180.75,-735.5 199.24,-735.5"/>
<polygon fill="#63b8ff" stroke="#63b8ff" points="199.04,-739 209.04,-735.5 199.04,-732 199.04,-739"/>
</g>
<!-- Node28 -->
<g id="node27" class="node">
<title>Node28</title>
<g id="a_node27"><a xlink:href="classPersistentStorage.html#aaedca58db823846eb42b5b8704f0ead4" target="_top" xlink:title=" ">
<polygon fill="white" stroke="#666666" points="326.5,-702.5 217.5,-702.5 217.5,-672.5 326.5,-672.5 326.5,-702.5"/>
<text text-anchor="start" x="225.5" y="-690.5" font-family="Helvetica,sans-Serif" font-size="10.00">PersistentStorage::</text>
<text text-anchor="middle" x="272" y="-679.5" font-family="Helvetica,sans-Serif" font-size="10.00">getFileContent</text>
</a>
</g>
</g>
<!-- Node1&#45;&gt;Node28 -->
<g id="edge29" class="edge">
<title>Node1&#45;&gt;Node28</title>
<path fill="none" stroke="#63b8ff" d="M136.06,-720.05C158.42,-714.66 183.52,-708.6 205.95,-703.19"/>
<polygon fill="#63b8ff" stroke="#63b8ff" points="206.7,-706.61 215.6,-700.86 205.06,-699.81 206.7,-706.61"/>
</g>
<!-- Node39 -->
<g id="node31" class="node">
<title>Node39</title>
<g id="a_node31"><a xlink:href="classPersistentStorage.html#a7483195093d6a71fa880de8be965f025" target="_top" xlink:title=" ">
<polygon fill="white" stroke="#666666" points="333,-654.5 211,-654.5 211,-624.5 333,-624.5 333,-654.5"/>
<text text-anchor="start" x="219" y="-642.5" font-family="Helvetica,sans-Serif" font-size="10.00">PersistentStorage::</text>
<text text-anchor="middle" x="272" y="-631.5" font-family="Helvetica,sans-Serif" font-size="10.00">getFileNodeLanguage</text>
</a>
</g>
</g>
<!-- Node1&#45;&gt;Node39 -->
<g id="edge33" class="edge">
<title>Node1&#45;&gt;Node39</title>
<path fill="none" stroke="#63b8ff" d="M90.35,-720.11C110.6,-703.85 144.76,-678.53 178,-663.5 185.02,-660.33 192.54,-657.51 200.15,-655.04"/>
<polygon fill="#63b8ff" stroke="#63b8ff" points="200.92,-658.46 209.47,-652.2 198.88,-651.77 200.92,-658.46"/>
</g>
<!-- Node40 -->
<g id="node32" class="node">
<title>Node40</title>
<g id="a_node32"><a xlink:href="classSourceLocation.html#a8ee76a543c99fcd6ea9825561d18c966" target="_top" xlink:title=" ">
<polygon fill="white" stroke="#666666" points="347.5,-606 196.5,-606 196.5,-587 347.5,-587 347.5,-606"/>
<text text-anchor="middle" x="272" y="-594" font-family="Helvetica,sans-Serif" font-size="10.00">SourceLocation::getFilePath</text>
</a>
</g>
</g>
<!-- Node1&#45;&gt;Node40 -->
<g id="edge34" class="edge">
<title>Node1&#45;&gt;Node40</title>
<path fill="none" stroke="#63b8ff" d="M80.89,-720.14C96.8,-694.12 132.76,-641.67 178,-615.5 181.21,-613.64 184.57,-611.97 188.04,-610.45"/>
<polygon fill="#63b8ff" stroke="#63b8ff" points="189.19,-613.76 197.28,-606.92 186.69,-607.22 189.19,-613.76"/>
</g>
<!-- Node42 -->
<g id="node34" class="node">
<title>Node42</title>
<g id="a_node34"><a xlink:href="classSqliteIndexStorage.html#aeae2223d485b97202bec2a9bef9b401a" target="_top" xlink:title=" ">
<polygon fill="white" stroke="#666666" points="326.5,-568.5 217.5,-568.5 217.5,-538.5 326.5,-538.5 326.5,-568.5"/>
<text text-anchor="start" x="225.5" y="-556.5" font-family="Helvetica,sans-Serif" font-size="10.00">SqliteIndexStorage</text>
<text text-anchor="middle" x="272" y="-545.5" font-family="Helvetica,sans-Serif" font-size="10.00">::getFirstById</text>
</a>
</g>
</g>
<!-- Node1&#45;&gt;Node42 -->
<g id="edge36" class="edge">
<title>Node1&#45;&gt;Node42</title>
<path fill="none" stroke="#63b8ff" d="M77.89,-720.32C90.92,-688.82 125.26,-616.13 178,-578.5 186.5,-572.44 196.38,-567.85 206.46,-564.37"/>
<polygon fill="#63b8ff" stroke="#63b8ff" points="207.45,-567.73 215.99,-561.46 205.4,-561.03 207.45,-567.73"/>
</g>
<!-- Node43 -->
<g id="node35" class="node">
<title>Node43</title>
<g id="a_node35"><a xlink:href="classApplicationSettings.html#a59fd66f9eab421c8e7ea4da03c4b0d1e" target="_top" xlink:title=" ">
<polygon fill="white" stroke="#666666" points="327.5,-520.5 216.5,-520.5 216.5,-490.5 327.5,-490.5 327.5,-520.5"/>
<text text-anchor="start" x="224.5" y="-508.5" font-family="Helvetica,sans-Serif" font-size="10.00">ApplicationSettings</text>
<text text-anchor="middle" x="272" y="-497.5" font-family="Helvetica,sans-Serif" font-size="10.00">::getInstance</text>
</a>
</g>
</g>
<!-- Node1&#45;&gt;Node43 -->
<g id="edge37" class="edge">
<title>Node1&#45;&gt;Node43</title>
<path fill="none" stroke="#63b8ff" d="M75.34,-720.08C84.5,-681.61 113.74,-580.84 178,-529.5 186.04,-523.08 195.6,-518.36 205.49,-514.89"/>
<polygon fill="#63b8ff" stroke="#63b8ff" points="206.29,-518.31 214.84,-512.05 204.25,-511.61 206.29,-518.31"/>
</g>
<!-- Node45 -->
<g id="node37" class="node">
<title>Node45</title>
<g id="a_node37"><a xlink:href="classSourceLocation.html#ab16e2014fa2d9f128254a9c7972e9fb6" target="_top" xlink:title=" ">
<polygon fill="white" stroke="#666666" points="353.5,-472 190.5,-472 190.5,-453 353.5,-453 353.5,-472"/>
<text text-anchor="middle" x="272" y="-460" font-family="Helvetica,sans-Serif" font-size="10.00">SourceLocation::getLocationId</text>
</a>
</g>
</g>
<!-- Node1&#45;&gt;Node45 -->
<g id="edge40" class="edge">
<title>Node1&#45;&gt;Node45</title>
<path fill="none" stroke="#63b8ff" d="M73.53,-720.02C78.82,-675.33 100.51,-545.26 178,-481.5 179.53,-480.24 181.12,-479.06 182.77,-477.95"/>
<polygon fill="#63b8ff" stroke="#63b8ff" points="184.39,-481.05 191.38,-473.08 180.95,-474.95 184.39,-481.05"/>
</g>
<!-- Node46 -->
<g id="node38" class="node">
<title>Node46</title>
<g id="a_node38"><a xlink:href="classSqliteIndexStorage.html#ac30760b4bf7cb248563e29379d75f664" target="_top" xlink:title=" ">
<polygon fill="white" stroke="#666666" points="580,-1019.5 412,-1019.5 412,-989.5 580,-989.5 580,-1019.5"/>
<text text-anchor="start" x="420" y="-1007.5" font-family="Helvetica,sans-Serif" font-size="10.00">SqliteIndexStorage</text>
<text text-anchor="middle" x="496" y="-996.5" font-family="Helvetica,sans-Serif" font-size="10.00">::getOccurrencesForElementIds</text>
</a>
</g>
</g>
<!-- Node1&#45;&gt;Node46 -->
<g id="edge41" class="edge">
<title>Node1&#45;&gt;Node46</title>
<path fill="none" stroke="#63b8ff" d="M75.4,-750.99C84.63,-789.12 113.85,-887.9 178,-936.5 195.81,-949.99 313.49,-972.91 400.29,-988.37"/>
<polygon fill="#63b8ff" stroke="#63b8ff" points="399.57,-991.79 410.03,-990.09 400.79,-984.9 399.57,-991.79"/>
</g>
<!-- Node47 -->
<g id="node39" class="node">
<title>Node47</title>
<g id="a_node39"><a xlink:href="classSourceLocation.html#abe68da780e2dfe6bac10269c98613465" target="_top" xlink:title=" ">
<polygon fill="white" stroke="#666666" points="342,-434.5 202,-434.5 202,-404.5 342,-404.5 342,-434.5"/>
<text text-anchor="start" x="210" y="-422.5" font-family="Helvetica,sans-Serif" font-size="10.00">SourceLocation::getOther</text>
<text text-anchor="middle" x="272" y="-411.5" font-family="Helvetica,sans-Serif" font-size="10.00">Location</text>
</a>
</g>
</g>
<!-- Node1&#45;&gt;Node47 -->
<g id="edge44" class="edge">
<title>Node1&#45;&gt;Node47</title>
<path fill="none" stroke="#63b8ff" d="M72.82,-720.18C76.26,-671.95 93.58,-521.9 178,-444.5 182.02,-440.81 186.54,-437.66 191.34,-434.96"/>
<polygon fill="#63b8ff" stroke="#63b8ff" points="192.71,-438.19 200.2,-430.7 189.68,-431.88 192.71,-438.19"/>
</g>
<!-- Node48 -->
<g id="node40" class="node">
<title>Node48</title>
<g id="a_node40"><a xlink:href="classNameHierarchy.html#a13e670a2f7acdded37033ddf9f2d8f3c" target="_top" xlink:title=" ">
<polygon fill="white" stroke="#666666" points="590,-344 402,-344 402,-325 590,-325 590,-344"/>
<text text-anchor="middle" x="496" y="-332" font-family="Helvetica,sans-Serif" font-size="10.00">NameHierarchy::getQualifiedName</text>
</a>
</g>
</g>
<!-- Node1&#45;&gt;Node48 -->
<g id="edge47" class="edge">
<title>Node1&#45;&gt;Node48</title>
<path fill="none" stroke="#63b8ff" d="M73.79,-720.24C81.86,-654.42 117.09,-396.01 178,-347.5 209.94,-322.06 311.23,-321.73 390.81,-325.95"/>
<polygon fill="#63b8ff" stroke="#63b8ff" points="390.2,-329.43 400.38,-326.49 390.59,-322.44 390.2,-329.43"/>
</g>
<!-- Node49 -->
<g id="node41" class="node">
<title>Node49</title>
<g id="a_node41"><a xlink:href="classNameHierarchy.html#a21920b11744a791442566fc86613690b" target="_top" xlink:title=" ">
<polygon fill="white" stroke="#666666" points="351,-386.5 193,-386.5 193,-356.5 351,-356.5 351,-386.5"/>
<text text-anchor="start" x="201" y="-374.5" font-family="Helvetica,sans-Serif" font-size="10.00">NameHierarchy::getQualified</text>
<text text-anchor="middle" x="272" y="-363.5" font-family="Helvetica,sans-Serif" font-size="10.00">NameWithSignature</text>
</a>
</g>
</g>
<!-- Node1&#45;&gt;Node49 -->
<g id="edge48" class="edge">
<title>Node1&#45;&gt;Node49</title>
<path fill="none" stroke="#63b8ff" d="M71.87,-720.3C72.26,-667.15 81.02,-487.78 178,-395.5 179.63,-393.95 181.35,-392.49 183.14,-391.13"/>
<polygon fill="#63b8ff" stroke="#63b8ff" points="184.83,-394.2 191.36,-385.86 181.05,-388.31 184.83,-394.2"/>
</g>
<!-- Node50 -->
<g id="node42" class="node">
<title>Node50</title>
<g id="a_node42"><a xlink:href="classNameHierarchy.html#a7a2bb7136d6cbdda9e78f2e09d36b611" target="_top" xlink:title=" ">
<polygon fill="white" stroke="#666666" points="354,-300 190,-300 190,-281 354,-281 354,-300"/>
<text text-anchor="middle" x="272" y="-288" font-family="Helvetica,sans-Serif" font-size="10.00">NameHierarchy::getRawName</text>
</a>
</g>
</g>
<!-- Node1&#45;&gt;Node50 -->
<g id="edge50" class="edge">
<title>Node1&#45;&gt;Node50</title>
<path fill="none" stroke="#63b8ff" d="M73.76,-720.22C81.97,-651.79 118.49,-374.37 178,-314.5 181.37,-311.11 185.16,-308.17 189.22,-305.64"/>
<polygon fill="#63b8ff" stroke="#63b8ff" points="190.58,-308.88 197.8,-301.12 187.32,-302.68 190.58,-308.88"/>
</g>
<!-- Node51 -->
<g id="node43" class="node">
<title>Node51</title>
<g id="a_node43"><a xlink:href="classNameHierarchy.html#a36548b2b6d62fc9f72ceb07c777c8463" target="_top" xlink:title=" ">
<polygon fill="white" stroke="#666666" points="352.5,-263 191.5,-263 191.5,-244 352.5,-244 352.5,-263"/>
<text text-anchor="middle" x="272" y="-251" font-family="Helvetica,sans-Serif" font-size="10.00">NameHierarchy::getSignature</text>
</a>
</g>
</g>
<!-- Node1&#45;&gt;Node51 -->
<g id="edge51" class="edge">
<title>Node1&#45;&gt;Node51</title>
<path fill="none" stroke="#63b8ff" d="M73.3,-720.07C79.8,-646.96 111.03,-336.27 178,-271.5 179.22,-270.32 180.49,-269.21 181.81,-268.16"/>
<polygon fill="#63b8ff" stroke="#63b8ff" points="183.38,-271.31 189.85,-262.92 179.56,-265.44 183.38,-271.31"/>
</g>
<!-- Node52 -->
<g id="node44" class="node">
<title>Node52</title>
<g id="a_node44"><a xlink:href="classSqliteIndexStorage.html#ab626de2bbf0c68dc30bc922878fbcb29" target="_top" xlink:title=" ">
<polygon fill="#fff0f0" stroke="red" points="366,-1026.5 178,-1026.5 178,-996.5 366,-996.5 366,-1026.5"/>
<text text-anchor="start" x="186" y="-1014.5" font-family="Helvetica,sans-Serif" font-size="10.00">SqliteIndexStorage</text>
<text text-anchor="middle" x="272" y="-1003.5" font-family="Helvetica,sans-Serif" font-size="10.00">::getSourceLocationsForElementIds</text>
</a>
</g>
</g>
<!-- Node1&#45;&gt;Node52 -->
<g id="edge52" class="edge">
<title>Node1&#45;&gt;Node52</title>
<path fill="none" stroke="#63b8ff" d="M74.08,-750.81C80.76,-793.89 105.58,-917.18 178,-982.5 181.37,-985.54 185.05,-988.25 188.94,-990.69"/>
<polygon fill="#63b8ff" stroke="#63b8ff" points="187.2,-993.73 197.66,-995.44 190.56,-987.58 187.2,-993.73"/>
</g>
<!-- Node54 -->
<g id="node45" class="node">
<title>Node54</title>
<g id="a_node45"><a xlink:href="classPersistentStorage.html#a00d9b26e0e998a6b8d2395b641e7c498" target="_top" xlink:title=" ">
<polygon fill="#fff0f0" stroke="red" points="348,-226 196,-226 196,-185 348,-185 348,-226"/>
<text text-anchor="start" x="204" y="-214" font-family="Helvetica,sans-Serif" font-size="10.00">PersistentStorage::</text>
<text text-anchor="start" x="204" y="-203" font-family="Helvetica,sans-Serif" font-size="10.00">getSourceLocationsForLines</text>
<text text-anchor="middle" x="272" y="-192" font-family="Helvetica,sans-Serif" font-size="10.00">InFile</text>
</a>
</g>
</g>
<!-- Node1&#45;&gt;Node54 -->
<g id="edge57" class="edge">
<title>Node1&#45;&gt;Node54</title>
<path fill="none" stroke="#63b8ff" d="M73.2,-720.04C79.4,-643.85 110.22,-308.95 178,-234.5 180.5,-231.75 183.27,-229.26 186.22,-227"/>
<polygon fill="#63b8ff" stroke="#63b8ff" points="187.86,-230.11 194.33,-221.73 184.04,-224.24 187.86,-230.11"/>
</g>
<!-- Node59 -->
<g id="node46" class="node">
<title>Node59</title>
<g id="a_node46"><a xlink:href="classSourceLocation.html#a7b412dc68d84ca7a29ce250ecabbc83a" target="_top" xlink:title=" ">
<polygon fill="white" stroke="#666666" points="349.5,-167 194.5,-167 194.5,-148 349.5,-148 349.5,-167"/>
<text text-anchor="middle" x="272" y="-155" font-family="Helvetica,sans-Serif" font-size="10.00">SourceLocation::getTokenIds</text>
</a>
</g>
</g>
<!-- Node1&#45;&gt;Node59 -->
<g id="edge59" class="edge">
<title>Node1&#45;&gt;Node59</title>
<path fill="none" stroke="#63b8ff" d="M72.66,-720.01C76.46,-638.02 98.31,-255.51 178,-175.5 180.03,-173.46 182.22,-171.62 184.53,-169.95"/>
<polygon fill="#63b8ff" stroke="#63b8ff" points="185.87,-173.22 192.71,-165.13 182.32,-167.19 185.87,-173.22"/>
</g>
<!-- Node60 -->
<g id="node47" class="node">
<title>Node60</title>
<g id="a_node47"><a xlink:href="classSourceLocation.html#a0c0fdcc9faf5384643b914df77c3ccae" target="_top" xlink:title=" ">
<polygon fill="white" stroke="#666666" points="339.5,-130 204.5,-130 204.5,-111 339.5,-111 339.5,-130"/>
<text text-anchor="middle" x="272" y="-118" font-family="Helvetica,sans-Serif" font-size="10.00">SourceLocation::getType</text>
</a>
</g>
</g>
<!-- Node1&#45;&gt;Node60 -->
<g id="edge60" class="edge">
<title>Node1&#45;&gt;Node60</title>
<path fill="none" stroke="#63b8ff" d="M72.46,-720.12C75.3,-635.22 93.34,-224.48 178,-138.5 182.47,-133.96 187.72,-130.38 193.41,-127.58"/>
<polygon fill="#63b8ff" stroke="#63b8ff" points="194.65,-130.85 202.64,-123.89 192.06,-124.35 194.65,-130.85"/>
</g>
<!-- Node61 -->
<g id="node48" class="node">
<title>Node61</title>
<g id="a_node48"><a xlink:href="classNameHierarchy.html#a2ea6a3d3e63b1a67bbdc0e9468774ffe" target="_top" xlink:title=" ">
<polygon fill="white" stroke="#666666" points="353,-93 191,-93 191,-74 353,-74 353,-93"/>
<text text-anchor="middle" x="272" y="-81" font-family="Helvetica,sans-Serif" font-size="10.00">NameHierarchy::hasSignature</text>
</a>
</g>
</g>
<!-- Node1&#45;&gt;Node61 -->
<g id="edge61" class="edge">
<title>Node1&#45;&gt;Node61</title>
<path fill="none" stroke="#63b8ff" d="M72.29,-720.05C74.24,-631.93 88.42,-193.4 178,-101.5 179.18,-100.29 180.42,-99.14 181.71,-98.06"/>
<polygon fill="#63b8ff" stroke="#63b8ff" points="183.31,-101.2 189.61,-92.68 179.37,-95.42 183.31,-101.2"/>
</g>
<!-- Node62 -->
<g id="node49" class="node">
<title>Node62</title>
<g id="a_node49"><a xlink:href="classEdge.html#a7ed693a82d45e351e90133c1142ea337" target="_top" xlink:title=" ">
<polygon fill="white" stroke="#666666" points="318,-56 226,-56 226,-37 318,-37 318,-56"/>
<text text-anchor="middle" x="272" y="-44" font-family="Helvetica,sans-Serif" font-size="10.00">Edge::intToType</text>
</a>
</g>
</g>
<!-- Node1&#45;&gt;Node62 -->
<g id="edge62" class="edge">
<title>Node1&#45;&gt;Node62</title>
<path fill="none" stroke="#63b8ff" d="M72.13,-720.06C73.23,-628.97 83.46,-162.36 178,-64.5 187.55,-54.61 200.78,-49.26 214.27,-46.54"/>
<polygon fill="#63b8ff" stroke="#63b8ff" points="214.72,-50.01 224.09,-45.06 213.68,-43.09 214.72,-50.01"/>
</g>
<!-- Node63 -->
<g id="node50" class="node">
<title>Node63</title>
<g id="a_node50"><a xlink:href="classSourceLocation.html#a436d3034fabaff11a63fb222e66729b0" target="_top" xlink:title=" ">
<polygon fill="white" stroke="#666666" points="357,-19 187,-19 187,0 357,0 357,-19"/>
<text text-anchor="middle" x="272" y="-7" font-family="Helvetica,sans-Serif" font-size="10.00">SourceLocation::isStartLocation</text>
</a>
</g>
</g>
<!-- Node1&#45;&gt;Node63 -->
<g id="edge63" class="edge">
<title>Node1&#45;&gt;Node63</title>
<path fill="none" stroke="#63b8ff" d="M71.99,-720.14C72.27,-626.35 78.46,-131.37 178,-27.5 178.48,-27 178.97,-26.51 179.47,-26.03"/>
<polygon fill="#63b8ff" stroke="#63b8ff" points="181.28,-29.05 187.06,-20.17 177.01,-23.51 181.28,-29.05"/>
</g>
<!-- Node2&#45;&gt;Node2 -->
<g id="edge2" class="edge">
<title>Node2&#45;&gt;Node2</title>
<path fill="none" stroke="#63b8ff" d="M240.53,-1416.37C226.18,-1424.94 236.67,-1434 272,-1434 292.43,-1434 304.55,-1430.97 308.37,-1426.76"/>
<polygon fill="#63b8ff" stroke="#63b8ff" points="311.55,-1425.29 304.11,-1417.74 305.21,-1428.27 311.55,-1425.29"/>
</g>
<!-- Node3&#45;&gt;Node4 -->
<g id="edge4" class="edge">
<title>Node3&#45;&gt;Node4</title>
<path fill="none" stroke="#63b8ff" d="M295.53,-1302.39C321.03,-1313.36 363.98,-1331.13 402,-1343.5 407.75,-1345.37 413.73,-1347.19 419.77,-1348.94"/>
<polygon fill="#63b8ff" stroke="#63b8ff" points="418.63,-1352.26 429.21,-1351.6 420.53,-1345.52 418.63,-1352.26"/>
</g>
<!-- Node3&#45;&gt;Node5 -->
<g id="edge5" class="edge">
<title>Node3&#45;&gt;Node5</title>
<path fill="none" stroke="#63b8ff" d="M341.42,-1302.36C364.52,-1305.69 390.51,-1309.44 414.46,-1312.89"/>
<polygon fill="#63b8ff" stroke="#63b8ff" points="413.76,-1316.33 424.16,-1314.29 414.76,-1309.4 413.76,-1316.33"/>
</g>
<!-- Node3&#45;&gt;Node6 -->
<g id="edge6" class="edge">
<title>Node3&#45;&gt;Node6</title>
<path fill="none" stroke="#63b8ff" d="M341.42,-1290.96C359.33,-1290.56 378.99,-1290.11 398.08,-1289.68"/>
<polygon fill="#63b8ff" stroke="#63b8ff" points="398.13,-1293.18 408.05,-1289.46 397.97,-1286.18 398.13,-1293.18"/>
</g>
<!-- Node3&#45;&gt;Node7 -->
<g id="edge7" class="edge">
<title>Node3&#45;&gt;Node7</title>
<path fill="none" stroke="#63b8ff" d="M318.19,-1282.53C346.44,-1276.29 383.59,-1268.09 416.54,-1260.82"/>
<polygon fill="#63b8ff" stroke="#63b8ff" points="417.04,-1264.29 426.05,-1258.72 415.53,-1257.46 417.04,-1264.29"/>
</g>
<!-- Node10 -->
<g id="node10" class="node">
<title>Node10</title>
<g id="a_node10"><a xlink:href="namespaceutility.html#a239deb522abcf6865fc4409d6fff2914" target="_top" xlink:title=" ">
<polygon fill="white" stroke="#666666" points="539,-1209 453,-1209 453,-1190 539,-1190 539,-1209"/>
<text text-anchor="middle" x="496" y="-1197" font-family="Helvetica,sans-Serif" font-size="10.00">utility::replace</text>
</a>
</g>
</g>
<!-- Node9&#45;&gt;Node10 -->
<g id="edge10" class="edge">
<title>Node9&#45;&gt;Node10</title>
<path fill="none" stroke="#63b8ff" d="M334.88,-1150.91C345.34,-1153.86 356.03,-1157.1 366,-1160.5 382.41,-1166.1 385.57,-1169.99 402,-1175.5 414.84,-1179.81 428.9,-1183.8 442.11,-1187.24"/>
<polygon fill="#63b8ff" stroke="#63b8ff" points="440.94,-1190.56 451.5,-1189.63 442.67,-1183.77 440.94,-1190.56"/>
</g>
<!-- Node13 -->
<g id="node13" class="node">
<title>Node13</title>
<g id="a_node13"><a xlink:href="classNameHierarchy.html#a61507571abe641fc9b6694793f5c01bf" target="_top" xlink:title=" ">
<polygon fill="white" stroke="#666666" points="557,-838 435,-838 435,-819 557,-819 557,-838"/>
<text text-anchor="middle" x="496" y="-826" font-family="Helvetica,sans-Serif" font-size="10.00">NameHierarchy::back</text>
</a>
</g>
</g>
<!-- Node12&#45;&gt;Node13 -->
<g id="edge13" class="edge">
<title>Node12&#45;&gt;Node13</title>
<path fill="none" stroke="#63b8ff" d="M348.47,-845.66C372.78,-842.81 399.62,-839.67 423.63,-836.86"/>
<polygon fill="#63b8ff" stroke="#63b8ff" points="423.77,-840.37 433.29,-835.73 422.95,-833.41 423.77,-840.37"/>
</g>
<!-- Node14 -->
<g id="node14" class="node">
<title>Node14</title>
<g id="a_node14"><a xlink:href="classNameElement.html#a9ede148b2de95daf192c0cd4ad15daa8" target="_top" xlink:title=" ">
<polygon fill="white" stroke="#666666" points="564.5,-801 427.5,-801 427.5,-782 564.5,-782 564.5,-801"/>
<text text-anchor="middle" x="496" y="-789" font-family="Helvetica,sans-Serif" font-size="10.00">NameElement::getName</text>
</a>
</g>
</g>
<!-- Node12&#45;&gt;Node14 -->
<g id="edge14" class="edge">
<title>Node12&#45;&gt;Node14</title>
<path fill="none" stroke="#63b8ff" d="M321.06,-844.57C335.73,-840.89 351.75,-836.19 366,-830.5 383,-823.71 384.83,-816.85 402,-810.5 408.39,-808.14 415.14,-806.04 421.97,-804.19"/>
<polygon fill="#63b8ff" stroke="#63b8ff" points="422.42,-807.68 431.26,-801.84 420.71,-800.9 422.42,-807.68"/>
</g>
<!-- Node12&#45;&gt;Node15 -->
<g id="edge15" class="edge">
<title>Node12&#45;&gt;Node15</title>
<path fill="none" stroke="#63b8ff" d="M313.98,-864.47C343.84,-871.73 385.13,-881.77 420.73,-890.43"/>
<polygon fill="#63b8ff" stroke="#63b8ff" points="419.56,-893.75 430.11,-892.72 421.22,-886.95 419.56,-893.75"/>
</g>
<!-- Node12&#45;&gt;Node16 -->
<g id="edge16" class="edge">
<title>Node12&#45;&gt;Node16</title>
<path fill="none" stroke="#63b8ff" d="M346.21,-844.57C353.62,-841.08 360.45,-836.5 366,-830.5 428.79,-762.57 339.56,-693.75 402,-625.5 406.16,-620.95 411.05,-617.19 416.38,-614.1"/>
<polygon fill="#63b8ff" stroke="#63b8ff" points="417.57,-617.41 425.01,-609.87 414.49,-611.12 417.57,-617.41"/>
</g>
<!-- Node17 -->
<g id="node17" class="node">
<title>Node17</title>
<g id="a_node17"><a xlink:href="classNameElement.html#abfc0870ba3a5311e45a2bff6f57c1a43" target="_top" xlink:title=" ">
<polygon fill="white" stroke="#666666" points="573.5,-764 418.5,-764 418.5,-745 573.5,-745 573.5,-764"/>
<text text-anchor="middle" x="496" y="-752" font-family="Helvetica,sans-Serif" font-size="10.00">NameElement::getSignature</text>
</a>
</g>
</g>
<!-- Node12&#45;&gt;Node17 -->
<g id="edge17" class="edge">
<title>Node12&#45;&gt;Node17</title>
<path fill="none" stroke="#63b8ff" d="M337.89,-844.54C347.88,-841.14 357.65,-836.59 366,-830.5 390.21,-812.85 377.35,-790.53 402,-773.5 404.23,-771.96 406.56,-770.54 408.96,-769.23"/>
<polygon fill="#63b8ff" stroke="#63b8ff" points="410.27,-772.48 417.84,-765.08 407.3,-766.14 410.27,-772.48"/>
</g>
<!-- Node18 -->
<g id="node18" class="node">
<title>Node18</title>
<g id="a_node18"><a xlink:href="classNameElement.html#a4cfad678ac33d80fc5bfbfd0f7300f8b" target="_top" xlink:title=" ">
<polygon fill="#fff0f0" stroke="red" points="574,-727 418,-727 418,-708 574,-708 574,-727"/>
<text text-anchor="middle" x="496" y="-715" font-family="Helvetica,sans-Serif" font-size="10.00">NameElement::hasSignature</text>
</a>
</g>
</g>
<!-- Node12&#45;&gt;Node18 -->
<g id="edge18" class="edge">
<title>Node12&#45;&gt;Node18</title>
<path fill="none" stroke="#63b8ff" d="M342.31,-844.64C350.96,-841.2 359.16,-836.61 366,-830.5 399.37,-800.71 367.88,-765.43 402,-736.5 403.94,-734.85 405.98,-733.34 408.11,-731.94"/>
<polygon fill="#63b8ff" stroke="#63b8ff" points="409.52,-735.16 416.6,-727.29 406.15,-729.03 409.52,-735.16"/>
</g>
<!-- Node20 -->
<g id="node19" class="node">
<title>Node20</title>
<g id="a_node19"><a xlink:href="classNameHierarchy.html#acd30e121b7056fecafccd2fb8ed40310" target="_top" xlink:title=" ">
<polygon fill="white" stroke="#666666" points="554,-690 438,-690 438,-671 554,-671 554,-690"/>
<text text-anchor="middle" x="496" y="-678" font-family="Helvetica,sans-Serif" font-size="10.00">NameHierarchy::pop</text>
</a>
</g>
</g>
<!-- Node12&#45;&gt;Node20 -->
<g id="edge19" class="edge">
<title>Node12&#45;&gt;Node20</title>
<path fill="none" stroke="#63b8ff" d="M344.28,-844.66C352.32,-841.19 359.82,-836.58 366,-830.5 409.03,-788.14 357.91,-740.75 402,-699.5 409.01,-692.95 417.64,-688.39 426.79,-685.26"/>
<polygon fill="#63b8ff" stroke="#63b8ff" points="427.56,-688.68 436.25,-682.62 425.67,-681.94 427.56,-688.68"/>
</g>
<!-- Node21 -->
<g id="node20" class="node">
<title>Node21</title>
<g id="a_node20"><a xlink:href="classNameHierarchy.html#ab3e5cdccabb7ceed36c3cd11d1141eff" target="_top" xlink:title=" ">
<polygon fill="white" stroke="#666666" points="557,-653 435,-653 435,-634 557,-634 557,-653"/>
<text text-anchor="middle" x="496" y="-641" font-family="Helvetica,sans-Serif" font-size="10.00">NameHierarchy::push</text>
</a>
</g>
</g>
<!-- Node12&#45;&gt;Node21 -->
<g id="edge20" class="edge">
<title>Node12&#45;&gt;Node21</title>
<path fill="none" stroke="#63b8ff" d="M345.53,-844.58C353.16,-841.1 360.23,-836.52 366,-830.5 418.87,-775.4 347.75,-716.24 402,-662.5 408.19,-656.37 415.78,-651.96 423.94,-648.83"/>
<polygon fill="#63b8ff" stroke="#63b8ff" points="424.97,-652.17 433.48,-645.85 422.89,-645.49 424.97,-652.17"/>
</g>
<!-- Node22 -->
<g id="node21" class="node">
<title>Node22</title>
<g id="a_node21"><a xlink:href="classNameHierarchy.html#a760966798a0edd110618a6179d646810" target="_top" xlink:title=" ">
<polygon fill="white" stroke="#666666" points="555,-875 437,-875 437,-856 555,-856 555,-875"/>
<text text-anchor="middle" x="496" y="-863" font-family="Helvetica,sans-Serif" font-size="10.00">NameHierarchy::size</text>
</a>
</g>
</g>
<!-- Node12&#45;&gt;Node22 -->
<g id="edge21" class="edge">
<title>Node12&#45;&gt;Node22</title>
<path fill="none" stroke="#63b8ff" d="M348.47,-858.24C373.32,-859.47 400.82,-860.83 425.23,-862.04"/>
<polygon fill="#63b8ff" stroke="#63b8ff" points="424.9,-865.53 435.06,-862.53 425.24,-858.54 424.9,-865.53"/>
</g>
<!-- Node23&#45;&gt;Node24 -->
<g id="edge23" class="edge">
<title>Node23&#45;&gt;Node24</title>
<path fill="none" stroke="#63b8ff" d="M550.98,-964.44C564.41,-967.99 578.3,-973.11 590,-980.5 611.08,-993.81 608.54,-1005.71 626,-1023.5 633.78,-1031.43 642.91,-1039.58 650.98,-1046.43"/>
<polygon fill="#63b8ff" stroke="#63b8ff" points="648.73,-1049.12 658.65,-1052.83 653.21,-1043.74 648.73,-1049.12"/>
</g>
<!-- Node25 -->
<g id="node24" class="node">
<title>Node25</title>
<g id="a_node24"><a xlink:href="namespaceutility.html#aea0681f6afa2ac9505f8f5a988bd04f8" target="_top" xlink:title=" ">
<polygon fill="white" stroke="#666666" points="720,-1014 626,-1014 626,-995 720,-995 720,-1014"/>
<text text-anchor="middle" x="673" y="-1002" font-family="Helvetica,sans-Serif" font-size="10.00">utility::toStrings</text>
</a>
</g>
</g>
<!-- Node23&#45;&gt;Node25 -->
<g id="edge24" class="edge">
<title>Node23&#45;&gt;Node25</title>
<path fill="none" stroke="#63b8ff" d="M550.68,-970.04C563.58,-973.38 577.3,-977 590,-980.5 602.37,-983.91 615.75,-987.75 628.04,-991.35"/>
<polygon fill="#63b8ff" stroke="#63b8ff" points="626.92,-994.67 637.5,-994.14 628.9,-987.95 626.92,-994.67"/>
</g>
<!-- Node29 -->
<g id="node28" class="node">
<title>Node29</title>
<g id="a_node28"><a xlink:href="classTextAccess.html#a5155a7b9df2dcfd960d50f4961fb4936" target="_top" xlink:title=" ">
<polygon fill="#fff0f0" stroke="red" points="570.5,-567 421.5,-567 421.5,-548 570.5,-548 570.5,-567"/>
<text text-anchor="middle" x="496" y="-555" font-family="Helvetica,sans-Serif" font-size="10.00">TextAccess::createFromFile</text>
</a>
</g>
</g>
<!-- Node28&#45;&gt;Node29 -->
<g id="edge30" class="edge">
<title>Node28&#45;&gt;Node29</title>
<path fill="none" stroke="#63b8ff" d="M326.76,-682.37C340.8,-678.84 355.05,-673.02 366,-663.5 397.58,-636.05 369.73,-603.14 402,-576.5 404.86,-574.14 407.94,-572.05 411.17,-570.19"/>
<polygon fill="#63b8ff" stroke="#63b8ff" points="412.42,-573.48 419.9,-565.98 409.38,-567.17 412.42,-573.48"/>
</g>
<!-- Node34 -->
<g id="node29" class="node">
<title>Node34</title>
<g id="a_node29"><a xlink:href="classSqliteIndexStorage.html#ad82466fc517994be5ea8e77e711e752f" target="_top" xlink:title=" ">
<polygon fill="#fff0f0" stroke="red" points="560,-529.5 432,-529.5 432,-499.5 560,-499.5 560,-529.5"/>
<text text-anchor="start" x="440" y="-517.5" font-family="Helvetica,sans-Serif" font-size="10.00">SqliteIndexStorage</text>
<text text-anchor="middle" x="496" y="-506.5" font-family="Helvetica,sans-Serif" font-size="10.00">::getFileContentByPath</text>
</a>
</g>
</g>
<!-- Node28&#45;&gt;Node34 -->
<g id="edge31" class="edge">
<title>Node28&#45;&gt;Node34</title>
<path fill="none" stroke="#63b8ff" d="M326.98,-683.26C341.19,-679.75 355.47,-673.72 366,-663.5 407.18,-623.53 361.02,-579.67 402,-539.5 407.54,-534.07 414.12,-529.79 421.18,-526.42"/>
<polygon fill="#63b8ff" stroke="#63b8ff" points="422.46,-529.68 430.41,-522.67 419.83,-523.19 422.46,-529.68"/>
</g>
<!-- Node32 -->
<g id="node30" class="node">
<title>Node32</title>
<g id="a_node30"><a xlink:href="classFilePath.html#a989e098726c8387d4f4690bca3314ce8" target="_top" xlink:title=" ">
<polygon fill="white" stroke="#666666" points="537,-481 455,-481 455,-462 537,-462 537,-481"/>
<text text-anchor="middle" x="496" y="-469" font-family="Helvetica,sans-Serif" font-size="10.00">FilePath::wstr</text>
</a>
</g>
</g>
<!-- Node28&#45;&gt;Node32 -->
<g id="edge32" class="edge">
<title>Node28&#45;&gt;Node32</title>
<path fill="none" stroke="#63b8ff" d="M326.53,-684.01C341.07,-680.55 355.64,-674.36 366,-663.5 420.2,-606.67 346.37,-545.93 402,-490.5 412.88,-479.66 428.18,-474.19 443.22,-471.62"/>
<polygon fill="#63b8ff" stroke="#63b8ff" points="443.62,-475.1 453.1,-470.38 442.74,-468.16 443.62,-475.1"/>
</g>
<!-- Node41 -->
<g id="node33" class="node">
<title>Node41</title>
<g id="a_node33"><a xlink:href="classSourceLocationFile.html#aed5b283febcc4581db272d726b618e3b" target="_top" xlink:title=" ">
<polygon fill="white" stroke="#666666" points="549.5,-443.5 442.5,-443.5 442.5,-413.5 549.5,-413.5 549.5,-443.5"/>
<text text-anchor="start" x="450.5" y="-431.5" font-family="Helvetica,sans-Serif" font-size="10.00">SourceLocationFile</text>
<text text-anchor="middle" x="496" y="-420.5" font-family="Helvetica,sans-Serif" font-size="10.00">::getFilePath</text>
</a>
</g>
</g>
<!-- Node40&#45;&gt;Node41 -->
<g id="edge35" class="edge">
<title>Node40&#45;&gt;Node41</title>
<path fill="none" stroke="#63b8ff" d="M347.74,-589.1C354.42,-586.2 360.67,-582.42 366,-577.5 408.19,-538.6 361.02,-493.67 402,-453.5 410.15,-445.51 420.56,-440.01 431.45,-436.23"/>
<polygon fill="#63b8ff" stroke="#63b8ff" points="432.38,-439.6 440.99,-433.42 430.41,-432.89 432.38,-439.6"/>
</g>
<!-- Node44 -->
<g id="node36" class="node">
<title>Node44</title>
<g id="a_node36"><a xlink:href="classApplicationSettings.html#a577f5c7696669ffd72b37c28eb3eb04c" target="_top" xlink:title=" ">
<polygon fill="white" stroke="#666666" points="554.5,-395.5 437.5,-395.5 437.5,-365.5 554.5,-365.5 554.5,-395.5"/>
<text text-anchor="start" x="445.5" y="-383.5" font-family="Helvetica,sans-Serif" font-size="10.00">ApplicationSettings</text>
<text text-anchor="middle" x="496" y="-372.5" font-family="Helvetica,sans-Serif" font-size="10.00">::ApplicationSettings</text>
</a>
</g>
</g>
<!-- Node43&#45;&gt;Node44 -->
<g id="edge38" class="edge">
<title>Node43&#45;&gt;Node44</title>
<path fill="none" stroke="#63b8ff" d="M327.94,-499.67C341.51,-496.11 355.22,-490.45 366,-481.5 395.06,-457.37 372.94,-428.63 402,-404.5 409.11,-398.59 417.51,-394.12 426.3,-390.73"/>
<polygon fill="#63b8ff" stroke="#63b8ff" points="427.33,-394.08 435.72,-387.6 425.12,-387.44 427.33,-394.08"/>
</g>
<!-- Node46&#45;&gt;Node24 -->
<g id="edge42" class="edge">
<title>Node46&#45;&gt;Node24</title>
<path fill="none" stroke="#63b8ff" d="M542.52,-1019.85C570.08,-1029.14 604.92,-1040.88 631.52,-1049.85"/>
<polygon fill="#63b8ff" stroke="#63b8ff" points="630.34,-1053.15 640.93,-1053.03 632.57,-1046.51 630.34,-1053.15"/>
</g>
<!-- Node46&#45;&gt;Node25 -->
<g id="edge43" class="edge">
<title>Node46&#45;&gt;Node25</title>
<path fill="none" stroke="#63b8ff" d="M580.4,-1004.5C591.91,-1004.5 603.51,-1004.5 614.41,-1004.5"/>
<polygon fill="#63b8ff" stroke="#63b8ff" points="614.41,-1008 624.41,-1004.5 614.41,-1001 614.41,-1008"/>
</g>
<!-- Node49&#45;&gt;Node48 -->
<g id="edge49" class="edge">
<title>Node49&#45;&gt;Node48</title>
<path fill="none" stroke="#63b8ff" d="M351.27,-358.46C374.98,-354.5 400.87,-350.19 424.07,-346.32"/>
<polygon fill="#63b8ff" stroke="#63b8ff" points="424.44,-349.81 433.73,-344.71 423.29,-342.9 424.44,-349.81"/>
</g>
<!-- Node52&#45;&gt;Node11 -->
<g id="edge53" class="edge">
<title>Node52&#45;&gt;Node11</title>
<path fill="none" stroke="#63b8ff" d="M342.36,-1026.88C350.81,-1030.51 358.93,-1034.99 366,-1040.5 390.22,-1059.4 377.32,-1081.21 402,-1099.5 407.32,-1103.44 413.23,-1106.74 419.42,-1109.5"/>
<polygon fill="#63b8ff" stroke="#63b8ff" points="418.04,-1112.72 428.62,-1113.1 420.58,-1106.2 418.04,-1112.72"/>
</g>
<!-- Node52&#45;&gt;Node24 -->
<g id="edge55" class="edge">
<title>Node52&#45;&gt;Node24</title>
<path fill="none" stroke="#63b8ff" d="M324.65,-1026.98C348.06,-1033.41 376.21,-1040.33 402,-1044.5 480.66,-1057.22 573.56,-1061.43 627.34,-1062.82"/>
<polygon fill="#63b8ff" stroke="#63b8ff" points="626.93,-1066.31 637.01,-1063.04 627.1,-1059.31 626.93,-1066.31"/>
</g>
<!-- Node52&#45;&gt;Node25 -->
<g id="edge56" class="edge">
<title>Node52&#45;&gt;Node25</title>
<path fill="none" stroke="#63b8ff" d="M366.36,-1026.05C429.73,-1033.59 515.26,-1039.21 590,-1028.5 604.83,-1026.37 620.72,-1022.19 634.53,-1017.9"/>
<polygon fill="#63b8ff" stroke="#63b8ff" points="635.22,-1021.36 643.66,-1014.95 633.06,-1014.7 635.22,-1021.36"/>
</g>
<!-- Node52&#45;&gt;Node46 -->
<g id="edge54" class="edge">
<title>Node52&#45;&gt;Node46</title>
<path fill="none" stroke="#63b8ff" d="M366.18,-1008.56C377.49,-1008.21 389.04,-1007.84 400.36,-1007.48"/>
<polygon fill="#63b8ff" stroke="#63b8ff" points="400.19,-1010.99 410.08,-1007.18 399.97,-1003.99 400.19,-1010.99"/>
</g>
</g>
</svg>
