<?xml version="1.0" encoding="UTF-8" standalone="no"?>
<!DOCTYPE svg PUBLIC "-//W3C//DTD SVG 1.1//EN"
 "http://www.w3.org/Graphics/SVG/1.1/DTD/svg11.dtd">
<!-- Generated by graphviz version 7.1.0 (0)
 -->
<!-- Title: BaseInterprocessDataManager Pages: 1 -->
<svg width="375pt" height="134pt"
 viewBox="0.00 0.00 375.00 134.00" xmlns="http://www.w3.org/2000/svg" xmlns:xlink="http://www.w3.org/1999/xlink">
<g id="graph0" class="graph" transform="scale(1 1) rotate(0) translate(4 130)">
<title>BaseInterprocessDataManager</title>
<!-- Node1 -->
<g id="node1" class="node">
<title>Node1</title>
<g id="a_node1"><a xlink:title=" ">
<polygon fill="#999999" stroke="#666666" points="167,-72.5 0,-72.5 0,-53.5 167,-53.5 167,-72.5"/>
<text text-anchor="middle" x="83.5" y="-60.5" font-family="Helvetica,sans-Serif" font-size="10.00">BaseInterprocessDataManager</text>
</a>
</g>
</g>
<!-- Node2 -->
<g id="node2" class="node">
<title>Node2</title>
<g id="a_node2"><a xlink:href="classInterprocessIndexerCommandManager.html" target="_top" xlink:title=" ">
<polygon fill="white" stroke="#666666" points="367,-126 203,-126 203,-96 367,-96 367,-126"/>
<text text-anchor="start" x="211" y="-114" font-family="Helvetica,sans-Serif" font-size="10.00">InterprocessIndexerCommand</text>
<text text-anchor="middle" x="285" y="-103" font-family="Helvetica,sans-Serif" font-size="10.00">Manager</text>
</a>
</g>
</g>
<!-- Node1&#45;&gt;Node2 -->
<g id="edge1" class="edge">
<title>Node1&#45;&gt;Node2</title>
<path fill="none" stroke="#63b8ff" d="M136.76,-75.57C162.22,-81.7 193.06,-89.12 219.93,-95.58"/>
<polygon fill="#63b8ff" stroke="#63b8ff" points="137.85,-72.24 127.31,-73.3 136.21,-79.04 137.85,-72.24"/>
</g>
<!-- Node3 -->
<g id="node3" class="node">
<title>Node3</title>
<g id="a_node3"><a xlink:href="classInterprocessIndexingStatusManager.html" target="_top" xlink:title=" ">
<polygon fill="white" stroke="#666666" points="359.5,-78 210.5,-78 210.5,-48 359.5,-48 359.5,-78"/>
<text text-anchor="start" x="218.5" y="-66" font-family="Helvetica,sans-Serif" font-size="10.00">InterprocessIndexingStatus</text>
<text text-anchor="middle" x="285" y="-55" font-family="Helvetica,sans-Serif" font-size="10.00">Manager</text>
</a>
</g>
</g>
<!-- Node1&#45;&gt;Node3 -->
<g id="edge2" class="edge">
<title>Node1&#45;&gt;Node3</title>
<path fill="none" stroke="#63b8ff" d="M178.8,-63C189.37,-63 200.03,-63 210.3,-63"/>
<polygon fill="#63b8ff" stroke="#63b8ff" points="178.89,-59.5 168.89,-63 178.89,-66.5 178.89,-59.5"/>
</g>
<!-- Node4 -->
<g id="node4" class="node">
<title>Node4</title>
<g id="a_node4"><a xlink:href="classInterprocessIntermediateStorageManager.html" target="_top" xlink:title=" ">
<polygon fill="white" stroke="#666666" points="355,-30 215,-30 215,0 355,0 355,-30"/>
<text text-anchor="start" x="223" y="-18" font-family="Helvetica,sans-Serif" font-size="10.00">InterprocessIntermediate</text>
<text text-anchor="middle" x="285" y="-7" font-family="Helvetica,sans-Serif" font-size="10.00">StorageManager</text>
</a>
</g>
</g>
<!-- Node1&#45;&gt;Node4 -->
<g id="edge3" class="edge">
<title>Node1&#45;&gt;Node4</title>
<path fill="none" stroke="#63b8ff" d="M136.76,-50.43C162.22,-44.3 193.06,-36.88 219.93,-30.42"/>
<polygon fill="#63b8ff" stroke="#63b8ff" points="136.21,-46.96 127.31,-52.7 137.85,-53.76 136.21,-46.96"/>
</g>
</g>
</svg>
