<?xml version="1.0" encoding="UTF-8" standalone="no"?>
<!DOCTYPE svg PUBLIC "-//W3C//DTD SVG 1.1//EN"
 "http://www.w3.org/Graphics/SVG/1.1/DTD/svg11.dtd">
<!-- Generated by graphviz version 9.0.0 (0)
 -->
<!-- Title: GraphController::bundleNodesByType Pages: 1 -->
<!--zoomable 243 -->

<svg id="main" version="1.1" xmlns="http://www.w3.org/2000/svg" xmlns:xlink="http://www.w3.org/1999/xlink" xml:space="preserve" onload="init(evt)">
<style type="text/css"><![CDATA[
.node, .edge {opacity: 0.7;}
.node.selected, .edge.selected {opacity: 1;}
.edge:hover path { stroke: red; }
.edge:hover polygon { stroke: red; fill: red; }
]]></style>

<defs>
  <circle id="rim" cx="0" cy="0" r="7"/>
  <circle id="rim2" cx="0" cy="0" r="3.5"/>
  <g id="zoomPlus">
    <use xlink:href="#rim" fill="#404040"><set attributeName="fill" to="#808080" begin="zoomplus.mouseover" end="zoomplus.mouseout"/></use>
    <path d="M-4,0h8M0,-4v8" fill="none" stroke="white" stroke-width="1.5" pointer-events="none"/>
  </g>
  <g id="zoomMin">
    <use xlink:href="#rim" fill="#404040"><set attributeName="fill" to="#808080" begin="zoomminus.mouseover" end="zoomminus.mouseout"/></use>
    <path d="M-4,0h8" fill="none" stroke="white" stroke-width="1.5" pointer-events="none"/>
  </g>
  <g id="arrowUp" transform="translate(30 24)">
    <use xlink:href="#rim"/>
    <path pointer-events="none" fill="none" stroke="white" stroke-width="1.5" d="M0,-3.0v7 M-2.5,-0.5L0,-3.0L2.5,-0.5"/>
  </g>
  <g id="arrowRight" transform="rotate(90) translate(36 -43)">
    <use xlink:href="#rim"/>
    <path pointer-events="none" fill="none" stroke="white" stroke-width="1.5" d="M0,-3.0v7 M-2.5,-0.5L0,-3.0L2.5,-0.5"/>
  </g>
  <g id="arrowDown" transform="rotate(180) translate(-30 -48)">
    <use xlink:href="#rim"/>
    <path pointer-events="none" fill="none" stroke="white" stroke-width="1.5" d="M0,-3.0v7 M-2.5,-0.5L0,-3.0L2.5,-0.5"/>
  </g>
  <g id="arrowLeft" transform="rotate(270) translate(-36 17)">
    <use xlink:href="#rim"/>
    <path pointer-events="none" fill="none" stroke="white" stroke-width="1.5" d="M0,-3.0v7 M-2.5,-0.5L0,-3.0L2.5,-0.5"/>
  </g>
  <g id="resetDef">
    <use xlink:href="#rim2" fill="#404040"><set attributeName="fill" to="#808080" begin="reset.mouseover" end="reset.mouseout"/></use>
  </g>
</defs>
<script type="application/ecmascript">
var viewWidth = 1048;
var viewHeight = 243;
var sectionId = 'dynsection-16';
</script>
<script type="application/ecmascript" xlink:href="svg.min.js"/>
<svg id="graph" class="graph">
<g id="viewport">
<title>GraphController::bundleNodesByType</title>
<!-- Node1 -->
<g id="Node000001" class="node">
<title>Node1</title>
<g id="a_Node000001"><a xlink:title=" ">
<polygon fill="#999999" stroke="#666666" points="163,-73.64 0,-73.64 0,-40.14 163,-40.14 163,-73.64"/>
<text text-anchor="start" x="8" y="-60.14" font-family="Helvetica,sans-Serif" font-size="10.00">GraphController::bundleNodes</text>
<text text-anchor="middle" x="81.5" y="-47.39" font-family="Helvetica,sans-Serif" font-size="10.00">ByType</text>
</a>
</g>
</g>
<!-- Node2 -->
<g id="Node000002" class="node">
<title>Node2</title>
<g id="a_Node000002"><a xlink:href="classGraphController.html#aaf06b283adf3784249768cdab2baecd2" target="_top" xlink:title=" ">
<polygon fill="white" stroke="#666666" points="366.5,-125.26 199,-125.26 199,-104.51 366.5,-104.51 366.5,-125.26"/>
<text text-anchor="middle" x="282.75" y="-111.76" font-family="Helvetica,sans-Serif" font-size="10.00">GraphController::bundleByType</text>
</a>
</g>
</g>
<!-- Node1&#45;&gt;Node2 -->
<g id="edge1_Node000001_Node000002" class="edge">
<title>Node1&#45;&gt;Node2</title>
<g id="a_edge1_Node000001_Node000002"><a xlink:title=" ">
<path fill="none" stroke="#63b8ff" d="M141.74,-74.13C171.08,-82.67 206.05,-92.85 233.69,-100.9"/>
<polygon fill="#63b8ff" stroke="#63b8ff" points="232.64,-104.24 243.22,-103.67 234.59,-97.52 232.64,-104.24"/>
</a>
</g>
</g>
<!-- Node5 -->
<g id="Node000005" class="node">
<title>Node5</title>
<g id="a_Node000005"><a xlink:href="classGraphController.html#ad37e3ae36fb143ed80aa552dea4d5bcf" target="_top" xlink:title=" ">
<polygon fill="white" stroke="#666666" points="740.5,-183.26 601.5,-183.26 601.5,-162.51 740.5,-162.51 740.5,-183.26"/>
<text text-anchor="middle" x="671" y="-169.76" font-family="Helvetica,sans-Serif" font-size="10.00">GraphController::getView</text>
</a>
</g>
</g>
<!-- Node1&#45;&gt;Node5 -->
<g id="edge12_Node000001_Node000005" class="edge">
<title>Node1&#45;&gt;Node5</title>
<g id="a_edge12_Node000001_Node000005"><a xlink:title=" ">
<path fill="none" stroke="#63b8ff" d="M134.08,-39.64C226.15,-12.03 422.54,32.24 565.5,-37.89 614.08,-61.72 646.52,-120.22 661.13,-151.82"/>
<polygon fill="#63b8ff" stroke="#63b8ff" points="657.84,-153.03 665.09,-160.75 664.24,-150.19 657.84,-153.03"/>
</a>
</g>
</g>
<!-- Node2&#45;&gt;Node2 -->
<g id="edge2_Node000002_Node000002" class="edge">
<title>Node2&#45;&gt;Node2</title>
<g id="a_edge2_Node000002_Node000002"><a xlink:title=" ">
<path fill="none" stroke="#63b8ff" d="M250.32,-125.66C237.35,-134.32 248.16,-143.26 282.75,-143.26 301.67,-143.26 313.47,-140.59 318.16,-136.75"/>
<polygon fill="#63b8ff" stroke="#63b8ff" points="321.55,-135.87 315.57,-127.12 314.79,-137.69 321.55,-135.87"/>
</a>
</g>
</g>
<!-- Node3 -->
<g id="Node000003" class="node">
<title>Node3</title>
<g id="a_Node000003"><a xlink:href="classGraphController.html#a5365752d1ff821713d29b5c5704f9e0d" target="_top" xlink:title=" ">
<polygon fill="white" stroke="#666666" points="565.5,-234.64 402.5,-234.64 402.5,-201.14 565.5,-201.14 565.5,-234.64"/>
<text text-anchor="start" x="410.5" y="-221.14" font-family="Helvetica,sans-Serif" font-size="10.00">GraphController::bundleNodes</text>
<text text-anchor="middle" x="484" y="-208.39" font-family="Helvetica,sans-Serif" font-size="10.00">Matching</text>
</a>
</g>
</g>
<!-- Node2&#45;&gt;Node3 -->
<g id="edge3_Node000002_Node000003" class="edge">
<title>Node2&#45;&gt;Node3</title>
<g id="a_edge3_Node000002_Node000003"><a xlink:title=" ">
<path fill="none" stroke="#63b8ff" d="M299.38,-125.6C321.61,-140.55 363.98,-167.98 402.5,-186.89 409.27,-190.21 416.5,-193.43 423.74,-196.45"/>
<polygon fill="#63b8ff" stroke="#63b8ff" points="422.32,-199.65 432.9,-200.16 424.94,-193.17 422.32,-199.65"/>
</a>
</g>
</g>
<!-- Node2&#45;&gt;Node5 -->
<g id="edge10_Node000002_Node000005" class="edge">
<title>Node2&#45;&gt;Node5</title>
<g id="a_edge10_Node000002_Node000005"><a xlink:title=" ">
<path fill="none" stroke="#63b8ff" d="M310.13,-125.64C333.87,-134.8 369.92,-147.48 402.5,-153.89 464.64,-166.1 536.26,-170.7 589.75,-172.33"/>
<polygon fill="#63b8ff" stroke="#63b8ff" points="589.62,-175.83 599.71,-172.6 589.81,-168.83 589.62,-175.83"/>
</a>
</g>
</g>
<!-- Node8 -->
<g id="Node000008" class="node">
<title>Node8</title>
<g id="a_Node000008"><a xlink:href="classGraphView.html#ab535607bb18c2dca2439efd068c74583" target="_top" xlink:title=" ">
<polygon fill="white" stroke="#666666" points="533.62,-145.26 434.38,-145.26 434.38,-124.51 533.62,-124.51 533.62,-145.26"/>
<text text-anchor="middle" x="484" y="-131.76" font-family="Helvetica,sans-Serif" font-size="10.00">GraphView::clear</text>
</a>
</g>
</g>
<!-- Node2&#45;&gt;Node8 -->
<g id="edge8_Node000002_Node000008" class="edge">
<title>Node2&#45;&gt;Node8</title>
<g id="a_edge8_Node000002_Node000008"><a xlink:title=" ">
<path fill="none" stroke="#63b8ff" d="M366.81,-123.22C385.55,-125.11 405.1,-127.07 422.7,-128.83"/>
<polygon fill="#63b8ff" stroke="#63b8ff" points="422.15,-132.3 432.45,-129.81 422.85,-125.33 422.15,-132.3"/>
</a>
</g>
</g>
<!-- Node9 -->
<g id="Node000009" class="node">
<title>Node9</title>
<g id="a_Node000009"><a xlink:href="classNode.html#a8fad79f65f64fc6c150574e023eb043f" target="_top" xlink:title=" ">
<polygon fill="white" stroke="#666666" points="526.88,-106.26 441.12,-106.26 441.12,-85.51 526.88,-85.51 526.88,-106.26"/>
<text text-anchor="middle" x="484" y="-92.76" font-family="Helvetica,sans-Serif" font-size="10.00">Node::getType</text>
</a>
</g>
</g>
<!-- Node2&#45;&gt;Node9 -->
<g id="edge9_Node000002_Node000009" class="edge">
<title>Node2&#45;&gt;Node9</title>
<g id="a_edge9_Node000002_Node000009"><a xlink:title=" ">
<path fill="none" stroke="#63b8ff" d="M366.81,-106.97C388.04,-104.94 410.31,-102.82 429.6,-100.98"/>
<polygon fill="#63b8ff" stroke="#63b8ff" points="429.76,-104.48 439.39,-100.05 429.1,-97.51 429.76,-104.48"/>
</a>
</g>
</g>
<!-- Node10 -->
<g id="Node000010" class="node">
<title>Node10</title>
<g id="a_Node000010"><a xlink:href="structDummyNode.html#aa3924d8b494b3cc9534db013d76746c0" target="_top" xlink:title=" ">
<polygon fill="white" stroke="#666666" points="558.75,-67.26 409.25,-67.26 409.25,-46.51 558.75,-46.51 558.75,-67.26"/>
<text text-anchor="middle" x="484" y="-53.76" font-family="Helvetica,sans-Serif" font-size="10.00">DummyNode::isGraphNode</text>
</a>
</g>
</g>
<!-- Node2&#45;&gt;Node10 -->
<g id="edge11_Node000002_Node000010" class="edge">
<title>Node2&#45;&gt;Node10</title>
<g id="a_edge11_Node000002_Node000010"><a xlink:title=" ">
<path fill="none" stroke="#63b8ff" d="M315.58,-104.07C339.39,-96.13 372.83,-85.31 402.5,-76.89 410.13,-74.72 418.2,-72.56 426.17,-70.51"/>
<polygon fill="#63b8ff" stroke="#63b8ff" points="427.01,-73.91 435.84,-68.05 425.29,-67.12 427.01,-73.91"/>
</a>
</g>
</g>
<!-- Node4 -->
<g id="Node000004" class="node">
<title>Node4</title>
<g id="a_Node000004"><a xlink:href="classToken.html#a7327713d89dab24b733a7ff9096deea0" target="_top" xlink:title=" ">
<polygon fill="white" stroke="#666666" points="708.25,-228.26 633.75,-228.26 633.75,-207.51 708.25,-207.51 708.25,-228.26"/>
<text text-anchor="middle" x="671" y="-214.76" font-family="Helvetica,sans-Serif" font-size="10.00">Token::getId</text>
</a>
</g>
</g>
<!-- Node3&#45;&gt;Node4 -->
<g id="edge4_Node000003_Node000004" class="edge">
<title>Node3&#45;&gt;Node4</title>
<g id="a_edge4_Node000003_Node000004"><a xlink:title=" ">
<path fill="none" stroke="#63b8ff" d="M565.87,-217.89C584.99,-217.89 604.78,-217.89 621.91,-217.89"/>
<polygon fill="#63b8ff" stroke="#63b8ff" points="621.79,-221.39 631.79,-217.89 621.79,-214.39 621.79,-221.39"/>
</a>
</g>
</g>
<!-- Node3&#45;&gt;Node5 -->
<g id="edge5_Node000003_Node000005" class="edge">
<title>Node3&#45;&gt;Node5</title>
<g id="a_edge5_Node000003_Node000005"><a xlink:title=" ">
<path fill="none" stroke="#63b8ff" d="M555.73,-200.68C575.16,-195.96 595.95,-190.9 614.39,-186.41"/>
<polygon fill="#63b8ff" stroke="#63b8ff" points="615.18,-189.82 624.07,-184.06 613.53,-183.02 615.18,-189.82"/>
</a>
</g>
</g>
<!-- Node6 -->
<g id="Node000006" class="node">
<title>Node6</title>
<g id="a_Node000006"><a xlink:href="classController.html#a431a774ef12696f8bb22903cada1485c" target="_top" xlink:title=" ">
<polygon fill="white" stroke="#666666" points="886.25,-183.26 776.5,-183.26 776.5,-162.51 886.25,-162.51 886.25,-183.26"/>
<text text-anchor="middle" x="831.38" y="-169.76" font-family="Helvetica,sans-Serif" font-size="10.00">Controller::getView</text>
</a>
</g>
</g>
<!-- Node5&#45;&gt;Node6 -->
<g id="edge6_Node000005_Node000006" class="edge">
<title>Node5&#45;&gt;Node6</title>
<g id="a_edge6_Node000005_Node000006"><a xlink:title=" ">
<path fill="none" stroke="#63b8ff" d="M740.54,-172.89C748.52,-172.89 756.64,-172.89 764.58,-172.89"/>
<polygon fill="#63b8ff" stroke="#63b8ff" points="764.53,-176.39 774.53,-172.89 764.53,-169.39 764.53,-176.39"/>
</a>
</g>
</g>
<!-- Node7 -->
<g id="Node000007" class="node">
<title>Node7</title>
<g id="a_Node000007"><a xlink:href="classComponent.html#a9f4dbd8f986abae9d6014b4a34d2b014" target="_top" xlink:title=" ">
<polygon fill="white" stroke="#666666" points="1040.25,-183.26 922.25,-183.26 922.25,-162.51 1040.25,-162.51 1040.25,-183.26"/>
<text text-anchor="middle" x="981.25" y="-169.76" font-family="Helvetica,sans-Serif" font-size="10.00">Component::getView</text>
</a>
</g>
</g>
<!-- Node6&#45;&gt;Node7 -->
<g id="edge7_Node000006_Node000007" class="edge">
<title>Node6&#45;&gt;Node7</title>
<g id="a_edge7_Node000006_Node000007"><a xlink:title=" ">
<path fill="none" stroke="#63b8ff" d="M886.6,-172.89C894.39,-172.89 902.49,-172.89 910.52,-172.89"/>
<polygon fill="#63b8ff" stroke="#63b8ff" points="910.29,-176.39 920.29,-172.89 910.29,-169.39 910.29,-176.39"/>
</a>
</g>
</g>
</g>
</svg>

<g id="navigator" transform="translate(0 0)" fill="#404254">
  <rect fill="#f2f5e9" fill-opacity="0.5" stroke="#606060" stroke-width=".5" x="0" y="0" width="60" height="60"/>
  <use id="zoomplus" xlink:href="#zoomPlus" x="17" y="9" onmousedown="handleZoom(evt,'in')"/>
  <use id="zoomminus" xlink:href="#zoomMin" x="42" y="9" onmousedown="handleZoom(evt,'out')"/>
  <use id="reset" xlink:href="#resetDef" x="30" y="36" onmousedown="handleReset()"/>
   <use id="arrowup" xlink:href="#arrowUp" x="0" y="0" onmousedown="handlePan(0,-1)"/>
  <use id="arrowright" xlink:href="#arrowRight" x="0" y="0" onmousedown="handlePan(1,0)"/>
  <use id="arrowdown" xlink:href="#arrowDown" x="0" y="0" onmousedown="handlePan(0,1)"/>
  <use id="arrowleft" xlink:href="#arrowLeft" x="0" y="0" onmousedown="handlePan(-1,0)"/>
</g>
<svg viewBox="0 0 15 15" width="100%" height="30px" preserveAspectRatio="xMaxYMin meet">
 <g id="arrow_out" transform="scale(0.3 0.3)">
  <a xlink:href="classGraphController_a9407cc2a97c3c5d3e10386982d7c1232_cgraph_org.svg" target="_base">
   <rect id="button" ry="5" rx="5" y="6" x="6" height="38" width="38"
        fill="#f2f5e9" fill-opacity="0.5" stroke="#606060" stroke-width="1.0"/>
   <path id="arrow"
     d="M 11.500037,31.436501 C 11.940474,20.09759 22.043105,11.32322 32.158766,21.979434 L 37.068811,17.246167 C 37.068811,17.246167 37.088388,32 37.088388,32 L 22.160133,31.978069 C 22.160133,31.978069 26.997745,27.140456 26.997745,27.140456 C 18.528582,18.264221 13.291696,25.230495 11.500037,31.436501 z"
     style="fill:#404040;"/>
  </a>
 </g>
</svg>

<style type='text/css'>
<![CDATA[
[data-mouse-over-selected='false'] { opacity: 0.7; }
[data-mouse-over-selected='true']  { opacity: 1.0; }
]]>
</style>
<script type="application/ecmascript"><![CDATA[
document.addEventListener('DOMContentLoaded', (event) => {
  highlightEdges();
  highlightAdjacentNodes();
});
]]></script>
</svg>
