<?xml version="1.0" encoding="UTF-8" standalone="no"?>
<!DOCTYPE svg PUBLIC "-//W3C//DTD SVG 1.1//EN"
 "http://www.w3.org/Graphics/SVG/1.1/DTD/svg11.dtd">
<!-- Generated by graphviz version 9.0.0 (0)
 -->
<!-- Title: QtProjectWizardContentPathCxxPch::populate Pages: 1 -->
<!--zoomable 288 -->

<svg id="main" version="1.1" xmlns="http://www.w3.org/2000/svg" xmlns:xlink="http://www.w3.org/1999/xlink" xml:space="preserve" onload="init(evt)">
<style type="text/css"><![CDATA[
.node, .edge {opacity: 0.7;}
.node.selected, .edge.selected {opacity: 1;}
.edge:hover path { stroke: red; }
.edge:hover polygon { stroke: red; fill: red; }
]]></style>

<defs>
  <circle id="rim" cx="0" cy="0" r="7"/>
  <circle id="rim2" cx="0" cy="0" r="3.5"/>
  <g id="zoomPlus">
    <use xlink:href="#rim" fill="#404040"><set attributeName="fill" to="#808080" begin="zoomplus.mouseover" end="zoomplus.mouseout"/></use>
    <path d="M-4,0h8M0,-4v8" fill="none" stroke="white" stroke-width="1.5" pointer-events="none"/>
  </g>
  <g id="zoomMin">
    <use xlink:href="#rim" fill="#404040"><set attributeName="fill" to="#808080" begin="zoomminus.mouseover" end="zoomminus.mouseout"/></use>
    <path d="M-4,0h8" fill="none" stroke="white" stroke-width="1.5" pointer-events="none"/>
  </g>
  <g id="arrowUp" transform="translate(30 24)">
    <use xlink:href="#rim"/>
    <path pointer-events="none" fill="none" stroke="white" stroke-width="1.5" d="M0,-3.0v7 M-2.5,-0.5L0,-3.0L2.5,-0.5"/>
  </g>
  <g id="arrowRight" transform="rotate(90) translate(36 -43)">
    <use xlink:href="#rim"/>
    <path pointer-events="none" fill="none" stroke="white" stroke-width="1.5" d="M0,-3.0v7 M-2.5,-0.5L0,-3.0L2.5,-0.5"/>
  </g>
  <g id="arrowDown" transform="rotate(180) translate(-30 -48)">
    <use xlink:href="#rim"/>
    <path pointer-events="none" fill="none" stroke="white" stroke-width="1.5" d="M0,-3.0v7 M-2.5,-0.5L0,-3.0L2.5,-0.5"/>
  </g>
  <g id="arrowLeft" transform="rotate(270) translate(-36 17)">
    <use xlink:href="#rim"/>
    <path pointer-events="none" fill="none" stroke="white" stroke-width="1.5" d="M0,-3.0v7 M-2.5,-0.5L0,-3.0L2.5,-0.5"/>
  </g>
  <g id="resetDef">
    <use xlink:href="#rim2" fill="#404040"><set attributeName="fill" to="#808080" begin="reset.mouseover" end="reset.mouseout"/></use>
  </g>
</defs>
<script type="application/ecmascript">
var viewWidth = 791;
var viewHeight = 288;
var sectionId = 'dynsection-21';
</script>
<script type="application/ecmascript" xlink:href="svg.min.js"/>
<svg id="graph" class="graph">
<g id="viewport">
<title>QtProjectWizardContentPathCxxPch::populate</title>
<!-- Node1 -->
<g id="Node000001" class="node">
<title>Node1</title>
<g id="a_Node000001"><a xlink:title=" ">
<polygon fill="#999999" stroke="#666666" points="154.75,-81.5 0,-81.5 0,-48 154.75,-48 154.75,-81.5"/>
<text text-anchor="start" x="8" y="-68" font-family="Helvetica,sans-Serif" font-size="10.00">QtProjectWizardContentPath</text>
<text text-anchor="middle" x="77.38" y="-55.25" font-family="Helvetica,sans-Serif" font-size="10.00">CxxPch::populate</text>
</a>
</g>
</g>
<!-- Node2 -->
<g id="Node000002" class="node">
<title>Node2</title>
<g id="a_Node000002"><a xlink:href="classQtProjectWizardContentPath.html#a051ffcf9144c107f84d11cee9fe62b50" target="_top" xlink:title=" ">
<polygon fill="white" stroke="#666666" points="345.5,-130.5 190.75,-130.5 190.75,-97 345.5,-97 345.5,-130.5"/>
<text text-anchor="start" x="198.75" y="-117" font-family="Helvetica,sans-Serif" font-size="10.00">QtProjectWizardContentPath</text>
<text text-anchor="middle" x="268.12" y="-104.25" font-family="Helvetica,sans-Serif" font-size="10.00">::populate</text>
</a>
</g>
</g>
<!-- Node1&#45;&gt;Node2 -->
<g id="edge1_Node000001_Node000002" class="edge">
<title>Node1&#45;&gt;Node2</title>
<g id="a_edge1_Node000001_Node000002"><a xlink:title=" ">
<path fill="none" stroke="#63b8ff" d="M144.66,-81.96C159.27,-85.75 174.88,-89.8 189.89,-93.7"/>
<polygon fill="#63b8ff" stroke="#63b8ff" points="188.66,-97 199.22,-96.12 190.42,-90.22 188.66,-97"/>
</a>
</g>
</g>
<!-- Node8 -->
<g id="Node000008" class="node">
<title>Node8</title>
<g id="a_Node000008"><a xlink:href="classQtLocationPicker.html#abb4bf056b488c82923d3e8462c58e1c8" target="_top" xlink:title=" ">
<polygon fill="white" stroke="#666666" points="549,-33.5 410,-33.5 410,0 549,0 549,-33.5"/>
<text text-anchor="start" x="418" y="-20" font-family="Helvetica,sans-Serif" font-size="10.00">QtLocationPicker::setPick</text>
<text text-anchor="middle" x="479.5" y="-7.25" font-family="Helvetica,sans-Serif" font-size="10.00">Directory</text>
</a>
</g>
</g>
<!-- Node1&#45;&gt;Node8 -->
<g id="edge11_Node000001_Node000008" class="edge">
<title>Node1&#45;&gt;Node8</title>
<g id="a_edge11_Node000001_Node000008"><a xlink:title=" ">
<path fill="none" stroke="#63b8ff" d="M155.05,-55.55C224.95,-47.17 327.81,-34.83 398.67,-26.33"/>
<polygon fill="#63b8ff" stroke="#63b8ff" points="398.75,-29.84 408.26,-25.18 397.91,-22.89 398.75,-29.84"/>
</a>
</g>
</g>
<!-- Node3 -->
<g id="Node000003" class="node">
<title>Node3</title>
<g id="a_Node000003"><a xlink:href="classQtProjectWizardContent.html#a3c1c6483d8552f9e5988c1b3dcc4ff3e" target="_top" xlink:title=" ">
<polygon fill="white" stroke="#666666" points="546,-279.5 413,-279.5 413,-246 546,-246 546,-279.5"/>
<text text-anchor="start" x="421" y="-266" font-family="Helvetica,sans-Serif" font-size="10.00">QtProjectWizardContent</text>
<text text-anchor="middle" x="479.5" y="-253.25" font-family="Helvetica,sans-Serif" font-size="10.00">::addHelpButton</text>
</a>
</g>
</g>
<!-- Node2&#45;&gt;Node3 -->
<g id="edge2_Node000002_Node000003" class="edge">
<title>Node2&#45;&gt;Node3</title>
<g id="a_edge2_Node000002_Node000003"><a xlink:title=" ">
<path fill="none" stroke="#63b8ff" d="M280,-130.91C297.87,-157.66 336.02,-209.1 381.5,-236.75 387.91,-240.64 394.9,-243.96 402.1,-246.79"/>
<polygon fill="#63b8ff" stroke="#63b8ff" points="400.73,-250.02 411.32,-250.08 403.08,-243.43 400.73,-250.02"/>
</a>
</g>
</g>
<!-- Node5 -->
<g id="Node000005" class="node">
<title>Node5</title>
<g id="a_Node000005"><a xlink:href="classQtProjectWizardContent.html#ab1548e716e9d5eb86619c9144244232a" target="_top" xlink:title=" ">
<polygon fill="white" stroke="#666666" points="546,-227.5 413,-227.5 413,-194 546,-194 546,-227.5"/>
<text text-anchor="start" x="421" y="-214" font-family="Helvetica,sans-Serif" font-size="10.00">QtProjectWizardContent</text>
<text text-anchor="middle" x="479.5" y="-201.25" font-family="Helvetica,sans-Serif" font-size="10.00">::createFormLabel</text>
</a>
</g>
</g>
<!-- Node2&#45;&gt;Node5 -->
<g id="edge4_Node000002_Node000005" class="edge">
<title>Node2&#45;&gt;Node5</title>
<g id="a_edge4_Node000002_Node000005"><a xlink:title=" ">
<path fill="none" stroke="#63b8ff" d="M291.65,-130.87C313.56,-146.81 348.31,-170.22 381.5,-184.75 387.95,-187.57 394.77,-190.15 401.69,-192.49"/>
<polygon fill="#63b8ff" stroke="#63b8ff" points="400.58,-195.81 411.17,-195.52 402.71,-189.14 400.58,-195.81"/>
</a>
</g>
</g>
<!-- Node7 -->
<g id="Node000007" class="node">
<title>Node7</title>
<g id="a_Node000007"><a xlink:href="classQtProjectWizardContentPath.html#a37e81f3fb6b142030ad394b75df6f7f2" target="_top" xlink:title=" ">
<polygon fill="white" stroke="#666666" points="556.88,-175.5 402.12,-175.5 402.12,-142 556.88,-142 556.88,-175.5"/>
<text text-anchor="start" x="410.12" y="-162" font-family="Helvetica,sans-Serif" font-size="10.00">QtProjectWizardContentPath</text>
<text text-anchor="middle" x="479.5" y="-149.25" font-family="Helvetica,sans-Serif" font-size="10.00">::getSourceGroupSettings</text>
</a>
</g>
</g>
<!-- Node2&#45;&gt;Node7 -->
<g id="edge6_Node000002_Node000007" class="edge">
<title>Node2&#45;&gt;Node7</title>
<g id="a_edge6_Node000002_Node000007"><a xlink:title=" ">
<path fill="none" stroke="#63b8ff" d="M345.9,-130.25C360.41,-133.37 375.69,-136.65 390.51,-139.84"/>
<polygon fill="#63b8ff" stroke="#63b8ff" points="389.74,-143.25 400.25,-141.93 391.21,-136.41 389.74,-143.25"/>
</a>
</g>
</g>
<!-- Node2&#45;&gt;Node8 -->
<g id="edge7_Node000002_Node000008" class="edge">
<title>Node2&#45;&gt;Node8</title>
<g id="a_edge7_Node000002_Node000008"><a xlink:title=" ">
<path fill="none" stroke="#63b8ff" d="M291.65,-96.63C313.56,-80.69 348.31,-57.28 381.5,-42.75 387.04,-40.32 392.86,-38.08 398.78,-36.01"/>
<polygon fill="#63b8ff" stroke="#63b8ff" points="399.67,-39.4 408.07,-32.95 397.48,-32.75 399.67,-39.4"/>
</a>
</g>
</g>
<!-- Node10 -->
<g id="Node000010" class="node">
<title>Node10</title>
<g id="a_Node000010"><a xlink:href="classQtLocationPicker.html#a3199cfc9fd76d8b6465d481103bba9ea" target="_top" xlink:title=" ">
<polygon fill="white" stroke="#666666" points="577.5,-124.12 381.5,-124.12 381.5,-103.38 577.5,-103.38 577.5,-124.12"/>
<text text-anchor="middle" x="479.5" y="-110.62" font-family="Helvetica,sans-Serif" font-size="10.00">QtLocationPicker::setPlaceholderText</text>
</a>
</g>
</g>
<!-- Node2&#45;&gt;Node10 -->
<g id="edge9_Node000002_Node000010" class="edge">
<title>Node2&#45;&gt;Node10</title>
<g id="a_edge9_Node000002_Node000010"><a xlink:title=" ">
<path fill="none" stroke="#63b8ff" d="M345.9,-113.75C353.67,-113.75 361.67,-113.75 369.7,-113.75"/>
<polygon fill="#63b8ff" stroke="#63b8ff" points="369.53,-117.25 379.53,-113.75 369.53,-110.25 369.53,-117.25"/>
</a>
</g>
</g>
<!-- Node11 -->
<g id="Node000011" class="node">
<title>Node11</title>
<g id="a_Node000011"><a xlink:href="classQtLocationPicker.html#af0e9c66ae345b4eefb6364c65e883364" target="_top" xlink:title=" ">
<polygon fill="white" stroke="#666666" points="559.12,-85.5 399.88,-85.5 399.88,-52 559.12,-52 559.12,-85.5"/>
<text text-anchor="start" x="407.88" y="-72" font-family="Helvetica,sans-Serif" font-size="10.00">QtLocationPicker::setRelative</text>
<text text-anchor="middle" x="479.5" y="-59.25" font-family="Helvetica,sans-Serif" font-size="10.00">RootDirectory</text>
</a>
</g>
</g>
<!-- Node2&#45;&gt;Node11 -->
<g id="edge10_Node000002_Node000011" class="edge">
<title>Node2&#45;&gt;Node11</title>
<g id="a_edge10_Node000002_Node000011"><a xlink:title=" ">
<path fill="none" stroke="#63b8ff" d="M345.9,-97.25C359.71,-94.28 374.23,-91.16 388.38,-88.12"/>
<polygon fill="#63b8ff" stroke="#63b8ff" points="389.11,-91.54 398.15,-86.02 387.64,-84.7 389.11,-91.54"/>
</a>
</g>
</g>
<!-- Node4 -->
<g id="Node000004" class="node">
<title>Node4</title>
<g id="a_Node000004"><a xlink:href="classQtHelpButton.html#ac57988f919fb62aca5b8ddbe51574ec7" target="_top" xlink:title=" ">
<polygon fill="white" stroke="#666666" points="771.25,-279.5 624.75,-279.5 624.75,-246 771.25,-246 771.25,-279.5"/>
<text text-anchor="start" x="632.75" y="-266" font-family="Helvetica,sans-Serif" font-size="10.00">QtHelpButton::setMessage</text>
<text text-anchor="middle" x="698" y="-253.25" font-family="Helvetica,sans-Serif" font-size="10.00">BoxParent</text>
</a>
</g>
</g>
<!-- Node3&#45;&gt;Node4 -->
<g id="edge3_Node000003_Node000004" class="edge">
<title>Node3&#45;&gt;Node4</title>
<g id="a_edge3_Node000003_Node000004"><a xlink:title=" ">
<path fill="none" stroke="#63b8ff" d="M546.34,-262.75C567.31,-262.75 590.81,-262.75 612.9,-262.75"/>
<polygon fill="#63b8ff" stroke="#63b8ff" points="612.79,-266.25 622.79,-262.75 612.79,-259.25 612.79,-266.25"/>
</a>
</g>
</g>
<!-- Node6 -->
<g id="Node000006" class="node">
<title>Node6</title>
<g id="a_Node000006"><a xlink:href="classQtProjectWizardContent.html#a47454b8e21acec683fb55b4fbdea601e" target="_top" xlink:title=" ">
<polygon fill="white" stroke="#666666" points="764.5,-227.5 631.5,-227.5 631.5,-194 764.5,-194 764.5,-227.5"/>
<text text-anchor="start" x="639.5" y="-214" font-family="Helvetica,sans-Serif" font-size="10.00">QtProjectWizardContent</text>
<text text-anchor="middle" x="698" y="-201.25" font-family="Helvetica,sans-Serif" font-size="10.00">::createFormSubLabel</text>
</a>
</g>
</g>
<!-- Node5&#45;&gt;Node6 -->
<g id="edge5_Node000005_Node000006" class="edge">
<title>Node5&#45;&gt;Node6</title>
<g id="a_edge5_Node000005_Node000006"><a xlink:title=" ">
<path fill="none" stroke="#63b8ff" d="M546.34,-210.75C569.54,-210.75 595.82,-210.75 619.87,-210.75"/>
<polygon fill="#63b8ff" stroke="#63b8ff" points="619.59,-214.25 629.59,-210.75 619.59,-207.25 619.59,-214.25"/>
</a>
</g>
</g>
<!-- Node9 -->
<g id="Node000009" class="node">
<title>Node9</title>
<g id="a_Node000009"><a xlink:href="classQtLocationPicker.html#ae76b2b7db2e6d17748eaa34c59d93e48" target="_top" xlink:title=" ">
<polygon fill="white" stroke="#666666" points="782.5,-27.12 613.5,-27.12 613.5,-6.38 782.5,-6.38 782.5,-27.12"/>
<text text-anchor="middle" x="698" y="-13.62" font-family="Helvetica,sans-Serif" font-size="10.00">QtLocationPicker::pickDirectory</text>
</a>
</g>
</g>
<!-- Node8&#45;&gt;Node9 -->
<g id="edge8_Node000008_Node000009" class="edge">
<title>Node8&#45;&gt;Node9</title>
<g id="a_edge8_Node000008_Node000009"><a xlink:title=" ">
<path fill="none" stroke="#63b8ff" d="M549.3,-16.75C565.96,-16.75 584.06,-16.75 601.69,-16.75"/>
<polygon fill="#63b8ff" stroke="#63b8ff" points="601.68,-20.25 611.68,-16.75 601.68,-13.25 601.68,-20.25"/>
</a>
</g>
</g>
</g>
</svg>

<g id="navigator" transform="translate(0 0)" fill="#404254">
  <rect fill="#f2f5e9" fill-opacity="0.5" stroke="#606060" stroke-width=".5" x="0" y="0" width="60" height="60"/>
  <use id="zoomplus" xlink:href="#zoomPlus" x="17" y="9" onmousedown="handleZoom(evt,'in')"/>
  <use id="zoomminus" xlink:href="#zoomMin" x="42" y="9" onmousedown="handleZoom(evt,'out')"/>
  <use id="reset" xlink:href="#resetDef" x="30" y="36" onmousedown="handleReset()"/>
   <use id="arrowup" xlink:href="#arrowUp" x="0" y="0" onmousedown="handlePan(0,-1)"/>
  <use id="arrowright" xlink:href="#arrowRight" x="0" y="0" onmousedown="handlePan(1,0)"/>
  <use id="arrowdown" xlink:href="#arrowDown" x="0" y="0" onmousedown="handlePan(0,1)"/>
  <use id="arrowleft" xlink:href="#arrowLeft" x="0" y="0" onmousedown="handlePan(-1,0)"/>
</g>
<svg viewBox="0 0 15 15" width="100%" height="30px" preserveAspectRatio="xMaxYMin meet">
 <g id="arrow_out" transform="scale(0.3 0.3)">
  <a xlink:href="classQtProjectWizardContentPathCxxPch_ad4eb86b9a6328598ed2d5185399bcea2_cgraph_org.svg" target="_base">
   <rect id="button" ry="5" rx="5" y="6" x="6" height="38" width="38"
        fill="#f2f5e9" fill-opacity="0.5" stroke="#606060" stroke-width="1.0"/>
   <path id="arrow"
     d="M 11.500037,31.436501 C 11.940474,20.09759 22.043105,11.32322 32.158766,21.979434 L 37.068811,17.246167 C 37.068811,17.246167 37.088388,32 37.088388,32 L 22.160133,31.978069 C 22.160133,31.978069 26.997745,27.140456 26.997745,27.140456 C 18.528582,18.264221 13.291696,25.230495 11.500037,31.436501 z"
     style="fill:#404040;"/>
  </a>
 </g>
</svg>

<style type='text/css'>
<![CDATA[
[data-mouse-over-selected='false'] { opacity: 0.7; }
[data-mouse-over-selected='true']  { opacity: 1.0; }
]]>
</style>
<script type="application/ecmascript"><![CDATA[
document.addEventListener('DOMContentLoaded', (event) => {
  highlightEdges();
  highlightAdjacentNodes();
});
]]></script>
</svg>
