<?xml version="1.0" encoding="UTF-8" standalone="no"?>
<!DOCTYPE svg PUBLIC "-//W3C//DTD SVG 1.1//EN"
 "http://www.w3.org/Graphics/SVG/1.1/DTD/svg11.dtd">
<!-- Generated by graphviz version 7.1.0 (0)
 -->
<!-- Title: PersistentStorage::isIncompatible Pages: 1 -->
<!--zoomable 114 -->
<svg id="main" version="1.1" xmlns="http://www.w3.org/2000/svg" xmlns:xlink="http://www.w3.org/1999/xlink" xml:space="preserve" onload="init(evt)">
<style type="text/css"><![CDATA[
.edge:hover path { stroke: red; }
.edge:hover polygon { stroke: red; fill: red; }
]]></style>
<script type="text/javascript"><![CDATA[
var edges = document.getElementsByTagName('g');
if (edges && edges.length) {
  for (var i=0;i<edges.length;i++) {
    if (edges[i].id.substr(0,4)=='edge') {
      edges[i].setAttribute('class','edge');
    }
  }
}
]]></script>
        <defs>
                <circle id="rim" cx="0" cy="0" r="7"/>
                <circle id="rim2" cx="0" cy="0" r="3.5"/>
                <g id="zoomPlus">
                        <use xlink:href="#rim" fill="#404040">
                                <set attributeName="fill" to="#808080" begin="zoomplus.mouseover" end="zoomplus.mouseout"/>
                        </use>
                        <path d="M-4,0h8M0,-4v8" fill="none" stroke="white" stroke-width="1.5" pointer-events="none"/>
                </g>
                <g id="zoomMin">
                        <use xlink:href="#rim" fill="#404040">
                                <set attributeName="fill" to="#808080" begin="zoomminus.mouseover" end="zoomminus.mouseout"/>
                        </use>
                        <path d="M-4,0h8" fill="none" stroke="white" stroke-width="1.5" pointer-events="none"/>
                </g>
                <g id="dirArrow">
                        <path fill="none" stroke="white" stroke-width="1.5" d="M0,-3.0v7 M-2.5,-0.5L0,-3.0L2.5,-0.5"/>
                </g>
               <g id="resetDef">
                       <use xlink:href="#rim2" fill="#404040">
                               <set attributeName="fill" to="#808080" begin="reset.mouseover" end="reset.mouseout"/>
                       </use>
               </g>
        </defs>

<script type="text/javascript">
var viewWidth = 1207;
var viewHeight = 114;
var sectionId = 'dynsection-174';
</script>
<script xlink:href="svgpan.js"/>
<svg id="graph" class="graph">
<g id="viewport">
<title>PersistentStorage::isIncompatible</title>
<!-- Node1 -->
<g id="node1" class="node">
<title>Node1</title>
<g id="a_node1"><a xlink:title=" ">
<polygon fill="#999999" stroke="#666666" points="109,-62.5 0,-62.5 0,-32.5 109,-32.5 109,-62.5"/>
<text text-anchor="start" x="8" y="-50.5" font-family="Helvetica,sans-Serif" font-size="10.00">PersistentStorage::</text>
<text text-anchor="middle" x="54.5" y="-39.5" font-family="Helvetica,sans-Serif" font-size="10.00">isIncompatible</text>
</a>
</g>
</g>
<!-- Node2 -->
<g id="node2" class="node">
<title>Node2</title>
<g id="a_node2"><a xlink:href="classSqliteStorage.html#a876f4f796e70c151fa5994020ed35c7d" target="_top" xlink:title=" ">
<polygon fill="white" stroke="#666666" points="305,-57 145,-57 145,-38 305,-38 305,-57"/>
<text text-anchor="middle" x="225" y="-45" font-family="Helvetica,sans-Serif" font-size="10.00">SqliteStorage::isIncompatible</text>
</a>
</g>
</g>
<!-- Node1&#45;&gt;Node2 -->
<g id="edge1" class="edge">
<title>Node1&#45;&gt;Node2</title>
<path fill="none" stroke="#63b8ff" d="M109.28,-47.5C117.02,-47.5 125.17,-47.5 133.4,-47.5"/>
<polygon fill="#63b8ff" stroke="#63b8ff" points="133.12,-51 143.12,-47.5 133.12,-44 133.12,-51"/>
</g>
<!-- Node3 -->
<g id="node3" class="node">
<title>Node3</title>
<g id="a_node3"><a xlink:href="classSqliteStorage.html#a932aafb82e7119836783c4256dac431b" target="_top" xlink:title=" ">
<polygon fill="white" stroke="#666666" points="472,-105.5 341,-105.5 341,-75.5 472,-75.5 472,-105.5"/>
<text text-anchor="start" x="349" y="-93.5" font-family="Helvetica,sans-Serif" font-size="10.00">SqliteStorage::getStatic</text>
<text text-anchor="middle" x="406.5" y="-82.5" font-family="Helvetica,sans-Serif" font-size="10.00">Version</text>
</a>
</g>
</g>
<!-- Node2&#45;&gt;Node3 -->
<g id="edge2" class="edge">
<title>Node2&#45;&gt;Node3</title>
<path fill="none" stroke="#63b8ff" d="M267.63,-57.47C286.15,-61.91 308.55,-67.28 329.87,-72.38"/>
<polygon fill="#63b8ff" stroke="#63b8ff" points="328.87,-75.74 339.41,-74.67 330.51,-68.94 328.87,-75.74"/>
</g>
<!-- Node4 -->
<g id="node4" class="node">
<title>Node4</title>
<g id="a_node4"><a xlink:href="classSqliteStorage.html#aab4c9d524cde137023da3a1129c94dde" target="_top" xlink:title=" ">
<polygon fill="white" stroke="#666666" points="648,-38 508,-38 508,-19 648,-19 648,-38"/>
<text text-anchor="middle" x="578" y="-26" font-family="Helvetica,sans-Serif" font-size="10.00">SqliteStorage::getVersion</text>
</a>
</g>
</g>
<!-- Node2&#45;&gt;Node4 -->
<g id="edge3" class="edge">
<title>Node2&#45;&gt;Node4</title>
<path fill="none" stroke="#63b8ff" d="M305.21,-43.21C362.27,-40.12 438.99,-35.97 496.37,-32.86"/>
<polygon fill="#63b8ff" stroke="#63b8ff" points="496.27,-36.38 506.06,-32.34 495.89,-29.39 496.27,-36.38"/>
</g>
<!-- Node8 -->
<g id="node8" class="node">
<title>Node8</title>
<g id="a_node8"><a xlink:href="classSqliteStorage.html#a1f5696fc4597e5e020480a0f33369caa" target="_top" xlink:title=" ">
<polygon fill="white" stroke="#666666" points="470.5,-19 342.5,-19 342.5,0 470.5,0 470.5,-19"/>
<text text-anchor="middle" x="406.5" y="-7" font-family="Helvetica,sans-Serif" font-size="10.00">SqliteStorage::isEmpty</text>
</a>
</g>
</g>
<!-- Node2&#45;&gt;Node8 -->
<g id="edge8" class="edge">
<title>Node2&#45;&gt;Node8</title>
<path fill="none" stroke="#63b8ff" d="M273.16,-37.52C295.85,-32.71 323.26,-26.91 347.24,-21.83"/>
<polygon fill="#63b8ff" stroke="#63b8ff" points="347.8,-25.29 356.86,-19.8 346.35,-18.44 347.8,-25.29"/>
</g>
<!-- Node5 -->
<g id="node5" class="node">
<title>Node5</title>
<g id="a_node5"><a xlink:href="classSqliteStorage.html#afa7522703bc8f2c48085fecf74a69277" target="_top" xlink:title=" ">
<polygon fill="white" stroke="#666666" points="840,-38 684,-38 684,-19 840,-19 840,-38"/>
<text text-anchor="middle" x="762" y="-26" font-family="Helvetica,sans-Serif" font-size="10.00">SqliteStorage::getMetaValue</text>
</a>
</g>
</g>
<!-- Node4&#45;&gt;Node5 -->
<g id="edge4" class="edge">
<title>Node4&#45;&gt;Node5</title>
<path fill="none" stroke="#63b8ff" d="M648.33,-28.5C656.18,-28.5 664.26,-28.5 672.31,-28.5"/>
<polygon fill="#63b8ff" stroke="#63b8ff" points="672.15,-32 682.15,-28.5 672.15,-25 672.15,-32"/>
</g>
<!-- Node6 -->
<g id="node6" class="node">
<title>Node6</title>
<g id="a_node6"><a xlink:href="classSqliteStorage.html#a6a89b1a3823a6ba065874769b09bf9cc" target="_top" xlink:title=" ">
<polygon fill="white" stroke="#666666" points="1199,-38 1043,-38 1043,-19 1199,-19 1199,-38"/>
<text text-anchor="middle" x="1121" y="-26" font-family="Helvetica,sans-Serif" font-size="10.00">SqliteStorage::executeQuery</text>
</a>
</g>
</g>
<!-- Node5&#45;&gt;Node6 -->
<g id="edge5" class="edge">
<title>Node5&#45;&gt;Node6</title>
<path fill="none" stroke="#63b8ff" d="M840.46,-28.5C896.6,-28.5 972.62,-28.5 1031.21,-28.5"/>
<polygon fill="#63b8ff" stroke="#63b8ff" points="1031.17,-32 1041.17,-28.5 1031.17,-25 1031.17,-32"/>
</g>
<!-- Node7 -->
<g id="node7" class="node">
<title>Node7</title>
<g id="a_node7"><a xlink:href="classSqliteStorage.html#a76e7ccacfb050cafe2bd90318c49fb5e" target="_top" xlink:title=" ">
<polygon fill="white" stroke="#666666" points="1007,-19 876,-19 876,0 1007,0 1007,-19"/>
<text text-anchor="middle" x="941.5" y="-7" font-family="Helvetica,sans-Serif" font-size="10.00">SqliteStorage::hasTable</text>
</a>
</g>
</g>
<!-- Node5&#45;&gt;Node7 -->
<g id="edge6" class="edge">
<title>Node5&#45;&gt;Node7</title>
<path fill="none" stroke="#63b8ff" d="M840.34,-20.22C848.25,-19.38 856.28,-18.52 864.18,-17.67"/>
<polygon fill="#63b8ff" stroke="#63b8ff" points="864.55,-21.15 874.12,-16.61 863.8,-14.19 864.55,-21.15"/>
</g>
<!-- Node7&#45;&gt;Node6 -->
<g id="edge7" class="edge">
<title>Node7&#45;&gt;Node6</title>
<path fill="none" stroke="#63b8ff" d="M1007.34,-16.44C1015.14,-17.28 1023.22,-18.14 1031.29,-19"/>
<polygon fill="#63b8ff" stroke="#63b8ff" points="1030.86,-22.48 1041.18,-20.06 1031.6,-15.52 1030.86,-22.48"/>
</g>
<!-- Node8&#45;&gt;Node4 -->
<g id="edge9" class="edge">
<title>Node8&#45;&gt;Node4</title>
<path fill="none" stroke="#63b8ff" d="M470.62,-16.57C478.99,-17.51 487.67,-18.49 496.3,-19.45"/>
<polygon fill="#63b8ff" stroke="#63b8ff" points="495.74,-22.91 506.06,-20.55 496.52,-15.96 495.74,-22.91"/>
</g>
</g>
</svg>
        <g id="navigator" transform="translate(0 0)" fill="#404254">
                <rect fill="#f2f5e9" fill-opacity="0.5" stroke="#606060" stroke-width=".5" x="0" y="0" width="60" height="60"/>
                <use id="zoomplus" xlink:href="#zoomPlus" x="17" y="9" onmousedown="handleZoom(evt,'in')"/>
                <use id="zoomminus" xlink:href="#zoomMin" x="42" y="9" onmousedown="handleZoom(evt,'out')"/>
                <use id="reset" xlink:href="#resetDef" x="30" y="36" onmousedown="handleReset()"/>
                <g id="arrowUp" xlink:href="#dirArrow" transform="translate(30 24)" onmousedown="handlePan(0,-1)">
                  <use xlink:href="#rim" fill="#404040">
                        <set attributeName="fill" to="#808080" begin="arrowUp.mouseover" end="arrowUp.mouseout"/>
                  </use>
                  <path fill="none" stroke="white" stroke-width="1.5" d="M0,-3.0v7 M-2.5,-0.5L0,-3.0L2.5,-0.5"/>
                </g>
                <g id="arrowRight" xlink:href="#dirArrow" transform="rotate(90) translate(36 -43)" onmousedown="handlePan(1,0)">
                  <use xlink:href="#rim" fill="#404040">
                        <set attributeName="fill" to="#808080" begin="arrowRight.mouseover" end="arrowRight.mouseout"/>
                  </use>
                  <path fill="none" stroke="white" stroke-width="1.5" d="M0,-3.0v7 M-2.5,-0.5L0,-3.0L2.5,-0.5"/>
                </g>
                <g id="arrowDown" xlink:href="#dirArrow" transform="rotate(180) translate(-30 -48)" onmousedown="handlePan(0,1)">
                  <use xlink:href="#rim" fill="#404040">
                        <set attributeName="fill" to="#808080" begin="arrowDown.mouseover" end="arrowDown.mouseout"/>
                  </use>
                  <path fill="none" stroke="white" stroke-width="1.5" d="M0,-3.0v7 M-2.5,-0.5L0,-3.0L2.5,-0.5"/>
                </g>
                <g id="arrowLeft" xlink:href="#dirArrow" transform="rotate(270) translate(-36 17)" onmousedown="handlePan(-1,0)">
                  <use xlink:href="#rim" fill="#404040">
                        <set attributeName="fill" to="#808080" begin="arrowLeft.mouseover" end="arrowLeft.mouseout"/>
                  </use>
                  <path fill="none" stroke="white" stroke-width="1.5" d="M0,-3.0v7 M-2.5,-0.5L0,-3.0L2.5,-0.5"/>
                </g>
        </g>
        <svg viewBox="0 0 15 15" width="100%" height="30px" preserveAspectRatio="xMaxYMin meet">
         <g id="arrow_out" transform="scale(0.3 0.3)">
          <a xlink:href="classPersistentStorage_a5fb6c0a56bc66dc2d6611898da541e0e_cgraph_org.svg" target="_base">
           <rect id="button" ry="5" rx="5" y="6" x="6" height="38" width="38"
                fill="#f2f5e9" fill-opacity="0.5" stroke="#606060" stroke-width="1.0"/>
           <path id="arrow"
             d="M 11.500037,31.436501 C 11.940474,20.09759 22.043105,11.32322 32.158766,21.979434 L 37.068811,17.246167 C 37.068811,17.246167 37.088388,32 37.088388,32 L 22.160133,31.978069 C 22.160133,31.978069 26.997745,27.140456 26.997745,27.140456 C 18.528582,18.264221 13.291696,25.230495 11.500037,31.436501 z"
             style="fill:#404040;"/>
          </a>
         </g>
        </svg>
</svg>
