<?xml version="1.0" encoding="UTF-8" standalone="no"?>
<!DOCTYPE svg PUBLIC "-//W3C//DTD SVG 1.1//EN"
 "http://www.w3.org/Graphics/SVG/1.1/DTD/svg11.dtd">
<!-- Generated by graphviz version 9.0.0 (0)
 -->
<!-- Title: SqliteStorage::beginTransaction Pages: 1 -->
<svg width="323pt" height="94pt"
 viewBox="0.00 0.00 322.75 93.50" xmlns="http://www.w3.org/2000/svg" xmlns:xlink="http://www.w3.org/1999/xlink">
<g id="graph0" class="graph" transform="scale(1 1) rotate(0) translate(4 89.5)">
<title>SqliteStorage::beginTransaction</title>
<!-- Node1 -->
<g id="Node000001" class="node">
<title>Node1</title>
<g id="a_Node000001"><a xlink:title=" ">
<polygon fill="#999999" stroke="#666666" points="314.75,-53.12 144.25,-53.12 144.25,-32.38 314.75,-32.38 314.75,-53.12"/>
<text text-anchor="middle" x="229.5" y="-39.62" font-family="Helvetica,sans-Serif" font-size="10.00">SqliteStorage::beginTransaction</text>
</a>
</g>
</g>
<!-- Node2 -->
<g id="Node000002" class="node">
<title>Node2</title>
<g id="a_Node000002"><a xlink:href="classPersistentStorage.html#ab00d39a68905c0ebfc20ca2099e9c7b8" target="_top" xlink:title=" ">
<polygon fill="white" stroke="#666666" points="108.25,-85.5 0,-85.5 0,-52 108.25,-52 108.25,-85.5"/>
<text text-anchor="start" x="8" y="-72" font-family="Helvetica,sans-Serif" font-size="10.00">PersistentStorage::</text>
<text text-anchor="middle" x="54.12" y="-59.25" font-family="Helvetica,sans-Serif" font-size="10.00">clearFileElements</text>
</a>
</g>
</g>
<!-- Node1&#45;&gt;Node2 -->
<g id="edge1_Node000001_Node000002" class="edge">
<title>Node1&#45;&gt;Node2</title>
<g id="a_edge1_Node000001_Node000002"><a xlink:title=" ">
<path fill="none" stroke="#63b8ff" d="M144.91,-55.29C132.53,-57.14 120.06,-59.01 108.52,-60.74"/>
<polygon fill="#63b8ff" stroke="#63b8ff" points="145.36,-58.76 154.73,-53.81 144.32,-51.83 145.36,-58.76"/>
</a>
</g>
</g>
<!-- Node3 -->
<g id="Node000003" class="node">
<title>Node3</title>
<g id="a_Node000003"><a xlink:href="classPersistentStorage.html#aa19633ce3986eac3f36d8b585fdbe13f" target="_top" xlink:title=" ">
<polygon fill="white" stroke="#666666" points="108.25,-33.5 0,-33.5 0,0 108.25,0 108.25,-33.5"/>
<text text-anchor="start" x="8" y="-20" font-family="Helvetica,sans-Serif" font-size="10.00">PersistentStorage::</text>
<text text-anchor="middle" x="54.12" y="-7.25" font-family="Helvetica,sans-Serif" font-size="10.00">startInjection</text>
</a>
</g>
</g>
<!-- Node1&#45;&gt;Node3 -->
<g id="edge2_Node000001_Node000003" class="edge">
<title>Node1&#45;&gt;Node3</title>
<g id="a_edge2_Node000001_Node000003"><a xlink:title=" ">
<path fill="none" stroke="#63b8ff" d="M144.91,-30.21C132.53,-28.36 120.06,-26.49 108.52,-24.76"/>
<polygon fill="#63b8ff" stroke="#63b8ff" points="144.32,-33.67 154.73,-31.69 145.36,-26.74 144.32,-33.67"/>
</a>
</g>
</g>
</g>
</svg>
