<?xml version="1.0" encoding="UTF-8" standalone="no"?>
<!DOCTYPE svg PUBLIC "-//W3C//DTD SVG 1.1//EN"
 "http://www.w3.org/Graphics/SVG/1.1/DTD/svg11.dtd">
<!-- Generated by graphviz version 7.1.0 (0)
 -->
<!-- Title: SourceLocationCollection::addSourceLocation Pages: 1 -->
<svg width="528pt" height="172pt"
 viewBox="0.00 0.00 528.00 171.50" xmlns="http://www.w3.org/2000/svg" xmlns:xlink="http://www.w3.org/1999/xlink">
<g id="graph0" class="graph" transform="scale(1 1) rotate(0) translate(4 167.5)">
<title>SourceLocationCollection::addSourceLocation</title>
<!-- Node1 -->
<g id="node1" class="node">
<title>Node1</title>
<g id="a_node1"><a xlink:title=" ">
<polygon fill="#999999" stroke="#666666" points="140,-91.5 0,-91.5 0,-61.5 140,-61.5 140,-91.5"/>
<text text-anchor="start" x="8" y="-79.5" font-family="Helvetica,sans-Serif" font-size="10.00">SourceLocationCollection</text>
<text text-anchor="middle" x="70" y="-68.5" font-family="Helvetica,sans-Serif" font-size="10.00">::addSourceLocation</text>
</a>
</g>
</g>
<!-- Node2 -->
<g id="node2" class="node">
<title>Node2</title>
<g id="a_node2"><a xlink:href="classSourceLocationFile.html#ab04afb9bc01bfc14c89fa02df841ba2e" target="_top" xlink:title=" ">
<polygon fill="white" stroke="#666666" points="305.5,-163.5 190.5,-163.5 190.5,-133.5 305.5,-133.5 305.5,-163.5"/>
<text text-anchor="start" x="198.5" y="-151.5" font-family="Helvetica,sans-Serif" font-size="10.00">SourceLocationFile</text>
<text text-anchor="middle" x="248" y="-140.5" font-family="Helvetica,sans-Serif" font-size="10.00">::addSourceLocation</text>
</a>
</g>
</g>
<!-- Node1&#45;&gt;Node2 -->
<g id="edge1" class="edge">
<title>Node1&#45;&gt;Node2</title>
<path fill="none" stroke="#63b8ff" d="M102.34,-91.85C123.02,-101.73 150.85,-114.53 176,-124.5 180.04,-126.1 184.22,-127.69 188.46,-129.25"/>
<polygon fill="#63b8ff" stroke="#63b8ff" points="187,-132.44 197.59,-132.52 189.36,-125.85 187,-132.44"/>
</g>
<!-- Node3 -->
<g id="node3" class="node">
<title>Node3</title>
<g id="a_node3"><a xlink:href="classSourceLocationCollection.html#a69b02a9070cc297130373872812acaf8" target="_top" xlink:title=" ">
<polygon fill="white" stroke="#666666" points="320,-115.5 176,-115.5 176,-85.5 320,-85.5 320,-115.5"/>
<text text-anchor="start" x="184" y="-103.5" font-family="Helvetica,sans-Serif" font-size="10.00">SourceLocationCollection</text>
<text text-anchor="middle" x="248" y="-92.5" font-family="Helvetica,sans-Serif" font-size="10.00">::createSourceLocationFile</text>
</a>
</g>
</g>
<!-- Node1&#45;&gt;Node3 -->
<g id="edge2" class="edge">
<title>Node1&#45;&gt;Node3</title>
<path fill="none" stroke="#63b8ff" d="M140.31,-85.95C148.22,-87.03 156.34,-88.14 164.4,-89.24"/>
<polygon fill="#63b8ff" stroke="#63b8ff" points="163.85,-92.69 174.23,-90.58 164.8,-85.76 163.85,-92.69"/>
</g>
<!-- Node5 -->
<g id="node5" class="node">
<title>Node5</title>
<g id="a_node5"><a xlink:href="classSourceLocationFile.html#ae0e695cb09009143683103873542f5fe" target="_top" xlink:title=" ">
<polygon fill="white" stroke="#666666" points="301.5,-67.5 194.5,-67.5 194.5,-37.5 301.5,-37.5 301.5,-67.5"/>
<text text-anchor="start" x="202.5" y="-55.5" font-family="Helvetica,sans-Serif" font-size="10.00">SourceLocationFile</text>
<text text-anchor="middle" x="248" y="-44.5" font-family="Helvetica,sans-Serif" font-size="10.00">::isWhole</text>
</a>
</g>
</g>
<!-- Node1&#45;&gt;Node5 -->
<g id="edge4" class="edge">
<title>Node1&#45;&gt;Node5</title>
<path fill="none" stroke="#63b8ff" d="M140.31,-67.05C154.29,-65.14 168.92,-63.15 182.72,-61.27"/>
<polygon fill="#63b8ff" stroke="#63b8ff" points="183.14,-64.74 192.58,-59.92 182.2,-57.8 183.14,-64.74"/>
</g>
<!-- Node6 -->
<g id="node6" class="node">
<title>Node6</title>
<g id="a_node6"><a xlink:href="classFilePath.html#a989e098726c8387d4f4690bca3314ce8" target="_top" xlink:title=" ">
<polygon fill="white" stroke="#666666" points="289,-19 207,-19 207,0 289,0 289,-19"/>
<text text-anchor="middle" x="248" y="-7" font-family="Helvetica,sans-Serif" font-size="10.00">FilePath::wstr</text>
</a>
</g>
</g>
<!-- Node1&#45;&gt;Node6 -->
<g id="edge5" class="edge">
<title>Node1&#45;&gt;Node6</title>
<path fill="none" stroke="#63b8ff" d="M101.22,-61.05C121.91,-50.88 150.16,-37.79 176,-28.5 182.46,-26.18 189.34,-23.99 196.18,-21.99"/>
<polygon fill="#63b8ff" stroke="#63b8ff" points="196.7,-25.48 205.38,-19.4 194.8,-18.74 196.7,-25.48"/>
</g>
<!-- Node4 -->
<g id="node4" class="node">
<title>Node4</title>
<g id="a_node4"><a xlink:href="classSourceLocationCollection.html#af97beb240941ae51a3896bc3315e43cc" target="_top" xlink:title=" ">
<polygon fill="white" stroke="#666666" points="520,-115.5 356,-115.5 356,-85.5 520,-85.5 520,-115.5"/>
<text text-anchor="start" x="364" y="-103.5" font-family="Helvetica,sans-Serif" font-size="10.00">SourceLocationCollection</text>
<text text-anchor="middle" x="438" y="-92.5" font-family="Helvetica,sans-Serif" font-size="10.00">::getSourceLocationFileByPath</text>
</a>
</g>
</g>
<!-- Node3&#45;&gt;Node4 -->
<g id="edge3" class="edge">
<title>Node3&#45;&gt;Node4</title>
<path fill="none" stroke="#63b8ff" d="M320.34,-100.5C328.18,-100.5 336.24,-100.5 344.29,-100.5"/>
<polygon fill="#63b8ff" stroke="#63b8ff" points="344.12,-104 354.12,-100.5 344.12,-97 344.12,-104"/>
</g>
</g>
</svg>
