<?xml version="1.0" encoding="UTF-8" standalone="no"?>
<!DOCTYPE svg PUBLIC "-//W3C//DTD SVG 1.1//EN"
 "http://www.w3.org/Graphics/SVG/1.1/DTD/svg11.dtd">
<!-- Generated by graphviz version 7.1.0 (0)
 -->
<!-- Title: MessageTabOpenWith Pages: 1 -->
<svg width="1525pt" height="692pt"
 viewBox="0.00 0.00 1525.00 692.28" xmlns="http://www.w3.org/2000/svg" xmlns:xlink="http://www.w3.org/1999/xlink">
<g id="graph0" class="graph" transform="scale(1 1) rotate(0) translate(4 688.28)">
<title>MessageTabOpenWith</title>
<!-- Node1 -->
<g id="node1" class="node">
<title>Node1</title>
<g id="a_node1"><a xlink:title=" ">
<polygon fill="#999999" stroke="#666666" points="1517,-473.28 1392,-473.28 1392,-454.28 1517,-454.28 1517,-473.28"/>
<text text-anchor="middle" x="1454.5" y="-461.28" font-family="Helvetica,sans-Serif" font-size="10.00">MessageTabOpenWith</text>
</a>
</g>
</g>
<!-- Node2 -->
<g id="node2" class="node">
<title>Node2</title>
<g id="a_node2"><a xlink:href="classMessage.html" target="_top" xlink:title=" ">
<polygon fill="white" stroke="#666666" points="1304,-645.28 1113,-645.28 1113,-626.28 1304,-626.28 1304,-645.28"/>
<text text-anchor="middle" x="1208.5" y="-633.28" font-family="Helvetica,sans-Serif" font-size="10.00">Message&lt; MessageTabOpenWith &gt;</text>
</a>
</g>
</g>
<!-- Node2&#45;&gt;Node1 -->
<g id="edge1" class="edge">
<title>Node2&#45;&gt;Node1</title>
<path fill="none" stroke="#63b8ff" d="M1315.51,-634.23C1336.26,-630.05 1356.88,-622.83 1374,-610.78 1423.36,-576.07 1444.99,-500.72 1451.37,-473.69"/>
<polygon fill="#63b8ff" stroke="#63b8ff" points="1315.06,-630.75 1305.82,-635.93 1316.27,-637.65 1315.06,-630.75"/>
</g>
<!-- Node3 -->
<g id="node3" class="node">
<title>Node3</title>
<g id="a_node3"><a xlink:href="classMessageBase.html" target="_top" xlink:title=" ">
<polygon fill="white" stroke="#666666" points="757,-645.28 673,-645.28 673,-626.28 757,-626.28 757,-645.28"/>
<text text-anchor="middle" x="715" y="-633.28" font-family="Helvetica,sans-Serif" font-size="10.00">MessageBase</text>
</a>
</g>
</g>
<!-- Node3&#45;&gt;Node2 -->
<g id="edge2" class="edge">
<title>Node3&#45;&gt;Node2</title>
<path fill="none" stroke="#63b8ff" d="M760.15,-648.48C771.11,-651.09 782.91,-653.45 794,-654.78 926.84,-670.73 961.63,-661.4 1095,-650.78 1110.12,-649.58 1126.33,-647.74 1141.59,-645.76"/>
<polygon fill="#63b8ff" stroke="#63b8ff" points="761.1,-645.11 750.55,-646.06 759.39,-651.9 761.1,-645.11"/>
</g>
<!-- Node7 -->
<g id="node7" class="node">
<title>Node7</title>
<g id="a_node7"><a xlink:href="classMessage.html" target="_top" xlink:title=" ">
<polygon fill="white" stroke="#666666" points="943,-645.28 794,-645.28 794,-626.28 943,-626.28 943,-645.28"/>
<text text-anchor="middle" x="868.5" y="-633.28" font-family="Helvetica,sans-Serif" font-size="10.00">Message&lt; MessageType &gt;</text>
</a>
</g>
</g>
<!-- Node3&#45;&gt;Node7 -->
<g id="edge7" class="edge">
<title>Node3&#45;&gt;Node7</title>
<path fill="none" stroke="#63b8ff" d="M768.8,-635.78C776.8,-635.78 785.18,-635.78 793.53,-635.78"/>
<polygon fill="#63b8ff" stroke="#63b8ff" points="768.91,-632.28 758.91,-635.78 768.91,-639.28 768.91,-632.28"/>
</g>
<!-- Node4 -->
<g id="node4" class="node">
<title>Node4</title>
<g id="a_node4"><a xlink:title=" ">
<polygon fill="white" stroke="#666666" points="430,-684.28 374,-684.28 374,-665.28 430,-665.28 430,-684.28"/>
<text text-anchor="middle" x="402" y="-672.28" font-family="Helvetica,sans-Serif" font-size="10.00">static Id</text>
</a>
</g>
</g>
<!-- Node4&#45;&gt;Node3 -->
<g id="edge3" class="edge">
<title>Node4&#45;&gt;Node3</title>
<path fill="none" stroke="#9a32cd" stroke-dasharray="5,2" d="M441.95,-673.72C491.73,-671.82 580.41,-666.65 655,-652.78 664.43,-651.03 674.52,-648.41 683.65,-645.74"/>
<polygon fill="#9a32cd" stroke="#9a32cd" points="441.84,-670.22 431.97,-674.07 442.09,-677.21 441.84,-670.22"/>
<text text-anchor="middle" x="574" y="-673.78" font-family="Helvetica,sans-Serif" font-size="10.00"> s_nextId</text>
</g>
<!-- Node5 -->
<g id="node5" class="node">
<title>Node5</title>
<g id="a_node5"><a xlink:title=" ">
<polygon fill="white" stroke="#666666" points="424.5,-623.28 379.5,-623.28 379.5,-604.28 424.5,-604.28 424.5,-623.28"/>
<text text-anchor="middle" x="402" y="-611.28" font-family="Helvetica,sans-Serif" font-size="10.00">size_t</text>
</a>
</g>
</g>
<!-- Node5&#45;&gt;Node1 -->
<g id="edge24" class="edge">
<title>Node5&#45;&gt;Node1</title>
<path fill="none" stroke="#9a32cd" stroke-dasharray="5,2" d="M435.97,-610.79C492.71,-605.92 612.53,-596.78 714,-596.78 714,-596.78 714,-596.78 1209.5,-596.78 1312.26,-596.78 1412.94,-504.71 1443.86,-473.78"/>
<polygon fill="#9a32cd" stroke="#9a32cd" points="436.01,-607.28 426.35,-611.63 436.62,-614.25 436.01,-607.28"/>
<text text-anchor="middle" x="868.5" y="-599.78" font-family="Helvetica,sans-Serif" font-size="10.00"> line</text>
</g>
<!-- Node5&#45;&gt;Node3 -->
<g id="edge4" class="edge">
<title>Node5&#45;&gt;Node3</title>
<path fill="none" stroke="#9a32cd" stroke-dasharray="5,2" d="M436.19,-615.84C484.4,-618.87 576.6,-624.82 655,-630.78 660.74,-631.22 666.79,-631.7 672.74,-632.2"/>
<polygon fill="#9a32cd" stroke="#9a32cd" points="436.63,-612.36 426.43,-615.23 436.19,-619.35 436.63,-612.36"/>
<text text-anchor="middle" x="574" y="-644.78" font-family="Helvetica,sans-Serif" font-size="10.00"> m_id</text>
<text text-anchor="middle" x="574" y="-633.78" font-family="Helvetica,sans-Serif" font-size="10.00">m_schedulerId</text>
</g>
<!-- Node6 -->
<g id="node6" class="node">
<title>Node6</title>
<g id="a_node6"><a xlink:title=" ">
<polygon fill="white" stroke="#666666" points="421,-457.28 383,-457.28 383,-438.28 421,-438.28 421,-457.28"/>
<text text-anchor="middle" x="402" y="-445.28" font-family="Helvetica,sans-Serif" font-size="10.00">bool</text>
</a>
</g>
</g>
<!-- Node6&#45;&gt;Node1 -->
<g id="edge25" class="edge">
<title>Node6&#45;&gt;Node1</title>
<path fill="none" stroke="#9a32cd" stroke-dasharray="5,2" d="M432.11,-455.87C449.62,-460.41 472.43,-465.75 493,-468.78 590.37,-483.13 615.58,-482.78 714,-482.78 714,-482.78 714,-482.78 1209.5,-482.78 1271.64,-482.78 1342.42,-476.58 1391.68,-471.26"/>
<polygon fill="#9a32cd" stroke="#9a32cd" points="433.47,-452.61 422.91,-453.42 431.67,-459.37 433.47,-452.61"/>
<text text-anchor="middle" x="868.5" y="-485.78" font-family="Helvetica,sans-Serif" font-size="10.00"> showTab</text>
</g>
<!-- Node6&#45;&gt;Node3 -->
<g id="edge5" class="edge">
<title>Node6&#45;&gt;Node3</title>
<path fill="none" stroke="#9a32cd" stroke-dasharray="5,2" d="M430.2,-462.94C447.81,-472.44 471.41,-484.59 493,-493.78 563.09,-523.64 594.41,-503.61 655,-549.78 682.51,-570.74 701.81,-608.3 709.84,-626.02"/>
<polygon fill="#9a32cd" stroke="#9a32cd" points="432.36,-460.14 421.91,-458.42 429.01,-466.28 432.36,-460.14"/>
<text text-anchor="middle" x="574" y="-607.78" font-family="Helvetica,sans-Serif" font-size="10.00"> m_isLast</text>
<text text-anchor="middle" x="574" y="-596.78" font-family="Helvetica,sans-Serif" font-size="10.00">m_isLogged</text>
<text text-anchor="middle" x="574" y="-585.78" font-family="Helvetica,sans-Serif" font-size="10.00">m_isParallel</text>
<text text-anchor="middle" x="574" y="-574.78" font-family="Helvetica,sans-Serif" font-size="10.00">m_isReplayed</text>
<text text-anchor="middle" x="574" y="-563.78" font-family="Helvetica,sans-Serif" font-size="10.00">m_keepContent</text>
<text text-anchor="middle" x="574" y="-552.78" font-family="Helvetica,sans-Serif" font-size="10.00">m_sendAsTask</text>
</g>
<!-- Node9 -->
<g id="node9" class="node">
<title>Node9</title>
<g id="a_node9"><a xlink:href="classFilePath.html" target="_top" xlink:title=" ">
<polygon fill="white" stroke="#666666" points="742.5,-416.28 687.5,-416.28 687.5,-397.28 742.5,-397.28 742.5,-416.28"/>
<text text-anchor="middle" x="715" y="-404.28" font-family="Helvetica,sans-Serif" font-size="10.00">FilePath</text>
</a>
</g>
</g>
<!-- Node6&#45;&gt;Node9 -->
<g id="edge11" class="edge">
<title>Node6&#45;&gt;Node9</title>
<path fill="none" stroke="#9a32cd" stroke-dasharray="5,2" d="M431.46,-434.26C448.82,-426.72 471.7,-418.02 493,-413.78 561.9,-400.07 645.22,-402.39 687.14,-404.82"/>
<polygon fill="#9a32cd" stroke="#9a32cd" points="430.51,-430.86 422.81,-438.14 433.37,-437.25 430.51,-430.86"/>
<text text-anchor="middle" x="574" y="-460.78" font-family="Helvetica,sans-Serif" font-size="10.00"> m_canonicalized</text>
<text text-anchor="middle" x="574" y="-449.78" font-family="Helvetica,sans-Serif" font-size="10.00">m_checkedExists</text>
<text text-anchor="middle" x="574" y="-438.78" font-family="Helvetica,sans-Serif" font-size="10.00">m_checkedIsDirectory</text>
<text text-anchor="middle" x="574" y="-427.78" font-family="Helvetica,sans-Serif" font-size="10.00">m_exists</text>
<text text-anchor="middle" x="574" y="-416.78" font-family="Helvetica,sans-Serif" font-size="10.00">m_isDirectory</text>
</g>
<!-- Node11 -->
<g id="node11" class="node">
<title>Node11</title>
<g id="a_node11"><a xlink:href="structSearchMatch.html" target="_top" xlink:title=" ">
<polygon fill="white" stroke="#666666" points="755,-223.28 675,-223.28 675,-204.28 755,-204.28 755,-223.28"/>
<text text-anchor="middle" x="715" y="-211.28" font-family="Helvetica,sans-Serif" font-size="10.00">SearchMatch</text>
</a>
</g>
</g>
<!-- Node6&#45;&gt;Node11 -->
<g id="edge23" class="edge">
<title>Node6&#45;&gt;Node11</title>
<path fill="none" stroke="#9a32cd" stroke-dasharray="5,2" d="M423.04,-430.98C440.45,-417.27 466.9,-398.47 493,-387.78 560.84,-360.01 598.2,-403.12 655,-356.78 698.08,-321.64 710.07,-249.83 713.08,-223.63"/>
<polygon fill="#9a32cd" stroke="#9a32cd" points="421.12,-428.04 415.54,-437.04 425.51,-433.48 421.12,-428.04"/>
<text text-anchor="middle" x="574" y="-390.78" font-family="Helvetica,sans-Serif" font-size="10.00"> hasChildren</text>
</g>
<!-- Node7&#45;&gt;Node2 -->
<g id="edge6" class="edge">
<title>Node7&#45;&gt;Node2</title>
<path fill="none" stroke="orange" stroke-dasharray="5,2" d="M954.59,-635.78C1002.72,-635.78 1063.03,-635.78 1112.67,-635.78"/>
<polygon fill="orange" stroke="orange" points="954.77,-632.28 944.77,-635.78 954.77,-639.28 954.77,-632.28"/>
<text text-anchor="middle" x="1028" y="-638.78" font-family="Helvetica,sans-Serif" font-size="10.00"> &lt; MessageTabOpenWith &gt;</text>
</g>
<!-- Node8 -->
<g id="node8" class="node">
<title>Node8</title>
<g id="a_node8"><a xlink:title=" ">
<polygon fill="white" stroke="#666666" points="1236,-454.28 1181,-454.28 1181,-435.28 1236,-435.28 1236,-454.28"/>
<text text-anchor="middle" x="1208.5" y="-442.28" font-family="Helvetica,sans-Serif" font-size="10.00">const Id</text>
</a>
</g>
</g>
<!-- Node8&#45;&gt;Node1 -->
<g id="edge8" class="edge">
<title>Node8&#45;&gt;Node1</title>
<path fill="none" stroke="#9a32cd" stroke-dasharray="5,2" d="M1247.48,-443.12C1280.91,-442.16 1330.84,-441.95 1374,-446.78 1387.33,-448.27 1401.71,-451 1414.53,-453.84"/>
<polygon fill="#9a32cd" stroke="#9a32cd" points="1247.78,-439.6 1237.9,-443.43 1248.01,-446.6 1247.78,-439.6"/>
<text text-anchor="middle" x="1348" y="-460.78" font-family="Helvetica,sans-Serif" font-size="10.00"> locationId</text>
<text text-anchor="middle" x="1348" y="-449.78" font-family="Helvetica,sans-Serif" font-size="10.00">tokenId</text>
</g>
<!-- Node9&#45;&gt;Node1 -->
<g id="edge9" class="edge">
<title>Node9&#45;&gt;Node1</title>
<path fill="none" stroke="#9a32cd" stroke-dasharray="5,2" d="M754.18,-406.29C848.03,-405.47 1097.38,-405.66 1304,-426.78 1335.4,-429.99 1343.32,-431.36 1374,-438.78 1391.16,-442.93 1410.02,-448.8 1425.06,-453.81"/>
<polygon fill="#9a32cd" stroke="#9a32cd" points="754.23,-402.79 744.27,-406.39 754.3,-409.79 754.23,-402.79"/>
<text text-anchor="middle" x="1028" y="-414.78" font-family="Helvetica,sans-Serif" font-size="10.00"> filePath</text>
</g>
<!-- Node10 -->
<g id="node10" class="node">
<title>Node10</title>
<g id="a_node10"><a xlink:title=" ">
<polygon fill="white" stroke="#666666" points="458.5,-364.78 345.5,-364.78 345.5,-334.78 458.5,-334.78 458.5,-364.78"/>
<text text-anchor="start" x="353.5" y="-352.78" font-family="Helvetica,sans-Serif" font-size="10.00">unique_ptr&lt; boost::</text>
<text text-anchor="middle" x="402" y="-341.78" font-family="Helvetica,sans-Serif" font-size="10.00">filesystem::path &gt;</text>
</a>
</g>
</g>
<!-- Node10&#45;&gt;Node9 -->
<g id="edge10" class="edge">
<title>Node10&#45;&gt;Node9</title>
<path fill="none" stroke="#9a32cd" stroke-dasharray="5,2" d="M469.98,-334.4C522.46,-325.66 596.17,-320.84 655,-345.78 679.69,-356.25 699.09,-382.67 708.25,-397.06"/>
<polygon fill="#9a32cd" stroke="#9a32cd" points="469.52,-330.92 460.28,-336.11 470.74,-337.82 469.52,-330.92"/>
<text text-anchor="middle" x="574" y="-348.78" font-family="Helvetica,sans-Serif" font-size="10.00"> m_path</text>
</g>
<!-- Node11&#45;&gt;Node1 -->
<g id="edge12" class="edge">
<title>Node11&#45;&gt;Node1</title>
<path fill="none" stroke="#9a32cd" stroke-dasharray="5,2" d="M765,-226.57C875.56,-256.05 1152.09,-333.2 1374,-423.78 1395.89,-432.72 1420.01,-445.26 1435.88,-453.91"/>
<polygon fill="#9a32cd" stroke="#9a32cd" points="766.23,-223.28 755.67,-224.09 764.43,-230.04 766.23,-223.28"/>
<text text-anchor="middle" x="1028" y="-326.78" font-family="Helvetica,sans-Serif" font-size="10.00"> match</text>
</g>
<!-- Node12 -->
<g id="node12" class="node">
<title>Node12</title>
<g id="a_node12"><a xlink:title=" ">
<polygon fill="white" stroke="#666666" points="459,-131.28 345,-131.28 345,-112.28 459,-112.28 459,-131.28"/>
<text text-anchor="middle" x="402" y="-119.28" font-family="Helvetica,sans-Serif" font-size="10.00">static const wchar_t</text>
</a>
</g>
</g>
<!-- Node12&#45;&gt;Node11 -->
<g id="edge13" class="edge">
<title>Node12&#45;&gt;Node11</title>
<path fill="none" stroke="#9a32cd" stroke-dasharray="5,2" d="M470.63,-112.85C523.78,-109.02 598.08,-110.92 655,-140.78 681.98,-154.94 701.03,-187.37 709.33,-203.82"/>
<polygon fill="#9a32cd" stroke="#9a32cd" points="470.48,-109.35 460.8,-113.65 471.05,-116.33 470.48,-109.35"/>
<text text-anchor="middle" x="574" y="-143.78" font-family="Helvetica,sans-Serif" font-size="10.00"> FULLTEXT_SEARCH_CHARACTER</text>
</g>
<!-- Node13 -->
<g id="node13" class="node">
<title>Node13</title>
<g id="a_node13"><a xlink:title=" ">
<polygon fill="white" stroke="#666666" points="428.5,-69.28 375.5,-69.28 375.5,-50.28 428.5,-50.28 428.5,-69.28"/>
<text text-anchor="middle" x="402" y="-57.28" font-family="Helvetica,sans-Serif" font-size="10.00">wstring</text>
</a>
</g>
</g>
<!-- Node13&#45;&gt;Node11 -->
<g id="edge14" class="edge">
<title>Node13&#45;&gt;Node11</title>
<path fill="none" stroke="#9a32cd" stroke-dasharray="5,2" d="M439.85,-55.51C501.27,-49.17 621.21,-40.37 655,-63.78 703.07,-97.09 711.98,-175.99 713.63,-203.84"/>
<polygon fill="#9a32cd" stroke="#9a32cd" points="439.81,-51.99 430.24,-56.54 440.56,-58.95 439.81,-51.99"/>
<text text-anchor="middle" x="574" y="-99.78" font-family="Helvetica,sans-Serif" font-size="10.00"> name</text>
<text text-anchor="middle" x="574" y="-88.78" font-family="Helvetica,sans-Serif" font-size="10.00">subtext</text>
<text text-anchor="middle" x="574" y="-77.78" font-family="Helvetica,sans-Serif" font-size="10.00">text</text>
<text text-anchor="middle" x="574" y="-66.78" font-family="Helvetica,sans-Serif" font-size="10.00">typeName</text>
</g>
<!-- Node14 -->
<g id="node14" class="node">
<title>Node14</title>
<g id="a_node14"><a xlink:title=" ">
<polygon fill="white" stroke="#666666" points="441.5,-32.28 362.5,-32.28 362.5,-13.28 441.5,-13.28 441.5,-32.28"/>
<text text-anchor="middle" x="402" y="-20.28" font-family="Helvetica,sans-Serif" font-size="10.00">vector&lt; Id &gt;</text>
</a>
</g>
</g>
<!-- Node14&#45;&gt;Node11 -->
<g id="edge15" class="edge">
<title>Node14&#45;&gt;Node11</title>
<path fill="none" stroke="#9a32cd" stroke-dasharray="5,2" d="M449.66,-10.33C504.62,1.36 595.88,11.06 655,-33.78 710.81,-76.11 714.59,-172.61 714.29,-203.84"/>
<polygon fill="#9a32cd" stroke="#9a32cd" points="448.98,-6.89 439.99,-12.5 450.51,-13.72 448.98,-6.89"/>
<text text-anchor="middle" x="574" y="-36.78" font-family="Helvetica,sans-Serif" font-size="10.00"> tokenIds</text>
</g>
<!-- Node15 -->
<g id="node15" class="node">
<title>Node15</title>
<g id="a_node15"><a xlink:title=" ">
<polygon fill="white" stroke="#666666" points="475,-316.28 329,-316.28 329,-297.28 475,-297.28 475,-316.28"/>
<text text-anchor="middle" x="402" y="-304.28" font-family="Helvetica,sans-Serif" font-size="10.00">vector&lt; NameHierarchy &gt;</text>
</a>
</g>
</g>
<!-- Node15&#45;&gt;Node11 -->
<g id="edge16" class="edge">
<title>Node15&#45;&gt;Node11</title>
<path fill="none" stroke="#9a32cd" stroke-dasharray="5,2" d="M486.63,-305.5C548.41,-303.31 626.5,-297.59 655,-282.78 681.01,-269.27 700.37,-238.97 709.01,-223.41"/>
<polygon fill="#9a32cd" stroke="#9a32cd" points="486.7,-301.99 476.82,-305.82 486.93,-308.99 486.7,-301.99"/>
<text text-anchor="middle" x="574" y="-308.78" font-family="Helvetica,sans-Serif" font-size="10.00"> tokenNames</text>
</g>
<!-- Node16 -->
<g id="node16" class="node">
<title>Node16</title>
<g id="a_node16"><a xlink:href="classNodeType.html" target="_top" xlink:title=" ">
<polygon fill="white" stroke="#666666" points="434.5,-279.28 369.5,-279.28 369.5,-260.28 434.5,-260.28 434.5,-279.28"/>
<text text-anchor="middle" x="402" y="-267.28" font-family="Helvetica,sans-Serif" font-size="10.00">NodeType</text>
</a>
</g>
</g>
<!-- Node16&#45;&gt;Node11 -->
<g id="edge17" class="edge">
<title>Node16&#45;&gt;Node11</title>
<path fill="none" stroke="#9a32cd" stroke-dasharray="5,2" d="M445.92,-269.71C496.78,-268.59 583.64,-263.44 655,-242.78 670.35,-238.34 686.56,-230.08 698.09,-223.51"/>
<polygon fill="#9a32cd" stroke="#9a32cd" points="446.17,-266.2 436.23,-269.88 446.29,-273.2 446.17,-266.2"/>
<text text-anchor="middle" x="574" y="-270.78" font-family="Helvetica,sans-Serif" font-size="10.00"> nodeType</text>
</g>
<!-- Node17 -->
<g id="node17" class="node">
<title>Node17</title>
<g id="a_node17"><a xlink:title=" ">
<polygon fill="white" stroke="#666666" points="118,-305.78 0,-305.78 0,-275.78 118,-275.78 118,-305.78"/>
<text text-anchor="start" x="8" y="-293.78" font-family="Helvetica,sans-Serif" font-size="10.00">vector&lt; NodeType &gt;</text>
<text text-anchor="middle" x="59" y="-282.78" font-family="Helvetica,sans-Serif" font-size="10.00"> const</text>
</a>
</g>
</g>
<!-- Node17&#45;&gt;Node16 -->
<g id="edge18" class="edge">
<title>Node17&#45;&gt;Node16</title>
<path fill="none" stroke="#9a32cd" stroke-dasharray="5,2" d="M129.64,-286.49C202.85,-281.99 314.81,-275.09 369.17,-271.74"/>
<polygon fill="#9a32cd" stroke="#9a32cd" points="129.51,-283 119.74,-287.1 129.94,-289.98 129.51,-283"/>
<text text-anchor="middle" x="223.5" y="-288.78" font-family="Helvetica,sans-Serif" font-size="10.00"> overviewBundleNodeTypesOrdered</text>
</g>
<!-- Node18 -->
<g id="node18" class="node">
<title>Node18</title>
<g id="a_node18"><a xlink:title=" ">
<polygon fill="white" stroke="#666666" points="91,-257.28 27,-257.28 27,-238.28 91,-238.28 91,-257.28"/>
<text text-anchor="middle" x="59" y="-245.28" font-family="Helvetica,sans-Serif" font-size="10.00">NodeKind</text>
</a>
</g>
</g>
<!-- Node18&#45;&gt;Node16 -->
<g id="edge19" class="edge">
<title>Node18&#45;&gt;Node16</title>
<path fill="none" stroke="#9a32cd" stroke-dasharray="5,2" d="M102.65,-249.37C152.62,-251.37 237.89,-255.24 311,-260.78 330.42,-262.26 352.14,-264.41 369.38,-266.25"/>
<polygon fill="#9a32cd" stroke="#9a32cd" points="102.98,-245.88 92.85,-248.98 102.7,-252.87 102.98,-245.88"/>
<text text-anchor="middle" x="223.5" y="-263.78" font-family="Helvetica,sans-Serif" font-size="10.00"> m_kind</text>
</g>
<!-- Node19 -->
<g id="node19" class="node">
<title>Node19</title>
<g id="a_node19"><a xlink:title=" ">
<polygon fill="white" stroke="#666666" points="438,-242.28 366,-242.28 366,-223.28 438,-223.28 438,-242.28"/>
<text text-anchor="middle" x="402" y="-230.28" font-family="Helvetica,sans-Serif" font-size="10.00">SearchType</text>
</a>
</g>
</g>
<!-- Node19&#45;&gt;Node11 -->
<g id="edge20" class="edge">
<title>Node19&#45;&gt;Node11</title>
<path fill="none" stroke="#9a32cd" stroke-dasharray="5,2" d="M449.61,-229.94C510.79,-226.2 617.1,-219.7 674.51,-216.2"/>
<polygon fill="#9a32cd" stroke="#9a32cd" points="449.65,-226.43 439.88,-230.53 450.08,-233.41 449.65,-226.43"/>
<text text-anchor="middle" x="574" y="-230.78" font-family="Helvetica,sans-Serif" font-size="10.00"> searchType</text>
</g>
<!-- Node20 -->
<g id="node20" class="node">
<title>Node20</title>
<g id="a_node20"><a xlink:title=" ">
<polygon fill="white" stroke="#666666" points="451,-205.28 353,-205.28 353,-186.28 451,-186.28 451,-205.28"/>
<text text-anchor="middle" x="402" y="-193.28" font-family="Helvetica,sans-Serif" font-size="10.00">vector&lt; size_t &gt;</text>
</a>
</g>
</g>
<!-- Node20&#45;&gt;Node11 -->
<g id="edge21" class="edge">
<title>Node20&#45;&gt;Node11</title>
<path fill="none" stroke="#9a32cd" stroke-dasharray="5,2" d="M462.57,-193.1C513.79,-191.66 589.55,-191.6 655,-199.78 662.31,-200.7 670.04,-202.16 677.4,-203.8"/>
<polygon fill="#9a32cd" stroke="#9a32cd" points="462.46,-189.61 452.57,-193.42 462.67,-196.6 462.46,-189.61"/>
<text text-anchor="middle" x="574" y="-202.78" font-family="Helvetica,sans-Serif" font-size="10.00"> indices</text>
</g>
<!-- Node21 -->
<g id="node21" class="node">
<title>Node21</title>
<g id="a_node21"><a xlink:title=" ">
<polygon fill="white" stroke="#666666" points="416.5,-168.28 387.5,-168.28 387.5,-149.28 416.5,-149.28 416.5,-168.28"/>
<text text-anchor="middle" x="402" y="-156.28" font-family="Helvetica,sans-Serif" font-size="10.00">int</text>
</a>
</g>
</g>
<!-- Node21&#45;&gt;Node11 -->
<g id="edge22" class="edge">
<title>Node21&#45;&gt;Node11</title>
<path fill="none" stroke="#9a32cd" stroke-dasharray="5,2" d="M428.07,-156.87C474.23,-154.16 575.24,-152.1 655,-177.78 672.59,-183.45 690.37,-195.32 701.74,-203.89"/>
<polygon fill="#9a32cd" stroke="#9a32cd" points="428.07,-153.36 418.32,-157.51 428.53,-160.34 428.07,-153.36"/>
<text text-anchor="middle" x="574" y="-180.78" font-family="Helvetica,sans-Serif" font-size="10.00"> score</text>
</g>
</g>
</svg>
