<?xml version="1.0" encoding="UTF-8" standalone="no"?>
<!DOCTYPE svg PUBLIC "-//W3C//DTD SVG 1.1//EN"
 "http://www.w3.org/Graphics/SVG/1.1/DTD/svg11.dtd">
<!-- Generated by graphviz version 7.1.0 (0)
 -->
<!-- Title: SqliteIndexStorage::InsertBatchStatement::execute Pages: 1 -->
<!--zoomable 662 -->
<svg id="main" version="1.1" xmlns="http://www.w3.org/2000/svg" xmlns:xlink="http://www.w3.org/1999/xlink" xml:space="preserve" onload="init(evt)">
<style type="text/css"><![CDATA[
.edge:hover path { stroke: red; }
.edge:hover polygon { stroke: red; fill: red; }
]]></style>
<script type="text/javascript"><![CDATA[
var edges = document.getElementsByTagName('g');
if (edges && edges.length) {
  for (var i=0;i<edges.length;i++) {
    if (edges[i].id.substr(0,4)=='edge') {
      edges[i].setAttribute('class','edge');
    }
  }
}
]]></script>
        <defs>
                <circle id="rim" cx="0" cy="0" r="7"/>
                <circle id="rim2" cx="0" cy="0" r="3.5"/>
                <g id="zoomPlus">
                        <use xlink:href="#rim" fill="#404040">
                                <set attributeName="fill" to="#808080" begin="zoomplus.mouseover" end="zoomplus.mouseout"/>
                        </use>
                        <path d="M-4,0h8M0,-4v8" fill="none" stroke="white" stroke-width="1.5" pointer-events="none"/>
                </g>
                <g id="zoomMin">
                        <use xlink:href="#rim" fill="#404040">
                                <set attributeName="fill" to="#808080" begin="zoomminus.mouseover" end="zoomminus.mouseout"/>
                        </use>
                        <path d="M-4,0h8" fill="none" stroke="white" stroke-width="1.5" pointer-events="none"/>
                </g>
                <g id="dirArrow">
                        <path fill="none" stroke="white" stroke-width="1.5" d="M0,-3.0v7 M-2.5,-0.5L0,-3.0L2.5,-0.5"/>
                </g>
               <g id="resetDef">
                       <use xlink:href="#rim2" fill="#404040">
                               <set attributeName="fill" to="#808080" begin="reset.mouseover" end="reset.mouseout"/>
                       </use>
               </g>
        </defs>

<script type="text/javascript">
var viewWidth = 648;
var viewHeight = 662;
var sectionId = 'dynsection-5';
</script>
<script xlink:href="svgpan.js"/>
<svg id="graph" class="graph">
<g id="viewport">
<title>SqliteIndexStorage::InsertBatchStatement::execute</title>
<!-- Node1 -->
<g id="node1" class="node">
<title>Node1</title>
<g id="a_node1"><a xlink:title=" ">
<polygon fill="#999999" stroke="#666666" points="640,-347.5 511,-347.5 511,-306.5 640,-306.5 640,-347.5"/>
<text text-anchor="start" x="519" y="-335.5" font-family="Helvetica,sans-Serif" font-size="10.00">SqliteIndexStorage</text>
<text text-anchor="start" x="519" y="-324.5" font-family="Helvetica,sans-Serif" font-size="10.00">::InsertBatchStatement</text>
<text text-anchor="middle" x="575.5" y="-313.5" font-family="Helvetica,sans-Serif" font-size="10.00">::execute</text>
</a>
</g>
</g>
<!-- Node2 -->
<g id="node2" class="node">
<title>Node2</title>
<g id="a_node2"><a xlink:href="classSqliteIndexStorage.html#a026843fa3abde4e7755b4c54005eac62" target="_top" xlink:title=" ">
<polygon fill="white" stroke="#666666" points="475,-606 333,-606 333,-576 475,-576 475,-606"/>
<text text-anchor="start" x="341" y="-594" font-family="Helvetica,sans-Serif" font-size="10.00">SqliteIndexStorage</text>
<text text-anchor="middle" x="404" y="-583" font-family="Helvetica,sans-Serif" font-size="10.00">::addComponentAccesses</text>
</a>
</g>
</g>
<!-- Node1&#45;&gt;Node2 -->
<g id="edge1" class="edge">
<title>Node1&#45;&gt;Node2</title>
<path fill="none" stroke="#63b8ff" d="M561.71,-358.26C544.85,-397.64 512.85,-466.5 475,-519 459.5,-540.49 437.73,-561.85 422.6,-575.65"/>
<polygon fill="#63b8ff" stroke="#63b8ff" points="564.89,-359.71 565.56,-349.14 558.45,-356.99 564.89,-359.71"/>
</g>
<!-- Node6 -->
<g id="node6" class="node">
<title>Node6</title>
<g id="a_node6"><a xlink:href="classSqliteIndexStorage.html#acb4c667ef557a411548effdc7770d828" target="_top" xlink:title=" ">
<polygon fill="white" stroke="#666666" points="458.5,-510 349.5,-510 349.5,-480 458.5,-480 458.5,-510"/>
<text text-anchor="start" x="357.5" y="-498" font-family="Helvetica,sans-Serif" font-size="10.00">SqliteIndexStorage</text>
<text text-anchor="middle" x="404" y="-487" font-family="Helvetica,sans-Serif" font-size="10.00">::addEdges</text>
</a>
</g>
</g>
<!-- Node1&#45;&gt;Node6 -->
<g id="edge5" class="edge">
<title>Node1&#45;&gt;Node6</title>
<path fill="none" stroke="#63b8ff" d="M545.6,-355.64C509.39,-391.53 448.65,-451.73 420.36,-479.77"/>
<polygon fill="#63b8ff" stroke="#63b8ff" points="547.66,-358.53 552.3,-349 542.73,-353.56 547.66,-358.53"/>
</g>
<!-- Node10 -->
<g id="node10" class="node">
<title>Node10</title>
<g id="a_node10"><a xlink:href="classSqliteIndexStorage.html#abbaf0894d9a0bb1c8044da3d9b0c066a" target="_top" xlink:title=" ">
<polygon fill="white" stroke="#666666" points="458.5,-414 349.5,-414 349.5,-384 458.5,-384 458.5,-414"/>
<text text-anchor="start" x="357.5" y="-402" font-family="Helvetica,sans-Serif" font-size="10.00">SqliteIndexStorage</text>
<text text-anchor="middle" x="404" y="-391" font-family="Helvetica,sans-Serif" font-size="10.00">::addLocalSymbols</text>
</a>
</g>
</g>
<!-- Node1&#45;&gt;Node10 -->
<g id="edge9" class="edge">
<title>Node1&#45;&gt;Node10</title>
<path fill="none" stroke="#63b8ff" d="M515.14,-352.21C490.52,-362.67 462.76,-374.47 441.26,-383.6"/>
<polygon fill="#63b8ff" stroke="#63b8ff" points="516.24,-355.55 524.08,-348.42 513.51,-349.11 516.24,-355.55"/>
</g>
<!-- Node14 -->
<g id="node14" class="node">
<title>Node14</title>
<g id="a_node14"><a xlink:href="classSqliteIndexStorage.html#a1195312ee7f47adb404a9da8ed32ad52" target="_top" xlink:title=" ">
<polygon fill="white" stroke="#666666" points="458.5,-342 349.5,-342 349.5,-312 458.5,-312 458.5,-342"/>
<text text-anchor="start" x="357.5" y="-330" font-family="Helvetica,sans-Serif" font-size="10.00">SqliteIndexStorage</text>
<text text-anchor="middle" x="404" y="-319" font-family="Helvetica,sans-Serif" font-size="10.00">::addNodes</text>
</a>
</g>
</g>
<!-- Node1&#45;&gt;Node14 -->
<g id="edge13" class="edge">
<title>Node1&#45;&gt;Node14</title>
<path fill="none" stroke="#63b8ff" d="M499.54,-327C485.88,-327 471.87,-327 458.96,-327"/>
<polygon fill="#63b8ff" stroke="#63b8ff" points="499.39,-330.5 509.39,-327 499.39,-323.5 499.39,-330.5"/>
</g>
<!-- Node18 -->
<g id="node18" class="node">
<title>Node18</title>
<g id="a_node18"><a xlink:href="classSqliteIndexStorage.html#a0cf034cbb4e9e6b84d39daff43ef503e" target="_top" xlink:title=" ">
<polygon fill="white" stroke="#666666" points="458.5,-270 349.5,-270 349.5,-240 458.5,-240 458.5,-270"/>
<text text-anchor="start" x="357.5" y="-258" font-family="Helvetica,sans-Serif" font-size="10.00">SqliteIndexStorage</text>
<text text-anchor="middle" x="404" y="-247" font-family="Helvetica,sans-Serif" font-size="10.00">::addOccurrences</text>
</a>
</g>
</g>
<!-- Node1&#45;&gt;Node18 -->
<g id="edge17" class="edge">
<title>Node1&#45;&gt;Node18</title>
<path fill="none" stroke="#63b8ff" d="M515.14,-301.79C490.52,-291.33 462.76,-279.53 441.26,-270.4"/>
<polygon fill="#63b8ff" stroke="#63b8ff" points="513.51,-304.89 524.08,-305.58 516.24,-298.45 513.51,-304.89"/>
</g>
<!-- Node22 -->
<g id="node22" class="node">
<title>Node22</title>
<g id="a_node22"><a xlink:href="classSqliteIndexStorage.html#a15b50bc2041234feed8df7536863736d" target="_top" xlink:title=" ">
<polygon fill="white" stroke="#666666" points="464,-174 344,-174 344,-144 464,-144 464,-174"/>
<text text-anchor="start" x="352" y="-162" font-family="Helvetica,sans-Serif" font-size="10.00">SqliteIndexStorage</text>
<text text-anchor="middle" x="404" y="-151" font-family="Helvetica,sans-Serif" font-size="10.00">::addSourceLocations</text>
</a>
</g>
</g>
<!-- Node1&#45;&gt;Node22 -->
<g id="edge21" class="edge">
<title>Node1&#45;&gt;Node22</title>
<path fill="none" stroke="#63b8ff" d="M545.6,-298.36C509.39,-262.47 448.65,-202.27 420.36,-174.23"/>
<polygon fill="#63b8ff" stroke="#63b8ff" points="542.73,-300.44 552.3,-305 547.66,-295.47 542.73,-300.44"/>
</g>
<!-- Node26 -->
<g id="node26" class="node">
<title>Node26</title>
<g id="a_node26"><a xlink:href="classSqliteIndexStorage.html#ad39542b9a8a8b4b638fd762b46e8231f" target="_top" xlink:title=" ">
<polygon fill="white" stroke="#666666" points="458.5,-78 349.5,-78 349.5,-48 458.5,-48 458.5,-78"/>
<text text-anchor="start" x="357.5" y="-66" font-family="Helvetica,sans-Serif" font-size="10.00">SqliteIndexStorage</text>
<text text-anchor="middle" x="404" y="-55" font-family="Helvetica,sans-Serif" font-size="10.00">::addSymbols</text>
</a>
</g>
</g>
<!-- Node1&#45;&gt;Node26 -->
<g id="edge25" class="edge">
<title>Node1&#45;&gt;Node26</title>
<path fill="none" stroke="#63b8ff" d="M561.71,-295.74C544.85,-256.36 512.85,-187.5 475,-135 459.5,-113.51 437.73,-92.15 422.6,-78.35"/>
<polygon fill="#63b8ff" stroke="#63b8ff" points="558.45,-297.01 565.56,-304.86 564.89,-294.29 558.45,-297.01"/>
</g>
<!-- Node3 -->
<g id="node3" class="node">
<title>Node3</title>
<g id="a_node3"><a xlink:href="classSqliteIndexStorage.html#a8aed420b706a2476db78436272b8b4fe" target="_top" xlink:title=" ">
<polygon fill="white" stroke="#666666" points="294.5,-654 163.5,-654 163.5,-624 294.5,-624 294.5,-654"/>
<text text-anchor="start" x="171.5" y="-642" font-family="Helvetica,sans-Serif" font-size="10.00">SqliteIndexStorage</text>
<text text-anchor="middle" x="229" y="-631" font-family="Helvetica,sans-Serif" font-size="10.00">::addComponentAccess</text>
</a>
</g>
</g>
<!-- Node2&#45;&gt;Node3 -->
<g id="edge2" class="edge">
<title>Node2&#45;&gt;Node3</title>
<path fill="none" stroke="#63b8ff" d="M336.45,-609.46C319.65,-614.13 301.78,-619.08 285.59,-623.58"/>
<polygon fill="#63b8ff" stroke="#63b8ff" points="337.15,-612.9 345.85,-606.86 335.28,-606.16 337.15,-612.9"/>
</g>
<!-- Node5 -->
<g id="node5" class="node">
<title>Node5</title>
<g id="a_node5"><a xlink:href="classPersistentStorage.html#ac3e78d25db60fbf933d773e391d48d5d" target="_top" xlink:title=" ">
<polygon fill="white" stroke="#666666" points="297,-606 161,-606 161,-576 297,-576 297,-606"/>
<text text-anchor="start" x="169" y="-594" font-family="Helvetica,sans-Serif" font-size="10.00">PersistentStorage::</text>
<text text-anchor="middle" x="229" y="-583" font-family="Helvetica,sans-Serif" font-size="10.00">addComponentAccesses</text>
</a>
</g>
</g>
<!-- Node2&#45;&gt;Node5 -->
<g id="edge4" class="edge">
<title>Node2&#45;&gt;Node5</title>
<path fill="none" stroke="#63b8ff" d="M321.3,-591C313.24,-591 305.12,-591 297.23,-591"/>
<polygon fill="#63b8ff" stroke="#63b8ff" points="321.12,-594.5 331.12,-591 321.12,-587.5 321.12,-594.5"/>
</g>
<!-- Node4 -->
<g id="node4" class="node">
<title>Node4</title>
<g id="a_node4"><a xlink:href="classPersistentStorage.html#a17e8b67035e8162ec3b552b9d922c21c" target="_top" xlink:title=" ">
<polygon fill="white" stroke="#666666" points="125,-654 0,-654 0,-624 125,-624 125,-654"/>
<text text-anchor="start" x="8" y="-642" font-family="Helvetica,sans-Serif" font-size="10.00">PersistentStorage::</text>
<text text-anchor="middle" x="62.5" y="-631" font-family="Helvetica,sans-Serif" font-size="10.00">addComponentAccess</text>
</a>
</g>
</g>
<!-- Node3&#45;&gt;Node4 -->
<g id="edge3" class="edge">
<title>Node3&#45;&gt;Node4</title>
<path fill="none" stroke="#63b8ff" d="M152.19,-639C143.23,-639 134.17,-639 125.43,-639"/>
<polygon fill="#63b8ff" stroke="#63b8ff" points="151.94,-642.5 161.94,-639 151.94,-635.5 151.94,-642.5"/>
</g>
<!-- Node7 -->
<g id="node7" class="node">
<title>Node7</title>
<g id="a_node7"><a xlink:href="classSqliteIndexStorage.html#a24705db2396e228e40cfbe302361a228" target="_top" xlink:title=" ">
<polygon fill="white" stroke="#666666" points="283.5,-558 174.5,-558 174.5,-528 283.5,-528 283.5,-558"/>
<text text-anchor="start" x="182.5" y="-546" font-family="Helvetica,sans-Serif" font-size="10.00">SqliteIndexStorage</text>
<text text-anchor="middle" x="229" y="-535" font-family="Helvetica,sans-Serif" font-size="10.00">::addEdge</text>
</a>
</g>
</g>
<!-- Node6&#45;&gt;Node7 -->
<g id="edge6" class="edge">
<title>Node6&#45;&gt;Node7</title>
<path fill="none" stroke="#63b8ff" d="M338.24,-512.97C320.29,-517.95 301,-523.3 283.76,-528.08"/>
<polygon fill="#63b8ff" stroke="#63b8ff" points="339.05,-516.38 347.75,-510.33 337.18,-509.63 339.05,-516.38"/>
</g>
<!-- Node9 -->
<g id="node9" class="node">
<title>Node9</title>
<g id="a_node9"><a xlink:href="classPersistentStorage.html#a95a2bb75ae755580c86559d29ec81bd9" target="_top" xlink:title=" ">
<polygon fill="white" stroke="#666666" points="283.5,-510 174.5,-510 174.5,-480 283.5,-480 283.5,-510"/>
<text text-anchor="start" x="182.5" y="-498" font-family="Helvetica,sans-Serif" font-size="10.00">PersistentStorage::</text>
<text text-anchor="middle" x="229" y="-487" font-family="Helvetica,sans-Serif" font-size="10.00">addEdges</text>
</a>
</g>
</g>
<!-- Node6&#45;&gt;Node9 -->
<g id="edge8" class="edge">
<title>Node6&#45;&gt;Node9</title>
<path fill="none" stroke="#63b8ff" d="M337.73,-495C319.92,-495 300.84,-495 283.76,-495"/>
<polygon fill="#63b8ff" stroke="#63b8ff" points="337.7,-498.5 347.7,-495 337.7,-491.5 337.7,-498.5"/>
</g>
<!-- Node8 -->
<g id="node8" class="node">
<title>Node8</title>
<g id="a_node8"><a xlink:href="classPersistentStorage.html#af2974a85285b20859b173a16b32547d8" target="_top" xlink:title=" ">
<polygon fill="white" stroke="#666666" points="117,-558 8,-558 8,-528 117,-528 117,-558"/>
<text text-anchor="start" x="16" y="-546" font-family="Helvetica,sans-Serif" font-size="10.00">PersistentStorage::</text>
<text text-anchor="middle" x="62.5" y="-535" font-family="Helvetica,sans-Serif" font-size="10.00">addEdge</text>
</a>
</g>
</g>
<!-- Node7&#45;&gt;Node8 -->
<g id="edge7" class="edge">
<title>Node7&#45;&gt;Node8</title>
<path fill="none" stroke="#63b8ff" d="M162.83,-543C147.8,-543 131.98,-543 117.48,-543"/>
<polygon fill="#63b8ff" stroke="#63b8ff" points="162.62,-546.5 172.62,-543 162.62,-539.5 162.62,-546.5"/>
</g>
<!-- Node11 -->
<g id="node11" class="node">
<title>Node11</title>
<g id="a_node11"><a xlink:href="classSqliteIndexStorage.html#a3ebdbfbc928f92a9e3f3acbca2bb19c5" target="_top" xlink:title=" ">
<polygon fill="white" stroke="#666666" points="283.5,-462 174.5,-462 174.5,-432 283.5,-432 283.5,-462"/>
<text text-anchor="start" x="182.5" y="-450" font-family="Helvetica,sans-Serif" font-size="10.00">SqliteIndexStorage</text>
<text text-anchor="middle" x="229" y="-439" font-family="Helvetica,sans-Serif" font-size="10.00">::addLocalSymbol</text>
</a>
</g>
</g>
<!-- Node10&#45;&gt;Node11 -->
<g id="edge10" class="edge">
<title>Node10&#45;&gt;Node11</title>
<path fill="none" stroke="#63b8ff" d="M338.24,-416.97C320.29,-421.95 301,-427.3 283.76,-432.08"/>
<polygon fill="#63b8ff" stroke="#63b8ff" points="339.05,-420.38 347.75,-414.33 337.18,-413.63 339.05,-420.38"/>
</g>
<!-- Node13 -->
<g id="node13" class="node">
<title>Node13</title>
<g id="a_node13"><a xlink:href="classPersistentStorage.html#adcb8a27515b1e3bdbe61cb93269a9d93" target="_top" xlink:title=" ">
<polygon fill="white" stroke="#666666" points="283.5,-414 174.5,-414 174.5,-384 283.5,-384 283.5,-414"/>
<text text-anchor="start" x="182.5" y="-402" font-family="Helvetica,sans-Serif" font-size="10.00">PersistentStorage::</text>
<text text-anchor="middle" x="229" y="-391" font-family="Helvetica,sans-Serif" font-size="10.00">addLocalSymbols</text>
</a>
</g>
</g>
<!-- Node10&#45;&gt;Node13 -->
<g id="edge12" class="edge">
<title>Node10&#45;&gt;Node13</title>
<path fill="none" stroke="#63b8ff" d="M337.73,-399C319.92,-399 300.84,-399 283.76,-399"/>
<polygon fill="#63b8ff" stroke="#63b8ff" points="337.7,-402.5 347.7,-399 337.7,-395.5 337.7,-402.5"/>
</g>
<!-- Node12 -->
<g id="node12" class="node">
<title>Node12</title>
<g id="a_node12"><a xlink:href="classPersistentStorage.html#a5ebc7dc9faf17d61e842bbc6a6f8cab6" target="_top" xlink:title=" ">
<polygon fill="white" stroke="#666666" points="117,-462 8,-462 8,-432 117,-432 117,-462"/>
<text text-anchor="start" x="16" y="-450" font-family="Helvetica,sans-Serif" font-size="10.00">PersistentStorage::</text>
<text text-anchor="middle" x="62.5" y="-439" font-family="Helvetica,sans-Serif" font-size="10.00">addLocalSymbol</text>
</a>
</g>
</g>
<!-- Node11&#45;&gt;Node12 -->
<g id="edge11" class="edge">
<title>Node11&#45;&gt;Node12</title>
<path fill="none" stroke="#63b8ff" d="M162.83,-447C147.8,-447 131.98,-447 117.48,-447"/>
<polygon fill="#63b8ff" stroke="#63b8ff" points="162.62,-450.5 172.62,-447 162.62,-443.5 162.62,-450.5"/>
</g>
<!-- Node15 -->
<g id="node15" class="node">
<title>Node15</title>
<g id="a_node15"><a xlink:href="classSqliteIndexStorage.html#a84c1821b714be392b585f11387cb77d9" target="_top" xlink:title=" ">
<polygon fill="white" stroke="#666666" points="283.5,-366 174.5,-366 174.5,-336 283.5,-336 283.5,-366"/>
<text text-anchor="start" x="182.5" y="-354" font-family="Helvetica,sans-Serif" font-size="10.00">SqliteIndexStorage</text>
<text text-anchor="middle" x="229" y="-343" font-family="Helvetica,sans-Serif" font-size="10.00">::addNode</text>
</a>
</g>
</g>
<!-- Node14&#45;&gt;Node15 -->
<g id="edge14" class="edge">
<title>Node14&#45;&gt;Node15</title>
<path fill="none" stroke="#63b8ff" d="M337.98,-336.02C320.11,-338.5 300.92,-341.16 283.76,-343.54"/>
<polygon fill="#63b8ff" stroke="#63b8ff" points="338.29,-339.51 347.71,-334.67 337.32,-332.58 338.29,-339.51"/>
</g>
<!-- Node17 -->
<g id="node17" class="node">
<title>Node17</title>
<g id="a_node17"><a xlink:href="classPersistentStorage.html#a7fed17c9a0f386725122c37e1b2b2523" target="_top" xlink:title=" ">
<polygon fill="white" stroke="#666666" points="283.5,-318 174.5,-318 174.5,-288 283.5,-288 283.5,-318"/>
<text text-anchor="start" x="182.5" y="-306" font-family="Helvetica,sans-Serif" font-size="10.00">PersistentStorage::</text>
<text text-anchor="middle" x="229" y="-295" font-family="Helvetica,sans-Serif" font-size="10.00">addNodes</text>
</a>
</g>
</g>
<!-- Node14&#45;&gt;Node17 -->
<g id="edge16" class="edge">
<title>Node14&#45;&gt;Node17</title>
<path fill="none" stroke="#63b8ff" d="M337.98,-317.98C320.11,-315.5 300.92,-312.84 283.76,-310.46"/>
<polygon fill="#63b8ff" stroke="#63b8ff" points="337.32,-321.42 347.71,-319.33 338.29,-314.49 337.32,-321.42"/>
</g>
<!-- Node16 -->
<g id="node16" class="node">
<title>Node16</title>
<g id="a_node16"><a xlink:href="classPersistentStorage.html#a205d5aba3025573043386cefbf9bcd97" target="_top" xlink:title=" ">
<polygon fill="white" stroke="#666666" points="117,-366 8,-366 8,-336 117,-336 117,-366"/>
<text text-anchor="start" x="16" y="-354" font-family="Helvetica,sans-Serif" font-size="10.00">PersistentStorage::</text>
<text text-anchor="middle" x="62.5" y="-343" font-family="Helvetica,sans-Serif" font-size="10.00">addNode</text>
</a>
</g>
</g>
<!-- Node15&#45;&gt;Node16 -->
<g id="edge15" class="edge">
<title>Node15&#45;&gt;Node16</title>
<path fill="none" stroke="#63b8ff" d="M162.83,-351C147.8,-351 131.98,-351 117.48,-351"/>
<polygon fill="#63b8ff" stroke="#63b8ff" points="162.62,-354.5 172.62,-351 162.62,-347.5 162.62,-354.5"/>
</g>
<!-- Node19 -->
<g id="node19" class="node">
<title>Node19</title>
<g id="a_node19"><a xlink:href="classSqliteIndexStorage.html#a0817f9fc93a49191dc7e52d41f0c555b" target="_top" xlink:title=" ">
<polygon fill="white" stroke="#666666" points="283.5,-270 174.5,-270 174.5,-240 283.5,-240 283.5,-270"/>
<text text-anchor="start" x="182.5" y="-258" font-family="Helvetica,sans-Serif" font-size="10.00">SqliteIndexStorage</text>
<text text-anchor="middle" x="229" y="-247" font-family="Helvetica,sans-Serif" font-size="10.00">::addOccurrence</text>
</a>
</g>
</g>
<!-- Node18&#45;&gt;Node19 -->
<g id="edge18" class="edge">
<title>Node18&#45;&gt;Node19</title>
<path fill="none" stroke="#63b8ff" d="M337.73,-255C319.92,-255 300.84,-255 283.76,-255"/>
<polygon fill="#63b8ff" stroke="#63b8ff" points="337.7,-258.5 347.7,-255 337.7,-251.5 337.7,-258.5"/>
</g>
<!-- Node21 -->
<g id="node21" class="node">
<title>Node21</title>
<g id="a_node21"><a xlink:href="classPersistentStorage.html#a28ea7ebaa4fc9b4cc2a5b6a5ec1c6486" target="_top" xlink:title=" ">
<polygon fill="white" stroke="#666666" points="283.5,-222 174.5,-222 174.5,-192 283.5,-192 283.5,-222"/>
<text text-anchor="start" x="182.5" y="-210" font-family="Helvetica,sans-Serif" font-size="10.00">PersistentStorage::</text>
<text text-anchor="middle" x="229" y="-199" font-family="Helvetica,sans-Serif" font-size="10.00">addOccurrences</text>
</a>
</g>
</g>
<!-- Node18&#45;&gt;Node21 -->
<g id="edge20" class="edge">
<title>Node18&#45;&gt;Node21</title>
<path fill="none" stroke="#63b8ff" d="M338.24,-237.03C320.29,-232.05 301,-226.7 283.76,-221.92"/>
<polygon fill="#63b8ff" stroke="#63b8ff" points="337.18,-240.37 347.75,-239.67 339.05,-233.62 337.18,-240.37"/>
</g>
<!-- Node20 -->
<g id="node20" class="node">
<title>Node20</title>
<g id="a_node20"><a xlink:href="classPersistentStorage.html#a36edf73dd34b0963781b6699d4a9d084" target="_top" xlink:title=" ">
<polygon fill="white" stroke="#666666" points="117,-270 8,-270 8,-240 117,-240 117,-270"/>
<text text-anchor="start" x="16" y="-258" font-family="Helvetica,sans-Serif" font-size="10.00">PersistentStorage::</text>
<text text-anchor="middle" x="62.5" y="-247" font-family="Helvetica,sans-Serif" font-size="10.00">addOccurrence</text>
</a>
</g>
</g>
<!-- Node19&#45;&gt;Node20 -->
<g id="edge19" class="edge">
<title>Node19&#45;&gt;Node20</title>
<path fill="none" stroke="#63b8ff" d="M162.83,-255C147.8,-255 131.98,-255 117.48,-255"/>
<polygon fill="#63b8ff" stroke="#63b8ff" points="162.62,-258.5 172.62,-255 162.62,-251.5 162.62,-258.5"/>
</g>
<!-- Node23 -->
<g id="node23" class="node">
<title>Node23</title>
<g id="a_node23"><a xlink:href="classSqliteIndexStorage.html#a6e673b40a1a03faf0510ce92075bd898" target="_top" xlink:title=" ">
<polygon fill="white" stroke="#666666" points="286.5,-174 171.5,-174 171.5,-144 286.5,-144 286.5,-174"/>
<text text-anchor="start" x="179.5" y="-162" font-family="Helvetica,sans-Serif" font-size="10.00">SqliteIndexStorage</text>
<text text-anchor="middle" x="229" y="-151" font-family="Helvetica,sans-Serif" font-size="10.00">::addSourceLocation</text>
</a>
</g>
</g>
<!-- Node22&#45;&gt;Node23 -->
<g id="edge22" class="edge">
<title>Node22&#45;&gt;Node23</title>
<path fill="none" stroke="#63b8ff" d="M332.47,-159C317.26,-159 301.35,-159 286.74,-159"/>
<polygon fill="#63b8ff" stroke="#63b8ff" points="332.43,-162.5 342.43,-159 332.43,-155.5 332.43,-162.5"/>
</g>
<!-- Node25 -->
<g id="node25" class="node">
<title>Node25</title>
<g id="a_node25"><a xlink:href="classPersistentStorage.html#a1952f2f981db9904705d857dfe6e55e3" target="_top" xlink:title=" ">
<polygon fill="white" stroke="#666666" points="286,-126 172,-126 172,-96 286,-96 286,-126"/>
<text text-anchor="start" x="180" y="-114" font-family="Helvetica,sans-Serif" font-size="10.00">PersistentStorage::</text>
<text text-anchor="middle" x="229" y="-103" font-family="Helvetica,sans-Serif" font-size="10.00">addSourceLocations</text>
</a>
</g>
</g>
<!-- Node22&#45;&gt;Node25 -->
<g id="edge24" class="edge">
<title>Node22&#45;&gt;Node25</title>
<path fill="none" stroke="#63b8ff" d="M336.45,-140.54C319.65,-135.87 301.78,-130.92 285.59,-126.42"/>
<polygon fill="#63b8ff" stroke="#63b8ff" points="335.28,-143.84 345.85,-143.14 337.15,-137.1 335.28,-143.84"/>
</g>
<!-- Node24 -->
<g id="node24" class="node">
<title>Node24</title>
<g id="a_node24"><a xlink:href="classPersistentStorage.html#ad9690a494fe94f5da99e82e10b0195e8" target="_top" xlink:title=" ">
<polygon fill="white" stroke="#666666" points="117,-174 8,-174 8,-144 117,-144 117,-174"/>
<text text-anchor="start" x="16" y="-162" font-family="Helvetica,sans-Serif" font-size="10.00">PersistentStorage::</text>
<text text-anchor="middle" x="62.5" y="-151" font-family="Helvetica,sans-Serif" font-size="10.00">addSourceLocation</text>
</a>
</g>
</g>
<!-- Node23&#45;&gt;Node24 -->
<g id="edge23" class="edge">
<title>Node23&#45;&gt;Node24</title>
<path fill="none" stroke="#63b8ff" d="M160.14,-159C145.91,-159 131.08,-159 117.44,-159"/>
<polygon fill="#63b8ff" stroke="#63b8ff" points="159.87,-162.5 169.87,-159 159.87,-155.5 159.87,-162.5"/>
</g>
<!-- Node27 -->
<g id="node27" class="node">
<title>Node27</title>
<g id="a_node27"><a xlink:href="classSqliteIndexStorage.html#a699fc5d275bfeed52f17fff3576aa833" target="_top" xlink:title=" ">
<polygon fill="white" stroke="#666666" points="283.5,-78 174.5,-78 174.5,-48 283.5,-48 283.5,-78"/>
<text text-anchor="start" x="182.5" y="-66" font-family="Helvetica,sans-Serif" font-size="10.00">SqliteIndexStorage</text>
<text text-anchor="middle" x="229" y="-55" font-family="Helvetica,sans-Serif" font-size="10.00">::addSymbol</text>
</a>
</g>
</g>
<!-- Node26&#45;&gt;Node27 -->
<g id="edge26" class="edge">
<title>Node26&#45;&gt;Node27</title>
<path fill="none" stroke="#63b8ff" d="M337.73,-63C319.92,-63 300.84,-63 283.76,-63"/>
<polygon fill="#63b8ff" stroke="#63b8ff" points="337.7,-66.5 347.7,-63 337.7,-59.5 337.7,-66.5"/>
</g>
<!-- Node29 -->
<g id="node29" class="node">
<title>Node29</title>
<g id="a_node29"><a xlink:href="classPersistentStorage.html#a0aee29179447b575ef1ff68ecf678cd3" target="_top" xlink:title=" ">
<polygon fill="white" stroke="#666666" points="283.5,-30 174.5,-30 174.5,0 283.5,0 283.5,-30"/>
<text text-anchor="start" x="182.5" y="-18" font-family="Helvetica,sans-Serif" font-size="10.00">PersistentStorage::</text>
<text text-anchor="middle" x="229" y="-7" font-family="Helvetica,sans-Serif" font-size="10.00">addSymbols</text>
</a>
</g>
</g>
<!-- Node26&#45;&gt;Node29 -->
<g id="edge28" class="edge">
<title>Node26&#45;&gt;Node29</title>
<path fill="none" stroke="#63b8ff" d="M338.24,-45.03C320.29,-40.05 301,-34.7 283.76,-29.92"/>
<polygon fill="#63b8ff" stroke="#63b8ff" points="337.18,-48.37 347.75,-47.67 339.05,-41.62 337.18,-48.37"/>
</g>
<!-- Node28 -->
<g id="node28" class="node">
<title>Node28</title>
<g id="a_node28"><a xlink:href="classPersistentStorage.html#a509048cd3cf11916c4f394934f60d866" target="_top" xlink:title=" ">
<polygon fill="white" stroke="#666666" points="117,-78 8,-78 8,-48 117,-48 117,-78"/>
<text text-anchor="start" x="16" y="-66" font-family="Helvetica,sans-Serif" font-size="10.00">PersistentStorage::</text>
<text text-anchor="middle" x="62.5" y="-55" font-family="Helvetica,sans-Serif" font-size="10.00">addSymbol</text>
</a>
</g>
</g>
<!-- Node27&#45;&gt;Node28 -->
<g id="edge27" class="edge">
<title>Node27&#45;&gt;Node28</title>
<path fill="none" stroke="#63b8ff" d="M162.83,-63C147.8,-63 131.98,-63 117.48,-63"/>
<polygon fill="#63b8ff" stroke="#63b8ff" points="162.62,-66.5 172.62,-63 162.62,-59.5 162.62,-66.5"/>
</g>
</g>
</svg>
        <g id="navigator" transform="translate(0 0)" fill="#404254">
                <rect fill="#f2f5e9" fill-opacity="0.5" stroke="#606060" stroke-width=".5" x="0" y="0" width="60" height="60"/>
                <use id="zoomplus" xlink:href="#zoomPlus" x="17" y="9" onmousedown="handleZoom(evt,'in')"/>
                <use id="zoomminus" xlink:href="#zoomMin" x="42" y="9" onmousedown="handleZoom(evt,'out')"/>
                <use id="reset" xlink:href="#resetDef" x="30" y="36" onmousedown="handleReset()"/>
                <g id="arrowUp" xlink:href="#dirArrow" transform="translate(30 24)" onmousedown="handlePan(0,-1)">
                  <use xlink:href="#rim" fill="#404040">
                        <set attributeName="fill" to="#808080" begin="arrowUp.mouseover" end="arrowUp.mouseout"/>
                  </use>
                  <path fill="none" stroke="white" stroke-width="1.5" d="M0,-3.0v7 M-2.5,-0.5L0,-3.0L2.5,-0.5"/>
                </g>
                <g id="arrowRight" xlink:href="#dirArrow" transform="rotate(90) translate(36 -43)" onmousedown="handlePan(1,0)">
                  <use xlink:href="#rim" fill="#404040">
                        <set attributeName="fill" to="#808080" begin="arrowRight.mouseover" end="arrowRight.mouseout"/>
                  </use>
                  <path fill="none" stroke="white" stroke-width="1.5" d="M0,-3.0v7 M-2.5,-0.5L0,-3.0L2.5,-0.5"/>
                </g>
                <g id="arrowDown" xlink:href="#dirArrow" transform="rotate(180) translate(-30 -48)" onmousedown="handlePan(0,1)">
                  <use xlink:href="#rim" fill="#404040">
                        <set attributeName="fill" to="#808080" begin="arrowDown.mouseover" end="arrowDown.mouseout"/>
                  </use>
                  <path fill="none" stroke="white" stroke-width="1.5" d="M0,-3.0v7 M-2.5,-0.5L0,-3.0L2.5,-0.5"/>
                </g>
                <g id="arrowLeft" xlink:href="#dirArrow" transform="rotate(270) translate(-36 17)" onmousedown="handlePan(-1,0)">
                  <use xlink:href="#rim" fill="#404040">
                        <set attributeName="fill" to="#808080" begin="arrowLeft.mouseover" end="arrowLeft.mouseout"/>
                  </use>
                  <path fill="none" stroke="white" stroke-width="1.5" d="M0,-3.0v7 M-2.5,-0.5L0,-3.0L2.5,-0.5"/>
                </g>
        </g>
        <svg viewBox="0 0 15 15" width="100%" height="30px" preserveAspectRatio="xMaxYMin meet">
         <g id="arrow_out" transform="scale(0.3 0.3)">
          <a xlink:href="classSqliteIndexStorage_1_1InsertBatchStatement_acaa5199762bf4a7671c03fb87a03abfb_icgraph_org.svg" target="_base">
           <rect id="button" ry="5" rx="5" y="6" x="6" height="38" width="38"
                fill="#f2f5e9" fill-opacity="0.5" stroke="#606060" stroke-width="1.0"/>
           <path id="arrow"
             d="M 11.500037,31.436501 C 11.940474,20.09759 22.043105,11.32322 32.158766,21.979434 L 37.068811,17.246167 C 37.068811,17.246167 37.088388,32 37.088388,32 L 22.160133,31.978069 C 22.160133,31.978069 26.997745,27.140456 26.997745,27.140456 C 18.528582,18.264221 13.291696,25.230495 11.500037,31.436501 z"
             style="fill:#404040;"/>
          </a>
         </g>
        </svg>
</svg>
