<?xml version="1.0" encoding="UTF-8" standalone="no"?>
<!DOCTYPE svg PUBLIC "-//W3C//DTD SVG 1.1//EN"
 "http://www.w3.org/Graphics/SVG/1.1/DTD/svg11.dtd">
<!-- Generated by graphviz version 9.0.0 (0)
 -->
<!-- Title: GraphViewStyle::getMarginsOfBundleNode Pages: 1 -->
<svg width="762pt" height="108pt"
 viewBox="0.00 0.00 762.00 108.12" xmlns="http://www.w3.org/2000/svg" xmlns:xlink="http://www.w3.org/1999/xlink">
<g id="graph0" class="graph" transform="scale(1 1) rotate(0) translate(4 104.12)">
<title>GraphViewStyle::getMarginsOfBundleNode</title>
<!-- Node1 -->
<g id="Node000001" class="node">
<title>Node1</title>
<g id="a_Node000001"><a xlink:title=" ">
<polygon fill="#999999" stroke="#666666" points="154.75,-59.5 0,-59.5 0,-26 154.75,-26 154.75,-59.5"/>
<text text-anchor="start" x="8" y="-46" font-family="Helvetica,sans-Serif" font-size="10.00">GraphViewStyle::getMargins</text>
<text text-anchor="middle" x="77.38" y="-33.25" font-family="Helvetica,sans-Serif" font-size="10.00">OfBundleNode</text>
</a>
</g>
</g>
<!-- Node2 -->
<g id="Node000002" class="node">
<title>Node2</title>
<g id="a_Node000002"><a xlink:href="classGraphViewStyle.html#a3e8b09a419e224a17d5fcd971a744386" target="_top" xlink:title=" ">
<polygon fill="white" stroke="#666666" points="345.5,-59.5 190.75,-59.5 190.75,-26 345.5,-26 345.5,-59.5"/>
<text text-anchor="start" x="198.75" y="-46" font-family="Helvetica,sans-Serif" font-size="10.00">GraphViewStyle::getMargins</text>
<text text-anchor="middle" x="268.12" y="-33.25" font-family="Helvetica,sans-Serif" font-size="10.00">ForDataNode</text>
</a>
</g>
</g>
<!-- Node1&#45;&gt;Node2 -->
<g id="edge1_Node000001_Node000002" class="edge">
<title>Node1&#45;&gt;Node2</title>
<g id="a_edge1_Node000001_Node000002"><a xlink:title=" ">
<path fill="none" stroke="#63b8ff" d="M155.15,-42.75C163.06,-42.75 171.13,-42.75 179.15,-42.75"/>
<polygon fill="#63b8ff" stroke="#63b8ff" points="178.91,-46.25 188.91,-42.75 178.91,-39.25 178.91,-46.25"/>
</a>
</g>
</g>
<!-- Node3 -->
<g id="Node000003" class="node">
<title>Node3</title>
<g id="a_Node000003"><a xlink:href="classGraphViewStyle.html#a302223de4f4773a81f1bdc3de3e9a46b" target="_top" xlink:title=" ">
<polygon fill="white" stroke="#666666" points="552,-82.12 381.5,-82.12 381.5,-61.38 552,-61.38 552,-82.12"/>
<text text-anchor="middle" x="466.75" y="-68.62" font-family="Helvetica,sans-Serif" font-size="10.00">GraphViewStyle::getCharHeight</text>
</a>
</g>
</g>
<!-- Node2&#45;&gt;Node3 -->
<g id="edge2_Node000002_Node000003" class="edge">
<title>Node2&#45;&gt;Node3</title>
<g id="a_edge2_Node000002_Node000003"><a xlink:title=" ">
<path fill="none" stroke="#63b8ff" d="M345.99,-54.09C357.5,-55.78 369.42,-57.54 381.08,-59.26"/>
<polygon fill="#63b8ff" stroke="#63b8ff" points="380.26,-62.68 390.66,-60.68 381.28,-55.75 380.26,-62.68"/>
</a>
</g>
</g>
<!-- Node6 -->
<g id="Node000006" class="node">
<title>Node6</title>
<g id="a_Node000006"><a xlink:href="classGraphViewStyle.html#a0b729567f81f6c66d42fd229c00e137a" target="_top" xlink:title=" ">
<polygon fill="white" stroke="#666666" points="550.12,-25.12 383.38,-25.12 383.38,-4.38 550.12,-4.38 550.12,-25.12"/>
<text text-anchor="middle" x="466.75" y="-11.62" font-family="Helvetica,sans-Serif" font-size="10.00">GraphViewStyle::getCharWidth</text>
</a>
</g>
</g>
<!-- Node2&#45;&gt;Node6 -->
<g id="edge6_Node000002_Node000006" class="edge">
<title>Node2&#45;&gt;Node6</title>
<g id="a_edge6_Node000002_Node000006"><a xlink:title=" ">
<path fill="none" stroke="#63b8ff" d="M345.99,-31.8C356.62,-30.29 367.61,-28.73 378.41,-27.19"/>
<polygon fill="#63b8ff" stroke="#63b8ff" points="378.68,-30.68 388.09,-25.81 377.69,-23.75 378.68,-30.68"/>
</a>
</g>
</g>
<!-- Node3&#45;&gt;Node3 -->
<g id="edge3_Node000003_Node000003" class="edge">
<title>Node3&#45;&gt;Node3</title>
<g id="a_edge3_Node000003_Node000003"><a xlink:title=" ">
<path fill="none" stroke="#63b8ff" d="M434.74,-82.52C421.94,-91.18 432.61,-100.12 466.75,-100.12 485.42,-100.12 497.07,-97.45 501.7,-93.61"/>
<polygon fill="#63b8ff" stroke="#63b8ff" points="505.09,-92.75 499.14,-83.99 498.33,-94.55 505.09,-92.75"/>
</a>
</g>
</g>
<!-- Node4 -->
<g id="Node000004" class="node">
<title>Node4</title>
<g id="a_Node000004"><a xlink:href="classGraphViewStyle.html#a0911dbbf61bdfd307f8a42d8ab085ff9" target="_top" xlink:title=" ">
<polygon fill="white" stroke="#666666" points="754,-86.5 588,-86.5 588,-53 754,-53 754,-86.5"/>
<text text-anchor="start" x="596" y="-73" font-family="Helvetica,sans-Serif" font-size="10.00">GraphViewStyle::getFontName</text>
<text text-anchor="middle" x="671" y="-60.25" font-family="Helvetica,sans-Serif" font-size="10.00">ForDataNode</text>
</a>
</g>
</g>
<!-- Node3&#45;&gt;Node4 -->
<g id="edge4_Node000003_Node000004" class="edge">
<title>Node3&#45;&gt;Node4</title>
<g id="a_edge4_Node000003_Node000004"><a xlink:title=" ">
<path fill="none" stroke="#63b8ff" d="M552.35,-70.91C560.3,-70.83 568.38,-70.75 576.4,-70.68"/>
<polygon fill="#63b8ff" stroke="#63b8ff" points="576.2,-74.18 586.17,-70.58 576.13,-67.18 576.2,-74.18"/>
</a>
</g>
</g>
<!-- Node5 -->
<g id="Node000005" class="node">
<title>Node5</title>
<g id="a_Node000005"><a xlink:href="classGraphViewStyle.html#a74a5b33896cabd85c658d0e5485108ee" target="_top" xlink:title=" ">
<polygon fill="white" stroke="#666666" points="749.5,-33.5 592.5,-33.5 592.5,0 749.5,0 749.5,-33.5"/>
<text text-anchor="start" x="600.5" y="-20" font-family="Helvetica,sans-Serif" font-size="10.00">GraphViewStyle::getFontSize</text>
<text text-anchor="middle" x="671" y="-7.25" font-family="Helvetica,sans-Serif" font-size="10.00">ForStyleType</text>
</a>
</g>
</g>
<!-- Node3&#45;&gt;Node5 -->
<g id="edge5_Node000003_Node000005" class="edge">
<title>Node3&#45;&gt;Node5</title>
<g id="a_edge5_Node000003_Node000005"><a xlink:title=" ">
<path fill="none" stroke="#63b8ff" d="M515.54,-60.89C527.48,-58.04 540.23,-54.89 552,-51.75 568.77,-47.28 586.77,-42.12 603.54,-37.16"/>
<polygon fill="#63b8ff" stroke="#63b8ff" points="604.32,-40.58 612.9,-34.37 602.32,-33.87 604.32,-40.58"/>
</a>
</g>
</g>
<!-- Node6&#45;&gt;Node4 -->
<g id="edge8_Node000006_Node000004" class="edge">
<title>Node6&#45;&gt;Node4</title>
<g id="a_edge8_Node000006_Node000004"><a xlink:title=" ">
<path fill="none" stroke="#63b8ff" d="M507.71,-25.62C532.83,-32.45 566.01,-41.47 595.83,-49.58"/>
<polygon fill="#63b8ff" stroke="#63b8ff" points="594.61,-52.88 605.18,-52.12 596.45,-46.12 594.61,-52.88"/>
</a>
</g>
</g>
<!-- Node6&#45;&gt;Node5 -->
<g id="edge9_Node000006_Node000005" class="edge">
<title>Node6&#45;&gt;Node5</title>
<g id="a_edge9_Node000006_Node000005"><a xlink:title=" ">
<path fill="none" stroke="#63b8ff" d="M550.6,-15.57C560.58,-15.67 570.82,-15.77 580.89,-15.87"/>
<polygon fill="#63b8ff" stroke="#63b8ff" points="580.62,-19.37 590.66,-15.97 580.69,-12.37 580.62,-19.37"/>
</a>
</g>
</g>
<!-- Node6&#45;&gt;Node6 -->
<g id="edge7_Node000006_Node000006" class="edge">
<title>Node6&#45;&gt;Node6</title>
<g id="a_edge7_Node000006_Node000006"><a xlink:title=" ">
<path fill="none" stroke="#63b8ff" d="M434.74,-25.52C421.94,-34.18 432.61,-43.12 466.75,-43.12 485.42,-43.12 497.07,-40.45 501.7,-36.61"/>
<polygon fill="#63b8ff" stroke="#63b8ff" points="505.09,-35.75 499.14,-26.99 498.33,-37.55 505.09,-35.75"/>
</a>
</g>
</g>
</g>
</svg>
