<?xml version="1.0" encoding="UTF-8" standalone="no"?>
<!DOCTYPE svg PUBLIC "-//W3C//DTD SVG 1.1//EN"
 "http://www.w3.org/Graphics/SVG/1.1/DTD/svg11.dtd">
<!-- Generated by graphviz version 9.0.0 (0)
 -->
<!-- Title: IDECommunicationController::handleMessage Pages: 1 -->
<svg width="758pt" height="171pt"
 viewBox="0.00 0.00 757.50 170.50" xmlns="http://www.w3.org/2000/svg" xmlns:xlink="http://www.w3.org/1999/xlink">
<g id="graph0" class="graph" transform="scale(1 1) rotate(0) translate(4 166.5)">
<title>IDECommunicationController::handleMessage</title>
<!-- Node1 -->
<g id="Node000001" class="node">
<title>Node1</title>
<g id="a_Node000001"><a xlink:title=" ">
<polygon fill="#999999" stroke="#666666" points="157.75,-97.5 0,-97.5 0,-64 157.75,-64 157.75,-97.5"/>
<text text-anchor="start" x="8" y="-84" font-family="Helvetica,sans-Serif" font-size="10.00">IDECommunicationController</text>
<text text-anchor="middle" x="78.88" y="-71.25" font-family="Helvetica,sans-Serif" font-size="10.00">::handleMessage</text>
</a>
</g>
</g>
<!-- Node2 -->
<g id="Node000002" class="node">
<title>Node2</title>
<g id="a_Node000002"><a xlink:href="classNetworkProtocolHelper.html#a625b8e8cdbb8cfa1144c46e9f8186f26" target="_top" xlink:title=" ">
<polygon fill="white" stroke="#666666" points="344,-162.5 201.25,-162.5 201.25,-129 344,-129 344,-162.5"/>
<text text-anchor="start" x="209.25" y="-149" font-family="Helvetica,sans-Serif" font-size="10.00">NetworkProtocolHelper</text>
<text text-anchor="middle" x="272.62" y="-136.25" font-family="Helvetica,sans-Serif" font-size="10.00">::buildCreateCDBMessage</text>
</a>
</g>
</g>
<!-- Node1&#45;&gt;Node2 -->
<g id="edge1_Node000001_Node000002" class="edge">
<title>Node1&#45;&gt;Node2</title>
<g id="a_edge1_Node000001_Node000002"><a xlink:title=" ">
<path fill="none" stroke="#63b8ff" d="M129.73,-97.92C149.64,-104.75 172.77,-112.65 193.75,-119.75 198.8,-121.46 204.04,-123.22 209.3,-124.99"/>
<polygon fill="#63b8ff" stroke="#63b8ff" points="208.05,-128.26 218.65,-128.12 210.28,-121.63 208.05,-128.26"/>
</a>
</g>
</g>
<!-- Node3 -->
<g id="Node000003" class="node">
<title>Node3</title>
<g id="a_Node000003"><a xlink:href="classMessage.html#a4556438d5bb073d6f19ea777fe3faf10" target="_top" xlink:title=" ">
<polygon fill="white" stroke="#666666" points="326,-111.12 219.25,-111.12 219.25,-90.38 326,-90.38 326,-111.12"/>
<text text-anchor="middle" x="272.62" y="-97.62" font-family="Helvetica,sans-Serif" font-size="10.00">Message::dispatch</text>
</a>
</g>
</g>
<!-- Node1&#45;&gt;Node3 -->
<g id="edge2_Node000001_Node000003" class="edge">
<title>Node1&#45;&gt;Node3</title>
<g id="a_edge2_Node000001_Node000003"><a xlink:title=" ">
<path fill="none" stroke="#63b8ff" d="M158.14,-88.91C174.56,-90.63 191.69,-92.41 207.52,-94.06"/>
<polygon fill="#63b8ff" stroke="#63b8ff" points="206.97,-97.52 217.28,-95.08 207.69,-90.56 206.97,-97.52"/>
</a>
</g>
</g>
<!-- Node6 -->
<g id="Node000006" class="node">
<title>Node6</title>
<g id="a_Node000006"><a xlink:href="classController.html#a431a774ef12696f8bb22903cada1485c" target="_top" xlink:title=" ">
<polygon fill="white" stroke="#666666" points="327.5,-72.12 217.75,-72.12 217.75,-51.38 327.5,-51.38 327.5,-72.12"/>
<text text-anchor="middle" x="272.62" y="-58.62" font-family="Helvetica,sans-Serif" font-size="10.00">Controller::getView</text>
</a>
</g>
</g>
<!-- Node1&#45;&gt;Node6 -->
<g id="edge5_Node000001_Node000006" class="edge">
<title>Node1&#45;&gt;Node6</title>
<g id="a_edge5_Node000001_Node000006"><a xlink:title=" ">
<path fill="none" stroke="#63b8ff" d="M158.14,-72.99C174.14,-71.41 190.82,-69.76 206.31,-68.22"/>
<polygon fill="#63b8ff" stroke="#63b8ff" points="206.24,-71.75 215.84,-67.28 205.55,-64.78 206.24,-71.75"/>
</a>
</g>
</g>
<!-- Node8 -->
<g id="Node000008" class="node">
<title>Node8</title>
<g id="a_Node000008"><a xlink:href="classIDECommunicationController.html#a4cbbf5cb264e870fc8f495d0b4b5024a" target="_top" xlink:title=" ">
<polygon fill="white" stroke="#666666" points="351.5,-33.5 193.75,-33.5 193.75,0 351.5,0 351.5,-33.5"/>
<text text-anchor="start" x="201.75" y="-20" font-family="Helvetica,sans-Serif" font-size="10.00">IDECommunicationController</text>
<text text-anchor="middle" x="272.62" y="-7.25" font-family="Helvetica,sans-Serif" font-size="10.00">::sendMessage</text>
</a>
</g>
</g>
<!-- Node1&#45;&gt;Node8 -->
<g id="edge7_Node000001_Node000008" class="edge">
<title>Node1&#45;&gt;Node8</title>
<g id="a_edge7_Node000001_Node000008"><a xlink:title=" ">
<path fill="none" stroke="#63b8ff" d="M131.51,-63.51C155.48,-55.52 184.16,-45.94 209.32,-37.55"/>
<polygon fill="#63b8ff" stroke="#63b8ff" points="210.41,-40.87 218.79,-34.38 208.2,-34.23 210.41,-40.87"/>
</a>
</g>
</g>
<!-- Node4 -->
<g id="Node000004" class="node">
<title>Node4</title>
<g id="a_Node000004"><a xlink:href="classMessageQueue.html#a085ebbc4ba9c58eeeaad64e77efc8e07" target="_top" xlink:title=" ">
<polygon fill="white" stroke="#666666" points="541.5,-111.12 387.5,-111.12 387.5,-90.38 541.5,-90.38 541.5,-111.12"/>
<text text-anchor="middle" x="464.5" y="-97.62" font-family="Helvetica,sans-Serif" font-size="10.00">MessageQueue::getInstance</text>
</a>
</g>
</g>
<!-- Node3&#45;&gt;Node4 -->
<g id="edge3_Node000003_Node000004" class="edge">
<title>Node3&#45;&gt;Node4</title>
<g id="a_edge3_Node000003_Node000004"><a xlink:title=" ">
<path fill="none" stroke="#63b8ff" d="M326.26,-100.75C341.75,-100.75 359.12,-100.75 376.16,-100.75"/>
<polygon fill="#63b8ff" stroke="#63b8ff" points="375.78,-104.25 385.78,-100.75 375.78,-97.25 375.78,-104.25"/>
</a>
</g>
</g>
<!-- Node5 -->
<g id="Node000005" class="node">
<title>Node5</title>
<g id="a_Node000005"><a xlink:href="classMessageQueue.html#a006069f4b83d2372c989c52784fac5de" target="_top" xlink:title=" ">
<polygon fill="white" stroke="#666666" points="749.5,-111.12 577.5,-111.12 577.5,-90.38 749.5,-90.38 749.5,-111.12"/>
<text text-anchor="middle" x="663.5" y="-97.62" font-family="Helvetica,sans-Serif" font-size="10.00">MessageQueue::MessageQueue</text>
</a>
</g>
</g>
<!-- Node4&#45;&gt;Node5 -->
<g id="edge4_Node000004_Node000005" class="edge">
<title>Node4&#45;&gt;Node5</title>
<g id="a_edge4_Node000004_Node000005"><a xlink:title=" ">
<path fill="none" stroke="#63b8ff" d="M541.95,-100.75C549.81,-100.75 557.88,-100.75 565.92,-100.75"/>
<polygon fill="#63b8ff" stroke="#63b8ff" points="565.75,-104.25 575.75,-100.75 565.75,-97.25 565.75,-104.25"/>
</a>
</g>
</g>
<!-- Node7 -->
<g id="Node000007" class="node">
<title>Node7</title>
<g id="a_Node000007"><a xlink:href="classComponent.html#a9f4dbd8f986abae9d6014b4a34d2b014" target="_top" xlink:title=" ">
<polygon fill="white" stroke="#666666" points="523.5,-72.12 405.5,-72.12 405.5,-51.38 523.5,-51.38 523.5,-72.12"/>
<text text-anchor="middle" x="464.5" y="-58.62" font-family="Helvetica,sans-Serif" font-size="10.00">Component::getView</text>
</a>
</g>
</g>
<!-- Node6&#45;&gt;Node7 -->
<g id="edge6_Node000006_Node000007" class="edge">
<title>Node6&#45;&gt;Node7</title>
<g id="a_edge6_Node000006_Node000007"><a xlink:title=" ">
<path fill="none" stroke="#63b8ff" d="M327.78,-61.75C348.41,-61.75 372.21,-61.75 394.06,-61.75"/>
<polygon fill="#63b8ff" stroke="#63b8ff" points="393.77,-65.25 403.77,-61.75 393.77,-58.25 393.77,-65.25"/>
</a>
</g>
</g>
</g>
</svg>
