<?xml version="1.0" encoding="UTF-8" standalone="no"?>
<!DOCTYPE svg PUBLIC "-//W3C//DTD SVG 1.1//EN"
 "http://www.w3.org/Graphics/SVG/1.1/DTD/svg11.dtd">
<!-- Generated by graphviz version 9.0.0 (0)
 -->
<!-- Title: CodeController::firstReferenceScrollParams Pages: 1 -->
<svg width="586pt" height="188pt"
 viewBox="0.00 0.00 586.25 187.75" xmlns="http://www.w3.org/2000/svg" xmlns:xlink="http://www.w3.org/1999/xlink">
<g id="graph0" class="graph" transform="scale(1 1) rotate(0) translate(4 183.75)">
<title>CodeController::firstReferenceScrollParams</title>
<!-- Node1 -->
<g id="Node000001" class="node">
<title>Node1</title>
<g id="a_Node000001"><a xlink:title=" ">
<polygon fill="#999999" stroke="#666666" points="578.25,-85.12 414.5,-85.12 414.5,-51.62 578.25,-51.62 578.25,-85.12"/>
<text text-anchor="start" x="422.5" y="-71.62" font-family="Helvetica,sans-Serif" font-size="10.00">CodeController::firstReference</text>
<text text-anchor="middle" x="496.38" y="-58.88" font-family="Helvetica,sans-Serif" font-size="10.00">ScrollParams</text>
</a>
</g>
</g>
<!-- Node2 -->
<g id="Node000002" class="node">
<title>Node2</title>
<g id="a_Node000002"><a xlink:href="classCodeController.html#a52f1d3f7cafa8dfb5361bd88643b4568" target="_top" xlink:title=" ">
<polygon fill="white" stroke="#666666" points="363.5,-150.12 222.25,-150.12 222.25,-116.62 363.5,-116.62 363.5,-150.12"/>
<text text-anchor="start" x="230.25" y="-136.62" font-family="Helvetica,sans-Serif" font-size="10.00">CodeController::definition</text>
<text text-anchor="middle" x="292.88" y="-123.88" font-family="Helvetica,sans-Serif" font-size="10.00">ReferenceScrollParams</text>
</a>
</g>
</g>
<!-- Node1&#45;&gt;Node2 -->
<g id="edge1_Node000001_Node000002" class="edge">
<title>Node1&#45;&gt;Node2</title>
<g id="a_edge1_Node000001_Node000002"><a xlink:title=" ">
<path fill="none" stroke="#63b8ff" d="M433.97,-89.17C416.11,-95.14 396.55,-101.59 378.5,-107.38 369.43,-110.28 359.78,-113.31 350.38,-116.22"/>
<polygon fill="#63b8ff" stroke="#63b8ff" points="435.03,-92.51 443.4,-86.01 432.81,-85.87 435.03,-92.51"/>
</a>
</g>
</g>
<!-- Node5 -->
<g id="Node000005" class="node">
<title>Node5</title>
<g id="a_Node000005"><a xlink:href="classCodeController.html#a40c530867143e5e8e3fc10a8b871f6f0" target="_top" xlink:title=" ">
<polygon fill="white" stroke="#666666" points="378.5,-98.75 207.25,-98.75 207.25,-78 378.5,-78 378.5,-98.75"/>
<text text-anchor="middle" x="292.88" y="-85.25" font-family="Helvetica,sans-Serif" font-size="10.00">CodeController::handleMessage</text>
</a>
</g>
</g>
<!-- Node1&#45;&gt;Node5 -->
<g id="edge4_Node000001_Node000005" class="edge">
<title>Node1&#45;&gt;Node5</title>
<g id="a_edge4_Node000001_Node000005"><a xlink:title=" ">
<path fill="none" stroke="#63b8ff" d="M402.95,-77.55C394.89,-78.35 386.75,-79.16 378.74,-79.95"/>
<polygon fill="#63b8ff" stroke="#63b8ff" points="403.18,-81.04 412.78,-76.57 402.49,-74.08 403.18,-81.04"/>
</a>
</g>
</g>
<!-- Node7 -->
<g id="Node000007" class="node">
<title>Node7</title>
<g id="a_Node000007"><a xlink:href="classCodeController.html#af210ad3939f3b2d07efd3904704519b1" target="_top" xlink:title=" ">
<polygon fill="white" stroke="#666666" points="378.5,-59.75 207.25,-59.75 207.25,-39 378.5,-39 378.5,-59.75"/>
<text text-anchor="middle" x="292.88" y="-46.25" font-family="Helvetica,sans-Serif" font-size="10.00">CodeController::handleMessage</text>
</a>
</g>
</g>
<!-- Node1&#45;&gt;Node7 -->
<g id="edge6_Node000001_Node000007" class="edge">
<title>Node1&#45;&gt;Node7</title>
<g id="a_edge6_Node000001_Node000007"><a xlink:title=" ">
<path fill="none" stroke="#63b8ff" d="M402.95,-59.66C394.89,-58.9 386.75,-58.13 378.74,-57.38"/>
<polygon fill="#63b8ff" stroke="#63b8ff" points="402.5,-63.13 412.78,-60.59 403.15,-56.16 402.5,-63.13"/>
</a>
</g>
</g>
<!-- Node8 -->
<g id="Node000008" class="node">
<title>Node8</title>
<g id="a_Node000008"><a xlink:href="classCodeController.html#a446e534f80cb952fcc7934f719644a27" target="_top" xlink:title=" ">
<polygon fill="white" stroke="#666666" points="378.5,-20.75 207.25,-20.75 207.25,0 378.5,0 378.5,-20.75"/>
<text text-anchor="middle" x="292.88" y="-7.25" font-family="Helvetica,sans-Serif" font-size="10.00">CodeController::handleMessage</text>
</a>
</g>
</g>
<!-- Node1&#45;&gt;Node8 -->
<g id="edge7_Node000001_Node000008" class="edge">
<title>Node1&#45;&gt;Node8</title>
<g id="a_edge7_Node000001_Node000008"><a xlink:title=" ">
<path fill="none" stroke="#63b8ff" d="M434.92,-47.67C416.86,-41.77 396.96,-35.55 378.5,-30.38 367.02,-27.16 354.56,-24.02 342.83,-21.22"/>
<polygon fill="#63b8ff" stroke="#63b8ff" points="433.57,-50.91 444.16,-50.72 435.76,-44.26 433.57,-50.91"/>
</a>
</g>
</g>
<!-- Node3 -->
<g id="Node000003" class="node">
<title>Node3</title>
<g id="a_Node000003"><a xlink:href="classCodeController.html#abba425547c401ee407e08c3874c66144" target="_top" xlink:title=" ">
<polygon fill="white" stroke="#666666" points="171.25,-179.75 0,-179.75 0,-159 171.25,-159 171.25,-179.75"/>
<text text-anchor="middle" x="85.62" y="-166.25" font-family="Helvetica,sans-Serif" font-size="10.00">CodeController::handleMessage</text>
</a>
</g>
</g>
<!-- Node2&#45;&gt;Node3 -->
<g id="edge2_Node000002_Node000003" class="edge">
<title>Node2&#45;&gt;Node3</title>
<g id="a_edge2_Node000002_Node000003"><a xlink:title=" ">
<path fill="none" stroke="#63b8ff" d="M210.49,-147.65C189.83,-151.27 167.98,-155.11 148.47,-158.53"/>
<polygon fill="#63b8ff" stroke="#63b8ff" points="211.08,-151.1 220.32,-145.92 209.87,-144.21 211.08,-151.1"/>
</a>
</g>
</g>
<!-- Node4 -->
<g id="Node000004" class="node">
<title>Node4</title>
<g id="a_Node000004"><a xlink:href="classCodeController.html#aec6a7da2130b282d5d64914bdf33d183" target="_top" xlink:title=" ">
<polygon fill="white" stroke="#666666" points="171.25,-140.75 0,-140.75 0,-120 171.25,-120 171.25,-140.75"/>
<text text-anchor="middle" x="85.62" y="-127.25" font-family="Helvetica,sans-Serif" font-size="10.00">CodeController::handleMessage</text>
</a>
</g>
</g>
<!-- Node2&#45;&gt;Node4 -->
<g id="edge3_Node000002_Node000004" class="edge">
<title>Node2&#45;&gt;Node4</title>
<g id="a_edge3_Node000002_Node000004"><a xlink:title=" ">
<path fill="none" stroke="#63b8ff" d="M210.68,-132.19C197.85,-132 184.55,-131.81 171.63,-131.62"/>
<polygon fill="#63b8ff" stroke="#63b8ff" points="210.25,-135.68 220.3,-132.33 210.35,-128.68 210.25,-135.68"/>
</a>
</g>
</g>
<!-- Node6 -->
<g id="Node000006" class="node">
<title>Node6</title>
<g id="a_Node000006"><a xlink:href="classCodeController.html#a63d98cf19fdfe7cec074799befd81a7b" target="_top" xlink:title=" ">
<polygon fill="white" stroke="#666666" points="171.25,-98.75 0,-98.75 0,-78 171.25,-78 171.25,-98.75"/>
<text text-anchor="middle" x="85.62" y="-85.25" font-family="Helvetica,sans-Serif" font-size="10.00">CodeController::handleMessage</text>
</a>
</g>
</g>
<!-- Node5&#45;&gt;Node6 -->
<g id="edge5_Node000005_Node000006" class="edge">
<title>Node5&#45;&gt;Node6</title>
<g id="a_edge5_Node000005_Node000006"><a xlink:title=" ">
<path fill="none" stroke="#63b8ff" d="M195.6,-88.38C187.56,-88.38 179.47,-88.38 171.53,-88.38"/>
<polygon fill="#63b8ff" stroke="#63b8ff" points="195.4,-91.88 205.4,-88.38 195.4,-84.88 195.4,-91.88"/>
</a>
</g>
</g>
</g>
</svg>
