<?xml version="1.0" encoding="UTF-8" standalone="no"?>
<!DOCTYPE svg PUBLIC "-//W3C//DTD SVG 1.1//EN"
 "http://www.w3.org/Graphics/SVG/1.1/DTD/svg11.dtd">
<!-- Generated by graphviz version 9.0.0 (0)
 -->
<!-- Title: QtMainWindow::setShowDockWidgetTitleBars Pages: 1 -->
<!--zoomable 111 -->

<svg id="main" version="1.1" xmlns="http://www.w3.org/2000/svg" xmlns:xlink="http://www.w3.org/1999/xlink" xml:space="preserve" onload="init(evt)">
<style type="text/css"><![CDATA[
.node, .edge {opacity: 0.7;}
.node.selected, .edge.selected {opacity: 1;}
.edge:hover path { stroke: red; }
.edge:hover polygon { stroke: red; fill: red; }
]]></style>

<defs>
  <circle id="rim" cx="0" cy="0" r="7"/>
  <circle id="rim2" cx="0" cy="0" r="3.5"/>
  <g id="zoomPlus">
    <use xlink:href="#rim" fill="#404040"><set attributeName="fill" to="#808080" begin="zoomplus.mouseover" end="zoomplus.mouseout"/></use>
    <path d="M-4,0h8M0,-4v8" fill="none" stroke="white" stroke-width="1.5" pointer-events="none"/>
  </g>
  <g id="zoomMin">
    <use xlink:href="#rim" fill="#404040"><set attributeName="fill" to="#808080" begin="zoomminus.mouseover" end="zoomminus.mouseout"/></use>
    <path d="M-4,0h8" fill="none" stroke="white" stroke-width="1.5" pointer-events="none"/>
  </g>
  <g id="arrowUp" transform="translate(30 24)">
    <use xlink:href="#rim"/>
    <path pointer-events="none" fill="none" stroke="white" stroke-width="1.5" d="M0,-3.0v7 M-2.5,-0.5L0,-3.0L2.5,-0.5"/>
  </g>
  <g id="arrowRight" transform="rotate(90) translate(36 -43)">
    <use xlink:href="#rim"/>
    <path pointer-events="none" fill="none" stroke="white" stroke-width="1.5" d="M0,-3.0v7 M-2.5,-0.5L0,-3.0L2.5,-0.5"/>
  </g>
  <g id="arrowDown" transform="rotate(180) translate(-30 -48)">
    <use xlink:href="#rim"/>
    <path pointer-events="none" fill="none" stroke="white" stroke-width="1.5" d="M0,-3.0v7 M-2.5,-0.5L0,-3.0L2.5,-0.5"/>
  </g>
  <g id="arrowLeft" transform="rotate(270) translate(-36 17)">
    <use xlink:href="#rim"/>
    <path pointer-events="none" fill="none" stroke="white" stroke-width="1.5" d="M0,-3.0v7 M-2.5,-0.5L0,-3.0L2.5,-0.5"/>
  </g>
  <g id="resetDef">
    <use xlink:href="#rim2" fill="#404040"><set attributeName="fill" to="#808080" begin="reset.mouseover" end="reset.mouseout"/></use>
  </g>
</defs>
<script type="application/ecmascript">
var viewWidth = 776;
var viewHeight = 111;
var sectionId = 'dynsection-95';
</script>
<script type="application/ecmascript" xlink:href="svg.min.js"/>
<svg id="graph" class="graph">
<g id="viewport">
<title>QtMainWindow::setShowDockWidgetTitleBars</title>
<!-- Node1 -->
<g id="Node000001" class="node">
<title>Node1</title>
<g id="a_Node000001"><a xlink:title=" ">
<polygon fill="#999999" stroke="#666666" points="768.25,-55.5 606,-55.5 606,-22 768.25,-22 768.25,-55.5"/>
<text text-anchor="start" x="614" y="-42" font-family="Helvetica,sans-Serif" font-size="10.00">QtMainWindow::setShowDock</text>
<text text-anchor="middle" x="687.12" y="-29.25" font-family="Helvetica,sans-Serif" font-size="10.00">WidgetTitleBars</text>
</a>
</g>
</g>
<!-- Node2 -->
<g id="Node000002" class="node">
<title>Node2</title>
<g id="a_Node000002"><a xlink:href="classQtMainWindow.html#a6077f7851016de98dd3ea4b09f7dff82" target="_top" xlink:title=" ">
<polygon fill="white" stroke="#666666" points="568.5,-72.12 418.25,-72.12 418.25,-51.38 568.5,-51.38 568.5,-72.12"/>
<text text-anchor="middle" x="493.38" y="-58.62" font-family="Helvetica,sans-Serif" font-size="10.00">QtMainWindow::loadLayout</text>
</a>
</g>
</g>
<!-- Node1&#45;&gt;Node2 -->
<g id="edge1_Node000001_Node000002" class="edge">
<title>Node1&#45;&gt;Node2</title>
<g id="a_edge1_Node000001_Node000002"><a xlink:title=" ">
<path fill="none" stroke="#63b8ff" d="M594.42,-49.75C585.85,-50.78 577.23,-51.81 568.84,-52.82"/>
<polygon fill="#63b8ff" stroke="#63b8ff" points="594.62,-53.25 604.14,-48.58 593.79,-46.3 594.62,-53.25"/>
</a>
</g>
</g>
<!-- Node5 -->
<g id="Node000005" class="node">
<title>Node5</title>
<g id="a_Node000005"><a xlink:href="classQtMainWindow.html#a276a5f95e8471b25c1272481d26940a9" target="_top" xlink:title=" ">
<polygon fill="white" stroke="#666666" points="570,-33.5 416.75,-33.5 416.75,0 570,0 570,-33.5"/>
<text text-anchor="start" x="424.75" y="-20" font-family="Helvetica,sans-Serif" font-size="10.00">QtMainWindow::toggleShow</text>
<text text-anchor="middle" x="493.38" y="-7.25" font-family="Helvetica,sans-Serif" font-size="10.00">DockWidgetTitleBars</text>
</a>
</g>
</g>
<!-- Node1&#45;&gt;Node5 -->
<g id="edge4_Node000001_Node000005" class="edge">
<title>Node1&#45;&gt;Node5</title>
<g id="a_edge4_Node000001_Node000005"><a xlink:title=" ">
<path fill="none" stroke="#63b8ff" d="M594.34,-28.22C586.31,-27.3 578.25,-26.37 570.37,-25.47"/>
<polygon fill="#63b8ff" stroke="#63b8ff" points="593.8,-31.68 604.14,-29.34 594.6,-24.73 593.8,-31.68"/>
</a>
</g>
</g>
<!-- Node3 -->
<g id="Node000003" class="node">
<title>Node3</title>
<g id="a_Node000003"><a xlink:href="classQtMainView.html#a26555e9a87667d59700365a2e4f6b83c" target="_top" xlink:title=" ">
<polygon fill="white" stroke="#666666" points="361.25,-103.12 226,-103.12 226,-82.38 361.25,-82.38 361.25,-103.12"/>
<text text-anchor="middle" x="293.62" y="-89.62" font-family="Helvetica,sans-Serif" font-size="10.00">QtMainView::loadLayout</text>
</a>
</g>
</g>
<!-- Node2&#45;&gt;Node3 -->
<g id="edge2_Node000002_Node000003" class="edge">
<title>Node2&#45;&gt;Node3</title>
<g id="a_edge2_Node000002_Node000003"><a xlink:title=" ">
<path fill="none" stroke="#63b8ff" d="M412.25,-74.31C395.38,-76.96 377.74,-79.72 361.42,-82.28"/>
<polygon fill="#63b8ff" stroke="#63b8ff" points="412.38,-77.83 421.72,-72.83 411.29,-70.92 412.38,-77.83"/>
</a>
</g>
</g>
<!-- Node4 -->
<g id="Node000004" class="node">
<title>Node4</title>
<g id="a_Node000004"><a xlink:href="classQtMainWindow.html#ab526da2f9eb598fdbee15a62a4323ad0" target="_top" xlink:title=" ">
<polygon fill="white" stroke="#666666" points="170.5,-46.12 0,-46.12 0,-25.38 170.5,-25.38 170.5,-46.12"/>
<text text-anchor="middle" x="85.25" y="-32.62" font-family="Helvetica,sans-Serif" font-size="10.00">QtMainWindow::QtMainWindow</text>
</a>
</g>
</g>
<!-- Node2&#45;&gt;Node4 -->
<g id="edge3_Node000002_Node000004" class="edge">
<title>Node2&#45;&gt;Node4</title>
<g id="a_edge3_Node000002_Node000004"><a xlink:title=" ">
<path fill="none" stroke="#63b8ff" d="M406.56,-56.26C337.13,-51.81 239.88,-45.59 170.79,-41.16"/>
<polygon fill="#63b8ff" stroke="#63b8ff" points="406.17,-59.74 416.37,-56.88 406.62,-52.75 406.17,-59.74"/>
</a>
</g>
</g>
<!-- Node6 -->
<g id="Node000006" class="node">
<title>Node6</title>
<g id="a_Node000006"><a xlink:href="classQtMainWindow.html#a304f403073f323be6d6a388bb5c64b65" target="_top" xlink:title=" ">
<polygon fill="white" stroke="#666666" points="380.75,-27.12 206.5,-27.12 206.5,-6.38 380.75,-6.38 380.75,-27.12"/>
<text text-anchor="middle" x="293.62" y="-13.62" font-family="Helvetica,sans-Serif" font-size="10.00">QtMainWindow::setupViewMenu</text>
</a>
</g>
</g>
<!-- Node5&#45;&gt;Node6 -->
<g id="edge5_Node000005_Node000006" class="edge">
<title>Node5&#45;&gt;Node6</title>
<g id="a_edge5_Node000005_Node000006"><a xlink:title=" ">
<path fill="none" stroke="#63b8ff" d="M405,-16.75C397.1,-16.75 389.1,-16.75 381.2,-16.75"/>
<polygon fill="#63b8ff" stroke="#63b8ff" points="404.97,-20.25 414.97,-16.75 404.97,-13.25 404.97,-20.25"/>
</a>
</g>
</g>
<!-- Node6&#45;&gt;Node4 -->
<g id="edge6_Node000006_Node000004" class="edge">
<title>Node6&#45;&gt;Node4</title>
<g id="a_edge6_Node000006_Node000004"><a xlink:title=" ">
<path fill="none" stroke="#63b8ff" d="M194.7,-25.77C186.66,-26.51 178.59,-27.25 170.67,-27.98"/>
<polygon fill="#63b8ff" stroke="#63b8ff" points="194.86,-29.27 204.49,-24.86 194.21,-22.3 194.86,-29.27"/>
</a>
</g>
</g>
</g>
</svg>

<g id="navigator" transform="translate(0 0)" fill="#404254">
  <rect fill="#f2f5e9" fill-opacity="0.5" stroke="#606060" stroke-width=".5" x="0" y="0" width="60" height="60"/>
  <use id="zoomplus" xlink:href="#zoomPlus" x="17" y="9" onmousedown="handleZoom(evt,'in')"/>
  <use id="zoomminus" xlink:href="#zoomMin" x="42" y="9" onmousedown="handleZoom(evt,'out')"/>
  <use id="reset" xlink:href="#resetDef" x="30" y="36" onmousedown="handleReset()"/>
   <use id="arrowup" xlink:href="#arrowUp" x="0" y="0" onmousedown="handlePan(0,-1)"/>
  <use id="arrowright" xlink:href="#arrowRight" x="0" y="0" onmousedown="handlePan(1,0)"/>
  <use id="arrowdown" xlink:href="#arrowDown" x="0" y="0" onmousedown="handlePan(0,1)"/>
  <use id="arrowleft" xlink:href="#arrowLeft" x="0" y="0" onmousedown="handlePan(-1,0)"/>
</g>
<svg viewBox="0 0 15 15" width="100%" height="30px" preserveAspectRatio="xMaxYMin meet">
 <g id="arrow_out" transform="scale(0.3 0.3)">
  <a xlink:href="classQtMainWindow_aae024d91fb500ff4269b2ecae3923e69_icgraph_org.svg" target="_base">
   <rect id="button" ry="5" rx="5" y="6" x="6" height="38" width="38"
        fill="#f2f5e9" fill-opacity="0.5" stroke="#606060" stroke-width="1.0"/>
   <path id="arrow"
     d="M 11.500037,31.436501 C 11.940474,20.09759 22.043105,11.32322 32.158766,21.979434 L 37.068811,17.246167 C 37.068811,17.246167 37.088388,32 37.088388,32 L 22.160133,31.978069 C 22.160133,31.978069 26.997745,27.140456 26.997745,27.140456 C 18.528582,18.264221 13.291696,25.230495 11.500037,31.436501 z"
     style="fill:#404040;"/>
  </a>
 </g>
</svg>

<style type='text/css'>
<![CDATA[
[data-mouse-over-selected='false'] { opacity: 0.7; }
[data-mouse-over-selected='true']  { opacity: 1.0; }
]]>
</style>
<script type="application/ecmascript"><![CDATA[
document.addEventListener('DOMContentLoaded', (event) => {
  highlightEdges();
  highlightAdjacentNodes();
});
]]></script>
</svg>
