<?xml version="1.0" encoding="UTF-8" standalone="no"?>
<!DOCTYPE svg PUBLIC "-//W3C//DTD SVG 1.1//EN"
 "http://www.w3.org/Graphics/SVG/1.1/DTD/svg11.dtd">
<!-- Generated by graphviz version 9.0.0 (0)
 -->
<!-- Title: QtCodeField::getColumnCorrectedForMultibyteCharacters Pages: 1 -->
<svg width="1147pt" height="106pt"
 viewBox="0.00 0.00 1147.25 106.12" xmlns="http://www.w3.org/2000/svg" xmlns:xlink="http://www.w3.org/1999/xlink">
<g id="graph0" class="graph" transform="scale(1 1) rotate(0) translate(4 102.12)">
<title>QtCodeField::getColumnCorrectedForMultibyteCharacters</title>
<!-- Node1 -->
<g id="Node000001" class="node">
<title>Node1</title>
<g id="a_Node000001"><a xlink:title=" ">
<polygon fill="#999999" stroke="#666666" points="1139.25,-81.5 958.25,-81.5 958.25,-48 1139.25,-48 1139.25,-81.5"/>
<text text-anchor="start" x="966.25" y="-68" font-family="Helvetica,sans-Serif" font-size="10.00">QtCodeField::getColumnCorrected</text>
<text text-anchor="middle" x="1048.75" y="-55.25" font-family="Helvetica,sans-Serif" font-size="10.00">ForMultibyteCharacters</text>
</a>
</g>
</g>
<!-- Node2 -->
<g id="Node000002" class="node">
<title>Node2</title>
<g id="a_Node000002"><a xlink:href="classQtCodeField.html#a97d316c63bca19793607216be3da7458" target="_top" xlink:title=" ">
<polygon fill="white" stroke="#666666" points="922.25,-75.12 752.5,-75.12 752.5,-54.38 922.25,-54.38 922.25,-75.12"/>
<text text-anchor="middle" x="837.38" y="-61.62" font-family="Helvetica,sans-Serif" font-size="10.00">QtCodeField::createAnnotations</text>
</a>
</g>
</g>
<!-- Node1&#45;&gt;Node2 -->
<g id="edge1_Node000001_Node000002" class="edge">
<title>Node1&#45;&gt;Node2</title>
<g id="a_edge1_Node000001_Node000002"><a xlink:title=" ">
<path fill="none" stroke="#63b8ff" d="M946.68,-64.75C938.61,-64.75 930.52,-64.75 922.59,-64.75"/>
<polygon fill="#63b8ff" stroke="#63b8ff" points="946.53,-68.25 956.53,-64.75 946.53,-61.25 946.53,-68.25"/>
</a>
</g>
</g>
<!-- Node3 -->
<g id="Node000003" class="node">
<title>Node3</title>
<g id="a_Node000003"><a xlink:href="classQtCodeField.html#a2a22c06ec26342e1c7dc4bc4cef0d411" target="_top" xlink:title=" ">
<polygon fill="white" stroke="#666666" points="712.38,-98.12 573.38,-98.12 573.38,-77.38 712.38,-77.38 712.38,-98.12"/>
<text text-anchor="middle" x="642.88" y="-84.62" font-family="Helvetica,sans-Serif" font-size="10.00">QtCodeField::QtCodeField</text>
</a>
</g>
</g>
<!-- Node2&#45;&gt;Node3 -->
<g id="edge2_Node000002_Node000003" class="edge">
<title>Node2&#45;&gt;Node3</title>
<g id="a_edge2_Node000002_Node000003"><a xlink:title=" ">
<path fill="none" stroke="#63b8ff" d="M741.07,-76.14C731.55,-77.27 722.02,-78.41 712.85,-79.51"/>
<polygon fill="#63b8ff" stroke="#63b8ff" points="741.2,-79.65 750.72,-74.98 740.37,-72.7 741.2,-79.65"/>
</a>
</g>
</g>
<!-- Node4 -->
<g id="Node000004" class="node">
<title>Node4</title>
<g id="a_Node000004"><a xlink:href="classQtCodeArea.html#a7fd0b14e7544f1698bc5811568db4621" target="_top" xlink:title=" ">
<polygon fill="white" stroke="#666666" points="716.5,-59.5 569.25,-59.5 569.25,-26 716.5,-26 716.5,-59.5"/>
<text text-anchor="start" x="577.25" y="-46" font-family="Helvetica,sans-Serif" font-size="10.00">QtCodeArea::updateSource</text>
<text text-anchor="middle" x="642.88" y="-33.25" font-family="Helvetica,sans-Serif" font-size="10.00">Locations</text>
</a>
</g>
</g>
<!-- Node2&#45;&gt;Node4 -->
<g id="edge3_Node000002_Node000004" class="edge">
<title>Node2&#45;&gt;Node4</title>
<g id="a_edge3_Node000002_Node000004"><a xlink:title=" ">
<path fill="none" stroke="#63b8ff" d="M740.89,-53.84C732.86,-52.92 724.82,-52 717,-51.11"/>
<polygon fill="#63b8ff" stroke="#63b8ff" points="740.39,-57.3 750.72,-54.96 741.18,-50.35 740.39,-57.3"/>
</a>
</g>
</g>
<!-- Node5 -->
<g id="Node000005" class="node">
<title>Node5</title>
<g id="a_Node000005"><a xlink:href="classQtCodeSnippet.html#ac4f99cc9745a4ce48f3bf1bd78c26f69" target="_top" xlink:title=" ">
<polygon fill="white" stroke="#666666" points="533.25,-85.5 371.75,-85.5 371.75,-52 533.25,-52 533.25,-85.5"/>
<text text-anchor="start" x="379.75" y="-72" font-family="Helvetica,sans-Serif" font-size="10.00">QtCodeSnippet::updateSource</text>
<text text-anchor="middle" x="452.5" y="-59.25" font-family="Helvetica,sans-Serif" font-size="10.00">Locations</text>
</a>
</g>
</g>
<!-- Node4&#45;&gt;Node5 -->
<g id="edge4_Node000004_Node000005" class="edge">
<title>Node4&#45;&gt;Node5</title>
<g id="a_edge4_Node000004_Node000005"><a xlink:title=" ">
<path fill="none" stroke="#63b8ff" d="M557.63,-54.38C549.69,-55.47 541.65,-56.58 533.74,-57.67"/>
<polygon fill="#63b8ff" stroke="#63b8ff" points="557.85,-57.88 567.28,-53.05 556.89,-50.95 557.85,-57.88"/>
</a>
</g>
</g>
<!-- Node8 -->
<g id="Node000008" class="node">
<title>Node8</title>
<g id="a_Node000008"><a xlink:href="classQtCodeFileSingle.html#a2ad4acf9fcdfa0deff804ef1dadc5aaa" target="_top" xlink:title=" ">
<polygon fill="white" stroke="#666666" points="521.62,-33.5 383.38,-33.5 383.38,0 521.62,0 521.62,-33.5"/>
<text text-anchor="start" x="391.38" y="-20" font-family="Helvetica,sans-Serif" font-size="10.00">QtCodeFileSingle::update</text>
<text text-anchor="middle" x="452.5" y="-7.25" font-family="Helvetica,sans-Serif" font-size="10.00">SourceLocations</text>
</a>
</g>
</g>
<!-- Node4&#45;&gt;Node8 -->
<g id="edge7_Node000004_Node000008" class="edge">
<title>Node4&#45;&gt;Node8</title>
<g id="a_edge7_Node000004_Node000008"><a xlink:title=" ">
<path fill="none" stroke="#63b8ff" d="M557.46,-31.1C545.57,-29.46 533.47,-27.79 521.93,-26.2"/>
<polygon fill="#63b8ff" stroke="#63b8ff" points="556.89,-34.55 567.28,-32.45 557.85,-27.62 556.89,-34.55"/>
</a>
</g>
</g>
<!-- Node6 -->
<g id="Node000006" class="node">
<title>Node6</title>
<g id="a_Node000006"><a xlink:href="classQtCodeFile.html#abff38401b7321a3ffcb4c0c7a9789b82" target="_top" xlink:title=" ">
<polygon fill="white" stroke="#666666" points="335.75,-85.5 194.5,-85.5 194.5,-52 335.75,-52 335.75,-85.5"/>
<text text-anchor="start" x="202.5" y="-72" font-family="Helvetica,sans-Serif" font-size="10.00">QtCodeFile::updateSource</text>
<text text-anchor="middle" x="265.12" y="-59.25" font-family="Helvetica,sans-Serif" font-size="10.00">Locations</text>
</a>
</g>
</g>
<!-- Node5&#45;&gt;Node6 -->
<g id="edge5_Node000005_Node000006" class="edge">
<title>Node5&#45;&gt;Node6</title>
<g id="a_edge5_Node000005_Node000006"><a xlink:title=" ">
<path fill="none" stroke="#63b8ff" d="M359.93,-68.75C351.88,-68.75 343.83,-68.75 336,-68.75"/>
<polygon fill="#63b8ff" stroke="#63b8ff" points="359.76,-72.25 369.76,-68.75 359.76,-65.25 359.76,-72.25"/>
</a>
</g>
</g>
<!-- Node7 -->
<g id="Node000007" class="node">
<title>Node7</title>
<g id="a_Node000007"><a xlink:href="classQtCodeFileList.html#aa0277bce0e2bc5b2588fa686bfcdb45f" target="_top" xlink:title=" ">
<polygon fill="white" stroke="#666666" points="158.5,-85.5 0,-85.5 0,-52 158.5,-52 158.5,-85.5"/>
<text text-anchor="start" x="8" y="-72" font-family="Helvetica,sans-Serif" font-size="10.00">QtCodeFileList::updateSource</text>
<text text-anchor="middle" x="79.25" y="-59.25" font-family="Helvetica,sans-Serif" font-size="10.00">Locations</text>
</a>
</g>
</g>
<!-- Node6&#45;&gt;Node7 -->
<g id="edge6_Node000006_Node000007" class="edge">
<title>Node6&#45;&gt;Node7</title>
<g id="a_edge6_Node000006_Node000007"><a xlink:title=" ">
<path fill="none" stroke="#63b8ff" d="M182.84,-68.75C174.82,-68.75 166.69,-68.75 158.69,-68.75"/>
<polygon fill="#63b8ff" stroke="#63b8ff" points="182.57,-72.25 192.57,-68.75 182.57,-65.25 182.57,-72.25"/>
</a>
</g>
</g>
</g>
</svg>
