<?xml version="1.0" encoding="UTF-8" standalone="no"?>
<!DOCTYPE svg PUBLIC "-//W3C//DTD SVG 1.1//EN"
 "http://www.w3.org/Graphics/SVG/1.1/DTD/svg11.dtd">
<!-- Generated by graphviz version 9.0.0 (0)
 -->
<!-- Title: GraphController::bundleByType Pages: 1 -->
<svg width="586pt" height="53pt"
 viewBox="0.00 0.00 586.25 53.12" xmlns="http://www.w3.org/2000/svg" xmlns:xlink="http://www.w3.org/1999/xlink">
<g id="graph0" class="graph" transform="scale(1 1) rotate(0) translate(4 49.12)">
<title>GraphController::bundleByType</title>
<!-- Node1 -->
<g id="Node000001" class="node">
<title>Node1</title>
<g id="a_Node000001"><a xlink:title=" ">
<polygon fill="#999999" stroke="#666666" points="578.25,-27.12 410.75,-27.12 410.75,-6.38 578.25,-6.38 578.25,-27.12"/>
<text text-anchor="middle" x="494.5" y="-13.62" font-family="Helvetica,sans-Serif" font-size="10.00">GraphController::bundleByType</text>
</a>
</g>
</g>
<!-- Node1&#45;&gt;Node1 -->
<g id="edge1_Node000001_Node000001" class="edge">
<title>Node1&#45;&gt;Node1</title>
<g id="a_edge1_Node000001_Node000001"><a xlink:title=" ">
<path fill="none" stroke="#63b8ff" d="M529.91,-38.61C525.22,-42.45 513.42,-45.12 494.5,-45.12 459.91,-45.12 449.1,-36.18 462.07,-27.52"/>
<polygon fill="#63b8ff" stroke="#63b8ff" points="533.3,-37.73 527.32,-28.98 526.54,-39.55 533.3,-37.73"/>
</a>
</g>
</g>
<!-- Node2 -->
<g id="Node000002" class="node">
<title>Node2</title>
<g id="a_Node000002"><a xlink:href="classGraphController.html#a9407cc2a97c3c5d3e10386982d7c1232" target="_top" xlink:title=" ">
<polygon fill="white" stroke="#666666" points="374.75,-33.5 211.75,-33.5 211.75,0 374.75,0 374.75,-33.5"/>
<text text-anchor="start" x="219.75" y="-20" font-family="Helvetica,sans-Serif" font-size="10.00">GraphController::bundleNodes</text>
<text text-anchor="middle" x="293.25" y="-7.25" font-family="Helvetica,sans-Serif" font-size="10.00">ByType</text>
</a>
</g>
</g>
<!-- Node1&#45;&gt;Node2 -->
<g id="edge2_Node000001_Node000002" class="edge">
<title>Node1&#45;&gt;Node2</title>
<g id="a_edge2_Node000001_Node000002"><a xlink:title=" ">
<path fill="none" stroke="#63b8ff" d="M399.08,-16.75C391.01,-16.75 382.89,-16.75 374.93,-16.75"/>
<polygon fill="#63b8ff" stroke="#63b8ff" points="398.93,-20.25 408.93,-16.75 398.93,-13.25 398.93,-20.25"/>
</a>
</g>
</g>
<!-- Node3 -->
<g id="Node000003" class="node">
<title>Node3</title>
<g id="a_Node000003"><a xlink:href="classGraphController.html#ad6d410cd1cf31de1e62d207f3195827c" target="_top" xlink:title=" ">
<polygon fill="white" stroke="#666666" points="175.75,-27.12 0,-27.12 0,-6.38 175.75,-6.38 175.75,-27.12"/>
<text text-anchor="middle" x="87.88" y="-13.62" font-family="Helvetica,sans-Serif" font-size="10.00">GraphController::handleMessage</text>
</a>
</g>
</g>
<!-- Node2&#45;&gt;Node3 -->
<g id="edge3_Node000002_Node000003" class="edge">
<title>Node2&#45;&gt;Node3</title>
<g id="a_edge3_Node000002_Node000003"><a xlink:title=" ">
<path fill="none" stroke="#63b8ff" d="M199.85,-16.75C191.99,-16.75 184.06,-16.75 176.24,-16.75"/>
<polygon fill="#63b8ff" stroke="#63b8ff" points="199.77,-20.25 209.77,-16.75 199.77,-13.25 199.77,-20.25"/>
</a>
</g>
</g>
</g>
</svg>
