<?xml version="1.0" encoding="UTF-8" standalone="no"?>
<!DOCTYPE svg PUBLIC "-//W3C//DTD SVG 1.1//EN"
 "http://www.w3.org/Graphics/SVG/1.1/DTD/svg11.dtd">
<!-- Generated by graphviz version 7.1.0 (0)
 -->
<!-- Title: SqliteIndexStorage::getStorageVersion Pages: 1 -->
<svg width="905pt" height="172pt"
 viewBox="0.00 0.00 905.00 171.50" xmlns="http://www.w3.org/2000/svg" xmlns:xlink="http://www.w3.org/1999/xlink">
<g id="graph0" class="graph" transform="scale(1 1) rotate(0) translate(4 167.5)">
<title>SqliteIndexStorage::getStorageVersion</title>
<!-- Node1 -->
<g id="node1" class="node">
<title>Node1</title>
<g id="a_node1"><a xlink:title=" ">
<polygon fill="#999999" stroke="#666666" points="897,-91.5 784,-91.5 784,-61.5 897,-61.5 897,-91.5"/>
<text text-anchor="start" x="792" y="-79.5" font-family="Helvetica,sans-Serif" font-size="10.00">SqliteIndexStorage</text>
<text text-anchor="middle" x="840.5" y="-68.5" font-family="Helvetica,sans-Serif" font-size="10.00">::getStorageVersion</text>
</a>
</g>
</g>
<!-- Node2 -->
<g id="node2" class="node">
<title>Node2</title>
<g id="a_node2"><a xlink:href="classSourceGroupCustomCommand.html#ace1bcb5c891ed19ddcbcb2f74bcff11c" target="_top" xlink:title=" ">
<polygon fill="white" stroke="#666666" points="746,-163.5 579,-163.5 579,-133.5 746,-133.5 746,-163.5"/>
<text text-anchor="start" x="587" y="-151.5" font-family="Helvetica,sans-Serif" font-size="10.00">SourceGroupCustomCommand</text>
<text text-anchor="middle" x="662.5" y="-140.5" font-family="Helvetica,sans-Serif" font-size="10.00">::getIndexerCommands</text>
</a>
</g>
</g>
<!-- Node1&#45;&gt;Node2 -->
<g id="edge1" class="edge">
<title>Node1&#45;&gt;Node2</title>
<path fill="none" stroke="#63b8ff" d="M803.93,-97.35C787.31,-106.52 767.04,-116.9 748,-124.5 740.21,-127.61 731.87,-130.49 723.57,-133.1"/>
<polygon fill="#63b8ff" stroke="#63b8ff" points="805.42,-100.53 812.43,-92.58 802,-94.42 805.42,-100.53"/>
</g>
<!-- Node3 -->
<g id="node3" class="node">
<title>Node3</title>
<g id="a_node3"><a xlink:href="classQtProjectWizardContentCustomCommand.html#a3617cdd05e903f169752873d8b60961a" target="_top" xlink:title=" ">
<polygon fill="white" stroke="#666666" points="748,-115.5 577,-115.5 577,-85.5 748,-85.5 748,-115.5"/>
<text text-anchor="start" x="585" y="-103.5" font-family="Helvetica,sans-Serif" font-size="10.00">QtProjectWizardContentCustom</text>
<text text-anchor="middle" x="662.5" y="-92.5" font-family="Helvetica,sans-Serif" font-size="10.00">Command::populate</text>
</a>
</g>
</g>
<!-- Node1&#45;&gt;Node3 -->
<g id="edge2" class="edge">
<title>Node1&#45;&gt;Node3</title>
<path fill="none" stroke="#63b8ff" d="M772.48,-85.64C764.6,-86.71 756.49,-87.82 748.41,-88.92"/>
<polygon fill="#63b8ff" stroke="#63b8ff" points="772.88,-89.12 782.31,-84.3 771.93,-82.18 772.88,-89.12"/>
</g>
<!-- Node4 -->
<g id="node4" class="node">
<title>Node4</title>
<g id="a_node4"><a xlink:href="classQtProjectWizardContentSelect.html#acace3c0e6a08d548774a2e35f5de6902" target="_top" xlink:title=" ">
<polygon fill="white" stroke="#666666" points="744.5,-67.5 580.5,-67.5 580.5,-37.5 744.5,-37.5 744.5,-67.5"/>
<text text-anchor="start" x="588.5" y="-55.5" font-family="Helvetica,sans-Serif" font-size="10.00">QtProjectWizardContentSelect</text>
<text text-anchor="middle" x="662.5" y="-44.5" font-family="Helvetica,sans-Serif" font-size="10.00">::populate</text>
</a>
</g>
</g>
<!-- Node1&#45;&gt;Node4 -->
<g id="edge3" class="edge">
<title>Node1&#45;&gt;Node4</title>
<path fill="none" stroke="#63b8ff" d="M772.55,-67.37C763.5,-66.14 754.13,-64.86 744.87,-63.6"/>
<polygon fill="#63b8ff" stroke="#63b8ff" points="771.93,-70.82 782.31,-68.7 772.88,-63.88 771.93,-70.82"/>
</g>
<!-- Node5 -->
<g id="node5" class="node">
<title>Node5</title>
<g id="a_node5"><a xlink:href="classQtAbout.html#a0aa719f212e205f0b248cbdf375f30bd" target="_top" xlink:title=" ">
<polygon fill="white" stroke="#666666" points="721.5,-19 603.5,-19 603.5,0 721.5,0 721.5,-19"/>
<text text-anchor="middle" x="662.5" y="-7" font-family="Helvetica,sans-Serif" font-size="10.00">QtAbout::setupAbout</text>
</a>
</g>
</g>
<!-- Node1&#45;&gt;Node5 -->
<g id="edge4" class="edge">
<title>Node1&#45;&gt;Node5</title>
<path fill="none" stroke="#63b8ff" d="M804.83,-55.56C788.13,-46.19 767.52,-35.67 748,-28.5 738.4,-24.97 727.94,-21.98 717.75,-19.48"/>
<polygon fill="#63b8ff" stroke="#63b8ff" points="802.95,-58.52 813.37,-60.45 806.43,-52.44 802.95,-58.52"/>
</g>
<!-- Node6 -->
<g id="node6" class="node">
<title>Node6</title>
<g id="a_node6"><a xlink:href="classQtMainWindow.html#a37bd6469f1d56ba750e9e0a33ff38c9b" target="_top" xlink:title=" ">
<polygon fill="white" stroke="#666666" points="541,-19 416,-19 416,0 541,0 541,-19"/>
<text text-anchor="middle" x="478.5" y="-7" font-family="Helvetica,sans-Serif" font-size="10.00">QtMainWindow::about</text>
</a>
</g>
</g>
<!-- Node5&#45;&gt;Node6 -->
<g id="edge5" class="edge">
<title>Node5&#45;&gt;Node6</title>
<path fill="none" stroke="#63b8ff" d="M591.83,-9.5C575.19,-9.5 557.53,-9.5 541.27,-9.5"/>
<polygon fill="#63b8ff" stroke="#63b8ff" points="591.65,-13 601.65,-9.5 591.65,-6 591.65,-13"/>
</g>
<!-- Node7 -->
<g id="node7" class="node">
<title>Node7</title>
<g id="a_node7"><a xlink:href="classQtMainWindow.html#ab225e8eeed9eae85d5ab3748c1d17903" target="_top" xlink:title=" ">
<polygon fill="white" stroke="#666666" points="380,-19 207,-19 207,0 380,0 380,-19"/>
<text text-anchor="middle" x="293.5" y="-7" font-family="Helvetica,sans-Serif" font-size="10.00">QtMainWindow::setupHelpMenu</text>
</a>
</g>
</g>
<!-- Node6&#45;&gt;Node7 -->
<g id="edge6" class="edge">
<title>Node6&#45;&gt;Node7</title>
<path fill="none" stroke="#63b8ff" d="M404.23,-9.5C396.4,-9.5 388.38,-9.5 380.42,-9.5"/>
<polygon fill="#63b8ff" stroke="#63b8ff" points="404.03,-13 414.03,-9.5 404.03,-6 404.03,-13"/>
</g>
<!-- Node8 -->
<g id="node8" class="node">
<title>Node8</title>
<g id="a_node8"><a xlink:href="classQtMainWindow.html#ab526da2f9eb598fdbee15a62a4323ad0" target="_top" xlink:title=" ">
<polygon fill="white" stroke="#666666" points="171,-19 0,-19 0,0 171,0 171,-19"/>
<text text-anchor="middle" x="85.5" y="-7" font-family="Helvetica,sans-Serif" font-size="10.00">QtMainWindow::QtMainWindow</text>
</a>
</g>
</g>
<!-- Node7&#45;&gt;Node8 -->
<g id="edge7" class="edge">
<title>Node7&#45;&gt;Node8</title>
<path fill="none" stroke="#63b8ff" d="M195.31,-9.5C187.27,-9.5 179.18,-9.5 171.24,-9.5"/>
<polygon fill="#63b8ff" stroke="#63b8ff" points="195.12,-13 205.12,-9.5 195.12,-6 195.12,-13"/>
</g>
</g>
</svg>
