<?xml version="1.0" encoding="UTF-8" standalone="no"?>
<!DOCTYPE svg PUBLIC "-//W3C//DTD SVG 1.1//EN"
 "http://www.w3.org/Graphics/SVG/1.1/DTD/svg11.dtd">
<!-- Generated by graphviz version 9.0.0 (0)
 -->
<!-- Title: PersistentStorage::getSourceLocationsForFile Pages: 1 -->
<!--zoomable 171 -->

<svg id="main" version="1.1" xmlns="http://www.w3.org/2000/svg" xmlns:xlink="http://www.w3.org/1999/xlink" xml:space="preserve" onload="init(evt)">
<style type="text/css"><![CDATA[
.node, .edge {opacity: 0.7;}
.node.selected, .edge.selected {opacity: 1;}
.edge:hover path { stroke: red; }
.edge:hover polygon { stroke: red; fill: red; }
]]></style>

<defs>
  <circle id="rim" cx="0" cy="0" r="7"/>
  <circle id="rim2" cx="0" cy="0" r="3.5"/>
  <g id="zoomPlus">
    <use xlink:href="#rim" fill="#404040"><set attributeName="fill" to="#808080" begin="zoomplus.mouseover" end="zoomplus.mouseout"/></use>
    <path d="M-4,0h8M0,-4v8" fill="none" stroke="white" stroke-width="1.5" pointer-events="none"/>
  </g>
  <g id="zoomMin">
    <use xlink:href="#rim" fill="#404040"><set attributeName="fill" to="#808080" begin="zoomminus.mouseover" end="zoomminus.mouseout"/></use>
    <path d="M-4,0h8" fill="none" stroke="white" stroke-width="1.5" pointer-events="none"/>
  </g>
  <g id="arrowUp" transform="translate(30 24)">
    <use xlink:href="#rim"/>
    <path pointer-events="none" fill="none" stroke="white" stroke-width="1.5" d="M0,-3.0v7 M-2.5,-0.5L0,-3.0L2.5,-0.5"/>
  </g>
  <g id="arrowRight" transform="rotate(90) translate(36 -43)">
    <use xlink:href="#rim"/>
    <path pointer-events="none" fill="none" stroke="white" stroke-width="1.5" d="M0,-3.0v7 M-2.5,-0.5L0,-3.0L2.5,-0.5"/>
  </g>
  <g id="arrowDown" transform="rotate(180) translate(-30 -48)">
    <use xlink:href="#rim"/>
    <path pointer-events="none" fill="none" stroke="white" stroke-width="1.5" d="M0,-3.0v7 M-2.5,-0.5L0,-3.0L2.5,-0.5"/>
  </g>
  <g id="arrowLeft" transform="rotate(270) translate(-36 17)">
    <use xlink:href="#rim"/>
    <path pointer-events="none" fill="none" stroke="white" stroke-width="1.5" d="M0,-3.0v7 M-2.5,-0.5L0,-3.0L2.5,-0.5"/>
  </g>
  <g id="resetDef">
    <use xlink:href="#rim2" fill="#404040"><set attributeName="fill" to="#808080" begin="reset.mouseover" end="reset.mouseout"/></use>
  </g>
</defs>
<script type="application/ecmascript">
var viewWidth = 692;
var viewHeight = 171;
var sectionId = 'dynsection-152';
</script>
<script type="application/ecmascript" xlink:href="svg.min.js"/>
<svg id="graph" class="graph">
<g id="viewport">
<title>PersistentStorage::getSourceLocationsForFile</title>
<!-- Node1 -->
<g id="Node000001" class="node">
<title>Node1</title>
<g id="a_Node000001"><a xlink:title=" ">
<polygon fill="#999999" stroke="#666666" points="142.75,-88.12 0,-88.12 0,-54.62 142.75,-54.62 142.75,-88.12"/>
<text text-anchor="start" x="8" y="-74.62" font-family="Helvetica,sans-Serif" font-size="10.00">PersistentStorage::</text>
<text text-anchor="middle" x="71.38" y="-61.88" font-family="Helvetica,sans-Serif" font-size="10.00">getSourceLocationsForFile</text>
</a>
</g>
</g>
<!-- Node2 -->
<g id="Node000002" class="node">
<title>Node2</title>
<g id="a_Node000002"><a xlink:href="classSqliteIndexStorage.html#a2858b0b9e6a16b472472d8bf164cd107" target="_top" xlink:title=" ">
<polygon fill="white" stroke="#666666" points="327.5,-88.12 178.75,-88.12 178.75,-54.62 327.5,-54.62 327.5,-88.12"/>
<text text-anchor="start" x="186.75" y="-74.62" font-family="Helvetica,sans-Serif" font-size="10.00">SqliteIndexStorage</text>
<text text-anchor="middle" x="253.12" y="-61.88" font-family="Helvetica,sans-Serif" font-size="10.00">::getSourceLocationsForFile</text>
</a>
</g>
</g>
<!-- Node1&#45;&gt;Node2 -->
<g id="edge1_Node000001_Node000002" class="edge">
<title>Node1&#45;&gt;Node2</title>
<g id="a_edge1_Node000001_Node000002"><a xlink:title=" ">
<path fill="none" stroke="#63b8ff" d="M143.16,-71.38C151.04,-71.38 159.12,-71.38 167.16,-71.38"/>
<polygon fill="#63b8ff" stroke="#63b8ff" points="166.94,-74.88 176.94,-71.38 166.94,-67.88 166.94,-74.88"/>
</a>
</g>
</g>
<!-- Node3 -->
<g id="Node000003" class="node">
<title>Node3</title>
<g id="a_Node000003"><a xlink:href="classSqliteIndexStorage.html#a26a37dcc4fe2146a2cfc0b2c43ac73df" target="_top" xlink:title=" ">
<polygon fill="white" stroke="#666666" points="501.75,-163.12 393.5,-163.12 393.5,-129.62 501.75,-129.62 501.75,-163.12"/>
<text text-anchor="start" x="401.5" y="-149.62" font-family="Helvetica,sans-Serif" font-size="10.00">SqliteIndexStorage</text>
<text text-anchor="middle" x="447.62" y="-136.88" font-family="Helvetica,sans-Serif" font-size="10.00">::getFileByPath</text>
</a>
</g>
</g>
<!-- Node2&#45;&gt;Node3 -->
<g id="edge2_Node000002_Node000003" class="edge">
<title>Node2&#45;&gt;Node3</title>
<g id="a_edge2_Node000002_Node000003"><a xlink:title=" ">
<path fill="none" stroke="#63b8ff" d="M289.64,-88.57C310.82,-98.5 338.4,-110.87 363.5,-120.38 369.57,-122.67 375.94,-124.93 382.34,-127.1"/>
<polygon fill="#63b8ff" stroke="#63b8ff" points="381.06,-130.37 391.66,-130.18 383.26,-123.72 381.06,-130.37"/>
</a>
</g>
</g>
<!-- Node5 -->
<g id="Node000005" class="node">
<title>Node5</title>
<g id="a_Node000005"><a xlink:href="classSqliteIndexStorage.html#a300347cb36689c8d8721cbd7cdc59450" target="_top" xlink:title=" ">
<polygon fill="white" stroke="#666666" points="531.75,-111.12 363.5,-111.12 363.5,-77.62 531.75,-77.62 531.75,-111.12"/>
<text text-anchor="start" x="371.5" y="-97.62" font-family="Helvetica,sans-Serif" font-size="10.00">SqliteIndexStorage</text>
<text text-anchor="middle" x="447.62" y="-84.88" font-family="Helvetica,sans-Serif" font-size="10.00">::getOccurrencesForLocationIds</text>
</a>
</g>
</g>
<!-- Node2&#45;&gt;Node5 -->
<g id="edge4_Node000002_Node000005" class="edge">
<title>Node2&#45;&gt;Node5</title>
<g id="a_edge4_Node000002_Node000005"><a xlink:title=" ">
<path fill="none" stroke="#63b8ff" d="M328,-80.2C335.86,-81.14 343.92,-82.1 351.97,-83.07"/>
<polygon fill="#63b8ff" stroke="#63b8ff" points="351.47,-86.53 361.82,-84.24 352.3,-79.58 351.47,-86.53"/>
</a>
</g>
</g>
<!-- Node8 -->
<g id="Node000008" class="node">
<title>Node8</title>
<g id="a_Node000008"><a xlink:href="LocationType_8cpp.html#aba98f6ccf5511907c466f48e9264bffd" target="_top" xlink:title=" ">
<polygon fill="white" stroke="#666666" points="499.12,-59.75 396.12,-59.75 396.12,-39 499.12,-39 499.12,-59.75"/>
<text text-anchor="middle" x="447.62" y="-46.25" font-family="Helvetica,sans-Serif" font-size="10.00">intToLocationType</text>
</a>
</g>
</g>
<!-- Node2&#45;&gt;Node8 -->
<g id="edge7_Node000002_Node000008" class="edge">
<title>Node2&#45;&gt;Node8</title>
<g id="a_edge7_Node000002_Node000008"><a xlink:title=" ">
<path fill="none" stroke="#63b8ff" d="M328,-62.93C346.7,-60.79 366.6,-58.52 384.64,-56.46"/>
<polygon fill="#63b8ff" stroke="#63b8ff" points="384.86,-59.96 394.4,-55.34 384.07,-53 384.86,-59.96"/>
</a>
</g>
</g>
<!-- Node9 -->
<g id="Node000009" class="node">
<title>Node9</title>
<g id="a_Node000009"><a xlink:href="classFilePath.html#a989e098726c8387d4f4690bca3314ce8" target="_top" xlink:title=" ">
<polygon fill="white" stroke="#666666" points="488.25,-20.75 407,-20.75 407,0 488.25,0 488.25,-20.75"/>
<text text-anchor="middle" x="447.62" y="-7.25" font-family="Helvetica,sans-Serif" font-size="10.00">FilePath::wstr</text>
</a>
</g>
</g>
<!-- Node2&#45;&gt;Node9 -->
<g id="edge8_Node000002_Node000009" class="edge">
<title>Node2&#45;&gt;Node9</title>
<g id="a_edge8_Node000002_Node000009"><a xlink:title=" ">
<path fill="none" stroke="#63b8ff" d="M296.3,-54.18C316.44,-46.33 341.01,-37.27 363.5,-30.38 373.82,-27.21 384.99,-24.23 395.69,-21.59"/>
<polygon fill="#63b8ff" stroke="#63b8ff" points="396.24,-25.05 405.14,-19.31 394.6,-18.25 396.24,-25.05"/>
</a>
</g>
</g>
<!-- Node4 -->
<g id="Node000004" class="node">
<title>Node4</title>
<g id="a_Node000004"><a xlink:href="namespaceutility.html#a4959dcb82d86854e88fa8757194a00ec" target="_top" xlink:title=" ">
<polygon fill="white" stroke="#666666" points="684.25,-156.75 567.75,-156.75 567.75,-136 684.25,-136 684.25,-156.75"/>
<text text-anchor="middle" x="626" y="-143.25" font-family="Helvetica,sans-Serif" font-size="10.00">utility::encodeToUtf8</text>
</a>
</g>
</g>
<!-- Node3&#45;&gt;Node4 -->
<g id="edge3_Node000003_Node000004" class="edge">
<title>Node3&#45;&gt;Node4</title>
<g id="a_edge3_Node000003_Node000004"><a xlink:title=" ">
<path fill="none" stroke="#63b8ff" d="M502.02,-146.38C519.07,-146.38 538.18,-146.38 556.17,-146.38"/>
<polygon fill="#63b8ff" stroke="#63b8ff" points="555.97,-149.88 565.97,-146.38 555.97,-142.88 555.97,-149.88"/>
</a>
</g>
</g>
<!-- Node6 -->
<g id="Node000006" class="node">
<title>Node6</title>
<g id="a_Node000006"><a xlink:href="namespaceutility.html#a237f617b0b07dbb7215f63901217c7a4" target="_top" xlink:title=" ">
<polygon fill="white" stroke="#666666" points="659.88,-110.75 592.12,-110.75 592.12,-90 659.88,-90 659.88,-110.75"/>
<text text-anchor="middle" x="626" y="-97.25" font-family="Helvetica,sans-Serif" font-size="10.00">utility::join</text>
</a>
</g>
</g>
<!-- Node5&#45;&gt;Node6 -->
<g id="edge5_Node000005_Node000006" class="edge">
<title>Node5&#45;&gt;Node6</title>
<g id="a_edge5_Node000005_Node000006"><a xlink:title=" ">
<path fill="none" stroke="#63b8ff" d="M532.16,-97.22C548.88,-97.79 565.83,-98.36 580.58,-98.86"/>
<polygon fill="#63b8ff" stroke="#63b8ff" points="580.28,-102.36 590.39,-99.2 580.51,-95.36 580.28,-102.36"/>
</a>
</g>
</g>
<!-- Node7 -->
<g id="Node000007" class="node">
<title>Node7</title>
<g id="a_Node000007"><a xlink:href="namespaceutility.html#aea0681f6afa2ac9505f8f5a988bd04f8" target="_top" xlink:title=" ">
<polygon fill="white" stroke="#666666" points="672.62,-71.75 579.38,-71.75 579.38,-51 672.62,-51 672.62,-71.75"/>
<text text-anchor="middle" x="626" y="-58.25" font-family="Helvetica,sans-Serif" font-size="10.00">utility::toStrings</text>
</a>
</g>
</g>
<!-- Node5&#45;&gt;Node7 -->
<g id="edge6_Node000005_Node000007" class="edge">
<title>Node5&#45;&gt;Node7</title>
<g id="a_edge6_Node000005_Node000007"><a xlink:title=" ">
<path fill="none" stroke="#63b8ff" d="M532.16,-78.74C544.32,-76.47 556.59,-74.17 568.05,-72.03"/>
<polygon fill="#63b8ff" stroke="#63b8ff" points="568.54,-75.5 577.72,-70.22 567.25,-68.62 568.54,-75.5"/>
</a>
</g>
</g>
</g>
</svg>

<g id="navigator" transform="translate(0 0)" fill="#404254">
  <rect fill="#f2f5e9" fill-opacity="0.5" stroke="#606060" stroke-width=".5" x="0" y="0" width="60" height="60"/>
  <use id="zoomplus" xlink:href="#zoomPlus" x="17" y="9" onmousedown="handleZoom(evt,'in')"/>
  <use id="zoomminus" xlink:href="#zoomMin" x="42" y="9" onmousedown="handleZoom(evt,'out')"/>
  <use id="reset" xlink:href="#resetDef" x="30" y="36" onmousedown="handleReset()"/>
   <use id="arrowup" xlink:href="#arrowUp" x="0" y="0" onmousedown="handlePan(0,-1)"/>
  <use id="arrowright" xlink:href="#arrowRight" x="0" y="0" onmousedown="handlePan(1,0)"/>
  <use id="arrowdown" xlink:href="#arrowDown" x="0" y="0" onmousedown="handlePan(0,1)"/>
  <use id="arrowleft" xlink:href="#arrowLeft" x="0" y="0" onmousedown="handlePan(-1,0)"/>
</g>
<svg viewBox="0 0 15 15" width="100%" height="30px" preserveAspectRatio="xMaxYMin meet">
 <g id="arrow_out" transform="scale(0.3 0.3)">
  <a xlink:href="classPersistentStorage_a606afc0d3d5c184e901b47e1f1cd3071_cgraph_org.svg" target="_base">
   <rect id="button" ry="5" rx="5" y="6" x="6" height="38" width="38"
        fill="#f2f5e9" fill-opacity="0.5" stroke="#606060" stroke-width="1.0"/>
   <path id="arrow"
     d="M 11.500037,31.436501 C 11.940474,20.09759 22.043105,11.32322 32.158766,21.979434 L 37.068811,17.246167 C 37.068811,17.246167 37.088388,32 37.088388,32 L 22.160133,31.978069 C 22.160133,31.978069 26.997745,27.140456 26.997745,27.140456 C 18.528582,18.264221 13.291696,25.230495 11.500037,31.436501 z"
     style="fill:#404040;"/>
  </a>
 </g>
</svg>

<style type='text/css'>
<![CDATA[
[data-mouse-over-selected='false'] { opacity: 0.7; }
[data-mouse-over-selected='true']  { opacity: 1.0; }
]]>
</style>
<script type="application/ecmascript"><![CDATA[
document.addEventListener('DOMContentLoaded', (event) => {
  highlightEdges();
  highlightAdjacentNodes();
});
]]></script>
</svg>
