<?xml version="1.0" encoding="UTF-8" standalone="no"?>
<!DOCTYPE svg PUBLIC "-//W3C//DTD SVG 1.1//EN"
 "http://www.w3.org/Graphics/SVG/1.1/DTD/svg11.dtd">
<!-- Generated by graphviz version 9.0.0 (0)
 -->
<!-- Title: QtProjectWizardContentProjectData::check Pages: 1 -->
<!--zoomable 152 -->

<svg id="main" version="1.1" xmlns="http://www.w3.org/2000/svg" xmlns:xlink="http://www.w3.org/1999/xlink" xml:space="preserve" onload="init(evt)">
<style type="text/css"><![CDATA[
.node, .edge {opacity: 0.7;}
.node.selected, .edge.selected {opacity: 1;}
.edge:hover path { stroke: red; }
.edge:hover polygon { stroke: red; fill: red; }
]]></style>

<defs>
  <circle id="rim" cx="0" cy="0" r="7"/>
  <circle id="rim2" cx="0" cy="0" r="3.5"/>
  <g id="zoomPlus">
    <use xlink:href="#rim" fill="#404040"><set attributeName="fill" to="#808080" begin="zoomplus.mouseover" end="zoomplus.mouseout"/></use>
    <path d="M-4,0h8M0,-4v8" fill="none" stroke="white" stroke-width="1.5" pointer-events="none"/>
  </g>
  <g id="zoomMin">
    <use xlink:href="#rim" fill="#404040"><set attributeName="fill" to="#808080" begin="zoomminus.mouseover" end="zoomminus.mouseout"/></use>
    <path d="M-4,0h8" fill="none" stroke="white" stroke-width="1.5" pointer-events="none"/>
  </g>
  <g id="arrowUp" transform="translate(30 24)">
    <use xlink:href="#rim"/>
    <path pointer-events="none" fill="none" stroke="white" stroke-width="1.5" d="M0,-3.0v7 M-2.5,-0.5L0,-3.0L2.5,-0.5"/>
  </g>
  <g id="arrowRight" transform="rotate(90) translate(36 -43)">
    <use xlink:href="#rim"/>
    <path pointer-events="none" fill="none" stroke="white" stroke-width="1.5" d="M0,-3.0v7 M-2.5,-0.5L0,-3.0L2.5,-0.5"/>
  </g>
  <g id="arrowDown" transform="rotate(180) translate(-30 -48)">
    <use xlink:href="#rim"/>
    <path pointer-events="none" fill="none" stroke="white" stroke-width="1.5" d="M0,-3.0v7 M-2.5,-0.5L0,-3.0L2.5,-0.5"/>
  </g>
  <g id="arrowLeft" transform="rotate(270) translate(-36 17)">
    <use xlink:href="#rim"/>
    <path pointer-events="none" fill="none" stroke="white" stroke-width="1.5" d="M0,-3.0v7 M-2.5,-0.5L0,-3.0L2.5,-0.5"/>
  </g>
  <g id="resetDef">
    <use xlink:href="#rim2" fill="#404040"><set attributeName="fill" to="#808080" begin="reset.mouseover" end="reset.mouseout"/></use>
  </g>
</defs>
<script type="application/ecmascript">
var viewWidth = 792;
var viewHeight = 152;
var sectionId = 'dynsection-7';
</script>
<script type="application/ecmascript" xlink:href="svg.min.js"/>
<svg id="graph" class="graph">
<g id="viewport">
<title>QtProjectWizardContentProjectData::check</title>
<!-- Node1 -->
<g id="Node000001" class="node">
<title>Node1</title>
<g id="a_Node000001"><a xlink:title=" ">
<polygon fill="#999999" stroke="#666666" points="166.75,-72.12 0,-72.12 0,-38.62 166.75,-38.62 166.75,-72.12"/>
<text text-anchor="start" x="8" y="-58.62" font-family="Helvetica,sans-Serif" font-size="10.00">QtProjectWizardContentProject</text>
<text text-anchor="middle" x="83.38" y="-45.88" font-family="Helvetica,sans-Serif" font-size="10.00">Data::check</text>
</a>
</g>
</g>
<!-- Node2 -->
<g id="Node000002" class="node">
<title>Node2</title>
<g id="a_Node000002"><a xlink:href="classFileSystem.html#a48f0dd8044c3a5b1925047d052478e82" target="_top" xlink:title=" ">
<polygon fill="white" stroke="#666666" points="357.5,-110.75 206.5,-110.75 206.5,-90 357.5,-90 357.5,-110.75"/>
<text text-anchor="middle" x="282" y="-97.25" font-family="Helvetica,sans-Serif" font-size="10.00">FileSystem::createDirectory</text>
</a>
</g>
</g>
<!-- Node1&#45;&gt;Node2 -->
<g id="edge1_Node000001_Node000002" class="edge">
<title>Node1&#45;&gt;Node2</title>
<g id="a_edge1_Node000001_Node000002"><a xlink:title=" ">
<path fill="none" stroke="#63b8ff" d="M159.55,-72.58C180.49,-77.37 202.92,-82.51 222.73,-87.04"/>
<polygon fill="#63b8ff" stroke="#63b8ff" points="221.75,-90.4 232.27,-89.22 223.31,-83.58 221.75,-90.4"/>
</a>
</g>
</g>
<!-- Node7 -->
<g id="Node000007" class="node">
<title>Node7</title>
<g id="a_Node000007"><a xlink:href="classFilePath.html#a215df3b21952fed3555e543219fc8f7e" target="_top" xlink:title=" ">
<polygon fill="white" stroke="#666666" points="361.25,-72.12 202.75,-72.12 202.75,-38.62 361.25,-38.62 361.25,-72.12"/>
<text text-anchor="start" x="210.75" y="-58.62" font-family="Helvetica,sans-Serif" font-size="10.00">FilePath::expandEnvironment</text>
<text text-anchor="middle" x="282" y="-45.88" font-family="Helvetica,sans-Serif" font-size="10.00">Variables</text>
</a>
</g>
</g>
<!-- Node1&#45;&gt;Node7 -->
<g id="edge6_Node000001_Node000007" class="edge">
<title>Node1&#45;&gt;Node7</title>
<g id="a_edge6_Node000001_Node000007"><a xlink:title=" ">
<path fill="none" stroke="#63b8ff" d="M167.19,-55.38C175.02,-55.38 182.98,-55.38 190.87,-55.38"/>
<polygon fill="#63b8ff" stroke="#63b8ff" points="190.84,-58.88 200.84,-55.38 190.84,-51.88 190.84,-58.88"/>
</a>
</g>
</g>
<!-- Node10 -->
<g id="Node000010" class="node">
<title>Node10</title>
<g id="a_Node000010"><a xlink:href="classQtLocationPicker.html#ac8b7f258071eba5333bff9783c794a2a" target="_top" xlink:title=" ">
<polygon fill="white" stroke="#666666" points="351.88,-20.75 212.12,-20.75 212.12,0 351.88,0 351.88,-20.75"/>
<text text-anchor="middle" x="282" y="-7.25" font-family="Helvetica,sans-Serif" font-size="10.00">QtLocationPicker::getText</text>
</a>
</g>
</g>
<!-- Node1&#45;&gt;Node10 -->
<g id="edge10_Node000001_Node000010" class="edge">
<title>Node1&#45;&gt;Node10</title>
<g id="a_edge10_Node000001_Node000010"><a xlink:title=" ">
<path fill="none" stroke="#63b8ff" d="M159.55,-38.17C180.49,-33.38 202.92,-28.24 222.73,-23.71"/>
<polygon fill="#63b8ff" stroke="#63b8ff" points="223.31,-27.17 232.27,-21.53 221.75,-20.35 223.31,-27.17"/>
</a>
</g>
</g>
<!-- Node3 -->
<g id="Node000003" class="node">
<title>Node3</title>
<g id="a_Node000003"><a xlink:href="classFilePath.html#a59d0f48e8394367cbe2cd97d4e8fd0ec" target="_top" xlink:title=" ">
<polygon fill="white" stroke="#666666" points="525,-143.75 397.25,-143.75 397.25,-123 525,-123 525,-143.75"/>
<text text-anchor="middle" x="461.12" y="-130.25" font-family="Helvetica,sans-Serif" font-size="10.00">FilePath::recheckExists</text>
</a>
</g>
</g>
<!-- Node2&#45;&gt;Node3 -->
<g id="edge2_Node000002_Node000003" class="edge">
<title>Node2&#45;&gt;Node3</title>
<g id="a_edge2_Node000002_Node000003"><a xlink:title=" ">
<path fill="none" stroke="#63b8ff" d="M341,-111.18C356.9,-114.14 374.3,-117.39 390.77,-120.45"/>
<polygon fill="#63b8ff" stroke="#63b8ff" points="390.04,-123.88 400.51,-122.27 391.32,-117 390.04,-123.88"/>
</a>
</g>
</g>
<!-- Node6 -->
<g id="Node000006" class="node">
<title>Node6</title>
<g id="a_Node000006"><a xlink:href="classFilePath.html#ae43df68f4d64aa712319fcebebf5236b" target="_top" xlink:title=" ">
<polygon fill="white" stroke="#666666" points="497.62,-104.75 424.62,-104.75 424.62,-84 497.62,-84 497.62,-104.75"/>
<text text-anchor="middle" x="461.12" y="-91.25" font-family="Helvetica,sans-Serif" font-size="10.00">FilePath::str</text>
</a>
</g>
</g>
<!-- Node2&#45;&gt;Node6 -->
<g id="edge5_Node000002_Node000006" class="edge">
<title>Node2&#45;&gt;Node6</title>
<g id="a_edge5_Node000002_Node000006"><a xlink:title=" ">
<path fill="none" stroke="#63b8ff" d="M357.86,-97.84C376.58,-97.21 396.13,-96.54 413.07,-95.97"/>
<polygon fill="#63b8ff" stroke="#63b8ff" points="412.95,-99.48 422.82,-95.64 412.71,-92.48 412.95,-99.48"/>
</a>
</g>
</g>
<!-- Node4 -->
<g id="Node000004" class="node">
<title>Node4</title>
<g id="a_Node000004"><a xlink:href="classFilePath.html#a59fa57dcd7d19d74aaee62f072f14b3d" target="_top" xlink:title=" ">
<polygon fill="white" stroke="#666666" points="650.5,-143.75 561,-143.75 561,-123 650.5,-123 650.5,-143.75"/>
<text text-anchor="middle" x="605.75" y="-130.25" font-family="Helvetica,sans-Serif" font-size="10.00">FilePath::exists</text>
</a>
</g>
</g>
<!-- Node3&#45;&gt;Node4 -->
<g id="edge3_Node000003_Node000004" class="edge">
<title>Node3&#45;&gt;Node4</title>
<g id="a_edge3_Node000003_Node000004"><a xlink:title=" ">
<path fill="none" stroke="#63b8ff" d="M525.1,-133.38C533.12,-133.38 541.28,-133.38 549.18,-133.38"/>
<polygon fill="#63b8ff" stroke="#63b8ff" points="548.99,-136.88 558.99,-133.38 548.99,-129.88 548.99,-136.88"/>
</a>
</g>
</g>
<!-- Node5 -->
<g id="Node000005" class="node">
<title>Node5</title>
<g id="a_Node000005"><a xlink:href="classFilePath.html#a544387c4aea50aec855062fd02e436ae" target="_top" xlink:title=" ">
<polygon fill="white" stroke="#666666" points="784.25,-143.75 686.5,-143.75 686.5,-123 784.25,-123 784.25,-143.75"/>
<text text-anchor="middle" x="735.38" y="-130.25" font-family="Helvetica,sans-Serif" font-size="10.00">FilePath::getPath</text>
</a>
</g>
</g>
<!-- Node4&#45;&gt;Node5 -->
<g id="edge4_Node000004_Node000005" class="edge">
<title>Node4&#45;&gt;Node5</title>
<g id="a_edge4_Node000004_Node000005"><a xlink:title=" ">
<path fill="none" stroke="#63b8ff" d="M650.67,-133.38C658.41,-133.38 666.59,-133.38 674.68,-133.38"/>
<polygon fill="#63b8ff" stroke="#63b8ff" points="674.49,-136.88 684.49,-133.38 674.49,-129.88 674.49,-136.88"/>
</a>
</g>
</g>
<!-- Node7&#45;&gt;Node6 -->
<g id="edge9_Node000007_Node000006" class="edge">
<title>Node7&#45;&gt;Node6</title>
<g id="a_edge9_Node000007_Node000006"><a xlink:title=" ">
<path fill="none" stroke="#63b8ff" d="M361.21,-72.59C378.95,-76.5 397.27,-80.53 413.23,-84.05"/>
<polygon fill="#63b8ff" stroke="#63b8ff" points="412.41,-87.45 422.93,-86.19 413.92,-80.62 412.41,-87.45"/>
</a>
</g>
</g>
<!-- Node8 -->
<g id="Node000008" class="node">
<title>Node8</title>
<g id="a_Node000008"><a xlink:href="classFilePath.html#a10ab094ee4006c25fabc43b3b93d3eb2" target="_top" xlink:title=" ">
<polygon fill="white" stroke="#666666" points="510.38,-65.75 411.88,-65.75 411.88,-45 510.38,-45 510.38,-65.75"/>
<text text-anchor="middle" x="461.12" y="-52.25" font-family="Helvetica,sans-Serif" font-size="10.00">FilePath::FilePath</text>
</a>
</g>
</g>
<!-- Node7&#45;&gt;Node8 -->
<g id="edge7_Node000007_Node000008" class="edge">
<title>Node7&#45;&gt;Node8</title>
<g id="a_edge7_Node000007_Node000008"><a xlink:title=" ">
<path fill="none" stroke="#63b8ff" d="M361.72,-55.38C374.53,-55.38 387.63,-55.38 399.9,-55.38"/>
<polygon fill="#63b8ff" stroke="#63b8ff" points="399.88,-58.88 409.88,-55.38 399.88,-51.88 399.88,-58.88"/>
</a>
</g>
</g>
<!-- Node9 -->
<g id="Node000009" class="node">
<title>Node9</title>
<g id="a_Node000009"><a xlink:href="namespaceutility.html#a6c22b07f209d84b6de23cacd2d63984a" target="_top" xlink:title=" ">
<polygon fill="white" stroke="#666666" points="517.5,-26.75 404.75,-26.75 404.75,-6 517.5,-6 517.5,-26.75"/>
<text text-anchor="middle" x="461.12" y="-13.25" font-family="Helvetica,sans-Serif" font-size="10.00">utility::splitToVector</text>
</a>
</g>
</g>
<!-- Node7&#45;&gt;Node9 -->
<g id="edge8_Node000007_Node000009" class="edge">
<title>Node7&#45;&gt;Node9</title>
<g id="a_edge8_Node000007_Node000009"><a xlink:title=" ">
<path fill="none" stroke="#63b8ff" d="M361.21,-38.16C374.12,-35.31 387.33,-32.4 399.72,-29.67"/>
<polygon fill="#63b8ff" stroke="#63b8ff" points="400.35,-33.12 409.36,-27.55 398.84,-26.29 400.35,-33.12"/>
</a>
</g>
</g>
</g>
</svg>

<g id="navigator" transform="translate(0 0)" fill="#404254">
  <rect fill="#f2f5e9" fill-opacity="0.5" stroke="#606060" stroke-width=".5" x="0" y="0" width="60" height="60"/>
  <use id="zoomplus" xlink:href="#zoomPlus" x="17" y="9" onmousedown="handleZoom(evt,'in')"/>
  <use id="zoomminus" xlink:href="#zoomMin" x="42" y="9" onmousedown="handleZoom(evt,'out')"/>
  <use id="reset" xlink:href="#resetDef" x="30" y="36" onmousedown="handleReset()"/>
   <use id="arrowup" xlink:href="#arrowUp" x="0" y="0" onmousedown="handlePan(0,-1)"/>
  <use id="arrowright" xlink:href="#arrowRight" x="0" y="0" onmousedown="handlePan(1,0)"/>
  <use id="arrowdown" xlink:href="#arrowDown" x="0" y="0" onmousedown="handlePan(0,1)"/>
  <use id="arrowleft" xlink:href="#arrowLeft" x="0" y="0" onmousedown="handlePan(-1,0)"/>
</g>
<svg viewBox="0 0 15 15" width="100%" height="30px" preserveAspectRatio="xMaxYMin meet">
 <g id="arrow_out" transform="scale(0.3 0.3)">
  <a xlink:href="classQtProjectWizardContentProjectData_a025cdc38ffe2f1a7a9141c51807b038d_cgraph_org.svg" target="_base">
   <rect id="button" ry="5" rx="5" y="6" x="6" height="38" width="38"
        fill="#f2f5e9" fill-opacity="0.5" stroke="#606060" stroke-width="1.0"/>
   <path id="arrow"
     d="M 11.500037,31.436501 C 11.940474,20.09759 22.043105,11.32322 32.158766,21.979434 L 37.068811,17.246167 C 37.068811,17.246167 37.088388,32 37.088388,32 L 22.160133,31.978069 C 22.160133,31.978069 26.997745,27.140456 26.997745,27.140456 C 18.528582,18.264221 13.291696,25.230495 11.500037,31.436501 z"
     style="fill:#404040;"/>
  </a>
 </g>
</svg>

<style type='text/css'>
<![CDATA[
[data-mouse-over-selected='false'] { opacity: 0.7; }
[data-mouse-over-selected='true']  { opacity: 1.0; }
]]>
</style>
<script type="application/ecmascript"><![CDATA[
document.addEventListener('DOMContentLoaded', (event) => {
  highlightEdges();
  highlightAdjacentNodes();
});
]]></script>
</svg>
