<?xml version="1.0" encoding="UTF-8" standalone="no"?>
<!DOCTYPE svg PUBLIC "-//W3C//DTD SVG 1.1//EN"
 "http://www.w3.org/Graphics/SVG/1.1/DTD/svg11.dtd">
<!-- Generated by graphviz version 9.0.0 (0)
 -->
<!-- Title: QtStartScreen::openNewProjectDialog Pages: 1 -->
<!--zoomable 119 -->

<svg id="main" version="1.1" xmlns="http://www.w3.org/2000/svg" xmlns:xlink="http://www.w3.org/1999/xlink" xml:space="preserve" onload="init(evt)">
<style type="text/css"><![CDATA[
.node, .edge {opacity: 0.7;}
.node.selected, .edge.selected {opacity: 1;}
.edge:hover path { stroke: red; }
.edge:hover polygon { stroke: red; fill: red; }
]]></style>

<defs>
  <circle id="rim" cx="0" cy="0" r="7"/>
  <circle id="rim2" cx="0" cy="0" r="3.5"/>
  <g id="zoomPlus">
    <use xlink:href="#rim" fill="#404040"><set attributeName="fill" to="#808080" begin="zoomplus.mouseover" end="zoomplus.mouseout"/></use>
    <path d="M-4,0h8M0,-4v8" fill="none" stroke="white" stroke-width="1.5" pointer-events="none"/>
  </g>
  <g id="zoomMin">
    <use xlink:href="#rim" fill="#404040"><set attributeName="fill" to="#808080" begin="zoomminus.mouseover" end="zoomminus.mouseout"/></use>
    <path d="M-4,0h8" fill="none" stroke="white" stroke-width="1.5" pointer-events="none"/>
  </g>
  <g id="arrowUp" transform="translate(30 24)">
    <use xlink:href="#rim"/>
    <path pointer-events="none" fill="none" stroke="white" stroke-width="1.5" d="M0,-3.0v7 M-2.5,-0.5L0,-3.0L2.5,-0.5"/>
  </g>
  <g id="arrowRight" transform="rotate(90) translate(36 -43)">
    <use xlink:href="#rim"/>
    <path pointer-events="none" fill="none" stroke="white" stroke-width="1.5" d="M0,-3.0v7 M-2.5,-0.5L0,-3.0L2.5,-0.5"/>
  </g>
  <g id="arrowDown" transform="rotate(180) translate(-30 -48)">
    <use xlink:href="#rim"/>
    <path pointer-events="none" fill="none" stroke="white" stroke-width="1.5" d="M0,-3.0v7 M-2.5,-0.5L0,-3.0L2.5,-0.5"/>
  </g>
  <g id="arrowLeft" transform="rotate(270) translate(-36 17)">
    <use xlink:href="#rim"/>
    <path pointer-events="none" fill="none" stroke="white" stroke-width="1.5" d="M0,-3.0v7 M-2.5,-0.5L0,-3.0L2.5,-0.5"/>
  </g>
  <g id="resetDef">
    <use xlink:href="#rim2" fill="#404040"><set attributeName="fill" to="#808080" begin="reset.mouseover" end="reset.mouseout"/></use>
  </g>
</defs>
<script type="application/ecmascript">
var viewWidth = 1010;
var viewHeight = 119;
var sectionId = 'dynsection-27';
</script>
<script type="application/ecmascript" xlink:href="svg.min.js"/>
<svg id="graph" class="graph">
<g id="viewport">
<title>QtStartScreen::openNewProjectDialog</title>
<!-- Node1 -->
<g id="Node000001" class="node">
<title>Node1</title>
<g id="a_Node000001"><a xlink:title="A signal emitted when the new button clicked.">
<polygon fill="#999999" stroke="#666666" points="1001.75,-88.12 832.75,-88.12 832.75,-54.62 1001.75,-54.62 1001.75,-88.12"/>
<text text-anchor="start" x="840.75" y="-74.62" font-family="Helvetica,sans-Serif" font-size="10.00">QtStartScreen::openNewProject</text>
<text text-anchor="middle" x="917.25" y="-61.88" font-family="Helvetica,sans-Serif" font-size="10.00">Dialog</text>
</a>
</g>
</g>
<!-- Node2 -->
<g id="Node000002" class="node">
<title>Node2</title>
<g id="a_Node000002"><a xlink:href="classQtStartScreen.html#af94d51fdb8883ce5aa82174c8e8cdf4c" target="_top" xlink:title="Initialize the startup window elements.">
<polygon fill="white" stroke="#666666" points="777.62,-111.12 637.88,-111.12 637.88,-77.62 777.62,-77.62 777.62,-111.12"/>
<text text-anchor="start" x="645.88" y="-97.62" font-family="Helvetica,sans-Serif" font-size="10.00">QtStartScreen::setupStart</text>
<text text-anchor="middle" x="707.75" y="-84.88" font-family="Helvetica,sans-Serif" font-size="10.00">Screen</text>
</a>
</g>
</g>
<!-- Node1&#45;&gt;Node2 -->
<g id="edge1_Node000001_Node000002" class="edge">
<title>Node1&#45;&gt;Node2</title>
<g id="a_edge1_Node000001_Node000002"><a xlink:title=" ">
<path fill="none" stroke="#63b8ff" d="M821.33,-81.9C806.7,-83.52 791.84,-85.17 777.92,-86.71"/>
<polygon fill="#63b8ff" stroke="#63b8ff" points="821.39,-85.41 830.95,-80.83 820.62,-78.45 821.39,-85.41"/>
</a>
</g>
</g>
<!-- Node3 -->
<g id="Node000003" class="node">
<title>Node3</title>
<g id="a_Node000003"><a xlink:href="classQtMainWindow.html#a404ebb484bf058583023f652765ec5b2" target="_top" xlink:title=" ">
<polygon fill="white" stroke="#666666" points="796.75,-59.75 618.75,-59.75 618.75,-39 796.75,-39 796.75,-59.75"/>
<text text-anchor="middle" x="707.75" y="-46.25" font-family="Helvetica,sans-Serif" font-size="10.00">QtMainWindow::showStartScreen</text>
</a>
</g>
</g>
<!-- Node1&#45;&gt;Node3 -->
<g id="edge2_Node000001_Node000003" class="edge">
<title>Node1&#45;&gt;Node3</title>
<g id="a_edge2_Node000001_Node000003"><a xlink:title=" ">
<path fill="none" stroke="#63b8ff" d="M821.12,-61.29C813.06,-60.43 804.93,-59.57 796.93,-58.72"/>
<polygon fill="#63b8ff" stroke="#63b8ff" points="820.63,-64.76 830.94,-62.33 821.37,-57.8 820.63,-64.76"/>
</a>
</g>
</g>
<!-- Node4 -->
<g id="Node000004" class="node">
<title>Node4</title>
<g id="a_Node000004"><a xlink:href="classQtMainWindow.html#aa58fe1b13bce5824a67d5084087b9670" target="_top" xlink:title=" ">
<polygon fill="white" stroke="#666666" points="582.38,-98.75 426.88,-98.75 426.88,-78 582.38,-78 582.38,-98.75"/>
<text text-anchor="middle" x="504.62" y="-85.25" font-family="Helvetica,sans-Serif" font-size="10.00">QtMainWindow::closeProject</text>
</a>
</g>
</g>
<!-- Node3&#45;&gt;Node4 -->
<g id="edge3_Node000003_Node000004" class="edge">
<title>Node3&#45;&gt;Node4</title>
<g id="a_edge3_Node000003_Node000004"><a xlink:title=" ">
<path fill="none" stroke="#63b8ff" d="M639.72,-62.37C614.41,-67.28 585.9,-72.81 561.7,-77.5"/>
<polygon fill="#63b8ff" stroke="#63b8ff" points="640.09,-65.87 649.24,-60.53 638.76,-58.99 640.09,-65.87"/>
</a>
</g>
</g>
<!-- Node7 -->
<g id="Node000007" class="node">
<title>Node7</title>
<g id="a_Node000007"><a xlink:href="classQtMainWindow.html#a5a89659db627ceb71914275b5bbdd1eb" target="_top" xlink:title=" ">
<polygon fill="white" stroke="#666666" points="582.75,-59.75 426.5,-59.75 426.5,-39 582.75,-39 582.75,-59.75"/>
<text text-anchor="middle" x="504.62" y="-46.25" font-family="Helvetica,sans-Serif" font-size="10.00">QtMainWindow::loadWindow</text>
</a>
</g>
</g>
<!-- Node3&#45;&gt;Node7 -->
<g id="edge6_Node000003_Node000007" class="edge">
<title>Node3&#45;&gt;Node7</title>
<g id="a_edge6_Node000003_Node000007"><a xlink:title=" ">
<path fill="none" stroke="#63b8ff" d="M607.12,-49.38C599.04,-49.38 590.94,-49.38 583.04,-49.38"/>
<polygon fill="#63b8ff" stroke="#63b8ff" points="607.02,-52.88 617.02,-49.38 607.02,-45.88 607.02,-52.88"/>
</a>
</g>
</g>
<!-- Node9 -->
<g id="Node000009" class="node">
<title>Node9</title>
<g id="a_Node000009"><a xlink:href="classQtMainWindow.html#a304f403073f323be6d6a388bb5c64b65" target="_top" xlink:title=" ">
<polygon fill="white" stroke="#666666" points="385.62,-20.75 211.38,-20.75 211.38,0 385.62,0 385.62,-20.75"/>
<text text-anchor="middle" x="298.5" y="-7.25" font-family="Helvetica,sans-Serif" font-size="10.00">QtMainWindow::setupViewMenu</text>
</a>
</g>
</g>
<!-- Node3&#45;&gt;Node9 -->
<g id="edge8_Node000003_Node000009" class="edge">
<title>Node3&#45;&gt;Node9</title>
<g id="a_edge8_Node000003_Node000009"><a xlink:title=" ">
<path fill="none" stroke="#63b8ff" d="M631.55,-36.85C615.48,-34.45 598.58,-32.14 582.75,-30.38 516.85,-23.01 442.01,-17.87 385.82,-14.64"/>
<polygon fill="#63b8ff" stroke="#63b8ff" points="630.62,-40.25 641.03,-38.29 631.67,-33.32 630.62,-40.25"/>
</a>
</g>
</g>
<!-- Node5 -->
<g id="Node000005" class="node">
<title>Node5</title>
<g id="a_Node000005"><a xlink:href="classQtMainWindow.html#a664153854c294f6243af5fbb203687e1" target="_top" xlink:title=" ">
<polygon fill="white" stroke="#666666" points="390.5,-98.75 206.5,-98.75 206.5,-78 390.5,-78 390.5,-98.75"/>
<text text-anchor="middle" x="298.5" y="-85.25" font-family="Helvetica,sans-Serif" font-size="10.00">QtMainWindow::setupProjectMenu</text>
</a>
</g>
</g>
<!-- Node4&#45;&gt;Node5 -->
<g id="edge4_Node000004_Node000005" class="edge">
<title>Node4&#45;&gt;Node5</title>
<g id="a_edge4_Node000004_Node000005"><a xlink:title=" ">
<path fill="none" stroke="#63b8ff" d="M415.16,-88.38C407.1,-88.38 398.93,-88.38 390.85,-88.38"/>
<polygon fill="#63b8ff" stroke="#63b8ff" points="414.94,-91.88 424.94,-88.38 414.94,-84.88 414.94,-91.88"/>
</a>
</g>
</g>
<!-- Node6 -->
<g id="Node000006" class="node">
<title>Node6</title>
<g id="a_Node000006"><a xlink:href="classQtMainWindow.html#ab526da2f9eb598fdbee15a62a4323ad0" target="_top" xlink:title=" ">
<polygon fill="white" stroke="#666666" points="170.5,-59.75 0,-59.75 0,-39 170.5,-39 170.5,-59.75"/>
<text text-anchor="middle" x="85.25" y="-46.25" font-family="Helvetica,sans-Serif" font-size="10.00">QtMainWindow::QtMainWindow</text>
</a>
</g>
</g>
<!-- Node5&#45;&gt;Node6 -->
<g id="edge5_Node000005_Node000006" class="edge">
<title>Node5&#45;&gt;Node6</title>
<g id="a_edge5_Node000005_Node000006"><a xlink:title=" ">
<path fill="none" stroke="#63b8ff" d="M227.46,-75.44C200.78,-70.52 170.68,-64.96 145.15,-60.25"/>
<polygon fill="#63b8ff" stroke="#63b8ff" points="226.7,-78.86 237.17,-77.24 227.97,-71.98 226.7,-78.86"/>
</a>
</g>
</g>
<!-- Node8 -->
<g id="Node000008" class="node">
<title>Node8</title>
<g id="a_Node000008"><a xlink:href="classQtMainView.html#a245543879da96e4e8a8f30c1724014de" target="_top" xlink:title=" ">
<polygon fill="white" stroke="#666666" points="369.12,-59.75 227.88,-59.75 227.88,-39 369.12,-39 369.12,-59.75"/>
<text text-anchor="middle" x="298.5" y="-46.25" font-family="Helvetica,sans-Serif" font-size="10.00">QtMainView::loadWindow</text>
</a>
</g>
</g>
<!-- Node7&#45;&gt;Node8 -->
<g id="edge7_Node000007_Node000008" class="edge">
<title>Node7&#45;&gt;Node8</title>
<g id="a_edge7_Node000007_Node000008"><a xlink:title=" ">
<path fill="none" stroke="#63b8ff" d="M414.7,-49.38C399.58,-49.38 384.08,-49.38 369.53,-49.38"/>
<polygon fill="#63b8ff" stroke="#63b8ff" points="414.65,-52.88 424.65,-49.38 414.65,-45.88 414.65,-52.88"/>
</a>
</g>
</g>
<!-- Node9&#45;&gt;Node6 -->
<g id="edge9_Node000009_Node000006" class="edge">
<title>Node9&#45;&gt;Node6</title>
<g id="a_edge9_Node000009_Node000006"><a xlink:title=" ">
<path fill="none" stroke="#63b8ff" d="M227.46,-23.31C200.78,-28.23 170.68,-33.79 145.15,-38.5"/>
<polygon fill="#63b8ff" stroke="#63b8ff" points="227.97,-26.77 237.17,-21.51 226.7,-19.89 227.97,-26.77"/>
</a>
</g>
</g>
</g>
</svg>

<g id="navigator" transform="translate(0 0)" fill="#404254">
  <rect fill="#f2f5e9" fill-opacity="0.5" stroke="#606060" stroke-width=".5" x="0" y="0" width="60" height="60"/>
  <use id="zoomplus" xlink:href="#zoomPlus" x="17" y="9" onmousedown="handleZoom(evt,'in')"/>
  <use id="zoomminus" xlink:href="#zoomMin" x="42" y="9" onmousedown="handleZoom(evt,'out')"/>
  <use id="reset" xlink:href="#resetDef" x="30" y="36" onmousedown="handleReset()"/>
   <use id="arrowup" xlink:href="#arrowUp" x="0" y="0" onmousedown="handlePan(0,-1)"/>
  <use id="arrowright" xlink:href="#arrowRight" x="0" y="0" onmousedown="handlePan(1,0)"/>
  <use id="arrowdown" xlink:href="#arrowDown" x="0" y="0" onmousedown="handlePan(0,1)"/>
  <use id="arrowleft" xlink:href="#arrowLeft" x="0" y="0" onmousedown="handlePan(-1,0)"/>
</g>
<svg viewBox="0 0 15 15" width="100%" height="30px" preserveAspectRatio="xMaxYMin meet">
 <g id="arrow_out" transform="scale(0.3 0.3)">
  <a xlink:href="classQtStartScreen_a621c8f5c23396b39bff91577d61f74a4_icgraph_org.svg" target="_base">
   <rect id="button" ry="5" rx="5" y="6" x="6" height="38" width="38"
        fill="#f2f5e9" fill-opacity="0.5" stroke="#606060" stroke-width="1.0"/>
   <path id="arrow"
     d="M 11.500037,31.436501 C 11.940474,20.09759 22.043105,11.32322 32.158766,21.979434 L 37.068811,17.246167 C 37.068811,17.246167 37.088388,32 37.088388,32 L 22.160133,31.978069 C 22.160133,31.978069 26.997745,27.140456 26.997745,27.140456 C 18.528582,18.264221 13.291696,25.230495 11.500037,31.436501 z"
     style="fill:#404040;"/>
  </a>
 </g>
</svg>

<style type='text/css'>
<![CDATA[
[data-mouse-over-selected='false'] { opacity: 0.7; }
[data-mouse-over-selected='true']  { opacity: 1.0; }
]]>
</style>
<script type="application/ecmascript"><![CDATA[
document.addEventListener('DOMContentLoaded', (event) => {
  highlightEdges();
  highlightAdjacentNodes();
});
]]></script>
</svg>
