<?xml version="1.0" encoding="UTF-8" standalone="no"?>
<!DOCTYPE svg PUBLIC "-//W3C//DTD SVG 1.1//EN"
 "http://www.w3.org/Graphics/SVG/1.1/DTD/svg11.dtd">
<!-- Generated by graphviz version 9.0.0 (0)
 -->
<!-- Title: GraphController::bundleByType Pages: 1 -->
<svg width="849pt" height="196pt"
 viewBox="0.00 0.00 849.25 196.12" xmlns="http://www.w3.org/2000/svg" xmlns:xlink="http://www.w3.org/1999/xlink">
<g id="graph0" class="graph" transform="scale(1 1) rotate(0) translate(4 192.12)">
<title>GraphController::bundleByType</title>
<!-- Node1 -->
<g id="Node000001" class="node">
<title>Node1</title>
<g id="a_Node000001"><a xlink:title=" ">
<polygon fill="#999999" stroke="#666666" points="167.5,-98.75 0,-98.75 0,-78 167.5,-78 167.5,-98.75"/>
<text text-anchor="middle" x="83.75" y="-85.25" font-family="Helvetica,sans-Serif" font-size="10.00">GraphController::bundleByType</text>
</a>
</g>
</g>
<!-- Node1&#45;&gt;Node1 -->
<g id="edge1_Node000001_Node000001" class="edge">
<title>Node1&#45;&gt;Node1</title>
<g id="a_edge1_Node000001_Node000001"><a xlink:title=" ">
<path fill="none" stroke="#63b8ff" d="M51.32,-99.15C38.35,-107.81 49.16,-116.75 83.75,-116.75 102.67,-116.75 114.47,-114.08 119.16,-110.24"/>
<polygon fill="#63b8ff" stroke="#63b8ff" points="122.55,-109.36 116.57,-100.61 115.79,-111.17 122.55,-109.36"/>
</a>
</g>
</g>
<!-- Node2 -->
<g id="Node000002" class="node">
<title>Node2</title>
<g id="a_Node000002"><a xlink:href="classGraphController.html#a5365752d1ff821713d29b5c5704f9e0d" target="_top" xlink:title=" ">
<polygon fill="white" stroke="#666666" points="366.5,-188.12 203.5,-188.12 203.5,-154.62 366.5,-154.62 366.5,-188.12"/>
<text text-anchor="start" x="211.5" y="-174.62" font-family="Helvetica,sans-Serif" font-size="10.00">GraphController::bundleNodes</text>
<text text-anchor="middle" x="285" y="-161.88" font-family="Helvetica,sans-Serif" font-size="10.00">Matching</text>
</a>
</g>
</g>
<!-- Node1&#45;&gt;Node2 -->
<g id="edge2_Node000001_Node000002" class="edge">
<title>Node1&#45;&gt;Node2</title>
<g id="a_edge2_Node000001_Node000002"><a xlink:title=" ">
<path fill="none" stroke="#63b8ff" d="M108.27,-99.05C132.14,-109.79 170.2,-126.68 203.5,-140.38 211.3,-143.58 219.57,-146.88 227.71,-150.07"/>
<polygon fill="#63b8ff" stroke="#63b8ff" points="226.31,-153.28 236.89,-153.64 228.84,-146.76 226.31,-153.28"/>
</a>
</g>
</g>
<!-- Node4 -->
<g id="Node000004" class="node">
<title>Node4</title>
<g id="a_Node000004"><a xlink:href="classGraphController.html#ad37e3ae36fb143ed80aa552dea4d5bcf" target="_top" xlink:title=" ">
<polygon fill="white" stroke="#666666" points="541.5,-139.75 402.5,-139.75 402.5,-119 541.5,-119 541.5,-139.75"/>
<text text-anchor="middle" x="472" y="-126.25" font-family="Helvetica,sans-Serif" font-size="10.00">GraphController::getView</text>
</a>
</g>
</g>
<!-- Node1&#45;&gt;Node4 -->
<g id="edge9_Node000001_Node000004" class="edge">
<title>Node1&#45;&gt;Node4</title>
<g id="a_edge9_Node000001_Node000004"><a xlink:title=" ">
<path fill="none" stroke="#63b8ff" d="M146.87,-99.23C165.08,-102.17 185.05,-105.14 203.5,-107.38 266.21,-114.96 337.51,-120.68 390.72,-124.38"/>
<polygon fill="#63b8ff" stroke="#63b8ff" points="390.4,-127.87 400.62,-125.06 390.88,-120.89 390.4,-127.87"/>
</a>
</g>
</g>
<!-- Node7 -->
<g id="Node000007" class="node">
<title>Node7</title>
<g id="a_Node000007"><a xlink:href="classGraphView.html#ab535607bb18c2dca2439efd068c74583" target="_top" xlink:title=" ">
<polygon fill="white" stroke="#666666" points="334.62,-98.75 235.38,-98.75 235.38,-78 334.62,-78 334.62,-98.75"/>
<text text-anchor="middle" x="285" y="-85.25" font-family="Helvetica,sans-Serif" font-size="10.00">GraphView::clear</text>
</a>
</g>
</g>
<!-- Node1&#45;&gt;Node7 -->
<g id="edge7_Node000001_Node000007" class="edge">
<title>Node1&#45;&gt;Node7</title>
<g id="a_edge7_Node000001_Node000007"><a xlink:title=" ">
<path fill="none" stroke="#63b8ff" d="M167.81,-88.38C186.46,-88.38 205.92,-88.38 223.45,-88.38"/>
<polygon fill="#63b8ff" stroke="#63b8ff" points="223.44,-91.88 233.44,-88.38 223.44,-84.88 223.44,-91.88"/>
</a>
</g>
</g>
<!-- Node8 -->
<g id="Node000008" class="node">
<title>Node8</title>
<g id="a_Node000008"><a xlink:href="classNode.html#a8fad79f65f64fc6c150574e023eb043f" target="_top" xlink:title=" ">
<polygon fill="white" stroke="#666666" points="327.88,-59.75 242.12,-59.75 242.12,-39 327.88,-39 327.88,-59.75"/>
<text text-anchor="middle" x="285" y="-46.25" font-family="Helvetica,sans-Serif" font-size="10.00">Node::getType</text>
</a>
</g>
</g>
<!-- Node1&#45;&gt;Node8 -->
<g id="edge8_Node000001_Node000008" class="edge">
<title>Node1&#45;&gt;Node8</title>
<g id="a_edge8_Node000001_Node000008"><a xlink:title=" ">
<path fill="none" stroke="#63b8ff" d="M140.25,-77.51C168.49,-71.98 202.65,-65.3 230.59,-59.83"/>
<polygon fill="#63b8ff" stroke="#63b8ff" points="231.12,-63.29 240.26,-57.94 229.77,-56.42 231.12,-63.29"/>
</a>
</g>
</g>
<!-- Node9 -->
<g id="Node000009" class="node">
<title>Node9</title>
<g id="a_Node000009"><a xlink:href="structDummyNode.html#aa3924d8b494b3cc9534db013d76746c0" target="_top" xlink:title=" ">
<polygon fill="white" stroke="#666666" points="359.75,-20.75 210.25,-20.75 210.25,0 359.75,0 359.75,-20.75"/>
<text text-anchor="middle" x="285" y="-7.25" font-family="Helvetica,sans-Serif" font-size="10.00">DummyNode::isGraphNode</text>
</a>
</g>
</g>
<!-- Node1&#45;&gt;Node9 -->
<g id="edge10_Node000001_Node000009" class="edge">
<title>Node1&#45;&gt;Node9</title>
<g id="a_edge10_Node000001_Node000009"><a xlink:title=" ">
<path fill="none" stroke="#63b8ff" d="M103.54,-77.65C126.51,-64.91 166.85,-43.71 203.5,-30.38 209.57,-28.17 215.98,-26.12 222.43,-24.24"/>
<polygon fill="#63b8ff" stroke="#63b8ff" points="223.1,-27.69 231.81,-21.65 221.24,-20.94 223.1,-27.69"/>
</a>
</g>
</g>
<!-- Node3 -->
<g id="Node000003" class="node">
<title>Node3</title>
<g id="a_Node000003"><a xlink:href="classToken.html#a7327713d89dab24b733a7ff9096deea0" target="_top" xlink:title=" ">
<polygon fill="white" stroke="#666666" points="509.25,-181.75 434.75,-181.75 434.75,-161 509.25,-161 509.25,-181.75"/>
<text text-anchor="middle" x="472" y="-168.25" font-family="Helvetica,sans-Serif" font-size="10.00">Token::getId</text>
</a>
</g>
</g>
<!-- Node2&#45;&gt;Node3 -->
<g id="edge3_Node000002_Node000003" class="edge">
<title>Node2&#45;&gt;Node3</title>
<g id="a_edge3_Node000002_Node000003"><a xlink:title=" ">
<path fill="none" stroke="#63b8ff" d="M366.87,-171.38C385.99,-171.38 405.78,-171.38 422.91,-171.38"/>
<polygon fill="#63b8ff" stroke="#63b8ff" points="422.79,-174.88 432.79,-171.38 422.79,-167.88 422.79,-174.88"/>
</a>
</g>
</g>
<!-- Node2&#45;&gt;Node4 -->
<g id="edge4_Node000002_Node000004" class="edge">
<title>Node2&#45;&gt;Node4</title>
<g id="a_edge4_Node000002_Node000004"><a xlink:title=" ">
<path fill="none" stroke="#63b8ff" d="M361.78,-154.17C378.64,-150.34 396.27,-146.34 412.33,-142.69"/>
<polygon fill="#63b8ff" stroke="#63b8ff" points="412.71,-146.2 421.69,-140.57 411.16,-139.37 412.71,-146.2"/>
</a>
</g>
</g>
<!-- Node5 -->
<g id="Node000005" class="node">
<title>Node5</title>
<g id="a_Node000005"><a xlink:href="classController.html#a431a774ef12696f8bb22903cada1485c" target="_top" xlink:title=" ">
<polygon fill="white" stroke="#666666" points="687.25,-139.75 577.5,-139.75 577.5,-119 687.25,-119 687.25,-139.75"/>
<text text-anchor="middle" x="632.38" y="-126.25" font-family="Helvetica,sans-Serif" font-size="10.00">Controller::getView</text>
</a>
</g>
</g>
<!-- Node4&#45;&gt;Node5 -->
<g id="edge5_Node000004_Node000005" class="edge">
<title>Node4&#45;&gt;Node5</title>
<g id="a_edge5_Node000004_Node000005"><a xlink:title=" ">
<path fill="none" stroke="#63b8ff" d="M541.54,-129.38C549.52,-129.38 557.64,-129.38 565.58,-129.38"/>
<polygon fill="#63b8ff" stroke="#63b8ff" points="565.53,-132.88 575.53,-129.38 565.53,-125.88 565.53,-132.88"/>
</a>
</g>
</g>
<!-- Node6 -->
<g id="Node000006" class="node">
<title>Node6</title>
<g id="a_Node000006"><a xlink:href="classComponent.html#a9f4dbd8f986abae9d6014b4a34d2b014" target="_top" xlink:title=" ">
<polygon fill="white" stroke="#666666" points="841.25,-139.75 723.25,-139.75 723.25,-119 841.25,-119 841.25,-139.75"/>
<text text-anchor="middle" x="782.25" y="-126.25" font-family="Helvetica,sans-Serif" font-size="10.00">Component::getView</text>
</a>
</g>
</g>
<!-- Node5&#45;&gt;Node6 -->
<g id="edge6_Node000005_Node000006" class="edge">
<title>Node5&#45;&gt;Node6</title>
<g id="a_edge6_Node000005_Node000006"><a xlink:title=" ">
<path fill="none" stroke="#63b8ff" d="M687.6,-129.38C695.39,-129.38 703.49,-129.38 711.52,-129.38"/>
<polygon fill="#63b8ff" stroke="#63b8ff" points="711.29,-132.88 721.29,-129.38 711.29,-125.88 711.29,-132.88"/>
</a>
</g>
</g>
</g>
</svg>
