<?xml version="1.0" encoding="UTF-8" standalone="no"?>
<!DOCTYPE svg PUBLIC "-//W3C//DTD SVG 1.1//EN"
 "http://www.w3.org/Graphics/SVG/1.1/DTD/svg11.dtd">
<!-- Generated by graphviz version 7.1.0 (0)
 -->
<!-- Title: Project::load Pages: 1 -->
<!--zoomable 397 -->
<svg id="main" version="1.1" xmlns="http://www.w3.org/2000/svg" xmlns:xlink="http://www.w3.org/1999/xlink" xml:space="preserve" onload="init(evt)">
<style type="text/css"><![CDATA[
.edge:hover path { stroke: red; }
.edge:hover polygon { stroke: red; fill: red; }
]]></style>
<script type="text/javascript"><![CDATA[
var edges = document.getElementsByTagName('g');
if (edges && edges.length) {
  for (var i=0;i<edges.length;i++) {
    if (edges[i].id.substr(0,4)=='edge') {
      edges[i].setAttribute('class','edge');
    }
  }
}
]]></script>
        <defs>
                <circle id="rim" cx="0" cy="0" r="7"/>
                <circle id="rim2" cx="0" cy="0" r="3.5"/>
                <g id="zoomPlus">
                        <use xlink:href="#rim" fill="#404040">
                                <set attributeName="fill" to="#808080" begin="zoomplus.mouseover" end="zoomplus.mouseout"/>
                        </use>
                        <path d="M-4,0h8M0,-4v8" fill="none" stroke="white" stroke-width="1.5" pointer-events="none"/>
                </g>
                <g id="zoomMin">
                        <use xlink:href="#rim" fill="#404040">
                                <set attributeName="fill" to="#808080" begin="zoomminus.mouseover" end="zoomminus.mouseout"/>
                        </use>
                        <path d="M-4,0h8" fill="none" stroke="white" stroke-width="1.5" pointer-events="none"/>
                </g>
                <g id="dirArrow">
                        <path fill="none" stroke="white" stroke-width="1.5" d="M0,-3.0v7 M-2.5,-0.5L0,-3.0L2.5,-0.5"/>
                </g>
               <g id="resetDef">
                       <use xlink:href="#rim2" fill="#404040">
                               <set attributeName="fill" to="#808080" begin="reset.mouseover" end="reset.mouseout"/>
                       </use>
               </g>
        </defs>

<script type="text/javascript">
var viewWidth = 969;
var viewHeight = 397;
var sectionId = 'dynsection-9';
</script>
<script xlink:href="svgpan.js"/>
<svg id="graph" class="graph">
<g id="viewport">
<title>Project::load</title>
<!-- Node1 -->
<g id="node1" class="node">
<title>Node1</title>
<g id="a_node1"><a xlink:title=" ">
<polygon fill="#999999" stroke="#666666" points="77,-226 0,-226 0,-207 77,-207 77,-226"/>
<text text-anchor="middle" x="38.5" y="-214" font-family="Helvetica,sans-Serif" font-size="10.00">Project::load</text>
</a>
</g>
</g>
<!-- Node2 -->
<g id="node2" class="node">
<title>Node2</title>
<g id="a_node2"><a xlink:href="classStorageCache.html#a61b16171280f416a7d85f5ec2a219702" target="_top" xlink:title=" ">
<polygon fill="white" stroke="#666666" points="256.5,-380 142.5,-380 142.5,-361 256.5,-361 256.5,-380"/>
<text text-anchor="middle" x="199.5" y="-368" font-family="Helvetica,sans-Serif" font-size="10.00">StorageCache::clear</text>
</a>
</g>
</g>
<!-- Node1&#45;&gt;Node2 -->
<g id="edge1" class="edge">
<title>Node1&#45;&gt;Node2</title>
<path fill="none" stroke="#63b8ff" d="M41.98,-226.32C48.76,-251.11 70.06,-316.62 113,-349.5 118.58,-353.77 124.9,-357.18 131.53,-359.91"/>
<polygon fill="#63b8ff" stroke="#63b8ff" points="130.11,-363.12 140.71,-363.15 132.45,-356.52 130.11,-363.12"/>
</g>
<!-- Node4 -->
<g id="node4" class="node">
<title>Node4</title>
<g id="a_node4"><a xlink:href="classMessage.html#aa60564025ee950bf52c8deb6ac1bb843" target="_top" xlink:title=" ">
<polygon fill="white" stroke="#666666" points="253,-340 146,-340 146,-321 253,-321 253,-340"/>
<text text-anchor="middle" x="199.5" y="-328" font-family="Helvetica,sans-Serif" font-size="10.00">Message::dispatch</text>
</a>
</g>
</g>
<!-- Node1&#45;&gt;Node4 -->
<g id="edge3" class="edge">
<title>Node1&#45;&gt;Node4</title>
<path fill="none" stroke="#63b8ff" d="M44.75,-226.29C55.19,-244.85 80.43,-285.17 113,-306.5 119.74,-310.91 127.29,-314.53 135.04,-317.48"/>
<polygon fill="#63b8ff" stroke="#63b8ff" points="133.64,-320.7 144.24,-320.62 135.91,-314.08 133.64,-320.7"/>
</g>
<!-- Node7 -->
<g id="node7" class="node">
<title>Node7</title>
<g id="a_node7"><a xlink:href="classFilePath.html#a59fa57dcd7d19d74aaee62f072f14b3d" target="_top" xlink:title=" ">
<polygon fill="white" stroke="#666666" points="827,-188 737,-188 737,-169 827,-169 827,-188"/>
<text text-anchor="middle" x="782" y="-176" font-family="Helvetica,sans-Serif" font-size="10.00">FilePath::exists</text>
</a>
</g>
</g>
<!-- Node1&#45;&gt;Node7 -->
<g id="edge6" class="edge">
<title>Node1&#45;&gt;Node7</title>
<path fill="none" stroke="#63b8ff" d="M77.29,-214.56C199.12,-208.32 581.97,-188.7 725.73,-181.33"/>
<polygon fill="#63b8ff" stroke="#63b8ff" points="725.55,-184.85 735.36,-180.84 725.19,-177.86 725.55,-184.85"/>
</g>
<!-- Node9 -->
<g id="node9" class="node">
<title>Node9</title>
<g id="a_node9"><a xlink:href="classSourceGroupFactory.html#aae57e9cf8c037b436fe018718532cc3a" target="_top" xlink:title=" ">
<polygon fill="white" stroke="#666666" points="257,-150.5 142,-150.5 142,-120.5 257,-120.5 257,-150.5"/>
<text text-anchor="start" x="150" y="-138.5" font-family="Helvetica,sans-Serif" font-size="10.00">SourceGroupFactory</text>
<text text-anchor="middle" x="199.5" y="-127.5" font-family="Helvetica,sans-Serif" font-size="10.00">::getInstance</text>
</a>
</g>
</g>
<!-- Node1&#45;&gt;Node9 -->
<g id="edge8" class="edge">
<title>Node1&#45;&gt;Node9</title>
<path fill="none" stroke="#63b8ff" d="M51.29,-206.52C65.26,-195.09 89.6,-176.42 113,-164.5 119.76,-161.06 127.01,-157.88 134.34,-154.99"/>
<polygon fill="#63b8ff" stroke="#63b8ff" points="135.52,-158.29 143.65,-151.5 133.06,-151.73 135.52,-158.29"/>
</g>
<!-- Node11 -->
<g id="node11" class="node">
<title>Node11</title>
<g id="a_node11"><a xlink:href="classSettings.html#a9b137c22f21186e2b04db5bb7a92458c" target="_top" xlink:title=" ">
<polygon fill="white" stroke="#666666" points="268,-102 131,-102 131,-83 268,-83 268,-102"/>
<text text-anchor="middle" x="199.5" y="-90" font-family="Helvetica,sans-Serif" font-size="10.00">Settings::loadFromString</text>
</a>
</g>
</g>
<!-- Node1&#45;&gt;Node11 -->
<g id="edge10" class="edge">
<title>Node1&#45;&gt;Node11</title>
<path fill="none" stroke="#63b8ff" d="M43.47,-206.54C52.44,-185.41 76.37,-135.99 113,-111.5 115.52,-109.81 118.17,-108.28 120.9,-106.87"/>
<polygon fill="#63b8ff" stroke="#63b8ff" points="122.03,-110.2 129.77,-102.97 119.2,-103.8 122.03,-110.2"/>
</g>
<!-- Node17 -->
<g id="node17" class="node">
<title>Node17</title>
<g id="a_node17"><a xlink:href="classFileSystem.html#aa4183c7586c67991da30824e1ac2a422" target="_top" xlink:title=" ">
<polygon fill="white" stroke="#666666" points="463.5,-282 350.5,-282 350.5,-263 463.5,-263 463.5,-282"/>
<text text-anchor="middle" x="407" y="-270" font-family="Helvetica,sans-Serif" font-size="10.00">FileSystem::remove</text>
</a>
</g>
</g>
<!-- Node1&#45;&gt;Node17 -->
<g id="edge16" class="edge">
<title>Node1&#45;&gt;Node17</title>
<path fill="none" stroke="#63b8ff" d="M47.82,-226.1C60.33,-239.73 85.5,-264.09 113,-273.5 189.18,-299.58 283.18,-293.02 343.83,-284.22"/>
<polygon fill="#63b8ff" stroke="#63b8ff" points="344.28,-287.69 353.63,-282.73 343.22,-280.77 344.28,-287.69"/>
</g>
<!-- Node19 -->
<g id="node19" class="node">
<title>Node19</title>
<g id="a_node19"><a xlink:href="classFileSystem.html#a97237343224b5f2d10ec38d6b81653a7" target="_top" xlink:title=" ">
<polygon fill="white" stroke="#666666" points="463.5,-245 350.5,-245 350.5,-226 463.5,-226 463.5,-245"/>
<text text-anchor="middle" x="407" y="-233" font-family="Helvetica,sans-Serif" font-size="10.00">FileSystem::rename</text>
</a>
</g>
</g>
<!-- Node1&#45;&gt;Node19 -->
<g id="edge20" class="edge">
<title>Node1&#45;&gt;Node19</title>
<path fill="none" stroke="#63b8ff" d="M77.34,-218.46C139.01,-221.66 262,-228.03 338.79,-232.02"/>
<polygon fill="#63b8ff" stroke="#63b8ff" points="338.56,-235.51 348.73,-232.53 338.92,-228.52 338.56,-235.51"/>
</g>
<!-- Node20 -->
<g id="node20" class="node">
<title>Node20</title>
<g id="a_node20"><a xlink:href="classStorageAccessProxy.html#a883ed23d5085bee80787822db49b601f" target="_top" xlink:title=" ">
<polygon fill="white" stroke="#666666" points="257.5,-64.5 141.5,-64.5 141.5,-34.5 257.5,-34.5 257.5,-64.5"/>
<text text-anchor="start" x="149.5" y="-52.5" font-family="Helvetica,sans-Serif" font-size="10.00">StorageAccessProxy</text>
<text text-anchor="middle" x="199.5" y="-41.5" font-family="Helvetica,sans-Serif" font-size="10.00">::setSubject</text>
</a>
</g>
</g>
<!-- Node1&#45;&gt;Node20 -->
<g id="edge23" class="edge">
<title>Node1&#45;&gt;Node20</title>
<path fill="none" stroke="#63b8ff" d="M41.76,-206.53C48.16,-180.65 68.85,-110.85 113,-74.5 118.33,-70.11 124.4,-66.5 130.79,-63.51"/>
<polygon fill="#63b8ff" stroke="#63b8ff" points="131.69,-66.92 139.63,-59.9 129.05,-60.44 131.69,-66.92"/>
</g>
<!-- Node21 -->
<g id="node21" class="node">
<title>Node21</title>
<g id="a_node21"><a xlink:href="classProject.html#a53ad0d2825e86b39f34f61148505faf2" target="_top" xlink:title=" ">
<polygon fill="white" stroke="#666666" points="286,-264 113,-264 113,-245 286,-245 286,-264"/>
<text text-anchor="middle" x="199.5" y="-252" font-family="Helvetica,sans-Serif" font-size="10.00">Project::swapToTempStorageFile</text>
</a>
</g>
</g>
<!-- Node1&#45;&gt;Node21 -->
<g id="edge24" class="edge">
<title>Node1&#45;&gt;Node21</title>
<path fill="none" stroke="#63b8ff" d="M77.18,-225.51C97.68,-230.41 123.38,-236.55 145.83,-241.91"/>
<polygon fill="#63b8ff" stroke="#63b8ff" points="144.89,-245.29 155.43,-244.21 146.51,-238.48 144.89,-245.29"/>
</g>
<!-- Node3 -->
<g id="node3" class="node">
<title>Node3</title>
<g id="a_node3"><a xlink:href="classStorageCache.html#a3e23badf90aff2303ee278e4ebec7bd5" target="_top" xlink:title=" ">
<polygon fill="white" stroke="#666666" points="480.5,-388.5 333.5,-388.5 333.5,-358.5 480.5,-358.5 480.5,-388.5"/>
<text text-anchor="start" x="341.5" y="-376.5" font-family="Helvetica,sans-Serif" font-size="10.00">StorageCache::setUseError</text>
<text text-anchor="middle" x="407" y="-365.5" font-family="Helvetica,sans-Serif" font-size="10.00">Cache</text>
</a>
</g>
</g>
<!-- Node2&#45;&gt;Node3 -->
<g id="edge2" class="edge">
<title>Node2&#45;&gt;Node3</title>
<path fill="none" stroke="#63b8ff" d="M256.93,-371.32C276.96,-371.62 299.97,-371.95 321.81,-372.27"/>
<polygon fill="#63b8ff" stroke="#63b8ff" points="321.55,-375.77 331.6,-372.41 321.65,-368.77 321.55,-375.77"/>
</g>
<!-- Node5 -->
<g id="node5" class="node">
<title>Node5</title>
<g id="a_node5"><a xlink:href="classMessageQueue.html#ae42d768ad6ffd631d627fe101e38f711" target="_top" xlink:title=" ">
<polygon fill="white" stroke="#666666" points="484.5,-340 329.5,-340 329.5,-321 484.5,-321 484.5,-340"/>
<text text-anchor="middle" x="407" y="-328" font-family="Helvetica,sans-Serif" font-size="10.00">MessageQueue::getInstance</text>
</a>
</g>
</g>
<!-- Node4&#45;&gt;Node5 -->
<g id="edge4" class="edge">
<title>Node4&#45;&gt;Node5</title>
<path fill="none" stroke="#63b8ff" d="M253.42,-330.5C273.07,-330.5 295.92,-330.5 317.87,-330.5"/>
<polygon fill="#63b8ff" stroke="#63b8ff" points="317.72,-334 327.72,-330.5 317.72,-327 317.72,-334"/>
</g>
<!-- Node6 -->
<g id="node6" class="node">
<title>Node6</title>
<g id="a_node6"><a xlink:href="classMessageQueue.html#a006069f4b83d2372c989c52784fac5de" target="_top" xlink:title=" ">
<polygon fill="white" stroke="#666666" points="701,-340 528,-340 528,-321 701,-321 701,-340"/>
<text text-anchor="middle" x="614.5" y="-328" font-family="Helvetica,sans-Serif" font-size="10.00">MessageQueue::MessageQueue</text>
</a>
</g>
</g>
<!-- Node5&#45;&gt;Node6 -->
<g id="edge5" class="edge">
<title>Node5&#45;&gt;Node6</title>
<path fill="none" stroke="#63b8ff" d="M484.81,-330.5C495.11,-330.5 505.78,-330.5 516.37,-330.5"/>
<polygon fill="#63b8ff" stroke="#63b8ff" points="516.29,-334 526.29,-330.5 516.29,-327 516.29,-334"/>
</g>
<!-- Node8 -->
<g id="node8" class="node">
<title>Node8</title>
<g id="a_node8"><a xlink:href="classFilePath.html#a544387c4aea50aec855062fd02e436ae" target="_top" xlink:title=" ">
<polygon fill="white" stroke="#666666" points="961,-226 863,-226 863,-207 961,-207 961,-226"/>
<text text-anchor="middle" x="912" y="-214" font-family="Helvetica,sans-Serif" font-size="10.00">FilePath::getPath</text>
</a>
</g>
</g>
<!-- Node7&#45;&gt;Node8 -->
<g id="edge7" class="edge">
<title>Node7&#45;&gt;Node8</title>
<path fill="none" stroke="#63b8ff" d="M816.63,-188.48C831.92,-193.02 850.21,-198.45 866.61,-203.32"/>
<polygon fill="#63b8ff" stroke="#63b8ff" points="865.56,-206.66 876.14,-206.15 867.55,-199.95 865.56,-206.66"/>
</g>
<!-- Node10 -->
<g id="node10" class="node">
<title>Node10</title>
<g id="a_node10"><a xlink:href="classSourceGroupFactory.html#a4a185139fe11fe3963ca91246d0530d7" target="_top" xlink:title=" ">
<polygon fill="white" stroke="#666666" points="467.5,-150.5 346.5,-150.5 346.5,-120.5 467.5,-120.5 467.5,-150.5"/>
<text text-anchor="start" x="354.5" y="-138.5" font-family="Helvetica,sans-Serif" font-size="10.00">SourceGroupFactory</text>
<text text-anchor="middle" x="407" y="-127.5" font-family="Helvetica,sans-Serif" font-size="10.00">::SourceGroupFactory</text>
</a>
</g>
</g>
<!-- Node9&#45;&gt;Node10 -->
<g id="edge9" class="edge">
<title>Node9&#45;&gt;Node10</title>
<path fill="none" stroke="#63b8ff" d="M257.47,-135.5C281.37,-135.5 309.42,-135.5 334.67,-135.5"/>
<polygon fill="#63b8ff" stroke="#63b8ff" points="334.53,-139 344.53,-135.5 334.53,-132 334.53,-139"/>
</g>
<!-- Node12 -->
<g id="node12" class="node">
<title>Node12</title>
<g id="a_node12"><a xlink:href="classConfigManager.html#aef6565462eb9c02c8aa2fcb6e2f8f47a" target="_top" xlink:title=" ">
<polygon fill="white" stroke="#666666" points="492,-102 322,-102 322,-83 492,-83 492,-102"/>
<text text-anchor="middle" x="407" y="-90" font-family="Helvetica,sans-Serif" font-size="10.00">ConfigManager::createAndLoad</text>
</a>
</g>
</g>
<!-- Node11&#45;&gt;Node12 -->
<g id="edge11" class="edge">
<title>Node11&#45;&gt;Node12</title>
<path fill="none" stroke="#63b8ff" d="M268.36,-92.5C281.83,-92.5 296.2,-92.5 310.4,-92.5"/>
<polygon fill="#63b8ff" stroke="#63b8ff" points="310.2,-96 320.2,-92.5 310.2,-89 310.2,-96"/>
</g>
<!-- Node14 -->
<g id="node14" class="node">
<title>Node14</title>
<g id="a_node14"><a xlink:href="classTextAccess.html#ad29173a474a19d33efa045d51e70a86d" target="_top" xlink:title=" ">
<polygon fill="white" stroke="#666666" points="487.5,-62 326.5,-62 326.5,-43 487.5,-43 487.5,-62"/>
<text text-anchor="middle" x="407" y="-50" font-family="Helvetica,sans-Serif" font-size="10.00">TextAccess::createFromString</text>
</a>
</g>
</g>
<!-- Node11&#45;&gt;Node14 -->
<g id="edge13" class="edge">
<title>Node11&#45;&gt;Node14</title>
<path fill="none" stroke="#63b8ff" d="M251.83,-82.51C279.76,-77.07 314.53,-70.3 343.97,-64.57"/>
<polygon fill="#63b8ff" stroke="#63b8ff" points="344.34,-68.07 353.49,-62.72 343,-61.2 344.34,-68.07"/>
</g>
<!-- Node13 -->
<g id="node13" class="node">
<title>Node13</title>
<g id="a_node13"><a xlink:href="classConfigManager.html#a7d3d7c10423d969f7544509f6fcca32f" target="_top" xlink:title=" ">
<polygon fill="white" stroke="#666666" points="700,-105 529,-105 529,-86 700,-86 700,-105"/>
<text text-anchor="middle" x="614.5" y="-93" font-family="Helvetica,sans-Serif" font-size="10.00">ConfigManager::ConfigManager</text>
</a>
</g>
</g>
<!-- Node12&#45;&gt;Node13 -->
<g id="edge12" class="edge">
<title>Node12&#45;&gt;Node13</title>
<path fill="none" stroke="#63b8ff" d="M492.47,-93.73C500.69,-93.85 509.07,-93.98 517.4,-94.1"/>
<polygon fill="#63b8ff" stroke="#63b8ff" points="517.13,-97.59 527.18,-94.24 517.23,-90.59 517.13,-97.59"/>
</g>
<!-- Node15 -->
<g id="node15" class="node">
<title>Node15</title>
<g id="a_node15"><a xlink:href="classTextAccess.html#a6031ad7d6e4ff95f6be917b2b6392fe6" target="_top" xlink:title=" ">
<polygon fill="white" stroke="#666666" points="684,-67.5 545,-67.5 545,-37.5 684,-37.5 684,-67.5"/>
<text text-anchor="start" x="553" y="-55.5" font-family="Helvetica,sans-Serif" font-size="10.00">TextAccess::splitStringBy</text>
<text text-anchor="middle" x="614.5" y="-44.5" font-family="Helvetica,sans-Serif" font-size="10.00">Lines</text>
</a>
</g>
</g>
<!-- Node14&#45;&gt;Node15 -->
<g id="edge14" class="edge">
<title>Node14&#45;&gt;Node15</title>
<path fill="none" stroke="#63b8ff" d="M487.75,-52.5C502.76,-52.5 518.46,-52.5 533.49,-52.5"/>
<polygon fill="#63b8ff" stroke="#63b8ff" points="533.31,-56 543.31,-52.5 533.31,-49 533.31,-56"/>
</g>
<!-- Node16 -->
<g id="node16" class="node">
<title>Node16</title>
<g id="a_node16"><a xlink:href="classTextAccess.html#a17086d2cc3eee9bbef8352489382f721" target="_top" xlink:title=" ">
<polygon fill="white" stroke="#666666" points="680,-19 549,-19 549,0 680,0 680,-19"/>
<text text-anchor="middle" x="614.5" y="-7" font-family="Helvetica,sans-Serif" font-size="10.00">TextAccess::TextAccess</text>
</a>
</g>
</g>
<!-- Node14&#45;&gt;Node16 -->
<g id="edge15" class="edge">
<title>Node14&#45;&gt;Node16</title>
<path fill="none" stroke="#63b8ff" d="M455.66,-42.53C485.12,-36.36 523.17,-28.4 554.52,-21.84"/>
<polygon fill="#63b8ff" stroke="#63b8ff" points="555.19,-25.28 564.26,-19.8 553.75,-18.43 555.19,-25.28"/>
</g>
<!-- Node17&#45;&gt;Node8 -->
<g id="edge17" class="edge">
<title>Node17&#45;&gt;Node8</title>
<path fill="none" stroke="#63b8ff" d="M463.86,-273.06C484.07,-273.24 507.06,-273.41 528,-273.5 604.89,-273.82 624.79,-283.66 701,-273.5 762.4,-265.32 831.3,-244.23 872.9,-230.13"/>
<polygon fill="#63b8ff" stroke="#63b8ff" points="873.87,-233.5 882.19,-226.94 871.6,-226.88 873.87,-233.5"/>
</g>
<!-- Node18 -->
<g id="node18" class="node">
<title>Node18</title>
<g id="a_node18"><a xlink:href="classFilePath.html#a59d0f48e8394367cbe2cd97d4e8fd0ec" target="_top" xlink:title=" ">
<polygon fill="white" stroke="#666666" points="678.5,-264 550.5,-264 550.5,-245 678.5,-245 678.5,-264"/>
<text text-anchor="middle" x="614.5" y="-252" font-family="Helvetica,sans-Serif" font-size="10.00">FilePath::recheckExists</text>
</a>
</g>
</g>
<!-- Node17&#45;&gt;Node18 -->
<g id="edge18" class="edge">
<title>Node17&#45;&gt;Node18</title>
<path fill="none" stroke="#63b8ff" d="M463.88,-267.61C486.97,-265.58 514.07,-263.21 538.83,-261.04"/>
<polygon fill="#63b8ff" stroke="#63b8ff" points="538.84,-264.55 548.5,-260.19 538.23,-257.58 538.84,-264.55"/>
</g>
<!-- Node18&#45;&gt;Node7 -->
<g id="edge19" class="edge">
<title>Node18&#45;&gt;Node7</title>
<path fill="none" stroke="#63b8ff" d="M637.14,-244.56C665.63,-231.48 715.98,-208.36 748.91,-193.23"/>
<polygon fill="#63b8ff" stroke="#63b8ff" points="750.36,-196.42 757.98,-189.07 747.43,-190.06 750.36,-196.42"/>
</g>
<!-- Node19&#45;&gt;Node8 -->
<g id="edge21" class="edge">
<title>Node19&#45;&gt;Node8</title>
<path fill="none" stroke="#63b8ff" d="M463.75,-233.39C559.24,-229.79 753.26,-222.46 851.36,-218.75"/>
<polygon fill="#63b8ff" stroke="#63b8ff" points="851.46,-222.25 861.32,-218.38 851.2,-215.26 851.46,-222.25"/>
</g>
<!-- Node19&#45;&gt;Node18 -->
<g id="edge22" class="edge">
<title>Node19&#45;&gt;Node18</title>
<path fill="none" stroke="#63b8ff" d="M463.88,-240.67C486.97,-242.8 514.07,-245.31 538.83,-247.6"/>
<polygon fill="#63b8ff" stroke="#63b8ff" points="538.22,-251.05 548.5,-248.49 538.87,-244.08 538.22,-251.05"/>
</g>
<!-- Node21&#45;&gt;Node17 -->
<g id="edge25" class="edge">
<title>Node21&#45;&gt;Node17</title>
<path fill="none" stroke="#63b8ff" d="M286.46,-262.03C303.97,-263.56 322.16,-265.16 338.9,-266.62"/>
<polygon fill="#63b8ff" stroke="#63b8ff" points="338.46,-270.1 348.73,-267.48 339.07,-263.12 338.46,-270.1"/>
</g>
<!-- Node21&#45;&gt;Node19 -->
<g id="edge26" class="edge">
<title>Node21&#45;&gt;Node19</title>
<path fill="none" stroke="#63b8ff" d="M286.46,-246.55C303.97,-244.93 322.16,-243.25 338.9,-241.7"/>
<polygon fill="#63b8ff" stroke="#63b8ff" points="339.09,-245.2 348.73,-240.8 338.45,-238.23 339.09,-245.2"/>
</g>
</g>
</svg>
        <g id="navigator" transform="translate(0 0)" fill="#404254">
                <rect fill="#f2f5e9" fill-opacity="0.5" stroke="#606060" stroke-width=".5" x="0" y="0" width="60" height="60"/>
                <use id="zoomplus" xlink:href="#zoomPlus" x="17" y="9" onmousedown="handleZoom(evt,'in')"/>
                <use id="zoomminus" xlink:href="#zoomMin" x="42" y="9" onmousedown="handleZoom(evt,'out')"/>
                <use id="reset" xlink:href="#resetDef" x="30" y="36" onmousedown="handleReset()"/>
                <g id="arrowUp" xlink:href="#dirArrow" transform="translate(30 24)" onmousedown="handlePan(0,-1)">
                  <use xlink:href="#rim" fill="#404040">
                        <set attributeName="fill" to="#808080" begin="arrowUp.mouseover" end="arrowUp.mouseout"/>
                  </use>
                  <path fill="none" stroke="white" stroke-width="1.5" d="M0,-3.0v7 M-2.5,-0.5L0,-3.0L2.5,-0.5"/>
                </g>
                <g id="arrowRight" xlink:href="#dirArrow" transform="rotate(90) translate(36 -43)" onmousedown="handlePan(1,0)">
                  <use xlink:href="#rim" fill="#404040">
                        <set attributeName="fill" to="#808080" begin="arrowRight.mouseover" end="arrowRight.mouseout"/>
                  </use>
                  <path fill="none" stroke="white" stroke-width="1.5" d="M0,-3.0v7 M-2.5,-0.5L0,-3.0L2.5,-0.5"/>
                </g>
                <g id="arrowDown" xlink:href="#dirArrow" transform="rotate(180) translate(-30 -48)" onmousedown="handlePan(0,1)">
                  <use xlink:href="#rim" fill="#404040">
                        <set attributeName="fill" to="#808080" begin="arrowDown.mouseover" end="arrowDown.mouseout"/>
                  </use>
                  <path fill="none" stroke="white" stroke-width="1.5" d="M0,-3.0v7 M-2.5,-0.5L0,-3.0L2.5,-0.5"/>
                </g>
                <g id="arrowLeft" xlink:href="#dirArrow" transform="rotate(270) translate(-36 17)" onmousedown="handlePan(-1,0)">
                  <use xlink:href="#rim" fill="#404040">
                        <set attributeName="fill" to="#808080" begin="arrowLeft.mouseover" end="arrowLeft.mouseout"/>
                  </use>
                  <path fill="none" stroke="white" stroke-width="1.5" d="M0,-3.0v7 M-2.5,-0.5L0,-3.0L2.5,-0.5"/>
                </g>
        </g>
        <svg viewBox="0 0 15 15" width="100%" height="30px" preserveAspectRatio="xMaxYMin meet">
         <g id="arrow_out" transform="scale(0.3 0.3)">
          <a xlink:href="classProject_a744fcd821ba36738a8bd87acaa5a8cc2_cgraph_org.svg" target="_base">
           <rect id="button" ry="5" rx="5" y="6" x="6" height="38" width="38"
                fill="#f2f5e9" fill-opacity="0.5" stroke="#606060" stroke-width="1.0"/>
           <path id="arrow"
             d="M 11.500037,31.436501 C 11.940474,20.09759 22.043105,11.32322 32.158766,21.979434 L 37.068811,17.246167 C 37.068811,17.246167 37.088388,32 37.088388,32 L 22.160133,31.978069 C 22.160133,31.978069 26.997745,27.140456 26.997745,27.140456 C 18.528582,18.264221 13.291696,25.230495 11.500037,31.436501 z"
             style="fill:#404040;"/>
          </a>
         </g>
        </svg>
</svg>
