<?xml version="1.0" encoding="UTF-8" standalone="no"?>
<!DOCTYPE svg PUBLIC "-//W3C//DTD SVG 1.1//EN"
 "http://www.w3.org/Graphics/SVG/1.1/DTD/svg11.dtd">
<!-- Generated by graphviz version 9.0.0 (0)
 -->
<!-- Title: QtHighlighter::highlightDocument Pages: 1 -->
<!--zoomable 208 -->

<svg id="main" version="1.1" xmlns="http://www.w3.org/2000/svg" xmlns:xlink="http://www.w3.org/1999/xlink" xml:space="preserve" onload="init(evt)">
<style type="text/css"><![CDATA[
.node, .edge {opacity: 0.7;}
.node.selected, .edge.selected {opacity: 1;}
.edge:hover path { stroke: red; }
.edge:hover polygon { stroke: red; fill: red; }
]]></style>

<defs>
  <circle id="rim" cx="0" cy="0" r="7"/>
  <circle id="rim2" cx="0" cy="0" r="3.5"/>
  <g id="zoomPlus">
    <use xlink:href="#rim" fill="#404040"><set attributeName="fill" to="#808080" begin="zoomplus.mouseover" end="zoomplus.mouseout"/></use>
    <path d="M-4,0h8M0,-4v8" fill="none" stroke="white" stroke-width="1.5" pointer-events="none"/>
  </g>
  <g id="zoomMin">
    <use xlink:href="#rim" fill="#404040"><set attributeName="fill" to="#808080" begin="zoomminus.mouseover" end="zoomminus.mouseout"/></use>
    <path d="M-4,0h8" fill="none" stroke="white" stroke-width="1.5" pointer-events="none"/>
  </g>
  <g id="arrowUp" transform="translate(30 24)">
    <use xlink:href="#rim"/>
    <path pointer-events="none" fill="none" stroke="white" stroke-width="1.5" d="M0,-3.0v7 M-2.5,-0.5L0,-3.0L2.5,-0.5"/>
  </g>
  <g id="arrowRight" transform="rotate(90) translate(36 -43)">
    <use xlink:href="#rim"/>
    <path pointer-events="none" fill="none" stroke="white" stroke-width="1.5" d="M0,-3.0v7 M-2.5,-0.5L0,-3.0L2.5,-0.5"/>
  </g>
  <g id="arrowDown" transform="rotate(180) translate(-30 -48)">
    <use xlink:href="#rim"/>
    <path pointer-events="none" fill="none" stroke="white" stroke-width="1.5" d="M0,-3.0v7 M-2.5,-0.5L0,-3.0L2.5,-0.5"/>
  </g>
  <g id="arrowLeft" transform="rotate(270) translate(-36 17)">
    <use xlink:href="#rim"/>
    <path pointer-events="none" fill="none" stroke="white" stroke-width="1.5" d="M0,-3.0v7 M-2.5,-0.5L0,-3.0L2.5,-0.5"/>
  </g>
  <g id="resetDef">
    <use xlink:href="#rim2" fill="#404040"><set attributeName="fill" to="#808080" begin="reset.mouseover" end="reset.mouseout"/></use>
  </g>
</defs>
<script type="application/ecmascript">
var viewWidth = 858;
var viewHeight = 208;
var sectionId = 'dynsection-19';
</script>
<script type="application/ecmascript" xlink:href="svg.min.js"/>
<svg id="graph" class="graph">
<g id="viewport">
<title>QtHighlighter::highlightDocument</title>
<!-- Node1 -->
<g id="Node000001" class="node">
<title>Node1</title>
<g id="a_Node000001"><a xlink:title=" ">
<polygon fill="#999999" stroke="#666666" points="130,-168.5 0,-168.5 0,-135 130,-135 130,-168.5"/>
<text text-anchor="start" x="8" y="-155" font-family="Helvetica,sans-Serif" font-size="10.00">QtHighlighter::highlight</text>
<text text-anchor="middle" x="65" y="-142.25" font-family="Helvetica,sans-Serif" font-size="10.00">Document</text>
</a>
</g>
</g>
<!-- Node2 -->
<g id="Node000002" class="node">
<title>Node2</title>
<g id="a_Node000002"><a xlink:href="classQtHighlighter.html#a47ad84b5b39b7d6859d26af0586d1180" target="_top" xlink:title=" ">
<polygon fill="white" stroke="#666666" points="317.38,-200.12 168.62,-200.12 168.62,-179.38 317.38,-179.38 317.38,-200.12"/>
<text text-anchor="middle" x="243" y="-186.62" font-family="Helvetica,sans-Serif" font-size="10.00">QtHighlighter::applyFormat</text>
</a>
</g>
</g>
<!-- Node1&#45;&gt;Node2 -->
<g id="edge1_Node000001_Node000002" class="edge">
<title>Node1&#45;&gt;Node2</title>
<g id="a_edge1_Node000001_Node000002"><a xlink:title=" ">
<path fill="none" stroke="#63b8ff" d="M130.04,-165.58C146.57,-169.15 164.32,-172.98 180.71,-176.52"/>
<polygon fill="#63b8ff" stroke="#63b8ff" points="179.81,-179.9 190.32,-178.59 181.29,-173.06 179.81,-179.9"/>
</a>
</g>
</g>
<!-- Node3 -->
<g id="Node000003" class="node">
<title>Node3</title>
<g id="a_Node000003"><a xlink:href="classQtHighlighter.html#a205e27d83cbed49722b28c617103c1df" target="_top" xlink:title=" ">
<polygon fill="white" stroke="#666666" points="849.5,-162.12 713.5,-162.12 713.5,-141.38 849.5,-141.38 849.5,-162.12"/>
<text text-anchor="middle" x="781.5" y="-148.62" font-family="Helvetica,sans-Serif" font-size="10.00">QtHighlighter::document</text>
</a>
</g>
</g>
<!-- Node1&#45;&gt;Node3 -->
<g id="edge11_Node000001_Node000003" class="edge">
<title>Node1&#45;&gt;Node3</title>
<g id="a_edge11_Node000001_Node000003"><a xlink:title=" ">
<path fill="none" stroke="#63b8ff" d="M130.35,-151.75C261.52,-151.75 559.42,-151.75 701.83,-151.75"/>
<polygon fill="#63b8ff" stroke="#63b8ff" points="701.53,-155.25 711.53,-151.75 701.53,-148.25 701.53,-155.25"/>
</a>
</g>
</g>
<!-- Node4 -->
<g id="Node000004" class="node">
<title>Node4</title>
<g id="a_Node000004"><a xlink:href="classQtHighlighter.html#ac57a9f8bc869bb1ed4cc38be51a4601b" target="_top" xlink:title=" ">
<polygon fill="white" stroke="#666666" points="320,-102.12 166,-102.12 166,-81.38 320,-81.38 320,-102.12"/>
<text text-anchor="middle" x="243" y="-88.62" font-family="Helvetica,sans-Serif" font-size="10.00">QtHighlighter::createRanges</text>
</a>
</g>
</g>
<!-- Node1&#45;&gt;Node4 -->
<g id="edge3_Node000001_Node000004" class="edge">
<title>Node1&#45;&gt;Node4</title>
<g id="a_edge3_Node000001_Node000004"><a xlink:title=" ">
<path fill="none" stroke="#63b8ff" d="M116.43,-134.56C142.71,-125.6 174.5,-114.76 199.51,-106.24"/>
<polygon fill="#63b8ff" stroke="#63b8ff" points="200.36,-109.64 208.7,-103.1 198.1,-103.02 200.36,-109.64"/>
</a>
</g>
</g>
<!-- Node2&#45;&gt;Node3 -->
<g id="edge2_Node000002_Node000003" class="edge">
<title>Node2&#45;&gt;Node3</title>
<g id="a_edge2_Node000002_Node000003"><a xlink:title=" ">
<path fill="none" stroke="#63b8ff" d="M317.77,-187.46C404.14,-184.36 551.44,-177.79 677.5,-165.75 685.47,-164.99 693.76,-164.07 702.04,-163.08"/>
<polygon fill="#63b8ff" stroke="#63b8ff" points="702.28,-166.57 711.77,-161.86 701.41,-159.63 702.28,-166.57"/>
</a>
</g>
</g>
<!-- Node5 -->
<g id="Node000005" class="node">
<title>Node5</title>
<g id="a_Node000005"><a xlink:href="namespaceutility.html#a20e313ed6af8386f5e95f86b77027904" target="_top" xlink:title=" ">
<polygon fill="white" stroke="#666666" points="649,-124.12 563.25,-124.12 563.25,-103.38 649,-103.38 649,-124.12"/>
<text text-anchor="middle" x="606.12" y="-110.62" font-family="Helvetica,sans-Serif" font-size="10.00">utility::append</text>
</a>
</g>
</g>
<!-- Node4&#45;&gt;Node5 -->
<g id="edge4_Node000004_Node000005" class="edge">
<title>Node4&#45;&gt;Node5</title>
<g id="a_edge4_Node000004_Node000005"><a xlink:title=" ">
<path fill="none" stroke="#63b8ff" d="M320.14,-96.39C389.55,-100.62 490.31,-106.76 551.56,-110.49"/>
<polygon fill="#63b8ff" stroke="#63b8ff" points="551.19,-113.97 561.39,-111.09 551.62,-106.98 551.19,-113.97"/>
</a>
</g>
</g>
<!-- Node6 -->
<g id="Node000006" class="node">
<title>Node6</title>
<g id="a_Node000006"><a xlink:href="classQtHighlighter.html#a509a39091bedd2da0b6af12197fbe25f" target="_top" xlink:title=" ">
<polygon fill="white" stroke="#666666" points="498.75,-85.5 356,-85.5 356,-52 498.75,-52 498.75,-85.5"/>
<text text-anchor="start" x="364" y="-72" font-family="Helvetica,sans-Serif" font-size="10.00">QtHighlighter::createMulti</text>
<text text-anchor="middle" x="427.38" y="-59.25" font-family="Helvetica,sans-Serif" font-size="10.00">LineRanges</text>
</a>
</g>
</g>
<!-- Node4&#45;&gt;Node6 -->
<g id="edge5_Node000004_Node000006" class="edge">
<title>Node4&#45;&gt;Node6</title>
<g id="a_edge5_Node000004_Node000006"><a xlink:title=" ">
<path fill="none" stroke="#63b8ff" d="M320.29,-82.13C328.25,-81.13 336.36,-80.1 344.39,-79.09"/>
<polygon fill="#63b8ff" stroke="#63b8ff" points="344.65,-82.58 354.13,-77.86 343.77,-75.64 344.65,-82.58"/>
</a>
</g>
</g>
<!-- Node9 -->
<g id="Node000009" class="node">
<title>Node9</title>
<g id="a_Node000009"><a xlink:href="classQtHighlighter.html#a6298be26b01f7f815cecaad853230064" target="_top" xlink:title=" ">
<polygon fill="white" stroke="#666666" points="496.88,-33.5 357.88,-33.5 357.88,0 496.88,0 496.88,-33.5"/>
<text text-anchor="start" x="365.88" y="-20" font-family="Helvetica,sans-Serif" font-size="10.00">QtHighlighter::getRanges</text>
<text text-anchor="middle" x="427.38" y="-7.25" font-family="Helvetica,sans-Serif" font-size="10.00">ForRule</text>
</a>
</g>
</g>
<!-- Node4&#45;&gt;Node9 -->
<g id="edge10_Node000004_Node000009" class="edge">
<title>Node4&#45;&gt;Node9</title>
<g id="a_edge10_Node000004_Node000009"><a xlink:title=" ">
<path fill="none" stroke="#63b8ff" d="M267.43,-81.02C289.97,-70.81 325.09,-55.21 356,-42.75 359.85,-41.2 363.83,-39.63 367.86,-38.07"/>
<polygon fill="#63b8ff" stroke="#63b8ff" points="369.02,-41.37 377.12,-34.54 366.53,-34.83 369.02,-41.37"/>
</a>
</g>
</g>
<!-- Node6&#45;&gt;Node5 -->
<g id="edge6_Node000006_Node000005" class="edge">
<title>Node6&#45;&gt;Node5</title>
<g id="a_edge6_Node000006_Node000005"><a xlink:title=" ">
<path fill="none" stroke="#63b8ff" d="M495.95,-85.96C514.51,-90.68 534.36,-95.73 551.98,-100.22"/>
<polygon fill="#63b8ff" stroke="#63b8ff" points="550.89,-103.55 561.44,-102.63 552.62,-96.77 550.89,-103.55"/>
</a>
</g>
</g>
<!-- Node7 -->
<g id="Node000007" class="node">
<title>Node7</title>
<g id="a_Node000007"><a xlink:href="classQtHighlighter.html#a339220e52d44e204638c4b410ccecc4f" target="_top" xlink:title=" ">
<polygon fill="white" stroke="#666666" points="677.5,-85.5 534.75,-85.5 534.75,-52 677.5,-52 677.5,-85.5"/>
<text text-anchor="start" x="542.75" y="-72" font-family="Helvetica,sans-Serif" font-size="10.00">QtHighlighter::createMulti</text>
<text text-anchor="middle" x="606.12" y="-59.25" font-family="Helvetica,sans-Serif" font-size="10.00">LineRangesForRules</text>
</a>
</g>
</g>
<!-- Node6&#45;&gt;Node7 -->
<g id="edge7_Node000006_Node000007" class="edge">
<title>Node6&#45;&gt;Node7</title>
<g id="a_edge7_Node000006_Node000007"><a xlink:title=" ">
<path fill="none" stroke="#63b8ff" d="M499.25,-68.75C507.15,-68.75 515.24,-68.75 523.26,-68.75"/>
<polygon fill="#63b8ff" stroke="#63b8ff" points="523.01,-72.25 533.01,-68.75 523.01,-65.25 523.01,-72.25"/>
</a>
</g>
</g>
<!-- Node7&#45;&gt;Node3 -->
<g id="edge8_Node000007_Node000003" class="edge">
<title>Node7&#45;&gt;Node3</title>
<g id="a_edge8_Node000007_Node000003"><a xlink:title=" ">
<path fill="none" stroke="#63b8ff" d="M656.73,-86C663.77,-88.76 670.87,-91.71 677.5,-94.75 703.92,-106.86 732.77,-123.1 753.2,-135.15"/>
<polygon fill="#63b8ff" stroke="#63b8ff" points="751.38,-138.14 761.76,-140.25 754.96,-132.13 751.38,-138.14"/>
</a>
</g>
</g>
<!-- Node8 -->
<g id="Node000008" class="node">
<title>Node8</title>
<g id="a_Node000008"><a xlink:href="classQtHighlighter.html#a34e0e4125b5df81e7d0edd6c60c2299b" target="_top" xlink:title=" ">
<polygon fill="white" stroke="#666666" points="849.12,-79.12 713.88,-79.12 713.88,-58.38 849.12,-58.38 849.12,-79.12"/>
<text text-anchor="middle" x="781.5" y="-65.62" font-family="Helvetica,sans-Serif" font-size="10.00">QtHighlighter::isInRange</text>
</a>
</g>
</g>
<!-- Node7&#45;&gt;Node8 -->
<g id="edge9_Node000007_Node000008" class="edge">
<title>Node7&#45;&gt;Node8</title>
<g id="a_edge9_Node000007_Node000008"><a xlink:title=" ">
<path fill="none" stroke="#63b8ff" d="M677.89,-68.75C685.91,-68.75 694.12,-68.75 702.23,-68.75"/>
<polygon fill="#63b8ff" stroke="#63b8ff" points="702.08,-72.25 712.08,-68.75 702.08,-65.25 702.08,-72.25"/>
</a>
</g>
</g>
</g>
</svg>

<g id="navigator" transform="translate(0 0)" fill="#404254">
  <rect fill="#f2f5e9" fill-opacity="0.5" stroke="#606060" stroke-width=".5" x="0" y="0" width="60" height="60"/>
  <use id="zoomplus" xlink:href="#zoomPlus" x="17" y="9" onmousedown="handleZoom(evt,'in')"/>
  <use id="zoomminus" xlink:href="#zoomMin" x="42" y="9" onmousedown="handleZoom(evt,'out')"/>
  <use id="reset" xlink:href="#resetDef" x="30" y="36" onmousedown="handleReset()"/>
   <use id="arrowup" xlink:href="#arrowUp" x="0" y="0" onmousedown="handlePan(0,-1)"/>
  <use id="arrowright" xlink:href="#arrowRight" x="0" y="0" onmousedown="handlePan(1,0)"/>
  <use id="arrowdown" xlink:href="#arrowDown" x="0" y="0" onmousedown="handlePan(0,1)"/>
  <use id="arrowleft" xlink:href="#arrowLeft" x="0" y="0" onmousedown="handlePan(-1,0)"/>
</g>
<svg viewBox="0 0 15 15" width="100%" height="30px" preserveAspectRatio="xMaxYMin meet">
 <g id="arrow_out" transform="scale(0.3 0.3)">
  <a xlink:href="classQtHighlighter_ae0f6b82943ea336289f2d61d042ac19e_cgraph_org.svg" target="_base">
   <rect id="button" ry="5" rx="5" y="6" x="6" height="38" width="38"
        fill="#f2f5e9" fill-opacity="0.5" stroke="#606060" stroke-width="1.0"/>
   <path id="arrow"
     d="M 11.500037,31.436501 C 11.940474,20.09759 22.043105,11.32322 32.158766,21.979434 L 37.068811,17.246167 C 37.068811,17.246167 37.088388,32 37.088388,32 L 22.160133,31.978069 C 22.160133,31.978069 26.997745,27.140456 26.997745,27.140456 C 18.528582,18.264221 13.291696,25.230495 11.500037,31.436501 z"
     style="fill:#404040;"/>
  </a>
 </g>
</svg>

<style type='text/css'>
<![CDATA[
[data-mouse-over-selected='false'] { opacity: 0.7; }
[data-mouse-over-selected='true']  { opacity: 1.0; }
]]>
</style>
<script type="application/ecmascript"><![CDATA[
document.addEventListener('DOMContentLoaded', (event) => {
  highlightEdges();
  highlightAdjacentNodes();
});
]]></script>
</svg>
