<?xml version="1.0" encoding="UTF-8" standalone="no"?>
<!DOCTYPE svg PUBLIC "-//W3C//DTD SVG 1.1//EN"
 "http://www.w3.org/Graphics/SVG/1.1/DTD/svg11.dtd">
<!-- Generated by graphviz version 9.0.0 (0)
 -->
<!-- Title: QtWindowBase::sizeHint Pages: 1 -->
<svg width="2039pt" height="585pt"
 viewBox="0.00 0.00 2038.50 585.12" xmlns="http://www.w3.org/2000/svg" xmlns:xlink="http://www.w3.org/1999/xlink">
<g id="graph0" class="graph" transform="scale(1 1) rotate(0) translate(4 581.12)">
<title>QtWindowBase::sizeHint</title>
<!-- Node1 -->
<g id="Node000001" class="node">
<title>Node1</title>
<g id="a_Node000001"><a xlink:title=" ">
<polygon fill="#999999" stroke="#666666" points="2030.5,-492.12 1894.5,-492.12 1894.5,-471.38 2030.5,-471.38 2030.5,-492.12"/>
<text text-anchor="middle" x="1962.5" y="-478.62" font-family="Helvetica,sans-Serif" font-size="10.00">QtWindowBase::sizeHint</text>
</a>
</g>
</g>
<!-- Node2 -->
<g id="Node000002" class="node">
<title>Node2</title>
<g id="a_Node000002"><a xlink:href="classQtWindow.html#a39f04f628173069055fed83678075602" target="_top" xlink:title=" ">
<polygon fill="white" stroke="#666666" points="1831.88,-557.12 1718.38,-557.12 1718.38,-536.38 1831.88,-536.38 1831.88,-557.12"/>
<text text-anchor="middle" x="1775.12" y="-543.62" font-family="Helvetica,sans-Serif" font-size="10.00">QtWindow::addLogo</text>
</a>
</g>
</g>
<!-- Node1&#45;&gt;Node2 -->
<g id="edge1_Node000001_Node000002" class="edge">
<title>Node1&#45;&gt;Node2</title>
<g id="a_edge1_Node000001_Node000002"><a xlink:title=" ">
<path fill="none" stroke="#63b8ff" d="M1920.3,-496.2C1886.07,-508.2 1838.12,-525.01 1807.09,-535.89"/>
<polygon fill="#63b8ff" stroke="#63b8ff" points="1921.18,-499.6 1929.46,-492.98 1918.87,-492.99 1921.18,-499.6"/>
</a>
</g>
</g>
<!-- Node4 -->
<g id="Node000004" class="node">
<title>Node4</title>
<g id="a_Node000004"><a xlink:href="classQtWindowBase.html#a0649a771e48c598d8c2789778da60c80" target="_top" xlink:title=" ">
<polygon fill="white" stroke="#666666" points="1858.5,-473.12 1691.75,-473.12 1691.75,-452.38 1858.5,-452.38 1858.5,-473.12"/>
<text text-anchor="middle" x="1775.12" y="-459.62" font-family="Helvetica,sans-Serif" font-size="10.00">QtWindowBase::moveToCenter</text>
</a>
</g>
</g>
<!-- Node1&#45;&gt;Node4 -->
<g id="edge3_Node000001_Node000004" class="edge">
<title>Node1&#45;&gt;Node4</title>
<g id="a_edge3_Node000001_Node000004"><a xlink:title=" ">
<path fill="none" stroke="#63b8ff" d="M1882.86,-473.69C1874.86,-472.87 1866.72,-472.04 1858.68,-471.21"/>
<polygon fill="#63b8ff" stroke="#63b8ff" points="1882.24,-477.14 1892.55,-474.68 1882.95,-470.18 1882.24,-477.14"/>
</a>
</g>
</g>
<!-- Node7 -->
<g id="Node000007" class="node">
<title>Node7</title>
<g id="a_Node000007"><a xlink:href="classQtWindowBase.html#abf8fcd0a933943c1efcf921c1407a5b8" target="_top" xlink:title=" ">
<polygon fill="white" stroke="#666666" points="1655.75,-518.12 1485.25,-518.12 1485.25,-497.38 1655.75,-497.38 1655.75,-518.12"/>
<text text-anchor="middle" x="1570.5" y="-504.62" font-family="Helvetica,sans-Serif" font-size="10.00">QtWindowBase::QtWindowBase</text>
</a>
</g>
</g>
<!-- Node1&#45;&gt;Node7 -->
<g id="edge51_Node000001_Node000007" class="edge">
<title>Node1&#45;&gt;Node7</title>
<g id="a_edge51_Node000001_Node000007"><a xlink:title=" ">
<path fill="none" stroke="#63b8ff" d="M1882.89,-486.99C1817.15,-491.37 1723.56,-497.61 1656.18,-502.1"/>
<polygon fill="#63b8ff" stroke="#63b8ff" points="1882.76,-490.51 1892.5,-486.35 1882.29,-483.52 1882.76,-490.51"/>
</a>
</g>
</g>
<!-- Node14 -->
<g id="Node000014" class="node">
<title>Node14</title>
<g id="a_Node000014"><a xlink:href="classQtWindow.html#a5a74be374cf1d672bfc4526d4f10ed95" target="_top" xlink:title=" ">
<polygon fill="white" stroke="#666666" points="1632.88,-389.12 1508.12,-389.12 1508.12,-368.38 1632.88,-368.38 1632.88,-389.12"/>
<text text-anchor="middle" x="1570.5" y="-375.62" font-family="Helvetica,sans-Serif" font-size="10.00">QtWindow::setupDone</text>
</a>
</g>
</g>
<!-- Node1&#45;&gt;Node14 -->
<g id="edge52_Node000001_Node000014" class="edge">
<title>Node1&#45;&gt;Node14</title>
<g id="a_edge52_Node000001_Node000014"><a xlink:title=" ">
<path fill="none" stroke="#63b8ff" d="M1924.6,-466.8C1905.14,-459.26 1880.75,-450.34 1858.5,-443.75 1780.25,-420.56 1687.9,-401 1629.52,-389.57"/>
<polygon fill="#63b8ff" stroke="#63b8ff" points="1923.15,-469.99 1933.74,-470.39 1925.71,-463.48 1923.15,-469.99"/>
</a>
</g>
</g>
<!-- Node3 -->
<g id="Node000003" class="node">
<title>Node3</title>
<g id="a_Node000003"><a xlink:href="classQtStartScreen.html#af94d51fdb8883ce5aa82174c8e8cdf4c" target="_top" xlink:title="Initialize the startup window elements.">
<polygon fill="white" stroke="#666666" points="1640.38,-569.5 1500.62,-569.5 1500.62,-536 1640.38,-536 1640.38,-569.5"/>
<text text-anchor="start" x="1508.62" y="-556" font-family="Helvetica,sans-Serif" font-size="10.00">QtStartScreen::setupStart</text>
<text text-anchor="middle" x="1570.5" y="-543.25" font-family="Helvetica,sans-Serif" font-size="10.00">Screen</text>
</a>
</g>
</g>
<!-- Node2&#45;&gt;Node3 -->
<g id="edge2_Node000002_Node000003" class="edge">
<title>Node2&#45;&gt;Node3</title>
<g id="a_edge2_Node000002_Node000003"><a xlink:title=" ">
<path fill="none" stroke="#63b8ff" d="M1706.47,-548.75C1685.35,-549.38 1662.02,-550.07 1640.79,-550.7"/>
<polygon fill="#63b8ff" stroke="#63b8ff" points="1706.55,-552.25 1716.44,-548.46 1706.34,-545.26 1706.55,-552.25"/>
</a>
</g>
</g>
<!-- Node5 -->
<g id="Node000005" class="node">
<title>Node5</title>
<g id="a_Node000005"><a xlink:href="classQtWindowStack.html#abf48d8a0d6a7dd335ec58dec65e03799" target="_top" xlink:title=" ">
<polygon fill="white" stroke="#666666" points="1644.5,-479.5 1496.5,-479.5 1496.5,-446 1644.5,-446 1644.5,-479.5"/>
<text text-anchor="start" x="1504.5" y="-466" font-family="Helvetica,sans-Serif" font-size="10.00">QtWindowStack::centerSub</text>
<text text-anchor="middle" x="1570.5" y="-453.25" font-family="Helvetica,sans-Serif" font-size="10.00">Windows</text>
</a>
</g>
</g>
<!-- Node4&#45;&gt;Node5 -->
<g id="edge4_Node000004_Node000005" class="edge">
<title>Node4&#45;&gt;Node5</title>
<g id="a_edge4_Node000004_Node000005"><a xlink:title=" ">
<path fill="none" stroke="#63b8ff" d="M1680.12,-462.75C1668.28,-462.75 1656.3,-462.75 1644.84,-462.75"/>
<polygon fill="#63b8ff" stroke="#63b8ff" points="1679.9,-466.25 1689.9,-462.75 1679.9,-459.25 1679.9,-466.25"/>
</a>
</g>
</g>
<!-- Node4&#45;&gt;Node7 -->
<g id="edge6_Node000004_Node000007" class="edge">
<title>Node4&#45;&gt;Node7</title>
<g id="a_edge6_Node000004_Node000007"><a xlink:title=" ">
<path fill="none" stroke="#63b8ff" d="M1714.17,-476.07C1684.22,-482.72 1648.45,-490.66 1620.22,-496.93"/>
<polygon fill="#63b8ff" stroke="#63b8ff" points="1714.85,-479.5 1723.86,-473.91 1713.33,-472.67 1714.85,-479.5"/>
</a>
</g>
</g>
<!-- Node8 -->
<g id="Node000008" class="node">
<title>Node8</title>
<g id="a_Node000008"><a xlink:href="classQtIndexingDialog.html#a361c926b57a6161a109fd1343198d005" target="_top" xlink:title=" ">
<polygon fill="white" stroke="#666666" points="1650.12,-428.12 1490.88,-428.12 1490.88,-407.38 1650.12,-407.38 1650.12,-428.12"/>
<text text-anchor="middle" x="1570.5" y="-414.62" font-family="Helvetica,sans-Serif" font-size="10.00">QtIndexingDialog::setupDone</text>
</a>
</g>
</g>
<!-- Node4&#45;&gt;Node8 -->
<g id="edge7_Node000004_Node000008" class="edge">
<title>Node4&#45;&gt;Node8</title>
<g id="a_edge7_Node000004_Node000008"><a xlink:title=" ">
<path fill="none" stroke="#63b8ff" d="M1714.17,-449.43C1684.22,-442.78 1648.45,-434.84 1620.22,-428.57"/>
<polygon fill="#63b8ff" stroke="#63b8ff" points="1713.33,-452.83 1723.86,-451.59 1714.85,-446 1713.33,-452.83"/>
</a>
</g>
</g>
<!-- Node4&#45;&gt;Node14 -->
<g id="edge13_Node000004_Node000014" class="edge">
<title>Node4&#45;&gt;Node14</title>
<g id="a_edge13_Node000004_Node000014"><a xlink:title=" ">
<path fill="none" stroke="#63b8ff" d="M1745.64,-446.23C1716.66,-429.62 1673.54,-405.53 1655.75,-398.75 1646.48,-395.21 1636.39,-392.17 1626.52,-389.6"/>
<polygon fill="#63b8ff" stroke="#63b8ff" points="1743.89,-449.26 1754.3,-451.21 1747.38,-443.19 1743.89,-449.26"/>
</a>
</g>
</g>
<!-- Node6 -->
<g id="Node000006" class="node">
<title>Node6</title>
<g id="a_Node000006"><a xlink:href="classQtMainWindow.html#a1ce092965da2bff78c274aa358380b22" target="_top" xlink:title=" ">
<polygon fill="white" stroke="#666666" points="1449.25,-577.12 1296,-577.12 1296,-556.38 1449.25,-556.38 1449.25,-577.12"/>
<text text-anchor="middle" x="1372.62" y="-563.62" font-family="Helvetica,sans-Serif" font-size="10.00">QtMainWindow::resizeEvent</text>
</a>
</g>
</g>
<!-- Node5&#45;&gt;Node6 -->
<g id="edge5_Node000005_Node000006" class="edge">
<title>Node5&#45;&gt;Node6</title>
<g id="a_edge5_Node000005_Node000006"><a xlink:title=" ">
<path fill="none" stroke="#63b8ff" d="M1489.88,-485.41C1488.29,-486.48 1486.75,-487.59 1485.25,-488.75 1461,-507.61 1473.99,-529.54 1449.25,-547.75 1444.78,-551.04 1439.8,-553.76 1434.59,-556.02"/>
<polygon fill="#63b8ff" stroke="#63b8ff" points="1491.23,-488.68 1498.11,-480.62 1487.71,-482.63 1491.23,-488.68"/>
</a>
</g>
</g>
<!-- Node9 -->
<g id="Node000009" class="node">
<title>Node9</title>
<g id="a_Node000009"><a xlink:href="classQtIndexingProgressDialog.html#abf4c5c65107954bbe820cee240f11e8f" target="_top" xlink:title=" ">
<polygon fill="white" stroke="#666666" points="1447,-538.5 1298.25,-538.5 1298.25,-505 1447,-505 1447,-538.5"/>
<text text-anchor="start" x="1306.25" y="-525" font-family="Helvetica,sans-Serif" font-size="10.00">QtIndexingProgressDialog</text>
<text text-anchor="middle" x="1372.62" y="-512.25" font-family="Helvetica,sans-Serif" font-size="10.00">::QtIndexingProgressDialog</text>
</a>
</g>
</g>
<!-- Node8&#45;&gt;Node9 -->
<g id="edge8_Node000008_Node000009" class="edge">
<title>Node8&#45;&gt;Node9</title>
<g id="a_edge8_Node000008_Node000009"><a xlink:title=" ">
<path fill="none" stroke="#63b8ff" d="M1490.05,-433.6C1488.4,-434.59 1486.8,-435.64 1485.25,-436.75 1460.29,-454.66 1473.19,-476.51 1449.25,-495.75 1445.03,-499.14 1440.34,-502.1 1435.42,-504.69"/>
<polygon fill="#63b8ff" stroke="#63b8ff" points="1491.25,-436.92 1498.57,-429.26 1488.07,-430.68 1491.25,-436.92"/>
</a>
</g>
</g>
<!-- Node10 -->
<g id="Node000010" class="node">
<title>Node10</title>
<g id="a_Node000010"><a xlink:href="classQtIndexingReportDialog.html#a4e4b2978d072627e7a0e79bca1c4ae2c" target="_top" xlink:title=" ">
<polygon fill="white" stroke="#666666" points="1442.12,-486.5 1303.12,-486.5 1303.12,-453 1442.12,-453 1442.12,-486.5"/>
<text text-anchor="start" x="1311.12" y="-473" font-family="Helvetica,sans-Serif" font-size="10.00">QtIndexingReportDialog</text>
<text text-anchor="middle" x="1372.62" y="-460.25" font-family="Helvetica,sans-Serif" font-size="10.00">::QtIndexingReportDialog</text>
</a>
</g>
</g>
<!-- Node8&#45;&gt;Node10 -->
<g id="edge9_Node000008_Node000010" class="edge">
<title>Node8&#45;&gt;Node10</title>
<g id="a_edge9_Node000008_Node000010"><a xlink:title=" ">
<path fill="none" stroke="#63b8ff" d="M1507.91,-431.15C1500.26,-432.96 1492.56,-434.85 1485.25,-436.75 1466.87,-441.53 1446.93,-447.26 1429.07,-452.58"/>
<polygon fill="#63b8ff" stroke="#63b8ff" points="1508.6,-434.58 1517.55,-428.91 1507.02,-427.76 1508.6,-434.58"/>
</a>
</g>
</g>
<!-- Node11 -->
<g id="Node000011" class="node">
<title>Node11</title>
<g id="a_Node000011"><a xlink:href="classQtIndexingStartDialog.html#a0176a4811d04cb585af3106bfb53a409" target="_top" xlink:title=" ">
<polygon fill="white" stroke="#666666" points="1437.62,-434.5 1307.62,-434.5 1307.62,-401 1437.62,-401 1437.62,-434.5"/>
<text text-anchor="start" x="1315.62" y="-421" font-family="Helvetica,sans-Serif" font-size="10.00">QtIndexingStartDialog</text>
<text text-anchor="middle" x="1372.62" y="-408.25" font-family="Helvetica,sans-Serif" font-size="10.00">::QtIndexingStartDialog</text>
</a>
</g>
</g>
<!-- Node8&#45;&gt;Node11 -->
<g id="edge10_Node000008_Node000011" class="edge">
<title>Node8&#45;&gt;Node11</title>
<g id="a_edge10_Node000008_Node000011"><a xlink:title=" ">
<path fill="none" stroke="#63b8ff" d="M1479.29,-417.75C1465.35,-417.75 1451.21,-417.75 1437.99,-417.75"/>
<polygon fill="#63b8ff" stroke="#63b8ff" points="1478.88,-421.25 1488.88,-417.75 1478.88,-414.25 1478.88,-421.25"/>
</a>
</g>
</g>
<!-- Node12 -->
<g id="Node000012" class="node">
<title>Node12</title>
<g id="a_Node000012"><a xlink:href="classQtKnownProgressDialog.html#a664446659e936691cd4bced47523da35" target="_top" xlink:title=" ">
<polygon fill="white" stroke="#666666" points="1442.5,-382.5 1302.75,-382.5 1302.75,-349 1442.5,-349 1442.5,-382.5"/>
<text text-anchor="start" x="1310.75" y="-369" font-family="Helvetica,sans-Serif" font-size="10.00">QtKnownProgressDialog</text>
<text text-anchor="middle" x="1372.62" y="-356.25" font-family="Helvetica,sans-Serif" font-size="10.00">::QtKnownProgressDialog</text>
</a>
</g>
</g>
<!-- Node8&#45;&gt;Node12 -->
<g id="edge11_Node000008_Node000012" class="edge">
<title>Node8&#45;&gt;Node12</title>
<g id="a_edge11_Node000008_Node000012"><a xlink:title=" ">
<path fill="none" stroke="#63b8ff" d="M1511.25,-404.29C1502.52,-402.17 1493.63,-399.95 1485.25,-397.75 1467.8,-393.18 1448.9,-387.89 1431.71,-382.95"/>
<polygon fill="#63b8ff" stroke="#63b8ff" points="1510.16,-407.63 1520.7,-406.57 1511.8,-400.82 1510.16,-407.63"/>
</a>
</g>
</g>
<!-- Node13 -->
<g id="Node000013" class="node">
<title>Node13</title>
<g id="a_Node000013"><a xlink:href="classQtUnknownProgressDialog.html#abd03ccc1c8b6577d2a379f60d01617cf" target="_top" xlink:title=" ">
<polygon fill="white" stroke="#666666" points="1448.88,-330.5 1296.38,-330.5 1296.38,-297 1448.88,-297 1448.88,-330.5"/>
<text text-anchor="start" x="1304.38" y="-317" font-family="Helvetica,sans-Serif" font-size="10.00">QtUnknownProgressDialog</text>
<text text-anchor="middle" x="1372.62" y="-304.25" font-family="Helvetica,sans-Serif" font-size="10.00">::QtUnknownProgressDialog</text>
</a>
</g>
</g>
<!-- Node8&#45;&gt;Node13 -->
<g id="edge12_Node000008_Node000013" class="edge">
<title>Node8&#45;&gt;Node13</title>
<g id="a_edge12_Node000008_Node000013"><a xlink:title=" ">
<path fill="none" stroke="#63b8ff" d="M1491.76,-401.92C1489.51,-400.64 1487.33,-399.25 1485.25,-397.75 1460.63,-380.02 1472.97,-358.67 1449.25,-339.75 1445.02,-336.37 1440.32,-333.42 1435.39,-330.85"/>
<polygon fill="#63b8ff" stroke="#63b8ff" points="1490.16,-405.04 1500.69,-406.26 1493.23,-398.74 1490.16,-405.04"/>
</a>
</g>
</g>
<!-- Node15 -->
<g id="Node000015" class="node">
<title>Node15</title>
<g id="a_Node000015"><a xlink:href="classQtWindow.html#a75eba6bb1626f298f32680bead1410ae" target="_top" xlink:title=" ">
<polygon fill="white" stroke="#666666" points="1422.25,-279.12 1323,-279.12 1323,-258.38 1422.25,-258.38 1422.25,-279.12"/>
<text text-anchor="middle" x="1372.62" y="-265.62" font-family="Helvetica,sans-Serif" font-size="10.00">QtWindow::setup</text>
</a>
</g>
</g>
<!-- Node14&#45;&gt;Node15 -->
<g id="edge14_Node000014_Node000015" class="edge">
<title>Node14&#45;&gt;Node15</title>
<g id="a_edge14_Node000014_Node000015"><a xlink:title=" ">
<path fill="none" stroke="#63b8ff" d="M1550.3,-360.25C1527.83,-339.61 1488.67,-306.65 1449.25,-287.75 1440.95,-283.77 1431.72,-280.57 1422.65,-278"/>
<polygon fill="#63b8ff" stroke="#63b8ff" points="1547.79,-362.7 1557.48,-366.98 1552.57,-357.59 1547.79,-362.7"/>
</a>
</g>
</g>
<!-- Node16 -->
<g id="Node000016" class="node">
<title>Node16</title>
<g id="a_Node000016"><a xlink:href="classQtProjectWizardContentPathsIndexedHeaders.html#a41095321087e5397c64b387388f4757b" target="_top" xlink:title=" ">
<polygon fill="white" stroke="#666666" points="1243.88,-511.5 1075.62,-511.5 1075.62,-478 1243.88,-478 1243.88,-511.5"/>
<text text-anchor="start" x="1083.62" y="-498" font-family="Helvetica,sans-Serif" font-size="10.00">QtProjectWizardContentPaths</text>
<text text-anchor="middle" x="1159.75" y="-485.25" font-family="Helvetica,sans-Serif" font-size="10.00">IndexedHeaders::buttonClicked</text>
</a>
</g>
</g>
<!-- Node15&#45;&gt;Node16 -->
<g id="edge15_Node000015_Node000016" class="edge">
<title>Node15&#45;&gt;Node16</title>
<g id="a_edge15_Node000015_Node000016"><a xlink:title=" ">
<path fill="none" stroke="#63b8ff" d="M1312.1,-276.56C1306.09,-279.33 1300.54,-282.97 1296,-287.75 1239.47,-347.17 1316.24,-409.04 1260,-468.75 1255.36,-473.68 1249.91,-477.71 1243.99,-481.02"/>
<polygon fill="#63b8ff" stroke="#63b8ff" points="1312.99,-279.96 1321.14,-273.19 1310.54,-273.4 1312.99,-279.96"/>
</a>
</g>
</g>
<!-- Node18 -->
<g id="Node000018" class="node">
<title>Node18</title>
<g id="a_Node000018"><a xlink:href="classQtProjectWizard.html#aebfe5cd6eeb8e5429d17fc385c556d63" target="_top" xlink:title=" ">
<polygon fill="white" stroke="#666666" points="1245,-459.5 1074.5,-459.5 1074.5,-426 1245,-426 1245,-459.5"/>
<text text-anchor="start" x="1082.5" y="-446" font-family="Helvetica,sans-Serif" font-size="10.00">QtProjectWizard::createWindow</text>
<text text-anchor="middle" x="1159.75" y="-433.25" font-family="Helvetica,sans-Serif" font-size="10.00">WithContent</text>
</a>
</g>
</g>
<!-- Node15&#45;&gt;Node18 -->
<g id="edge17_Node000015_Node000018" class="edge">
<title>Node15&#45;&gt;Node18</title>
<g id="a_edge17_Node000015_Node000018"><a xlink:title=" ">
<path fill="none" stroke="#63b8ff" d="M1312.21,-277.01C1306.23,-279.71 1300.66,-283.21 1296,-287.75 1253.37,-329.29 1302.42,-375 1260,-416.75 1255.68,-421 1250.76,-424.58 1245.48,-427.59"/>
<polygon fill="#63b8ff" stroke="#63b8ff" points="1312.98,-280.45 1321.16,-273.71 1310.56,-273.89 1312.98,-280.45"/>
</a>
</g>
</g>
<!-- Node25 -->
<g id="Node000025" class="node">
<title>Node25</title>
<g id="a_Node000025"><a xlink:href="classQtProjectWizard.html#a3f75e33f067e7c55ff625953fe657a84" target="_top" xlink:title=" ">
<polygon fill="white" stroke="#666666" points="1236.38,-408.12 1083.12,-408.12 1083.12,-387.38 1236.38,-387.38 1236.38,-408.12"/>
<text text-anchor="middle" x="1159.75" y="-394.62" font-family="Helvetica,sans-Serif" font-size="10.00">QtProjectWizard::editProject</text>
</a>
</g>
</g>
<!-- Node15&#45;&gt;Node25 -->
<g id="edge27_Node000015_Node000025" class="edge">
<title>Node15&#45;&gt;Node25</title>
<g id="a_edge27_Node000015_Node000025"><a xlink:title=" ">
<path fill="none" stroke="#63b8ff" d="M1312.01,-277.82C1306.19,-280.38 1300.71,-283.63 1296,-287.75 1263.56,-316.1 1293.1,-350.18 1260,-377.75 1253.18,-383.43 1245.19,-387.65 1236.75,-390.76"/>
<polygon fill="#63b8ff" stroke="#63b8ff" points="1313.12,-281.14 1321.32,-274.43 1310.73,-274.56 1313.12,-281.14"/>
</a>
</g>
</g>
<!-- Node26 -->
<g id="Node000026" class="node">
<title>Node26</title>
<g id="a_Node000026"><a xlink:href="classQtProjectWizard.html#a2760efcb95c2ad517a9d4d8bfd49254a" target="_top" xlink:title=" ">
<polygon fill="white" stroke="#666666" points="1237.12,-369.12 1082.38,-369.12 1082.38,-348.38 1237.12,-348.38 1237.12,-369.12"/>
<text text-anchor="middle" x="1159.75" y="-355.62" font-family="Helvetica,sans-Serif" font-size="10.00">QtProjectWizard::newProject</text>
</a>
</g>
</g>
<!-- Node15&#45;&gt;Node26 -->
<g id="edge28_Node000015_Node000026" class="edge">
<title>Node15&#45;&gt;Node26</title>
<g id="a_edge28_Node000015_Node000026"><a xlink:title=" ">
<path fill="none" stroke="#63b8ff" d="M1312.15,-279.22C1306.44,-281.52 1300.94,-284.33 1296,-287.75 1272.89,-303.75 1283.56,-324.41 1260,-339.75 1253.09,-344.25 1245.37,-347.74 1237.38,-350.43"/>
<polygon fill="#63b8ff" stroke="#63b8ff" points="1312.87,-282.68 1321.17,-276.1 1310.58,-276.07 1312.87,-282.68"/>
</a>
</g>
</g>
<!-- Node35 -->
<g id="Node000035" class="node">
<title>Node35</title>
<g id="a_Node000035"><a xlink:href="classQtProjectWizard.html#a37eed23c3c03afff75d7261065beda1e" target="_top" xlink:title=" ">
<polygon fill="white" stroke="#666666" points="1237.12,-330.5 1082.38,-330.5 1082.38,-297 1237.12,-297 1237.12,-330.5"/>
<text text-anchor="start" x="1090.38" y="-317" font-family="Helvetica,sans-Serif" font-size="10.00">QtProjectWizard::newProject</text>
<text text-anchor="middle" x="1159.75" y="-304.25" font-family="Helvetica,sans-Serif" font-size="10.00">FromCDB</text>
</a>
</g>
</g>
<!-- Node15&#45;&gt;Node35 -->
<g id="edge39_Node000015_Node000035" class="edge">
<title>Node15&#45;&gt;Node35</title>
<g id="a_edge39_Node000015_Node000035"><a xlink:title=" ">
<path fill="none" stroke="#63b8ff" d="M1311.7,-281.54C1288.62,-286.46 1261.93,-292.16 1237.48,-297.38"/>
<polygon fill="#63b8ff" stroke="#63b8ff" points="1312.19,-285.01 1321.24,-279.5 1310.73,-278.17 1312.19,-285.01"/>
</a>
</g>
</g>
<!-- Node36 -->
<g id="Node000036" class="node">
<title>Node36</title>
<g id="a_Node000036"><a xlink:href="classQtMainWindow.html#a8370abeee5ca1398b671bb1ff51a392b" target="_top" xlink:title=" ">
<polygon fill="white" stroke="#666666" points="1239.75,-279.12 1079.75,-279.12 1079.75,-258.38 1239.75,-258.38 1239.75,-279.12"/>
<text text-anchor="middle" x="1159.75" y="-265.62" font-family="Helvetica,sans-Serif" font-size="10.00">QtMainWindow::openSettings</text>
</a>
</g>
</g>
<!-- Node15&#45;&gt;Node36 -->
<g id="edge40_Node000015_Node000036" class="edge">
<title>Node15&#45;&gt;Node36</title>
<g id="a_edge40_Node000015_Node000036"><a xlink:title=" ">
<path fill="none" stroke="#63b8ff" d="M1311.41,-268.75C1289.17,-268.75 1263.62,-268.75 1239.95,-268.75"/>
<polygon fill="#63b8ff" stroke="#63b8ff" points="1311.2,-272.25 1321.2,-268.75 1311.2,-265.25 1311.2,-272.25"/>
</a>
</g>
</g>
<!-- Node38 -->
<g id="Node000038" class="node">
<title>Node38</title>
<g id="a_Node000038"><a xlink:href="classQtProjectWizardContentPathsHeaderSearch.html#aa7700e2c2df0de0442d2e369ecc74355" target="_top" xlink:title=" ">
<polygon fill="white" stroke="#666666" points="1260,-239.88 1059.5,-239.88 1059.5,-193.62 1260,-193.62 1260,-239.88"/>
<text text-anchor="start" x="1067.5" y="-226.38" font-family="Helvetica,sans-Serif" font-size="10.00">QtProjectWizardContentPaths</text>
<text text-anchor="start" x="1067.5" y="-213.62" font-family="Helvetica,sans-Serif" font-size="10.00">HeaderSearch::showDetectedIncludes</text>
<text text-anchor="middle" x="1159.75" y="-200.88" font-family="Helvetica,sans-Serif" font-size="10.00">Result</text>
</a>
</g>
</g>
<!-- Node15&#45;&gt;Node38 -->
<g id="edge43_Node000015_Node000038" class="edge">
<title>Node15&#45;&gt;Node38</title>
<g id="a_edge43_Node000015_Node000038"><a xlink:title=" ">
<path fill="none" stroke="#63b8ff" d="M1316.57,-255.17C1298.12,-250.62 1276.98,-245.41 1256.35,-240.32"/>
<polygon fill="#63b8ff" stroke="#63b8ff" points="1315.66,-258.55 1326.21,-257.55 1317.33,-251.76 1315.66,-258.55"/>
</a>
</g>
</g>
<!-- Node39 -->
<g id="Node000039" class="node">
<title>Node39</title>
<g id="a_Node000039"><a xlink:href="classQtProjectWizardContent.html#a87eb197c3827ae090af86517027fc980" target="_top" xlink:title=" ">
<polygon fill="white" stroke="#666666" points="1226.25,-175.5 1093.25,-175.5 1093.25,-142 1226.25,-142 1226.25,-175.5"/>
<text text-anchor="start" x="1101.25" y="-162" font-family="Helvetica,sans-Serif" font-size="10.00">QtProjectWizardContent</text>
<text text-anchor="middle" x="1159.75" y="-149.25" font-family="Helvetica,sans-Serif" font-size="10.00">::showFilesDialog</text>
</a>
</g>
</g>
<!-- Node15&#45;&gt;Node39 -->
<g id="edge44_Node000015_Node000039" class="edge">
<title>Node15&#45;&gt;Node39</title>
<g id="a_edge44_Node000015_Node000039"><a xlink:title=" ">
<path fill="none" stroke="#63b8ff" d="M1352.18,-250.33C1331.06,-231.28 1295.56,-201.96 1260,-184.75 1249.58,-179.71 1238.05,-175.55 1226.65,-172.15"/>
<polygon fill="#63b8ff" stroke="#63b8ff" points="1349.72,-252.82 1359.45,-257.01 1354.46,-247.67 1349.72,-252.82"/>
</a>
</g>
</g>
<!-- Node40 -->
<g id="Node000040" class="node">
<title>Node40</title>
<g id="a_Node000040"><a xlink:href="classQtMainWindow.html#acc7121bc2be7adf4e72f0818fd9bcf23" target="_top" xlink:title=" ">
<polygon fill="white" stroke="#666666" points="1243.5,-123.5 1076,-123.5 1076,-90 1243.5,-90 1243.5,-123.5"/>
<text text-anchor="start" x="1084" y="-110" font-family="Helvetica,sans-Serif" font-size="10.00">QtMainWindow::showKeyboard</text>
<text text-anchor="middle" x="1159.75" y="-97.25" font-family="Helvetica,sans-Serif" font-size="10.00">Shortcuts</text>
</a>
</g>
</g>
<!-- Node15&#45;&gt;Node40 -->
<g id="edge45_Node000015_Node000040" class="edge">
<title>Node15&#45;&gt;Node40</title>
<g id="a_edge45_Node000015_Node000040"><a xlink:title=" ">
<path fill="none" stroke="#63b8ff" d="M1360.42,-248.15C1342.99,-218.09 1306.5,-162.55 1260,-132.75 1254.75,-129.39 1249.08,-126.46 1243.21,-123.9"/>
<polygon fill="#63b8ff" stroke="#63b8ff" points="1357.26,-249.67 1365.22,-256.66 1363.36,-246.23 1357.26,-249.67"/>
</a>
</g>
</g>
<!-- Node42 -->
<g id="Node000042" class="node">
<title>Node42</title>
<g id="a_Node000042"><a xlink:href="classQtMainWindow.html#ae4182ae80d590634778845cbd0f9c9fe" target="_top" xlink:title=" ">
<polygon fill="white" stroke="#666666" points="1241.62,-72.12 1077.88,-72.12 1077.88,-51.38 1241.62,-51.38 1241.62,-72.12"/>
<text text-anchor="middle" x="1159.75" y="-58.62" font-family="Helvetica,sans-Serif" font-size="10.00">QtMainWindow::showLicenses</text>
</a>
</g>
</g>
<!-- Node15&#45;&gt;Node42 -->
<g id="edge48_Node000015_Node000042" class="edge">
<title>Node15&#45;&gt;Node42</title>
<g id="a_edge48_Node000015_Node000042"><a xlink:title=" ">
<path fill="none" stroke="#63b8ff" d="M1365.39,-247.3C1352.66,-207.55 1319.69,-122.65 1260,-80.75 1254.4,-76.82 1248.2,-73.64 1241.72,-71.09"/>
<polygon fill="#63b8ff" stroke="#63b8ff" points="1361.98,-248.11 1368.26,-256.65 1368.67,-246.06 1361.98,-248.11"/>
</a>
</g>
</g>
<!-- Node43 -->
<g id="Node000043" class="node">
<title>Node43</title>
<g id="a_Node000043"><a xlink:href="classQtProjectWizardContentPathsHeaderSearch.html#a46df2437c18a80286516df4d3eb1b112" target="_top" xlink:title=" ">
<polygon fill="white" stroke="#666666" points="1257.75,-33.5 1061.75,-33.5 1061.75,0 1257.75,0 1257.75,-33.5"/>
<text text-anchor="start" x="1069.75" y="-20" font-family="Helvetica,sans-Serif" font-size="10.00">QtProjectWizardContentPaths</text>
<text text-anchor="middle" x="1159.75" y="-7.25" font-family="Helvetica,sans-Serif" font-size="10.00">HeaderSearch::showValidationResult</text>
</a>
</g>
</g>
<!-- Node15&#45;&gt;Node43 -->
<g id="edge50_Node000015_Node000043" class="edge">
<title>Node15&#45;&gt;Node43</title>
<g id="a_edge50_Node000015_Node000043"><a xlink:title=" ">
<path fill="none" stroke="#63b8ff" d="M1367.21,-246.94C1356.89,-201.68 1326.8,-97.23 1260,-42.75 1255.86,-39.37 1251.33,-36.43 1246.55,-33.87"/>
<polygon fill="#63b8ff" stroke="#63b8ff" points="1363.76,-247.53 1369.3,-256.57 1370.6,-246.05 1363.76,-247.53"/>
</a>
</g>
</g>
<!-- Node17 -->
<g id="Node000017" class="node">
<title>Node17</title>
<g id="a_Node000017"><a xlink:href="classQtProjectWizardContentPathsIndexedHeaders.html#adf90b029e5b823c80e3ef17f4fea48b5" target="_top" xlink:title=" ">
<polygon fill="white" stroke="#666666" points="1017.12,-511.5 857.12,-511.5 857.12,-478 1017.12,-478 1017.12,-511.5"/>
<text text-anchor="start" x="865.12" y="-498" font-family="Helvetica,sans-Serif" font-size="10.00">QtProjectWizardContentPaths</text>
<text text-anchor="middle" x="937.12" y="-485.25" font-family="Helvetica,sans-Serif" font-size="10.00">IndexedHeaders::populate</text>
</a>
</g>
</g>
<!-- Node16&#45;&gt;Node17 -->
<g id="edge16_Node000016_Node000017" class="edge">
<title>Node16&#45;&gt;Node17</title>
<g id="a_edge16_Node000016_Node000017"><a xlink:title=" ">
<path fill="none" stroke="#63b8ff" d="M1064.08,-494.75C1048.47,-494.75 1032.45,-494.75 1017.28,-494.75"/>
<polygon fill="#63b8ff" stroke="#63b8ff" points="1063.83,-498.25 1073.83,-494.75 1063.83,-491.25 1063.83,-498.25"/>
</a>
</g>
</g>
<!-- Node19 -->
<g id="Node000019" class="node">
<title>Node19</title>
<g id="a_Node000019"><a xlink:href="classQtProjectWizard.html#a86bf458db1053ae53a0633346def8c1b" target="_top" xlink:title=" ">
<polygon fill="white" stroke="#666666" points="590.62,-443.5 436.62,-443.5 436.62,-410 590.62,-410 590.62,-443.5"/>
<text text-anchor="start" x="444.62" y="-430" font-family="Helvetica,sans-Serif" font-size="10.00">QtProjectWizard::newSource</text>
<text text-anchor="middle" x="513.62" y="-417.25" font-family="Helvetica,sans-Serif" font-size="10.00">Group</text>
</a>
</g>
</g>
<!-- Node18&#45;&gt;Node19 -->
<g id="edge18_Node000018_Node000019" class="edge">
<title>Node18&#45;&gt;Node19</title>
<g id="a_edge18_Node000018_Node000019"><a xlink:title=" ">
<path fill="none" stroke="#63b8ff" d="M1062.72,-440.82C958,-438.66 785.45,-434.89 636.75,-430.75 621.91,-430.34 606.05,-429.85 590.84,-429.36"/>
<polygon fill="#63b8ff" stroke="#63b8ff" points="1062.63,-444.32 1072.7,-441.03 1062.77,-437.32 1062.63,-444.32"/>
</a>
</g>
</g>
<!-- Node23 -->
<g id="Node000023" class="node">
<title>Node23</title>
<g id="a_Node000023"><a xlink:href="classQtProjectWizard.html#a057c1ff5c06e74f85ea132a7da6577fc" target="_top" xlink:title=" ">
<polygon fill="white" stroke="#666666" points="1014.12,-421.5 860.12,-421.5 860.12,-388 1014.12,-388 1014.12,-421.5"/>
<text text-anchor="start" x="868.12" y="-408" font-family="Helvetica,sans-Serif" font-size="10.00">QtProjectWizard::newSource</text>
<text text-anchor="middle" x="937.12" y="-395.25" font-family="Helvetica,sans-Serif" font-size="10.00">GroupFromVS</text>
</a>
</g>
</g>
<!-- Node18&#45;&gt;Node23 -->
<g id="edge23_Node000018_Node000023" class="edge">
<title>Node18&#45;&gt;Node23</title>
<g id="a_edge23_Node000018_Node000023"><a xlink:title=" ">
<path fill="none" stroke="#63b8ff" d="M1062.97,-426.25C1046.81,-423.47 1030.21,-420.61 1014.62,-417.93"/>
<polygon fill="#63b8ff" stroke="#63b8ff" points="1062.14,-429.66 1072.59,-427.91 1063.33,-422.76 1062.14,-429.66"/>
</a>
</g>
</g>
<!-- Node20 -->
<g id="Node000020" class="node">
<title>Node20</title>
<g id="a_Node000020"><a xlink:href="classQtProjectWizard.html#a07441a9d111d82f9e93b7af8903cfe6b" target="_top" xlink:title=" ">
<polygon fill="white" stroke="#666666" points="371.38,-488.5 225.62,-488.5 225.62,-455 371.38,-455 371.38,-488.5"/>
<text text-anchor="start" x="233.62" y="-475" font-family="Helvetica,sans-Serif" font-size="10.00">QtProjectWizard::duplicate</text>
<text text-anchor="middle" x="298.5" y="-462.25" font-family="Helvetica,sans-Serif" font-size="10.00">SelectedSourceGroup</text>
</a>
</g>
</g>
<!-- Node19&#45;&gt;Node20 -->
<g id="edge19_Node000019_Node000020" class="edge">
<title>Node19&#45;&gt;Node20</title>
<g id="a_edge19_Node000019_Node000020"><a xlink:title=" ">
<path fill="none" stroke="#63b8ff" d="M425.06,-445.24C407.33,-448.98 388.88,-452.88 371.75,-456.5"/>
<polygon fill="#63b8ff" stroke="#63b8ff" points="425.74,-448.67 434.8,-443.18 424.3,-441.82 425.74,-448.67"/>
</a>
</g>
</g>
<!-- Node21 -->
<g id="Node000021" class="node">
<title>Node21</title>
<g id="a_Node000021"><a xlink:href="classQtProjectWizard.html#a38dd4706c9e55056686b25901902aa34" target="_top" xlink:title=" ">
<polygon fill="white" stroke="#666666" points="157,-465.5 13.5,-465.5 13.5,-432 157,-432 157,-465.5"/>
<text text-anchor="start" x="21.5" y="-452" font-family="Helvetica,sans-Serif" font-size="10.00">QtProjectWizard::populate</text>
<text text-anchor="middle" x="85.25" y="-439.25" font-family="Helvetica,sans-Serif" font-size="10.00">Window</text>
</a>
</g>
</g>
<!-- Node19&#45;&gt;Node21 -->
<g id="edge21_Node000019_Node000021" class="edge">
<title>Node19&#45;&gt;Node21</title>
<g id="a_edge21_Node000019_Node000021"><a xlink:title=" ">
<path fill="none" stroke="#63b8ff" d="M424.99,-431.27C345.81,-435.36 230.75,-441.29 157.21,-445.09"/>
<polygon fill="#63b8ff" stroke="#63b8ff" points="425.08,-434.77 434.89,-430.76 424.72,-427.78 425.08,-434.77"/>
</a>
</g>
</g>
<!-- Node22 -->
<g id="Node000022" class="node">
<title>Node22</title>
<g id="a_Node000022"><a xlink:href="classQtProjectWizard.html#a439497d35f27306ce0eacc4833eabecf" target="_top" xlink:title=" ">
<polygon fill="white" stroke="#666666" points="383,-399.12 214,-399.12 214,-378.38 383,-378.38 383,-399.12"/>
<text text-anchor="middle" x="298.5" y="-385.62" font-family="Helvetica,sans-Serif" font-size="10.00">QtProjectWizard::windowReady</text>
</a>
</g>
</g>
<!-- Node19&#45;&gt;Node22 -->
<g id="edge22_Node000019_Node000022" class="edge">
<title>Node19&#45;&gt;Node22</title>
<g id="a_edge22_Node000019_Node000022"><a xlink:title=" ">
<path fill="none" stroke="#63b8ff" d="M425.03,-411.13C403.28,-407.25 380.43,-403.18 360.29,-399.59"/>
<polygon fill="#63b8ff" stroke="#63b8ff" points="424.33,-414.56 434.79,-412.87 425.56,-407.67 424.33,-414.56"/>
</a>
</g>
</g>
<!-- Node20&#45;&gt;Node21 -->
<g id="edge20_Node000020_Node000021" class="edge">
<title>Node20&#45;&gt;Node21</title>
<g id="a_edge20_Node000020_Node000021"><a xlink:title=" ">
<path fill="none" stroke="#63b8ff" d="M214.15,-462.67C195.35,-460.63 175.56,-458.47 157.32,-456.49"/>
<polygon fill="#63b8ff" stroke="#63b8ff" points="213.57,-466.13 223.89,-463.74 214.32,-459.17 213.57,-466.13"/>
</a>
</g>
</g>
<!-- Node24 -->
<g id="Node000024" class="node">
<title>Node24</title>
<g id="a_Node000024"><a xlink:href="classQtProjectWizard.html#a8bb797436f035c70437f9bfac60d8b6f" target="_top" xlink:title=" ">
<polygon fill="white" stroke="#666666" points="796.75,-421.5 654.75,-421.5 654.75,-388 796.75,-388 796.75,-421.5"/>
<text text-anchor="start" x="662.75" y="-408" font-family="Helvetica,sans-Serif" font-size="10.00">QtProjectWizard::selected</text>
<text text-anchor="middle" x="725.75" y="-395.25" font-family="Helvetica,sans-Serif" font-size="10.00">ProjectType</text>
</a>
</g>
</g>
<!-- Node23&#45;&gt;Node24 -->
<g id="edge24_Node000023_Node000024" class="edge">
<title>Node23&#45;&gt;Node24</title>
<g id="a_edge24_Node000023_Node000024"><a xlink:title=" ">
<path fill="none" stroke="#63b8ff" d="M848.5,-398.08C831.36,-397.92 813.6,-398 797.11,-398.33"/>
<polygon fill="#63b8ff" stroke="#63b8ff" points="848.09,-401.58 858.13,-398.2 848.18,-394.58 848.09,-401.58"/>
</a>
</g>
</g>
<!-- Node24&#45;&gt;Node19 -->
<g id="edge25_Node000024_Node000019" class="edge">
<title>Node24&#45;&gt;Node19</title>
<g id="a_edge25_Node000024_Node000019"><a xlink:title=" ">
<path fill="none" stroke="#63b8ff" d="M643.32,-413.28C626.1,-415.08 607.98,-416.98 590.96,-418.76"/>
<polygon fill="#63b8ff" stroke="#63b8ff" points="643.4,-416.79 652.98,-412.26 642.67,-409.82 643.4,-416.79"/>
</a>
</g>
</g>
<!-- Node24&#45;&gt;Node23 -->
<g id="edge26_Node000024_Node000023" class="edge">
<title>Node24&#45;&gt;Node23</title>
<g id="a_edge26_Node000024_Node000023"><a xlink:title=" ">
<path fill="none" stroke="#63b8ff" d="M808.6,-411.36C825.4,-411.57 843.04,-411.55 859.65,-411.28"/>
<polygon fill="#63b8ff" stroke="#63b8ff" points="808.68,-407.86 798.63,-411.19 808.57,-414.86 808.68,-407.86"/>
</a>
</g>
</g>
<!-- Node27 -->
<g id="Node000027" class="node">
<title>Node27</title>
<g id="a_Node000027"><a xlink:href="classQtMainWindow.html#a7c2acddade0de0d92cf150427e8b634e" target="_top" xlink:title=" ">
<polygon fill="white" stroke="#666666" points="1012.25,-369.12 862,-369.12 862,-348.38 1012.25,-348.38 1012.25,-369.12"/>
<text text-anchor="middle" x="937.12" y="-355.62" font-family="Helvetica,sans-Serif" font-size="10.00">QtMainWindow::newProject</text>
</a>
</g>
</g>
<!-- Node26&#45;&gt;Node27 -->
<g id="edge29_Node000026_Node000027" class="edge">
<title>Node26&#45;&gt;Node27</title>
<g id="a_edge29_Node000026_Node000027"><a xlink:title=" ">
<path fill="none" stroke="#63b8ff" d="M1070.4,-358.75C1051.2,-358.75 1031.07,-358.75 1012.47,-358.75"/>
<polygon fill="#63b8ff" stroke="#63b8ff" points="1070.38,-362.25 1080.38,-358.75 1070.38,-355.25 1070.38,-362.25"/>
</a>
</g>
</g>
<!-- Node28 -->
<g id="Node000028" class="node">
<title>Node28</title>
<g id="a_Node000028"><a xlink:href="classQtMainWindow.html#a664153854c294f6243af5fbb203687e1" target="_top" xlink:title=" ">
<polygon fill="white" stroke="#666666" points="390.5,-331.12 206.5,-331.12 206.5,-310.38 390.5,-310.38 390.5,-331.12"/>
<text text-anchor="middle" x="298.5" y="-317.62" font-family="Helvetica,sans-Serif" font-size="10.00">QtMainWindow::setupProjectMenu</text>
</a>
</g>
</g>
<!-- Node27&#45;&gt;Node28 -->
<g id="edge30_Node000027_Node000028" class="edge">
<title>Node27&#45;&gt;Node28</title>
<g id="a_edge30_Node000027_Node000028"><a xlink:title=" ">
<path fill="none" stroke="#63b8ff" d="M850.28,-358.46C748.84,-357.44 575.05,-353.59 426.5,-339.75 405.63,-337.81 382.97,-334.73 362.64,-331.61"/>
<polygon fill="#63b8ff" stroke="#63b8ff" points="850.14,-361.96 860.17,-358.55 850.2,-354.96 850.14,-361.96"/>
</a>
</g>
</g>
<!-- Node30 -->
<g id="Node000030" class="node">
<title>Node30</title>
<g id="a_Node000030"><a xlink:href="classQtMainWindow.html#a404ebb484bf058583023f652765ec5b2" target="_top" xlink:title=" ">
<polygon fill="white" stroke="#666666" points="814.75,-311.12 636.75,-311.12 636.75,-290.38 814.75,-290.38 814.75,-311.12"/>
<text text-anchor="middle" x="725.75" y="-297.62" font-family="Helvetica,sans-Serif" font-size="10.00">QtMainWindow::showStartScreen</text>
</a>
</g>
</g>
<!-- Node27&#45;&gt;Node30 -->
<g id="edge32_Node000027_Node000030" class="edge">
<title>Node27&#45;&gt;Node30</title>
<g id="a_edge32_Node000027_Node000030"><a xlink:title=" ">
<path fill="none" stroke="#63b8ff" d="M886.22,-344.93C849.33,-334.71 799.81,-320.99 765.79,-311.56"/>
<polygon fill="#63b8ff" stroke="#63b8ff" points="885.2,-348.28 895.78,-347.57 887.07,-341.53 885.2,-348.28"/>
</a>
</g>
</g>
<!-- Node29 -->
<g id="Node000029" class="node">
<title>Node29</title>
<g id="a_Node000029"><a xlink:href="classQtMainWindow.html#ab526da2f9eb598fdbee15a62a4323ad0" target="_top" xlink:title=" ">
<polygon fill="white" stroke="#666666" points="170.5,-234.12 0,-234.12 0,-213.38 170.5,-213.38 170.5,-234.12"/>
<text text-anchor="middle" x="85.25" y="-220.62" font-family="Helvetica,sans-Serif" font-size="10.00">QtMainWindow::QtMainWindow</text>
</a>
</g>
</g>
<!-- Node28&#45;&gt;Node29 -->
<g id="edge31_Node000028_Node000029" class="edge">
<title>Node28&#45;&gt;Node29</title>
<g id="a_edge31_Node000028_Node000029"><a xlink:title=" ">
<path fill="none" stroke="#63b8ff" d="M223.73,-306.9C217.82,-305.07 212.01,-303.03 206.5,-300.75 164.36,-283.28 120.68,-251.15 99.44,-234.45"/>
<polygon fill="#63b8ff" stroke="#63b8ff" points="222.4,-310.16 232.98,-309.53 224.32,-303.42 222.4,-310.16"/>
</a>
</g>
</g>
<!-- Node31 -->
<g id="Node000031" class="node">
<title>Node31</title>
<g id="a_Node000031"><a xlink:href="classQtMainWindow.html#aa58fe1b13bce5824a67d5084087b9670" target="_top" xlink:title=" ">
<polygon fill="white" stroke="#666666" points="591.38,-331.12 435.88,-331.12 435.88,-310.38 591.38,-310.38 591.38,-331.12"/>
<text text-anchor="middle" x="513.62" y="-317.62" font-family="Helvetica,sans-Serif" font-size="10.00">QtMainWindow::closeProject</text>
</a>
</g>
</g>
<!-- Node30&#45;&gt;Node31 -->
<g id="edge33_Node000030_Node000031" class="edge">
<title>Node30&#45;&gt;Node31</title>
<g id="a_edge33_Node000030_Node000031"><a xlink:title=" ">
<path fill="none" stroke="#63b8ff" d="M625.28,-310.22C613.96,-311.3 602.55,-312.38 591.59,-313.42"/>
<polygon fill="#63b8ff" stroke="#63b8ff" points="625.42,-313.72 635.04,-309.29 624.76,-306.75 625.42,-313.72"/>
</a>
</g>
</g>
<!-- Node32 -->
<g id="Node000032" class="node">
<title>Node32</title>
<g id="a_Node000032"><a xlink:href="classQtMainWindow.html#a5a89659db627ceb71914275b5bbdd1eb" target="_top" xlink:title=" ">
<polygon fill="white" stroke="#666666" points="591.75,-292.12 435.5,-292.12 435.5,-271.38 591.75,-271.38 591.75,-292.12"/>
<text text-anchor="middle" x="513.62" y="-278.62" font-family="Helvetica,sans-Serif" font-size="10.00">QtMainWindow::loadWindow</text>
</a>
</g>
</g>
<!-- Node30&#45;&gt;Node32 -->
<g id="edge35_Node000030_Node000032" class="edge">
<title>Node30&#45;&gt;Node32</title>
<g id="a_edge35_Node000030_Node000032"><a xlink:title=" ">
<path fill="none" stroke="#63b8ff" d="M625.1,-291.74C614.07,-290.74 602.95,-289.74 592.25,-288.77"/>
<polygon fill="#63b8ff" stroke="#63b8ff" points="624.77,-295.22 635.04,-292.64 625.4,-288.25 624.77,-295.22"/>
</a>
</g>
</g>
<!-- Node34 -->
<g id="Node000034" class="node">
<title>Node34</title>
<g id="a_Node000034"><a xlink:href="classQtMainWindow.html#a304f403073f323be6d6a388bb5c64b65" target="_top" xlink:title=" ">
<polygon fill="white" stroke="#666666" points="600.75,-253.12 426.5,-253.12 426.5,-232.38 600.75,-232.38 600.75,-253.12"/>
<text text-anchor="middle" x="513.62" y="-239.62" font-family="Helvetica,sans-Serif" font-size="10.00">QtMainWindow::setupViewMenu</text>
</a>
</g>
</g>
<!-- Node30&#45;&gt;Node34 -->
<g id="edge37_Node000030_Node000034" class="edge">
<title>Node30&#45;&gt;Node34</title>
<g id="a_edge37_Node000030_Node000034"><a xlink:title=" ">
<path fill="none" stroke="#63b8ff" d="M680.78,-286.47C657.17,-279 627.5,-269.94 600.75,-262.75 588.89,-259.56 576.03,-256.41 563.96,-253.59"/>
<polygon fill="#63b8ff" stroke="#63b8ff" points="679.48,-289.72 690.07,-289.42 681.6,-283.05 679.48,-289.72"/>
</a>
</g>
</g>
<!-- Node31&#45;&gt;Node28 -->
<g id="edge34_Node000031_Node000028" class="edge">
<title>Node31&#45;&gt;Node28</title>
<g id="a_edge34_Node000031_Node000028"><a xlink:title=" ">
<path fill="none" stroke="#63b8ff" d="M424.1,-320.75C413.16,-320.75 401.96,-320.75 390.98,-320.75"/>
<polygon fill="#63b8ff" stroke="#63b8ff" points="423.87,-324.25 433.87,-320.75 423.87,-317.25 423.87,-324.25"/>
</a>
</g>
</g>
<!-- Node33 -->
<g id="Node000033" class="node">
<title>Node33</title>
<g id="a_Node000033"><a xlink:href="classQtMainView.html#a245543879da96e4e8a8f30c1724014de" target="_top" xlink:title=" ">
<polygon fill="white" stroke="#666666" points="369.12,-292.12 227.88,-292.12 227.88,-271.38 369.12,-271.38 369.12,-292.12"/>
<text text-anchor="middle" x="298.5" y="-278.62" font-family="Helvetica,sans-Serif" font-size="10.00">QtMainView::loadWindow</text>
</a>
</g>
</g>
<!-- Node32&#45;&gt;Node33 -->
<g id="edge36_Node000032_Node000033" class="edge">
<title>Node32&#45;&gt;Node33</title>
<g id="a_edge36_Node000032_Node000033"><a xlink:title=" ">
<path fill="none" stroke="#63b8ff" d="M423.65,-281.75C405.59,-281.75 386.85,-281.75 369.57,-281.75"/>
<polygon fill="#63b8ff" stroke="#63b8ff" points="423.57,-285.25 433.57,-281.75 423.57,-278.25 423.57,-285.25"/>
</a>
</g>
</g>
<!-- Node34&#45;&gt;Node29 -->
<g id="edge38_Node000034_Node000029" class="edge">
<title>Node34&#45;&gt;Node29</title>
<g id="a_edge38_Node000034_Node000029"><a xlink:title=" ">
<path fill="none" stroke="#63b8ff" d="M414.95,-238.4C341.25,-235.11 241.15,-230.65 170.85,-227.52"/>
<polygon fill="#63b8ff" stroke="#63b8ff" points="414.43,-241.88 424.57,-238.83 414.74,-234.88 414.43,-241.88"/>
</a>
</g>
</g>
<!-- Node37 -->
<g id="Node000037" class="node">
<title>Node37</title>
<g id="a_Node000037"><a xlink:href="classQtMainWindow.html#ab9871250f6bae1a7f161788b2c797781" target="_top" xlink:title=" ">
<polygon fill="white" stroke="#666666" points="810.25,-243.12 641.25,-243.12 641.25,-222.38 810.25,-222.38 810.25,-243.12"/>
<text text-anchor="middle" x="725.75" y="-229.62" font-family="Helvetica,sans-Serif" font-size="10.00">QtMainWindow::setupEditMenu</text>
</a>
</g>
</g>
<!-- Node36&#45;&gt;Node37 -->
<g id="edge41_Node000036_Node000037" class="edge">
<title>Node36&#45;&gt;Node37</title>
<g id="a_edge41_Node000036_Node000037"><a xlink:title=" ">
<path fill="none" stroke="#63b8ff" d="M1067.82,-261.17C991.87,-254.84 884.44,-245.89 810.54,-239.73"/>
<polygon fill="#63b8ff" stroke="#63b8ff" points="1067.5,-264.66 1077.75,-262 1068.08,-257.68 1067.5,-264.66"/>
</a>
</g>
</g>
<!-- Node37&#45;&gt;Node29 -->
<g id="edge42_Node000037_Node000029" class="edge">
<title>Node37&#45;&gt;Node29</title>
<g id="a_edge42_Node000037_Node000029"><a xlink:title=" ">
<path fill="none" stroke="#63b8ff" d="M629.42,-225.13C619.74,-224.57 610.05,-224.09 600.75,-223.75 449.45,-218.27 272.95,-220.04 170.95,-221.87"/>
<polygon fill="#63b8ff" stroke="#63b8ff" points="629.04,-228.61 639.24,-225.73 629.47,-221.63 629.04,-228.61"/>
</a>
</g>
</g>
<!-- Node41 -->
<g id="Node000041" class="node">
<title>Node41</title>
<g id="a_Node000041"><a xlink:href="classQtMainWindow.html#ab225e8eeed9eae85d5ab3748c1d17903" target="_top" xlink:title=" ">
<polygon fill="white" stroke="#666666" points="1023.5,-117.12 850.75,-117.12 850.75,-96.38 1023.5,-96.38 1023.5,-117.12"/>
<text text-anchor="middle" x="937.12" y="-103.62" font-family="Helvetica,sans-Serif" font-size="10.00">QtMainWindow::setupHelpMenu</text>
</a>
</g>
</g>
<!-- Node40&#45;&gt;Node41 -->
<g id="edge46_Node000040_Node000041" class="edge">
<title>Node40&#45;&gt;Node41</title>
<g id="a_edge46_Node000040_Node000041"><a xlink:title=" ">
<path fill="none" stroke="#63b8ff" d="M1064.4,-106.75C1050.89,-106.75 1037.05,-106.75 1023.72,-106.75"/>
<polygon fill="#63b8ff" stroke="#63b8ff" points="1064.14,-110.25 1074.14,-106.75 1064.14,-103.25 1064.14,-110.25"/>
</a>
</g>
</g>
<!-- Node41&#45;&gt;Node29 -->
<g id="edge47_Node000041_Node000029" class="edge">
<title>Node41&#45;&gt;Node29</title>
<g id="a_edge47_Node000041_Node000029"><a xlink:title=" ">
<path fill="none" stroke="#63b8ff" d="M846.1,-119.14C678.94,-142.16 323.27,-191.12 165.02,-212.91"/>
<polygon fill="#63b8ff" stroke="#63b8ff" points="846.39,-122.64 855.82,-117.81 845.43,-115.7 846.39,-122.64"/>
</a>
</g>
</g>
<!-- Node42&#45;&gt;Node41 -->
<g id="edge49_Node000042_Node000041" class="edge">
<title>Node42&#45;&gt;Node41</title>
<g id="a_edge49_Node000042_Node000041"><a xlink:title=" ">
<path fill="none" stroke="#63b8ff" d="M1089.99,-74.71C1079.76,-76.7 1069.35,-78.75 1059.5,-80.75 1035.85,-85.55 1009.66,-91.12 987.68,-95.88"/>
<polygon fill="#63b8ff" stroke="#63b8ff" points="1090.34,-78.21 1099.49,-72.88 1089.01,-71.34 1090.34,-78.21"/>
</a>
</g>
</g>
</g>
</svg>
