<?xml version="1.0" encoding="UTF-8" standalone="no"?>
<!DOCTYPE svg PUBLIC "-//W3C//DTD SVG 1.1//EN"
 "http://www.w3.org/Graphics/SVG/1.1/DTD/svg11.dtd">
<!-- Generated by graphviz version 9.0.0 (0)
 -->
<!-- Title: QtMainView::refreshUIState Pages: 1 -->
<svg width="701pt" height="29pt"
 viewBox="0.00 0.00 700.50 28.75" xmlns="http://www.w3.org/2000/svg" xmlns:xlink="http://www.w3.org/1999/xlink">
<g id="graph0" class="graph" transform="scale(1 1) rotate(0) translate(4 24.75)">
<title>QtMainView::refreshUIState</title>
<!-- Node1 -->
<g id="Node000001" class="node">
<title>Node1</title>
<g id="a_Node000001"><a xlink:title=" ">
<polygon fill="#999999" stroke="#666666" points="151.75,-20.75 0,-20.75 0,0 151.75,0 151.75,-20.75"/>
<text text-anchor="middle" x="75.88" y="-7.25" font-family="Helvetica,sans-Serif" font-size="10.00">QtMainView::refreshUIState</text>
</a>
</g>
</g>
<!-- Node2 -->
<g id="Node000002" class="node">
<title>Node2</title>
<g id="a_Node000002"><a xlink:href="classMessage.html#a4556438d5bb073d6f19ea777fe3faf10" target="_top" xlink:title=" ">
<polygon fill="white" stroke="#666666" points="294.5,-20.75 187.75,-20.75 187.75,0 294.5,0 294.5,-20.75"/>
<text text-anchor="middle" x="241.12" y="-7.25" font-family="Helvetica,sans-Serif" font-size="10.00">Message::dispatch</text>
</a>
</g>
</g>
<!-- Node1&#45;&gt;Node2 -->
<g id="edge1_Node000001_Node000002" class="edge">
<title>Node1&#45;&gt;Node2</title>
<g id="a_edge1_Node000001_Node000002"><a xlink:title=" ">
<path fill="none" stroke="#63b8ff" d="M151.81,-10.38C159.92,-10.38 168.12,-10.38 176.08,-10.38"/>
<polygon fill="#63b8ff" stroke="#63b8ff" points="176.03,-13.88 186.03,-10.38 176.03,-6.88 176.03,-13.88"/>
</a>
</g>
</g>
<!-- Node3 -->
<g id="Node000003" class="node">
<title>Node3</title>
<g id="a_Node000003"><a xlink:href="classMessageQueue.html#a085ebbc4ba9c58eeeaad64e77efc8e07" target="_top" xlink:title=" ">
<polygon fill="white" stroke="#666666" points="484.5,-20.75 330.5,-20.75 330.5,0 484.5,0 484.5,-20.75"/>
<text text-anchor="middle" x="407.5" y="-7.25" font-family="Helvetica,sans-Serif" font-size="10.00">MessageQueue::getInstance</text>
</a>
</g>
</g>
<!-- Node2&#45;&gt;Node3 -->
<g id="edge2_Node000002_Node000003" class="edge">
<title>Node2&#45;&gt;Node3</title>
<g id="a_edge2_Node000002_Node000003"><a xlink:title=" ">
<path fill="none" stroke="#63b8ff" d="M294.59,-10.38C302.4,-10.38 310.63,-10.38 318.94,-10.38"/>
<polygon fill="#63b8ff" stroke="#63b8ff" points="318.76,-13.88 328.76,-10.38 318.76,-6.88 318.76,-13.88"/>
</a>
</g>
</g>
<!-- Node4 -->
<g id="Node000004" class="node">
<title>Node4</title>
<g id="a_Node000004"><a xlink:href="classMessageQueue.html#a006069f4b83d2372c989c52784fac5de" target="_top" xlink:title=" ">
<polygon fill="white" stroke="#666666" points="692.5,-20.75 520.5,-20.75 520.5,0 692.5,0 692.5,-20.75"/>
<text text-anchor="middle" x="606.5" y="-7.25" font-family="Helvetica,sans-Serif" font-size="10.00">MessageQueue::MessageQueue</text>
</a>
</g>
</g>
<!-- Node3&#45;&gt;Node4 -->
<g id="edge3_Node000003_Node000004" class="edge">
<title>Node3&#45;&gt;Node4</title>
<g id="a_edge3_Node000003_Node000004"><a xlink:title=" ">
<path fill="none" stroke="#63b8ff" d="M484.95,-10.38C492.81,-10.38 500.88,-10.38 508.92,-10.38"/>
<polygon fill="#63b8ff" stroke="#63b8ff" points="508.75,-13.88 518.75,-10.38 508.75,-6.88 508.75,-13.88"/>
</a>
</g>
</g>
</g>
</svg>
