<?xml version="1.0" encoding="UTF-8" standalone="no"?>
<!DOCTYPE svg PUBLIC "-//W3C//DTD SVG 1.1//EN"
 "http://www.w3.org/Graphics/SVG/1.1/DTD/svg11.dtd">
<!-- Generated by graphviz version 7.1.0 (0)
 -->
<!-- Title: SqliteStorage::isEmpty Pages: 1 -->
<svg width="837pt" height="162pt"
 viewBox="0.00 0.00 837.00 162.00" xmlns="http://www.w3.org/2000/svg" xmlns:xlink="http://www.w3.org/1999/xlink">
<g id="graph0" class="graph" transform="scale(1 1) rotate(0) translate(4 158)">
<title>SqliteStorage::isEmpty</title>
<!-- Node1 -->
<g id="node1" class="node">
<title>Node1</title>
<g id="a_node1"><a xlink:title=" ">
<polygon fill="#999999" stroke="#666666" points="829,-86.5 701,-86.5 701,-67.5 829,-67.5 829,-86.5"/>
<text text-anchor="middle" x="765" y="-74.5" font-family="Helvetica,sans-Serif" font-size="10.00">SqliteStorage::isEmpty</text>
</a>
</g>
</g>
<!-- Node2 -->
<g id="node2" class="node">
<title>Node2</title>
<g id="a_node2"><a xlink:href="classPersistentStorage.html#ac2b48cdbef840cf9fda035a00cce1b75" target="_top" xlink:title=" ">
<polygon fill="white" stroke="#666666" points="639.5,-154 530.5,-154 530.5,-124 639.5,-124 639.5,-154"/>
<text text-anchor="start" x="538.5" y="-142" font-family="Helvetica,sans-Serif" font-size="10.00">PersistentStorage::</text>
<text text-anchor="middle" x="585" y="-131" font-family="Helvetica,sans-Serif" font-size="10.00">isEmpty</text>
</a>
</g>
</g>
<!-- Node1&#45;&gt;Node2 -->
<g id="edge1" class="edge">
<title>Node1&#45;&gt;Node2</title>
<path fill="none" stroke="#63b8ff" d="M729.27,-91.03C710.39,-98.48 686.54,-107.6 665,-115 656.59,-117.89 647.63,-120.78 638.86,-123.51"/>
<polygon fill="#63b8ff" stroke="#63b8ff" points="730.36,-94.36 738.36,-87.42 727.77,-87.86 730.36,-94.36"/>
</g>
<!-- Node3 -->
<g id="node3" class="node">
<title>Node3</title>
<g id="a_node3"><a xlink:href="classSqliteStorage.html#a876f4f796e70c151fa5994020ed35c7d" target="_top" xlink:title=" ">
<polygon fill="white" stroke="#666666" points="665,-105.5 505,-105.5 505,-86.5 665,-86.5 665,-105.5"/>
<text text-anchor="middle" x="585" y="-93.5" font-family="Helvetica,sans-Serif" font-size="10.00">SqliteStorage::isIncompatible</text>
</a>
</g>
</g>
<!-- Node1&#45;&gt;Node3 -->
<g id="edge2" class="edge">
<title>Node1&#45;&gt;Node3</title>
<path fill="none" stroke="#63b8ff" d="M689.54,-84.95C681.51,-85.8 673.33,-86.68 665.25,-87.54"/>
<polygon fill="#63b8ff" stroke="#63b8ff" points="689.67,-88.45 699.24,-83.91 688.92,-81.49 689.67,-88.45"/>
</g>
<!-- Node5 -->
<g id="node5" class="node">
<title>Node5</title>
<g id="a_node5"><a xlink:href="classSqliteStorage.html#a57fb337324f9dc5eb2ac7228d17d268f" target="_top" xlink:title=" ">
<polygon fill="white" stroke="#666666" points="469,-67.5 354,-67.5 354,-48.5 469,-48.5 469,-67.5"/>
<text text-anchor="middle" x="411.5" y="-55.5" font-family="Helvetica,sans-Serif" font-size="10.00">SqliteStorage::setup</text>
</a>
</g>
</g>
<!-- Node1&#45;&gt;Node5 -->
<g id="edge9" class="edge">
<title>Node1&#45;&gt;Node5</title>
<path fill="none" stroke="#63b8ff" d="M689.64,-72.98C623.88,-69.43 529.33,-64.32 469.43,-61.08"/>
<polygon fill="#63b8ff" stroke="#63b8ff" points="689.07,-76.45 699.24,-73.5 689.45,-69.46 689.07,-76.45"/>
</g>
<!-- Node10 -->
<g id="node10" class="node">
<title>Node10</title>
<g id="a_node10"><a xlink:href="classPersistentStorage.html#aa268d08ed4d81c748dcb255e279db13b" target="_top" xlink:title=" ">
<polygon fill="white" stroke="#666666" points="639.5,-30 530.5,-30 530.5,0 639.5,0 639.5,-30"/>
<text text-anchor="start" x="538.5" y="-18" font-family="Helvetica,sans-Serif" font-size="10.00">PersistentStorage::</text>
<text text-anchor="middle" x="585" y="-7" font-family="Helvetica,sans-Serif" font-size="10.00">updateVersion</text>
</a>
</g>
</g>
<!-- Node1&#45;&gt;Node10 -->
<g id="edge10" class="edge">
<title>Node1&#45;&gt;Node10</title>
<path fill="none" stroke="#63b8ff" d="M724.82,-63.35C696.85,-53.61 659.21,-40.5 630.17,-30.39"/>
<polygon fill="#63b8ff" stroke="#63b8ff" points="723.38,-66.56 733.97,-66.54 725.68,-59.95 723.38,-66.56"/>
</g>
<!-- Node4 -->
<g id="node4" class="node">
<title>Node4</title>
<g id="a_node4"><a xlink:href="classPersistentStorage.html#a5fb6c0a56bc66dc2d6611898da541e0e" target="_top" xlink:title=" ">
<polygon fill="white" stroke="#666666" points="466,-116 357,-116 357,-86 466,-86 466,-116"/>
<text text-anchor="start" x="365" y="-104" font-family="Helvetica,sans-Serif" font-size="10.00">PersistentStorage::</text>
<text text-anchor="middle" x="411.5" y="-93" font-family="Helvetica,sans-Serif" font-size="10.00">isIncompatible</text>
</a>
</g>
</g>
<!-- Node3&#45;&gt;Node4 -->
<g id="edge3" class="edge">
<title>Node3&#45;&gt;Node4</title>
<path fill="none" stroke="#63b8ff" d="M493.26,-98.65C484.03,-98.91 474.88,-99.18 466.24,-99.43"/>
<polygon fill="#63b8ff" stroke="#63b8ff" points="493.12,-102.15 503.01,-98.36 492.91,-95.15 493.12,-102.15"/>
</g>
<!-- Node3&#45;&gt;Node5 -->
<g id="edge4" class="edge">
<title>Node3&#45;&gt;Node5</title>
<path fill="none" stroke="#63b8ff" d="M527.71,-83.53C504.95,-78.48 479.04,-72.74 457.56,-67.98"/>
<polygon fill="#63b8ff" stroke="#63b8ff" points="526.94,-86.94 537.46,-85.69 528.46,-80.11 526.94,-86.94"/>
</g>
<!-- Node6 -->
<g id="node6" class="node">
<title>Node6</title>
<g id="a_node6"><a xlink:href="classSqliteStorage.html#a563c05ddc1d28664a0f070ff8cd61377" target="_top" xlink:title=" ">
<polygon fill="white" stroke="#666666" points="318,-90.5 206,-90.5 206,-71.5 318,-71.5 318,-90.5"/>
<text text-anchor="middle" x="262" y="-78.5" font-family="Helvetica,sans-Serif" font-size="10.00">SqliteStorage::clear</text>
</a>
</g>
</g>
<!-- Node5&#45;&gt;Node6 -->
<g id="edge5" class="edge">
<title>Node5&#45;&gt;Node6</title>
<path fill="none" stroke="#63b8ff" d="M342.79,-68.56C334.57,-69.84 326.25,-71.14 318.24,-72.39"/>
<polygon fill="#63b8ff" stroke="#63b8ff" points="343.06,-72.06 352.4,-67.06 341.98,-65.14 343.06,-72.06"/>
</g>
<!-- Node8 -->
<g id="node8" class="node">
<title>Node8</title>
<g id="a_node8"><a xlink:href="classPersistentStorage.html#abc1fd27ad170e28d1d8c750c4f7b6503" target="_top" xlink:title=" ">
<polygon fill="white" stroke="#666666" points="316.5,-52 207.5,-52 207.5,-22 316.5,-22 316.5,-52"/>
<text text-anchor="start" x="215.5" y="-40" font-family="Helvetica,sans-Serif" font-size="10.00">PersistentStorage::</text>
<text text-anchor="middle" x="262" y="-29" font-family="Helvetica,sans-Serif" font-size="10.00">setup</text>
</a>
</g>
</g>
<!-- Node5&#45;&gt;Node8 -->
<g id="edge7" class="edge">
<title>Node5&#45;&gt;Node8</title>
<path fill="none" stroke="#63b8ff" d="M342.61,-48.33C333.95,-47.1 325.18,-45.85 316.79,-44.66"/>
<polygon fill="#63b8ff" stroke="#63b8ff" points="342,-51.78 352.4,-49.73 342.99,-44.85 342,-51.78"/>
</g>
<!-- Node7 -->
<g id="node7" class="node">
<title>Node7</title>
<g id="a_node7"><a xlink:href="classPersistentStorage.html#a5b3eea5249e7355dbeedec39ede2ca55" target="_top" xlink:title=" ">
<polygon fill="white" stroke="#666666" points="139.5,-98 30.5,-98 30.5,-68 139.5,-68 139.5,-98"/>
<text text-anchor="start" x="38.5" y="-86" font-family="Helvetica,sans-Serif" font-size="10.00">PersistentStorage::</text>
<text text-anchor="middle" x="85" y="-75" font-family="Helvetica,sans-Serif" font-size="10.00">clear</text>
</a>
</g>
</g>
<!-- Node6&#45;&gt;Node7 -->
<g id="edge6" class="edge">
<title>Node6&#45;&gt;Node7</title>
<path fill="none" stroke="#63b8ff" d="M194.31,-81.76C176.29,-81.97 157.03,-82.19 139.81,-82.38"/>
<polygon fill="#63b8ff" stroke="#63b8ff" points="194.16,-85.26 204.12,-81.65 194.08,-78.26 194.16,-85.26"/>
</g>
<!-- Node9 -->
<g id="node9" class="node">
<title>Node9</title>
<g id="a_node9"><a xlink:href="classTaskExecuteCustomCommands.html#af4a74f479f27dcd0117a6f8750eba3ea" target="_top" xlink:title=" ">
<polygon fill="white" stroke="#666666" points="170,-50 0,-50 0,-20 170,-20 170,-50"/>
<text text-anchor="start" x="8" y="-38" font-family="Helvetica,sans-Serif" font-size="10.00">TaskExecuteCustomCommands</text>
<text text-anchor="middle" x="85" y="-27" font-family="Helvetica,sans-Serif" font-size="10.00">::doUpdate</text>
</a>
</g>
</g>
<!-- Node8&#45;&gt;Node9 -->
<g id="edge8" class="edge">
<title>Node8&#45;&gt;Node9</title>
<path fill="none" stroke="#63b8ff" d="M195.62,-36.25C187.36,-36.16 178.83,-36.06 170.33,-35.96"/>
<polygon fill="#63b8ff" stroke="#63b8ff" points="195.51,-39.75 205.55,-36.37 195.59,-32.75 195.51,-39.75"/>
</g>
</g>
</svg>
