<?xml version="1.0" encoding="UTF-8" standalone="no"?>
<!DOCTYPE svg PUBLIC "-//W3C//DTD SVG 1.1//EN"
 "http://www.w3.org/Graphics/SVG/1.1/DTD/svg11.dtd">
<!-- Generated by graphviz version 7.1.0 (0)
 -->
<!-- Title: QtHistoryList::showPopup Pages: 1 -->
<svg width="703pt" height="46pt"
 viewBox="0.00 0.00 703.00 46.00" xmlns="http://www.w3.org/2000/svg" xmlns:xlink="http://www.w3.org/1999/xlink">
<g id="graph0" class="graph" transform="scale(1 1) rotate(0) translate(4 42)">
<title>QtHistoryList::showPopup</title>
<!-- Node1 -->
<g id="node1" class="node">
<title>Node1</title>
<g id="a_node1"><a xlink:title=" ">
<polygon fill="#999999" stroke="#666666" points="695,-19 553,-19 553,0 695,0 695,-19"/>
<text text-anchor="middle" x="624" y="-7" font-family="Helvetica,sans-Serif" font-size="10.00">QtHistoryList::showPopup</text>
</a>
</g>
</g>
<!-- Node2 -->
<g id="node2" class="node">
<title>Node2</title>
<g id="a_node2"><a xlink:href="classQtUndoRedo.html#af7739b812e254da35e5bfd439aec4674" target="_top" xlink:title=" ">
<polygon fill="white" stroke="#666666" points="517,-19 372,-19 372,0 517,0 517,-19"/>
<text text-anchor="middle" x="444.5" y="-7" font-family="Helvetica,sans-Serif" font-size="10.00">QtUndoRedo::showHistory</text>
</a>
</g>
</g>
<!-- Node1&#45;&gt;Node2 -->
<g id="edge1" class="edge">
<title>Node1&#45;&gt;Node2</title>
<path fill="none" stroke="#63b8ff" d="M541.32,-9.5C533.3,-9.5 525.19,-9.5 517.28,-9.5"/>
<polygon fill="#63b8ff" stroke="#63b8ff" points="541.08,-13 551.08,-9.5 541.08,-6 541.08,-13"/>
</g>
<!-- Node3 -->
<g id="node3" class="node">
<title>Node3</title>
<g id="a_node3"><a xlink:href="classQtUndoRedo.html#a17a0ca4d639590dd7fa4b5dfe8172ff9" target="_top" xlink:title=" ">
<polygon fill="white" stroke="#666666" points="336,-38 182,-38 182,-19 336,-19 336,-38"/>
<text text-anchor="middle" x="259" y="-26" font-family="Helvetica,sans-Serif" font-size="10.00">QtUndoRedo::buttonPressed</text>
</a>
</g>
</g>
<!-- Node2&#45;&gt;Node3 -->
<g id="edge2" class="edge">
<title>Node2&#45;&gt;Node3</title>
<path fill="none" stroke="#63b8ff" d="M360.3,-18.11C352.31,-18.94 344.24,-19.78 336.33,-20.6"/>
<polygon fill="#63b8ff" stroke="#63b8ff" points="360.41,-21.62 370,-17.11 359.69,-14.66 360.41,-21.62"/>
</g>
<!-- Node4 -->
<g id="node4" class="node">
<title>Node4</title>
<g id="a_node4"><a xlink:href="classQtUndoRedo.html#a3dfb4d556c707e29d64f3ba7170d4176" target="_top" xlink:title=" ">
<polygon fill="white" stroke="#666666" points="146,-19 0,-19 0,0 146,0 146,-19"/>
<text text-anchor="middle" x="73" y="-7" font-family="Helvetica,sans-Serif" font-size="10.00">QtUndoRedo::QtUndoRedo</text>
</a>
</g>
</g>
<!-- Node2&#45;&gt;Node4 -->
<g id="edge4" class="edge">
<title>Node2&#45;&gt;Node4</title>
<path fill="none" stroke="#63b8ff" d="M360.5,-9.5C296.17,-9.5 207.92,-9.5 146.43,-9.5"/>
<polygon fill="#63b8ff" stroke="#63b8ff" points="360.31,-13 370.31,-9.5 360.3,-6 360.31,-13"/>
</g>
<!-- Node3&#45;&gt;Node4 -->
<g id="edge3" class="edge">
<title>Node3&#45;&gt;Node4</title>
<path fill="none" stroke="#63b8ff" d="M170.29,-19.44C162.28,-18.62 154.22,-17.78 146.36,-16.97"/>
<polygon fill="#63b8ff" stroke="#63b8ff" points="169.75,-22.91 180.06,-20.45 170.47,-15.94 169.75,-22.91"/>
</g>
</g>
</svg>
