<?xml version="1.0" encoding="UTF-8" standalone="no"?>
<!DOCTYPE svg PUBLIC "-//W3C//DTD SVG 1.1//EN"
 "http://www.w3.org/Graphics/SVG/1.1/DTD/svg11.dtd">
<!-- Generated by graphviz version 7.1.0 (0)
 -->
<!-- Title: QtGraphicsView::resized Pages: 1 -->
<svg width="338pt" height="64pt"
 viewBox="0.00 0.00 338.00 64.00" xmlns="http://www.w3.org/2000/svg" xmlns:xlink="http://www.w3.org/1999/xlink">
<g id="graph0" class="graph" transform="scale(1 1) rotate(0) translate(4 60)">
<title>QtGraphicsView::resized</title>
<!-- Node1 -->
<g id="node1" class="node">
<title>Node1</title>
<g id="a_node1"><a xlink:title=" ">
<polygon fill="#999999" stroke="#666666" points="330,-37 194,-37 194,-18 330,-18 330,-37"/>
<text text-anchor="middle" x="262" y="-25" font-family="Helvetica,sans-Serif" font-size="10.00">QtGraphicsView::resized</text>
</a>
</g>
</g>
<!-- Node2 -->
<g id="node2" class="node">
<title>Node2</title>
<g id="a_node2"><a xlink:href="classQtGraphView.html#ad62e4097c2649e7e7ce879278132d4cb" target="_top" xlink:title=" ">
<polygon fill="white" stroke="#666666" points="155,-56 3,-56 3,-37 155,-37 155,-56"/>
<text text-anchor="middle" x="79" y="-44" font-family="Helvetica,sans-Serif" font-size="10.00">QtGraphView::QtGraphView</text>
</a>
</g>
</g>
<!-- Node1&#45;&gt;Node2 -->
<g id="edge1" class="edge">
<title>Node1&#45;&gt;Node2</title>
<path fill="none" stroke="#63b8ff" d="M182.36,-35.75C173.4,-36.7 164.28,-37.65 155.37,-38.59"/>
<polygon fill="#63b8ff" stroke="#63b8ff" points="182.52,-39.26 192.1,-34.73 181.79,-32.3 182.52,-39.26"/>
</g>
<!-- Node3 -->
<g id="node3" class="node">
<title>Node3</title>
<g id="a_node3"><a xlink:href="classQtGraphicsView.html#aea606217f372769246d438c5a2c1e206" target="_top" xlink:title="Qt resize event.">
<polygon fill="white" stroke="#666666" points="158,-19 0,-19 0,0 158,0 158,-19"/>
<text text-anchor="middle" x="79" y="-7" font-family="Helvetica,sans-Serif" font-size="10.00">QtGraphicsView::resizeEvent</text>
</a>
</g>
</g>
<!-- Node1&#45;&gt;Node3 -->
<g id="edge2" class="edge">
<title>Node1&#45;&gt;Node3</title>
<path fill="none" stroke="#63b8ff" d="M182.18,-19.66C174.31,-18.88 166.31,-18.08 158.44,-17.3"/>
<polygon fill="#63b8ff" stroke="#63b8ff" points="181.8,-23.14 192.1,-20.65 182.49,-16.18 181.8,-23.14"/>
</g>
</g>
</svg>
