<?xml version="1.0" encoding="UTF-8" standalone="no"?>
<!DOCTYPE svg PUBLIC "-//W3C//DTD SVG 1.1//EN"
 "http://www.w3.org/Graphics/SVG/1.1/DTD/svg11.dtd">
<!-- Generated by graphviz version 9.0.0 (0)
 -->
<!-- Title: SourceLocation::getType Pages: 1 -->
<!--zoomable 204 -->

<svg id="main" version="1.1" xmlns="http://www.w3.org/2000/svg" xmlns:xlink="http://www.w3.org/1999/xlink" xml:space="preserve" onload="init(evt)">
<style type="text/css"><![CDATA[
.node, .edge {opacity: 0.7;}
.node.selected, .edge.selected {opacity: 1;}
.edge:hover path { stroke: red; }
.edge:hover polygon { stroke: red; fill: red; }
]]></style>

<defs>
  <circle id="rim" cx="0" cy="0" r="7"/>
  <circle id="rim2" cx="0" cy="0" r="3.5"/>
  <g id="zoomPlus">
    <use xlink:href="#rim" fill="#404040"><set attributeName="fill" to="#808080" begin="zoomplus.mouseover" end="zoomplus.mouseout"/></use>
    <path d="M-4,0h8M0,-4v8" fill="none" stroke="white" stroke-width="1.5" pointer-events="none"/>
  </g>
  <g id="zoomMin">
    <use xlink:href="#rim" fill="#404040"><set attributeName="fill" to="#808080" begin="zoomminus.mouseover" end="zoomminus.mouseout"/></use>
    <path d="M-4,0h8" fill="none" stroke="white" stroke-width="1.5" pointer-events="none"/>
  </g>
  <g id="arrowUp" transform="translate(30 24)">
    <use xlink:href="#rim"/>
    <path pointer-events="none" fill="none" stroke="white" stroke-width="1.5" d="M0,-3.0v7 M-2.5,-0.5L0,-3.0L2.5,-0.5"/>
  </g>
  <g id="arrowRight" transform="rotate(90) translate(36 -43)">
    <use xlink:href="#rim"/>
    <path pointer-events="none" fill="none" stroke="white" stroke-width="1.5" d="M0,-3.0v7 M-2.5,-0.5L0,-3.0L2.5,-0.5"/>
  </g>
  <g id="arrowDown" transform="rotate(180) translate(-30 -48)">
    <use xlink:href="#rim"/>
    <path pointer-events="none" fill="none" stroke="white" stroke-width="1.5" d="M0,-3.0v7 M-2.5,-0.5L0,-3.0L2.5,-0.5"/>
  </g>
  <g id="arrowLeft" transform="rotate(270) translate(-36 17)">
    <use xlink:href="#rim"/>
    <path pointer-events="none" fill="none" stroke="white" stroke-width="1.5" d="M0,-3.0v7 M-2.5,-0.5L0,-3.0L2.5,-0.5"/>
  </g>
  <g id="resetDef">
    <use xlink:href="#rim2" fill="#404040"><set attributeName="fill" to="#808080" begin="reset.mouseover" end="reset.mouseout"/></use>
  </g>
</defs>
<script type="application/ecmascript">
var viewWidth = 1102;
var viewHeight = 204;
var sectionId = 'dynsection-16';
</script>
<script type="application/ecmascript" xlink:href="svg.min.js"/>
<svg id="graph" class="graph">
<g id="viewport">
<title>SourceLocation::getType</title>
<!-- Node1 -->
<g id="Node000001" class="node">
<title>Node1</title>
<g id="a_Node000001"><a xlink:title=" ">
<polygon fill="#999999" stroke="#666666" points="1094.25,-87.75 959.75,-87.75 959.75,-67 1094.25,-67 1094.25,-87.75"/>
<text text-anchor="middle" x="1027" y="-74.25" font-family="Helvetica,sans-Serif" font-size="10.00">SourceLocation::getType</text>
</a>
</g>
</g>
<!-- Node2 -->
<g id="Node000002" class="node">
<title>Node2</title>
<g id="a_Node000002"><a xlink:href="classPersistentStorage.html#a172ab166e95a725576059295faadbd63" target="_top" xlink:title=" ">
<polygon fill="white" stroke="#666666" points="905.75,-184.12 772,-184.12 772,-150.62 905.75,-150.62 905.75,-184.12"/>
<text text-anchor="start" x="780" y="-170.62" font-family="Helvetica,sans-Serif" font-size="10.00">PersistentStorage::</text>
<text text-anchor="middle" x="838.88" y="-157.88" font-family="Helvetica,sans-Serif" font-size="10.00">addFileContentsToGraph</text>
</a>
</g>
</g>
<!-- Node1&#45;&gt;Node2 -->
<g id="edge1_Node000001_Node000002" class="edge">
<title>Node1&#45;&gt;Node2</title>
<g id="a_edge1_Node000001_Node000002"><a xlink:title=" ">
<path fill="none" stroke="#63b8ff" d="M993.51,-93.09C960.51,-109.04 909.54,-133.69 875.47,-150.17"/>
<polygon fill="#63b8ff" stroke="#63b8ff" points="994.71,-96.39 1002.19,-88.89 991.66,-90.09 994.71,-96.39"/>
</a>
</g>
</g>
<!-- Node4 -->
<g id="Node000004" class="node">
<title>Node4</title>
<g id="a_Node000004"><a xlink:href="classQtCodeField.html#a97d316c63bca19793607216be3da7458" target="_top" xlink:title=" ">
<polygon fill="white" stroke="#666666" points="923.75,-110.75 754,-110.75 754,-90 923.75,-90 923.75,-110.75"/>
<text text-anchor="middle" x="838.88" y="-97.25" font-family="Helvetica,sans-Serif" font-size="10.00">QtCodeField::createAnnotations</text>
</a>
</g>
</g>
<!-- Node1&#45;&gt;Node4 -->
<g id="edge3_Node000001_Node000004" class="edge">
<title>Node1&#45;&gt;Node4</title>
<g id="a_edge3_Node000001_Node000004"><a xlink:title=" ">
<path fill="none" stroke="#63b8ff" d="M948.15,-87C940.15,-87.98 932,-88.99 923.94,-89.99"/>
<polygon fill="#63b8ff" stroke="#63b8ff" points="948.33,-90.5 957.83,-85.8 947.47,-83.55 948.33,-90.5"/>
</a>
</g>
</g>
<!-- Node11 -->
<g id="Node000011" class="node">
<title>Node11</title>
<g id="a_Node000011"><a xlink:href="classPersistentStorage.html#affb6cd0ceacf0f94b0bf3853490689f2" target="_top" xlink:title=" ">
<polygon fill="white" stroke="#666666" points="909.5,-72.12 768.25,-72.12 768.25,-38.62 909.5,-38.62 909.5,-72.12"/>
<text text-anchor="start" x="776.25" y="-58.62" font-family="Helvetica,sans-Serif" font-size="10.00">PersistentStorage::</text>
<text text-anchor="middle" x="838.88" y="-45.88" font-family="Helvetica,sans-Serif" font-size="10.00">getTooltipSnippetForNode</text>
</a>
</g>
</g>
<!-- Node1&#45;&gt;Node11 -->
<g id="edge10_Node000001_Node000011" class="edge">
<title>Node1&#45;&gt;Node11</title>
<g id="a_edge10_Node000001_Node000011"><a xlink:title=" ">
<path fill="none" stroke="#63b8ff" d="M948.26,-68.19C935.52,-66.68 922.39,-65.13 909.85,-63.65"/>
<polygon fill="#63b8ff" stroke="#63b8ff" points="947.49,-71.62 957.83,-69.32 948.31,-64.67 947.49,-71.62"/>
</a>
</g>
</g>
<!-- Node13 -->
<g id="Node000013" class="node">
<title>Node13</title>
<g id="a_Node000013"><a xlink:href="classSourceLocation.html#a3fc7c335f10254d45fddac33c987929a" target="_top" xlink:title=" ">
<polygon fill="white" stroke="#666666" points="915.88,-20.75 761.88,-20.75 761.88,0 915.88,0 915.88,-20.75"/>
<text text-anchor="middle" x="838.88" y="-7.25" font-family="Helvetica,sans-Serif" font-size="10.00">SourceLocation::operator==</text>
</a>
</g>
</g>
<!-- Node1&#45;&gt;Node13 -->
<g id="edge12_Node000001_Node000013" class="edge">
<title>Node1&#45;&gt;Node13</title>
<g id="a_edge12_Node000001_Node000013"><a xlink:title=" ">
<path fill="none" stroke="#63b8ff" d="M996.5,-61.44C976.44,-51.13 949.06,-38.07 923.75,-29.38 914.71,-26.27 904.95,-23.53 895.39,-21.17"/>
<polygon fill="#63b8ff" stroke="#63b8ff" points="994.72,-64.46 1005.2,-65.99 997.96,-58.25 994.72,-64.46"/>
</a>
</g>
</g>
<!-- Node3 -->
<g id="Node000003" class="node">
<title>Node3</title>
<g id="a_Node000003"><a xlink:href="classPersistentStorage.html#a739d4ccb8075fa10eb61794625366d2e" target="_top" xlink:title=" ">
<polygon fill="white" stroke="#666666" points="718,-196.12 569.25,-196.12 569.25,-162.62 718,-162.62 718,-196.12"/>
<text text-anchor="start" x="577.25" y="-182.62" font-family="Helvetica,sans-Serif" font-size="10.00">PersistentStorage::</text>
<text text-anchor="middle" x="643.62" y="-169.88" font-family="Helvetica,sans-Serif" font-size="10.00">getGraphForActiveTokenIds</text>
</a>
</g>
</g>
<!-- Node2&#45;&gt;Node3 -->
<g id="edge2_Node000002_Node000003" class="edge">
<title>Node2&#45;&gt;Node3</title>
<g id="a_edge2_Node000002_Node000003"><a xlink:title=" ">
<path fill="none" stroke="#63b8ff" d="M760.2,-172.2C746.41,-173.05 732.08,-173.94 718.39,-174.79"/>
<polygon fill="#63b8ff" stroke="#63b8ff" points="760.37,-175.69 770.13,-171.58 759.93,-168.71 760.37,-175.69"/>
</a>
</g>
</g>
<!-- Node5 -->
<g id="Node000005" class="node">
<title>Node5</title>
<g id="a_Node000005"><a xlink:href="classQtCodeField.html#a2a22c06ec26342e1c7dc4bc4cef0d411" target="_top" xlink:title=" ">
<polygon fill="white" stroke="#666666" points="713.12,-144.75 574.12,-144.75 574.12,-124 713.12,-124 713.12,-144.75"/>
<text text-anchor="middle" x="643.62" y="-131.25" font-family="Helvetica,sans-Serif" font-size="10.00">QtCodeField::QtCodeField</text>
</a>
</g>
</g>
<!-- Node4&#45;&gt;Node5 -->
<g id="edge4_Node000004_Node000005" class="edge">
<title>Node4&#45;&gt;Node5</title>
<g id="a_edge4_Node000004_Node000005"><a xlink:title=" ">
<path fill="none" stroke="#63b8ff" d="M765.01,-113.19C745.7,-116.59 725.04,-120.23 706.38,-123.51"/>
<polygon fill="#63b8ff" stroke="#63b8ff" points="765.47,-116.67 774.71,-111.49 764.25,-109.77 765.47,-116.67"/>
</a>
</g>
</g>
<!-- Node6 -->
<g id="Node000006" class="node">
<title>Node6</title>
<g id="a_Node000006"><a xlink:href="classQtCodeArea.html#a7fd0b14e7544f1698bc5811568db4621" target="_top" xlink:title=" ">
<polygon fill="white" stroke="#666666" points="717.25,-106.12 570,-106.12 570,-72.62 717.25,-72.62 717.25,-106.12"/>
<text text-anchor="start" x="578" y="-92.62" font-family="Helvetica,sans-Serif" font-size="10.00">QtCodeArea::updateSource</text>
<text text-anchor="middle" x="643.62" y="-79.88" font-family="Helvetica,sans-Serif" font-size="10.00">Locations</text>
</a>
</g>
</g>
<!-- Node4&#45;&gt;Node6 -->
<g id="edge5_Node000004_Node000006" class="edge">
<title>Node4&#45;&gt;Node6</title>
<g id="a_edge5_Node000004_Node000006"><a xlink:title=" ">
<path fill="none" stroke="#63b8ff" d="M742.37,-94.94C734.06,-94.47 725.73,-93.99 717.65,-93.53"/>
<polygon fill="#63b8ff" stroke="#63b8ff" points="741.98,-98.42 752.16,-95.5 742.38,-91.43 741.98,-98.42"/>
</a>
</g>
</g>
<!-- Node7 -->
<g id="Node000007" class="node">
<title>Node7</title>
<g id="a_Node000007"><a xlink:href="classQtCodeSnippet.html#ac4f99cc9745a4ce48f3bf1bd78c26f69" target="_top" xlink:title=" ">
<polygon fill="white" stroke="#666666" points="533.25,-132.12 371.75,-132.12 371.75,-98.62 533.25,-98.62 533.25,-132.12"/>
<text text-anchor="start" x="379.75" y="-118.62" font-family="Helvetica,sans-Serif" font-size="10.00">QtCodeSnippet::updateSource</text>
<text text-anchor="middle" x="452.5" y="-105.88" font-family="Helvetica,sans-Serif" font-size="10.00">Locations</text>
</a>
</g>
</g>
<!-- Node6&#45;&gt;Node7 -->
<g id="edge6_Node000006_Node000007" class="edge">
<title>Node6&#45;&gt;Node7</title>
<g id="a_edge6_Node000006_Node000007"><a xlink:title=" ">
<path fill="none" stroke="#63b8ff" d="M558.1,-101C549.97,-102.11 541.74,-103.24 533.65,-104.36"/>
<polygon fill="#63b8ff" stroke="#63b8ff" points="558.57,-104.46 568,-99.63 557.62,-97.53 558.57,-104.46"/>
</a>
</g>
</g>
<!-- Node10 -->
<g id="Node000010" class="node">
<title>Node10</title>
<g id="a_Node000010"><a xlink:href="classQtCodeFileSingle.html#a2ad4acf9fcdfa0deff804ef1dadc5aaa" target="_top" xlink:title=" ">
<polygon fill="white" stroke="#666666" points="521.62,-80.12 383.38,-80.12 383.38,-46.62 521.62,-46.62 521.62,-80.12"/>
<text text-anchor="start" x="391.38" y="-66.62" font-family="Helvetica,sans-Serif" font-size="10.00">QtCodeFileSingle::update</text>
<text text-anchor="middle" x="452.5" y="-53.88" font-family="Helvetica,sans-Serif" font-size="10.00">SourceLocations</text>
</a>
</g>
</g>
<!-- Node6&#45;&gt;Node10 -->
<g id="edge9_Node000006_Node000010" class="edge">
<title>Node6&#45;&gt;Node10</title>
<g id="a_edge9_Node000006_Node000010"><a xlink:title=" ">
<path fill="none" stroke="#63b8ff" d="M558.43,-77.8C546.27,-76.13 533.89,-74.43 522.09,-72.8"/>
<polygon fill="#63b8ff" stroke="#63b8ff" points="557.62,-81.22 568,-79.12 558.57,-74.29 557.62,-81.22"/>
</a>
</g>
</g>
<!-- Node8 -->
<g id="Node000008" class="node">
<title>Node8</title>
<g id="a_Node000008"><a xlink:href="classQtCodeFile.html#abff38401b7321a3ffcb4c0c7a9789b82" target="_top" xlink:title=" ">
<polygon fill="white" stroke="#666666" points="335.75,-132.12 194.5,-132.12 194.5,-98.62 335.75,-98.62 335.75,-132.12"/>
<text text-anchor="start" x="202.5" y="-118.62" font-family="Helvetica,sans-Serif" font-size="10.00">QtCodeFile::updateSource</text>
<text text-anchor="middle" x="265.12" y="-105.88" font-family="Helvetica,sans-Serif" font-size="10.00">Locations</text>
</a>
</g>
</g>
<!-- Node7&#45;&gt;Node8 -->
<g id="edge7_Node000007_Node000008" class="edge">
<title>Node7&#45;&gt;Node8</title>
<g id="a_edge7_Node000007_Node000008"><a xlink:title=" ">
<path fill="none" stroke="#63b8ff" d="M359.93,-115.38C351.88,-115.38 343.83,-115.38 336,-115.38"/>
<polygon fill="#63b8ff" stroke="#63b8ff" points="359.76,-118.88 369.76,-115.38 359.76,-111.88 359.76,-118.88"/>
</a>
</g>
</g>
<!-- Node9 -->
<g id="Node000009" class="node">
<title>Node9</title>
<g id="a_Node000009"><a xlink:href="classQtCodeFileList.html#aa0277bce0e2bc5b2588fa686bfcdb45f" target="_top" xlink:title=" ">
<polygon fill="white" stroke="#666666" points="158.5,-132.12 0,-132.12 0,-98.62 158.5,-98.62 158.5,-132.12"/>
<text text-anchor="start" x="8" y="-118.62" font-family="Helvetica,sans-Serif" font-size="10.00">QtCodeFileList::updateSource</text>
<text text-anchor="middle" x="79.25" y="-105.88" font-family="Helvetica,sans-Serif" font-size="10.00">Locations</text>
</a>
</g>
</g>
<!-- Node8&#45;&gt;Node9 -->
<g id="edge8_Node000008_Node000009" class="edge">
<title>Node8&#45;&gt;Node9</title>
<g id="a_edge8_Node000008_Node000009"><a xlink:title=" ">
<path fill="none" stroke="#63b8ff" d="M182.84,-115.38C174.82,-115.38 166.69,-115.38 158.69,-115.38"/>
<polygon fill="#63b8ff" stroke="#63b8ff" points="182.57,-118.88 192.57,-115.38 182.57,-111.88 182.57,-118.88"/>
</a>
</g>
</g>
<!-- Node12 -->
<g id="Node000012" class="node">
<title>Node12</title>
<g id="a_Node000012"><a xlink:href="classPersistentStorage.html#a4e8e066571898d8762233955dbc3e845" target="_top" xlink:title=" ">
<polygon fill="white" stroke="#666666" points="713.5,-54.12 573.75,-54.12 573.75,-20.62 713.5,-20.62 713.5,-54.12"/>
<text text-anchor="start" x="581.75" y="-40.62" font-family="Helvetica,sans-Serif" font-size="10.00">PersistentStorage::</text>
<text text-anchor="middle" x="643.62" y="-27.88" font-family="Helvetica,sans-Serif" font-size="10.00">getTooltipInfoForTokenIds</text>
</a>
</g>
</g>
<!-- Node11&#45;&gt;Node12 -->
<g id="edge11_Node000011_Node000012" class="edge">
<title>Node11&#45;&gt;Node12</title>
<g id="a_edge11_Node000011_Node000012"><a xlink:title=" ">
<path fill="none" stroke="#63b8ff" d="M756.55,-47.8C742.32,-46.47 727.64,-45.11 713.78,-43.82"/>
<polygon fill="#63b8ff" stroke="#63b8ff" points="756.05,-51.27 766.33,-48.71 756.69,-44.3 756.05,-51.27"/>
</a>
</g>
</g>
</g>
</svg>

<g id="navigator" transform="translate(0 0)" fill="#404254">
  <rect fill="#f2f5e9" fill-opacity="0.5" stroke="#606060" stroke-width=".5" x="0" y="0" width="60" height="60"/>
  <use id="zoomplus" xlink:href="#zoomPlus" x="17" y="9" onmousedown="handleZoom(evt,'in')"/>
  <use id="zoomminus" xlink:href="#zoomMin" x="42" y="9" onmousedown="handleZoom(evt,'out')"/>
  <use id="reset" xlink:href="#resetDef" x="30" y="36" onmousedown="handleReset()"/>
   <use id="arrowup" xlink:href="#arrowUp" x="0" y="0" onmousedown="handlePan(0,-1)"/>
  <use id="arrowright" xlink:href="#arrowRight" x="0" y="0" onmousedown="handlePan(1,0)"/>
  <use id="arrowdown" xlink:href="#arrowDown" x="0" y="0" onmousedown="handlePan(0,1)"/>
  <use id="arrowleft" xlink:href="#arrowLeft" x="0" y="0" onmousedown="handlePan(-1,0)"/>
</g>
<svg viewBox="0 0 15 15" width="100%" height="30px" preserveAspectRatio="xMaxYMin meet">
 <g id="arrow_out" transform="scale(0.3 0.3)">
  <a xlink:href="classSourceLocation_a0c0fdcc9faf5384643b914df77c3ccae_icgraph_org.svg" target="_base">
   <rect id="button" ry="5" rx="5" y="6" x="6" height="38" width="38"
        fill="#f2f5e9" fill-opacity="0.5" stroke="#606060" stroke-width="1.0"/>
   <path id="arrow"
     d="M 11.500037,31.436501 C 11.940474,20.09759 22.043105,11.32322 32.158766,21.979434 L 37.068811,17.246167 C 37.068811,17.246167 37.088388,32 37.088388,32 L 22.160133,31.978069 C 22.160133,31.978069 26.997745,27.140456 26.997745,27.140456 C 18.528582,18.264221 13.291696,25.230495 11.500037,31.436501 z"
     style="fill:#404040;"/>
  </a>
 </g>
</svg>

<style type='text/css'>
<![CDATA[
[data-mouse-over-selected='false'] { opacity: 0.7; }
[data-mouse-over-selected='true']  { opacity: 1.0; }
]]>
</style>
<script type="application/ecmascript"><![CDATA[
document.addEventListener('DOMContentLoaded', (event) => {
  highlightEdges();
  highlightAdjacentNodes();
});
]]></script>
</svg>
