<?xml version="1.0" encoding="UTF-8" standalone="no"?>
<!DOCTYPE svg PUBLIC "-//W3C//DTD SVG 1.1//EN"
 "http://www.w3.org/Graphics/SVG/1.1/DTD/svg11.dtd">
<!-- Generated by graphviz version 7.1.0 (0)
 -->
<!-- Title: QtProjectWizardContentPathsIndexedHeaders::savedFilesDialog Pages: 1 -->
<svg width="1110pt" height="141pt"
 viewBox="0.00 0.00 1110.00 141.00" xmlns="http://www.w3.org/2000/svg" xmlns:xlink="http://www.w3.org/1999/xlink">
<g id="graph0" class="graph" transform="scale(1 1) rotate(0) translate(4 137)">
<title>QtProjectWizardContentPathsIndexedHeaders::savedFilesDialog</title>
<!-- Node1 -->
<g id="node1" class="node">
<title>Node1</title>
<g id="a_node1"><a xlink:title=" ">
<polygon fill="#999999" stroke="#666666" points="185,-63.5 0,-63.5 0,-33.5 185,-33.5 185,-63.5"/>
<text text-anchor="start" x="8" y="-51.5" font-family="Helvetica,sans-Serif" font-size="10.00">QtProjectWizardContentPaths</text>
<text text-anchor="middle" x="92.5" y="-40.5" font-family="Helvetica,sans-Serif" font-size="10.00">IndexedHeaders::savedFilesDialog</text>
</a>
</g>
</g>
<!-- Node2 -->
<g id="node2" class="node">
<title>Node2</title>
<g id="a_node2"><a xlink:href="classQtProjectWizardContent.html#ac726f0f6fabc48481c6a508dc2b916ce" target="_top" xlink:title=" ">
<polygon fill="white" stroke="#666666" points="355,-85.5 221,-85.5 221,-55.5 355,-55.5 355,-85.5"/>
<text text-anchor="start" x="229" y="-73.5" font-family="Helvetica,sans-Serif" font-size="10.00">QtProjectWizardContent</text>
<text text-anchor="middle" x="288" y="-62.5" font-family="Helvetica,sans-Serif" font-size="10.00">::closedFilesDialog</text>
</a>
</g>
</g>
<!-- Node1&#45;&gt;Node2 -->
<g id="edge1" class="edge">
<title>Node1&#45;&gt;Node2</title>
<path fill="none" stroke="#63b8ff" d="M185.43,-58.95C193.43,-59.86 201.46,-60.77 209.32,-61.67"/>
<polygon fill="#63b8ff" stroke="#63b8ff" points="208.86,-65.14 219.19,-62.79 209.65,-58.18 208.86,-65.14"/>
</g>
<!-- Node3 -->
<g id="node3" class="node">
<title>Node3</title>
<g id="a_node3"><a xlink:href="classQtPathListBox.html#afcd1f49e4f8ed5b9c03894b58fb9933c" target="_top" xlink:title=" ">
<polygon fill="white" stroke="#666666" points="355,-37 221,-37 221,-18 355,-18 355,-37"/>
<text text-anchor="middle" x="288" y="-25" font-family="Helvetica,sans-Serif" font-size="10.00">QtPathListBox::setPaths</text>
</a>
</g>
</g>
<!-- Node1&#45;&gt;Node3 -->
<g id="edge2" class="edge">
<title>Node1&#45;&gt;Node3</title>
<path fill="none" stroke="#63b8ff" d="M185.43,-38.52C193.43,-37.66 201.46,-36.78 209.32,-35.93"/>
<polygon fill="#63b8ff" stroke="#63b8ff" points="209.62,-39.42 219.19,-34.86 208.87,-32.46 209.62,-39.42"/>
</g>
<!-- Node4 -->
<g id="node4" class="node">
<title>Node4</title>
<g id="a_node4"><a xlink:href="classQtPathListBox.html#a895fde64a5d494326362579e6f288a37" target="_top" xlink:title=" ">
<polygon fill="white" stroke="#666666" points="528,-56 391,-56 391,-37 528,-37 528,-56"/>
<text text-anchor="middle" x="459.5" y="-44" font-family="Helvetica,sans-Serif" font-size="10.00">QtPathListBox::addPaths</text>
</a>
</g>
</g>
<!-- Node3&#45;&gt;Node4 -->
<g id="edge3" class="edge">
<title>Node3&#45;&gt;Node4</title>
<path fill="none" stroke="#63b8ff" d="M355.02,-34.9C362.98,-35.79 371.17,-36.71 379.3,-37.62"/>
<polygon fill="#63b8ff" stroke="#63b8ff" points="378.87,-41.1 389.2,-38.73 379.65,-34.14 378.87,-41.1"/>
</g>
<!-- Node12 -->
<g id="node12" class="node">
<title>Node12</title>
<g id="a_node12"><a xlink:href="classQtListBox.html#a2d1bd3966d59c8d45560a819e2709dfd" target="_top" xlink:title=" ">
<polygon fill="white" stroke="#666666" points="506.5,-19 412.5,-19 412.5,0 506.5,0 506.5,-19"/>
<text text-anchor="middle" x="459.5" y="-7" font-family="Helvetica,sans-Serif" font-size="10.00">QtListBox::clear</text>
</a>
</g>
</g>
<!-- Node3&#45;&gt;Node12 -->
<g id="edge11" class="edge">
<title>Node3&#45;&gt;Node12</title>
<path fill="none" stroke="#63b8ff" d="M355.02,-20.49C370.2,-18.88 386.23,-17.17 401.02,-15.6"/>
<polygon fill="#63b8ff" stroke="#63b8ff" points="400.98,-19.13 410.55,-14.59 400.24,-12.17 400.98,-19.13"/>
</g>
<!-- Node5 -->
<g id="node5" class="node">
<title>Node5</title>
<g id="a_node5"><a xlink:href="classQtListBox.html#ac42b92a2e2a8eb509458dca8def467c8" target="_top" xlink:title=" ">
<polygon fill="white" stroke="#666666" points="714.5,-83.5 568.5,-83.5 568.5,-53.5 714.5,-53.5 714.5,-83.5"/>
<text text-anchor="start" x="576.5" y="-71.5" font-family="Helvetica,sans-Serif" font-size="10.00">QtListBox::addListBoxItem</text>
<text text-anchor="middle" x="641.5" y="-60.5" font-family="Helvetica,sans-Serif" font-size="10.00">WithText</text>
</a>
</g>
</g>
<!-- Node4&#45;&gt;Node5 -->
<g id="edge4" class="edge">
<title>Node4&#45;&gt;Node5</title>
<path fill="none" stroke="#63b8ff" d="M528.29,-54.79C537.68,-55.93 547.4,-57.12 557.03,-58.3"/>
<polygon fill="#63b8ff" stroke="#63b8ff" points="556.41,-61.75 566.76,-59.49 557.26,-54.8 556.41,-61.75"/>
</g>
<!-- Node10 -->
<g id="node10" class="node">
<title>Node10</title>
<g id="a_node10"><a xlink:href="classQtListBoxItem.html#a1d042d61978d8d5d143b130a3cdd6ab8" target="_top" xlink:title=" ">
<polygon fill="white" stroke="#666666" points="719,-35 564,-35 564,-16 719,-16 719,-35"/>
<text text-anchor="middle" x="641.5" y="-23" font-family="Helvetica,sans-Serif" font-size="10.00">QtListBoxItem::setReadOnly</text>
</a>
</g>
</g>
<!-- Node4&#45;&gt;Node10 -->
<g id="edge9" class="edge">
<title>Node4&#45;&gt;Node10</title>
<path fill="none" stroke="#63b8ff" d="M528.29,-38.59C536.15,-37.67 544.25,-36.73 552.33,-35.79"/>
<polygon fill="#63b8ff" stroke="#63b8ff" points="552.68,-39.27 562.21,-34.63 551.87,-32.32 552.68,-39.27"/>
</g>
<!-- Node6 -->
<g id="node6" class="node">
<title>Node6</title>
<g id="a_node6"><a xlink:href="classQtListBox.html#ab85600b8cd5aa6c035abd21c2e86d928" target="_top" xlink:title=" ">
<polygon fill="white" stroke="#666666" points="904,-115 758,-115 758,-96 904,-96 904,-115"/>
<text text-anchor="middle" x="831" y="-103" font-family="Helvetica,sans-Serif" font-size="10.00">QtListBox::addListBoxItem</text>
</a>
</g>
</g>
<!-- Node5&#45;&gt;Node6 -->
<g id="edge5" class="edge">
<title>Node5&#45;&gt;Node6</title>
<path fill="none" stroke="#63b8ff" d="M714.99,-82.81C732.66,-86.29 751.39,-89.99 768.49,-93.36"/>
<polygon fill="#63b8ff" stroke="#63b8ff" points="767.49,-96.73 777.98,-95.24 768.85,-89.87 767.49,-96.73"/>
</g>
<!-- Node9 -->
<g id="node9" class="node">
<title>Node9</title>
<g id="a_node9"><a xlink:href="classQtListBoxItem.html#a3f75a39f922940872590ebb3146a8ba4" target="_top" xlink:title=" ">
<polygon fill="white" stroke="#666666" points="895,-78 767,-78 767,-59 895,-59 895,-78"/>
<text text-anchor="middle" x="831" y="-66" font-family="Helvetica,sans-Serif" font-size="10.00">QtListBoxItem::setText</text>
</a>
</g>
</g>
<!-- Node5&#45;&gt;Node9 -->
<g id="edge8" class="edge">
<title>Node5&#45;&gt;Node9</title>
<path fill="none" stroke="#63b8ff" d="M714.99,-68.5C728.14,-68.5 741.88,-68.5 755.1,-68.5"/>
<polygon fill="#63b8ff" stroke="#63b8ff" points="755.04,-72 765.04,-68.5 755.04,-65 755.04,-72"/>
</g>
<!-- Node7 -->
<g id="node7" class="node">
<title>Node7</title>
<g id="a_node7"><a xlink:href="classQtListBox.html#aded0d85d73468d463ffc4f06150c190e" target="_top" xlink:title=" ">
<polygon fill="white" stroke="#666666" points="1102,-133 943,-133 943,-114 1102,-114 1102,-133"/>
<text text-anchor="middle" x="1022.5" y="-121" font-family="Helvetica,sans-Serif" font-size="10.00">QtListBox::createListBoxItem</text>
</a>
</g>
</g>
<!-- Node6&#45;&gt;Node7 -->
<g id="edge6" class="edge">
<title>Node6&#45;&gt;Node7</title>
<path fill="none" stroke="#63b8ff" d="M904.45,-112.38C913.27,-113.22 922.36,-114.08 931.39,-114.94"/>
<polygon fill="#63b8ff" stroke="#63b8ff" points="930.98,-118.42 941.27,-115.88 931.65,-111.45 930.98,-118.42"/>
</g>
<!-- Node8 -->
<g id="node8" class="node">
<title>Node8</title>
<g id="a_node8"><a xlink:href="classQtListBoxItem.html#a988c59cb0ddbc7285981ede21fb61422" target="_top" xlink:title=" ">
<polygon fill="white" stroke="#666666" points="1090,-96 955,-96 955,-77 1090,-77 1090,-96"/>
<text text-anchor="middle" x="1022.5" y="-84" font-family="Helvetica,sans-Serif" font-size="10.00">QtListBoxItem::setFocus</text>
</a>
</g>
</g>
<!-- Node6&#45;&gt;Node8 -->
<g id="edge7" class="edge">
<title>Node6&#45;&gt;Node8</title>
<path fill="none" stroke="#63b8ff" d="M904.45,-98.24C917.22,-96.96 930.56,-95.62 943.48,-94.32"/>
<polygon fill="#63b8ff" stroke="#63b8ff" points="943.58,-97.83 953.18,-93.35 942.88,-90.86 943.58,-97.83"/>
</g>
<!-- Node11 -->
<g id="node11" class="node">
<title>Node11</title>
<g id="a_node11"><a xlink:href="classQtListBoxItem.html#a967053bd48b913a5bbc3076ca638b52b" target="_top" xlink:title=" ">
<polygon fill="white" stroke="#666666" points="907,-40.5 755,-40.5 755,-10.5 907,-10.5 907,-40.5"/>
<text text-anchor="start" x="763" y="-28.5" font-family="Helvetica,sans-Serif" font-size="10.00">QtListBoxItem::onReadOnly</text>
<text text-anchor="middle" x="831" y="-17.5" font-family="Helvetica,sans-Serif" font-size="10.00">Changed</text>
</a>
</g>
</g>
<!-- Node10&#45;&gt;Node11 -->
<g id="edge10" class="edge">
<title>Node10&#45;&gt;Node11</title>
<path fill="none" stroke="#63b8ff" d="M719.3,-25.5C727.21,-25.5 735.28,-25.5 743.28,-25.5"/>
<polygon fill="#63b8ff" stroke="#63b8ff" points="743.01,-29 753.01,-25.5 743.01,-22 743.01,-29"/>
</g>
</g>
</svg>
