<?xml version="1.0" encoding="UTF-8" standalone="no"?>
<!DOCTYPE svg PUBLIC "-//W3C//DTD SVG 1.1//EN"
 "http://www.w3.org/Graphics/SVG/1.1/DTD/svg11.dtd">
<!-- Generated by graphviz version 9.0.0 (0)
 -->
<!-- Title: GraphFocusHandler::focusEdge Pages: 1 -->
<!--zoomable 842 -->

<svg id="main" version="1.1" xmlns="http://www.w3.org/2000/svg" xmlns:xlink="http://www.w3.org/1999/xlink" xml:space="preserve" onload="init(evt)">
<style type="text/css"><![CDATA[
.node, .edge {opacity: 0.7;}
.node.selected, .edge.selected {opacity: 1;}
.edge:hover path { stroke: red; }
.edge:hover polygon { stroke: red; fill: red; }
]]></style>

<defs>
  <circle id="rim" cx="0" cy="0" r="7"/>
  <circle id="rim2" cx="0" cy="0" r="3.5"/>
  <g id="zoomPlus">
    <use xlink:href="#rim" fill="#404040"><set attributeName="fill" to="#808080" begin="zoomplus.mouseover" end="zoomplus.mouseout"/></use>
    <path d="M-4,0h8M0,-4v8" fill="none" stroke="white" stroke-width="1.5" pointer-events="none"/>
  </g>
  <g id="zoomMin">
    <use xlink:href="#rim" fill="#404040"><set attributeName="fill" to="#808080" begin="zoomminus.mouseover" end="zoomminus.mouseout"/></use>
    <path d="M-4,0h8" fill="none" stroke="white" stroke-width="1.5" pointer-events="none"/>
  </g>
  <g id="arrowUp" transform="translate(30 24)">
    <use xlink:href="#rim"/>
    <path pointer-events="none" fill="none" stroke="white" stroke-width="1.5" d="M0,-3.0v7 M-2.5,-0.5L0,-3.0L2.5,-0.5"/>
  </g>
  <g id="arrowRight" transform="rotate(90) translate(36 -43)">
    <use xlink:href="#rim"/>
    <path pointer-events="none" fill="none" stroke="white" stroke-width="1.5" d="M0,-3.0v7 M-2.5,-0.5L0,-3.0L2.5,-0.5"/>
  </g>
  <g id="arrowDown" transform="rotate(180) translate(-30 -48)">
    <use xlink:href="#rim"/>
    <path pointer-events="none" fill="none" stroke="white" stroke-width="1.5" d="M0,-3.0v7 M-2.5,-0.5L0,-3.0L2.5,-0.5"/>
  </g>
  <g id="arrowLeft" transform="rotate(270) translate(-36 17)">
    <use xlink:href="#rim"/>
    <path pointer-events="none" fill="none" stroke="white" stroke-width="1.5" d="M0,-3.0v7 M-2.5,-0.5L0,-3.0L2.5,-0.5"/>
  </g>
  <g id="resetDef">
    <use xlink:href="#rim2" fill="#404040"><set attributeName="fill" to="#808080" begin="reset.mouseover" end="reset.mouseout"/></use>
  </g>
</defs>
<script type="application/ecmascript">
var viewWidth = 1322;
var viewHeight = 842;
var sectionId = 'dynsection-24';
</script>
<script type="application/ecmascript" xlink:href="svg.min.js"/>
<svg id="graph" class="graph">
<g id="viewport">
<title>GraphFocusHandler::focusEdge</title>
<!-- Node1 -->
<g id="Node000001" class="node">
<title>Node1</title>
<g id="a_Node000001"><a xlink:title=" ">
<polygon fill="#999999" stroke="#666666" points="117.25,-287.12 0,-287.12 0,-253.62 117.25,-253.62 117.25,-287.12"/>
<text text-anchor="start" x="8" y="-273.62" font-family="Helvetica,sans-Serif" font-size="10.00">GraphFocusHandler::</text>
<text text-anchor="middle" x="58.62" y="-260.88" font-family="Helvetica,sans-Serif" font-size="10.00">focusEdge</text>
</a>
</g>
</g>
<!-- Node2 -->
<g id="Node000002" class="node">
<title>Node2</title>
<g id="a_Node000002"><a xlink:href="classGraphFocusHandler.html#a4653bb85bb8c819d6cbf63165ffc48a6" target="_top" xlink:title=" ">
<polygon fill="white" stroke="#666666" points="290.75,-390.12 173.5,-390.12 173.5,-356.62 290.75,-356.62 290.75,-390.12"/>
<text text-anchor="start" x="181.5" y="-376.62" font-family="Helvetica,sans-Serif" font-size="10.00">GraphFocusHandler::</text>
<text text-anchor="middle" x="232.12" y="-363.88" font-family="Helvetica,sans-Serif" font-size="10.00">defocusGraph</text>
</a>
</g>
</g>
<!-- Node1&#45;&gt;Node2 -->
<g id="edge1_Node000001_Node000002" class="edge">
<title>Node1&#45;&gt;Node2</title>
<g id="a_edge1_Node000001_Node000002"><a xlink:title=" ">
<path fill="none" stroke="#63b8ff" d="M78.59,-287.51C96.76,-303.28 125.45,-326.56 153.25,-342.38 159,-345.65 165.17,-348.74 171.42,-351.6"/>
<polygon fill="#63b8ff" stroke="#63b8ff" points="170.02,-354.81 180.58,-355.6 172.82,-348.39 170.02,-354.81"/>
</a>
</g>
</g>
<!-- Node9 -->
<g id="Node000009" class="node">
<title>Node9</title>
<g id="a_Node000009"><a xlink:href="classQtGraphEdge.html#a785cb8ecceedd73e72f63728786c6650" target="_top" xlink:title=" ">
<polygon fill="white" stroke="#666666" points="498.75,-361.75 349.25,-361.75 349.25,-341 498.75,-341 498.75,-361.75"/>
<text text-anchor="middle" x="424" y="-348.25" font-family="Helvetica,sans-Serif" font-size="10.00">QtGraphEdge::setIsFocused</text>
</a>
</g>
</g>
<!-- Node1&#45;&gt;Node9 -->
<g id="edge55_Node000001_Node000009" class="edge">
<title>Node1&#45;&gt;Node9</title>
<g id="a_edge55_Node000001_Node000009"><a xlink:title=" ">
<path fill="none" stroke="#63b8ff" d="M94.92,-287.44C112.16,-295.16 133.42,-303.79 153.25,-309.38 213.84,-326.44 284.16,-337.1 337.81,-343.41"/>
<polygon fill="#63b8ff" stroke="#63b8ff" points="337.16,-346.86 347.49,-344.52 337.95,-339.91 337.16,-346.86"/>
</a>
</g>
</g>
<!-- Node38 -->
<g id="Node000038" class="node">
<title>Node38</title>
<g id="a_Node000038"><a xlink:href="classMessage.html#a4556438d5bb073d6f19ea777fe3faf10" target="_top" xlink:title=" ">
<polygon fill="white" stroke="#666666" points="285.5,-261.75 178.75,-261.75 178.75,-241 285.5,-241 285.5,-261.75"/>
<text text-anchor="middle" x="232.12" y="-248.25" font-family="Helvetica,sans-Serif" font-size="10.00">Message::dispatch</text>
</a>
</g>
</g>
<!-- Node1&#45;&gt;Node38 -->
<g id="edge47_Node000001_Node000038" class="edge">
<title>Node1&#45;&gt;Node38</title>
<g id="a_edge47_Node000001_Node000038"><a xlink:title=" ">
<path fill="none" stroke="#63b8ff" d="M117.69,-263.94C133.64,-262.18 151.02,-260.25 167.27,-258.45"/>
<polygon fill="#63b8ff" stroke="#63b8ff" points="167.26,-261.97 176.81,-257.39 166.48,-255.01 167.26,-261.97"/>
</a>
</g>
</g>
<!-- Node41 -->
<g id="Node000041" class="node">
<title>Node41</title>
<g id="a_Node000041"><a xlink:href="classGraphFocusClient.html#a984eba08f580b4a5868a2b24fb5b5076" target="_top" xlink:title=" ">
<polygon fill="white" stroke="#666666" points="311,-222.75 153.25,-222.75 153.25,-202 311,-202 311,-222.75"/>
<text text-anchor="middle" x="232.12" y="-209.25" font-family="Helvetica,sans-Serif" font-size="10.00">GraphFocusClient::focusView</text>
</a>
</g>
</g>
<!-- Node1&#45;&gt;Node41 -->
<g id="edge50_Node000001_Node000041" class="edge">
<title>Node1&#45;&gt;Node41</title>
<g id="a_edge50_Node000001_Node000041"><a xlink:title=" ">
<path fill="none" stroke="#63b8ff" d="M98.36,-253.29C115.06,-246.28 134.92,-238.42 153.25,-232.38 159.86,-230.2 166.85,-228.11 173.83,-226.15"/>
<polygon fill="#63b8ff" stroke="#63b8ff" points="174.51,-229.59 183.25,-223.6 172.68,-222.84 174.51,-229.59"/>
</a>
</g>
</g>
<!-- Node42 -->
<g id="Node000042" class="node">
<title>Node42</title>
<g id="a_Node000042"><a xlink:href="classQtGraphEdge.html#ae46278d20dc6f08d7fea317e538133c3" target="_top" xlink:title=" ">
<polygon fill="white" stroke="#666666" points="301.62,-300.75 162.62,-300.75 162.62,-280 301.62,-280 301.62,-300.75"/>
<text text-anchor="middle" x="232.12" y="-287.25" font-family="Helvetica,sans-Serif" font-size="10.00">QtGraphEdge::getTokenId</text>
</a>
</g>
</g>
<!-- Node1&#45;&gt;Node42 -->
<g id="edge51_Node000001_Node000042" class="edge">
<title>Node1&#45;&gt;Node42</title>
<g id="a_edge51_Node000001_Node000042"><a xlink:title=" ">
<path fill="none" stroke="#63b8ff" d="M117.69,-277.15C128.4,-278.4 139.76,-279.72 150.99,-281.03"/>
<polygon fill="#63b8ff" stroke="#63b8ff" points="150.31,-284.47 160.65,-282.16 151.12,-277.52 150.31,-284.47"/>
</a>
</g>
</g>
<!-- Node44 -->
<g id="Node000044" class="node">
<title>Node44</title>
<g id="a_Node000044"><a xlink:href="classQtGraphEdge.html#a135cefc79dfc4cfa5a808187817a244b" target="_top" xlink:title=" ">
<polygon fill="white" stroke="#666666" points="303.88,-183.75 160.38,-183.75 160.38,-163 303.88,-163 303.88,-183.75"/>
<text text-anchor="middle" x="232.12" y="-170.25" font-family="Helvetica,sans-Serif" font-size="10.00">QtGraphEdge::isFocusable</text>
</a>
</g>
</g>
<!-- Node1&#45;&gt;Node44 -->
<g id="edge54_Node000001_Node000044" class="edge">
<title>Node1&#45;&gt;Node44</title>
<g id="a_edge54_Node000001_Node000044"><a xlink:title=" ">
<path fill="none" stroke="#63b8ff" d="M75.61,-253.42C93.07,-235.88 122.66,-208.91 153.25,-193.38 157.2,-191.37 161.36,-189.56 165.63,-187.91"/>
<polygon fill="#63b8ff" stroke="#63b8ff" points="166.66,-191.26 174.96,-184.68 164.36,-184.65 166.66,-191.26"/>
</a>
</g>
</g>
<!-- Node3 -->
<g id="Node000003" class="node">
<title>Node3</title>
<g id="a_Node000003"><a xlink:href="classQtGraphNode.html#a8ac7c94742c5108f9d85b1ac6ad2eb37" target="_top" xlink:title=" ">
<polygon fill="white" stroke="#666666" points="499.5,-755.75 348.5,-755.75 348.5,-735 499.5,-735 499.5,-755.75"/>
<text text-anchor="middle" x="424" y="-742.25" font-family="Helvetica,sans-Serif" font-size="10.00">QtGraphNode::setIsFocused</text>
</a>
</g>
</g>
<!-- Node2&#45;&gt;Node3 -->
<g id="edge2_Node000002_Node000003" class="edge">
<title>Node2&#45;&gt;Node3</title>
<g id="a_edge2_Node000002_Node000003"><a xlink:title=" ">
<path fill="none" stroke="#63b8ff" d="M241.78,-390.33C272.78,-451.06 378.25,-657.7 412.3,-724.42"/>
<polygon fill="#63b8ff" stroke="#63b8ff" points="409.12,-725.87 416.78,-733.19 415.35,-722.69 409.12,-725.87"/>
</a>
</g>
</g>
<!-- Node2&#45;&gt;Node9 -->
<g id="edge12_Node000002_Node000009" class="edge">
<title>Node2&#45;&gt;Node9</title>
<g id="a_edge12_Node000002_Node000009"><a xlink:title=" ">
<path fill="none" stroke="#63b8ff" d="M291.13,-366.65C305.78,-364.96 321.83,-363.1 337.53,-361.28"/>
<polygon fill="#63b8ff" stroke="#63b8ff" points="337.84,-364.77 347.37,-360.14 337.03,-357.81 337.84,-364.77"/>
</a>
</g>
</g>
<!-- Node4 -->
<g id="Node000004" class="node">
<title>Node4</title>
<g id="a_Node000004"><a xlink:href="classQtGraphNode.html#a444bacafe53f537080812ad92a59f9cb" target="_top" xlink:title=" ">
<polygon fill="white" stroke="#666666" points="691,-813.75 555,-813.75 555,-793 691,-793 691,-813.75"/>
<text text-anchor="middle" x="623" y="-800.25" font-family="Helvetica,sans-Serif" font-size="10.00">QtGraphNode::coFocusIn</text>
</a>
</g>
</g>
<!-- Node3&#45;&gt;Node4 -->
<g id="edge3_Node000003_Node000004" class="edge">
<title>Node3&#45;&gt;Node4</title>
<g id="a_edge3_Node000003_Node000004"><a xlink:title=" ">
<path fill="none" stroke="#63b8ff" d="M454.23,-756.15C476.69,-764.22 508.58,-775.23 537,-783.38 544.81,-785.61 553.09,-787.79 561.28,-789.84"/>
<polygon fill="#63b8ff" stroke="#63b8ff" points="560.34,-793.21 570.88,-792.18 561.99,-786.41 560.34,-793.21"/>
</a>
</g>
</g>
<!-- Node7 -->
<g id="Node000007" class="node">
<title>Node7</title>
<g id="a_Node000007"><a xlink:href="classQtGraphNode.html#a1fba2d30be621127392f39cbfbfe06b8" target="_top" xlink:title=" ">
<polygon fill="white" stroke="#666666" points="904.62,-755.75 758.12,-755.75 758.12,-735 904.62,-735 904.62,-755.75"/>
<text text-anchor="middle" x="831.38" y="-742.25" font-family="Helvetica,sans-Serif" font-size="10.00">QtGraphNode::updateStyle</text>
</a>
</g>
</g>
<!-- Node3&#45;&gt;Node7 -->
<g id="edge11_Node000003_Node000007" class="edge">
<title>Node3&#45;&gt;Node7</title>
<g id="a_edge11_Node000003_Node000007"><a xlink:title=" ">
<path fill="none" stroke="#63b8ff" d="M499.82,-745.38C569.64,-745.38 673.66,-745.38 746.31,-745.38"/>
<polygon fill="#63b8ff" stroke="#63b8ff" points="746.18,-748.88 756.18,-745.38 746.18,-741.88 746.18,-748.88"/>
</a>
</g>
</g>
<!-- Node8 -->
<g id="Node000008" class="node">
<title>Node8</title>
<g id="a_Node000008"><a xlink:href="classQtGraphNode.html#a878aa40b969853e02f85a35b8281bbf1" target="_top" xlink:title=" ">
<polygon fill="white" stroke="#666666" points="695.12,-774.75 550.88,-774.75 550.88,-754 695.12,-754 695.12,-774.75"/>
<text text-anchor="middle" x="623" y="-761.25" font-family="Helvetica,sans-Serif" font-size="10.00">QtGraphNode::coFocusOut</text>
</a>
</g>
</g>
<!-- Node3&#45;&gt;Node8 -->
<g id="edge7_Node000003_Node000008" class="edge">
<title>Node3&#45;&gt;Node8</title>
<g id="a_edge7_Node000003_Node000008"><a xlink:title=" ">
<path fill="none" stroke="#63b8ff" d="M499.76,-752.59C512.64,-753.83 526.1,-755.13 539.17,-756.39"/>
<polygon fill="#63b8ff" stroke="#63b8ff" points="538.75,-759.86 549.04,-757.34 539.42,-752.89 538.75,-759.86"/>
</a>
</g>
</g>
<!-- Node5 -->
<g id="Node000005" class="node">
<title>Node5</title>
<g id="a_Node000005"><a xlink:href="classQtGraphNode.html#a0aad72991e96f4cd90a4b76ed529219a" target="_top" xlink:title=" ">
<polygon fill="white" stroke="#666666" points="905.75,-794.75 757,-794.75 757,-774 905.75,-774 905.75,-794.75"/>
<text text-anchor="middle" x="831.38" y="-781.25" font-family="Helvetica,sans-Serif" font-size="10.00">QtGraphNode::forEachEdge</text>
</a>
</g>
</g>
<!-- Node4&#45;&gt;Node5 -->
<g id="edge4_Node000004_Node000005" class="edge">
<title>Node4&#45;&gt;Node5</title>
<g id="a_edge4_Node000004_Node000005"><a xlink:title=" ">
<path fill="none" stroke="#63b8ff" d="M691.29,-797.18C708.55,-795.59 727.33,-793.86 745.36,-792.2"/>
<polygon fill="#63b8ff" stroke="#63b8ff" points="745.62,-795.69 755.26,-791.29 744.98,-788.72 745.62,-795.69"/>
</a>
</g>
</g>
<!-- Node6 -->
<g id="Node000006" class="node">
<title>Node6</title>
<g id="a_Node000006"><a xlink:href="classQtGraphEdge.html#ac21d6a2430b2e80fe69f9488a0fe3be4" target="_top" xlink:title=" ">
<polygon fill="white" stroke="#666666" points="901.25,-833.75 761.5,-833.75 761.5,-813 901.25,-813 901.25,-833.75"/>
<text text-anchor="middle" x="831.38" y="-820.25" font-family="Helvetica,sans-Serif" font-size="10.00">QtGraphEdge::isTrailEdge</text>
</a>
</g>
</g>
<!-- Node4&#45;&gt;Node6 -->
<g id="edge5_Node000004_Node000006" class="edge">
<title>Node4&#45;&gt;Node6</title>
<g id="a_edge5_Node000004_Node000006"><a xlink:title=" ">
<path fill="none" stroke="#63b8ff" d="M691.29,-809.9C709.97,-811.71 730.45,-813.69 749.81,-815.57"/>
<polygon fill="#63b8ff" stroke="#63b8ff" points="749.26,-819.03 759.55,-816.51 749.93,-812.06 749.26,-819.03"/>
</a>
</g>
</g>
<!-- Node4&#45;&gt;Node7 -->
<g id="edge6_Node000004_Node000007" class="edge">
<title>Node4&#45;&gt;Node7</title>
<g id="a_edge6_Node000004_Node000007"><a xlink:title=" ">
<path fill="none" stroke="#63b8ff" d="M678.51,-792.54C688.77,-789.94 699.31,-786.88 709,-783.38 725.82,-777.29 728.18,-771.46 745,-765.38 751.39,-763.07 758.14,-760.95 764.94,-759.04"/>
<polygon fill="#63b8ff" stroke="#63b8ff" points="765.4,-762.54 774.16,-756.59 763.6,-755.78 765.4,-762.54"/>
</a>
</g>
</g>
<!-- Node8&#45;&gt;Node5 -->
<g id="edge8_Node000008_Node000005" class="edge">
<title>Node8&#45;&gt;Node5</title>
<g id="a_edge8_Node000008_Node000005"><a xlink:title=" ">
<path fill="none" stroke="#63b8ff" d="M695.6,-771.31C711.68,-772.87 728.89,-774.54 745.46,-776.15"/>
<polygon fill="#63b8ff" stroke="#63b8ff" points="745,-779.62 755.29,-777.1 745.68,-772.65 745,-779.62"/>
</a>
</g>
</g>
<!-- Node8&#45;&gt;Node6 -->
<g id="edge9_Node000008_Node000006" class="edge">
<title>Node8&#45;&gt;Node6</title>
<g id="a_edge9_Node000008_Node000006"><a xlink:title=" ">
<path fill="none" stroke="#63b8ff" d="M679.03,-775.16C689.13,-777.74 699.49,-780.81 709,-784.38 725.94,-790.72 728.05,-797.04 745,-803.38 751.12,-805.66 757.59,-807.75 764.12,-809.63"/>
<polygon fill="#63b8ff" stroke="#63b8ff" points="763.08,-812.97 773.64,-812.21 764.91,-806.22 763.08,-812.97"/>
</a>
</g>
</g>
<!-- Node8&#45;&gt;Node7 -->
<g id="edge10_Node000008_Node000007" class="edge">
<title>Node8&#45;&gt;Node7</title>
<g id="a_edge10_Node000008_Node000007"><a xlink:title=" ">
<path fill="none" stroke="#63b8ff" d="M695.6,-757.78C712.12,-756.26 729.84,-754.63 746.82,-753.07"/>
<polygon fill="#63b8ff" stroke="#63b8ff" points="746.71,-756.59 756.34,-752.19 746.07,-749.62 746.71,-756.59"/>
</a>
</g>
</g>
<!-- Node10 -->
<g id="Node000010" class="node">
<title>Node10</title>
<g id="a_Node000010"><a xlink:href="classQtGraphEdge.html#ac2530e71e523f1a4df007fdd1ea95a5d" target="_top" xlink:title=" ">
<polygon fill="white" stroke="#666666" points="693.25,-361.75 552.75,-361.75 552.75,-341 693.25,-341 693.25,-361.75"/>
<text text-anchor="middle" x="623" y="-348.25" font-family="Helvetica,sans-Serif" font-size="10.00">QtGraphEdge::updateLine</text>
</a>
</g>
</g>
<!-- Node9&#45;&gt;Node10 -->
<g id="edge13_Node000009_Node000010" class="edge">
<title>Node9&#45;&gt;Node10</title>
<g id="a_edge13_Node000009_Node000010"><a xlink:title=" ">
<path fill="none" stroke="#63b8ff" d="M499.2,-351.38C512.83,-351.38 527.13,-351.38 540.95,-351.38"/>
<polygon fill="#63b8ff" stroke="#63b8ff" points="540.91,-354.88 550.91,-351.38 540.91,-347.88 540.91,-354.88"/>
</a>
</g>
</g>
<!-- Node11 -->
<g id="Node000011" class="node">
<title>Node11</title>
<g id="a_Node000011"><a xlink:href="classQtGraphNode.html#a2561beb7d9d674c0603d45820b61815a" target="_top" xlink:title=" ">
<polygon fill="white" stroke="#666666" points="917,-213.75 745.75,-213.75 745.75,-193 917,-193 917,-213.75"/>
<text text-anchor="middle" x="831.38" y="-200.25" font-family="Helvetica,sans-Serif" font-size="10.00">QtGraphNode::getBoundingRect</text>
</a>
</g>
</g>
<!-- Node10&#45;&gt;Node11 -->
<g id="edge14_Node000010_Node000011" class="edge">
<title>Node10&#45;&gt;Node11</title>
<g id="a_edge14_Node000010_Node000011"><a xlink:title=" ">
<path fill="none" stroke="#63b8ff" d="M638.58,-340.63C656.4,-327.08 686.91,-302.5 709,-277.38 728.05,-255.71 721.3,-239.82 745,-223.38 747.35,-221.74 749.82,-220.24 752.38,-218.86"/>
<polygon fill="#63b8ff" stroke="#63b8ff" points="753.62,-222.15 761.21,-214.76 750.67,-215.8 753.62,-222.15"/>
</a>
</g>
</g>
<!-- Node14 -->
<g id="Node000014" class="node">
<title>Node14</title>
<g id="a_Node000014"><a xlink:href="classQtGraphNode.html#a6bc48d89d42c8437ae7997a87ffeff31" target="_top" xlink:title=" ">
<polygon fill="white" stroke="#666666" points="912.12,-174.75 750.62,-174.75 750.62,-154 912.12,-154 912.12,-174.75"/>
<text text-anchor="middle" x="831.38" y="-161.25" font-family="Helvetica,sans-Serif" font-size="10.00">QtGraphNode::getColumnSize</text>
</a>
</g>
</g>
<!-- Node10&#45;&gt;Node14 -->
<g id="edge17_Node000010_Node000014" class="edge">
<title>Node10&#45;&gt;Node14</title>
<g id="a_edge17_Node000010_Node000014"><a xlink:title=" ">
<path fill="none" stroke="#63b8ff" d="M640.53,-340.69C659.41,-327.74 690.12,-304.28 709,-277.38 734.46,-241.09 711.56,-213.46 745,-184.38 746.46,-183.1 747.99,-181.91 749.57,-180.79"/>
<polygon fill="#63b8ff" stroke="#63b8ff" points="751.03,-183.99 757.86,-175.9 747.47,-177.96 751.03,-183.99"/>
</a>
</g>
</g>
<!-- Node15 -->
<g id="Node000015" class="node">
<title>Node15</title>
<g id="a_Node000015"><a xlink:href="classToken.html#ad53aa6ea860f60ad982f8cd9a7215591" target="_top" xlink:title=" ">
<polygon fill="white" stroke="#666666" points="1097.25,-125.75 975.5,-125.75 975.5,-105 1097.25,-105 1097.25,-125.75"/>
<text text-anchor="middle" x="1036.38" y="-112.25" font-family="Helvetica,sans-Serif" font-size="10.00">Token::getComponent</text>
</a>
</g>
</g>
<!-- Node10&#45;&gt;Node15 -->
<g id="edge18_Node000010_Node000015" class="edge">
<title>Node10&#45;&gt;Node15</title>
<g id="a_edge18_Node000010_Node000015"><a xlink:title=" ">
<path fill="none" stroke="#63b8ff" d="M642.39,-340.52C662.07,-327.91 692.65,-305.21 709,-277.38 748.33,-210.4 684.69,-155.31 745,-106.38 818,-47.14 938.64,-78.94 998.84,-100.61"/>
<polygon fill="#63b8ff" stroke="#63b8ff" points="997.34,-103.78 1007.94,-103.98 999.78,-97.22 997.34,-103.78"/>
</a>
</g>
</g>
<!-- Node16 -->
<g id="Node000016" class="node">
<title>Node16</title>
<g id="a_Node000016"><a xlink:href="classQtGraphEdge.html#a0f6d3385440bbb07fcc495e071e8ab2f" target="_top" xlink:title=" ">
<polygon fill="white" stroke="#666666" points="894.12,-20.75 768.62,-20.75 768.62,0 894.12,0 894.12,-20.75"/>
<text text-anchor="middle" x="831.38" y="-7.25" font-family="Helvetica,sans-Serif" font-size="10.00">QtGraphEdge::getData</text>
</a>
</g>
</g>
<!-- Node10&#45;&gt;Node16 -->
<g id="edge19_Node000010_Node000016" class="edge">
<title>Node10&#45;&gt;Node16</title>
<g id="a_edge19_Node000010_Node000016"><a xlink:title=" ">
<path fill="none" stroke="#63b8ff" d="M642.72,-340.71C662.69,-328.26 693.53,-305.71 709,-277.38 762.15,-180 669.97,-112.1 745,-30.38 748.73,-26.31 753.11,-23 757.89,-20.31"/>
<polygon fill="#63b8ff" stroke="#63b8ff" points="759.15,-23.58 766.79,-16.23 756.24,-17.21 759.15,-23.58"/>
</a>
</g>
</g>
<!-- Node17 -->
<g id="Node000017" class="node">
<title>Node17</title>
<g id="a_Node000017"><a xlink:href="classQtGraphNode.html#a9f7901d87045b87e40c3b0f282997867" target="_top" xlink:title=" ">
<polygon fill="white" stroke="#666666" points="902.75,-59.75 760,-59.75 760,-39 902.75,-39 902.75,-59.75"/>
<text text-anchor="middle" x="831.38" y="-46.25" font-family="Helvetica,sans-Serif" font-size="10.00">QtGraphNode::getIsActive</text>
</a>
</g>
</g>
<!-- Node10&#45;&gt;Node17 -->
<g id="edge20_Node000010_Node000017" class="edge">
<title>Node10&#45;&gt;Node17</title>
<g id="a_edge20_Node000010_Node000017"><a xlink:title=" ">
<path fill="none" stroke="#63b8ff" d="M642.56,-340.62C662.39,-328.1 693.11,-305.48 709,-277.38 754.31,-197.23 683.21,-141.63 745,-73.38 747.53,-70.58 750.36,-68.1 753.41,-65.9"/>
<polygon fill="#63b8ff" stroke="#63b8ff" points="755.02,-69.01 761.82,-60.88 751.44,-63 755.02,-69.01"/>
</a>
</g>
</g>
<!-- Node18 -->
<g id="Node000018" class="node">
<title>Node18</title>
<g id="a_Node000018"><a xlink:href="classQtGraphNode.html#ae7188812026e1fd6e4e67276927d2b9b" target="_top" xlink:title=" ">
<polygon fill="white" stroke="#666666" points="917.75,-679.12 745,-679.12 745,-645.62 917.75,-645.62 917.75,-679.12"/>
<text text-anchor="start" x="753" y="-665.62" font-family="Helvetica,sans-Serif" font-size="10.00">QtGraphNode::getLastNonGroup</text>
<text text-anchor="middle" x="831.38" y="-652.88" font-family="Helvetica,sans-Serif" font-size="10.00">Parent</text>
</a>
</g>
</g>
<!-- Node10&#45;&gt;Node18 -->
<g id="edge21_Node000010_Node000018" class="edge">
<title>Node10&#45;&gt;Node18</title>
<g id="a_edge21_Node000010_Node000018"><a xlink:title=" ">
<path fill="none" stroke="#63b8ff" d="M625.56,-362.25C632.05,-403.48 660.59,-551.85 745,-631.38 748.2,-634.39 751.72,-637.12 755.44,-639.58"/>
<polygon fill="#63b8ff" stroke="#63b8ff" points="753.36,-642.42 763.77,-644.42 756.88,-636.37 753.36,-642.42"/>
</a>
</g>
</g>
<!-- Node19 -->
<g id="Node000019" class="node">
<title>Node19</title>
<g id="a_Node000019"><a xlink:href="classQtGraphNode.html#a6d5e8a87cf5537fbe492bc93e0bda49f" target="_top" xlink:title=" ">
<polygon fill="white" stroke="#666666" points="1114.12,-675.75 958.62,-675.75 958.62,-655 1114.12,-655 1114.12,-675.75"/>
<text text-anchor="middle" x="1036.38" y="-662.25" font-family="Helvetica,sans-Serif" font-size="10.00">QtGraphNode::getLastParent</text>
</a>
</g>
</g>
<!-- Node10&#45;&gt;Node19 -->
<g id="edge24_Node000010_Node000019" class="edge">
<title>Node10&#45;&gt;Node19</title>
<g id="a_edge24_Node000010_Node000019"><a xlink:title=" ">
<path fill="none" stroke="#63b8ff" d="M625.85,-362.1C633.09,-400.78 663.33,-534.21 745,-598.38 806.82,-646.94 841.22,-618.4 917.75,-636.38 933.81,-640.15 937.74,-641.41 953.75,-645.38 962.21,-647.47 971.18,-649.68 979.94,-651.83"/>
<polygon fill="#63b8ff" stroke="#63b8ff" points="978.87,-655.17 989.41,-654.15 980.54,-648.37 978.87,-655.17"/>
</a>
</g>
</g>
<!-- Node20 -->
<g id="Node000020" class="node">
<title>Node20</title>
<g id="a_Node000020"><a xlink:href="classQtGraphNode.html#a9bbea603843a4bd7827c64d1da41817a" target="_top" xlink:title=" ">
<polygon fill="white" stroke="#666666" points="1309.75,-696.75 1158.75,-696.75 1158.75,-676 1309.75,-676 1309.75,-696.75"/>
<text text-anchor="middle" x="1234.25" y="-683.25" font-family="Helvetica,sans-Serif" font-size="10.00">QtGraphNode::isGroupNode</text>
</a>
</g>
</g>
<!-- Node10&#45;&gt;Node20 -->
<g id="edge40_Node000010_Node000020" class="edge">
<title>Node10&#45;&gt;Node20</title>
<g id="a_edge40_Node000010_Node000020"><a xlink:title=" ">
<path fill="none" stroke="#63b8ff" d="M623.86,-362.1C623.89,-410.33 631.11,-608.26 745,-688.38 807.61,-732.42 1024.9,-713.32 1147.45,-698.25"/>
<polygon fill="#63b8ff" stroke="#63b8ff" points="1147.65,-701.75 1157.14,-697.04 1146.79,-694.81 1147.65,-701.75"/>
</a>
</g>
</g>
<!-- Node21 -->
<g id="Node000021" class="node">
<title>Node21</title>
<g id="a_Node000021"><a xlink:href="classGraphViewStyle.html#a6b74a5696869c3e926d480a7286d34b5" target="_top" xlink:title=" ">
<polygon fill="white" stroke="#666666" points="901.62,-589.12 761.12,-589.12 761.12,-555.62 901.62,-555.62 901.62,-589.12"/>
<text text-anchor="start" x="769.12" y="-575.62" font-family="Helvetica,sans-Serif" font-size="10.00">GraphViewStyle::getStyle</text>
<text text-anchor="middle" x="831.38" y="-562.88" font-family="Helvetica,sans-Serif" font-size="10.00">ForEdgeType</text>
</a>
</g>
</g>
<!-- Node10&#45;&gt;Node21 -->
<g id="edge25_Node000010_Node000021" class="edge">
<title>Node10&#45;&gt;Node21</title>
<g id="a_edge25_Node000010_Node000021"><a xlink:title=" ">
<path fill="none" stroke="#63b8ff" d="M627.56,-362.11C639,-394.95 678.04,-494.89 745,-546.38 746.95,-547.87 748.98,-549.28 751.08,-550.61"/>
<polygon fill="#63b8ff" stroke="#63b8ff" points="748.9,-553.41 759.34,-555.21 752.3,-547.29 748.9,-553.41"/>
</a>
</g>
</g>
<!-- Node29 -->
<g id="Node000029" class="node">
<title>Node29</title>
<g id="a_Node000029"><a xlink:href="classEdge.html#a418b71a5deda9c6ab6a69414af03bc25" target="_top" xlink:title=" ">
<polygon fill="white" stroke="#666666" points="873.5,-537.75 789.25,-537.75 789.25,-517 873.5,-517 873.5,-537.75"/>
<text text-anchor="middle" x="831.38" y="-524.25" font-family="Helvetica,sans-Serif" font-size="10.00">Edge::getType</text>
</a>
</g>
</g>
<!-- Node10&#45;&gt;Node29 -->
<g id="edge36_Node000010_Node000029" class="edge">
<title>Node10&#45;&gt;Node29</title>
<g id="a_edge36_Node000010_Node000029"><a xlink:title=" ">
<path fill="none" stroke="#63b8ff" d="M629.04,-362.12C643.03,-390.71 685.29,-469.05 745,-507.38 754.9,-513.73 766.61,-518.07 778.13,-521.04"/>
<polygon fill="#63b8ff" stroke="#63b8ff" points="777.05,-524.38 787.57,-523.15 778.57,-517.55 777.05,-524.38"/>
</a>
</g>
</g>
<!-- Node30 -->
<g id="Node000030" class="node">
<title>Node30</title>
<g id="a_Node000030"><a xlink:href="classQtGraphNode.html#ad6f5220428940bb17cda708a1a999a38" target="_top" xlink:title=" ">
<polygon fill="white" stroke="#666666" points="911.75,-498.75 751,-498.75 751,-478 911.75,-478 911.75,-498.75"/>
<text text-anchor="middle" x="831.38" y="-485.25" font-family="Helvetica,sans-Serif" font-size="10.00">QtGraphNode::hasActiveChild</text>
</a>
</g>
</g>
<!-- Node10&#45;&gt;Node30 -->
<g id="edge37_Node000010_Node000030" class="edge">
<title>Node10&#45;&gt;Node30</title>
<g id="a_edge37_Node000010_Node000030"><a xlink:title=" ">
<path fill="none" stroke="#63b8ff" d="M631.73,-362.05C649.15,-385.28 693.95,-440.53 745,-468.38 748.62,-470.35 752.43,-472.13 756.35,-473.74"/>
<polygon fill="#63b8ff" stroke="#63b8ff" points="754.91,-476.94 765.51,-477.07 757.31,-470.36 754.91,-476.94"/>
</a>
</g>
</g>
<!-- Node31 -->
<g id="Node000031" class="node">
<title>Node31</title>
<g id="a_Node000031"><a xlink:href="classQtGraphEdge.html#a125ea4296a8f2dc3908607560b03e315" target="_top" xlink:title=" ">
<polygon fill="white" stroke="#666666" points="906.12,-135.75 756.62,-135.75 756.62,-115 906.12,-115 906.12,-135.75"/>
<text text-anchor="middle" x="831.38" y="-122.25" font-family="Helvetica,sans-Serif" font-size="10.00">QtGraphEdge::isAmbiguous</text>
</a>
</g>
</g>
<!-- Node10&#45;&gt;Node31 -->
<g id="edge38_Node000010_Node000031" class="edge">
<title>Node10&#45;&gt;Node31</title>
<g id="a_edge38_Node000010_Node000031"><a xlink:title=" ">
<path fill="none" stroke="#63b8ff" d="M641.73,-340.57C661.12,-327.83 691.74,-304.89 709,-277.38 741.32,-225.87 701.23,-187.59 745,-145.38 746.08,-144.33 747.2,-143.34 748.36,-142.4"/>
<polygon fill="#63b8ff" stroke="#63b8ff" points="750.25,-145.35 756.66,-136.92 746.39,-139.51 750.25,-145.35"/>
</a>
</g>
</g>
<!-- Node32 -->
<g id="Node000032" class="node">
<title>Node32</title>
<g id="a_Node000032"><a xlink:href="classQtLineItemBase.html#aa831656f7f86451d2041f3faaa054ca7" target="_top" xlink:title=" ">
<polygon fill="white" stroke="#666666" points="913.62,-459.75 749.12,-459.75 749.12,-439 913.62,-439 913.62,-459.75"/>
<text text-anchor="middle" x="831.38" y="-446.25" font-family="Helvetica,sans-Serif" font-size="10.00">QtLineItemBase::setEarlyBend</text>
</a>
</g>
</g>
<!-- Node10&#45;&gt;Node32 -->
<g id="edge41_Node000010_Node000032" class="edge">
<title>Node10&#45;&gt;Node32</title>
<g id="a_edge41_Node000010_Node000032"><a xlink:title=" ">
<path fill="none" stroke="#63b8ff" d="M637.28,-362.15C658.68,-378.97 702.67,-411.41 745,-429.38 750.21,-431.59 755.71,-433.58 761.3,-435.36"/>
<polygon fill="#63b8ff" stroke="#63b8ff" points="760.08,-438.65 770.66,-438.13 762.06,-431.94 760.08,-438.65"/>
</a>
</g>
</g>
<!-- Node33 -->
<g id="Node000033" class="node">
<title>Node33</title>
<g id="a_Node000033"><a xlink:href="classQtLineItemBase.html#a1cfd1eb28e29734d1d6771b3649d2bc1" target="_top" xlink:title=" ">
<polygon fill="white" stroke="#666666" points="907.62,-420.75 755.12,-420.75 755.12,-400 907.62,-400 907.62,-420.75"/>
<text text-anchor="middle" x="831.38" y="-407.25" font-family="Helvetica,sans-Serif" font-size="10.00">QtLineItemBase::setOnBack</text>
</a>
</g>
</g>
<!-- Node10&#45;&gt;Node33 -->
<g id="edge42_Node000010_Node000033" class="edge">
<title>Node10&#45;&gt;Node33</title>
<g id="a_edge42_Node000010_Node000033"><a xlink:title=" ">
<path fill="none" stroke="#63b8ff" d="M655.13,-362.18C679.44,-370.44 714.16,-381.81 745,-390.38 753.06,-392.61 761.59,-394.81 770.02,-396.88"/>
<polygon fill="#63b8ff" stroke="#63b8ff" points="768.98,-400.23 779.52,-399.17 770.62,-393.43 768.98,-400.23"/>
</a>
</g>
</g>
<!-- Node34 -->
<g id="Node000034" class="node">
<title>Node34</title>
<g id="a_Node000034"><a xlink:href="classQtLineItemBase.html#ae2d610f472d2ba94916a495e47775823" target="_top" xlink:title=" ">
<polygon fill="white" stroke="#666666" points="908,-381.75 754.75,-381.75 754.75,-361 908,-361 908,-381.75"/>
<text text-anchor="middle" x="831.38" y="-368.25" font-family="Helvetica,sans-Serif" font-size="10.00">QtLineItemBase::setOnFront</text>
</a>
</g>
</g>
<!-- Node10&#45;&gt;Node34 -->
<g id="edge43_Node000010_Node000034" class="edge">
<title>Node10&#45;&gt;Node34</title>
<g id="a_edge43_Node000010_Node000034"><a xlink:title=" ">
<path fill="none" stroke="#63b8ff" d="M693.58,-358.12C709.46,-359.66 726.53,-361.31 743.04,-362.91"/>
<polygon fill="#63b8ff" stroke="#63b8ff" points="742.57,-366.38 752.86,-363.86 743.24,-359.41 742.57,-366.38"/>
</a>
</g>
</g>
<!-- Node35 -->
<g id="Node000035" class="node">
<title>Node35</title>
<g id="a_Node000035"><a xlink:href="classQtLineItemBase.html#a63e08f7aaa72cbb9c2c0bf64a1d0815e" target="_top" xlink:title=" ">
<polygon fill="white" stroke="#666666" points="903.12,-342.75 759.62,-342.75 759.62,-322 903.12,-322 903.12,-342.75"/>
<text text-anchor="middle" x="831.38" y="-329.25" font-family="Helvetica,sans-Serif" font-size="10.00">QtLineItemBase::setRoute</text>
</a>
</g>
</g>
<!-- Node10&#45;&gt;Node35 -->
<g id="edge44_Node000010_Node000035" class="edge">
<title>Node10&#45;&gt;Node35</title>
<g id="a_edge44_Node000010_Node000035"><a xlink:title=" ">
<path fill="none" stroke="#63b8ff" d="M693.58,-344.97C711.04,-343.36 729.94,-341.62 747.95,-339.96"/>
<polygon fill="#63b8ff" stroke="#63b8ff" points="748.19,-343.46 757.83,-339.05 747.55,-336.49 748.19,-343.46"/>
</a>
</g>
</g>
<!-- Node36 -->
<g id="Node000036" class="node">
<title>Node36</title>
<g id="a_Node000036"><a xlink:href="classQtLineItemStraight.html#af86971bea68b25711de0da166e6a8762" target="_top" xlink:title=" ">
<polygon fill="white" stroke="#666666" points="885.5,-304.12 777.25,-304.12 777.25,-270.62 885.5,-270.62 885.5,-304.12"/>
<text text-anchor="start" x="785.25" y="-290.62" font-family="Helvetica,sans-Serif" font-size="10.00">QtLineItemStraight</text>
<text text-anchor="middle" x="831.38" y="-277.88" font-family="Helvetica,sans-Serif" font-size="10.00">::updateLine</text>
</a>
</g>
</g>
<!-- Node10&#45;&gt;Node36 -->
<g id="edge45_Node000010_Node000036" class="edge">
<title>Node10&#45;&gt;Node36</title>
<g id="a_edge45_Node000010_Node000036"><a xlink:title=" ">
<path fill="none" stroke="#63b8ff" d="M658.14,-340.57C682.36,-332.92 715.66,-322.45 745,-313.38 751.88,-311.25 759.08,-309.03 766.25,-306.84"/>
<polygon fill="#63b8ff" stroke="#63b8ff" points="767.08,-310.24 775.62,-303.97 765.03,-303.55 767.08,-310.24"/>
</a>
</g>
</g>
<!-- Node37 -->
<g id="Node000037" class="node">
<title>Node37</title>
<g id="a_Node000037"><a xlink:href="classQtLineItemBase.html#a97a2095ca5bd537345c09ff2b1296598" target="_top" xlink:title=" ">
<polygon fill="white" stroke="#666666" points="908.38,-252.75 754.38,-252.75 754.38,-232 908.38,-232 908.38,-252.75"/>
<text text-anchor="middle" x="831.38" y="-239.25" font-family="Helvetica,sans-Serif" font-size="10.00">QtLineItemBase::updateLine</text>
</a>
</g>
</g>
<!-- Node10&#45;&gt;Node37 -->
<g id="edge46_Node000010_Node000037" class="edge">
<title>Node10&#45;&gt;Node37</title>
<g id="a_edge46_Node000010_Node000037"><a xlink:title=" ">
<path fill="none" stroke="#63b8ff" d="M634.96,-340.64C655.03,-321.63 699.77,-282.08 745,-261.38 748.74,-259.66 752.65,-258.1 756.64,-256.67"/>
<polygon fill="#63b8ff" stroke="#63b8ff" points="757.48,-260.08 765.92,-253.68 755.33,-253.42 757.48,-260.08"/>
</a>
</g>
</g>
<!-- Node12 -->
<g id="Node000012" class="node">
<title>Node12</title>
<g id="a_Node000012"><a xlink:href="classQtGraphNode.html#a7062333378814d720310aa702200c420" target="_top" xlink:title=" ">
<polygon fill="white" stroke="#666666" points="1107.75,-183.75 965,-183.75 965,-163 1107.75,-163 1107.75,-183.75"/>
<text text-anchor="middle" x="1036.38" y="-170.25" font-family="Helvetica,sans-Serif" font-size="10.00">QtGraphNode::getPosition</text>
</a>
</g>
</g>
<!-- Node11&#45;&gt;Node12 -->
<g id="edge15_Node000011_Node000012" class="edge">
<title>Node11&#45;&gt;Node12</title>
<g id="a_edge15_Node000011_Node000012"><a xlink:title=" ">
<path fill="none" stroke="#63b8ff" d="M905.95,-192.5C921.38,-190.22 937.74,-187.8 953.46,-185.48"/>
<polygon fill="#63b8ff" stroke="#63b8ff" points="953.88,-188.96 963.26,-184.03 952.86,-182.03 953.88,-188.96"/>
</a>
</g>
</g>
<!-- Node13 -->
<g id="Node000013" class="node">
<title>Node13</title>
<g id="a_Node000013"><a xlink:href="classQtGraphNode.html#a3be8fc2cf178da6982c69a162c7a2a54" target="_top" xlink:title=" ">
<polygon fill="white" stroke="#666666" points="1098.38,-222.75 974.38,-222.75 974.38,-202 1098.38,-202 1098.38,-222.75"/>
<text text-anchor="middle" x="1036.38" y="-209.25" font-family="Helvetica,sans-Serif" font-size="10.00">QtGraphNode::getSize</text>
</a>
</g>
</g>
<!-- Node11&#45;&gt;Node13 -->
<g id="edge16_Node000011_Node000013" class="edge">
<title>Node11&#45;&gt;Node13</title>
<g id="a_edge16_Node000011_Node000013"><a xlink:title=" ">
<path fill="none" stroke="#63b8ff" d="M917.29,-207.14C932.44,-207.81 948.1,-208.51 962.86,-209.16"/>
<polygon fill="#63b8ff" stroke="#63b8ff" points="962.3,-212.64 972.44,-209.58 962.61,-205.65 962.3,-212.64"/>
</a>
</g>
</g>
<!-- Node18&#45;&gt;Node19 -->
<g id="edge22_Node000018_Node000019" class="edge">
<title>Node18&#45;&gt;Node19</title>
<g id="a_edge22_Node000018_Node000019"><a xlink:title=" ">
<path fill="none" stroke="#63b8ff" d="M918.17,-663.64C927.63,-663.78 937.28,-663.93 946.78,-664.07"/>
<polygon fill="#63b8ff" stroke="#63b8ff" points="946.7,-667.56 956.75,-664.21 946.8,-660.57 946.7,-667.56"/>
</a>
</g>
</g>
<!-- Node19&#45;&gt;Node20 -->
<g id="edge23_Node000019_Node000020" class="edge">
<title>Node19&#45;&gt;Node20</title>
<g id="a_edge23_Node000019_Node000020"><a xlink:title=" ">
<path fill="none" stroke="#63b8ff" d="M1114.51,-673.64C1125.24,-674.79 1136.31,-675.98 1147.19,-677.15"/>
<polygon fill="#63b8ff" stroke="#63b8ff" points="1146.61,-680.61 1156.92,-678.19 1147.35,-673.65 1146.61,-680.61"/>
</a>
</g>
</g>
<!-- Node22 -->
<g id="Node000022" class="node">
<title>Node22</title>
<g id="a_Node000022"><a xlink:href="namespaceutility.html#a4959dcb82d86854e88fa8757194a00ec" target="_top" xlink:title=" ">
<polygon fill="white" stroke="#666666" points="1094.62,-636.75 978.12,-636.75 978.12,-616 1094.62,-616 1094.62,-636.75"/>
<text text-anchor="middle" x="1036.38" y="-623.25" font-family="Helvetica,sans-Serif" font-size="10.00">utility::encodeToUtf8</text>
</a>
</g>
</g>
<!-- Node21&#45;&gt;Node22 -->
<g id="edge26_Node000021_Node000022" class="edge">
<title>Node21&#45;&gt;Node22</title>
<g id="a_edge26_Node000021_Node000022"><a xlink:title=" ">
<path fill="none" stroke="#63b8ff" d="M897.16,-589.61C925.19,-597.06 957.52,-605.67 983.87,-612.67"/>
<polygon fill="#63b8ff" stroke="#63b8ff" points="982.74,-615.99 993.3,-615.18 984.54,-609.23 982.74,-615.99"/>
</a>
</g>
</g>
<!-- Node23 -->
<g id="Node000023" class="node">
<title>Node23</title>
<g id="a_Node000023"><a xlink:href="classGraphViewStyle.html#ac979837a03cc145f9effc4b153e028a3" target="_top" xlink:title=" ">
<polygon fill="white" stroke="#666666" points="1119,-560.75 953.75,-560.75 953.75,-540 1119,-540 1119,-560.75"/>
<text text-anchor="middle" x="1036.38" y="-547.25" font-family="Helvetica,sans-Serif" font-size="10.00">GraphViewStyle::getEdgeColor</text>
</a>
</g>
</g>
<!-- Node21&#45;&gt;Node23 -->
<g id="edge27_Node000021_Node000023" class="edge">
<title>Node21&#45;&gt;Node23</title>
<g id="a_edge27_Node000021_Node000023"><a xlink:title=" ">
<path fill="none" stroke="#63b8ff" d="M901.95,-564.83C914.86,-563.44 928.54,-561.95 942.03,-560.49"/>
<polygon fill="#63b8ff" stroke="#63b8ff" points="942.22,-563.99 951.79,-559.43 941.47,-557.03 942.22,-563.99"/>
</a>
</g>
</g>
<!-- Node24 -->
<g id="Node000024" class="node">
<title>Node24</title>
<g id="a_Node000024"><a xlink:href="classColorScheme.html#ab65eb4d23939345b1569002b38ed3caf" target="_top" xlink:title=" ">
<polygon fill="white" stroke="#666666" points="1306,-560.75 1162.5,-560.75 1162.5,-540 1306,-540 1306,-560.75"/>
<text text-anchor="middle" x="1234.25" y="-547.25" font-family="Helvetica,sans-Serif" font-size="10.00">ColorScheme::getInstance</text>
</a>
</g>
</g>
<!-- Node21&#45;&gt;Node24 -->
<g id="edge31_Node000021_Node000024" class="edge">
<title>Node21&#45;&gt;Node24</title>
<g id="a_edge31_Node000021_Node000024"><a xlink:title=" ">
<path fill="none" stroke="#63b8ff" d="M902.02,-574.64C960.16,-575.82 1045.14,-575.86 1119,-569.38 1134.72,-567.99 1151.53,-565.68 1167.29,-563.12"/>
<polygon fill="#63b8ff" stroke="#63b8ff" points="1167.78,-566.59 1177.06,-561.48 1166.62,-559.69 1167.78,-566.59"/>
</a>
</g>
</g>
<!-- Node25 -->
<g id="Node000025" class="node">
<title>Node25</title>
<g id="a_Node000025"><a xlink:href="classGraphViewStyle.html#ae16dec6bf606239cd8cad1cce87aac6c" target="_top" xlink:title=" ">
<polygon fill="white" stroke="#666666" points="1108.12,-522.12 964.62,-522.12 964.62,-488.62 1108.12,-488.62 1108.12,-522.12"/>
<text text-anchor="start" x="972.62" y="-508.62" font-family="Helvetica,sans-Serif" font-size="10.00">GraphViewStyle::getFocus</text>
<text text-anchor="middle" x="1036.38" y="-495.88" font-family="Helvetica,sans-Serif" font-size="10.00">Color</text>
</a>
</g>
</g>
<!-- Node21&#45;&gt;Node25 -->
<g id="edge29_Node000021_Node000025" class="edge">
<title>Node21&#45;&gt;Node25</title>
<g id="a_edge29_Node000021_Node000025"><a xlink:title=" ">
<path fill="none" stroke="#63b8ff" d="M891.41,-555.23C900.29,-552.41 909.29,-549.42 917.75,-546.38 934.06,-540.51 937.48,-537.34 953.75,-531.38 958.64,-529.58 963.72,-527.79 968.85,-526.04"/>
<polygon fill="#63b8ff" stroke="#63b8ff" points="969.59,-529.48 977.96,-522.98 967.36,-522.84 969.59,-529.48"/>
</a>
</g>
</g>
<!-- Node26 -->
<g id="Node000026" class="node">
<title>Node26</title>
<g id="a_Node000026"><a xlink:href="classEdge.html#a20a2ae2bd3f75b8eecccbe499aac5723" target="_top" xlink:title=" ">
<polygon fill="white" stroke="#666666" points="1109.25,-470.12 963.5,-470.12 963.5,-436.62 1109.25,-436.62 1109.25,-470.12"/>
<text text-anchor="start" x="971.5" y="-456.62" font-family="Helvetica,sans-Serif" font-size="10.00">Edge::getUnderscoredType</text>
<text text-anchor="middle" x="1036.38" y="-443.88" font-family="Helvetica,sans-Serif" font-size="10.00">String</text>
</a>
</g>
</g>
<!-- Node21&#45;&gt;Node26 -->
<g id="edge32_Node000021_Node000026" class="edge">
<title>Node21&#45;&gt;Node26</title>
<g id="a_edge32_Node000021_Node000026"><a xlink:title=" ">
<path fill="none" stroke="#63b8ff" d="M901.91,-556.47C907.58,-553.64 912.96,-550.3 917.75,-546.38 943.89,-524.94 927.74,-500.97 953.75,-479.38 954.88,-478.44 956.04,-477.54 957.23,-476.67"/>
<polygon fill="#63b8ff" stroke="#63b8ff" points="958.98,-479.7 965.58,-471.42 955.25,-473.78 958.98,-479.7"/>
</a>
</g>
</g>
<!-- Node23&#45;&gt;Node24 -->
<g id="edge28_Node000023_Node000024" class="edge">
<title>Node23&#45;&gt;Node24</title>
<g id="a_edge28_Node000023_Node000024"><a xlink:title=" ">
<path fill="none" stroke="#63b8ff" d="M1119.31,-550.38C1129.78,-550.38 1140.5,-550.38 1150.98,-550.38"/>
<polygon fill="#63b8ff" stroke="#63b8ff" points="1150.71,-553.88 1160.71,-550.38 1150.71,-546.88 1150.71,-553.88"/>
</a>
</g>
</g>
<!-- Node25&#45;&gt;Node24 -->
<g id="edge30_Node000025_Node000024" class="edge">
<title>Node25&#45;&gt;Node24</title>
<g id="a_edge30_Node000025_Node000024"><a xlink:title=" ">
<path fill="none" stroke="#63b8ff" d="M1108.37,-521.68C1130.27,-526.72 1154.12,-532.2 1175.06,-537.01"/>
<polygon fill="#63b8ff" stroke="#63b8ff" points="1174.03,-540.36 1184.56,-539.19 1175.59,-533.54 1174.03,-540.36"/>
</a>
</g>
</g>
<!-- Node27 -->
<g id="Node000027" class="node">
<title>Node27</title>
<g id="a_Node000027"><a xlink:href="classEdge.html#af8501511c0d49c7d339135b06f5ba78f" target="_top" xlink:title=" ">
<polygon fill="white" stroke="#666666" points="1313.5,-482.75 1155,-482.75 1155,-462 1313.5,-462 1313.5,-482.75"/>
<text text-anchor="middle" x="1234.25" y="-469.25" font-family="Helvetica,sans-Serif" font-size="10.00">Edge::getReadableTypeString</text>
</a>
</g>
</g>
<!-- Node26&#45;&gt;Node27 -->
<g id="edge33_Node000026_Node000027" class="edge">
<title>Node26&#45;&gt;Node27</title>
<g id="a_edge33_Node000026_Node000027"><a xlink:title=" ">
<path fill="none" stroke="#63b8ff" d="M1109.48,-460.37C1120.52,-461.44 1132.04,-462.56 1143.41,-463.66"/>
<polygon fill="#63b8ff" stroke="#63b8ff" points="1142.91,-467.13 1153.2,-464.61 1143.59,-460.16 1142.91,-467.13"/>
</a>
</g>
</g>
<!-- Node28 -->
<g id="Node000028" class="node">
<title>Node28</title>
<g id="a_Node000028"><a xlink:href="namespaceutility.html#a239deb522abcf6865fc4409d6fff2914" target="_top" xlink:title=" ">
<polygon fill="white" stroke="#666666" points="1277.12,-443.75 1191.38,-443.75 1191.38,-423 1277.12,-423 1277.12,-443.75"/>
<text text-anchor="middle" x="1234.25" y="-430.25" font-family="Helvetica,sans-Serif" font-size="10.00">utility::replace</text>
</a>
</g>
</g>
<!-- Node26&#45;&gt;Node28 -->
<g id="edge35_Node000026_Node000028" class="edge">
<title>Node26&#45;&gt;Node28</title>
<g id="a_edge35_Node000026_Node000028"><a xlink:title=" ">
<path fill="none" stroke="#63b8ff" d="M1109.48,-446.01C1132.69,-443.64 1157.98,-441.06 1179.62,-438.85"/>
<polygon fill="#63b8ff" stroke="#63b8ff" points="1179.8,-442.35 1189.39,-437.85 1179.09,-435.39 1179.8,-442.35"/>
</a>
</g>
</g>
<!-- Node27&#45;&gt;Node27 -->
<g id="edge34_Node000027_Node000027" class="edge">
<title>Node27&#45;&gt;Node27</title>
<g id="a_edge34_Node000027_Node000027"><a xlink:title=" ">
<path fill="none" stroke="#63b8ff" d="M1202.37,-483.15C1189.61,-491.81 1200.24,-500.75 1234.25,-500.75 1252.85,-500.75 1264.46,-498.08 1269.07,-494.24"/>
<polygon fill="#63b8ff" stroke="#63b8ff" points="1272.46,-493.38 1266.52,-484.61 1265.7,-495.17 1272.46,-493.38"/>
</a>
</g>
</g>
<!-- Node31&#45;&gt;Node15 -->
<g id="edge39_Node000031_Node000015" class="edge">
<title>Node31&#45;&gt;Node15</title>
<g id="a_edge39_Node000031_Node000015"><a xlink:title=" ">
<path fill="none" stroke="#63b8ff" d="M906.52,-121.72C925.19,-120.8 945.19,-119.82 963.73,-118.9"/>
<polygon fill="#63b8ff" stroke="#63b8ff" points="963.73,-122.41 973.55,-118.42 963.39,-115.42 963.73,-122.41"/>
</a>
</g>
</g>
<!-- Node39 -->
<g id="Node000039" class="node">
<title>Node39</title>
<g id="a_Node000039"><a xlink:href="classMessageQueue.html#a085ebbc4ba9c58eeeaad64e77efc8e07" target="_top" xlink:title=" ">
<polygon fill="white" stroke="#666666" points="501,-235.75 347,-235.75 347,-215 501,-215 501,-235.75"/>
<text text-anchor="middle" x="424" y="-222.25" font-family="Helvetica,sans-Serif" font-size="10.00">MessageQueue::getInstance</text>
</a>
</g>
</g>
<!-- Node38&#45;&gt;Node39 -->
<g id="edge48_Node000038_Node000039" class="edge">
<title>Node38&#45;&gt;Node39</title>
<g id="a_edge48_Node000038_Node000039"><a xlink:title=" ">
<path fill="none" stroke="#63b8ff" d="M285.76,-244.17C301.25,-242.05 318.62,-239.67 335.66,-237.33"/>
<polygon fill="#63b8ff" stroke="#63b8ff" points="335.86,-240.84 345.29,-236.02 334.91,-233.9 335.86,-240.84"/>
</a>
</g>
</g>
<!-- Node40 -->
<g id="Node000040" class="node">
<title>Node40</title>
<g id="a_Node000040"><a xlink:href="classMessageQueue.html#a006069f4b83d2372c989c52784fac5de" target="_top" xlink:title=" ">
<polygon fill="white" stroke="#666666" points="709,-235.75 537,-235.75 537,-215 709,-215 709,-235.75"/>
<text text-anchor="middle" x="623" y="-222.25" font-family="Helvetica,sans-Serif" font-size="10.00">MessageQueue::MessageQueue</text>
</a>
</g>
</g>
<!-- Node39&#45;&gt;Node40 -->
<g id="edge49_Node000039_Node000040" class="edge">
<title>Node39&#45;&gt;Node40</title>
<g id="a_edge49_Node000039_Node000040"><a xlink:title=" ">
<path fill="none" stroke="#63b8ff" d="M501.45,-225.38C509.31,-225.38 517.38,-225.38 525.42,-225.38"/>
<polygon fill="#63b8ff" stroke="#63b8ff" points="525.25,-228.88 535.25,-225.38 525.25,-221.88 525.25,-228.88"/>
</a>
</g>
</g>
<!-- Node42&#45;&gt;Node16 -->
<g id="edge52_Node000042_Node000016" class="edge">
<title>Node42&#45;&gt;Node16</title>
<g id="a_edge52_Node000042_Node000016"><a xlink:title=" ">
<path fill="none" stroke="#63b8ff" d="M302.05,-284.79C432.15,-274.12 701.64,-251.24 709,-244.38 779.55,-178.62 679,-100.7 745,-30.38 748.77,-26.35 753.19,-23.07 757.99,-20.4"/>
<polygon fill="#63b8ff" stroke="#63b8ff" points="759.25,-23.67 766.92,-16.35 756.36,-17.29 759.25,-23.67"/>
</a>
</g>
</g>
<!-- Node43 -->
<g id="Node000043" class="node">
<title>Node43</title>
<g id="a_Node000043"><a xlink:href="classToken.html#a7327713d89dab24b733a7ff9096deea0" target="_top" xlink:title=" ">
<polygon fill="white" stroke="#666666" points="461.25,-311.75 386.75,-311.75 386.75,-291 461.25,-291 461.25,-311.75"/>
<text text-anchor="middle" x="424" y="-298.25" font-family="Helvetica,sans-Serif" font-size="10.00">Token::getId</text>
</a>
</g>
</g>
<!-- Node42&#45;&gt;Node43 -->
<g id="edge53_Node000042_Node000043" class="edge">
<title>Node42&#45;&gt;Node43</title>
<g id="a_edge53_Node000042_Node000043"><a xlink:title=" ">
<path fill="none" stroke="#63b8ff" d="M301.94,-294.36C326.14,-295.76 352.8,-297.31 374.92,-298.59"/>
<polygon fill="#63b8ff" stroke="#63b8ff" points="374.67,-302.08 384.86,-299.17 375.08,-295.09 374.67,-302.08"/>
</a>
</g>
</g>
</g>
</svg>

<g id="navigator" transform="translate(0 0)" fill="#404254">
  <rect fill="#f2f5e9" fill-opacity="0.5" stroke="#606060" stroke-width=".5" x="0" y="0" width="60" height="60"/>
  <use id="zoomplus" xlink:href="#zoomPlus" x="17" y="9" onmousedown="handleZoom(evt,'in')"/>
  <use id="zoomminus" xlink:href="#zoomMin" x="42" y="9" onmousedown="handleZoom(evt,'out')"/>
  <use id="reset" xlink:href="#resetDef" x="30" y="36" onmousedown="handleReset()"/>
   <use id="arrowup" xlink:href="#arrowUp" x="0" y="0" onmousedown="handlePan(0,-1)"/>
  <use id="arrowright" xlink:href="#arrowRight" x="0" y="0" onmousedown="handlePan(1,0)"/>
  <use id="arrowdown" xlink:href="#arrowDown" x="0" y="0" onmousedown="handlePan(0,1)"/>
  <use id="arrowleft" xlink:href="#arrowLeft" x="0" y="0" onmousedown="handlePan(-1,0)"/>
</g>
<svg viewBox="0 0 15 15" width="100%" height="30px" preserveAspectRatio="xMaxYMin meet">
 <g id="arrow_out" transform="scale(0.3 0.3)">
  <a xlink:href="classGraphFocusHandler_a21becae068ca09cf53afec45b1c097eb_cgraph_org.svg" target="_base">
   <rect id="button" ry="5" rx="5" y="6" x="6" height="38" width="38"
        fill="#f2f5e9" fill-opacity="0.5" stroke="#606060" stroke-width="1.0"/>
   <path id="arrow"
     d="M 11.500037,31.436501 C 11.940474,20.09759 22.043105,11.32322 32.158766,21.979434 L 37.068811,17.246167 C 37.068811,17.246167 37.088388,32 37.088388,32 L 22.160133,31.978069 C 22.160133,31.978069 26.997745,27.140456 26.997745,27.140456 C 18.528582,18.264221 13.291696,25.230495 11.500037,31.436501 z"
     style="fill:#404040;"/>
  </a>
 </g>
</svg>

<style type='text/css'>
<![CDATA[
[data-mouse-over-selected='false'] { opacity: 0.7; }
[data-mouse-over-selected='true']  { opacity: 1.0; }
]]>
</style>
<script type="application/ecmascript"><![CDATA[
document.addEventListener('DOMContentLoaded', (event) => {
  highlightEdges();
  highlightAdjacentNodes();
});
]]></script>
</svg>
