<?xml version="1.0" encoding="UTF-8" standalone="no"?>
<!DOCTYPE svg PUBLIC "-//W3C//DTD SVG 1.1//EN"
 "http://www.w3.org/Graphics/SVG/1.1/DTD/svg11.dtd">
<!-- Generated by graphviz version 7.1.0 (0)
 -->
<!-- Title: PersistentStorage::PersistentStorage Pages: 1 -->
<!--zoomable 138 -->
<svg id="main" version="1.1" xmlns="http://www.w3.org/2000/svg" xmlns:xlink="http://www.w3.org/1999/xlink" xml:space="preserve" onload="init(evt)">
<style type="text/css"><![CDATA[
.edge:hover path { stroke: red; }
.edge:hover polygon { stroke: red; fill: red; }
]]></style>
<script type="text/javascript"><![CDATA[
var edges = document.getElementsByTagName('g');
if (edges && edges.length) {
  for (var i=0;i<edges.length;i++) {
    if (edges[i].id.substr(0,4)=='edge') {
      edges[i].setAttribute('class','edge');
    }
  }
}
]]></script>
        <defs>
                <circle id="rim" cx="0" cy="0" r="7"/>
                <circle id="rim2" cx="0" cy="0" r="3.5"/>
                <g id="zoomPlus">
                        <use xlink:href="#rim" fill="#404040">
                                <set attributeName="fill" to="#808080" begin="zoomplus.mouseover" end="zoomplus.mouseout"/>
                        </use>
                        <path d="M-4,0h8M0,-4v8" fill="none" stroke="white" stroke-width="1.5" pointer-events="none"/>
                </g>
                <g id="zoomMin">
                        <use xlink:href="#rim" fill="#404040">
                                <set attributeName="fill" to="#808080" begin="zoomminus.mouseover" end="zoomminus.mouseout"/>
                        </use>
                        <path d="M-4,0h8" fill="none" stroke="white" stroke-width="1.5" pointer-events="none"/>
                </g>
                <g id="dirArrow">
                        <path fill="none" stroke="white" stroke-width="1.5" d="M0,-3.0v7 M-2.5,-0.5L0,-3.0L2.5,-0.5"/>
                </g>
               <g id="resetDef">
                       <use xlink:href="#rim2" fill="#404040">
                               <set attributeName="fill" to="#808080" begin="reset.mouseover" end="reset.mouseout"/>
                       </use>
               </g>
        </defs>

<script type="text/javascript">
var viewWidth = 665;
var viewHeight = 138;
var sectionId = 'dynsection-2';
</script>
<script xlink:href="svgpan.js"/>
<svg id="graph" class="graph">
<g id="viewport">
<title>PersistentStorage::PersistentStorage</title>
<!-- Node1 -->
<g id="node1" class="node">
<title>Node1</title>
<g id="a_node1"><a xlink:title=" ">
<polygon fill="#999999" stroke="#666666" points="109,-79.5 0,-79.5 0,-49.5 109,-49.5 109,-79.5"/>
<text text-anchor="start" x="8" y="-67.5" font-family="Helvetica,sans-Serif" font-size="10.00">PersistentStorage::</text>
<text text-anchor="middle" x="54.5" y="-56.5" font-family="Helvetica,sans-Serif" font-size="10.00">PersistentStorage</text>
</a>
</g>
</g>
<!-- Node2 -->
<g id="node2" class="node">
<title>Node2</title>
<g id="a_node2"><a xlink:href="classSearchIndex.html#a45cbdde001bda52dadde9710284ca826" target="_top" xlink:title=" ">
<polygon fill="white" stroke="#666666" points="298.5,-130 172.5,-130 172.5,-111 298.5,-111 298.5,-130"/>
<text text-anchor="middle" x="235.5" y="-118" font-family="Helvetica,sans-Serif" font-size="10.00">SearchIndex::addNode</text>
</a>
</g>
</g>
<!-- Node1&#45;&gt;Node2 -->
<g id="edge1" class="edge">
<title>Node1&#45;&gt;Node2</title>
<path fill="none" stroke="#63b8ff" d="M87.22,-79.83C104.08,-87.5 125.33,-96.41 145,-102.5 151.56,-104.53 158.46,-106.39 165.4,-108.07"/>
<polygon fill="#63b8ff" stroke="#63b8ff" points="164.29,-111.41 174.82,-110.24 165.86,-104.59 164.29,-111.41"/>
</g>
<!-- Node4 -->
<g id="node4" class="node">
<title>Node4</title>
<g id="a_node4"><a xlink:href="classNodeTypeSet.html#ac310cbfe0cbbbc68c028a2ae31216284" target="_top" xlink:title=" ">
<polygon fill="white" stroke="#666666" points="284.5,-93 186.5,-93 186.5,-74 284.5,-74 284.5,-93"/>
<text text-anchor="middle" x="235.5" y="-81" font-family="Helvetica,sans-Serif" font-size="10.00">NodeTypeSet::all</text>
</a>
</g>
</g>
<!-- Node1&#45;&gt;Node4 -->
<g id="edge3" class="edge">
<title>Node1&#45;&gt;Node4</title>
<path fill="none" stroke="#63b8ff" d="M109.21,-70.2C129.89,-72.4 153.64,-74.92 174.85,-77.17"/>
<polygon fill="#63b8ff" stroke="#63b8ff" points="174.2,-80.62 184.51,-78.19 174.93,-73.66 174.2,-80.62"/>
</g>
<!-- Node5 -->
<g id="node5" class="node">
<title>Node5</title>
<g id="a_node5"><a xlink:href="classSearchIndex.html#a45f6f5bf7bc673924dc809f48adb4b6a" target="_top" xlink:title=" ">
<polygon fill="white" stroke="#666666" points="304,-56 167,-56 167,-37 304,-37 304,-56"/>
<text text-anchor="middle" x="235.5" y="-44" font-family="Helvetica,sans-Serif" font-size="10.00">SearchIndex::finishSetup</text>
</a>
</g>
</g>
<!-- Node1&#45;&gt;Node5 -->
<g id="edge4" class="edge">
<title>Node1&#45;&gt;Node5</title>
<path fill="none" stroke="#63b8ff" d="M109.21,-59.1C123.71,-57.64 139.71,-56.03 155.29,-54.47"/>
<polygon fill="#63b8ff" stroke="#63b8ff" points="155.43,-57.97 165.03,-53.49 154.73,-51 155.43,-57.97"/>
</g>
<!-- Node8 -->
<g id="node8" class="node">
<title>Node8</title>
<g id="a_node8"><a xlink:href="structSearchMatch.html#a2ba82380b2fdc39c3f9a178adae3209e" target="_top" xlink:title=" ">
<polygon fill="white" stroke="#666666" points="326,-19 145,-19 145,0 326,0 326,-19"/>
<text text-anchor="middle" x="235.5" y="-7" font-family="Helvetica,sans-Serif" font-size="10.00">SearchMatch::getCommandName</text>
</a>
</g>
</g>
<!-- Node1&#45;&gt;Node8 -->
<g id="edge8" class="edge">
<title>Node1&#45;&gt;Node8</title>
<path fill="none" stroke="#63b8ff" d="M89.85,-49.06C106.3,-42.09 126.42,-34.16 145,-28.5 152.73,-26.14 160.92,-23.97 169.09,-22.01"/>
<polygon fill="#63b8ff" stroke="#63b8ff" points="169.73,-25.45 178.69,-19.8 168.16,-18.63 169.73,-25.45"/>
</g>
<!-- Node3 -->
<g id="node3" class="node">
<title>Node3</title>
<g id="a_node3"><a xlink:href="classNodeTypeSet.html#a6ceb42dc2e6e37c8d26481d240e514db" target="_top" xlink:title=" ">
<polygon fill="white" stroke="#666666" points="500.5,-130 396.5,-130 396.5,-111 500.5,-111 500.5,-130"/>
<text text-anchor="middle" x="448.5" y="-118" font-family="Helvetica,sans-Serif" font-size="10.00">NodeTypeSet::add</text>
</a>
</g>
</g>
<!-- Node2&#45;&gt;Node3 -->
<g id="edge2" class="edge">
<title>Node2&#45;&gt;Node3</title>
<path fill="none" stroke="#63b8ff" d="M298.95,-120.5C326.06,-120.5 357.76,-120.5 384.89,-120.5"/>
<polygon fill="#63b8ff" stroke="#63b8ff" points="384.7,-124 394.7,-120.5 384.7,-117 384.7,-124"/>
</g>
<!-- Node6 -->
<g id="node6" class="node">
<title>Node6</title>
<g id="a_node6"><a xlink:href="classSearchIndex.html#a48547538506de60a3a11141e212d24d4" target="_top" xlink:title=" ">
<polygon fill="white" stroke="#666666" points="535,-56 362,-56 362,-37 535,-37 535,-56"/>
<text text-anchor="middle" x="448.5" y="-44" font-family="Helvetica,sans-Serif" font-size="10.00">SearchIndex::populateEdgeGate</text>
</a>
</g>
</g>
<!-- Node5&#45;&gt;Node6 -->
<g id="edge5" class="edge">
<title>Node5&#45;&gt;Node6</title>
<path fill="none" stroke="#63b8ff" d="M304.42,-46.5C319.06,-46.5 334.81,-46.5 350.32,-46.5"/>
<polygon fill="#63b8ff" stroke="#63b8ff" points="350.03,-50 360.03,-46.5 350.03,-43 350.03,-50"/>
</g>
<!-- Node6&#45;&gt;Node6 -->
<g id="edge7" class="edge">
<title>Node6&#45;&gt;Node6</title>
<path fill="none" stroke="#63b8ff" d="M422.59,-56.37C410.77,-64.94 419.41,-74 448.5,-74 464.86,-74 474.76,-71.13 478.18,-67.1"/>
<polygon fill="#63b8ff" stroke="#63b8ff" points="481.53,-66.07 474.91,-57.8 474.92,-68.39 481.53,-66.07"/>
</g>
<!-- Node7 -->
<g id="node7" class="node">
<title>Node7</title>
<g id="a_node7"><a xlink:href="namespaceutility.html#a20e313ed6af8386f5e95f86b77027904" target="_top" xlink:title=" ">
<polygon fill="white" stroke="#666666" points="657,-56 571,-56 571,-37 657,-37 657,-56"/>
<text text-anchor="middle" x="614" y="-44" font-family="Helvetica,sans-Serif" font-size="10.00">utility::append</text>
</a>
</g>
</g>
<!-- Node6&#45;&gt;Node7 -->
<g id="edge6" class="edge">
<title>Node6&#45;&gt;Node7</title>
<path fill="none" stroke="#63b8ff" d="M535.08,-46.5C543.29,-46.5 551.45,-46.5 559.22,-46.5"/>
<polygon fill="#63b8ff" stroke="#63b8ff" points="559.17,-50 569.17,-46.5 559.17,-43 559.17,-50"/>
</g>
</g>
</svg>
        <g id="navigator" transform="translate(0 0)" fill="#404254">
                <rect fill="#f2f5e9" fill-opacity="0.5" stroke="#606060" stroke-width=".5" x="0" y="0" width="60" height="60"/>
                <use id="zoomplus" xlink:href="#zoomPlus" x="17" y="9" onmousedown="handleZoom(evt,'in')"/>
                <use id="zoomminus" xlink:href="#zoomMin" x="42" y="9" onmousedown="handleZoom(evt,'out')"/>
                <use id="reset" xlink:href="#resetDef" x="30" y="36" onmousedown="handleReset()"/>
                <g id="arrowUp" xlink:href="#dirArrow" transform="translate(30 24)" onmousedown="handlePan(0,-1)">
                  <use xlink:href="#rim" fill="#404040">
                        <set attributeName="fill" to="#808080" begin="arrowUp.mouseover" end="arrowUp.mouseout"/>
                  </use>
                  <path fill="none" stroke="white" stroke-width="1.5" d="M0,-3.0v7 M-2.5,-0.5L0,-3.0L2.5,-0.5"/>
                </g>
                <g id="arrowRight" xlink:href="#dirArrow" transform="rotate(90) translate(36 -43)" onmousedown="handlePan(1,0)">
                  <use xlink:href="#rim" fill="#404040">
                        <set attributeName="fill" to="#808080" begin="arrowRight.mouseover" end="arrowRight.mouseout"/>
                  </use>
                  <path fill="none" stroke="white" stroke-width="1.5" d="M0,-3.0v7 M-2.5,-0.5L0,-3.0L2.5,-0.5"/>
                </g>
                <g id="arrowDown" xlink:href="#dirArrow" transform="rotate(180) translate(-30 -48)" onmousedown="handlePan(0,1)">
                  <use xlink:href="#rim" fill="#404040">
                        <set attributeName="fill" to="#808080" begin="arrowDown.mouseover" end="arrowDown.mouseout"/>
                  </use>
                  <path fill="none" stroke="white" stroke-width="1.5" d="M0,-3.0v7 M-2.5,-0.5L0,-3.0L2.5,-0.5"/>
                </g>
                <g id="arrowLeft" xlink:href="#dirArrow" transform="rotate(270) translate(-36 17)" onmousedown="handlePan(-1,0)">
                  <use xlink:href="#rim" fill="#404040">
                        <set attributeName="fill" to="#808080" begin="arrowLeft.mouseover" end="arrowLeft.mouseout"/>
                  </use>
                  <path fill="none" stroke="white" stroke-width="1.5" d="M0,-3.0v7 M-2.5,-0.5L0,-3.0L2.5,-0.5"/>
                </g>
        </g>
        <svg viewBox="0 0 15 15" width="100%" height="30px" preserveAspectRatio="xMaxYMin meet">
         <g id="arrow_out" transform="scale(0.3 0.3)">
          <a xlink:href="classPersistentStorage_a4199d28fa4f9a7d2d683161b728acd9c_cgraph_org.svg" target="_base">
           <rect id="button" ry="5" rx="5" y="6" x="6" height="38" width="38"
                fill="#f2f5e9" fill-opacity="0.5" stroke="#606060" stroke-width="1.0"/>
           <path id="arrow"
             d="M 11.500037,31.436501 C 11.940474,20.09759 22.043105,11.32322 32.158766,21.979434 L 37.068811,17.246167 C 37.068811,17.246167 37.088388,32 37.088388,32 L 22.160133,31.978069 C 22.160133,31.978069 26.997745,27.140456 26.997745,27.140456 C 18.528582,18.264221 13.291696,25.230495 11.500037,31.436501 z"
             style="fill:#404040;"/>
          </a>
         </g>
        </svg>
</svg>
