<?xml version="1.0" encoding="UTF-8" standalone="no"?>
<!DOCTYPE svg PUBLIC "-//W3C//DTD SVG 1.1//EN"
 "http://www.w3.org/Graphics/SVG/1.1/DTD/svg11.dtd">
<!-- Generated by graphviz version 7.1.0 (0)
 -->
<!-- Title: QtProgressBarDialog::updateMessage Pages: 1 -->
<svg width="1188pt" height="145pt"
 viewBox="0.00 0.00 1188.00 144.50" xmlns="http://www.w3.org/2000/svg" xmlns:xlink="http://www.w3.org/1999/xlink">
<g id="graph0" class="graph" transform="scale(1 1) rotate(0) translate(4 140.5)">
<title>QtProgressBarDialog::updateMessage</title>
<!-- Node1 -->
<g id="node1" class="node">
<title>Node1</title>
<g id="a_node1"><a xlink:title=" ">
<polygon fill="#999999" stroke="#666666" points="1180,-78 1062,-78 1062,-48 1180,-48 1180,-78"/>
<text text-anchor="start" x="1070" y="-66" font-family="Helvetica,sans-Serif" font-size="10.00">QtProgressBarDialog</text>
<text text-anchor="middle" x="1121" y="-55" font-family="Helvetica,sans-Serif" font-size="10.00">::updateMessage</text>
</a>
</g>
</g>
<!-- Node2 -->
<g id="node2" class="node">
<title>Node2</title>
<g id="a_node2"><a xlink:href="classQtDialogView.html#a5642105daab3e6191b6eb0b6f52a079b" target="_top" xlink:title=" ">
<polygon fill="white" stroke="#666666" points="1024,-126 867,-126 867,-96 1024,-96 1024,-126"/>
<text text-anchor="start" x="875" y="-114" font-family="Helvetica,sans-Serif" font-size="10.00">QtDialogView::showProgress</text>
<text text-anchor="middle" x="945.5" y="-103" font-family="Helvetica,sans-Serif" font-size="10.00">Dialog</text>
</a>
</g>
</g>
<!-- Node1&#45;&gt;Node2 -->
<g id="edge1" class="edge">
<title>Node1&#45;&gt;Node2</title>
<path fill="none" stroke="#63b8ff" d="M1053.26,-81.46C1036.41,-86.13 1018.49,-91.08 1002.25,-95.58"/>
<polygon fill="#63b8ff" stroke="#63b8ff" points="1053.99,-84.9 1062.69,-78.86 1052.12,-78.15 1053.99,-84.9"/>
</g>
<!-- Node3 -->
<g id="node3" class="node">
<title>Node3</title>
<g id="a_node3"><a xlink:href="classQtDialogView.html#a411f95387c8dcdab132d2065dd977742" target="_top" xlink:title=" ">
<polygon fill="white" stroke="#666666" points="1026,-78 865,-78 865,-48 1026,-48 1026,-78"/>
<text text-anchor="start" x="873" y="-66" font-family="Helvetica,sans-Serif" font-size="10.00">QtDialogView::showUnknown</text>
<text text-anchor="middle" x="945.5" y="-55" font-family="Helvetica,sans-Serif" font-size="10.00">Progress</text>
</a>
</g>
</g>
<!-- Node1&#45;&gt;Node3 -->
<g id="edge2" class="edge">
<title>Node1&#45;&gt;Node3</title>
<path fill="none" stroke="#63b8ff" d="M1050.4,-63C1042.53,-63 1034.48,-63 1026.49,-63"/>
<polygon fill="#63b8ff" stroke="#63b8ff" points="1050.23,-66.5 1060.23,-63 1050.23,-59.5 1050.23,-66.5"/>
</g>
<!-- Node9 -->
<g id="node9" class="node">
<title>Node9</title>
<g id="a_node9"><a xlink:href="classQtIndexingProgressDialog.html#a1048945868fded4edc1f564a3f0e60ec" target="_top" xlink:title=" ">
<polygon fill="white" stroke="#666666" points="1017,-30 874,-30 874,0 1017,0 1017,-30"/>
<text text-anchor="start" x="882" y="-18" font-family="Helvetica,sans-Serif" font-size="10.00">QtIndexingProgressDialog</text>
<text text-anchor="middle" x="945.5" y="-7" font-family="Helvetica,sans-Serif" font-size="10.00">::updateIndexingProgress</text>
</a>
</g>
</g>
<!-- Node1&#45;&gt;Node9 -->
<g id="edge9" class="edge">
<title>Node1&#45;&gt;Node9</title>
<path fill="none" stroke="#63b8ff" d="M1053.26,-44.54C1036.41,-39.87 1018.49,-34.92 1002.25,-30.42"/>
<polygon fill="#63b8ff" stroke="#63b8ff" points="1052.12,-47.85 1062.69,-47.14 1053.99,-41.1 1052.12,-47.85"/>
</g>
<!-- Node4 -->
<g id="node4" class="node">
<title>Node4</title>
<g id="a_node4"><a xlink:href="classQtDialogView.html#a7340145a8f5936d6e50448db8b7a42b6" target="_top" xlink:title=" ">
<polygon fill="white" stroke="#666666" points="827,-78 666,-78 666,-48 827,-48 827,-78"/>
<text text-anchor="start" x="674" y="-66" font-family="Helvetica,sans-Serif" font-size="10.00">QtDialogView::showUnknown</text>
<text text-anchor="middle" x="746.5" y="-55" font-family="Helvetica,sans-Serif" font-size="10.00">ProgressDialog</text>
</a>
</g>
</g>
<!-- Node3&#45;&gt;Node4 -->
<g id="edge3" class="edge">
<title>Node3&#45;&gt;Node4</title>
<path fill="none" stroke="#63b8ff" d="M853.36,-63C844.71,-63 835.99,-63 827.46,-63"/>
<polygon fill="#63b8ff" stroke="#63b8ff" points="853.14,-66.5 863.14,-63 853.14,-59.5 853.14,-66.5"/>
</g>
<!-- Node5 -->
<g id="node5" class="node">
<title>Node5</title>
<g id="a_node5"><a xlink:href="classQtProjectWizardContentPathsHeaderSearch.html#ae7d5e2c9480368581c9ad3c1f3f84fd7" target="_top" xlink:title=" ">
<polygon fill="white" stroke="#666666" points="628,-134.5 436,-134.5 436,-93.5 628,-93.5 628,-134.5"/>
<text text-anchor="start" x="444" y="-122.5" font-family="Helvetica,sans-Serif" font-size="10.00">QtProjectWizardContentPaths</text>
<text text-anchor="start" x="444" y="-111.5" font-family="Helvetica,sans-Serif" font-size="10.00">HeaderSearch::finishedSelectDetect</text>
<text text-anchor="middle" x="532" y="-100.5" font-family="Helvetica,sans-Serif" font-size="10.00">IncludesRootPathsDialog</text>
</a>
</g>
</g>
<!-- Node4&#45;&gt;Node5 -->
<g id="edge4" class="edge">
<title>Node4&#45;&gt;Node5</title>
<path fill="none" stroke="#63b8ff" d="M670.17,-81.08C654.02,-84.96 636.82,-89.08 620.25,-93.06"/>
<polygon fill="#63b8ff" stroke="#63b8ff" points="670.79,-84.53 679.69,-78.79 669.15,-77.72 670.79,-84.53"/>
</g>
<!-- Node8 -->
<g id="node8" class="node">
<title>Node8</title>
<g id="a_node8"><a xlink:href="classQtProjectWizardContentPathsHeaderSearch.html#a9a6847fdf99ce334edca578353009682" target="_top" xlink:title=" ">
<polygon fill="white" stroke="#666666" points="400,-77.5 197,-77.5 197,-36.5 400,-36.5 400,-77.5"/>
<text text-anchor="start" x="205" y="-65.5" font-family="Helvetica,sans-Serif" font-size="10.00">QtProjectWizardContentPaths</text>
<text text-anchor="start" x="205" y="-54.5" font-family="Helvetica,sans-Serif" font-size="10.00">HeaderSearch::validateIncludesButton</text>
<text text-anchor="middle" x="298.5" y="-43.5" font-family="Helvetica,sans-Serif" font-size="10.00">Clicked</text>
</a>
</g>
</g>
<!-- Node4&#45;&gt;Node8 -->
<g id="edge7" class="edge">
<title>Node4&#45;&gt;Node8</title>
<path fill="none" stroke="#63b8ff" d="M654.38,-61.77C580.57,-60.78 476.65,-59.38 400.34,-58.36"/>
<polygon fill="#63b8ff" stroke="#63b8ff" points="653.95,-65.27 663.99,-61.9 654.04,-58.27 653.95,-65.27"/>
</g>
<!-- Node6 -->
<g id="node6" class="node">
<title>Node6</title>
<g id="a_node6"><a xlink:href="classQtProjectWizardContentPathsHeaderSearch.html#a6d7d2c5f48d72bc3292282c0e043413e" target="_top" xlink:title=" ">
<polygon fill="white" stroke="#666666" points="395.5,-136.5 201.5,-136.5 201.5,-95.5 395.5,-95.5 395.5,-136.5"/>
<text text-anchor="start" x="209.5" y="-124.5" font-family="Helvetica,sans-Serif" font-size="10.00">QtProjectWizardContentPaths</text>
<text text-anchor="start" x="209.5" y="-113.5" font-family="Helvetica,sans-Serif" font-size="10.00">HeaderSearch::detectIncludesButton</text>
<text text-anchor="middle" x="298.5" y="-102.5" font-family="Helvetica,sans-Serif" font-size="10.00">Clicked</text>
</a>
</g>
</g>
<!-- Node5&#45;&gt;Node6 -->
<g id="edge5" class="edge">
<title>Node5&#45;&gt;Node6</title>
<path fill="none" stroke="#63b8ff" d="M424.09,-114.92C414.69,-115 405.21,-115.09 395.9,-115.17"/>
<polygon fill="#63b8ff" stroke="#63b8ff" points="424.02,-118.42 433.99,-114.84 423.96,-111.42 424.02,-118.42"/>
</g>
<!-- Node7 -->
<g id="node7" class="node">
<title>Node7</title>
<g id="a_node7"><a xlink:href="classQtProjectWizardContentPathsHeaderSearch.html#a16d6ec27e776e2547dff55c1d17bf02e" target="_top" xlink:title=" ">
<polygon fill="white" stroke="#666666" points="161,-101 0,-101 0,-71 161,-71 161,-101"/>
<text text-anchor="start" x="8" y="-89" font-family="Helvetica,sans-Serif" font-size="10.00">QtProjectWizardContentPaths</text>
<text text-anchor="middle" x="80.5" y="-78" font-family="Helvetica,sans-Serif" font-size="10.00">HeaderSearch::populate</text>
</a>
</g>
</g>
<!-- Node6&#45;&gt;Node7 -->
<g id="edge6" class="edge">
<title>Node6&#45;&gt;Node7</title>
<path fill="none" stroke="#63b8ff" d="M189.95,-101.06C180.36,-99.73 170.76,-98.4 161.46,-97.11"/>
<polygon fill="#63b8ff" stroke="#63b8ff" points="189.3,-104.51 199.69,-102.41 190.26,-97.57 189.3,-104.51"/>
</g>
<!-- Node8&#45;&gt;Node7 -->
<g id="edge8" class="edge">
<title>Node8&#45;&gt;Node7</title>
<path fill="none" stroke="#63b8ff" d="M185.62,-72.02C177.44,-73.12 169.29,-74.21 161.36,-75.28"/>
<polygon fill="#63b8ff" stroke="#63b8ff" points="185.83,-75.52 195.27,-70.73 184.9,-68.59 185.83,-75.52"/>
</g>
<!-- Node10 -->
<g id="node10" class="node">
<title>Node10</title>
<g id="a_node10"><a xlink:href="classQtDialogView.html#a42d792807772d0d9f4cd3ab3fcb1de5b" target="_top" xlink:title=" ">
<polygon fill="white" stroke="#666666" points="829,-30 664,-30 664,0 829,0 829,-30"/>
<text text-anchor="start" x="672" y="-18" font-family="Helvetica,sans-Serif" font-size="10.00">QtDialogView::updateIndexing</text>
<text text-anchor="middle" x="746.5" y="-7" font-family="Helvetica,sans-Serif" font-size="10.00">Dialog</text>
</a>
</g>
</g>
<!-- Node9&#45;&gt;Node10 -->
<g id="edge10" class="edge">
<title>Node9&#45;&gt;Node10</title>
<path fill="none" stroke="#63b8ff" d="M862.42,-15C851.52,-15 840.34,-15 829.44,-15"/>
<polygon fill="#63b8ff" stroke="#63b8ff" points="862.14,-18.5 872.14,-15 862.14,-11.5 862.14,-18.5"/>
</g>
<!-- Node11 -->
<g id="node11" class="node">
<title>Node11</title>
<g id="a_node11"><a xlink:href="classQtDialogView.html#adce523d40b2fe45d53ba41d07d5f65e9" target="_top" xlink:title=" ">
<polygon fill="white" stroke="#666666" points="612.5,-30 451.5,-30 451.5,0 612.5,0 612.5,-30"/>
<text text-anchor="start" x="459.5" y="-18" font-family="Helvetica,sans-Serif" font-size="10.00">QtDialogView::updateCustom</text>
<text text-anchor="middle" x="532" y="-7" font-family="Helvetica,sans-Serif" font-size="10.00">IndexingDialog</text>
</a>
</g>
</g>
<!-- Node10&#45;&gt;Node11 -->
<g id="edge11" class="edge">
<title>Node10&#45;&gt;Node11</title>
<path fill="none" stroke="#63b8ff" d="M652.17,-15C639.01,-15 625.58,-15 612.71,-15"/>
<polygon fill="#63b8ff" stroke="#63b8ff" points="652.13,-18.5 662.13,-15 652.13,-11.5 652.13,-18.5"/>
</g>
</g>
</svg>
