<?xml version="1.0" encoding="UTF-8" standalone="no"?>
<!DOCTYPE svg PUBLIC "-//W3C//DTD SVG 1.1//EN"
 "http://www.w3.org/Graphics/SVG/1.1/DTD/svg11.dtd">
<!-- Generated by graphviz version 7.1.0 (0)
 -->
<!-- Title: ConfigManager::removeValues Pages: 1 -->
<svg width="517pt" height="64pt"
 viewBox="0.00 0.00 517.00 64.00" xmlns="http://www.w3.org/2000/svg" xmlns:xlink="http://www.w3.org/1999/xlink">
<g id="graph0" class="graph" transform="scale(1 1) rotate(0) translate(4 60)">
<title>ConfigManager::removeValues</title>
<!-- Node1 -->
<g id="node1" class="node">
<title>Node1</title>
<g id="a_node1"><a xlink:title=" ">
<polygon fill="#999999" stroke="#666666" points="167,-37 0,-37 0,-18 167,-18 167,-37"/>
<text text-anchor="middle" x="83.5" y="-25" font-family="Helvetica,sans-Serif" font-size="10.00">ConfigManager::removeValues</text>
</a>
</g>
</g>
<!-- Node1&#45;&gt;Node1 -->
<g id="edge4" class="edge">
<title>Node1&#45;&gt;Node1</title>
<path fill="none" stroke="#63b8ff" d="M50.86,-37.37C35.97,-45.94 46.85,-55 83.5,-55 105.26,-55 117.94,-51.8 121.53,-47.42"/>
<polygon fill="#63b8ff" stroke="#63b8ff" points="124.67,-45.86 116.86,-38.7 118.5,-49.17 124.67,-45.86"/>
</g>
<!-- Node2 -->
<g id="node2" class="node">
<title>Node2</title>
<g id="a_node2"><a xlink:href="classConfigManager.html#a63cd3d0ed4bae7e84967fe58f42e029e" target="_top" xlink:title=" ">
<polygon fill="white" stroke="#666666" points="381,-37 203,-37 203,-18 381,-18 381,-37"/>
<text text-anchor="middle" x="292" y="-25" font-family="Helvetica,sans-Serif" font-size="10.00">ConfigManager::getSublevelKeys</text>
</a>
</g>
</g>
<!-- Node1&#45;&gt;Node2 -->
<g id="edge1" class="edge">
<title>Node1&#45;&gt;Node2</title>
<path fill="none" stroke="#63b8ff" d="M167.3,-27.5C175.23,-27.5 183.33,-27.5 191.4,-27.5"/>
<polygon fill="#63b8ff" stroke="#63b8ff" points="191.26,-31 201.26,-27.5 191.26,-24 191.26,-31"/>
</g>
<!-- Node3 -->
<g id="node3" class="node">
<title>Node3</title>
<g id="a_node3"><a xlink:href="namespaceutility.html#a600e7e7f7c8fba53113010d767e9e7a2" target="_top" xlink:title=" ">
<polygon fill="white" stroke="#666666" points="506.5,-56 419.5,-56 419.5,-37 506.5,-37 506.5,-56"/>
<text text-anchor="middle" x="463" y="-44" font-family="Helvetica,sans-Serif" font-size="10.00">utility::isPrefix</text>
</a>
</g>
</g>
<!-- Node2&#45;&gt;Node3 -->
<g id="edge2" class="edge">
<title>Node2&#45;&gt;Node3</title>
<path fill="none" stroke="#63b8ff" d="M381.46,-37.45C390.46,-38.46 399.41,-39.46 407.88,-40.42"/>
<polygon fill="#63b8ff" stroke="#63b8ff" points="407.28,-43.87 417.6,-41.51 408.06,-36.91 407.28,-43.87"/>
</g>
<!-- Node4 -->
<g id="node4" class="node">
<title>Node4</title>
<g id="a_node4"><a xlink:href="namespaceutility.html#aaf52f1ff3ca887705d82c1e674f434c0" target="_top" xlink:title=" ">
<polygon fill="white" stroke="#666666" points="509,-19 417,-19 417,0 509,0 509,-19"/>
<text text-anchor="middle" x="463" y="-7" font-family="Helvetica,sans-Serif" font-size="10.00">utility::toVector</text>
</a>
</g>
</g>
<!-- Node2&#45;&gt;Node4 -->
<g id="edge3" class="edge">
<title>Node2&#45;&gt;Node4</title>
<path fill="none" stroke="#63b8ff" d="M381.46,-18.08C389.52,-17.22 397.53,-16.37 405.2,-15.55"/>
<polygon fill="#63b8ff" stroke="#63b8ff" points="405.47,-19.04 415.04,-14.5 404.72,-12.08 405.47,-19.04"/>
</g>
</g>
</svg>
