<?xml version="1.0" encoding="UTF-8" standalone="no"?>
<!DOCTYPE svg PUBLIC "-//W3C//DTD SVG 1.1//EN"
 "http://www.w3.org/Graphics/SVG/1.1/DTD/svg11.dtd">
<!-- Generated by graphviz version 9.0.0 (0)
 -->
<!-- Title: FileSystem::remove Pages: 1 -->
<svg width="544pt" height="48pt"
 viewBox="0.00 0.00 543.75 47.75" xmlns="http://www.w3.org/2000/svg" xmlns:xlink="http://www.w3.org/1999/xlink">
<g id="graph0" class="graph" transform="scale(1 1) rotate(0) translate(4 43.75)">
<title>FileSystem::remove</title>
<!-- Node1 -->
<g id="Node000001" class="node">
<title>Node1</title>
<g id="a_Node000001"><a xlink:title=" ">
<polygon fill="#999999" stroke="#666666" points="112.75,-39.75 0,-39.75 0,-19 112.75,-19 112.75,-39.75"/>
<text text-anchor="middle" x="56.38" y="-26.25" font-family="Helvetica,sans-Serif" font-size="10.00">FileSystem::remove</text>
</a>
</g>
</g>
<!-- Node2 -->
<g id="Node000002" class="node">
<title>Node2</title>
<g id="a_Node000002"><a xlink:href="classFilePath.html#a544387c4aea50aec855062fd02e436ae" target="_top" xlink:title=" ">
<polygon fill="white" stroke="#666666" points="535.75,-39.75 438,-39.75 438,-19 535.75,-19 535.75,-39.75"/>
<text text-anchor="middle" x="486.88" y="-26.25" font-family="Helvetica,sans-Serif" font-size="10.00">FilePath::getPath</text>
</a>
</g>
</g>
<!-- Node1&#45;&gt;Node2 -->
<g id="edge1_Node000001_Node000002" class="edge">
<title>Node1&#45;&gt;Node2</title>
<g id="a_edge1_Node000001_Node000002"><a xlink:title=" ">
<path fill="none" stroke="#63b8ff" d="M112.95,-29.38C193.84,-29.38 343.37,-29.38 426.4,-29.38"/>
<polygon fill="#63b8ff" stroke="#63b8ff" points="426.15,-32.88 436.15,-29.38 426.15,-25.88 426.15,-32.88"/>
</a>
</g>
</g>
<!-- Node3 -->
<g id="Node000003" class="node">
<title>Node3</title>
<g id="a_Node000003"><a xlink:href="classFilePath.html#a59d0f48e8394367cbe2cd97d4e8fd0ec" target="_top" xlink:title=" ">
<polygon fill="white" stroke="#666666" points="276.5,-20.75 148.75,-20.75 148.75,0 276.5,0 276.5,-20.75"/>
<text text-anchor="middle" x="212.62" y="-7.25" font-family="Helvetica,sans-Serif" font-size="10.00">FilePath::recheckExists</text>
</a>
</g>
</g>
<!-- Node1&#45;&gt;Node3 -->
<g id="edge2_Node000001_Node000003" class="edge">
<title>Node1&#45;&gt;Node3</title>
<g id="a_edge2_Node000001_Node000003"><a xlink:title=" ">
<path fill="none" stroke="#63b8ff" d="M113.06,-22.52C120.86,-21.55 128.98,-20.55 137.06,-19.56"/>
<polygon fill="#63b8ff" stroke="#63b8ff" points="137.43,-23.04 146.92,-18.34 136.57,-16.09 137.43,-23.04"/>
</a>
</g>
</g>
<!-- Node4 -->
<g id="Node000004" class="node">
<title>Node4</title>
<g id="a_Node000004"><a xlink:href="classFilePath.html#a59fa57dcd7d19d74aaee62f072f14b3d" target="_top" xlink:title=" ">
<polygon fill="white" stroke="#666666" points="402,-20.75 312.5,-20.75 312.5,0 402,0 402,-20.75"/>
<text text-anchor="middle" x="357.25" y="-7.25" font-family="Helvetica,sans-Serif" font-size="10.00">FilePath::exists</text>
</a>
</g>
</g>
<!-- Node3&#45;&gt;Node4 -->
<g id="edge3_Node000003_Node000004" class="edge">
<title>Node3&#45;&gt;Node4</title>
<g id="a_edge3_Node000003_Node000004"><a xlink:title=" ">
<path fill="none" stroke="#63b8ff" d="M276.6,-10.38C284.62,-10.38 292.78,-10.38 300.68,-10.38"/>
<polygon fill="#63b8ff" stroke="#63b8ff" points="300.49,-13.88 310.49,-10.38 300.49,-6.88 300.49,-13.88"/>
</a>
</g>
</g>
<!-- Node4&#45;&gt;Node2 -->
<g id="edge4_Node000004_Node000002" class="edge">
<title>Node4&#45;&gt;Node2</title>
<g id="a_edge4_Node000004_Node000002"><a xlink:title=" ">
<path fill="none" stroke="#63b8ff" d="M402.17,-16.91C409.91,-18.07 418.09,-19.28 426.18,-20.49"/>
<polygon fill="#63b8ff" stroke="#63b8ff" points="425.6,-23.94 436.01,-21.95 426.63,-17.02 425.6,-23.94"/>
</a>
</g>
</g>
</g>
</svg>
