<?xml version="1.0" encoding="UTF-8" standalone="no"?>
<!DOCTYPE svg PUBLIC "-//W3C//DTD SVG 1.1//EN"
 "http://www.w3.org/Graphics/SVG/1.1/DTD/svg11.dtd">
<!-- Generated by graphviz version 7.1.0 (0)
 -->
<!-- Title: CodeFocusHandler::defocus Pages: 1 -->
<svg width="943pt" height="117pt"
 viewBox="0.00 0.00 943.00 116.50" xmlns="http://www.w3.org/2000/svg" xmlns:xlink="http://www.w3.org/1999/xlink">
<g id="graph0" class="graph" transform="scale(1 1) rotate(0) translate(4 112.5)">
<title>CodeFocusHandler::defocus</title>
<!-- Node1 -->
<g id="node1" class="node">
<title>Node1</title>
<g id="a_node1"><a xlink:title=" ">
<polygon fill="#999999" stroke="#666666" points="152,-67.5 0,-67.5 0,-48.5 152,-48.5 152,-67.5"/>
<text text-anchor="middle" x="76" y="-55.5" font-family="Helvetica,sans-Serif" font-size="10.00">CodeFocusHandler::defocus</text>
</a>
</g>
</g>
<!-- Node2 -->
<g id="node2" class="node">
<title>Node2</title>
<g id="a_node2"><a xlink:href="classCodeFocusHandler.html#a6cba54f52c7627d75c0846ed76d88957" target="_top" xlink:title=" ">
<polygon fill="white" stroke="#666666" points="352,-73 188,-73 188,-43 352,-43 352,-73"/>
<text text-anchor="start" x="196" y="-61" font-family="Helvetica,sans-Serif" font-size="10.00">CodeFocusHandler::setCurrent</text>
<text text-anchor="middle" x="270" y="-50" font-family="Helvetica,sans-Serif" font-size="10.00">Focus</text>
</a>
</g>
</g>
<!-- Node1&#45;&gt;Node2 -->
<g id="edge1" class="edge">
<title>Node1&#45;&gt;Node2</title>
<path fill="none" stroke="#63b8ff" d="M152.33,-58C160.19,-58 168.24,-58 176.25,-58"/>
<polygon fill="#63b8ff" stroke="#63b8ff" points="176.03,-61.5 186.03,-58 176.03,-54.5 176.03,-61.5"/>
</g>
<!-- Node3 -->
<g id="node3" class="node">
<title>Node3</title>
<g id="a_node3"><a xlink:href="classMessage.html#aa60564025ee950bf52c8deb6ac1bb843" target="_top" xlink:title=" ">
<polygon fill="white" stroke="#666666" points="515,-107.5 408,-107.5 408,-88.5 515,-88.5 515,-107.5"/>
<text text-anchor="middle" x="461.5" y="-95.5" font-family="Helvetica,sans-Serif" font-size="10.00">Message::dispatch</text>
</a>
</g>
</g>
<!-- Node2&#45;&gt;Node3 -->
<g id="edge2" class="edge">
<title>Node2&#45;&gt;Node3</title>
<path fill="none" stroke="#63b8ff" d="M344.27,-73.47C363.41,-77.51 383.8,-81.81 402.06,-85.66"/>
<polygon fill="#63b8ff" stroke="#63b8ff" points="401.14,-89.05 411.65,-87.69 402.58,-82.2 401.14,-89.05"/>
</g>
<!-- Node6 -->
<g id="node6" class="node">
<title>Node6</title>
<g id="a_node6"><a xlink:href="classCodeFocusHandler.html#a490e77f69ddbfb9839de943c88817683" target="_top" xlink:title=" ">
<polygon fill="white" stroke="#666666" points="531.5,-67.5 391.5,-67.5 391.5,-48.5 531.5,-48.5 531.5,-67.5"/>
<text text-anchor="middle" x="461.5" y="-55.5" font-family="Helvetica,sans-Serif" font-size="10.00">CodeFocusHandler::focus</text>
</a>
</g>
</g>
<!-- Node2&#45;&gt;Node6 -->
<g id="edge5" class="edge">
<title>Node2&#45;&gt;Node6</title>
<path fill="none" stroke="#63b8ff" d="M352.46,-51.31C361.49,-51.23 370.69,-51.23 379.71,-51.32"/>
<polygon fill="#63b8ff" stroke="#63b8ff" points="379.45,-54.81 389.5,-51.45 379.55,-47.81 379.45,-54.81"/>
</g>
<!-- Node8 -->
<g id="node8" class="node">
<title>Node8</title>
<g id="a_node8"><a xlink:href="classCodeFocusHandler.html#a06f799c6b1b33d77618fc5150f06b32e" target="_top" xlink:title=" ">
<polygon fill="white" stroke="#666666" points="535,-30 388,-30 388,0 535,0 535,-30"/>
<text text-anchor="start" x="396" y="-18" font-family="Helvetica,sans-Serif" font-size="10.00">CodeFocusHandler::update</text>
<text text-anchor="middle" x="461.5" y="-7" font-family="Helvetica,sans-Serif" font-size="10.00">Files</text>
</a>
</g>
</g>
<!-- Node2&#45;&gt;Node8 -->
<g id="edge8" class="edge">
<title>Node2&#45;&gt;Node8</title>
<path fill="none" stroke="#63b8ff" d="M339.15,-42.54C352.79,-39.44 367.24,-36.16 381.23,-32.99"/>
<polygon fill="#63b8ff" stroke="#63b8ff" points="381.87,-36.43 390.85,-30.81 380.32,-29.61 381.87,-36.43"/>
</g>
<!-- Node4 -->
<g id="node4" class="node">
<title>Node4</title>
<g id="a_node4"><a xlink:href="classMessageQueue.html#ae42d768ad6ffd631d627fe101e38f711" target="_top" xlink:title=" ">
<polygon fill="white" stroke="#666666" points="726,-108.5 571,-108.5 571,-89.5 726,-89.5 726,-108.5"/>
<text text-anchor="middle" x="648.5" y="-96.5" font-family="Helvetica,sans-Serif" font-size="10.00">MessageQueue::getInstance</text>
</a>
</g>
</g>
<!-- Node3&#45;&gt;Node4 -->
<g id="edge3" class="edge">
<title>Node3&#45;&gt;Node4</title>
<path fill="none" stroke="#63b8ff" d="M515.02,-98.28C528.81,-98.36 544.07,-98.44 559.18,-98.52"/>
<polygon fill="#63b8ff" stroke="#63b8ff" points="559.14,-102.02 569.16,-98.58 559.18,-95.02 559.14,-102.02"/>
</g>
<!-- Node5 -->
<g id="node5" class="node">
<title>Node5</title>
<g id="a_node5"><a xlink:href="classMessageQueue.html#a006069f4b83d2372c989c52784fac5de" target="_top" xlink:title=" ">
<polygon fill="white" stroke="#666666" points="935,-108.5 762,-108.5 762,-89.5 935,-89.5 935,-108.5"/>
<text text-anchor="middle" x="848.5" y="-96.5" font-family="Helvetica,sans-Serif" font-size="10.00">MessageQueue::MessageQueue</text>
</a>
</g>
</g>
<!-- Node4&#45;&gt;Node5 -->
<g id="edge4" class="edge">
<title>Node4&#45;&gt;Node5</title>
<path fill="none" stroke="#63b8ff" d="M726.34,-99C734.17,-99 742.19,-99 750.21,-99"/>
<polygon fill="#63b8ff" stroke="#63b8ff" points="749.99,-102.5 759.99,-99 749.99,-95.5 749.99,-102.5"/>
</g>
<!-- Node6&#45;&gt;Node2 -->
<g id="edge7" class="edge">
<title>Node6&#45;&gt;Node2</title>
<path fill="none" stroke="#63b8ff" d="M391.01,-64.53C382.2,-64.69 373.07,-64.76 363.96,-64.75"/>
<polygon fill="#63b8ff" stroke="#63b8ff" points="364,-61.25 353.98,-64.7 363.96,-68.25 364,-61.25"/>
</g>
<!-- Node7 -->
<g id="node7" class="node">
<title>Node7</title>
<g id="a_node7"><a xlink:href="structCodeFocusHandler_1_1Focus.html#acb42596bc1f6572b7b8b396db1280bf3" target="_top" xlink:title=" ">
<polygon fill="white" stroke="#666666" points="719,-71 578,-71 578,-41 719,-41 719,-71"/>
<text text-anchor="start" x="586" y="-59" font-family="Helvetica,sans-Serif" font-size="10.00">CodeFocusHandler::Focus</text>
<text text-anchor="middle" x="648.5" y="-48" font-family="Helvetica,sans-Serif" font-size="10.00">::isEmpty</text>
</a>
</g>
</g>
<!-- Node6&#45;&gt;Node7 -->
<g id="edge6" class="edge">
<title>Node6&#45;&gt;Node7</title>
<path fill="none" stroke="#63b8ff" d="M531.91,-57.25C543.14,-57.13 554.85,-57 566.33,-56.88"/>
<polygon fill="#63b8ff" stroke="#63b8ff" points="566.22,-60.38 576.18,-56.77 566.15,-53.38 566.22,-60.38"/>
</g>
</g>
</svg>
