<?xml version="1.0" encoding="UTF-8" standalone="no"?>
<!DOCTYPE svg PUBLIC "-//W3C//DTD SVG 1.1//EN"
 "http://www.w3.org/Graphics/SVG/1.1/DTD/svg11.dtd">
<!-- Generated by graphviz version 9.0.0 (0)
 -->
<!-- Title: QtBookmarkCategory::expandClicked Pages: 1 -->
<svg width="697pt" height="94pt"
 viewBox="0.00 0.00 696.75 93.50" xmlns="http://www.w3.org/2000/svg" xmlns:xlink="http://www.w3.org/1999/xlink">
<g id="graph0" class="graph" transform="scale(1 1) rotate(0) translate(4 89.5)">
<title>QtBookmarkCategory::expandClicked</title>
<!-- Node1 -->
<g id="Node000001" class="node">
<title>Node1</title>
<g id="a_Node000001"><a xlink:title=" ">
<polygon fill="#999999" stroke="#666666" points="688.75,-59.5 567,-59.5 567,-26 688.75,-26 688.75,-59.5"/>
<text text-anchor="start" x="575" y="-46" font-family="Helvetica,sans-Serif" font-size="10.00">QtBookmarkCategory</text>
<text text-anchor="middle" x="627.88" y="-33.25" font-family="Helvetica,sans-Serif" font-size="10.00">::expandClicked</text>
</a>
</g>
</g>
<!-- Node2 -->
<g id="Node000002" class="node">
<title>Node2</title>
<g id="a_Node000002"><a xlink:href="classQtBookmarkCategory.html#ad7537e4893d629bf5284293d17d46771" target="_top" xlink:title=" ">
<polygon fill="white" stroke="#666666" points="531,-85.5 403.25,-85.5 403.25,-52 531,-52 531,-85.5"/>
<text text-anchor="start" x="411.25" y="-72" font-family="Helvetica,sans-Serif" font-size="10.00">QtBookmarkCategory</text>
<text text-anchor="middle" x="467.12" y="-59.25" font-family="Helvetica,sans-Serif" font-size="10.00">::QtBookmarkCategory</text>
</a>
</g>
</g>
<!-- Node1&#45;&gt;Node2 -->
<g id="edge1_Node000001_Node000002" class="edge">
<title>Node1&#45;&gt;Node2</title>
<g id="a_edge1_Node000001_Node000002"><a xlink:title=" ">
<path fill="none" stroke="#63b8ff" d="M555.58,-54.43C547.52,-55.75 539.35,-57.09 531.4,-58.39"/>
<polygon fill="#63b8ff" stroke="#63b8ff" points="556.06,-57.89 565.36,-52.82 554.93,-50.99 556.06,-57.89"/>
</a>
</g>
</g>
<!-- Node3 -->
<g id="Node000003" class="node">
<title>Node3</title>
<g id="a_Node000003"><a xlink:href="classQtBookmarkBrowser.html#ad97f6b5c89c03125e4a0c187e3dfa5d0" target="_top" xlink:title=" ">
<polygon fill="white" stroke="#666666" points="528.75,-33.5 405.5,-33.5 405.5,0 528.75,0 528.75,-33.5"/>
<text text-anchor="start" x="413.5" y="-20" font-family="Helvetica,sans-Serif" font-size="10.00">QtBookmarkBrowser::</text>
<text text-anchor="middle" x="467.12" y="-7.25" font-family="Helvetica,sans-Serif" font-size="10.00">treeItemClicked</text>
</a>
</g>
</g>
<!-- Node1&#45;&gt;Node3 -->
<g id="edge2_Node000001_Node000003" class="edge">
<title>Node1&#45;&gt;Node3</title>
<g id="a_edge2_Node000001_Node000003"><a xlink:title=" ">
<path fill="none" stroke="#63b8ff" d="M555.69,-31.09C546.79,-29.63 537.74,-28.15 529.02,-26.72"/>
<polygon fill="#63b8ff" stroke="#63b8ff" points="554.93,-34.51 565.36,-32.68 556.06,-27.61 554.93,-34.51"/>
</a>
</g>
</g>
<!-- Node4 -->
<g id="Node000004" class="node">
<title>Node4</title>
<g id="a_Node000004"><a xlink:href="classQtBookmarkBrowser.html#a22e535ba1c82fba982b831c11ab8aa84" target="_top" xlink:title=" ">
<polygon fill="white" stroke="#666666" points="367.25,-33.5 234.25,-33.5 234.25,0 367.25,0 367.25,-33.5"/>
<text text-anchor="start" x="242.25" y="-20" font-family="Helvetica,sans-Serif" font-size="10.00">QtBookmarkBrowser::</text>
<text text-anchor="middle" x="300.75" y="-7.25" font-family="Helvetica,sans-Serif" font-size="10.00">setupBookmarkBrowser</text>
</a>
</g>
</g>
<!-- Node3&#45;&gt;Node4 -->
<g id="edge3_Node000003_Node000004" class="edge">
<title>Node3&#45;&gt;Node4</title>
<g id="a_edge3_Node000003_Node000004"><a xlink:title=" ">
<path fill="none" stroke="#63b8ff" d="M393.94,-16.75C385.14,-16.75 376.19,-16.75 367.49,-16.75"/>
<polygon fill="#63b8ff" stroke="#63b8ff" points="393.87,-20.25 403.87,-16.75 393.87,-13.25 393.87,-20.25"/>
</a>
</g>
</g>
<!-- Node5 -->
<g id="Node000005" class="node">
<title>Node5</title>
<g id="a_Node000005"><a xlink:href="classQtBookmarkView.html#ace17bd707600267bc2ddfd40e98a0b4a" target="_top" xlink:title=" ">
<polygon fill="white" stroke="#666666" points="198.25,-27.12 0,-27.12 0,-6.38 198.25,-6.38 198.25,-27.12"/>
<text text-anchor="middle" x="99.12" y="-13.62" font-family="Helvetica,sans-Serif" font-size="10.00">QtBookmarkView::displayBookmarks</text>
</a>
</g>
</g>
<!-- Node4&#45;&gt;Node5 -->
<g id="edge4_Node000004_Node000005" class="edge">
<title>Node4&#45;&gt;Node5</title>
<g id="a_edge4_Node000004_Node000005"><a xlink:title=" ">
<path fill="none" stroke="#63b8ff" d="M222.46,-16.75C214.59,-16.75 206.52,-16.75 198.46,-16.75"/>
<polygon fill="#63b8ff" stroke="#63b8ff" points="222.32,-20.25 232.32,-16.75 222.32,-13.25 222.32,-20.25"/>
</a>
</g>
</g>
</g>
</svg>
