<?xml version="1.0" encoding="UTF-8" standalone="no"?>
<!DOCTYPE svg PUBLIC "-//W3C//DTD SVG 1.1//EN"
 "http://www.w3.org/Graphics/SVG/1.1/DTD/svg11.dtd">
<!-- Generated by graphviz version 7.1.0 (0)
 -->
<!-- Title: BookmarkButtonsView Pages: 1 -->
<svg width="399pt" height="283pt"
 viewBox="0.00 0.00 399.00 283.00" xmlns="http://www.w3.org/2000/svg" xmlns:xlink="http://www.w3.org/1999/xlink">
<g id="graph0" class="graph" transform="scale(1 1) rotate(0) translate(4 279)">
<title>BookmarkButtonsView</title>
<!-- Node1 -->
<g id="node1" class="node">
<title>Node1</title>
<g id="a_node1"><a xlink:title=" ">
<polygon fill="#999999" stroke="#666666" points="134,-75 6,-75 6,-56 134,-56 134,-75"/>
<text text-anchor="middle" x="70" y="-63" font-family="Helvetica,sans-Serif" font-size="10.00">BookmarkButtonsView</text>
</a>
</g>
</g>
<!-- Node6 -->
<g id="node6" class="node">
<title>Node6</title>
<g id="a_node6"><a xlink:href="classQtBookmarkButtonsView.html" target="_top" xlink:title=" ">
<polygon fill="white" stroke="#666666" points="140,-19 0,-19 0,0 140,0 140,-19"/>
<text text-anchor="middle" x="70" y="-7" font-family="Helvetica,sans-Serif" font-size="10.00">QtBookmarkButtonsView</text>
</a>
</g>
</g>
<!-- Node1&#45;&gt;Node6 -->
<g id="edge6" class="edge">
<title>Node1&#45;&gt;Node6</title>
<path fill="none" stroke="#63b8ff" d="M70,-44.11C70,-35.52 70,-25.97 70,-19.25"/>
<polygon fill="#63b8ff" stroke="#63b8ff" points="66.5,-44.07 70,-54.07 73.5,-44.07 66.5,-44.07"/>
</g>
<!-- Node2 -->
<g id="node2" class="node">
<title>Node2</title>
<g id="a_node2"><a xlink:href="classView.html" target="_top" xlink:title=" ">
<polygon fill="white" stroke="#666666" points="78.5,-136.5 37.5,-136.5 37.5,-117.5 78.5,-117.5 78.5,-136.5"/>
<text text-anchor="middle" x="58" y="-124.5" font-family="Helvetica,sans-Serif" font-size="10.00">View</text>
</a>
</g>
</g>
<!-- Node2&#45;&gt;Node1 -->
<g id="edge1" class="edge">
<title>Node2&#45;&gt;Node1</title>
<path fill="none" stroke="#63b8ff" d="M62,-106.16C64.11,-95.71 66.59,-83.41 68.22,-75.32"/>
<polygon fill="#63b8ff" stroke="#63b8ff" points="58.62,-105.24 60.07,-115.74 65.48,-106.63 58.62,-105.24"/>
</g>
<!-- Node3 -->
<g id="node3" class="node">
<title>Node3</title>
<g id="a_node3"><a xlink:href="classMessageListener.html" target="_top" xlink:title=" ">
<polygon fill="white" stroke="#666666" points="251,-142 97,-142 97,-112 251,-112 251,-142"/>
<text text-anchor="start" x="105" y="-130" font-family="Helvetica,sans-Serif" font-size="10.00">MessageListener&lt; Message</text>
<text text-anchor="middle" x="174" y="-119" font-family="Helvetica,sans-Serif" font-size="10.00">BookmarkButtonState &gt;</text>
</a>
</g>
</g>
<!-- Node3&#45;&gt;Node1 -->
<g id="edge2" class="edge">
<title>Node3&#45;&gt;Node1</title>
<path fill="none" stroke="#63b8ff" d="M138.88,-105.9C120.78,-95.55 99.63,-83.45 85.58,-75.42"/>
<polygon fill="#63b8ff" stroke="#63b8ff" points="137.09,-108.92 147.51,-110.85 140.57,-102.84 137.09,-108.92"/>
</g>
<!-- Node4 -->
<g id="node4" class="node">
<title>Node4</title>
<g id="a_node4"><a xlink:href="classMessageListenerBase.html" target="_top" xlink:title=" ">
<polygon fill="white" stroke="#666666" points="212.5,-275 89.5,-275 89.5,-256 212.5,-256 212.5,-275"/>
<text text-anchor="middle" x="151" y="-263" font-family="Helvetica,sans-Serif" font-size="10.00">MessageListenerBase</text>
</a>
</g>
</g>
<!-- Node4&#45;&gt;Node3 -->
<g id="edge3" class="edge">
<title>Node4&#45;&gt;Node3</title>
<path fill="none" stroke="#63b8ff" d="M151.96,-244.43C152.91,-229.15 154.71,-207.64 158,-189 160.85,-172.83 165.85,-154.66 169.51,-142.4"/>
<polygon fill="#63b8ff" stroke="#63b8ff" points="148.49,-243.92 151.43,-254.09 155.48,-244.3 148.49,-243.92"/>
</g>
<!-- Node5 -->
<g id="node5" class="node">
<title>Node5</title>
<g id="a_node5"><a xlink:href="classMessageListener.html" target="_top" xlink:title=" ">
<polygon fill="white" stroke="#666666" points="321,-219 167,-219 167,-189 321,-189 321,-219"/>
<text text-anchor="start" x="175" y="-207" font-family="Helvetica,sans-Serif" font-size="10.00">MessageListener&lt; Message</text>
<text text-anchor="middle" x="244" y="-196" font-family="Helvetica,sans-Serif" font-size="10.00">Type &gt;</text>
</a>
</g>
</g>
<!-- Node4&#45;&gt;Node5 -->
<g id="edge5" class="edge">
<title>Node4&#45;&gt;Node5</title>
<path fill="none" stroke="#63b8ff" d="M174,-249.78C188.51,-240.5 207.16,-228.57 221.56,-219.36"/>
<polygon fill="#63b8ff" stroke="#63b8ff" points="172.53,-246.57 166,-254.9 176.31,-252.46 172.53,-246.57"/>
</g>
<!-- Node5&#45;&gt;Node3 -->
<g id="edge4" class="edge">
<title>Node5&#45;&gt;Node3</title>
<path fill="none" stroke="orange" stroke-dasharray="5,2" d="M222.66,-180.13C211.2,-167.85 197.42,-153.09 187.46,-142.42"/>
<polygon fill="orange" stroke="orange" points="220.09,-182.51 229.47,-187.43 225.21,-177.73 220.09,-182.51"/>
<text text-anchor="middle" x="302" y="-163" font-family="Helvetica,sans-Serif" font-size="10.00"> &lt; MessageBookmarkButtonState &gt;</text>
</g>
</g>
</svg>
