<?xml version="1.0" encoding="UTF-8" standalone="no"?>
<!DOCTYPE svg PUBLIC "-//W3C//DTD SVG 1.1//EN"
 "http://www.w3.org/Graphics/SVG/1.1/DTD/svg11.dtd">
<!-- Generated by graphviz version 7.1.0 (0)
 -->
<!-- Title: QtWindow::handleNextPress Pages: 1 -->
<svg width="1810pt" height="633pt"
 viewBox="0.00 0.00 1810.00 633.00" xmlns="http://www.w3.org/2000/svg" xmlns:xlink="http://www.w3.org/1999/xlink">
<g id="graph0" class="graph" transform="scale(1 1) rotate(0) translate(4 629)">
<title>QtWindow::handleNextPress</title>
<!-- Node1 -->
<g id="node1" class="node">
<title>Node1</title>
<g id="a_node1"><a xlink:title=" ">
<polygon fill="#999999" stroke="#666666" points="1802,-118.5 1647,-118.5 1647,-99.5 1802,-99.5 1802,-118.5"/>
<text text-anchor="middle" x="1724.5" y="-106.5" font-family="Helvetica,sans-Serif" font-size="10.00">QtWindow::handleNextPress</text>
</a>
</g>
</g>
<!-- Node2 -->
<g id="node2" class="node">
<title>Node2</title>
<g id="a_node2"><a xlink:href="classQtWindow.html#a93109d9942e168167f5ce24d815560c7" target="_top" xlink:title=" ">
<polygon fill="white" stroke="#666666" points="1611,-118.5 1470,-118.5 1470,-99.5 1611,-99.5 1611,-118.5"/>
<text text-anchor="middle" x="1540.5" y="-106.5" font-family="Helvetica,sans-Serif" font-size="10.00">QtWindow::createButtons</text>
</a>
</g>
</g>
<!-- Node1&#45;&gt;Node2 -->
<g id="edge1" class="edge">
<title>Node1&#45;&gt;Node2</title>
<path fill="none" stroke="#63b8ff" d="M1635.32,-109C1627.33,-109 1619.3,-109 1611.5,-109"/>
<polygon fill="#63b8ff" stroke="#63b8ff" points="1635.07,-112.5 1645.07,-109 1635.07,-105.5 1635.07,-112.5"/>
</g>
<!-- Node3 -->
<g id="node3" class="node">
<title>Node3</title>
<g id="a_node3"><a xlink:href="classQtWindow.html#a75eba6bb1626f298f32680bead1410ae" target="_top" xlink:title=" ">
<polygon fill="white" stroke="#666666" points="1417,-372.5 1317,-372.5 1317,-353.5 1417,-353.5 1417,-372.5"/>
<text text-anchor="middle" x="1367" y="-360.5" font-family="Helvetica,sans-Serif" font-size="10.00">QtWindow::setup</text>
</a>
</g>
</g>
<!-- Node2&#45;&gt;Node3 -->
<g id="edge2" class="edge">
<title>Node2&#45;&gt;Node3</title>
<path fill="none" stroke="#63b8ff" d="M1526.35,-128.47C1491.96,-179.42 1400.21,-315.3 1374.68,-353.11"/>
<polygon fill="#63b8ff" stroke="#63b8ff" points="1529.23,-130.46 1531.93,-120.21 1523.43,-126.54 1529.23,-130.46"/>
</g>
<!-- Node34 -->
<g id="node34" class="node">
<title>Node34</title>
<g id="a_node34"><a xlink:href="classQtBookmarkBrowser.html#a22e535ba1c82fba982b831c11ab8aa84" target="_top" xlink:title=" ">
<polygon fill="white" stroke="#666666" points="1434,-124 1300,-124 1300,-94 1434,-94 1434,-124"/>
<text text-anchor="start" x="1308" y="-112" font-family="Helvetica,sans-Serif" font-size="10.00">QtBookmarkBrowser::</text>
<text text-anchor="middle" x="1367" y="-101" font-family="Helvetica,sans-Serif" font-size="10.00">setupBookmarkBrowser</text>
</a>
</g>
</g>
<!-- Node2&#45;&gt;Node34 -->
<g id="edge41" class="edge">
<title>Node2&#45;&gt;Node34</title>
<path fill="none" stroke="#63b8ff" d="M1458.42,-109C1450.36,-109 1442.25,-109 1434.37,-109"/>
<polygon fill="#63b8ff" stroke="#63b8ff" points="1458.23,-112.5 1468.23,-109 1458.23,-105.5 1458.23,-112.5"/>
</g>
<!-- Node36 -->
<g id="node36" class="node">
<title>Node36</title>
<g id="a_node36"><a xlink:href="classQtBookmarkCreator.html#ac6fd8c9e3df2feb79f801483f3020f13" target="_top" xlink:title=" ">
<polygon fill="white" stroke="#666666" points="1432,-76 1302,-76 1302,-46 1432,-46 1432,-76"/>
<text text-anchor="start" x="1310" y="-64" font-family="Helvetica,sans-Serif" font-size="10.00">QtBookmarkCreator::</text>
<text text-anchor="middle" x="1367" y="-53" font-family="Helvetica,sans-Serif" font-size="10.00">setupBookmarkCreator</text>
</a>
</g>
</g>
<!-- Node2&#45;&gt;Node36 -->
<g id="edge43" class="edge">
<title>Node2&#45;&gt;Node36</title>
<path fill="none" stroke="#63b8ff" d="M1493.1,-96.01C1471.5,-89.97 1445.66,-82.74 1423.08,-76.42"/>
<polygon fill="#63b8ff" stroke="#63b8ff" points="1491.93,-99.32 1502.51,-98.65 1493.82,-92.58 1491.93,-99.32"/>
</g>
<!-- Node4 -->
<g id="node4" class="node">
<title>Node4</title>
<g id="a_node4"><a xlink:href="classQtProjectWizardContentPathsIndexedHeaders.html#a41095321087e5397c64b387388f4757b" target="_top" xlink:title=" ">
<polygon fill="white" stroke="#666666" points="1248,-621 1079,-621 1079,-591 1248,-591 1248,-621"/>
<text text-anchor="start" x="1087" y="-609" font-family="Helvetica,sans-Serif" font-size="10.00">QtProjectWizardContentPaths</text>
<text text-anchor="middle" x="1163.5" y="-598" font-family="Helvetica,sans-Serif" font-size="10.00">IndexedHeaders::buttonClicked</text>
</a>
</g>
</g>
<!-- Node3&#45;&gt;Node4 -->
<g id="edge3" class="edge">
<title>Node3&#45;&gt;Node4</title>
<path fill="none" stroke="#63b8ff" d="M1361.97,-384.03C1352.64,-426.89 1325.5,-524.69 1264,-577 1257.56,-582.48 1250.13,-586.92 1242.29,-590.53"/>
<polygon fill="#63b8ff" stroke="#63b8ff" points="1365.38,-384.8 1363.96,-374.31 1358.52,-383.4 1365.38,-384.8"/>
</g>
<!-- Node6 -->
<g id="node6" class="node">
<title>Node6</title>
<g id="a_node6"><a xlink:href="classQtProjectWizard.html#aebfe5cd6eeb8e5429d17fc385c556d63" target="_top" xlink:title=" ">
<polygon fill="white" stroke="#666666" points="1249,-568 1078,-568 1078,-538 1249,-538 1249,-568"/>
<text text-anchor="start" x="1086" y="-556" font-family="Helvetica,sans-Serif" font-size="10.00">QtProjectWizard::createWindow</text>
<text text-anchor="middle" x="1163.5" y="-545" font-family="Helvetica,sans-Serif" font-size="10.00">WithContent</text>
</a>
</g>
</g>
<!-- Node3&#45;&gt;Node6 -->
<g id="edge5" class="edge">
<title>Node3&#45;&gt;Node6</title>
<path fill="none" stroke="#63b8ff" d="M1359.27,-383.58C1346.59,-419.05 1315.65,-491.48 1264,-529 1259.4,-532.34 1254.39,-535.22 1249.16,-537.71"/>
<polygon fill="#63b8ff" stroke="#63b8ff" points="1362.58,-384.72 1362.51,-374.13 1355.96,-382.45 1362.58,-384.72"/>
</g>
<!-- Node13 -->
<g id="node13" class="node">
<title>Node13</title>
<g id="a_node13"><a xlink:href="classQtProjectWizard.html#a3f75e33f067e7c55ff625953fe657a84" target="_top" xlink:title=" ">
<polygon fill="white" stroke="#666666" points="1240.5,-519.5 1086.5,-519.5 1086.5,-500.5 1240.5,-500.5 1240.5,-519.5"/>
<text text-anchor="middle" x="1163.5" y="-507.5" font-family="Helvetica,sans-Serif" font-size="10.00">QtProjectWizard::editProject</text>
</a>
</g>
</g>
<!-- Node3&#45;&gt;Node13 -->
<g id="edge15" class="edge">
<title>Node3&#45;&gt;Node13</title>
<path fill="none" stroke="#63b8ff" d="M1356.27,-382.89C1340.95,-411.95 1308.31,-465.42 1264,-492 1256.85,-496.29 1248.93,-499.61 1240.77,-502.17"/>
<polygon fill="#63b8ff" stroke="#63b8ff" points="1359.34,-384.58 1360.76,-374.08 1353.1,-381.41 1359.34,-384.58"/>
</g>
<!-- Node14 -->
<g id="node14" class="node">
<title>Node14</title>
<g id="a_node14"><a xlink:href="classQtProjectWizard.html#a2760efcb95c2ad517a9d4d8bfd49254a" target="_top" xlink:title=" ">
<polygon fill="white" stroke="#666666" points="1241,-482.5 1086,-482.5 1086,-463.5 1241,-463.5 1241,-482.5"/>
<text text-anchor="middle" x="1163.5" y="-470.5" font-family="Helvetica,sans-Serif" font-size="10.00">QtProjectWizard::newProject</text>
</a>
</g>
</g>
<!-- Node3&#45;&gt;Node14 -->
<g id="edge16" class="edge">
<title>Node3&#45;&gt;Node14</title>
<path fill="none" stroke="#63b8ff" d="M1350.88,-381.52C1332.6,-402.58 1299.8,-436.33 1264,-454 1256.59,-457.66 1248.54,-460.61 1240.35,-463"/>
<polygon fill="#63b8ff" stroke="#63b8ff" points="1353.46,-383.89 1357.24,-374 1348.11,-379.38 1353.46,-383.89"/>
</g>
<!-- Node23 -->
<g id="node23" class="node">
<title>Node23</title>
<g id="a_node23"><a xlink:href="classQtProjectWizard.html#a37eed23c3c03afff75d7261065beda1e" target="_top" xlink:title=" ">
<polygon fill="white" stroke="#666666" points="1241,-445 1086,-445 1086,-415 1241,-415 1241,-445"/>
<text text-anchor="start" x="1094" y="-433" font-family="Helvetica,sans-Serif" font-size="10.00">QtProjectWizard::newProject</text>
<text text-anchor="middle" x="1163.5" y="-422" font-family="Helvetica,sans-Serif" font-size="10.00">FromCDB</text>
</a>
</g>
</g>
<!-- Node3&#45;&gt;Node23 -->
<g id="edge27" class="edge">
<title>Node3&#45;&gt;Node23</title>
<path fill="none" stroke="#63b8ff" d="M1334.94,-377.65C1314.99,-386.67 1288.34,-397.99 1264,-406 1254.63,-409.08 1244.65,-411.96 1234.76,-414.57"/>
<polygon fill="#63b8ff" stroke="#63b8ff" points="1336.27,-380.89 1343.91,-373.54 1333.36,-374.52 1336.27,-380.89"/>
</g>
<!-- Node26 -->
<g id="node26" class="node">
<title>Node26</title>
<g id="a_node26"><a xlink:href="classQtMainWindow.html#a8370abeee5ca1398b671bb1ff51a392b" target="_top" xlink:title=" ">
<polygon fill="white" stroke="#666666" points="1244,-396.5 1083,-396.5 1083,-377.5 1244,-377.5 1244,-396.5"/>
<text text-anchor="middle" x="1163.5" y="-384.5" font-family="Helvetica,sans-Serif" font-size="10.00">QtMainWindow::openSettings</text>
</a>
</g>
</g>
<!-- Node3&#45;&gt;Node26 -->
<g id="edge30" class="edge">
<title>Node3&#45;&gt;Node26</title>
<path fill="none" stroke="#63b8ff" d="M1305.39,-370.22C1286.17,-372.51 1264.64,-375.07 1244.29,-377.5"/>
<polygon fill="#63b8ff" stroke="#63b8ff" points="1305.69,-373.71 1315.2,-369.05 1304.86,-366.76 1305.69,-373.71"/>
</g>
<!-- Node28 -->
<g id="node28" class="node">
<title>Node28</title>
<g id="a_node28"><a xlink:href="classQtProjectWizardContentPathsHeaderSearch.html#aa7700e2c2df0de0442d2e369ecc74355" target="_top" xlink:title=" ">
<polygon fill="white" stroke="#666666" points="1264,-359.5 1063,-359.5 1063,-318.5 1264,-318.5 1264,-359.5"/>
<text text-anchor="start" x="1071" y="-347.5" font-family="Helvetica,sans-Serif" font-size="10.00">QtProjectWizardContentPaths</text>
<text text-anchor="start" x="1071" y="-336.5" font-family="Helvetica,sans-Serif" font-size="10.00">HeaderSearch::showDetectedIncludes</text>
<text text-anchor="middle" x="1163.5" y="-325.5" font-family="Helvetica,sans-Serif" font-size="10.00">Result</text>
</a>
</g>
</g>
<!-- Node3&#45;&gt;Node28 -->
<g id="edge33" class="edge">
<title>Node3&#45;&gt;Node28</title>
<path fill="none" stroke="#63b8ff" d="M1305.52,-355.8C1292.45,-354.24 1278.29,-352.55 1264.16,-350.87"/>
<polygon fill="#63b8ff" stroke="#63b8ff" points="1304.86,-359.24 1315.2,-356.95 1305.69,-352.29 1304.86,-359.24"/>
</g>
<!-- Node29 -->
<g id="node29" class="node">
<title>Node29</title>
<g id="a_node29"><a xlink:href="classQtProjectWizardContent.html#a87eb197c3827ae090af86517027fc980" target="_top" xlink:title=" ">
<polygon fill="white" stroke="#666666" points="1230.5,-300 1096.5,-300 1096.5,-270 1230.5,-270 1230.5,-300"/>
<text text-anchor="start" x="1104.5" y="-288" font-family="Helvetica,sans-Serif" font-size="10.00">QtProjectWizardContent</text>
<text text-anchor="middle" x="1163.5" y="-277" font-family="Helvetica,sans-Serif" font-size="10.00">::showFilesDialog</text>
</a>
</g>
</g>
<!-- Node3&#45;&gt;Node29 -->
<g id="edge34" class="edge">
<title>Node3&#45;&gt;Node29</title>
<path fill="none" stroke="#63b8ff" d="M1340.26,-347.48C1320.09,-335.86 1291.01,-320.25 1264,-310 1253.51,-306.02 1242.16,-302.48 1231,-299.41"/>
<polygon fill="#63b8ff" stroke="#63b8ff" points="1338.24,-350.35 1348.63,-352.39 1341.77,-344.31 1338.24,-350.35"/>
</g>
<!-- Node30 -->
<g id="node30" class="node">
<title>Node30</title>
<g id="a_node30"><a xlink:href="classQtMainWindow.html#acc7121bc2be7adf4e72f0818fd9bcf23" target="_top" xlink:title=" ">
<polygon fill="white" stroke="#666666" points="1247.5,-252 1079.5,-252 1079.5,-222 1247.5,-222 1247.5,-252"/>
<text text-anchor="start" x="1087.5" y="-240" font-family="Helvetica,sans-Serif" font-size="10.00">QtMainWindow::showKeyboard</text>
<text text-anchor="middle" x="1163.5" y="-229" font-family="Helvetica,sans-Serif" font-size="10.00">Shortcuts</text>
</a>
</g>
</g>
<!-- Node3&#45;&gt;Node30 -->
<g id="edge35" class="edge">
<title>Node3&#45;&gt;Node30</title>
<path fill="none" stroke="#63b8ff" d="M1352.27,-343.91C1334.55,-320.69 1301.49,-282.02 1264,-261 1258.19,-257.74 1251.94,-254.92 1245.52,-252.48"/>
<polygon fill="#63b8ff" stroke="#63b8ff" points="1349.42,-345.94 1358.2,-351.87 1355.04,-341.76 1349.42,-345.94"/>
</g>
<!-- Node32 -->
<g id="node32" class="node">
<title>Node32</title>
<g id="a_node32"><a xlink:href="classQtMainWindow.html#ae4182ae80d590634778845cbd0f9c9fe" target="_top" xlink:title=" ">
<polygon fill="white" stroke="#666666" points="1245.5,-203.5 1081.5,-203.5 1081.5,-184.5 1245.5,-184.5 1245.5,-203.5"/>
<text text-anchor="middle" x="1163.5" y="-191.5" font-family="Helvetica,sans-Serif" font-size="10.00">QtMainWindow::showLicenses</text>
</a>
</g>
</g>
<!-- Node3&#45;&gt;Node32 -->
<g id="edge38" class="edge">
<title>Node3&#45;&gt;Node32</title>
<path fill="none" stroke="#63b8ff" d="M1358.3,-342.78C1344.67,-309.87 1313,-245.18 1264,-213 1258.41,-209.33 1252.29,-206.33 1245.92,-203.89"/>
<polygon fill="#63b8ff" stroke="#63b8ff" points="1355,-343.94 1361.95,-351.94 1361.5,-341.35 1355,-343.94"/>
</g>
<!-- Node33 -->
<g id="node33" class="node">
<title>Node33</title>
<g id="a_node33"><a xlink:href="classQtProjectWizardContentPathsHeaderSearch.html#a46df2437c18a80286516df4d3eb1b112" target="_top" xlink:title=" ">
<polygon fill="white" stroke="#666666" points="1262,-166 1065,-166 1065,-136 1262,-136 1262,-166"/>
<text text-anchor="start" x="1073" y="-154" font-family="Helvetica,sans-Serif" font-size="10.00">QtProjectWizardContentPaths</text>
<text text-anchor="middle" x="1163.5" y="-143" font-family="Helvetica,sans-Serif" font-size="10.00">HeaderSearch::showValidationResult</text>
</a>
</g>
</g>
<!-- Node3&#45;&gt;Node33 -->
<g id="edge40" class="edge">
<title>Node3&#45;&gt;Node33</title>
<path fill="none" stroke="#63b8ff" d="M1360.62,-342.05C1349.51,-303.09 1320.2,-219.51 1264,-176 1259.21,-172.29 1253.94,-169.13 1248.4,-166.43"/>
<polygon fill="#63b8ff" stroke="#63b8ff" points="1357.21,-342.83 1363.21,-351.57 1363.96,-341 1357.21,-342.83"/>
</g>
<!-- Node5 -->
<g id="node5" class="node">
<title>Node5</title>
<g id="a_node5"><a xlink:href="classQtProjectWizardContentPathsIndexedHeaders.html#adf90b029e5b823c80e3ef17f4fea48b5" target="_top" xlink:title=" ">
<polygon fill="white" stroke="#666666" points="1021,-625 860,-625 860,-595 1021,-595 1021,-625"/>
<text text-anchor="start" x="868" y="-613" font-family="Helvetica,sans-Serif" font-size="10.00">QtProjectWizardContentPaths</text>
<text text-anchor="middle" x="940.5" y="-602" font-family="Helvetica,sans-Serif" font-size="10.00">IndexedHeaders::populate</text>
</a>
</g>
</g>
<!-- Node4&#45;&gt;Node5 -->
<g id="edge4" class="edge">
<title>Node4&#45;&gt;Node5</title>
<path fill="none" stroke="#63b8ff" d="M1067.51,-607.72C1052.1,-608 1036.29,-608.28 1021.3,-608.56"/>
<polygon fill="#63b8ff" stroke="#63b8ff" points="1067.19,-611.23 1077.12,-607.55 1067.06,-604.23 1067.19,-611.23"/>
</g>
<!-- Node7 -->
<g id="node7" class="node">
<title>Node7</title>
<g id="a_node7"><a xlink:href="classQtProjectWizard.html#a86bf458db1053ae53a0633346def8c1b" target="_top" xlink:title=" ">
<polygon fill="white" stroke="#666666" points="593,-560 438,-560 438,-530 593,-530 593,-560"/>
<text text-anchor="start" x="446" y="-548" font-family="Helvetica,sans-Serif" font-size="10.00">QtProjectWizard::newSource</text>
<text text-anchor="middle" x="515.5" y="-537" font-family="Helvetica,sans-Serif" font-size="10.00">Group</text>
</a>
</g>
</g>
<!-- Node6&#45;&gt;Node7 -->
<g id="edge6" class="edge">
<title>Node6&#45;&gt;Node7</title>
<path fill="none" stroke="#63b8ff" d="M1066.52,-552.51C961.52,-551.88 788.28,-550.54 639,-548 624.22,-547.75 608.43,-547.41 593.28,-547.06"/>
<polygon fill="#63b8ff" stroke="#63b8ff" points="1066.18,-556.01 1076.2,-552.57 1066.23,-549.01 1066.18,-556.01"/>
</g>
<!-- Node11 -->
<g id="node11" class="node">
<title>Node11</title>
<g id="a_node11"><a xlink:href="classQtProjectWizard.html#a057c1ff5c06e74f85ea132a7da6577fc" target="_top" xlink:title=" ">
<polygon fill="white" stroke="#666666" points="1018,-539 863,-539 863,-509 1018,-509 1018,-539"/>
<text text-anchor="start" x="871" y="-527" font-family="Helvetica,sans-Serif" font-size="10.00">QtProjectWizard::newSource</text>
<text text-anchor="middle" x="940.5" y="-516" font-family="Helvetica,sans-Serif" font-size="10.00">GroupFromVS</text>
</a>
</g>
</g>
<!-- Node6&#45;&gt;Node11 -->
<g id="edge11" class="edge">
<title>Node6&#45;&gt;Node11</title>
<path fill="none" stroke="#63b8ff" d="M1066.63,-540.42C1050.54,-538.31 1034.02,-536.14 1018.48,-534.1"/>
<polygon fill="#63b8ff" stroke="#63b8ff" points="1065.82,-543.84 1076.19,-541.67 1066.73,-536.9 1065.82,-543.84"/>
</g>
<!-- Node8 -->
<g id="node8" class="node">
<title>Node8</title>
<g id="a_node8"><a xlink:href="classQtProjectWizard.html#a07441a9d111d82f9e93b7af8903cfe6b" target="_top" xlink:title=" ">
<polygon fill="white" stroke="#666666" points="372.5,-603 226.5,-603 226.5,-573 372.5,-573 372.5,-603"/>
<text text-anchor="start" x="234.5" y="-591" font-family="Helvetica,sans-Serif" font-size="10.00">QtProjectWizard::duplicate</text>
<text text-anchor="middle" x="299.5" y="-580" font-family="Helvetica,sans-Serif" font-size="10.00">SelectedSourceGroup</text>
</a>
</g>
</g>
<!-- Node7&#45;&gt;Node8 -->
<g id="edge7" class="edge">
<title>Node7&#45;&gt;Node8</title>
<path fill="none" stroke="#63b8ff" d="M426.28,-562.73C408.5,-566.3 390.01,-570.01 372.85,-573.46"/>
<polygon fill="#63b8ff" stroke="#63b8ff" points="426.95,-566.16 436.06,-560.76 425.57,-559.3 426.95,-566.16"/>
</g>
<!-- Node9 -->
<g id="node9" class="node">
<title>Node9</title>
<g id="a_node9"><a xlink:href="classQtProjectWizard.html#a38dd4706c9e55056686b25901902aa34" target="_top" xlink:title=" ">
<polygon fill="white" stroke="#666666" points="157.5,-581 13.5,-581 13.5,-551 157.5,-551 157.5,-581"/>
<text text-anchor="start" x="21.5" y="-569" font-family="Helvetica,sans-Serif" font-size="10.00">QtProjectWizard::populate</text>
<text text-anchor="middle" x="85.5" y="-558" font-family="Helvetica,sans-Serif" font-size="10.00">Window</text>
</a>
</g>
</g>
<!-- Node7&#45;&gt;Node9 -->
<g id="edge9" class="edge">
<title>Node7&#45;&gt;Node9</title>
<path fill="none" stroke="#63b8ff" d="M426.53,-549.32C347.05,-553.22 231.55,-558.88 157.73,-562.5"/>
<polygon fill="#63b8ff" stroke="#63b8ff" points="426.65,-552.81 436.47,-548.83 426.31,-545.82 426.65,-552.81"/>
</g>
<!-- Node10 -->
<g id="node10" class="node">
<title>Node10</title>
<g id="a_node10"><a xlink:href="classQtProjectWizard.html#a439497d35f27306ce0eacc4833eabecf" target="_top" xlink:title=" ">
<polygon fill="white" stroke="#666666" points="384.5,-516.5 214.5,-516.5 214.5,-497.5 384.5,-497.5 384.5,-516.5"/>
<text text-anchor="middle" x="299.5" y="-504.5" font-family="Helvetica,sans-Serif" font-size="10.00">QtProjectWizard::windowReady</text>
</a>
</g>
</g>
<!-- Node7&#45;&gt;Node10 -->
<g id="edge10" class="edge">
<title>Node7&#45;&gt;Node10</title>
<path fill="none" stroke="#63b8ff" d="M426.45,-529.36C402.86,-525.18 378,-520.76 356.66,-516.97"/>
<polygon fill="#63b8ff" stroke="#63b8ff" points="425.6,-532.77 436.05,-531.07 426.82,-525.88 425.6,-532.77"/>
</g>
<!-- Node8&#45;&gt;Node9 -->
<g id="edge8" class="edge">
<title>Node8&#45;&gt;Node9</title>
<path fill="none" stroke="#63b8ff" d="M214.85,-579.32C195.98,-577.36 176.13,-575.3 157.82,-573.4"/>
<polygon fill="#63b8ff" stroke="#63b8ff" points="214.32,-582.78 224.63,-580.33 215.04,-575.82 214.32,-582.78"/>
</g>
<!-- Node12 -->
<g id="node12" class="node">
<title>Node12</title>
<g id="a_node12"><a xlink:href="classQtProjectWizard.html#a8bb797436f035c70437f9bfac60d8b6f" target="_top" xlink:title=" ">
<polygon fill="white" stroke="#666666" points="800,-539 657,-539 657,-509 800,-509 800,-539"/>
<text text-anchor="start" x="665" y="-527" font-family="Helvetica,sans-Serif" font-size="10.00">QtProjectWizard::selected</text>
<text text-anchor="middle" x="728.5" y="-516" font-family="Helvetica,sans-Serif" font-size="10.00">ProjectType</text>
</a>
</g>
</g>
<!-- Node11&#45;&gt;Node12 -->
<g id="edge12" class="edge">
<title>Node11&#45;&gt;Node12</title>
<path fill="none" stroke="#63b8ff" d="M851.67,-517.33C834.59,-517.17 816.88,-517.25 800.42,-517.58"/>
<polygon fill="#63b8ff" stroke="#63b8ff" points="851.24,-520.83 861.28,-517.45 851.33,-513.83 851.24,-520.83"/>
</g>
<!-- Node12&#45;&gt;Node7 -->
<g id="edge13" class="edge">
<title>Node12&#45;&gt;Node7</title>
<path fill="none" stroke="#63b8ff" d="M645.51,-532.16C628.34,-533.87 610.29,-535.67 593.32,-537.35"/>
<polygon fill="#63b8ff" stroke="#63b8ff" points="645.54,-535.67 655.15,-531.2 644.85,-528.71 645.54,-535.67"/>
</g>
<!-- Node12&#45;&gt;Node11 -->
<g id="edge14" class="edge">
<title>Node12&#45;&gt;Node11</title>
<path fill="none" stroke="#63b8ff" d="M811.88,-530.61C828.65,-530.82 846.23,-530.79 862.79,-530.53"/>
<polygon fill="#63b8ff" stroke="#63b8ff" points="811.99,-527.11 801.93,-530.45 811.87,-534.11 811.99,-527.11"/>
</g>
<!-- Node15 -->
<g id="node15" class="node">
<title>Node15</title>
<g id="a_node15"><a xlink:href="classQtMainWindow.html#a7c2acddade0de0d92cf150427e8b634e" target="_top" xlink:title=" ">
<polygon fill="white" stroke="#666666" points="1016,-482.5 865,-482.5 865,-463.5 1016,-463.5 1016,-482.5"/>
<text text-anchor="middle" x="940.5" y="-470.5" font-family="Helvetica,sans-Serif" font-size="10.00">QtMainWindow::newProject</text>
</a>
</g>
</g>
<!-- Node14&#45;&gt;Node15 -->
<g id="edge17" class="edge">
<title>Node14&#45;&gt;Node15</title>
<path fill="none" stroke="#63b8ff" d="M1074.06,-473C1054.94,-473 1034.89,-473 1016.35,-473"/>
<polygon fill="#63b8ff" stroke="#63b8ff" points="1074,-476.5 1084,-473 1074,-469.5 1074,-476.5"/>
</g>
<!-- Node16 -->
<g id="node16" class="node">
<title>Node16</title>
<g id="a_node16"><a xlink:href="classQtMainWindow.html#a664153854c294f6243af5fbb203687e1" target="_top" xlink:title=" ">
<polygon fill="white" stroke="#666666" points="392,-453.5 207,-453.5 207,-434.5 392,-434.5 392,-453.5"/>
<text text-anchor="middle" x="299.5" y="-441.5" font-family="Helvetica,sans-Serif" font-size="10.00">QtMainWindow::setupProjectMenu</text>
</a>
</g>
</g>
<!-- Node15&#45;&gt;Node16 -->
<g id="edge18" class="edge">
<title>Node15&#45;&gt;Node16</title>
<path fill="none" stroke="#63b8ff" d="M853.37,-474.26C751.59,-475.03 577.18,-474.09 428,-462 405.94,-460.21 381.88,-457.12 360.65,-453.99"/>
<polygon fill="#63b8ff" stroke="#63b8ff" points="853.33,-477.76 863.3,-474.18 853.27,-470.76 853.33,-477.76"/>
</g>
<!-- Node18 -->
<g id="node18" class="node">
<title>Node18</title>
<g id="a_node18"><a xlink:href="classQtMainWindow.html#a404ebb484bf058583023f652765ec5b2" target="_top" xlink:title=" ">
<polygon fill="white" stroke="#666666" points="818,-452.5 639,-452.5 639,-433.5 818,-433.5 818,-452.5"/>
<text text-anchor="middle" x="728.5" y="-440.5" font-family="Helvetica,sans-Serif" font-size="10.00">QtMainWindow::showStartScreen</text>
</a>
</g>
</g>
<!-- Node15&#45;&gt;Node18 -->
<g id="edge20" class="edge">
<title>Node15&#45;&gt;Node18</title>
<path fill="none" stroke="#63b8ff" d="M858.3,-461.4C838.89,-458.63 818.33,-455.69 799.48,-453"/>
<polygon fill="#63b8ff" stroke="#63b8ff" points="857.68,-464.85 868.07,-462.8 858.67,-457.92 857.68,-464.85"/>
</g>
<!-- Node17 -->
<g id="node17" class="node">
<title>Node17</title>
<g id="a_node17"><a xlink:href="classQtMainWindow.html#ab526da2f9eb598fdbee15a62a4323ad0" target="_top" xlink:title=" ">
<polygon fill="white" stroke="#666666" points="171,-359.5 0,-359.5 0,-340.5 171,-340.5 171,-359.5"/>
<text text-anchor="middle" x="85.5" y="-347.5" font-family="Helvetica,sans-Serif" font-size="10.00">QtMainWindow::QtMainWindow</text>
</a>
</g>
</g>
<!-- Node16&#45;&gt;Node17 -->
<g id="edge19" class="edge">
<title>Node16&#45;&gt;Node17</title>
<path fill="none" stroke="#63b8ff" d="M221.61,-431.06C216.61,-429.55 211.7,-427.87 207,-426 164.02,-408.91 119.53,-376.24 98.68,-359.86"/>
<polygon fill="#63b8ff" stroke="#63b8ff" points="220.64,-434.42 231.21,-433.7 222.5,-427.67 220.64,-434.42"/>
</g>
<!-- Node19 -->
<g id="node19" class="node">
<title>Node19</title>
<g id="a_node19"><a xlink:href="classQtMainWindow.html#aa58fe1b13bce5824a67d5084087b9670" target="_top" xlink:title=" ">
<polygon fill="white" stroke="#666666" points="593.5,-452.5 437.5,-452.5 437.5,-433.5 593.5,-433.5 593.5,-452.5"/>
<text text-anchor="middle" x="515.5" y="-440.5" font-family="Helvetica,sans-Serif" font-size="10.00">QtMainWindow::closeProject</text>
</a>
</g>
</g>
<!-- Node18&#45;&gt;Node19 -->
<g id="edge21" class="edge">
<title>Node18&#45;&gt;Node19</title>
<path fill="none" stroke="#63b8ff" d="M627.41,-443C616.15,-443 604.81,-443 593.89,-443"/>
<polygon fill="#63b8ff" stroke="#63b8ff" points="627.12,-446.5 637.11,-443 627.11,-439.5 627.12,-446.5"/>
</g>
<!-- Node20 -->
<g id="node20" class="node">
<title>Node20</title>
<g id="a_node20"><a xlink:href="classQtMainWindow.html#a5a89659db627ceb71914275b5bbdd1eb" target="_top" xlink:title=" ">
<polygon fill="white" stroke="#666666" points="594,-415.5 437,-415.5 437,-396.5 594,-396.5 594,-415.5"/>
<text text-anchor="middle" x="515.5" y="-403.5" font-family="Helvetica,sans-Serif" font-size="10.00">QtMainWindow::loadWindow</text>
</a>
</g>
</g>
<!-- Node18&#45;&gt;Node20 -->
<g id="edge23" class="edge">
<title>Node18&#45;&gt;Node20</title>
<path fill="none" stroke="#63b8ff" d="M659.45,-431.07C631.68,-426.2 599.93,-420.63 573.42,-415.98"/>
<polygon fill="#63b8ff" stroke="#63b8ff" points="658.73,-434.49 669.19,-432.77 659.94,-427.6 658.73,-434.49"/>
</g>
<!-- Node22 -->
<g id="node22" class="node">
<title>Node22</title>
<g id="a_node22"><a xlink:href="classQtMainWindow.html#a304f403073f323be6d6a388bb5c64b65" target="_top" xlink:title=" ">
<polygon fill="white" stroke="#666666" points="603,-378.5 428,-378.5 428,-359.5 603,-359.5 603,-378.5"/>
<text text-anchor="middle" x="515.5" y="-366.5" font-family="Helvetica,sans-Serif" font-size="10.00">QtMainWindow::setupViewMenu</text>
</a>
</g>
</g>
<!-- Node18&#45;&gt;Node22 -->
<g id="edge25" class="edge">
<title>Node18&#45;&gt;Node22</title>
<path fill="none" stroke="#63b8ff" d="M647.33,-429.05C644.47,-427.81 641.68,-426.46 639,-425 618.86,-414 623.05,-399.15 603,-388 596.42,-384.34 589.18,-381.38 581.79,-378.99"/>
<polygon fill="#63b8ff" stroke="#63b8ff" points="645.93,-432.26 656.53,-432.53 648.41,-425.72 645.93,-432.26"/>
</g>
<!-- Node19&#45;&gt;Node16 -->
<g id="edge22" class="edge">
<title>Node19&#45;&gt;Node16</title>
<path fill="none" stroke="#63b8ff" d="M425.8,-443.41C414.72,-443.47 403.36,-443.52 392.23,-443.57"/>
<polygon fill="#63b8ff" stroke="#63b8ff" points="425.74,-446.91 435.73,-443.37 425.71,-439.91 425.74,-446.91"/>
</g>
<!-- Node21 -->
<g id="node21" class="node">
<title>Node21</title>
<g id="a_node21"><a xlink:href="classQtMainView.html#a245543879da96e4e8a8f30c1724014de" target="_top" xlink:title=" ">
<polygon fill="white" stroke="#666666" points="370.5,-416.5 228.5,-416.5 228.5,-397.5 370.5,-397.5 370.5,-416.5"/>
<text text-anchor="middle" x="299.5" y="-404.5" font-family="Helvetica,sans-Serif" font-size="10.00">QtMainView::loadWindow</text>
</a>
</g>
</g>
<!-- Node20&#45;&gt;Node21 -->
<g id="edge24" class="edge">
<title>Node20&#45;&gt;Node21</title>
<path fill="none" stroke="#63b8ff" d="M425.16,-406.42C407.03,-406.5 388.21,-406.59 370.85,-406.67"/>
<polygon fill="#63b8ff" stroke="#63b8ff" points="425.14,-409.92 435.12,-406.37 425.11,-402.92 425.14,-409.92"/>
</g>
<!-- Node22&#45;&gt;Node17 -->
<g id="edge26" class="edge">
<title>Node22&#45;&gt;Node17</title>
<path fill="none" stroke="#63b8ff" d="M416.45,-364.65C342.47,-361.36 241.99,-356.9 171.42,-353.77"/>
<polygon fill="#63b8ff" stroke="#63b8ff" points="415.97,-368.13 426.12,-365.08 416.28,-361.14 415.97,-368.13"/>
</g>
<!-- Node24 -->
<g id="node24" class="node">
<title>Node24</title>
<g id="a_node24"><a xlink:href="classQtMainWindow.html#a87a611d58affd410bec964d84e0d5112" target="_top" xlink:title=" ">
<polygon fill="white" stroke="#666666" points="1016,-429 865,-429 865,-399 1016,-399 1016,-429"/>
<text text-anchor="start" x="873" y="-417" font-family="Helvetica,sans-Serif" font-size="10.00">QtMainWindow::newProject</text>
<text text-anchor="middle" x="940.5" y="-406" font-family="Helvetica,sans-Serif" font-size="10.00">FromCDB</text>
</a>
</g>
</g>
<!-- Node23&#45;&gt;Node24 -->
<g id="edge28" class="edge">
<title>Node23&#45;&gt;Node24</title>
<path fill="none" stroke="#63b8ff" d="M1074.06,-423.6C1054.94,-422.21 1034.89,-420.76 1016.35,-419.42"/>
<polygon fill="#63b8ff" stroke="#63b8ff" points="1073.78,-427.09 1084.01,-424.32 1074.28,-420.1 1073.78,-427.09"/>
</g>
<!-- Node25 -->
<g id="node25" class="node">
<title>Node25</title>
<g id="a_node25"><a xlink:href="classQtMainView.html#aaf1c504629c466f7d92882fd65916ffc" target="_top" xlink:title=" ">
<polygon fill="white" stroke="#666666" points="807.5,-415.5 649.5,-415.5 649.5,-396.5 807.5,-396.5 807.5,-415.5"/>
<text text-anchor="middle" x="728.5" y="-403.5" font-family="Helvetica,sans-Serif" font-size="10.00">QtMainView::handleMessage</text>
</a>
</g>
</g>
<!-- Node24&#45;&gt;Node25 -->
<g id="edge29" class="edge">
<title>Node24&#45;&gt;Node25</title>
<path fill="none" stroke="#63b8ff" d="M853.23,-410.71C838.24,-410.14 822.72,-409.55 807.95,-408.99"/>
<polygon fill="#63b8ff" stroke="#63b8ff" points="852.94,-414.2 863.06,-411.09 853.2,-407.21 852.94,-414.2"/>
</g>
<!-- Node27 -->
<g id="node27" class="node">
<title>Node27</title>
<g id="a_node27"><a xlink:href="classQtMainWindow.html#ab9871250f6bae1a7f161788b2c797781" target="_top" xlink:title=" ">
<polygon fill="white" stroke="#666666" points="813.5,-359.5 643.5,-359.5 643.5,-340.5 813.5,-340.5 813.5,-359.5"/>
<text text-anchor="middle" x="728.5" y="-347.5" font-family="Helvetica,sans-Serif" font-size="10.00">QtMainWindow::setupEditMenu</text>
</a>
</g>
</g>
<!-- Node26&#45;&gt;Node27 -->
<g id="edge31" class="edge">
<title>Node26&#45;&gt;Node27</title>
<path fill="none" stroke="#63b8ff" d="M1071.13,-379.19C995.1,-372.7 887.74,-363.52 813.76,-357.2"/>
<polygon fill="#63b8ff" stroke="#63b8ff" points="1070.81,-382.68 1081.07,-380.04 1071.4,-375.7 1070.81,-382.68"/>
</g>
<!-- Node27&#45;&gt;Node17 -->
<g id="edge32" class="edge">
<title>Node27&#45;&gt;Node17</title>
<path fill="none" stroke="#63b8ff" d="M631.62,-350C506.81,-350 290.57,-350 171.4,-350"/>
<polygon fill="#63b8ff" stroke="#63b8ff" points="631.53,-353.5 641.53,-350 631.53,-346.5 631.53,-353.5"/>
</g>
<!-- Node31 -->
<g id="node31" class="node">
<title>Node31</title>
<g id="a_node31"><a xlink:href="classQtMainWindow.html#ab225e8eeed9eae85d5ab3748c1d17903" target="_top" xlink:title=" ">
<polygon fill="white" stroke="#666666" points="1027,-246.5 854,-246.5 854,-227.5 1027,-227.5 1027,-246.5"/>
<text text-anchor="middle" x="940.5" y="-234.5" font-family="Helvetica,sans-Serif" font-size="10.00">QtMainWindow::setupHelpMenu</text>
</a>
</g>
</g>
<!-- Node30&#45;&gt;Node31 -->
<g id="edge36" class="edge">
<title>Node30&#45;&gt;Node31</title>
<path fill="none" stroke="#63b8ff" d="M1067.99,-237C1054.45,-237 1040.59,-237 1027.24,-237"/>
<polygon fill="#63b8ff" stroke="#63b8ff" points="1067.75,-240.5 1077.75,-237 1067.75,-233.5 1067.75,-240.5"/>
</g>
<!-- Node31&#45;&gt;Node17 -->
<g id="edge37" class="edge">
<title>Node31&#45;&gt;Node17</title>
<path fill="none" stroke="#63b8ff" d="M852.95,-248.47C685.53,-270.64 319.9,-319.08 161.81,-340.02"/>
<polygon fill="#63b8ff" stroke="#63b8ff" points="853.22,-251.96 862.68,-247.18 852.3,-245.02 853.22,-251.96"/>
</g>
<!-- Node32&#45;&gt;Node31 -->
<g id="edge39" class="edge">
<title>Node32&#45;&gt;Node31</title>
<path fill="none" stroke="#63b8ff" d="M1098.63,-206.13C1086.78,-208.4 1074.51,-210.76 1063,-213 1039.57,-217.55 1013.62,-222.67 991.73,-227"/>
<polygon fill="#63b8ff" stroke="#63b8ff" points="1099.17,-209.6 1108.33,-204.28 1097.85,-202.72 1099.17,-209.6"/>
</g>
<!-- Node35 -->
<g id="node35" class="node">
<title>Node35</title>
<g id="a_node35"><a xlink:href="classQtBookmarkView.html#ace17bd707600267bc2ddfd40e98a0b4a" target="_top" xlink:title=" ">
<polygon fill="white" stroke="#666666" points="1263,-117.5 1064,-117.5 1064,-98.5 1263,-98.5 1263,-117.5"/>
<text text-anchor="middle" x="1163.5" y="-105.5" font-family="Helvetica,sans-Serif" font-size="10.00">QtBookmarkView::displayBookmarks</text>
</a>
</g>
</g>
<!-- Node34&#45;&gt;Node35 -->
<g id="edge42" class="edge">
<title>Node34&#45;&gt;Node35</title>
<path fill="none" stroke="#63b8ff" d="M1288.31,-108.61C1280.1,-108.57 1271.68,-108.53 1263.27,-108.49"/>
<polygon fill="#63b8ff" stroke="#63b8ff" points="1288.21,-112.11 1298.23,-108.66 1288.25,-105.11 1288.21,-112.11"/>
</g>
<!-- Node37 -->
<g id="node37" class="node">
<title>Node37</title>
<g id="a_node37"><a xlink:href="classQtBookmarkView.html#a3ae56c9f3a6c0ba8aff5a29cc55d3383" target="_top" xlink:title=" ">
<polygon fill="white" stroke="#666666" points="1260.5,-78 1066.5,-78 1066.5,-48 1260.5,-48 1260.5,-78"/>
<text text-anchor="start" x="1074.5" y="-66" font-family="Helvetica,sans-Serif" font-size="10.00">QtBookmarkView::displayBookmark</text>
<text text-anchor="middle" x="1163.5" y="-55" font-family="Helvetica,sans-Serif" font-size="10.00">Creator</text>
</a>
</g>
</g>
<!-- Node36&#45;&gt;Node37 -->
<g id="edge44" class="edge">
<title>Node36&#45;&gt;Node37</title>
<path fill="none" stroke="#63b8ff" d="M1290.19,-61.75C1280.62,-61.85 1270.72,-61.95 1260.88,-62.04"/>
<polygon fill="#63b8ff" stroke="#63b8ff" points="1290.21,-65.25 1300.18,-61.65 1290.14,-58.25 1290.21,-65.25"/>
</g>
<!-- Node38 -->
<g id="node38" class="node">
<title>Node38</title>
<g id="a_node38"><a xlink:href="classQtBookmarkView.html#ad8fcfeeeb36cf61846c5481f05fe1138" target="_top" xlink:title=" ">
<polygon fill="white" stroke="#666666" points="1260.5,-30 1066.5,-30 1066.5,0 1260.5,0 1260.5,-30"/>
<text text-anchor="start" x="1074.5" y="-18" font-family="Helvetica,sans-Serif" font-size="10.00">QtBookmarkView::displayBookmark</text>
<text text-anchor="middle" x="1163.5" y="-7" font-family="Helvetica,sans-Serif" font-size="10.00">Editor</text>
</a>
</g>
</g>
<!-- Node36&#45;&gt;Node38 -->
<g id="edge45" class="edge">
<title>Node36&#45;&gt;Node38</title>
<path fill="none" stroke="#63b8ff" d="M1290.61,-43.79C1271.5,-39.43 1251.08,-34.77 1232.37,-30.49"/>
<polygon fill="#63b8ff" stroke="#63b8ff" points="1289.69,-47.17 1300.21,-45.98 1291.24,-40.34 1289.69,-47.17"/>
</g>
</g>
</svg>
