<?xml version="1.0" encoding="UTF-8" standalone="no"?>
<!DOCTYPE svg PUBLIC "-//W3C//DTD SVG 1.1//EN"
 "http://www.w3.org/Graphics/SVG/1.1/DTD/svg11.dtd">
<!-- Generated by graphviz version 7.1.0 (0)
 -->
<!-- Title: QtCodeArea::copySelection Pages: 1 -->
<svg width="366pt" height="64pt"
 viewBox="0.00 0.00 366.00 64.00" xmlns="http://www.w3.org/2000/svg" xmlns:xlink="http://www.w3.org/1999/xlink">
<g id="graph0" class="graph" transform="scale(1 1) rotate(0) translate(4 60)">
<title>QtCodeArea::copySelection</title>
<!-- Node1 -->
<g id="node1" class="node">
<title>Node1</title>
<g id="a_node1"><a xlink:title=" ">
<polygon fill="#999999" stroke="#666666" points="358,-37 209,-37 209,-18 358,-18 358,-37"/>
<text text-anchor="middle" x="283.5" y="-25" font-family="Helvetica,sans-Serif" font-size="10.00">QtCodeArea::copySelection</text>
</a>
</g>
</g>
<!-- Node2 -->
<g id="node2" class="node">
<title>Node2</title>
<g id="a_node2"><a xlink:href="classQtCodeSnippet.html#acb410432b3717acc4861f39d4a528247" target="_top" xlink:title=" ">
<polygon fill="white" stroke="#666666" points="168.5,-56 4.5,-56 4.5,-37 168.5,-37 168.5,-56"/>
<text text-anchor="middle" x="86.5" y="-44" font-family="Helvetica,sans-Serif" font-size="10.00">QtCodeSnippet::copySelection</text>
</a>
</g>
</g>
<!-- Node1&#45;&gt;Node2 -->
<g id="edge1" class="edge">
<title>Node1&#45;&gt;Node2</title>
<path fill="none" stroke="#63b8ff" d="M197.17,-35.81C187.79,-36.73 178.26,-37.66 168.94,-38.56"/>
<polygon fill="#63b8ff" stroke="#63b8ff" points="197.38,-39.31 206.99,-34.86 196.7,-32.34 197.38,-39.31"/>
</g>
<!-- Node3 -->
<g id="node3" class="node">
<title>Node3</title>
<g id="a_node3"><a xlink:href="classQtCodeFileSingle.html#a140fc1ca89df11015ac7fac36dab7dae" target="_top" xlink:title=" ">
<polygon fill="white" stroke="#666666" points="173,-19 0,-19 0,0 173,0 173,-19"/>
<text text-anchor="middle" x="86.5" y="-7" font-family="Helvetica,sans-Serif" font-size="10.00">QtCodeFileSingle::copySelection</text>
</a>
</g>
</g>
<!-- Node1&#45;&gt;Node3 -->
<g id="edge2" class="edge">
<title>Node1&#45;&gt;Node3</title>
<path fill="none" stroke="#63b8ff" d="M197.3,-19.64C189.31,-18.9 181.21,-18.15 173.22,-17.41"/>
<polygon fill="#63b8ff" stroke="#63b8ff" points="196.71,-23.1 206.99,-20.53 197.36,-16.13 196.71,-23.1"/>
</g>
</g>
</svg>
