<?xml version="1.0" encoding="UTF-8" standalone="no"?>
<!DOCTYPE svg PUBLIC "-//W3C//DTD SVG 1.1//EN"
 "http://www.w3.org/Graphics/SVG/1.1/DTD/svg11.dtd">
<!-- Generated by graphviz version 9.0.0 (0)
 -->
<!-- Title: QtHistoryList Pages: 1 -->
<svg width="279pt" height="156pt"
 viewBox="0.00 0.00 278.50 156.00" xmlns="http://www.w3.org/2000/svg" xmlns:xlink="http://www.w3.org/1999/xlink">
<g id="graph0" class="graph" transform="scale(1 1) rotate(0) translate(4 152)">
<title>QtHistoryList</title>
<!-- Node1 -->
<g id="Node000001" class="node">
<title>Node1</title>
<g id="a_Node000001"><a xlink:title=" ">
<polygon fill="#999999" stroke="#666666" points="172.88,-20.75 93.12,-20.75 93.12,0 172.88,0 172.88,-20.75"/>
<text text-anchor="middle" x="133" y="-7.25" font-family="Helvetica,sans-Serif" font-size="10.00">QtHistoryList</text>
</a>
</g>
</g>
<!-- Node2 -->
<g id="Node000002" class="node">
<title>Node2</title>
<g id="a_Node000002"><a xlink:href="classQWidget.html" target="_top" xlink:title=" ">
<polygon fill="white" stroke="#666666" points="58,-90.25 0,-90.25 0,-69.5 58,-69.5 58,-90.25"/>
<text text-anchor="middle" x="29" y="-76.75" font-family="Helvetica,sans-Serif" font-size="10.00">QWidget</text>
</a>
</g>
</g>
<!-- Node2&#45;&gt;Node1 -->
<g id="edge1_Node000001_Node000002" class="edge">
<title>Node2&#45;&gt;Node1</title>
<g id="a_edge1_Node000001_Node000002"><a xlink:title=" ">
<path fill="none" stroke="#63b8ff" d="M53.53,-62.95C73.45,-50.02 100.92,-32.2 117.79,-21.25"/>
<polygon fill="#63b8ff" stroke="#63b8ff" points="51.65,-60 45.17,-68.38 55.46,-65.87 51.65,-60"/>
</a>
</g>
</g>
<!-- Node3 -->
<g id="Node000003" class="node">
<title>Node3</title>
<g id="a_Node000003"><a xlink:href="classQtHistoryListWidget.html" target="_top" xlink:title=" ">
<polygon fill="white" stroke="#666666" points="190.12,-90.25 75.88,-90.25 75.88,-69.5 190.12,-69.5 190.12,-90.25"/>
<text text-anchor="middle" x="133" y="-76.75" font-family="Helvetica,sans-Serif" font-size="10.00">QtHistoryListWidget</text>
</a>
</g>
</g>
<!-- Node3&#45;&gt;Node1 -->
<g id="edge2_Node000001_Node000003" class="edge">
<title>Node3&#45;&gt;Node1</title>
<g id="a_edge2_Node000001_Node000003"><a xlink:title=" ">
<path fill="none" stroke="#9a32cd" stroke-dasharray="5,2" d="M133,-58.07C133,-45.72 133,-30.65 133,-21.03"/>
<polygon fill="#9a32cd" stroke="#9a32cd" points="129.5,-57.69 133,-67.69 136.5,-57.69 129.5,-57.69"/>
</a>
</g>
<text text-anchor="middle" x="149.5" y="-42" font-family="Helvetica,sans-Serif" font-size="10.00" fill="grey"> m_list</text>
</g>
<!-- Node4 -->
<g id="Node000004" class="node">
<title>Node4</title>
<g id="a_Node000004"><a xlink:href="classQListWidget.html" target="_top" xlink:title=" ">
<polygon fill="white" stroke="#666666" points="170.62,-148 95.38,-148 95.38,-127.25 170.62,-127.25 170.62,-148"/>
<text text-anchor="middle" x="133" y="-134.5" font-family="Helvetica,sans-Serif" font-size="10.00">QListWidget</text>
</a>
</g>
</g>
<!-- Node4&#45;&gt;Node3 -->
<g id="edge3_Node000003_Node000004" class="edge">
<title>Node4&#45;&gt;Node3</title>
<g id="a_edge3_Node000003_Node000004"><a xlink:title=" ">
<path fill="none" stroke="#63b8ff" d="M133,-115.68C133,-107.02 133,-97.4 133,-90.47"/>
<polygon fill="#63b8ff" stroke="#63b8ff" points="129.5,-115.4 133,-125.4 136.5,-115.4 129.5,-115.4"/>
</a>
</g>
</g>
<!-- Node5 -->
<g id="Node000005" class="node">
<title>Node5</title>
<g id="a_Node000005"><a xlink:title=" ">
<polygon fill="white" stroke="#666666" points="252.25,-90.25 207.75,-90.25 207.75,-69.5 252.25,-69.5 252.25,-90.25"/>
<text text-anchor="middle" x="230" y="-76.75" font-family="Helvetica,sans-Serif" font-size="10.00">size_t</text>
</a>
</g>
</g>
<!-- Node5&#45;&gt;Node1 -->
<g id="edge4_Node000001_Node000005" class="edge">
<title>Node5&#45;&gt;Node1</title>
<g id="a_edge4_Node000001_Node000005"><a xlink:title=" ">
<path fill="none" stroke="#9a32cd" stroke-dasharray="5,2" d="M206.86,-62.77C188.3,-49.86 162.85,-32.15 147.19,-21.25"/>
<polygon fill="#9a32cd" stroke="#9a32cd" points="204.65,-65.5 214.86,-68.34 208.65,-59.75 204.65,-65.5"/>
</a>
</g>
<text text-anchor="middle" x="230.75" y="-42" font-family="Helvetica,sans-Serif" font-size="10.00" fill="grey"> m_currentIndex</text>
</g>
</g>
</svg>
