<?xml version="1.0" encoding="UTF-8" standalone="no"?>
<!DOCTYPE svg PUBLIC "-//W3C//DTD SVG 1.1//EN"
 "http://www.w3.org/Graphics/SVG/1.1/DTD/svg11.dtd">
<!-- Generated by graphviz version 7.1.0 (0)
 -->
<!-- Title: QtProjectWizardContentVS::populate Pages: 1 -->
<!--zoomable 210 -->
<svg id="main" version="1.1" xmlns="http://www.w3.org/2000/svg" xmlns:xlink="http://www.w3.org/1999/xlink" xml:space="preserve" onload="init(evt)">
<style type="text/css"><![CDATA[
.edge:hover path { stroke: red; }
.edge:hover polygon { stroke: red; fill: red; }
]]></style>
<script type="text/javascript"><![CDATA[
var edges = document.getElementsByTagName('g');
if (edges && edges.length) {
  for (var i=0;i<edges.length;i++) {
    if (edges[i].id.substr(0,4)=='edge') {
      edges[i].setAttribute('class','edge');
    }
  }
}
]]></script>
        <defs>
                <circle id="rim" cx="0" cy="0" r="7"/>
                <circle id="rim2" cx="0" cy="0" r="3.5"/>
                <g id="zoomPlus">
                        <use xlink:href="#rim" fill="#404040">
                                <set attributeName="fill" to="#808080" begin="zoomplus.mouseover" end="zoomplus.mouseout"/>
                        </use>
                        <path d="M-4,0h8M0,-4v8" fill="none" stroke="white" stroke-width="1.5" pointer-events="none"/>
                </g>
                <g id="zoomMin">
                        <use xlink:href="#rim" fill="#404040">
                                <set attributeName="fill" to="#808080" begin="zoomminus.mouseover" end="zoomminus.mouseout"/>
                        </use>
                        <path d="M-4,0h8" fill="none" stroke="white" stroke-width="1.5" pointer-events="none"/>
                </g>
                <g id="dirArrow">
                        <path fill="none" stroke="white" stroke-width="1.5" d="M0,-3.0v7 M-2.5,-0.5L0,-3.0L2.5,-0.5"/>
                </g>
               <g id="resetDef">
                       <use xlink:href="#rim2" fill="#404040">
                               <set attributeName="fill" to="#808080" begin="reset.mouseover" end="reset.mouseout"/>
                       </use>
               </g>
        </defs>

<script type="text/javascript">
var viewWidth = 934;
var viewHeight = 210;
var sectionId = 'dynsection-22';
</script>
<script xlink:href="svgpan.js"/>
<svg id="graph" class="graph">
<g id="viewport">
<title>QtProjectWizardContentVS::populate</title>
<!-- Node1 -->
<g id="node1" class="node">
<title>Node1</title>
<g id="a_node1"><a xlink:title=" ">
<polygon fill="#999999" stroke="#666666" points="146,-111 0,-111 0,-81 146,-81 146,-111"/>
<text text-anchor="start" x="8" y="-99" font-family="Helvetica,sans-Serif" font-size="10.00">QtProjectWizardContentVS</text>
<text text-anchor="middle" x="73" y="-88" font-family="Helvetica,sans-Serif" font-size="10.00">::populate</text>
</a>
</g>
</g>
<!-- Node2 -->
<g id="node2" class="node">
<title>Node2</title>
<g id="a_node2"><a xlink:href="classQtProjectWizardContent.html#a3c1c6483d8552f9e5988c1b3dcc4ff3e" target="_top" xlink:title=" ">
<polygon fill="white" stroke="#666666" points="329.5,-202 195.5,-202 195.5,-172 329.5,-172 329.5,-202"/>
<text text-anchor="start" x="203.5" y="-190" font-family="Helvetica,sans-Serif" font-size="10.00">QtProjectWizardContent</text>
<text text-anchor="middle" x="262.5" y="-179" font-family="Helvetica,sans-Serif" font-size="10.00">::addHelpButton</text>
</a>
</g>
</g>
<!-- Node1&#45;&gt;Node2 -->
<g id="edge1" class="edge">
<title>Node1&#45;&gt;Node2</title>
<path fill="none" stroke="#63b8ff" d="M95,-111.35C116.11,-126.21 150.03,-148.56 182,-163 185.7,-164.67 189.55,-166.26 193.47,-167.78"/>
<polygon fill="#63b8ff" stroke="#63b8ff" points="191.93,-170.94 202.53,-171.08 194.33,-164.37 191.93,-170.94"/>
</g>
<!-- Node4 -->
<g id="node4" class="node">
<title>Node4</title>
<g id="a_node4"><a xlink:href="classQtProjectWizardContent.html#ab1548e716e9d5eb86619c9144244232a" target="_top" xlink:title=" ">
<polygon fill="white" stroke="#666666" points="329.5,-154 195.5,-154 195.5,-124 329.5,-124 329.5,-154"/>
<text text-anchor="start" x="203.5" y="-142" font-family="Helvetica,sans-Serif" font-size="10.00">QtProjectWizardContent</text>
<text text-anchor="middle" x="262.5" y="-131" font-family="Helvetica,sans-Serif" font-size="10.00">::createFormLabel</text>
</a>
</g>
</g>
<!-- Node1&#45;&gt;Node4 -->
<g id="edge3" class="edge">
<title>Node1&#45;&gt;Node4</title>
<path fill="none" stroke="#63b8ff" d="M141.43,-111.46C155.26,-114.64 169.93,-118 184.08,-121.25"/>
<polygon fill="#63b8ff" stroke="#63b8ff" points="183.29,-124.66 193.82,-123.48 184.86,-117.83 183.29,-124.66"/>
</g>
<!-- Node5 -->
<g id="node5" class="node">
<title>Node5</title>
<g id="a_node5"><a xlink:href="classQtProjectWizardContent.html#a47454b8e21acec683fb55b4fbdea601e" target="_top" xlink:title=" ">
<polygon fill="white" stroke="#666666" points="519.5,-132 385.5,-132 385.5,-102 519.5,-102 519.5,-132"/>
<text text-anchor="start" x="393.5" y="-120" font-family="Helvetica,sans-Serif" font-size="10.00">QtProjectWizardContent</text>
<text text-anchor="middle" x="452.5" y="-109" font-family="Helvetica,sans-Serif" font-size="10.00">::createFormSubLabel</text>
</a>
</g>
</g>
<!-- Node1&#45;&gt;Node5 -->
<g id="edge5" class="edge">
<title>Node1&#45;&gt;Node5</title>
<path fill="none" stroke="#63b8ff" d="M146.34,-100.02C211.51,-103.65 307.05,-108.96 373.81,-112.68"/>
<polygon fill="#63b8ff" stroke="#63b8ff" points="373.41,-116.16 383.59,-113.22 373.8,-109.17 373.41,-116.16"/>
</g>
<!-- Node6 -->
<g id="node6" class="node">
<title>Node6</title>
<g id="a_node6"><a xlink:href="namespaceutility.html#ad4ac20d92ae79a8198c234470bb30cd6" target="_top" xlink:title=" ">
<polygon fill="white" stroke="#666666" points="343,-67.5 182,-67.5 182,-48.5 343,-48.5 343,-67.5"/>
<text text-anchor="middle" x="262.5" y="-55.5" font-family="Helvetica,sans-Serif" font-size="10.00">utility::getDocumentationLink</text>
</a>
</g>
</g>
<!-- Node1&#45;&gt;Node6 -->
<g id="edge6" class="edge">
<title>Node1&#45;&gt;Node6</title>
<path fill="none" stroke="#63b8ff" d="M146.49,-81.31C164.58,-77.64 183.79,-73.75 201.22,-70.22"/>
<polygon fill="#63b8ff" stroke="#63b8ff" points="201.8,-73.67 210.9,-68.25 200.4,-66.81 201.8,-73.67"/>
</g>
<!-- Node7 -->
<g id="node7" class="node">
<title>Node7</title>
<g id="a_node7"><a xlink:href="classQtProjectWizardContentVS.html#ada997d5a30f9017e622803a1e1cfb2b4" target="_top" xlink:title=" ">
<polygon fill="white" stroke="#666666" points="335.5,-30 189.5,-30 189.5,0 335.5,0 335.5,-30"/>
<text text-anchor="start" x="197.5" y="-18" font-family="Helvetica,sans-Serif" font-size="10.00">QtProjectWizardContentVS</text>
<text text-anchor="middle" x="262.5" y="-7" font-family="Helvetica,sans-Serif" font-size="10.00">::handleVSCDBClicked</text>
</a>
</g>
</g>
<!-- Node1&#45;&gt;Node7 -->
<g id="edge7" class="edge">
<title>Node1&#45;&gt;Node7</title>
<path fill="none" stroke="#63b8ff" d="M99.51,-80.74C120.98,-68.33 152.78,-50.99 182,-39 186.08,-37.32 190.33,-35.71 194.64,-34.15"/>
<polygon fill="#63b8ff" stroke="#63b8ff" points="195.68,-37.5 203.99,-30.94 193.4,-30.88 195.68,-37.5"/>
</g>
<!-- Node3 -->
<g id="node3" class="node">
<title>Node3</title>
<g id="a_node3"><a xlink:href="classQtHelpButton.html#ac57988f919fb62aca5b8ddbe51574ec7" target="_top" xlink:title=" ">
<polygon fill="white" stroke="#666666" points="526,-202 379,-202 379,-172 526,-172 526,-202"/>
<text text-anchor="start" x="387" y="-190" font-family="Helvetica,sans-Serif" font-size="10.00">QtHelpButton::setMessage</text>
<text text-anchor="middle" x="452.5" y="-179" font-family="Helvetica,sans-Serif" font-size="10.00">BoxParent</text>
</a>
</g>
</g>
<!-- Node2&#45;&gt;Node3 -->
<g id="edge2" class="edge">
<title>Node2&#45;&gt;Node3</title>
<path fill="none" stroke="#63b8ff" d="M329.78,-187C341.92,-187 354.74,-187 367.32,-187"/>
<polygon fill="#63b8ff" stroke="#63b8ff" points="367.27,-190.5 377.27,-187 367.27,-183.5 367.27,-190.5"/>
</g>
<!-- Node4&#45;&gt;Node5 -->
<g id="edge4" class="edge">
<title>Node4&#45;&gt;Node5</title>
<path fill="none" stroke="#63b8ff" d="M329.78,-131.24C344.1,-129.57 359.37,-127.78 374.07,-126.06"/>
<polygon fill="#63b8ff" stroke="#63b8ff" points="374.15,-129.58 383.68,-124.94 373.34,-122.62 374.15,-129.58"/>
</g>
<!-- Node8 -->
<g id="node8" class="node">
<title>Node8</title>
<g id="a_node8"><a xlink:href="classMessage.html#aa60564025ee950bf52c8deb6ac1bb843" target="_top" xlink:title=" ">
<polygon fill="white" stroke="#666666" points="506,-24.5 399,-24.5 399,-5.5 506,-5.5 506,-24.5"/>
<text text-anchor="middle" x="452.5" y="-12.5" font-family="Helvetica,sans-Serif" font-size="10.00">Message::dispatch</text>
</a>
</g>
</g>
<!-- Node7&#45;&gt;Node8 -->
<g id="edge8" class="edge">
<title>Node7&#45;&gt;Node8</title>
<path fill="none" stroke="#63b8ff" d="M335.92,-15C352.89,-15 370.86,-15 387.44,-15"/>
<polygon fill="#63b8ff" stroke="#63b8ff" points="387.16,-18.5 397.16,-15 387.16,-11.5 387.16,-18.5"/>
</g>
<!-- Node9 -->
<g id="node9" class="node">
<title>Node9</title>
<g id="a_node9"><a xlink:href="classMessageQueue.html#ae42d768ad6ffd631d627fe101e38f711" target="_top" xlink:title=" ">
<polygon fill="white" stroke="#666666" points="717,-24.5 562,-24.5 562,-5.5 717,-5.5 717,-24.5"/>
<text text-anchor="middle" x="639.5" y="-12.5" font-family="Helvetica,sans-Serif" font-size="10.00">MessageQueue::getInstance</text>
</a>
</g>
</g>
<!-- Node8&#45;&gt;Node9 -->
<g id="edge9" class="edge">
<title>Node8&#45;&gt;Node9</title>
<path fill="none" stroke="#63b8ff" d="M506.02,-15C519.81,-15 535.07,-15 550.18,-15"/>
<polygon fill="#63b8ff" stroke="#63b8ff" points="550.16,-18.5 560.16,-15 550.16,-11.5 550.16,-18.5"/>
</g>
<!-- Node10 -->
<g id="node10" class="node">
<title>Node10</title>
<g id="a_node10"><a xlink:href="classMessageQueue.html#a006069f4b83d2372c989c52784fac5de" target="_top" xlink:title=" ">
<polygon fill="white" stroke="#666666" points="926,-24.5 753,-24.5 753,-5.5 926,-5.5 926,-24.5"/>
<text text-anchor="middle" x="839.5" y="-12.5" font-family="Helvetica,sans-Serif" font-size="10.00">MessageQueue::MessageQueue</text>
</a>
</g>
</g>
<!-- Node9&#45;&gt;Node10 -->
<g id="edge10" class="edge">
<title>Node9&#45;&gt;Node10</title>
<path fill="none" stroke="#63b8ff" d="M717.34,-15C725.17,-15 733.19,-15 741.21,-15"/>
<polygon fill="#63b8ff" stroke="#63b8ff" points="740.99,-18.5 750.99,-15 740.99,-11.5 740.99,-18.5"/>
</g>
</g>
</svg>
        <g id="navigator" transform="translate(0 0)" fill="#404254">
                <rect fill="#f2f5e9" fill-opacity="0.5" stroke="#606060" stroke-width=".5" x="0" y="0" width="60" height="60"/>
                <use id="zoomplus" xlink:href="#zoomPlus" x="17" y="9" onmousedown="handleZoom(evt,'in')"/>
                <use id="zoomminus" xlink:href="#zoomMin" x="42" y="9" onmousedown="handleZoom(evt,'out')"/>
                <use id="reset" xlink:href="#resetDef" x="30" y="36" onmousedown="handleReset()"/>
                <g id="arrowUp" xlink:href="#dirArrow" transform="translate(30 24)" onmousedown="handlePan(0,-1)">
                  <use xlink:href="#rim" fill="#404040">
                        <set attributeName="fill" to="#808080" begin="arrowUp.mouseover" end="arrowUp.mouseout"/>
                  </use>
                  <path fill="none" stroke="white" stroke-width="1.5" d="M0,-3.0v7 M-2.5,-0.5L0,-3.0L2.5,-0.5"/>
                </g>
                <g id="arrowRight" xlink:href="#dirArrow" transform="rotate(90) translate(36 -43)" onmousedown="handlePan(1,0)">
                  <use xlink:href="#rim" fill="#404040">
                        <set attributeName="fill" to="#808080" begin="arrowRight.mouseover" end="arrowRight.mouseout"/>
                  </use>
                  <path fill="none" stroke="white" stroke-width="1.5" d="M0,-3.0v7 M-2.5,-0.5L0,-3.0L2.5,-0.5"/>
                </g>
                <g id="arrowDown" xlink:href="#dirArrow" transform="rotate(180) translate(-30 -48)" onmousedown="handlePan(0,1)">
                  <use xlink:href="#rim" fill="#404040">
                        <set attributeName="fill" to="#808080" begin="arrowDown.mouseover" end="arrowDown.mouseout"/>
                  </use>
                  <path fill="none" stroke="white" stroke-width="1.5" d="M0,-3.0v7 M-2.5,-0.5L0,-3.0L2.5,-0.5"/>
                </g>
                <g id="arrowLeft" xlink:href="#dirArrow" transform="rotate(270) translate(-36 17)" onmousedown="handlePan(-1,0)">
                  <use xlink:href="#rim" fill="#404040">
                        <set attributeName="fill" to="#808080" begin="arrowLeft.mouseover" end="arrowLeft.mouseout"/>
                  </use>
                  <path fill="none" stroke="white" stroke-width="1.5" d="M0,-3.0v7 M-2.5,-0.5L0,-3.0L2.5,-0.5"/>
                </g>
        </g>
        <svg viewBox="0 0 15 15" width="100%" height="30px" preserveAspectRatio="xMaxYMin meet">
         <g id="arrow_out" transform="scale(0.3 0.3)">
          <a xlink:href="classQtProjectWizardContentVS_a91e36c80d81991aa9928342575d28052_cgraph_org.svg" target="_base">
           <rect id="button" ry="5" rx="5" y="6" x="6" height="38" width="38"
                fill="#f2f5e9" fill-opacity="0.5" stroke="#606060" stroke-width="1.0"/>
           <path id="arrow"
             d="M 11.500037,31.436501 C 11.940474,20.09759 22.043105,11.32322 32.158766,21.979434 L 37.068811,17.246167 C 37.068811,17.246167 37.088388,32 37.088388,32 L 22.160133,31.978069 C 22.160133,31.978069 26.997745,27.140456 26.997745,27.140456 C 18.528582,18.264221 13.291696,25.230495 11.500037,31.436501 z"
             style="fill:#404040;"/>
          </a>
         </g>
        </svg>
</svg>
