<?xml version="1.0" encoding="UTF-8" standalone="no"?>
<!DOCTYPE svg PUBLIC "-//W3C//DTD SVG 1.1//EN"
 "http://www.w3.org/Graphics/SVG/1.1/DTD/svg11.dtd">
<!-- Generated by graphviz version 9.0.0 (0)
 -->
<!-- Title: PreprocessorCallbacks::onMacroUsage Pages: 1 -->
<svg width="301pt" height="132pt"
 viewBox="0.00 0.00 301.00 132.12" xmlns="http://www.w3.org/2000/svg" xmlns:xlink="http://www.w3.org/1999/xlink">
<g id="graph0" class="graph" transform="scale(1 1) rotate(0) translate(4 128.12)">
<title>PreprocessorCallbacks::onMacroUsage</title>
<!-- Node1 -->
<g id="Node000001" class="node">
<title>Node1</title>
<g id="a_Node000001"><a xlink:title=" ">
<polygon fill="#999999" stroke="#666666" points="126.25,-85.5 0,-85.5 0,-52 126.25,-52 126.25,-85.5"/>
<text text-anchor="start" x="8" y="-72" font-family="Helvetica,sans-Serif" font-size="10.00">PreprocessorCallbacks</text>
<text text-anchor="middle" x="63.12" y="-59.25" font-family="Helvetica,sans-Serif" font-size="10.00">::onMacroUsage</text>
</a>
</g>
</g>
<!-- Node2 -->
<g id="Node000002" class="node">
<title>Node2</title>
<g id="a_Node000002"><a xlink:href="namespaceutility.html#ae8e6193074d8d821d3da0ccf3b1893c9" target="_top" xlink:title=" ">
<polygon fill="white" stroke="#666666" points="293,-124.12 162.25,-124.12 162.25,-103.38 293,-103.38 293,-124.12"/>
<text text-anchor="middle" x="227.62" y="-110.62" font-family="Helvetica,sans-Serif" font-size="10.00">utility::decodeFromUtf8</text>
</a>
</g>
</g>
<!-- Node1&#45;&gt;Node2 -->
<g id="edge1_Node000001_Node000002" class="edge">
<title>Node1&#45;&gt;Node2</title>
<g id="a_edge1_Node000001_Node000002"><a xlink:title=" ">
<path fill="none" stroke="#63b8ff" d="M126.02,-85.89C142.78,-90.53 160.71,-95.5 176.72,-99.93"/>
<polygon fill="#63b8ff" stroke="#63b8ff" points="175.43,-103.2 186,-102.5 177.3,-96.46 175.43,-103.2"/>
</a>
</g>
</g>
<!-- Node3 -->
<g id="Node000003" class="node">
<title>Node3</title>
<g id="a_Node000003"><a xlink:href="classPreprocessorCallbacks.html#af44847d15ef4e1baa53a390ee268003e" target="_top" xlink:title=" ">
<polygon fill="white" stroke="#666666" points="290.75,-85.5 164.5,-85.5 164.5,-52 290.75,-52 290.75,-85.5"/>
<text text-anchor="start" x="172.5" y="-72" font-family="Helvetica,sans-Serif" font-size="10.00">PreprocessorCallbacks</text>
<text text-anchor="middle" x="227.62" y="-59.25" font-family="Helvetica,sans-Serif" font-size="10.00">::getParseLocation</text>
</a>
</g>
</g>
<!-- Node1&#45;&gt;Node3 -->
<g id="edge2_Node000001_Node000003" class="edge">
<title>Node1&#45;&gt;Node3</title>
<g id="a_edge2_Node000001_Node000003"><a xlink:title=" ">
<path fill="none" stroke="#63b8ff" d="M126.49,-68.75C135.08,-68.75 143.96,-68.75 152.73,-68.75"/>
<polygon fill="#63b8ff" stroke="#63b8ff" points="152.65,-72.25 162.65,-68.75 152.65,-65.25 152.65,-72.25"/>
</a>
</g>
</g>
<!-- Node4 -->
<g id="Node000004" class="node">
<title>Node4</title>
<g id="a_Node000004"><a xlink:href="classPreprocessorCallbacks.html#a0d80736c75d23c1a66489208cdb378a2" target="_top" xlink:title=" ">
<polygon fill="white" stroke="#666666" points="291.5,-33.5 163.75,-33.5 163.75,0 291.5,0 291.5,-33.5"/>
<text text-anchor="start" x="171.75" y="-20" font-family="Helvetica,sans-Serif" font-size="10.00">PreprocessorCallbacks</text>
<text text-anchor="middle" x="227.62" y="-7.25" font-family="Helvetica,sans-Serif" font-size="10.00">::isLocatedInProjectFile</text>
</a>
</g>
</g>
<!-- Node1&#45;&gt;Node4 -->
<g id="edge3_Node000001_Node000004" class="edge">
<title>Node1&#45;&gt;Node4</title>
<g id="a_edge3_Node000001_Node000004"><a xlink:title=" ">
<path fill="none" stroke="#63b8ff" d="M117.78,-51.58C131.99,-47.03 147.48,-42.08 162.19,-37.37"/>
<polygon fill="#63b8ff" stroke="#63b8ff" points="162.85,-40.83 171.3,-34.45 160.71,-34.17 162.85,-40.83"/>
</a>
</g>
</g>
</g>
</svg>
