<?xml version="1.0" encoding="UTF-8" standalone="no"?>
<!DOCTYPE svg PUBLIC "-//W3C//DTD SVG 1.1//EN"
 "http://www.w3.org/Graphics/SVG/1.1/DTD/svg11.dtd">
<!-- Generated by graphviz version 7.1.0 (0)
 -->
<!-- Title: FilePath::extension Pages: 1 -->
<!--zoomable 332 -->
<svg id="main" version="1.1" xmlns="http://www.w3.org/2000/svg" xmlns:xlink="http://www.w3.org/1999/xlink" xml:space="preserve" onload="init(evt)">
<style type="text/css"><![CDATA[
.edge:hover path { stroke: red; }
.edge:hover polygon { stroke: red; fill: red; }
]]></style>
<script type="text/javascript"><![CDATA[
var edges = document.getElementsByTagName('g');
if (edges && edges.length) {
  for (var i=0;i<edges.length;i++) {
    if (edges[i].id.substr(0,4)=='edge') {
      edges[i].setAttribute('class','edge');
    }
  }
}
]]></script>
        <defs>
                <circle id="rim" cx="0" cy="0" r="7"/>
                <circle id="rim2" cx="0" cy="0" r="3.5"/>
                <g id="zoomPlus">
                        <use xlink:href="#rim" fill="#404040">
                                <set attributeName="fill" to="#808080" begin="zoomplus.mouseover" end="zoomplus.mouseout"/>
                        </use>
                        <path d="M-4,0h8M0,-4v8" fill="none" stroke="white" stroke-width="1.5" pointer-events="none"/>
                </g>
                <g id="zoomMin">
                        <use xlink:href="#rim" fill="#404040">
                                <set attributeName="fill" to="#808080" begin="zoomminus.mouseover" end="zoomminus.mouseout"/>
                        </use>
                        <path d="M-4,0h8" fill="none" stroke="white" stroke-width="1.5" pointer-events="none"/>
                </g>
                <g id="dirArrow">
                        <path fill="none" stroke="white" stroke-width="1.5" d="M0,-3.0v7 M-2.5,-0.5L0,-3.0L2.5,-0.5"/>
                </g>
               <g id="resetDef">
                       <use xlink:href="#rim2" fill="#404040">
                               <set attributeName="fill" to="#808080" begin="reset.mouseover" end="reset.mouseout"/>
                       </use>
               </g>
        </defs>

<script type="text/javascript">
var viewWidth = 723;
var viewHeight = 332;
var sectionId = 'dynsection-11';
</script>
<script xlink:href="svgpan.js"/>
<svg id="graph" class="graph">
<g id="viewport">
<title>FilePath::extension</title>
<!-- Node1 -->
<g id="node1" class="node">
<title>Node1</title>
<g id="a_node1"><a xlink:title=" ">
<polygon fill="#999999" stroke="#666666" points="715,-201.5 606,-201.5 606,-182.5 715,-182.5 715,-201.5"/>
<text text-anchor="middle" x="660.5" y="-189.5" font-family="Helvetica,sans-Serif" font-size="10.00">FilePath::extension</text>
</a>
</g>
</g>
<!-- Node2 -->
<g id="node2" class="node">
<title>Node2</title>
<g id="a_node2"><a xlink:href="classQtProjectWizardContentPath.html#a101fa6aab89c6567d3bc3283f0254e88" target="_top" xlink:title=" ">
<polygon fill="white" stroke="#666666" points="567,-324 412,-324 412,-294 567,-294 567,-324"/>
<text text-anchor="start" x="420" y="-312" font-family="Helvetica,sans-Serif" font-size="10.00">QtProjectWizardContentPath</text>
<text text-anchor="middle" x="489.5" y="-301" font-family="Helvetica,sans-Serif" font-size="10.00">::check</text>
</a>
</g>
</g>
<!-- Node1&#45;&gt;Node2 -->
<g id="edge1" class="edge">
<title>Node1&#45;&gt;Node2</title>
<path fill="none" stroke="#63b8ff" d="M646.06,-210.93C630.19,-231.96 601.87,-265.51 570,-285 564.71,-288.23 558.96,-291.06 553.04,-293.52"/>
<polygon fill="#63b8ff" stroke="#63b8ff" points="648.83,-213.08 651.92,-202.95 643.18,-208.94 648.83,-213.08"/>
</g>
<!-- Node3 -->
<g id="node3" class="node">
<title>Node3</title>
<g id="a_node3"><a xlink:href="classQtApplication.html#a9abda00ee62a2975050fb91d6ba51680" target="_top" xlink:title="This virtual function receives events to an object and should return true if the event e was recogniz...">
<polygon fill="white" stroke="#666666" points="547.5,-275.5 431.5,-275.5 431.5,-256.5 547.5,-256.5 547.5,-275.5"/>
<text text-anchor="middle" x="489.5" y="-263.5" font-family="Helvetica,sans-Serif" font-size="10.00">QtApplication::event</text>
</a>
</g>
</g>
<!-- Node1&#45;&gt;Node3 -->
<g id="edge2" class="edge">
<title>Node1&#45;&gt;Node3</title>
<path fill="none" stroke="#63b8ff" d="M637.64,-208.63C620.18,-221.15 594.65,-237.84 570,-248 562.28,-251.18 553.9,-253.85 545.56,-256.08"/>
<polygon fill="#63b8ff" stroke="#63b8ff" points="639.7,-211.45 645.69,-202.71 635.56,-205.81 639.7,-211.45"/>
</g>
<!-- Node4 -->
<g id="node4" class="node">
<title>Node4</title>
<g id="a_node4"><a xlink:href="classQtGraphicsView.html#a85f2419a724f1870abea78483ac23eda" target="_top" xlink:title=" ">
<polygon fill="white" stroke="#666666" points="570,-238.5 409,-238.5 409,-219.5 570,-219.5 570,-238.5"/>
<text text-anchor="middle" x="489.5" y="-226.5" font-family="Helvetica,sans-Serif" font-size="10.00">QtGraphicsView::exportGraph</text>
</a>
</g>
</g>
<!-- Node1&#45;&gt;Node4 -->
<g id="edge3" class="edge">
<title>Node1&#45;&gt;Node4</title>
<path fill="none" stroke="#63b8ff" d="M603.08,-204.35C581.24,-209.13 556.58,-214.53 535.91,-219.06"/>
<polygon fill="#63b8ff" stroke="#63b8ff" points="603.71,-207.8 612.73,-202.24 602.22,-200.96 603.71,-207.8"/>
</g>
<!-- Node6 -->
<g id="node6" class="node">
<title>Node6</title>
<g id="a_node6"><a xlink:href="classFilePath.html#a71fdd7309df8e77a2a803d1078939e0e" target="_top" xlink:title=" ">
<polygon fill="white" stroke="#666666" points="552.5,-201.5 426.5,-201.5 426.5,-182.5 552.5,-182.5 552.5,-201.5"/>
<text text-anchor="middle" x="489.5" y="-189.5" font-family="Helvetica,sans-Serif" font-size="10.00">FilePath::hasExtension</text>
</a>
</g>
</g>
<!-- Node1&#45;&gt;Node6 -->
<g id="edge5" class="edge">
<title>Node1&#45;&gt;Node6</title>
<path fill="none" stroke="#63b8ff" d="M594.3,-192C580.65,-192 566.29,-192 552.75,-192"/>
<polygon fill="#63b8ff" stroke="#63b8ff" points="594.05,-195.5 604.05,-192 594.05,-188.5 594.05,-195.5"/>
</g>
<!-- Node7 -->
<g id="node7" class="node">
<title>Node7</title>
<g id="a_node7"><a xlink:href="classcommandline_1_1CommandLineParser.html#a2801ce70c0d52c37f46c725fa285fdca" target="_top" xlink:title=" ">
<polygon fill="white" stroke="#666666" points="569.5,-164 409.5,-164 409.5,-134 569.5,-134 569.5,-164"/>
<text text-anchor="start" x="417.5" y="-152" font-family="Helvetica,sans-Serif" font-size="10.00">commandline::CommandLine</text>
<text text-anchor="middle" x="489.5" y="-141" font-family="Helvetica,sans-Serif" font-size="10.00">Parser::processProjectfile</text>
</a>
</g>
</g>
<!-- Node1&#45;&gt;Node7 -->
<g id="edge6" class="edge">
<title>Node1&#45;&gt;Node7</title>
<path fill="none" stroke="#63b8ff" d="M609.34,-179.24C591.13,-174.6 570.36,-169.32 551.33,-164.48"/>
<polygon fill="#63b8ff" stroke="#63b8ff" points="608.28,-182.58 618.84,-181.65 610.01,-175.8 608.28,-182.58"/>
</g>
<!-- Node11 -->
<g id="node11" class="node">
<title>Node11</title>
<g id="a_node11"><a xlink:href="classFilePath.html#a772bffe4afbf4ff1c0934c24b608fec8" target="_top" xlink:title=" ">
<polygon fill="white" stroke="#666666" points="562,-110.5 417,-110.5 417,-91.5 562,-91.5 562,-110.5"/>
<text text-anchor="middle" x="489.5" y="-98.5" font-family="Helvetica,sans-Serif" font-size="10.00">FilePath::replaceExtension</text>
</a>
</g>
</g>
<!-- Node1&#45;&gt;Node11 -->
<g id="edge10" class="edge">
<title>Node1&#45;&gt;Node11</title>
<path fill="none" stroke="#63b8ff" d="M640.47,-174.61C623.2,-159.63 596.46,-138.37 570,-125 558.55,-119.21 545.45,-114.55 533.23,-110.93"/>
<polygon fill="#63b8ff" stroke="#63b8ff" points="638.09,-177.18 647.9,-181.19 642.73,-171.94 638.09,-177.18"/>
</g>
<!-- Node15 -->
<g id="node15" class="node">
<title>Node15</title>
<g id="a_node15"><a xlink:href="structCodeFileParams.html#ae112e8e8679e02e259983f12fc20bcc0" target="_top" xlink:title=" ">
<polygon fill="white" stroke="#666666" points="549,-73.5 430,-73.5 430,-54.5 549,-54.5 549,-73.5"/>
<text text-anchor="middle" x="489.5" y="-61.5" font-family="Helvetica,sans-Serif" font-size="10.00">CodeFileParams::sort</text>
</a>
</g>
</g>
<!-- Node1&#45;&gt;Node15 -->
<g id="edge14" class="edge">
<title>Node1&#45;&gt;Node15</title>
<path fill="none" stroke="#63b8ff" d="M648.79,-172.29C634.27,-147.51 605.99,-105.51 570,-83 563.62,-79.01 556.48,-75.86 549.16,-73.37"/>
<polygon fill="#63b8ff" stroke="#63b8ff" points="645.59,-173.74 653.56,-180.72 651.68,-170.29 645.59,-173.74"/>
</g>
<!-- Node5 -->
<g id="node5" class="node">
<title>Node5</title>
<g id="a_node5"><a xlink:href="classQtGraphicsView.html#ab69869837036049ee2a035a33e2bf7cc" target="_top" xlink:title=" ">
<polygon fill="white" stroke="#666666" points="373,-249.5 194,-249.5 194,-230.5 373,-230.5 373,-249.5"/>
<text text-anchor="middle" x="283.5" y="-237.5" font-family="Helvetica,sans-Serif" font-size="10.00">QtGraphicsView::QtGraphicsView</text>
</a>
</g>
</g>
<!-- Node4&#45;&gt;Node5 -->
<g id="edge4" class="edge">
<title>Node4&#45;&gt;Node5</title>
<path fill="none" stroke="#63b8ff" d="M397.48,-233.91C389.45,-234.34 381.33,-234.78 373.31,-235.21"/>
<polygon fill="#63b8ff" stroke="#63b8ff" points="397.44,-237.42 407.24,-233.38 397.07,-230.43 397.44,-237.42"/>
</g>
<!-- Node8 -->
<g id="node8" class="node">
<title>Node8</title>
<g id="a_node8"><a xlink:href="classcommandline_1_1CommandLineParser.html#a4d0e7c696b58bd001ca7822a0653d6f9" target="_top" xlink:title=" ">
<polygon fill="white" stroke="#666666" points="363.5,-212 203.5,-212 203.5,-182 363.5,-182 363.5,-212"/>
<text text-anchor="start" x="211.5" y="-200" font-family="Helvetica,sans-Serif" font-size="10.00">commandline::CommandLine</text>
<text text-anchor="middle" x="283.5" y="-189" font-family="Helvetica,sans-Serif" font-size="10.00">Parser::preparse</text>
</a>
</g>
</g>
<!-- Node7&#45;&gt;Node8 -->
<g id="edge7" class="edge">
<title>Node7&#45;&gt;Node8</title>
<path fill="none" stroke="#63b8ff" d="M411.72,-167.07C391.42,-171.84 369.69,-176.95 350.05,-181.58"/>
<polygon fill="#63b8ff" stroke="#63b8ff" points="412.42,-170.5 421.36,-164.8 410.82,-163.68 412.42,-170.5"/>
</g>
<!-- Node9 -->
<g id="node9" class="node">
<title>Node9</title>
<g id="a_node9"><a xlink:href="classcommandline_1_1CommandLineParser.html#ab8e657476b4fc73d2e6cc0b8f2b4b68a" target="_top" xlink:title=" ">
<polygon fill="white" stroke="#666666" points="363.5,-164 203.5,-164 203.5,-134 363.5,-134 363.5,-164"/>
<text text-anchor="start" x="211.5" y="-152" font-family="Helvetica,sans-Serif" font-size="10.00">commandline::CommandLine</text>
<text text-anchor="middle" x="283.5" y="-141" font-family="Helvetica,sans-Serif" font-size="10.00">Parser::setProjectFile</text>
</a>
</g>
</g>
<!-- Node7&#45;&gt;Node9 -->
<g id="edge8" class="edge">
<title>Node7&#45;&gt;Node9</title>
<path fill="none" stroke="#63b8ff" d="M397.78,-149C386.43,-149 374.89,-149 363.74,-149"/>
<polygon fill="#63b8ff" stroke="#63b8ff" points="397.53,-152.5 407.53,-149 397.53,-145.5 397.53,-152.5"/>
</g>
<!-- Node10 -->
<g id="node10" class="node">
<title>Node10</title>
<g id="a_node10"><a xlink:href="classcommandline_1_1CommandlineCommandIndex.html#a44893fef1e145652fccbb14009524cd0" target="_top" xlink:title=" ">
<polygon fill="white" stroke="#666666" points="158,-164 0,-164 0,-134 158,-134 158,-164"/>
<text text-anchor="start" x="8" y="-152" font-family="Helvetica,sans-Serif" font-size="10.00">commandline::Commandline</text>
<text text-anchor="middle" x="79" y="-141" font-family="Helvetica,sans-Serif" font-size="10.00">CommandIndex::parse</text>
</a>
</g>
</g>
<!-- Node9&#45;&gt;Node10 -->
<g id="edge9" class="edge">
<title>Node9&#45;&gt;Node10</title>
<path fill="none" stroke="#63b8ff" d="M191.54,-149C180.42,-149 169.14,-149 158.23,-149"/>
<polygon fill="#63b8ff" stroke="#63b8ff" points="191.53,-152.5 201.53,-149 191.53,-145.5 191.53,-152.5"/>
</g>
<!-- Node12 -->
<g id="node12" class="node">
<title>Node12</title>
<g id="a_node12"><a xlink:href="classProjectSettings.html#a49c2b62d02482f4ed22d5c7cfdd89832" target="_top" xlink:title=" ">
<polygon fill="white" stroke="#666666" points="364.5,-116 202.5,-116 202.5,-86 364.5,-86 364.5,-116"/>
<text text-anchor="start" x="210.5" y="-104" font-family="Helvetica,sans-Serif" font-size="10.00">ProjectSettings::getBookmark</text>
<text text-anchor="middle" x="283.5" y="-93" font-family="Helvetica,sans-Serif" font-size="10.00">DBFilePath</text>
</a>
</g>
</g>
<!-- Node11&#45;&gt;Node12 -->
<g id="edge11" class="edge">
<title>Node11&#45;&gt;Node12</title>
<path fill="none" stroke="#63b8ff" d="M405.44,-101C392.02,-101 378.16,-101 364.81,-101"/>
<polygon fill="#63b8ff" stroke="#63b8ff" points="405.06,-104.5 415.06,-101 405.06,-97.5 405.06,-104.5"/>
</g>
<!-- Node13 -->
<g id="node13" class="node">
<title>Node13</title>
<g id="a_node13"><a xlink:href="classProjectSettings.html#a1b8c6fe166226169d3831b4d825a5833" target="_top" xlink:title=" ">
<polygon fill="white" stroke="#666666" points="365.5,-67.5 201.5,-67.5 201.5,-48.5 365.5,-48.5 365.5,-67.5"/>
<text text-anchor="middle" x="283.5" y="-55.5" font-family="Helvetica,sans-Serif" font-size="10.00">ProjectSettings::getDBFilePath</text>
</a>
</g>
</g>
<!-- Node11&#45;&gt;Node13 -->
<g id="edge12" class="edge">
<title>Node11&#45;&gt;Node13</title>
<path fill="none" stroke="#63b8ff" d="M430.05,-88.68C398.94,-82.12 361.18,-74.16 331.91,-67.99"/>
<polygon fill="#63b8ff" stroke="#63b8ff" points="429.2,-92.08 439.7,-90.71 430.64,-85.23 429.2,-92.08"/>
</g>
<!-- Node14 -->
<g id="node14" class="node">
<title>Node14</title>
<g id="a_node14"><a xlink:href="classProjectSettings.html#aa173db11577b9da0ee7147b5b8e08303" target="_top" xlink:title=" ">
<polygon fill="white" stroke="#666666" points="352.5,-30 214.5,-30 214.5,0 352.5,0 352.5,-30"/>
<text text-anchor="start" x="222.5" y="-18" font-family="Helvetica,sans-Serif" font-size="10.00">ProjectSettings::getTemp</text>
<text text-anchor="middle" x="283.5" y="-7" font-family="Helvetica,sans-Serif" font-size="10.00">DBFilePath</text>
</a>
</g>
</g>
<!-- Node11&#45;&gt;Node14 -->
<g id="edge13" class="edge">
<title>Node11&#45;&gt;Node14</title>
<path fill="none" stroke="#63b8ff" d="M415.71,-86.67C413.4,-85.54 411.16,-84.32 409,-83 387.73,-70.01 393.92,-53.55 373,-40 366.7,-35.92 359.73,-32.5 352.55,-29.63"/>
<polygon fill="#63b8ff" stroke="#63b8ff" points="414.2,-89.83 424.78,-90.5 416.93,-83.39 414.2,-89.83"/>
</g>
</g>
</svg>
        <g id="navigator" transform="translate(0 0)" fill="#404254">
                <rect fill="#f2f5e9" fill-opacity="0.5" stroke="#606060" stroke-width=".5" x="0" y="0" width="60" height="60"/>
                <use id="zoomplus" xlink:href="#zoomPlus" x="17" y="9" onmousedown="handleZoom(evt,'in')"/>
                <use id="zoomminus" xlink:href="#zoomMin" x="42" y="9" onmousedown="handleZoom(evt,'out')"/>
                <use id="reset" xlink:href="#resetDef" x="30" y="36" onmousedown="handleReset()"/>
                <g id="arrowUp" xlink:href="#dirArrow" transform="translate(30 24)" onmousedown="handlePan(0,-1)">
                  <use xlink:href="#rim" fill="#404040">
                        <set attributeName="fill" to="#808080" begin="arrowUp.mouseover" end="arrowUp.mouseout"/>
                  </use>
                  <path fill="none" stroke="white" stroke-width="1.5" d="M0,-3.0v7 M-2.5,-0.5L0,-3.0L2.5,-0.5"/>
                </g>
                <g id="arrowRight" xlink:href="#dirArrow" transform="rotate(90) translate(36 -43)" onmousedown="handlePan(1,0)">
                  <use xlink:href="#rim" fill="#404040">
                        <set attributeName="fill" to="#808080" begin="arrowRight.mouseover" end="arrowRight.mouseout"/>
                  </use>
                  <path fill="none" stroke="white" stroke-width="1.5" d="M0,-3.0v7 M-2.5,-0.5L0,-3.0L2.5,-0.5"/>
                </g>
                <g id="arrowDown" xlink:href="#dirArrow" transform="rotate(180) translate(-30 -48)" onmousedown="handlePan(0,1)">
                  <use xlink:href="#rim" fill="#404040">
                        <set attributeName="fill" to="#808080" begin="arrowDown.mouseover" end="arrowDown.mouseout"/>
                  </use>
                  <path fill="none" stroke="white" stroke-width="1.5" d="M0,-3.0v7 M-2.5,-0.5L0,-3.0L2.5,-0.5"/>
                </g>
                <g id="arrowLeft" xlink:href="#dirArrow" transform="rotate(270) translate(-36 17)" onmousedown="handlePan(-1,0)">
                  <use xlink:href="#rim" fill="#404040">
                        <set attributeName="fill" to="#808080" begin="arrowLeft.mouseover" end="arrowLeft.mouseout"/>
                  </use>
                  <path fill="none" stroke="white" stroke-width="1.5" d="M0,-3.0v7 M-2.5,-0.5L0,-3.0L2.5,-0.5"/>
                </g>
        </g>
        <svg viewBox="0 0 15 15" width="100%" height="30px" preserveAspectRatio="xMaxYMin meet">
         <g id="arrow_out" transform="scale(0.3 0.3)">
          <a xlink:href="classFilePath_a5680e10d538e786339a4e6ad3c348298_icgraph_org.svg" target="_base">
           <rect id="button" ry="5" rx="5" y="6" x="6" height="38" width="38"
                fill="#f2f5e9" fill-opacity="0.5" stroke="#606060" stroke-width="1.0"/>
           <path id="arrow"
             d="M 11.500037,31.436501 C 11.940474,20.09759 22.043105,11.32322 32.158766,21.979434 L 37.068811,17.246167 C 37.068811,17.246167 37.088388,32 37.088388,32 L 22.160133,31.978069 C 22.160133,31.978069 26.997745,27.140456 26.997745,27.140456 C 18.528582,18.264221 13.291696,25.230495 11.500037,31.436501 z"
             style="fill:#404040;"/>
          </a>
         </g>
        </svg>
</svg>
