<?xml version="1.0" encoding="UTF-8" standalone="no"?>
<!DOCTYPE svg PUBLIC "-//W3C//DTD SVG 1.1//EN"
 "http://www.w3.org/Graphics/SVG/1.1/DTD/svg11.dtd">
<!-- Generated by graphviz version 9.0.0 (0)
 -->
<!-- Title: QtScreenSearchView::refreshView Pages: 1 -->
<!--zoomable 389 -->

<svg id="main" version="1.1" xmlns="http://www.w3.org/2000/svg" xmlns:xlink="http://www.w3.org/1999/xlink" xml:space="preserve" onload="init(evt)">
<style type="text/css"><![CDATA[
.node, .edge {opacity: 0.7;}
.node.selected, .edge.selected {opacity: 1;}
.edge:hover path { stroke: red; }
.edge:hover polygon { stroke: red; fill: red; }
]]></style>

<defs>
  <circle id="rim" cx="0" cy="0" r="7"/>
  <circle id="rim2" cx="0" cy="0" r="3.5"/>
  <g id="zoomPlus">
    <use xlink:href="#rim" fill="#404040"><set attributeName="fill" to="#808080" begin="zoomplus.mouseover" end="zoomplus.mouseout"/></use>
    <path d="M-4,0h8M0,-4v8" fill="none" stroke="white" stroke-width="1.5" pointer-events="none"/>
  </g>
  <g id="zoomMin">
    <use xlink:href="#rim" fill="#404040"><set attributeName="fill" to="#808080" begin="zoomminus.mouseover" end="zoomminus.mouseout"/></use>
    <path d="M-4,0h8" fill="none" stroke="white" stroke-width="1.5" pointer-events="none"/>
  </g>
  <g id="arrowUp" transform="translate(30 24)">
    <use xlink:href="#rim"/>
    <path pointer-events="none" fill="none" stroke="white" stroke-width="1.5" d="M0,-3.0v7 M-2.5,-0.5L0,-3.0L2.5,-0.5"/>
  </g>
  <g id="arrowRight" transform="rotate(90) translate(36 -43)">
    <use xlink:href="#rim"/>
    <path pointer-events="none" fill="none" stroke="white" stroke-width="1.5" d="M0,-3.0v7 M-2.5,-0.5L0,-3.0L2.5,-0.5"/>
  </g>
  <g id="arrowDown" transform="rotate(180) translate(-30 -48)">
    <use xlink:href="#rim"/>
    <path pointer-events="none" fill="none" stroke="white" stroke-width="1.5" d="M0,-3.0v7 M-2.5,-0.5L0,-3.0L2.5,-0.5"/>
  </g>
  <g id="arrowLeft" transform="rotate(270) translate(-36 17)">
    <use xlink:href="#rim"/>
    <path pointer-events="none" fill="none" stroke="white" stroke-width="1.5" d="M0,-3.0v7 M-2.5,-0.5L0,-3.0L2.5,-0.5"/>
  </g>
  <g id="resetDef">
    <use xlink:href="#rim2" fill="#404040"><set attributeName="fill" to="#808080" begin="reset.mouseover" end="reset.mouseout"/></use>
  </g>
</defs>
<script type="application/ecmascript">
var viewWidth = 880;
var viewHeight = 389;
var sectionId = 'dynsection-14';
</script>
<script type="application/ecmascript" xlink:href="svg.min.js"/>
<svg id="graph" class="graph">
<g id="viewport">
<title>QtScreenSearchView::refreshView</title>
<!-- Node1 -->
<g id="Node000001" class="node">
<title>Node1</title>
<g id="a_Node000001"><a xlink:title=" ">
<polygon fill="#999999" stroke="#666666" points="117.25,-233.12 0,-233.12 0,-199.62 117.25,-199.62 117.25,-233.12"/>
<text text-anchor="start" x="8" y="-219.62" font-family="Helvetica,sans-Serif" font-size="10.00">QtScreenSearchView</text>
<text text-anchor="middle" x="58.62" y="-206.88" font-family="Helvetica,sans-Serif" font-size="10.00">::refreshView</text>
</a>
</g>
</g>
<!-- Node2 -->
<g id="Node000002" class="node">
<title>Node2</title>
<g id="a_Node000002"><a xlink:href="classResourcePaths.html#aac268005efee61f8dcba454dd4e5a097" target="_top" xlink:title=" ">
<polygon fill="white" stroke="#666666" points="500.25,-361.75 307.25,-361.75 307.25,-341 500.25,-341 500.25,-361.75"/>
<text text-anchor="middle" x="403.75" y="-348.25" font-family="Helvetica,sans-Serif" font-size="10.00">ResourcePaths::getGuiDirectoryPath</text>
</a>
</g>
</g>
<!-- Node1&#45;&gt;Node2 -->
<g id="edge1_Node000001_Node000002" class="edge">
<title>Node1&#45;&gt;Node2</title>
<g id="a_edge1_Node000001_Node000002"><a xlink:title=" ">
<path fill="none" stroke="#63b8ff" d="M90.35,-233.45C136.25,-258.3 226.05,-304.41 307.25,-331.38 314.43,-333.76 322.02,-335.92 329.64,-337.87"/>
<polygon fill="#63b8ff" stroke="#63b8ff" points="328.8,-341.26 339.34,-340.2 330.44,-334.46 328.8,-341.26"/>
</a>
</g>
</g>
<!-- Node6 -->
<g id="Node000006" class="node">
<title>Node6</title>
<g id="a_Node000006"><a xlink:href="namespaceutility.html#a5bce25fae13f1edc02a4d8bdf06025e5" target="_top" xlink:title=" ">
<polygon fill="white" stroke="#666666" points="271.25,-207.75 153.25,-207.75 153.25,-187 271.25,-187 271.25,-207.75"/>
<text text-anchor="middle" x="212.25" y="-194.25" font-family="Helvetica,sans-Serif" font-size="10.00">utility::getStyleSheet</text>
</a>
</g>
</g>
<!-- Node1&#45;&gt;Node6 -->
<g id="edge5_Node000001_Node000006" class="edge">
<title>Node1&#45;&gt;Node6</title>
<g id="a_edge5_Node000001_Node000006"><a xlink:title=" ">
<path fill="none" stroke="#63b8ff" d="M117.38,-209.14C125.29,-208.15 133.47,-207.12 141.56,-206.11"/>
<polygon fill="#63b8ff" stroke="#63b8ff" points="141.91,-209.59 151.4,-204.87 141.04,-202.65 141.91,-209.59"/>
</a>
</g>
</g>
<!-- Node3 -->
<g id="Node000003" class="node">
<title>Node3</title>
<g id="a_Node000003"><a xlink:href="classFilePath.html#a1f9e209dcb9a8d2b3d39ec6cfdd5c17f" target="_top" xlink:title=" ">
<polygon fill="white" stroke="#666666" points="697.38,-341.75 577.12,-341.75 577.12,-321 697.38,-321 697.38,-341.75"/>
<text text-anchor="middle" x="637.25" y="-328.25" font-family="Helvetica,sans-Serif" font-size="10.00">FilePath::concatenate</text>
</a>
</g>
</g>
<!-- Node2&#45;&gt;Node3 -->
<g id="edge2_Node000002_Node000003" class="edge">
<title>Node2&#45;&gt;Node3</title>
<g id="a_edge2_Node000002_Node000003"><a xlink:title=" ">
<path fill="none" stroke="#63b8ff" d="M500.58,-343.1C522.31,-341.22 545,-339.26 565.48,-337.49"/>
<polygon fill="#63b8ff" stroke="#63b8ff" points="565.75,-340.98 575.42,-336.63 565.15,-334 565.75,-340.98"/>
</a>
</g>
</g>
<!-- Node5 -->
<g id="Node000005" class="node">
<title>Node5</title>
<g id="a_Node000005"><a xlink:href="classAppPath.html#afb2974614a9eee22c6f8a75fada9ac23" target="_top" xlink:title=" ">
<polygon fill="white" stroke="#666666" points="738.25,-380.75 536.25,-380.75 536.25,-360 738.25,-360 738.25,-380.75"/>
<text text-anchor="middle" x="637.25" y="-367.25" font-family="Helvetica,sans-Serif" font-size="10.00">AppPath::getSharedDataDirectoryPath</text>
</a>
</g>
</g>
<!-- Node2&#45;&gt;Node5 -->
<g id="edge4_Node000002_Node000005" class="edge">
<title>Node2&#45;&gt;Node5</title>
<g id="a_edge4_Node000002_Node000005"><a xlink:title=" ">
<path fill="none" stroke="#63b8ff" d="M500.58,-359.24C508.53,-359.89 516.6,-360.56 524.65,-361.22"/>
<polygon fill="#63b8ff" stroke="#63b8ff" points="524.24,-364.69 534.49,-362.02 524.81,-357.72 524.24,-364.69"/>
</a>
</g>
</g>
<!-- Node4 -->
<g id="Node000004" class="node">
<title>Node4</title>
<g id="a_Node000004"><a xlink:href="classFilePath.html#a544387c4aea50aec855062fd02e436ae" target="_top" xlink:title=" ">
<polygon fill="white" stroke="#666666" points="872,-341.75 774.25,-341.75 774.25,-321 872,-321 872,-341.75"/>
<text text-anchor="middle" x="823.12" y="-328.25" font-family="Helvetica,sans-Serif" font-size="10.00">FilePath::getPath</text>
</a>
</g>
</g>
<!-- Node3&#45;&gt;Node4 -->
<g id="edge3_Node000003_Node000004" class="edge">
<title>Node3&#45;&gt;Node4</title>
<g id="a_edge3_Node000003_Node000004"><a xlink:title=" ">
<path fill="none" stroke="#63b8ff" d="M697.7,-331.38C718.5,-331.38 741.85,-331.38 762.66,-331.38"/>
<polygon fill="#63b8ff" stroke="#63b8ff" points="762.41,-334.88 772.41,-331.38 762.41,-327.88 762.41,-334.88"/>
</a>
</g>
</g>
<!-- Node6&#45;&gt;Node2 -->
<g id="edge11_Node000006_Node000002" class="edge">
<title>Node6&#45;&gt;Node2</title>
<g id="a_edge11_Node000006_Node000002"><a xlink:title=" ">
<path fill="none" stroke="#63b8ff" d="M220.06,-208C239.52,-238.25 294.79,-323.16 307.25,-331.38 309.81,-333.06 312.49,-334.62 315.26,-336.04"/>
<polygon fill="#63b8ff" stroke="#63b8ff" points="313.66,-339.16 324.22,-340.03 316.51,-332.76 313.66,-339.16"/>
</a>
</g>
</g>
<!-- Node7 -->
<g id="Node000007" class="node">
<title>Node7</title>
<g id="a_Node000007"><a xlink:href="classTextAccess.html#a5155a7b9df2dcfd960d50f4961fb4936" target="_top" xlink:title=" ">
<polygon fill="white" stroke="#666666" points="477.75,-226.75 329.75,-226.75 329.75,-206 477.75,-206 477.75,-226.75"/>
<text text-anchor="middle" x="403.75" y="-213.25" font-family="Helvetica,sans-Serif" font-size="10.00">TextAccess::createFromFile</text>
</a>
</g>
</g>
<!-- Node6&#45;&gt;Node7 -->
<g id="edge6_Node000006_Node000007" class="edge">
<title>Node6&#45;&gt;Node7</title>
<g id="a_edge6_Node000006_Node000007"><a xlink:title=" ">
<path fill="none" stroke="#63b8ff" d="M271.65,-203.23C286.35,-204.7 302.43,-206.32 318.13,-207.89"/>
<polygon fill="#63b8ff" stroke="#63b8ff" points="317.67,-211.36 327.97,-208.88 318.37,-204.4 317.67,-211.36"/>
</a>
</g>
</g>
<!-- Node9 -->
<g id="Node000009" class="node">
<title>Node9</title>
<g id="a_Node000009"><a xlink:href="classFilePath.html#ae43df68f4d64aa712319fcebebf5236b" target="_top" xlink:title=" ">
<polygon fill="white" stroke="#666666" points="859.62,-274.75 786.62,-274.75 786.62,-254 859.62,-254 859.62,-274.75"/>
<text text-anchor="middle" x="823.12" y="-261.25" font-family="Helvetica,sans-Serif" font-size="10.00">FilePath::str</text>
</a>
</g>
</g>
<!-- Node6&#45;&gt;Node9 -->
<g id="edge18_Node000006_Node000009" class="edge">
<title>Node6&#45;&gt;Node9</title>
<g id="a_edge18_Node000006_Node000009"><a xlink:title=" ">
<path fill="none" stroke="#63b8ff" d="M235.94,-208.16C254.69,-216.68 282.19,-228.26 307.25,-235.38 492.29,-287.87 546.25,-285.78 738.25,-274.38 750.23,-273.66 763.12,-272.38 775.12,-270.97"/>
<polygon fill="#63b8ff" stroke="#63b8ff" points="775.29,-274.48 784.79,-269.78 774.44,-267.53 775.29,-274.48"/>
</a>
</g>
</g>
<!-- Node10 -->
<g id="Node000010" class="node">
<title>Node10</title>
<g id="a_Node000010"><a xlink:href="classFilePath.html#a989e098726c8387d4f4690bca3314ce8" target="_top" xlink:title=" ">
<polygon fill="white" stroke="#666666" points="863.75,-207.75 782.5,-207.75 782.5,-187 863.75,-187 863.75,-207.75"/>
<text text-anchor="middle" x="823.12" y="-194.25" font-family="Helvetica,sans-Serif" font-size="10.00">FilePath::wstr</text>
</a>
</g>
</g>
<!-- Node6&#45;&gt;Node10 -->
<g id="edge19_Node000006_Node000010" class="edge">
<title>Node6&#45;&gt;Node10</title>
<g id="a_edge19_Node000006_Node000010"><a xlink:title=" ">
<path fill="none" stroke="#63b8ff" d="M271.63,-197.38C390.36,-197.38 658.21,-197.38 770.77,-197.38"/>
<polygon fill="#63b8ff" stroke="#63b8ff" points="770.61,-200.88 780.61,-197.38 770.61,-193.88 770.61,-200.88"/>
</a>
</g>
</g>
<!-- Node12 -->
<g id="Node000012" class="node">
<title>Node12</title>
<g id="a_Node000012"><a xlink:href="classApplicationSettings.html#a59fd66f9eab421c8e7ea4da03c4b0d1e" target="_top" xlink:title=" ">
<polygon fill="white" stroke="#666666" points="459,-150.12 348.5,-150.12 348.5,-116.62 459,-116.62 459,-150.12"/>
<text text-anchor="start" x="356.5" y="-136.62" font-family="Helvetica,sans-Serif" font-size="10.00">ApplicationSettings</text>
<text text-anchor="middle" x="403.75" y="-123.88" font-family="Helvetica,sans-Serif" font-size="10.00">::getInstance</text>
</a>
</g>
</g>
<!-- Node6&#45;&gt;Node12 -->
<g id="edge12_Node000006_Node000012" class="edge">
<title>Node6&#45;&gt;Node12</title>
<g id="a_edge12_Node000006_Node000012"><a xlink:title=" ">
<path fill="none" stroke="#63b8ff" d="M243.24,-186.64C261.67,-180.1 285.78,-171.63 307.25,-164.38 317.24,-161 327.84,-157.49 338.21,-154.1"/>
<polygon fill="#63b8ff" stroke="#63b8ff" points="339.03,-157.51 347.45,-151.08 336.85,-150.86 339.03,-157.51"/>
</a>
</g>
</g>
<!-- Node14 -->
<g id="Node000014" class="node">
<title>Node14</title>
<g id="a_Node000014"><a xlink:href="classColorScheme.html#ab65eb4d23939345b1569002b38ed3caf" target="_top" xlink:title=" ">
<polygon fill="white" stroke="#666666" points="475.5,-98.75 332,-98.75 332,-78 475.5,-78 475.5,-98.75"/>
<text text-anchor="middle" x="403.75" y="-85.25" font-family="Helvetica,sans-Serif" font-size="10.00">ColorScheme::getInstance</text>
</a>
</g>
</g>
<!-- Node6&#45;&gt;Node14 -->
<g id="edge14_Node000006_Node000014" class="edge">
<title>Node6&#45;&gt;Node14</title>
<g id="a_edge14_Node000006_Node000014"><a xlink:title=" ">
<path fill="none" stroke="#63b8ff" d="M220.95,-186.77C235.49,-167.59 268.97,-127.3 307.25,-107.38 311.63,-105.1 316.25,-103.09 321,-101.32"/>
<polygon fill="#63b8ff" stroke="#63b8ff" points="321.74,-104.77 330.13,-98.3 319.54,-98.12 321.74,-104.77"/>
</a>
</g>
</g>
<!-- Node15 -->
<g id="Node000015" class="node">
<title>Node15</title>
<g id="a_Node000015"><a xlink:href="namespaceutility.html#a2701176803785cdbdc4e285f76d61011" target="_top" xlink:title=" ">
<polygon fill="white" stroke="#666666" points="454.12,-59.75 353.38,-59.75 353.38,-39 454.12,-39 454.12,-59.75"/>
<text text-anchor="middle" x="403.75" y="-46.25" font-family="Helvetica,sans-Serif" font-size="10.00">utility::getOsType</text>
</a>
</g>
</g>
<!-- Node6&#45;&gt;Node15 -->
<g id="edge15_Node000006_Node000015" class="edge">
<title>Node6&#45;&gt;Node15</title>
<g id="a_edge15_Node000006_Node000015"><a xlink:title=" ">
<path fill="none" stroke="#63b8ff" d="M217.78,-186.72C228.97,-161.79 260.42,-99.52 307.25,-69.38 317.61,-62.71 329.79,-58.21 341.93,-55.2"/>
<polygon fill="#63b8ff" stroke="#63b8ff" points="342.48,-58.66 351.52,-53.14 341.01,-51.81 342.48,-58.66"/>
</a>
</g>
</g>
<!-- Node16 -->
<g id="Node000016" class="node">
<title>Node16</title>
<g id="a_Node000016"><a xlink:href="namespaceutility.html#a39f70efc303a252b5b58463642c58b3e" target="_top" xlink:title=" ">
<polygon fill="white" stroke="#666666" points="439.12,-20.75 368.38,-20.75 368.38,0 439.12,0 439.12,-20.75"/>
<text text-anchor="middle" x="403.75" y="-7.25" font-family="Helvetica,sans-Serif" font-size="10.00">utility::split</text>
</a>
</g>
</g>
<!-- Node6&#45;&gt;Node16 -->
<g id="edge16_Node000006_Node000016" class="edge">
<title>Node6&#45;&gt;Node16</title>
<g id="a_edge16_Node000006_Node000016"><a xlink:title=" ">
<path fill="none" stroke="#63b8ff" d="M215.92,-186.71C224,-156.77 251.16,-71.47 307.25,-30.38 321.46,-19.96 339.89,-14.71 356.76,-12.14"/>
<polygon fill="#63b8ff" stroke="#63b8ff" points="357.11,-15.63 366.62,-10.95 356.27,-8.68 357.11,-15.63"/>
</a>
</g>
</g>
<!-- Node17 -->
<g id="Node000017" class="node">
<title>Node17</title>
<g id="a_Node000017"><a xlink:href="namespaceutility.html#a6c22b07f209d84b6de23cacd2d63984a" target="_top" xlink:title=" ">
<polygon fill="white" stroke="#666666" points="460.12,-322.75 347.38,-322.75 347.38,-302 460.12,-302 460.12,-322.75"/>
<text text-anchor="middle" x="403.75" y="-309.25" font-family="Helvetica,sans-Serif" font-size="10.00">utility::splitToVector</text>
</a>
</g>
</g>
<!-- Node6&#45;&gt;Node17 -->
<g id="edge17_Node000006_Node000017" class="edge">
<title>Node6&#45;&gt;Node17</title>
<g id="a_edge17_Node000006_Node000017"><a xlink:title=" ">
<path fill="none" stroke="#63b8ff" d="M221.25,-208.22C236.03,-227.43 269.54,-267.39 307.25,-288.38 316.25,-293.38 326.29,-297.36 336.4,-300.52"/>
<polygon fill="#63b8ff" stroke="#63b8ff" points="335.31,-303.85 345.89,-303.22 337.23,-297.11 335.31,-303.85"/>
</a>
</g>
</g>
<!-- Node8 -->
<g id="Node000008" class="node">
<title>Node8</title>
<g id="a_Node000008"><a xlink:href="classTextAccess.html#a3024169774f0b035fb68057243388c9e" target="_top" xlink:title=" ">
<polygon fill="white" stroke="#666666" points="694.38,-226.75 580.12,-226.75 580.12,-206 694.38,-206 694.38,-226.75"/>
<text text-anchor="middle" x="637.25" y="-213.25" font-family="Helvetica,sans-Serif" font-size="10.00">TextAccess::readFile</text>
</a>
</g>
</g>
<!-- Node7&#45;&gt;Node8 -->
<g id="edge7_Node000007_Node000008" class="edge">
<title>Node7&#45;&gt;Node8</title>
<g id="a_edge7_Node000007_Node000008"><a xlink:title=" ">
<path fill="none" stroke="#63b8ff" d="M478,-216.38C506.99,-216.38 540.11,-216.38 568.53,-216.38"/>
<polygon fill="#63b8ff" stroke="#63b8ff" points="568.48,-219.88 578.48,-216.38 568.48,-212.88 568.48,-219.88"/>
</a>
</g>
</g>
<!-- Node11 -->
<g id="Node000011" class="node">
<title>Node11</title>
<g id="a_Node000011"><a xlink:href="classTextAccess.html#a17086d2cc3eee9bbef8352489382f721" target="_top" xlink:title=" ">
<polygon fill="white" stroke="#666666" points="702.25,-265.75 572.25,-265.75 572.25,-245 702.25,-245 702.25,-265.75"/>
<text text-anchor="middle" x="637.25" y="-252.25" font-family="Helvetica,sans-Serif" font-size="10.00">TextAccess::TextAccess</text>
</a>
</g>
</g>
<!-- Node7&#45;&gt;Node11 -->
<g id="edge10_Node000007_Node000011" class="edge">
<title>Node7&#45;&gt;Node11</title>
<g id="a_edge10_Node000007_Node000011"><a xlink:title=" ">
<path fill="none" stroke="#63b8ff" d="M469.24,-227.24C497.71,-232.04 531.36,-237.71 560.98,-242.69"/>
<polygon fill="#63b8ff" stroke="#63b8ff" points="560.18,-246.11 570.62,-244.32 561.34,-239.21 560.18,-246.11"/>
</a>
</g>
</g>
<!-- Node8&#45;&gt;Node9 -->
<g id="edge8_Node000008_Node000009" class="edge">
<title>Node8&#45;&gt;Node9</title>
<g id="a_edge8_Node000008_Node000009"><a xlink:title=" ">
<path fill="none" stroke="#63b8ff" d="M694.86,-226.42C709.1,-229.29 724.3,-232.67 738.25,-236.38 752.77,-240.23 768.44,-245.23 782.26,-249.94"/>
<polygon fill="#63b8ff" stroke="#63b8ff" points="780.87,-253.16 791.47,-253.12 783.16,-246.54 780.87,-253.16"/>
</a>
</g>
</g>
<!-- Node8&#45;&gt;Node10 -->
<g id="edge9_Node000008_Node000010" class="edge">
<title>Node8&#45;&gt;Node10</title>
<g id="a_edge9_Node000008_Node000010"><a xlink:title=" ">
<path fill="none" stroke="#63b8ff" d="M694.67,-210.55C718.98,-208.03 747.21,-205.12 770.92,-202.67"/>
<polygon fill="#63b8ff" stroke="#63b8ff" points="771.06,-206.17 780.65,-201.66 770.34,-199.21 771.06,-206.17"/>
</a>
</g>
</g>
<!-- Node13 -->
<g id="Node000013" class="node">
<title>Node13</title>
<g id="a_Node000013"><a xlink:href="classApplicationSettings.html#a577f5c7696669ffd72b37c28eb3eb04c" target="_top" xlink:title=" ">
<polygon fill="white" stroke="#666666" points="695.5,-150.12 579,-150.12 579,-116.62 695.5,-116.62 695.5,-150.12"/>
<text text-anchor="start" x="587" y="-136.62" font-family="Helvetica,sans-Serif" font-size="10.00">ApplicationSettings</text>
<text text-anchor="middle" x="637.25" y="-123.88" font-family="Helvetica,sans-Serif" font-size="10.00">::ApplicationSettings</text>
</a>
</g>
</g>
<!-- Node12&#45;&gt;Node13 -->
<g id="edge13_Node000012_Node000013" class="edge">
<title>Node12&#45;&gt;Node13</title>
<g id="a_edge13_Node000012_Node000013"><a xlink:title=" ">
<path fill="none" stroke="#63b8ff" d="M459.32,-133.38C491.63,-133.38 532.86,-133.38 567.39,-133.38"/>
<polygon fill="#63b8ff" stroke="#63b8ff" points="567.3,-136.88 577.3,-133.38 567.3,-129.88 567.3,-136.88"/>
</a>
</g>
</g>
</g>
</svg>

<g id="navigator" transform="translate(0 0)" fill="#404254">
  <rect fill="#f2f5e9" fill-opacity="0.5" stroke="#606060" stroke-width=".5" x="0" y="0" width="60" height="60"/>
  <use id="zoomplus" xlink:href="#zoomPlus" x="17" y="9" onmousedown="handleZoom(evt,'in')"/>
  <use id="zoomminus" xlink:href="#zoomMin" x="42" y="9" onmousedown="handleZoom(evt,'out')"/>
  <use id="reset" xlink:href="#resetDef" x="30" y="36" onmousedown="handleReset()"/>
   <use id="arrowup" xlink:href="#arrowUp" x="0" y="0" onmousedown="handlePan(0,-1)"/>
  <use id="arrowright" xlink:href="#arrowRight" x="0" y="0" onmousedown="handlePan(1,0)"/>
  <use id="arrowdown" xlink:href="#arrowDown" x="0" y="0" onmousedown="handlePan(0,1)"/>
  <use id="arrowleft" xlink:href="#arrowLeft" x="0" y="0" onmousedown="handlePan(-1,0)"/>
</g>
<svg viewBox="0 0 15 15" width="100%" height="30px" preserveAspectRatio="xMaxYMin meet">
 <g id="arrow_out" transform="scale(0.3 0.3)">
  <a xlink:href="classQtScreenSearchView_a5323c1bb888f7e308ca5b3223604d62b_cgraph_org.svg" target="_base">
   <rect id="button" ry="5" rx="5" y="6" x="6" height="38" width="38"
        fill="#f2f5e9" fill-opacity="0.5" stroke="#606060" stroke-width="1.0"/>
   <path id="arrow"
     d="M 11.500037,31.436501 C 11.940474,20.09759 22.043105,11.32322 32.158766,21.979434 L 37.068811,17.246167 C 37.068811,17.246167 37.088388,32 37.088388,32 L 22.160133,31.978069 C 22.160133,31.978069 26.997745,27.140456 26.997745,27.140456 C 18.528582,18.264221 13.291696,25.230495 11.500037,31.436501 z"
     style="fill:#404040;"/>
  </a>
 </g>
</svg>

<style type='text/css'>
<![CDATA[
[data-mouse-over-selected='false'] { opacity: 0.7; }
[data-mouse-over-selected='true']  { opacity: 1.0; }
]]>
</style>
<script type="application/ecmascript"><![CDATA[
document.addEventListener('DOMContentLoaded', (event) => {
  highlightEdges();
  highlightAdjacentNodes();
});
]]></script>
</svg>
