<?xml version="1.0" encoding="UTF-8" standalone="no"?>
<!DOCTYPE svg PUBLIC "-//W3C//DTD SVG 1.1//EN"
 "http://www.w3.org/Graphics/SVG/1.1/DTD/svg11.dtd">
<!-- Generated by graphviz version 9.0.0 (0)
 -->
<!-- Title: MessageLoadProject Pages: 1 -->
<!--zoomable 376 -->

<svg id="main" version="1.1" xmlns="http://www.w3.org/2000/svg" xmlns:xlink="http://www.w3.org/1999/xlink" xml:space="preserve" onload="init(evt)">
<style type="text/css"><![CDATA[
.node, .edge {opacity: 0.7;}
.node.selected, .edge.selected {opacity: 1;}
.edge:hover path { stroke: red; }
.edge:hover polygon { stroke: red; fill: red; }
]]></style>

<defs>
  <circle id="rim" cx="0" cy="0" r="7"/>
  <circle id="rim2" cx="0" cy="0" r="3.5"/>
  <g id="zoomPlus">
    <use xlink:href="#rim" fill="#404040"><set attributeName="fill" to="#808080" begin="zoomplus.mouseover" end="zoomplus.mouseout"/></use>
    <path d="M-4,0h8M0,-4v8" fill="none" stroke="white" stroke-width="1.5" pointer-events="none"/>
  </g>
  <g id="zoomMin">
    <use xlink:href="#rim" fill="#404040"><set attributeName="fill" to="#808080" begin="zoomminus.mouseover" end="zoomminus.mouseout"/></use>
    <path d="M-4,0h8" fill="none" stroke="white" stroke-width="1.5" pointer-events="none"/>
  </g>
  <g id="arrowUp" transform="translate(30 24)">
    <use xlink:href="#rim"/>
    <path pointer-events="none" fill="none" stroke="white" stroke-width="1.5" d="M0,-3.0v7 M-2.5,-0.5L0,-3.0L2.5,-0.5"/>
  </g>
  <g id="arrowRight" transform="rotate(90) translate(36 -43)">
    <use xlink:href="#rim"/>
    <path pointer-events="none" fill="none" stroke="white" stroke-width="1.5" d="M0,-3.0v7 M-2.5,-0.5L0,-3.0L2.5,-0.5"/>
  </g>
  <g id="arrowDown" transform="rotate(180) translate(-30 -48)">
    <use xlink:href="#rim"/>
    <path pointer-events="none" fill="none" stroke="white" stroke-width="1.5" d="M0,-3.0v7 M-2.5,-0.5L0,-3.0L2.5,-0.5"/>
  </g>
  <g id="arrowLeft" transform="rotate(270) translate(-36 17)">
    <use xlink:href="#rim"/>
    <path pointer-events="none" fill="none" stroke="white" stroke-width="1.5" d="M0,-3.0v7 M-2.5,-0.5L0,-3.0L2.5,-0.5"/>
  </g>
  <g id="resetDef">
    <use xlink:href="#rim2" fill="#404040"><set attributeName="fill" to="#808080" begin="reset.mouseover" end="reset.mouseout"/></use>
  </g>
</defs>
<script type="application/ecmascript">
var viewWidth = 586;
var viewHeight = 376;
var sectionId = 'dynsection-1';
</script>
<script type="application/ecmascript" xlink:href="svg.min.js"/>
<svg id="graph" class="graph">
<g id="viewport">
<title>MessageLoadProject</title>
<!-- Node1 -->
<g id="Node000001" class="node">
<title>Node1</title>
<g id="a_Node000001"><a xlink:title=" ">
<polygon fill="#999999" stroke="#666666" points="418.75,-20.75 302.25,-20.75 302.25,0 418.75,0 418.75,-20.75"/>
<text text-anchor="middle" x="360.5" y="-7.25" font-family="Helvetica,sans-Serif" font-size="10.00">MessageLoadProject</text>
</a>
</g>
</g>
<!-- Node2 -->
<g id="Node000002" class="node">
<title>Node2</title>
<g id="a_Node000002"><a xlink:href="classMessage.html" target="_top" xlink:title=" ">
<polygon fill="white" stroke="#666666" points="231.75,-90.25 49.25,-90.25 49.25,-69.5 231.75,-69.5 231.75,-90.25"/>
<text text-anchor="middle" x="140.5" y="-76.75" font-family="Helvetica,sans-Serif" font-size="10.00">Message&lt; MessageLoadProject &gt;</text>
</a>
</g>
</g>
<!-- Node2&#45;&gt;Node1 -->
<g id="edge1_Node000001_Node000002" class="edge">
<title>Node2&#45;&gt;Node1</title>
<g id="a_edge1_Node000001_Node000002"><a xlink:title=" ">
<path fill="none" stroke="#63b8ff" d="M181.82,-65.59C206.62,-57.68 238.83,-47.5 267.5,-38.75 286.98,-32.81 308.82,-26.37 326.44,-21.23"/>
<polygon fill="#63b8ff" stroke="#63b8ff" points="180.89,-62.22 172.43,-68.6 183.02,-68.89 180.89,-62.22"/>
</a>
</g>
</g>
<!-- Node3 -->
<g id="Node000003" class="node">
<title>Node3</title>
<g id="a_Node000003"><a xlink:href="classMessageBase.html" target="_top" xlink:title=" ">
<polygon fill="white" stroke="#666666" points="137.25,-222.25 53.75,-222.25 53.75,-201.5 137.25,-201.5 137.25,-222.25"/>
<text text-anchor="middle" x="95.5" y="-208.75" font-family="Helvetica,sans-Serif" font-size="10.00">MessageBase</text>
</a>
</g>
</g>
<!-- Node3&#45;&gt;Node2 -->
<g id="edge2_Node000002_Node000003" class="edge">
<title>Node3&#45;&gt;Node2</title>
<g id="a_edge2_Node000002_Node000003"><a xlink:title=" ">
<path fill="none" stroke="#63b8ff" d="M82.22,-191.72C73.73,-176.94 65.65,-156.2 73.5,-139 83.41,-117.29 105.88,-100.56 122.07,-90.74"/>
<polygon fill="#63b8ff" stroke="#63b8ff" points="79.15,-193.41 87.45,-200 85.07,-189.68 79.15,-193.41"/>
</a>
</g>
</g>
<!-- Node7 -->
<g id="Node000007" class="node">
<title>Node7</title>
<g id="a_Node000007"><a xlink:href="classMessage.html" target="_top" xlink:title=" ">
<polygon fill="white" stroke="#666666" points="230.5,-162.12 82.5,-162.12 82.5,-141.38 230.5,-141.38 230.5,-162.12"/>
<text text-anchor="middle" x="156.5" y="-148.62" font-family="Helvetica,sans-Serif" font-size="10.00">Message&lt; MessageType &gt;</text>
</a>
</g>
</g>
<!-- Node3&#45;&gt;Node7 -->
<g id="edge7_Node000007_Node000003" class="edge">
<title>Node3&#45;&gt;Node7</title>
<g id="a_edge7_Node000007_Node000003"><a xlink:title=" ">
<path fill="none" stroke="#63b8ff" d="M114.07,-193.18C124.66,-183.09 137.54,-170.82 146.31,-162.46"/>
<polygon fill="#63b8ff" stroke="#63b8ff" points="111.77,-190.54 106.94,-199.97 116.6,-195.61 111.77,-190.54"/>
</a>
</g>
</g>
<!-- Node4 -->
<g id="Node000004" class="node">
<title>Node4</title>
<g id="a_Node000004"><a xlink:title=" ">
<polygon fill="white" stroke="#666666" points="55,-361.88 0,-361.88 0,-341.12 55,-341.12 55,-361.88"/>
<text text-anchor="middle" x="27.5" y="-348.38" font-family="Helvetica,sans-Serif" font-size="10.00">static Id</text>
</a>
</g>
</g>
<!-- Node4&#45;&gt;Node3 -->
<g id="edge3_Node000003_Node000004" class="edge">
<title>Node4&#45;&gt;Node3</title>
<g id="a_edge3_Node000003_Node000004"><a xlink:title=" ">
<path fill="none" stroke="#9a32cd" stroke-dasharray="5,2" d="M26.2,-329.43C25.8,-305.63 28.48,-266.76 47.25,-240.25 52.59,-232.7 60.71,-226.97 68.78,-222.74"/>
<polygon fill="#9a32cd" stroke="#9a32cd" points="22.7,-329.56 26.6,-339.41 29.7,-329.28 22.7,-329.56"/>
</a>
</g>
<text text-anchor="middle" x="69.62" y="-275.38" font-family="Helvetica,sans-Serif" font-size="10.00" fill="grey"> s_nextId</text>
</g>
<!-- Node5 -->
<g id="Node000005" class="node">
<title>Node5</title>
<g id="a_Node000005"><a xlink:title=" ">
<polygon fill="white" stroke="#666666" points="117.75,-361.88 73.25,-361.88 73.25,-341.12 117.75,-341.12 117.75,-361.88"/>
<text text-anchor="middle" x="95.5" y="-348.38" font-family="Helvetica,sans-Serif" font-size="10.00">size_t</text>
</a>
</g>
</g>
<!-- Node5&#45;&gt;Node3 -->
<g id="edge4_Node000003_Node000005" class="edge">
<title>Node5&#45;&gt;Node3</title>
<g id="a_edge4_Node000003_Node000005"><a xlink:title=" ">
<path fill="none" stroke="#9a32cd" stroke-dasharray="5,2" d="M95.5,-329.76C95.5,-299.5 95.5,-244.47 95.5,-222.4"/>
<polygon fill="#9a32cd" stroke="#9a32cd" points="92,-329.53 95.5,-339.53 99,-329.53 92,-329.53"/>
</a>
</g>
<text text-anchor="middle" x="131.12" y="-281.75" font-family="Helvetica,sans-Serif" font-size="10.00" fill="grey"> m_id</text>
<text text-anchor="middle" x="131.12" y="-269" font-family="Helvetica,sans-Serif" font-size="10.00" fill="grey">m_schedulerId</text>
</g>
<!-- Node6 -->
<g id="Node000006" class="node">
<title>Node6</title>
<g id="a_Node000006"><a xlink:title=" ">
<polygon fill="white" stroke="#666666" points="300,-361.88 263,-361.88 263,-341.12 300,-341.12 300,-361.88"/>
<text text-anchor="middle" x="281.5" y="-348.38" font-family="Helvetica,sans-Serif" font-size="10.00">bool</text>
</a>
</g>
</g>
<!-- Node6&#45;&gt;Node1 -->
<g id="edge11_Node000001_Node000006" class="edge">
<title>Node6&#45;&gt;Node1</title>
<g id="a_edge11_Node000001_Node000006"><a xlink:title=" ">
<path fill="none" stroke="#9a32cd" stroke-dasharray="5,2" d="M281.5,-329.39C281.5,-302.38 281.5,-254.15 281.5,-212.88 281.5,-212.88 281.5,-212.88 281.5,-78.88 281.5,-50.55 311.21,-31.58 334.19,-21.14"/>
<polygon fill="#9a32cd" stroke="#9a32cd" points="278,-329.31 281.5,-339.31 285,-329.31 278,-329.31"/>
</a>
</g>
<text text-anchor="middle" x="347.12" y="-155" font-family="Helvetica,sans-Serif" font-size="10.00" fill="grey"> settingsChanged</text>
<text text-anchor="middle" x="347.12" y="-142.25" font-family="Helvetica,sans-Serif" font-size="10.00" fill="grey">shallowIndexingRequested</text>
</g>
<!-- Node6&#45;&gt;Node3 -->
<g id="edge5_Node000003_Node000006" class="edge">
<title>Node6&#45;&gt;Node3</title>
<g id="a_edge5_Node000003_Node000006"><a xlink:title=" ">
<path fill="none" stroke="#9a32cd" stroke-dasharray="5,2" d="M251.35,-346.26C231.67,-341.99 206.79,-333.5 191,-316.75 166.6,-290.87 191.82,-266.21 167.5,-240.25 159.45,-231.66 148.43,-225.74 137.43,-221.67"/>
<polygon fill="#9a32cd" stroke="#9a32cd" points="250.56,-349.68 261.03,-348.09 251.85,-342.8 250.56,-349.68"/>
</a>
</g>
<text text-anchor="middle" x="229.75" y="-307.25" font-family="Helvetica,sans-Serif" font-size="10.00" fill="grey"> m_isLast</text>
<text text-anchor="middle" x="229.75" y="-294.5" font-family="Helvetica,sans-Serif" font-size="10.00" fill="grey">m_isLogged</text>
<text text-anchor="middle" x="229.75" y="-281.75" font-family="Helvetica,sans-Serif" font-size="10.00" fill="grey">m_isParallel</text>
<text text-anchor="middle" x="229.75" y="-269" font-family="Helvetica,sans-Serif" font-size="10.00" fill="grey">m_isReplayed</text>
<text text-anchor="middle" x="229.75" y="-256.25" font-family="Helvetica,sans-Serif" font-size="10.00" fill="grey">m_keepContent</text>
<text text-anchor="middle" x="229.75" y="-243.5" font-family="Helvetica,sans-Serif" font-size="10.00" fill="grey">m_sendAsTask</text>
</g>
<!-- Node8 -->
<g id="Node000008" class="node">
<title>Node8</title>
<g id="a_Node000008"><a xlink:href="classFilePath.html" target="_top" xlink:title=" ">
<polygon fill="white" stroke="#666666" points="467.62,-222.25 413.38,-222.25 413.38,-201.5 467.62,-201.5 467.62,-222.25"/>
<text text-anchor="middle" x="440.5" y="-208.75" font-family="Helvetica,sans-Serif" font-size="10.00">FilePath</text>
</a>
</g>
</g>
<!-- Node6&#45;&gt;Node8 -->
<g id="edge10_Node000008_Node000006" class="edge">
<title>Node6&#45;&gt;Node8</title>
<g id="a_edge10_Node000008_Node000006"><a xlink:title=" ">
<path fill="none" stroke="#9a32cd" stroke-dasharray="5,2" d="M289.25,-330.09C300.87,-299.95 322.21,-246.4 329.5,-240.25 353.01,-220.41 388.74,-214.56 413.28,-213.03"/>
<polygon fill="#9a32cd" stroke="#9a32cd" points="286.04,-328.69 285.74,-339.28 292.58,-331.19 286.04,-328.69"/>
</a>
</g>
<text text-anchor="middle" x="383.5" y="-300.88" font-family="Helvetica,sans-Serif" font-size="10.00" fill="grey"> m_canonicalized</text>
<text text-anchor="middle" x="383.5" y="-288.12" font-family="Helvetica,sans-Serif" font-size="10.00" fill="grey">m_checkedExists</text>
<text text-anchor="middle" x="383.5" y="-275.38" font-family="Helvetica,sans-Serif" font-size="10.00" fill="grey">m_checkedIsDirectory</text>
<text text-anchor="middle" x="383.5" y="-262.62" font-family="Helvetica,sans-Serif" font-size="10.00" fill="grey">m_exists</text>
<text text-anchor="middle" x="383.5" y="-249.88" font-family="Helvetica,sans-Serif" font-size="10.00" fill="grey">m_isDirectory</text>
</g>
<!-- Node7&#45;&gt;Node2 -->
<g id="edge6_Node000002_Node000007" class="edge">
<title>Node7&#45;&gt;Node2</title>
<g id="a_edge6_Node000002_Node000007"><a xlink:title=" ">
<path fill="none" stroke="orange" stroke-dasharray="5,2" d="M145,-130.9C143.58,-127.68 142.33,-124.31 141.5,-121 138.95,-110.86 139.05,-98.83 139.56,-90.6"/>
<polygon fill="orange" stroke="orange" points="141.82,-132.36 149.5,-139.65 148.04,-129.16 141.82,-132.36"/>
</a>
</g>
<text text-anchor="middle" x="204.5" y="-111.5" font-family="Helvetica,sans-Serif" font-size="10.00" fill="grey"> &lt; MessageLoadProject &gt;</text>
</g>
<!-- Node8&#45;&gt;Node1 -->
<g id="edge8_Node000001_Node000008" class="edge">
<title>Node8&#45;&gt;Node1</title>
<g id="a_edge8_Node000001_Node000008"><a xlink:title=" ">
<path fill="none" stroke="#9a32cd" stroke-dasharray="5,2" d="M434.17,-190.27C429.59,-175.8 423.08,-156.07 416.5,-139 399.27,-94.3 375.19,-42.4 365.17,-21.18"/>
<polygon fill="#9a32cd" stroke="#9a32cd" points="430.75,-191.06 437.07,-199.56 437.43,-188.98 430.75,-191.06"/>
</a>
</g>
<text text-anchor="middle" x="466.88" y="-111.5" font-family="Helvetica,sans-Serif" font-size="10.00" fill="grey"> projectSettingsFilePath</text>
</g>
<!-- Node9 -->
<g id="Node000009" class="node">
<title>Node9</title>
<g id="a_Node000009"><a xlink:title=" ">
<polygon fill="white" stroke="#666666" points="501.5,-368.25 389.5,-368.25 389.5,-334.75 501.5,-334.75 501.5,-368.25"/>
<text text-anchor="start" x="397.5" y="-354.75" font-family="Helvetica,sans-Serif" font-size="10.00">unique_ptr&lt; boost::</text>
<text text-anchor="middle" x="445.5" y="-342" font-family="Helvetica,sans-Serif" font-size="10.00">filesystem::path &gt;</text>
</a>
</g>
</g>
<!-- Node9&#45;&gt;Node8 -->
<g id="edge9_Node000008_Node000009" class="edge">
<title>Node9&#45;&gt;Node8</title>
<g id="a_edge9_Node000008_Node000009"><a xlink:title=" ">
<path fill="none" stroke="#9a32cd" stroke-dasharray="5,2" d="M444.51,-323.16C443.38,-292.19 441.61,-243.34 440.86,-222.65"/>
<polygon fill="#9a32cd" stroke="#9a32cd" points="441,-323.06 444.86,-332.93 448,-322.81 441,-323.06"/>
</a>
</g>
<text text-anchor="middle" x="463.38" y="-275.38" font-family="Helvetica,sans-Serif" font-size="10.00" fill="grey"> m_path</text>
</g>
<!-- Node10 -->
<g id="Node000010" class="node">
<title>Node10</title>
<g id="a_Node000010"><a xlink:title=" ">
<polygon fill="white" stroke="#666666" points="578.38,-90.25 468.62,-90.25 468.62,-69.5 578.38,-69.5 578.38,-90.25"/>
<text text-anchor="middle" x="523.5" y="-76.75" font-family="Helvetica,sans-Serif" font-size="10.00">const RefreshMode</text>
</a>
</g>
</g>
<!-- Node10&#45;&gt;Node1 -->
<g id="edge12_Node000001_Node000010" class="edge">
<title>Node10&#45;&gt;Node1</title>
<g id="a_edge12_Node000001_Node000010"><a xlink:title=" ">
<path fill="none" stroke="#9a32cd" stroke-dasharray="5,2" d="M499.44,-62.94C486.52,-54.88 470.08,-45.43 454.5,-38.75 437.94,-31.65 418.98,-25.74 402.44,-21.24"/>
<polygon fill="#9a32cd" stroke="#9a32cd" points="497.38,-65.78 507.7,-68.2 501.15,-59.88 497.38,-65.78"/>
</a>
</g>
<text text-anchor="middle" x="511.75" y="-42" font-family="Helvetica,sans-Serif" font-size="10.00" fill="grey"> refreshMode</text>
</g>
</g>
</svg>

<g id="navigator" transform="translate(0 0)" fill="#404254">
  <rect fill="#f2f5e9" fill-opacity="0.5" stroke="#606060" stroke-width=".5" x="0" y="0" width="60" height="60"/>
  <use id="zoomplus" xlink:href="#zoomPlus" x="17" y="9" onmousedown="handleZoom(evt,'in')"/>
  <use id="zoomminus" xlink:href="#zoomMin" x="42" y="9" onmousedown="handleZoom(evt,'out')"/>
  <use id="reset" xlink:href="#resetDef" x="30" y="36" onmousedown="handleReset()"/>
   <use id="arrowup" xlink:href="#arrowUp" x="0" y="0" onmousedown="handlePan(0,-1)"/>
  <use id="arrowright" xlink:href="#arrowRight" x="0" y="0" onmousedown="handlePan(1,0)"/>
  <use id="arrowdown" xlink:href="#arrowDown" x="0" y="0" onmousedown="handlePan(0,1)"/>
  <use id="arrowleft" xlink:href="#arrowLeft" x="0" y="0" onmousedown="handlePan(-1,0)"/>
</g>
<svg viewBox="0 0 15 15" width="100%" height="30px" preserveAspectRatio="xMaxYMin meet">
 <g id="arrow_out" transform="scale(0.3 0.3)">
  <a xlink:href="classMessageLoadProject__coll__graph_org.svg" target="_base">
   <rect id="button" ry="5" rx="5" y="6" x="6" height="38" width="38"
        fill="#f2f5e9" fill-opacity="0.5" stroke="#606060" stroke-width="1.0"/>
   <path id="arrow"
     d="M 11.500037,31.436501 C 11.940474,20.09759 22.043105,11.32322 32.158766,21.979434 L 37.068811,17.246167 C 37.068811,17.246167 37.088388,32 37.088388,32 L 22.160133,31.978069 C 22.160133,31.978069 26.997745,27.140456 26.997745,27.140456 C 18.528582,18.264221 13.291696,25.230495 11.500037,31.436501 z"
     style="fill:#404040;"/>
  </a>
 </g>
</svg>

<style type='text/css'>
<![CDATA[
[data-mouse-over-selected='false'] { opacity: 0.7; }
[data-mouse-over-selected='true']  { opacity: 1.0; }
]]>
</style>
<script type="application/ecmascript"><![CDATA[
document.addEventListener('DOMContentLoaded', (event) => {
  highlightEdges();
  highlightAdjacentNodes();
});
]]></script>
</svg>
