<?xml version="1.0" encoding="UTF-8" standalone="no"?>
<!DOCTYPE svg PUBLIC "-//W3C//DTD SVG 1.1//EN"
 "http://www.w3.org/Graphics/SVG/1.1/DTD/svg11.dtd">
<!-- Generated by graphviz version 7.1.0 (0)
 -->
<!-- Title: SourceGroupSettingsWithCxxCdbPath::load Pages: 1 -->
<svg width="586pt" height="86pt"
 viewBox="0.00 0.00 586.00 86.00" xmlns="http://www.w3.org/2000/svg" xmlns:xlink="http://www.w3.org/1999/xlink">
<g id="graph0" class="graph" transform="scale(1 1) rotate(0) translate(4 82)">
<title>SourceGroupSettingsWithCxxCdbPath::load</title>
<!-- Node1 -->
<g id="node1" class="node">
<title>Node1</title>
<g id="a_node1"><a xlink:title=" ">
<polygon fill="#999999" stroke="#666666" points="160,-54 0,-54 0,-24 160,-24 160,-54"/>
<text text-anchor="start" x="8" y="-42" font-family="Helvetica,sans-Serif" font-size="10.00">SourceGroupSettingsWithCxx</text>
<text text-anchor="middle" x="80" y="-31" font-family="Helvetica,sans-Serif" font-size="10.00">CdbPath::load</text>
</a>
</g>
</g>
<!-- Node2 -->
<g id="node2" class="node">
<title>Node2</title>
<g id="a_node2"><a xlink:href="classConfigManager.html#adb21771a0399545825bb64375971af15" target="_top" xlink:title=" ">
<polygon fill="white" stroke="#666666" points="375,-78 223,-78 223,-48 375,-48 375,-78"/>
<text text-anchor="start" x="231" y="-66" font-family="Helvetica,sans-Serif" font-size="10.00">ConfigManager::getValueOr</text>
<text text-anchor="middle" x="299" y="-55" font-family="Helvetica,sans-Serif" font-size="10.00">Default</text>
</a>
</g>
</g>
<!-- Node1&#45;&gt;Node2 -->
<g id="edge1" class="edge">
<title>Node1&#45;&gt;Node2</title>
<path fill="none" stroke="#63b8ff" d="M160.26,-47.77C176.95,-49.61 194.63,-51.57 211.56,-53.44"/>
<polygon fill="#63b8ff" stroke="#63b8ff" points="210.74,-56.87 221.06,-54.49 211.51,-49.91 210.74,-56.87"/>
</g>
<!-- Node4 -->
<g id="node4" class="node">
<title>Node4</title>
<g id="a_node4"><a xlink:href="classSourceGroupSettingsWithCxxCdbPath.html#ac122255d9baa8ea0773d0722dc79e192" target="_top" xlink:title=" ">
<polygon fill="white" stroke="#666666" points="402,-30 196,-30 196,0 402,0 402,-30"/>
<text text-anchor="start" x="204" y="-18" font-family="Helvetica,sans-Serif" font-size="10.00">SourceGroupSettingsWithCxx</text>
<text text-anchor="middle" x="299" y="-7" font-family="Helvetica,sans-Serif" font-size="10.00">CdbPath::setCompilationDatabasePath</text>
</a>
</g>
</g>
<!-- Node1&#45;&gt;Node4 -->
<g id="edge3" class="edge">
<title>Node1&#45;&gt;Node4</title>
<path fill="none" stroke="#63b8ff" d="M160.26,-30.23C168.08,-29.37 176.12,-28.48 184.19,-27.59"/>
<polygon fill="#63b8ff" stroke="#63b8ff" points="184.56,-31.07 194.11,-26.49 183.79,-24.11 184.56,-31.07"/>
</g>
<!-- Node3 -->
<g id="node3" class="node">
<title>Node3</title>
<g id="a_node3"><a xlink:href="classConfigManager.html#a40274bd1f50ee9370fd7582fafeaec68" target="_top" xlink:title=" ">
<polygon fill="white" stroke="#666666" points="578,-72.5 438,-72.5 438,-53.5 578,-53.5 578,-72.5"/>
<text text-anchor="middle" x="508" y="-60.5" font-family="Helvetica,sans-Serif" font-size="10.00">ConfigManager::getValue</text>
</a>
</g>
</g>
<!-- Node2&#45;&gt;Node3 -->
<g id="edge2" class="edge">
<title>Node2&#45;&gt;Node3</title>
<path fill="none" stroke="#63b8ff" d="M375.32,-63C391.85,-63 409.42,-63 426.15,-63"/>
<polygon fill="#63b8ff" stroke="#63b8ff" points="426.07,-66.5 436.07,-63 426.07,-59.5 426.07,-66.5"/>
</g>
</g>
</svg>
