<?xml version="1.0" encoding="UTF-8" standalone="no"?>
<!DOCTYPE svg PUBLIC "-//W3C//DTD SVG 1.1//EN"
 "http://www.w3.org/Graphics/SVG/1.1/DTD/svg11.dtd">
<!-- Generated by graphviz version 9.0.0 (0)
 -->
<!-- Title: NodeBookmark Pages: 1 -->
<svg width="408pt" height="242pt"
 viewBox="0.00 0.00 407.69 242.00" xmlns="http://www.w3.org/2000/svg" xmlns:xlink="http://www.w3.org/1999/xlink">
<g id="graph0" class="graph" transform="scale(1 1) rotate(0) translate(4 238)">
<title>NodeBookmark</title>
<!-- Node1 -->
<g id="Node000001" class="node">
<title>Node1</title>
<g id="a_Node000001"><a xlink:title=" ">
<polygon fill="#999999" stroke="#666666" points="279.57,-20.75 187.82,-20.75 187.82,0 279.57,0 279.57,-20.75"/>
<text text-anchor="middle" x="233.69" y="-7.25" font-family="Helvetica,sans-Serif" font-size="10.00">NodeBookmark</text>
</a>
</g>
</g>
<!-- Node2 -->
<g id="Node000002" class="node">
<title>Node2</title>
<g id="a_Node000002"><a xlink:href="classBookmark.html" target="_top" xlink:title=" ">
<polygon fill="white" stroke="#666666" points="221.82,-90.25 155.57,-90.25 155.57,-69.5 221.82,-69.5 221.82,-90.25"/>
<text text-anchor="middle" x="188.69" y="-76.75" font-family="Helvetica,sans-Serif" font-size="10.00">Bookmark</text>
</a>
</g>
</g>
<!-- Node2&#45;&gt;Node1 -->
<g id="edge1_Node000001_Node000002" class="edge">
<title>Node2&#45;&gt;Node1</title>
<g id="a_edge1_Node000001_Node000002"><a xlink:title=" ">
<path fill="none" stroke="#63b8ff" d="M201.3,-59.97C209.74,-47.3 220.51,-31.15 227.26,-21.03"/>
<polygon fill="#63b8ff" stroke="#63b8ff" points="198.62,-57.68 195.98,-67.94 204.44,-61.57 198.62,-57.68"/>
</a>
</g>
</g>
<!-- Node3 -->
<g id="Node000003" class="node">
<title>Node3</title>
<g id="a_Node000003"><a xlink:title=" ">
<polygon fill="white" stroke="#666666" points="51.94,-234 7.44,-234 7.44,-213.25 51.94,-213.25 51.94,-234"/>
<text text-anchor="middle" x="29.69" y="-220.5" font-family="Helvetica,sans-Serif" font-size="10.00">size_t</text>
</a>
</g>
</g>
<!-- Node3&#45;&gt;Node2 -->
<g id="edge2_Node000002_Node000003" class="edge">
<title>Node3&#45;&gt;Node2</title>
<g id="a_edge2_Node000002_Node000003"><a xlink:title=" ">
<path fill="none" stroke="#9a32cd" stroke-dasharray="5,2" d="M15.83,-203.41C4.61,-185.29 -7.23,-158.14 6.69,-139 40.64,-92.33 112.52,-82.25 155.09,-80.58"/>
<polygon fill="#9a32cd" stroke="#9a32cd" points="12.86,-205.27 21.32,-211.65 18.69,-201.38 12.86,-205.27"/>
</a>
</g>
<text text-anchor="middle" x="20.19" y="-148.62" font-family="Helvetica,sans-Serif" font-size="10.00" fill="grey"> m_id</text>
</g>
<!-- Node7 -->
<g id="Node000007" class="node">
<title>Node7</title>
<g id="a_Node000007"><a xlink:href="classBookmarkCategory.html" target="_top" xlink:title=" ">
<polygon fill="white" stroke="#666666" points="152.94,-162.12 42.44,-162.12 42.44,-141.38 152.94,-141.38 152.94,-162.12"/>
<text text-anchor="middle" x="97.69" y="-148.62" font-family="Helvetica,sans-Serif" font-size="10.00">BookmarkCategory</text>
</a>
</g>
</g>
<!-- Node3&#45;&gt;Node7 -->
<g id="edge7_Node000007_Node000003" class="edge">
<title>Node3&#45;&gt;Node7</title>
<g id="a_edge7_Node000007_Node000003"><a xlink:title=" ">
<path fill="none" stroke="#9a32cd" stroke-dasharray="5,2" d="M47.03,-204.82C60.16,-191.32 77.7,-173.3 88.32,-162.38"/>
<polygon fill="#9a32cd" stroke="#9a32cd" points="44.67,-202.22 40.21,-211.82 49.69,-207.1 44.67,-202.22"/>
</a>
</g>
<text text-anchor="middle" x="82.19" y="-185.75" font-family="Helvetica,sans-Serif" font-size="10.00" fill="grey"> m_id</text>
</g>
<!-- Node4 -->
<g id="Node000004" class="node">
<title>Node4</title>
<g id="a_Node000004"><a xlink:title=" ">
<polygon fill="white" stroke="#666666" points="153.69,-234 101.69,-234 101.69,-213.25 153.69,-213.25 153.69,-234"/>
<text text-anchor="middle" x="127.69" y="-220.5" font-family="Helvetica,sans-Serif" font-size="10.00">wstring</text>
</a>
</g>
</g>
<!-- Node4&#45;&gt;Node2 -->
<g id="edge3_Node000002_Node000004" class="edge">
<title>Node4&#45;&gt;Node2</title>
<g id="a_edge3_Node000002_Node000004"><a xlink:title=" ">
<path fill="none" stroke="#9a32cd" stroke-dasharray="5,2" d="M155.83,-206.21C159.6,-202.99 163.07,-199.33 165.69,-195.25 187.42,-161.54 189.3,-111.56 189.03,-90.64"/>
<polygon fill="#9a32cd" stroke="#9a32cd" points="153.93,-203.26 147.95,-212.01 158.08,-208.9 153.93,-203.26"/>
</a>
</g>
<text text-anchor="middle" x="217.94" y="-155" font-family="Helvetica,sans-Serif" font-size="10.00" fill="grey"> m_comment</text>
<text text-anchor="middle" x="217.94" y="-142.25" font-family="Helvetica,sans-Serif" font-size="10.00" fill="grey">m_name</text>
</g>
<!-- Node4&#45;&gt;Node7 -->
<g id="edge8_Node000007_Node000004" class="edge">
<title>Node4&#45;&gt;Node7</title>
<g id="a_edge8_Node000007_Node000004"><a xlink:title=" ">
<path fill="none" stroke="#9a32cd" stroke-dasharray="5,2" d="M119.04,-202.46C113.38,-189.29 106.25,-172.67 101.83,-162.38"/>
<polygon fill="#9a32cd" stroke="#9a32cd" points="115.76,-203.71 122.93,-211.52 122.2,-200.95 115.76,-203.71"/>
</a>
</g>
<text text-anchor="middle" x="138.57" y="-185.75" font-family="Helvetica,sans-Serif" font-size="10.00" fill="grey"> m_name</text>
</g>
<!-- Node5 -->
<g id="Node000005" class="node">
<title>Node5</title>
<g id="a_Node000005"><a xlink:href="classTimeStamp.html" target="_top" xlink:title=" ">
<polygon fill="white" stroke="#666666" points="342.44,-162.12 270.94,-162.12 270.94,-141.38 342.44,-141.38 342.44,-162.12"/>
<text text-anchor="middle" x="306.69" y="-148.62" font-family="Helvetica,sans-Serif" font-size="10.00">TimeStamp</text>
</a>
</g>
</g>
<!-- Node5&#45;&gt;Node2 -->
<g id="edge4_Node000002_Node000005" class="edge">
<title>Node5&#45;&gt;Node2</title>
<g id="a_edge4_Node000002_Node000005"><a xlink:title=" ">
<path fill="none" stroke="#9a32cd" stroke-dasharray="5,2" d="M280.24,-135.09C257.27,-121.49 224.73,-102.21 205.27,-90.69"/>
<polygon fill="#9a32cd" stroke="#9a32cd" points="278.35,-138.03 288.74,-140.12 281.91,-132.01 278.35,-138.03"/>
</a>
</g>
<text text-anchor="middle" x="290.69" y="-111.5" font-family="Helvetica,sans-Serif" font-size="10.00" fill="grey"> m_timeStamp</text>
</g>
<!-- Node6 -->
<g id="Node000006" class="node">
<title>Node6</title>
<g id="a_Node000006"><a xlink:title=" ">
<polygon fill="white" stroke="#666666" points="328.94,-234 284.44,-234 284.44,-213.25 328.94,-213.25 328.94,-234"/>
<text text-anchor="middle" x="306.69" y="-220.5" font-family="Helvetica,sans-Serif" font-size="10.00">ptime</text>
</a>
</g>
</g>
<!-- Node6&#45;&gt;Node5 -->
<g id="edge5_Node000005_Node000006" class="edge">
<title>Node6&#45;&gt;Node5</title>
<g id="a_edge5_Node000005_Node000006"><a xlink:title=" ">
<path fill="none" stroke="#9a32cd" stroke-dasharray="5,2" d="M306.69,-201.66C306.69,-188.62 306.69,-172.47 306.69,-162.38"/>
<polygon fill="#9a32cd" stroke="#9a32cd" points="303.19,-201.4 306.69,-211.4 310.19,-201.4 303.19,-201.4"/>
</a>
</g>
<text text-anchor="middle" x="326.94" y="-185.75" font-family="Helvetica,sans-Serif" font-size="10.00" fill="grey"> m_time</text>
</g>
<!-- Node7&#45;&gt;Node2 -->
<g id="edge6_Node000002_Node000007" class="edge">
<title>Node7&#45;&gt;Node2</title>
<g id="a_edge6_Node000002_Node000007"><a xlink:title=" ">
<path fill="none" stroke="#9a32cd" stroke-dasharray="5,2" d="M101.82,-129.91C104.24,-122.27 108.04,-114.07 113.94,-108.25 125.07,-97.29 140.93,-90.67 155.19,-86.69"/>
<polygon fill="#9a32cd" stroke="#9a32cd" points="98.43,-129.03 99.41,-139.58 105.23,-130.72 98.43,-129.03"/>
</a>
</g>
<text text-anchor="middle" x="145.07" y="-111.5" font-family="Helvetica,sans-Serif" font-size="10.00" fill="grey"> m_category</text>
</g>
<!-- Node8 -->
<g id="Node000008" class="node">
<title>Node8</title>
<g id="a_Node000008"><a xlink:title=" ">
<polygon fill="white" stroke="#666666" points="397.19,-162.12 360.19,-162.12 360.19,-141.38 397.19,-141.38 397.19,-162.12"/>
<text text-anchor="middle" x="378.69" y="-148.62" font-family="Helvetica,sans-Serif" font-size="10.00">bool</text>
</a>
</g>
</g>
<!-- Node8&#45;&gt;Node2 -->
<g id="edge9_Node000002_Node000008" class="edge">
<title>Node8&#45;&gt;Node2</title>
<g id="a_edge9_Node000002_Node000008"><a xlink:title=" ">
<path fill="none" stroke="#9a32cd" stroke-dasharray="5,2" d="M362.95,-132.77C354.29,-124.02 342.86,-114.15 330.69,-108.25 290.06,-88.55 274.96,-99.17 230.69,-90.25 227.91,-89.69 225.03,-89.09 222.14,-88.47"/>
<polygon fill="#9a32cd" stroke="#9a32cd" points="360.17,-134.93 369.56,-139.84 365.29,-130.15 360.17,-134.93"/>
</a>
</g>
<text text-anchor="middle" x="374.19" y="-111.5" font-family="Helvetica,sans-Serif" font-size="10.00" fill="grey"> m_isValid</text>
</g>
<!-- Node9 -->
<g id="Node000009" class="node">
<title>Node9</title>
<g id="a_Node000009"><a xlink:title=" ">
<polygon fill="white" stroke="#666666" points="317.82,-90.25 239.57,-90.25 239.57,-69.5 317.82,-69.5 317.82,-90.25"/>
<text text-anchor="middle" x="278.69" y="-76.75" font-family="Helvetica,sans-Serif" font-size="10.00">vector&lt; Id &gt;</text>
</a>
</g>
</g>
<!-- Node9&#45;&gt;Node1 -->
<g id="edge10_Node000001_Node000009" class="edge">
<title>Node9&#45;&gt;Node1</title>
<g id="a_edge10_Node000001_Node000009"><a xlink:title=" ">
<path fill="none" stroke="#9a32cd" stroke-dasharray="5,2" d="M266.09,-59.97C257.65,-47.3 246.88,-31.15 240.13,-21.03"/>
<polygon fill="#9a32cd" stroke="#9a32cd" points="262.95,-61.57 271.41,-67.94 268.77,-57.68 262.95,-61.57"/>
</a>
</g>
<text text-anchor="middle" x="287.82" y="-42" font-family="Helvetica,sans-Serif" font-size="10.00" fill="grey"> m_nodeIds</text>
</g>
</g>
</svg>
