<?xml version="1.0" encoding="UTF-8" standalone="no"?>
<!DOCTYPE svg PUBLIC "-//W3C//DTD SVG 1.1//EN"
 "http://www.w3.org/Graphics/SVG/1.1/DTD/svg11.dtd">
<!-- Generated by graphviz version 7.1.0 (0)
 -->
<!-- Title: IndexerCommandCustom Pages: 1 -->
<!--zoomable 294 -->
<svg id="main" version="1.1" xmlns="http://www.w3.org/2000/svg" xmlns:xlink="http://www.w3.org/1999/xlink" xml:space="preserve" onload="init(evt)">
<style type="text/css"><![CDATA[
.edge:hover path { stroke: red; }
.edge:hover polygon { stroke: red; fill: red; }
]]></style>
<script type="text/javascript"><![CDATA[
var edges = document.getElementsByTagName('g');
if (edges && edges.length) {
  for (var i=0;i<edges.length;i++) {
    if (edges[i].id.substr(0,4)=='edge') {
      edges[i].setAttribute('class','edge');
    }
  }
}
]]></script>
        <defs>
                <circle id="rim" cx="0" cy="0" r="7"/>
                <circle id="rim2" cx="0" cy="0" r="3.5"/>
                <g id="zoomPlus">
                        <use xlink:href="#rim" fill="#404040">
                                <set attributeName="fill" to="#808080" begin="zoomplus.mouseover" end="zoomplus.mouseout"/>
                        </use>
                        <path d="M-4,0h8M0,-4v8" fill="none" stroke="white" stroke-width="1.5" pointer-events="none"/>
                </g>
                <g id="zoomMin">
                        <use xlink:href="#rim" fill="#404040">
                                <set attributeName="fill" to="#808080" begin="zoomminus.mouseover" end="zoomminus.mouseout"/>
                        </use>
                        <path d="M-4,0h8" fill="none" stroke="white" stroke-width="1.5" pointer-events="none"/>
                </g>
                <g id="dirArrow">
                        <path fill="none" stroke="white" stroke-width="1.5" d="M0,-3.0v7 M-2.5,-0.5L0,-3.0L2.5,-0.5"/>
                </g>
               <g id="resetDef">
                       <use xlink:href="#rim2" fill="#404040">
                               <set attributeName="fill" to="#808080" begin="reset.mouseover" end="reset.mouseout"/>
                       </use>
               </g>
        </defs>

<script type="text/javascript">
var viewWidth = 633;
var viewHeight = 294;
var sectionId = 'dynsection-1';
</script>
<script xlink:href="svgpan.js"/>
<svg id="graph" class="graph">
<g id="viewport">
<title>IndexerCommandCustom</title>
<!-- Node1 -->
<g id="node1" class="node">
<title>Node1</title>
<g id="a_node1"><a xlink:title=" ">
<polygon fill="#999999" stroke="#666666" points="364.23,-19 223.23,-19 223.23,0 364.23,0 364.23,-19"/>
<text text-anchor="middle" x="293.73" y="-7" font-family="Helvetica,sans-Serif" font-size="10.00">IndexerCommandCustom</text>
</a>
</g>
</g>
<!-- Node2 -->
<g id="node2" class="node">
<title>Node2</title>
<g id="a_node2"><a xlink:href="classIndexerCommand.html" target="_top" xlink:title=" ">
<polygon fill="white" stroke="#666666" points="220.73,-97.5 116.73,-97.5 116.73,-78.5 220.73,-78.5 220.73,-97.5"/>
<text text-anchor="middle" x="168.73" y="-85.5" font-family="Helvetica,sans-Serif" font-size="10.00">IndexerCommand</text>
</a>
</g>
</g>
<!-- Node2&#45;&gt;Node1 -->
<g id="edge1" class="edge">
<title>Node2&#45;&gt;Node1</title>
<path fill="none" stroke="#63b8ff" d="M187.7,-70.79C200.47,-60.35 217.98,-46.93 234.73,-37 246.12,-30.24 259.55,-24.08 270.71,-19.41"/>
<polygon fill="#63b8ff" stroke="#63b8ff" points="185.55,-68.02 180.11,-77.11 190.04,-73.4 185.55,-68.02"/>
</g>
<!-- Node3 -->
<g id="node3" class="node">
<title>Node3</title>
<g id="a_node3"><a xlink:href="classFilePath.html" target="_top" xlink:title=" ">
<polygon fill="white" stroke="#666666" points="120.23,-165 65.23,-165 65.23,-146 120.23,-146 120.23,-165"/>
<text text-anchor="middle" x="92.73" y="-153" font-family="Helvetica,sans-Serif" font-size="10.00">FilePath</text>
</a>
</g>
</g>
<!-- Node3&#45;&gt;Node1 -->
<g id="edge8" class="edge">
<title>Node3&#45;&gt;Node1</title>
<path fill="none" stroke="#9a32cd" stroke-dasharray="5,2" d="M57.73,-141.12C25.45,-126.78 -14.64,-102.6 5.73,-77 32.36,-43.52 146.49,-25.44 222.83,-16.9"/>
<polygon fill="#9a32cd" stroke="#9a32cd" points="56.32,-144.33 66.89,-145.01 59.05,-137.88 56.32,-144.33"/>
<text text-anchor="middle" x="56.73" y="-91" font-family="Helvetica,sans-Serif" font-size="10.00"> m_databaseFilePath</text>
<text text-anchor="middle" x="56.73" y="-80" font-family="Helvetica,sans-Serif" font-size="10.00">m_projectFilePath</text>
</g>
<!-- Node3&#45;&gt;Node2 -->
<g id="edge2" class="edge">
<title>Node3&#45;&gt;Node2</title>
<path fill="none" stroke="#9a32cd" stroke-dasharray="5,2" d="M111.44,-138.37C126.34,-125.53 146.63,-108.04 158.64,-97.69"/>
<polygon fill="#9a32cd" stroke="#9a32cd" points="109.41,-135.5 104.12,-144.68 113.98,-140.8 109.41,-135.5"/>
<text text-anchor="middle" x="180.23" y="-120" font-family="Helvetica,sans-Serif" font-size="10.00"> m_sourceFilePath</text>
</g>
<!-- Node4 -->
<g id="node4" class="node">
<title>Node4</title>
<g id="a_node4"><a xlink:title=" ">
<polygon fill="white" stroke="#666666" points="118.23,-286 5.23,-286 5.23,-256 118.23,-256 118.23,-286"/>
<text text-anchor="start" x="13.23" y="-274" font-family="Helvetica,sans-Serif" font-size="10.00">unique_ptr&lt; boost::</text>
<text text-anchor="middle" x="61.73" y="-263" font-family="Helvetica,sans-Serif" font-size="10.00">filesystem::path &gt;</text>
</a>
</g>
</g>
<!-- Node4&#45;&gt;Node3 -->
<g id="edge3" class="edge">
<title>Node4&#45;&gt;Node3</title>
<path fill="none" stroke="#9a32cd" stroke-dasharray="5,2" d="M56.72,-244.35C54.45,-226.36 53.94,-202.19 62.73,-183 66.02,-175.8 72.33,-169.75 78.32,-165.27"/>
<polygon fill="#9a32cd" stroke="#9a32cd" points="53.26,-244.84 58.25,-254.18 60.17,-243.76 53.26,-244.84"/>
<text text-anchor="middle" x="82.73" y="-208" font-family="Helvetica,sans-Serif" font-size="10.00"> m_path</text>
</g>
<!-- Node5 -->
<g id="node5" class="node">
<title>Node5</title>
<g id="a_node5"><a xlink:title=" ">
<polygon fill="white" stroke="#666666" points="220.73,-280.5 182.73,-280.5 182.73,-261.5 220.73,-261.5 220.73,-280.5"/>
<text text-anchor="middle" x="201.73" y="-268.5" font-family="Helvetica,sans-Serif" font-size="10.00">bool</text>
</a>
</g>
</g>
<!-- Node5&#45;&gt;Node1 -->
<g id="edge9" class="edge">
<title>Node5&#45;&gt;Node1</title>
<path fill="none" stroke="#9a32cd" stroke-dasharray="5,2" d="M222.29,-253.78C227.01,-249.15 231.56,-243.77 234.73,-238 269.84,-173.95 247.02,-147.05 267.73,-77 273.98,-55.84 284.11,-31.96 289.7,-19.37"/>
<polygon fill="#9a32cd" stroke="#9a32cd" points="220.17,-250.99 215.02,-260.25 224.82,-256.22 220.17,-250.99"/>
<text text-anchor="middle" x="299.73" y="-120" font-family="Helvetica,sans-Serif" font-size="10.00"> m_runInParallel</text>
</g>
<!-- Node5&#45;&gt;Node3 -->
<g id="edge4" class="edge">
<title>Node5&#45;&gt;Node3</title>
<path fill="none" stroke="#9a32cd" stroke-dasharray="5,2" d="M171.86,-263.32C156.39,-258.53 138.18,-250.63 125.73,-238 123.02,-235.26 104.04,-186.1 96.15,-165.48"/>
<polygon fill="#9a32cd" stroke="#9a32cd" points="170.49,-266.57 181.06,-265.88 172.36,-259.83 170.49,-266.57"/>
<text text-anchor="middle" x="180.23" y="-230" font-family="Helvetica,sans-Serif" font-size="10.00"> m_canonicalized</text>
<text text-anchor="middle" x="180.23" y="-219" font-family="Helvetica,sans-Serif" font-size="10.00">m_checkedExists</text>
<text text-anchor="middle" x="180.23" y="-208" font-family="Helvetica,sans-Serif" font-size="10.00">m_checkedIsDirectory</text>
<text text-anchor="middle" x="180.23" y="-197" font-family="Helvetica,sans-Serif" font-size="10.00">m_exists</text>
<text text-anchor="middle" x="180.23" y="-186" font-family="Helvetica,sans-Serif" font-size="10.00">m_isDirectory</text>
</g>
<!-- Node6 -->
<g id="node6" class="node">
<title>Node6</title>
<g id="a_node6"><a xlink:title=" ">
<polygon fill="white" stroke="#666666" points="402.73,-97.5 276.73,-97.5 276.73,-78.5 402.73,-78.5 402.73,-97.5"/>
<text text-anchor="middle" x="339.73" y="-85.5" font-family="Helvetica,sans-Serif" font-size="10.00">IndexerCommandType</text>
</a>
</g>
</g>
<!-- Node6&#45;&gt;Node1 -->
<g id="edge5" class="edge">
<title>Node6&#45;&gt;Node1</title>
<path fill="none" stroke="#9a32cd" stroke-dasharray="5,2" d="M328.63,-68.55C319.22,-52.89 306.12,-31.11 298.94,-19.17"/>
<polygon fill="#9a32cd" stroke="#9a32cd" points="325.52,-70.16 333.67,-76.93 331.52,-66.55 325.52,-70.16"/>
<text text-anchor="middle" x="341.73" y="-45.5" font-family="Helvetica,sans-Serif" font-size="10.00"> m_type</text>
</g>
<!-- Node7 -->
<g id="node7" class="node">
<title>Node7</title>
<g id="a_node7"><a xlink:title=" ">
<polygon fill="white" stroke="#666666" points="474.23,-97.5 421.23,-97.5 421.23,-78.5 474.23,-78.5 474.23,-97.5"/>
<text text-anchor="middle" x="447.73" y="-85.5" font-family="Helvetica,sans-Serif" font-size="10.00">wstring</text>
</a>
</g>
</g>
<!-- Node7&#45;&gt;Node1 -->
<g id="edge6" class="edge">
<title>Node7&#45;&gt;Node1</title>
<path fill="none" stroke="#9a32cd" stroke-dasharray="5,2" d="M425.69,-71.94C409.55,-61.31 386.86,-47.21 365.73,-37 351.69,-30.22 335.45,-24.1 321.94,-19.46"/>
<polygon fill="#9a32cd" stroke="#9a32cd" points="423.3,-74.55 433.56,-77.2 427.19,-68.73 423.3,-74.55"/>
<text text-anchor="middle" x="453.23" y="-51" font-family="Helvetica,sans-Serif" font-size="10.00"> m_command</text>
<text text-anchor="middle" x="453.23" y="-40" font-family="Helvetica,sans-Serif" font-size="10.00">m_databaseVersion</text>
</g>
<!-- Node8 -->
<g id="node8" class="node">
<title>Node8</title>
<g id="a_node8"><a xlink:title=" ">
<polygon fill="white" stroke="#666666" points="625.23,-97.5 498.23,-97.5 498.23,-78.5 625.23,-78.5 625.23,-97.5"/>
<text text-anchor="middle" x="561.73" y="-85.5" font-family="Helvetica,sans-Serif" font-size="10.00">vector&lt; std::wstring &gt;</text>
</a>
</g>
</g>
<!-- Node8&#45;&gt;Node1 -->
<g id="edge7" class="edge">
<title>Node8&#45;&gt;Node1</title>
<path fill="none" stroke="#9a32cd" stroke-dasharray="5,2" d="M547.32,-69.54C536.99,-58.29 522.04,-44.42 505.73,-37 481.2,-25.85 416.26,-18.82 364.66,-14.83"/>
<polygon fill="#9a32cd" stroke="#9a32cd" points="544.65,-71.81 553.86,-77.04 549.93,-67.21 544.65,-71.81"/>
<text text-anchor="middle" x="570.23" y="-45.5" font-family="Helvetica,sans-Serif" font-size="10.00"> m_arguments</text>
</g>
</g>
</svg>
        <g id="navigator" transform="translate(0 0)" fill="#404254">
                <rect fill="#f2f5e9" fill-opacity="0.5" stroke="#606060" stroke-width=".5" x="0" y="0" width="60" height="60"/>
                <use id="zoomplus" xlink:href="#zoomPlus" x="17" y="9" onmousedown="handleZoom(evt,'in')"/>
                <use id="zoomminus" xlink:href="#zoomMin" x="42" y="9" onmousedown="handleZoom(evt,'out')"/>
                <use id="reset" xlink:href="#resetDef" x="30" y="36" onmousedown="handleReset()"/>
                <g id="arrowUp" xlink:href="#dirArrow" transform="translate(30 24)" onmousedown="handlePan(0,-1)">
                  <use xlink:href="#rim" fill="#404040">
                        <set attributeName="fill" to="#808080" begin="arrowUp.mouseover" end="arrowUp.mouseout"/>
                  </use>
                  <path fill="none" stroke="white" stroke-width="1.5" d="M0,-3.0v7 M-2.5,-0.5L0,-3.0L2.5,-0.5"/>
                </g>
                <g id="arrowRight" xlink:href="#dirArrow" transform="rotate(90) translate(36 -43)" onmousedown="handlePan(1,0)">
                  <use xlink:href="#rim" fill="#404040">
                        <set attributeName="fill" to="#808080" begin="arrowRight.mouseover" end="arrowRight.mouseout"/>
                  </use>
                  <path fill="none" stroke="white" stroke-width="1.5" d="M0,-3.0v7 M-2.5,-0.5L0,-3.0L2.5,-0.5"/>
                </g>
                <g id="arrowDown" xlink:href="#dirArrow" transform="rotate(180) translate(-30 -48)" onmousedown="handlePan(0,1)">
                  <use xlink:href="#rim" fill="#404040">
                        <set attributeName="fill" to="#808080" begin="arrowDown.mouseover" end="arrowDown.mouseout"/>
                  </use>
                  <path fill="none" stroke="white" stroke-width="1.5" d="M0,-3.0v7 M-2.5,-0.5L0,-3.0L2.5,-0.5"/>
                </g>
                <g id="arrowLeft" xlink:href="#dirArrow" transform="rotate(270) translate(-36 17)" onmousedown="handlePan(-1,0)">
                  <use xlink:href="#rim" fill="#404040">
                        <set attributeName="fill" to="#808080" begin="arrowLeft.mouseover" end="arrowLeft.mouseout"/>
                  </use>
                  <path fill="none" stroke="white" stroke-width="1.5" d="M0,-3.0v7 M-2.5,-0.5L0,-3.0L2.5,-0.5"/>
                </g>
        </g>
        <svg viewBox="0 0 15 15" width="100%" height="30px" preserveAspectRatio="xMaxYMin meet">
         <g id="arrow_out" transform="scale(0.3 0.3)">
          <a xlink:href="classIndexerCommandCustom__coll__graph_org.svg" target="_base">
           <rect id="button" ry="5" rx="5" y="6" x="6" height="38" width="38"
                fill="#f2f5e9" fill-opacity="0.5" stroke="#606060" stroke-width="1.0"/>
           <path id="arrow"
             d="M 11.500037,31.436501 C 11.940474,20.09759 22.043105,11.32322 32.158766,21.979434 L 37.068811,17.246167 C 37.068811,17.246167 37.088388,32 37.088388,32 L 22.160133,31.978069 C 22.160133,31.978069 26.997745,27.140456 26.997745,27.140456 C 18.528582,18.264221 13.291696,25.230495 11.500037,31.436501 z"
             style="fill:#404040;"/>
          </a>
         </g>
        </svg>
</svg>
