<?xml version="1.0" encoding="UTF-8" standalone="no"?>
<!DOCTYPE svg PUBLIC "-//W3C//DTD SVG 1.1//EN"
 "http://www.w3.org/Graphics/SVG/1.1/DTD/svg11.dtd">
<!-- Generated by graphviz version 9.0.0 (0)
 -->
<!-- Title: SqliteIndexStorage::addNodes Pages: 1 -->
<svg width="839pt" height="354pt"
 viewBox="0.00 0.00 838.75 353.50" xmlns="http://www.w3.org/2000/svg" xmlns:xlink="http://www.w3.org/1999/xlink">
<g id="graph0" class="graph" transform="scale(1 1) rotate(0) translate(4 349.5)">
<title>SqliteIndexStorage::addNodes</title>
<!-- Node1 -->
<g id="Node000001" class="node">
<title>Node1</title>
<g id="a_Node000001"><a xlink:title=" ">
<polygon fill="#999999" stroke="#666666" points="108.25,-181.5 0,-181.5 0,-148 108.25,-148 108.25,-181.5"/>
<text text-anchor="start" x="8" y="-168" font-family="Helvetica,sans-Serif" font-size="10.00">SqliteIndexStorage</text>
<text text-anchor="middle" x="54.12" y="-155.25" font-family="Helvetica,sans-Serif" font-size="10.00">::addNodes</text>
</a>
</g>
</g>
<!-- Node2 -->
<g id="Node000002" class="node">
<title>Node2</title>
<g id="a_Node000002"><a xlink:href="classLowMemoryStringMap.html#abbdbf265cea339f37830b462574bd206" target="_top" xlink:title=" ">
<polygon fill="white" stroke="#666666" points="293.75,-317.12 144.25,-317.12 144.25,-296.38 293.75,-296.38 293.75,-317.12"/>
<text text-anchor="middle" x="219" y="-303.62" font-family="Helvetica,sans-Serif" font-size="10.00">LowMemoryStringMap::add</text>
</a>
</g>
</g>
<!-- Node1&#45;&gt;Node2 -->
<g id="edge1_Node000001_Node000002" class="edge">
<title>Node1&#45;&gt;Node2</title>
<g id="a_edge1_Node000001_Node000002"><a xlink:title=" ">
<path fill="none" stroke="#63b8ff" d="M62.79,-181.98C75.65,-208.84 104.15,-260.43 144.25,-287.75 146.05,-288.98 147.93,-290.13 149.86,-291.2"/>
<polygon fill="#63b8ff" stroke="#63b8ff" points="148.03,-294.2 158.56,-295.33 151.03,-287.88 148.03,-294.2"/>
</a>
</g>
</g>
<!-- Node7 -->
<g id="Node000007" class="node">
<title>Node7</title>
<g id="a_Node000007"><a xlink:href="classLowMemoryStringMap.html#a531c95f8149d40ec2c4c72269c8f5968" target="_top" xlink:title=" ">
<polygon fill="white" stroke="#666666" points="281.75,-278.5 156.25,-278.5 156.25,-245 281.75,-245 281.75,-278.5"/>
<text text-anchor="start" x="164.25" y="-265" font-family="Helvetica,sans-Serif" font-size="10.00">LowMemoryStringMap</text>
<text text-anchor="middle" x="219" y="-252.25" font-family="Helvetica,sans-Serif" font-size="10.00">::empty</text>
</a>
</g>
</g>
<!-- Node1&#45;&gt;Node7 -->
<g id="edge8_Node000001_Node000007" class="edge">
<title>Node1&#45;&gt;Node7</title>
<g id="a_edge8_Node000001_Node000007"><a xlink:title=" ">
<path fill="none" stroke="#63b8ff" d="M72.94,-181.94C90.06,-197.7 117.25,-220.8 144.25,-235.75 146.89,-237.21 149.62,-238.61 152.42,-239.96"/>
<polygon fill="#63b8ff" stroke="#63b8ff" points="150.8,-243.07 161.35,-243.95 153.65,-236.68 150.8,-243.07"/>
</a>
</g>
</g>
<!-- Node8 -->
<g id="Node000008" class="node">
<title>Node8</title>
<g id="a_Node000008"><a xlink:href="namespaceutility.html#a4959dcb82d86854e88fa8757194a00ec" target="_top" xlink:title=" ">
<polygon fill="white" stroke="#666666" points="277.25,-227.12 160.75,-227.12 160.75,-206.38 277.25,-206.38 277.25,-227.12"/>
<text text-anchor="middle" x="219" y="-213.62" font-family="Helvetica,sans-Serif" font-size="10.00">utility::encodeToUtf8</text>
</a>
</g>
</g>
<!-- Node1&#45;&gt;Node8 -->
<g id="edge9_Node000001_Node000008" class="edge">
<title>Node1&#45;&gt;Node8</title>
<g id="a_edge9_Node000001_Node000008"><a xlink:title=" ">
<path fill="none" stroke="#63b8ff" d="M100.69,-181.9C114.59,-186.92 129.98,-192.26 144.25,-196.75 150.89,-198.84 157.91,-200.91 164.88,-202.89"/>
<polygon fill="#63b8ff" stroke="#63b8ff" points="163.68,-206.19 174.25,-205.5 165.56,-199.45 163.68,-206.19"/>
</a>
</g>
</g>
<!-- Node9 -->
<g id="Node000009" class="node">
<title>Node9</title>
<g id="a_Node000009"><a xlink:href="classSqliteIndexStorage_1_1InsertBatchStatement.html#acaa5199762bf4a7671c03fb87a03abfb" target="_top" xlink:title=" ">
<polygon fill="white" stroke="#666666" points="283.25,-187.88 154.75,-187.88 154.75,-141.62 283.25,-141.62 283.25,-187.88"/>
<text text-anchor="start" x="162.75" y="-174.38" font-family="Helvetica,sans-Serif" font-size="10.00">SqliteIndexStorage</text>
<text text-anchor="start" x="162.75" y="-161.62" font-family="Helvetica,sans-Serif" font-size="10.00">::InsertBatchStatement</text>
<text text-anchor="middle" x="219" y="-148.88" font-family="Helvetica,sans-Serif" font-size="10.00">::execute</text>
</a>
</g>
</g>
<!-- Node1&#45;&gt;Node9 -->
<g id="edge10_Node000001_Node000009" class="edge">
<title>Node1&#45;&gt;Node9</title>
<g id="a_edge10_Node000001_Node000009"><a xlink:title=" ">
<path fill="none" stroke="#63b8ff" d="M108.46,-164.75C119.45,-164.75 131.22,-164.75 142.83,-164.75"/>
<polygon fill="#63b8ff" stroke="#63b8ff" points="142.82,-168.25 152.82,-164.75 142.82,-161.25 142.82,-168.25"/>
</a>
</g>
</g>
<!-- Node10 -->
<g id="Node000010" class="node">
<title>Node10</title>
<g id="a_Node000010"><a xlink:href="classSqliteStorage.html#a6cc9f021cdd876e5dbc6a9c69e65c6b9" target="_top" xlink:title=" ">
<polygon fill="white" stroke="#666666" points="507,-124.12 329.75,-124.12 329.75,-103.38 507,-103.38 507,-124.12"/>
<text text-anchor="middle" x="418.38" y="-110.62" font-family="Helvetica,sans-Serif" font-size="10.00">SqliteStorage::executeStatement</text>
</a>
</g>
</g>
<!-- Node1&#45;&gt;Node10 -->
<g id="edge12_Node000001_Node000010" class="edge">
<title>Node1&#45;&gt;Node10</title>
<g id="a_edge12_Node000001_Node000010"><a xlink:title=" ">
<path fill="none" stroke="#63b8ff" d="M95.71,-147.52C110.7,-141.87 128,-136.16 144.25,-132.75 201.13,-120.8 265.99,-115.93 318.22,-114.1"/>
<polygon fill="#63b8ff" stroke="#63b8ff" points="318.11,-117.61 327.99,-113.8 317.89,-110.61 318.11,-117.61"/>
</a>
</g>
</g>
<!-- Node11 -->
<g id="Node000011" class="node">
<title>Node11</title>
<g id="a_Node000011"><a xlink:href="classLowMemoryStringMap.html#ad9b41a4eb1649565be4e5399e1b363a2" target="_top" xlink:title=" ">
<polygon fill="white" stroke="#666666" points="281.75,-85.5 156.25,-85.5 156.25,-52 281.75,-52 281.75,-85.5"/>
<text text-anchor="start" x="164.25" y="-72" font-family="Helvetica,sans-Serif" font-size="10.00">LowMemoryStringMap</text>
<text text-anchor="middle" x="219" y="-59.25" font-family="Helvetica,sans-Serif" font-size="10.00">::find</text>
</a>
</g>
</g>
<!-- Node1&#45;&gt;Node11 -->
<g id="edge13_Node000001_Node000011" class="edge">
<title>Node1&#45;&gt;Node11</title>
<g id="a_edge13_Node000001_Node000011"><a xlink:title=" ">
<path fill="none" stroke="#63b8ff" d="M75.8,-147.53C93.29,-133.5 119.4,-113.78 144.25,-99.75 149.91,-96.56 155.96,-93.5 162.07,-90.62"/>
<polygon fill="#63b8ff" stroke="#63b8ff" points="163.3,-93.91 170.98,-86.61 160.42,-87.53 163.3,-93.91"/>
</a>
</g>
</g>
<!-- Node12 -->
<g id="Node000012" class="node">
<title>Node12</title>
<g id="a_Node000012"><a xlink:href="classSqliteIndexStorage.html#a3284ff878b4a7847c39ed9651cfa4858" target="_top" xlink:title=" ">
<polygon fill="white" stroke="#666666" points="273.12,-33.5 164.88,-33.5 164.88,0 273.12,0 273.12,-33.5"/>
<text text-anchor="start" x="172.88" y="-20" font-family="Helvetica,sans-Serif" font-size="10.00">SqliteIndexStorage</text>
<text text-anchor="middle" x="219" y="-7.25" font-family="Helvetica,sans-Serif" font-size="10.00">::setNodeType</text>
</a>
</g>
</g>
<!-- Node1&#45;&gt;Node12 -->
<g id="edge14_Node000001_Node000012" class="edge">
<title>Node1&#45;&gt;Node12</title>
<g id="a_edge14_Node000001_Node000012"><a xlink:title=" ">
<path fill="none" stroke="#63b8ff" d="M63.34,-147.63C76.74,-121.43 105.73,-71.39 144.25,-42.75 147.4,-40.41 150.77,-38.27 154.28,-36.31"/>
<polygon fill="#63b8ff" stroke="#63b8ff" points="155.71,-39.51 163.11,-31.93 152.59,-33.24 155.71,-39.51"/>
</a>
</g>
</g>
<!-- Node3 -->
<g id="Node000003" class="node">
<title>Node3</title>
<g id="a_Node000003"><a xlink:href="classLowMemoryStringMap_1_1Branch.html#a859306095c5056651a34521d2bcf7db3" target="_top" xlink:title=" ">
<polygon fill="white" stroke="#666666" points="481.12,-323.5 355.62,-323.5 355.62,-290 481.12,-290 481.12,-323.5"/>
<text text-anchor="start" x="363.62" y="-310" font-family="Helvetica,sans-Serif" font-size="10.00">LowMemoryStringMap</text>
<text text-anchor="middle" x="418.38" y="-297.25" font-family="Helvetica,sans-Serif" font-size="10.00">::Branch::addTo</text>
</a>
</g>
</g>
<!-- Node2&#45;&gt;Node3 -->
<g id="edge2_Node000002_Node000003" class="edge">
<title>Node2&#45;&gt;Node3</title>
<g id="a_edge2_Node000002_Node000003"><a xlink:title=" ">
<path fill="none" stroke="#63b8ff" d="M294.06,-306.75C310.41,-306.75 327.73,-306.75 344.05,-306.75"/>
<polygon fill="#63b8ff" stroke="#63b8ff" points="343.66,-310.25 353.66,-306.75 343.66,-303.25 343.66,-310.25"/>
</a>
</g>
</g>
<!-- Node3&#45;&gt;Node3 -->
<g id="edge3_Node000003_Node000003" class="edge">
<title>Node3&#45;&gt;Node3</title>
<g id="a_edge3_Node000003_Node000003"><a xlink:title=" ">
<path fill="none" stroke="#63b8ff" d="M384.69,-323.91C378.97,-333.12 390.2,-341.5 418.38,-341.5 434.23,-341.5 444.71,-338.85 449.84,-334.89"/>
<polygon fill="#63b8ff" stroke="#63b8ff" points="453.2,-335.89 451.76,-325.4 446.34,-334.5 453.2,-335.89"/>
</a>
</g>
</g>
<!-- Node4 -->
<g id="Node000004" class="node">
<title>Node4</title>
<g id="a_Node000004"><a xlink:href="classLowMemoryStringMap_1_1Branch.html#a7d6afe9eb9602a589debca71b7dc1788" target="_top" xlink:title=" ">
<polygon fill="white" stroke="#666666" points="830.38,-345.5 704.88,-345.5 704.88,-312 830.38,-312 830.38,-345.5"/>
<text text-anchor="start" x="712.88" y="-332" font-family="Helvetica,sans-Serif" font-size="10.00">LowMemoryStringMap</text>
<text text-anchor="middle" x="767.62" y="-319.25" font-family="Helvetica,sans-Serif" font-size="10.00">::Branch::createLeaf</text>
</a>
</g>
</g>
<!-- Node3&#45;&gt;Node4 -->
<g id="edge4_Node000003_Node000004" class="edge">
<title>Node3&#45;&gt;Node4</title>
<g id="a_edge4_Node000003_Node000004"><a xlink:title=" ">
<path fill="none" stroke="#63b8ff" d="M481.46,-310.68C540.78,-314.44 630.22,-320.11 693.08,-324.09"/>
<polygon fill="#63b8ff" stroke="#63b8ff" points="692.78,-327.58 702.99,-324.72 693.23,-320.59 692.78,-327.58"/>
</a>
</g>
</g>
<!-- Node5 -->
<g id="Node000005" class="node">
<title>Node5</title>
<g id="a_Node000005"><a xlink:href="classLowMemoryStringMap_1_1Branch.html#a2df7f420a035f5f18410b054df535016" target="_top" xlink:title=" ">
<polygon fill="white" stroke="#666666" points="668.5,-300.5 543,-300.5 543,-267 668.5,-267 668.5,-300.5"/>
<text text-anchor="start" x="551" y="-287" font-family="Helvetica,sans-Serif" font-size="10.00">LowMemoryStringMap</text>
<text text-anchor="middle" x="605.75" y="-274.25" font-family="Helvetica,sans-Serif" font-size="10.00">::Branch::split</text>
</a>
</g>
</g>
<!-- Node3&#45;&gt;Node5 -->
<g id="edge5_Node000003_Node000005" class="edge">
<title>Node3&#45;&gt;Node5</title>
<g id="a_edge5_Node000003_Node000005"><a xlink:title=" ">
<path fill="none" stroke="#63b8ff" d="M481.62,-299.03C497.6,-297.04 514.94,-294.89 531.42,-292.85"/>
<polygon fill="#63b8ff" stroke="#63b8ff" points="531.68,-296.34 541.17,-291.64 530.81,-289.4 531.68,-296.34"/>
</a>
</g>
</g>
<!-- Node5&#45;&gt;Node4 -->
<g id="edge7_Node000005_Node000004" class="edge">
<title>Node5&#45;&gt;Node4</title>
<g id="a_edge7_Node000005_Node000004"><a xlink:title=" ">
<path fill="none" stroke="#63b8ff" d="M667.65,-300.89C676.43,-303.36 685.54,-305.93 694.52,-308.45"/>
<polygon fill="#63b8ff" stroke="#63b8ff" points="693.34,-311.76 703.91,-311.1 695.23,-305.02 693.34,-311.76"/>
</a>
</g>
</g>
<!-- Node6 -->
<g id="Node000006" class="node">
<title>Node6</title>
<g id="a_Node000006"><a xlink:href="classLowMemoryStringMap_1_1Branch.html#a9d1b953a6d2224b79908c95c2677b041" target="_top" xlink:title=" ">
<polygon fill="white" stroke="#666666" points="830.75,-293.5 704.5,-293.5 704.5,-260 830.75,-260 830.75,-293.5"/>
<text text-anchor="start" x="712.5" y="-280" font-family="Helvetica,sans-Serif" font-size="10.00">LowMemoryStringMap</text>
<text text-anchor="middle" x="767.62" y="-267.25" font-family="Helvetica,sans-Serif" font-size="10.00">::Branch::createBranch</text>
</a>
</g>
</g>
<!-- Node5&#45;&gt;Node6 -->
<g id="edge6_Node000005_Node000006" class="edge">
<title>Node5&#45;&gt;Node6</title>
<g id="a_edge6_Node000005_Node000006"><a xlink:title=" ">
<path fill="none" stroke="#63b8ff" d="M668.56,-281.04C676.51,-280.7 684.7,-280.34 692.81,-279.98"/>
<polygon fill="#63b8ff" stroke="#63b8ff" points="692.84,-283.48 702.67,-279.55 692.53,-276.49 692.84,-283.48"/>
</a>
</g>
</g>
<!-- Node9&#45;&gt;Node10 -->
<g id="edge11_Node000009_Node000010" class="edge">
<title>Node9&#45;&gt;Node10</title>
<g id="a_edge11_Node000009_Node000010"><a xlink:title=" ">
<path fill="none" stroke="#63b8ff" d="M283.54,-148.33C309.63,-141.59 339.49,-133.87 364.38,-127.44"/>
<polygon fill="#63b8ff" stroke="#63b8ff" points="365.16,-130.86 373.97,-124.97 363.41,-124.08 365.16,-130.86"/>
</a>
</g>
</g>
<!-- Node12&#45;&gt;Node10 -->
<g id="edge15_Node000012_Node000010" class="edge">
<title>Node12&#45;&gt;Node10</title>
<g id="a_edge15_Node000012_Node000010"><a xlink:title=" ">
<path fill="none" stroke="#63b8ff" d="M272.45,-33.91C279.69,-36.66 286.96,-39.64 293.75,-42.75 328.79,-58.82 366.95,-81.62 391.47,-97.01"/>
<polygon fill="#63b8ff" stroke="#63b8ff" points="389.49,-99.9 399.81,-102.3 393.24,-93.99 389.49,-99.9"/>
</a>
</g>
</g>
</g>
</svg>
