<?xml version="1.0" encoding="UTF-8" standalone="no"?>
<!DOCTYPE svg PUBLIC "-//W3C//DTD SVG 1.1//EN"
 "http://www.w3.org/Graphics/SVG/1.1/DTD/svg11.dtd">
<!-- Generated by graphviz version 9.0.0 (0)
 -->
<!-- Title: PersistentStorage::addNodes Pages: 1 -->
<svg width="983pt" height="354pt"
 viewBox="0.00 0.00 983.00 353.50" xmlns="http://www.w3.org/2000/svg" xmlns:xlink="http://www.w3.org/1999/xlink">
<g id="graph0" class="graph" transform="scale(1 1) rotate(0) translate(4 349.5)">
<title>PersistentStorage::addNodes</title>
<!-- Node1 -->
<g id="Node000001" class="node">
<title>Node1</title>
<g id="a_Node000001"><a xlink:title=" ">
<polygon fill="#999999" stroke="#666666" points="108.25,-181.5 0,-181.5 0,-148 108.25,-148 108.25,-181.5"/>
<text text-anchor="start" x="8" y="-168" font-family="Helvetica,sans-Serif" font-size="10.00">PersistentStorage::</text>
<text text-anchor="middle" x="54.12" y="-155.25" font-family="Helvetica,sans-Serif" font-size="10.00">addNodes</text>
</a>
</g>
</g>
<!-- Node2 -->
<g id="Node000002" class="node">
<title>Node2</title>
<g id="a_Node000002"><a xlink:href="classSqliteIndexStorage.html#a1195312ee7f47adb404a9da8ed32ad52" target="_top" xlink:title=" ">
<polygon fill="white" stroke="#666666" points="252.5,-181.5 144.25,-181.5 144.25,-148 252.5,-148 252.5,-181.5"/>
<text text-anchor="start" x="152.25" y="-168" font-family="Helvetica,sans-Serif" font-size="10.00">SqliteIndexStorage</text>
<text text-anchor="middle" x="198.38" y="-155.25" font-family="Helvetica,sans-Serif" font-size="10.00">::addNodes</text>
</a>
</g>
</g>
<!-- Node1&#45;&gt;Node2 -->
<g id="edge1_Node000001_Node000002" class="edge">
<title>Node1&#45;&gt;Node2</title>
<g id="a_edge1_Node000001_Node000002"><a xlink:title=" ">
<path fill="none" stroke="#63b8ff" d="M108.5,-164.75C116.43,-164.75 124.67,-164.75 132.8,-164.75"/>
<polygon fill="#63b8ff" stroke="#63b8ff" points="132.66,-168.25 142.66,-164.75 132.66,-161.25 132.66,-168.25"/>
</a>
</g>
</g>
<!-- Node3 -->
<g id="Node000003" class="node">
<title>Node3</title>
<g id="a_Node000003"><a xlink:href="classLowMemoryStringMap.html#abbdbf265cea339f37830b462574bd206" target="_top" xlink:title=" ">
<polygon fill="white" stroke="#666666" points="438,-317.12 288.5,-317.12 288.5,-296.38 438,-296.38 438,-317.12"/>
<text text-anchor="middle" x="363.25" y="-303.62" font-family="Helvetica,sans-Serif" font-size="10.00">LowMemoryStringMap::add</text>
</a>
</g>
</g>
<!-- Node2&#45;&gt;Node3 -->
<g id="edge2_Node000002_Node000003" class="edge">
<title>Node2&#45;&gt;Node3</title>
<g id="a_edge2_Node000002_Node000003"><a xlink:title=" ">
<path fill="none" stroke="#63b8ff" d="M207.04,-181.98C219.9,-208.84 248.4,-260.43 288.5,-287.75 290.3,-288.98 292.18,-290.13 294.11,-291.2"/>
<polygon fill="#63b8ff" stroke="#63b8ff" points="292.28,-294.2 302.81,-295.33 295.28,-287.88 292.28,-294.2"/>
</a>
</g>
</g>
<!-- Node8 -->
<g id="Node000008" class="node">
<title>Node8</title>
<g id="a_Node000008"><a xlink:href="classLowMemoryStringMap.html#a531c95f8149d40ec2c4c72269c8f5968" target="_top" xlink:title=" ">
<polygon fill="white" stroke="#666666" points="426,-278.5 300.5,-278.5 300.5,-245 426,-245 426,-278.5"/>
<text text-anchor="start" x="308.5" y="-265" font-family="Helvetica,sans-Serif" font-size="10.00">LowMemoryStringMap</text>
<text text-anchor="middle" x="363.25" y="-252.25" font-family="Helvetica,sans-Serif" font-size="10.00">::empty</text>
</a>
</g>
</g>
<!-- Node2&#45;&gt;Node8 -->
<g id="edge9_Node000002_Node000008" class="edge">
<title>Node2&#45;&gt;Node8</title>
<g id="a_edge9_Node000002_Node000008"><a xlink:title=" ">
<path fill="none" stroke="#63b8ff" d="M217.19,-181.94C234.31,-197.7 261.5,-220.8 288.5,-235.75 291.14,-237.21 293.87,-238.61 296.67,-239.96"/>
<polygon fill="#63b8ff" stroke="#63b8ff" points="295.05,-243.07 305.6,-243.95 297.9,-236.68 295.05,-243.07"/>
</a>
</g>
</g>
<!-- Node9 -->
<g id="Node000009" class="node">
<title>Node9</title>
<g id="a_Node000009"><a xlink:href="namespaceutility.html#a4959dcb82d86854e88fa8757194a00ec" target="_top" xlink:title=" ">
<polygon fill="white" stroke="#666666" points="421.5,-227.12 305,-227.12 305,-206.38 421.5,-206.38 421.5,-227.12"/>
<text text-anchor="middle" x="363.25" y="-213.62" font-family="Helvetica,sans-Serif" font-size="10.00">utility::encodeToUtf8</text>
</a>
</g>
</g>
<!-- Node2&#45;&gt;Node9 -->
<g id="edge10_Node000002_Node000009" class="edge">
<title>Node2&#45;&gt;Node9</title>
<g id="a_edge10_Node000002_Node000009"><a xlink:title=" ">
<path fill="none" stroke="#63b8ff" d="M244.94,-181.9C258.84,-186.92 274.23,-192.26 288.5,-196.75 295.14,-198.84 302.16,-200.91 309.13,-202.89"/>
<polygon fill="#63b8ff" stroke="#63b8ff" points="307.93,-206.19 318.5,-205.5 309.81,-199.45 307.93,-206.19"/>
</a>
</g>
</g>
<!-- Node10 -->
<g id="Node000010" class="node">
<title>Node10</title>
<g id="a_Node000010"><a xlink:href="classSqliteIndexStorage_1_1InsertBatchStatement.html#acaa5199762bf4a7671c03fb87a03abfb" target="_top" xlink:title=" ">
<polygon fill="white" stroke="#666666" points="427.5,-187.88 299,-187.88 299,-141.62 427.5,-141.62 427.5,-187.88"/>
<text text-anchor="start" x="307" y="-174.38" font-family="Helvetica,sans-Serif" font-size="10.00">SqliteIndexStorage</text>
<text text-anchor="start" x="307" y="-161.62" font-family="Helvetica,sans-Serif" font-size="10.00">::InsertBatchStatement</text>
<text text-anchor="middle" x="363.25" y="-148.88" font-family="Helvetica,sans-Serif" font-size="10.00">::execute</text>
</a>
</g>
</g>
<!-- Node2&#45;&gt;Node10 -->
<g id="edge11_Node000002_Node000010" class="edge">
<title>Node2&#45;&gt;Node10</title>
<g id="a_edge11_Node000002_Node000010"><a xlink:title=" ">
<path fill="none" stroke="#63b8ff" d="M252.71,-164.75C263.7,-164.75 275.47,-164.75 287.08,-164.75"/>
<polygon fill="#63b8ff" stroke="#63b8ff" points="287.07,-168.25 297.07,-164.75 287.07,-161.25 287.07,-168.25"/>
</a>
</g>
</g>
<!-- Node11 -->
<g id="Node000011" class="node">
<title>Node11</title>
<g id="a_Node000011"><a xlink:href="classSqliteStorage.html#a6cc9f021cdd876e5dbc6a9c69e65c6b9" target="_top" xlink:title=" ">
<polygon fill="white" stroke="#666666" points="651.25,-124.12 474,-124.12 474,-103.38 651.25,-103.38 651.25,-124.12"/>
<text text-anchor="middle" x="562.62" y="-110.62" font-family="Helvetica,sans-Serif" font-size="10.00">SqliteStorage::executeStatement</text>
</a>
</g>
</g>
<!-- Node2&#45;&gt;Node11 -->
<g id="edge13_Node000002_Node000011" class="edge">
<title>Node2&#45;&gt;Node11</title>
<g id="a_edge13_Node000002_Node000011"><a xlink:title=" ">
<path fill="none" stroke="#63b8ff" d="M239.96,-147.52C254.95,-141.87 272.25,-136.16 288.5,-132.75 345.38,-120.8 410.24,-115.93 462.47,-114.1"/>
<polygon fill="#63b8ff" stroke="#63b8ff" points="462.36,-117.61 472.24,-113.8 462.14,-110.61 462.36,-117.61"/>
</a>
</g>
</g>
<!-- Node12 -->
<g id="Node000012" class="node">
<title>Node12</title>
<g id="a_Node000012"><a xlink:href="classLowMemoryStringMap.html#ad9b41a4eb1649565be4e5399e1b363a2" target="_top" xlink:title=" ">
<polygon fill="white" stroke="#666666" points="426,-85.5 300.5,-85.5 300.5,-52 426,-52 426,-85.5"/>
<text text-anchor="start" x="308.5" y="-72" font-family="Helvetica,sans-Serif" font-size="10.00">LowMemoryStringMap</text>
<text text-anchor="middle" x="363.25" y="-59.25" font-family="Helvetica,sans-Serif" font-size="10.00">::find</text>
</a>
</g>
</g>
<!-- Node2&#45;&gt;Node12 -->
<g id="edge14_Node000002_Node000012" class="edge">
<title>Node2&#45;&gt;Node12</title>
<g id="a_edge14_Node000002_Node000012"><a xlink:title=" ">
<path fill="none" stroke="#63b8ff" d="M220.05,-147.53C237.54,-133.5 263.65,-113.78 288.5,-99.75 294.16,-96.56 300.21,-93.5 306.32,-90.62"/>
<polygon fill="#63b8ff" stroke="#63b8ff" points="307.55,-93.91 315.23,-86.61 304.67,-87.53 307.55,-93.91"/>
</a>
</g>
</g>
<!-- Node13 -->
<g id="Node000013" class="node">
<title>Node13</title>
<g id="a_Node000013"><a xlink:href="classSqliteIndexStorage.html#a3284ff878b4a7847c39ed9651cfa4858" target="_top" xlink:title=" ">
<polygon fill="white" stroke="#666666" points="417.38,-33.5 309.12,-33.5 309.12,0 417.38,0 417.38,-33.5"/>
<text text-anchor="start" x="317.12" y="-20" font-family="Helvetica,sans-Serif" font-size="10.00">SqliteIndexStorage</text>
<text text-anchor="middle" x="363.25" y="-7.25" font-family="Helvetica,sans-Serif" font-size="10.00">::setNodeType</text>
</a>
</g>
</g>
<!-- Node2&#45;&gt;Node13 -->
<g id="edge15_Node000002_Node000013" class="edge">
<title>Node2&#45;&gt;Node13</title>
<g id="a_edge15_Node000002_Node000013"><a xlink:title=" ">
<path fill="none" stroke="#63b8ff" d="M207.59,-147.63C220.99,-121.43 249.98,-71.39 288.5,-42.75 291.65,-40.41 295.02,-38.27 298.53,-36.31"/>
<polygon fill="#63b8ff" stroke="#63b8ff" points="299.96,-39.51 307.36,-31.93 296.84,-33.24 299.96,-39.51"/>
</a>
</g>
</g>
<!-- Node4 -->
<g id="Node000004" class="node">
<title>Node4</title>
<g id="a_Node000004"><a xlink:href="classLowMemoryStringMap_1_1Branch.html#a859306095c5056651a34521d2bcf7db3" target="_top" xlink:title=" ">
<polygon fill="white" stroke="#666666" points="625.38,-323.5 499.88,-323.5 499.88,-290 625.38,-290 625.38,-323.5"/>
<text text-anchor="start" x="507.88" y="-310" font-family="Helvetica,sans-Serif" font-size="10.00">LowMemoryStringMap</text>
<text text-anchor="middle" x="562.62" y="-297.25" font-family="Helvetica,sans-Serif" font-size="10.00">::Branch::addTo</text>
</a>
</g>
</g>
<!-- Node3&#45;&gt;Node4 -->
<g id="edge3_Node000003_Node000004" class="edge">
<title>Node3&#45;&gt;Node4</title>
<g id="a_edge3_Node000003_Node000004"><a xlink:title=" ">
<path fill="none" stroke="#63b8ff" d="M438.31,-306.75C454.66,-306.75 471.98,-306.75 488.3,-306.75"/>
<polygon fill="#63b8ff" stroke="#63b8ff" points="487.91,-310.25 497.91,-306.75 487.91,-303.25 487.91,-310.25"/>
</a>
</g>
</g>
<!-- Node4&#45;&gt;Node4 -->
<g id="edge4_Node000004_Node000004" class="edge">
<title>Node4&#45;&gt;Node4</title>
<g id="a_edge4_Node000004_Node000004"><a xlink:title=" ">
<path fill="none" stroke="#63b8ff" d="M528.94,-323.91C523.22,-333.12 534.45,-341.5 562.62,-341.5 578.48,-341.5 588.96,-338.85 594.09,-334.89"/>
<polygon fill="#63b8ff" stroke="#63b8ff" points="597.45,-335.89 596.01,-325.4 590.59,-334.5 597.45,-335.89"/>
</a>
</g>
</g>
<!-- Node5 -->
<g id="Node000005" class="node">
<title>Node5</title>
<g id="a_Node000005"><a xlink:href="classLowMemoryStringMap_1_1Branch.html#a7d6afe9eb9602a589debca71b7dc1788" target="_top" xlink:title=" ">
<polygon fill="white" stroke="#666666" points="974.62,-345.5 849.12,-345.5 849.12,-312 974.62,-312 974.62,-345.5"/>
<text text-anchor="start" x="857.12" y="-332" font-family="Helvetica,sans-Serif" font-size="10.00">LowMemoryStringMap</text>
<text text-anchor="middle" x="911.88" y="-319.25" font-family="Helvetica,sans-Serif" font-size="10.00">::Branch::createLeaf</text>
</a>
</g>
</g>
<!-- Node4&#45;&gt;Node5 -->
<g id="edge5_Node000004_Node000005" class="edge">
<title>Node4&#45;&gt;Node5</title>
<g id="a_edge5_Node000004_Node000005"><a xlink:title=" ">
<path fill="none" stroke="#63b8ff" d="M625.71,-310.68C685.03,-314.44 774.47,-320.11 837.33,-324.09"/>
<polygon fill="#63b8ff" stroke="#63b8ff" points="837.03,-327.58 847.24,-324.72 837.48,-320.59 837.03,-327.58"/>
</a>
</g>
</g>
<!-- Node6 -->
<g id="Node000006" class="node">
<title>Node6</title>
<g id="a_Node000006"><a xlink:href="classLowMemoryStringMap_1_1Branch.html#a2df7f420a035f5f18410b054df535016" target="_top" xlink:title=" ">
<polygon fill="white" stroke="#666666" points="812.75,-300.5 687.25,-300.5 687.25,-267 812.75,-267 812.75,-300.5"/>
<text text-anchor="start" x="695.25" y="-287" font-family="Helvetica,sans-Serif" font-size="10.00">LowMemoryStringMap</text>
<text text-anchor="middle" x="750" y="-274.25" font-family="Helvetica,sans-Serif" font-size="10.00">::Branch::split</text>
</a>
</g>
</g>
<!-- Node4&#45;&gt;Node6 -->
<g id="edge6_Node000004_Node000006" class="edge">
<title>Node4&#45;&gt;Node6</title>
<g id="a_edge6_Node000004_Node000006"><a xlink:title=" ">
<path fill="none" stroke="#63b8ff" d="M625.87,-299.03C641.85,-297.04 659.19,-294.89 675.67,-292.85"/>
<polygon fill="#63b8ff" stroke="#63b8ff" points="675.93,-296.34 685.42,-291.64 675.06,-289.4 675.93,-296.34"/>
</a>
</g>
</g>
<!-- Node6&#45;&gt;Node5 -->
<g id="edge8_Node000006_Node000005" class="edge">
<title>Node6&#45;&gt;Node5</title>
<g id="a_edge8_Node000006_Node000005"><a xlink:title=" ">
<path fill="none" stroke="#63b8ff" d="M811.9,-300.89C820.68,-303.36 829.79,-305.93 838.77,-308.45"/>
<polygon fill="#63b8ff" stroke="#63b8ff" points="837.59,-311.76 848.16,-311.1 839.48,-305.02 837.59,-311.76"/>
</a>
</g>
</g>
<!-- Node7 -->
<g id="Node000007" class="node">
<title>Node7</title>
<g id="a_Node000007"><a xlink:href="classLowMemoryStringMap_1_1Branch.html#a9d1b953a6d2224b79908c95c2677b041" target="_top" xlink:title=" ">
<polygon fill="white" stroke="#666666" points="975,-293.5 848.75,-293.5 848.75,-260 975,-260 975,-293.5"/>
<text text-anchor="start" x="856.75" y="-280" font-family="Helvetica,sans-Serif" font-size="10.00">LowMemoryStringMap</text>
<text text-anchor="middle" x="911.88" y="-267.25" font-family="Helvetica,sans-Serif" font-size="10.00">::Branch::createBranch</text>
</a>
</g>
</g>
<!-- Node6&#45;&gt;Node7 -->
<g id="edge7_Node000006_Node000007" class="edge">
<title>Node6&#45;&gt;Node7</title>
<g id="a_edge7_Node000006_Node000007"><a xlink:title=" ">
<path fill="none" stroke="#63b8ff" d="M812.81,-281.04C820.76,-280.7 828.95,-280.34 837.06,-279.98"/>
<polygon fill="#63b8ff" stroke="#63b8ff" points="837.09,-283.48 846.92,-279.55 836.78,-276.49 837.09,-283.48"/>
</a>
</g>
</g>
<!-- Node10&#45;&gt;Node11 -->
<g id="edge12_Node000010_Node000011" class="edge">
<title>Node10&#45;&gt;Node11</title>
<g id="a_edge12_Node000010_Node000011"><a xlink:title=" ">
<path fill="none" stroke="#63b8ff" d="M427.79,-148.33C453.88,-141.59 483.74,-133.87 508.63,-127.44"/>
<polygon fill="#63b8ff" stroke="#63b8ff" points="509.41,-130.86 518.22,-124.97 507.66,-124.08 509.41,-130.86"/>
</a>
</g>
</g>
<!-- Node13&#45;&gt;Node11 -->
<g id="edge16_Node000013_Node000011" class="edge">
<title>Node13&#45;&gt;Node11</title>
<g id="a_edge16_Node000013_Node000011"><a xlink:title=" ">
<path fill="none" stroke="#63b8ff" d="M416.7,-33.91C423.94,-36.66 431.21,-39.64 438,-42.75 473.04,-58.82 511.2,-81.62 535.72,-97.01"/>
<polygon fill="#63b8ff" stroke="#63b8ff" points="533.74,-99.9 544.06,-102.3 537.49,-93.99 533.74,-99.9"/>
</a>
</g>
</g>
</g>
</svg>
