<?xml version="1.0" encoding="UTF-8" standalone="no"?>
<!DOCTYPE svg PUBLIC "-//W3C//DTD SVG 1.1//EN"
 "http://www.w3.org/Graphics/SVG/1.1/DTD/svg11.dtd">
<!-- Generated by graphviz version 9.0.0 (0)
 -->
<!-- Title: QtProjectWizardContentPreferences::addComboBox Pages: 1 -->
<!--zoomable 146 -->

<svg id="main" version="1.1" xmlns="http://www.w3.org/2000/svg" xmlns:xlink="http://www.w3.org/1999/xlink" xml:space="preserve" onload="init(evt)">
<style type="text/css"><![CDATA[
.node, .edge {opacity: 0.7;}
.node.selected, .edge.selected {opacity: 1;}
.edge:hover path { stroke: red; }
.edge:hover polygon { stroke: red; fill: red; }
]]></style>

<defs>
  <circle id="rim" cx="0" cy="0" r="7"/>
  <circle id="rim2" cx="0" cy="0" r="3.5"/>
  <g id="zoomPlus">
    <use xlink:href="#rim" fill="#404040"><set attributeName="fill" to="#808080" begin="zoomplus.mouseover" end="zoomplus.mouseout"/></use>
    <path d="M-4,0h8M0,-4v8" fill="none" stroke="white" stroke-width="1.5" pointer-events="none"/>
  </g>
  <g id="zoomMin">
    <use xlink:href="#rim" fill="#404040"><set attributeName="fill" to="#808080" begin="zoomminus.mouseover" end="zoomminus.mouseout"/></use>
    <path d="M-4,0h8" fill="none" stroke="white" stroke-width="1.5" pointer-events="none"/>
  </g>
  <g id="arrowUp" transform="translate(30 24)">
    <use xlink:href="#rim"/>
    <path pointer-events="none" fill="none" stroke="white" stroke-width="1.5" d="M0,-3.0v7 M-2.5,-0.5L0,-3.0L2.5,-0.5"/>
  </g>
  <g id="arrowRight" transform="rotate(90) translate(36 -43)">
    <use xlink:href="#rim"/>
    <path pointer-events="none" fill="none" stroke="white" stroke-width="1.5" d="M0,-3.0v7 M-2.5,-0.5L0,-3.0L2.5,-0.5"/>
  </g>
  <g id="arrowDown" transform="rotate(180) translate(-30 -48)">
    <use xlink:href="#rim"/>
    <path pointer-events="none" fill="none" stroke="white" stroke-width="1.5" d="M0,-3.0v7 M-2.5,-0.5L0,-3.0L2.5,-0.5"/>
  </g>
  <g id="arrowLeft" transform="rotate(270) translate(-36 17)">
    <use xlink:href="#rim"/>
    <path pointer-events="none" fill="none" stroke="white" stroke-width="1.5" d="M0,-3.0v7 M-2.5,-0.5L0,-3.0L2.5,-0.5"/>
  </g>
  <g id="resetDef">
    <use xlink:href="#rim2" fill="#404040"><set attributeName="fill" to="#808080" begin="reset.mouseover" end="reset.mouseout"/></use>
  </g>
</defs>
<script type="application/ecmascript">
var viewWidth = 990;
var viewHeight = 146;
var sectionId = 'dynsection-6';
</script>
<script type="application/ecmascript" xlink:href="svg.min.js"/>
<svg id="graph" class="graph">
<g id="viewport">
<title>QtProjectWizardContentPreferences::addComboBox</title>
<!-- Node1 -->
<g id="Node000001" class="node">
<title>Node1</title>
<g id="a_Node000001"><a xlink:title=" ">
<polygon fill="#999999" stroke="#666666" points="190.75,-111.5 0,-111.5 0,-78 190.75,-78 190.75,-111.5"/>
<text text-anchor="start" x="8" y="-98" font-family="Helvetica,sans-Serif" font-size="10.00">QtProjectWizardContentPreferences</text>
<text text-anchor="middle" x="95.38" y="-85.25" font-family="Helvetica,sans-Serif" font-size="10.00">::addComboBox</text>
</a>
</g>
</g>
<!-- Node2 -->
<g id="Node000002" class="node">
<title>Node2</title>
<g id="a_Node000002"><a xlink:href="classQtProjectWizardContent.html#a3c1c6483d8552f9e5988c1b3dcc4ff3e" target="_top" xlink:title=" ">
<polygon fill="white" stroke="#666666" points="388.62,-137.5 255.62,-137.5 255.62,-104 388.62,-104 388.62,-137.5"/>
<text text-anchor="start" x="263.62" y="-124" font-family="Helvetica,sans-Serif" font-size="10.00">QtProjectWizardContent</text>
<text text-anchor="middle" x="322.12" y="-111.25" font-family="Helvetica,sans-Serif" font-size="10.00">::addHelpButton</text>
</a>
</g>
</g>
<!-- Node1&#45;&gt;Node2 -->
<g id="edge1_Node000001_Node000002" class="edge">
<title>Node1&#45;&gt;Node2</title>
<g id="a_edge1_Node000001_Node000002"><a xlink:title=" ">
<path fill="none" stroke="#63b8ff" d="M191.04,-105.7C208.75,-107.75 227.07,-109.87 244.17,-111.85"/>
<polygon fill="#63b8ff" stroke="#63b8ff" points="243.37,-115.28 253.7,-112.95 244.17,-108.32 243.37,-115.28"/>
</a>
</g>
</g>
<!-- Node4 -->
<g id="Node000004" class="node">
<title>Node4</title>
<g id="a_Node000004"><a xlink:href="classQtProjectWizardContentPreferences.html#a1573894d785f9124a0008d3c1a663aa8" target="_top" xlink:title=" ">
<polygon fill="white" stroke="#666666" points="417.5,-85.5 226.75,-85.5 226.75,-52 417.5,-52 417.5,-85.5"/>
<text text-anchor="start" x="234.75" y="-72" font-family="Helvetica,sans-Serif" font-size="10.00">QtProjectWizardContentPreferences</text>
<text text-anchor="middle" x="322.12" y="-59.25" font-family="Helvetica,sans-Serif" font-size="10.00">::addLabelAndWidget</text>
</a>
</g>
</g>
<!-- Node1&#45;&gt;Node4 -->
<g id="edge3_Node000001_Node000004" class="edge">
<title>Node1&#45;&gt;Node4</title>
<g id="a_edge3_Node000001_Node000004"><a xlink:title=" ">
<path fill="none" stroke="#63b8ff" d="M191.04,-83.8C199.03,-82.87 207.14,-81.94 215.21,-81"/>
<polygon fill="#63b8ff" stroke="#63b8ff" points="215.54,-84.49 225.07,-79.86 214.73,-77.53 215.54,-84.49"/>
</a>
</g>
</g>
<!-- Node3 -->
<g id="Node000003" class="node">
<title>Node3</title>
<g id="a_Node000003"><a xlink:href="classQtHelpButton.html#ac57988f919fb62aca5b8ddbe51574ec7" target="_top" xlink:title=" ">
<polygon fill="white" stroke="#666666" points="622.12,-137.5 475.62,-137.5 475.62,-104 622.12,-104 622.12,-137.5"/>
<text text-anchor="start" x="483.62" y="-124" font-family="Helvetica,sans-Serif" font-size="10.00">QtHelpButton::setMessage</text>
<text text-anchor="middle" x="548.88" y="-111.25" font-family="Helvetica,sans-Serif" font-size="10.00">BoxParent</text>
</a>
</g>
</g>
<!-- Node2&#45;&gt;Node3 -->
<g id="edge2_Node000002_Node000003" class="edge">
<title>Node2&#45;&gt;Node3</title>
<g id="a_edge2_Node000002_Node000003"><a xlink:title=" ">
<path fill="none" stroke="#63b8ff" d="M389.04,-120.75C412.51,-120.75 439.27,-120.75 464.05,-120.75"/>
<polygon fill="#63b8ff" stroke="#63b8ff" points="463.76,-124.25 473.76,-120.75 463.76,-117.25 463.76,-124.25"/>
</a>
</g>
</g>
<!-- Node5 -->
<g id="Node000005" class="node">
<title>Node5</title>
<g id="a_Node000005"><a xlink:href="classQtProjectWizardContentPreferences.html#ae0aa439646caec2a9f42376b6d60662a" target="_top" xlink:title=" ">
<polygon fill="white" stroke="#666666" points="644.25,-85.5 453.5,-85.5 453.5,-52 644.25,-52 644.25,-85.5"/>
<text text-anchor="start" x="461.5" y="-72" font-family="Helvetica,sans-Serif" font-size="10.00">QtProjectWizardContentPreferences</text>
<text text-anchor="middle" x="548.88" y="-59.25" font-family="Helvetica,sans-Serif" font-size="10.00">::addLabel</text>
</a>
</g>
</g>
<!-- Node4&#45;&gt;Node5 -->
<g id="edge4_Node000004_Node000005" class="edge">
<title>Node4&#45;&gt;Node5</title>
<g id="a_edge4_Node000004_Node000005"><a xlink:title=" ">
<path fill="none" stroke="#63b8ff" d="M417.79,-68.75C425.78,-68.75 433.89,-68.75 441.96,-68.75"/>
<polygon fill="#63b8ff" stroke="#63b8ff" points="441.81,-72.25 451.81,-68.75 441.81,-65.25 441.81,-72.25"/>
</a>
</g>
</g>
<!-- Node8 -->
<g id="Node000008" class="node">
<title>Node8</title>
<g id="a_Node000008"><a xlink:href="classQtProjectWizardContentPreferences.html#a44cedbc22150c35c589211aee20156b7" target="_top" xlink:title=" ">
<polygon fill="white" stroke="#666666" points="644.25,-33.5 453.5,-33.5 453.5,0 644.25,0 644.25,-33.5"/>
<text text-anchor="start" x="461.5" y="-20" font-family="Helvetica,sans-Serif" font-size="10.00">QtProjectWizardContentPreferences</text>
<text text-anchor="middle" x="548.88" y="-7.25" font-family="Helvetica,sans-Serif" font-size="10.00">::addWidget</text>
</a>
</g>
</g>
<!-- Node4&#45;&gt;Node8 -->
<g id="edge7_Node000004_Node000008" class="edge">
<title>Node4&#45;&gt;Node8</title>
<g id="a_edge7_Node000004_Node000008"><a xlink:title=" ">
<path fill="none" stroke="#63b8ff" d="M397.65,-51.51C418.43,-46.7 441.17,-41.44 462.53,-36.5"/>
<polygon fill="#63b8ff" stroke="#63b8ff" points="463.12,-39.95 472.08,-34.29 461.54,-33.13 463.12,-39.95"/>
</a>
</g>
</g>
<!-- Node6 -->
<g id="Node000006" class="node">
<title>Node6</title>
<g id="a_Node000006"><a xlink:href="classQtProjectWizardContent.html#ab1548e716e9d5eb86619c9144244232a" target="_top" xlink:title=" ">
<polygon fill="white" stroke="#666666" points="813.25,-85.5 680.25,-85.5 680.25,-52 813.25,-52 813.25,-85.5"/>
<text text-anchor="start" x="688.25" y="-72" font-family="Helvetica,sans-Serif" font-size="10.00">QtProjectWizardContent</text>
<text text-anchor="middle" x="746.75" y="-59.25" font-family="Helvetica,sans-Serif" font-size="10.00">::createFormLabel</text>
</a>
</g>
</g>
<!-- Node5&#45;&gt;Node6 -->
<g id="edge5_Node000005_Node000006" class="edge">
<title>Node5&#45;&gt;Node6</title>
<g id="a_edge5_Node000005_Node000006"><a xlink:title=" ">
<path fill="none" stroke="#63b8ff" d="M644.66,-68.75C652.66,-68.75 660.69,-68.75 668.54,-68.75"/>
<polygon fill="#63b8ff" stroke="#63b8ff" points="668.36,-72.25 678.36,-68.75 668.36,-65.25 668.36,-72.25"/>
</a>
</g>
</g>
<!-- Node7 -->
<g id="Node000007" class="node">
<title>Node7</title>
<g id="a_Node000007"><a xlink:href="classQtProjectWizardContent.html#a47454b8e21acec683fb55b4fbdea601e" target="_top" xlink:title=" ">
<polygon fill="white" stroke="#666666" points="982.25,-85.5 849.25,-85.5 849.25,-52 982.25,-52 982.25,-85.5"/>
<text text-anchor="start" x="857.25" y="-72" font-family="Helvetica,sans-Serif" font-size="10.00">QtProjectWizardContent</text>
<text text-anchor="middle" x="915.75" y="-59.25" font-family="Helvetica,sans-Serif" font-size="10.00">::createFormSubLabel</text>
</a>
</g>
</g>
<!-- Node6&#45;&gt;Node7 -->
<g id="edge6_Node000006_Node000007" class="edge">
<title>Node6&#45;&gt;Node7</title>
<g id="a_edge6_Node000006_Node000007"><a xlink:title=" ">
<path fill="none" stroke="#63b8ff" d="M813.27,-68.75C821.22,-68.75 829.4,-68.75 837.5,-68.75"/>
<polygon fill="#63b8ff" stroke="#63b8ff" points="837.35,-72.25 847.35,-68.75 837.35,-65.25 837.35,-72.25"/>
</a>
</g>
</g>
</g>
</svg>

<g id="navigator" transform="translate(0 0)" fill="#404254">
  <rect fill="#f2f5e9" fill-opacity="0.5" stroke="#606060" stroke-width=".5" x="0" y="0" width="60" height="60"/>
  <use id="zoomplus" xlink:href="#zoomPlus" x="17" y="9" onmousedown="handleZoom(evt,'in')"/>
  <use id="zoomminus" xlink:href="#zoomMin" x="42" y="9" onmousedown="handleZoom(evt,'out')"/>
  <use id="reset" xlink:href="#resetDef" x="30" y="36" onmousedown="handleReset()"/>
   <use id="arrowup" xlink:href="#arrowUp" x="0" y="0" onmousedown="handlePan(0,-1)"/>
  <use id="arrowright" xlink:href="#arrowRight" x="0" y="0" onmousedown="handlePan(1,0)"/>
  <use id="arrowdown" xlink:href="#arrowDown" x="0" y="0" onmousedown="handlePan(0,1)"/>
  <use id="arrowleft" xlink:href="#arrowLeft" x="0" y="0" onmousedown="handlePan(-1,0)"/>
</g>
<svg viewBox="0 0 15 15" width="100%" height="30px" preserveAspectRatio="xMaxYMin meet">
 <g id="arrow_out" transform="scale(0.3 0.3)">
  <a xlink:href="classQtProjectWizardContentPreferences_aca7a6ab0834b6cca13cf84e1b665eec4_cgraph_org.svg" target="_base">
   <rect id="button" ry="5" rx="5" y="6" x="6" height="38" width="38"
        fill="#f2f5e9" fill-opacity="0.5" stroke="#606060" stroke-width="1.0"/>
   <path id="arrow"
     d="M 11.500037,31.436501 C 11.940474,20.09759 22.043105,11.32322 32.158766,21.979434 L 37.068811,17.246167 C 37.068811,17.246167 37.088388,32 37.088388,32 L 22.160133,31.978069 C 22.160133,31.978069 26.997745,27.140456 26.997745,27.140456 C 18.528582,18.264221 13.291696,25.230495 11.500037,31.436501 z"
     style="fill:#404040;"/>
  </a>
 </g>
</svg>

<style type='text/css'>
<![CDATA[
[data-mouse-over-selected='false'] { opacity: 0.7; }
[data-mouse-over-selected='true']  { opacity: 1.0; }
]]>
</style>
<script type="application/ecmascript"><![CDATA[
document.addEventListener('DOMContentLoaded', (event) => {
  highlightEdges();
  highlightAdjacentNodes();
});
]]></script>
</svg>
