<?xml version="1.0" encoding="UTF-8" standalone="no"?>
<!DOCTYPE svg PUBLIC "-//W3C//DTD SVG 1.1//EN"
 "http://www.w3.org/Graphics/SVG/1.1/DTD/svg11.dtd">
<!-- Generated by graphviz version 9.0.0 (0)
 -->
<!-- Title: CodeController::definitionReferenceScrollParams Pages: 1 -->
<svg width="907pt" height="91pt"
 viewBox="0.00 0.00 907.00 91.12" xmlns="http://www.w3.org/2000/svg" xmlns:xlink="http://www.w3.org/1999/xlink">
<g id="graph0" class="graph" transform="scale(1 1) rotate(0) translate(4 87.12)">
<title>CodeController::definitionReferenceScrollParams</title>
<!-- Node1 -->
<g id="Node000001" class="node">
<title>Node1</title>
<g id="a_Node000001"><a xlink:title=" ">
<polygon fill="#999999" stroke="#666666" points="141.25,-56.5 0,-56.5 0,-23 141.25,-23 141.25,-56.5"/>
<text text-anchor="start" x="8" y="-43" font-family="Helvetica,sans-Serif" font-size="10.00">CodeController::definition</text>
<text text-anchor="middle" x="70.62" y="-30.25" font-family="Helvetica,sans-Serif" font-size="10.00">ReferenceScrollParams</text>
</a>
</g>
</g>
<!-- Node2 -->
<g id="Node000002" class="node">
<title>Node2</title>
<g id="a_Node000002"><a xlink:href="classCodeController.html#ad963e44f718cba0b88285bdc5ee96228" target="_top" xlink:title=" ">
<polygon fill="white" stroke="#666666" points="341,-56.5 177.25,-56.5 177.25,-23 341,-23 341,-56.5"/>
<text text-anchor="start" x="185.25" y="-43" font-family="Helvetica,sans-Serif" font-size="10.00">CodeController::firstReference</text>
<text text-anchor="middle" x="259.12" y="-30.25" font-family="Helvetica,sans-Serif" font-size="10.00">ScrollParams</text>
</a>
</g>
</g>
<!-- Node1&#45;&gt;Node2 -->
<g id="edge1_Node000001_Node000002" class="edge">
<title>Node1&#45;&gt;Node2</title>
<g id="a_edge1_Node000001_Node000002"><a xlink:title=" ">
<path fill="none" stroke="#63b8ff" d="M141.6,-39.75C149.4,-39.75 157.43,-39.75 165.45,-39.75"/>
<polygon fill="#63b8ff" stroke="#63b8ff" points="165.26,-43.25 175.26,-39.75 165.26,-36.25 165.26,-43.25"/>
</a>
</g>
</g>
<!-- Node3 -->
<g id="Node000003" class="node">
<title>Node3</title>
<g id="a_Node000003"><a xlink:href="classCodeController.html#affaa2a65b109b9f7f6a9ff097069a636" target="_top" xlink:title=" ">
<polygon fill="white" stroke="#666666" points="529.12,-83.12 394.62,-83.12 394.62,-62.38 529.12,-62.38 529.12,-83.12"/>
<text text-anchor="middle" x="461.88" y="-69.62" font-family="Helvetica,sans-Serif" font-size="10.00">CodeController::getView</text>
</a>
</g>
</g>
<!-- Node1&#45;&gt;Node3 -->
<g id="edge7_Node000001_Node000003" class="edge">
<title>Node1&#45;&gt;Node3</title>
<g id="a_edge7_Node000001_Node000003"><a xlink:title=" ">
<path fill="none" stroke="#63b8ff" d="M131.8,-56.95C146.54,-60.5 162.37,-63.76 177.25,-65.75 246.33,-74.99 325.7,-76.16 382.87,-75.35"/>
<polygon fill="#63b8ff" stroke="#63b8ff" points="382.91,-78.85 392.85,-75.18 382.79,-71.85 382.91,-78.85"/>
</a>
</g>
</g>
<!-- Node6 -->
<g id="Node000006" class="node">
<title>Node6</title>
<g id="a_Node000006"><a xlink:href="structCodeScrollParams.html#a429e03699961c71795e2c5ad23938f9c" target="_top" xlink:title=" ">
<polygon fill="white" stroke="#666666" points="546.75,-27.12 377,-27.12 377,-6.38 546.75,-6.38 546.75,-27.12"/>
<text text-anchor="middle" x="461.88" y="-13.62" font-family="Helvetica,sans-Serif" font-size="10.00">CodeScrollParams::toReference</text>
</a>
</g>
</g>
<!-- Node1&#45;&gt;Node6 -->
<g id="edge8_Node000001_Node000006" class="edge">
<title>Node1&#45;&gt;Node6</title>
<g id="a_edge8_Node000001_Node000006"><a xlink:title=" ">
<path fill="none" stroke="#63b8ff" d="M130.65,-22.56C145.71,-18.91 161.97,-15.6 177.25,-13.75 239.68,-6.18 310.4,-6.91 365.61,-9.54"/>
<polygon fill="#63b8ff" stroke="#63b8ff" points="365.11,-13.02 375.28,-10.03 365.47,-6.03 365.11,-13.02"/>
</a>
</g>
</g>
<!-- Node2&#45;&gt;Node3 -->
<g id="edge2_Node000002_Node000003" class="edge">
<title>Node2&#45;&gt;Node3</title>
<g id="a_edge2_Node000002_Node000003"><a xlink:title=" ">
<path fill="none" stroke="#63b8ff" d="M341.49,-53.12C355.47,-55.42 369.96,-57.8 383.82,-60.08"/>
<polygon fill="#63b8ff" stroke="#63b8ff" points="382.85,-63.47 393.29,-61.64 383.99,-56.56 382.85,-63.47"/>
</a>
</g>
</g>
<!-- Node2&#45;&gt;Node6 -->
<g id="edge5_Node000002_Node000006" class="edge">
<title>Node2&#45;&gt;Node6</title>
<g id="a_edge5_Node000002_Node000006"><a xlink:title=" ">
<path fill="none" stroke="#63b8ff" d="M341.49,-30.43C349.39,-29.52 357.46,-28.6 365.49,-27.68"/>
<polygon fill="#63b8ff" stroke="#63b8ff" points="365.74,-31.17 375.28,-26.56 364.94,-24.22 365.74,-31.17"/>
</a>
</g>
</g>
<!-- Node4 -->
<g id="Node000004" class="node">
<title>Node4</title>
<g id="a_Node000004"><a xlink:href="classController.html#a431a774ef12696f8bb22903cada1485c" target="_top" xlink:title=" ">
<polygon fill="white" stroke="#666666" points="718.75,-83.12 609,-83.12 609,-62.38 718.75,-62.38 718.75,-83.12"/>
<text text-anchor="middle" x="663.88" y="-69.62" font-family="Helvetica,sans-Serif" font-size="10.00">Controller::getView</text>
</a>
</g>
</g>
<!-- Node3&#45;&gt;Node4 -->
<g id="edge3_Node000003_Node000004" class="edge">
<title>Node3&#45;&gt;Node4</title>
<g id="a_edge3_Node000003_Node000004"><a xlink:title=" ">
<path fill="none" stroke="#63b8ff" d="M529.47,-72.75C551.24,-72.75 575.4,-72.75 597.1,-72.75"/>
<polygon fill="#63b8ff" stroke="#63b8ff" points="597.03,-76.25 607.03,-72.75 597.03,-69.25 597.03,-76.25"/>
</a>
</g>
</g>
<!-- Node5 -->
<g id="Node000005" class="node">
<title>Node5</title>
<g id="a_Node000005"><a xlink:href="classComponent.html#a9f4dbd8f986abae9d6014b4a34d2b014" target="_top" xlink:title=" ">
<polygon fill="white" stroke="#666666" points="899,-83.12 781,-83.12 781,-62.38 899,-62.38 899,-83.12"/>
<text text-anchor="middle" x="840" y="-69.62" font-family="Helvetica,sans-Serif" font-size="10.00">Component::getView</text>
</a>
</g>
</g>
<!-- Node4&#45;&gt;Node5 -->
<g id="edge4_Node000004_Node000005" class="edge">
<title>Node4&#45;&gt;Node5</title>
<g id="a_edge4_Node000004_Node000005"><a xlink:title=" ">
<path fill="none" stroke="#63b8ff" d="M719.01,-72.75C734.91,-72.75 752.53,-72.75 769.26,-72.75"/>
<polygon fill="#63b8ff" stroke="#63b8ff" points="769.15,-76.25 779.15,-72.75 769.15,-69.25 769.15,-76.25"/>
</a>
</g>
</g>
<!-- Node7 -->
<g id="Node000007" class="node">
<title>Node7</title>
<g id="a_Node000007"><a xlink:href="structCodeScrollParams.html#a8c72d070589c62c003807b372b287c0c" target="_top" xlink:title=" ">
<polygon fill="white" stroke="#666666" points="745,-33.5 582.75,-33.5 582.75,0 745,0 745,-33.5"/>
<text text-anchor="start" x="590.75" y="-20" font-family="Helvetica,sans-Serif" font-size="10.00">CodeScrollParams::CodeScroll</text>
<text text-anchor="middle" x="663.88" y="-7.25" font-family="Helvetica,sans-Serif" font-size="10.00">Params</text>
</a>
</g>
</g>
<!-- Node6&#45;&gt;Node7 -->
<g id="edge6_Node000006_Node000007" class="edge">
<title>Node6&#45;&gt;Node7</title>
<g id="a_edge6_Node000006_Node000007"><a xlink:title=" ">
<path fill="none" stroke="#63b8ff" d="M547.11,-16.75C555.09,-16.75 563.21,-16.75 571.26,-16.75"/>
<polygon fill="#63b8ff" stroke="#63b8ff" points="571.05,-20.25 581.05,-16.75 571.05,-13.25 571.05,-20.25"/>
</a>
</g>
</g>
</g>
</svg>
