<?xml version="1.0" encoding="UTF-8" standalone="no"?>
<!DOCTYPE svg PUBLIC "-//W3C//DTD SVG 1.1//EN"
 "http://www.w3.org/Graphics/SVG/1.1/DTD/svg11.dtd">
<!-- Generated by graphviz version 9.0.0 (0)
 -->
<!-- Title: QtThreadedFunctor&lt; T1, T2, T3, T4 &gt; Pages: 1 -->
<!--zoomable 210 -->

<svg id="main" version="1.1" xmlns="http://www.w3.org/2000/svg" xmlns:xlink="http://www.w3.org/1999/xlink" xml:space="preserve" onload="init(evt)">
<style type="text/css"><![CDATA[
.node, .edge {opacity: 0.7;}
.node.selected, .edge.selected {opacity: 1;}
.edge:hover path { stroke: red; }
.edge:hover polygon { stroke: red; fill: red; }
]]></style>

<defs>
  <circle id="rim" cx="0" cy="0" r="7"/>
  <circle id="rim2" cx="0" cy="0" r="3.5"/>
  <g id="zoomPlus">
    <use xlink:href="#rim" fill="#404040"><set attributeName="fill" to="#808080" begin="zoomplus.mouseover" end="zoomplus.mouseout"/></use>
    <path d="M-4,0h8M0,-4v8" fill="none" stroke="white" stroke-width="1.5" pointer-events="none"/>
  </g>
  <g id="zoomMin">
    <use xlink:href="#rim" fill="#404040"><set attributeName="fill" to="#808080" begin="zoomminus.mouseover" end="zoomminus.mouseout"/></use>
    <path d="M-4,0h8" fill="none" stroke="white" stroke-width="1.5" pointer-events="none"/>
  </g>
  <g id="arrowUp" transform="translate(30 24)">
    <use xlink:href="#rim"/>
    <path pointer-events="none" fill="none" stroke="white" stroke-width="1.5" d="M0,-3.0v7 M-2.5,-0.5L0,-3.0L2.5,-0.5"/>
  </g>
  <g id="arrowRight" transform="rotate(90) translate(36 -43)">
    <use xlink:href="#rim"/>
    <path pointer-events="none" fill="none" stroke="white" stroke-width="1.5" d="M0,-3.0v7 M-2.5,-0.5L0,-3.0L2.5,-0.5"/>
  </g>
  <g id="arrowDown" transform="rotate(180) translate(-30 -48)">
    <use xlink:href="#rim"/>
    <path pointer-events="none" fill="none" stroke="white" stroke-width="1.5" d="M0,-3.0v7 M-2.5,-0.5L0,-3.0L2.5,-0.5"/>
  </g>
  <g id="arrowLeft" transform="rotate(270) translate(-36 17)">
    <use xlink:href="#rim"/>
    <path pointer-events="none" fill="none" stroke="white" stroke-width="1.5" d="M0,-3.0v7 M-2.5,-0.5L0,-3.0L2.5,-0.5"/>
  </g>
  <g id="resetDef">
    <use xlink:href="#rim2" fill="#404040"><set attributeName="fill" to="#808080" begin="reset.mouseover" end="reset.mouseout"/></use>
  </g>
</defs>
<script type="application/ecmascript">
var viewWidth = 525;
var viewHeight = 210;
var sectionId = 'dynsection-0';
</script>
<script type="application/ecmascript" xlink:href="svg.min.js"/>
<svg id="graph" class="graph">
<g id="viewport">
<title>QtThreadedFunctor&lt; T1, T2, T3, T4 &gt;</title>
<!-- Node1 -->
<g id="Node000001" class="node">
<title>Node1</title>
<g id="a_Node000001"><a xlink:title=" ">
<polygon fill="#999999" stroke="#666666" points="117.25,-111.5 0,-111.5 0,-78 117.25,-78 117.25,-111.5"/>
<text text-anchor="start" x="8" y="-98" font-family="Helvetica,sans-Serif" font-size="10.00">QtThreadedFunctor&lt;</text>
<text text-anchor="middle" x="58.62" y="-85.25" font-family="Helvetica,sans-Serif" font-size="10.00"> T1, T2, T3, T4 &gt;</text>
</a>
</g>
</g>
<!-- Node2 -->
<g id="Node000002" class="node">
<title>Node2</title>
<g id="a_Node000002"><a xlink:href="classQtThreadedFunctor.html" target="_top" xlink:title=" ">
<polygon fill="white" stroke="#666666" points="483.12,-201.88 365.88,-201.88 365.88,-155.62 483.12,-155.62 483.12,-201.88"/>
<text text-anchor="start" x="373.88" y="-188.38" font-family="Helvetica,sans-Serif" font-size="10.00">QtThreadedFunctor&lt;</text>
<text text-anchor="start" x="373.88" y="-175.62" font-family="Helvetica,sans-Serif" font-size="10.00"> const std::vector&lt;</text>
<text text-anchor="middle" x="424.5" y="-162.88" font-family="Helvetica,sans-Serif" font-size="10.00"> FilePath &gt; &amp; &gt;</text>
</a>
</g>
</g>
<!-- Node1&#45;&gt;Node2 -->
<g id="edge1_Node000001_Node000002" class="edge">
<title>Node1&#45;&gt;Node2</title>
<g id="a_edge1_Node000001_Node000002"><a xlink:title=" ">
<path fill="none" stroke="orange" stroke-dasharray="5,2" d="M103.22,-116.58C113.53,-121.11 124.63,-125.5 135.25,-128.75 213.2,-152.62 306.71,-166.21 365.63,-173.03"/>
<polygon fill="orange" stroke="orange" points="104.74,-113.42 94.19,-112.47 101.84,-119.8 104.74,-113.42"/>
</a>
</g>
<text text-anchor="start" x="177.25" y="-181.75" font-family="Helvetica,sans-Serif" font-size="10.00" fill="grey"> &lt; const std::vector</text>
<text text-anchor="middle" x="224.88" y="-169" font-family="Helvetica,sans-Serif" font-size="10.00" fill="grey">&lt; FilePath &gt; &amp; &gt;</text>
</g>
<!-- Node3 -->
<g id="Node000003" class="node">
<title>Node3</title>
<g id="a_Node000003"><a xlink:href="classQtThreadedFunctor.html" target="_top" xlink:title=" ">
<polygon fill="white" stroke="#666666" points="488,-137.5 361,-137.5 361,-104 488,-104 488,-137.5"/>
<text text-anchor="start" x="369" y="-124" font-family="Helvetica,sans-Serif" font-size="10.00">QtThreadedFunctor&lt;</text>
<text text-anchor="middle" x="424.5" y="-111.25" font-family="Helvetica,sans-Serif" font-size="10.00"> std::set&lt; FilePath &gt; &gt;</text>
</a>
</g>
</g>
<!-- Node1&#45;&gt;Node3 -->
<g id="edge2_Node000001_Node000003" class="edge">
<title>Node1&#45;&gt;Node3</title>
<g id="a_edge2_Node000001_Node000003"><a xlink:title=" ">
<path fill="none" stroke="orange" stroke-dasharray="5,2" d="M128.94,-99.7C195.83,-104.48 296.19,-111.65 360.77,-116.27"/>
<polygon fill="orange" stroke="orange" points="129.42,-96.23 119.19,-99.01 128.92,-103.21 129.42,-96.23"/>
</a>
</g>
<text text-anchor="middle" x="224.88" y="-115" font-family="Helvetica,sans-Serif" font-size="10.00" fill="grey"> &lt; std::set&lt; FilePath &gt; &gt;</text>
</g>
<!-- Node4 -->
<g id="Node000004" class="node">
<title>Node4</title>
<g id="a_Node000004"><a xlink:href="classQtThreadedFunctor.html" target="_top" xlink:title=" ">
<polygon fill="white" stroke="#666666" points="516.5,-85.5 332.5,-85.5 332.5,-52 516.5,-52 516.5,-85.5"/>
<text text-anchor="start" x="340.5" y="-72" font-family="Helvetica,sans-Serif" font-size="10.00">QtThreadedFunctor&lt;</text>
<text text-anchor="middle" x="424.5" y="-59.25" font-family="Helvetica,sans-Serif" font-size="10.00"> std::vector&lt; IncludeDirective &gt; &gt;</text>
</a>
</g>
</g>
<!-- Node1&#45;&gt;Node4 -->
<g id="edge3_Node000001_Node000004" class="edge">
<title>Node1&#45;&gt;Node4</title>
<g id="a_edge3_Node000001_Node000004"><a xlink:title=" ">
<path fill="none" stroke="orange" stroke-dasharray="5,2" d="M128.62,-83.72C130.86,-83.47 133.07,-83.22 135.25,-83 200.92,-76.29 275.34,-72.72 332.12,-70.82"/>
<polygon fill="orange" stroke="orange" points="128.34,-80.23 118.85,-84.95 129.21,-87.18 128.34,-80.23"/>
</a>
</g>
<text text-anchor="middle" x="224.88" y="-86" font-family="Helvetica,sans-Serif" font-size="10.00" fill="grey"> &lt; std::vector&lt; IncludeDirective &gt; &gt;</text>
</g>
<!-- Node5 -->
<g id="Node000005" class="node">
<title>Node5</title>
<g id="a_Node000005"><a xlink:href="classQtThreadedFunctor.html" target="_top" xlink:title=" ">
<polygon fill="white" stroke="#666666" points="483.12,-33.5 365.88,-33.5 365.88,0 483.12,0 483.12,-33.5"/>
<text text-anchor="start" x="373.88" y="-20" font-family="Helvetica,sans-Serif" font-size="10.00">QtThreadedFunctor&lt;</text>
<text text-anchor="middle" x="424.5" y="-7.25" font-family="Helvetica,sans-Serif" font-size="10.00"> float &gt;</text>
</a>
</g>
</g>
<!-- Node1&#45;&gt;Node5 -->
<g id="edge4_Node000001_Node000005" class="edge">
<title>Node1&#45;&gt;Node5</title>
<g id="a_edge4_Node000001_Node000005"><a xlink:title=" ">
<path fill="none" stroke="orange" stroke-dasharray="5,2" d="M95.61,-71.89C107.78,-65.12 121.72,-58.36 135.25,-54 212.46,-29.15 306.36,-20.82 365.55,-18.06"/>
<polygon fill="orange" stroke="orange" points="94.07,-68.73 87.17,-76.77 97.58,-74.79 94.07,-68.73"/>
</a>
</g>
<text text-anchor="middle" x="224.88" y="-57" font-family="Helvetica,sans-Serif" font-size="10.00" fill="grey"> &lt; float &gt;</text>
</g>
</g>
</svg>

<g id="navigator" transform="translate(0 0)" fill="#404254">
  <rect fill="#f2f5e9" fill-opacity="0.5" stroke="#606060" stroke-width=".5" x="0" y="0" width="60" height="60"/>
  <use id="zoomplus" xlink:href="#zoomPlus" x="17" y="9" onmousedown="handleZoom(evt,'in')"/>
  <use id="zoomminus" xlink:href="#zoomMin" x="42" y="9" onmousedown="handleZoom(evt,'out')"/>
  <use id="reset" xlink:href="#resetDef" x="30" y="36" onmousedown="handleReset()"/>
   <use id="arrowup" xlink:href="#arrowUp" x="0" y="0" onmousedown="handlePan(0,-1)"/>
  <use id="arrowright" xlink:href="#arrowRight" x="0" y="0" onmousedown="handlePan(1,0)"/>
  <use id="arrowdown" xlink:href="#arrowDown" x="0" y="0" onmousedown="handlePan(0,1)"/>
  <use id="arrowleft" xlink:href="#arrowLeft" x="0" y="0" onmousedown="handlePan(-1,0)"/>
</g>
<svg viewBox="0 0 15 15" width="100%" height="30px" preserveAspectRatio="xMaxYMin meet">
 <g id="arrow_out" transform="scale(0.3 0.3)">
  <a xlink:href="classQtThreadedFunctor__inherit__graph_org.svg" target="_base">
   <rect id="button" ry="5" rx="5" y="6" x="6" height="38" width="38"
        fill="#f2f5e9" fill-opacity="0.5" stroke="#606060" stroke-width="1.0"/>
   <path id="arrow"
     d="M 11.500037,31.436501 C 11.940474,20.09759 22.043105,11.32322 32.158766,21.979434 L 37.068811,17.246167 C 37.068811,17.246167 37.088388,32 37.088388,32 L 22.160133,31.978069 C 22.160133,31.978069 26.997745,27.140456 26.997745,27.140456 C 18.528582,18.264221 13.291696,25.230495 11.500037,31.436501 z"
     style="fill:#404040;"/>
  </a>
 </g>
</svg>

<style type='text/css'>
<![CDATA[
[data-mouse-over-selected='false'] { opacity: 0.7; }
[data-mouse-over-selected='true']  { opacity: 1.0; }
]]>
</style>
<script type="application/ecmascript"><![CDATA[
document.addEventListener('DOMContentLoaded', (event) => {
  highlightEdges();
  highlightAdjacentNodes();
});
]]></script>
</svg>
