<?xml version="1.0" encoding="UTF-8" standalone="no"?>
<!DOCTYPE svg PUBLIC "-//W3C//DTD SVG 1.1//EN"
 "http://www.w3.org/Graphics/SVG/1.1/DTD/svg11.dtd">
<!-- Generated by graphviz version 9.0.0 (0)
 -->
<!-- Title: QtMainWindow::showChangelog Pages: 1 -->
<svg width="597pt" height="29pt"
 viewBox="0.00 0.00 596.75 28.75" xmlns="http://www.w3.org/2000/svg" xmlns:xlink="http://www.w3.org/1999/xlink">
<g id="graph0" class="graph" transform="scale(1 1) rotate(0) translate(4 24.75)">
<title>QtMainWindow::showChangelog</title>
<!-- Node1 -->
<g id="Node000001" class="node">
<title>Node1</title>
<g id="a_Node000001"><a xlink:title=" ">
<polygon fill="#999999" stroke="#666666" points="588.75,-20.75 415.25,-20.75 415.25,0 588.75,0 588.75,-20.75"/>
<text text-anchor="middle" x="502" y="-7.25" font-family="Helvetica,sans-Serif" font-size="10.00">QtMainWindow::showChangelog</text>
</a>
</g>
</g>
<!-- Node2 -->
<g id="Node000002" class="node">
<title>Node2</title>
<g id="a_Node000002"><a xlink:href="classQtMainWindow.html#ab225e8eeed9eae85d5ab3748c1d17903" target="_top" xlink:title=" ">
<polygon fill="white" stroke="#666666" points="379.25,-20.75 206.5,-20.75 206.5,0 379.25,0 379.25,-20.75"/>
<text text-anchor="middle" x="292.88" y="-7.25" font-family="Helvetica,sans-Serif" font-size="10.00">QtMainWindow::setupHelpMenu</text>
</a>
</g>
</g>
<!-- Node1&#45;&gt;Node2 -->
<g id="edge1_Node000001_Node000002" class="edge">
<title>Node1&#45;&gt;Node2</title>
<g id="a_edge1_Node000001_Node000002"><a xlink:title=" ">
<path fill="none" stroke="#63b8ff" d="M403.67,-10.38C395.65,-10.38 387.58,-10.38 379.65,-10.38"/>
<polygon fill="#63b8ff" stroke="#63b8ff" points="403.45,-13.88 413.45,-10.38 403.45,-6.88 403.45,-13.88"/>
</a>
</g>
</g>
<!-- Node3 -->
<g id="Node000003" class="node">
<title>Node3</title>
<g id="a_Node000003"><a xlink:href="classQtMainWindow.html#ab526da2f9eb598fdbee15a62a4323ad0" target="_top" xlink:title=" ">
<polygon fill="white" stroke="#666666" points="170.5,-20.75 0,-20.75 0,0 170.5,0 170.5,-20.75"/>
<text text-anchor="middle" x="85.25" y="-7.25" font-family="Helvetica,sans-Serif" font-size="10.00">QtMainWindow::QtMainWindow</text>
</a>
</g>
</g>
<!-- Node2&#45;&gt;Node3 -->
<g id="edge2_Node000002_Node000003" class="edge">
<title>Node2&#45;&gt;Node3</title>
<g id="a_edge2_Node000002_Node000003"><a xlink:title=" ">
<path fill="none" stroke="#63b8ff" d="M194.86,-10.38C186.84,-10.38 178.76,-10.38 170.83,-10.38"/>
<polygon fill="#63b8ff" stroke="#63b8ff" points="194.65,-13.88 204.65,-10.38 194.65,-6.88 194.65,-13.88"/>
</a>
</g>
</g>
</g>
</svg>
