<?xml version="1.0" encoding="UTF-8" standalone="no"?>
<!DOCTYPE svg PUBLIC "-//W3C//DTD SVG 1.1//EN"
 "http://www.w3.org/Graphics/SVG/1.1/DTD/svg11.dtd">
<!-- Generated by graphviz version 7.1.0 (0)
 -->
<!-- Title: GraphViewStyle::getCharHeight Pages: 1 -->
<svg width="382pt" height="86pt"
 viewBox="0.00 0.00 382.00 86.00" xmlns="http://www.w3.org/2000/svg" xmlns:xlink="http://www.w3.org/1999/xlink">
<g id="graph0" class="graph" transform="scale(1 1) rotate(0) translate(4 82)">
<title>GraphViewStyle::getCharHeight</title>
<!-- Node1 -->
<g id="node1" class="node">
<title>Node1</title>
<g id="a_node1"><a xlink:title=" ">
<polygon fill="#999999" stroke="#666666" points="171,-48.5 0,-48.5 0,-29.5 171,-29.5 171,-48.5"/>
<text text-anchor="middle" x="85.5" y="-36.5" font-family="Helvetica,sans-Serif" font-size="10.00">GraphViewStyle::getCharHeight</text>
</a>
</g>
</g>
<!-- Node1&#45;&gt;Node1 -->
<g id="edge1" class="edge">
<title>Node1&#45;&gt;Node1</title>
<path fill="none" stroke="#63b8ff" d="M53.41,-48.87C38.77,-57.44 49.46,-66.5 85.5,-66.5 106.9,-66.5 119.36,-63.3 122.89,-58.92"/>
<polygon fill="#63b8ff" stroke="#63b8ff" points="126.06,-57.42 118.3,-50.21 119.87,-60.69 126.06,-57.42"/>
</g>
<!-- Node2 -->
<g id="node2" class="node">
<title>Node2</title>
<g id="a_node2"><a xlink:href="classGraphViewStyle.html#a0911dbbf61bdfd307f8a42d8ab085ff9" target="_top" xlink:title=" ">
<polygon fill="white" stroke="#666666" points="374,-78 207,-78 207,-48 374,-48 374,-78"/>
<text text-anchor="start" x="215" y="-66" font-family="Helvetica,sans-Serif" font-size="10.00">GraphViewStyle::getFontName</text>
<text text-anchor="middle" x="290.5" y="-55" font-family="Helvetica,sans-Serif" font-size="10.00">ForDataNode</text>
</a>
</g>
</g>
<!-- Node1&#45;&gt;Node2 -->
<g id="edge2" class="edge">
<title>Node1&#45;&gt;Node2</title>
<path fill="none" stroke="#63b8ff" d="M170.83,-48.97C178.99,-49.93 187.31,-50.92 195.55,-51.89"/>
<polygon fill="#63b8ff" stroke="#63b8ff" points="194.9,-55.34 205.24,-53.04 195.72,-48.39 194.9,-55.34"/>
</g>
<!-- Node3 -->
<g id="node3" class="node">
<title>Node3</title>
<g id="a_node3"><a xlink:href="classGraphViewStyle.html#a74a5b33896cabd85c658d0e5485108ee" target="_top" xlink:title=" ">
<polygon fill="white" stroke="#666666" points="369.5,-30 211.5,-30 211.5,0 369.5,0 369.5,-30"/>
<text text-anchor="start" x="219.5" y="-18" font-family="Helvetica,sans-Serif" font-size="10.00">GraphViewStyle::getFontSize</text>
<text text-anchor="middle" x="290.5" y="-7" font-family="Helvetica,sans-Serif" font-size="10.00">ForStyleType</text>
</a>
</g>
</g>
<!-- Node1&#45;&gt;Node3 -->
<g id="edge3" class="edge">
<title>Node1&#45;&gt;Node3</title>
<path fill="none" stroke="#63b8ff" d="M170.83,-29.03C180.46,-27.89 190.3,-26.73 199.99,-25.58"/>
<polygon fill="#63b8ff" stroke="#63b8ff" points="200.26,-29.07 209.78,-24.42 199.44,-22.12 200.26,-29.07"/>
</g>
</g>
</svg>
