<?xml version="1.0" encoding="UTF-8" standalone="no"?>
<!DOCTYPE svg PUBLIC "-//W3C//DTD SVG 1.1//EN"
 "http://www.w3.org/Graphics/SVG/1.1/DTD/svg11.dtd">
<!-- Generated by graphviz version 9.0.0 (0)
 -->
<!-- Title: QtSmartSearchBox::addMatchAndUpdate Pages: 1 -->
<svg width="1369pt" height="723pt"
 viewBox="0.00 0.00 1368.75 722.50" xmlns="http://www.w3.org/2000/svg" xmlns:xlink="http://www.w3.org/1999/xlink">
<g id="graph0" class="graph" transform="scale(1 1) rotate(0) translate(4 718.5)">
<title>QtSmartSearchBox::addMatchAndUpdate</title>
<!-- Node1 -->
<g id="Node000001" class="node">
<title>Node1</title>
<g id="a_Node000001"><a xlink:title=" ">
<polygon fill="#999999" stroke="#666666" points="162.25,-615.5 0,-615.5 0,-582 162.25,-582 162.25,-615.5"/>
<text text-anchor="start" x="8" y="-602" font-family="Helvetica,sans-Serif" font-size="10.00">QtSmartSearchBox::addMatch</text>
<text text-anchor="middle" x="81.12" y="-589.25" font-family="Helvetica,sans-Serif" font-size="10.00">AndUpdate</text>
</a>
</g>
</g>
<!-- Node2 -->
<g id="Node000002" class="node">
<title>Node2</title>
<g id="a_Node000002"><a xlink:href="classQtSmartSearchBox.html#a3e069f210345624ce939001e226333ae" target="_top" xlink:title=" ">
<polygon fill="white" stroke="#666666" points="948.5,-611.12 786.25,-611.12 786.25,-590.38 948.5,-590.38 948.5,-611.12"/>
<text text-anchor="middle" x="867.38" y="-597.62" font-family="Helvetica,sans-Serif" font-size="10.00">QtSmartSearchBox::addMatch</text>
</a>
</g>
</g>
<!-- Node1&#45;&gt;Node2 -->
<g id="edge1_Node000001_Node000002" class="edge">
<title>Node1&#45;&gt;Node2</title>
<g id="a_edge1_Node000001_Node000002"><a xlink:title=" ">
<path fill="none" stroke="#63b8ff" d="M162.6,-609.72C174.53,-610.98 186.7,-612.06 198.25,-612.75 403.82,-625.1 645.56,-614.55 774.46,-606.92"/>
<polygon fill="#63b8ff" stroke="#63b8ff" points="774.53,-610.43 784.3,-606.33 774.11,-603.44 774.53,-610.43"/>
</a>
</g>
</g>
<!-- Node9 -->
<g id="Node000009" class="node">
<title>Node9</title>
<g id="a_Node000009"><a xlink:href="classQtSmartSearchBox.html#ad959f1655e78b011b2514fda4d1006b2" target="_top" xlink:title=" ">
<polygon fill="white" stroke="#666666" points="956,-508.12 778.75,-508.12 778.75,-487.38 956,-487.38 956,-508.12"/>
<text text-anchor="middle" x="867.38" y="-494.62" font-family="Helvetica,sans-Serif" font-size="10.00">QtSmartSearchBox::clearLineEdit</text>
</a>
</g>
</g>
<!-- Node1&#45;&gt;Node9 -->
<g id="edge8_Node000001_Node000009" class="edge">
<title>Node1&#45;&gt;Node9</title>
<g id="a_edge8_Node000001_Node000009"><a xlink:title=" ">
<path fill="none" stroke="#63b8ff" d="M162.73,-588.37C308.55,-569.59 615.42,-530.07 771.25,-510"/>
<polygon fill="#63b8ff" stroke="#63b8ff" points="771.23,-513.53 780.7,-508.78 770.33,-506.59 771.23,-513.53"/>
</a>
</g>
</g>
<!-- Node12 -->
<g id="Node000012" class="node">
<title>Node12</title>
<g id="a_Node000012"><a xlink:href="classQtSmartSearchBox.html#a8cb7515c5efa6313804fb113ffb8d244" target="_top" xlink:title=" ">
<polygon fill="white" stroke="#666666" points="346.25,-340.5 198.25,-340.5 198.25,-307 346.25,-307 346.25,-340.5"/>
<text text-anchor="start" x="206.25" y="-327" font-family="Helvetica,sans-Serif" font-size="10.00">QtSmartSearchBox::update</text>
<text text-anchor="middle" x="272.25" y="-314.25" font-family="Helvetica,sans-Serif" font-size="10.00">Elements</text>
</a>
</g>
</g>
<!-- Node1&#45;&gt;Node12 -->
<g id="edge11_Node000001_Node000012" class="edge">
<title>Node1&#45;&gt;Node12</title>
<g id="a_edge11_Node000001_Node000012"><a xlink:title=" ">
<path fill="none" stroke="#63b8ff" d="M93.96,-581.55C126,-534.96 214.62,-406.1 253.06,-350.19"/>
<polygon fill="#63b8ff" stroke="#63b8ff" points="255.78,-352.42 258.57,-342.19 250.02,-348.45 255.78,-352.42"/>
</a>
</g>
</g>
<!-- Node3 -->
<g id="Node000003" class="node">
<title>Node3</title>
<g id="a_Node000003"><a xlink:href="classQtSmartSearchBox.html#af4d877efb047f28de3c44bb143992796" target="_top" xlink:title=" ">
<polygon fill="white" stroke="#666666" points="1171.5,-611.12 992,-611.12 992,-590.38 1171.5,-590.38 1171.5,-611.12"/>
<text text-anchor="middle" x="1081.75" y="-597.62" font-family="Helvetica,sans-Serif" font-size="10.00">QtSmartSearchBox::clearMatches</text>
</a>
</g>
</g>
<!-- Node2&#45;&gt;Node3 -->
<g id="edge2_Node000002_Node000003" class="edge">
<title>Node2&#45;&gt;Node3</title>
<g id="a_edge2_Node000002_Node000003"><a xlink:title=" ">
<path fill="none" stroke="#63b8ff" d="M948.97,-600.75C959.22,-600.75 969.82,-600.75 980.33,-600.75"/>
<polygon fill="#63b8ff" stroke="#63b8ff" points="980.18,-604.25 990.18,-600.75 980.18,-597.25 980.18,-604.25"/>
</a>
</g>
</g>
<!-- Node4 -->
<g id="Node000004" class="node">
<title>Node4</title>
<g id="a_Node000004"><a xlink:href="namespaceutility.html#a832a7239c5c7effe1c89674d96c76b09" target="_top" xlink:title=" ">
<polygon fill="white" stroke="#666666" points="1161.38,-572.12 1002.12,-572.12 1002.12,-551.38 1161.38,-551.38 1161.38,-572.12"/>
<text text-anchor="middle" x="1081.75" y="-558.62" font-family="Helvetica,sans-Serif" font-size="10.00">utility::equalsCaseInsensitive</text>
</a>
</g>
</g>
<!-- Node2&#45;&gt;Node4 -->
<g id="edge3_Node000002_Node000004" class="edge">
<title>Node2&#45;&gt;Node4</title>
<g id="a_edge3_Node000002_Node000004"><a xlink:title=" ">
<path fill="none" stroke="#63b8ff" d="M927.53,-589.89C953.2,-585.17 983.46,-579.62 1010.28,-574.69"/>
<polygon fill="#63b8ff" stroke="#63b8ff" points="1010.85,-578.15 1020.05,-572.9 1009.58,-571.26 1010.85,-578.15"/>
</a>
</g>
</g>
<!-- Node5 -->
<g id="Node000005" class="node">
<title>Node5</title>
<g id="a_Node000005"><a xlink:href="structSearchMatch.html#aab72381055e608a5fc69d20c867f731a" target="_top" xlink:title=" ">
<polygon fill="white" stroke="#666666" points="1155.38,-482.12 1008.12,-482.12 1008.12,-461.38 1155.38,-461.38 1155.38,-482.12"/>
<text text-anchor="middle" x="1081.75" y="-468.62" font-family="Helvetica,sans-Serif" font-size="10.00">SearchMatch::getFullName</text>
</a>
</g>
</g>
<!-- Node2&#45;&gt;Node5 -->
<g id="edge4_Node000002_Node000005" class="edge">
<title>Node2&#45;&gt;Node5</title>
<g id="a_edge4_Node000002_Node000005"><a xlink:title=" ">
<path fill="none" stroke="#63b8ff" d="M879.1,-589.88C904.11,-564.77 966.12,-503.87 992,-490.75 995.23,-489.11 998.6,-487.61 1002.05,-486.25"/>
<polygon fill="#63b8ff" stroke="#63b8ff" points="1002.93,-489.65 1011.19,-483.02 1000.6,-483.05 1002.93,-489.65"/>
</a>
</g>
</g>
<!-- Node7 -->
<g id="Node000007" class="node">
<title>Node7</title>
<g id="a_Node000007"><a xlink:href="classQtAutocompletionList.html#a22fb701bb40cf23314e73ed8b46be7d9" target="_top" xlink:title=" ">
<polygon fill="white" stroke="#666666" points="1142.62,-714.5 1020.88,-714.5 1020.88,-681 1142.62,-681 1142.62,-714.5"/>
<text text-anchor="start" x="1028.88" y="-701" font-family="Helvetica,sans-Serif" font-size="10.00">QtAutocompletionList</text>
<text text-anchor="middle" x="1081.75" y="-688.25" font-family="Helvetica,sans-Serif" font-size="10.00">::getSearchMatchAt</text>
</a>
</g>
</g>
<!-- Node2&#45;&gt;Node7 -->
<g id="edge6_Node000002_Node000007" class="edge">
<title>Node2&#45;&gt;Node7</title>
<g id="a_edge6_Node000002_Node000007"><a xlink:title=" ">
<path fill="none" stroke="#63b8ff" d="M884.14,-611.44C907.04,-626.58 951.25,-654.37 992,-671.75 997.63,-674.15 1003.55,-676.41 1009.55,-678.53"/>
<polygon fill="#63b8ff" stroke="#63b8ff" points="1008.37,-681.82 1018.96,-681.68 1010.59,-675.18 1008.37,-681.82"/>
</a>
</g>
</g>
<!-- Node8 -->
<g id="Node000008" class="node">
<title>Node8</title>
<g id="a_Node000008"><a xlink:href="classQtSmartSearchBox.html#af9ae2b085461a5441d822ac5cbd5acda" target="_top" xlink:title=" ">
<polygon fill="white" stroke="#666666" points="1162.88,-662.5 1000.62,-662.5 1000.62,-629 1162.88,-629 1162.88,-662.5"/>
<text text-anchor="start" x="1008.62" y="-649" font-family="Helvetica,sans-Serif" font-size="10.00">QtSmartSearchBox::lastMatch</text>
<text text-anchor="middle" x="1081.75" y="-636.25" font-family="Helvetica,sans-Serif" font-size="10.00">IsNoFilter</text>
</a>
</g>
</g>
<!-- Node2&#45;&gt;Node8 -->
<g id="edge7_Node000002_Node000008" class="edge">
<title>Node2&#45;&gt;Node8</title>
<g id="a_edge7_Node000002_Node000008"><a xlink:title=" ">
<path fill="none" stroke="#63b8ff" d="M919.51,-611.59C940.39,-616.01 965.18,-621.26 988.99,-626.31"/>
<polygon fill="#63b8ff" stroke="#63b8ff" points="988.22,-629.72 998.73,-628.37 989.67,-622.87 988.22,-629.72"/>
</a>
</g>
</g>
<!-- Node6 -->
<g id="Node000006" class="node">
<title>Node6</title>
<g id="a_Node000006"><a xlink:href="classNodeType.html#a81656eb0721b620e931dd46669a8e4eb" target="_top" xlink:title=" ">
<polygon fill="white" stroke="#666666" points="1331.5,-482.12 1236.75,-482.12 1236.75,-461.38 1331.5,-461.38 1331.5,-482.12"/>
<text text-anchor="middle" x="1284.12" y="-468.62" font-family="Helvetica,sans-Serif" font-size="10.00">NodeType::isFile</text>
</a>
</g>
</g>
<!-- Node5&#45;&gt;Node6 -->
<g id="edge5_Node000005_Node000006" class="edge">
<title>Node5&#45;&gt;Node6</title>
<g id="a_edge5_Node000005_Node000006"><a xlink:title=" ">
<path fill="none" stroke="#63b8ff" d="M1155.66,-471.75C1178.52,-471.75 1203.43,-471.75 1225.11,-471.75"/>
<polygon fill="#63b8ff" stroke="#63b8ff" points="1224.95,-475.25 1234.95,-471.75 1224.95,-468.25 1224.95,-475.25"/>
</a>
</g>
</g>
<!-- Node10 -->
<g id="Node000010" class="node">
<title>Node10</title>
<g id="a_Node000010"><a xlink:href="classQtSmartSearchBox.html#a25a06e707e3b4936d0cb3088136b35e8" target="_top" xlink:title=" ">
<polygon fill="white" stroke="#666666" points="1160.62,-533.5 1002.88,-533.5 1002.88,-500 1160.62,-500 1160.62,-533.5"/>
<text text-anchor="start" x="1010.88" y="-520" font-family="Helvetica,sans-Serif" font-size="10.00">QtSmartSearchBox::hideAuto</text>
<text text-anchor="middle" x="1081.75" y="-507.25" font-family="Helvetica,sans-Serif" font-size="10.00">Completions</text>
</a>
</g>
</g>
<!-- Node9&#45;&gt;Node10 -->
<g id="edge9_Node000009_Node000010" class="edge">
<title>Node9&#45;&gt;Node10</title>
<g id="a_edge9_Node000009_Node000010"><a xlink:title=" ">
<path fill="none" stroke="#63b8ff" d="M956.29,-505.62C967.76,-506.64 979.52,-507.69 991.02,-508.72"/>
<polygon fill="#63b8ff" stroke="#63b8ff" points="990.63,-512.2 1000.9,-509.61 991.25,-505.23 990.63,-512.2"/>
</a>
</g>
</g>
<!-- Node11 -->
<g id="Node000011" class="node">
<title>Node11</title>
<g id="a_Node000011"><a xlink:href="classQtSmartSearchBox.html#ad4db6f2fb52cae34efe1bb84440cfb1b" target="_top" xlink:title=" ">
<polygon fill="white" stroke="#666666" points="1165.88,-443.12 997.62,-443.12 997.62,-422.38 1165.88,-422.38 1165.88,-443.12"/>
<text text-anchor="middle" x="1081.75" y="-429.62" font-family="Helvetica,sans-Serif" font-size="10.00">QtSmartSearchBox::setEditText</text>
</a>
</g>
</g>
<!-- Node9&#45;&gt;Node11 -->
<g id="edge10_Node000009_Node000011" class="edge">
<title>Node9&#45;&gt;Node11</title>
<g id="a_edge10_Node000009_Node000011"><a xlink:title=" ">
<path fill="none" stroke="#63b8ff" d="M895.06,-486.92C919.87,-477.11 958.03,-462.72 992,-452.75 999.81,-450.46 1008.08,-448.28 1016.3,-446.26"/>
<polygon fill="#63b8ff" stroke="#63b8ff" points="1017.05,-449.68 1025.96,-443.96 1015.42,-442.87 1017.05,-449.68"/>
</a>
</g>
</g>
<!-- Node12&#45;&gt;Node10 -->
<g id="edge24_Node000012_Node000010" class="edge">
<title>Node12&#45;&gt;Node10</title>
<g id="a_edge24_Node000012_Node000010"><a xlink:title=" ">
<path fill="none" stroke="#63b8ff" d="M276.22,-340.83C284.44,-382.16 311.71,-487.27 382.25,-529.75 482.23,-589.96 826.65,-552.3 991.48,-529.89"/>
<polygon fill="#63b8ff" stroke="#63b8ff" points="991.62,-533.4 1001.05,-528.57 990.67,-526.46 991.62,-533.4"/>
</a>
</g>
</g>
<!-- Node13 -->
<g id="Node000013" class="node">
<title>Node13</title>
<g id="a_Node000013"><a xlink:href="namespaceutility.html#a4959dcb82d86854e88fa8757194a00ec" target="_top" xlink:title=" ">
<polygon fill="white" stroke="#666666" points="524.25,-225.12 407.75,-225.12 407.75,-204.38 524.25,-204.38 524.25,-225.12"/>
<text text-anchor="middle" x="466" y="-211.62" font-family="Helvetica,sans-Serif" font-size="10.00">utility::encodeToUtf8</text>
</a>
</g>
</g>
<!-- Node12&#45;&gt;Node13 -->
<g id="edge12_Node000012_Node000013" class="edge">
<title>Node12&#45;&gt;Node13</title>
<g id="a_edge12_Node000012_Node000013"><a xlink:title=" ">
<path fill="none" stroke="#63b8ff" d="M288.87,-306.71C308.62,-286.23 344.61,-252.3 382.25,-233.75 386.76,-231.53 391.54,-229.56 396.43,-227.82"/>
<polygon fill="#63b8ff" stroke="#63b8ff" points="397.36,-231.19 405.83,-224.82 395.24,-224.53 397.36,-231.19"/>
</a>
</g>
</g>
<!-- Node14 -->
<g id="Node000014" class="node">
<title>Node14</title>
<g id="a_Node000014"><a xlink:href="classColorScheme.html#aee1ebc3d8135a7046491f25b13a97812" target="_top" xlink:title=" ">
<polygon fill="white" stroke="#666666" points="529.88,-186.12 402.12,-186.12 402.12,-165.38 529.88,-165.38 529.88,-186.12"/>
<text text-anchor="middle" x="466" y="-172.62" font-family="Helvetica,sans-Serif" font-size="10.00">ColorScheme::getColor</text>
</a>
</g>
</g>
<!-- Node12&#45;&gt;Node14 -->
<g id="edge13_Node000012_Node000014" class="edge">
<title>Node12&#45;&gt;Node14</title>
<g id="a_edge13_Node000012_Node000014"><a xlink:title=" ">
<path fill="none" stroke="#63b8ff" d="M282.87,-306.65C299.42,-278.87 336,-224.19 382.25,-195.75 385.18,-193.95 388.26,-192.31 391.43,-190.82"/>
<polygon fill="#63b8ff" stroke="#63b8ff" points="392.53,-194.15 400.46,-187.12 389.88,-187.68 392.53,-194.15"/>
</a>
</g>
</g>
<!-- Node15 -->
<g id="Node000015" class="node">
<title>Node15</title>
<g id="a_Node000015"><a xlink:href="classColorScheme.html#ab65eb4d23939345b1569002b38ed3caf" target="_top" xlink:title=" ">
<polygon fill="white" stroke="#666666" points="736,-90.12 592.5,-90.12 592.5,-69.38 736,-69.38 736,-90.12"/>
<text text-anchor="middle" x="664.25" y="-76.62" font-family="Helvetica,sans-Serif" font-size="10.00">ColorScheme::getInstance</text>
</a>
</g>
</g>
<!-- Node12&#45;&gt;Node15 -->
<g id="edge14_Node000012_Node000015" class="edge">
<title>Node12&#45;&gt;Node15</title>
<g id="a_edge14_Node000012_Node000015"><a xlink:title=" ">
<path fill="none" stroke="#63b8ff" d="M276.52,-306.58C285.34,-265.47 313.72,-161.26 382.25,-113.75 413.54,-92.06 509.91,-84.17 581.11,-81.32"/>
<polygon fill="#63b8ff" stroke="#63b8ff" points="580.93,-84.83 590.79,-80.96 580.67,-77.83 580.93,-84.83"/>
</a>
</g>
</g>
<!-- Node16 -->
<g id="Node000016" class="node">
<title>Node16</title>
<g id="a_Node000016"><a xlink:href="classGraphViewStyle.html#a2b5f10ea5dad850212d2df65e112c34a" target="_top" xlink:title=" ">
<polygon fill="white" stroke="#666666" points="549.38,-72.12 382.62,-72.12 382.62,-51.38 549.38,-51.38 549.38,-72.12"/>
<text text-anchor="middle" x="466" y="-58.62" font-family="Helvetica,sans-Serif" font-size="10.00">GraphViewStyle::getNodeColor</text>
</a>
</g>
</g>
<!-- Node12&#45;&gt;Node16 -->
<g id="edge15_Node000012_Node000016" class="edge">
<title>Node12&#45;&gt;Node16</title>
<g id="a_edge15_Node000012_Node000016"><a xlink:title=" ">
<path fill="none" stroke="#63b8ff" d="M276.05,-306.74C284.11,-263.18 311.53,-146.75 382.25,-85.75 385.88,-82.62 389.9,-79.89 394.16,-77.52"/>
<polygon fill="#63b8ff" stroke="#63b8ff" points="395.55,-80.73 403.07,-73.27 392.54,-74.42 395.55,-80.73"/>
</a>
</g>
</g>
<!-- Node21 -->
<g id="Node000021" class="node">
<title>Node21</title>
<g id="a_Node000021"><a xlink:href="namespaceutility.html#a239deb522abcf6865fc4409d6fff2914" target="_top" xlink:title=" ">
<polygon fill="white" stroke="#666666" points="1124.62,-236.12 1038.88,-236.12 1038.88,-215.38 1124.62,-215.38 1124.62,-236.12"/>
<text text-anchor="middle" x="1081.75" y="-222.62" font-family="Helvetica,sans-Serif" font-size="10.00">utility::replace</text>
</a>
</g>
</g>
<!-- Node12&#45;&gt;Node21 -->
<g id="edge41_Node000012_Node000021" class="edge">
<title>Node12&#45;&gt;Node21</title>
<g id="a_edge41_Node000012_Node000021"><a xlink:title=" ">
<path fill="none" stroke="#63b8ff" d="M346.49,-319.93C402.33,-317.95 481.06,-317.13 549.75,-323.75 565.97,-325.31 569.53,-329.19 585.75,-330.75 655.21,-337.44 673.76,-341.22 742.75,-330.75 856.28,-313.52 984.16,-265.5 1044.95,-240.82"/>
<polygon fill="#63b8ff" stroke="#63b8ff" points="1046.18,-244.1 1054.11,-237.07 1043.52,-237.62 1046.18,-244.1"/>
</a>
</g>
</g>
<!-- Node22 -->
<g id="Node000022" class="node">
<title>Node22</title>
<g id="a_Node000022"><a xlink:href="classColorScheme.html#aabbd860c509be43caf6b43a30faf2047" target="_top" xlink:title=" ">
<polygon fill="white" stroke="#666666" points="544.88,-494.5 387.12,-494.5 387.12,-461 544.88,-461 544.88,-494.5"/>
<text text-anchor="start" x="395.12" y="-481" font-family="Helvetica,sans-Serif" font-size="10.00">ColorScheme::getSearchType</text>
<text text-anchor="middle" x="466" y="-468.25" font-family="Helvetica,sans-Serif" font-size="10.00">Color</text>
</a>
</g>
</g>
<!-- Node12&#45;&gt;Node22 -->
<g id="edge23_Node000012_Node000022" class="edge">
<title>Node12&#45;&gt;Node22</title>
<g id="a_edge23_Node000012_Node000022"><a xlink:title=" ">
<path fill="none" stroke="#63b8ff" d="M284.29,-340.84C302.01,-367.03 339.22,-417.18 382.25,-446.75 387.03,-450.03 392.2,-453.02 397.54,-455.73"/>
<polygon fill="#63b8ff" stroke="#63b8ff" points="396.05,-458.9 406.59,-459.96 399.02,-452.56 396.05,-458.9"/>
</a>
</g>
</g>
<!-- Node23 -->
<g id="Node000023" class="node">
<title>Node23</title>
<g id="a_Node000023"><a xlink:href="classQtSmartSearchBox.html#a471c4bcd8846a46810aca0530c8901de" target="_top" xlink:title=" ">
<polygon fill="white" stroke="#666666" points="736.75,-141.5 591.75,-141.5 591.75,-108 736.75,-108 736.75,-141.5"/>
<text text-anchor="start" x="599.75" y="-128" font-family="Helvetica,sans-Serif" font-size="10.00">QtSmartSearchBox::layout</text>
<text text-anchor="middle" x="664.25" y="-115.25" font-family="Helvetica,sans-Serif" font-size="10.00">Elements</text>
</a>
</g>
</g>
<!-- Node12&#45;&gt;Node23 -->
<g id="edge25_Node000012_Node000023" class="edge">
<title>Node12&#45;&gt;Node23</title>
<g id="a_edge25_Node000012_Node000023"><a xlink:title=" ">
<path fill="none" stroke="#63b8ff" d="M278.8,-306.67C291.12,-271.75 324.36,-192.48 382.25,-156.75 441.33,-120.29 520.86,-114.34 580.24,-116.32"/>
<polygon fill="#63b8ff" stroke="#63b8ff" points="579.8,-119.81 589.94,-116.74 580.1,-112.82 579.8,-119.81"/>
</a>
</g>
</g>
<!-- Node25 -->
<g id="Node000025" class="node">
<title>Node25</title>
<g id="a_Node000025"><a xlink:href="classQtSmartSearchBox.html#a59783b72e94247f668ef19ffd708de1e" target="_top" xlink:title=" ">
<polygon fill="white" stroke="#666666" points="549.38,-276.5 382.62,-276.5 382.62,-243 549.38,-243 549.38,-276.5"/>
<text text-anchor="start" x="390.62" y="-263" font-family="Helvetica,sans-Serif" font-size="10.00">QtSmartSearchBox::onElement</text>
<text text-anchor="middle" x="466" y="-250.25" font-family="Helvetica,sans-Serif" font-size="10.00">Selected</text>
</a>
</g>
</g>
<!-- Node12&#45;&gt;Node25 -->
<g id="edge27_Node000012_Node000025" class="edge">
<title>Node12&#45;&gt;Node25</title>
<g id="a_edge27_Node000012_Node000025"><a xlink:title=" ">
<path fill="none" stroke="#63b8ff" d="M324.89,-306.51C348.85,-298.52 377.54,-288.94 402.69,-280.55"/>
<polygon fill="#63b8ff" stroke="#63b8ff" points="403.79,-283.87 412.17,-277.38 401.57,-277.23 403.79,-283.87"/>
</a>
</g>
</g>
<!-- Node31 -->
<g id="Node000031" class="node">
<title>Node31</title>
<g id="a_Node000031"><a xlink:href="classQtSmartSearchBox.html#a1078c74a100e1901e2fe53b6b740c0ef" target="_top" xlink:title=" ">
<polygon fill="white" stroke="#666666" points="540,-404.5 392,-404.5 392,-371 540,-371 540,-404.5"/>
<text text-anchor="start" x="400" y="-391" font-family="Helvetica,sans-Serif" font-size="10.00">QtSmartSearchBox::update</text>
<text text-anchor="middle" x="466" y="-378.25" font-family="Helvetica,sans-Serif" font-size="10.00">Placeholder</text>
</a>
</g>
</g>
<!-- Node12&#45;&gt;Node31 -->
<g id="edge42_Node000012_Node000031" class="edge">
<title>Node12&#45;&gt;Node31</title>
<g id="a_edge42_Node000012_Node000031"><a xlink:title=" ">
<path fill="none" stroke="#63b8ff" d="M321.43,-340.91C340.35,-347.55 362.28,-355.13 382.25,-361.75 387.56,-363.51 393.08,-365.31 398.62,-367.09"/>
<polygon fill="#63b8ff" stroke="#63b8ff" points="397.25,-370.33 407.84,-370.04 399.38,-363.66 397.25,-370.33"/>
</a>
</g>
</g>
<!-- Node32 -->
<g id="Node000032" class="node">
<title>Node32</title>
<g id="a_Node000032"><a xlink:href="classQtSearchElement.html#ad52fc6e743791e67bf1489193bb415ac" target="_top" xlink:title=" ">
<polygon fill="white" stroke="#666666" points="549.75,-353.12 382.25,-353.12 382.25,-332.38 549.75,-332.38 549.75,-353.12"/>
<text text-anchor="middle" x="466" y="-339.62" font-family="Helvetica,sans-Serif" font-size="10.00">QtSearchElement::wasChecked</text>
</a>
</g>
</g>
<!-- Node12&#45;&gt;Node32 -->
<g id="edge43_Node000012_Node000032" class="edge">
<title>Node12&#45;&gt;Node32</title>
<g id="a_edge43_Node000012_Node000032"><a xlink:title=" ">
<path fill="none" stroke="#63b8ff" d="M346.56,-331.01C354.4,-331.79 362.44,-332.59 370.48,-333.38"/>
<polygon fill="#63b8ff" stroke="#63b8ff" points="370,-336.85 380.29,-334.36 370.69,-329.89 370,-336.85"/>
</a>
</g>
</g>
<!-- Node16&#45;&gt;Node15 -->
<g id="edge16_Node000016_Node000015" class="edge">
<title>Node16&#45;&gt;Node15</title>
<g id="a_edge16_Node000016_Node000015"><a xlink:title=" ">
<path fill="none" stroke="#63b8ff" d="M549.66,-69.33C560.04,-70.28 570.67,-71.26 581.04,-72.21"/>
<polygon fill="#63b8ff" stroke="#63b8ff" points="580.4,-75.67 590.68,-73.09 581.04,-68.7 580.4,-75.67"/>
</a>
</g>
</g>
<!-- Node17 -->
<g id="Node000017" class="node">
<title>Node17</title>
<g id="a_Node000017"><a xlink:href="classColorScheme.html#a6740f1536f1befcfc6d2e26990823518" target="_top" xlink:title=" ">
<polygon fill="white" stroke="#666666" points="739.38,-33.5 589.12,-33.5 589.12,0 739.38,0 739.38,-33.5"/>
<text text-anchor="start" x="597.12" y="-20" font-family="Helvetica,sans-Serif" font-size="10.00">ColorScheme::getNodeType</text>
<text text-anchor="middle" x="664.25" y="-7.25" font-family="Helvetica,sans-Serif" font-size="10.00">Color</text>
</a>
</g>
</g>
<!-- Node16&#45;&gt;Node17 -->
<g id="edge17_Node000016_Node000017" class="edge">
<title>Node16&#45;&gt;Node17</title>
<g id="a_edge17_Node000016_Node000017"><a xlink:title=" ">
<path fill="none" stroke="#63b8ff" d="M514.01,-50.97C533.12,-46.59 555.82,-41.38 577.67,-36.37"/>
<polygon fill="#63b8ff" stroke="#63b8ff" points="578.22,-39.84 587.18,-34.19 576.65,-33.02 578.22,-39.84"/>
</a>
</g>
</g>
<!-- Node17&#45;&gt;Node17 -->
<g id="edge18_Node000017_Node000017" class="edge">
<title>Node17&#45;&gt;Node17</title>
<g id="a_edge18_Node000017_Node000017"><a xlink:title=" ">
<path fill="none" stroke="#63b8ff" d="M628.61,-33.91C622.56,-43.12 634.44,-51.5 664.25,-51.5 681.02,-51.5 692.12,-48.85 697.54,-44.89"/>
<polygon fill="#63b8ff" stroke="#63b8ff" points="700.9,-45.91 699.57,-35.39 694.05,-44.44 700.9,-45.91"/>
</a>
</g>
</g>
<!-- Node18 -->
<g id="Node000018" class="node">
<title>Node18</title>
<g id="a_Node000018"><a xlink:href="classNodeType.html#aada8e1ad40ccf2d1a2328a20ff872392" target="_top" xlink:title=" ">
<polygon fill="white" stroke="#666666" points="941,-72.5 793.75,-72.5 793.75,-39 941,-39 941,-72.5"/>
<text text-anchor="start" x="801.75" y="-59" font-family="Helvetica,sans-Serif" font-size="10.00">NodeType::getUnderscored</text>
<text text-anchor="middle" x="867.38" y="-46.25" font-family="Helvetica,sans-Serif" font-size="10.00">TypeString</text>
</a>
</g>
</g>
<!-- Node17&#45;&gt;Node18 -->
<g id="edge19_Node000017_Node000018" class="edge">
<title>Node17&#45;&gt;Node18</title>
<g id="a_edge19_Node000017_Node000018"><a xlink:title=" ">
<path fill="none" stroke="#63b8ff" d="M739.86,-31.22C753.7,-33.9 768.26,-36.72 782.37,-39.46"/>
<polygon fill="#63b8ff" stroke="#63b8ff" points="781.59,-42.88 792.08,-41.34 782.93,-36 781.59,-42.88"/>
</a>
</g>
</g>
<!-- Node19 -->
<g id="Node000019" class="node">
<title>Node19</title>
<g id="a_Node000019"><a xlink:href="classNodeType.html#a548ab2f69a65eb56317fe50281804d45" target="_top" xlink:title=" ">
<polygon fill="white" stroke="#666666" points="1158.75,-72.5 1004.75,-72.5 1004.75,-39 1158.75,-39 1158.75,-72.5"/>
<text text-anchor="start" x="1012.75" y="-59" font-family="Helvetica,sans-Serif" font-size="10.00">NodeType::getReadableType</text>
<text text-anchor="middle" x="1081.75" y="-46.25" font-family="Helvetica,sans-Serif" font-size="10.00">String</text>
</a>
</g>
</g>
<!-- Node18&#45;&gt;Node19 -->
<g id="edge20_Node000018_Node000019" class="edge">
<title>Node18&#45;&gt;Node19</title>
<g id="a_edge20_Node000018_Node000019"><a xlink:title=" ">
<path fill="none" stroke="#63b8ff" d="M941.46,-55.75C958.1,-55.75 975.93,-55.75 993.1,-55.75"/>
<polygon fill="#63b8ff" stroke="#63b8ff" points="992.76,-59.25 1002.76,-55.75 992.76,-52.25 992.76,-59.25"/>
</a>
</g>
</g>
<!-- Node18&#45;&gt;Node21 -->
<g id="edge22_Node000018_Node000021" class="edge">
<title>Node18&#45;&gt;Node21</title>
<g id="a_edge22_Node000018_Node000021"><a xlink:title=" ">
<path fill="none" stroke="#63b8ff" d="M889.91,-72.99C930.32,-105.34 1017.17,-174.86 1058.29,-207.77"/>
<polygon fill="#63b8ff" stroke="#63b8ff" points="1056.07,-210.48 1066.07,-214 1060.45,-205.02 1056.07,-210.48"/>
</a>
</g>
</g>
<!-- Node20 -->
<g id="Node000020" class="node">
<title>Node20</title>
<g id="a_Node000020"><a xlink:href="NodeKind_8cpp.html#a1df24373c5d37e19daf04ca7f2621443" target="_top" xlink:title=" ">
<polygon fill="white" stroke="#666666" points="1360.75,-66.12 1207.5,-66.12 1207.5,-45.38 1360.75,-45.38 1360.75,-66.12"/>
<text text-anchor="middle" x="1284.12" y="-52.62" font-family="Helvetica,sans-Serif" font-size="10.00">getReadableNodeKindString</text>
</a>
</g>
</g>
<!-- Node19&#45;&gt;Node20 -->
<g id="edge21_Node000019_Node000020" class="edge">
<title>Node19&#45;&gt;Node20</title>
<g id="a_edge21_Node000019_Node000020"><a xlink:title=" ">
<path fill="none" stroke="#63b8ff" d="M1159.07,-55.75C1171.1,-55.75 1183.61,-55.75 1195.86,-55.75"/>
<polygon fill="#63b8ff" stroke="#63b8ff" points="1195.5,-59.25 1205.5,-55.75 1195.5,-52.25 1195.5,-59.25"/>
</a>
</g>
</g>
<!-- Node24 -->
<g id="Node000024" class="node">
<title>Node24</title>
<g id="a_Node000024"><a xlink:href="classQtSmartSearchBox.html#a391a5c81db7397f398dff8846e159c1c" target="_top" xlink:title=" ">
<polygon fill="white" stroke="#666666" points="954.12,-200.5 780.62,-200.5 780.62,-167 954.12,-167 954.12,-200.5"/>
<text text-anchor="start" x="788.62" y="-187" font-family="Helvetica,sans-Serif" font-size="10.00">QtSmartSearchBox::hasSelected</text>
<text text-anchor="middle" x="867.38" y="-174.25" font-family="Helvetica,sans-Serif" font-size="10.00">Elements</text>
</a>
</g>
</g>
<!-- Node23&#45;&gt;Node24 -->
<g id="edge26_Node000023_Node000024" class="edge">
<title>Node23&#45;&gt;Node24</title>
<g id="a_edge26_Node000023_Node000024"><a xlink:title=" ">
<path fill="none" stroke="#63b8ff" d="M723.96,-141.97C746.69,-148.64 772.88,-156.32 796.55,-163.27"/>
<polygon fill="#63b8ff" stroke="#63b8ff" points="795.55,-166.62 806.14,-166.08 797.52,-159.91 795.55,-166.62"/>
</a>
</g>
</g>
<!-- Node25&#45;&gt;Node23 -->
<g id="edge37_Node000025_Node000023" class="edge">
<title>Node25&#45;&gt;Node23</title>
<g id="a_edge37_Node000025_Node000023"><a xlink:title=" ">
<path fill="none" stroke="#63b8ff" d="M537.57,-242.5C541.94,-239.97 546.06,-237.07 549.75,-233.75 579.63,-206.85 556.13,-177.94 585.75,-150.75 586.66,-149.91 587.61,-149.1 588.58,-148.31"/>
<polygon fill="#63b8ff" stroke="#63b8ff" points="590.38,-151.32 596.63,-142.77 586.41,-145.55 590.38,-151.32"/>
</a>
</g>
</g>
<!-- Node25&#45;&gt;Node24 -->
<g id="edge36_Node000025_Node000024" class="edge">
<title>Node25&#45;&gt;Node24</title>
<g id="a_edge36_Node000025_Node000024"><a xlink:title=" ">
<path fill="none" stroke="#63b8ff" d="M549.75,-244C613.6,-231.85 702.07,-215.02 769.26,-202.23"/>
<polygon fill="#63b8ff" stroke="#63b8ff" points="769.62,-205.72 778.79,-200.42 768.32,-198.85 769.62,-205.72"/>
</a>
</g>
</g>
<!-- Node26 -->
<g id="Node000026" class="node">
<title>Node26</title>
<g id="a_Node000026"><a xlink:href="classQtSmartSearchBox.html#aef172e88a1450af62b08d584c537314f" target="_top" xlink:title=" ">
<polygon fill="white" stroke="#666666" points="954.12,-443.12 780.62,-443.12 780.62,-422.38 954.12,-422.38 954.12,-443.12"/>
<text text-anchor="middle" x="867.38" y="-429.62" font-family="Helvetica,sans-Serif" font-size="10.00">QtSmartSearchBox::editElement</text>
</a>
</g>
</g>
<!-- Node25&#45;&gt;Node26 -->
<g id="edge28_Node000025_Node000026" class="edge">
<title>Node25&#45;&gt;Node26</title>
<g id="a_edge28_Node000025_Node000026"><a xlink:title=" ">
<path fill="none" stroke="#63b8ff" d="M492.17,-276.72C515.68,-292.11 552.12,-314.77 585.75,-330.75 665.19,-368.51 762.62,-401.03 819.28,-418.66"/>
<polygon fill="#63b8ff" stroke="#63b8ff" points="818.02,-421.94 828.6,-421.54 820.08,-415.25 818.02,-421.94"/>
</a>
</g>
</g>
<!-- Node27 -->
<g id="Node000027" class="node">
<title>Node27</title>
<g id="a_Node000027"><a xlink:href="classQtSmartSearchBox.html#aa5867b91794590eece4a9a1707b2ec6b" target="_top" xlink:title=" ">
<polygon fill="white" stroke="#666666" points="740.88,-495.5 587.62,-495.5 587.62,-462 740.88,-462 740.88,-495.5"/>
<text text-anchor="start" x="595.62" y="-482" font-family="Helvetica,sans-Serif" font-size="10.00">QtSmartSearchBox::editText</text>
<text text-anchor="middle" x="664.25" y="-469.25" font-family="Helvetica,sans-Serif" font-size="10.00">ToElement</text>
</a>
</g>
</g>
<!-- Node25&#45;&gt;Node27 -->
<g id="edge32_Node000025_Node000027" class="edge">
<title>Node25&#45;&gt;Node27</title>
<g id="a_edge32_Node000025_Node000027"><a xlink:title=" ">
<path fill="none" stroke="#63b8ff" d="M496.05,-276.95C513.45,-288.43 534.99,-304.86 549.75,-323.75 574.25,-355.12 562.8,-373.23 585.75,-405.75 598.58,-423.93 616.48,-441.15 631.84,-454.3"/>
<polygon fill="#63b8ff" stroke="#63b8ff" points="629.45,-456.86 639.38,-460.58 633.93,-451.49 629.45,-456.86"/>
</a>
</g>
</g>
<!-- Node28 -->
<g id="Node000028" class="node">
<title>Node28</title>
<g id="a_Node000028"><a xlink:href="classQtSmartSearchBox.html#a3a128980d07898f6808feba7493b1df8" target="_top" xlink:title=" ">
<polygon fill="white" stroke="#666666" points="736,-193.5 592.5,-193.5 592.5,-160 736,-160 736,-193.5"/>
<text text-anchor="start" x="600.5" y="-180" font-family="Helvetica,sans-Serif" font-size="10.00">QtSmartSearchBox::select</text>
<text text-anchor="middle" x="664.25" y="-167.25" font-family="Helvetica,sans-Serif" font-size="10.00">AllElementsWith</text>
</a>
</g>
</g>
<!-- Node25&#45;&gt;Node28 -->
<g id="edge38_Node000025_Node000028" class="edge">
<title>Node25&#45;&gt;Node28</title>
<g id="a_edge38_Node000025_Node000028"><a xlink:title=" ">
<path fill="none" stroke="#63b8ff" d="M529.32,-242.57C536.34,-239.93 543.29,-236.99 549.75,-233.75 567.39,-224.9 568.46,-217.26 585.75,-207.75 591.75,-204.45 598.17,-201.31 604.66,-198.39"/>
<polygon fill="#63b8ff" stroke="#63b8ff" points="605.68,-201.76 613.47,-194.58 602.9,-195.34 605.68,-201.76"/>
</a>
</g>
</g>
<!-- Node29 -->
<g id="Node000029" class="node">
<title>Node29</title>
<g id="a_Node000029"><a xlink:href="classQtSmartSearchBox.html#ac54582716954994fe769ad14e9a49eb0" target="_top" xlink:title=" ">
<polygon fill="white" stroke="#666666" points="736,-321.5 592.5,-321.5 592.5,-288 736,-288 736,-321.5"/>
<text text-anchor="start" x="600.5" y="-308" font-family="Helvetica,sans-Serif" font-size="10.00">QtSmartSearchBox::select</text>
<text text-anchor="middle" x="664.25" y="-295.25" font-family="Helvetica,sans-Serif" font-size="10.00">ElementsTo</text>
</a>
</g>
</g>
<!-- Node25&#45;&gt;Node29 -->
<g id="edge39_Node000025_Node000029" class="edge">
<title>Node25&#45;&gt;Node29</title>
<g id="a_edge39_Node000025_Node000029"><a xlink:title=" ">
<path fill="none" stroke="#63b8ff" d="M542.03,-276.96C554.75,-279.87 568.02,-282.91 580.92,-285.87"/>
<polygon fill="#63b8ff" stroke="#63b8ff" points="580.13,-289.28 590.66,-288.11 581.69,-282.46 580.13,-289.28"/>
</a>
</g>
</g>
<!-- Node30 -->
<g id="Node000030" class="node">
<title>Node30</title>
<g id="a_Node000030"><a xlink:href="classQtSmartSearchBox.html#a7ac1057c5e41c198f8f736fcd3a4cf49" target="_top" xlink:title=" ">
<polygon fill="white" stroke="#666666" points="742.75,-270.12 585.75,-270.12 585.75,-249.38 742.75,-249.38 742.75,-270.12"/>
<text text-anchor="middle" x="664.25" y="-256.62" font-family="Helvetica,sans-Serif" font-size="10.00">QtSmartSearchBox::setFocus</text>
</a>
</g>
</g>
<!-- Node25&#45;&gt;Node30 -->
<g id="edge40_Node000025_Node000030" class="edge">
<title>Node25&#45;&gt;Node30</title>
<g id="a_edge40_Node000025_Node000030"><a xlink:title=" ">
<path fill="none" stroke="#63b8ff" d="M549.66,-259.75C557.7,-259.75 565.89,-259.75 574,-259.75"/>
<polygon fill="#63b8ff" stroke="#63b8ff" points="573.87,-263.25 583.87,-259.75 573.87,-256.25 573.87,-263.25"/>
</a>
</g>
</g>
<!-- Node26&#45;&gt;Node5 -->
<g id="edge29_Node000026_Node000005" class="edge">
<title>Node26&#45;&gt;Node5</title>
<g id="a_edge29_Node000026_Node000005"><a xlink:title=" ">
<path fill="none" stroke="#63b8ff" d="M927.53,-443.61C953.2,-448.33 983.46,-453.88 1010.28,-458.81"/>
<polygon fill="#63b8ff" stroke="#63b8ff" points="1009.58,-462.24 1020.05,-460.6 1010.85,-455.35 1009.58,-462.24"/>
</a>
</g>
</g>
<!-- Node26&#45;&gt;Node11 -->
<g id="edge30_Node000026_Node000011" class="edge">
<title>Node26&#45;&gt;Node11</title>
<g id="a_edge30_Node000026_Node000011"><a xlink:title=" ">
<path fill="none" stroke="#63b8ff" d="M954.45,-432.75C964.84,-432.75 975.49,-432.75 985.99,-432.75"/>
<polygon fill="#63b8ff" stroke="#63b8ff" points="985.79,-436.25 995.79,-432.75 985.79,-429.25 985.79,-436.25"/>
</a>
</g>
</g>
<!-- Node26&#45;&gt;Node12 -->
<g id="edge31_Node000026_Node000012" class="edge">
<title>Node26&#45;&gt;Node12</title>
<g id="a_edge31_Node000026_Node000012"><a xlink:title=" ">
<path fill="none" stroke="#63b8ff" d="M780.17,-435.92C660.96,-439.19 452.53,-440.58 382.25,-413.75 347.19,-400.36 315.12,-370.85 294.98,-349.26"/>
<polygon fill="#63b8ff" stroke="#63b8ff" points="297.68,-347.03 288.37,-341.97 292.49,-351.73 297.68,-347.03"/>
</a>
</g>
</g>
<!-- Node27&#45;&gt;Node2 -->
<g id="edge33_Node000027_Node000002" class="edge">
<title>Node27&#45;&gt;Node2</title>
<g id="a_edge33_Node000027_Node000002"><a xlink:title=" ">
<path fill="none" stroke="#63b8ff" d="M693.64,-495.97C732.31,-519.43 801.06,-561.13 839.12,-584.22"/>
<polygon fill="#63b8ff" stroke="#63b8ff" points="836.89,-586.96 847.26,-589.15 840.52,-580.97 836.89,-586.96"/>
</a>
</g>
</g>
<!-- Node27&#45;&gt;Node9 -->
<g id="edge34_Node000027_Node000009" class="edge">
<title>Node27&#45;&gt;Node9</title>
<g id="a_edge34_Node000027_Node000009"><a xlink:title=" ">
<path fill="none" stroke="#63b8ff" d="M741.29,-485.93C749.72,-486.73 758.39,-487.55 767.06,-488.37"/>
<polygon fill="#63b8ff" stroke="#63b8ff" points="766.63,-491.84 776.91,-489.3 767.28,-484.87 766.63,-491.84"/>
</a>
</g>
</g>
<!-- Node27&#45;&gt;Node12 -->
<g id="edge35_Node000027_Node000012" class="edge">
<title>Node27&#45;&gt;Node12</title>
<g id="a_edge35_Node000027_Node000012"><a xlink:title=" ">
<path fill="none" stroke="#63b8ff" d="M623.01,-495.86C565.58,-517.42 458.63,-546.79 382.25,-503.75 324.21,-471.04 293.55,-393.6 280.71,-351.75"/>
<polygon fill="#63b8ff" stroke="#63b8ff" points="284.15,-351.02 277.98,-342.41 277.43,-352.99 284.15,-351.02"/>
</a>
</g>
</g>
</g>
</svg>
