<?xml version="1.0" encoding="UTF-8" standalone="no"?>
<!DOCTYPE svg PUBLIC "-//W3C//DTD SVG 1.1//EN"
 "http://www.w3.org/Graphics/SVG/1.1/DTD/svg11.dtd">
<!-- Generated by graphviz version 9.0.0 (0)
 -->
<!-- Title: UnorderedCache&lt; KeyType, ValType, Hasher &gt; Pages: 1 -->
<svg width="444pt" height="136pt"
 viewBox="0.00 0.00 444.25 136.12" xmlns="http://www.w3.org/2000/svg" xmlns:xlink="http://www.w3.org/1999/xlink">
<g id="graph0" class="graph" transform="scale(1 1) rotate(0) translate(4 132.12)">
<title>UnorderedCache&lt; KeyType, ValType, Hasher &gt;</title>
<!-- Node1 -->
<g id="Node000001" class="node">
<title>Node1</title>
<g id="a_Node000001"><a xlink:title=" ">
<polygon fill="#999999" stroke="#666666" points="436.25,-76.12 284.5,-76.12 284.5,-42.62 436.25,-42.62 436.25,-76.12"/>
<text text-anchor="start" x="292.5" y="-62.62" font-family="Helvetica,sans-Serif" font-size="10.00">UnorderedCache&lt; KeyType,</text>
<text text-anchor="middle" x="360.38" y="-49.88" font-family="Helvetica,sans-Serif" font-size="10.00"> ValType, Hasher &gt;</text>
</a>
</g>
</g>
<!-- Node2 -->
<g id="Node000002" class="node">
<title>Node2</title>
<g id="a_Node000002"><a xlink:title=" ">
<polygon fill="white" stroke="#666666" points="158.5,-128.12 23.25,-128.12 23.25,-94.62 158.5,-94.62 158.5,-128.12"/>
<text text-anchor="start" x="31.25" y="-114.62" font-family="Helvetica,sans-Serif" font-size="10.00">function&lt; ValType(const</text>
<text text-anchor="middle" x="90.88" y="-101.88" font-family="Helvetica,sans-Serif" font-size="10.00"> KeyType &amp;)&gt;</text>
</a>
</g>
</g>
<!-- Node2&#45;&gt;Node1 -->
<g id="edge1_Node000001_Node000002" class="edge">
<title>Node2&#45;&gt;Node1</title>
<g id="a_edge1_Node000001_Node000002"><a xlink:title=" ">
<path fill="none" stroke="#9a32cd" stroke-dasharray="5,2" d="M169.68,-96.25C205.84,-89.22 248.66,-80.9 284.46,-73.94"/>
<polygon fill="#9a32cd" stroke="#9a32cd" points="169.32,-92.75 160.17,-98.1 170.66,-99.63 169.32,-92.75"/>
</a>
</g>
<text text-anchor="middle" x="233.12" y="-92.62" font-family="Helvetica,sans-Serif" font-size="10.00" fill="grey"> m_calculator</text>
</g>
<!-- Node3 -->
<g id="Node000003" class="node">
<title>Node3</title>
<g id="a_Node000003"><a xlink:title=" ">
<polygon fill="white" stroke="#666666" points="181.75,-76.12 0,-76.12 0,-42.62 181.75,-42.62 181.75,-76.12"/>
<text text-anchor="start" x="8" y="-62.62" font-family="Helvetica,sans-Serif" font-size="10.00">unordered_map&lt; KeyType,</text>
<text text-anchor="middle" x="90.88" y="-49.88" font-family="Helvetica,sans-Serif" font-size="10.00"> ValType, std::hash&lt; KeyType &gt; &gt;</text>
</a>
</g>
</g>
<!-- Node3&#45;&gt;Node1 -->
<g id="edge2_Node000001_Node000003" class="edge">
<title>Node3&#45;&gt;Node1</title>
<g id="a_edge2_Node000001_Node000003"><a xlink:title=" ">
<path fill="none" stroke="#9a32cd" stroke-dasharray="5,2" d="M193.5,-59.38C223.65,-59.38 256.12,-59.38 284.27,-59.38"/>
<polygon fill="#9a32cd" stroke="#9a32cd" points="193.58,-55.88 183.58,-59.38 193.58,-62.88 193.58,-55.88"/>
</a>
</g>
<text text-anchor="middle" x="233.12" y="-62.62" font-family="Helvetica,sans-Serif" font-size="10.00" fill="grey"> m_map</text>
</g>
<!-- Node4 -->
<g id="Node000004" class="node">
<title>Node4</title>
<g id="a_Node000004"><a xlink:title=" ">
<polygon fill="white" stroke="#666666" points="113.12,-20.75 68.62,-20.75 68.62,0 113.12,0 113.12,-20.75"/>
<text text-anchor="middle" x="90.88" y="-7.25" font-family="Helvetica,sans-Serif" font-size="10.00">size_t</text>
</a>
</g>
</g>
<!-- Node4&#45;&gt;Node1 -->
<g id="edge3_Node000001_Node000004" class="edge">
<title>Node4&#45;&gt;Node1</title>
<g id="a_edge3_Node000001_Node000004"><a xlink:title=" ">
<path fill="none" stroke="#9a32cd" stroke-dasharray="5,2" d="M124.68,-12.11C160,-14.43 217.71,-19.51 266.5,-29.88 281.39,-33.04 297.29,-37.63 311.65,-42.24"/>
<polygon fill="#9a32cd" stroke="#9a32cd" points="125.31,-8.64 115.11,-11.52 124.88,-15.63 125.31,-8.64"/>
</a>
</g>
<text text-anchor="middle" x="233.12" y="-46.38" font-family="Helvetica,sans-Serif" font-size="10.00" fill="grey"> m_hitCount</text>
<text text-anchor="middle" x="233.12" y="-33.62" font-family="Helvetica,sans-Serif" font-size="10.00" fill="grey">m_missCount</text>
</g>
</g>
</svg>
