<?xml version="1.0" encoding="UTF-8" standalone="no"?>
<!DOCTYPE svg PUBLIC "-//W3C//DTD SVG 1.1//EN"
 "http://www.w3.org/Graphics/SVG/1.1/DTD/svg11.dtd">
<!-- Generated by graphviz version 7.1.0 (0)
 -->
<!-- Title: RefreshInfoGenerator::getRefreshInfoForUpdatedFiles Pages: 1 -->
<svg width="862pt" height="114pt"
 viewBox="0.00 0.00 862.00 113.50" xmlns="http://www.w3.org/2000/svg" xmlns:xlink="http://www.w3.org/1999/xlink">
<g id="graph0" class="graph" transform="scale(1 1) rotate(0) translate(4 109.5)">
<title>RefreshInfoGenerator::getRefreshInfoForUpdatedFiles</title>
<!-- Node1 -->
<g id="node1" class="node">
<title>Node1</title>
<g id="a_node1"><a xlink:title=" ">
<polygon fill="#999999" stroke="#666666" points="854,-73 681,-73 681,-43 854,-43 854,-73"/>
<text text-anchor="start" x="689" y="-61" font-family="Helvetica,sans-Serif" font-size="10.00">RefreshInfoGenerator</text>
<text text-anchor="middle" x="767.5" y="-50" font-family="Helvetica,sans-Serif" font-size="10.00">::getRefreshInfoForUpdatedFiles</text>
</a>
</g>
</g>
<!-- Node2 -->
<g id="node2" class="node">
<title>Node2</title>
<g id="a_node2"><a xlink:href="classProject.html#ab62800ebf8dad2403740a10fe22418d4" target="_top" xlink:title=" ">
<polygon fill="white" stroke="#666666" points="445,-67.5 317,-67.5 317,-48.5 445,-48.5 445,-67.5"/>
<text text-anchor="middle" x="381" y="-55.5" font-family="Helvetica,sans-Serif" font-size="10.00">Project::getRefreshInfo</text>
</a>
</g>
</g>
<!-- Node1&#45;&gt;Node2 -->
<g id="edge1" class="edge">
<title>Node1&#45;&gt;Node2</title>
<path fill="none" stroke="#63b8ff" d="M669.05,-62.36C660.92,-62.62 652.82,-62.84 645,-63 572.13,-64.5 553.87,-64.84 481,-63 469.47,-62.71 457.2,-62.23 445.36,-61.68"/>
<polygon fill="#63b8ff" stroke="#63b8ff" points="669.17,-65.86 679.04,-62.03 668.93,-58.87 669.17,-65.86"/>
</g>
<!-- Node6 -->
<g id="node6" class="node">
<title>Node6</title>
<g id="a_node6"><a xlink:href="classRefreshInfoGenerator.html#aca79a9ac3474ef5865e61b3d0ee2bcb4" target="_top" xlink:title=" ">
<polygon fill="white" stroke="#666666" points="645,-54.5 481,-54.5 481,-13.5 645,-13.5 645,-54.5"/>
<text text-anchor="start" x="489" y="-42.5" font-family="Helvetica,sans-Serif" font-size="10.00">RefreshInfoGenerator</text>
<text text-anchor="start" x="489" y="-31.5" font-family="Helvetica,sans-Serif" font-size="10.00">::getRefreshInfoForIncomplete</text>
<text text-anchor="middle" x="563" y="-20.5" font-family="Helvetica,sans-Serif" font-size="10.00">Files</text>
</a>
</g>
</g>
<!-- Node1&#45;&gt;Node6 -->
<g id="edge6" class="edge">
<title>Node1&#45;&gt;Node6</title>
<path fill="none" stroke="#63b8ff" d="M669.37,-46.49C661.38,-45.54 653.36,-44.59 645.5,-43.66"/>
<polygon fill="#63b8ff" stroke="#63b8ff" points="668.78,-49.94 679.12,-47.64 669.6,-42.99 668.78,-49.94"/>
</g>
<!-- Node3 -->
<g id="node3" class="node">
<title>Node3</title>
<g id="a_node3"><a xlink:href="classProject.html#a0a4460901ddd0fb1482007715ec97669" target="_top" xlink:title=" ">
<polygon fill="white" stroke="#666666" points="257.5,-105.5 150.5,-105.5 150.5,-86.5 257.5,-86.5 257.5,-105.5"/>
<text text-anchor="middle" x="204" y="-93.5" font-family="Helvetica,sans-Serif" font-size="10.00">Project::buildIndex</text>
</a>
</g>
</g>
<!-- Node2&#45;&gt;Node3 -->
<g id="edge2" class="edge">
<title>Node2&#45;&gt;Node3</title>
<path fill="none" stroke="#63b8ff" d="M322.88,-70.4C299.58,-75.46 272.99,-81.24 250.98,-86.02"/>
<polygon fill="#63b8ff" stroke="#63b8ff" points="323.51,-73.85 332.54,-68.31 322.03,-67.01 323.51,-73.85"/>
</g>
<!-- Node4 -->
<g id="node4" class="node">
<title>Node4</title>
<g id="a_node4"><a xlink:href="classProject.html#afba51cb85b0c6e4ee2556f0ce0b7bfce" target="_top" xlink:title=" ">
<polygon fill="white" stroke="#666666" points="91,-86.5 0,-86.5 0,-67.5 91,-67.5 91,-86.5"/>
<text text-anchor="middle" x="45.5" y="-74.5" font-family="Helvetica,sans-Serif" font-size="10.00">Project::refresh</text>
</a>
</g>
</g>
<!-- Node2&#45;&gt;Node4 -->
<g id="edge4" class="edge">
<title>Node2&#45;&gt;Node4</title>
<path fill="none" stroke="#63b8ff" d="M305.76,-62.23C239.98,-65.98 146.11,-71.32 91.22,-74.45"/>
<polygon fill="#63b8ff" stroke="#63b8ff" points="305.58,-65.75 315.37,-61.68 305.19,-58.76 305.58,-65.75"/>
</g>
<!-- Node5 -->
<g id="node5" class="node">
<title>Node5</title>
<g id="a_node5"><a xlink:href="classQtDialogView.html#a623b62f81046c7ced94fb2a0fff8a77e" target="_top" xlink:title=" ">
<polygon fill="white" stroke="#666666" points="281,-30 127,-30 127,0 281,0 281,-30"/>
<text text-anchor="start" x="135" y="-18" font-family="Helvetica,sans-Serif" font-size="10.00">QtDialogView::startIndexing</text>
<text text-anchor="middle" x="204" y="-7" font-family="Helvetica,sans-Serif" font-size="10.00">Dialog</text>
</a>
</g>
</g>
<!-- Node2&#45;&gt;Node5 -->
<g id="edge5" class="edge">
<title>Node2&#45;&gt;Node5</title>
<path fill="none" stroke="#63b8ff" d="M328.32,-45.3C309.41,-40.65 287.79,-35.34 267.99,-30.48"/>
<polygon fill="#63b8ff" stroke="#63b8ff" points="327.4,-48.68 337.94,-47.67 329.07,-41.88 327.4,-48.68"/>
</g>
<!-- Node3&#45;&gt;Node4 -->
<g id="edge3" class="edge">
<title>Node3&#45;&gt;Node4</title>
<path fill="none" stroke="#63b8ff" d="M138.63,-88.18C122.74,-86.26 106.07,-84.23 91.34,-82.44"/>
<polygon fill="#63b8ff" stroke="#63b8ff" points="138.16,-91.65 148.51,-89.39 139.01,-84.71 138.16,-91.65"/>
</g>
<!-- Node6&#45;&gt;Node2 -->
<g id="edge7" class="edge">
<title>Node6&#45;&gt;Node2</title>
<path fill="none" stroke="#63b8ff" d="M469.28,-46.36C461.21,-47.44 453.17,-48.51 445.41,-49.54"/>
<polygon fill="#63b8ff" stroke="#63b8ff" points="469.74,-49.83 479.19,-45.04 468.81,-42.89 469.74,-49.83"/>
</g>
</g>
</svg>
