<?xml version="1.0" encoding="UTF-8" standalone="no"?>
<!DOCTYPE svg PUBLIC "-//W3C//DTD SVG 1.1//EN"
 "http://www.w3.org/Graphics/SVG/1.1/DTD/svg11.dtd">
<!-- Generated by graphviz version 9.0.0 (0)
 -->
<!-- Title: CxxAstVisitorComponentBraceRecorder::visitTagDecl Pages: 1 -->
<!--zoomable 259 -->

<svg id="main" version="1.1" xmlns="http://www.w3.org/2000/svg" xmlns:xlink="http://www.w3.org/1999/xlink" xml:space="preserve" onload="init(evt)">
<style type="text/css"><![CDATA[
.node, .edge {opacity: 0.7;}
.node.selected, .edge.selected {opacity: 1;}
.edge:hover path { stroke: red; }
.edge:hover polygon { stroke: red; fill: red; }
]]></style>

<defs>
  <circle id="rim" cx="0" cy="0" r="7"/>
  <circle id="rim2" cx="0" cy="0" r="3.5"/>
  <g id="zoomPlus">
    <use xlink:href="#rim" fill="#404040"><set attributeName="fill" to="#808080" begin="zoomplus.mouseover" end="zoomplus.mouseout"/></use>
    <path d="M-4,0h8M0,-4v8" fill="none" stroke="white" stroke-width="1.5" pointer-events="none"/>
  </g>
  <g id="zoomMin">
    <use xlink:href="#rim" fill="#404040"><set attributeName="fill" to="#808080" begin="zoomminus.mouseover" end="zoomminus.mouseout"/></use>
    <path d="M-4,0h8" fill="none" stroke="white" stroke-width="1.5" pointer-events="none"/>
  </g>
  <g id="arrowUp" transform="translate(30 24)">
    <use xlink:href="#rim"/>
    <path pointer-events="none" fill="none" stroke="white" stroke-width="1.5" d="M0,-3.0v7 M-2.5,-0.5L0,-3.0L2.5,-0.5"/>
  </g>
  <g id="arrowRight" transform="rotate(90) translate(36 -43)">
    <use xlink:href="#rim"/>
    <path pointer-events="none" fill="none" stroke="white" stroke-width="1.5" d="M0,-3.0v7 M-2.5,-0.5L0,-3.0L2.5,-0.5"/>
  </g>
  <g id="arrowDown" transform="rotate(180) translate(-30 -48)">
    <use xlink:href="#rim"/>
    <path pointer-events="none" fill="none" stroke="white" stroke-width="1.5" d="M0,-3.0v7 M-2.5,-0.5L0,-3.0L2.5,-0.5"/>
  </g>
  <g id="arrowLeft" transform="rotate(270) translate(-36 17)">
    <use xlink:href="#rim"/>
    <path pointer-events="none" fill="none" stroke="white" stroke-width="1.5" d="M0,-3.0v7 M-2.5,-0.5L0,-3.0L2.5,-0.5"/>
  </g>
  <g id="resetDef">
    <use xlink:href="#rim2" fill="#404040"><set attributeName="fill" to="#808080" begin="reset.mouseover" end="reset.mouseout"/></use>
  </g>
</defs>
<script type="application/ecmascript">
var viewWidth = 754;
var viewHeight = 259;
var sectionId = 'dynsection-15';
</script>
<script type="application/ecmascript" xlink:href="svg.min.js"/>
<svg id="graph" class="graph">
<g id="viewport">
<title>CxxAstVisitorComponentBraceRecorder::visitTagDecl</title>
<!-- Node1 -->
<g id="Node000001" class="node">
<title>Node1</title>
<g id="a_Node000001"><a xlink:title=" ">
<polygon fill="#999999" stroke="#666666" points="166,-107.5 0,-107.5 0,-74 166,-74 166,-107.5"/>
<text text-anchor="start" x="8" y="-94" font-family="Helvetica,sans-Serif" font-size="10.00">CxxAstVisitorComponentBrace</text>
<text text-anchor="middle" x="83" y="-81.25" font-family="Helvetica,sans-Serif" font-size="10.00">Recorder::visitTagDecl</text>
</a>
</g>
</g>
<!-- Node2 -->
<g id="Node000002" class="node">
<title>Node2</title>
<g id="a_Node000002"><a xlink:href="classCxxAstVisitorComponent.html#a01a0f3c1ee389fb01613d6a599ce0e8d" target="_top" xlink:title=" ">
<polygon fill="white" stroke="#666666" points="559.12,-128.5 420.88,-128.5 420.88,-95 559.12,-95 559.12,-128.5"/>
<text text-anchor="start" x="428.88" y="-115" font-family="Helvetica,sans-Serif" font-size="10.00">CxxAstVisitorComponent</text>
<text text-anchor="middle" x="490" y="-102.25" font-family="Helvetica,sans-Serif" font-size="10.00">::getAstVisitor</text>
</a>
</g>
</g>
<!-- Node1&#45;&gt;Node2 -->
<g id="edge1_Node000001_Node000002" class="edge">
<title>Node1&#45;&gt;Node2</title>
<g id="a_edge1_Node000001_Node000002"><a xlink:title=" ">
<path fill="none" stroke="#63b8ff" d="M166.45,-95.02C237.32,-98.7 338.9,-103.97 409.04,-107.6"/>
<polygon fill="#63b8ff" stroke="#63b8ff" points="408.78,-111.09 418.94,-108.12 409.14,-104.1 408.78,-111.09"/>
</a>
</g>
</g>
<!-- Node3 -->
<g id="Node000003" class="node">
<title>Node3</title>
<g id="a_Node000003"><a xlink:href="classCxxAstVisitorComponentBraceRecorder.html#ac5e70de6f936850dff4540662c4680dc" target="_top" xlink:title=" ">
<polygon fill="white" stroke="#666666" points="368,-178.5 202,-178.5 202,-145 368,-145 368,-178.5"/>
<text text-anchor="start" x="210" y="-165" font-family="Helvetica,sans-Serif" font-size="10.00">CxxAstVisitorComponentBrace</text>
<text text-anchor="middle" x="285" y="-152.25" font-family="Helvetica,sans-Serif" font-size="10.00">Recorder::getFilePath</text>
</a>
</g>
</g>
<!-- Node1&#45;&gt;Node3 -->
<g id="edge2_Node000001_Node000003" class="edge">
<title>Node1&#45;&gt;Node3</title>
<g id="a_edge2_Node000001_Node000003"><a xlink:title=" ">
<path fill="none" stroke="#63b8ff" d="M132.41,-107.94C160.32,-117.84 195.6,-130.37 225.1,-140.84"/>
<polygon fill="#63b8ff" stroke="#63b8ff" points="223.66,-144.04 234.26,-144.09 226.01,-137.45 223.66,-144.04"/>
</a>
</g>
</g>
<!-- Node6 -->
<g id="Node000006" class="node">
<title>Node6</title>
<g id="a_Node000006"><a xlink:href="classCxxAstVisitorComponentBraceRecorder.html#a05c3af7de0c5f9f389b35e0a5c308709" target="_top" xlink:title=" ">
<polygon fill="white" stroke="#666666" points="368,-85.5 202,-85.5 202,-52 368,-52 368,-85.5"/>
<text text-anchor="start" x="210" y="-72" font-family="Helvetica,sans-Serif" font-size="10.00">CxxAstVisitorComponentBrace</text>
<text text-anchor="middle" x="285" y="-59.25" font-family="Helvetica,sans-Serif" font-size="10.00">Recorder::getParseLocation</text>
</a>
</g>
</g>
<!-- Node1&#45;&gt;Node6 -->
<g id="edge7_Node000001_Node000006" class="edge">
<title>Node1&#45;&gt;Node6</title>
<g id="a_edge7_Node000001_Node000006"><a xlink:title=" ">
<path fill="none" stroke="#63b8ff" d="M166.21,-81.71C174.2,-80.83 182.33,-79.93 190.42,-79.04"/>
<polygon fill="#63b8ff" stroke="#63b8ff" points="190.72,-82.53 200.28,-77.96 189.96,-75.57 190.72,-82.53"/>
</a>
</g>
</g>
<!-- Node9 -->
<g id="Node000009" class="node">
<title>Node9</title>
<g id="a_Node000009"><a xlink:href="classCxxAstVisitorComponentBraceRecorder.html#a5d88d0451e45e2c492c1a054fbc3a522" target="_top" xlink:title=" ">
<polygon fill="white" stroke="#666666" points="368,-33.5 202,-33.5 202,0 368,0 368,-33.5"/>
<text text-anchor="start" x="210" y="-20" font-family="Helvetica,sans-Serif" font-size="10.00">CxxAstVisitorComponentBrace</text>
<text text-anchor="middle" x="285" y="-7.25" font-family="Helvetica,sans-Serif" font-size="10.00">Recorder::recordBraces</text>
</a>
</g>
</g>
<!-- Node1&#45;&gt;Node9 -->
<g id="edge11_Node000001_Node000009" class="edge">
<title>Node1&#45;&gt;Node9</title>
<g id="a_edge11_Node000001_Node000009"><a xlink:title=" ">
<path fill="none" stroke="#63b8ff" d="M124.11,-73.51C146.8,-63.99 175.79,-52.22 202,-42.75 206.92,-40.97 212.03,-39.19 217.18,-37.45"/>
<polygon fill="#63b8ff" stroke="#63b8ff" points="217.96,-40.88 226.35,-34.4 215.75,-34.24 217.96,-40.88"/>
</a>
</g>
</g>
<!-- Node3&#45;&gt;Node2 -->
<g id="edge3_Node000003_Node000002" class="edge">
<title>Node3&#45;&gt;Node2</title>
<g id="a_edge3_Node000003_Node000002"><a xlink:title=" ">
<path fill="none" stroke="#63b8ff" d="M355.86,-144.54C373.07,-140.31 391.62,-135.74 409.25,-131.39"/>
<polygon fill="#63b8ff" stroke="#63b8ff" points="410.04,-134.8 418.91,-129.01 408.37,-128.01 410.04,-134.8"/>
</a>
</g>
</g>
<!-- Node4 -->
<g id="Node000004" class="node">
<title>Node4</title>
<g id="a_Node000004"><a xlink:href="classCanonicalFilePathCache.html#aa4d936bcf0a9749e3166913a8aa6b4e4" target="_top" xlink:title=" ">
<polygon fill="white" stroke="#666666" points="556.12,-232.5 423.88,-232.5 423.88,-199 556.12,-199 556.12,-232.5"/>
<text text-anchor="start" x="431.88" y="-219" font-family="Helvetica,sans-Serif" font-size="10.00">CanonicalFilePathCache</text>
<text text-anchor="middle" x="490" y="-206.25" font-family="Helvetica,sans-Serif" font-size="10.00">::getCanonicalFilePath</text>
</a>
</g>
</g>
<!-- Node3&#45;&gt;Node4 -->
<g id="edge4_Node000003_Node000004" class="edge">
<title>Node3&#45;&gt;Node4</title>
<g id="a_edge4_Node000003_Node000004"><a xlink:title=" ">
<path fill="none" stroke="#63b8ff" d="M350.79,-178.98C370.76,-184.3 392.91,-190.19 413.53,-195.67"/>
<polygon fill="#63b8ff" stroke="#63b8ff" points="412.45,-199.01 423.02,-198.2 414.25,-192.24 412.45,-199.01"/>
</a>
</g>
</g>
<!-- Node5 -->
<g id="Node000005" class="node">
<title>Node5</title>
<g id="a_Node000005"><a xlink:href="classCxxAstVisitor.html#ac9b2486a17f212dee5b9bc9d63fb48dd" target="_top" xlink:title=" ">
<polygon fill="white" stroke="#666666" points="565.88,-180.5 414.12,-180.5 414.12,-147 565.88,-147 565.88,-180.5"/>
<text text-anchor="start" x="422.12" y="-167" font-family="Helvetica,sans-Serif" font-size="10.00">CxxAstVisitor::getCanonical</text>
<text text-anchor="middle" x="490" y="-154.25" font-family="Helvetica,sans-Serif" font-size="10.00">FilePathCache</text>
</a>
</g>
</g>
<!-- Node3&#45;&gt;Node5 -->
<g id="edge6_Node000003_Node000005" class="edge">
<title>Node3&#45;&gt;Node5</title>
<g id="a_edge6_Node000003_Node000005"><a xlink:title=" ">
<path fill="none" stroke="#63b8ff" d="M368.28,-162.56C379.57,-162.67 391.19,-162.79 402.55,-162.9"/>
<polygon fill="#63b8ff" stroke="#63b8ff" points="402.26,-166.4 412.3,-162.99 402.33,-159.4 402.26,-166.4"/>
</a>
</g>
</g>
<!-- Node4&#45;&gt;Node4 -->
<g id="edge5_Node000004_Node000004" class="edge">
<title>Node4&#45;&gt;Node4</title>
<g id="a_edge5_Node000004_Node000004"><a xlink:title=" ">
<path fill="none" stroke="#63b8ff" d="M456.05,-232.91C450.28,-242.12 461.59,-250.5 490,-250.5 505.98,-250.5 516.55,-247.85 521.71,-243.89"/>
<polygon fill="#63b8ff" stroke="#63b8ff" points="525.08,-244.9 523.65,-234.4 518.22,-243.5 525.08,-244.9"/>
</a>
</g>
</g>
<!-- Node6&#45;&gt;Node2 -->
<g id="edge8_Node000006_Node000002" class="edge">
<title>Node6&#45;&gt;Node2</title>
<g id="a_edge8_Node000006_Node000002"><a xlink:title=" ">
<path fill="none" stroke="#63b8ff" d="M367.4,-85.99C381.32,-88.94 395.78,-92 409.65,-94.94"/>
<polygon fill="#63b8ff" stroke="#63b8ff" points="408.64,-98.31 419.15,-96.95 410.09,-91.46 408.64,-98.31"/>
</a>
</g>
</g>
<!-- Node7 -->
<g id="Node000007" class="node">
<title>Node7</title>
<g id="a_Node000007"><a xlink:href="classCxxAstVisitor.html#a0b2bd14f2207050f12f7e880e376bdcc" target="_top" xlink:title=" ">
<polygon fill="white" stroke="#666666" points="576,-77.12 404,-77.12 404,-56.38 576,-56.38 576,-77.12"/>
<text text-anchor="middle" x="490" y="-63.62" font-family="Helvetica,sans-Serif" font-size="10.00">CxxAstVisitor::getParseLocation</text>
</a>
</g>
</g>
<!-- Node6&#45;&gt;Node7 -->
<g id="edge9_Node000006_Node000007" class="edge">
<title>Node6&#45;&gt;Node7</title>
<g id="a_edge9_Node000006_Node000007"><a xlink:title=" ">
<path fill="none" stroke="#63b8ff" d="M368.28,-67.94C376.19,-67.86 384.27,-67.78 392.31,-67.7"/>
<polygon fill="#63b8ff" stroke="#63b8ff" points="392.15,-71.2 402.12,-67.61 392.08,-64.2 392.15,-71.2"/>
</a>
</g>
</g>
<!-- Node8 -->
<g id="Node000008" class="node">
<title>Node8</title>
<g id="a_Node000008"><a xlink:href="namespaceutility.html#a5e702b01fc7fb4c89b7f180ea0f3702c" target="_top" xlink:title=" ">
<polygon fill="white" stroke="#666666" points="745.75,-77.12 612,-77.12 612,-56.38 745.75,-56.38 745.75,-77.12"/>
<text text-anchor="middle" x="678.88" y="-63.62" font-family="Helvetica,sans-Serif" font-size="10.00">utility::getParseLocation</text>
</a>
</g>
</g>
<!-- Node7&#45;&gt;Node8 -->
<g id="edge10_Node000007_Node000008" class="edge">
<title>Node7&#45;&gt;Node8</title>
<g id="a_edge10_Node000007_Node000008"><a xlink:title=" ">
<path fill="none" stroke="#63b8ff" d="M576.23,-66.75C584.19,-66.75 592.22,-66.75 600.11,-66.75"/>
<polygon fill="#63b8ff" stroke="#63b8ff" points="600,-70.25 610,-66.75 600,-63.25 600,-70.25"/>
</a>
</g>
</g>
<!-- Node10 -->
<g id="Node000010" class="node">
<title>Node10</title>
<g id="a_Node000010"><a xlink:href="classFilePath.html#a353c6c2dc5333ffc3f328f1daac2ea97" target="_top" xlink:title=" ">
<polygon fill="white" stroke="#666666" points="542.62,-27.12 437.38,-27.12 437.38,-6.38 542.62,-6.38 542.62,-27.12"/>
<text text-anchor="middle" x="490" y="-13.62" font-family="Helvetica,sans-Serif" font-size="10.00">FilePath::fileName</text>
</a>
</g>
</g>
<!-- Node9&#45;&gt;Node10 -->
<g id="edge12_Node000009_Node000010" class="edge">
<title>Node9&#45;&gt;Node10</title>
<g id="a_edge12_Node000009_Node000010"><a xlink:title=" ">
<path fill="none" stroke="#63b8ff" d="M368.28,-16.75C387.39,-16.75 407.45,-16.75 425.6,-16.75"/>
<polygon fill="#63b8ff" stroke="#63b8ff" points="425.42,-20.25 435.42,-16.75 425.42,-13.25 425.42,-20.25"/>
</a>
</g>
</g>
</g>
</svg>

<g id="navigator" transform="translate(0 0)" fill="#404254">
  <rect fill="#f2f5e9" fill-opacity="0.5" stroke="#606060" stroke-width=".5" x="0" y="0" width="60" height="60"/>
  <use id="zoomplus" xlink:href="#zoomPlus" x="17" y="9" onmousedown="handleZoom(evt,'in')"/>
  <use id="zoomminus" xlink:href="#zoomMin" x="42" y="9" onmousedown="handleZoom(evt,'out')"/>
  <use id="reset" xlink:href="#resetDef" x="30" y="36" onmousedown="handleReset()"/>
   <use id="arrowup" xlink:href="#arrowUp" x="0" y="0" onmousedown="handlePan(0,-1)"/>
  <use id="arrowright" xlink:href="#arrowRight" x="0" y="0" onmousedown="handlePan(1,0)"/>
  <use id="arrowdown" xlink:href="#arrowDown" x="0" y="0" onmousedown="handlePan(0,1)"/>
  <use id="arrowleft" xlink:href="#arrowLeft" x="0" y="0" onmousedown="handlePan(-1,0)"/>
</g>
<svg viewBox="0 0 15 15" width="100%" height="30px" preserveAspectRatio="xMaxYMin meet">
 <g id="arrow_out" transform="scale(0.3 0.3)">
  <a xlink:href="classCxxAstVisitorComponentBraceRecorder_a66d7e0d14c06af12972ffcfc3a6d1158_cgraph_org.svg" target="_base">
   <rect id="button" ry="5" rx="5" y="6" x="6" height="38" width="38"
        fill="#f2f5e9" fill-opacity="0.5" stroke="#606060" stroke-width="1.0"/>
   <path id="arrow"
     d="M 11.500037,31.436501 C 11.940474,20.09759 22.043105,11.32322 32.158766,21.979434 L 37.068811,17.246167 C 37.068811,17.246167 37.088388,32 37.088388,32 L 22.160133,31.978069 C 22.160133,31.978069 26.997745,27.140456 26.997745,27.140456 C 18.528582,18.264221 13.291696,25.230495 11.500037,31.436501 z"
     style="fill:#404040;"/>
  </a>
 </g>
</svg>

<style type='text/css'>
<![CDATA[
[data-mouse-over-selected='false'] { opacity: 0.7; }
[data-mouse-over-selected='true']  { opacity: 1.0; }
]]>
</style>
<script type="application/ecmascript"><![CDATA[
document.addEventListener('DOMContentLoaded', (event) => {
  highlightEdges();
  highlightAdjacentNodes();
});
]]></script>
</svg>
