<?xml version="1.0" encoding="UTF-8" standalone="no"?>
<!DOCTYPE svg PUBLIC "-//W3C//DTD SVG 1.1//EN"
 "http://www.w3.org/Graphics/SVG/1.1/DTD/svg11.dtd">
<!-- Generated by graphviz version 7.1.0 (0)
 -->
<!-- Title: CustomTrailController::handleMessage Pages: 1 -->
<svg width="492pt" height="220pt"
 viewBox="0.00 0.00 492.00 219.50" xmlns="http://www.w3.org/2000/svg" xmlns:xlink="http://www.w3.org/1999/xlink">
<g id="graph0" class="graph" transform="scale(1 1) rotate(0) translate(4 215.5)">
<title>CustomTrailController::handleMessage</title>
<!-- Node1 -->
<g id="node1" class="node">
<title>Node1</title>
<g id="a_node1"><a xlink:title=" ">
<polygon fill="#999999" stroke="#666666" points="123,-126 0,-126 0,-96 123,-96 123,-126"/>
<text text-anchor="start" x="8" y="-114" font-family="Helvetica,sans-Serif" font-size="10.00">CustomTrailController</text>
<text text-anchor="middle" x="61.5" y="-103" font-family="Helvetica,sans-Serif" font-size="10.00">::handleMessage</text>
</a>
</g>
</g>
<!-- Node2 -->
<g id="node2" class="node">
<title>Node2</title>
<g id="a_node2"><a xlink:href="classCustomTrailController.html#ad8a78df010a8f51a7076bb78fd83dcc1" target="_top" xlink:title=" ">
<polygon fill="white" stroke="#666666" points="282,-126 159,-126 159,-96 282,-96 282,-126"/>
<text text-anchor="start" x="167" y="-114" font-family="Helvetica,sans-Serif" font-size="10.00">CustomTrailController</text>
<text text-anchor="middle" x="220.5" y="-103" font-family="Helvetica,sans-Serif" font-size="10.00">::clear</text>
</a>
</g>
</g>
<!-- Node1&#45;&gt;Node2 -->
<g id="edge1" class="edge">
<title>Node1&#45;&gt;Node2</title>
<path fill="none" stroke="#63b8ff" d="M123.2,-111C131.12,-111 139.29,-111 147.37,-111"/>
<polygon fill="#63b8ff" stroke="#63b8ff" points="147.19,-114.5 157.19,-111 147.19,-107.5 147.19,-114.5"/>
</g>
<!-- Node3 -->
<g id="node3" class="node">
<title>Node3</title>
<g id="a_node3"><a xlink:href="classCustomTrailView.html#aa71727efe4e9fee793a21a3e1c262c85" target="_top" xlink:title=" ">
<polygon fill="white" stroke="#666666" points="477.5,-211.5 324.5,-211.5 324.5,-192.5 477.5,-192.5 477.5,-211.5"/>
<text text-anchor="middle" x="401" y="-199.5" font-family="Helvetica,sans-Serif" font-size="10.00">CustomTrailView::clearView</text>
</a>
</g>
</g>
<!-- Node2&#45;&gt;Node3 -->
<g id="edge2" class="edge">
<title>Node2&#45;&gt;Node3</title>
<path fill="none" stroke="#63b8ff" d="M237.55,-126.32C255.67,-142.77 286.71,-168.49 318,-183 322.52,-185.1 327.29,-186.97 332.17,-188.65"/>
<polygon fill="#63b8ff" stroke="#63b8ff" points="330.92,-191.93 341.51,-191.56 333,-185.24 330.92,-191.93"/>
</g>
<!-- Node4 -->
<g id="node4" class="node">
<title>Node4</title>
<g id="a_node4"><a xlink:href="classStorageAccess.html#a6c59548e0445d53fb9e3ef9fafd884b5" target="_top" xlink:title=" ">
<polygon fill="white" stroke="#666666" points="478.5,-174 323.5,-174 323.5,-144 478.5,-144 478.5,-174"/>
<text text-anchor="start" x="331.5" y="-162" font-family="Helvetica,sans-Serif" font-size="10.00">StorageAccess::getAvailable</text>
<text text-anchor="middle" x="401" y="-151" font-family="Helvetica,sans-Serif" font-size="10.00">EdgeTypes</text>
</a>
</g>
</g>
<!-- Node2&#45;&gt;Node4 -->
<g id="edge3" class="edge">
<title>Node2&#45;&gt;Node4</title>
<path fill="none" stroke="#63b8ff" d="M278.96,-126.45C295.84,-130.99 314.47,-136 331.94,-140.7"/>
<polygon fill="#63b8ff" stroke="#63b8ff" points="330.62,-143.97 341.18,-143.18 332.44,-137.21 330.62,-143.97"/>
</g>
<!-- Node5 -->
<g id="node5" class="node">
<title>Node5</title>
<g id="a_node5"><a xlink:href="classStorageAccess.html#a60dffbf56a821f504b03571828e7153a" target="_top" xlink:title=" ">
<polygon fill="white" stroke="#666666" points="478.5,-126 323.5,-126 323.5,-96 478.5,-96 478.5,-126"/>
<text text-anchor="start" x="331.5" y="-114" font-family="Helvetica,sans-Serif" font-size="10.00">StorageAccess::getAvailable</text>
<text text-anchor="middle" x="401" y="-103" font-family="Helvetica,sans-Serif" font-size="10.00">NodeTypes</text>
</a>
</g>
</g>
<!-- Node2&#45;&gt;Node5 -->
<g id="edge4" class="edge">
<title>Node2&#45;&gt;Node5</title>
<path fill="none" stroke="#63b8ff" d="M282.43,-111C291.97,-111 301.99,-111 311.99,-111"/>
<polygon fill="#63b8ff" stroke="#63b8ff" points="311.73,-114.5 321.73,-111 311.73,-107.5 311.73,-114.5"/>
</g>
<!-- Node6 -->
<g id="node6" class="node">
<title>Node6</title>
<g id="a_node6"><a xlink:href="classCustomTrailController.html#af5edbd9942a729d1320c3c97c2501c9e" target="_top" xlink:title=" ">
<polygon fill="white" stroke="#666666" points="462.5,-78 339.5,-78 339.5,-48 462.5,-48 462.5,-78"/>
<text text-anchor="start" x="347.5" y="-66" font-family="Helvetica,sans-Serif" font-size="10.00">CustomTrailController</text>
<text text-anchor="middle" x="401" y="-55" font-family="Helvetica,sans-Serif" font-size="10.00">::getView</text>
</a>
</g>
</g>
<!-- Node2&#45;&gt;Node6 -->
<g id="edge5" class="edge">
<title>Node2&#45;&gt;Node6</title>
<path fill="none" stroke="#63b8ff" d="M278.96,-95.55C295.84,-91.01 314.47,-86 331.94,-81.3"/>
<polygon fill="#63b8ff" stroke="#63b8ff" points="332.44,-84.79 341.18,-78.82 330.62,-78.03 332.44,-84.79"/>
</g>
<!-- Node7 -->
<g id="node7" class="node">
<title>Node7</title>
<g id="a_node7"><a xlink:href="classCustomTrailView.html#a6d467d7b8d5a2a332fe333081d6f7230" target="_top" xlink:title=" ">
<polygon fill="white" stroke="#666666" points="484,-30 318,-30 318,0 484,0 484,-30"/>
<text text-anchor="start" x="326" y="-18" font-family="Helvetica,sans-Serif" font-size="10.00">CustomTrailView::setAvailable</text>
<text text-anchor="middle" x="401" y="-7" font-family="Helvetica,sans-Serif" font-size="10.00">NodeAndEdgeTypes</text>
</a>
</g>
</g>
<!-- Node2&#45;&gt;Node7 -->
<g id="edge6" class="edge">
<title>Node2&#45;&gt;Node7</title>
<path fill="none" stroke="#63b8ff" d="M238.05,-95.72C256.35,-79.55 287.33,-54.31 318,-39 321.09,-37.46 324.29,-36 327.56,-34.62"/>
<polygon fill="#63b8ff" stroke="#63b8ff" points="328.72,-37.93 336.77,-31.04 326.19,-31.4 328.72,-37.93"/>
</g>
</g>
</svg>
