<?xml version="1.0" encoding="UTF-8" standalone="no"?>
<!DOCTYPE svg PUBLIC "-//W3C//DTD SVG 1.1//EN"
 "http://www.w3.org/Graphics/SVG/1.1/DTD/svg11.dtd">
<!-- Generated by graphviz version 7.1.0 (0)
 -->
<!-- Title: StorageAccessProxy::setSubject Pages: 1 -->
<svg width="586pt" height="79pt"
 viewBox="0.00 0.00 586.00 78.90" xmlns="http://www.w3.org/2000/svg" xmlns:xlink="http://www.w3.org/1999/xlink">
<g id="graph0" class="graph" transform="scale(1 1) rotate(0) translate(4 74.9)">
<title>StorageAccessProxy::setSubject</title>
<!-- Node1 -->
<g id="node1" class="node">
<title>Node1</title>
<g id="a_node1"><a xlink:title=" ">
<polygon fill="#999999" stroke="#666666" points="578,-61.5 462,-61.5 462,-31.5 578,-31.5 578,-61.5"/>
<text text-anchor="start" x="470" y="-49.5" font-family="Helvetica,sans-Serif" font-size="10.00">StorageAccessProxy</text>
<text text-anchor="middle" x="520" y="-38.5" font-family="Helvetica,sans-Serif" font-size="10.00">::setSubject</text>
</a>
</g>
</g>
<!-- Node2 -->
<g id="node2" class="node">
<title>Node2</title>
<g id="a_node2"><a xlink:href="classProject.html#a0a4460901ddd0fb1482007715ec97669" target="_top" xlink:title=" ">
<polygon fill="white" stroke="#666666" points="234,-56 127,-56 127,-37 234,-37 234,-56"/>
<text text-anchor="middle" x="180.5" y="-44" font-family="Helvetica,sans-Serif" font-size="10.00">Project::buildIndex</text>
</a>
</g>
</g>
<!-- Node1&#45;&gt;Node2 -->
<g id="edge1" class="edge">
<title>Node1&#45;&gt;Node2</title>
<path fill="none" stroke="#63b8ff" d="M450.58,-62.1C442.34,-63.5 434,-64.69 426,-65.5 357.02,-72.47 338.95,-72.82 270,-65.5 253.12,-63.71 234.73,-60.05 219.11,-56.41"/>
<polygon fill="#63b8ff" stroke="#63b8ff" points="451.02,-65.58 460.24,-60.35 449.78,-58.69 451.02,-65.58"/>
</g>
<!-- Node4 -->
<g id="node4" class="node">
<title>Node4</title>
<g id="a_node4"><a xlink:href="classProject.html#a744fcd821ba36738a8bd87acaa5a8cc2" target="_top" xlink:title=" ">
<polygon fill="white" stroke="#666666" points="386.5,-56 309.5,-56 309.5,-37 386.5,-37 386.5,-56"/>
<text text-anchor="middle" x="348" y="-44" font-family="Helvetica,sans-Serif" font-size="10.00">Project::load</text>
</a>
</g>
</g>
<!-- Node1&#45;&gt;Node4 -->
<g id="edge3" class="edge">
<title>Node1&#45;&gt;Node4</title>
<path fill="none" stroke="#63b8ff" d="M450.42,-46.5C428.77,-46.5 405.64,-46.5 386.94,-46.5"/>
<polygon fill="#63b8ff" stroke="#63b8ff" points="450.41,-50 460.41,-46.5 450.41,-43 450.41,-50"/>
</g>
<!-- Node5 -->
<g id="node5" class="node">
<title>Node5</title>
<g id="a_node5"><a xlink:href="classProject.html#a08bc60812e82eecff3a8e16a0f02849a" target="_top" xlink:title=" ">
<polygon fill="white" stroke="#666666" points="426,-19 270,-19 270,0 426,0 426,-19"/>
<text text-anchor="middle" x="348" y="-7" font-family="Helvetica,sans-Serif" font-size="10.00">Project::swapToTempStorage</text>
</a>
</g>
</g>
<!-- Node1&#45;&gt;Node5 -->
<g id="edge4" class="edge">
<title>Node1&#45;&gt;Node5</title>
<path fill="none" stroke="#63b8ff" d="M450.73,-31.64C431.98,-27.56 412.1,-23.23 394.93,-19.5"/>
<polygon fill="#63b8ff" stroke="#63b8ff" points="449.93,-35.05 460.44,-33.75 451.41,-28.21 449.93,-35.05"/>
</g>
<!-- Node3 -->
<g id="node3" class="node">
<title>Node3</title>
<g id="a_node3"><a xlink:href="classProject.html#afba51cb85b0c6e4ee2556f0ce0b7bfce" target="_top" xlink:title=" ">
<polygon fill="white" stroke="#666666" points="91,-56 0,-56 0,-37 91,-37 91,-56"/>
<text text-anchor="middle" x="45.5" y="-44" font-family="Helvetica,sans-Serif" font-size="10.00">Project::refresh</text>
</a>
</g>
</g>
<!-- Node2&#45;&gt;Node3 -->
<g id="edge2" class="edge">
<title>Node2&#45;&gt;Node3</title>
<path fill="none" stroke="#63b8ff" d="M115.15,-46.5C107.02,-46.5 98.85,-46.5 91.13,-46.5"/>
<polygon fill="#63b8ff" stroke="#63b8ff" points="115.04,-50 125.04,-46.5 115.04,-43 115.04,-50"/>
</g>
<!-- Node5&#45;&gt;Node2 -->
<g id="edge5" class="edge">
<title>Node5&#45;&gt;Node2</title>
<path fill="none" stroke="#63b8ff" d="M291.46,-21.92C270.14,-26.68 246.12,-32.05 225.97,-36.56"/>
<polygon fill="#63b8ff" stroke="#63b8ff" points="292.18,-25.34 301.17,-19.75 290.65,-18.51 292.18,-25.34"/>
</g>
</g>
</svg>
