<?xml version="1.0" encoding="UTF-8" standalone="no"?>
<!DOCTYPE svg PUBLIC "-//W3C//DTD SVG 1.1//EN"
 "http://www.w3.org/Graphics/SVG/1.1/DTD/svg11.dtd">
<!-- Generated by graphviz version 7.1.0 (0)
 -->
<!-- Title: Bookmark::getName Pages: 1 -->
<svg width="1075pt" height="142pt"
 viewBox="0.00 0.00 1075.00 141.50" xmlns="http://www.w3.org/2000/svg" xmlns:xlink="http://www.w3.org/1999/xlink">
<g id="graph0" class="graph" transform="scale(1 1) rotate(0) translate(4 137.5)">
<title>Bookmark::getName</title>
<!-- Node1 -->
<g id="node1" class="node">
<title>Node1</title>
<g id="a_node1"><a xlink:title=" ">
<polygon fill="#999999" stroke="#666666" points="1067,-80 949,-80 949,-61 1067,-61 1067,-80"/>
<text text-anchor="middle" x="1008" y="-68" font-family="Helvetica,sans-Serif" font-size="10.00">Bookmark::getName</text>
</a>
</g>
</g>
<!-- Node2 -->
<g id="node2" class="node">
<title>Node2</title>
<g id="a_node2"><a xlink:href="classPersistentStorage.html#a330a461745199373b50b29c393f4286c" target="_top" xlink:title=" ">
<polygon fill="white" stroke="#666666" points="864.5,-133.5 755.5,-133.5 755.5,-103.5 864.5,-103.5 864.5,-133.5"/>
<text text-anchor="start" x="763.5" y="-121.5" font-family="Helvetica,sans-Serif" font-size="10.00">PersistentStorage::</text>
<text text-anchor="middle" x="810" y="-110.5" font-family="Helvetica,sans-Serif" font-size="10.00">addEdgeBookmark</text>
</a>
</g>
</g>
<!-- Node1&#45;&gt;Node2 -->
<g id="edge1" class="edge">
<title>Node1&#45;&gt;Node2</title>
<path fill="none" stroke="#63b8ff" d="M957.89,-83.22C943.44,-86.92 927.6,-90.92 913,-94.5 897.36,-98.34 880.35,-102.39 864.78,-106.05"/>
<polygon fill="#63b8ff" stroke="#63b8ff" points="958.34,-86.72 967.16,-80.85 956.6,-79.94 958.34,-86.72"/>
</g>
<!-- Node3 -->
<g id="node3" class="node">
<title>Node3</title>
<g id="a_node3"><a xlink:href="classPersistentStorage.html#ab2ba7619c1b086be02a1ae0ef2ad2338" target="_top" xlink:title=" ">
<polygon fill="white" stroke="#666666" points="865,-85.5 755,-85.5 755,-55.5 865,-55.5 865,-85.5"/>
<text text-anchor="start" x="763" y="-73.5" font-family="Helvetica,sans-Serif" font-size="10.00">PersistentStorage::</text>
<text text-anchor="middle" x="810" y="-62.5" font-family="Helvetica,sans-Serif" font-size="10.00">addNodeBookmark</text>
</a>
</g>
</g>
<!-- Node1&#45;&gt;Node3 -->
<g id="edge2" class="edge">
<title>Node1&#45;&gt;Node3</title>
<path fill="none" stroke="#63b8ff" d="M937.34,-70.5C913.69,-70.5 887.64,-70.5 865.36,-70.5"/>
<polygon fill="#63b8ff" stroke="#63b8ff" points="937.21,-74 947.21,-70.5 937.21,-67 937.21,-74"/>
</g>
<!-- Node4 -->
<g id="node4" class="node">
<title>Node4</title>
<g id="a_node4"><a xlink:href="classQtMainWindow.html#a1d3da319d1f86c0283ac2a71fc564720" target="_top" xlink:title=" ">
<polygon fill="white" stroke="#666666" points="913,-37 707,-37 707,-18 913,-18 913,-37"/>
<text text-anchor="middle" x="810" y="-25" font-family="Helvetica,sans-Serif" font-size="10.00">QtMainWindow::setupBookmarksMenu</text>
</a>
</g>
</g>
<!-- Node1&#45;&gt;Node4 -->
<g id="edge3" class="edge">
<title>Node1&#45;&gt;Node4</title>
<path fill="none" stroke="#63b8ff" d="M959.54,-57.73C944.68,-53.91 928.2,-49.85 913,-46.5 898.58,-43.32 882.93,-40.23 868.32,-37.49"/>
<polygon fill="#63b8ff" stroke="#63b8ff" points="958.5,-61.08 969.06,-60.21 960.27,-54.31 958.5,-61.08"/>
</g>
<!-- Node5 -->
<g id="node5" class="node">
<title>Node5</title>
<g id="a_node5"><a xlink:href="classQtMainWindow.html#ab526da2f9eb598fdbee15a62a4323ad0" target="_top" xlink:title=" ">
<polygon fill="white" stroke="#666666" points="650,-56 479,-56 479,-37 650,-37 650,-56"/>
<text text-anchor="middle" x="564.5" y="-44" font-family="Helvetica,sans-Serif" font-size="10.00">QtMainWindow::QtMainWindow</text>
</a>
</g>
</g>
<!-- Node4&#45;&gt;Node5 -->
<g id="edge4" class="edge">
<title>Node4&#45;&gt;Node5</title>
<path fill="none" stroke="#63b8ff" d="M695.68,-36.34C680.34,-37.54 664.84,-38.75 650.13,-39.9"/>
<polygon fill="#63b8ff" stroke="#63b8ff" points="695.59,-39.86 705.28,-35.59 695.04,-32.88 695.59,-39.86"/>
</g>
<!-- Node6 -->
<g id="node6" class="node">
<title>Node6</title>
<g id="a_node6"><a xlink:href="classQtMainWindow.html#ac9f9ea7439f5010a0ab80f5b58e5c3c0" target="_top" xlink:title=" ">
<polygon fill="white" stroke="#666666" points="671,-19 458,-19 458,0 671,0 671,-19"/>
<text text-anchor="middle" x="564.5" y="-7" font-family="Helvetica,sans-Serif" font-size="10.00">QtMainWindow::updateBookmarksMenu</text>
</a>
</g>
</g>
<!-- Node4&#45;&gt;Node6 -->
<g id="edge5" class="edge">
<title>Node4&#45;&gt;Node6</title>
<path fill="none" stroke="#63b8ff" d="M695.48,-19.11C687.44,-18.51 679.35,-17.92 671.36,-17.33"/>
<polygon fill="#63b8ff" stroke="#63b8ff" points="695.05,-22.59 705.28,-19.83 695.57,-15.61 695.05,-22.59"/>
</g>
<!-- Node7 -->
<g id="node7" class="node">
<title>Node7</title>
<g id="a_node7"><a xlink:href="classQtMainView.html#a3013a29d044176cd15663856d012c323" target="_top" xlink:title=" ">
<polygon fill="white" stroke="#666666" points="422,-19 224,-19 224,0 422,0 422,-19"/>
<text text-anchor="middle" x="323" y="-7" font-family="Helvetica,sans-Serif" font-size="10.00">QtMainView::updateBookmarksMenu</text>
</a>
</g>
</g>
<!-- Node6&#45;&gt;Node7 -->
<g id="edge6" class="edge">
<title>Node6&#45;&gt;Node7</title>
<path fill="none" stroke="#63b8ff" d="M446.39,-9.5C438.34,-9.5 430.27,-9.5 422.33,-9.5"/>
<polygon fill="#63b8ff" stroke="#63b8ff" points="446.24,-13 456.24,-9.5 446.24,-6 446.24,-13"/>
</g>
<!-- Node8 -->
<g id="node8" class="node">
<title>Node8</title>
<g id="a_node8"><a xlink:href="classQtMainView.html#ae8a9587d64b163790f8eca700f50e815" target="_top" xlink:title=" ">
<polygon fill="white" stroke="#666666" points="188,-19 0,-19 0,0 188,0 188,-19"/>
<text text-anchor="middle" x="94" y="-7" font-family="Helvetica,sans-Serif" font-size="10.00">QtMainView::clearBookmarksMenu</text>
</a>
</g>
</g>
<!-- Node7&#45;&gt;Node8 -->
<g id="edge7" class="edge">
<title>Node7&#45;&gt;Node8</title>
<path fill="none" stroke="#63b8ff" d="M212.42,-9.5C204.38,-9.5 196.31,-9.5 188.38,-9.5"/>
<polygon fill="#63b8ff" stroke="#63b8ff" points="212.24,-13 222.24,-9.5 212.24,-6 212.24,-13"/>
</g>
</g>
</svg>
