<?xml version="1.0" encoding="UTF-8" standalone="no"?>
<!DOCTYPE svg PUBLIC "-//W3C//DTD SVG 1.1//EN"
 "http://www.w3.org/Graphics/SVG/1.1/DTD/svg11.dtd">
<!-- Generated by graphviz version 9.0.0 (0)
 -->
<!-- Title: NodeTypeSet::remove Pages: 1 -->
<svg width="749pt" height="132pt"
 viewBox="0.00 0.00 748.50 131.50" xmlns="http://www.w3.org/2000/svg" xmlns:xlink="http://www.w3.org/1999/xlink">
<g id="graph0" class="graph" transform="scale(1 1) rotate(0) translate(4 127.5)">
<title>NodeTypeSet::remove</title>
<!-- Node1 -->
<g id="Node000001" class="node">
<title>Node1</title>
<g id="a_Node000001"><a xlink:title=" ">
<polygon fill="#999999" stroke="#666666" points="740.5,-72.12 617.25,-72.12 617.25,-51.38 740.5,-51.38 740.5,-72.12"/>
<text text-anchor="middle" x="678.88" y="-58.62" font-family="Helvetica,sans-Serif" font-size="10.00">NodeTypeSet::remove</text>
</a>
</g>
</g>
<!-- Node2 -->
<g id="Node000002" class="node">
<title>Node2</title>
<g id="a_Node000002"><a xlink:href="classCustomTrailController.html#a50e7b39b9042014ac4fe70424f4f7de8" target="_top" xlink:title=" ">
<polygon fill="white" stroke="#666666" points="558.38,-123.5 435.88,-123.5 435.88,-90 558.38,-90 558.38,-123.5"/>
<text text-anchor="start" x="443.88" y="-110" font-family="Helvetica,sans-Serif" font-size="10.00">CustomTrailController</text>
<text text-anchor="middle" x="497.12" y="-97.25" font-family="Helvetica,sans-Serif" font-size="10.00">::autocomplete</text>
</a>
</g>
</g>
<!-- Node1&#45;&gt;Node2 -->
<g id="edge1_Node000001_Node000002" class="edge">
<title>Node1&#45;&gt;Node2</title>
<g id="a_edge1_Node000001_Node000002"><a xlink:title=" ">
<path fill="none" stroke="#63b8ff" d="M623.79,-75.29C603.31,-80.42 579.88,-86.28 558.84,-91.55"/>
<polygon fill="#63b8ff" stroke="#63b8ff" points="624.5,-78.72 633.35,-72.9 622.8,-71.93 624.5,-78.72"/>
</a>
</g>
</g>
<!-- Node4 -->
<g id="Node000004" class="node">
<title>Node4</title>
<g id="a_Node000004"><a xlink:href="classNodeTypeSet.html#ae66a99b8077ec8744fc4c8098857bcdc" target="_top" xlink:title=" ">
<polygon fill="white" stroke="#666666" points="574.12,-72.12 420.12,-72.12 420.12,-51.38 574.12,-51.38 574.12,-72.12"/>
<text text-anchor="middle" x="497.12" y="-58.62" font-family="Helvetica,sans-Serif" font-size="10.00">NodeTypeSet::keepMatching</text>
</a>
</g>
</g>
<!-- Node1&#45;&gt;Node4 -->
<g id="edge3_Node000001_Node000004" class="edge">
<title>Node1&#45;&gt;Node4</title>
<g id="a_edge3_Node000001_Node000004"><a xlink:title=" ">
<path fill="none" stroke="#63b8ff" d="M605.39,-61.75C595.17,-61.75 584.63,-61.75 574.34,-61.75"/>
<polygon fill="#63b8ff" stroke="#63b8ff" points="605.26,-65.25 615.26,-61.75 605.26,-58.25 605.26,-65.25"/>
</a>
</g>
</g>
<!-- Node6 -->
<g id="Node000006" class="node">
<title>Node6</title>
<g id="a_Node000006"><a xlink:href="classNodeTypeSet.html#aefcd54b7e8616579f6136f87a2ea644a" target="_top" xlink:title=" ">
<polygon fill="white" stroke="#666666" points="581.25,-30.12 413,-30.12 413,-9.38 581.25,-9.38 581.25,-30.12"/>
<text text-anchor="middle" x="497.12" y="-16.62" font-family="Helvetica,sans-Serif" font-size="10.00">NodeTypeSet::removeMatching</text>
</a>
</g>
</g>
<!-- Node1&#45;&gt;Node6 -->
<g id="edge5_Node000001_Node000006" class="edge">
<title>Node1&#45;&gt;Node6</title>
<g id="a_edge5_Node000001_Node000006"><a xlink:title=" ">
<path fill="none" stroke="#63b8ff" d="M620.61,-48.37C596.07,-42.63 567.78,-36.02 544.57,-30.6"/>
<polygon fill="#63b8ff" stroke="#63b8ff" points="619.58,-51.72 630.11,-50.59 621.17,-44.91 619.58,-51.72"/>
</a>
</g>
</g>
<!-- Node3 -->
<g id="Node000003" class="node">
<title>Node3</title>
<g id="a_Node000003"><a xlink:href="classQtCustomTrailView.html#aa2704fa930734ebf8b63a024388255a6" target="_top" xlink:title=" ">
<polygon fill="white" stroke="#666666" points="339.5,-123.5 223.75,-123.5 223.75,-90 339.5,-90 339.5,-123.5"/>
<text text-anchor="start" x="231.75" y="-110" font-family="Helvetica,sans-Serif" font-size="10.00">QtCustomTrailView::</text>
<text text-anchor="middle" x="281.62" y="-97.25" font-family="Helvetica,sans-Serif" font-size="10.00">QtCustomTrailView</text>
</a>
</g>
</g>
<!-- Node2&#45;&gt;Node3 -->
<g id="edge2_Node000002_Node000003" class="edge">
<title>Node2&#45;&gt;Node3</title>
<g id="a_edge2_Node000002_Node000003"><a xlink:title=" ">
<path fill="none" stroke="#63b8ff" d="M424.34,-106.75C396.78,-106.75 365.72,-106.75 339.72,-106.75"/>
<polygon fill="#63b8ff" stroke="#63b8ff" points="424,-110.25 434,-106.75 424,-103.25 424,-110.25"/>
</a>
</g>
</g>
<!-- Node5 -->
<g id="Node000005" class="node">
<title>Node5</title>
<g id="a_Node000005"><a xlink:href="classNodeTypeSet.html#abef25548300260a709a3441ffb9fc4ab" target="_top" xlink:title=" ">
<polygon fill="white" stroke="#666666" points="377,-72.12 186.25,-72.12 186.25,-51.38 377,-51.38 377,-72.12"/>
<text text-anchor="middle" x="281.62" y="-58.62" font-family="Helvetica,sans-Serif" font-size="10.00">NodeTypeSet::getWithMatchingKept</text>
</a>
</g>
</g>
<!-- Node4&#45;&gt;Node5 -->
<g id="edge4_Node000004_Node000005" class="edge">
<title>Node4&#45;&gt;Node5</title>
<g id="a_edge4_Node000004_Node000005"><a xlink:title=" ">
<path fill="none" stroke="#63b8ff" d="M408.22,-61.75C397.99,-61.75 387.52,-61.75 377.2,-61.75"/>
<polygon fill="#63b8ff" stroke="#63b8ff" points="408.14,-65.25 418.14,-61.75 408.14,-58.25 408.14,-65.25"/>
</a>
</g>
</g>
<!-- Node7 -->
<g id="Node000007" class="node">
<title>Node7</title>
<g id="a_Node000007"><a xlink:href="classNodeTypeSet.html#a62c6bedc6f9346b59d698eef34614b17" target="_top" xlink:title=" ">
<polygon fill="white" stroke="#666666" points="366.12,-33.5 197.12,-33.5 197.12,0 366.12,0 366.12,-33.5"/>
<text text-anchor="start" x="205.12" y="-20" font-family="Helvetica,sans-Serif" font-size="10.00">NodeTypeSet::getWithMatching</text>
<text text-anchor="middle" x="281.62" y="-7.25" font-family="Helvetica,sans-Serif" font-size="10.00">Removed</text>
</a>
</g>
</g>
<!-- Node6&#45;&gt;Node7 -->
<g id="edge6_Node000006_Node000007" class="edge">
<title>Node6&#45;&gt;Node7</title>
<g id="a_edge6_Node000006_Node000007"><a xlink:title=" ">
<path fill="none" stroke="#63b8ff" d="M401.16,-18.42C389.57,-18.25 377.79,-18.09 366.38,-17.93"/>
<polygon fill="#63b8ff" stroke="#63b8ff" points="401.1,-21.92 411.15,-18.56 401.2,-14.92 401.1,-21.92"/>
</a>
</g>
</g>
<!-- Node8 -->
<g id="Node000008" class="node">
<title>Node8</title>
<g id="a_Node000008"><a xlink:href="classPersistentStorage.html#a6e9bf015702ab246b02e348a1ea6ae00" target="_top" xlink:title=" ">
<polygon fill="white" stroke="#666666" points="150.25,-33.5 0,-33.5 0,0 150.25,0 150.25,-33.5"/>
<text text-anchor="start" x="8" y="-20" font-family="Helvetica,sans-Serif" font-size="10.00">PersistentStorage::</text>
<text text-anchor="middle" x="75.12" y="-7.25" font-family="Helvetica,sans-Serif" font-size="10.00">getAutocompletionMatches</text>
</a>
</g>
</g>
<!-- Node7&#45;&gt;Node8 -->
<g id="edge7_Node000007_Node000008" class="edge">
<title>Node7&#45;&gt;Node8</title>
<g id="a_edge7_Node000007_Node000008"><a xlink:title=" ">
<path fill="none" stroke="#63b8ff" d="M185.64,-16.75C173.87,-16.75 161.98,-16.75 150.58,-16.75"/>
<polygon fill="#63b8ff" stroke="#63b8ff" points="185.34,-20.25 195.34,-16.75 185.34,-13.25 185.34,-20.25"/>
</a>
</g>
</g>
</g>
</svg>
