<?xml version="1.0" encoding="UTF-8" standalone="no"?>
<!DOCTYPE svg PUBLIC "-//W3C//DTD SVG 1.1//EN"
 "http://www.w3.org/Graphics/SVG/1.1/DTD/svg11.dtd">
<!-- Generated by graphviz version 9.0.0 (0)
 -->
<!-- Title: QtCodeNavigable::scrollTo Pages: 1 -->
<svg width="714pt" height="248pt"
 viewBox="0.00 0.00 714.00 248.12" xmlns="http://www.w3.org/2000/svg" xmlns:xlink="http://www.w3.org/1999/xlink">
<g id="graph0" class="graph" transform="scale(1 1) rotate(0) translate(4 244.12)">
<title>QtCodeNavigable::scrollTo</title>
<!-- Node1 -->
<g id="Node000001" class="node">
<title>Node1</title>
<g id="a_Node000001"><a xlink:title=" ">
<polygon fill="#999999" stroke="#666666" points="706,-120.75 561.75,-120.75 561.75,-100 706,-100 706,-120.75"/>
<text text-anchor="middle" x="633.88" y="-107.25" font-family="Helvetica,sans-Serif" font-size="10.00">QtCodeNavigable::scrollTo</text>
</a>
</g>
</g>
<!-- Node2 -->
<g id="Node000002" class="node">
<title>Node2</title>
<g id="a_Node000002"><a xlink:href="classQtCodeNavigator.html#afbd2613391d77ee268af3b0c2f38d523" target="_top" xlink:title=" ">
<polygon fill="white" stroke="#666666" points="525.75,-120.75 383,-120.75 383,-100 525.75,-100 525.75,-120.75"/>
<text text-anchor="middle" x="454.38" y="-107.25" font-family="Helvetica,sans-Serif" font-size="10.00">QtCodeNavigator::scrollTo</text>
</a>
</g>
</g>
<!-- Node1&#45;&gt;Node2 -->
<g id="edge1_Node000001_Node000002" class="edge">
<title>Node1&#45;&gt;Node2</title>
<g id="a_edge1_Node000001_Node000002"><a xlink:title=" ">
<path fill="none" stroke="#63b8ff" d="M550.15,-110.38C542.1,-110.38 533.99,-110.38 526.08,-110.38"/>
<polygon fill="#63b8ff" stroke="#63b8ff" points="549.93,-113.88 559.93,-110.38 549.93,-106.88 549.93,-113.88"/>
</a>
</g>
</g>
<!-- Node3 -->
<g id="Node000003" class="node">
<title>Node3</title>
<g id="a_Node000003"><a xlink:href="classQtCodeNavigator.html#a164cd09c4a33270e9e3fa1034d78c9b5" target="_top" xlink:title=" ">
<polygon fill="white" stroke="#666666" points="340.25,-240.12 194.5,-240.12 194.5,-206.62 340.25,-206.62 340.25,-240.12"/>
<text text-anchor="start" x="202.5" y="-226.62" font-family="Helvetica,sans-Serif" font-size="10.00">QtCodeNavigator::activate</text>
<text text-anchor="middle" x="267.38" y="-213.88" font-family="Helvetica,sans-Serif" font-size="10.00">ScreenMatch</text>
</a>
</g>
</g>
<!-- Node2&#45;&gt;Node3 -->
<g id="edge2_Node000002_Node000003" class="edge">
<title>Node2&#45;&gt;Node3</title>
<g id="a_edge2_Node000002_Node000003"><a xlink:title=" ">
<path fill="none" stroke="#63b8ff" d="M434.91,-129.1C414.84,-148.54 381.06,-178.66 347,-197.38 341.08,-200.63 334.68,-203.56 328.18,-206.19"/>
<polygon fill="#63b8ff" stroke="#63b8ff" points="437.14,-131.82 441.8,-122.31 432.22,-126.84 437.14,-131.82"/>
</a>
</g>
</g>
<!-- Node5 -->
<g id="Node000005" class="node">
<title>Node5</title>
<g id="a_Node000005"><a xlink:href="classQtCodeView.html#a506061ae95b2f2fbd1973bc28de00b9a" target="_top" xlink:title=" ">
<polygon fill="white" stroke="#666666" points="326.75,-188.75 208,-188.75 208,-168 326.75,-168 326.75,-188.75"/>
<text text-anchor="middle" x="267.38" y="-175.25" font-family="Helvetica,sans-Serif" font-size="10.00">QtCodeView::scrollTo</text>
</a>
</g>
</g>
<!-- Node2&#45;&gt;Node5 -->
<g id="edge4_Node000002_Node000005" class="edge">
<title>Node2&#45;&gt;Node5</title>
<g id="a_edge4_Node000002_Node000005"><a xlink:title=" ">
<path fill="none" stroke="#63b8ff" d="M422.89,-126.35C401.97,-136.82 373.33,-150.23 347,-159.38 338.24,-162.42 328.78,-165.15 319.55,-167.54"/>
<polygon fill="#63b8ff" stroke="#63b8ff" points="424.4,-129.51 431.73,-121.86 421.23,-123.27 424.4,-129.51"/>
</a>
</g>
</g>
<!-- Node6 -->
<g id="Node000006" class="node">
<title>Node6</title>
<g id="a_Node000006"><a xlink:href="classQtCodeNavigator.html#a32f12006f74b8a02a16bc5c874645589" target="_top" xlink:title=" ">
<polygon fill="white" stroke="#666666" points="338.75,-150.12 196,-150.12 196,-116.62 338.75,-116.62 338.75,-150.12"/>
<text text-anchor="start" x="204" y="-136.62" font-family="Helvetica,sans-Serif" font-size="10.00">QtCodeNavigator::scrollTo</text>
<text text-anchor="middle" x="267.38" y="-123.88" font-family="Helvetica,sans-Serif" font-size="10.00">Focus</text>
</a>
</g>
</g>
<!-- Node2&#45;&gt;Node6 -->
<g id="edge5_Node000002_Node000006" class="edge">
<title>Node2&#45;&gt;Node6</title>
<g id="a_edge5_Node000002_Node000006"><a xlink:title=" ">
<path fill="none" stroke="#63b8ff" d="M371.48,-120.56C360.67,-121.9 349.67,-123.27 339.07,-124.59"/>
<polygon fill="#63b8ff" stroke="#63b8ff" points="371.65,-124.06 381.14,-119.36 370.79,-117.12 371.65,-124.06"/>
</a>
</g>
</g>
<!-- Node8 -->
<g id="Node000008" class="node">
<title>Node8</title>
<g id="a_Node000008"><a xlink:href="classQtCodeNavigator.html#a561cd4f9396925bf62d81fe7cf874dc0" target="_top" xlink:title=" ">
<polygon fill="white" stroke="#666666" points="347,-98.75 187.75,-98.75 187.75,-78 347,-78 347,-98.75"/>
<text text-anchor="middle" x="267.38" y="-85.25" font-family="Helvetica,sans-Serif" font-size="10.00">QtCodeNavigator::showEvent</text>
</a>
</g>
</g>
<!-- Node2&#45;&gt;Node8 -->
<g id="edge7_Node000002_Node000008" class="edge">
<title>Node2&#45;&gt;Node8</title>
<g id="a_edge7_Node000002_Node000008"><a xlink:title=" ">
<path fill="none" stroke="#63b8ff" d="M371.44,-100.63C363.46,-99.68 355.36,-98.72 347.4,-97.77"/>
<polygon fill="#63b8ff" stroke="#63b8ff" points="370.8,-104.08 381.14,-101.78 371.62,-97.13 370.8,-104.08"/>
</a>
</g>
</g>
<!-- Node9 -->
<g id="Node000009" class="node">
<title>Node9</title>
<g id="a_Node000009"><a xlink:href="classQtCodeView.html#a03d33b6b0d51a10ab3c407765c6e8c6d" target="_top" xlink:title=" ">
<polygon fill="white" stroke="#666666" points="344.38,-59.75 190.38,-59.75 190.38,-39 344.38,-39 344.38,-59.75"/>
<text text-anchor="middle" x="267.38" y="-46.25" font-family="Helvetica,sans-Serif" font-size="10.00">QtCodeView::showSingleFile</text>
</a>
</g>
</g>
<!-- Node2&#45;&gt;Node9 -->
<g id="edge8_Node000002_Node000009" class="edge">
<title>Node2&#45;&gt;Node9</title>
<g id="a_edge8_Node000002_Node000009"><a xlink:title=" ">
<path fill="none" stroke="#63b8ff" d="M417.47,-95.31C397.03,-87.05 370.82,-76.96 347,-69.38 336.67,-66.08 325.44,-62.96 314.78,-60.21"/>
<polygon fill="#63b8ff" stroke="#63b8ff" points="415.9,-98.45 426.48,-98.99 418.55,-91.97 415.9,-98.45"/>
</a>
</g>
</g>
<!-- Node10 -->
<g id="Node000010" class="node">
<title>Node10</title>
<g id="a_Node000010"><a xlink:href="classQtCodeView.html#a47df56cbb087ef2d989d78970ea8bb98" target="_top" xlink:title=" ">
<polygon fill="white" stroke="#666666" points="342.12,-20.75 192.62,-20.75 192.62,0 342.12,0 342.12,-20.75"/>
<text text-anchor="middle" x="267.38" y="-7.25" font-family="Helvetica,sans-Serif" font-size="10.00">QtCodeView::showSnippets</text>
</a>
</g>
</g>
<!-- Node2&#45;&gt;Node10 -->
<g id="edge9_Node000002_Node000010" class="edge">
<title>Node2&#45;&gt;Node10</title>
<g id="a_edge9_Node000002_Node000010"><a xlink:title=" ">
<path fill="none" stroke="#63b8ff" d="M433.95,-91.95C413.74,-73.76 380.43,-46.4 347,-30.38 339.38,-26.72 331.01,-23.68 322.67,-21.17"/>
<polygon fill="#63b8ff" stroke="#63b8ff" points="431.42,-94.38 441.15,-98.57 436.15,-89.22 431.42,-94.38"/>
</a>
</g>
</g>
<!-- Node4 -->
<g id="Node000004" class="node">
<title>Node4</title>
<g id="a_Node000004"><a xlink:href="classQtCodeView.html#af5545196a70d3e3098a892506f91097a" target="_top" xlink:title=" ">
<polygon fill="white" stroke="#666666" points="151.75,-233.75 0,-233.75 0,-213 151.75,-213 151.75,-233.75"/>
<text text-anchor="middle" x="75.88" y="-220.25" font-family="Helvetica,sans-Serif" font-size="10.00">QtCodeView::activateMatch</text>
</a>
</g>
</g>
<!-- Node3&#45;&gt;Node4 -->
<g id="edge3_Node000003_Node000004" class="edge">
<title>Node3&#45;&gt;Node4</title>
<g id="a_edge3_Node000003_Node000004"><a xlink:title=" ">
<path fill="none" stroke="#63b8ff" d="M182.74,-223.38C172.51,-223.38 162.1,-223.38 152,-223.38"/>
<polygon fill="#63b8ff" stroke="#63b8ff" points="182.68,-226.88 192.68,-223.38 182.68,-219.88 182.68,-226.88"/>
</a>
</g>
</g>
<!-- Node7 -->
<g id="Node000007" class="node">
<title>Node7</title>
<g id="a_Node000007"><a xlink:href="classQtCodeNavigator.html#afd9d87b4e73c23ed7706971459ae695f" target="_top" xlink:title=" ">
<polygon fill="white" stroke="#666666" points="150.62,-150.12 1.12,-150.12 1.12,-116.62 150.62,-116.62 150.62,-150.12"/>
<text text-anchor="start" x="9.12" y="-136.62" font-family="Helvetica,sans-Serif" font-size="10.00">QtCodeNavigator::keyPress</text>
<text text-anchor="middle" x="75.88" y="-123.88" font-family="Helvetica,sans-Serif" font-size="10.00">Event</text>
</a>
</g>
</g>
<!-- Node6&#45;&gt;Node7 -->
<g id="edge6_Node000006_Node000007" class="edge">
<title>Node6&#45;&gt;Node7</title>
<g id="a_edge6_Node000006_Node000007"><a xlink:title=" ">
<path fill="none" stroke="#63b8ff" d="M184.19,-133.38C173.19,-133.38 161.96,-133.38 151.1,-133.38"/>
<polygon fill="#63b8ff" stroke="#63b8ff" points="184.03,-136.88 194.03,-133.38 184.03,-129.88 184.03,-136.88"/>
</a>
</g>
</g>
</g>
</svg>
