<?xml version="1.0" encoding="UTF-8" standalone="no"?>
<!DOCTYPE svg PUBLIC "-//W3C//DTD SVG 1.1//EN"
 "http://www.w3.org/Graphics/SVG/1.1/DTD/svg11.dtd">
<!-- Generated by graphviz version 7.1.0 (0)
 -->
<!-- Title: QtGraphNode::getBoundingRect Pages: 1 -->
<!--zoomable 713 -->
<svg id="main" version="1.1" xmlns="http://www.w3.org/2000/svg" xmlns:xlink="http://www.w3.org/1999/xlink" xml:space="preserve" onload="init(evt)">
<style type="text/css"><![CDATA[
.edge:hover path { stroke: red; }
.edge:hover polygon { stroke: red; fill: red; }
]]></style>
<script type="text/javascript"><![CDATA[
var edges = document.getElementsByTagName('g');
if (edges && edges.length) {
  for (var i=0;i<edges.length;i++) {
    if (edges[i].id.substr(0,4)=='edge') {
      edges[i].setAttribute('class','edge');
    }
  }
}
]]></script>
        <defs>
                <circle id="rim" cx="0" cy="0" r="7"/>
                <circle id="rim2" cx="0" cy="0" r="3.5"/>
                <g id="zoomPlus">
                        <use xlink:href="#rim" fill="#404040">
                                <set attributeName="fill" to="#808080" begin="zoomplus.mouseover" end="zoomplus.mouseout"/>
                        </use>
                        <path d="M-4,0h8M0,-4v8" fill="none" stroke="white" stroke-width="1.5" pointer-events="none"/>
                </g>
                <g id="zoomMin">
                        <use xlink:href="#rim" fill="#404040">
                                <set attributeName="fill" to="#808080" begin="zoomminus.mouseover" end="zoomminus.mouseout"/>
                        </use>
                        <path d="M-4,0h8" fill="none" stroke="white" stroke-width="1.5" pointer-events="none"/>
                </g>
                <g id="dirArrow">
                        <path fill="none" stroke="white" stroke-width="1.5" d="M0,-3.0v7 M-2.5,-0.5L0,-3.0L2.5,-0.5"/>
                </g>
               <g id="resetDef">
                       <use xlink:href="#rim2" fill="#404040">
                               <set attributeName="fill" to="#808080" begin="reset.mouseover" end="reset.mouseout"/>
                       </use>
               </g>
        </defs>

<script type="text/javascript">
var viewWidth = 2081;
var viewHeight = 713;
var sectionId = 'dynsection-20';
</script>
<script xlink:href="svgpan.js"/>
<svg id="graph" class="graph">
<g id="viewport">
<title>QtGraphNode::getBoundingRect</title>
<!-- Node1 -->
<g id="node1" class="node">
<title>Node1</title>
<g id="a_node1"><a xlink:title=" ">
<polygon fill="#999999" stroke="#666666" points="2073,-396.5 1901,-396.5 1901,-377.5 2073,-377.5 2073,-396.5"/>
<text text-anchor="middle" x="1987" y="-384.5" font-family="Helvetica,sans-Serif" font-size="10.00">QtGraphNode::getBoundingRect</text>
</a>
</g>
</g>
<!-- Node2 -->
<g id="node2" class="node">
<title>Node2</title>
<g id="a_node2"><a xlink:href="classQtGraphView.html#a92cd04baee70e4ba4c8b338fa044ff11" target="_top" xlink:title=" ">
<polygon fill="white" stroke="#666666" points="1865,-439.5 1686,-439.5 1686,-420.5 1865,-420.5 1865,-439.5"/>
<text text-anchor="middle" x="1775.5" y="-427.5" font-family="Helvetica,sans-Serif" font-size="10.00">QtGraphView::ensureNodeVisible</text>
</a>
</g>
</g>
<!-- Node1&#45;&gt;Node2 -->
<g id="edge1" class="edge">
<title>Node1&#45;&gt;Node2</title>
<path fill="none" stroke="#63b8ff" d="M1926.4,-399.23C1894.37,-405.81 1855.38,-413.81 1825.19,-420.01"/>
<polygon fill="#63b8ff" stroke="#63b8ff" points="1926.84,-402.72 1935.93,-397.28 1925.43,-395.86 1926.84,-402.72"/>
</g>
<!-- Node3 -->
<g id="node3" class="node">
<title>Node3</title>
<g id="a_node3"><a xlink:href="classGraphFocusHandler.html#aa09198452c66e7a59619410dda4fdf69" target="_top" xlink:title=" ">
<polygon fill="white" stroke="#666666" points="1834.5,-402 1716.5,-402 1716.5,-372 1834.5,-372 1834.5,-402"/>
<text text-anchor="start" x="1724.5" y="-390" font-family="Helvetica,sans-Serif" font-size="10.00">GraphFocusHandler::</text>
<text text-anchor="middle" x="1775.5" y="-379" font-family="Helvetica,sans-Serif" font-size="10.00">findSibling</text>
</a>
</g>
</g>
<!-- Node1&#45;&gt;Node3 -->
<g id="edge2" class="edge">
<title>Node1&#45;&gt;Node3</title>
<path fill="none" stroke="#63b8ff" d="M1889.52,-387C1870.8,-387 1851.73,-387 1834.72,-387"/>
<polygon fill="#63b8ff" stroke="#63b8ff" points="1889.27,-390.5 1899.27,-387 1889.27,-383.5 1889.27,-390.5"/>
</g>
<!-- Node7 -->
<g id="node7" class="node">
<title>Node7</title>
<g id="a_node7"><a xlink:href="classQtGraphEdge.html#ac2530e71e523f1a4df007fdd1ea95a5d" target="_top" xlink:title=" ">
<polygon fill="white" stroke="#666666" points="1846,-294.5 1705,-294.5 1705,-275.5 1846,-275.5 1846,-294.5"/>
<text text-anchor="middle" x="1775.5" y="-282.5" font-family="Helvetica,sans-Serif" font-size="10.00">QtGraphEdge::updateLine</text>
</a>
</g>
</g>
<!-- Node1&#45;&gt;Node7 -->
<g id="edge6" class="edge">
<title>Node1&#45;&gt;Node7</title>
<path fill="none" stroke="#63b8ff" d="M1955.28,-372.04C1911.82,-350.88 1833.59,-312.8 1796.74,-294.86"/>
<polygon fill="#63b8ff" stroke="#63b8ff" points="1953.65,-375.14 1964.17,-376.37 1956.71,-368.85 1953.65,-375.14"/>
</g>
<!-- Node4 -->
<g id="node4" class="node">
<title>Node4</title>
<g id="a_node4"><a xlink:href="classGraphFocusHandler.html#a79405dbbd017a1a05b75ffed846d1f6d" target="_top" xlink:title=" ">
<polygon fill="white" stroke="#666666" points="1420,-475 1302,-475 1302,-445 1420,-445 1420,-475"/>
<text text-anchor="start" x="1310" y="-463" font-family="Helvetica,sans-Serif" font-size="10.00">GraphFocusHandler::</text>
<text text-anchor="middle" x="1361" y="-452" font-family="Helvetica,sans-Serif" font-size="10.00">findNextNode</text>
</a>
</g>
</g>
<!-- Node3&#45;&gt;Node4 -->
<g id="edge3" class="edge">
<title>Node3&#45;&gt;Node4</title>
<path fill="none" stroke="#63b8ff" d="M1704.88,-403.51C1687.04,-407.51 1667.85,-411.6 1650,-415 1570.83,-430.07 1478.71,-443.8 1420.39,-452.03"/>
<polygon fill="#63b8ff" stroke="#63b8ff" points="1705.62,-406.93 1714.61,-401.31 1704.08,-400.1 1705.62,-406.93"/>
</g>
<!-- Node5 -->
<g id="node5" class="node">
<title>Node5</title>
<g id="a_node5"><a xlink:href="classGraphFocusHandler.html#a8fec5ef0de550176b76a50fb14b7dd93" target="_top" xlink:title=" ">
<polygon fill="white" stroke="#666666" points="977.5,-475 859.5,-475 859.5,-445 977.5,-445 977.5,-475"/>
<text text-anchor="start" x="867.5" y="-463" font-family="Helvetica,sans-Serif" font-size="10.00">GraphFocusHandler::</text>
<text text-anchor="middle" x="918.5" y="-452" font-family="Helvetica,sans-Serif" font-size="10.00">focusNext</text>
</a>
</g>
</g>
<!-- Node4&#45;&gt;Node5 -->
<g id="edge4" class="edge">
<title>Node4&#45;&gt;Node5</title>
<path fill="none" stroke="#63b8ff" d="M1290.25,-460C1203.95,-460 1058.57,-460 977.89,-460"/>
<polygon fill="#63b8ff" stroke="#63b8ff" points="1289.99,-463.5 1299.99,-460 1289.99,-456.5 1289.99,-463.5"/>
</g>
<!-- Node6 -->
<g id="node6" class="node">
<title>Node6</title>
<g id="a_node6"><a xlink:href="classQtGraphicsView.html#adf801883f60878e8684bfcf311eda9b2" target="_top" xlink:title=" ">
<polygon fill="white" stroke="#666666" points="778.5,-475 634.5,-475 634.5,-445 778.5,-445 778.5,-475"/>
<text text-anchor="start" x="642.5" y="-463" font-family="Helvetica,sans-Serif" font-size="10.00">QtGraphicsView::keyPress</text>
<text text-anchor="middle" x="706.5" y="-452" font-family="Helvetica,sans-Serif" font-size="10.00">Event</text>
</a>
</g>
</g>
<!-- Node5&#45;&gt;Node6 -->
<g id="edge5" class="edge">
<title>Node5&#45;&gt;Node6</title>
<path fill="none" stroke="#63b8ff" d="M847.66,-460C825.51,-460 801,-460 778.75,-460"/>
<polygon fill="#63b8ff" stroke="#63b8ff" points="847.49,-463.5 857.49,-460 847.49,-456.5 847.49,-463.5"/>
</g>
<!-- Node8 -->
<g id="node8" class="node">
<title>Node8</title>
<g id="a_node8"><a xlink:href="classQtGraphEdge.html#ad8e533b2c2b9e93e787952eab64fa7ff" target="_top" xlink:title=" ">
<polygon fill="white" stroke="#666666" points="1428.5,-294.5 1293.5,-294.5 1293.5,-275.5 1428.5,-275.5 1428.5,-294.5"/>
<text text-anchor="middle" x="1361" y="-282.5" font-family="Helvetica,sans-Serif" font-size="10.00">QtGraphEdge::coFocusIn</text>
</a>
</g>
</g>
<!-- Node7&#45;&gt;Node8 -->
<g id="edge7" class="edge">
<title>Node7&#45;&gt;Node8</title>
<path fill="none" stroke="#63b8ff" d="M1693.4,-285C1616.11,-285 1501.1,-285 1428.9,-285"/>
<polygon fill="#63b8ff" stroke="#63b8ff" points="1693.01,-288.5 1703.01,-285 1693.01,-281.5 1693.01,-288.5"/>
</g>
<!-- Node10 -->
<g id="node10" class="node">
<title>Node10</title>
<g id="a_node10"><a xlink:href="classQtGraphEdge.html#a0990a903454bf7ff0d4b4068dea3fcc7" target="_top" xlink:title=" ">
<polygon fill="white" stroke="#666666" points="1640,-238.5 1497,-238.5 1497,-219.5 1640,-219.5 1640,-238.5"/>
<text text-anchor="middle" x="1568.5" y="-226.5" font-family="Helvetica,sans-Serif" font-size="10.00">QtGraphEdge::coFocusOut</text>
</a>
</g>
</g>
<!-- Node7&#45;&gt;Node10 -->
<g id="edge9" class="edge">
<title>Node7&#45;&gt;Node10</title>
<path fill="none" stroke="#63b8ff" d="M1727.34,-272.12C1690.44,-262.04 1639.86,-248.22 1606.01,-238.97"/>
<polygon fill="#63b8ff" stroke="#63b8ff" points="1726.29,-275.46 1736.86,-274.72 1728.14,-268.71 1726.29,-275.46"/>
</g>
<!-- Node14 -->
<g id="node14" class="node">
<title>Node14</title>
<g id="a_node14"><a xlink:href="classQtGraphView.html#a1360a1a08741b59d129c540a2b07693c" target="_top" xlink:title=" ">
<polygon fill="white" stroke="#666666" points="571.5,-211.5 429.5,-211.5 429.5,-192.5 571.5,-192.5 571.5,-211.5"/>
<text text-anchor="middle" x="500.5" y="-199.5" font-family="Helvetica,sans-Serif" font-size="10.00">QtGraphView::createEdge</text>
</a>
</g>
</g>
<!-- Node7&#45;&gt;Node14 -->
<g id="edge14" class="edge">
<title>Node7&#45;&gt;Node14</title>
<path fill="none" stroke="#63b8ff" d="M1751.57,-268.65C1727.32,-251.98 1687.45,-226.3 1650,-210 1528.62,-157.16 1494.38,-134 1362,-134 1362,-134 1362,-134 917.5,-134 775.35,-134 609.41,-173.15 537.62,-192.04"/>
<polygon fill="#63b8ff" stroke="#63b8ff" points="1749.51,-271.48 1759.72,-274.33 1753.52,-265.74 1749.51,-271.48"/>
</g>
<!-- Node17 -->
<g id="node17" class="node">
<title>Node17</title>
<g id="a_node17"><a xlink:href="classQtGraphNode.html#a5d32f85ff785f68a203d3c8991386d1c" target="_top" xlink:title=" ">
<polygon fill="white" stroke="#666666" points="1641.5,-106 1495.5,-106 1495.5,-76 1641.5,-76 1641.5,-106"/>
<text text-anchor="start" x="1503.5" y="-94" font-family="Helvetica,sans-Serif" font-size="10.00">QtGraphNode::notifyEdges</text>
<text text-anchor="middle" x="1568.5" y="-83" font-family="Helvetica,sans-Serif" font-size="10.00">AfterMove</text>
</a>
</g>
</g>
<!-- Node7&#45;&gt;Node17 -->
<g id="edge18" class="edge">
<title>Node7&#45;&gt;Node17</title>
<path fill="none" stroke="#63b8ff" d="M1764.51,-265.1C1746.29,-230.75 1704.5,-160.17 1650,-120 1642.71,-114.62 1634.32,-110.16 1625.77,-106.49"/>
<polygon fill="#63b8ff" stroke="#63b8ff" points="1761.36,-266.64 1769.07,-273.92 1767.58,-263.43 1761.36,-266.64"/>
</g>
<!-- Node23 -->
<g id="node23" class="node">
<title>Node23</title>
<g id="a_node23"><a xlink:href="classQtGraphEdge.html#a564cf1b04f8fe00046521adf82491f4c" target="_top" xlink:title=" ">
<polygon fill="white" stroke="#666666" points="1641.5,-57.5 1495.5,-57.5 1495.5,-38.5 1641.5,-38.5 1641.5,-57.5"/>
<text text-anchor="middle" x="1568.5" y="-45.5" font-family="Helvetica,sans-Serif" font-size="10.00">QtGraphEdge::setDirection</text>
</a>
</g>
</g>
<!-- Node7&#45;&gt;Node23 -->
<g id="edge26" class="edge">
<title>Node7&#45;&gt;Node23</title>
<path fill="none" stroke="#63b8ff" d="M1768.85,-264.41C1755.77,-220.74 1719.1,-118.64 1650,-67 1645.05,-63.3 1639.5,-60.31 1633.68,-57.89"/>
<polygon fill="#63b8ff" stroke="#63b8ff" points="1765.44,-265.21 1771.57,-273.85 1772.17,-263.27 1765.44,-265.21"/>
</g>
<!-- Node24 -->
<g id="node24" class="node">
<title>Node24</title>
<g id="a_node24"><a xlink:href="classQtGraphEdge.html#a122281c1acda06d7e58c968e1bc65c46" target="_top" xlink:title=" ">
<polygon fill="white" stroke="#666666" points="1639,-406.5 1498,-406.5 1498,-387.5 1639,-387.5 1639,-406.5"/>
<text text-anchor="middle" x="1568.5" y="-394.5" font-family="Helvetica,sans-Serif" font-size="10.00">QtGraphEdge::setIsActive</text>
</a>
</g>
</g>
<!-- Node7&#45;&gt;Node24 -->
<g id="edge27" class="edge">
<title>Node7&#45;&gt;Node24</title>
<path fill="none" stroke="#63b8ff" d="M1756.07,-302.68C1733.07,-323.75 1691.68,-358.54 1650,-378 1642.19,-381.64 1633.62,-384.62 1625.08,-387.05"/>
<polygon fill="#63b8ff" stroke="#63b8ff" points="1758.45,-305.24 1763.37,-295.86 1753.67,-300.13 1758.45,-305.24"/>
</g>
<!-- Node25 -->
<g id="node25" class="node">
<title>Node25</title>
<g id="a_node25"><a xlink:href="classQtGraphEdge.html#ac61e60607bec124e2fc7cc87db3fb7c4" target="_top" xlink:title=" ">
<polygon fill="white" stroke="#666666" points="1650,-369.5 1487,-369.5 1487,-350.5 1650,-350.5 1650,-369.5"/>
<text text-anchor="middle" x="1568.5" y="-357.5" font-family="Helvetica,sans-Serif" font-size="10.00">QtGraphEdge::setIsCoFocused</text>
</a>
</g>
</g>
<!-- Node7&#45;&gt;Node25 -->
<g id="edge28" class="edge">
<title>Node7&#45;&gt;Node25</title>
<path fill="none" stroke="#63b8ff" d="M1745.37,-300.02C1720.54,-312.35 1683.63,-329.59 1650,-341 1639.94,-344.42 1628.97,-347.44 1618.45,-350.02"/>
<polygon fill="#63b8ff" stroke="#63b8ff" points="1746.84,-303.2 1754.2,-295.58 1743.69,-296.94 1746.84,-303.2"/>
</g>
<!-- Node26 -->
<g id="node26" class="node">
<title>Node26</title>
<g id="a_node26"><a xlink:href="classQtGraphEdge.html#a785cb8ecceedd73e72f63728786c6650" target="_top" xlink:title=" ">
<polygon fill="white" stroke="#666666" points="1643.5,-332.5 1493.5,-332.5 1493.5,-313.5 1643.5,-313.5 1643.5,-332.5"/>
<text text-anchor="middle" x="1568.5" y="-320.5" font-family="Helvetica,sans-Serif" font-size="10.00">QtGraphEdge::setIsFocused</text>
</a>
</g>
</g>
<!-- Node7&#45;&gt;Node26 -->
<g id="edge29" class="edge">
<title>Node7&#45;&gt;Node26</title>
<path fill="none" stroke="#63b8ff" d="M1709.44,-297.06C1681.71,-302.2 1649.74,-308.13 1623.36,-313.02"/>
<polygon fill="#63b8ff" stroke="#63b8ff" points="1709.96,-300.52 1719.15,-295.26 1708.68,-293.64 1709.96,-300.52"/>
</g>
<!-- Node9 -->
<g id="node9" class="node">
<title>Node9</title>
<g id="a_node9"><a xlink:href="classQtGraphEdge.html#a9029db7f76290bd97102f54be1fec3bc" target="_top" xlink:title=" ">
<polygon fill="white" stroke="#666666" points="1002.5,-292.5 834.5,-292.5 834.5,-273.5 1002.5,-273.5 1002.5,-292.5"/>
<text text-anchor="middle" x="918.5" y="-280.5" font-family="Helvetica,sans-Serif" font-size="10.00">QtGraphEdge::hoverEnterEvent</text>
</a>
</g>
</g>
<!-- Node8&#45;&gt;Node9 -->
<g id="edge8" class="edge">
<title>Node8&#45;&gt;Node9</title>
<path fill="none" stroke="#63b8ff" d="M1281.84,-284.65C1203.42,-284.29 1083.07,-283.74 1002.86,-283.38"/>
<polygon fill="#63b8ff" stroke="#63b8ff" points="1281.57,-288.14 1291.58,-284.69 1281.6,-281.14 1281.57,-288.14"/>
</g>
<!-- Node10&#45;&gt;Node9 -->
<g id="edge10" class="edge">
<title>Node10&#45;&gt;Node9</title>
<path fill="none" stroke="#63b8ff" d="M1505.54,-217.11C1407,-200.48 1209.2,-176.5 1048,-216 1002.55,-227.14 955.31,-257.46 932.87,-273.21"/>
<polygon fill="#63b8ff" stroke="#63b8ff" points="1504.83,-220.54 1515.28,-218.79 1506.02,-213.64 1504.83,-220.54"/>
</g>
<!-- Node11 -->
<g id="node11" class="node">
<title>Node11</title>
<g id="a_node11"><a xlink:href="classQtGraphEdge.html#a16fda9fe643d01b6f5b80e245a5c7dc7" target="_top" xlink:title=" ">
<polygon fill="white" stroke="#666666" points="1447,-181.5 1275,-181.5 1275,-162.5 1447,-162.5 1447,-181.5"/>
<text text-anchor="middle" x="1361" y="-169.5" font-family="Helvetica,sans-Serif" font-size="10.00">QtGraphEdge::hoverLeaveEvent</text>
</a>
</g>
</g>
<!-- Node10&#45;&gt;Node11 -->
<g id="edge11" class="edge">
<title>Node10&#45;&gt;Node11</title>
<path fill="none" stroke="#63b8ff" d="M1522.07,-215.99C1500.54,-209.86 1474.47,-202.49 1451,-196 1434.03,-191.31 1415.21,-186.22 1399.27,-181.94"/>
<polygon fill="#63b8ff" stroke="#63b8ff" points="1520.84,-219.28 1531.41,-218.65 1522.76,-212.54 1520.84,-219.28"/>
</g>
<!-- Node12 -->
<g id="node12" class="node">
<title>Node12</title>
<g id="a_node12"><a xlink:href="classQtGraphEdge.html#a56ac95dd27ce1080538b5993de7cd47c" target="_top" xlink:title=" ">
<polygon fill="white" stroke="#666666" points="1451,-257.5 1271,-257.5 1271,-238.5 1451,-238.5 1451,-257.5"/>
<text text-anchor="middle" x="1361" y="-245.5" font-family="Helvetica,sans-Serif" font-size="10.00">QtGraphEdge::unfocusBezierEdge</text>
</a>
</g>
</g>
<!-- Node10&#45;&gt;Node12 -->
<g id="edge12" class="edge">
<title>Node10&#45;&gt;Node12</title>
<path fill="none" stroke="#63b8ff" d="M1485.65,-236.57C1474.38,-237.61 1462.76,-238.68 1451.36,-239.74"/>
<polygon fill="#63b8ff" stroke="#63b8ff" points="1485.64,-240.08 1495.27,-235.68 1484.99,-233.11 1485.64,-240.08"/>
</g>
<!-- Node13 -->
<g id="node13" class="node">
<title>Node13</title>
<g id="a_node13"><a xlink:href="classQtGraphicsView.html#ab16ba79998d54a1feacec706cc56be6b" target="_top" xlink:title=" ">
<polygon fill="white" stroke="#666666" points="1222,-255 1061,-255 1061,-225 1222,-225 1222,-255"/>
<text text-anchor="start" x="1069" y="-243" font-family="Helvetica,sans-Serif" font-size="10.00">QtGraphicsView::mouseMove</text>
<text text-anchor="middle" x="1141.5" y="-232" font-family="Helvetica,sans-Serif" font-size="10.00">Event</text>
</a>
</g>
</g>
<!-- Node12&#45;&gt;Node13 -->
<g id="edge13" class="edge">
<title>Node12&#45;&gt;Node13</title>
<path fill="none" stroke="#63b8ff" d="M1259.31,-244.3C1246.97,-243.84 1234.48,-243.38 1222.5,-242.94"/>
<polygon fill="#63b8ff" stroke="#63b8ff" points="1258.96,-247.79 1269.08,-244.66 1259.22,-240.79 1258.96,-247.79"/>
</g>
<!-- Node15 -->
<g id="node15" class="node">
<title>Node15</title>
<g id="a_node15"><a xlink:href="classQtGraphView.html#aa066040429e23e79fde32586ca8625fe" target="_top" xlink:title=" ">
<polygon fill="white" stroke="#666666" points="360.5,-260 202.5,-260 202.5,-230 360.5,-230 360.5,-260"/>
<text text-anchor="start" x="210.5" y="-248" font-family="Helvetica,sans-Serif" font-size="10.00">QtGraphView::createBundled</text>
<text text-anchor="middle" x="281.5" y="-237" font-family="Helvetica,sans-Serif" font-size="10.00">EdgesEdge</text>
</a>
</g>
</g>
<!-- Node14&#45;&gt;Node15 -->
<g id="edge15" class="edge">
<title>Node14&#45;&gt;Node15</title>
<path fill="none" stroke="#63b8ff" d="M438.05,-214.18C413.98,-218.95 386.08,-224.47 360.61,-229.52"/>
<polygon fill="#63b8ff" stroke="#63b8ff" points="438.56,-217.64 447.69,-212.27 437.2,-210.78 438.56,-217.64"/>
</g>
<!-- Node16 -->
<g id="node16" class="node">
<title>Node16</title>
<g id="a_node16"><a xlink:href="classQtGraphView.html#a71858975a5b07059726b0337d19fe296" target="_top" xlink:title=" ">
<polygon fill="white" stroke="#666666" points="150,-297.5 0,-297.5 0,-278.5 150,-278.5 150,-297.5"/>
<text text-anchor="middle" x="75" y="-285.5" font-family="Helvetica,sans-Serif" font-size="10.00">QtGraphView::rebuildGraph</text>
</a>
</g>
</g>
<!-- Node14&#45;&gt;Node16 -->
<g id="edge17" class="edge">
<title>Node14&#45;&gt;Node16</title>
<path fill="none" stroke="#63b8ff" d="M417.96,-196.33C353.53,-194.35 262.08,-197.15 186,-221 146.74,-233.31 107.09,-262.54 87.89,-278"/>
<polygon fill="#63b8ff" stroke="#63b8ff" points="417.64,-199.82 427.76,-196.68 417.89,-192.82 417.64,-199.82"/>
</g>
<!-- Node15&#45;&gt;Node16 -->
<g id="edge16" class="edge">
<title>Node15&#45;&gt;Node16</title>
<path fill="none" stroke="#63b8ff" d="M195.73,-262.82C171.03,-268.02 144.93,-273.51 123.42,-278.03"/>
<polygon fill="#63b8ff" stroke="#63b8ff" points="196.41,-266.26 205.48,-260.77 194.97,-259.41 196.41,-266.26"/>
</g>
<!-- Node18 -->
<g id="node18" class="node">
<title>Node18</title>
<g id="a_node18"><a xlink:href="classQtGraphNode.html#ab338c9bff514ee4280727bf3800ddac8" target="_top" xlink:title=" ">
<polygon fill="white" stroke="#666666" points="1432.5,-83.5 1289.5,-83.5 1289.5,-64.5 1432.5,-64.5 1432.5,-83.5"/>
<text text-anchor="middle" x="1361" y="-71.5" font-family="Helvetica,sans-Serif" font-size="10.00">QtGraphNode::setPosition</text>
</a>
</g>
</g>
<!-- Node17&#45;&gt;Node18 -->
<g id="edge19" class="edge">
<title>Node17&#45;&gt;Node18</title>
<path fill="none" stroke="#63b8ff" d="M1484,-84.09C1467,-82.69 1449.27,-81.22 1432.76,-79.85"/>
<polygon fill="#63b8ff" stroke="#63b8ff" points="1483.29,-87.55 1493.54,-84.88 1483.86,-80.57 1483.29,-87.55"/>
</g>
<!-- Node19 -->
<g id="node19" class="node">
<title>Node19</title>
<g id="a_node19"><a xlink:href="classQtGraphView.html#a73d2ab3023aa99d0219f62fbeafbda20" target="_top" xlink:title=" ">
<polygon fill="white" stroke="#666666" points="377,-132.5 186,-132.5 186,-113.5 377,-113.5 377,-132.5"/>
<text text-anchor="middle" x="281.5" y="-120.5" font-family="Helvetica,sans-Serif" font-size="10.00">QtGraphView::createNodeRecursive</text>
</a>
</g>
</g>
<!-- Node18&#45;&gt;Node19 -->
<g id="edge20" class="edge">
<title>Node18&#45;&gt;Node19</title>
<path fill="none" stroke="#63b8ff" d="M1277.8,-80.56C1189.37,-87.04 1044.57,-96 919.5,-96 919.5,-96 919.5,-96 705.5,-96 592.54,-96 462.97,-105.71 377.31,-113.48"/>
<polygon fill="#63b8ff" stroke="#63b8ff" points="1277.88,-84.06 1287.59,-79.83 1277.36,-77.08 1277.88,-84.06"/>
</g>
<!-- Node20 -->
<g id="node20" class="node">
<title>Node20</title>
<g id="a_node20"><a xlink:href="classQtGraphNode.html#a7df151eeb6979bab719f5a11c350035d" target="_top" xlink:title=" ">
<polygon fill="white" stroke="#666666" points="1202.5,-67.5 1080.5,-67.5 1080.5,-48.5 1202.5,-48.5 1202.5,-67.5"/>
<text text-anchor="middle" x="1141.5" y="-55.5" font-family="Helvetica,sans-Serif" font-size="10.00">QtGraphNode::moved</text>
</a>
</g>
</g>
<!-- Node18&#45;&gt;Node20 -->
<g id="edge23" class="edge">
<title>Node18&#45;&gt;Node20</title>
<path fill="none" stroke="#63b8ff" d="M1277.79,-67.95C1252.86,-66.12 1225.95,-64.14 1202.75,-62.43"/>
<polygon fill="#63b8ff" stroke="#63b8ff" points="1277.34,-71.43 1287.57,-68.67 1277.86,-64.45 1277.34,-71.43"/>
</g>
<!-- Node22 -->
<g id="node22" class="node">
<title>Node22</title>
<g id="a_node22"><a xlink:href="classQtGraphNodeComponentMoveable.html#afd713e432f4724846ca48f2b87ae11ec" target="_top" xlink:title=" ">
<polygon fill="white" stroke="#666666" points="1235,-30 1048,-30 1048,0 1235,0 1235,-30"/>
<text text-anchor="start" x="1056" y="-18" font-family="Helvetica,sans-Serif" font-size="10.00">QtGraphNodeComponentMoveable</text>
<text text-anchor="middle" x="1141.5" y="-7" font-family="Helvetica,sans-Serif" font-size="10.00">::nodeMouseMoveEvent</text>
</a>
</g>
</g>
<!-- Node18&#45;&gt;Node22 -->
<g id="edge25" class="edge">
<title>Node18&#45;&gt;Node22</title>
<path fill="none" stroke="#63b8ff" d="M1314.26,-60.97C1290.62,-54.29 1261.3,-46.09 1235,-39 1224.59,-36.19 1213.5,-33.26 1202.75,-30.45"/>
<polygon fill="#63b8ff" stroke="#63b8ff" points="1313,-64.25 1323.57,-63.6 1314.9,-57.51 1313,-64.25"/>
</g>
<!-- Node19&#45;&gt;Node16 -->
<g id="edge22" class="edge">
<title>Node19&#45;&gt;Node16</title>
<path fill="none" stroke="#63b8ff" d="M255.01,-139.18C235.6,-151.82 208.49,-170.18 186,-188 147.16,-218.78 104.71,-259.64 85.91,-278.15"/>
<polygon fill="#63b8ff" stroke="#63b8ff" points="256.88,-142.14 263.38,-133.78 253.08,-136.26 256.88,-142.14"/>
</g>
<!-- Node19&#45;&gt;Node19 -->
<g id="edge21" class="edge">
<title>Node19&#45;&gt;Node19</title>
<path fill="none" stroke="#63b8ff" d="M319.16,-142.92C315.61,-147.3 303.05,-150.5 281.5,-150.5 245.2,-150.5 234.42,-141.44 249.17,-132.87"/>
<polygon fill="#63b8ff" stroke="#63b8ff" points="322.32,-141.4 314.54,-134.2 316.14,-144.68 322.32,-141.4"/>
</g>
<!-- Node21 -->
<g id="node21" class="node">
<title>Node21</title>
<g id="a_node21"><a xlink:href="classQtGraphNodeComponentMoveable.html#a0df2a775e898e86c069ad0fb49413769" target="_top" xlink:title=" ">
<polygon fill="white" stroke="#666666" points="1012,-68 825,-68 825,-38 1012,-38 1012,-68"/>
<text text-anchor="start" x="833" y="-56" font-family="Helvetica,sans-Serif" font-size="10.00">QtGraphNodeComponentMoveable</text>
<text text-anchor="middle" x="918.5" y="-45" font-family="Helvetica,sans-Serif" font-size="10.00">::nodeMouseReleaseEvent</text>
</a>
</g>
</g>
<!-- Node20&#45;&gt;Node21 -->
<g id="edge24" class="edge">
<title>Node20&#45;&gt;Node21</title>
<path fill="none" stroke="#63b8ff" d="M1068.8,-56.38C1050.74,-55.97 1031.11,-55.53 1012.18,-55.1"/>
<polygon fill="#63b8ff" stroke="#63b8ff" points="1068.52,-59.87 1078.6,-56.6 1068.68,-52.87 1068.52,-59.87"/>
</g>
<!-- Node27 -->
<g id="node27" class="node">
<title>Node27</title>
<g id="a_node27"><a xlink:href="classGraphFocusHandler.html#a4653bb85bb8c819d6cbf63165ffc48a6" target="_top" xlink:title=" ">
<polygon fill="white" stroke="#666666" points="1420,-427 1302,-427 1302,-397 1420,-397 1420,-427"/>
<text text-anchor="start" x="1310" y="-415" font-family="Helvetica,sans-Serif" font-size="10.00">GraphFocusHandler::</text>
<text text-anchor="middle" x="1361" y="-404" font-family="Helvetica,sans-Serif" font-size="10.00">defocusGraph</text>
</a>
</g>
</g>
<!-- Node26&#45;&gt;Node27 -->
<g id="edge30" class="edge">
<title>Node26&#45;&gt;Node27</title>
<path fill="none" stroke="#63b8ff" d="M1493.82,-337.33C1491.47,-338.46 1489.19,-339.68 1487,-341 1465.93,-353.66 1471.45,-369.35 1451,-383 1441.67,-389.23 1430.91,-394.2 1420.16,-398.15"/>
<polygon fill="#63b8ff" stroke="#63b8ff" points="1495.14,-340.57 1503.03,-333.49 1492.45,-334.1 1495.14,-340.57"/>
</g>
<!-- Node28 -->
<g id="node28" class="node">
<title>Node28</title>
<g id="a_node28"><a xlink:href="classGraphFocusHandler.html#a21becae068ca09cf53afec45b1c097eb" target="_top" xlink:title=" ">
<polygon fill="white" stroke="#666666" points="1200.5,-341 1082.5,-341 1082.5,-311 1200.5,-311 1200.5,-341"/>
<text text-anchor="start" x="1090.5" y="-329" font-family="Helvetica,sans-Serif" font-size="10.00">GraphFocusHandler::</text>
<text text-anchor="middle" x="1141.5" y="-318" font-family="Helvetica,sans-Serif" font-size="10.00">focusEdge</text>
</a>
</g>
</g>
<!-- Node26&#45;&gt;Node28 -->
<g id="edge62" class="edge">
<title>Node26&#45;&gt;Node28</title>
<path fill="none" stroke="#63b8ff" d="M1481.96,-323.6C1398.36,-324.19 1273.37,-325.08 1200.68,-325.59"/>
<polygon fill="#63b8ff" stroke="#63b8ff" points="1481.98,-327.1 1491.96,-323.53 1481.93,-320.1 1481.98,-327.1"/>
</g>
<!-- Node41 -->
<g id="node41" class="node">
<title>Node41</title>
<g id="a_node41"><a xlink:href="classGraphFocusHandler.html#a23bde4bc06de32d23cf858fc56532b0f" target="_top" xlink:title=" ">
<polygon fill="white" stroke="#666666" points="765.5,-379 647.5,-379 647.5,-349 765.5,-349 765.5,-379"/>
<text text-anchor="start" x="655.5" y="-367" font-family="Helvetica,sans-Serif" font-size="10.00">GraphFocusHandler::</text>
<text text-anchor="middle" x="706.5" y="-356" font-family="Helvetica,sans-Serif" font-size="10.00">focus</text>
</a>
</g>
</g>
<!-- Node26&#45;&gt;Node41 -->
<g id="edge61" class="edge">
<title>Node26&#45;&gt;Node41</title>
<path fill="none" stroke="#63b8ff" d="M1490.95,-334.46C1477.65,-336.18 1463.94,-337.78 1451,-339 1196.72,-362.89 891.64,-364.79 765.97,-364.42"/>
<polygon fill="#63b8ff" stroke="#63b8ff" points="1491.04,-337.98 1500.5,-333.2 1490.12,-331.04 1491.04,-337.98"/>
</g>
<!-- Node27&#45;&gt;Node28 -->
<g id="edge31" class="edge">
<title>Node27&#45;&gt;Node28</title>
<path fill="none" stroke="#63b8ff" d="M1310.27,-392.34C1271.26,-376.91 1217.7,-355.74 1181.69,-341.49"/>
<polygon fill="#63b8ff" stroke="#63b8ff" points="1308.87,-395.55 1319.46,-395.97 1311.44,-389.04 1308.87,-395.55"/>
</g>
<!-- Node30 -->
<g id="node30" class="node">
<title>Node30</title>
<g id="a_node30"><a xlink:href="classGraphFocusHandler.html#ad9e00608dea5cea39a86af20cde71c8f" target="_top" xlink:title=" ">
<polygon fill="white" stroke="#666666" points="1200.5,-430 1082.5,-430 1082.5,-400 1200.5,-400 1200.5,-430"/>
<text text-anchor="start" x="1090.5" y="-418" font-family="Helvetica,sans-Serif" font-size="10.00">GraphFocusHandler::</text>
<text text-anchor="middle" x="1141.5" y="-407" font-family="Helvetica,sans-Serif" font-size="10.00">focusNode</text>
</a>
</g>
</g>
<!-- Node27&#45;&gt;Node30 -->
<g id="edge36" class="edge">
<title>Node27&#45;&gt;Node30</title>
<path fill="none" stroke="#63b8ff" d="M1290.47,-412.96C1261.62,-413.36 1228.52,-413.81 1200.95,-414.19"/>
<polygon fill="#63b8ff" stroke="#63b8ff" points="1290.25,-416.46 1300.2,-412.82 1290.15,-409.46 1290.25,-416.46"/>
</g>
<!-- Node28&#45;&gt;Node5 -->
<g id="edge32" class="edge">
<title>Node28&#45;&gt;Node5</title>
<path fill="none" stroke="#63b8ff" d="M1105.12,-347.45C1087.1,-359.2 1065.38,-374.67 1048,-391 1029.33,-408.54 1033.49,-422.07 1012,-436 1001.7,-442.68 989.62,-447.5 977.66,-450.98"/>
<polygon fill="#63b8ff" stroke="#63b8ff" points="1106.89,-350.47 1113.43,-342.14 1103.12,-344.58 1106.89,-350.47"/>
</g>
<!-- Node28&#45;&gt;Node9 -->
<g id="edge35" class="edge">
<title>Node28&#45;&gt;Node9</title>
<path fill="none" stroke="#63b8ff" d="M1070.91,-312.46C1038.42,-306.14 1000.44,-298.75 970.65,-292.95"/>
<polygon fill="#63b8ff" stroke="#63b8ff" points="1070.18,-315.88 1080.66,-314.36 1071.51,-309.01 1070.18,-315.88"/>
</g>
<!-- Node29 -->
<g id="node29" class="node">
<title>Node29</title>
<g id="a_node29"><a xlink:href="classGraphFocusHandler.html#a33039041d05ba7b34e10115aad175afd" target="_top" xlink:title=" ">
<polygon fill="white" stroke="#666666" points="977.5,-341 859.5,-341 859.5,-311 977.5,-311 977.5,-341"/>
<text text-anchor="start" x="867.5" y="-329" font-family="Helvetica,sans-Serif" font-size="10.00">GraphFocusHandler::</text>
<text text-anchor="middle" x="918.5" y="-318" font-family="Helvetica,sans-Serif" font-size="10.00">focusTokenId</text>
</a>
</g>
</g>
<!-- Node28&#45;&gt;Node29 -->
<g id="edge33" class="edge">
<title>Node28&#45;&gt;Node29</title>
<path fill="none" stroke="#63b8ff" d="M1070.92,-326C1040.98,-326 1006.37,-326 977.8,-326"/>
<polygon fill="#63b8ff" stroke="#63b8ff" points="1070.63,-329.5 1080.63,-326 1070.63,-322.5 1070.63,-329.5"/>
</g>
<!-- Node29&#45;&gt;Node16 -->
<g id="edge34" class="edge">
<title>Node29&#45;&gt;Node16</title>
<path fill="none" stroke="#63b8ff" d="M848,-321.58C781.33,-317.43 677.82,-311.26 588,-307 432.29,-299.62 249.83,-293.44 150.21,-290.28"/>
<polygon fill="#63b8ff" stroke="#63b8ff" points="847.48,-325.05 857.68,-322.18 847.92,-318.07 847.48,-325.05"/>
</g>
<!-- Node30&#45;&gt;Node5 -->
<g id="edge59" class="edge">
<title>Node30&#45;&gt;Node5</title>
<path fill="none" stroke="#63b8ff" d="M1070.92,-429.17C1040.98,-435.26 1006.37,-442.31 977.8,-448.13"/>
<polygon fill="#63b8ff" stroke="#63b8ff" points="1071.56,-432.61 1080.66,-427.18 1070.17,-425.75 1071.56,-432.61"/>
</g>
<!-- Node30&#45;&gt;Node29 -->
<g id="edge60" class="edge">
<title>Node30&#45;&gt;Node29</title>
<path fill="none" stroke="#63b8ff" d="M1091.59,-395.3C1051.21,-379.04 994.73,-356.3 957.64,-341.36"/>
<polygon fill="#63b8ff" stroke="#63b8ff" points="1090.27,-398.54 1100.85,-399.03 1092.88,-392.05 1090.27,-398.54"/>
</g>
<!-- Node31 -->
<g id="node31" class="node">
<title>Node31</title>
<g id="a_node31"><a xlink:href="classGraphFocusHandler.html#a04e324a475dc9c18066bc54857727ad6" target="_top" xlink:title=" ">
<polygon fill="white" stroke="#666666" points="977.5,-620 859.5,-620 859.5,-590 977.5,-590 977.5,-620"/>
<text text-anchor="start" x="867.5" y="-608" font-family="Helvetica,sans-Serif" font-size="10.00">GraphFocusHandler::</text>
<text text-anchor="middle" x="918.5" y="-597" font-family="Helvetica,sans-Serif" font-size="10.00">defocusNode</text>
</a>
</g>
</g>
<!-- Node30&#45;&gt;Node31 -->
<g id="edge37" class="edge">
<title>Node30&#45;&gt;Node31</title>
<path fill="none" stroke="#63b8ff" d="M1120.67,-438.9C1096.69,-466.97 1054.26,-514.01 1012,-548 992.16,-563.96 967.52,-578.94 948.66,-589.53"/>
<polygon fill="#63b8ff" stroke="#63b8ff" points="1123.31,-441.21 1127.09,-431.31 1117.96,-436.69 1123.31,-441.21"/>
</g>
<!-- Node37 -->
<g id="node37" class="node">
<title>Node37</title>
<g id="a_node37"><a xlink:href="classQtGraphNode.html#a96dfaf23a65835ca4f0b675c0fbf4885" target="_top" xlink:title=" ">
<polygon fill="white" stroke="#666666" points="980.5,-538.5 856.5,-538.5 856.5,-519.5 980.5,-519.5 980.5,-538.5"/>
<text text-anchor="middle" x="918.5" y="-526.5" font-family="Helvetica,sans-Serif" font-size="10.00">QtGraphNode::focusIn</text>
</a>
</g>
</g>
<!-- Node30&#45;&gt;Node37 -->
<g id="edge43" class="edge">
<title>Node30&#45;&gt;Node37</title>
<path fill="none" stroke="#63b8ff" d="M1102.61,-435.86C1077.13,-449.76 1042.71,-468.29 1012,-484 987.67,-496.44 959.38,-510.09 940.56,-519.05"/>
<polygon fill="#63b8ff" stroke="#63b8ff" points="1104.17,-438.99 1111.27,-431.13 1100.81,-432.85 1104.17,-438.99"/>
</g>
<!-- Node40 -->
<g id="node40" class="node">
<title>Node40</title>
<g id="a_node40"><a xlink:href="classGraphFocusHandler.html#a66e8d64d3989ef7114126c6abd7cf838" target="_top" xlink:title=" ">
<polygon fill="white" stroke="#666666" points="977.5,-427 859.5,-427 859.5,-397 977.5,-397 977.5,-427"/>
<text text-anchor="start" x="867.5" y="-415" font-family="Helvetica,sans-Serif" font-size="10.00">GraphFocusHandler::</text>
<text text-anchor="middle" x="918.5" y="-404" font-family="Helvetica,sans-Serif" font-size="10.00">focusInitialNode</text>
</a>
</g>
</g>
<!-- Node30&#45;&gt;Node40 -->
<g id="edge47" class="edge">
<title>Node30&#45;&gt;Node40</title>
<path fill="none" stroke="#63b8ff" d="M1070.92,-414.06C1040.98,-413.65 1006.37,-413.18 977.8,-412.79"/>
<polygon fill="#63b8ff" stroke="#63b8ff" points="1070.59,-417.55 1080.63,-414.19 1070.68,-410.55 1070.59,-417.55"/>
</g>
<!-- Node32 -->
<g id="node32" class="node">
<title>Node32</title>
<g id="a_node32"><a xlink:href="classQtGraphNode.html#a0f478eb6e3e908e82b8d1df909e02275" target="_top" xlink:title=" ">
<polygon fill="white" stroke="#666666" points="772.5,-648.5 640.5,-648.5 640.5,-629.5 772.5,-629.5 772.5,-648.5"/>
<text text-anchor="middle" x="706.5" y="-636.5" font-family="Helvetica,sans-Serif" font-size="10.00">QtGraphNode::focusOut</text>
</a>
</g>
</g>
<!-- Node31&#45;&gt;Node32 -->
<g id="edge38" class="edge">
<title>Node31&#45;&gt;Node32</title>
<path fill="none" stroke="#63b8ff" d="M847.91,-616.27C822.4,-620.4 793.73,-625.04 768.98,-629.05"/>
<polygon fill="#63b8ff" stroke="#63b8ff" points="848.2,-619.77 857.51,-614.71 847.08,-612.86 848.2,-619.77"/>
</g>
<!-- Node33 -->
<g id="node33" class="node">
<title>Node33</title>
<g id="a_node33"><a xlink:href="classQtGraphNodeBundle.html#acce23e4e976bee96c82d0fe4bf4bce5b" target="_top" xlink:title=" ">
<polygon fill="white" stroke="#666666" points="561.5,-705 439.5,-705 439.5,-675 561.5,-675 561.5,-705"/>
<text text-anchor="start" x="447.5" y="-693" font-family="Helvetica,sans-Serif" font-size="10.00">QtGraphNodeBundle::</text>
<text text-anchor="middle" x="500.5" y="-682" font-family="Helvetica,sans-Serif" font-size="10.00">hoverLeaveEvent</text>
</a>
</g>
</g>
<!-- Node32&#45;&gt;Node33 -->
<g id="edge39" class="edge">
<title>Node32&#45;&gt;Node33</title>
<path fill="none" stroke="#63b8ff" d="M654.85,-651.66C626.64,-658.71 591.34,-667.54 561.72,-674.94"/>
<polygon fill="#63b8ff" stroke="#63b8ff" points="655.36,-655.14 664.21,-649.32 653.66,-648.35 655.36,-655.14"/>
</g>
<!-- Node34 -->
<g id="node34" class="node">
<title>Node34</title>
<g id="a_node34"><a xlink:href="classQtGraphNodeData.html#adefe516d187f495e248f7396ca6857b2" target="_top" xlink:title=" ">
<polygon fill="white" stroke="#666666" points="585,-657 416,-657 416,-627 585,-627 585,-657"/>
<text text-anchor="start" x="424" y="-645" font-family="Helvetica,sans-Serif" font-size="10.00">QtGraphNodeData::hoverLeave</text>
<text text-anchor="middle" x="500.5" y="-634" font-family="Helvetica,sans-Serif" font-size="10.00">Event</text>
</a>
</g>
</g>
<!-- Node32&#45;&gt;Node34 -->
<g id="edge40" class="edge">
<title>Node32&#45;&gt;Node34</title>
<path fill="none" stroke="#63b8ff" d="M628.85,-640.13C614.59,-640.34 599.63,-640.56 585.17,-640.77"/>
<polygon fill="#63b8ff" stroke="#63b8ff" points="628.65,-643.63 638.6,-639.98 628.55,-636.63 628.65,-643.63"/>
</g>
<!-- Node35 -->
<g id="node35" class="node">
<title>Node35</title>
<g id="a_node35"><a xlink:href="classQtGraphNodeGroup.html#aa0267d441ff8baa00c50db4fc044d7c0" target="_top" xlink:title=" ">
<polygon fill="white" stroke="#666666" points="588,-609 413,-609 413,-579 588,-579 588,-609"/>
<text text-anchor="start" x="421" y="-597" font-family="Helvetica,sans-Serif" font-size="10.00">QtGraphNodeGroup::hoverLeave</text>
<text text-anchor="middle" x="500.5" y="-586" font-family="Helvetica,sans-Serif" font-size="10.00">Event</text>
</a>
</g>
</g>
<!-- Node32&#45;&gt;Node35 -->
<g id="edge41" class="edge">
<title>Node32&#45;&gt;Node35</title>
<path fill="none" stroke="#63b8ff" d="M649.16,-626.57C625.13,-621.27 596.85,-615.03 571.5,-609.44"/>
<polygon fill="#63b8ff" stroke="#63b8ff" points="648.23,-629.95 658.75,-628.69 649.74,-623.11 648.23,-629.95"/>
</g>
<!-- Node36 -->
<g id="node36" class="node">
<title>Node36</title>
<g id="a_node36"><a xlink:href="classQtGraphNodeGroup.html#a1686bcf376f64191ae312842e178dfa0" target="_top" xlink:title=" ">
<polygon fill="white" stroke="#666666" points="368,-587 195,-587 195,-557 368,-557 368,-587"/>
<text text-anchor="start" x="203" y="-575" font-family="Helvetica,sans-Serif" font-size="10.00">QtGraphNodeGroup::hoverMove</text>
<text text-anchor="middle" x="281.5" y="-564" font-family="Helvetica,sans-Serif" font-size="10.00">Event</text>
</a>
</g>
</g>
<!-- Node35&#45;&gt;Node36 -->
<g id="edge42" class="edge">
<title>Node35&#45;&gt;Node36</title>
<path fill="none" stroke="#63b8ff" d="M401.39,-584.05C390.37,-582.94 379.2,-581.8 368.35,-580.7"/>
<polygon fill="#63b8ff" stroke="#63b8ff" points="400.99,-587.53 411.29,-585.06 401.7,-580.57 400.99,-587.53"/>
</g>
<!-- Node37&#45;&gt;Node36 -->
<g id="edge46" class="edge">
<title>Node37&#45;&gt;Node36</title>
<path fill="none" stroke="#63b8ff" d="M844.63,-533.93C726.6,-541.93 494.13,-557.67 368.29,-566.19"/>
<polygon fill="#63b8ff" stroke="#63b8ff" points="844.79,-537.43 854.53,-533.26 844.31,-530.45 844.79,-537.43"/>
</g>
<!-- Node38 -->
<g id="node38" class="node">
<title>Node38</title>
<g id="a_node38"><a xlink:href="classQtGraphNodeBundle.html#a1b9c345c26f03f1c081deadeee3e71c4" target="_top" xlink:title=" ">
<polygon fill="white" stroke="#666666" points="767.5,-523 645.5,-523 645.5,-493 767.5,-493 767.5,-523"/>
<text text-anchor="start" x="653.5" y="-511" font-family="Helvetica,sans-Serif" font-size="10.00">QtGraphNodeBundle::</text>
<text text-anchor="middle" x="706.5" y="-500" font-family="Helvetica,sans-Serif" font-size="10.00">hoverEnterEvent</text>
</a>
</g>
</g>
<!-- Node37&#45;&gt;Node38 -->
<g id="edge44" class="edge">
<title>Node37&#45;&gt;Node38</title>
<path fill="none" stroke="#63b8ff" d="M844.86,-521.74C819.72,-519.22 791.83,-516.43 767.79,-514.03"/>
<polygon fill="#63b8ff" stroke="#63b8ff" points="844.39,-525.21 854.69,-522.72 845.09,-518.24 844.39,-525.21"/>
</g>
<!-- Node39 -->
<g id="node39" class="node">
<title>Node39</title>
<g id="a_node39"><a xlink:href="classQtGraphNodeData.html#a6e42e0e293fe837eafbc1425675bdc3b" target="_top" xlink:title=" ">
<polygon fill="white" stroke="#666666" points="789,-609 624,-609 624,-579 789,-579 789,-609"/>
<text text-anchor="start" x="632" y="-597" font-family="Helvetica,sans-Serif" font-size="10.00">QtGraphNodeData::hoverEnter</text>
<text text-anchor="middle" x="706.5" y="-586" font-family="Helvetica,sans-Serif" font-size="10.00">Event</text>
</a>
</g>
</g>
<!-- Node37&#45;&gt;Node39 -->
<g id="edge45" class="edge">
<title>Node37&#45;&gt;Node39</title>
<path fill="none" stroke="#63b8ff" d="M874.63,-542.27C840.61,-552.8 793.02,-567.53 757.31,-578.58"/>
<polygon fill="#63b8ff" stroke="#63b8ff" points="875.64,-545.62 884.16,-539.32 873.57,-538.93 875.64,-545.62"/>
</g>
<!-- Node40&#45;&gt;Node41 -->
<g id="edge48" class="edge">
<title>Node40&#45;&gt;Node41</title>
<path fill="none" stroke="#63b8ff" d="M847.82,-396.07C821.19,-389.99 791.13,-383.12 765.68,-377.3"/>
<polygon fill="#63b8ff" stroke="#63b8ff" points="847,-399.48 857.53,-398.29 848.56,-392.65 847,-399.48"/>
</g>
<!-- Node44 -->
<g id="node44" class="node">
<title>Node44</title>
<g id="a_node44"><a xlink:href="classQtGraphView.html#a0e0e64b352f8e05561b94d64f3711a28" target="_top" xlink:title=" ">
<polygon fill="white" stroke="#666666" points="782,-427 631,-427 631,-397 782,-397 782,-427"/>
<text text-anchor="start" x="639" y="-415" font-family="Helvetica,sans-Serif" font-size="10.00">QtGraphView::switchToNew</text>
<text text-anchor="middle" x="706.5" y="-404" font-family="Helvetica,sans-Serif" font-size="10.00">GraphData</text>
</a>
</g>
</g>
<!-- Node40&#45;&gt;Node44 -->
<g id="edge51" class="edge">
<title>Node40&#45;&gt;Node44</title>
<path fill="none" stroke="#63b8ff" d="M847.59,-412C826.6,-412 803.5,-412 782.21,-412"/>
<polygon fill="#63b8ff" stroke="#63b8ff" points="847.49,-415.5 857.49,-412 847.49,-408.5 847.49,-415.5"/>
</g>
<!-- Node42 -->
<g id="node42" class="node">
<title>Node42</title>
<g id="a_node42"><a xlink:href="classQtGraphView.html#afa4f1dc16083ae82a4f428085cbbbdce" target="_top" xlink:title=" ">
<polygon fill="white" stroke="#666666" points="578,-346 423,-346 423,-316 578,-316 578,-346"/>
<text text-anchor="start" x="431" y="-334" font-family="Helvetica,sans-Serif" font-size="10.00">QtGraphView::setNavigation</text>
<text text-anchor="middle" x="500.5" y="-323" font-family="Helvetica,sans-Serif" font-size="10.00">Focus</text>
</a>
</g>
</g>
<!-- Node41&#45;&gt;Node42 -->
<g id="edge49" class="edge">
<title>Node41&#45;&gt;Node42</title>
<path fill="none" stroke="#63b8ff" d="M635.74,-352.72C617.22,-349.72 597.11,-346.47 578.24,-343.41"/>
<polygon fill="#63b8ff" stroke="#63b8ff" points="635.12,-356.16 645.55,-354.3 636.23,-349.25 635.12,-356.16"/>
</g>
<!-- Node43 -->
<g id="node43" class="node">
<title>Node43</title>
<g id="a_node43"><a xlink:href="classQtGraphView.html#ad62e4097c2649e7e7ce879278132d4cb" target="_top" xlink:title=" ">
<polygon fill="white" stroke="#666666" points="357.5,-335.5 205.5,-335.5 205.5,-316.5 357.5,-316.5 357.5,-335.5"/>
<text text-anchor="middle" x="281.5" y="-323.5" font-family="Helvetica,sans-Serif" font-size="10.00">QtGraphView::QtGraphView</text>
</a>
</g>
</g>
<!-- Node42&#45;&gt;Node43 -->
<g id="edge50" class="edge">
<title>Node42&#45;&gt;Node43</title>
<path fill="none" stroke="#63b8ff" d="M411.42,-328.97C393.62,-328.56 375.06,-328.13 357.75,-327.73"/>
<polygon fill="#63b8ff" stroke="#63b8ff" points="411.1,-332.46 421.18,-329.2 411.26,-325.47 411.1,-332.46"/>
</g>
<!-- Node44&#45;&gt;Node16 -->
<g id="edge58" class="edge">
<title>Node44&#45;&gt;Node16</title>
<path fill="none" stroke="#63b8ff" d="M624.61,-429.71C497.92,-455.68 259.58,-496.9 186,-457 120.45,-421.45 87.83,-328.06 78.72,-297.69"/>
<polygon fill="#63b8ff" stroke="#63b8ff" points="625.2,-433.16 634.28,-427.71 623.78,-426.31 625.2,-433.16"/>
</g>
<!-- Node45 -->
<g id="node45" class="node">
<title>Node45</title>
<g id="a_node45"><a xlink:href="classQtGraphView.html#a226a73962b96aed00b9cecab82c8dba1" target="_top" xlink:title=" ">
<polygon fill="white" stroke="#666666" points="364.5,-372.5 198.5,-372.5 198.5,-353.5 364.5,-353.5 364.5,-372.5"/>
<text text-anchor="middle" x="281.5" y="-360.5" font-family="Helvetica,sans-Serif" font-size="10.00">QtGraphView::createTransition</text>
</a>
</g>
</g>
<!-- Node44&#45;&gt;Node45 -->
<g id="edge52" class="edge">
<title>Node44&#45;&gt;Node45</title>
<path fill="none" stroke="#63b8ff" d="M619.33,-397.43C608.79,-395.84 598.16,-394.32 588,-393 512.69,-383.22 426.56,-375.04 364.99,-369.7"/>
<polygon fill="#63b8ff" stroke="#63b8ff" points="618.79,-400.89 629.2,-398.96 619.85,-393.97 618.79,-400.89"/>
</g>
<!-- Node46 -->
<g id="node46" class="node">
<title>Node46</title>
<g id="a_node46"><a xlink:href="classQtGraphView.html#a1c25190e97e9022d070d506c19d16f75" target="_top" xlink:title=" ">
<polygon fill="white" stroke="#666666" points="587.5,-421.5 413.5,-421.5 413.5,-402.5 587.5,-402.5 587.5,-421.5"/>
<text text-anchor="middle" x="500.5" y="-409.5" font-family="Helvetica,sans-Serif" font-size="10.00">QtGraphView::finishedTransition</text>
</a>
</g>
</g>
<!-- Node44&#45;&gt;Node46 -->
<g id="edge54" class="edge">
<title>Node44&#45;&gt;Node46</title>
<path fill="none" stroke="#63b8ff" d="M619.42,-412C608.92,-412 598.19,-412 587.69,-412"/>
<polygon fill="#63b8ff" stroke="#63b8ff" points="619.18,-415.5 629.18,-412 619.18,-408.5 619.18,-415.5"/>
</g>
<!-- Node45&#45;&gt;Node16 -->
<g id="edge53" class="edge">
<title>Node45&#45;&gt;Node16</title>
<path fill="none" stroke="#63b8ff" d="M207.3,-350.36C200.03,-348.49 192.82,-346.37 186,-344 150.78,-331.75 112.62,-310.28 91.79,-297.79"/>
<polygon fill="#63b8ff" stroke="#63b8ff" points="206.33,-353.72 216.87,-352.66 207.97,-346.92 206.33,-353.72"/>
</g>
<!-- Node46&#45;&gt;Node16 -->
<g id="edge57" class="edge">
<title>Node46&#45;&gt;Node16</title>
<path fill="none" stroke="#63b8ff" d="M402.03,-417.05C338.22,-416.88 254.31,-409.9 186,-381 140.86,-361.9 100.36,-317.53 83.86,-297.78"/>
<polygon fill="#63b8ff" stroke="#63b8ff" points="401.8,-420.55 411.79,-417.02 401.77,-413.55 401.8,-420.55"/>
</g>
<!-- Node46&#45;&gt;Node45 -->
<g id="edge56" class="edge">
<title>Node46&#45;&gt;Node45</title>
<path fill="none" stroke="#63b8ff" d="M444.37,-399.55C407.86,-391.31 360.62,-380.64 326.61,-372.96"/>
<polygon fill="#63b8ff" stroke="#63b8ff" points="443.32,-402.9 453.85,-401.69 444.87,-396.07 443.32,-402.9"/>
</g>
<!-- Node47 -->
<g id="node47" class="node">
<title>Node47</title>
<g id="a_node47"><a xlink:href="classQtGraphView.html#a22c7370507ab74241d6d1f7df1ffccbd" target="_top" xlink:title=" ">
<polygon fill="white" stroke="#666666" points="357,-448.5 206,-448.5 206,-429.5 357,-429.5 357,-448.5"/>
<text text-anchor="middle" x="281.5" y="-436.5" font-family="Helvetica,sans-Serif" font-size="10.00">QtGraphView::activateEdge</text>
</a>
</g>
</g>
<!-- Node46&#45;&gt;Node47 -->
<g id="edge55" class="edge">
<title>Node46&#45;&gt;Node47</title>
<path fill="none" stroke="#63b8ff" d="M408.26,-423.35C391.29,-425.46 373.73,-427.65 357.32,-429.69"/>
<polygon fill="#63b8ff" stroke="#63b8ff" points="408.32,-426.87 417.81,-422.16 407.46,-419.93 408.32,-426.87"/>
</g>
</g>
</svg>
        <g id="navigator" transform="translate(0 0)" fill="#404254">
                <rect fill="#f2f5e9" fill-opacity="0.5" stroke="#606060" stroke-width=".5" x="0" y="0" width="60" height="60"/>
                <use id="zoomplus" xlink:href="#zoomPlus" x="17" y="9" onmousedown="handleZoom(evt,'in')"/>
                <use id="zoomminus" xlink:href="#zoomMin" x="42" y="9" onmousedown="handleZoom(evt,'out')"/>
                <use id="reset" xlink:href="#resetDef" x="30" y="36" onmousedown="handleReset()"/>
                <g id="arrowUp" xlink:href="#dirArrow" transform="translate(30 24)" onmousedown="handlePan(0,-1)">
                  <use xlink:href="#rim" fill="#404040">
                        <set attributeName="fill" to="#808080" begin="arrowUp.mouseover" end="arrowUp.mouseout"/>
                  </use>
                  <path fill="none" stroke="white" stroke-width="1.5" d="M0,-3.0v7 M-2.5,-0.5L0,-3.0L2.5,-0.5"/>
                </g>
                <g id="arrowRight" xlink:href="#dirArrow" transform="rotate(90) translate(36 -43)" onmousedown="handlePan(1,0)">
                  <use xlink:href="#rim" fill="#404040">
                        <set attributeName="fill" to="#808080" begin="arrowRight.mouseover" end="arrowRight.mouseout"/>
                  </use>
                  <path fill="none" stroke="white" stroke-width="1.5" d="M0,-3.0v7 M-2.5,-0.5L0,-3.0L2.5,-0.5"/>
                </g>
                <g id="arrowDown" xlink:href="#dirArrow" transform="rotate(180) translate(-30 -48)" onmousedown="handlePan(0,1)">
                  <use xlink:href="#rim" fill="#404040">
                        <set attributeName="fill" to="#808080" begin="arrowDown.mouseover" end="arrowDown.mouseout"/>
                  </use>
                  <path fill="none" stroke="white" stroke-width="1.5" d="M0,-3.0v7 M-2.5,-0.5L0,-3.0L2.5,-0.5"/>
                </g>
                <g id="arrowLeft" xlink:href="#dirArrow" transform="rotate(270) translate(-36 17)" onmousedown="handlePan(-1,0)">
                  <use xlink:href="#rim" fill="#404040">
                        <set attributeName="fill" to="#808080" begin="arrowLeft.mouseover" end="arrowLeft.mouseout"/>
                  </use>
                  <path fill="none" stroke="white" stroke-width="1.5" d="M0,-3.0v7 M-2.5,-0.5L0,-3.0L2.5,-0.5"/>
                </g>
        </g>
        <svg viewBox="0 0 15 15" width="100%" height="30px" preserveAspectRatio="xMaxYMin meet">
         <g id="arrow_out" transform="scale(0.3 0.3)">
          <a xlink:href="classQtGraphNode_a2561beb7d9d674c0603d45820b61815a_icgraph_org.svg" target="_base">
           <rect id="button" ry="5" rx="5" y="6" x="6" height="38" width="38"
                fill="#f2f5e9" fill-opacity="0.5" stroke="#606060" stroke-width="1.0"/>
           <path id="arrow"
             d="M 11.500037,31.436501 C 11.940474,20.09759 22.043105,11.32322 32.158766,21.979434 L 37.068811,17.246167 C 37.068811,17.246167 37.088388,32 37.088388,32 L 22.160133,31.978069 C 22.160133,31.978069 26.997745,27.140456 26.997745,27.140456 C 18.528582,18.264221 13.291696,25.230495 11.500037,31.436501 z"
             style="fill:#404040;"/>
          </a>
         </g>
        </svg>
</svg>
