<?xml version="1.0" encoding="UTF-8" standalone="no"?>
<!DOCTYPE svg PUBLIC "-//W3C//DTD SVG 1.1//EN"
 "http://www.w3.org/Graphics/SVG/1.1/DTD/svg11.dtd">
<!-- Generated by graphviz version 7.1.0 (0)
 -->
<!-- Title: GraphViewStyle::getFontSizeOfTextNode Pages: 1 -->
<!--zoomable 104 -->
<svg id="main" version="1.1" xmlns="http://www.w3.org/2000/svg" xmlns:xlink="http://www.w3.org/1999/xlink" xml:space="preserve" onload="init(evt)">
<style type="text/css"><![CDATA[
.edge:hover path { stroke: red; }
.edge:hover polygon { stroke: red; fill: red; }
]]></style>
<script type="text/javascript"><![CDATA[
var edges = document.getElementsByTagName('g');
if (edges && edges.length) {
  for (var i=0;i<edges.length;i++) {
    if (edges[i].id.substr(0,4)=='edge') {
      edges[i].setAttribute('class','edge');
    }
  }
}
]]></script>
        <defs>
                <circle id="rim" cx="0" cy="0" r="7"/>
                <circle id="rim2" cx="0" cy="0" r="3.5"/>
                <g id="zoomPlus">
                        <use xlink:href="#rim" fill="#404040">
                                <set attributeName="fill" to="#808080" begin="zoomplus.mouseover" end="zoomplus.mouseout"/>
                        </use>
                        <path d="M-4,0h8M0,-4v8" fill="none" stroke="white" stroke-width="1.5" pointer-events="none"/>
                </g>
                <g id="zoomMin">
                        <use xlink:href="#rim" fill="#404040">
                                <set attributeName="fill" to="#808080" begin="zoomminus.mouseover" end="zoomminus.mouseout"/>
                        </use>
                        <path d="M-4,0h8" fill="none" stroke="white" stroke-width="1.5" pointer-events="none"/>
                </g>
                <g id="dirArrow">
                        <path fill="none" stroke="white" stroke-width="1.5" d="M0,-3.0v7 M-2.5,-0.5L0,-3.0L2.5,-0.5"/>
                </g>
               <g id="resetDef">
                       <use xlink:href="#rim2" fill="#404040">
                               <set attributeName="fill" to="#808080" begin="reset.mouseover" end="reset.mouseout"/>
                       </use>
               </g>
        </defs>

<script type="text/javascript">
var viewWidth = 1189;
var viewHeight = 104;
var sectionId = 'dynsection-24';
</script>
<script xlink:href="svgpan.js"/>
<svg id="graph" class="graph">
<g id="viewport">
<title>GraphViewStyle::getFontSizeOfTextNode</title>
<!-- Node1 -->
<g id="node1" class="node">
<title>Node1</title>
<g id="a_node1"><a xlink:title=" ">
<polygon fill="#999999" stroke="#666666" points="1181,-54 1023,-54 1023,-24 1181,-24 1181,-54"/>
<text text-anchor="start" x="1031" y="-42" font-family="Helvetica,sans-Serif" font-size="10.00">GraphViewStyle::getFontSize</text>
<text text-anchor="middle" x="1102" y="-31" font-family="Helvetica,sans-Serif" font-size="10.00">OfTextNode</text>
</a>
</g>
</g>
<!-- Node2 -->
<g id="node2" class="node">
<title>Node2</title>
<g id="a_node2"><a xlink:href="classGraphViewStyle.html#a7298341cdf5a3c86c3f4feb0f27a8db8" target="_top" xlink:title=" ">
<polygon fill="white" stroke="#666666" points="987,-78 832,-78 832,-48 987,-48 987,-78"/>
<text text-anchor="start" x="840" y="-66" font-family="Helvetica,sans-Serif" font-size="10.00">GraphViewStyle::getMargins</text>
<text text-anchor="middle" x="909.5" y="-55" font-family="Helvetica,sans-Serif" font-size="10.00">OfTextNode</text>
</a>
</g>
</g>
<!-- Node1&#45;&gt;Node2 -->
<g id="edge1" class="edge">
<title>Node1&#45;&gt;Node2</title>
<path fill="none" stroke="#63b8ff" d="M1011.37,-50.29C1003.31,-51.31 995.2,-52.33 987.27,-53.33"/>
<polygon fill="#63b8ff" stroke="#63b8ff" points="1011.71,-53.78 1021.19,-49.05 1010.83,-46.83 1011.71,-53.78"/>
</g>
<!-- Node8 -->
<g id="node8" class="node">
<title>Node8</title>
<g id="a_node8"><a xlink:href="classGraphViewStyle.html#a4e43ae12123553f5ae283493dad63553" target="_top" xlink:title=" ">
<polygon fill="white" stroke="#666666" points="980,-30 839,-30 839,0 980,0 980,-30"/>
<text text-anchor="start" x="847" y="-18" font-family="Helvetica,sans-Serif" font-size="10.00">GraphViewStyle::getStyle</text>
<text text-anchor="middle" x="909.5" y="-7" font-family="Helvetica,sans-Serif" font-size="10.00">OfTextNode</text>
</a>
</g>
</g>
<!-- Node1&#45;&gt;Node8 -->
<g id="edge8" class="edge">
<title>Node1&#45;&gt;Node8</title>
<path fill="none" stroke="#63b8ff" d="M1011.4,-27.71C1000.95,-26.39 990.4,-25.07 980.27,-23.79"/>
<polygon fill="#63b8ff" stroke="#63b8ff" points="1010.83,-31.17 1021.19,-28.95 1011.71,-24.22 1010.83,-31.17"/>
</g>
<!-- Node3 -->
<g id="node3" class="node">
<title>Node3</title>
<g id="a_node3"><a xlink:href="classGraphController.html#a6eb733d5bf04898dec3dcd9348eed25e" target="_top" xlink:title=" ">
<polygon fill="white" stroke="#666666" points="796,-78 628,-78 628,-48 796,-48 796,-78"/>
<text text-anchor="start" x="636" y="-66" font-family="Helvetica,sans-Serif" font-size="10.00">GraphController::layoutNesting</text>
<text text-anchor="middle" x="712" y="-55" font-family="Helvetica,sans-Serif" font-size="10.00">Recursive</text>
</a>
</g>
</g>
<!-- Node2&#45;&gt;Node3 -->
<g id="edge2" class="edge">
<title>Node2&#45;&gt;Node3</title>
<path fill="none" stroke="#63b8ff" d="M820.05,-63C812.17,-63 804.2,-63 796.36,-63"/>
<polygon fill="#63b8ff" stroke="#63b8ff" points="820,-66.5 830,-63 820,-59.5 820,-66.5"/>
</g>
<!-- Node3&#45;&gt;Node3 -->
<g id="edge7" class="edge">
<title>Node3&#45;&gt;Node3</title>
<path fill="none" stroke="#63b8ff" d="M745.32,-89.61C739.98,-93.43 728.88,-96 712,-96 681.14,-96 669.57,-87.41 677.28,-78.28"/>
<polygon fill="#63b8ff" stroke="#63b8ff" points="748.79,-90.13 746.53,-79.78 741.84,-89.28 748.79,-90.13"/>
</g>
<!-- Node4 -->
<g id="node4" class="node">
<title>Node4</title>
<g id="a_node4"><a xlink:href="classGraphController.html#aea06008a051995fb06c3b3865d11646a" target="_top" xlink:title=" ">
<polygon fill="white" stroke="#666666" points="592,-72.5 424,-72.5 424,-53.5 592,-53.5 592,-72.5"/>
<text text-anchor="middle" x="508" y="-60.5" font-family="Helvetica,sans-Serif" font-size="10.00">GraphController::layoutNesting</text>
</a>
</g>
</g>
<!-- Node3&#45;&gt;Node4 -->
<g id="edge3" class="edge">
<title>Node3&#45;&gt;Node4</title>
<path fill="none" stroke="#63b8ff" d="M616.42,-63C608.42,-63 600.37,-63 592.46,-63"/>
<polygon fill="#63b8ff" stroke="#63b8ff" points="616.16,-66.5 626.16,-63 616.16,-59.5 616.16,-66.5"/>
</g>
<!-- Node5 -->
<g id="node5" class="node">
<title>Node5</title>
<g id="a_node5"><a xlink:href="classGraphController.html#a6c817f0e3c1be7cf49746072c2bfde65" target="_top" xlink:title=" ">
<polygon fill="white" stroke="#666666" points="388,-94.5 212,-94.5 212,-75.5 388,-75.5 388,-94.5"/>
<text text-anchor="middle" x="300" y="-82.5" font-family="Helvetica,sans-Serif" font-size="10.00">GraphController::handleMessage</text>
</a>
</g>
</g>
<!-- Node4&#45;&gt;Node5 -->
<g id="edge4" class="edge">
<title>Node4&#45;&gt;Node5</title>
<path fill="none" stroke="#63b8ff" d="M412.28,-73.12C404.29,-73.97 396.23,-74.83 388.3,-75.68"/>
<polygon fill="#63b8ff" stroke="#63b8ff" points="412.43,-76.62 422,-72.08 411.69,-69.66 412.43,-76.62"/>
</g>
<!-- Node6 -->
<g id="node6" class="node">
<title>Node6</title>
<g id="a_node6"><a xlink:href="classGraphController.html#aa15472df149e558607ad5f72d47ac26d" target="_top" xlink:title=" ">
<polygon fill="white" stroke="#666666" points="370,-57 230,-57 230,-27 370,-27 370,-57"/>
<text text-anchor="start" x="238" y="-45" font-family="Helvetica,sans-Serif" font-size="10.00">GraphController::relayout</text>
<text text-anchor="middle" x="300" y="-34" font-family="Helvetica,sans-Serif" font-size="10.00">Graph</text>
</a>
</g>
</g>
<!-- Node4&#45;&gt;Node6 -->
<g id="edge5" class="edge">
<title>Node4&#45;&gt;Node6</title>
<path fill="none" stroke="#63b8ff" d="M412.27,-53.34C398.18,-51.91 383.88,-50.45 370.44,-49.08"/>
<polygon fill="#63b8ff" stroke="#63b8ff" points="411.7,-56.8 422,-54.34 412.41,-49.84 411.7,-56.8"/>
</g>
<!-- Node7 -->
<g id="node7" class="node">
<title>Node7</title>
<g id="a_node7"><a xlink:href="classGraphController.html#ae0ab00507f80232071a9a4ef70f41b9a" target="_top" xlink:title=" ">
<polygon fill="white" stroke="#666666" points="176,-51.5 0,-51.5 0,-32.5 176,-32.5 176,-51.5"/>
<text text-anchor="middle" x="88" y="-39.5" font-family="Helvetica,sans-Serif" font-size="10.00">GraphController::handleMessage</text>
</a>
</g>
</g>
<!-- Node6&#45;&gt;Node7 -->
<g id="edge6" class="edge">
<title>Node6&#45;&gt;Node7</title>
<path fill="none" stroke="#63b8ff" d="M218.26,-42C204.51,-42 190.16,-42 176.25,-42"/>
<polygon fill="#63b8ff" stroke="#63b8ff" points="218.14,-45.5 228.14,-42 218.14,-38.5 218.14,-45.5"/>
</g>
<!-- Node9 -->
<g id="node9" class="node">
<title>Node9</title>
<g id="a_node9"><a xlink:href="classQtGraphNodeText.html#a1c9f2883f6b360f46a6bd0873559b05c" target="_top" xlink:title=" ">
<polygon fill="white" stroke="#666666" points="795.5,-24.5 628.5,-24.5 628.5,-5.5 795.5,-5.5 795.5,-24.5"/>
<text text-anchor="middle" x="712" y="-12.5" font-family="Helvetica,sans-Serif" font-size="10.00">QtGraphNodeText::updateStyle</text>
</a>
</g>
</g>
<!-- Node8&#45;&gt;Node9 -->
<g id="edge9" class="edge">
<title>Node8&#45;&gt;Node9</title>
<path fill="none" stroke="#63b8ff" d="M827.5,-15C817.01,-15 806.26,-15 795.75,-15"/>
<polygon fill="#63b8ff" stroke="#63b8ff" points="827.23,-18.5 837.23,-15 827.23,-11.5 827.23,-18.5"/>
</g>
</g>
</svg>
        <g id="navigator" transform="translate(0 0)" fill="#404254">
                <rect fill="#f2f5e9" fill-opacity="0.5" stroke="#606060" stroke-width=".5" x="0" y="0" width="60" height="60"/>
                <use id="zoomplus" xlink:href="#zoomPlus" x="17" y="9" onmousedown="handleZoom(evt,'in')"/>
                <use id="zoomminus" xlink:href="#zoomMin" x="42" y="9" onmousedown="handleZoom(evt,'out')"/>
                <use id="reset" xlink:href="#resetDef" x="30" y="36" onmousedown="handleReset()"/>
                <g id="arrowUp" xlink:href="#dirArrow" transform="translate(30 24)" onmousedown="handlePan(0,-1)">
                  <use xlink:href="#rim" fill="#404040">
                        <set attributeName="fill" to="#808080" begin="arrowUp.mouseover" end="arrowUp.mouseout"/>
                  </use>
                  <path fill="none" stroke="white" stroke-width="1.5" d="M0,-3.0v7 M-2.5,-0.5L0,-3.0L2.5,-0.5"/>
                </g>
                <g id="arrowRight" xlink:href="#dirArrow" transform="rotate(90) translate(36 -43)" onmousedown="handlePan(1,0)">
                  <use xlink:href="#rim" fill="#404040">
                        <set attributeName="fill" to="#808080" begin="arrowRight.mouseover" end="arrowRight.mouseout"/>
                  </use>
                  <path fill="none" stroke="white" stroke-width="1.5" d="M0,-3.0v7 M-2.5,-0.5L0,-3.0L2.5,-0.5"/>
                </g>
                <g id="arrowDown" xlink:href="#dirArrow" transform="rotate(180) translate(-30 -48)" onmousedown="handlePan(0,1)">
                  <use xlink:href="#rim" fill="#404040">
                        <set attributeName="fill" to="#808080" begin="arrowDown.mouseover" end="arrowDown.mouseout"/>
                  </use>
                  <path fill="none" stroke="white" stroke-width="1.5" d="M0,-3.0v7 M-2.5,-0.5L0,-3.0L2.5,-0.5"/>
                </g>
                <g id="arrowLeft" xlink:href="#dirArrow" transform="rotate(270) translate(-36 17)" onmousedown="handlePan(-1,0)">
                  <use xlink:href="#rim" fill="#404040">
                        <set attributeName="fill" to="#808080" begin="arrowLeft.mouseover" end="arrowLeft.mouseout"/>
                  </use>
                  <path fill="none" stroke="white" stroke-width="1.5" d="M0,-3.0v7 M-2.5,-0.5L0,-3.0L2.5,-0.5"/>
                </g>
        </g>
        <svg viewBox="0 0 15 15" width="100%" height="30px" preserveAspectRatio="xMaxYMin meet">
         <g id="arrow_out" transform="scale(0.3 0.3)">
          <a xlink:href="classGraphViewStyle_a704ff1a97c74a4c6d9f7c0f413d935ac_icgraph_org.svg" target="_base">
           <rect id="button" ry="5" rx="5" y="6" x="6" height="38" width="38"
                fill="#f2f5e9" fill-opacity="0.5" stroke="#606060" stroke-width="1.0"/>
           <path id="arrow"
             d="M 11.500037,31.436501 C 11.940474,20.09759 22.043105,11.32322 32.158766,21.979434 L 37.068811,17.246167 C 37.068811,17.246167 37.088388,32 37.088388,32 L 22.160133,31.978069 C 22.160133,31.978069 26.997745,27.140456 26.997745,27.140456 C 18.528582,18.264221 13.291696,25.230495 11.500037,31.436501 z"
             style="fill:#404040;"/>
          </a>
         </g>
        </svg>
</svg>
