<?xml version="1.0" encoding="UTF-8" standalone="no"?>
<!DOCTYPE svg PUBLIC "-//W3C//DTD SVG 1.1//EN"
 "http://www.w3.org/Graphics/SVG/1.1/DTD/svg11.dtd">
<!-- Generated by graphviz version 9.0.0 (0)
 -->
<!-- Title: FileLogger::logMessage Pages: 1 -->
<svg width="301pt" height="107pt"
 viewBox="0.00 0.00 301.00 106.75" xmlns="http://www.w3.org/2000/svg" xmlns:xlink="http://www.w3.org/1999/xlink">
<g id="graph0" class="graph" transform="scale(1 1) rotate(0) translate(4 102.75)">
<title>FileLogger::logMessage</title>
<!-- Node1 -->
<g id="Node000001" class="node">
<title>Node1</title>
<g id="a_Node000001"><a xlink:title=" ">
<polygon fill="#999999" stroke="#666666" points="293,-59.75 163,-59.75 163,-39 293,-39 293,-59.75"/>
<text text-anchor="middle" x="228" y="-46.25" font-family="Helvetica,sans-Serif" font-size="10.00">FileLogger::logMessage</text>
</a>
</g>
</g>
<!-- Node2 -->
<g id="Node000002" class="node">
<title>Node2</title>
<g id="a_Node000002"><a xlink:href="classFileLogger.html#a3ab991dc68eded2be77d1640b0e0c641" target="_top" xlink:title=" ">
<polygon fill="white" stroke="#666666" points="118.38,-98.75 8.63,-98.75 8.63,-78 118.38,-78 118.38,-98.75"/>
<text text-anchor="middle" x="63.5" y="-85.25" font-family="Helvetica,sans-Serif" font-size="10.00">FileLogger::logError</text>
</a>
</g>
</g>
<!-- Node1&#45;&gt;Node2 -->
<g id="edge1_Node000001_Node000002" class="edge">
<title>Node1&#45;&gt;Node2</title>
<g id="a_edge1_Node000001_Node000002"><a xlink:title=" ">
<path fill="none" stroke="#63b8ff" d="M170.64,-62.9C150.75,-67.68 128.66,-72.98 109.8,-77.5"/>
<polygon fill="#63b8ff" stroke="#63b8ff" points="171.36,-66.33 180.26,-60.59 169.72,-59.52 171.36,-66.33"/>
</a>
</g>
</g>
<!-- Node3 -->
<g id="Node000003" class="node">
<title>Node3</title>
<g id="a_Node000003"><a xlink:href="classFileLogger.html#a9a999b52ed25efd1f1d0d8df3b89f1c1" target="_top" xlink:title=" ">
<polygon fill="white" stroke="#666666" points="116.12,-59.75 10.88,-59.75 10.88,-39 116.12,-39 116.12,-59.75"/>
<text text-anchor="middle" x="63.5" y="-46.25" font-family="Helvetica,sans-Serif" font-size="10.00">FileLogger::logInfo</text>
</a>
</g>
</g>
<!-- Node1&#45;&gt;Node3 -->
<g id="edge2_Node000001_Node000003" class="edge">
<title>Node1&#45;&gt;Node3</title>
<g id="a_edge2_Node000001_Node000003"><a xlink:title=" ">
<path fill="none" stroke="#63b8ff" d="M151.51,-49.38C139.67,-49.38 127.67,-49.38 116.51,-49.38"/>
<polygon fill="#63b8ff" stroke="#63b8ff" points="151.26,-52.88 161.26,-49.38 151.26,-45.88 151.26,-52.88"/>
</a>
</g>
</g>
<!-- Node4 -->
<g id="Node000004" class="node">
<title>Node4</title>
<g id="a_Node000004"><a xlink:href="classFileLogger.html#abcd259862fbf829c45f00cf61741a24c" target="_top" xlink:title=" ">
<polygon fill="white" stroke="#666666" points="127,-20.75 0,-20.75 0,0 127,0 127,-20.75"/>
<text text-anchor="middle" x="63.5" y="-7.25" font-family="Helvetica,sans-Serif" font-size="10.00">FileLogger::logWarning</text>
</a>
</g>
</g>
<!-- Node1&#45;&gt;Node4 -->
<g id="edge3_Node000001_Node000004" class="edge">
<title>Node1&#45;&gt;Node4</title>
<g id="a_edge3_Node000001_Node000004"><a xlink:title=" ">
<path fill="none" stroke="#63b8ff" d="M170.64,-35.85C150.75,-31.07 128.66,-25.77 109.8,-21.25"/>
<polygon fill="#63b8ff" stroke="#63b8ff" points="169.72,-39.23 180.26,-38.16 171.36,-32.42 169.72,-39.23"/>
</a>
</g>
</g>
</g>
</svg>
