<?xml version="1.0" encoding="UTF-8" standalone="no"?>
<!DOCTYPE svg PUBLIC "-//W3C//DTD SVG 1.1//EN"
 "http://www.w3.org/Graphics/SVG/1.1/DTD/svg11.dtd">
<!-- Generated by graphviz version 7.1.0 (0)
 -->
<!-- Title: SqliteIndexStorage::getComponentAccessesByNodeIds Pages: 1 -->
<svg width="599pt" height="134pt"
 viewBox="0.00 0.00 599.00 134.00" xmlns="http://www.w3.org/2000/svg" xmlns:xlink="http://www.w3.org/1999/xlink">
<g id="graph0" class="graph" transform="scale(1 1) rotate(0) translate(4 130)">
<title>SqliteIndexStorage::getComponentAccessesByNodeIds</title>
<!-- Node1 -->
<g id="node1" class="node">
<title>Node1</title>
<g id="a_node1"><a xlink:title=" ">
<polygon fill="#999999" stroke="#666666" points="591,-78 399,-78 399,-48 591,-48 591,-78"/>
<text text-anchor="start" x="407" y="-66" font-family="Helvetica,sans-Serif" font-size="10.00">SqliteIndexStorage</text>
<text text-anchor="middle" x="495" y="-55" font-family="Helvetica,sans-Serif" font-size="10.00">::getComponentAccessesByNodeIds</text>
</a>
</g>
</g>
<!-- Node2 -->
<g id="node2" class="node">
<title>Node2</title>
<g id="a_node2"><a xlink:href="classPersistentStorage.html#a4615fa8da4a0410d632b023cd9399c8f" target="_top" xlink:title=" ">
<polygon fill="white" stroke="#666666" points="363,-78 199,-78 199,-48 363,-48 363,-78"/>
<text text-anchor="start" x="207" y="-66" font-family="Helvetica,sans-Serif" font-size="10.00">PersistentStorage::</text>
<text text-anchor="middle" x="281" y="-55" font-family="Helvetica,sans-Serif" font-size="10.00">addComponentAccessToGraph</text>
</a>
</g>
</g>
<!-- Node1&#45;&gt;Node2 -->
<g id="edge1" class="edge">
<title>Node1&#45;&gt;Node2</title>
<path fill="none" stroke="#63b8ff" d="M387.21,-63C379.18,-63 371.16,-63 363.33,-63"/>
<polygon fill="#63b8ff" stroke="#63b8ff" points="387.03,-66.5 397.03,-63 387.03,-59.5 387.03,-66.5"/>
</g>
<!-- Node3 -->
<g id="node3" class="node">
<title>Node3</title>
<g id="a_node3"><a xlink:href="classPersistentStorage.html#a739d4ccb8075fa10eb61794625366d2e" target="_top" xlink:title=" ">
<polygon fill="white" stroke="#666666" points="156,-126 7,-126 7,-96 156,-96 156,-126"/>
<text text-anchor="start" x="15" y="-114" font-family="Helvetica,sans-Serif" font-size="10.00">PersistentStorage::</text>
<text text-anchor="middle" x="81.5" y="-103" font-family="Helvetica,sans-Serif" font-size="10.00">getGraphForActiveTokenIds</text>
</a>
</g>
</g>
<!-- Node2&#45;&gt;Node3 -->
<g id="edge2" class="edge">
<title>Node2&#45;&gt;Node3</title>
<path fill="none" stroke="#63b8ff" d="M205.39,-81.13C185.82,-85.89 164.89,-90.98 145.96,-95.58"/>
<polygon fill="#63b8ff" stroke="#63b8ff" points="206.06,-84.57 214.95,-78.81 204.41,-77.77 206.06,-84.57"/>
</g>
<!-- Node4 -->
<g id="node4" class="node">
<title>Node4</title>
<g id="a_node4"><a xlink:href="classPersistentStorage.html#a391e0354974a5975a610087b702d49ef" target="_top" xlink:title=" ">
<polygon fill="white" stroke="#666666" points="163,-78 0,-78 0,-48 163,-48 163,-78"/>
<text text-anchor="start" x="8" y="-66" font-family="Helvetica,sans-Serif" font-size="10.00">PersistentStorage::</text>
<text text-anchor="middle" x="81.5" y="-55" font-family="Helvetica,sans-Serif" font-size="10.00">getGraphForChildrenOfNodeId</text>
</a>
</g>
</g>
<!-- Node2&#45;&gt;Node4 -->
<g id="edge3" class="edge">
<title>Node2&#45;&gt;Node4</title>
<path fill="none" stroke="#63b8ff" d="M187.05,-63C179.17,-63 171.24,-63 163.47,-63"/>
<polygon fill="#63b8ff" stroke="#63b8ff" points="187.02,-66.5 197.02,-63 187.02,-59.5 187.02,-66.5"/>
</g>
<!-- Node5 -->
<g id="node5" class="node">
<title>Node5</title>
<g id="a_node5"><a xlink:href="classPersistentStorage.html#aa0459f7ee5cffa942e8a53c34b01e009" target="_top" xlink:title=" ">
<polygon fill="white" stroke="#666666" points="136,-30 27,-30 27,0 136,0 136,-30"/>
<text text-anchor="start" x="35" y="-18" font-family="Helvetica,sans-Serif" font-size="10.00">PersistentStorage::</text>
<text text-anchor="middle" x="81.5" y="-7" font-family="Helvetica,sans-Serif" font-size="10.00">getGraphForTrail</text>
</a>
</g>
</g>
<!-- Node2&#45;&gt;Node5 -->
<g id="edge4" class="edge">
<title>Node2&#45;&gt;Node5</title>
<path fill="none" stroke="#63b8ff" d="M205.33,-44.85C182.39,-39.28 157.61,-33.25 136.35,-28.09"/>
<polygon fill="#63b8ff" stroke="#63b8ff" points="204.41,-48.23 214.95,-47.19 206.06,-41.43 204.41,-48.23"/>
</g>
</g>
</svg>
