<?xml version="1.0" encoding="UTF-8" standalone="no"?>
<!DOCTYPE svg PUBLIC "-//W3C//DTD SVG 1.1//EN"
 "http://www.w3.org/Graphics/SVG/1.1/DTD/svg11.dtd">
<!-- Generated by graphviz version 7.1.0 (0)
 -->
<!-- Title: SourceGroup::getSourceGroupSettings Pages: 1 -->
<svg width="355pt" height="101pt"
 viewBox="0.00 0.00 355.00 101.00" xmlns="http://www.w3.org/2000/svg" xmlns:xlink="http://www.w3.org/1999/xlink">
<g id="graph0" class="graph" transform="scale(1 1) rotate(0) translate(4 97)">
<title>SourceGroup::getSourceGroupSettings</title>
<!-- Node1 -->
<g id="node1" class="node">
<title>Node1</title>
<g id="a_node1"><a xlink:title=" ">
<polygon fill="#999999" stroke="#666666" points="347,-61.5 184,-61.5 184,-31.5 347,-31.5 347,-61.5"/>
<text text-anchor="start" x="192" y="-49.5" font-family="Helvetica,sans-Serif" font-size="10.00">SourceGroup::getSourceGroup</text>
<text text-anchor="middle" x="265.5" y="-38.5" font-family="Helvetica,sans-Serif" font-size="10.00">Settings</text>
</a>
</g>
</g>
<!-- Node2 -->
<g id="node2" class="node">
<title>Node2</title>
<g id="a_node2"><a xlink:href="classSourceGroup.html#a96b1a77f07385a2b398173e102c7c1d3" target="_top" xlink:title=" ">
<polygon fill="white" stroke="#666666" points="148,-93 0,-93 0,-74 148,-74 148,-93"/>
<text text-anchor="middle" x="74" y="-81" font-family="Helvetica,sans-Serif" font-size="10.00">SourceGroup::getLanguage</text>
</a>
</g>
</g>
<!-- Node1&#45;&gt;Node2 -->
<g id="edge1" class="edge">
<title>Node1&#45;&gt;Node2</title>
<path fill="none" stroke="#63b8ff" d="M174.39,-64.09C157.82,-67.33 141.06,-70.6 126.14,-73.51"/>
<polygon fill="#63b8ff" stroke="#63b8ff" points="174.6,-67.62 183.75,-62.27 173.26,-60.75 174.6,-67.62"/>
</g>
<!-- Node3 -->
<g id="node3" class="node">
<title>Node3</title>
<g id="a_node3"><a xlink:href="classSourceGroup.html#a6cb3d8759800c4c823673b9d732bdd3e" target="_top" xlink:title=" ">
<polygon fill="white" stroke="#666666" points="139.5,-56 8.5,-56 8.5,-37 139.5,-37 139.5,-56"/>
<text text-anchor="middle" x="74" y="-44" font-family="Helvetica,sans-Serif" font-size="10.00">SourceGroup::getStatus</text>
</a>
</g>
</g>
<!-- Node1&#45;&gt;Node3 -->
<g id="edge2" class="edge">
<title>Node1&#45;&gt;Node3</title>
<path fill="none" stroke="#63b8ff" d="M172.24,-46.5C161.31,-46.5 150.34,-46.5 139.91,-46.5"/>
<polygon fill="#63b8ff" stroke="#63b8ff" points="172.07,-50 182.07,-46.5 172.07,-43 172.07,-50"/>
</g>
<!-- Node4 -->
<g id="node4" class="node">
<title>Node4</title>
<g id="a_node4"><a xlink:href="classSourceGroup.html#a6199d22799f42464929782b6c8a90589" target="_top" xlink:title=" ">
<polygon fill="white" stroke="#666666" points="135.5,-19 12.5,-19 12.5,0 135.5,0 135.5,-19"/>
<text text-anchor="middle" x="74" y="-7" font-family="Helvetica,sans-Serif" font-size="10.00">SourceGroup::getType</text>
</a>
</g>
</g>
<!-- Node1&#45;&gt;Node4 -->
<g id="edge3" class="edge">
<title>Node1&#45;&gt;Node4</title>
<path fill="none" stroke="#63b8ff" d="M174.39,-28.91C157.82,-25.67 141.06,-22.4 126.14,-19.49"/>
<polygon fill="#63b8ff" stroke="#63b8ff" points="173.26,-32.25 183.75,-30.73 174.6,-25.38 173.26,-32.25"/>
</g>
</g>
</svg>
