<?xml version="1.0" encoding="UTF-8" standalone="no"?>
<!DOCTYPE svg PUBLIC "-//W3C//DTD SVG 1.1//EN"
 "http://www.w3.org/Graphics/SVG/1.1/DTD/svg11.dtd">
<!-- Generated by graphviz version 7.1.0 (0)
 -->
<!-- Title: GraphFocusHandler::focusInitialNode Pages: 1 -->
<!--zoomable 154 -->
<svg id="main" version="1.1" xmlns="http://www.w3.org/2000/svg" xmlns:xlink="http://www.w3.org/1999/xlink" xml:space="preserve" onload="init(evt)">
<style type="text/css"><![CDATA[
.edge:hover path { stroke: red; }
.edge:hover polygon { stroke: red; fill: red; }
]]></style>
<script type="text/javascript"><![CDATA[
var edges = document.getElementsByTagName('g');
if (edges && edges.length) {
  for (var i=0;i<edges.length;i++) {
    if (edges[i].id.substr(0,4)=='edge') {
      edges[i].setAttribute('class','edge');
    }
  }
}
]]></script>
        <defs>
                <circle id="rim" cx="0" cy="0" r="7"/>
                <circle id="rim2" cx="0" cy="0" r="3.5"/>
                <g id="zoomPlus">
                        <use xlink:href="#rim" fill="#404040">
                                <set attributeName="fill" to="#808080" begin="zoomplus.mouseover" end="zoomplus.mouseout"/>
                        </use>
                        <path d="M-4,0h8M0,-4v8" fill="none" stroke="white" stroke-width="1.5" pointer-events="none"/>
                </g>
                <g id="zoomMin">
                        <use xlink:href="#rim" fill="#404040">
                                <set attributeName="fill" to="#808080" begin="zoomminus.mouseover" end="zoomminus.mouseout"/>
                        </use>
                        <path d="M-4,0h8" fill="none" stroke="white" stroke-width="1.5" pointer-events="none"/>
                </g>
                <g id="dirArrow">
                        <path fill="none" stroke="white" stroke-width="1.5" d="M0,-3.0v7 M-2.5,-0.5L0,-3.0L2.5,-0.5"/>
                </g>
               <g id="resetDef">
                       <use xlink:href="#rim2" fill="#404040">
                               <set attributeName="fill" to="#808080" begin="reset.mouseover" end="reset.mouseout"/>
                       </use>
               </g>
        </defs>

<script type="text/javascript">
var viewWidth = 911;
var viewHeight = 154;
var sectionId = 'dynsection-27';
</script>
<script xlink:href="svgpan.js"/>
<svg id="graph" class="graph">
<g id="viewport">
<title>GraphFocusHandler::focusInitialNode</title>
<!-- Node1 -->
<g id="node1" class="node">
<title>Node1</title>
<g id="a_node1"><a xlink:title=" ">
<polygon fill="#999999" stroke="#666666" points="903,-78.11 785,-78.11 785,-48.11 903,-48.11 903,-78.11"/>
<text text-anchor="start" x="793" y="-66.11" font-family="Helvetica,sans-Serif" font-size="10.00">GraphFocusHandler::</text>
<text text-anchor="middle" x="844" y="-55.11" font-family="Helvetica,sans-Serif" font-size="10.00">focusInitialNode</text>
</a>
</g>
</g>
<!-- Node2 -->
<g id="node2" class="node">
<title>Node2</title>
<g id="a_node2"><a xlink:href="classGraphFocusHandler.html#a23bde4bc06de32d23cf858fc56532b0f" target="_top" xlink:title=" ">
<polygon fill="white" stroke="#666666" points="732.5,-110.11 614.5,-110.11 614.5,-80.11 732.5,-80.11 732.5,-110.11"/>
<text text-anchor="start" x="622.5" y="-98.11" font-family="Helvetica,sans-Serif" font-size="10.00">GraphFocusHandler::</text>
<text text-anchor="middle" x="673.5" y="-87.11" font-family="Helvetica,sans-Serif" font-size="10.00">focus</text>
</a>
</g>
</g>
<!-- Node1&#45;&gt;Node2 -->
<g id="edge1" class="edge">
<title>Node1&#45;&gt;Node2</title>
<path fill="none" stroke="#63b8ff" d="M773.38,-76.33C759.91,-78.89 745.92,-81.55 732.86,-84.03"/>
<polygon fill="#63b8ff" stroke="#63b8ff" points="773.88,-79.8 783.05,-74.5 772.58,-72.92 773.88,-79.8"/>
</g>
<!-- Node5 -->
<g id="node5" class="node">
<title>Node5</title>
<g id="a_node5"><a xlink:href="classQtGraphView.html#a0e0e64b352f8e05561b94d64f3711a28" target="_top" xlink:title=" ">
<polygon fill="white" stroke="#666666" points="749,-54.11 598,-54.11 598,-24.11 749,-24.11 749,-54.11"/>
<text text-anchor="start" x="606" y="-42.11" font-family="Helvetica,sans-Serif" font-size="10.00">QtGraphView::switchToNew</text>
<text text-anchor="middle" x="673.5" y="-31.11" font-family="Helvetica,sans-Serif" font-size="10.00">GraphData</text>
</a>
</g>
</g>
<!-- Node1&#45;&gt;Node5 -->
<g id="edge4" class="edge">
<title>Node1&#45;&gt;Node5</title>
<path fill="none" stroke="#63b8ff" d="M773.22,-53.17C765.38,-52.06 757.37,-50.92 749.48,-49.79"/>
<polygon fill="#63b8ff" stroke="#63b8ff" points="772.65,-56.63 783.04,-54.57 773.63,-49.7 772.65,-56.63"/>
</g>
<!-- Node3 -->
<g id="node3" class="node">
<title>Node3</title>
<g id="a_node3"><a xlink:href="classQtGraphView.html#afa4f1dc16083ae82a4f428085cbbbdce" target="_top" xlink:title=" ">
<polygon fill="white" stroke="#666666" points="552.5,-135.11 397.5,-135.11 397.5,-105.11 552.5,-105.11 552.5,-135.11"/>
<text text-anchor="start" x="405.5" y="-123.11" font-family="Helvetica,sans-Serif" font-size="10.00">QtGraphView::setNavigation</text>
<text text-anchor="middle" x="475" y="-112.11" font-family="Helvetica,sans-Serif" font-size="10.00">Focus</text>
</a>
</g>
</g>
<!-- Node2&#45;&gt;Node3 -->
<g id="edge2" class="edge">
<title>Node2&#45;&gt;Node3</title>
<path fill="none" stroke="#63b8ff" d="M603.02,-103.95C586.76,-106.02 569.34,-108.24 552.77,-110.34"/>
<polygon fill="#63b8ff" stroke="#63b8ff" points="603.1,-107.47 612.57,-102.74 602.21,-100.53 603.1,-107.47"/>
</g>
<!-- Node4 -->
<g id="node4" class="node">
<title>Node4</title>
<g id="a_node4"><a xlink:href="classQtGraphView.html#ad62e4097c2649e7e7ce879278132d4cb" target="_top" xlink:title=" ">
<polygon fill="white" stroke="#666666" points="345,-145.61 193,-145.61 193,-126.61 345,-126.61 345,-145.61"/>
<text text-anchor="middle" x="269" y="-133.61" font-family="Helvetica,sans-Serif" font-size="10.00">QtGraphView::QtGraphView</text>
</a>
</g>
</g>
<!-- Node3&#45;&gt;Node4 -->
<g id="edge3" class="edge">
<title>Node3&#45;&gt;Node4</title>
<path fill="none" stroke="#63b8ff" d="M385.93,-127.02C372.43,-128.08 358.6,-129.16 345.41,-130.2"/>
<polygon fill="#63b8ff" stroke="#63b8ff" points="385.96,-130.53 395.66,-126.26 385.42,-123.55 385.96,-130.53"/>
</g>
<!-- Node6 -->
<g id="node6" class="node">
<title>Node6</title>
<g id="a_node6"><a xlink:href="classQtGraphView.html#a226a73962b96aed00b9cecab82c8dba1" target="_top" xlink:title=" ">
<polygon fill="white" stroke="#666666" points="352,-32.61 186,-32.61 186,-13.61 352,-13.61 352,-32.61"/>
<text text-anchor="middle" x="269" y="-20.61" font-family="Helvetica,sans-Serif" font-size="10.00">QtGraphView::createTransition</text>
</a>
</g>
</g>
<!-- Node5&#45;&gt;Node6 -->
<g id="edge5" class="edge">
<title>Node5&#45;&gt;Node6</title>
<path fill="none" stroke="#63b8ff" d="M586.44,-35.69C517.21,-32.94 420.56,-29.1 352.33,-26.39"/>
<polygon fill="#63b8ff" stroke="#63b8ff" points="586.09,-39.18 596.22,-36.08 586.37,-32.19 586.09,-39.18"/>
</g>
<!-- Node7 -->
<g id="node7" class="node">
<title>Node7</title>
<g id="a_node7"><a xlink:href="classQtGraphView.html#a71858975a5b07059726b0337d19fe296" target="_top" xlink:title=" ">
<polygon fill="white" stroke="#666666" points="150,-32.61 0,-32.61 0,-13.61 150,-13.61 150,-32.61"/>
<text text-anchor="middle" x="75" y="-20.61" font-family="Helvetica,sans-Serif" font-size="10.00">QtGraphView::rebuildGraph</text>
</a>
</g>
</g>
<!-- Node5&#45;&gt;Node7 -->
<g id="edge11" class="edge">
<title>Node5&#45;&gt;Node7</title>
<path fill="none" stroke="#63b8ff" d="M586.62,-24.77C489.37,-10.42 326.2,7.91 186,-4.11 165.24,-5.89 142.52,-9.53 123.15,-13.15"/>
<polygon fill="#63b8ff" stroke="#63b8ff" points="585.95,-28.21 596.36,-26.23 586.99,-21.28 585.95,-28.21"/>
</g>
<!-- Node8 -->
<g id="node8" class="node">
<title>Node8</title>
<g id="a_node8"><a xlink:href="classQtGraphView.html#a1c25190e97e9022d070d506c19d16f75" target="_top" xlink:title=" ">
<polygon fill="white" stroke="#666666" points="562,-70.61 388,-70.61 388,-51.61 562,-51.61 562,-70.61"/>
<text text-anchor="middle" x="475" y="-58.61" font-family="Helvetica,sans-Serif" font-size="10.00">QtGraphView::finishedTransition</text>
</a>
</g>
</g>
<!-- Node5&#45;&gt;Node8 -->
<g id="edge7" class="edge">
<title>Node5&#45;&gt;Node8</title>
<path fill="none" stroke="#63b8ff" d="M586.21,-48.77C578.34,-49.66 570.36,-50.55 562.48,-51.43"/>
<polygon fill="#63b8ff" stroke="#63b8ff" points="586.6,-52.25 596.15,-47.66 585.82,-45.3 586.6,-52.25"/>
</g>
<!-- Node6&#45;&gt;Node7 -->
<g id="edge6" class="edge">
<title>Node6&#45;&gt;Node7</title>
<path fill="none" stroke="#63b8ff" d="M174.33,-23.11C166.23,-23.11 158.11,-23.11 150.2,-23.11"/>
<polygon fill="#63b8ff" stroke="#63b8ff" points="174.23,-26.61 184.23,-23.11 174.23,-19.61 174.23,-26.61"/>
</g>
<!-- Node8&#45;&gt;Node6 -->
<g id="edge9" class="edge">
<title>Node8&#45;&gt;Node6</title>
<path fill="none" stroke="#63b8ff" d="M409.26,-49.05C381.66,-43.91 349.84,-37.99 323.59,-33.1"/>
<polygon fill="#63b8ff" stroke="#63b8ff" points="408.44,-52.46 418.91,-50.85 409.72,-45.58 408.44,-52.46"/>
</g>
<!-- Node8&#45;&gt;Node7 -->
<g id="edge10" class="edge">
<title>Node8&#45;&gt;Node7</title>
<path fill="none" stroke="#63b8ff" d="M376.48,-56.6C320.6,-53.44 249.23,-48.47 186,-41.11 167.93,-39.01 148.3,-36.03 130.69,-33.09"/>
<polygon fill="#63b8ff" stroke="#63b8ff" points="376.11,-60.08 386.29,-57.14 376.49,-53.09 376.11,-60.08"/>
</g>
<!-- Node9 -->
<g id="node9" class="node">
<title>Node9</title>
<g id="a_node9"><a xlink:href="classQtGraphView.html#a22c7370507ab74241d6d1f7df1ffccbd" target="_top" xlink:title=" ">
<polygon fill="white" stroke="#666666" points="344.5,-108.61 193.5,-108.61 193.5,-89.61 344.5,-89.61 344.5,-108.61"/>
<text text-anchor="middle" x="269" y="-96.61" font-family="Helvetica,sans-Serif" font-size="10.00">QtGraphView::activateEdge</text>
</a>
</g>
</g>
<!-- Node8&#45;&gt;Node9 -->
<g id="edge8" class="edge">
<title>Node8&#45;&gt;Node9</title>
<path fill="none" stroke="#63b8ff" d="M409.26,-73.17C381.66,-78.31 349.84,-84.24 323.59,-89.13"/>
<polygon fill="#63b8ff" stroke="#63b8ff" points="409.72,-76.65 418.91,-71.37 408.44,-69.76 409.72,-76.65"/>
</g>
</g>
</svg>
        <g id="navigator" transform="translate(0 0)" fill="#404254">
                <rect fill="#f2f5e9" fill-opacity="0.5" stroke="#606060" stroke-width=".5" x="0" y="0" width="60" height="60"/>
                <use id="zoomplus" xlink:href="#zoomPlus" x="17" y="9" onmousedown="handleZoom(evt,'in')"/>
                <use id="zoomminus" xlink:href="#zoomMin" x="42" y="9" onmousedown="handleZoom(evt,'out')"/>
                <use id="reset" xlink:href="#resetDef" x="30" y="36" onmousedown="handleReset()"/>
                <g id="arrowUp" xlink:href="#dirArrow" transform="translate(30 24)" onmousedown="handlePan(0,-1)">
                  <use xlink:href="#rim" fill="#404040">
                        <set attributeName="fill" to="#808080" begin="arrowUp.mouseover" end="arrowUp.mouseout"/>
                  </use>
                  <path fill="none" stroke="white" stroke-width="1.5" d="M0,-3.0v7 M-2.5,-0.5L0,-3.0L2.5,-0.5"/>
                </g>
                <g id="arrowRight" xlink:href="#dirArrow" transform="rotate(90) translate(36 -43)" onmousedown="handlePan(1,0)">
                  <use xlink:href="#rim" fill="#404040">
                        <set attributeName="fill" to="#808080" begin="arrowRight.mouseover" end="arrowRight.mouseout"/>
                  </use>
                  <path fill="none" stroke="white" stroke-width="1.5" d="M0,-3.0v7 M-2.5,-0.5L0,-3.0L2.5,-0.5"/>
                </g>
                <g id="arrowDown" xlink:href="#dirArrow" transform="rotate(180) translate(-30 -48)" onmousedown="handlePan(0,1)">
                  <use xlink:href="#rim" fill="#404040">
                        <set attributeName="fill" to="#808080" begin="arrowDown.mouseover" end="arrowDown.mouseout"/>
                  </use>
                  <path fill="none" stroke="white" stroke-width="1.5" d="M0,-3.0v7 M-2.5,-0.5L0,-3.0L2.5,-0.5"/>
                </g>
                <g id="arrowLeft" xlink:href="#dirArrow" transform="rotate(270) translate(-36 17)" onmousedown="handlePan(-1,0)">
                  <use xlink:href="#rim" fill="#404040">
                        <set attributeName="fill" to="#808080" begin="arrowLeft.mouseover" end="arrowLeft.mouseout"/>
                  </use>
                  <path fill="none" stroke="white" stroke-width="1.5" d="M0,-3.0v7 M-2.5,-0.5L0,-3.0L2.5,-0.5"/>
                </g>
        </g>
        <svg viewBox="0 0 15 15" width="100%" height="30px" preserveAspectRatio="xMaxYMin meet">
         <g id="arrow_out" transform="scale(0.3 0.3)">
          <a xlink:href="classGraphFocusHandler_a66e8d64d3989ef7114126c6abd7cf838_icgraph_org.svg" target="_base">
           <rect id="button" ry="5" rx="5" y="6" x="6" height="38" width="38"
                fill="#f2f5e9" fill-opacity="0.5" stroke="#606060" stroke-width="1.0"/>
           <path id="arrow"
             d="M 11.500037,31.436501 C 11.940474,20.09759 22.043105,11.32322 32.158766,21.979434 L 37.068811,17.246167 C 37.068811,17.246167 37.088388,32 37.088388,32 L 22.160133,31.978069 C 22.160133,31.978069 26.997745,27.140456 26.997745,27.140456 C 18.528582,18.264221 13.291696,25.230495 11.500037,31.436501 z"
             style="fill:#404040;"/>
          </a>
         </g>
        </svg>
</svg>
