<?xml version="1.0" encoding="UTF-8" standalone="no"?>
<!DOCTYPE svg PUBLIC "-//W3C//DTD SVG 1.1//EN"
 "http://www.w3.org/Graphics/SVG/1.1/DTD/svg11.dtd">
<!-- Generated by graphviz version 9.0.0 (0)
 -->
<!-- Title: PersistentStorage::addComponentAccessToGraph Pages: 1 -->
<svg width="529pt" height="236pt"
 viewBox="0.00 0.00 528.50 235.75" xmlns="http://www.w3.org/2000/svg" xmlns:xlink="http://www.w3.org/1999/xlink">
<g id="graph0" class="graph" transform="scale(1 1) rotate(0) translate(4 231.75)">
<title>PersistentStorage::addComponentAccessToGraph</title>
<!-- Node1 -->
<g id="Node000001" class="node">
<title>Node1</title>
<g id="a_Node000001"><a xlink:title=" ">
<polygon fill="#999999" stroke="#666666" points="163.75,-127.12 0,-127.12 0,-93.62 163.75,-93.62 163.75,-127.12"/>
<text text-anchor="start" x="8" y="-113.62" font-family="Helvetica,sans-Serif" font-size="10.00">PersistentStorage::</text>
<text text-anchor="middle" x="81.88" y="-100.88" font-family="Helvetica,sans-Serif" font-size="10.00">addComponentAccessToGraph</text>
</a>
</g>
</g>
<!-- Node2 -->
<g id="Node000002" class="node">
<title>Node2</title>
<g id="a_Node000002"><a xlink:href="classToken.html#a203ac76302b27f82dc87e4f9b85995e6" target="_top" xlink:title=" ">
<polygon fill="white" stroke="#666666" points="357.5,-227.75 233.5,-227.75 233.5,-207 357.5,-207 357.5,-227.75"/>
<text text-anchor="middle" x="295.5" y="-214.25" font-family="Helvetica,sans-Serif" font-size="10.00">Token::addComponent</text>
</a>
</g>
</g>
<!-- Node1&#45;&gt;Node2 -->
<g id="edge1_Node000001_Node000002" class="edge">
<title>Node1&#45;&gt;Node2</title>
<g id="a_edge1_Node000001_Node000002"><a xlink:title=" ">
<path fill="none" stroke="#63b8ff" d="M100.69,-127.6C122.33,-147.51 160.79,-179.79 199.75,-197.38 206.83,-200.57 214.45,-203.27 222.17,-205.53"/>
<polygon fill="#63b8ff" stroke="#63b8ff" points="221.09,-208.87 231.65,-208.08 222.9,-202.11 221.09,-208.87"/>
</a>
</g>
</g>
<!-- Node3 -->
<g id="Node000003" class="node">
<title>Node3</title>
<g id="a_Node000003"><a xlink:href="classGraph.html#a5251028681c86e92da84163ab7dac73e" target="_top" xlink:title=" ">
<polygon fill="white" stroke="#666666" points="352.25,-188.75 238.75,-188.75 238.75,-168 352.25,-168 352.25,-188.75"/>
<text text-anchor="middle" x="295.5" y="-175.25" font-family="Helvetica,sans-Serif" font-size="10.00">Graph::forEachNode</text>
</a>
</g>
</g>
<!-- Node1&#45;&gt;Node3 -->
<g id="edge2_Node000001_Node000003" class="edge">
<title>Node1&#45;&gt;Node3</title>
<g id="a_edge2_Node000001_Node000003"><a xlink:title=" ">
<path fill="none" stroke="#63b8ff" d="M118.77,-127.62C141.55,-138 171.88,-150.83 199.75,-159.38 208.53,-162.07 217.89,-164.48 227.18,-166.6"/>
<polygon fill="#63b8ff" stroke="#63b8ff" points="226.43,-170.02 236.95,-168.73 227.92,-163.18 226.43,-170.02"/>
</a>
</g>
</g>
<!-- Node4 -->
<g id="Node000004" class="node">
<title>Node4</title>
<g id="a_Node000004"><a xlink:href="classSqliteIndexStorage.html#a220b1033a8cc52a51ca657574a7cd88c" target="_top" xlink:title=" ">
<polygon fill="white" stroke="#666666" points="391.25,-150.12 199.75,-150.12 199.75,-116.62 391.25,-116.62 391.25,-150.12"/>
<text text-anchor="start" x="207.75" y="-136.62" font-family="Helvetica,sans-Serif" font-size="10.00">SqliteIndexStorage</text>
<text text-anchor="middle" x="295.5" y="-123.88" font-family="Helvetica,sans-Serif" font-size="10.00">::getComponentAccessesByNodeIds</text>
</a>
</g>
</g>
<!-- Node1&#45;&gt;Node4 -->
<g id="edge3_Node000001_Node000004" class="edge">
<title>Node1&#45;&gt;Node4</title>
<g id="a_edge3_Node000001_Node000004"><a xlink:title=" ">
<path fill="none" stroke="#63b8ff" d="M164.09,-119.2C171.93,-120.05 179.97,-120.93 188.01,-121.8"/>
<polygon fill="#63b8ff" stroke="#63b8ff" points="187.53,-125.27 197.85,-122.87 188.29,-118.31 187.53,-125.27"/>
</a>
</g>
</g>
<!-- Node7 -->
<g id="Node000007" class="node">
<title>Node7</title>
<g id="a_Node000007"><a xlink:href="classToken.html#a7327713d89dab24b733a7ff9096deea0" target="_top" xlink:title=" ">
<polygon fill="white" stroke="#666666" points="332.75,-98.75 258.25,-98.75 258.25,-78 332.75,-78 332.75,-98.75"/>
<text text-anchor="middle" x="295.5" y="-85.25" font-family="Helvetica,sans-Serif" font-size="10.00">Token::getId</text>
</a>
</g>
</g>
<!-- Node1&#45;&gt;Node7 -->
<g id="edge6_Node000001_Node000007" class="edge">
<title>Node1&#45;&gt;Node7</title>
<g id="a_edge6_Node000001_Node000007"><a xlink:title=" ">
<path fill="none" stroke="#63b8ff" d="M164.09,-101.93C191.94,-99.04 222.19,-95.89 246.54,-93.36"/>
<polygon fill="#63b8ff" stroke="#63b8ff" points="246.89,-96.84 256.48,-92.33 246.17,-89.88 246.89,-96.84"/>
</a>
</g>
</g>
<!-- Node8 -->
<g id="Node000008" class="node">
<title>Node8</title>
<g id="a_Node000008"><a xlink:href="classGraph.html#a6b9edd5c521d6564853a8bcf7913ebc7" target="_top" xlink:title=" ">
<polygon fill="white" stroke="#666666" points="352.62,-59.75 238.38,-59.75 238.38,-39 352.62,-39 352.62,-59.75"/>
<text text-anchor="middle" x="295.5" y="-46.25" font-family="Helvetica,sans-Serif" font-size="10.00">Graph::getNodeById</text>
</a>
</g>
</g>
<!-- Node1&#45;&gt;Node8 -->
<g id="edge7_Node000001_Node000008" class="edge">
<title>Node1&#45;&gt;Node8</title>
<g id="a_edge7_Node000001_Node000008"><a xlink:title=" ">
<path fill="none" stroke="#63b8ff" d="M127.68,-93.13C149.25,-85.22 175.62,-76.12 199.75,-69.38 208.5,-66.93 217.77,-64.62 226.97,-62.51"/>
<polygon fill="#63b8ff" stroke="#63b8ff" points="227.62,-65.95 236.62,-60.36 226.1,-59.12 227.62,-65.95"/>
</a>
</g>
</g>
<!-- Node9 -->
<g id="Node000009" class="node">
<title>Node9</title>
<g id="a_Node000009"><a xlink:href="AccessKind_8cpp.html#a17141cba31a9b2c0a4d588c449a6edbc" target="_top" xlink:title=" ">
<polygon fill="white" stroke="#666666" points="342.88,-20.75 248.12,-20.75 248.12,0 342.88,0 342.88,-20.75"/>
<text text-anchor="middle" x="295.5" y="-7.25" font-family="Helvetica,sans-Serif" font-size="10.00">intToAccessKind</text>
</a>
</g>
</g>
<!-- Node1&#45;&gt;Node9 -->
<g id="edge8_Node000001_Node000009" class="edge">
<title>Node1&#45;&gt;Node9</title>
<g id="a_edge8_Node000001_Node000009"><a xlink:title=" ">
<path fill="none" stroke="#63b8ff" d="M102.54,-93.28C124.68,-74.95 162.45,-46.33 199.75,-30.38 211.47,-25.36 224.55,-21.57 237.17,-18.7"/>
<polygon fill="#63b8ff" stroke="#63b8ff" points="237.53,-22.2 246.6,-16.73 236.1,-15.35 237.53,-22.2"/>
</a>
</g>
</g>
<!-- Node5 -->
<g id="Node000005" class="node">
<title>Node5</title>
<g id="a_Node000005"><a xlink:href="namespaceutility.html#a237f617b0b07dbb7215f63901217c7a4" target="_top" xlink:title=" ">
<polygon fill="white" stroke="#666666" points="507.75,-162.75 440,-162.75 440,-142 507.75,-142 507.75,-162.75"/>
<text text-anchor="middle" x="473.88" y="-149.25" font-family="Helvetica,sans-Serif" font-size="10.00">utility::join</text>
</a>
</g>
</g>
<!-- Node4&#45;&gt;Node5 -->
<g id="edge4_Node000004_Node000005" class="edge">
<title>Node4&#45;&gt;Node5</title>
<g id="a_edge4_Node000004_Node000005"><a xlink:title=" ">
<path fill="none" stroke="#63b8ff" d="M391.66,-143.63C404.46,-145 417.06,-146.36 428.38,-147.58"/>
<polygon fill="#63b8ff" stroke="#63b8ff" points="427.84,-151.04 438.16,-148.64 428.59,-144.08 427.84,-151.04"/>
</a>
</g>
</g>
<!-- Node6 -->
<g id="Node000006" class="node">
<title>Node6</title>
<g id="a_Node000006"><a xlink:href="namespaceutility.html#aea0681f6afa2ac9505f8f5a988bd04f8" target="_top" xlink:title=" ">
<polygon fill="white" stroke="#666666" points="520.5,-123.75 427.25,-123.75 427.25,-103 520.5,-103 520.5,-123.75"/>
<text text-anchor="middle" x="473.88" y="-110.25" font-family="Helvetica,sans-Serif" font-size="10.00">utility::toStrings</text>
</a>
</g>
</g>
<!-- Node4&#45;&gt;Node6 -->
<g id="edge5_Node000004_Node000006" class="edge">
<title>Node4&#45;&gt;Node6</title>
<g id="a_edge5_Node000004_Node000006"><a xlink:title=" ">
<path fill="none" stroke="#63b8ff" d="M391.66,-122.58C399.76,-121.67 407.78,-120.76 415.45,-119.89"/>
<polygon fill="#63b8ff" stroke="#63b8ff" points="415.74,-123.38 425.28,-118.77 414.95,-116.42 415.74,-123.38"/>
</a>
</g>
</g>
</g>
</svg>
