<?xml version="1.0" encoding="UTF-8" standalone="no"?>
<!DOCTYPE svg PUBLIC "-//W3C//DTD SVG 1.1//EN"
 "http://www.w3.org/Graphics/SVG/1.1/DTD/svg11.dtd">
<!-- Generated by graphviz version 9.0.0 (0)
 -->
<!-- Title: QtCodeFile::focusTop Pages: 1 -->
<!--zoomable 116 -->

<svg id="main" version="1.1" xmlns="http://www.w3.org/2000/svg" xmlns:xlink="http://www.w3.org/1999/xlink" xml:space="preserve" onload="init(evt)">
<style type="text/css"><![CDATA[
.node, .edge {opacity: 0.7;}
.node.selected, .edge.selected {opacity: 1;}
.edge:hover path { stroke: red; }
.edge:hover polygon { stroke: red; fill: red; }
]]></style>

<defs>
  <circle id="rim" cx="0" cy="0" r="7"/>
  <circle id="rim2" cx="0" cy="0" r="3.5"/>
  <g id="zoomPlus">
    <use xlink:href="#rim" fill="#404040"><set attributeName="fill" to="#808080" begin="zoomplus.mouseover" end="zoomplus.mouseout"/></use>
    <path d="M-4,0h8M0,-4v8" fill="none" stroke="white" stroke-width="1.5" pointer-events="none"/>
  </g>
  <g id="zoomMin">
    <use xlink:href="#rim" fill="#404040"><set attributeName="fill" to="#808080" begin="zoomminus.mouseover" end="zoomminus.mouseout"/></use>
    <path d="M-4,0h8" fill="none" stroke="white" stroke-width="1.5" pointer-events="none"/>
  </g>
  <g id="arrowUp" transform="translate(30 24)">
    <use xlink:href="#rim"/>
    <path pointer-events="none" fill="none" stroke="white" stroke-width="1.5" d="M0,-3.0v7 M-2.5,-0.5L0,-3.0L2.5,-0.5"/>
  </g>
  <g id="arrowRight" transform="rotate(90) translate(36 -43)">
    <use xlink:href="#rim"/>
    <path pointer-events="none" fill="none" stroke="white" stroke-width="1.5" d="M0,-3.0v7 M-2.5,-0.5L0,-3.0L2.5,-0.5"/>
  </g>
  <g id="arrowDown" transform="rotate(180) translate(-30 -48)">
    <use xlink:href="#rim"/>
    <path pointer-events="none" fill="none" stroke="white" stroke-width="1.5" d="M0,-3.0v7 M-2.5,-0.5L0,-3.0L2.5,-0.5"/>
  </g>
  <g id="arrowLeft" transform="rotate(270) translate(-36 17)">
    <use xlink:href="#rim"/>
    <path pointer-events="none" fill="none" stroke="white" stroke-width="1.5" d="M0,-3.0v7 M-2.5,-0.5L0,-3.0L2.5,-0.5"/>
  </g>
  <g id="resetDef">
    <use xlink:href="#rim2" fill="#404040"><set attributeName="fill" to="#808080" begin="reset.mouseover" end="reset.mouseout"/></use>
  </g>
</defs>
<script type="application/ecmascript">
var viewWidth = 1301;
var viewHeight = 116;
var sectionId = 'dynsection-15';
</script>
<script type="application/ecmascript" xlink:href="svg.min.js"/>
<svg id="graph" class="graph">
<g id="viewport">
<title>QtCodeFile::focusTop</title>
<!-- Node1 -->
<g id="Node000001" class="node">
<title>Node1</title>
<g id="a_Node000001"><a xlink:title=" ">
<polygon fill="#999999" stroke="#666666" points="117.25,-49.12 0,-49.12 0,-28.38 117.25,-28.38 117.25,-49.12"/>
<text text-anchor="middle" x="58.62" y="-35.62" font-family="Helvetica,sans-Serif" font-size="10.00">QtCodeFile::focusTop</text>
</a>
</g>
</g>
<!-- Node2 -->
<g id="Node000002" class="node">
<title>Node2</title>
<g id="a_Node000002"><a xlink:href="classCodeFocusHandler.html#a1ffa58db0fec7a79b66ee58b5b393db1" target="_top" xlink:title=" ">
<polygon fill="white" stroke="#666666" points="337.25,-49.12 153.25,-49.12 153.25,-28.38 337.25,-28.38 337.25,-49.12"/>
<text text-anchor="middle" x="245.25" y="-35.62" font-family="Helvetica,sans-Serif" font-size="10.00">CodeFocusHandler::setFocusedFile</text>
</a>
</g>
</g>
<!-- Node1&#45;&gt;Node2 -->
<g id="edge1_Node000001_Node000002" class="edge">
<title>Node1&#45;&gt;Node2</title>
<g id="a_edge1_Node000001_Node000002"><a xlink:title=" ">
<path fill="none" stroke="#63b8ff" d="M117.53,-38.75C125.31,-38.75 133.47,-38.75 141.74,-38.75"/>
<polygon fill="#63b8ff" stroke="#63b8ff" points="141.55,-42.25 151.55,-38.75 141.55,-35.25 141.55,-42.25"/>
</a>
</g>
</g>
<!-- Node3 -->
<g id="Node000003" class="node">
<title>Node3</title>
<g id="a_Node000003"><a xlink:href="classCodeFocusHandler.html#a490e77f69ddbfb9839de943c88817683" target="_top" xlink:title=" ">
<polygon fill="white" stroke="#666666" points="512.25,-68.12 373.25,-68.12 373.25,-47.38 512.25,-47.38 512.25,-68.12"/>
<text text-anchor="middle" x="442.75" y="-54.62" font-family="Helvetica,sans-Serif" font-size="10.00">CodeFocusHandler::focus</text>
</a>
</g>
</g>
<!-- Node2&#45;&gt;Node3 -->
<g id="edge2_Node000002_Node000003" class="edge">
<title>Node2&#45;&gt;Node3</title>
<g id="a_edge2_Node000002_Node000003"><a xlink:title=" ">
<path fill="none" stroke="#63b8ff" d="M337.7,-47.64C345.65,-48.41 353.65,-49.19 361.5,-49.95"/>
<polygon fill="#63b8ff" stroke="#63b8ff" points="361.06,-53.42 371.35,-50.91 361.73,-46.46 361.06,-53.42"/>
</a>
</g>
</g>
<!-- Node5 -->
<g id="Node000005" class="node">
<title>Node5</title>
<g id="a_Node000005"><a xlink:href="classCodeFocusHandler.html#a6cba54f52c7627d75c0846ed76d88957" target="_top" xlink:title=" ">
<polygon fill="white" stroke="#666666" points="712,-55.5 548.25,-55.5 548.25,-22 712,-22 712,-55.5"/>
<text text-anchor="start" x="556.25" y="-42" font-family="Helvetica,sans-Serif" font-size="10.00">CodeFocusHandler::setCurrent</text>
<text text-anchor="middle" x="630.12" y="-29.25" font-family="Helvetica,sans-Serif" font-size="10.00">Focus</text>
</a>
</g>
</g>
<!-- Node2&#45;&gt;Node5 -->
<g id="edge10_Node000002_Node000005" class="edge">
<title>Node2&#45;&gt;Node5</title>
<g id="a_edge10_Node000002_Node000005"><a xlink:title=" ">
<path fill="none" stroke="#63b8ff" d="M337.47,-38.75C397.63,-38.75 476.17,-38.75 536.59,-38.75"/>
<polygon fill="#63b8ff" stroke="#63b8ff" points="536.52,-42.25 546.52,-38.75 536.52,-35.25 536.52,-42.25"/>
</a>
</g>
</g>
<!-- Node4 -->
<g id="Node000004" class="node">
<title>Node4</title>
<g id="a_Node000004"><a xlink:href="structCodeFocusHandler_1_1Focus.html#acb42596bc1f6572b7b8b396db1280bf3" target="_top" xlink:title=" ">
<polygon fill="white" stroke="#666666" points="700.38,-107.5 559.88,-107.5 559.88,-74 700.38,-74 700.38,-107.5"/>
<text text-anchor="start" x="567.88" y="-94" font-family="Helvetica,sans-Serif" font-size="10.00">CodeFocusHandler::Focus</text>
<text text-anchor="middle" x="630.12" y="-81.25" font-family="Helvetica,sans-Serif" font-size="10.00">::isEmpty</text>
</a>
</g>
</g>
<!-- Node3&#45;&gt;Node4 -->
<g id="edge3_Node000003_Node000004" class="edge">
<title>Node3&#45;&gt;Node4</title>
<g id="a_edge3_Node000003_Node000004"><a xlink:title=" ">
<path fill="none" stroke="#63b8ff" d="M504.71,-68.6C518.66,-71.09 533.72,-73.77 548.36,-76.37"/>
<polygon fill="#63b8ff" stroke="#63b8ff" points="547.51,-79.78 557.97,-78.08 548.74,-72.88 547.51,-79.78"/>
</a>
</g>
</g>
<!-- Node3&#45;&gt;Node5 -->
<g id="edge4_Node000003_Node000005" class="edge">
<title>Node3&#45;&gt;Node5</title>
<g id="a_edge4_Node000003_Node000005"><a xlink:title=" ">
<path fill="none" stroke="#63b8ff" d="M491.01,-46.94C505.13,-44.96 521.11,-43.06 537.08,-41.43"/>
<polygon fill="#63b8ff" stroke="#63b8ff" points="536.98,-44.96 546.59,-40.5 536.3,-37.99 536.98,-44.96"/>
</a>
</g>
</g>
<!-- Node5&#45;&gt;Node3 -->
<g id="edge8_Node000005_Node000003" class="edge">
<title>Node5&#45;&gt;Node3</title>
<g id="a_edge8_Node000005_Node000003"><a xlink:title=" ">
<path fill="none" stroke="#63b8ff" d="M547.94,-53.77C539.91,-54.66 531.76,-55.49 523.74,-56.24"/>
<polygon fill="#63b8ff" stroke="#63b8ff" points="523.67,-52.74 514.02,-57.11 524.29,-59.71 523.67,-52.74"/>
</a>
</g>
</g>
<!-- Node6 -->
<g id="Node000006" class="node">
<title>Node6</title>
<g id="a_Node000006"><a xlink:href="classMessage.html#a4556438d5bb073d6f19ea777fe3faf10" target="_top" xlink:title=" ">
<polygon fill="white" stroke="#666666" points="874.62,-72.12 767.88,-72.12 767.88,-51.38 874.62,-51.38 874.62,-72.12"/>
<text text-anchor="middle" x="821.25" y="-58.62" font-family="Helvetica,sans-Serif" font-size="10.00">Message::dispatch</text>
</a>
</g>
</g>
<!-- Node5&#45;&gt;Node6 -->
<g id="edge5_Node000005_Node000006" class="edge">
<title>Node5&#45;&gt;Node6</title>
<g id="a_edge5_Node000005_Node000006"><a xlink:title=" ">
<path fill="none" stroke="#63b8ff" d="M712.43,-48.64C727.12,-50.42 742.25,-52.26 756.36,-53.98"/>
<polygon fill="#63b8ff" stroke="#63b8ff" points="755.57,-57.41 765.92,-55.14 756.42,-50.46 755.57,-57.41"/>
</a>
</g>
</g>
<!-- Node9 -->
<g id="Node000009" class="node">
<title>Node9</title>
<g id="a_Node000009"><a xlink:href="classCodeFocusHandler.html#a06f799c6b1b33d77618fc5150f06b32e" target="_top" xlink:title=" ">
<polygon fill="white" stroke="#666666" points="894.5,-33.5 748,-33.5 748,0 894.5,0 894.5,-33.5"/>
<text text-anchor="start" x="756" y="-20" font-family="Helvetica,sans-Serif" font-size="10.00">CodeFocusHandler::update</text>
<text text-anchor="middle" x="821.25" y="-7.25" font-family="Helvetica,sans-Serif" font-size="10.00">Files</text>
</a>
</g>
</g>
<!-- Node5&#45;&gt;Node9 -->
<g id="edge9_Node000005_Node000009" class="edge">
<title>Node5&#45;&gt;Node9</title>
<g id="a_edge9_Node000005_Node000009"><a xlink:title=" ">
<path fill="none" stroke="#63b8ff" d="M712.43,-29.29C720.39,-28.37 728.48,-27.43 736.47,-26.5"/>
<polygon fill="#63b8ff" stroke="#63b8ff" points="736.63,-30 746.16,-25.37 735.82,-23.05 736.63,-30"/>
</a>
</g>
</g>
<!-- Node7 -->
<g id="Node000007" class="node">
<title>Node7</title>
<g id="a_Node000007"><a xlink:href="classMessageQueue.html#a085ebbc4ba9c58eeeaad64e77efc8e07" target="_top" xlink:title=" ">
<polygon fill="white" stroke="#666666" points="1084.5,-72.12 930.5,-72.12 930.5,-51.38 1084.5,-51.38 1084.5,-72.12"/>
<text text-anchor="middle" x="1007.5" y="-58.62" font-family="Helvetica,sans-Serif" font-size="10.00">MessageQueue::getInstance</text>
</a>
</g>
</g>
<!-- Node6&#45;&gt;Node7 -->
<g id="edge6_Node000006_Node000007" class="edge">
<title>Node6&#45;&gt;Node7</title>
<g id="a_edge6_Node000006_Node000007"><a xlink:title=" ">
<path fill="none" stroke="#63b8ff" d="M875.05,-61.75C888.69,-61.75 903.75,-61.75 918.66,-61.75"/>
<polygon fill="#63b8ff" stroke="#63b8ff" points="918.49,-65.25 928.49,-61.75 918.49,-58.25 918.49,-65.25"/>
</a>
</g>
</g>
<!-- Node8 -->
<g id="Node000008" class="node">
<title>Node8</title>
<g id="a_Node000008"><a xlink:href="classMessageQueue.html#a006069f4b83d2372c989c52784fac5de" target="_top" xlink:title=" ">
<polygon fill="white" stroke="#666666" points="1292.5,-72.12 1120.5,-72.12 1120.5,-51.38 1292.5,-51.38 1292.5,-72.12"/>
<text text-anchor="middle" x="1206.5" y="-58.62" font-family="Helvetica,sans-Serif" font-size="10.00">MessageQueue::MessageQueue</text>
</a>
</g>
</g>
<!-- Node7&#45;&gt;Node8 -->
<g id="edge7_Node000007_Node000008" class="edge">
<title>Node7&#45;&gt;Node8</title>
<g id="a_edge7_Node000007_Node000008"><a xlink:title=" ">
<path fill="none" stroke="#63b8ff" d="M1084.95,-61.75C1092.81,-61.75 1100.88,-61.75 1108.92,-61.75"/>
<polygon fill="#63b8ff" stroke="#63b8ff" points="1108.75,-65.25 1118.75,-61.75 1108.75,-58.25 1108.75,-65.25"/>
</a>
</g>
</g>
</g>
</svg>

<g id="navigator" transform="translate(0 0)" fill="#404254">
  <rect fill="#f2f5e9" fill-opacity="0.5" stroke="#606060" stroke-width=".5" x="0" y="0" width="60" height="60"/>
  <use id="zoomplus" xlink:href="#zoomPlus" x="17" y="9" onmousedown="handleZoom(evt,'in')"/>
  <use id="zoomminus" xlink:href="#zoomMin" x="42" y="9" onmousedown="handleZoom(evt,'out')"/>
  <use id="reset" xlink:href="#resetDef" x="30" y="36" onmousedown="handleReset()"/>
   <use id="arrowup" xlink:href="#arrowUp" x="0" y="0" onmousedown="handlePan(0,-1)"/>
  <use id="arrowright" xlink:href="#arrowRight" x="0" y="0" onmousedown="handlePan(1,0)"/>
  <use id="arrowdown" xlink:href="#arrowDown" x="0" y="0" onmousedown="handlePan(0,1)"/>
  <use id="arrowleft" xlink:href="#arrowLeft" x="0" y="0" onmousedown="handlePan(-1,0)"/>
</g>
<svg viewBox="0 0 15 15" width="100%" height="30px" preserveAspectRatio="xMaxYMin meet">
 <g id="arrow_out" transform="scale(0.3 0.3)">
  <a xlink:href="classQtCodeFile_aaf07553eedd8b80a85560dc4f25b5777_cgraph_org.svg" target="_base">
   <rect id="button" ry="5" rx="5" y="6" x="6" height="38" width="38"
        fill="#f2f5e9" fill-opacity="0.5" stroke="#606060" stroke-width="1.0"/>
   <path id="arrow"
     d="M 11.500037,31.436501 C 11.940474,20.09759 22.043105,11.32322 32.158766,21.979434 L 37.068811,17.246167 C 37.068811,17.246167 37.088388,32 37.088388,32 L 22.160133,31.978069 C 22.160133,31.978069 26.997745,27.140456 26.997745,27.140456 C 18.528582,18.264221 13.291696,25.230495 11.500037,31.436501 z"
     style="fill:#404040;"/>
  </a>
 </g>
</svg>

<style type='text/css'>
<![CDATA[
[data-mouse-over-selected='false'] { opacity: 0.7; }
[data-mouse-over-selected='true']  { opacity: 1.0; }
]]>
</style>
<script type="application/ecmascript"><![CDATA[
document.addEventListener('DOMContentLoaded', (event) => {
  highlightEdges();
  highlightAdjacentNodes();
});
]]></script>
</svg>
