<?xml version="1.0" encoding="UTF-8" standalone="no"?>
<!DOCTYPE svg PUBLIC "-//W3C//DTD SVG 1.1//EN"
 "http://www.w3.org/Graphics/SVG/1.1/DTD/svg11.dtd">
<!-- Generated by graphviz version 9.0.0 (0)
 -->
<!-- Title: IntermediateStorage::addNode Pages: 1 -->
<svg width="696pt" height="109pt"
 viewBox="0.00 0.00 696.00 109.12" xmlns="http://www.w3.org/2000/svg" xmlns:xlink="http://www.w3.org/1999/xlink">
<g id="graph0" class="graph" transform="scale(1 1) rotate(0) translate(4 105.12)">
<title>IntermediateStorage::addNode</title>
<!-- Node1 -->
<g id="Node000001" class="node">
<title>Node1</title>
<g id="a_Node000001"><a xlink:title=" ">
<polygon fill="#999999" stroke="#666666" points="688,-59.5 571.5,-59.5 571.5,-26 688,-26 688,-59.5"/>
<text text-anchor="start" x="579.5" y="-46" font-family="Helvetica,sans-Serif" font-size="10.00">IntermediateStorage</text>
<text text-anchor="middle" x="629.75" y="-33.25" font-family="Helvetica,sans-Serif" font-size="10.00">::addNode</text>
</a>
</g>
</g>
<!-- Node2 -->
<g id="Node000002" class="node">
<title>Node2</title>
<g id="a_Node000002"><a xlink:href="classParserClientImpl.html#a940c7625a2a6f9638274f9094b03b66e" target="_top" xlink:title=" ">
<polygon fill="white" stroke="#666666" points="535.5,-85.5 389,-85.5 389,-52 535.5,-52 535.5,-85.5"/>
<text text-anchor="start" x="397" y="-72" font-family="Helvetica,sans-Serif" font-size="10.00">ParserClientImpl::addNode</text>
<text text-anchor="middle" x="462.25" y="-59.25" font-family="Helvetica,sans-Serif" font-size="10.00">Hierarchy</text>
</a>
</g>
</g>
<!-- Node1&#45;&gt;Node2 -->
<g id="edge1_Node000001_Node000002" class="edge">
<title>Node1&#45;&gt;Node2</title>
<g id="a_edge1_Node000001_Node000002"><a xlink:title=" ">
<path fill="none" stroke="#63b8ff" d="M560.11,-53.53C552.06,-54.8 543.83,-56.09 535.73,-57.36"/>
<polygon fill="#63b8ff" stroke="#63b8ff" points="560.5,-57.02 569.84,-52.01 559.41,-50.1 560.5,-57.02"/>
</a>
</g>
</g>
<!-- Node6 -->
<g id="Node000006" class="node">
<title>Node6</title>
<g id="a_Node000006"><a xlink:href="classIntermediateStorage.html#aeff31c06e19ea16f59efa5e5953f0b5c" target="_top" xlink:title=" ">
<polygon fill="white" stroke="#666666" points="520.5,-33.5 404,-33.5 404,0 520.5,0 520.5,-33.5"/>
<text text-anchor="start" x="412" y="-20" font-family="Helvetica,sans-Serif" font-size="10.00">IntermediateStorage</text>
<text text-anchor="middle" x="462.25" y="-7.25" font-family="Helvetica,sans-Serif" font-size="10.00">::addNodes</text>
</a>
</g>
</g>
<!-- Node1&#45;&gt;Node6 -->
<g id="edge5_Node000001_Node000006" class="edge">
<title>Node1&#45;&gt;Node6</title>
<g id="a_edge5_Node000001_Node000006"><a xlink:title=" ">
<path fill="none" stroke="#63b8ff" d="M560.04,-31.95C547,-29.91 533.49,-27.79 520.85,-25.8"/>
<polygon fill="#63b8ff" stroke="#63b8ff" points="559.41,-35.4 569.84,-33.49 560.5,-28.48 559.41,-35.4"/>
</a>
</g>
</g>
<!-- Node3 -->
<g id="Node000003" class="node">
<title>Node3</title>
<g id="a_Node000003"><a xlink:href="classParserClientImpl.html#ab0373e2bebff5883eb88a4fc9243f1c7" target="_top" xlink:title=" ">
<polygon fill="white" stroke="#666666" points="353,-101.12 186.25,-101.12 186.25,-80.38 353,-80.38 353,-101.12"/>
<text text-anchor="middle" x="269.62" y="-87.62" font-family="Helvetica,sans-Serif" font-size="10.00">ParserClientImpl::addFileName</text>
</a>
</g>
</g>
<!-- Node2&#45;&gt;Node3 -->
<g id="edge2_Node000002_Node000003" class="edge">
<title>Node2&#45;&gt;Node3</title>
<g id="a_edge2_Node000002_Node000003"><a xlink:title=" ">
<path fill="none" stroke="#63b8ff" d="M377.4,-78.43C369.37,-79.35 361.24,-80.29 353.23,-81.22"/>
<polygon fill="#63b8ff" stroke="#63b8ff" points="377.6,-81.93 387.14,-77.3 376.8,-74.97 377.6,-81.93"/>
</a>
</g>
</g>
<!-- Node5 -->
<g id="Node000005" class="node">
<title>Node5</title>
<g id="a_Node000005"><a xlink:href="classParserClientImpl.html#aa4915a8b3f6eb71ed3f1e084edee6057" target="_top" xlink:title=" ">
<polygon fill="white" stroke="#666666" points="336.5,-62.5 202.75,-62.5 202.75,-29 336.5,-29 336.5,-62.5"/>
<text text-anchor="start" x="210.75" y="-49" font-family="Helvetica,sans-Serif" font-size="10.00">ParserClientImpl::record</text>
<text text-anchor="middle" x="269.62" y="-36.25" font-family="Helvetica,sans-Serif" font-size="10.00">Symbol</text>
</a>
</g>
</g>
<!-- Node2&#45;&gt;Node5 -->
<g id="edge4_Node000002_Node000005" class="edge">
<title>Node2&#45;&gt;Node5</title>
<g id="a_edge4_Node000002_Node000005"><a xlink:title=" ">
<path fill="none" stroke="#63b8ff" d="M377.33,-58.62C363.75,-56.99 349.86,-55.31 336.78,-53.73"/>
<polygon fill="#63b8ff" stroke="#63b8ff" points="376.79,-62.08 387.14,-59.81 377.63,-55.14 376.79,-62.08"/>
</a>
</g>
</g>
<!-- Node4 -->
<g id="Node000004" class="node">
<title>Node4</title>
<g id="a_Node000004"><a xlink:href="classParserClientImpl.html#a254726d0926a918e12827e210612c76e" target="_top" xlink:title=" ">
<polygon fill="white" stroke="#666666" points="150.25,-101.12 0,-101.12 0,-80.38 150.25,-80.38 150.25,-101.12"/>
<text text-anchor="middle" x="75.12" y="-87.62" font-family="Helvetica,sans-Serif" font-size="10.00">ParserClientImpl::recordFile</text>
</a>
</g>
</g>
<!-- Node3&#45;&gt;Node4 -->
<g id="edge3_Node000003_Node000004" class="edge">
<title>Node3&#45;&gt;Node4</title>
<g id="a_edge3_Node000003_Node000004"><a xlink:title=" ">
<path fill="none" stroke="#63b8ff" d="M174.55,-90.75C166.52,-90.75 158.46,-90.75 150.61,-90.75"/>
<polygon fill="#63b8ff" stroke="#63b8ff" points="174.36,-94.25 184.36,-90.75 174.36,-87.25 174.36,-94.25"/>
</a>
</g>
</g>
</g>
</svg>
