<?xml version="1.0" encoding="UTF-8" standalone="no"?>
<!DOCTYPE svg PUBLIC "-//W3C//DTD SVG 1.1//EN"
 "http://www.w3.org/Graphics/SVG/1.1/DTD/svg11.dtd">
<!-- Generated by graphviz version 7.1.0 (0)
 -->
<!-- Title: FileTree::doGetAbsoluteRootPathsForRelativeFilePath Pages: 1 -->
<!--zoomable 161 -->
<svg id="main" version="1.1" xmlns="http://www.w3.org/2000/svg" xmlns:xlink="http://www.w3.org/1999/xlink" xml:space="preserve" onload="init(evt)">
<style type="text/css"><![CDATA[
.edge:hover path { stroke: red; }
.edge:hover polygon { stroke: red; fill: red; }
]]></style>
<script type="text/javascript"><![CDATA[
var edges = document.getElementsByTagName('g');
if (edges && edges.length) {
  for (var i=0;i<edges.length;i++) {
    if (edges[i].id.substr(0,4)=='edge') {
      edges[i].setAttribute('class','edge');
    }
  }
}
]]></script>
        <defs>
                <circle id="rim" cx="0" cy="0" r="7"/>
                <circle id="rim2" cx="0" cy="0" r="3.5"/>
                <g id="zoomPlus">
                        <use xlink:href="#rim" fill="#404040">
                                <set attributeName="fill" to="#808080" begin="zoomplus.mouseover" end="zoomplus.mouseout"/>
                        </use>
                        <path d="M-4,0h8M0,-4v8" fill="none" stroke="white" stroke-width="1.5" pointer-events="none"/>
                </g>
                <g id="zoomMin">
                        <use xlink:href="#rim" fill="#404040">
                                <set attributeName="fill" to="#808080" begin="zoomminus.mouseover" end="zoomminus.mouseout"/>
                        </use>
                        <path d="M-4,0h8" fill="none" stroke="white" stroke-width="1.5" pointer-events="none"/>
                </g>
                <g id="dirArrow">
                        <path fill="none" stroke="white" stroke-width="1.5" d="M0,-3.0v7 M-2.5,-0.5L0,-3.0L2.5,-0.5"/>
                </g>
               <g id="resetDef">
                       <use xlink:href="#rim2" fill="#404040">
                               <set attributeName="fill" to="#808080" begin="reset.mouseover" end="reset.mouseout"/>
                       </use>
               </g>
        </defs>

<script type="text/javascript">
var viewWidth = 635;
var viewHeight = 161;
var sectionId = 'dynsection-2';
</script>
<script xlink:href="svgpan.js"/>
<svg id="graph" class="graph">
<g id="viewport">
<title>FileTree::doGetAbsoluteRootPathsForRelativeFilePath</title>
<!-- Node1 -->
<g id="node1" class="node">
<title>Node1</title>
<g id="a_node1"><a xlink:title=" ">
<polygon fill="#999999" stroke="#666666" points="154,-122.5 0,-122.5 0,-92.5 154,-92.5 154,-122.5"/>
<text text-anchor="start" x="8" y="-110.5" font-family="Helvetica,sans-Serif" font-size="10.00">FileTree::doGetAbsoluteRoot</text>
<text text-anchor="middle" x="77" y="-99.5" font-family="Helvetica,sans-Serif" font-size="10.00">PathsForRelativeFilePath</text>
</a>
</g>
</g>
<!-- Node2 -->
<g id="node2" class="node">
<title>Node2</title>
<g id="a_node2"><a xlink:href="classFilePath.html#ae09c07f1ae9ac6f650a765cc11cc6494" target="_top" xlink:title=" ">
<polygon fill="white" stroke="#666666" points="482,-152 390,-152 390,-133 482,-133 482,-152"/>
<text text-anchor="middle" x="436" y="-140" font-family="Helvetica,sans-Serif" font-size="10.00">FilePath::empty</text>
</a>
</g>
</g>
<!-- Node1&#45;&gt;Node2 -->
<g id="edge1" class="edge">
<title>Node1&#45;&gt;Node2</title>
<path fill="none" stroke="#63b8ff" d="M113.8,-122.99C135.41,-131.5 163.76,-141.17 190,-145.5 254.05,-156.07 328.81,-152.97 378.74,-148.74"/>
<polygon fill="#63b8ff" stroke="#63b8ff" points="378.78,-152.25 388.43,-147.88 378.16,-145.28 378.78,-152.25"/>
</g>
<!-- Node3 -->
<g id="node3" class="node">
<title>Node3</title>
<g id="a_node3"><a xlink:href="classFilePath.html#a353c6c2dc5333ffc3f328f1daac2ea97" target="_top" xlink:title=" ">
<polygon fill="white" stroke="#666666" points="319.5,-136 213.5,-136 213.5,-117 319.5,-117 319.5,-136"/>
<text text-anchor="middle" x="266.5" y="-124" font-family="Helvetica,sans-Serif" font-size="10.00">FilePath::fileName</text>
</a>
</g>
</g>
<!-- Node1&#45;&gt;Node3 -->
<g id="edge2" class="edge">
<title>Node1&#45;&gt;Node3</title>
<path fill="none" stroke="#63b8ff" d="M154.26,-115.23C170.02,-116.82 186.46,-118.49 201.71,-120.04"/>
<polygon fill="#63b8ff" stroke="#63b8ff" points="201.31,-123.51 211.61,-121.04 202.01,-116.55 201.31,-123.51"/>
</g>
<!-- Node4 -->
<g id="node4" class="node">
<title>Node4</title>
<g id="a_node4"><a xlink:href="classFileSystem.html#a74473532acd62c12a15ae0c416e9a615" target="_top" xlink:title=" ">
<polygon fill="white" stroke="#666666" points="336,-61.5 197,-61.5 197,-31.5 336,-31.5 336,-61.5"/>
<text text-anchor="start" x="205" y="-49.5" font-family="Helvetica,sans-Serif" font-size="10.00">FileSystem::getDirectSub</text>
<text text-anchor="middle" x="266.5" y="-38.5" font-family="Helvetica,sans-Serif" font-size="10.00">Directories</text>
</a>
</g>
</g>
<!-- Node1&#45;&gt;Node4 -->
<g id="edge3" class="edge">
<title>Node1&#45;&gt;Node4</title>
<path fill="none" stroke="#63b8ff" d="M125.31,-92.11C150.2,-84.01 180.93,-74.01 207.27,-65.45"/>
<polygon fill="#63b8ff" stroke="#63b8ff" points="208.01,-68.88 216.44,-62.46 205.84,-62.23 208.01,-68.88"/>
</g>
<!-- Node9 -->
<g id="node9" class="node">
<title>Node9</title>
<g id="a_node9"><a xlink:href="classFilePath.html#aaf06bc0f27bbc6d93172f25d0c8605a3" target="_top" xlink:title=" ">
<polygon fill="white" stroke="#666666" points="343,-99 190,-99 190,-80 343,-80 343,-99"/>
<text text-anchor="middle" x="266.5" y="-87" font-family="Helvetica,sans-Serif" font-size="10.00">FilePath::getParentDirectory</text>
</a>
</g>
</g>
<!-- Node1&#45;&gt;Node9 -->
<g id="edge9" class="edge">
<title>Node1&#45;&gt;Node9</title>
<path fill="none" stroke="#63b8ff" d="M154.26,-100.18C162.19,-99.42 170.29,-98.64 178.32,-97.87"/>
<polygon fill="#63b8ff" stroke="#63b8ff" points="178.48,-101.37 188.1,-96.93 177.81,-94.4 178.48,-101.37"/>
</g>
<!-- Node5 -->
<g id="node5" class="node">
<title>Node5</title>
<g id="a_node5"><a xlink:href="classFilePath.html#a59fa57dcd7d19d74aaee62f072f14b3d" target="_top" xlink:title=" ">
<polygon fill="white" stroke="#666666" points="481,-93 391,-93 391,-74 481,-74 481,-93"/>
<text text-anchor="middle" x="436" y="-81" font-family="Helvetica,sans-Serif" font-size="10.00">FilePath::exists</text>
</a>
</g>
</g>
<!-- Node4&#45;&gt;Node5 -->
<g id="edge4" class="edge">
<title>Node4&#45;&gt;Node5</title>
<path fill="none" stroke="#63b8ff" d="M336.11,-61.66C350.65,-64.87 365.83,-68.22 379.8,-71.31"/>
<polygon fill="#63b8ff" stroke="#63b8ff" points="378.71,-74.65 389.23,-73.39 380.22,-67.81 378.71,-74.65"/>
</g>
<!-- Node7 -->
<g id="node7" class="node">
<title>Node7</title>
<g id="a_node7"><a xlink:href="classFilePath.html#a9720b7e43230f31e635394ba5bf571a9" target="_top" xlink:title=" ">
<polygon fill="white" stroke="#666666" points="493,-56 379,-56 379,-37 493,-37 493,-56"/>
<text text-anchor="middle" x="436" y="-44" font-family="Helvetica,sans-Serif" font-size="10.00">FilePath::isDirectory</text>
</a>
</g>
</g>
<!-- Node4&#45;&gt;Node7 -->
<g id="edge6" class="edge">
<title>Node4&#45;&gt;Node7</title>
<path fill="none" stroke="#63b8ff" d="M336.11,-46.5C346.35,-46.5 356.9,-46.5 367.13,-46.5"/>
<polygon fill="#63b8ff" stroke="#63b8ff" points="366.99,-50 376.99,-46.5 366.99,-43 366.99,-50"/>
</g>
<!-- Node8 -->
<g id="node8" class="node">
<title>Node8</title>
<g id="a_node8"><a xlink:href="classFilePath.html#ae43df68f4d64aa712319fcebebf5236b" target="_top" xlink:title=" ">
<polygon fill="white" stroke="#666666" points="473,-19 399,-19 399,0 473,0 473,-19"/>
<text text-anchor="middle" x="436" y="-7" font-family="Helvetica,sans-Serif" font-size="10.00">FilePath::str</text>
</a>
</g>
</g>
<!-- Node4&#45;&gt;Node8 -->
<g id="edge8" class="edge">
<title>Node4&#45;&gt;Node8</title>
<path fill="none" stroke="#63b8ff" d="M336.11,-31.34C353.41,-27.52 371.61,-23.5 387.61,-19.97"/>
<polygon fill="#63b8ff" stroke="#63b8ff" points="388.34,-23.39 397.35,-17.82 386.83,-16.56 388.34,-23.39"/>
</g>
<!-- Node6 -->
<g id="node6" class="node">
<title>Node6</title>
<g id="a_node6"><a xlink:href="classFilePath.html#a544387c4aea50aec855062fd02e436ae" target="_top" xlink:title=" ">
<polygon fill="white" stroke="#666666" points="627,-74 529,-74 529,-55 627,-55 627,-74"/>
<text text-anchor="middle" x="578" y="-62" font-family="Helvetica,sans-Serif" font-size="10.00">FilePath::getPath</text>
</a>
</g>
</g>
<!-- Node5&#45;&gt;Node6 -->
<g id="edge5" class="edge">
<title>Node5&#45;&gt;Node6</title>
<path fill="none" stroke="#63b8ff" d="M481.3,-77.49C492.71,-75.94 505.18,-74.25 517.24,-72.61"/>
<polygon fill="#63b8ff" stroke="#63b8ff" points="517.69,-76.08 527.12,-71.27 516.74,-69.15 517.69,-76.08"/>
</g>
<!-- Node7&#45;&gt;Node6 -->
<g id="edge7" class="edge">
<title>Node7&#45;&gt;Node6</title>
<path fill="none" stroke="#63b8ff" d="M493.14,-53.72C501.1,-54.74 509.31,-55.8 517.34,-56.83"/>
<polygon fill="#63b8ff" stroke="#63b8ff" points="516.65,-60.27 527.02,-58.07 517.54,-53.33 516.65,-60.27"/>
</g>
<!-- Node9&#45;&gt;Node2 -->
<g id="edge10" class="edge">
<title>Node9&#45;&gt;Node2</title>
<path fill="none" stroke="#63b8ff" d="M310.45,-99.46C321.14,-102.17 332.54,-105.26 343,-108.5 361.95,-114.37 382.7,-121.93 399.69,-128.44"/>
<polygon fill="#63b8ff" stroke="#63b8ff" points="398.26,-131.64 408.85,-131.99 400.79,-125.11 398.26,-131.64"/>
</g>
</g>
</svg>
        <g id="navigator" transform="translate(0 0)" fill="#404254">
                <rect fill="#f2f5e9" fill-opacity="0.5" stroke="#606060" stroke-width=".5" x="0" y="0" width="60" height="60"/>
                <use id="zoomplus" xlink:href="#zoomPlus" x="17" y="9" onmousedown="handleZoom(evt,'in')"/>
                <use id="zoomminus" xlink:href="#zoomMin" x="42" y="9" onmousedown="handleZoom(evt,'out')"/>
                <use id="reset" xlink:href="#resetDef" x="30" y="36" onmousedown="handleReset()"/>
                <g id="arrowUp" xlink:href="#dirArrow" transform="translate(30 24)" onmousedown="handlePan(0,-1)">
                  <use xlink:href="#rim" fill="#404040">
                        <set attributeName="fill" to="#808080" begin="arrowUp.mouseover" end="arrowUp.mouseout"/>
                  </use>
                  <path fill="none" stroke="white" stroke-width="1.5" d="M0,-3.0v7 M-2.5,-0.5L0,-3.0L2.5,-0.5"/>
                </g>
                <g id="arrowRight" xlink:href="#dirArrow" transform="rotate(90) translate(36 -43)" onmousedown="handlePan(1,0)">
                  <use xlink:href="#rim" fill="#404040">
                        <set attributeName="fill" to="#808080" begin="arrowRight.mouseover" end="arrowRight.mouseout"/>
                  </use>
                  <path fill="none" stroke="white" stroke-width="1.5" d="M0,-3.0v7 M-2.5,-0.5L0,-3.0L2.5,-0.5"/>
                </g>
                <g id="arrowDown" xlink:href="#dirArrow" transform="rotate(180) translate(-30 -48)" onmousedown="handlePan(0,1)">
                  <use xlink:href="#rim" fill="#404040">
                        <set attributeName="fill" to="#808080" begin="arrowDown.mouseover" end="arrowDown.mouseout"/>
                  </use>
                  <path fill="none" stroke="white" stroke-width="1.5" d="M0,-3.0v7 M-2.5,-0.5L0,-3.0L2.5,-0.5"/>
                </g>
                <g id="arrowLeft" xlink:href="#dirArrow" transform="rotate(270) translate(-36 17)" onmousedown="handlePan(-1,0)">
                  <use xlink:href="#rim" fill="#404040">
                        <set attributeName="fill" to="#808080" begin="arrowLeft.mouseover" end="arrowLeft.mouseout"/>
                  </use>
                  <path fill="none" stroke="white" stroke-width="1.5" d="M0,-3.0v7 M-2.5,-0.5L0,-3.0L2.5,-0.5"/>
                </g>
        </g>
        <svg viewBox="0 0 15 15" width="100%" height="30px" preserveAspectRatio="xMaxYMin meet">
         <g id="arrow_out" transform="scale(0.3 0.3)">
          <a xlink:href="classFileTree_aa1b345b34b24b96bb4382838e573a179_cgraph_org.svg" target="_base">
           <rect id="button" ry="5" rx="5" y="6" x="6" height="38" width="38"
                fill="#f2f5e9" fill-opacity="0.5" stroke="#606060" stroke-width="1.0"/>
           <path id="arrow"
             d="M 11.500037,31.436501 C 11.940474,20.09759 22.043105,11.32322 32.158766,21.979434 L 37.068811,17.246167 C 37.068811,17.246167 37.088388,32 37.088388,32 L 22.160133,31.978069 C 22.160133,31.978069 26.997745,27.140456 26.997745,27.140456 C 18.528582,18.264221 13.291696,25.230495 11.500037,31.436501 z"
             style="fill:#404040;"/>
          </a>
         </g>
        </svg>
</svg>
