<?xml version="1.0" encoding="UTF-8" standalone="no"?>
<!DOCTYPE svg PUBLIC "-//W3C//DTD SVG 1.1//EN"
 "http://www.w3.org/Graphics/SVG/1.1/DTD/svg11.dtd">
<!-- Generated by graphviz version 7.1.0 (0)
 -->
<!-- Title: IDECommunicationController::handleMessage Pages: 1 -->
<svg width="360pt" height="86pt"
 viewBox="0.00 0.00 360.00 86.00" xmlns="http://www.w3.org/2000/svg" xmlns:xlink="http://www.w3.org/1999/xlink">
<g id="graph0" class="graph" transform="scale(1 1) rotate(0) translate(4 82)">
<title>IDECommunicationController::handleMessage</title>
<!-- Node1 -->
<g id="node1" class="node">
<title>Node1</title>
<g id="a_node1"><a xlink:title=" ">
<polygon fill="#999999" stroke="#666666" points="158,-54 0,-54 0,-24 158,-24 158,-54"/>
<text text-anchor="start" x="8" y="-42" font-family="Helvetica,sans-Serif" font-size="10.00">IDECommunicationController</text>
<text text-anchor="middle" x="79" y="-31" font-family="Helvetica,sans-Serif" font-size="10.00">::handleMessage</text>
</a>
</g>
</g>
<!-- Node2 -->
<g id="node2" class="node">
<title>Node2</title>
<g id="a_node2"><a xlink:href="classIDECommunicationController.html#a2878817f2b2c010d82fd6e563bba36d9" target="_top" xlink:title=" ">
<polygon fill="white" stroke="#666666" points="352,-78 194,-78 194,-48 352,-48 352,-78"/>
<text text-anchor="start" x="202" y="-66" font-family="Helvetica,sans-Serif" font-size="10.00">IDECommunicationController</text>
<text text-anchor="middle" x="273" y="-55" font-family="Helvetica,sans-Serif" font-size="10.00">::startListening</text>
</a>
</g>
</g>
<!-- Node1&#45;&gt;Node2 -->
<g id="edge1" class="edge">
<title>Node1&#45;&gt;Node2</title>
<path fill="none" stroke="#63b8ff" d="M158.37,-48.8C166.26,-49.78 174.32,-50.79 182.32,-51.79"/>
<polygon fill="#63b8ff" stroke="#63b8ff" points="181.71,-55.24 192.07,-53.01 182.58,-48.29 181.71,-55.24"/>
</g>
<!-- Node3 -->
<g id="node3" class="node">
<title>Node3</title>
<g id="a_node3"><a xlink:href="classIDECommunicationController.html#af7ce9dd7ac42944dec0849679d833d53" target="_top" xlink:title=" ">
<polygon fill="white" stroke="#666666" points="352,-30 194,-30 194,0 352,0 352,-30"/>
<text text-anchor="start" x="202" y="-18" font-family="Helvetica,sans-Serif" font-size="10.00">IDECommunicationController</text>
<text text-anchor="middle" x="273" y="-7" font-family="Helvetica,sans-Serif" font-size="10.00">::stopListening</text>
</a>
</g>
</g>
<!-- Node1&#45;&gt;Node3 -->
<g id="edge2" class="edge">
<title>Node1&#45;&gt;Node3</title>
<path fill="none" stroke="#63b8ff" d="M158.37,-29.2C166.26,-28.22 174.32,-27.21 182.32,-26.21"/>
<polygon fill="#63b8ff" stroke="#63b8ff" points="182.58,-29.71 192.07,-24.99 181.71,-22.76 182.58,-29.71"/>
</g>
</g>
</svg>
