<?xml version="1.0" encoding="UTF-8" standalone="no"?>
<!DOCTYPE svg PUBLIC "-//W3C//DTD SVG 1.1//EN"
 "http://www.w3.org/Graphics/SVG/1.1/DTD/svg11.dtd">
<!-- Generated by graphviz version 7.1.0 (0)
 -->
<!-- Title: SourceGroupSettingsWithCxxCdbPath::getCompilationDatabasePathExpandedAndAbsolute Pages: 1 -->
<!--zoomable 257 -->
<svg id="main" version="1.1" xmlns="http://www.w3.org/2000/svg" xmlns:xlink="http://www.w3.org/1999/xlink" xml:space="preserve" onload="init(evt)">
<style type="text/css"><![CDATA[
.edge:hover path { stroke: red; }
.edge:hover polygon { stroke: red; fill: red; }
]]></style>
<script type="text/javascript"><![CDATA[
var edges = document.getElementsByTagName('g');
if (edges && edges.length) {
  for (var i=0;i<edges.length;i++) {
    if (edges[i].id.substr(0,4)=='edge') {
      edges[i].setAttribute('class','edge');
    }
  }
}
]]></script>
        <defs>
                <circle id="rim" cx="0" cy="0" r="7"/>
                <circle id="rim2" cx="0" cy="0" r="3.5"/>
                <g id="zoomPlus">
                        <use xlink:href="#rim" fill="#404040">
                                <set attributeName="fill" to="#808080" begin="zoomplus.mouseover" end="zoomplus.mouseout"/>
                        </use>
                        <path d="M-4,0h8M0,-4v8" fill="none" stroke="white" stroke-width="1.5" pointer-events="none"/>
                </g>
                <g id="zoomMin">
                        <use xlink:href="#rim" fill="#404040">
                                <set attributeName="fill" to="#808080" begin="zoomminus.mouseover" end="zoomminus.mouseout"/>
                        </use>
                        <path d="M-4,0h8" fill="none" stroke="white" stroke-width="1.5" pointer-events="none"/>
                </g>
                <g id="dirArrow">
                        <path fill="none" stroke="white" stroke-width="1.5" d="M0,-3.0v7 M-2.5,-0.5L0,-3.0L2.5,-0.5"/>
                </g>
               <g id="resetDef">
                       <use xlink:href="#rim2" fill="#404040">
                               <set attributeName="fill" to="#808080" begin="reset.mouseover" end="reset.mouseout"/>
                       </use>
               </g>
        </defs>

<script type="text/javascript">
var viewWidth = 959;
var viewHeight = 257;
var sectionId = 'dynsection-3';
</script>
<script xlink:href="svgpan.js"/>
<svg id="graph" class="graph">
<g id="viewport">
<title>SourceGroupSettingsWithCxxCdbPath::getCompilationDatabasePathExpandedAndAbsolute</title>
<!-- Node1 -->
<g id="node1" class="node">
<title>Node1</title>
<g id="a_node1"><a xlink:title=" ">
<polygon fill="#999999" stroke="#666666" points="185,-114 0,-114 0,-73 185,-73 185,-114"/>
<text text-anchor="start" x="8" y="-102" font-family="Helvetica,sans-Serif" font-size="10.00">SourceGroupSettingsWithCxx</text>
<text text-anchor="start" x="8" y="-91" font-family="Helvetica,sans-Serif" font-size="10.00">CdbPath::getCompilationDatabase</text>
<text text-anchor="middle" x="92.5" y="-80" font-family="Helvetica,sans-Serif" font-size="10.00">PathExpandedAndAbsolute</text>
</a>
</g>
</g>
<!-- Node2 -->
<g id="node2" class="node">
<title>Node2</title>
<g id="a_node2"><a xlink:href="classSourceGroupSettingsWithCxxCdbPath.html#ac373a028b89cae47ffd8d916ea7c1a30" target="_top" xlink:title=" ">
<polygon fill="white" stroke="#666666" points="427,-151.5 221,-151.5 221,-121.5 427,-121.5 427,-151.5"/>
<text text-anchor="start" x="229" y="-139.5" font-family="Helvetica,sans-Serif" font-size="10.00">SourceGroupSettingsWithCxx</text>
<text text-anchor="middle" x="324" y="-128.5" font-family="Helvetica,sans-Serif" font-size="10.00">CdbPath::getCompilationDatabasePath</text>
</a>
</g>
</g>
<!-- Node1&#45;&gt;Node2 -->
<g id="edge1" class="edge">
<title>Node1&#45;&gt;Node2</title>
<path fill="none" stroke="#63b8ff" d="M185.19,-110.68C199.72,-113.4 214.76,-116.22 229.33,-118.95"/>
<polygon fill="#63b8ff" stroke="#63b8ff" points="228.4,-122.34 238.88,-120.74 229.69,-115.46 228.4,-122.34"/>
</g>
<!-- Node3 -->
<g id="node3" class="node">
<title>Node3</title>
<g id="a_node3"><a xlink:href="namespaceutility.html#a596ece54a51625186bbf78f29ecfe834" target="_top" xlink:title=" ">
<polygon fill="white" stroke="#666666" points="422.5,-103 225.5,-103 225.5,-84 422.5,-84 422.5,-103"/>
<text text-anchor="middle" x="324" y="-91" font-family="Helvetica,sans-Serif" font-size="10.00">utility::getExpandedAndAbsolutePath</text>
</a>
</g>
</g>
<!-- Node1&#45;&gt;Node3 -->
<g id="edge2" class="edge">
<title>Node1&#45;&gt;Node3</title>
<path fill="none" stroke="#63b8ff" d="M185.19,-93.5C194.62,-93.5 204.26,-93.5 213.84,-93.5"/>
<polygon fill="#63b8ff" stroke="#63b8ff" points="213.54,-97 223.54,-93.5 213.54,-90 213.54,-97"/>
</g>
<!-- Node18 -->
<g id="node18" class="node">
<title>Node18</title>
<g id="a_node18"><a xlink:href="classSourceGroupSettingsBase.html#a6ae0dbac1abc7364b954d7ede643ba5e" target="_top" xlink:title=" ">
<polygon fill="white" stroke="#666666" points="395.5,-65.5 252.5,-65.5 252.5,-35.5 395.5,-35.5 395.5,-65.5"/>
<text text-anchor="start" x="260.5" y="-53.5" font-family="Helvetica,sans-Serif" font-size="10.00">SourceGroupSettingsBase</text>
<text text-anchor="middle" x="324" y="-42.5" font-family="Helvetica,sans-Serif" font-size="10.00">::getProjectSettings</text>
</a>
</g>
</g>
<!-- Node1&#45;&gt;Node18 -->
<g id="edge19" class="edge">
<title>Node1&#45;&gt;Node18</title>
<path fill="none" stroke="#63b8ff" d="M185.19,-76.32C203.7,-72.85 223.04,-69.23 241.19,-65.83"/>
<polygon fill="#63b8ff" stroke="#63b8ff" points="241.64,-69.31 250.82,-64.02 240.35,-62.43 241.64,-69.31"/>
</g>
<!-- Node4 -->
<g id="node4" class="node">
<title>Node4</title>
<g id="a_node4"><a xlink:href="classFilePath.html#ae09c07f1ae9ac6f650a765cc11cc6494" target="_top" xlink:title=" ">
<polygon fill="white" stroke="#666666" points="581,-196 489,-196 489,-177 581,-177 581,-196"/>
<text text-anchor="middle" x="535" y="-184" font-family="Helvetica,sans-Serif" font-size="10.00">FilePath::empty</text>
</a>
</g>
</g>
<!-- Node3&#45;&gt;Node4 -->
<g id="edge3" class="edge">
<title>Node3&#45;&gt;Node4</title>
<path fill="none" stroke="#63b8ff" d="M409.59,-103.46C415.73,-105.91 421.62,-108.88 427,-112.5 451.56,-129.01 438.99,-151.22 463,-168.5 467.59,-171.8 472.73,-174.5 478.09,-176.71"/>
<polygon fill="#63b8ff" stroke="#63b8ff" points="476.55,-179.88 487.15,-179.87 478.86,-173.27 476.55,-179.88"/>
</g>
<!-- Node5 -->
<g id="node5" class="node">
<title>Node5</title>
<g id="a_node5"><a xlink:href="classFilePath.html#ab5b05395b5a9b8950f15dab281c21327" target="_top" xlink:title=" ">
<polygon fill="white" stroke="#666666" points="607,-29 463,-29 463,-10 607,-10 607,-29"/>
<text text-anchor="middle" x="535" y="-17" font-family="Helvetica,sans-Serif" font-size="10.00">FilePath::getConcatenated</text>
</a>
</g>
</g>
<!-- Node3&#45;&gt;Node5 -->
<g id="edge4" class="edge">
<title>Node3&#45;&gt;Node5</title>
<path fill="none" stroke="#63b8ff" d="M405.15,-83.52C412.76,-81.12 420.17,-78.16 427,-74.5 447.23,-63.67 443.13,-48.97 463,-37.5 465.46,-36.08 468.03,-34.77 470.67,-33.57"/>
<polygon fill="#63b8ff" stroke="#63b8ff" points="471.73,-36.91 479.73,-29.96 469.14,-30.41 471.73,-36.91"/>
</g>
<!-- Node8 -->
<g id="node8" class="node">
<title>Node8</title>
<g id="a_node8"><a xlink:href="namespaceutility.html#aff15e8a628142da6d7712d348ed631da" target="_top" xlink:title=" ">
<polygon fill="white" stroke="#666666" points="603,-159 467,-159 467,-140 603,-140 603,-159"/>
<text text-anchor="middle" x="535" y="-147" font-family="Helvetica,sans-Serif" font-size="10.00">utility::getExpandedPath</text>
</a>
</g>
</g>
<!-- Node3&#45;&gt;Node8 -->
<g id="edge7" class="edge">
<title>Node3&#45;&gt;Node8</title>
<path fill="none" stroke="#63b8ff" d="M386.82,-103.49C400.15,-106.07 414.11,-109.09 427,-112.5 451.05,-118.86 477.47,-127.98 498.04,-135.57"/>
<polygon fill="#63b8ff" stroke="#63b8ff" points="496.81,-138.84 507.4,-139.07 499.26,-132.29 496.81,-138.84"/>
</g>
<!-- Node14 -->
<g id="node14" class="node">
<title>Node14</title>
<g id="a_node14"><a xlink:href="classFilePath.html#a50f50f9b8f5aadd2fc252eb1f651a2a1" target="_top" xlink:title=" ">
<polygon fill="white" stroke="#666666" points="591,-66 479,-66 479,-47 591,-47 591,-66"/>
<text text-anchor="middle" x="535" y="-54" font-family="Helvetica,sans-Serif" font-size="10.00">FilePath::isAbsolute</text>
</a>
</g>
</g>
<!-- Node3&#45;&gt;Node14 -->
<g id="edge13" class="edge">
<title>Node3&#45;&gt;Node14</title>
<path fill="none" stroke="#63b8ff" d="M381.28,-83.54C407.85,-78.83 439.74,-73.19 467.49,-68.27"/>
<polygon fill="#63b8ff" stroke="#63b8ff" points="467.97,-71.74 477.21,-66.55 466.75,-64.85 467.97,-71.74"/>
</g>
<!-- Node15 -->
<g id="node15" class="node">
<title>Node15</title>
<g id="a_node15"><a xlink:href="classFilePath.html#a3e9df04d63c4e2f61ca02f059d8ae810" target="_top" xlink:title=" ">
<polygon fill="white" stroke="#666666" points="603,-103 467,-103 467,-84 603,-84 603,-103"/>
<text text-anchor="middle" x="535" y="-91" font-family="Helvetica,sans-Serif" font-size="10.00">FilePath::makeCanonical</text>
</a>
</g>
</g>
<!-- Node3&#45;&gt;Node15 -->
<g id="edge14" class="edge">
<title>Node3&#45;&gt;Node15</title>
<path fill="none" stroke="#63b8ff" d="M422.77,-93.5C433.69,-93.5 444.71,-93.5 455.35,-93.5"/>
<polygon fill="#63b8ff" stroke="#63b8ff" points="455.21,-97 465.21,-93.5 455.21,-90 455.21,-97"/>
</g>
<!-- Node6 -->
<g id="node6" class="node">
<title>Node6</title>
<g id="a_node6"><a xlink:href="classFilePath.html#a1f9e209dcb9a8d2b3d39ec6cfdd5c17f" target="_top" xlink:title=" ">
<polygon fill="white" stroke="#666666" points="783,-19 662,-19 662,0 783,0 783,-19"/>
<text text-anchor="middle" x="722.5" y="-7" font-family="Helvetica,sans-Serif" font-size="10.00">FilePath::concatenate</text>
</a>
</g>
</g>
<!-- Node5&#45;&gt;Node6 -->
<g id="edge5" class="edge">
<title>Node5&#45;&gt;Node6</title>
<path fill="none" stroke="#63b8ff" d="M607.45,-15.65C621.55,-14.89 636.33,-14.09 650.42,-13.33"/>
<polygon fill="#63b8ff" stroke="#63b8ff" points="650.22,-16.85 660.02,-12.81 649.84,-9.86 650.22,-16.85"/>
</g>
<!-- Node7 -->
<g id="node7" class="node">
<title>Node7</title>
<g id="a_node7"><a xlink:href="classFilePath.html#a544387c4aea50aec855062fd02e436ae" target="_top" xlink:title=" ">
<polygon fill="white" stroke="#666666" points="943.5,-94 845.5,-94 845.5,-75 943.5,-75 943.5,-94"/>
<text text-anchor="middle" x="894.5" y="-82" font-family="Helvetica,sans-Serif" font-size="10.00">FilePath::getPath</text>
</a>
</g>
</g>
<!-- Node6&#45;&gt;Node7 -->
<g id="edge6" class="edge">
<title>Node6&#45;&gt;Node7</title>
<path fill="none" stroke="#63b8ff" d="M777.87,-19.48C786.09,-21.7 794.37,-24.35 802,-27.5 827.28,-37.93 853.52,-55.03 871.38,-67.78"/>
<polygon fill="#63b8ff" stroke="#63b8ff" points="869.25,-70.56 879.39,-73.63 873.38,-64.91 869.25,-70.56"/>
</g>
<!-- Node9 -->
<g id="node9" class="node">
<title>Node9</title>
<g id="a_node9"><a xlink:href="classFilePath.html#a215df3b21952fed3555e543219fc8f7e" target="_top" xlink:title=" ">
<polygon fill="white" stroke="#666666" points="802,-217.5 643,-217.5 643,-187.5 802,-187.5 802,-217.5"/>
<text text-anchor="start" x="651" y="-205.5" font-family="Helvetica,sans-Serif" font-size="10.00">FilePath::expandEnvironment</text>
<text text-anchor="middle" x="722.5" y="-194.5" font-family="Helvetica,sans-Serif" font-size="10.00">Variables</text>
</a>
</g>
</g>
<!-- Node8&#45;&gt;Node9 -->
<g id="edge8" class="edge">
<title>Node8&#45;&gt;Node9</title>
<path fill="none" stroke="#63b8ff" d="M574,-159.47C584.69,-162.32 596.32,-165.48 607,-168.5 624.11,-173.33 642.6,-178.74 659.62,-183.79"/>
<polygon fill="#63b8ff" stroke="#63b8ff" points="658.54,-187.12 669.12,-186.62 660.54,-180.41 658.54,-187.12"/>
</g>
<!-- Node13 -->
<g id="node13" class="node">
<title>Node13</title>
<g id="a_node13"><a xlink:href="classFilePath.html#a989e098726c8387d4f4690bca3314ce8" target="_top" xlink:title=" ">
<polygon fill="white" stroke="#666666" points="763.5,-169 681.5,-169 681.5,-150 763.5,-150 763.5,-169"/>
<text text-anchor="middle" x="722.5" y="-157" font-family="Helvetica,sans-Serif" font-size="10.00">FilePath::wstr</text>
</a>
</g>
</g>
<!-- Node8&#45;&gt;Node13 -->
<g id="edge12" class="edge">
<title>Node8&#45;&gt;Node13</title>
<path fill="none" stroke="#63b8ff" d="M603.49,-153.14C625.33,-154.32 649.19,-155.6 669.71,-156.71"/>
<polygon fill="#63b8ff" stroke="#63b8ff" points="669.35,-160.19 679.53,-157.24 669.73,-153.2 669.35,-160.19"/>
</g>
<!-- Node10 -->
<g id="node10" class="node">
<title>Node10</title>
<g id="a_node10"><a xlink:href="classFilePath.html#a10ab094ee4006c25fabc43b3b93d3eb2" target="_top" xlink:title=" ">
<polygon fill="white" stroke="#666666" points="944,-212 845,-212 845,-193 944,-193 944,-212"/>
<text text-anchor="middle" x="894.5" y="-200" font-family="Helvetica,sans-Serif" font-size="10.00">FilePath::FilePath</text>
</a>
</g>
</g>
<!-- Node9&#45;&gt;Node10 -->
<g id="edge9" class="edge">
<title>Node9&#45;&gt;Node10</title>
<path fill="none" stroke="#63b8ff" d="M802.03,-202.5C812.65,-202.5 823.4,-202.5 833.63,-202.5"/>
<polygon fill="#63b8ff" stroke="#63b8ff" points="833.39,-206 843.39,-202.5 833.39,-199 833.39,-206"/>
</g>
<!-- Node11 -->
<g id="node11" class="node">
<title>Node11</title>
<g id="a_node11"><a xlink:href="namespaceutility.html#a6c22b07f209d84b6de23cacd2d63984a" target="_top" xlink:title=" ">
<polygon fill="white" stroke="#666666" points="951,-175 838,-175 838,-156 951,-156 951,-175"/>
<text text-anchor="middle" x="894.5" y="-163" font-family="Helvetica,sans-Serif" font-size="10.00">utility::splitToVector</text>
</a>
</g>
</g>
<!-- Node9&#45;&gt;Node11 -->
<g id="edge10" class="edge">
<title>Node9&#45;&gt;Node11</title>
<path fill="none" stroke="#63b8ff" d="M794.61,-187.02C808.68,-183.96 823.28,-180.78 836.8,-177.84"/>
<polygon fill="#63b8ff" stroke="#63b8ff" points="837.36,-181.3 846.39,-175.75 835.87,-174.46 837.36,-181.3"/>
</g>
<!-- Node12 -->
<g id="node12" class="node">
<title>Node12</title>
<g id="a_node12"><a xlink:href="classFilePath.html#ae43df68f4d64aa712319fcebebf5236b" target="_top" xlink:title=" ">
<polygon fill="white" stroke="#666666" points="931.5,-249 857.5,-249 857.5,-230 931.5,-230 931.5,-249"/>
<text text-anchor="middle" x="894.5" y="-237" font-family="Helvetica,sans-Serif" font-size="10.00">FilePath::str</text>
</a>
</g>
</g>
<!-- Node9&#45;&gt;Node12 -->
<g id="edge11" class="edge">
<title>Node9&#45;&gt;Node12</title>
<path fill="none" stroke="#63b8ff" d="M794.61,-217.98C812.04,-221.77 830.26,-225.74 846.25,-229.22"/>
<polygon fill="#63b8ff" stroke="#63b8ff" points="845.46,-232.63 855.97,-231.33 846.95,-225.79 845.46,-232.63"/>
</g>
<!-- Node15&#45;&gt;Node7 -->
<g id="edge17" class="edge">
<title>Node15&#45;&gt;Node7</title>
<path fill="none" stroke="#63b8ff" d="M603.24,-91.81C669.6,-90.14 770.1,-87.61 833.73,-86"/>
<polygon fill="#63b8ff" stroke="#63b8ff" points="833.75,-89.51 843.66,-85.75 833.57,-82.51 833.75,-89.51"/>
</g>
<!-- Node16 -->
<g id="node16" class="node">
<title>Node16</title>
<g id="a_node16"><a xlink:href="classFilePath.html#a59fa57dcd7d19d74aaee62f072f14b3d" target="_top" xlink:title=" ">
<polygon fill="white" stroke="#666666" points="767.5,-132 677.5,-132 677.5,-113 767.5,-113 767.5,-132"/>
<text text-anchor="middle" x="722.5" y="-120" font-family="Helvetica,sans-Serif" font-size="10.00">FilePath::exists</text>
</a>
</g>
</g>
<!-- Node15&#45;&gt;Node16 -->
<g id="edge15" class="edge">
<title>Node15&#45;&gt;Node16</title>
<path fill="none" stroke="#63b8ff" d="M599.84,-103.48C621.33,-106.84 645.11,-110.56 665.91,-113.81"/>
<polygon fill="#63b8ff" stroke="#63b8ff" points="665.21,-117.24 675.63,-115.33 666.29,-110.33 665.21,-117.24"/>
</g>
<!-- Node17 -->
<g id="node17" class="node">
<title>Node17</title>
<g id="a_node17"><a xlink:href="namespaceutility.html#abe3259eb45b99f76c846b49bda4d08da" target="_top" xlink:title=" ">
<polygon fill="white" stroke="#666666" points="789,-56 656,-56 656,-37 789,-37 789,-56"/>
<text text-anchor="middle" x="722.5" y="-44" font-family="Helvetica,sans-Serif" font-size="10.00">utility::substrBeforeFirst</text>
</a>
</g>
</g>
<!-- Node15&#45;&gt;Node17 -->
<g id="edge18" class="edge">
<title>Node15&#45;&gt;Node17</title>
<path fill="none" stroke="#63b8ff" d="M575.34,-83.53C603.25,-76.46 640.96,-66.91 671.08,-59.27"/>
<polygon fill="#63b8ff" stroke="#63b8ff" points="671.92,-62.67 680.75,-56.82 670.2,-55.89 671.92,-62.67"/>
</g>
<!-- Node16&#45;&gt;Node7 -->
<g id="edge16" class="edge">
<title>Node16&#45;&gt;Node7</title>
<path fill="none" stroke="#63b8ff" d="M767.72,-112.62C789.1,-107.84 814.98,-102.05 837.7,-96.97"/>
<polygon fill="#63b8ff" stroke="#63b8ff" points="838.44,-100.39 847.43,-94.8 836.91,-93.56 838.44,-100.39"/>
</g>
</g>
</svg>
        <g id="navigator" transform="translate(0 0)" fill="#404254">
                <rect fill="#f2f5e9" fill-opacity="0.5" stroke="#606060" stroke-width=".5" x="0" y="0" width="60" height="60"/>
                <use id="zoomplus" xlink:href="#zoomPlus" x="17" y="9" onmousedown="handleZoom(evt,'in')"/>
                <use id="zoomminus" xlink:href="#zoomMin" x="42" y="9" onmousedown="handleZoom(evt,'out')"/>
                <use id="reset" xlink:href="#resetDef" x="30" y="36" onmousedown="handleReset()"/>
                <g id="arrowUp" xlink:href="#dirArrow" transform="translate(30 24)" onmousedown="handlePan(0,-1)">
                  <use xlink:href="#rim" fill="#404040">
                        <set attributeName="fill" to="#808080" begin="arrowUp.mouseover" end="arrowUp.mouseout"/>
                  </use>
                  <path fill="none" stroke="white" stroke-width="1.5" d="M0,-3.0v7 M-2.5,-0.5L0,-3.0L2.5,-0.5"/>
                </g>
                <g id="arrowRight" xlink:href="#dirArrow" transform="rotate(90) translate(36 -43)" onmousedown="handlePan(1,0)">
                  <use xlink:href="#rim" fill="#404040">
                        <set attributeName="fill" to="#808080" begin="arrowRight.mouseover" end="arrowRight.mouseout"/>
                  </use>
                  <path fill="none" stroke="white" stroke-width="1.5" d="M0,-3.0v7 M-2.5,-0.5L0,-3.0L2.5,-0.5"/>
                </g>
                <g id="arrowDown" xlink:href="#dirArrow" transform="rotate(180) translate(-30 -48)" onmousedown="handlePan(0,1)">
                  <use xlink:href="#rim" fill="#404040">
                        <set attributeName="fill" to="#808080" begin="arrowDown.mouseover" end="arrowDown.mouseout"/>
                  </use>
                  <path fill="none" stroke="white" stroke-width="1.5" d="M0,-3.0v7 M-2.5,-0.5L0,-3.0L2.5,-0.5"/>
                </g>
                <g id="arrowLeft" xlink:href="#dirArrow" transform="rotate(270) translate(-36 17)" onmousedown="handlePan(-1,0)">
                  <use xlink:href="#rim" fill="#404040">
                        <set attributeName="fill" to="#808080" begin="arrowLeft.mouseover" end="arrowLeft.mouseout"/>
                  </use>
                  <path fill="none" stroke="white" stroke-width="1.5" d="M0,-3.0v7 M-2.5,-0.5L0,-3.0L2.5,-0.5"/>
                </g>
        </g>
        <svg viewBox="0 0 15 15" width="100%" height="30px" preserveAspectRatio="xMaxYMin meet">
         <g id="arrow_out" transform="scale(0.3 0.3)">
          <a xlink:href="classSourceGroupSettingsWithCxxCdbPath_a2f9c7b36d9ebd4ec4c606acb31a06d30_cgraph_org.svg" target="_base">
           <rect id="button" ry="5" rx="5" y="6" x="6" height="38" width="38"
                fill="#f2f5e9" fill-opacity="0.5" stroke="#606060" stroke-width="1.0"/>
           <path id="arrow"
             d="M 11.500037,31.436501 C 11.940474,20.09759 22.043105,11.32322 32.158766,21.979434 L 37.068811,17.246167 C 37.068811,17.246167 37.088388,32 37.088388,32 L 22.160133,31.978069 C 22.160133,31.978069 26.997745,27.140456 26.997745,27.140456 C 18.528582,18.264221 13.291696,25.230495 11.500037,31.436501 z"
             style="fill:#404040;"/>
          </a>
         </g>
        </svg>
</svg>
