<?xml version="1.0" encoding="UTF-8" standalone="no"?>
<!DOCTYPE svg PUBLIC "-//W3C//DTD SVG 1.1//EN"
 "http://www.w3.org/Graphics/SVG/1.1/DTD/svg11.dtd">
<!-- Generated by graphviz version 9.0.0 (0)
 -->
<!-- Title: TextAccess::readFile Pages: 1 -->
<svg width="240pt" height="68pt"
 viewBox="0.00 0.00 239.50 67.75" xmlns="http://www.w3.org/2000/svg" xmlns:xlink="http://www.w3.org/1999/xlink">
<g id="graph0" class="graph" transform="scale(1 1) rotate(0) translate(4 63.75)">
<title>TextAccess::readFile</title>
<!-- Node1 -->
<g id="Node000001" class="node">
<title>Node1</title>
<g id="a_Node000001"><a xlink:title=" ">
<polygon fill="#999999" stroke="#666666" points="114.25,-39.75 0,-39.75 0,-19 114.25,-19 114.25,-39.75"/>
<text text-anchor="middle" x="57.12" y="-26.25" font-family="Helvetica,sans-Serif" font-size="10.00">TextAccess::readFile</text>
</a>
</g>
</g>
<!-- Node2 -->
<g id="Node000002" class="node">
<title>Node2</title>
<g id="a_Node000002"><a xlink:href="classFilePath.html#ae43df68f4d64aa712319fcebebf5236b" target="_top" xlink:title=" ">
<polygon fill="white" stroke="#666666" points="227.38,-59.75 154.38,-59.75 154.38,-39 227.38,-39 227.38,-59.75"/>
<text text-anchor="middle" x="190.88" y="-46.25" font-family="Helvetica,sans-Serif" font-size="10.00">FilePath::str</text>
</a>
</g>
</g>
<!-- Node1&#45;&gt;Node2 -->
<g id="edge1_Node000001_Node000002" class="edge">
<title>Node1&#45;&gt;Node2</title>
<g id="a_edge1_Node000001_Node000002"><a xlink:title=" ">
<path fill="none" stroke="#63b8ff" d="M114.38,-37.91C123.82,-39.35 133.53,-40.82 142.72,-42.22"/>
<polygon fill="#63b8ff" stroke="#63b8ff" points="142.1,-45.66 152.51,-43.7 143.15,-38.74 142.1,-45.66"/>
</a>
</g>
</g>
<!-- Node3 -->
<g id="Node000003" class="node">
<title>Node3</title>
<g id="a_Node000003"><a xlink:href="classFilePath.html#a989e098726c8387d4f4690bca3314ce8" target="_top" xlink:title=" ">
<polygon fill="white" stroke="#666666" points="231.5,-20.75 150.25,-20.75 150.25,0 231.5,0 231.5,-20.75"/>
<text text-anchor="middle" x="190.88" y="-7.25" font-family="Helvetica,sans-Serif" font-size="10.00">FilePath::wstr</text>
</a>
</g>
</g>
<!-- Node1&#45;&gt;Node3 -->
<g id="edge2_Node000001_Node000003" class="edge">
<title>Node1&#45;&gt;Node3</title>
<g id="a_edge2_Node000001_Node000003"><a xlink:title=" ">
<path fill="none" stroke="#63b8ff" d="M114.38,-21.26C122.56,-20.08 130.94,-18.87 139,-17.71"/>
<polygon fill="#63b8ff" stroke="#63b8ff" points="139.23,-21.21 148.63,-16.32 138.24,-14.29 139.23,-21.21"/>
</a>
</g>
</g>
</g>
</svg>
