<?xml version="1.0" encoding="UTF-8" standalone="no"?>
<!DOCTYPE svg PUBLIC "-//W3C//DTD SVG 1.1//EN"
 "http://www.w3.org/Graphics/SVG/1.1/DTD/svg11.dtd">
<!-- Generated by graphviz version 7.1.0 (0)
 -->
<!-- Title: QtPreferencesWindow::windowReady Pages: 1 -->
<svg width="502pt" height="199pt"
 viewBox="0.00 0.00 502.00 199.00" xmlns="http://www.w3.org/2000/svg" xmlns:xlink="http://www.w3.org/1999/xlink">
<g id="graph0" class="graph" transform="scale(1 1) rotate(0) translate(4 195)">
<title>QtPreferencesWindow::windowReady</title>
<!-- Node1 -->
<g id="node1" class="node">
<title>Node1</title>
<g id="a_node1"><a xlink:title=" ">
<polygon fill="#999999" stroke="#666666" points="125,-111 0,-111 0,-81 125,-81 125,-111"/>
<text text-anchor="start" x="8" y="-99" font-family="Helvetica,sans-Serif" font-size="10.00">QtPreferencesWindow</text>
<text text-anchor="middle" x="62.5" y="-88" font-family="Helvetica,sans-Serif" font-size="10.00">::windowReady</text>
</a>
</g>
</g>
<!-- Node2 -->
<g id="node2" class="node">
<title>Node2</title>
<g id="a_node2"><a xlink:href="classQtProjectWizardWindow.html#afacceb91e17ec87c8bbd1a93111f9d35" target="_top" xlink:title=" ">
<polygon fill="white" stroke="#666666" points="309.5,-191 175.5,-191 175.5,-161 309.5,-161 309.5,-191"/>
<text text-anchor="start" x="183.5" y="-179" font-family="Helvetica,sans-Serif" font-size="10.00">QtProjectWizardWindow</text>
<text text-anchor="middle" x="242.5" y="-168" font-family="Helvetica,sans-Serif" font-size="10.00">::loadContent</text>
</a>
</g>
</g>
<!-- Node1&#45;&gt;Node2 -->
<g id="edge1" class="edge">
<title>Node1&#45;&gt;Node2</title>
<path fill="none" stroke="#63b8ff" d="M86.74,-111.41C106.01,-123.67 134.45,-140.6 161,-152 164.84,-153.65 168.84,-155.23 172.9,-156.74"/>
<polygon fill="#63b8ff" stroke="#63b8ff" points="171.73,-160.04 182.32,-160.05 174.05,-153.44 171.73,-160.04"/>
</g>
<!-- Node4 -->
<g id="node4" class="node">
<title>Node4</title>
<g id="a_node4"><a xlink:href="classQtWindow.html#a13c0fd525d487158d661500e3f5a4ae7" target="_top" xlink:title=" ">
<polygon fill="white" stroke="#666666" points="324,-142.5 161,-142.5 161,-123.5 324,-123.5 324,-142.5"/>
<text text-anchor="middle" x="242.5" y="-130.5" font-family="Helvetica,sans-Serif" font-size="10.00">QtWindow::setPreviousVisible</text>
</a>
</g>
</g>
<!-- Node1&#45;&gt;Node4 -->
<g id="edge3" class="edge">
<title>Node1&#45;&gt;Node4</title>
<path fill="none" stroke="#63b8ff" d="M125.26,-108.84C143.8,-112.69 164.09,-116.91 182.45,-120.73"/>
<polygon fill="#63b8ff" stroke="#63b8ff" points="181.62,-124.13 192.12,-122.74 183.04,-117.27 181.62,-124.13"/>
</g>
<!-- Node5 -->
<g id="node5" class="node">
<title>Node5</title>
<g id="a_node5"><a xlink:href="classQtWindow.html#ac84f5569387792ae2805d63f2ad3df50" target="_top" xlink:title=" ">
<polygon fill="white" stroke="#666666" points="323.5,-105.5 161.5,-105.5 161.5,-86.5 323.5,-86.5 323.5,-105.5"/>
<text text-anchor="middle" x="242.5" y="-93.5" font-family="Helvetica,sans-Serif" font-size="10.00">QtWindow::updateNextButton</text>
</a>
</g>
</g>
<!-- Node1&#45;&gt;Node5 -->
<g id="edge4" class="edge">
<title>Node1&#45;&gt;Node5</title>
<path fill="none" stroke="#63b8ff" d="M125.26,-96C133.19,-96 141.45,-96 149.74,-96"/>
<polygon fill="#63b8ff" stroke="#63b8ff" points="149.53,-99.5 159.53,-96 149.53,-92.5 149.53,-99.5"/>
</g>
<!-- Node6 -->
<g id="node6" class="node">
<title>Node6</title>
<g id="a_node6"><a xlink:href="classQtWindow.html#a3134957de097dd25761d5e425c0673d3" target="_top" xlink:title=" ">
<polygon fill="white" stroke="#666666" points="491,-67.5 363,-67.5 363,-48.5 491,-48.5 491,-67.5"/>
<text text-anchor="middle" x="427" y="-55.5" font-family="Helvetica,sans-Serif" font-size="10.00">QtWindow::updateTitle</text>
</a>
</g>
</g>
<!-- Node1&#45;&gt;Node6 -->
<g id="edge5" class="edge">
<title>Node1&#45;&gt;Node6</title>
<path fill="none" stroke="#63b8ff" d="M125.5,-83.52C137.25,-81.45 149.48,-79.49 161,-78 224.94,-69.71 298.04,-64.51 351.25,-61.5"/>
<polygon fill="#63b8ff" stroke="#63b8ff" points="351.32,-65 361.11,-60.95 350.94,-58.01 351.32,-65"/>
</g>
<!-- Node7 -->
<g id="node7" class="node">
<title>Node7</title>
<g id="a_node7"><a xlink:href="classQtProjectWizardWindow.html#a0f9c3acfc790bb36838536719c3104f9" target="_top" xlink:title=" ">
<polygon fill="white" stroke="#666666" points="309.5,-30 175.5,-30 175.5,0 309.5,0 309.5,-30"/>
<text text-anchor="start" x="183.5" y="-18" font-family="Helvetica,sans-Serif" font-size="10.00">QtProjectWizardWindow</text>
<text text-anchor="middle" x="242.5" y="-7" font-family="Helvetica,sans-Serif" font-size="10.00">::windowReady</text>
</a>
</g>
</g>
<!-- Node1&#45;&gt;Node7 -->
<g id="edge6" class="edge">
<title>Node1&#45;&gt;Node7</title>
<path fill="none" stroke="#63b8ff" d="M89.88,-80.59C109.21,-69.64 136.28,-54.98 161,-44 168.47,-40.68 176.44,-37.45 184.36,-34.43"/>
<polygon fill="#63b8ff" stroke="#63b8ff" points="185.51,-37.74 193.65,-30.96 183.06,-31.18 185.51,-37.74"/>
</g>
<!-- Node3 -->
<g id="node3" class="node">
<title>Node3</title>
<g id="a_node3"><a xlink:href="classQtProjectWizardContent.html#afb749a02a553a8dffce9919d77e2ce56" target="_top" xlink:title=" ">
<polygon fill="white" stroke="#666666" points="494,-191 360,-191 360,-161 494,-161 494,-191"/>
<text text-anchor="start" x="368" y="-179" font-family="Helvetica,sans-Serif" font-size="10.00">QtProjectWizardContent</text>
<text text-anchor="middle" x="427" y="-168" font-family="Helvetica,sans-Serif" font-size="10.00">::load</text>
</a>
</g>
</g>
<!-- Node2&#45;&gt;Node3 -->
<g id="edge2" class="edge">
<title>Node2&#45;&gt;Node3</title>
<path fill="none" stroke="#63b8ff" d="M309.9,-176C322.44,-176 335.65,-176 348.49,-176"/>
<polygon fill="#63b8ff" stroke="#63b8ff" points="348.13,-179.5 358.13,-176 348.13,-172.5 348.13,-179.5"/>
</g>
<!-- Node7&#45;&gt;Node6 -->
<g id="edge7" class="edge">
<title>Node7&#45;&gt;Node6</title>
<path fill="none" stroke="#63b8ff" d="M309.13,-30.46C329.98,-35.38 352.78,-40.75 372.66,-45.43"/>
<polygon fill="#63b8ff" stroke="#63b8ff" points="371.67,-48.8 382.21,-47.68 373.28,-41.98 371.67,-48.8"/>
</g>
<!-- Node8 -->
<g id="node8" class="node">
<title>Node8</title>
<g id="a_node8"><a xlink:href="classQtProjectWizardContent.html#ae7427bdfc6decbac4104c918cce389a2" target="_top" xlink:title=" ">
<polygon fill="white" stroke="#666666" points="494,-30 360,-30 360,0 494,0 494,-30"/>
<text text-anchor="start" x="368" y="-18" font-family="Helvetica,sans-Serif" font-size="10.00">QtProjectWizardContent</text>
<text text-anchor="middle" x="427" y="-7" font-family="Helvetica,sans-Serif" font-size="10.00">::windowReady</text>
</a>
</g>
</g>
<!-- Node7&#45;&gt;Node8 -->
<g id="edge8" class="edge">
<title>Node7&#45;&gt;Node8</title>
<path fill="none" stroke="#63b8ff" d="M309.9,-15C322.44,-15 335.65,-15 348.49,-15"/>
<polygon fill="#63b8ff" stroke="#63b8ff" points="348.13,-18.5 358.13,-15 348.13,-11.5 348.13,-18.5"/>
</g>
</g>
</svg>
