<?xml version="1.0" encoding="UTF-8" standalone="no"?>
<!DOCTYPE svg PUBLIC "-//W3C//DTD SVG 1.1//EN"
 "http://www.w3.org/Graphics/SVG/1.1/DTD/svg11.dtd">
<!-- Generated by graphviz version 7.1.0 (0)
 -->
<!-- Title: QtFlowLayout::smartSpacing Pages: 1 -->
<svg width="737pt" height="76pt"
 viewBox="0.00 0.00 737.00 75.50" xmlns="http://www.w3.org/2000/svg" xmlns:xlink="http://www.w3.org/1999/xlink">
<g id="graph0" class="graph" transform="scale(1 1) rotate(0) translate(4 71.5)">
<title>QtFlowLayout::smartSpacing</title>
<!-- Node1 -->
<g id="node1" class="node">
<title>Node1</title>
<g id="a_node1"><a xlink:title=" ">
<polygon fill="#999999" stroke="#666666" points="729,-40 572,-40 572,-21 729,-21 729,-40"/>
<text text-anchor="middle" x="650.5" y="-28" font-family="Helvetica,sans-Serif" font-size="10.00">QtFlowLayout::smartSpacing</text>
</a>
</g>
</g>
<!-- Node2 -->
<g id="node2" class="node">
<title>Node2</title>
<g id="a_node2"><a xlink:href="classQtFlowLayout.html#a083cd5350285de2eddd8bc891729d3c4" target="_top" xlink:title=" ">
<polygon fill="white" stroke="#666666" points="523,-67.5 384,-67.5 384,-37.5 523,-37.5 523,-67.5"/>
<text text-anchor="start" x="392" y="-55.5" font-family="Helvetica,sans-Serif" font-size="10.00">QtFlowLayout::horizontal</text>
<text text-anchor="middle" x="453.5" y="-44.5" font-family="Helvetica,sans-Serif" font-size="10.00">Spacing</text>
</a>
</g>
</g>
<!-- Node1&#45;&gt;Node2 -->
<g id="edge1" class="edge">
<title>Node1&#45;&gt;Node2</title>
<path fill="none" stroke="#63b8ff" d="M560.3,-40.56C547.94,-41.96 535.39,-43.37 523.47,-44.72"/>
<polygon fill="#63b8ff" stroke="#63b8ff" points="560.54,-44.06 570.09,-39.46 559.76,-37.1 560.54,-44.06"/>
</g>
<!-- Node6 -->
<g id="node6" class="node">
<title>Node6</title>
<g id="a_node6"><a xlink:href="classQtFlowLayout.html#a9d657f001da313b034c8be75761d178c" target="_top" xlink:title=" ">
<polygon fill="white" stroke="#666666" points="536,-19 371,-19 371,0 536,0 536,-19"/>
<text text-anchor="middle" x="453.5" y="-7" font-family="Helvetica,sans-Serif" font-size="10.00">QtFlowLayout::verticalSpacing</text>
</a>
</g>
</g>
<!-- Node1&#45;&gt;Node6 -->
<g id="edge5" class="edge">
<title>Node1&#45;&gt;Node6</title>
<path fill="none" stroke="#63b8ff" d="M560.38,-20.9C552.4,-20.04 544.35,-19.18 536.44,-18.32"/>
<polygon fill="#63b8ff" stroke="#63b8ff" points="559.77,-24.36 570.09,-21.95 560.52,-17.4 559.77,-24.36"/>
</g>
<!-- Node3 -->
<g id="node3" class="node">
<title>Node3</title>
<g id="a_node3"><a xlink:href="classQtFlowLayout.html#a86edc02da1453eca895957b1a3e437bf" target="_top" xlink:title=" ">
<polygon fill="white" stroke="#666666" points="335,-40 200,-40 200,-21 335,-21 335,-40"/>
<text text-anchor="middle" x="267.5" y="-28" font-family="Helvetica,sans-Serif" font-size="10.00">QtFlowLayout::doLayout</text>
</a>
</g>
</g>
<!-- Node2&#45;&gt;Node3 -->
<g id="edge2" class="edge">
<title>Node2&#45;&gt;Node3</title>
<path fill="none" stroke="#63b8ff" d="M372.46,-42.93C360.08,-41.45 347.41,-39.93 335.36,-38.49"/>
<polygon fill="#63b8ff" stroke="#63b8ff" points="371.88,-46.39 382.22,-44.1 372.71,-39.43 371.88,-46.39"/>
</g>
<!-- Node4 -->
<g id="node4" class="node">
<title>Node4</title>
<g id="a_node4"><a xlink:href="classQtFlowLayout.html#a21a530d406ab927fb1cfa4c201fa7349" target="_top" xlink:title=" ">
<polygon fill="white" stroke="#666666" points="164,-59 0,-59 0,-40 164,-40 164,-59"/>
<text text-anchor="middle" x="82" y="-47" font-family="Helvetica,sans-Serif" font-size="10.00">QtFlowLayout::heightForWidth</text>
</a>
</g>
</g>
<!-- Node3&#45;&gt;Node4 -->
<g id="edge3" class="edge">
<title>Node3&#45;&gt;Node4</title>
<path fill="none" stroke="#63b8ff" d="M188.28,-38.6C180.38,-39.42 172.34,-40.25 164.4,-41.07"/>
<polygon fill="#63b8ff" stroke="#63b8ff" points="188.64,-42.08 198.23,-37.57 187.92,-35.12 188.64,-42.08"/>
</g>
<!-- Node5 -->
<g id="node5" class="node">
<title>Node5</title>
<g id="a_node5"><a xlink:href="classQtFlowLayout.html#a180516c56440eb29e5f8877d20372f58" target="_top" xlink:title=" ">
<polygon fill="white" stroke="#666666" points="159,-22 5,-22 5,-3 159,-3 159,-22"/>
<text text-anchor="middle" x="82" y="-10" font-family="Helvetica,sans-Serif" font-size="10.00">QtFlowLayout::setGeometry</text>
</a>
</g>
</g>
<!-- Node3&#45;&gt;Node5 -->
<g id="edge4" class="edge">
<title>Node3&#45;&gt;Node5</title>
<path fill="none" stroke="#63b8ff" d="M188.52,-22.85C178.86,-21.9 168.99,-20.94 159.36,-19.99"/>
<polygon fill="#63b8ff" stroke="#63b8ff" points="187.93,-26.31 198.23,-23.8 188.62,-19.34 187.93,-26.31"/>
</g>
<!-- Node6&#45;&gt;Node3 -->
<g id="edge6" class="edge">
<title>Node6&#45;&gt;Node3</title>
<path fill="none" stroke="#63b8ff" d="M359.33,-20.13C351.27,-21.05 343.21,-21.97 335.42,-22.86"/>
<polygon fill="#63b8ff" stroke="#63b8ff" points="359.68,-23.62 369.22,-19 358.89,-16.66 359.68,-23.62"/>
</g>
</g>
</svg>
