<?xml version="1.0" encoding="UTF-8" standalone="no"?>
<!DOCTYPE svg PUBLIC "-//W3C//DTD SVG 1.1//EN"
 "http://www.w3.org/Graphics/SVG/1.1/DTD/svg11.dtd">
<!-- Generated by graphviz version 7.1.0 (0)
 -->
<!-- Title: TabsController::addTab Pages: 1 -->
<svg width="737pt" height="175pt"
 viewBox="0.00 0.00 737.00 175.00" xmlns="http://www.w3.org/2000/svg" xmlns:xlink="http://www.w3.org/1999/xlink">
<g id="graph0" class="graph" transform="scale(1 1) rotate(0) translate(4 171)">
<title>TabsController::addTab</title>
<!-- Node1 -->
<g id="node1" class="node">
<title>Node1</title>
<g id="a_node1"><a xlink:title=" ">
<polygon fill="#999999" stroke="#666666" points="127,-93 0,-93 0,-74 127,-74 127,-93"/>
<text text-anchor="middle" x="63.5" y="-81" font-family="Helvetica,sans-Serif" font-size="10.00">TabsController::addTab</text>
</a>
</g>
</g>
<!-- Node2 -->
<g id="node2" class="node">
<title>Node2</title>
<g id="a_node2"><a xlink:href="classNodeTypeSet.html#ac310cbfe0cbbbc68c028a2ae31216284" target="_top" xlink:title=" ">
<polygon fill="white" stroke="#666666" points="295,-167 197,-167 197,-148 295,-148 295,-167"/>
<text text-anchor="middle" x="246" y="-155" font-family="Helvetica,sans-Serif" font-size="10.00">NodeTypeSet::all</text>
</a>
</g>
</g>
<!-- Node1&#45;&gt;Node2 -->
<g id="edge1" class="edge">
<title>Node1&#45;&gt;Node2</title>
<path fill="none" stroke="#63b8ff" d="M78.83,-93.5C97.42,-106.02 131.23,-127.3 163,-139.5 170.13,-142.24 177.78,-144.61 185.43,-146.65"/>
<polygon fill="#63b8ff" stroke="#63b8ff" points="184.58,-150.04 195.12,-149.04 186.25,-143.25 184.58,-150.04"/>
</g>
<!-- Node3 -->
<g id="node3" class="node">
<title>Node3</title>
<g id="a_node3"><a xlink:href="classTaskManager.html#a39d14a4ea3d1109d7f05e82f5e4777a0" target="_top" xlink:title=" ">
<polygon fill="white" stroke="#666666" points="329,-130 163,-130 163,-111 329,-111 329,-130"/>
<text text-anchor="middle" x="246" y="-118" font-family="Helvetica,sans-Serif" font-size="10.00">TaskManager::createScheduler</text>
</a>
</g>
</g>
<!-- Node1&#45;&gt;Node3 -->
<g id="edge2" class="edge">
<title>Node1&#45;&gt;Node3</title>
<path fill="none" stroke="#63b8ff" d="M112.87,-93.42C135.13,-97.98 161.75,-103.43 185.24,-108.25"/>
<polygon fill="#63b8ff" stroke="#63b8ff" points="184.51,-111.67 195.01,-110.25 185.92,-104.82 184.51,-111.67"/>
</g>
<!-- Node5 -->
<g id="node5" class="node">
<title>Node5</title>
<g id="a_node5"><a xlink:href="classMessage.html#aa60564025ee950bf52c8deb6ac1bb843" target="_top" xlink:title=" ">
<polygon fill="white" stroke="#666666" points="299.5,-93 192.5,-93 192.5,-74 299.5,-74 299.5,-93"/>
<text text-anchor="middle" x="246" y="-81" font-family="Helvetica,sans-Serif" font-size="10.00">Message::dispatch</text>
</a>
</g>
</g>
<!-- Node1&#45;&gt;Node5 -->
<g id="edge4" class="edge">
<title>Node1&#45;&gt;Node5</title>
<path fill="none" stroke="#63b8ff" d="M127.38,-83.5C144.74,-83.5 163.59,-83.5 181.01,-83.5"/>
<polygon fill="#63b8ff" stroke="#63b8ff" points="180.71,-87 190.71,-83.5 180.71,-80 180.71,-87"/>
</g>
<!-- Node8 -->
<g id="node8" class="node">
<title>Node8</title>
<g id="a_node8"><a xlink:href="structSearchMatch.html#a16c39f4c2f78ed06ec68463916990ba4" target="_top" xlink:title=" ">
<polygon fill="white" stroke="#666666" points="305.5,-56 186.5,-56 186.5,-37 305.5,-37 305.5,-56"/>
<text text-anchor="middle" x="246" y="-44" font-family="Helvetica,sans-Serif" font-size="10.00">SearchMatch::isValid</text>
</a>
</g>
</g>
<!-- Node1&#45;&gt;Node8 -->
<g id="edge7" class="edge">
<title>Node1&#45;&gt;Node8</title>
<path fill="none" stroke="#63b8ff" d="M112.87,-73.58C135.13,-69.02 161.75,-63.57 185.24,-58.75"/>
<polygon fill="#63b8ff" stroke="#63b8ff" points="185.92,-62.18 195.01,-56.75 184.51,-55.33 185.92,-62.18"/>
</g>
<!-- Node9 -->
<g id="node9" class="node">
<title>Node9</title>
<g id="a_node9"><a xlink:href="classMessageBase.html#a78b74840a194c335f7ce17712e97e136" target="_top" xlink:title=" ">
<polygon fill="white" stroke="#666666" points="327,-19 165,-19 165,0 327,0 327,-19"/>
<text text-anchor="middle" x="246" y="-7" font-family="Helvetica,sans-Serif" font-size="10.00">MessageBase::setSchedulerId</text>
</a>
</g>
</g>
<!-- Node1&#45;&gt;Node9 -->
<g id="edge8" class="edge">
<title>Node1&#45;&gt;Node9</title>
<path fill="none" stroke="#63b8ff" d="M79.2,-73.54C97.91,-61.29 131.57,-40.63 163,-28.5 168.94,-26.21 175.23,-24.14 181.58,-22.3"/>
<polygon fill="#63b8ff" stroke="#63b8ff" points="182.08,-25.79 190.82,-19.8 180.25,-19.03 182.08,-25.79"/>
</g>
<!-- Node4 -->
<g id="node4" class="node">
<title>Node4</title>
<g id="a_node4"><a xlink:href="classTaskManager.html#abad32d382134af5d84739dd12a33beaf" target="_top" xlink:title=" ">
<polygon fill="white" stroke="#666666" points="518,-130 367,-130 367,-111 518,-111 518,-130"/>
<text text-anchor="middle" x="442.5" y="-118" font-family="Helvetica,sans-Serif" font-size="10.00">TaskManager::getScheduler</text>
</a>
</g>
</g>
<!-- Node3&#45;&gt;Node4 -->
<g id="edge3" class="edge">
<title>Node3&#45;&gt;Node4</title>
<path fill="none" stroke="#63b8ff" d="M329.49,-120.5C337.96,-120.5 346.58,-120.5 355.09,-120.5"/>
<polygon fill="#63b8ff" stroke="#63b8ff" points="355.09,-124 365.09,-120.5 355.09,-117 355.09,-124"/>
</g>
<!-- Node6 -->
<g id="node6" class="node">
<title>Node6</title>
<g id="a_node6"><a xlink:href="classMessageQueue.html#ae42d768ad6ffd631d627fe101e38f711" target="_top" xlink:title=" ">
<polygon fill="white" stroke="#666666" points="520,-93 365,-93 365,-74 520,-74 520,-93"/>
<text text-anchor="middle" x="442.5" y="-81" font-family="Helvetica,sans-Serif" font-size="10.00">MessageQueue::getInstance</text>
</a>
</g>
</g>
<!-- Node5&#45;&gt;Node6 -->
<g id="edge5" class="edge">
<title>Node5&#45;&gt;Node6</title>
<path fill="none" stroke="#63b8ff" d="M299.89,-83.5C316.38,-83.5 335.03,-83.5 353.26,-83.5"/>
<polygon fill="#63b8ff" stroke="#63b8ff" points="353.02,-87 363.02,-83.5 353.02,-80 353.02,-87"/>
</g>
<!-- Node7 -->
<g id="node7" class="node">
<title>Node7</title>
<g id="a_node7"><a xlink:href="classMessageQueue.html#a006069f4b83d2372c989c52784fac5de" target="_top" xlink:title=" ">
<polygon fill="white" stroke="#666666" points="729,-93 556,-93 556,-74 729,-74 729,-93"/>
<text text-anchor="middle" x="642.5" y="-81" font-family="Helvetica,sans-Serif" font-size="10.00">MessageQueue::MessageQueue</text>
</a>
</g>
</g>
<!-- Node6&#45;&gt;Node7 -->
<g id="edge6" class="edge">
<title>Node6&#45;&gt;Node7</title>
<path fill="none" stroke="#63b8ff" d="M520.34,-83.5C528.17,-83.5 536.19,-83.5 544.21,-83.5"/>
<polygon fill="#63b8ff" stroke="#63b8ff" points="543.99,-87 553.99,-83.5 543.99,-80 543.99,-87"/>
</g>
</g>
</svg>
