<?xml version="1.0" encoding="UTF-8" standalone="no"?>
<!DOCTYPE svg PUBLIC "-//W3C//DTD SVG 1.1//EN"
 "http://www.w3.org/Graphics/SVG/1.1/DTD/svg11.dtd">
<!-- Generated by graphviz version 9.0.0 (0)
 -->
<!-- Title: Node::getParentNode Pages: 1 -->
<svg width="1152pt" height="147pt"
 viewBox="0.00 0.00 1151.75 147.12" xmlns="http://www.w3.org/2000/svg" xmlns:xlink="http://www.w3.org/1999/xlink">
<g id="graph0" class="graph" transform="scale(1 1) rotate(0) translate(4 143.12)">
<title>Node::getParentNode</title>
<!-- Node1 -->
<g id="Node000001" class="node">
<title>Node1</title>
<g id="a_Node000001"><a xlink:title=" ">
<polygon fill="#999999" stroke="#666666" points="1143.75,-45.75 1023.5,-45.75 1023.5,-25 1143.75,-25 1143.75,-45.75"/>
<text text-anchor="middle" x="1083.62" y="-32.25" font-family="Helvetica,sans-Serif" font-size="10.00">Node::getParentNode</text>
</a>
</g>
</g>
<!-- Node2 -->
<g id="Node000002" class="node">
<title>Node2</title>
<g id="a_Node000002"><a xlink:href="classNode.html#a29d0fc931749cd2122faf1e5949f5c34" target="_top" xlink:title=" ">
<polygon fill="white" stroke="#666666" points="987.5,-65.75 847,-65.75 847,-45 987.5,-45 987.5,-65.75"/>
<text text-anchor="middle" x="917.25" y="-52.25" font-family="Helvetica,sans-Serif" font-size="10.00">Node::getLastParentNode</text>
</a>
</g>
</g>
<!-- Node1&#45;&gt;Node2 -->
<g id="edge1_Node000001_Node000002" class="edge">
<title>Node1&#45;&gt;Node2</title>
<g id="a_edge1_Node000001_Node000002"><a xlink:title=" ">
<path fill="none" stroke="#63b8ff" d="M1012.07,-43.96C1004.04,-44.94 995.87,-45.93 987.86,-46.91"/>
<polygon fill="#63b8ff" stroke="#63b8ff" points="1012.28,-47.46 1021.78,-42.78 1011.43,-40.51 1012.28,-47.46"/>
</a>
</g>
</g>
<!-- Node12 -->
<g id="Node000012" class="node">
<title>Node12</title>
<g id="a_Node000012"><a xlink:href="classNode.html#ab04e8765ab636d815dc5285c0fb232be" target="_top" xlink:title=" ">
<polygon fill="white" stroke="#666666" points="966.5,-26.75 868,-26.75 868,-6 966.5,-6 966.5,-26.75"/>
<text text-anchor="middle" x="917.25" y="-13.25" font-family="Helvetica,sans-Serif" font-size="10.00">Node::isParentOf</text>
</a>
</g>
</g>
<!-- Node1&#45;&gt;Node12 -->
<g id="edge12_Node000001_Node000012" class="edge">
<title>Node1&#45;&gt;Node12</title>
<g id="a_edge12_Node000001_Node000012"><a xlink:title=" ">
<path fill="none" stroke="#63b8ff" d="M1011.85,-27.19C996.71,-25.44 981.05,-23.63 966.97,-22.01"/>
<polygon fill="#63b8ff" stroke="#63b8ff" points="1011.44,-30.67 1021.78,-28.34 1012.25,-23.72 1011.44,-30.67"/>
</a>
</g>
</g>
<!-- Node2&#45;&gt;Node2 -->
<g id="edge10_Node000002_Node000002" class="edge">
<title>Node2&#45;&gt;Node2</title>
<g id="a_edge10_Node000002_Node000002"><a xlink:title=" ">
<path fill="none" stroke="#63b8ff" d="M946.53,-77.24C942.65,-81.08 932.89,-83.75 917.25,-83.75 888.65,-83.75 879.72,-74.81 890.44,-66.15"/>
<polygon fill="#63b8ff" stroke="#63b8ff" points="949.98,-76.63 944.39,-67.62 943.14,-78.15 949.98,-76.63"/>
</a>
</g>
</g>
<!-- Node3 -->
<g id="Node000003" class="node">
<title>Node3</title>
<g id="a_Node000003"><a xlink:href="classGraph.html#a212c8d04dbd7c2a03378e62b330e25cf" target="_top" xlink:title=" ">
<polygon fill="white" stroke="#666666" points="805.75,-124.12 640.5,-124.12 640.5,-90.62 805.75,-90.62 805.75,-124.12"/>
<text text-anchor="start" x="648.5" y="-110.62" font-family="Helvetica,sans-Serif" font-size="10.00">Graph::addEdgeAndAllChildren</text>
<text text-anchor="middle" x="723.12" y="-97.88" font-family="Helvetica,sans-Serif" font-size="10.00">AsPlainCopy</text>
</a>
</g>
</g>
<!-- Node2&#45;&gt;Node3 -->
<g id="edge2_Node000002_Node000003" class="edge">
<title>Node2&#45;&gt;Node3</title>
<g id="a_edge2_Node000002_Node000003"><a xlink:title=" ">
<path fill="none" stroke="#63b8ff" d="M865.51,-69.11C841.66,-75.56 812.98,-83.32 787.71,-90.17"/>
<polygon fill="#63b8ff" stroke="#63b8ff" points="866.24,-72.54 874.98,-66.54 864.41,-65.78 866.24,-72.54"/>
</a>
</g>
</g>
<!-- Node4 -->
<g id="Node000004" class="node">
<title>Node4</title>
<g id="a_Node000004"><a xlink:href="classGraphController.html#a31c018c702cfd784bbc64c97fc4e3eb2" target="_top" xlink:title=" ">
<polygon fill="white" stroke="#666666" points="807.62,-72.12 638.62,-72.12 638.62,-38.62 807.62,-38.62 807.62,-72.12"/>
<text text-anchor="start" x="646.62" y="-58.62" font-family="Helvetica,sans-Serif" font-size="10.00">GraphController::createDummy</text>
<text text-anchor="middle" x="723.12" y="-45.88" font-family="Helvetica,sans-Serif" font-size="10.00">Graph</text>
</a>
</g>
</g>
<!-- Node2&#45;&gt;Node4 -->
<g id="edge3_Node000002_Node000004" class="edge">
<title>Node2&#45;&gt;Node4</title>
<g id="a_edge3_Node000002_Node000004"><a xlink:title=" ">
<path fill="none" stroke="#63b8ff" d="M835.28,-55.38C826.23,-55.38 817,-55.38 807.92,-55.38"/>
<polygon fill="#63b8ff" stroke="#63b8ff" points="835.1,-58.88 845.1,-55.38 835.1,-51.88 835.1,-58.88"/>
</a>
</g>
</g>
<!-- Node11 -->
<g id="Node000011" class="node">
<title>Node11</title>
<g id="a_Node000011"><a xlink:href="classGraphController.html#a89cea5cd37dab44093d3dd7de8977816" target="_top" xlink:title=" ">
<polygon fill="white" stroke="#666666" points="811,-20.75 635.25,-20.75 635.25,0 811,0 811,-20.75"/>
<text text-anchor="middle" x="723.12" y="-7.25" font-family="Helvetica,sans-Serif" font-size="10.00">GraphController::handleMessage</text>
</a>
</g>
</g>
<!-- Node2&#45;&gt;Node11 -->
<g id="edge11_Node000002_Node000011" class="edge">
<title>Node2&#45;&gt;Node11</title>
<g id="a_edge11_Node000002_Node000011"><a xlink:title=" ">
<path fill="none" stroke="#63b8ff" d="M862.45,-41.79C845.96,-37.71 827.76,-33.28 811,-29.38 799.27,-26.64 786.62,-23.81 774.71,-21.2"/>
<polygon fill="#63b8ff" stroke="#63b8ff" points="861.53,-45.17 872.08,-44.19 863.22,-38.38 861.53,-45.17"/>
</a>
</g>
</g>
<!-- Node5 -->
<g id="Node000005" class="node">
<title>Node5</title>
<g id="a_Node000005"><a xlink:href="classGraphController.html#ae595345247fce9cd30a0b2d601cde72c" target="_top" xlink:title=" ">
<polygon fill="white" stroke="#666666" points="597.38,-94.12 425.38,-94.12 425.38,-60.62 597.38,-60.62 597.38,-94.12"/>
<text text-anchor="start" x="433.38" y="-80.62" font-family="Helvetica,sans-Serif" font-size="10.00">GraphController::createDummy</text>
<text text-anchor="middle" x="511.38" y="-67.88" font-family="Helvetica,sans-Serif" font-size="10.00">GraphAndSetActiveAndVisibility</text>
</a>
</g>
</g>
<!-- Node4&#45;&gt;Node5 -->
<g id="edge4_Node000004_Node000005" class="edge">
<title>Node4&#45;&gt;Node5</title>
<g id="a_edge4_Node000004_Node000005"><a xlink:title=" ">
<path fill="none" stroke="#63b8ff" d="M626.96,-65.36C617.23,-66.38 607.38,-67.41 597.76,-68.42"/>
<polygon fill="#63b8ff" stroke="#63b8ff" points="627.24,-68.85 636.82,-64.32 626.51,-61.89 627.24,-68.85"/>
</a>
</g>
</g>
<!-- Node10 -->
<g id="Node000010" class="node">
<title>Node10</title>
<g id="a_Node000010"><a xlink:href="classGraphController.html#adcf865b84ce0a6e46ab05f50e3fb0925" target="_top" xlink:title=" ">
<polygon fill="white" stroke="#666666" points="599.25,-42.75 423.5,-42.75 423.5,-22 599.25,-22 599.25,-42.75"/>
<text text-anchor="middle" x="511.38" y="-29.25" font-family="Helvetica,sans-Serif" font-size="10.00">GraphController::handleMessage</text>
</a>
</g>
</g>
<!-- Node4&#45;&gt;Node10 -->
<g id="edge9_Node000004_Node000010" class="edge">
<title>Node4&#45;&gt;Node10</title>
<g id="a_edge9_Node000004_Node000010"><a xlink:title=" ">
<path fill="none" stroke="#63b8ff" d="M627.15,-44.96C617.93,-43.95 608.61,-42.93 599.48,-41.93"/>
<polygon fill="#63b8ff" stroke="#63b8ff" points="626.5,-48.41 636.82,-46.02 627.26,-41.45 626.5,-48.41"/>
</a>
</g>
</g>
<!-- Node6 -->
<g id="Node000006" class="node">
<title>Node6</title>
<g id="a_Node000006"><a xlink:href="classGraphController.html#aebbedd5d21cef7a3e3eb36b54845c876" target="_top" xlink:title=" ">
<polygon fill="white" stroke="#666666" points="382.25,-139.12 217,-139.12 217,-105.62 382.25,-105.62 382.25,-139.12"/>
<text text-anchor="start" x="225" y="-125.62" font-family="Helvetica,sans-Serif" font-size="10.00">GraphController::createLegend</text>
<text text-anchor="middle" x="299.62" y="-112.88" font-family="Helvetica,sans-Serif" font-size="10.00">Graph</text>
</a>
</g>
</g>
<!-- Node5&#45;&gt;Node6 -->
<g id="edge5_Node000005_Node000006" class="edge">
<title>Node5&#45;&gt;Node6</title>
<g id="a_edge5_Node000005_Node000006"><a xlink:title=" ">
<path fill="none" stroke="#63b8ff" d="M419.07,-96.96C406.32,-99.7 393.3,-102.49 380.78,-105.18"/>
<polygon fill="#63b8ff" stroke="#63b8ff" points="419.66,-100.42 428.7,-94.9 418.19,-93.57 419.66,-100.42"/>
</a>
</g>
</g>
<!-- Node8 -->
<g id="Node000008" class="node">
<title>Node8</title>
<g id="a_Node000008"><a xlink:href="classGraphController.html#ad6d410cd1cf31de1e62d207f3195827c" target="_top" xlink:title=" ">
<polygon fill="white" stroke="#666666" points="387.5,-87.75 211.75,-87.75 211.75,-67 387.5,-67 387.5,-87.75"/>
<text text-anchor="middle" x="299.62" y="-74.25" font-family="Helvetica,sans-Serif" font-size="10.00">GraphController::handleMessage</text>
</a>
</g>
</g>
<!-- Node5&#45;&gt;Node8 -->
<g id="edge7_Node000005_Node000008" class="edge">
<title>Node5&#45;&gt;Node8</title>
<g id="a_edge7_Node000005_Node000008"><a xlink:title=" ">
<path fill="none" stroke="#63b8ff" d="M413.78,-77.38C405.15,-77.38 396.45,-77.38 387.91,-77.38"/>
<polygon fill="#63b8ff" stroke="#63b8ff" points="413.55,-80.88 423.55,-77.38 413.55,-73.88 413.55,-80.88"/>
</a>
</g>
</g>
<!-- Node9 -->
<g id="Node000009" class="node">
<title>Node9</title>
<g id="a_Node000009"><a xlink:href="classGraphController.html#a44dfa466a634e4dae85ee297461d523a" target="_top" xlink:title=" ">
<polygon fill="white" stroke="#666666" points="387.5,-48.75 211.75,-48.75 211.75,-28 387.5,-28 387.5,-48.75"/>
<text text-anchor="middle" x="299.62" y="-35.25" font-family="Helvetica,sans-Serif" font-size="10.00">GraphController::handleMessage</text>
</a>
</g>
</g>
<!-- Node5&#45;&gt;Node9 -->
<g id="edge8_Node000005_Node000009" class="edge">
<title>Node5&#45;&gt;Node9</title>
<g id="a_edge8_Node000005_Node000009"><a xlink:title=" ">
<path fill="none" stroke="#63b8ff" d="M413.78,-59.41C395.04,-55.93 375.95,-52.38 358.91,-49.21"/>
<polygon fill="#63b8ff" stroke="#63b8ff" points="413.1,-62.85 423.57,-61.24 414.38,-55.97 413.1,-62.85"/>
</a>
</g>
</g>
<!-- Node7 -->
<g id="Node000007" class="node">
<title>Node7</title>
<g id="a_Node000007"><a xlink:href="classGraphController.html#a6c817f0e3c1be7cf49746072c2bfde65" target="_top" xlink:title=" ">
<polygon fill="white" stroke="#666666" points="175.75,-132.75 0,-132.75 0,-112 175.75,-112 175.75,-132.75"/>
<text text-anchor="middle" x="87.88" y="-119.25" font-family="Helvetica,sans-Serif" font-size="10.00">GraphController::handleMessage</text>
</a>
</g>
</g>
<!-- Node6&#45;&gt;Node7 -->
<g id="edge6_Node000006_Node000007" class="edge">
<title>Node6&#45;&gt;Node7</title>
<g id="a_edge6_Node000006_Node000007"><a xlink:title=" ">
<path fill="none" stroke="#63b8ff" d="M205.28,-122.38C195.54,-122.38 185.67,-122.38 176.01,-122.38"/>
<polygon fill="#63b8ff" stroke="#63b8ff" points="205.12,-125.88 215.12,-122.38 205.12,-118.88 205.12,-125.88"/>
</a>
</g>
</g>
</g>
</svg>
