<?xml version="1.0" encoding="UTF-8" standalone="no"?>
<!DOCTYPE svg PUBLIC "-//W3C//DTD SVG 1.1//EN"
 "http://www.w3.org/Graphics/SVG/1.1/DTD/svg11.dtd">
<!-- Generated by graphviz version 7.1.0 (0)
 -->
<!-- Title: ActivationListener Pages: 1 -->
<!--zoomable 392 -->
<svg id="main" version="1.1" xmlns="http://www.w3.org/2000/svg" xmlns:xlink="http://www.w3.org/1999/xlink" xml:space="preserve" onload="init(evt)">
<style type="text/css"><![CDATA[
.edge:hover path { stroke: red; }
.edge:hover polygon { stroke: red; fill: red; }
]]></style>
<script type="text/javascript"><![CDATA[
var edges = document.getElementsByTagName('g');
if (edges && edges.length) {
  for (var i=0;i<edges.length;i++) {
    if (edges[i].id.substr(0,4)=='edge') {
      edges[i].setAttribute('class','edge');
    }
  }
}
]]></script>
        <defs>
                <circle id="rim" cx="0" cy="0" r="7"/>
                <circle id="rim2" cx="0" cy="0" r="3.5"/>
                <g id="zoomPlus">
                        <use xlink:href="#rim" fill="#404040">
                                <set attributeName="fill" to="#808080" begin="zoomplus.mouseover" end="zoomplus.mouseout"/>
                        </use>
                        <path d="M-4,0h8M0,-4v8" fill="none" stroke="white" stroke-width="1.5" pointer-events="none"/>
                </g>
                <g id="zoomMin">
                        <use xlink:href="#rim" fill="#404040">
                                <set attributeName="fill" to="#808080" begin="zoomminus.mouseover" end="zoomminus.mouseout"/>
                        </use>
                        <path d="M-4,0h8" fill="none" stroke="white" stroke-width="1.5" pointer-events="none"/>
                </g>
                <g id="dirArrow">
                        <path fill="none" stroke="white" stroke-width="1.5" d="M0,-3.0v7 M-2.5,-0.5L0,-3.0L2.5,-0.5"/>
                </g>
               <g id="resetDef">
                       <use xlink:href="#rim2" fill="#404040">
                               <set attributeName="fill" to="#808080" begin="reset.mouseover" end="reset.mouseout"/>
                       </use>
               </g>
        </defs>

<script type="text/javascript">
var viewWidth = 1039;
var viewHeight = 392;
var sectionId = 'dynsection-1';
</script>
<script xlink:href="svgpan.js"/>
<svg id="graph" class="graph">
<g id="viewport">
<title>ActivationListener</title>
<!-- Node1 -->
<g id="node1" class="node">
<title>Node1</title>
<g id="a_node1"><a xlink:title=" ">
<polygon fill="#999999" stroke="#666666" points="1031,-197.1 926,-197.1 926,-178.1 1031,-178.1 1031,-197.1"/>
<text text-anchor="middle" x="978.5" y="-185.1" font-family="Helvetica,sans-Serif" font-size="10.00">ActivationListener</text>
</a>
</g>
</g>
<!-- Node2 -->
<g id="node2" class="node">
<title>Node2</title>
<g id="a_node2"><a xlink:href="classMessageListener.html" target="_top" xlink:title=" ">
<polygon fill="white" stroke="#666666" points="798,-250.6 644,-250.6 644,-220.6 798,-220.6 798,-250.6"/>
<text text-anchor="start" x="652" y="-238.6" font-family="Helvetica,sans-Serif" font-size="10.00">MessageListener&lt; Message</text>
<text text-anchor="middle" x="721" y="-227.6" font-family="Helvetica,sans-Serif" font-size="10.00">ActivateErrors &gt;</text>
</a>
</g>
</g>
<!-- Node2&#45;&gt;Node1 -->
<g id="edge1" class="edge">
<title>Node2&#45;&gt;Node1</title>
<path fill="none" stroke="#63b8ff" d="M809.35,-219.97C840.51,-214.3 875.84,-207.78 908,-201.6 914.65,-200.32 921.65,-198.95 928.54,-197.58"/>
<polygon fill="#63b8ff" stroke="#63b8ff" points="808.78,-216.52 799.56,-221.74 810.03,-223.4 808.78,-216.52"/>
</g>
<!-- Node3 -->
<g id="node3" class="node">
<title>Node3</title>
<g id="a_node3"><a xlink:href="classMessageListenerBase.html" target="_top" xlink:title=" ">
<polygon fill="white" stroke="#666666" points="260,-217.1 137,-217.1 137,-198.1 260,-198.1 260,-217.1"/>
<text text-anchor="middle" x="198.5" y="-205.1" font-family="Helvetica,sans-Serif" font-size="10.00">MessageListenerBase</text>
</a>
</g>
</g>
<!-- Node3&#45;&gt;Node2 -->
<g id="edge2" class="edge">
<title>Node3&#45;&gt;Node2</title>
<path fill="none" stroke="#63b8ff" d="M226.5,-222.85C296.2,-260.05 486.47,-347.72 626,-281.6 637.42,-276.19 633.54,-266.69 644,-259.6 648.81,-256.34 654.09,-253.51 659.55,-251.04"/>
<polygon fill="#63b8ff" stroke="#63b8ff" points="228.53,-219.97 218.07,-218.27 225.19,-226.12 228.53,-219.97"/>
</g>
<!-- Node7 -->
<g id="node7" class="node">
<title>Node7</title>
<g id="a_node7"><a xlink:href="classMessageListener.html" target="_top" xlink:title=" ">
<polygon fill="white" stroke="#666666" points="451,-222.6 297,-222.6 297,-192.6 451,-192.6 451,-222.6"/>
<text text-anchor="start" x="305" y="-210.6" font-family="Helvetica,sans-Serif" font-size="10.00">MessageListener&lt; Message</text>
<text text-anchor="middle" x="374" y="-199.6" font-family="Helvetica,sans-Serif" font-size="10.00">Type &gt;</text>
</a>
</g>
</g>
<!-- Node3&#45;&gt;Node7 -->
<g id="edge7" class="edge">
<title>Node3&#45;&gt;Node7</title>
<path fill="none" stroke="#63b8ff" d="M271.45,-207.6C279.81,-207.6 288.37,-207.6 296.79,-207.6"/>
<polygon fill="#63b8ff" stroke="#63b8ff" points="271.7,-204.1 261.7,-207.6 271.7,-211.1 271.7,-204.1"/>
</g>
<!-- Node8 -->
<g id="node8" class="node">
<title>Node8</title>
<g id="a_node8"><a xlink:href="classMessageListener.html" target="_top" xlink:title=" ">
<polygon fill="white" stroke="#666666" points="798,-298.6 644,-298.6 644,-268.6 798,-268.6 798,-298.6"/>
<text text-anchor="start" x="652" y="-286.6" font-family="Helvetica,sans-Serif" font-size="10.00">MessageListener&lt; Message</text>
<text text-anchor="middle" x="721" y="-275.6" font-family="Helvetica,sans-Serif" font-size="10.00">ActivateFullTextSearch &gt;</text>
</a>
</g>
</g>
<!-- Node3&#45;&gt;Node8 -->
<g id="edge9" class="edge">
<title>Node3&#45;&gt;Node8</title>
<path fill="none" stroke="#63b8ff" d="M215.66,-225.86C233.68,-245.14 264.58,-275.12 297,-292.6 366.85,-330.27 390.37,-329.84 469,-340.6 538.13,-350.07 566,-376.22 626,-340.6 640.37,-332.07 631.1,-318.22 644,-307.6 647.95,-304.35 652.35,-301.53 656.98,-299.1"/>
<polygon fill="#63b8ff" stroke="#63b8ff" points="218.46,-223.74 209.13,-218.72 213.29,-228.46 218.46,-223.74"/>
</g>
<!-- Node9 -->
<g id="node9" class="node">
<title>Node9</title>
<g id="a_node9"><a xlink:href="classMessageListener.html" target="_top" xlink:title=" ">
<polygon fill="white" stroke="#666666" points="798,-346.6 644,-346.6 644,-316.6 798,-316.6 798,-346.6"/>
<text text-anchor="start" x="652" y="-334.6" font-family="Helvetica,sans-Serif" font-size="10.00">MessageListener&lt; Message</text>
<text text-anchor="middle" x="721" y="-323.6" font-family="Helvetica,sans-Serif" font-size="10.00">ActivateOverview &gt;</text>
</a>
</g>
</g>
<!-- Node3&#45;&gt;Node9 -->
<g id="edge12" class="edge">
<title>Node3&#45;&gt;Node9</title>
<path fill="none" stroke="#63b8ff" d="M209.61,-227.31C224.72,-254.66 255.88,-303.58 297,-328.6 422.62,-405.04 480.93,-387.62 626,-363.6 645.56,-360.36 666.51,-353.58 683.66,-347.08"/>
<polygon fill="#63b8ff" stroke="#63b8ff" points="212.8,-225.86 205,-218.69 206.63,-229.16 212.8,-225.86"/>
</g>
<!-- Node10 -->
<g id="node10" class="node">
<title>Node10</title>
<g id="a_node10"><a xlink:href="classMessageListener.html" target="_top" xlink:title=" ">
<polygon fill="white" stroke="#666666" points="798,-202.6 644,-202.6 644,-172.6 798,-172.6 798,-202.6"/>
<text text-anchor="start" x="652" y="-190.6" font-family="Helvetica,sans-Serif" font-size="10.00">MessageListener&lt; Message</text>
<text text-anchor="middle" x="721" y="-179.6" font-family="Helvetica,sans-Serif" font-size="10.00">ActivateLegend &gt;</text>
</a>
</g>
</g>
<!-- Node3&#45;&gt;Node10 -->
<g id="edge15" class="edge">
<title>Node3&#45;&gt;Node10</title>
<path fill="none" stroke="#63b8ff" d="M227.52,-192.7C298.13,-157.32 487.53,-75.99 626,-141.6 637.42,-147.01 633.54,-156.52 644,-163.6 648.81,-166.86 654.09,-169.7 659.55,-172.16"/>
<polygon fill="#63b8ff" stroke="#63b8ff" points="226.28,-189.4 218.96,-197.07 229.46,-195.64 226.28,-189.4"/>
</g>
<!-- Node11 -->
<g id="node11" class="node">
<title>Node11</title>
<g id="a_node11"><a xlink:href="classMessageListener.html" target="_top" xlink:title=" ">
<polygon fill="white" stroke="#666666" points="798,-154.6 644,-154.6 644,-124.6 798,-124.6 798,-154.6"/>
<text text-anchor="start" x="652" y="-142.6" font-family="Helvetica,sans-Serif" font-size="10.00">MessageListener&lt; Message</text>
<text text-anchor="middle" x="721" y="-131.6" font-family="Helvetica,sans-Serif" font-size="10.00">ActivateTokens &gt;</text>
</a>
</g>
</g>
<!-- Node3&#45;&gt;Node11 -->
<g id="edge18" class="edge">
<title>Node3&#45;&gt;Node11</title>
<path fill="none" stroke="#63b8ff" d="M213.66,-188.83C230.85,-167.53 261.93,-133.56 297,-116.6 429.05,-52.74 495.45,-23.73 626,-90.6 638.19,-96.84 632.91,-107.58 644,-115.6 648.48,-118.85 653.42,-121.66 658.56,-124.11"/>
<polygon fill="#63b8ff" stroke="#63b8ff" points="211.12,-186.39 207.7,-196.42 216.63,-190.71 211.12,-186.39"/>
</g>
<!-- Node12 -->
<g id="node12" class="node">
<title>Node12</title>
<g id="a_node12"><a xlink:href="classMessageListener.html" target="_top" xlink:title=" ">
<polygon fill="white" stroke="#666666" points="798,-106.6 644,-106.6 644,-76.6 798,-76.6 798,-106.6"/>
<text text-anchor="start" x="652" y="-94.6" font-family="Helvetica,sans-Serif" font-size="10.00">MessageListener&lt; Message</text>
<text text-anchor="middle" x="721" y="-83.6" font-family="Helvetica,sans-Serif" font-size="10.00">ActivateTrail &gt;</text>
</a>
</g>
</g>
<!-- Node3&#45;&gt;Node12 -->
<g id="edge21" class="edge">
<title>Node3&#45;&gt;Node12</title>
<path fill="none" stroke="#63b8ff" d="M205.31,-187.14C216.48,-152.08 244.62,-81.44 297,-51.6 424.07,20.77 492.42,11.89 626,-47.6 636.92,-52.47 633.94,-61.13 644,-67.6 649.12,-70.9 654.72,-73.77 660.5,-76.26"/>
<polygon fill="#63b8ff" stroke="#63b8ff" points="202.03,-185.89 202.49,-196.48 208.73,-187.92 202.03,-185.89"/>
</g>
<!-- Node4 -->
<g id="node4" class="node">
<title>Node4</title>
<g id="a_node4"><a xlink:title=" ">
<polygon fill="white" stroke="#666666" points="56,-254.1 0,-254.1 0,-235.1 56,-235.1 56,-254.1"/>
<text text-anchor="middle" x="28" y="-242.1" font-family="Helvetica,sans-Serif" font-size="10.00">static Id</text>
</a>
</g>
</g>
<!-- Node4&#45;&gt;Node3 -->
<g id="edge3" class="edge">
<title>Node4&#45;&gt;Node3</title>
<path fill="none" stroke="#9a32cd" stroke-dasharray="5,2" d="M67.44,-236.16C92.67,-230.62 125.79,-223.35 152.29,-217.53"/>
<polygon fill="#9a32cd" stroke="#9a32cd" points="66.94,-232.69 57.93,-238.25 68.44,-239.52 66.94,-232.69"/>
<text text-anchor="middle" x="96.5" y="-237.6" font-family="Helvetica,sans-Serif" font-size="10.00"> s_nextId</text>
</g>
<!-- Node5 -->
<g id="node5" class="node">
<title>Node5</title>
<g id="a_node5"><a xlink:title=" ">
<polygon fill="white" stroke="#666666" points="50.5,-217.1 5.5,-217.1 5.5,-198.1 50.5,-198.1 50.5,-217.1"/>
<text text-anchor="middle" x="28" y="-205.1" font-family="Helvetica,sans-Serif" font-size="10.00">size_t</text>
</a>
</g>
</g>
<!-- Node5&#45;&gt;Node3 -->
<g id="edge4" class="edge">
<title>Node5&#45;&gt;Node3</title>
<path fill="none" stroke="#9a32cd" stroke-dasharray="5,2" d="M62.01,-207.6C83.27,-207.6 111.54,-207.6 136.76,-207.6"/>
<polygon fill="#9a32cd" stroke="#9a32cd" points="62.2,-204.1 52.2,-207.6 62.2,-211.1 62.2,-204.1"/>
<text text-anchor="middle" x="96.5" y="-210.6" font-family="Helvetica,sans-Serif" font-size="10.00"> m_id</text>
</g>
<!-- Node6 -->
<g id="node6" class="node">
<title>Node6</title>
<g id="a_node6"><a xlink:title=" ">
<polygon fill="white" stroke="#666666" points="47,-180.1 9,-180.1 9,-161.1 47,-161.1 47,-180.1"/>
<text text-anchor="middle" x="28" y="-168.1" font-family="Helvetica,sans-Serif" font-size="10.00">bool</text>
</a>
</g>
</g>
<!-- Node6&#45;&gt;Node3 -->
<g id="edge5" class="edge">
<title>Node6&#45;&gt;Node3</title>
<path fill="none" stroke="#9a32cd" stroke-dasharray="5,2" d="M58.32,-177.04C84.25,-182.73 122.47,-191.13 152.31,-197.68"/>
<polygon fill="#9a32cd" stroke="#9a32cd" points="59.35,-173.68 48.83,-174.96 57.85,-180.52 59.35,-173.68"/>
<text text-anchor="middle" x="96.5" y="-192.6" font-family="Helvetica,sans-Serif" font-size="10.00"> m_alive</text>
</g>
<!-- Node7&#45;&gt;Node2 -->
<g id="edge6" class="edge">
<title>Node7&#45;&gt;Node2</title>
<path fill="none" stroke="orange" stroke-dasharray="5,2" d="M462.74,-213.15C510.96,-216.39 571.81,-220.78 626,-225.6 631.72,-226.11 637.64,-226.67 643.58,-227.25"/>
<polygon fill="orange" stroke="orange" points="463.12,-209.67 452.91,-212.5 462.65,-216.65 463.12,-209.67"/>
<text text-anchor="middle" x="547.5" y="-228.6" font-family="Helvetica,sans-Serif" font-size="10.00"> &lt; MessageActivateErrors &gt;</text>
</g>
<!-- Node7&#45;&gt;Node8 -->
<g id="edge10" class="edge">
<title>Node7&#45;&gt;Node8</title>
<path fill="none" stroke="orange" stroke-dasharray="5,2" d="M432.01,-226.33C444.15,-230 456.94,-233.62 469,-236.6 527.1,-250.95 593.73,-263.24 643.73,-271.65"/>
<polygon fill="orange" stroke="orange" points="433.12,-223.01 422.53,-223.41 431.06,-229.7 433.12,-223.01"/>
<text text-anchor="start" x="479.5" y="-281.6" font-family="Helvetica,sans-Serif" font-size="10.00"> &lt; MessageActivateFullText</text>
<text text-anchor="middle" x="547.5" y="-270.6" font-family="Helvetica,sans-Serif" font-size="10.00">Search &gt;</text>
</g>
<!-- Node7&#45;&gt;Node9 -->
<g id="edge13" class="edge">
<title>Node7&#45;&gt;Node9</title>
<path fill="none" stroke="orange" stroke-dasharray="5,2" d="M394,-231.57C411.3,-251.6 438.71,-279.13 469,-293.6 523.68,-319.72 592.03,-328.75 643.6,-331.5"/>
<polygon fill="orange" stroke="orange" points="396.87,-229.54 387.76,-224.13 391.5,-234.04 396.87,-229.54"/>
<text text-anchor="middle" x="547.5" y="-332.6" font-family="Helvetica,sans-Serif" font-size="10.00"> &lt; MessageActivateOverview &gt;</text>
</g>
<!-- Node7&#45;&gt;Node10 -->
<g id="edge16" class="edge">
<title>Node7&#45;&gt;Node10</title>
<path fill="none" stroke="orange" stroke-dasharray="5,2" d="M462.72,-192.23C464.83,-192.01 466.93,-191.79 469,-191.6 527.48,-186.19 593.94,-185.37 643.77,-185.8"/>
<polygon fill="orange" stroke="orange" points="462.32,-188.76 452.81,-193.43 463.16,-195.71 462.32,-188.76"/>
<text text-anchor="middle" x="547.5" y="-194.6" font-family="Helvetica,sans-Serif" font-size="10.00"> &lt; MessageActivateLegend &gt;</text>
</g>
<!-- Node7&#45;&gt;Node11 -->
<g id="edge19" class="edge">
<title>Node7&#45;&gt;Node11</title>
<path fill="none" stroke="orange" stroke-dasharray="5,2" d="M418.65,-187.77C434.26,-181.4 452.15,-174.88 469,-170.6 526.55,-155.97 593.35,-148.15 643.57,-144.02"/>
<polygon fill="orange" stroke="orange" points="417.52,-184.45 409.65,-191.55 420.23,-190.91 417.52,-184.45"/>
<text text-anchor="middle" x="547.5" y="-173.6" font-family="Helvetica,sans-Serif" font-size="10.00"> &lt; MessageActivateTokens &gt;</text>
</g>
<!-- Node7&#45;&gt;Node12 -->
<g id="edge22" class="edge">
<title>Node7&#45;&gt;Node12</title>
<path fill="none" stroke="orange" stroke-dasharray="5,2" d="M396.54,-184.16C414.23,-166.47 440.86,-143.18 469,-130.6 524.26,-105.91 592.41,-96.48 643.75,-93.05"/>
<polygon fill="orange" stroke="orange" points="394.13,-181.63 389.67,-191.24 399.15,-186.51 394.13,-181.63"/>
<text text-anchor="middle" x="547.5" y="-133.6" font-family="Helvetica,sans-Serif" font-size="10.00"> &lt; MessageActivateTrail &gt;</text>
</g>
<!-- Node8&#45;&gt;Node1 -->
<g id="edge8" class="edge">
<title>Node8&#45;&gt;Node1</title>
<path fill="none" stroke="#63b8ff" d="M789.06,-264.98C824.89,-254.28 869.44,-239.78 908,-223.6 926.3,-215.93 946.33,-205.3 960.17,-197.58"/>
<polygon fill="#63b8ff" stroke="#63b8ff" points="788.29,-261.56 779.69,-267.75 790.28,-268.27 788.29,-261.56"/>
</g>
<!-- Node9&#45;&gt;Node1 -->
<g id="edge11" class="edge">
<title>Node9&#45;&gt;Node1</title>
<path fill="none" stroke="#63b8ff" d="M785.53,-312.46C823.14,-299.36 870.59,-279.63 908,-253.6 932.31,-236.68 956.42,-211.38 968.85,-197.54"/>
<polygon fill="#63b8ff" stroke="#63b8ff" points="784.48,-309.12 776.14,-315.66 786.73,-315.75 784.48,-309.12"/>
</g>
<!-- Node10&#45;&gt;Node1 -->
<g id="edge14" class="edge">
<title>Node10&#45;&gt;Node1</title>
<path fill="none" stroke="#63b8ff" d="M809.6,-187.6C848.32,-187.6 892.5,-187.6 925.83,-187.6"/>
<polygon fill="#63b8ff" stroke="#63b8ff" points="809.83,-184.1 799.83,-187.6 809.83,-191.1 809.83,-184.1"/>
</g>
<!-- Node11&#45;&gt;Node1 -->
<g id="edge17" class="edge">
<title>Node11&#45;&gt;Node1</title>
<path fill="none" stroke="#63b8ff" d="M809.6,-156.06C848.32,-163.33 892.5,-171.63 925.83,-177.89"/>
<polygon fill="#63b8ff" stroke="#63b8ff" points="810.27,-152.62 799.8,-154.22 808.98,-159.5 810.27,-152.62"/>
</g>
<!-- Node12&#45;&gt;Node1 -->
<g id="edge20" class="edge">
<title>Node12&#45;&gt;Node1</title>
<path fill="none" stroke="#63b8ff" d="M785.79,-110.36C822.08,-121.66 868.12,-137.03 908,-153.6 925.61,-160.92 945.07,-170.58 958.91,-177.73"/>
<polygon fill="#63b8ff" stroke="#63b8ff" points="786.89,-107.04 776.3,-107.44 784.83,-113.73 786.89,-107.04"/>
</g>
<!-- Node13 -->
<g id="node13" class="node">
<title>Node13</title>
<g id="a_node13"><a xlink:title=" ">
<polygon fill="white" stroke="#666666" points="787.5,-58.1 654.5,-58.1 654.5,-39.1 787.5,-39.1 787.5,-58.1"/>
<text text-anchor="middle" x="721" y="-46.1" font-family="Helvetica,sans-Serif" font-size="10.00">vector&lt; SearchMatch &gt;</text>
</a>
</g>
</g>
<!-- Node13&#45;&gt;Node1 -->
<g id="edge23" class="edge">
<title>Node13&#45;&gt;Node1</title>
<path fill="none" stroke="#9a32cd" stroke-dasharray="5,2" d="M798.64,-60.64C834.15,-68.87 875.57,-82.46 908,-104.6 937.34,-124.63 961.24,-160.33 971.74,-177.64"/>
<polygon fill="#9a32cd" stroke="#9a32cd" points="799.82,-57.32 789.3,-58.58 798.31,-64.15 799.82,-57.32"/>
<text text-anchor="middle" x="862" y="-107.6" font-family="Helvetica,sans-Serif" font-size="10.00"> m_searchMatches</text>
</g>
</g>
</svg>
        <g id="navigator" transform="translate(0 0)" fill="#404254">
                <rect fill="#f2f5e9" fill-opacity="0.5" stroke="#606060" stroke-width=".5" x="0" y="0" width="60" height="60"/>
                <use id="zoomplus" xlink:href="#zoomPlus" x="17" y="9" onmousedown="handleZoom(evt,'in')"/>
                <use id="zoomminus" xlink:href="#zoomMin" x="42" y="9" onmousedown="handleZoom(evt,'out')"/>
                <use id="reset" xlink:href="#resetDef" x="30" y="36" onmousedown="handleReset()"/>
                <g id="arrowUp" xlink:href="#dirArrow" transform="translate(30 24)" onmousedown="handlePan(0,-1)">
                  <use xlink:href="#rim" fill="#404040">
                        <set attributeName="fill" to="#808080" begin="arrowUp.mouseover" end="arrowUp.mouseout"/>
                  </use>
                  <path fill="none" stroke="white" stroke-width="1.5" d="M0,-3.0v7 M-2.5,-0.5L0,-3.0L2.5,-0.5"/>
                </g>
                <g id="arrowRight" xlink:href="#dirArrow" transform="rotate(90) translate(36 -43)" onmousedown="handlePan(1,0)">
                  <use xlink:href="#rim" fill="#404040">
                        <set attributeName="fill" to="#808080" begin="arrowRight.mouseover" end="arrowRight.mouseout"/>
                  </use>
                  <path fill="none" stroke="white" stroke-width="1.5" d="M0,-3.0v7 M-2.5,-0.5L0,-3.0L2.5,-0.5"/>
                </g>
                <g id="arrowDown" xlink:href="#dirArrow" transform="rotate(180) translate(-30 -48)" onmousedown="handlePan(0,1)">
                  <use xlink:href="#rim" fill="#404040">
                        <set attributeName="fill" to="#808080" begin="arrowDown.mouseover" end="arrowDown.mouseout"/>
                  </use>
                  <path fill="none" stroke="white" stroke-width="1.5" d="M0,-3.0v7 M-2.5,-0.5L0,-3.0L2.5,-0.5"/>
                </g>
                <g id="arrowLeft" xlink:href="#dirArrow" transform="rotate(270) translate(-36 17)" onmousedown="handlePan(-1,0)">
                  <use xlink:href="#rim" fill="#404040">
                        <set attributeName="fill" to="#808080" begin="arrowLeft.mouseover" end="arrowLeft.mouseout"/>
                  </use>
                  <path fill="none" stroke="white" stroke-width="1.5" d="M0,-3.0v7 M-2.5,-0.5L0,-3.0L2.5,-0.5"/>
                </g>
        </g>
        <svg viewBox="0 0 15 15" width="100%" height="30px" preserveAspectRatio="xMaxYMin meet">
         <g id="arrow_out" transform="scale(0.3 0.3)">
          <a xlink:href="classActivationListener__coll__graph_org.svg" target="_base">
           <rect id="button" ry="5" rx="5" y="6" x="6" height="38" width="38"
                fill="#f2f5e9" fill-opacity="0.5" stroke="#606060" stroke-width="1.0"/>
           <path id="arrow"
             d="M 11.500037,31.436501 C 11.940474,20.09759 22.043105,11.32322 32.158766,21.979434 L 37.068811,17.246167 C 37.068811,17.246167 37.088388,32 37.088388,32 L 22.160133,31.978069 C 22.160133,31.978069 26.997745,27.140456 26.997745,27.140456 C 18.528582,18.264221 13.291696,25.230495 11.500037,31.436501 z"
             style="fill:#404040;"/>
          </a>
         </g>
        </svg>
</svg>
