<?xml version="1.0" encoding="UTF-8" standalone="no"?>
<!DOCTYPE svg PUBLIC "-//W3C//DTD SVG 1.1//EN"
 "http://www.w3.org/Graphics/SVG/1.1/DTD/svg11.dtd">
<!-- Generated by graphviz version 9.0.0 (0)
 -->
<!-- Title: QtFileDialog::getFileNamesAndDirectories Pages: 1 -->
<!--zoomable 197 -->

<svg id="main" version="1.1" xmlns="http://www.w3.org/2000/svg" xmlns:xlink="http://www.w3.org/1999/xlink" xml:space="preserve" onload="init(evt)">
<style type="text/css"><![CDATA[
.node, .edge {opacity: 0.7;}
.node.selected, .edge.selected {opacity: 1;}
.edge:hover path { stroke: red; }
.edge:hover polygon { stroke: red; fill: red; }
]]></style>

<defs>
  <circle id="rim" cx="0" cy="0" r="7"/>
  <circle id="rim2" cx="0" cy="0" r="3.5"/>
  <g id="zoomPlus">
    <use xlink:href="#rim" fill="#404040"><set attributeName="fill" to="#808080" begin="zoomplus.mouseover" end="zoomplus.mouseout"/></use>
    <path d="M-4,0h8M0,-4v8" fill="none" stroke="white" stroke-width="1.5" pointer-events="none"/>
  </g>
  <g id="zoomMin">
    <use xlink:href="#rim" fill="#404040"><set attributeName="fill" to="#808080" begin="zoomminus.mouseover" end="zoomminus.mouseout"/></use>
    <path d="M-4,0h8" fill="none" stroke="white" stroke-width="1.5" pointer-events="none"/>
  </g>
  <g id="arrowUp" transform="translate(30 24)">
    <use xlink:href="#rim"/>
    <path pointer-events="none" fill="none" stroke="white" stroke-width="1.5" d="M0,-3.0v7 M-2.5,-0.5L0,-3.0L2.5,-0.5"/>
  </g>
  <g id="arrowRight" transform="rotate(90) translate(36 -43)">
    <use xlink:href="#rim"/>
    <path pointer-events="none" fill="none" stroke="white" stroke-width="1.5" d="M0,-3.0v7 M-2.5,-0.5L0,-3.0L2.5,-0.5"/>
  </g>
  <g id="arrowDown" transform="rotate(180) translate(-30 -48)">
    <use xlink:href="#rim"/>
    <path pointer-events="none" fill="none" stroke="white" stroke-width="1.5" d="M0,-3.0v7 M-2.5,-0.5L0,-3.0L2.5,-0.5"/>
  </g>
  <g id="arrowLeft" transform="rotate(270) translate(-36 17)">
    <use xlink:href="#rim"/>
    <path pointer-events="none" fill="none" stroke="white" stroke-width="1.5" d="M0,-3.0v7 M-2.5,-0.5L0,-3.0L2.5,-0.5"/>
  </g>
  <g id="resetDef">
    <use xlink:href="#rim2" fill="#404040"><set attributeName="fill" to="#808080" begin="reset.mouseover" end="reset.mouseout"/></use>
  </g>
</defs>
<script type="application/ecmascript">
var viewWidth = 644;
var viewHeight = 197;
var sectionId = 'dynsection-4';
</script>
<script type="application/ecmascript" xlink:href="svg.min.js"/>
<svg id="graph" class="graph">
<g id="viewport">
<title>QtFileDialog::getFileNamesAndDirectories</title>
<!-- Node1 -->
<g id="Node000001" class="node">
<title>Node1</title>
<g id="a_Node000001"><a xlink:title=" ">
<polygon fill="#999999" stroke="#666666" points="148,-111.12 0,-111.12 0,-77.62 148,-77.62 148,-111.12"/>
<text text-anchor="start" x="8" y="-97.62" font-family="Helvetica,sans-Serif" font-size="10.00">QtFileDialog::getFileNames</text>
<text text-anchor="middle" x="74" y="-84.88" font-family="Helvetica,sans-Serif" font-size="10.00">AndDirectories</text>
</a>
</g>
</g>
<!-- Node2 -->
<g id="Node000002" class="node">
<title>Node2</title>
<g id="a_Node000002"><a xlink:href="classQtFileDialog.html#a6fb27e68f16c0abe327798d5eb4b3a84" target="_top" xlink:title=" ">
<polygon fill="white" stroke="#666666" points="315.88,-188.75 204.62,-188.75 204.62,-168 315.88,-168 315.88,-188.75"/>
<text text-anchor="middle" x="260.25" y="-175.25" font-family="Helvetica,sans-Serif" font-size="10.00">QtFileDialog::getDir</text>
</a>
</g>
</g>
<!-- Node1&#45;&gt;Node2 -->
<g id="edge1_Node000001_Node000002" class="edge">
<title>Node1&#45;&gt;Node2</title>
<g id="a_edge1_Node000001_Node000002"><a xlink:title=" ">
<path fill="none" stroke="#63b8ff" d="M99.54,-111.4C120.99,-125.64 153.42,-145.61 184,-158.38 189.17,-160.53 194.64,-162.52 200.17,-164.32"/>
<polygon fill="#63b8ff" stroke="#63b8ff" points="198.8,-167.56 209.39,-167.14 200.85,-160.87 198.8,-167.56"/>
</a>
</g>
</g>
<!-- Node5 -->
<g id="Node000005" class="node">
<title>Node5</title>
<g id="a_Node000005"><a xlink:href="namespaceutility.html#a2701176803785cdbdc4e285f76d61011" target="_top" xlink:title=" ">
<polygon fill="white" stroke="#666666" points="310.62,-149.75 209.88,-149.75 209.88,-129 310.62,-129 310.62,-149.75"/>
<text text-anchor="middle" x="260.25" y="-136.25" font-family="Helvetica,sans-Serif" font-size="10.00">utility::getOsType</text>
</a>
</g>
</g>
<!-- Node1&#45;&gt;Node5 -->
<g id="edge4_Node000001_Node000005" class="edge">
<title>Node1&#45;&gt;Node5</title>
<g id="a_edge4_Node000001_Node000005"><a xlink:title=" ">
<path fill="none" stroke="#63b8ff" d="M145.45,-111.58C164.8,-116.31 185.5,-121.36 203.87,-125.85"/>
<polygon fill="#63b8ff" stroke="#63b8ff" points="202.96,-129.23 213.5,-128.2 204.62,-122.43 202.96,-129.23"/>
</a>
</g>
</g>
<!-- Node6 -->
<g id="Node000006" class="node">
<title>Node6</title>
<g id="a_Node000006"><a xlink:href="classFilePath.html#aaf06bc0f27bbc6d93172f25d0c8605a3" target="_top" xlink:title=" ">
<polygon fill="white" stroke="#666666" points="336.5,-59.75 184,-59.75 184,-39 336.5,-39 336.5,-59.75"/>
<text text-anchor="middle" x="260.25" y="-46.25" font-family="Helvetica,sans-Serif" font-size="10.00">FilePath::getParentDirectory</text>
</a>
</g>
</g>
<!-- Node1&#45;&gt;Node6 -->
<g id="edge5_Node000001_Node000006" class="edge">
<title>Node1&#45;&gt;Node6</title>
<g id="a_edge5_Node000001_Node000006"><a xlink:title=" ">
<path fill="none" stroke="#63b8ff" d="M145.45,-77.17C164.8,-72.44 185.5,-67.39 203.87,-62.9"/>
<polygon fill="#63b8ff" stroke="#63b8ff" points="204.62,-66.32 213.5,-60.55 202.96,-59.52 204.62,-66.32"/>
</a>
</g>
</g>
<!-- Node8 -->
<g id="Node000008" class="node">
<title>Node8</title>
<g id="a_Node000008"><a xlink:href="classFilePath.html#a9720b7e43230f31e635394ba5bf571a9" target="_top" xlink:title=" ">
<polygon fill="white" stroke="#666666" points="317,-20.75 203.5,-20.75 203.5,0 317,0 317,-20.75"/>
<text text-anchor="middle" x="260.25" y="-7.25" font-family="Helvetica,sans-Serif" font-size="10.00">FilePath::isDirectory</text>
</a>
</g>
</g>
<!-- Node1&#45;&gt;Node8 -->
<g id="edge8_Node000001_Node000008" class="edge">
<title>Node1&#45;&gt;Node8</title>
<g id="a_edge8_Node000001_Node000008"><a xlink:title=" ">
<path fill="none" stroke="#63b8ff" d="M99.54,-77.35C120.99,-63.11 153.42,-43.14 184,-30.38 189.17,-28.22 194.64,-26.23 200.17,-24.43"/>
<polygon fill="#63b8ff" stroke="#63b8ff" points="200.85,-27.88 209.39,-21.61 198.8,-21.19 200.85,-27.88"/>
</a>
</g>
</g>
<!-- Node10 -->
<g id="Node000010" class="node">
<title>Node10</title>
<g id="a_Node000010"><a xlink:href="classQtFileDialog.html#aaa05da84f8c7e336267798d8d2b14e14" target="_top" xlink:title=" ">
<polygon fill="white" stroke="#666666" points="335.38,-111.12 185.12,-111.12 185.12,-77.62 335.38,-77.62 335.38,-111.12"/>
<text text-anchor="start" x="193.12" y="-97.62" font-family="Helvetica,sans-Serif" font-size="10.00">QtFileDialog::saveFilePicker</text>
<text text-anchor="middle" x="260.25" y="-84.88" font-family="Helvetica,sans-Serif" font-size="10.00">Location</text>
</a>
</g>
</g>
<!-- Node1&#45;&gt;Node10 -->
<g id="edge10_Node000001_Node000010" class="edge">
<title>Node1&#45;&gt;Node10</title>
<g id="a_edge10_Node000001_Node000010"><a xlink:title=" ">
<path fill="none" stroke="#63b8ff" d="M148.35,-94.38C156.56,-94.38 164.98,-94.38 173.33,-94.38"/>
<polygon fill="#63b8ff" stroke="#63b8ff" points="173.13,-97.88 183.13,-94.38 173.13,-90.88 173.13,-97.88"/>
</a>
</g>
</g>
<!-- Node3 -->
<g id="Node000003" class="node">
<title>Node3</title>
<g id="a_Node000003"><a xlink:href="classApplicationSettings.html#a59fd66f9eab421c8e7ea4da03c4b0d1e" target="_top" xlink:title=" ">
<polygon fill="white" stroke="#666666" points="483,-173.12 372.5,-173.12 372.5,-139.62 483,-139.62 483,-173.12"/>
<text text-anchor="start" x="380.5" y="-159.62" font-family="Helvetica,sans-Serif" font-size="10.00">ApplicationSettings</text>
<text text-anchor="middle" x="427.75" y="-146.88" font-family="Helvetica,sans-Serif" font-size="10.00">::getInstance</text>
</a>
</g>
</g>
<!-- Node2&#45;&gt;Node3 -->
<g id="edge2_Node000002_Node000003" class="edge">
<title>Node2&#45;&gt;Node3</title>
<g id="a_edge2_Node000002_Node000003"><a xlink:title=" ">
<path fill="none" stroke="#63b8ff" d="M316.36,-171.05C330.67,-169.15 346.23,-167.08 361.03,-165.11"/>
<polygon fill="#63b8ff" stroke="#63b8ff" points="361.21,-168.62 370.66,-163.83 360.29,-161.68 361.21,-168.62"/>
</a>
</g>
</g>
<!-- Node4 -->
<g id="Node000004" class="node">
<title>Node4</title>
<g id="a_Node000004"><a xlink:href="classApplicationSettings.html#a577f5c7696669ffd72b37c28eb3eb04c" target="_top" xlink:title=" ">
<polygon fill="white" stroke="#666666" points="635.5,-173.12 519,-173.12 519,-139.62 635.5,-139.62 635.5,-173.12"/>
<text text-anchor="start" x="527" y="-159.62" font-family="Helvetica,sans-Serif" font-size="10.00">ApplicationSettings</text>
<text text-anchor="middle" x="577.25" y="-146.88" font-family="Helvetica,sans-Serif" font-size="10.00">::ApplicationSettings</text>
</a>
</g>
</g>
<!-- Node3&#45;&gt;Node4 -->
<g id="edge3_Node000003_Node000004" class="edge">
<title>Node3&#45;&gt;Node4</title>
<g id="a_edge3_Node000003_Node000004"><a xlink:title=" ">
<path fill="none" stroke="#63b8ff" d="M483.25,-156.38C491.06,-156.38 499.18,-156.38 507.23,-156.38"/>
<polygon fill="#63b8ff" stroke="#63b8ff" points="506.99,-159.88 516.99,-156.38 506.99,-152.88 506.99,-159.88"/>
</a>
</g>
</g>
<!-- Node7 -->
<g id="Node000007" class="node">
<title>Node7</title>
<g id="a_Node000007"><a xlink:href="classFilePath.html#ae09c07f1ae9ac6f650a765cc11cc6494" target="_top" xlink:title=" ">
<polygon fill="white" stroke="#666666" points="473.62,-81.75 381.88,-81.75 381.88,-61 473.62,-61 473.62,-81.75"/>
<text text-anchor="middle" x="427.75" y="-68.25" font-family="Helvetica,sans-Serif" font-size="10.00">FilePath::empty</text>
</a>
</g>
</g>
<!-- Node6&#45;&gt;Node7 -->
<g id="edge6_Node000006_Node000007" class="edge">
<title>Node6&#45;&gt;Node7</title>
<g id="a_edge6_Node000006_Node000007"><a xlink:title=" ">
<path fill="none" stroke="#63b8ff" d="M336.74,-59.41C348,-60.91 359.45,-62.43 370.24,-63.86"/>
<polygon fill="#63b8ff" stroke="#63b8ff" points="369.77,-67.33 380.15,-65.18 370.69,-60.39 369.77,-67.33"/>
</a>
</g>
</g>
<!-- Node7&#45;&gt;Node7 -->
<g id="edge7_Node000007_Node000007" class="edge">
<title>Node7&#45;&gt;Node7</title>
<g id="a_edge7_Node000007_Node000007"><a xlink:title=" ">
<path fill="none" stroke="#63b8ff" d="M403.66,-82.15C394.02,-90.81 402.05,-99.75 427.75,-99.75 441.8,-99.75 450.57,-97.08 454.06,-93.24"/>
<polygon fill="#63b8ff" stroke="#63b8ff" points="457.53,-92.75 452.14,-83.63 450.66,-94.12 457.53,-92.75"/>
</a>
</g>
</g>
<!-- Node9 -->
<g id="Node000009" class="node">
<title>Node9</title>
<g id="a_Node000009"><a xlink:href="classFilePath.html#a544387c4aea50aec855062fd02e436ae" target="_top" xlink:title=" ">
<polygon fill="white" stroke="#666666" points="476.62,-20.75 378.88,-20.75 378.88,0 476.62,0 476.62,-20.75"/>
<text text-anchor="middle" x="427.75" y="-7.25" font-family="Helvetica,sans-Serif" font-size="10.00">FilePath::getPath</text>
</a>
</g>
</g>
<!-- Node8&#45;&gt;Node9 -->
<g id="edge9_Node000008_Node000009" class="edge">
<title>Node8&#45;&gt;Node9</title>
<g id="a_edge9_Node000008_Node000009"><a xlink:title=" ">
<path fill="none" stroke="#63b8ff" d="M317.28,-10.38C333.43,-10.38 351.11,-10.38 367.45,-10.38"/>
<polygon fill="#63b8ff" stroke="#63b8ff" points="367.01,-13.88 377.01,-10.38 367.01,-6.88 367.01,-13.88"/>
</a>
</g>
</g>
<!-- Node10&#45;&gt;Node3 -->
<g id="edge12_Node000010_Node000003" class="edge">
<title>Node10&#45;&gt;Node3</title>
<g id="a_edge12_Node000010_Node000003"><a xlink:title=" ">
<path fill="none" stroke="#63b8ff" d="M311.96,-111.53C320.19,-114.42 328.6,-117.44 336.5,-120.38 348.85,-124.97 362.07,-130.11 374.47,-135.04"/>
<polygon fill="#63b8ff" stroke="#63b8ff" points="373.13,-138.27 383.72,-138.73 375.73,-131.77 373.13,-138.27"/>
</a>
</g>
</g>
<!-- Node10&#45;&gt;Node7 -->
<g id="edge11_Node000010_Node000007" class="edge">
<title>Node10&#45;&gt;Node7</title>
<g id="a_edge11_Node000010_Node000007"><a xlink:title=" ">
<path fill="none" stroke="#63b8ff" d="M335.77,-84.02C347.36,-82.41 359.17,-80.77 370.27,-79.22"/>
<polygon fill="#63b8ff" stroke="#63b8ff" points="370.62,-82.71 380.05,-77.87 369.66,-75.78 370.62,-82.71"/>
</a>
</g>
</g>
</g>
</svg>

<g id="navigator" transform="translate(0 0)" fill="#404254">
  <rect fill="#f2f5e9" fill-opacity="0.5" stroke="#606060" stroke-width=".5" x="0" y="0" width="60" height="60"/>
  <use id="zoomplus" xlink:href="#zoomPlus" x="17" y="9" onmousedown="handleZoom(evt,'in')"/>
  <use id="zoomminus" xlink:href="#zoomMin" x="42" y="9" onmousedown="handleZoom(evt,'out')"/>
  <use id="reset" xlink:href="#resetDef" x="30" y="36" onmousedown="handleReset()"/>
   <use id="arrowup" xlink:href="#arrowUp" x="0" y="0" onmousedown="handlePan(0,-1)"/>
  <use id="arrowright" xlink:href="#arrowRight" x="0" y="0" onmousedown="handlePan(1,0)"/>
  <use id="arrowdown" xlink:href="#arrowDown" x="0" y="0" onmousedown="handlePan(0,1)"/>
  <use id="arrowleft" xlink:href="#arrowLeft" x="0" y="0" onmousedown="handlePan(-1,0)"/>
</g>
<svg viewBox="0 0 15 15" width="100%" height="30px" preserveAspectRatio="xMaxYMin meet">
 <g id="arrow_out" transform="scale(0.3 0.3)">
  <a xlink:href="classQtFileDialog_ad22c21c2163a0de6ee340962a23f7d27_cgraph_org.svg" target="_base">
   <rect id="button" ry="5" rx="5" y="6" x="6" height="38" width="38"
        fill="#f2f5e9" fill-opacity="0.5" stroke="#606060" stroke-width="1.0"/>
   <path id="arrow"
     d="M 11.500037,31.436501 C 11.940474,20.09759 22.043105,11.32322 32.158766,21.979434 L 37.068811,17.246167 C 37.068811,17.246167 37.088388,32 37.088388,32 L 22.160133,31.978069 C 22.160133,31.978069 26.997745,27.140456 26.997745,27.140456 C 18.528582,18.264221 13.291696,25.230495 11.500037,31.436501 z"
     style="fill:#404040;"/>
  </a>
 </g>
</svg>

<style type='text/css'>
<![CDATA[
[data-mouse-over-selected='false'] { opacity: 0.7; }
[data-mouse-over-selected='true']  { opacity: 1.0; }
]]>
</style>
<script type="application/ecmascript"><![CDATA[
document.addEventListener('DOMContentLoaded', (event) => {
  highlightEdges();
  highlightAdjacentNodes();
});
]]></script>
</svg>
