<?xml version="1.0" encoding="UTF-8" standalone="no"?>
<!DOCTYPE svg PUBLIC "-//W3C//DTD SVG 1.1//EN"
 "http://www.w3.org/Graphics/SVG/1.1/DTD/svg11.dtd">
<!-- Generated by graphviz version 7.1.0 (0)
 -->
<!-- Title: Settings::getFilePath Pages: 1 -->
<!--zoomable 393 -->
<svg id="main" version="1.1" xmlns="http://www.w3.org/2000/svg" xmlns:xlink="http://www.w3.org/1999/xlink" xml:space="preserve" onload="init(evt)">
<style type="text/css"><![CDATA[
.edge:hover path { stroke: red; }
.edge:hover polygon { stroke: red; fill: red; }
]]></style>
<script type="text/javascript"><![CDATA[
var edges = document.getElementsByTagName('g');
if (edges && edges.length) {
  for (var i=0;i<edges.length;i++) {
    if (edges[i].id.substr(0,4)=='edge') {
      edges[i].setAttribute('class','edge');
    }
  }
}
]]></script>
        <defs>
                <circle id="rim" cx="0" cy="0" r="7"/>
                <circle id="rim2" cx="0" cy="0" r="3.5"/>
                <g id="zoomPlus">
                        <use xlink:href="#rim" fill="#404040">
                                <set attributeName="fill" to="#808080" begin="zoomplus.mouseover" end="zoomplus.mouseout"/>
                        </use>
                        <path d="M-4,0h8M0,-4v8" fill="none" stroke="white" stroke-width="1.5" pointer-events="none"/>
                </g>
                <g id="zoomMin">
                        <use xlink:href="#rim" fill="#404040">
                                <set attributeName="fill" to="#808080" begin="zoomminus.mouseover" end="zoomminus.mouseout"/>
                        </use>
                        <path d="M-4,0h8" fill="none" stroke="white" stroke-width="1.5" pointer-events="none"/>
                </g>
                <g id="dirArrow">
                        <path fill="none" stroke="white" stroke-width="1.5" d="M0,-3.0v7 M-2.5,-0.5L0,-3.0L2.5,-0.5"/>
                </g>
               <g id="resetDef">
                       <use xlink:href="#rim2" fill="#404040">
                               <set attributeName="fill" to="#808080" begin="reset.mouseover" end="reset.mouseout"/>
                       </use>
               </g>
        </defs>

<script type="text/javascript">
var viewWidth = 815;
var viewHeight = 393;
var sectionId = 'dynsection-12';
</script>
<script xlink:href="svgpan.js"/>
<svg id="graph" class="graph">
<g id="viewport">
<title>Settings::getFilePath</title>
<!-- Node1 -->
<g id="node1" class="node">
<title>Node1</title>
<g id="a_node1"><a xlink:title=" ">
<polygon fill="#999999" stroke="#666666" points="807,-218.5 691,-218.5 691,-199.5 807,-199.5 807,-218.5"/>
<text text-anchor="middle" x="749" y="-206.5" font-family="Helvetica,sans-Serif" font-size="10.00">Settings::getFilePath</text>
</a>
</g>
</g>
<!-- Node2 -->
<g id="node2" class="node">
<title>Node2</title>
<g id="a_node2"><a xlink:href="classProjectSettings.html#a49c2b62d02482f4ed22d5c7cfdd89832" target="_top" xlink:title=" ">
<polygon fill="white" stroke="#666666" points="648.5,-358 486.5,-358 486.5,-328 648.5,-328 648.5,-358"/>
<text text-anchor="start" x="494.5" y="-346" font-family="Helvetica,sans-Serif" font-size="10.00">ProjectSettings::getBookmark</text>
<text text-anchor="middle" x="567.5" y="-335" font-family="Helvetica,sans-Serif" font-size="10.00">DBFilePath</text>
</a>
</g>
</g>
<!-- Node1&#45;&gt;Node2 -->
<g id="edge1" class="edge">
<title>Node1&#45;&gt;Node2</title>
<path fill="none" stroke="#63b8ff" d="M736.59,-228.68C721.21,-253.46 691.5,-295.61 655,-319 649.88,-322.28 644.32,-325.12 638.56,-327.57"/>
<polygon fill="#63b8ff" stroke="#63b8ff" points="739.52,-230.61 741.67,-220.24 733.52,-227 739.52,-230.61"/>
</g>
<!-- Node3 -->
<g id="node3" class="node">
<title>Node3</title>
<g id="a_node3"><a xlink:href="classProjectSettings.html#a1b8c6fe166226169d3831b4d825a5833" target="_top" xlink:title=" ">
<polygon fill="white" stroke="#666666" points="649.5,-309.5 485.5,-309.5 485.5,-290.5 649.5,-290.5 649.5,-309.5"/>
<text text-anchor="middle" x="567.5" y="-297.5" font-family="Helvetica,sans-Serif" font-size="10.00">ProjectSettings::getDBFilePath</text>
</a>
</g>
</g>
<!-- Node1&#45;&gt;Node3 -->
<g id="edge2" class="edge">
<title>Node1&#45;&gt;Node3</title>
<path fill="none" stroke="#63b8ff" d="M730.24,-226.71C712.63,-243.25 684.14,-267.37 655,-281 647.2,-284.65 638.67,-287.61 630.11,-290.01"/>
<polygon fill="#63b8ff" stroke="#63b8ff" points="732.54,-229.36 737.31,-219.9 727.68,-224.32 732.54,-229.36"/>
</g>
<!-- Node4 -->
<g id="node4" class="node">
<title>Node4</title>
<g id="a_node4"><a xlink:href="classProjectSettings.html#a9e8433237605f1bde717cb14c02e9259" target="_top" xlink:title=" ">
<polygon fill="white" stroke="#666666" points="640.5,-272 494.5,-272 494.5,-242 640.5,-242 640.5,-272"/>
<text text-anchor="start" x="502.5" y="-260" font-family="Helvetica,sans-Serif" font-size="10.00">ProjectSettings::getProject</text>
<text text-anchor="middle" x="567.5" y="-249" font-family="Helvetica,sans-Serif" font-size="10.00">DirectoryPath</text>
</a>
</g>
</g>
<!-- Node1&#45;&gt;Node4 -->
<g id="edge3" class="edge">
<title>Node1&#45;&gt;Node4</title>
<path fill="none" stroke="#63b8ff" d="M699.75,-221.9C677.08,-227.96 649.89,-235.24 626.15,-241.58"/>
<polygon fill="#63b8ff" stroke="#63b8ff" points="700.59,-225.3 709.35,-219.34 698.78,-218.54 700.59,-225.3"/>
</g>
<!-- Node17 -->
<g id="node17" class="node">
<title>Node17</title>
<g id="a_node17"><a xlink:href="classProjectSettings.html#aa1b995720db4c298a10a8178ef7f4744" target="_top" xlink:title=" ">
<polygon fill="white" stroke="#666666" points="640.5,-224 494.5,-224 494.5,-194 640.5,-194 640.5,-224"/>
<text text-anchor="start" x="502.5" y="-212" font-family="Helvetica,sans-Serif" font-size="10.00">ProjectSettings::getProject</text>
<text text-anchor="middle" x="567.5" y="-201" font-family="Helvetica,sans-Serif" font-size="10.00">FilePath</text>
</a>
</g>
</g>
<!-- Node1&#45;&gt;Node17 -->
<g id="edge16" class="edge">
<title>Node1&#45;&gt;Node17</title>
<path fill="none" stroke="#63b8ff" d="M679.3,-209C666.66,-209 653.43,-209 640.7,-209"/>
<polygon fill="#63b8ff" stroke="#63b8ff" points="679.2,-212.5 689.2,-209 679.2,-205.5 679.2,-212.5"/>
</g>
<!-- Node18 -->
<g id="node18" class="node">
<title>Node18</title>
<g id="a_node18"><a xlink:href="classProjectSettings.html#a8b7b332fe8cf06aa040adb53ca239525" target="_top" xlink:title=" ">
<polygon fill="white" stroke="#666666" points="655,-175.5 480,-175.5 480,-156.5 655,-156.5 655,-175.5"/>
<text text-anchor="middle" x="567.5" y="-163.5" font-family="Helvetica,sans-Serif" font-size="10.00">ProjectSettings::getProjectName</text>
</a>
</g>
</g>
<!-- Node1&#45;&gt;Node18 -->
<g id="edge17" class="edge">
<title>Node1&#45;&gt;Node18</title>
<path fill="none" stroke="#63b8ff" d="M700.22,-196.31C685.72,-192.56 669.73,-188.52 655,-185 642.14,-181.93 628.16,-178.78 615.26,-175.95"/>
<polygon fill="#63b8ff" stroke="#63b8ff" points="698.94,-199.6 709.5,-198.73 700.71,-192.83 698.94,-199.6"/>
</g>
<!-- Node19 -->
<g id="node19" class="node">
<title>Node19</title>
<g id="a_node19"><a xlink:href="classProjectSettings.html#aa173db11577b9da0ee7147b5b8e08303" target="_top" xlink:title=" ">
<polygon fill="white" stroke="#666666" points="636.5,-138 498.5,-138 498.5,-108 636.5,-108 636.5,-138"/>
<text text-anchor="start" x="506.5" y="-126" font-family="Helvetica,sans-Serif" font-size="10.00">ProjectSettings::getTemp</text>
<text text-anchor="middle" x="567.5" y="-115" font-family="Helvetica,sans-Serif" font-size="10.00">DBFilePath</text>
</a>
</g>
</g>
<!-- Node1&#45;&gt;Node19 -->
<g id="edge18" class="edge">
<title>Node1&#45;&gt;Node19</title>
<path fill="none" stroke="#63b8ff" d="M726.74,-191.96C708.61,-178.15 681.35,-159.06 655,-147 648.06,-143.82 640.6,-140.98 633.09,-138.46"/>
<polygon fill="#63b8ff" stroke="#63b8ff" points="724.58,-194.71 734.62,-198.09 728.88,-189.19 724.58,-194.71"/>
</g>
<!-- Node20 -->
<g id="node20" class="node">
<title>Node20</title>
<g id="a_node20"><a xlink:href="classProjectSettings.html#af9aba809dd49829f225e8295ca0aefaa" target="_top" xlink:title=" ">
<polygon fill="white" stroke="#666666" points="631,-89.5 504,-89.5 504,-70.5 631,-70.5 631,-89.5"/>
<text text-anchor="middle" x="567.5" y="-77.5" font-family="Helvetica,sans-Serif" font-size="10.00">ProjectSettings::reload</text>
</a>
</g>
</g>
<!-- Node1&#45;&gt;Node20 -->
<g id="edge19" class="edge">
<title>Node1&#45;&gt;Node20</title>
<path fill="none" stroke="#63b8ff" d="M737.01,-189.38C721.91,-164.32 692.31,-121.5 655,-99 647.76,-94.63 639.64,-91.27 631.34,-88.67"/>
<polygon fill="#63b8ff" stroke="#63b8ff" points="733.93,-191.03 741.98,-197.91 739.97,-187.51 733.93,-191.03"/>
</g>
<!-- Node5 -->
<g id="node5" class="node">
<title>Node5</title>
<g id="a_node5"><a xlink:href="classProjectSettings.html#a74bf61a4688841acde8f3de9ef6f1fe7" target="_top" xlink:title=" ">
<polygon fill="white" stroke="#666666" points="431.5,-373 250.5,-373 250.5,-343 431.5,-343 431.5,-373"/>
<text text-anchor="start" x="258.5" y="-361" font-family="Helvetica,sans-Serif" font-size="10.00">ProjectSettings::getDependencies</text>
<text text-anchor="middle" x="341" y="-350" font-family="Helvetica,sans-Serif" font-size="10.00">DirectoryPath</text>
</a>
</g>
</g>
<!-- Node4&#45;&gt;Node5 -->
<g id="edge4" class="edge">
<title>Node4&#45;&gt;Node5</title>
<path fill="none" stroke="#63b8ff" d="M487.4,-277.44C484.85,-278.86 482.37,-280.38 480,-282 458.27,-296.84 465.76,-314.21 444,-329 435.93,-334.49 426.83,-338.94 417.47,-342.56"/>
<polygon fill="#63b8ff" stroke="#63b8ff" points="488.8,-280.66 496.23,-273.11 485.71,-274.38 488.8,-280.66"/>
</g>
<!-- Node7 -->
<g id="node7" class="node">
<title>Node7</title>
<g id="a_node7"><a xlink:href="classSourceGroupSettingsWithExcludeFilters.html#a23103bb8b30bad73f306963f137f5388" target="_top" xlink:title=" ">
<polygon fill="white" stroke="#666666" points="444,-320 238,-320 238,-290 444,-290 444,-320"/>
<text text-anchor="start" x="246" y="-308" font-family="Helvetica,sans-Serif" font-size="10.00">SourceGroupSettingsWithExclude</text>
<text text-anchor="middle" x="341" y="-297" font-family="Helvetica,sans-Serif" font-size="10.00">Filters::getFiltersExpandedAndAbsolute</text>
</a>
</g>
</g>
<!-- Node4&#45;&gt;Node7 -->
<g id="edge6" class="edge">
<title>Node4&#45;&gt;Node7</title>
<path fill="none" stroke="#63b8ff" d="M483.24,-274.8C460.55,-279.65 436.15,-284.87 414.13,-289.58"/>
<polygon fill="#63b8ff" stroke="#63b8ff" points="483.7,-278.28 492.75,-272.77 482.24,-271.44 483.7,-278.28"/>
</g>
<!-- Node9 -->
<g id="node9" class="node">
<title>Node9</title>
<g id="a_node9"><a xlink:href="classSourceGroupSettings.html#a45cd8881275720f7f8ed681f38a3c2a1" target="_top" xlink:title=" ">
<polygon fill="white" stroke="#666666" points="410.5,-272 271.5,-272 271.5,-242 410.5,-242 410.5,-272"/>
<text text-anchor="start" x="279.5" y="-260" font-family="Helvetica,sans-Serif" font-size="10.00">SourceGroupSettings</text>
<text text-anchor="middle" x="341" y="-249" font-family="Helvetica,sans-Serif" font-size="10.00">::getProjectDirectoryPath</text>
</a>
</g>
</g>
<!-- Node4&#45;&gt;Node9 -->
<g id="edge8" class="edge">
<title>Node4&#45;&gt;Node9</title>
<path fill="none" stroke="#63b8ff" d="M482.74,-257C459,-257 433.44,-257 410.69,-257"/>
<polygon fill="#63b8ff" stroke="#63b8ff" points="482.72,-260.5 492.72,-257 482.72,-253.5 482.72,-260.5"/>
</g>
<!-- Node10 -->
<g id="node10" class="node">
<title>Node10</title>
<g id="a_node10"><a xlink:href="classProjectSettings.html#ab5a89c98d9b538e7614f65f7a6255c99" target="_top" xlink:title=" ">
<polygon fill="white" stroke="#666666" points="413.5,-224 268.5,-224 268.5,-194 413.5,-194 413.5,-224"/>
<text text-anchor="start" x="276.5" y="-212" font-family="Helvetica,sans-Serif" font-size="10.00">ProjectSettings::makePath</text>
<text text-anchor="middle" x="341" y="-201" font-family="Helvetica,sans-Serif" font-size="10.00">ExpandedAndAbsolute</text>
</a>
</g>
</g>
<!-- Node4&#45;&gt;Node10 -->
<g id="edge9" class="edge">
<title>Node4&#45;&gt;Node10</title>
<path fill="none" stroke="#63b8ff" d="M483.19,-239.19C460.38,-234.31 435.85,-229.07 413.75,-224.34"/>
<polygon fill="#63b8ff" stroke="#63b8ff" points="482.24,-242.56 492.75,-241.23 483.7,-235.72 482.24,-242.56"/>
</g>
<!-- Node11 -->
<g id="node11" class="node">
<title>Node11</title>
<g id="a_node11"><a xlink:href="classProjectSettings.html#adf7874c353382e0d836e08b0f7d61d4a" target="_top" xlink:title=" ">
<polygon fill="white" stroke="#666666" points="416,-160 266,-160 266,-130 416,-130 416,-160"/>
<text text-anchor="start" x="274" y="-148" font-family="Helvetica,sans-Serif" font-size="10.00">ProjectSettings::makePaths</text>
<text text-anchor="middle" x="341" y="-137" font-family="Helvetica,sans-Serif" font-size="10.00">ExpandedAndAbsolute</text>
</a>
</g>
</g>
<!-- Node4&#45;&gt;Node11 -->
<g id="edge10" class="edge">
<title>Node4&#45;&gt;Node11</title>
<path fill="none" stroke="#63b8ff" d="M485.68,-236.56C483.73,-235.44 481.83,-234.25 480,-233 457.98,-217.97 465.22,-201.15 444,-185 430.3,-174.58 413.54,-166.52 397.6,-160.47"/>
<polygon fill="#63b8ff" stroke="#63b8ff" points="483.94,-239.61 494.44,-241.01 487.11,-233.36 483.94,-239.61"/>
</g>
<!-- Node6 -->
<g id="node6" class="node">
<title>Node6</title>
<g id="a_node6"><a xlink:href="classSourceGroupSettings.html#a6d9436a75862ac78b4e3f203099b9f25" target="_top" xlink:title=" ">
<polygon fill="white" stroke="#666666" points="186,-384.5 16,-384.5 16,-343.5 186,-343.5 186,-384.5"/>
<text text-anchor="start" x="24" y="-372.5" font-family="Helvetica,sans-Serif" font-size="10.00">SourceGroupSettings</text>
<text text-anchor="start" x="24" y="-361.5" font-family="Helvetica,sans-Serif" font-size="10.00">::getSourceGroupDependencies</text>
<text text-anchor="middle" x="101" y="-350.5" font-family="Helvetica,sans-Serif" font-size="10.00">DirectoryPath</text>
</a>
</g>
</g>
<!-- Node5&#45;&gt;Node6 -->
<g id="edge5" class="edge">
<title>Node5&#45;&gt;Node6</title>
<path fill="none" stroke="#63b8ff" d="M238.63,-360.56C221.16,-361 203.17,-361.45 186.22,-361.88"/>
<polygon fill="#63b8ff" stroke="#63b8ff" points="238.6,-364.06 248.51,-360.31 238.42,-357.06 238.6,-364.06"/>
</g>
<!-- Node8 -->
<g id="node8" class="node">
<title>Node8</title>
<g id="a_node8"><a xlink:href="classSourceGroupSettingsWithExcludeFilters.html#ad8d9cea67470e14815af33a02fdc5f57" target="_top" xlink:title=" ">
<polygon fill="white" stroke="#666666" points="192.5,-325.5 9.5,-325.5 9.5,-284.5 192.5,-284.5 192.5,-325.5"/>
<text text-anchor="start" x="17.5" y="-313.5" font-family="Helvetica,sans-Serif" font-size="10.00">SourceGroupSettingsWithExclude</text>
<text text-anchor="start" x="17.5" y="-302.5" font-family="Helvetica,sans-Serif" font-size="10.00">Filters::getExcludeFiltersExpanded</text>
<text text-anchor="middle" x="101" y="-291.5" font-family="Helvetica,sans-Serif" font-size="10.00">AndAbsolute</text>
</a>
</g>
</g>
<!-- Node7&#45;&gt;Node8 -->
<g id="edge7" class="edge">
<title>Node7&#45;&gt;Node8</title>
<path fill="none" stroke="#63b8ff" d="M226.48,-305C215.25,-305 203.94,-305 192.98,-305"/>
<polygon fill="#63b8ff" stroke="#63b8ff" points="226.17,-308.5 236.17,-305 226.17,-301.5 226.17,-308.5"/>
</g>
<!-- Node12 -->
<g id="node12" class="node">
<title>Node12</title>
<g id="a_node12"><a xlink:href="classSourceGroupSettingsWithCxxPathsAndFlags.html#aea5c38bc8a40579aa9f09469eea4bd99" target="_top" xlink:title=" ">
<polygon fill="white" stroke="#666666" points="200,-266.5 2,-266.5 2,-225.5 200,-225.5 200,-266.5"/>
<text text-anchor="start" x="10" y="-254.5" font-family="Helvetica,sans-Serif" font-size="10.00">SourceGroupSettingsWithCxx</text>
<text text-anchor="start" x="10" y="-243.5" font-family="Helvetica,sans-Serif" font-size="10.00">PathsAndFlags::getFrameworkSearch</text>
<text text-anchor="middle" x="101" y="-232.5" font-family="Helvetica,sans-Serif" font-size="10.00">PathsExpandedAndAbsolute</text>
</a>
</g>
</g>
<!-- Node11&#45;&gt;Node12 -->
<g id="edge11" class="edge">
<title>Node11&#45;&gt;Node12</title>
<path fill="none" stroke="#63b8ff" d="M279.67,-164.59C265.53,-170.28 250.86,-177.11 238,-185 219.75,-196.19 220.74,-206.65 202,-217 196.62,-219.97 190.9,-222.66 185.04,-225.1"/>
<polygon fill="#63b8ff" stroke="#63b8ff" points="280.86,-167.89 288.92,-161.02 278.33,-161.36 280.86,-167.89"/>
</g>
<!-- Node13 -->
<g id="node13" class="node">
<title>Node13</title>
<g id="a_node13"><a xlink:href="classSourceGroupSettingsWithCxxPathsAndFlags.html#a9c42d32d8904e1e03664aa708d282d0e" target="_top" xlink:title=" ">
<polygon fill="white" stroke="#666666" points="190.5,-207.5 11.5,-207.5 11.5,-166.5 190.5,-166.5 190.5,-207.5"/>
<text text-anchor="start" x="19.5" y="-195.5" font-family="Helvetica,sans-Serif" font-size="10.00">SourceGroupSettingsWithCxx</text>
<text text-anchor="start" x="19.5" y="-184.5" font-family="Helvetica,sans-Serif" font-size="10.00">PathsAndFlags::getHeaderSearch</text>
<text text-anchor="middle" x="101" y="-173.5" font-family="Helvetica,sans-Serif" font-size="10.00">PathsExpandedAndAbsolute</text>
</a>
</g>
</g>
<!-- Node11&#45;&gt;Node13 -->
<g id="edge12" class="edge">
<title>Node11&#45;&gt;Node13</title>
<path fill="none" stroke="#63b8ff" d="M254.36,-160.11C233.7,-163.76 211.59,-167.66 190.79,-171.33"/>
<polygon fill="#63b8ff" stroke="#63b8ff" points="254.94,-163.56 264.18,-158.38 253.73,-156.67 254.94,-163.56"/>
</g>
<!-- Node14 -->
<g id="node14" class="node">
<title>Node14</title>
<g id="a_node14"><a xlink:href="classSourceGroupSettingsWithIndexedHeaderPaths.html#a21b006ccb30e87c85ac8a15468790dce" target="_top" xlink:title=" ">
<polygon fill="white" stroke="#666666" points="202,-148.5 0,-148.5 0,-107.5 202,-107.5 202,-148.5"/>
<text text-anchor="start" x="8" y="-136.5" font-family="Helvetica,sans-Serif" font-size="10.00">SourceGroupSettingsWithIndexed</text>
<text text-anchor="start" x="8" y="-125.5" font-family="Helvetica,sans-Serif" font-size="10.00">HeaderPaths::getIndexedHeaderPaths</text>
<text text-anchor="middle" x="101" y="-114.5" font-family="Helvetica,sans-Serif" font-size="10.00">ExpandedAndAbsolute</text>
</a>
</g>
</g>
<!-- Node11&#45;&gt;Node14 -->
<g id="edge13" class="edge">
<title>Node11&#45;&gt;Node14</title>
<path fill="none" stroke="#63b8ff" d="M254.21,-138.87C237.39,-137.67 219.62,-136.4 202.38,-135.17"/>
<polygon fill="#63b8ff" stroke="#63b8ff" points="253.94,-142.36 264.16,-139.58 254.44,-135.38 253.94,-142.36"/>
</g>
<!-- Node15 -->
<g id="node15" class="node">
<title>Node15</title>
<g id="a_node15"><a xlink:href="classSourceGroupSettingsWithSourcePaths.html#aad1450a7b874e87ead50f4d2124419e2" target="_top" xlink:title=" ">
<polygon fill="white" stroke="#666666" points="197,-89.5 5,-89.5 5,-48.5 197,-48.5 197,-89.5"/>
<text text-anchor="start" x="13" y="-77.5" font-family="Helvetica,sans-Serif" font-size="10.00">SourceGroupSettingsWithSource</text>
<text text-anchor="start" x="13" y="-66.5" font-family="Helvetica,sans-Serif" font-size="10.00">Paths::getSourcePathsExpandedAnd</text>
<text text-anchor="middle" x="101" y="-55.5" font-family="Helvetica,sans-Serif" font-size="10.00">Absolute</text>
</a>
</g>
</g>
<!-- Node11&#45;&gt;Node15 -->
<g id="edge14" class="edge">
<title>Node11&#45;&gt;Node15</title>
<path fill="none" stroke="#63b8ff" d="M285.49,-125.79C260.19,-117.04 229.65,-106.71 202,-98 193.55,-95.34 184.67,-92.63 175.84,-90"/>
<polygon fill="#63b8ff" stroke="#63b8ff" points="284.33,-129.09 294.92,-129.06 286.62,-122.48 284.33,-129.09"/>
</g>
<!-- Node16 -->
<g id="node16" class="node">
<title>Node16</title>
<g id="a_node16"><a xlink:href="classSourceGroupSettings.html#aecfcac2d41ef83d4158a40fd7835769c" target="_top" xlink:title=" ">
<polygon fill="white" stroke="#666666" points="194,-30 8,-30 8,0 194,0 194,-30"/>
<text text-anchor="start" x="16" y="-18" font-family="Helvetica,sans-Serif" font-size="10.00">SourceGroupSettings</text>
<text text-anchor="middle" x="101" y="-7" font-family="Helvetica,sans-Serif" font-size="10.00">::makePathsExpandedAndAbsolute</text>
</a>
</g>
</g>
<!-- Node11&#45;&gt;Node16 -->
<g id="edge15" class="edge">
<title>Node11&#45;&gt;Node16</title>
<path fill="none" stroke="#63b8ff" d="M316.86,-122.22C291,-98.03 246.83,-60.39 202,-39 195.15,-35.73 187.82,-32.89 180.36,-30.42"/>
<polygon fill="#63b8ff" stroke="#63b8ff" points="314.15,-124.47 323.81,-128.82 318.97,-119.4 314.15,-124.47"/>
</g>
</g>
</svg>
        <g id="navigator" transform="translate(0 0)" fill="#404254">
                <rect fill="#f2f5e9" fill-opacity="0.5" stroke="#606060" stroke-width=".5" x="0" y="0" width="60" height="60"/>
                <use id="zoomplus" xlink:href="#zoomPlus" x="17" y="9" onmousedown="handleZoom(evt,'in')"/>
                <use id="zoomminus" xlink:href="#zoomMin" x="42" y="9" onmousedown="handleZoom(evt,'out')"/>
                <use id="reset" xlink:href="#resetDef" x="30" y="36" onmousedown="handleReset()"/>
                <g id="arrowUp" xlink:href="#dirArrow" transform="translate(30 24)" onmousedown="handlePan(0,-1)">
                  <use xlink:href="#rim" fill="#404040">
                        <set attributeName="fill" to="#808080" begin="arrowUp.mouseover" end="arrowUp.mouseout"/>
                  </use>
                  <path fill="none" stroke="white" stroke-width="1.5" d="M0,-3.0v7 M-2.5,-0.5L0,-3.0L2.5,-0.5"/>
                </g>
                <g id="arrowRight" xlink:href="#dirArrow" transform="rotate(90) translate(36 -43)" onmousedown="handlePan(1,0)">
                  <use xlink:href="#rim" fill="#404040">
                        <set attributeName="fill" to="#808080" begin="arrowRight.mouseover" end="arrowRight.mouseout"/>
                  </use>
                  <path fill="none" stroke="white" stroke-width="1.5" d="M0,-3.0v7 M-2.5,-0.5L0,-3.0L2.5,-0.5"/>
                </g>
                <g id="arrowDown" xlink:href="#dirArrow" transform="rotate(180) translate(-30 -48)" onmousedown="handlePan(0,1)">
                  <use xlink:href="#rim" fill="#404040">
                        <set attributeName="fill" to="#808080" begin="arrowDown.mouseover" end="arrowDown.mouseout"/>
                  </use>
                  <path fill="none" stroke="white" stroke-width="1.5" d="M0,-3.0v7 M-2.5,-0.5L0,-3.0L2.5,-0.5"/>
                </g>
                <g id="arrowLeft" xlink:href="#dirArrow" transform="rotate(270) translate(-36 17)" onmousedown="handlePan(-1,0)">
                  <use xlink:href="#rim" fill="#404040">
                        <set attributeName="fill" to="#808080" begin="arrowLeft.mouseover" end="arrowLeft.mouseout"/>
                  </use>
                  <path fill="none" stroke="white" stroke-width="1.5" d="M0,-3.0v7 M-2.5,-0.5L0,-3.0L2.5,-0.5"/>
                </g>
        </g>
        <svg viewBox="0 0 15 15" width="100%" height="30px" preserveAspectRatio="xMaxYMin meet">
         <g id="arrow_out" transform="scale(0.3 0.3)">
          <a xlink:href="classSettings_a313a116b906ca33b00e201102b8c9a40_icgraph_org.svg" target="_base">
           <rect id="button" ry="5" rx="5" y="6" x="6" height="38" width="38"
                fill="#f2f5e9" fill-opacity="0.5" stroke="#606060" stroke-width="1.0"/>
           <path id="arrow"
             d="M 11.500037,31.436501 C 11.940474,20.09759 22.043105,11.32322 32.158766,21.979434 L 37.068811,17.246167 C 37.068811,17.246167 37.088388,32 37.088388,32 L 22.160133,31.978069 C 22.160133,31.978069 26.997745,27.140456 26.997745,27.140456 C 18.528582,18.264221 13.291696,25.230495 11.500037,31.436501 z"
             style="fill:#404040;"/>
          </a>
         </g>
        </svg>
</svg>
