<?xml version="1.0" encoding="UTF-8" standalone="no"?>
<!DOCTYPE svg PUBLIC "-//W3C//DTD SVG 1.1//EN"
 "http://www.w3.org/Graphics/SVG/1.1/DTD/svg11.dtd">
<!-- Generated by graphviz version 7.1.0 (0)
 -->
<!-- Title: MessageActivateErrors::getSearchMatches Pages: 1 -->
<svg width="557pt" height="101pt"
 viewBox="0.00 0.00 557.00 101.00" xmlns="http://www.w3.org/2000/svg" xmlns:xlink="http://www.w3.org/1999/xlink">
<g id="graph0" class="graph" transform="scale(1 1) rotate(0) translate(4 97)">
<title>MessageActivateErrors::getSearchMatches</title>
<!-- Node1 -->
<g id="node1" class="node">
<title>Node1</title>
<g id="a_node1"><a xlink:title=" ">
<polygon fill="#999999" stroke="#666666" points="129,-61.5 0,-61.5 0,-31.5 129,-31.5 129,-61.5"/>
<text text-anchor="start" x="8" y="-49.5" font-family="Helvetica,sans-Serif" font-size="10.00">MessageActivateErrors</text>
<text text-anchor="middle" x="64.5" y="-38.5" font-family="Helvetica,sans-Serif" font-size="10.00">::getSearchMatches</text>
</a>
</g>
</g>
<!-- Node2 -->
<g id="node2" class="node">
<title>Node2</title>
<g id="a_node2"><a xlink:href="structSearchMatch.html#ad967179074ac77a66d6d0996d72d9531" target="_top" xlink:title=" ">
<polygon fill="white" stroke="#666666" points="332,-93 165,-93 165,-74 332,-74 332,-93"/>
<text text-anchor="middle" x="248.5" y="-81" font-family="Helvetica,sans-Serif" font-size="10.00">SearchMatch::createCommand</text>
</a>
</g>
</g>
<!-- Node1&#45;&gt;Node2 -->
<g id="edge1" class="edge">
<title>Node1&#45;&gt;Node2</title>
<path fill="none" stroke="#63b8ff" d="M129.41,-59.49C148.16,-63.3 168.59,-67.46 187.11,-71.22"/>
<polygon fill="#63b8ff" stroke="#63b8ff" points="186.38,-74.65 196.88,-73.21 187.77,-67.79 186.38,-74.65"/>
</g>
<!-- Node4 -->
<g id="node4" class="node">
<title>Node4</title>
<g id="a_node4"><a xlink:href="classFilePath.html#ae09c07f1ae9ac6f650a765cc11cc6494" target="_top" xlink:title=" ">
<polygon fill="white" stroke="#666666" points="294.5,-56 202.5,-56 202.5,-37 294.5,-37 294.5,-56"/>
<text text-anchor="middle" x="248.5" y="-44" font-family="Helvetica,sans-Serif" font-size="10.00">FilePath::empty</text>
</a>
</g>
</g>
<!-- Node1&#45;&gt;Node4 -->
<g id="edge3" class="edge">
<title>Node1&#45;&gt;Node4</title>
<path fill="none" stroke="#63b8ff" d="M129.41,-46.5C149.35,-46.5 171.2,-46.5 190.63,-46.5"/>
<polygon fill="#63b8ff" stroke="#63b8ff" points="190.55,-50 200.55,-46.5 190.55,-43 190.55,-50"/>
</g>
<!-- Node5 -->
<g id="node5" class="node">
<title>Node5</title>
<g id="a_node5"><a xlink:href="classFilePath.html#a353c6c2dc5333ffc3f328f1daac2ea97" target="_top" xlink:title=" ">
<polygon fill="white" stroke="#666666" points="301.5,-19 195.5,-19 195.5,0 301.5,0 301.5,-19"/>
<text text-anchor="middle" x="248.5" y="-7" font-family="Helvetica,sans-Serif" font-size="10.00">FilePath::fileName</text>
</a>
</g>
</g>
<!-- Node1&#45;&gt;Node5 -->
<g id="edge4" class="edge">
<title>Node1&#45;&gt;Node5</title>
<path fill="none" stroke="#63b8ff" d="M129.41,-33.51C148.16,-29.7 168.59,-25.54 187.11,-21.78"/>
<polygon fill="#63b8ff" stroke="#63b8ff" points="187.77,-25.21 196.88,-19.79 186.38,-18.35 187.77,-25.21"/>
</g>
<!-- Node3 -->
<g id="node3" class="node">
<title>Node3</title>
<g id="a_node3"><a xlink:href="structSearchMatch.html#a2ba82380b2fdc39c3f9a178adae3209e" target="_top" xlink:title=" ">
<polygon fill="white" stroke="#666666" points="549,-93 368,-93 368,-74 549,-74 549,-93"/>
<text text-anchor="middle" x="458.5" y="-81" font-family="Helvetica,sans-Serif" font-size="10.00">SearchMatch::getCommandName</text>
</a>
</g>
</g>
<!-- Node2&#45;&gt;Node3 -->
<g id="edge2" class="edge">
<title>Node2&#45;&gt;Node3</title>
<path fill="none" stroke="#63b8ff" d="M332.3,-83.5C340.24,-83.5 348.34,-83.5 356.42,-83.5"/>
<polygon fill="#63b8ff" stroke="#63b8ff" points="356.29,-87 366.29,-83.5 356.29,-80 356.29,-87"/>
</g>
</g>
</svg>
