<?xml version="1.0" encoding="UTF-8" standalone="no"?>
<!DOCTYPE svg PUBLIC "-//W3C//DTD SVG 1.1//EN"
 "http://www.w3.org/Graphics/SVG/1.1/DTD/svg11.dtd">
<!-- Generated by graphviz version 7.1.0 (0)
 -->
<!-- Title: TooltipController::requestTooltipHide Pages: 1 -->
<svg width="471pt" height="150pt"
 viewBox="0.00 0.00 471.00 150.00" xmlns="http://www.w3.org/2000/svg" xmlns:xlink="http://www.w3.org/1999/xlink">
<g id="graph0" class="graph" transform="scale(1 1) rotate(0) translate(4 146)">
<title>TooltipController::requestTooltipHide</title>
<!-- Node1 -->
<g id="node1" class="node">
<title>Node1</title>
<g id="a_node1"><a xlink:title=" ">
<polygon fill="#999999" stroke="#666666" points="108,-88.5 0,-88.5 0,-58.5 108,-58.5 108,-88.5"/>
<text text-anchor="start" x="8" y="-76.5" font-family="Helvetica,sans-Serif" font-size="10.00">TooltipController::</text>
<text text-anchor="middle" x="54" y="-65.5" font-family="Helvetica,sans-Serif" font-size="10.00">requestTooltipHide</text>
</a>
</g>
</g>
<!-- Node2 -->
<g id="node2" class="node">
<title>Node2</title>
<g id="a_node2"><a xlink:href="classTabId.html#adcf8beb1bb2123b49eba230589901edd" target="_top" xlink:title=" ">
<polygon fill="white" stroke="#666666" points="243,-142 177,-142 177,-123 243,-123 243,-142"/>
<text text-anchor="middle" x="210" y="-130" font-family="Helvetica,sans-Serif" font-size="10.00">TabId::app</text>
</a>
</g>
</g>
<!-- Node1&#45;&gt;Node2 -->
<g id="edge1" class="edge">
<title>Node1&#45;&gt;Node2</title>
<path fill="none" stroke="#63b8ff" d="M85.38,-88.98C102.34,-97.24 124.03,-107.19 144,-114.5 150.94,-117.04 158.4,-119.42 165.71,-121.57"/>
<polygon fill="#63b8ff" stroke="#63b8ff" points="164.57,-124.88 175.15,-124.22 166.47,-118.14 164.57,-124.88"/>
</g>
<!-- Node3 -->
<g id="node3" class="node">
<title>Node3</title>
<g id="a_node3"><a xlink:href="classTask.html#afbf3e5b7febfad5362973e6c605e0c91" target="_top" xlink:title=" ">
<polygon fill="white" stroke="#666666" points="253,-105 167,-105 167,-86 253,-86 253,-105"/>
<text text-anchor="middle" x="210" y="-93" font-family="Helvetica,sans-Serif" font-size="10.00">Task::dispatch</text>
</a>
</g>
</g>
<!-- Node1&#45;&gt;Node3 -->
<g id="edge2" class="edge">
<title>Node1&#45;&gt;Node3</title>
<path fill="none" stroke="#63b8ff" d="M108.43,-81.13C123.66,-83.31 140.25,-85.68 155.49,-87.86"/>
<polygon fill="#63b8ff" stroke="#63b8ff" points="154.93,-91.31 165.33,-89.26 155.92,-84.38 154.93,-91.31"/>
</g>
<!-- Node5 -->
<g id="node5" class="node">
<title>Node5</title>
<g id="a_node5"><a xlink:href="classTooltipController.html#aebddfe43923c0c8d10e750c1f1ed84d4" target="_top" xlink:title=" ">
<polygon fill="white" stroke="#666666" points="261.5,-67.5 158.5,-67.5 158.5,-37.5 261.5,-37.5 261.5,-67.5"/>
<text text-anchor="start" x="166.5" y="-55.5" font-family="Helvetica,sans-Serif" font-size="10.00">TooltipController::</text>
<text text-anchor="middle" x="210" y="-44.5" font-family="Helvetica,sans-Serif" font-size="10.00">getView</text>
</a>
</g>
</g>
<!-- Node1&#45;&gt;Node5 -->
<g id="edge4" class="edge">
<title>Node1&#45;&gt;Node5</title>
<path fill="none" stroke="#63b8ff" d="M108.43,-66.21C120.93,-64.51 134.34,-62.68 147.17,-60.93"/>
<polygon fill="#63b8ff" stroke="#63b8ff" points="147.32,-64.44 156.76,-59.62 146.38,-57.51 147.32,-64.44"/>
</g>
<!-- Node6 -->
<g id="node6" class="node">
<title>Node6</title>
<g id="a_node6"><a xlink:href="classTooltipView.html#ac7483d9db957b9232a016d954a7a4140" target="_top" xlink:title=" ">
<polygon fill="white" stroke="#666666" points="276,-19 144,-19 144,0 276,0 276,-19"/>
<text text-anchor="middle" x="210" y="-7" font-family="Helvetica,sans-Serif" font-size="10.00">TooltipView::hideTooltip</text>
</a>
</g>
</g>
<!-- Node1&#45;&gt;Node6 -->
<g id="edge5" class="edge">
<title>Node1&#45;&gt;Node6</title>
<path fill="none" stroke="#63b8ff" d="M82.06,-58.18C99.4,-48.78 122.58,-36.96 144,-28.5 149,-26.52 154.29,-24.65 159.6,-22.9"/>
<polygon fill="#63b8ff" stroke="#63b8ff" points="160.51,-26.28 169.01,-19.95 158.42,-19.6 160.51,-26.28"/>
</g>
<!-- Node4 -->
<g id="node4" class="node">
<title>Node4</title>
<g id="a_node4"><a xlink:href="classTaskManager.html#abad32d382134af5d84739dd12a33beaf" target="_top" xlink:title=" ">
<polygon fill="white" stroke="#666666" points="463,-105 312,-105 312,-86 463,-86 463,-105"/>
<text text-anchor="middle" x="387.5" y="-93" font-family="Helvetica,sans-Serif" font-size="10.00">TaskManager::getScheduler</text>
</a>
</g>
</g>
<!-- Node3&#45;&gt;Node4 -->
<g id="edge3" class="edge">
<title>Node3&#45;&gt;Node4</title>
<path fill="none" stroke="#63b8ff" d="M253.48,-95.5C267.66,-95.5 284.01,-95.5 300.29,-95.5"/>
<polygon fill="#63b8ff" stroke="#63b8ff" points="300,-99 310,-95.5 300,-92 300,-99"/>
</g>
</g>
</svg>
