<?xml version="1.0" encoding="UTF-8" standalone="no"?>
<!DOCTYPE svg PUBLIC "-//W3C//DTD SVG 1.1//EN"
 "http://www.w3.org/Graphics/SVG/1.1/DTD/svg11.dtd">
<!-- Generated by graphviz version 7.1.0 (0)
 -->
<!-- Title: QtProjectWizardContentPathsFrameworkSearchGlobal::load Pages: 1 -->
<svg width="1088pt" height="141pt"
 viewBox="0.00 0.00 1088.00 141.00" xmlns="http://www.w3.org/2000/svg" xmlns:xlink="http://www.w3.org/1999/xlink">
<g id="graph0" class="graph" transform="scale(1 1) rotate(0) translate(4 137)">
<title>QtProjectWizardContentPathsFrameworkSearchGlobal::load</title>
<!-- Node1 -->
<g id="node1" class="node">
<title>Node1</title>
<g id="a_node1"><a xlink:title=" ">
<polygon fill="#999999" stroke="#666666" points="163,-82.5 0,-82.5 0,-52.5 163,-52.5 163,-82.5"/>
<text text-anchor="start" x="8" y="-70.5" font-family="Helvetica,sans-Serif" font-size="10.00">QtProjectWizardContentPaths</text>
<text text-anchor="middle" x="81.5" y="-59.5" font-family="Helvetica,sans-Serif" font-size="10.00">FrameworkSearchGlobal::load</text>
</a>
</g>
</g>
<!-- Node2 -->
<g id="node2" class="node">
<title>Node2</title>
<g id="a_node2"><a xlink:href="classApplicationSettings.html#a59fd66f9eab421c8e7ea4da03c4b0d1e" target="_top" xlink:title=" ">
<polygon fill="white" stroke="#666666" points="321.5,-104.5 210.5,-104.5 210.5,-74.5 321.5,-74.5 321.5,-104.5"/>
<text text-anchor="start" x="218.5" y="-92.5" font-family="Helvetica,sans-Serif" font-size="10.00">ApplicationSettings</text>
<text text-anchor="middle" x="266" y="-81.5" font-family="Helvetica,sans-Serif" font-size="10.00">::getInstance</text>
</a>
</g>
</g>
<!-- Node1&#45;&gt;Node2 -->
<g id="edge1" class="edge">
<title>Node1&#45;&gt;Node2</title>
<path fill="none" stroke="#63b8ff" d="M163.34,-77.25C175.21,-78.68 187.32,-80.14 198.85,-81.53"/>
<polygon fill="#63b8ff" stroke="#63b8ff" points="198.31,-84.99 208.65,-82.71 199.14,-78.04 198.31,-84.99"/>
</g>
<!-- Node4 -->
<g id="node4" class="node">
<title>Node4</title>
<g id="a_node4"><a xlink:href="classQtPathListBox.html#afcd1f49e4f8ed5b9c03894b58fb9933c" target="_top" xlink:title=" ">
<polygon fill="white" stroke="#666666" points="333,-56 199,-56 199,-37 333,-37 333,-56"/>
<text text-anchor="middle" x="266" y="-44" font-family="Helvetica,sans-Serif" font-size="10.00">QtPathListBox::setPaths</text>
</a>
</g>
</g>
<!-- Node1&#45;&gt;Node4 -->
<g id="edge3" class="edge">
<title>Node1&#45;&gt;Node4</title>
<path fill="none" stroke="#63b8ff" d="M163.34,-58.2C171.38,-57.27 179.52,-56.34 187.52,-55.41"/>
<polygon fill="#63b8ff" stroke="#63b8ff" points="187.67,-58.92 197.21,-54.3 186.87,-51.97 187.67,-58.92"/>
</g>
<!-- Node3 -->
<g id="node3" class="node">
<title>Node3</title>
<g id="a_node3"><a xlink:href="classApplicationSettings.html#a577f5c7696669ffd72b37c28eb3eb04c" target="_top" xlink:title=" ">
<polygon fill="white" stroke="#666666" points="496,-104.5 379,-104.5 379,-74.5 496,-74.5 496,-104.5"/>
<text text-anchor="start" x="387" y="-92.5" font-family="Helvetica,sans-Serif" font-size="10.00">ApplicationSettings</text>
<text text-anchor="middle" x="437.5" y="-81.5" font-family="Helvetica,sans-Serif" font-size="10.00">::ApplicationSettings</text>
</a>
</g>
</g>
<!-- Node2&#45;&gt;Node3 -->
<g id="edge2" class="edge">
<title>Node2&#45;&gt;Node3</title>
<path fill="none" stroke="#63b8ff" d="M321.56,-89.5C336.06,-89.5 351.92,-89.5 367.09,-89.5"/>
<polygon fill="#63b8ff" stroke="#63b8ff" points="367.02,-93 377.02,-89.5 367.02,-86 367.02,-93"/>
</g>
<!-- Node5 -->
<g id="node5" class="node">
<title>Node5</title>
<g id="a_node5"><a xlink:href="classQtPathListBox.html#a895fde64a5d494326362579e6f288a37" target="_top" xlink:title=" ">
<polygon fill="white" stroke="#666666" points="506,-56 369,-56 369,-37 506,-37 506,-56"/>
<text text-anchor="middle" x="437.5" y="-44" font-family="Helvetica,sans-Serif" font-size="10.00">QtPathListBox::addPaths</text>
</a>
</g>
</g>
<!-- Node4&#45;&gt;Node5 -->
<g id="edge4" class="edge">
<title>Node4&#45;&gt;Node5</title>
<path fill="none" stroke="#63b8ff" d="M333.02,-46.5C340.98,-46.5 349.17,-46.5 357.3,-46.5"/>
<polygon fill="#63b8ff" stroke="#63b8ff" points="357.19,-50 367.19,-46.5 357.19,-43 357.19,-50"/>
</g>
<!-- Node13 -->
<g id="node13" class="node">
<title>Node13</title>
<g id="a_node13"><a xlink:href="classQtListBox.html#a2d1bd3966d59c8d45560a819e2709dfd" target="_top" xlink:title=" ">
<polygon fill="white" stroke="#666666" points="484.5,-19 390.5,-19 390.5,0 484.5,0 484.5,-19"/>
<text text-anchor="middle" x="437.5" y="-7" font-family="Helvetica,sans-Serif" font-size="10.00">QtListBox::clear</text>
</a>
</g>
</g>
<!-- Node4&#45;&gt;Node13 -->
<g id="edge12" class="edge">
<title>Node4&#45;&gt;Node13</title>
<path fill="none" stroke="#63b8ff" d="M312.42,-36.58C333.13,-32.06 357.87,-26.66 379.78,-21.88"/>
<polygon fill="#63b8ff" stroke="#63b8ff" points="380.45,-25.32 389.47,-19.77 378.96,-18.48 380.45,-25.32"/>
</g>
<!-- Node6 -->
<g id="node6" class="node">
<title>Node6</title>
<g id="a_node6"><a xlink:href="classQtListBox.html#ac42b92a2e2a8eb509458dca8def467c8" target="_top" xlink:title=" ">
<polygon fill="white" stroke="#666666" points="692.5,-83.5 546.5,-83.5 546.5,-53.5 692.5,-53.5 692.5,-83.5"/>
<text text-anchor="start" x="554.5" y="-71.5" font-family="Helvetica,sans-Serif" font-size="10.00">QtListBox::addListBoxItem</text>
<text text-anchor="middle" x="619.5" y="-60.5" font-family="Helvetica,sans-Serif" font-size="10.00">WithText</text>
</a>
</g>
</g>
<!-- Node5&#45;&gt;Node6 -->
<g id="edge5" class="edge">
<title>Node5&#45;&gt;Node6</title>
<path fill="none" stroke="#63b8ff" d="M506.29,-54.79C515.68,-55.93 525.4,-57.12 535.03,-58.3"/>
<polygon fill="#63b8ff" stroke="#63b8ff" points="534.41,-61.75 544.76,-59.49 535.26,-54.8 534.41,-61.75"/>
</g>
<!-- Node11 -->
<g id="node11" class="node">
<title>Node11</title>
<g id="a_node11"><a xlink:href="classQtListBoxItem.html#a1d042d61978d8d5d143b130a3cdd6ab8" target="_top" xlink:title=" ">
<polygon fill="white" stroke="#666666" points="697,-35 542,-35 542,-16 697,-16 697,-35"/>
<text text-anchor="middle" x="619.5" y="-23" font-family="Helvetica,sans-Serif" font-size="10.00">QtListBoxItem::setReadOnly</text>
</a>
</g>
</g>
<!-- Node5&#45;&gt;Node11 -->
<g id="edge10" class="edge">
<title>Node5&#45;&gt;Node11</title>
<path fill="none" stroke="#63b8ff" d="M506.29,-38.59C514.15,-37.67 522.25,-36.73 530.33,-35.79"/>
<polygon fill="#63b8ff" stroke="#63b8ff" points="530.68,-39.27 540.21,-34.63 529.87,-32.32 530.68,-39.27"/>
</g>
<!-- Node7 -->
<g id="node7" class="node">
<title>Node7</title>
<g id="a_node7"><a xlink:href="classQtListBox.html#ab85600b8cd5aa6c035abd21c2e86d928" target="_top" xlink:title=" ">
<polygon fill="white" stroke="#666666" points="882,-115 736,-115 736,-96 882,-96 882,-115"/>
<text text-anchor="middle" x="809" y="-103" font-family="Helvetica,sans-Serif" font-size="10.00">QtListBox::addListBoxItem</text>
</a>
</g>
</g>
<!-- Node6&#45;&gt;Node7 -->
<g id="edge6" class="edge">
<title>Node6&#45;&gt;Node7</title>
<path fill="none" stroke="#63b8ff" d="M692.99,-82.81C710.66,-86.29 729.39,-89.99 746.49,-93.36"/>
<polygon fill="#63b8ff" stroke="#63b8ff" points="745.49,-96.73 755.98,-95.24 746.85,-89.87 745.49,-96.73"/>
</g>
<!-- Node10 -->
<g id="node10" class="node">
<title>Node10</title>
<g id="a_node10"><a xlink:href="classQtListBoxItem.html#a3f75a39f922940872590ebb3146a8ba4" target="_top" xlink:title=" ">
<polygon fill="white" stroke="#666666" points="873,-78 745,-78 745,-59 873,-59 873,-78"/>
<text text-anchor="middle" x="809" y="-66" font-family="Helvetica,sans-Serif" font-size="10.00">QtListBoxItem::setText</text>
</a>
</g>
</g>
<!-- Node6&#45;&gt;Node10 -->
<g id="edge9" class="edge">
<title>Node6&#45;&gt;Node10</title>
<path fill="none" stroke="#63b8ff" d="M692.99,-68.5C706.14,-68.5 719.88,-68.5 733.1,-68.5"/>
<polygon fill="#63b8ff" stroke="#63b8ff" points="733.04,-72 743.04,-68.5 733.04,-65 733.04,-72"/>
</g>
<!-- Node8 -->
<g id="node8" class="node">
<title>Node8</title>
<g id="a_node8"><a xlink:href="classQtListBox.html#aded0d85d73468d463ffc4f06150c190e" target="_top" xlink:title=" ">
<polygon fill="white" stroke="#666666" points="1080,-133 921,-133 921,-114 1080,-114 1080,-133"/>
<text text-anchor="middle" x="1000.5" y="-121" font-family="Helvetica,sans-Serif" font-size="10.00">QtListBox::createListBoxItem</text>
</a>
</g>
</g>
<!-- Node7&#45;&gt;Node8 -->
<g id="edge7" class="edge">
<title>Node7&#45;&gt;Node8</title>
<path fill="none" stroke="#63b8ff" d="M882.45,-112.38C891.27,-113.22 900.36,-114.08 909.39,-114.94"/>
<polygon fill="#63b8ff" stroke="#63b8ff" points="908.98,-118.42 919.27,-115.88 909.65,-111.45 908.98,-118.42"/>
</g>
<!-- Node9 -->
<g id="node9" class="node">
<title>Node9</title>
<g id="a_node9"><a xlink:href="classQtListBoxItem.html#a988c59cb0ddbc7285981ede21fb61422" target="_top" xlink:title=" ">
<polygon fill="white" stroke="#666666" points="1068,-96 933,-96 933,-77 1068,-77 1068,-96"/>
<text text-anchor="middle" x="1000.5" y="-84" font-family="Helvetica,sans-Serif" font-size="10.00">QtListBoxItem::setFocus</text>
</a>
</g>
</g>
<!-- Node7&#45;&gt;Node9 -->
<g id="edge8" class="edge">
<title>Node7&#45;&gt;Node9</title>
<path fill="none" stroke="#63b8ff" d="M882.45,-98.24C895.22,-96.96 908.56,-95.62 921.48,-94.32"/>
<polygon fill="#63b8ff" stroke="#63b8ff" points="921.58,-97.83 931.18,-93.35 920.88,-90.86 921.58,-97.83"/>
</g>
<!-- Node12 -->
<g id="node12" class="node">
<title>Node12</title>
<g id="a_node12"><a xlink:href="classQtListBoxItem.html#a967053bd48b913a5bbc3076ca638b52b" target="_top" xlink:title=" ">
<polygon fill="white" stroke="#666666" points="885,-40.5 733,-40.5 733,-10.5 885,-10.5 885,-40.5"/>
<text text-anchor="start" x="741" y="-28.5" font-family="Helvetica,sans-Serif" font-size="10.00">QtListBoxItem::onReadOnly</text>
<text text-anchor="middle" x="809" y="-17.5" font-family="Helvetica,sans-Serif" font-size="10.00">Changed</text>
</a>
</g>
</g>
<!-- Node11&#45;&gt;Node12 -->
<g id="edge11" class="edge">
<title>Node11&#45;&gt;Node12</title>
<path fill="none" stroke="#63b8ff" d="M697.3,-25.5C705.21,-25.5 713.28,-25.5 721.28,-25.5"/>
<polygon fill="#63b8ff" stroke="#63b8ff" points="721.01,-29 731.01,-25.5 721.01,-22 721.01,-29"/>
</g>
</g>
</svg>
