<?xml version="1.0" encoding="UTF-8" standalone="no"?>
<!DOCTYPE svg PUBLIC "-//W3C//DTD SVG 1.1//EN"
 "http://www.w3.org/Graphics/SVG/1.1/DTD/svg11.dtd">
<!-- Generated by graphviz version 9.0.0 (0)
 -->
<!-- Title: HierarchyCache::HierarchyNode Pages: 1 -->
<svg width="472pt" height="124pt"
 viewBox="0.00 0.00 472.12 123.75" xmlns="http://www.w3.org/2000/svg" xmlns:xlink="http://www.w3.org/1999/xlink">
<g id="graph0" class="graph" transform="scale(1 1) rotate(0) translate(4 119.75)">
<title>HierarchyCache::HierarchyNode</title>
<!-- Node1 -->
<g id="Node000001" class="node">
<title>Node1</title>
<g id="a_Node000001"><a xlink:title=" ">
<polygon fill="#999999" stroke="#666666" points="291.12,-20.75 119.12,-20.75 119.12,0 291.12,0 291.12,-20.75"/>
<text text-anchor="middle" x="205.12" y="-7.25" font-family="Helvetica,sans-Serif" font-size="10.00">HierarchyCache::HierarchyNode</text>
</a>
</g>
</g>
<!-- Node1&#45;&gt;Node1 -->
<g id="edge3_Node000001_Node000001" class="edge">
<title>Node1&#45;&gt;Node1</title>
<g id="a_edge3_Node000001_Node000001"><a xlink:title=" ">
<path fill="none" stroke="#9a32cd" stroke-dasharray="5,2" d="M302.8,-14.98C306.81,-13.79 309.12,-12.26 309.12,-10.38 309.12,-7.12 302.18,-4.9 291.6,-3.7"/>
<polygon fill="#9a32cd" stroke="#9a32cd" points="302.29,-11.52 293.08,-16.77 303.55,-18.41 302.29,-11.52"/>
</a>
</g>
<text text-anchor="middle" x="333.88" y="-7.25" font-family="Helvetica,sans-Serif" font-size="10.00" fill="grey"> m_parent</text>
</g>
<!-- Node2 -->
<g id="Node000002" class="node">
<title>Node2</title>
<g id="a_Node000002"><a xlink:title=" ">
<polygon fill="white" stroke="#666666" points="54.25,-109.38 0,-109.38 0,-88.62 54.25,-88.62 54.25,-109.38"/>
<text text-anchor="middle" x="27.12" y="-95.88" font-family="Helvetica,sans-Serif" font-size="10.00">const Id</text>
</a>
</g>
</g>
<!-- Node2&#45;&gt;Node1 -->
<g id="edge1_Node000001_Node000002" class="edge">
<title>Node2&#45;&gt;Node1</title>
<g id="a_edge1_Node000001_Node000002"><a xlink:title=" ">
<path fill="none" stroke="#9a32cd" stroke-dasharray="5,2" d="M35.87,-78.19C42.75,-64.96 53.59,-48.3 68.12,-38.75 83.23,-28.83 101.14,-22.36 118.95,-18.18"/>
<polygon fill="#9a32cd" stroke="#9a32cd" points="32.87,-76.36 31.7,-86.89 39.18,-79.39 32.87,-76.36"/>
</a>
</g>
<text text-anchor="middle" x="93.62" y="-48.38" font-family="Helvetica,sans-Serif" font-size="10.00" fill="grey"> m_nodeId</text>
</g>
<!-- Node3 -->
<g id="Node000003" class="node">
<title>Node3</title>
<g id="a_Node000003"><a xlink:title=" ">
<polygon fill="white" stroke="#666666" points="119.38,-109.38 74.88,-109.38 74.88,-88.62 119.38,-88.62 119.38,-109.38"/>
<text text-anchor="middle" x="97.12" y="-95.88" font-family="Helvetica,sans-Serif" font-size="10.00">size_t</text>
</a>
</g>
</g>
<!-- Node3&#45;&gt;Node1 -->
<g id="edge2_Node000001_Node000003" class="edge">
<title>Node3&#45;&gt;Node1</title>
<g id="a_edge2_Node000001_Node000003"><a xlink:title=" ">
<path fill="none" stroke="#9a32cd" stroke-dasharray="5,2" d="M111.02,-79.01C120.91,-66.45 135.06,-50.24 150.12,-38.75 159.29,-31.77 170.51,-25.8 180.42,-21.24"/>
<polygon fill="#9a32cd" stroke="#9a32cd" points="108.26,-76.86 104.99,-86.93 113.83,-81.09 108.26,-76.86"/>
</a>
</g>
<text text-anchor="middle" x="175.62" y="-48.38" font-family="Helvetica,sans-Serif" font-size="10.00" fill="grey"> m_edgeId</text>
</g>
<!-- Node4 -->
<g id="Node000004" class="node">
<title>Node4</title>
<g id="a_Node000004"><a xlink:title=" ">
<polygon fill="white" stroke="#666666" points="272.75,-115.75 137.5,-115.75 137.5,-82.25 272.75,-82.25 272.75,-115.75"/>
<text text-anchor="start" x="145.5" y="-102.25" font-family="Helvetica,sans-Serif" font-size="10.00">vector&lt; HierarchyCache</text>
<text text-anchor="middle" x="205.12" y="-89.5" font-family="Helvetica,sans-Serif" font-size="10.00">::HierarchyNode * &gt;</text>
</a>
</g>
</g>
<!-- Node4&#45;&gt;Node1 -->
<g id="edge4_Node000001_Node000004" class="edge">
<title>Node4&#45;&gt;Node1</title>
<g id="a_edge4_Node000001_Node000004"><a xlink:title=" ">
<path fill="none" stroke="#9a32cd" stroke-dasharray="5,2" d="M205.12,-70.67C205.12,-53.81 205.12,-33.18 205.12,-21.23"/>
<polygon fill="#9a32cd" stroke="#9a32cd" points="201.63,-70.6 205.13,-80.6 208.63,-70.6 201.63,-70.6"/>
</a>
</g>
<text text-anchor="middle" x="232.12" y="-54.75" font-family="Helvetica,sans-Serif" font-size="10.00" fill="grey"> m_bases</text>
<text text-anchor="middle" x="232.12" y="-42" font-family="Helvetica,sans-Serif" font-size="10.00" fill="grey">m_children</text>
</g>
<!-- Node5 -->
<g id="Node000005" class="node">
<title>Node5</title>
<g id="a_Node000005"><a xlink:title=" ">
<polygon fill="white" stroke="#666666" points="369.25,-109.38 291,-109.38 291,-88.62 369.25,-88.62 369.25,-109.38"/>
<text text-anchor="middle" x="330.12" y="-95.88" font-family="Helvetica,sans-Serif" font-size="10.00">vector&lt; Id &gt;</text>
</a>
</g>
</g>
<!-- Node5&#45;&gt;Node1 -->
<g id="edge5_Node000001_Node000005" class="edge">
<title>Node5&#45;&gt;Node1</title>
<g id="a_edge5_Node000001_Node000005"><a xlink:title=" ">
<path fill="none" stroke="#9a32cd" stroke-dasharray="5,2" d="M312.88,-80.27C299.97,-67.63 281.46,-50.83 263.12,-38.75 252.8,-31.95 240.53,-25.9 229.93,-21.23"/>
<polygon fill="#9a32cd" stroke="#9a32cd" points="310.23,-82.57 319.78,-87.16 315.18,-77.62 310.23,-82.57"/>
</a>
</g>
<text text-anchor="middle" x="332.88" y="-48.38" font-family="Helvetica,sans-Serif" font-size="10.00" fill="grey"> m_baseEdgeIds</text>
</g>
<!-- Node6 -->
<g id="Node000006" class="node">
<title>Node6</title>
<g id="a_Node000006"><a xlink:title=" ">
<polygon fill="white" stroke="#666666" points="437.62,-109.38 400.62,-109.38 400.62,-88.62 437.62,-88.62 437.62,-109.38"/>
<text text-anchor="middle" x="419.12" y="-95.88" font-family="Helvetica,sans-Serif" font-size="10.00">bool</text>
</a>
</g>
</g>
<!-- Node6&#45;&gt;Node1 -->
<g id="edge6_Node000001_Node000006" class="edge">
<title>Node6&#45;&gt;Node1</title>
<g id="a_edge6_Node000001_Node000006"><a xlink:title=" ">
<path fill="none" stroke="#9a32cd" stroke-dasharray="5,2" d="M410.16,-78C403.12,-64.69 392.02,-48 377.12,-38.75 362.42,-29.61 326.46,-23.17 291.2,-18.85"/>
<polygon fill="#9a32cd" stroke="#9a32cd" points="406.92,-79.33 414.45,-86.79 413.21,-76.27 406.92,-79.33"/>
</a>
</g>
<text text-anchor="middle" x="432.62" y="-54.75" font-family="Helvetica,sans-Serif" font-size="10.00" fill="grey"> m_isImplicit</text>
<text text-anchor="middle" x="432.62" y="-42" font-family="Helvetica,sans-Serif" font-size="10.00" fill="grey">m_isVisible</text>
</g>
</g>
</svg>
