<?xml version="1.0" encoding="UTF-8" standalone="no"?>
<!DOCTYPE svg PUBLIC "-//W3C//DTD SVG 1.1//EN"
 "http://www.w3.org/Graphics/SVG/1.1/DTD/svg11.dtd">
<!-- Generated by graphviz version 7.1.0 (0)
 -->
<!-- Title: SettingsMigration::removeValuesInSettings Pages: 1 -->
<svg width="333pt" height="86pt"
 viewBox="0.00 0.00 333.00 86.00" xmlns="http://www.w3.org/2000/svg" xmlns:xlink="http://www.w3.org/1999/xlink">
<g id="graph0" class="graph" transform="scale(1 1) rotate(0) translate(4 82)">
<title>SettingsMigration::removeValuesInSettings</title>
<!-- Node1 -->
<g id="node1" class="node">
<title>Node1</title>
<g id="a_node1"><a xlink:title=" ">
<polygon fill="#999999" stroke="#666666" points="325,-54 189,-54 189,-24 325,-24 325,-54"/>
<text text-anchor="start" x="197" y="-42" font-family="Helvetica,sans-Serif" font-size="10.00">SettingsMigration::</text>
<text text-anchor="middle" x="257" y="-31" font-family="Helvetica,sans-Serif" font-size="10.00">removeValuesInSettings</text>
</a>
</g>
</g>
<!-- Node2 -->
<g id="node2" class="node">
<title>Node2</title>
<g id="a_node2"><a xlink:href="classSettingsMigrationDeleteKey.html#a5ec5b9ff88a0cc0ffe5bd1474648ecba" target="_top" xlink:title=" ">
<polygon fill="white" stroke="#666666" points="153,-78 0,-78 0,-48 153,-48 153,-78"/>
<text text-anchor="start" x="8" y="-66" font-family="Helvetica,sans-Serif" font-size="10.00">SettingsMigrationDeleteKey</text>
<text text-anchor="middle" x="76.5" y="-55" font-family="Helvetica,sans-Serif" font-size="10.00">::apply</text>
</a>
</g>
</g>
<!-- Node1&#45;&gt;Node2 -->
<g id="edge1" class="edge">
<title>Node1&#45;&gt;Node2</title>
<path fill="none" stroke="#63b8ff" d="M177.11,-49.61C169.25,-50.66 161.28,-51.74 153.45,-52.79"/>
<polygon fill="#63b8ff" stroke="#63b8ff" points="177.57,-53.08 187.02,-48.28 176.64,-46.14 177.57,-53.08"/>
</g>
<!-- Node3 -->
<g id="node3" class="node">
<title>Node3</title>
<g id="a_node3"><a xlink:href="classSettingsMigrationMoveKey.html#abe0b71d650afbdeb0e434fd6a80cefa5" target="_top" xlink:title=" ">
<polygon fill="white" stroke="#666666" points="150.5,-30 2.5,-30 2.5,0 150.5,0 150.5,-30"/>
<text text-anchor="start" x="10.5" y="-18" font-family="Helvetica,sans-Serif" font-size="10.00">SettingsMigrationMoveKey</text>
<text text-anchor="middle" x="76.5" y="-7" font-family="Helvetica,sans-Serif" font-size="10.00">::apply</text>
</a>
</g>
</g>
<!-- Node1&#45;&gt;Node3 -->
<g id="edge2" class="edge">
<title>Node1&#45;&gt;Node3</title>
<path fill="none" stroke="#63b8ff" d="M177.4,-28.43C168.54,-27.24 159.53,-26.03 150.74,-24.85"/>
<polygon fill="#63b8ff" stroke="#63b8ff" points="176.64,-31.86 187.02,-29.72 177.57,-24.92 176.64,-31.86"/>
</g>
</g>
</svg>
