<?xml version="1.0" encoding="UTF-8" standalone="no"?>
<!DOCTYPE svg PUBLIC "-//W3C//DTD SVG 1.1//EN"
 "http://www.w3.org/Graphics/SVG/1.1/DTD/svg11.dtd">
<!-- Generated by graphviz version 9.0.0 (0)
 -->
<!-- Title: QtCodeSnippet::findScreenMatches Pages: 1 -->
<svg width="701pt" height="236pt"
 viewBox="0.00 0.00 700.50 235.75" xmlns="http://www.w3.org/2000/svg" xmlns:xlink="http://www.w3.org/1999/xlink">
<g id="graph0" class="graph" transform="scale(1 1) rotate(0) translate(4 231.75)">
<title>QtCodeSnippet::findScreenMatches</title>
<!-- Node1 -->
<g id="Node000001" class="node">
<title>Node1</title>
<g id="a_Node000001"><a xlink:title=" ">
<polygon fill="#999999" stroke="#666666" points="146.5,-127.12 0,-127.12 0,-93.62 146.5,-93.62 146.5,-127.12"/>
<text text-anchor="start" x="8" y="-113.62" font-family="Helvetica,sans-Serif" font-size="10.00">QtCodeSnippet::findScreen</text>
<text text-anchor="middle" x="73.25" y="-100.88" font-family="Helvetica,sans-Serif" font-size="10.00">Matches</text>
</a>
</g>
</g>
<!-- Node2 -->
<g id="Node000002" class="node">
<title>Node2</title>
<g id="a_Node000002"><a xlink:href="classQtCodeArea.html#a14de6c1f579e3c6e1963b0fc78cb8ee5" target="_top" xlink:title=" ">
<polygon fill="white" stroke="#666666" points="356,-120.75 182.5,-120.75 182.5,-100 356,-100 356,-120.75"/>
<text text-anchor="middle" x="269.25" y="-107.25" font-family="Helvetica,sans-Serif" font-size="10.00">QtCodeArea::findScreenMatches</text>
</a>
</g>
</g>
<!-- Node1&#45;&gt;Node2 -->
<g id="edge1_Node000001_Node000002" class="edge">
<title>Node1&#45;&gt;Node2</title>
<g id="a_edge1_Node000001_Node000002"><a xlink:title=" ">
<path fill="none" stroke="#63b8ff" d="M146.76,-110.38C154.59,-110.38 162.65,-110.38 170.71,-110.38"/>
<polygon fill="#63b8ff" stroke="#63b8ff" points="170.57,-113.88 180.57,-110.38 170.57,-106.88 170.57,-113.88"/>
</a>
</g>
</g>
<!-- Node3 -->
<g id="Node000003" class="node">
<title>Node3</title>
<g id="a_Node000003"><a xlink:href="classTextCodec.html#ad319a5d32b899d9e1820ed9530eb8e0e" target="_top" xlink:title=" ">
<polygon fill="white" stroke="#666666" points="519.75,-227.75 412.25,-227.75 412.25,-207 519.75,-207 519.75,-227.75"/>
<text text-anchor="middle" x="466" y="-214.25" font-family="Helvetica,sans-Serif" font-size="10.00">TextCodec::decode</text>
</a>
</g>
</g>
<!-- Node2&#45;&gt;Node3 -->
<g id="edge2_Node000002_Node000003" class="edge">
<title>Node2&#45;&gt;Node3</title>
<g id="a_edge2_Node000002_Node000003"><a xlink:title=" ">
<path fill="none" stroke="#63b8ff" d="M282.12,-121.09C302.91,-139.31 347.89,-176.4 392,-197.38 396.27,-199.41 400.79,-201.26 405.39,-202.95"/>
<polygon fill="#63b8ff" stroke="#63b8ff" points="404.19,-206.24 414.79,-206.11 406.43,-199.61 404.19,-206.24"/>
</a>
</g>
</g>
<!-- Node4 -->
<g id="Node000004" class="node">
<title>Node4</title>
<g id="a_Node000004"><a xlink:href="classQtCodeField.html#a0ffb52644bd5abe39f1ff092957e543b" target="_top" xlink:title=" ">
<polygon fill="white" stroke="#666666" points="526.5,-188.75 405.5,-188.75 405.5,-168 526.5,-168 526.5,-188.75"/>
<text text-anchor="middle" x="466" y="-175.25" font-family="Helvetica,sans-Serif" font-size="10.00">QtCodeField::getCode</text>
</a>
</g>
</g>
<!-- Node2&#45;&gt;Node4 -->
<g id="edge3_Node000002_Node000004" class="edge">
<title>Node2&#45;&gt;Node4</title>
<g id="a_edge3_Node000002_Node000004"><a xlink:title=" ">
<path fill="none" stroke="#63b8ff" d="M294.17,-121.06C318.48,-131.67 357.38,-147.95 392,-159.38 397.38,-161.15 403.03,-162.87 408.7,-164.5"/>
<polygon fill="#63b8ff" stroke="#63b8ff" points="407.53,-167.81 418.11,-167.11 409.41,-161.06 407.53,-167.81"/>
</a>
</g>
</g>
<!-- Node5 -->
<g id="Node000005" class="node">
<title>Node5</title>
<g id="a_Node000005"><a xlink:href="classApplicationSettings.html#a59fd66f9eab421c8e7ea4da03c4b0d1e" target="_top" xlink:title=" ">
<polygon fill="white" stroke="#666666" points="521.25,-150.12 410.75,-150.12 410.75,-116.62 521.25,-116.62 521.25,-150.12"/>
<text text-anchor="start" x="418.75" y="-136.62" font-family="Helvetica,sans-Serif" font-size="10.00">ApplicationSettings</text>
<text text-anchor="middle" x="466" y="-123.88" font-family="Helvetica,sans-Serif" font-size="10.00">::getInstance</text>
</a>
</g>
</g>
<!-- Node2&#45;&gt;Node5 -->
<g id="edge4_Node000002_Node000005" class="edge">
<title>Node2&#45;&gt;Node5</title>
<g id="a_edge4_Node000002_Node000005"><a xlink:title=" ">
<path fill="none" stroke="#63b8ff" d="M356.24,-120.53C370.65,-122.23 385.39,-123.97 399.19,-125.6"/>
<polygon fill="#63b8ff" stroke="#63b8ff" points="398.68,-129.07 409.03,-126.76 399.51,-122.12 398.68,-129.07"/>
</a>
</g>
</g>
<!-- Node7 -->
<g id="Node000007" class="node">
<title>Node7</title>
<g id="a_Node000007"><a xlink:href="namespaceutility.html#a239deb522abcf6865fc4409d6fff2914" target="_top" xlink:title=" ">
<polygon fill="white" stroke="#666666" points="508.88,-98.75 423.12,-98.75 423.12,-78 508.88,-78 508.88,-98.75"/>
<text text-anchor="middle" x="466" y="-85.25" font-family="Helvetica,sans-Serif" font-size="10.00">utility::replace</text>
</a>
</g>
</g>
<!-- Node2&#45;&gt;Node7 -->
<g id="edge6_Node000002_Node000007" class="edge">
<title>Node2&#45;&gt;Node7</title>
<g id="a_edge6_Node000002_Node000007"><a xlink:title=" ">
<path fill="none" stroke="#63b8ff" d="M356.24,-100.66C374.95,-98.55 394.23,-96.37 411.26,-94.45"/>
<polygon fill="#63b8ff" stroke="#63b8ff" points="411.61,-97.93 421.16,-93.33 410.83,-90.97 411.61,-97.93"/>
</a>
</g>
</g>
<!-- Node8 -->
<g id="Node000008" class="node">
<title>Node8</title>
<g id="a_Node000008"><a xlink:href="classQtCodeField.html#a4ac5684a401538ca893cd9df57db8d42" target="_top" xlink:title=" ">
<polygon fill="white" stroke="#666666" points="540,-59.75 392,-59.75 392,-39 540,-39 540,-59.75"/>
<text text-anchor="middle" x="466" y="-46.25" font-family="Helvetica,sans-Serif" font-size="10.00">QtCodeField::toLineColumn</text>
</a>
</g>
</g>
<!-- Node2&#45;&gt;Node8 -->
<g id="edge7_Node000002_Node000008" class="edge">
<title>Node2&#45;&gt;Node8</title>
<g id="a_edge7_Node000002_Node000008"><a xlink:title=" ">
<path fill="none" stroke="#63b8ff" d="M300.87,-99.52C325.39,-90.96 360.75,-78.91 392,-69.38 398.76,-67.31 405.91,-65.23 412.98,-63.23"/>
<polygon fill="#63b8ff" stroke="#63b8ff" points="413.8,-66.64 422.5,-60.58 411.92,-59.89 413.8,-66.64"/>
</a>
</g>
</g>
<!-- Node9 -->
<g id="Node000009" class="node">
<title>Node9</title>
<g id="a_Node000009"><a xlink:href="namespaceutility.html#aa62fb20032f5e2269c27a55c16fb4d1f" target="_top" xlink:title=" ">
<polygon fill="white" stroke="#666666" points="522.38,-20.75 409.62,-20.75 409.62,0 522.38,0 522.38,-20.75"/>
<text text-anchor="middle" x="466" y="-7.25" font-family="Helvetica,sans-Serif" font-size="10.00">utility::toLowerCase</text>
</a>
</g>
</g>
<!-- Node2&#45;&gt;Node9 -->
<g id="edge8_Node000002_Node000009" class="edge">
<title>Node2&#45;&gt;Node9</title>
<g id="a_edge8_Node000002_Node000009"><a xlink:title=" ">
<path fill="none" stroke="#63b8ff" d="M283.31,-99.77C304.77,-82.84 349.36,-49.64 392,-30.38 396.57,-28.31 401.4,-26.42 406.31,-24.69"/>
<polygon fill="#63b8ff" stroke="#63b8ff" points="407.25,-28.06 415.68,-21.64 405.08,-21.41 407.25,-28.06"/>
</a>
</g>
</g>
<!-- Node6 -->
<g id="Node000006" class="node">
<title>Node6</title>
<g id="a_Node000006"><a xlink:href="classApplicationSettings.html#a577f5c7696669ffd72b37c28eb3eb04c" target="_top" xlink:title=" ">
<polygon fill="white" stroke="#666666" points="692.5,-150.12 576,-150.12 576,-116.62 692.5,-116.62 692.5,-150.12"/>
<text text-anchor="start" x="584" y="-136.62" font-family="Helvetica,sans-Serif" font-size="10.00">ApplicationSettings</text>
<text text-anchor="middle" x="634.25" y="-123.88" font-family="Helvetica,sans-Serif" font-size="10.00">::ApplicationSettings</text>
</a>
</g>
</g>
<!-- Node5&#45;&gt;Node6 -->
<g id="edge5_Node000005_Node000006" class="edge">
<title>Node5&#45;&gt;Node6</title>
<g id="a_edge5_Node000005_Node000006"><a xlink:title=" ">
<path fill="none" stroke="#63b8ff" d="M521.44,-133.38C535.11,-133.38 549.97,-133.38 564.25,-133.38"/>
<polygon fill="#63b8ff" stroke="#63b8ff" points="564.03,-136.88 574.03,-133.38 564.03,-129.88 564.03,-136.88"/>
</a>
</g>
</g>
</g>
</svg>
