<?xml version="1.0" encoding="UTF-8" standalone="no"?>
<!DOCTYPE svg PUBLIC "-//W3C//DTD SVG 1.1//EN"
 "http://www.w3.org/Graphics/SVG/1.1/DTD/svg11.dtd">
<!-- Generated by graphviz version 7.1.0 (0)
 -->
<!-- Title: FilePath::getAbsolute Pages: 1 -->
<svg width="249pt" height="64pt"
 viewBox="0.00 0.00 249.00 64.00" xmlns="http://www.w3.org/2000/svg" xmlns:xlink="http://www.w3.org/1999/xlink">
<g id="graph0" class="graph" transform="scale(1 1) rotate(0) translate(4 60)">
<title>FilePath::getAbsolute</title>
<!-- Node1 -->
<g id="node1" class="node">
<title>Node1</title>
<g id="a_node1"><a xlink:title=" ">
<polygon fill="#999999" stroke="#666666" points="241,-37 122,-37 122,-18 241,-18 241,-37"/>
<text text-anchor="middle" x="181.5" y="-25" font-family="Helvetica,sans-Serif" font-size="10.00">FilePath::getAbsolute</text>
</a>
</g>
</g>
<!-- Node2 -->
<g id="node2" class="node">
<title>Node2</title>
<g id="a_node2"><a xlink:href="includesLinux_8h.html#a279ec6379bff22ef4d7e6d1bf55b3347" target="_top" xlink:title=" ">
<polygon fill="white" stroke="#666666" points="74,-56 12,-56 12,-37 74,-37 74,-56"/>
<text text-anchor="middle" x="43" y="-44" font-family="Helvetica,sans-Serif" font-size="10.00">setupApp</text>
</a>
</g>
</g>
<!-- Node1&#45;&gt;Node2 -->
<g id="edge1" class="edge">
<title>Node1&#45;&gt;Node2</title>
<path fill="none" stroke="#63b8ff" d="M110.65,-37.22C97.91,-39 85.25,-40.76 74.43,-42.26"/>
<polygon fill="#63b8ff" stroke="#63b8ff" points="110.9,-40.72 120.32,-35.88 109.93,-33.79 110.9,-40.72"/>
</g>
<!-- Node3 -->
<g id="node3" class="node">
<title>Node3</title>
<g id="a_node3"><a xlink:href="includesMac_8h.html#a12b6fe380831dd374fe41f6a3c11510f" target="_top" xlink:title=" ">
<polygon fill="white" stroke="#666666" points="86,-19 0,-19 0,0 86,0 86,-19"/>
<text text-anchor="middle" x="43" y="-7" font-family="Helvetica,sans-Serif" font-size="10.00">setupPlatform</text>
</a>
</g>
</g>
<!-- Node1&#45;&gt;Node3 -->
<g id="edge2" class="edge">
<title>Node1&#45;&gt;Node3</title>
<path fill="none" stroke="#63b8ff" d="M110.5,-18.27C102.19,-17.17 93.9,-16.08 86.15,-15.06"/>
<polygon fill="#63b8ff" stroke="#63b8ff" points="109.95,-21.73 120.32,-19.56 110.86,-14.79 109.95,-21.73"/>
</g>
</g>
</svg>
