<?xml version="1.0" encoding="UTF-8" standalone="no"?>
<!DOCTYPE svg PUBLIC "-//W3C//DTD SVG 1.1//EN"
 "http://www.w3.org/Graphics/SVG/1.1/DTD/svg11.dtd">
<!-- Generated by graphviz version 7.1.0 (0)
 -->
<!-- Title: QtCodeFileSingle::moveFocus Pages: 1 -->
<svg width="1918pt" height="236pt"
 viewBox="0.00 0.00 1918.00 236.00" xmlns="http://www.w3.org/2000/svg" xmlns:xlink="http://www.w3.org/1999/xlink">
<g id="graph0" class="graph" transform="scale(1 1) rotate(0) translate(4 232)">
<title>QtCodeFileSingle::moveFocus</title>
<!-- Node1 -->
<g id="node1" class="node">
<title>Node1</title>
<g id="a_node1"><a xlink:title=" ">
<polygon fill="#999999" stroke="#666666" points="161,-128.5 0,-128.5 0,-109.5 161,-109.5 161,-128.5"/>
<text text-anchor="middle" x="80.5" y="-116.5" font-family="Helvetica,sans-Serif" font-size="10.00">QtCodeFileSingle::moveFocus</text>
</a>
</g>
</g>
<!-- Node2 -->
<g id="node2" class="node">
<title>Node2</title>
<g id="a_node2"><a xlink:href="classQtCodeArea.html#ad6b222888e3bdeb13c0ba064f1e72f54" target="_top" xlink:title=" ">
<polygon fill="white" stroke="#666666" points="334,-128.5 197,-128.5 197,-109.5 334,-109.5 334,-128.5"/>
<text text-anchor="middle" x="265.5" y="-116.5" font-family="Helvetica,sans-Serif" font-size="10.00">QtCodeArea::moveFocus</text>
</a>
</g>
</g>
<!-- Node1&#45;&gt;Node2 -->
<g id="edge1" class="edge">
<title>Node1&#45;&gt;Node2</title>
<path fill="none" stroke="#63b8ff" d="M161.23,-119C169.29,-119 177.46,-119 185.51,-119"/>
<polygon fill="#63b8ff" stroke="#63b8ff" points="185.25,-122.5 195.25,-119 185.25,-115.5 185.25,-122.5"/>
</g>
<!-- Node3 -->
<g id="node3" class="node">
<title>Node3</title>
<g id="a_node3"><a xlink:href="classCodeFocusHandler.html#ad07652cbec85ba4bf361042fbe69de67" target="_top" xlink:title=" ">
<polygon fill="white" stroke="#666666" points="533,-177 374,-177 374,-147 533,-147 533,-177"/>
<text text-anchor="start" x="382" y="-165" font-family="Helvetica,sans-Serif" font-size="10.00">CodeFocusHandler::getTarget</text>
<text text-anchor="middle" x="453.5" y="-154" font-family="Helvetica,sans-Serif" font-size="10.00">Column</text>
</a>
</g>
</g>
<!-- Node2&#45;&gt;Node3 -->
<g id="edge2" class="edge">
<title>Node2&#45;&gt;Node3</title>
<path fill="none" stroke="#63b8ff" d="M309.64,-128.97C328.92,-133.43 352.26,-138.83 374.43,-143.95"/>
<polygon fill="#63b8ff" stroke="#63b8ff" points="373.54,-147.34 384.07,-146.18 375.12,-140.52 373.54,-147.34"/>
</g>
<!-- Node4 -->
<g id="node4" class="node">
<title>Node4</title>
<g id="a_node4"><a xlink:href="classQtCodeArea.html#aa902ebd476d33d46ec19e0f6ccaecac8" target="_top" xlink:title=" ">
<polygon fill="white" stroke="#666666" points="536.5,-128.5 370.5,-128.5 370.5,-109.5 536.5,-109.5 536.5,-128.5"/>
<text text-anchor="middle" x="453.5" y="-116.5" font-family="Helvetica,sans-Serif" font-size="10.00">QtCodeArea::moveFocusInLine</text>
</a>
</g>
</g>
<!-- Node2&#45;&gt;Node4 -->
<g id="edge3" class="edge">
<title>Node2&#45;&gt;Node4</title>
<path fill="none" stroke="#63b8ff" d="M334.44,-119C342.43,-119 350.69,-119 358.95,-119"/>
<polygon fill="#63b8ff" stroke="#63b8ff" points="358.69,-122.5 368.68,-119 358.68,-115.5 358.69,-122.5"/>
</g>
<!-- Node16 -->
<g id="node16" class="node">
<title>Node16</title>
<g id="a_node16"><a xlink:href="classQtCodeArea.html#a595e5592580f3abb8e942ebd7531b8bc" target="_top" xlink:title=" ">
<polygon fill="white" stroke="#666666" points="537,-91.5 370,-91.5 370,-72.5 537,-72.5 537,-91.5"/>
<text text-anchor="middle" x="453.5" y="-79.5" font-family="Helvetica,sans-Serif" font-size="10.00">QtCodeArea::moveFocusToLine</text>
</a>
</g>
</g>
<!-- Node2&#45;&gt;Node16 -->
<g id="edge17" class="edge">
<title>Node2&#45;&gt;Node16</title>
<path fill="none" stroke="#63b8ff" d="M316.34,-109.08C339.38,-104.5 366.96,-99.02 391.25,-94.18"/>
<polygon fill="#63b8ff" stroke="#63b8ff" points="391.91,-97.62 401.03,-92.24 390.54,-90.76 391.91,-97.62"/>
</g>
<!-- Node5 -->
<g id="node5" class="node">
<title>Node5</title>
<g id="a_node5"><a xlink:href="classQtCodeArea.html#a278551156e4a130f6d0e572afbec43a0" target="_top" xlink:title=" ">
<polygon fill="white" stroke="#666666" points="740.5,-153.5 579.5,-153.5 579.5,-134.5 740.5,-134.5 740.5,-153.5"/>
<text text-anchor="middle" x="660" y="-141.5" font-family="Helvetica,sans-Serif" font-size="10.00">QtCodeArea::focusAnnotation</text>
</a>
</g>
</g>
<!-- Node4&#45;&gt;Node5 -->
<g id="edge4" class="edge">
<title>Node4&#45;&gt;Node5</title>
<path fill="none" stroke="#63b8ff" d="M536.21,-128.99C546.58,-130.26 557.25,-131.56 567.77,-132.85"/>
<polygon fill="#63b8ff" stroke="#63b8ff" points="567.24,-136.31 577.59,-134.05 568.09,-129.36 567.24,-136.31"/>
</g>
<!-- Node15 -->
<g id="node15" class="node">
<title>Node15</title>
<g id="a_node15"><a xlink:href="classQtCodeField.html#a1be788a10f70468beb82f9d11e0b6c06" target="_top" xlink:title=" ">
<polygon fill="white" stroke="#666666" points="734.5,-116 585.5,-116 585.5,-86 734.5,-86 734.5,-116"/>
<text text-anchor="start" x="593.5" y="-104" font-family="Helvetica,sans-Serif" font-size="10.00">QtCodeField::getInteractive</text>
<text text-anchor="middle" x="660" y="-93" font-family="Helvetica,sans-Serif" font-size="10.00">AnnotationsForLineNumber</text>
</a>
</g>
</g>
<!-- Node4&#45;&gt;Node15 -->
<g id="edge16" class="edge">
<title>Node4&#45;&gt;Node15</title>
<path fill="none" stroke="#63b8ff" d="M536.79,-111.76C549.03,-110.68 561.66,-109.57 573.95,-108.49"/>
<polygon fill="#63b8ff" stroke="#63b8ff" points="573.96,-112 583.62,-107.64 573.35,-105.03 573.96,-112"/>
</g>
<!-- Node6 -->
<g id="node6" class="node">
<title>Node6</title>
<g id="a_node6"><a xlink:href="classCodeFocusHandler.html#a68ee5826f09eae26f72f0452a4a4632f" target="_top" xlink:title=" ">
<polygon fill="white" stroke="#666666" points="951,-180 783,-180 783,-150 951,-150 951,-180"/>
<text text-anchor="start" x="791" y="-168" font-family="Helvetica,sans-Serif" font-size="10.00">CodeFocusHandler::setFocused</text>
<text text-anchor="middle" x="867" y="-157" font-family="Helvetica,sans-Serif" font-size="10.00">LocationId</text>
</a>
</g>
</g>
<!-- Node5&#45;&gt;Node6 -->
<g id="edge5" class="edge">
<title>Node5&#45;&gt;Node6</title>
<path fill="none" stroke="#63b8ff" d="M740.85,-152.18C750.81,-153.2 761.08,-154.25 771.24,-155.29"/>
<polygon fill="#63b8ff" stroke="#63b8ff" points="770.84,-158.77 781.15,-156.31 771.55,-151.81 770.84,-158.77"/>
</g>
<!-- Node14 -->
<g id="node14" class="node">
<title>Node14</title>
<g id="a_node14"><a xlink:href="namespaceutility.html#aaf52f1ff3ca887705d82c1e674f434c0" target="_top" xlink:title=" ">
<polygon fill="white" stroke="#666666" points="913,-131.5 821,-131.5 821,-112.5 913,-112.5 913,-131.5"/>
<text text-anchor="middle" x="867" y="-119.5" font-family="Helvetica,sans-Serif" font-size="10.00">utility::toVector</text>
</a>
</g>
</g>
<!-- Node5&#45;&gt;Node14 -->
<g id="edge15" class="edge">
<title>Node5&#45;&gt;Node14</title>
<path fill="none" stroke="#63b8ff" d="M740.85,-135.43C763.71,-132.98 788.15,-130.35 809.31,-128.08"/>
<polygon fill="#63b8ff" stroke="#63b8ff" points="809.63,-131.57 819.2,-127.02 808.88,-124.61 809.63,-131.57"/>
</g>
<!-- Node7 -->
<g id="node7" class="node">
<title>Node7</title>
<g id="a_node7"><a xlink:href="classCodeFocusHandler.html#a490e77f69ddbfb9839de943c88817683" target="_top" xlink:title=" ">
<polygon fill="white" stroke="#666666" points="1127,-193.5 987,-193.5 987,-174.5 1127,-174.5 1127,-193.5"/>
<text text-anchor="middle" x="1057" y="-181.5" font-family="Helvetica,sans-Serif" font-size="10.00">CodeFocusHandler::focus</text>
</a>
</g>
</g>
<!-- Node6&#45;&gt;Node7 -->
<g id="edge6" class="edge">
<title>Node6&#45;&gt;Node7</title>
<path fill="none" stroke="#63b8ff" d="M951.28,-173.42C959.2,-174.22 967.22,-175.03 975.12,-175.83"/>
<polygon fill="#63b8ff" stroke="#63b8ff" points="974.76,-179.31 985.06,-176.83 975.46,-172.34 974.76,-179.31"/>
</g>
<!-- Node9 -->
<g id="node9" class="node">
<title>Node9</title>
<g id="a_node9"><a xlink:href="classCodeFocusHandler.html#a6cba54f52c7627d75c0846ed76d88957" target="_top" xlink:title=" ">
<polygon fill="white" stroke="#666666" points="1327,-180 1163,-180 1163,-150 1327,-150 1327,-180"/>
<text text-anchor="start" x="1171" y="-168" font-family="Helvetica,sans-Serif" font-size="10.00">CodeFocusHandler::setCurrent</text>
<text text-anchor="middle" x="1245" y="-157" font-family="Helvetica,sans-Serif" font-size="10.00">Focus</text>
</a>
</g>
</g>
<!-- Node6&#45;&gt;Node9 -->
<g id="edge14" class="edge">
<title>Node6&#45;&gt;Node9</title>
<path fill="none" stroke="#63b8ff" d="M951.45,-165C1010.72,-165 1090.31,-165 1151.52,-165"/>
<polygon fill="#63b8ff" stroke="#63b8ff" points="1151.21,-168.5 1161.21,-165 1151.21,-161.5 1151.21,-168.5"/>
</g>
<!-- Node8 -->
<g id="node8" class="node">
<title>Node8</title>
<g id="a_node8"><a xlink:href="structCodeFocusHandler_1_1Focus.html#acb42596bc1f6572b7b8b396db1280bf3" target="_top" xlink:title=" ">
<polygon fill="white" stroke="#666666" points="1315.5,-228 1174.5,-228 1174.5,-198 1315.5,-198 1315.5,-228"/>
<text text-anchor="start" x="1182.5" y="-216" font-family="Helvetica,sans-Serif" font-size="10.00">CodeFocusHandler::Focus</text>
<text text-anchor="middle" x="1245" y="-205" font-family="Helvetica,sans-Serif" font-size="10.00">::isEmpty</text>
</a>
</g>
</g>
<!-- Node7&#45;&gt;Node8 -->
<g id="edge7" class="edge">
<title>Node7&#45;&gt;Node8</title>
<path fill="none" stroke="#63b8ff" d="M1122.01,-193.98C1135.15,-196.03 1149.14,-198.21 1162.79,-200.34"/>
<polygon fill="#63b8ff" stroke="#63b8ff" points="1162.23,-203.79 1172.65,-201.88 1163.31,-196.88 1162.23,-203.79"/>
</g>
<!-- Node7&#45;&gt;Node9 -->
<g id="edge8" class="edge">
<title>Node7&#45;&gt;Node9</title>
<path fill="none" stroke="#63b8ff" d="M1099.28,-174.06C1114.79,-171.79 1133.11,-169.57 1151.42,-167.71"/>
<polygon fill="#63b8ff" stroke="#63b8ff" points="1151.67,-171.2 1161.28,-166.74 1150.99,-164.23 1151.67,-171.2"/>
</g>
<!-- Node9&#45;&gt;Node7 -->
<g id="edge12" class="edge">
<title>Node9&#45;&gt;Node7</title>
<path fill="none" stroke="#63b8ff" d="M1162.76,-180C1154.71,-180.89 1146.55,-181.72 1138.51,-182.47"/>
<polygon fill="#63b8ff" stroke="#63b8ff" points="1138.42,-178.97 1128.77,-183.34 1139.04,-185.94 1138.42,-178.97"/>
</g>
<!-- Node10 -->
<g id="node10" class="node">
<title>Node10</title>
<g id="a_node10"><a xlink:href="classMessage.html#aa60564025ee950bf52c8deb6ac1bb843" target="_top" xlink:title=" ">
<polygon fill="white" stroke="#666666" points="1490,-196.5 1383,-196.5 1383,-177.5 1490,-177.5 1490,-196.5"/>
<text text-anchor="middle" x="1436.5" y="-184.5" font-family="Helvetica,sans-Serif" font-size="10.00">Message::dispatch</text>
</a>
</g>
</g>
<!-- Node9&#45;&gt;Node10 -->
<g id="edge9" class="edge">
<title>Node9&#45;&gt;Node10</title>
<path fill="none" stroke="#63b8ff" d="M1327.46,-174.46C1342.19,-176.17 1357.35,-177.93 1371.48,-179.57"/>
<polygon fill="#63b8ff" stroke="#63b8ff" points="1370.73,-183 1381.07,-180.68 1371.54,-176.05 1370.73,-183"/>
</g>
<!-- Node13 -->
<g id="node13" class="node">
<title>Node13</title>
<g id="a_node13"><a xlink:href="classCodeFocusHandler.html#a06f799c6b1b33d77618fc5150f06b32e" target="_top" xlink:title=" ">
<polygon fill="white" stroke="#666666" points="1510,-159 1363,-159 1363,-129 1510,-129 1510,-159"/>
<text text-anchor="start" x="1371" y="-147" font-family="Helvetica,sans-Serif" font-size="10.00">CodeFocusHandler::update</text>
<text text-anchor="middle" x="1436.5" y="-136" font-family="Helvetica,sans-Serif" font-size="10.00">Files</text>
</a>
</g>
</g>
<!-- Node9&#45;&gt;Node13 -->
<g id="edge13" class="edge">
<title>Node9&#45;&gt;Node13</title>
<path fill="none" stroke="#63b8ff" d="M1327.46,-155.97C1335.44,-155.09 1343.55,-154.19 1351.55,-153.3"/>
<polygon fill="#63b8ff" stroke="#63b8ff" points="1351.71,-156.81 1361.26,-152.23 1350.94,-149.85 1351.71,-156.81"/>
</g>
<!-- Node11 -->
<g id="node11" class="node">
<title>Node11</title>
<g id="a_node11"><a xlink:href="classMessageQueue.html#ae42d768ad6ffd631d627fe101e38f711" target="_top" xlink:title=" ">
<polygon fill="white" stroke="#666666" points="1701,-196.5 1546,-196.5 1546,-177.5 1701,-177.5 1701,-196.5"/>
<text text-anchor="middle" x="1623.5" y="-184.5" font-family="Helvetica,sans-Serif" font-size="10.00">MessageQueue::getInstance</text>
</a>
</g>
</g>
<!-- Node10&#45;&gt;Node11 -->
<g id="edge10" class="edge">
<title>Node10&#45;&gt;Node11</title>
<path fill="none" stroke="#63b8ff" d="M1490.02,-187C1503.81,-187 1519.07,-187 1534.18,-187"/>
<polygon fill="#63b8ff" stroke="#63b8ff" points="1534.16,-190.5 1544.16,-187 1534.16,-183.5 1534.16,-190.5"/>
</g>
<!-- Node12 -->
<g id="node12" class="node">
<title>Node12</title>
<g id="a_node12"><a xlink:href="classMessageQueue.html#a006069f4b83d2372c989c52784fac5de" target="_top" xlink:title=" ">
<polygon fill="white" stroke="#666666" points="1910,-196.5 1737,-196.5 1737,-177.5 1910,-177.5 1910,-196.5"/>
<text text-anchor="middle" x="1823.5" y="-184.5" font-family="Helvetica,sans-Serif" font-size="10.00">MessageQueue::MessageQueue</text>
</a>
</g>
</g>
<!-- Node11&#45;&gt;Node12 -->
<g id="edge11" class="edge">
<title>Node11&#45;&gt;Node12</title>
<path fill="none" stroke="#63b8ff" d="M1701.34,-187C1709.17,-187 1717.19,-187 1725.21,-187"/>
<polygon fill="#63b8ff" stroke="#63b8ff" points="1724.99,-190.5 1734.99,-187 1724.99,-183.5 1724.99,-190.5"/>
</g>
<!-- Node16&#45;&gt;Node5 -->
<g id="edge18" class="edge">
<title>Node16&#45;&gt;Node5</title>
<path fill="none" stroke="#63b8ff" d="M513.54,-91.91C521.58,-94.11 529.61,-96.78 537,-100 554.86,-107.78 555.15,-117.2 573,-125 578.12,-127.24 583.54,-129.23 589.05,-130.99"/>
<polygon fill="#63b8ff" stroke="#63b8ff" points="587.71,-134.24 598.29,-133.68 589.67,-127.52 587.71,-134.24"/>
</g>
<!-- Node16&#45;&gt;Node15 -->
<g id="edge20" class="edge">
<title>Node16&#45;&gt;Node15</title>
<path fill="none" stroke="#63b8ff" d="M537.38,-89.7C549.38,-90.82 561.75,-91.96 573.79,-93.08"/>
<polygon fill="#63b8ff" stroke="#63b8ff" points="573.43,-96.56 583.71,-94 574.08,-89.59 573.43,-96.56"/>
</g>
<!-- Node17 -->
<g id="node17" class="node">
<title>Node17</title>
<g id="a_node17"><a xlink:href="classQtCodeField.html#af19a184b253c2fdac253c19a66056281" target="_top" xlink:title=" ">
<polygon fill="white" stroke="#666666" points="747,-67.5 573,-67.5 573,-48.5 747,-48.5 747,-67.5"/>
<text text-anchor="middle" x="660" y="-55.5" font-family="Helvetica,sans-Serif" font-size="10.00">QtCodeField::getEndLineNumber</text>
</a>
</g>
</g>
<!-- Node16&#45;&gt;Node17 -->
<g id="edge19" class="edge">
<title>Node16&#45;&gt;Node17</title>
<path fill="none" stroke="#63b8ff" d="M537.38,-72.27C545.68,-71.3 554.15,-70.3 562.57,-69.32"/>
<polygon fill="#63b8ff" stroke="#63b8ff" points="562.98,-72.79 572.5,-68.15 562.16,-65.84 562.98,-72.79"/>
</g>
<!-- Node18 -->
<g id="node18" class="node">
<title>Node18</title>
<g id="a_node18"><a xlink:href="classQtCodeField.html#a65485f01f783ed6b80e414657ed7816a" target="_top" xlink:title=" ">
<polygon fill="white" stroke="#666666" points="730,-30 590,-30 590,0 730,0 730,-30"/>
<text text-anchor="start" x="598" y="-18" font-family="Helvetica,sans-Serif" font-size="10.00">QtCodeField::getStartLine</text>
<text text-anchor="middle" x="660" y="-7" font-family="Helvetica,sans-Serif" font-size="10.00">Number</text>
</a>
</g>
</g>
<!-- Node16&#45;&gt;Node18 -->
<g id="edge21" class="edge">
<title>Node16&#45;&gt;Node18</title>
<path fill="none" stroke="#63b8ff" d="M480.2,-72.04C504.07,-62.93 540.7,-49.35 573,-39 578.72,-37.17 584.68,-35.34 590.67,-33.56"/>
<polygon fill="#63b8ff" stroke="#63b8ff" points="591.39,-36.99 600,-30.83 589.42,-30.28 591.39,-36.99"/>
</g>
</g>
</svg>
