<?xml version="1.0" encoding="UTF-8" standalone="no"?>
<!DOCTYPE svg PUBLIC "-//W3C//DTD SVG 1.1//EN"
 "http://www.w3.org/Graphics/SVG/1.1/DTD/svg11.dtd">
<!-- Generated by graphviz version 9.0.0 (0)
 -->
<!-- Title: QtProgressBarDialog::resizeEvent Pages: 1 -->
<svg width="297pt" height="94pt"
 viewBox="0.00 0.00 297.25 93.50" xmlns="http://www.w3.org/2000/svg" xmlns:xlink="http://www.w3.org/1999/xlink">
<g id="graph0" class="graph" transform="scale(1 1) rotate(0) translate(4 89.5)">
<title>QtProgressBarDialog::resizeEvent</title>
<!-- Node1 -->
<g id="Node000001" class="node">
<title>Node1</title>
<g id="a_Node000001"><a xlink:title=" ">
<polygon fill="#999999" stroke="#666666" points="117.25,-59.5 0,-59.5 0,-26 117.25,-26 117.25,-59.5"/>
<text text-anchor="start" x="8" y="-46" font-family="Helvetica,sans-Serif" font-size="10.00">QtProgressBarDialog</text>
<text text-anchor="middle" x="58.62" y="-33.25" font-family="Helvetica,sans-Serif" font-size="10.00">::resizeEvent</text>
</a>
</g>
</g>
<!-- Node2 -->
<g id="Node000002" class="node">
<title>Node2</title>
<g id="a_Node000002"><a xlink:href="classQtIndexingDialog.html#a0e730d802eda4bed14bc47c5a5da1bd4" target="_top" xlink:title=" ">
<polygon fill="white" stroke="#666666" points="289.25,-85.5 153.25,-85.5 153.25,-52 289.25,-52 289.25,-85.5"/>
<text text-anchor="start" x="161.25" y="-72" font-family="Helvetica,sans-Serif" font-size="10.00">QtIndexingDialog::resize</text>
<text text-anchor="middle" x="221.25" y="-59.25" font-family="Helvetica,sans-Serif" font-size="10.00">Event</text>
</a>
</g>
</g>
<!-- Node1&#45;&gt;Node2 -->
<g id="edge1_Node000001_Node000002" class="edge">
<title>Node1&#45;&gt;Node2</title>
<g id="a_edge1_Node000001_Node000002"><a xlink:title=" ">
<path fill="none" stroke="#63b8ff" d="M117.61,-52.14C125.37,-53.39 133.43,-54.7 141.47,-56"/>
<polygon fill="#63b8ff" stroke="#63b8ff" points="140.86,-59.44 151.29,-57.59 141.98,-52.53 140.86,-59.44"/>
</a>
</g>
</g>
<!-- Node3 -->
<g id="Node000003" class="node">
<title>Node3</title>
<g id="a_Node000003"><a xlink:href="classQtProgressBarDialog.html#adfea6e8db89c0d3f1c1f2470f73411b4" target="_top" xlink:title=" ">
<polygon fill="white" stroke="#666666" points="279.88,-33.5 162.62,-33.5 162.62,0 279.88,0 279.88,-33.5"/>
<text text-anchor="start" x="170.62" y="-20" font-family="Helvetica,sans-Serif" font-size="10.00">QtProgressBarDialog</text>
<text text-anchor="middle" x="221.25" y="-7.25" font-family="Helvetica,sans-Serif" font-size="10.00">::setGeometries</text>
</a>
</g>
</g>
<!-- Node1&#45;&gt;Node3 -->
<g id="edge2_Node000001_Node000003" class="edge">
<title>Node1&#45;&gt;Node3</title>
<g id="a_edge2_Node000001_Node000003"><a xlink:title=" ">
<path fill="none" stroke="#63b8ff" d="M117.61,-33.36C128.53,-31.6 140.05,-29.73 151.26,-27.92"/>
<polygon fill="#63b8ff" stroke="#63b8ff" points="151.54,-31.42 160.85,-26.36 150.42,-24.51 151.54,-31.42"/>
</a>
</g>
</g>
</g>
</svg>
