<?xml version="1.0" encoding="UTF-8" standalone="no"?>
<!DOCTYPE svg PUBLIC "-//W3C//DTD SVG 1.1//EN"
 "http://www.w3.org/Graphics/SVG/1.1/DTD/svg11.dtd">
<!-- Generated by graphviz version 9.0.0 (0)
 -->
<!-- Title: QtGraphNode::updateStyle Pages: 1 -->
<svg width="1985pt" height="621pt"
 viewBox="0.00 0.00 1985.25 621.19" xmlns="http://www.w3.org/2000/svg" xmlns:xlink="http://www.w3.org/1999/xlink">
<g id="graph0" class="graph" transform="scale(1 1) rotate(0) translate(4 617.19)">
<title>QtGraphNode::updateStyle</title>
<!-- Node1 -->
<g id="Node000001" class="node">
<title>Node1</title>
<g id="a_Node000001"><a xlink:title=" ">
<polygon fill="#999999" stroke="#666666" points="1977.25,-186.81 1830.75,-186.81 1830.75,-166.06 1977.25,-166.06 1977.25,-186.81"/>
<text text-anchor="middle" x="1904" y="-173.31" font-family="Helvetica,sans-Serif" font-size="10.00">QtGraphNode::updateStyle</text>
</a>
</g>
</g>
<!-- Node2 -->
<g id="Node000002" class="node">
<title>Node2</title>
<g id="a_Node000002"><a xlink:href="classQtGraphNode.html#a444bacafe53f537080812ad92a59f9cb" target="_top" xlink:title=" ">
<polygon fill="white" stroke="#666666" points="1770.38,-281.81 1634.38,-281.81 1634.38,-261.06 1770.38,-261.06 1770.38,-281.81"/>
<text text-anchor="middle" x="1702.38" y="-268.31" font-family="Helvetica,sans-Serif" font-size="10.00">QtGraphNode::coFocusIn</text>
</a>
</g>
</g>
<!-- Node1&#45;&gt;Node2 -->
<g id="edge1_Node000001_Node000002" class="edge">
<title>Node1&#45;&gt;Node2</title>
<g id="a_edge1_Node000001_Node000002"><a xlink:title=" ">
<path fill="none" stroke="#63b8ff" d="M1876.53,-193.33C1855.03,-206.62 1823.63,-225.07 1794.75,-238.44 1776.38,-246.94 1755.16,-254.72 1737.79,-260.59"/>
<polygon fill="#63b8ff" stroke="#63b8ff" points="1878.33,-196.33 1884.96,-188.06 1874.62,-190.39 1878.33,-196.33"/>
</a>
</g>
</g>
<!-- Node8 -->
<g id="Node000008" class="node">
<title>Node8</title>
<g id="a_Node000008"><a xlink:href="classQtGraphNode.html#a8ac7c94742c5108f9d85b1ac6ad2eb37" target="_top" xlink:title=" ">
<polygon fill="white" stroke="#666666" points="1559,-262.81 1408,-262.81 1408,-242.06 1559,-242.06 1559,-262.81"/>
<text text-anchor="middle" x="1483.5" y="-249.31" font-family="Helvetica,sans-Serif" font-size="10.00">QtGraphNode::setIsFocused</text>
</a>
</g>
</g>
<!-- Node1&#45;&gt;Node8 -->
<g id="edge51_Node000001_Node000008" class="edge">
<title>Node1&#45;&gt;Node8</title>
<g id="a_edge51_Node000001_Node000008"><a xlink:title=" ">
<path fill="none" stroke="#63b8ff" d="M1832.41,-189.26C1751.47,-203.96 1620.19,-227.8 1544.15,-241.61"/>
<polygon fill="#63b8ff" stroke="#63b8ff" points="1832.78,-192.75 1841.99,-187.52 1831.53,-185.86 1832.78,-192.75"/>
</a>
</g>
</g>
<!-- Node31 -->
<g id="Node000031" class="node">
<title>Node31</title>
<g id="a_Node000031"><a xlink:href="classQtGraphNode.html#a878aa40b969853e02f85a35b8281bbf1" target="_top" xlink:title=" ">
<polygon fill="white" stroke="#666666" points="1774.5,-186.81 1630.25,-186.81 1630.25,-166.06 1774.5,-166.06 1774.5,-186.81"/>
<text text-anchor="middle" x="1702.38" y="-173.31" font-family="Helvetica,sans-Serif" font-size="10.00">QtGraphNode::coFocusOut</text>
</a>
</g>
</g>
<!-- Node1&#45;&gt;Node31 -->
<g id="edge42_Node000001_Node000031" class="edge">
<title>Node1&#45;&gt;Node31</title>
<g id="a_edge42_Node000001_Node000031"><a xlink:title=" ">
<path fill="none" stroke="#63b8ff" d="M1819.22,-176.44C1804.5,-176.44 1789.3,-176.44 1774.95,-176.44"/>
<polygon fill="#63b8ff" stroke="#63b8ff" points="1818.85,-179.94 1828.85,-176.44 1818.85,-172.94 1818.85,-179.94"/>
</a>
</g>
</g>
<!-- Node33 -->
<g id="Node000033" class="node">
<title>Node33</title>
<g id="a_Node000033"><a xlink:href="classQtGraphNode.html#aef86faa7b2b1ebc22f33087cd67d47d6" target="_top" xlink:title=" ">
<polygon fill="white" stroke="#666666" points="1557.5,-91.81 1409.5,-91.81 1409.5,-71.06 1557.5,-71.06 1557.5,-91.81"/>
<text text-anchor="middle" x="1483.5" y="-78.31" font-family="Helvetica,sans-Serif" font-size="10.00">QtGraphNode::matchName</text>
</a>
</g>
</g>
<!-- Node1&#45;&gt;Node33 -->
<g id="edge46_Node000001_Node000033" class="edge">
<title>Node1&#45;&gt;Node33</title>
<g id="a_edge46_Node000001_Node000033"><a xlink:title=" ">
<path fill="none" stroke="#63b8ff" d="M1844.34,-163.12C1760.88,-144.18 1609.47,-109.81 1532.38,-92.31"/>
<polygon fill="#63b8ff" stroke="#63b8ff" points="1843.4,-166.5 1853.92,-165.3 1844.95,-159.67 1843.4,-166.5"/>
</a>
</g>
</g>
<!-- Node35 -->
<g id="Node000035" class="node">
<title>Node35</title>
<g id="a_Node000035"><a xlink:href="classQtGraphNode.html#ad0ee8bb079bf535f555216b5db3942bc" target="_top" xlink:title=" ">
<polygon fill="white" stroke="#666666" points="1794.75,-96.81 1610,-96.81 1610,-76.06 1794.75,-76.06 1794.75,-96.81"/>
<text text-anchor="middle" x="1702.38" y="-83.31" font-family="Helvetica,sans-Serif" font-size="10.00">QtGraphNode::removeNameMatch</text>
</a>
</g>
</g>
<!-- Node1&#45;&gt;Node35 -->
<g id="edge49_Node000001_Node000035" class="edge">
<title>Node1&#45;&gt;Node35</title>
<g id="a_edge49_Node000001_Node000035"><a xlink:title=" ">
<path fill="none" stroke="#63b8ff" d="M1874.82,-160.22C1853.28,-148.17 1822.64,-131.75 1794.75,-119.44 1775.92,-111.13 1754.29,-103.25 1736.8,-97.27"/>
<polygon fill="#63b8ff" stroke="#63b8ff" points="1872.87,-163.14 1883.29,-165.01 1876.31,-157.04 1872.87,-163.14"/>
</a>
</g>
</g>
<!-- Node3 -->
<g id="Node000003" class="node">
<title>Node3</title>
<g id="a_Node000003"><a xlink:href="classQtGraphView.html#aba78bac30fdfe1bcf8417cf8ea992cf9" target="_top" xlink:title=" ">
<polygon fill="white" stroke="#666666" points="1567.25,-490.81 1399.75,-490.81 1399.75,-470.06 1567.25,-470.06 1567.25,-490.81"/>
<text text-anchor="middle" x="1483.5" y="-477.31" font-family="Helvetica,sans-Serif" font-size="10.00">QtGraphView::coFocusTokenIds</text>
</a>
</g>
</g>
<!-- Node2&#45;&gt;Node3 -->
<g id="edge2_Node000002_Node000003" class="edge">
<title>Node2&#45;&gt;Node3</title>
<g id="a_edge2_Node000002_Node000003"><a xlink:title=" ">
<path fill="none" stroke="#63b8ff" d="M1692.73,-292.72C1675.89,-331.45 1634.91,-413.42 1574,-456.44 1566.12,-462.01 1557.01,-466.28 1547.69,-469.57"/>
<polygon fill="#63b8ff" stroke="#63b8ff" points="1695.93,-294.15 1696.59,-283.57 1689.48,-291.42 1695.93,-294.15"/>
</a>
</g>
</g>
<!-- Node4 -->
<g id="Node000004" class="node">
<title>Node4</title>
<g id="a_Node000004"><a xlink:href="classQtGraphNode.html#a96dfaf23a65835ca4f0b675c0fbf4885" target="_top" xlink:title=" ">
<polygon fill="white" stroke="#666666" points="949.62,-543.81 826.38,-543.81 826.38,-523.06 949.62,-523.06 949.62,-543.81"/>
<text text-anchor="middle" x="888" y="-530.31" font-family="Helvetica,sans-Serif" font-size="10.00">QtGraphNode::focusIn</text>
</a>
</g>
</g>
<!-- Node2&#45;&gt;Node4 -->
<g id="edge3_Node000002_Node000004" class="edge">
<title>Node2&#45;&gt;Node4</title>
<g id="a_edge3_Node000002_Node000004"><a xlink:title=" ">
<path fill="none" stroke="#63b8ff" d="M1661.21,-286.07C1551.61,-325.71 1237.83,-437.3 971.75,-513.44 960.52,-516.65 948.35,-519.78 936.87,-522.58"/>
<polygon fill="#63b8ff" stroke="#63b8ff" points="1662.13,-289.46 1670.34,-282.76 1659.75,-282.88 1662.13,-289.46"/>
</a>
</g>
</g>
<!-- Node2&#45;&gt;Node8 -->
<g id="edge7_Node000002_Node000008" class="edge">
<title>Node2&#45;&gt;Node8</title>
<g id="a_edge7_Node000002_Node000008"><a xlink:title=" ">
<path fill="none" stroke="#63b8ff" d="M1622.67,-264.54C1602.04,-262.74 1579.87,-260.79 1559.44,-259"/>
<polygon fill="#63b8ff" stroke="#63b8ff" points="1622.17,-268.01 1632.44,-265.4 1622.78,-261.04 1622.17,-268.01"/>
</a>
</g>
</g>
<!-- Node5 -->
<g id="Node000005" class="node">
<title>Node5</title>
<g id="a_Node000005"><a xlink:href="classQtGraphNodeBundle.html#a1b9c345c26f03f1c081deadeee3e71c4" target="_top" xlink:title=" ">
<polygon fill="white" stroke="#666666" points="746.88,-613.19 625.12,-613.19 625.12,-579.69 746.88,-579.69 746.88,-613.19"/>
<text text-anchor="start" x="633.12" y="-599.69" font-family="Helvetica,sans-Serif" font-size="10.00">QtGraphNodeBundle::</text>
<text text-anchor="middle" x="686" y="-586.94" font-family="Helvetica,sans-Serif" font-size="10.00">hoverEnterEvent</text>
</a>
</g>
</g>
<!-- Node4&#45;&gt;Node5 -->
<g id="edge4_Node000004_Node000005" class="edge">
<title>Node4&#45;&gt;Node5</title>
<g id="a_edge4_Node000004_Node000005"><a xlink:title=" ">
<path fill="none" stroke="#63b8ff" d="M841.73,-547.7C812.04,-557.05 773.05,-569.33 741.64,-579.23"/>
<polygon fill="#63b8ff" stroke="#63b8ff" points="842.69,-551.07 851.18,-544.72 840.59,-544.39 842.69,-551.07"/>
</a>
</g>
</g>
<!-- Node6 -->
<g id="Node000006" class="node">
<title>Node6</title>
<g id="a_Node000006"><a xlink:href="classQtGraphNodeData.html#a6e42e0e293fe837eafbc1425675bdc3b" target="_top" xlink:title=" ">
<polygon fill="white" stroke="#666666" points="768.25,-561.19 603.75,-561.19 603.75,-527.69 768.25,-527.69 768.25,-561.19"/>
<text text-anchor="start" x="611.75" y="-547.69" font-family="Helvetica,sans-Serif" font-size="10.00">QtGraphNodeData::hoverEnter</text>
<text text-anchor="middle" x="686" y="-534.94" font-family="Helvetica,sans-Serif" font-size="10.00">Event</text>
</a>
</g>
</g>
<!-- Node4&#45;&gt;Node6 -->
<g id="edge5_Node000004_Node000006" class="edge">
<title>Node4&#45;&gt;Node6</title>
<g id="a_edge5_Node000004_Node000006"><a xlink:title=" ">
<path fill="none" stroke="#63b8ff" d="M814.69,-537.41C799.77,-538.24 783.95,-539.11 768.72,-539.94"/>
<polygon fill="#63b8ff" stroke="#63b8ff" points="814.6,-540.93 824.4,-536.88 814.22,-533.94 814.6,-540.93"/>
</a>
</g>
</g>
<!-- Node7 -->
<g id="Node000007" class="node">
<title>Node7</title>
<g id="a_Node000007"><a xlink:href="classQtGraphNodeGroup.html#a1686bcf376f64191ae312842e178dfa0" target="_top" xlink:title=" ">
<polygon fill="white" stroke="#666666" points="357.5,-490.19 185.5,-490.19 185.5,-456.69 357.5,-456.69 357.5,-490.19"/>
<text text-anchor="start" x="193.5" y="-476.69" font-family="Helvetica,sans-Serif" font-size="10.00">QtGraphNodeGroup::hoverMove</text>
<text text-anchor="middle" x="271.5" y="-463.94" font-family="Helvetica,sans-Serif" font-size="10.00">Event</text>
</a>
</g>
</g>
<!-- Node4&#45;&gt;Node7 -->
<g id="edge6_Node000004_Node000007" class="edge">
<title>Node4&#45;&gt;Node7</title>
<g id="a_edge6_Node000004_Node000007"><a xlink:title=" ">
<path fill="none" stroke="#63b8ff" d="M814.97,-523.93C799.57,-522.01 783.38,-520.08 768.25,-518.44 624.34,-502.82 456.52,-488.38 357.68,-480.25"/>
<polygon fill="#63b8ff" stroke="#63b8ff" points="814.17,-527.35 824.52,-525.13 815.04,-520.41 814.17,-527.35"/>
</a>
</g>
</g>
<!-- Node9 -->
<g id="Node000009" class="node">
<title>Node9</title>
<g id="a_Node000009"><a xlink:href="classGraphFocusHandler.html#a4653bb85bb8c819d6cbf63165ffc48a6" target="_top" xlink:title=" ">
<polygon fill="white" stroke="#666666" points="1317.62,-362.19 1200.38,-362.19 1200.38,-328.69 1317.62,-328.69 1317.62,-362.19"/>
<text text-anchor="start" x="1208.38" y="-348.69" font-family="Helvetica,sans-Serif" font-size="10.00">GraphFocusHandler::</text>
<text text-anchor="middle" x="1259" y="-335.94" font-family="Helvetica,sans-Serif" font-size="10.00">defocusGraph</text>
</a>
</g>
</g>
<!-- Node8&#45;&gt;Node9 -->
<g id="edge8_Node000008_Node000009" class="edge">
<title>Node8&#45;&gt;Node9</title>
<g id="a_edge8_Node000008_Node000009"><a xlink:title=" ">
<path fill="none" stroke="#63b8ff" d="M1451.43,-268.13C1426.28,-280.57 1389.76,-298.04 1357,-311.44 1342.63,-317.32 1326.83,-323.13 1312.22,-328.23"/>
<polygon fill="#63b8ff" stroke="#63b8ff" points="1452.73,-271.4 1460.12,-263.81 1449.61,-265.13 1452.73,-271.4"/>
</a>
</g>
</g>
<!-- Node16 -->
<g id="Node000016" class="node">
<title>Node16</title>
<g id="a_Node000016"><a xlink:href="classGraphFocusHandler.html#ad9e00608dea5cea39a86af20cde71c8f" target="_top" xlink:title=" ">
<polygon fill="white" stroke="#666666" points="1125,-362.19 1007.75,-362.19 1007.75,-328.69 1125,-328.69 1125,-362.19"/>
<text text-anchor="start" x="1015.75" y="-348.69" font-family="Helvetica,sans-Serif" font-size="10.00">GraphFocusHandler::</text>
<text text-anchor="middle" x="1066.38" y="-335.94" font-family="Helvetica,sans-Serif" font-size="10.00">focusNode</text>
</a>
</g>
</g>
<!-- Node8&#45;&gt;Node16 -->
<g id="edge38_Node000008_Node000016" class="edge">
<title>Node8&#45;&gt;Node16</title>
<g id="a_edge38_Node000008_Node000016"><a xlink:title=" ">
<path fill="none" stroke="#63b8ff" d="M1413.78,-265.41C1348.49,-278.05 1247.68,-298.39 1161,-319.44 1149.36,-322.26 1136.98,-325.52 1125.15,-328.76"/>
<polygon fill="#63b8ff" stroke="#63b8ff" points="1414.11,-268.91 1423.26,-263.58 1412.78,-262.04 1414.11,-268.91"/>
</a>
</g>
</g>
<!-- Node23 -->
<g id="Node000023" class="node">
<title>Node23</title>
<g id="a_Node000023"><a xlink:href="classGraphFocusHandler.html#a23bde4bc06de32d23cf858fc56532b0f" target="_top" xlink:title=" ">
<polygon fill="white" stroke="#666666" points="744.62,-265.19 627.38,-265.19 627.38,-231.69 744.62,-231.69 744.62,-265.19"/>
<text text-anchor="start" x="635.38" y="-251.69" font-family="Helvetica,sans-Serif" font-size="10.00">GraphFocusHandler::</text>
<text text-anchor="middle" x="686" y="-238.94" font-family="Helvetica,sans-Serif" font-size="10.00">focus</text>
</a>
</g>
</g>
<!-- Node8&#45;&gt;Node23 -->
<g id="edge37_Node000008_Node000023" class="edge">
<title>Node8&#45;&gt;Node23</title>
<g id="a_edge37_Node000008_Node000023"><a xlink:title=" ">
<path fill="none" stroke="#63b8ff" d="M1396.25,-252C1233.15,-251.18 883.5,-249.43 745.11,-248.73"/>
<polygon fill="#63b8ff" stroke="#63b8ff" points="1396.13,-255.5 1406.15,-252.05 1396.17,-248.5 1396.13,-255.5"/>
</a>
</g>
</g>
<!-- Node30 -->
<g id="Node000030" class="node">
<title>Node30</title>
<g id="a_Node000030"><a xlink:href="classGraphFocusHandler.html#a0bf4a1bd40d15224ced301c765820538" target="_top" xlink:title=" ">
<polygon fill="white" stroke="#666666" points="946.62,-147.19 829.38,-147.19 829.38,-113.69 946.62,-113.69 946.62,-147.19"/>
<text text-anchor="start" x="837.38" y="-133.69" font-family="Helvetica,sans-Serif" font-size="10.00">GraphFocusHandler::</text>
<text text-anchor="middle" x="888" y="-120.94" font-family="Helvetica,sans-Serif" font-size="10.00">refocusNode</text>
</a>
</g>
</g>
<!-- Node8&#45;&gt;Node30 -->
<g id="edge39_Node000008_Node000030" class="edge">
<title>Node8&#45;&gt;Node30</title>
<g id="a_edge39_Node000008_Node000030"><a xlink:title=" ">
<path fill="none" stroke="#63b8ff" d="M1418.66,-239.32C1302.49,-215.44 1058.28,-165.23 946.76,-142.31"/>
<polygon fill="#63b8ff" stroke="#63b8ff" points="1417.85,-242.72 1428.35,-241.31 1419.26,-235.86 1417.85,-242.72"/>
</a>
</g>
</g>
<!-- Node10 -->
<g id="Node000010" class="node">
<title>Node10</title>
<g id="a_Node000010"><a xlink:href="classGraphFocusHandler.html#a21becae068ca09cf53afec45b1c097eb" target="_top" xlink:title=" ">
<polygon fill="white" stroke="#666666" points="1125,-414.19 1007.75,-414.19 1007.75,-380.69 1125,-380.69 1125,-414.19"/>
<text text-anchor="start" x="1015.75" y="-400.69" font-family="Helvetica,sans-Serif" font-size="10.00">GraphFocusHandler::</text>
<text text-anchor="middle" x="1066.38" y="-387.94" font-family="Helvetica,sans-Serif" font-size="10.00">focusEdge</text>
</a>
</g>
</g>
<!-- Node9&#45;&gt;Node10 -->
<g id="edge9_Node000009_Node000010" class="edge">
<title>Node9&#45;&gt;Node10</title>
<g id="a_edge9_Node000009_Node000010"><a xlink:title=" ">
<path fill="none" stroke="#63b8ff" d="M1188.99,-364.26C1168.13,-369.95 1145.46,-376.14 1125.4,-381.61"/>
<polygon fill="#63b8ff" stroke="#63b8ff" points="1189.84,-367.66 1198.57,-361.65 1188,-360.9 1189.84,-367.66"/>
</a>
</g>
</g>
<!-- Node9&#45;&gt;Node16 -->
<g id="edge15_Node000009_Node000016" class="edge">
<title>Node9&#45;&gt;Node16</title>
<g id="a_edge15_Node000009_Node000016"><a xlink:title=" ">
<path fill="none" stroke="#63b8ff" d="M1188.7,-345.44C1167.93,-345.44 1145.37,-345.44 1125.4,-345.44"/>
<polygon fill="#63b8ff" stroke="#63b8ff" points="1188.52,-348.94 1198.52,-345.44 1188.52,-341.94 1188.52,-348.94"/>
</a>
</g>
</g>
<!-- Node11 -->
<g id="Node000011" class="node">
<title>Node11</title>
<g id="a_Node000011"><a xlink:href="classGraphFocusHandler.html#a8fec5ef0de550176b76a50fb14b7dd93" target="_top" xlink:title=" ">
<polygon fill="white" stroke="#666666" points="946.62,-466.19 829.38,-466.19 829.38,-432.69 946.62,-432.69 946.62,-466.19"/>
<text text-anchor="start" x="837.38" y="-452.69" font-family="Helvetica,sans-Serif" font-size="10.00">GraphFocusHandler::</text>
<text text-anchor="middle" x="888" y="-439.94" font-family="Helvetica,sans-Serif" font-size="10.00">focusNext</text>
</a>
</g>
</g>
<!-- Node10&#45;&gt;Node11 -->
<g id="edge10_Node000010_Node000011" class="edge">
<title>Node10&#45;&gt;Node11</title>
<g id="a_edge10_Node000010_Node000011"><a xlink:title=" ">
<path fill="none" stroke="#63b8ff" d="M996.92,-417.62C980.39,-422.49 962.88,-427.66 946.88,-432.37"/>
<polygon fill="#63b8ff" stroke="#63b8ff" points="997.57,-421.08 1006.17,-414.89 995.59,-414.36 997.57,-421.08"/>
</a>
</g>
</g>
<!-- Node13 -->
<g id="Node000013" class="node">
<title>Node13</title>
<g id="a_Node000013"><a xlink:href="classGraphFocusHandler.html#a33039041d05ba7b34e10115aad175afd" target="_top" xlink:title=" ">
<polygon fill="white" stroke="#666666" points="946.62,-414.19 829.38,-414.19 829.38,-380.69 946.62,-380.69 946.62,-414.19"/>
<text text-anchor="start" x="837.38" y="-400.69" font-family="Helvetica,sans-Serif" font-size="10.00">GraphFocusHandler::</text>
<text text-anchor="middle" x="888" y="-387.94" font-family="Helvetica,sans-Serif" font-size="10.00">focusTokenId</text>
</a>
</g>
</g>
<!-- Node10&#45;&gt;Node13 -->
<g id="edge12_Node000010_Node000013" class="edge">
<title>Node10&#45;&gt;Node13</title>
<g id="a_edge12_Node000010_Node000013"><a xlink:title=" ">
<path fill="none" stroke="#63b8ff" d="M996.45,-397.44C980.06,-397.44 962.73,-397.44 946.88,-397.44"/>
<polygon fill="#63b8ff" stroke="#63b8ff" points="996.11,-400.94 1006.11,-397.44 996.11,-393.94 996.11,-400.94"/>
</a>
</g>
</g>
<!-- Node15 -->
<g id="Node000015" class="node">
<title>Node15</title>
<g id="a_Node000015"><a xlink:href="classQtGraphEdge.html#a9029db7f76290bd97102f54be1fec3bc" target="_top" xlink:title=" ">
<polygon fill="white" stroke="#666666" points="971.75,-504.81 804.25,-504.81 804.25,-484.06 971.75,-484.06 971.75,-504.81"/>
<text text-anchor="middle" x="888" y="-491.31" font-family="Helvetica,sans-Serif" font-size="10.00">QtGraphEdge::hoverEnterEvent</text>
</a>
</g>
</g>
<!-- Node10&#45;&gt;Node15 -->
<g id="edge14_Node000010_Node000015" class="edge">
<title>Node10&#45;&gt;Node15</title>
<g id="a_edge14_Node000010_Node000015"><a xlink:title=" ">
<path fill="none" stroke="#63b8ff" d="M1018.41,-420.45C1014.67,-422.95 1011.06,-425.62 1007.75,-428.44 987.72,-445.5 993.88,-461.21 971.75,-475.44 966.67,-478.71 961.09,-481.42 955.31,-483.66"/>
<polygon fill="#63b8ff" stroke="#63b8ff" points="1019.95,-423.61 1026.62,-415.38 1016.27,-417.66 1019.95,-423.61"/>
</a>
</g>
</g>
<!-- Node12 -->
<g id="Node000012" class="node">
<title>Node12</title>
<g id="a_Node000012"><a xlink:href="classQtGraphicsView.html#adf801883f60878e8684bfcf311eda9b2" target="_top" xlink:title=" ">
<polygon fill="white" stroke="#666666" points="757.75,-471.19 614.25,-471.19 614.25,-437.69 757.75,-437.69 757.75,-471.19"/>
<text text-anchor="start" x="622.25" y="-457.69" font-family="Helvetica,sans-Serif" font-size="10.00">QtGraphicsView::keyPress</text>
<text text-anchor="middle" x="686" y="-444.94" font-family="Helvetica,sans-Serif" font-size="10.00">Event</text>
</a>
</g>
</g>
<!-- Node11&#45;&gt;Node12 -->
<g id="edge11_Node000011_Node000012" class="edge">
<title>Node11&#45;&gt;Node12</title>
<g id="a_edge11_Node000011_Node000012"><a xlink:title=" ">
<path fill="none" stroke="#63b8ff" d="M817.47,-451.18C798.24,-451.66 777.35,-452.18 758.04,-452.66"/>
<polygon fill="#63b8ff" stroke="#63b8ff" points="817.46,-454.68 827.37,-450.93 817.29,-447.68 817.46,-454.68"/>
</a>
</g>
</g>
<!-- Node14 -->
<g id="Node000014" class="node">
<title>Node14</title>
<g id="a_Node000014"><a xlink:href="classQtGraphView.html#a71858975a5b07059726b0337d19fe296" target="_top" xlink:title=" ">
<polygon fill="white" stroke="#666666" points="149.5,-137.81 0,-137.81 0,-117.06 149.5,-117.06 149.5,-137.81"/>
<text text-anchor="middle" x="74.75" y="-124.31" font-family="Helvetica,sans-Serif" font-size="10.00">QtGraphView::rebuildGraph</text>
</a>
</g>
</g>
<!-- Node13&#45;&gt;Node14 -->
<g id="edge13_Node000013_Node000014" class="edge">
<title>Node13&#45;&gt;Node14</title>
<g id="a_edge13_Node000013_Node000014"><a xlink:title=" ">
<path fill="none" stroke="#63b8ff" d="M817.88,-410.34C720.18,-425.58 537.57,-442.98 393.5,-392.44 244.04,-340 116.31,-181.3 83.76,-138.29"/>
<polygon fill="#63b8ff" stroke="#63b8ff" points="818.26,-413.82 827.58,-408.78 817.15,-406.91 818.26,-413.82"/>
</a>
</g>
</g>
<!-- Node16&#45;&gt;Node4 -->
<g id="edge22_Node000016_Node000004" class="edge">
<title>Node16&#45;&gt;Node4</title>
<g id="a_edge22_Node000016_Node000004"><a xlink:title=" ">
<path fill="none" stroke="#63b8ff" d="M1009.11,-369.89C1008.64,-370.4 1008.19,-370.91 1007.75,-371.44 965.93,-421.33 1018.04,-467.66 971.75,-513.44 965.65,-519.47 958.07,-523.79 949.99,-526.87"/>
<polygon fill="#63b8ff" stroke="#63b8ff" points="1011.16,-372.74 1016.41,-363.54 1006.57,-367.46 1011.16,-372.74"/>
</a>
</g>
</g>
<!-- Node16&#45;&gt;Node11 -->
<g id="edge35_Node000016_Node000011" class="edge">
<title>Node16&#45;&gt;Node11</title>
<g id="a_edge35_Node000016_Node000011"><a xlink:title=" ">
<path fill="none" stroke="#63b8ff" d="M1011.2,-368.73C1010.02,-369.61 1008.86,-370.51 1007.75,-371.44 986.15,-389.43 994.38,-406.77 971.75,-423.44 964.35,-428.89 955.78,-433.21 947.02,-436.65"/>
<polygon fill="#63b8ff" stroke="#63b8ff" points="1013.02,-371.72 1019.52,-363.35 1009.22,-365.84 1013.02,-371.72"/>
</a>
</g>
</g>
<!-- Node16&#45;&gt;Node13 -->
<g id="edge36_Node000016_Node000013" class="edge">
<title>Node16&#45;&gt;Node13</title>
<g id="a_edge36_Node000016_Node000013"><a xlink:title=" ">
<path fill="none" stroke="#63b8ff" d="M996.92,-365.62C980.39,-370.49 962.88,-375.66 946.88,-380.37"/>
<polygon fill="#63b8ff" stroke="#63b8ff" points="997.57,-369.08 1006.17,-362.89 995.59,-362.36 997.57,-369.08"/>
</a>
</g>
</g>
<!-- Node17 -->
<g id="Node000017" class="node">
<title>Node17</title>
<g id="a_Node000017"><a xlink:href="classGraphFocusHandler.html#a04e324a475dc9c18066bc54857727ad6" target="_top" xlink:title=" ">
<polygon fill="white" stroke="#666666" points="946.62,-362.19 829.38,-362.19 829.38,-328.69 946.62,-328.69 946.62,-362.19"/>
<text text-anchor="start" x="837.38" y="-348.69" font-family="Helvetica,sans-Serif" font-size="10.00">GraphFocusHandler::</text>
<text text-anchor="middle" x="888" y="-335.94" font-family="Helvetica,sans-Serif" font-size="10.00">defocusNode</text>
</a>
</g>
</g>
<!-- Node16&#45;&gt;Node17 -->
<g id="edge16_Node000016_Node000017" class="edge">
<title>Node16&#45;&gt;Node17</title>
<g id="a_edge16_Node000016_Node000017"><a xlink:title=" ">
<path fill="none" stroke="#63b8ff" d="M996.45,-345.44C980.06,-345.44 962.73,-345.44 946.88,-345.44"/>
<polygon fill="#63b8ff" stroke="#63b8ff" points="996.11,-348.94 1006.11,-345.44 996.11,-341.94 996.11,-348.94"/>
</a>
</g>
</g>
<!-- Node22 -->
<g id="Node000022" class="node">
<title>Node22</title>
<g id="a_Node000022"><a xlink:href="classGraphFocusHandler.html#a66e8d64d3989ef7114126c6abd7cf838" target="_top" xlink:title=" ">
<polygon fill="white" stroke="#666666" points="946.62,-310.19 829.38,-310.19 829.38,-276.69 946.62,-276.69 946.62,-310.19"/>
<text text-anchor="start" x="837.38" y="-296.69" font-family="Helvetica,sans-Serif" font-size="10.00">GraphFocusHandler::</text>
<text text-anchor="middle" x="888" y="-283.94" font-family="Helvetica,sans-Serif" font-size="10.00">focusInitialNode</text>
</a>
</g>
</g>
<!-- Node16&#45;&gt;Node22 -->
<g id="edge23_Node000016_Node000022" class="edge">
<title>Node16&#45;&gt;Node22</title>
<g id="a_edge23_Node000016_Node000022"><a xlink:title=" ">
<path fill="none" stroke="#63b8ff" d="M996.92,-325.26C980.39,-320.38 962.88,-315.22 946.88,-310.5"/>
<polygon fill="#63b8ff" stroke="#63b8ff" points="995.59,-328.51 1006.17,-327.98 997.57,-321.8 995.59,-328.51"/>
</a>
</g>
</g>
<!-- Node18 -->
<g id="Node000018" class="node">
<title>Node18</title>
<g id="a_Node000018"><a xlink:href="classQtGraphNode.html#a0f478eb6e3e908e82b8d1df909e02275" target="_top" xlink:title=" ">
<polygon fill="white" stroke="#666666" points="751.75,-324.81 620.25,-324.81 620.25,-304.06 751.75,-304.06 751.75,-324.81"/>
<text text-anchor="middle" x="686" y="-311.31" font-family="Helvetica,sans-Serif" font-size="10.00">QtGraphNode::focusOut</text>
</a>
</g>
</g>
<!-- Node17&#45;&gt;Node18 -->
<g id="edge17_Node000017_Node000018" class="edge">
<title>Node17&#45;&gt;Node18</title>
<g id="a_edge17_Node000017_Node000018"><a xlink:title=" ">
<path fill="none" stroke="#63b8ff" d="M817.62,-334.68C796.3,-331.38 772.94,-327.76 751.93,-324.5"/>
<polygon fill="#63b8ff" stroke="#63b8ff" points="816.97,-338.12 827.39,-336.2 818.04,-331.21 816.97,-338.12"/>
</a>
</g>
</g>
<!-- Node19 -->
<g id="Node000019" class="node">
<title>Node19</title>
<g id="a_Node000019"><a xlink:href="classQtGraphNodeBundle.html#acce23e4e976bee96c82d0fe4bf4bce5b" target="_top" xlink:title=" ">
<polygon fill="white" stroke="#666666" points="541.5,-383.19 419.75,-383.19 419.75,-349.69 541.5,-349.69 541.5,-383.19"/>
<text text-anchor="start" x="427.75" y="-369.69" font-family="Helvetica,sans-Serif" font-size="10.00">QtGraphNodeBundle::</text>
<text text-anchor="middle" x="480.62" y="-356.94" font-family="Helvetica,sans-Serif" font-size="10.00">hoverLeaveEvent</text>
</a>
</g>
</g>
<!-- Node18&#45;&gt;Node19 -->
<g id="edge18_Node000018_Node000019" class="edge">
<title>Node18&#45;&gt;Node19</title>
<g id="a_edge18_Node000018_Node000019"><a xlink:title=" ">
<path fill="none" stroke="#63b8ff" d="M631.84,-328.03C604.23,-335.09 570.4,-343.74 541.84,-351.04"/>
<polygon fill="#63b8ff" stroke="#63b8ff" points="632.57,-331.46 641.39,-325.59 630.84,-324.67 632.57,-331.46"/>
</a>
</g>
</g>
<!-- Node20 -->
<g id="Node000020" class="node">
<title>Node20</title>
<g id="a_Node000020"><a xlink:href="classQtGraphNodeData.html#adefe516d187f495e248f7396ca6857b2" target="_top" xlink:title=" ">
<polygon fill="white" stroke="#666666" points="564.75,-331.19 396.5,-331.19 396.5,-297.69 564.75,-297.69 564.75,-331.19"/>
<text text-anchor="start" x="404.5" y="-317.69" font-family="Helvetica,sans-Serif" font-size="10.00">QtGraphNodeData::hoverLeave</text>
<text text-anchor="middle" x="480.62" y="-304.94" font-family="Helvetica,sans-Serif" font-size="10.00">Event</text>
</a>
</g>
</g>
<!-- Node18&#45;&gt;Node20 -->
<g id="edge19_Node000018_Node000020" class="edge">
<title>Node18&#45;&gt;Node20</title>
<g id="a_edge19_Node000018_Node000020"><a xlink:title=" ">
<path fill="none" stroke="#63b8ff" d="M608.59,-314.44C594.37,-314.44 579.45,-314.44 565.04,-314.44"/>
<polygon fill="#63b8ff" stroke="#63b8ff" points="608.3,-317.94 618.3,-314.44 608.3,-310.94 608.3,-317.94"/>
</a>
</g>
</g>
<!-- Node21 -->
<g id="Node000021" class="node">
<title>Node21</title>
<g id="a_Node000021"><a xlink:href="classQtGraphNodeGroup.html#aa0267d441ff8baa00c50db4fc044d7c0" target="_top" xlink:title=" ">
<polygon fill="white" stroke="#666666" points="567.75,-279.19 393.5,-279.19 393.5,-245.69 567.75,-245.69 567.75,-279.19"/>
<text text-anchor="start" x="401.5" y="-265.69" font-family="Helvetica,sans-Serif" font-size="10.00">QtGraphNodeGroup::hoverLeave</text>
<text text-anchor="middle" x="480.62" y="-252.94" font-family="Helvetica,sans-Serif" font-size="10.00">Event</text>
</a>
</g>
</g>
<!-- Node18&#45;&gt;Node21 -->
<g id="edge20_Node000018_Node000021" class="edge">
<title>Node18&#45;&gt;Node21</title>
<g id="a_edge20_Node000018_Node000021"><a xlink:title=" ">
<path fill="none" stroke="#63b8ff" d="M631.97,-300.88C606.6,-294.39 575.93,-286.55 548.93,-279.65"/>
<polygon fill="#63b8ff" stroke="#63b8ff" points="630.84,-304.2 641.39,-303.29 632.57,-297.42 630.84,-304.2"/>
</a>
</g>
</g>
<!-- Node21&#45;&gt;Node7 -->
<g id="edge21_Node000021_Node000007" class="edge">
<title>Node21&#45;&gt;Node7</title>
<g id="a_edge21_Node000021_Node000007"><a xlink:title=" ">
<path fill="none" stroke="#63b8ff" d="M398.29,-285.12C396.65,-286.17 395.05,-287.28 393.5,-288.44 332.66,-333.96 293.55,-419.73 278.95,-456.26"/>
<polygon fill="#63b8ff" stroke="#63b8ff" points="399.8,-288.28 406.79,-280.32 396.36,-282.19 399.8,-288.28"/>
</a>
</g>
</g>
<!-- Node22&#45;&gt;Node23 -->
<g id="edge24_Node000022_Node000023" class="edge">
<title>Node22&#45;&gt;Node23</title>
<g id="a_edge24_Node000022_Node000023"><a xlink:title=" ">
<path fill="none" stroke="#63b8ff" d="M817.81,-277.87C794.04,-272.52 767.7,-266.59 744.92,-261.47"/>
<polygon fill="#63b8ff" stroke="#63b8ff" points="816.88,-281.25 827.41,-280.03 818.42,-274.42 816.88,-281.25"/>
</a>
</g>
</g>
<!-- Node26 -->
<g id="Node000026" class="node">
<title>Node26</title>
<g id="a_Node000026"><a xlink:href="classQtGraphView.html#a0e0e64b352f8e05561b94d64f3711a28" target="_top" xlink:title=" ">
<polygon fill="white" stroke="#666666" points="761.12,-147.19 610.88,-147.19 610.88,-113.69 761.12,-113.69 761.12,-147.19"/>
<text text-anchor="start" x="618.88" y="-133.69" font-family="Helvetica,sans-Serif" font-size="10.00">QtGraphView::switchToNew</text>
<text text-anchor="middle" x="686" y="-120.94" font-family="Helvetica,sans-Serif" font-size="10.00">GraphData</text>
</a>
</g>
</g>
<!-- Node22&#45;&gt;Node26 -->
<g id="edge27_Node000022_Node000026" class="edge">
<title>Node22&#45;&gt;Node26</title>
<g id="a_edge27_Node000022_Node000026"><a xlink:title=" ">
<path fill="none" stroke="#63b8ff" d="M857.27,-269.21C816.37,-235.87 743.77,-176.7 708.04,-147.59"/>
<polygon fill="#63b8ff" stroke="#63b8ff" points="854.84,-271.74 864.8,-275.35 859.26,-266.32 854.84,-271.74"/>
</a>
</g>
</g>
<!-- Node24 -->
<g id="Node000024" class="node">
<title>Node24</title>
<g id="a_Node000024"><a xlink:href="classQtGraphView.html#afa4f1dc16083ae82a4f428085cbbbdce" target="_top" xlink:title=" ">
<polygon fill="white" stroke="#666666" points="558,-227.19 403.25,-227.19 403.25,-193.69 558,-193.69 558,-227.19"/>
<text text-anchor="start" x="411.25" y="-213.69" font-family="Helvetica,sans-Serif" font-size="10.00">QtGraphView::setNavigation</text>
<text text-anchor="middle" x="480.62" y="-200.94" font-family="Helvetica,sans-Serif" font-size="10.00">Focus</text>
</a>
</g>
</g>
<!-- Node23&#45;&gt;Node24 -->
<g id="edge25_Node000023_Node000024" class="edge">
<title>Node23&#45;&gt;Node24</title>
<g id="a_edge25_Node000023_Node000024"><a xlink:title=" ">
<path fill="none" stroke="#63b8ff" d="M615.72,-235.49C597.24,-232.04 577.17,-228.29 558.32,-224.77"/>
<polygon fill="#63b8ff" stroke="#63b8ff" points="615.03,-238.93 625.51,-237.32 616.32,-232.04 615.03,-238.93"/>
</a>
</g>
</g>
<!-- Node25 -->
<g id="Node000025" class="node">
<title>Node25</title>
<g id="a_Node000025"><a xlink:href="classQtGraphView.html#ad62e4097c2649e7e7ce879278132d4cb" target="_top" xlink:title=" ">
<polygon fill="white" stroke="#666666" points="347,-220.81 196,-220.81 196,-200.06 347,-200.06 347,-220.81"/>
<text text-anchor="middle" x="271.5" y="-207.31" font-family="Helvetica,sans-Serif" font-size="10.00">QtGraphView::QtGraphView</text>
</a>
</g>
</g>
<!-- Node24&#45;&gt;Node25 -->
<g id="edge26_Node000024_Node000025" class="edge">
<title>Node24&#45;&gt;Node25</title>
<g id="a_edge26_Node000024_Node000025"><a xlink:title=" ">
<path fill="none" stroke="#63b8ff" d="M391.65,-210.44C376.95,-210.44 361.82,-210.44 347.48,-210.44"/>
<polygon fill="#63b8ff" stroke="#63b8ff" points="391.28,-213.94 401.28,-210.44 391.28,-206.94 391.28,-213.94"/>
</a>
</g>
</g>
<!-- Node26&#45;&gt;Node14 -->
<g id="edge34_Node000026_Node000014" class="edge">
<title>Node26&#45;&gt;Node14</title>
<g id="a_edge34_Node000026_Node000014"><a xlink:title=" ">
<path fill="none" stroke="#63b8ff" d="M599.24,-140.91C588.64,-141.92 577.96,-142.8 567.75,-143.44 398.19,-154.02 354.77,-160.98 185.5,-146.44 166.52,-144.81 145.9,-141.62 127.71,-138.31"/>
<polygon fill="#63b8ff" stroke="#63b8ff" points="599.55,-144.39 609.16,-139.92 598.86,-137.43 599.55,-144.39"/>
</a>
</g>
</g>
<!-- Node27 -->
<g id="Node000027" class="node">
<title>Node27</title>
<g id="a_Node000027"><a xlink:href="classQtGraphView.html#a226a73962b96aed00b9cecab82c8dba1" target="_top" xlink:title=" ">
<polygon fill="white" stroke="#666666" points="354.12,-137.81 188.88,-137.81 188.88,-117.06 354.12,-117.06 354.12,-137.81"/>
<text text-anchor="middle" x="271.5" y="-124.31" font-family="Helvetica,sans-Serif" font-size="10.00">QtGraphView::createTransition</text>
</a>
</g>
</g>
<!-- Node26&#45;&gt;Node27 -->
<g id="edge28_Node000026_Node000027" class="edge">
<title>Node26&#45;&gt;Node27</title>
<g id="a_edge28_Node000026_Node000027"><a xlink:title=" ">
<path fill="none" stroke="#63b8ff" d="M599.51,-129.82C527.63,-129.29 425.53,-128.55 354.62,-128.04"/>
<polygon fill="#63b8ff" stroke="#63b8ff" points="599.24,-133.31 609.26,-129.89 599.29,-126.31 599.24,-133.31"/>
</a>
</g>
</g>
<!-- Node28 -->
<g id="Node000028" class="node">
<title>Node28</title>
<g id="a_Node000028"><a xlink:href="classQtGraphView.html#a1c25190e97e9022d070d506c19d16f75" target="_top" xlink:title=" ">
<polygon fill="white" stroke="#666666" points="567.38,-99.81 393.88,-99.81 393.88,-79.06 567.38,-79.06 567.38,-99.81"/>
<text text-anchor="middle" x="480.62" y="-86.31" font-family="Helvetica,sans-Serif" font-size="10.00">QtGraphView::finishedTransition</text>
</a>
</g>
</g>
<!-- Node26&#45;&gt;Node28 -->
<g id="edge30_Node000026_Node000028" class="edge">
<title>Node26&#45;&gt;Node28</title>
<g id="a_edge30_Node000026_Node000028"><a xlink:title=" ">
<path fill="none" stroke="#63b8ff" d="M599.24,-113.15C577.63,-108.79 555.04,-104.24 535.5,-100.3"/>
<polygon fill="#63b8ff" stroke="#63b8ff" points="598.45,-116.56 608.94,-115.1 599.83,-109.7 598.45,-116.56"/>
</a>
</g>
</g>
<!-- Node27&#45;&gt;Node14 -->
<g id="edge29_Node000027_Node000014" class="edge">
<title>Node27&#45;&gt;Node14</title>
<g id="a_edge29_Node000027_Node000014"><a xlink:title=" ">
<path fill="none" stroke="#63b8ff" d="M177.01,-127.44C167.93,-127.44 158.8,-127.44 149.94,-127.44"/>
<polygon fill="#63b8ff" stroke="#63b8ff" points="176.96,-130.94 186.96,-127.44 176.96,-123.94 176.96,-130.94"/>
</a>
</g>
</g>
<!-- Node28&#45;&gt;Node14 -->
<g id="edge33_Node000028_Node000014" class="edge">
<title>Node28&#45;&gt;Node14</title>
<g id="a_edge33_Node000028_Node000014"><a xlink:title=" ">
<path fill="none" stroke="#63b8ff" d="M382.24,-93.11C324.85,-95.93 250.88,-100.69 185.5,-108.44 167.93,-110.52 148.9,-113.54 131.7,-116.56"/>
<polygon fill="#63b8ff" stroke="#63b8ff" points="382.16,-96.62 391.98,-92.65 381.83,-89.63 382.16,-96.62"/>
</a>
</g>
</g>
<!-- Node28&#45;&gt;Node27 -->
<g id="edge32_Node000028_Node000027" class="edge">
<title>Node28&#45;&gt;Node27</title>
<g id="a_edge32_Node000028_Node000027"><a xlink:title=" ">
<path fill="none" stroke="#63b8ff" d="M409.53,-102.3C384.23,-106.94 355.93,-112.13 331.65,-116.59"/>
<polygon fill="#63b8ff" stroke="#63b8ff" points="409.86,-105.8 419.06,-100.55 408.59,-98.91 409.86,-105.8"/>
</a>
</g>
</g>
<!-- Node29 -->
<g id="Node000029" class="node">
<title>Node29</title>
<g id="a_Node000029"><a xlink:href="classQtGraphView.html#a22c7370507ab74241d6d1f7df1ffccbd" target="_top" xlink:title=" ">
<polygon fill="white" stroke="#666666" points="346.62,-61.81 196.38,-61.81 196.38,-41.06 346.62,-41.06 346.62,-61.81"/>
<text text-anchor="middle" x="271.5" y="-48.31" font-family="Helvetica,sans-Serif" font-size="10.00">QtGraphView::activateEdge</text>
</a>
</g>
</g>
<!-- Node28&#45;&gt;Node29 -->
<g id="edge31_Node000028_Node000029" class="edge">
<title>Node28&#45;&gt;Node29</title>
<g id="a_edge31_Node000028_Node000029"><a xlink:title=" ">
<path fill="none" stroke="#63b8ff" d="M409.53,-76.58C384.23,-71.94 355.93,-66.74 331.65,-62.29"/>
<polygon fill="#63b8ff" stroke="#63b8ff" points="408.59,-79.96 419.06,-78.33 409.86,-73.08 408.59,-79.96"/>
</a>
</g>
</g>
<!-- Node30&#45;&gt;Node14 -->
<g id="edge40_Node000030_Node000014" class="edge">
<title>Node30&#45;&gt;Node14</title>
<g id="a_edge40_Node000030_Node000014"><a xlink:title=" ">
<path fill="none" stroke="#63b8ff" d="M840.42,-108.84C725.38,-58.68 420.15,55.01 185.5,-32.44 139.45,-49.6 99.88,-95.74 83.63,-116.75"/>
<polygon fill="#63b8ff" stroke="#63b8ff" points="838.68,-111.9 849.24,-112.74 841.51,-105.5 838.68,-111.9"/>
</a>
</g>
</g>
<!-- Node30&#45;&gt;Node26 -->
<g id="edge41_Node000030_Node000026" class="edge">
<title>Node30&#45;&gt;Node26</title>
<g id="a_edge41_Node000030_Node000026"><a xlink:title=" ">
<path fill="none" stroke="#63b8ff" d="M817.5,-130.44C799.35,-130.44 779.71,-130.44 761.32,-130.44"/>
<polygon fill="#63b8ff" stroke="#63b8ff" points="817.37,-133.94 827.37,-130.44 817.37,-126.94 817.37,-133.94"/>
</a>
</g>
</g>
<!-- Node31&#45;&gt;Node8 -->
<g id="edge45_Node000031_Node000008" class="edge">
<title>Node31&#45;&gt;Node8</title>
<g id="a_edge45_Node000031_Node000008"><a xlink:title=" ">
<path fill="none" stroke="#63b8ff" d="M1660.01,-190.93C1617.79,-205.73 1553.23,-228.35 1515.31,-241.64"/>
<polygon fill="#63b8ff" stroke="#63b8ff" points="1661.05,-194.28 1669.33,-187.67 1658.74,-187.67 1661.05,-194.28"/>
</a>
</g>
</g>
<!-- Node31&#45;&gt;Node18 -->
<g id="edge44_Node000031_Node000018" class="edge">
<title>Node31&#45;&gt;Node18</title>
<g id="a_edge44_Node000031_Node000018"><a xlink:title=" ">
<path fill="none" stroke="#63b8ff" d="M1618.56,-176.44C1529.87,-176.44 1384.98,-176.44 1260,-176.44 1260,-176.44 1260,-176.44 1065.38,-176.44 991.26,-176.44 780.41,-271.08 710.12,-303.61"/>
<polygon fill="#63b8ff" stroke="#63b8ff" points="1618.38,-179.94 1628.38,-176.44 1618.38,-172.94 1618.38,-179.94"/>
</a>
</g>
</g>
<!-- Node32 -->
<g id="Node000032" class="node">
<title>Node32</title>
<g id="a_Node000032"><a xlink:href="classQtGraphView.html#ac951ab6fb284fc0bffa3d3748cedda74" target="_top" xlink:title=" ">
<polygon fill="white" stroke="#666666" points="1574,-148.81 1393,-148.81 1393,-128.06 1574,-128.06 1574,-148.81"/>
<text text-anchor="middle" x="1483.5" y="-135.31" font-family="Helvetica,sans-Serif" font-size="10.00">QtGraphView::deCoFocusTokenIds</text>
</a>
</g>
</g>
<!-- Node31&#45;&gt;Node32 -->
<g id="edge43_Node000031_Node000032" class="edge">
<title>Node31&#45;&gt;Node32</title>
<g id="a_edge43_Node000031_Node000032"><a xlink:title=" ">
<path fill="none" stroke="#63b8ff" d="M1628.34,-163.64C1601.75,-158.98 1571.97,-153.76 1546.44,-149.29"/>
<polygon fill="#63b8ff" stroke="#63b8ff" points="1627.57,-167.06 1638.03,-165.34 1628.78,-160.16 1627.57,-167.06"/>
</a>
</g>
</g>
<!-- Node33&#45;&gt;Node33 -->
<g id="edge47_Node000033_Node000033" class="edge">
<title>Node33&#45;&gt;Node33</title>
<g id="a_edge47_Node000033_Node000033"><a xlink:title=" ">
<path fill="none" stroke="#63b8ff" d="M1522.43,-102.97C1517.64,-106.98 1504.66,-109.81 1483.5,-109.81 1445.88,-109.81 1434.12,-100.87 1448.23,-92.21"/>
<polygon fill="#63b8ff" stroke="#63b8ff" points="1525.79,-101.98 1519.26,-93.64 1519.17,-104.24 1525.79,-101.98"/>
</a>
</g>
</g>
<!-- Node34 -->
<g id="Node000034" class="node">
<title>Node34</title>
<g id="a_Node000034"><a xlink:href="classQtGraphNode.html#a9554916b3c91d206e687b24cd1c693d4" target="_top" xlink:title=" ">
<polygon fill="white" stroke="#666666" points="1357,-91.81 1161,-91.81 1161,-71.06 1357,-71.06 1357,-91.81"/>
<text text-anchor="middle" x="1259" y="-78.31" font-family="Helvetica,sans-Serif" font-size="10.00">QtGraphNode::matchNameRecursive</text>
</a>
</g>
</g>
<!-- Node33&#45;&gt;Node34 -->
<g id="edge48_Node000033_Node000034" class="edge">
<title>Node33&#45;&gt;Node34</title>
<g id="a_edge48_Node000033_Node000034"><a xlink:title=" ">
<path fill="none" stroke="#63b8ff" d="M1397.58,-81.44C1384.38,-81.44 1370.65,-81.44 1357.21,-81.44"/>
<polygon fill="#63b8ff" stroke="#63b8ff" points="1397.52,-84.94 1407.51,-81.44 1397.51,-77.94 1397.52,-84.94"/>
</a>
</g>
</g>
<!-- Node35&#45;&gt;Node33 -->
<g id="edge50_Node000035_Node000033" class="edge">
<title>Node35&#45;&gt;Node33</title>
<g id="a_edge50_Node000035_Node000033"><a xlink:title=" ">
<path fill="none" stroke="#63b8ff" d="M1598.27,-84.06C1584.59,-83.75 1570.8,-83.43 1557.76,-83.13"/>
<polygon fill="#63b8ff" stroke="#63b8ff" points="1598.12,-87.56 1608.2,-84.29 1598.29,-80.56 1598.12,-87.56"/>
</a>
</g>
</g>
</g>
</svg>
