<?xml version="1.0" encoding="UTF-8" standalone="no"?>
<!DOCTYPE svg PUBLIC "-//W3C//DTD SVG 1.1//EN"
 "http://www.w3.org/Graphics/SVG/1.1/DTD/svg11.dtd">
<!-- Generated by graphviz version 7.1.0 (0)
 -->
<!-- Title: SourceGroupSettingsWithCxxPchOptions::save Pages: 1 -->
<svg width="386pt" height="209pt"
 viewBox="0.00 0.00 386.00 208.50" xmlns="http://www.w3.org/2000/svg" xmlns:xlink="http://www.w3.org/1999/xlink">
<g id="graph0" class="graph" transform="scale(1 1) rotate(0) translate(4 204.5)">
<title>SourceGroupSettingsWithCxxPchOptions::save</title>
<!-- Node1 -->
<g id="node1" class="node">
<title>Node1</title>
<g id="a_node1"><a xlink:title=" ">
<polygon fill="#999999" stroke="#666666" points="160,-104.5 0,-104.5 0,-74.5 160,-74.5 160,-104.5"/>
<text text-anchor="start" x="8" y="-92.5" font-family="Helvetica,sans-Serif" font-size="10.00">SourceGroupSettingsWithCxx</text>
<text text-anchor="middle" x="80" y="-81.5" font-family="Helvetica,sans-Serif" font-size="10.00">PchOptions::save</text>
</a>
</g>
</g>
<!-- Node2 -->
<g id="node2" class="node">
<title>Node2</title>
<g id="a_node2"><a xlink:href="classSourceGroupSettingsWithCxxPchOptions.html#a0f2a592d846354871cacf0b0e13c3273" target="_top" xlink:title=" ">
<polygon fill="white" stroke="#666666" points="367,-200.5 207,-200.5 207,-170.5 367,-170.5 367,-200.5"/>
<text text-anchor="start" x="215" y="-188.5" font-family="Helvetica,sans-Serif" font-size="10.00">SourceGroupSettingsWithCxx</text>
<text text-anchor="middle" x="287" y="-177.5" font-family="Helvetica,sans-Serif" font-size="10.00">PchOptions::getPchFlags</text>
</a>
</g>
</g>
<!-- Node1&#45;&gt;Node2 -->
<g id="edge1" class="edge">
<title>Node1&#45;&gt;Node2</title>
<path fill="none" stroke="#63b8ff" d="M101.15,-104.75C123.34,-120.88 160.57,-146.1 196,-161.5 200.06,-163.26 204.27,-164.92 208.57,-166.48"/>
<polygon fill="#63b8ff" stroke="#63b8ff" points="207.34,-169.76 217.93,-169.66 209.59,-163.13 207.34,-169.76"/>
</g>
<!-- Node3 -->
<g id="node3" class="node">
<title>Node3</title>
<g id="a_node3"><a xlink:href="classSourceGroupSettingsWithCxxPchOptions.html#a7d25f991f13b5bca51ec065ce203cdbe" target="_top" xlink:title=" ">
<polygon fill="white" stroke="#666666" points="373.5,-152.5 200.5,-152.5 200.5,-122.5 373.5,-122.5 373.5,-152.5"/>
<text text-anchor="start" x="208.5" y="-140.5" font-family="Helvetica,sans-Serif" font-size="10.00">SourceGroupSettingsWithCxx</text>
<text text-anchor="middle" x="287" y="-129.5" font-family="Helvetica,sans-Serif" font-size="10.00">PchOptions::getPchInputFilePath</text>
</a>
</g>
</g>
<!-- Node1&#45;&gt;Node3 -->
<g id="edge2" class="edge">
<title>Node1&#45;&gt;Node3</title>
<path fill="none" stroke="#63b8ff" d="M146.99,-104.95C166.74,-109.58 188.58,-114.69 208.97,-119.46"/>
<polygon fill="#63b8ff" stroke="#63b8ff" points="208.12,-122.86 218.66,-121.73 209.72,-116.04 208.12,-122.86"/>
</g>
<!-- Node4 -->
<g id="node4" class="node">
<title>Node4</title>
<g id="a_node4"><a xlink:href="classSourceGroupSettingsWithCxxPchOptions.html#ab0c1e4004acc6c77eca40c37badb2032" target="_top" xlink:title=" ">
<polygon fill="white" stroke="#666666" points="378,-104.5 196,-104.5 196,-74.5 378,-74.5 378,-104.5"/>
<text text-anchor="start" x="204" y="-92.5" font-family="Helvetica,sans-Serif" font-size="10.00">SourceGroupSettingsWithCxx</text>
<text text-anchor="middle" x="287" y="-81.5" font-family="Helvetica,sans-Serif" font-size="10.00">PchOptions::getUseCompilerFlags</text>
</a>
</g>
</g>
<!-- Node1&#45;&gt;Node4 -->
<g id="edge3" class="edge">
<title>Node1&#45;&gt;Node4</title>
<path fill="none" stroke="#63b8ff" d="M160.26,-89.5C168.15,-89.5 176.23,-89.5 184.3,-89.5"/>
<polygon fill="#63b8ff" stroke="#63b8ff" points="184.18,-93 194.18,-89.5 184.18,-86 184.18,-93"/>
</g>
<!-- Node5 -->
<g id="node5" class="node">
<title>Node5</title>
<g id="a_node5"><a xlink:href="classConfigManager.html#a936a172ad888841486029540aa654d1d" target="_top" xlink:title=" ">
<polygon fill="white" stroke="#666666" points="357,-56 217,-56 217,-37 357,-37 357,-56"/>
<text text-anchor="middle" x="287" y="-44" font-family="Helvetica,sans-Serif" font-size="10.00">ConfigManager::setValue</text>
</a>
</g>
</g>
<!-- Node1&#45;&gt;Node5 -->
<g id="edge4" class="edge">
<title>Node1&#45;&gt;Node5</title>
<path fill="none" stroke="#63b8ff" d="M154.72,-74.04C178.58,-69.03 204.71,-63.55 227.33,-58.81"/>
<polygon fill="#63b8ff" stroke="#63b8ff" points="227.91,-62.26 236.98,-56.78 226.48,-55.41 227.91,-62.26"/>
</g>
<!-- Node6 -->
<g id="node6" class="node">
<title>Node6</title>
<g id="a_node6"><a xlink:href="classConfigManager.html#af5fa33615017672b95732878122ae945" target="_top" xlink:title=" ">
<polygon fill="white" stroke="#666666" points="359.5,-19 214.5,-19 214.5,0 359.5,0 359.5,-19"/>
<text text-anchor="middle" x="287" y="-7" font-family="Helvetica,sans-Serif" font-size="10.00">ConfigManager::setValues</text>
</a>
</g>
</g>
<!-- Node1&#45;&gt;Node6 -->
<g id="edge5" class="edge">
<title>Node1&#45;&gt;Node6</title>
<path fill="none" stroke="#63b8ff" d="M105.2,-74.08C127.86,-60.29 163.07,-40.44 196,-28.5 202.5,-26.14 209.38,-24.04 216.32,-22.17"/>
<polygon fill="#63b8ff" stroke="#63b8ff" points="216.92,-25.63 225.77,-19.79 215.22,-18.84 216.92,-25.63"/>
</g>
</g>
</svg>
