<?xml version="1.0" encoding="UTF-8" standalone="no"?>
<!DOCTYPE svg PUBLIC "-//W3C//DTD SVG 1.1//EN"
 "http://www.w3.org/Graphics/SVG/1.1/DTD/svg11.dtd">
<!-- Generated by graphviz version 9.0.0 (0)
 -->
<!-- Title: BookmarkController::handleMessage Pages: 1 -->
<!--zoomable 479 -->

<svg id="main" version="1.1" xmlns="http://www.w3.org/2000/svg" xmlns:xlink="http://www.w3.org/1999/xlink" xml:space="preserve" onload="init(evt)">
<style type="text/css"><![CDATA[
.node, .edge {opacity: 0.7;}
.node.selected, .edge.selected {opacity: 1;}
.edge:hover path { stroke: red; }
.edge:hover polygon { stroke: red; fill: red; }
]]></style>

<defs>
  <circle id="rim" cx="0" cy="0" r="7"/>
  <circle id="rim2" cx="0" cy="0" r="3.5"/>
  <g id="zoomPlus">
    <use xlink:href="#rim" fill="#404040"><set attributeName="fill" to="#808080" begin="zoomplus.mouseover" end="zoomplus.mouseout"/></use>
    <path d="M-4,0h8M0,-4v8" fill="none" stroke="white" stroke-width="1.5" pointer-events="none"/>
  </g>
  <g id="zoomMin">
    <use xlink:href="#rim" fill="#404040"><set attributeName="fill" to="#808080" begin="zoomminus.mouseover" end="zoomminus.mouseout"/></use>
    <path d="M-4,0h8" fill="none" stroke="white" stroke-width="1.5" pointer-events="none"/>
  </g>
  <g id="arrowUp" transform="translate(30 24)">
    <use xlink:href="#rim"/>
    <path pointer-events="none" fill="none" stroke="white" stroke-width="1.5" d="M0,-3.0v7 M-2.5,-0.5L0,-3.0L2.5,-0.5"/>
  </g>
  <g id="arrowRight" transform="rotate(90) translate(36 -43)">
    <use xlink:href="#rim"/>
    <path pointer-events="none" fill="none" stroke="white" stroke-width="1.5" d="M0,-3.0v7 M-2.5,-0.5L0,-3.0L2.5,-0.5"/>
  </g>
  <g id="arrowDown" transform="rotate(180) translate(-30 -48)">
    <use xlink:href="#rim"/>
    <path pointer-events="none" fill="none" stroke="white" stroke-width="1.5" d="M0,-3.0v7 M-2.5,-0.5L0,-3.0L2.5,-0.5"/>
  </g>
  <g id="arrowLeft" transform="rotate(270) translate(-36 17)">
    <use xlink:href="#rim"/>
    <path pointer-events="none" fill="none" stroke="white" stroke-width="1.5" d="M0,-3.0v7 M-2.5,-0.5L0,-3.0L2.5,-0.5"/>
  </g>
  <g id="resetDef">
    <use xlink:href="#rim2" fill="#404040"><set attributeName="fill" to="#808080" begin="reset.mouseover" end="reset.mouseout"/></use>
  </g>
</defs>
<script type="application/ecmascript">
var viewWidth = 1442;
var viewHeight = 479;
var sectionId = 'dynsection-104';
</script>
<script type="application/ecmascript" xlink:href="svg.min.js"/>
<svg id="graph" class="graph">
<g id="viewport">
<title>BookmarkController::handleMessage</title>
<!-- Node1 -->
<g id="Node000001" class="node">
<title>Node1</title>
<g id="a_Node000001"><a xlink:title=" ">
<polygon fill="#999999" stroke="#666666" points="114.25,-248.5 0,-248.5 0,-215 114.25,-215 114.25,-248.5"/>
<text text-anchor="start" x="8" y="-235" font-family="Helvetica,sans-Serif" font-size="10.00">BookmarkController</text>
<text text-anchor="middle" x="57.12" y="-222.25" font-family="Helvetica,sans-Serif" font-size="10.00">::handleMessage</text>
</a>
</g>
</g>
<!-- Node2 -->
<g id="Node000002" class="node">
<title>Node2</title>
<g id="a_Node000002"><a xlink:href="classBookmarkController_1_1BookmarkCache.html#a5a5b657b3ce996ecc2c84244454bf120" target="_top" xlink:title=" ">
<polygon fill="white" stroke="#666666" points="282.5,-274.5 150.25,-274.5 150.25,-241 282.5,-241 282.5,-274.5"/>
<text text-anchor="start" x="158.25" y="-261" font-family="Helvetica,sans-Serif" font-size="10.00">BookmarkController</text>
<text text-anchor="middle" x="216.38" y="-248.25" font-family="Helvetica,sans-Serif" font-size="10.00">::BookmarkCache::clear</text>
</a>
</g>
</g>
<!-- Node1&#45;&gt;Node2 -->
<g id="edge1_Node000001_Node000002" class="edge">
<title>Node1&#45;&gt;Node2</title>
<g id="a_edge1_Node000001_Node000002"><a xlink:title=" ">
<path fill="none" stroke="#63b8ff" d="M114.45,-241.06C122.33,-242.37 130.53,-243.72 138.7,-245.07"/>
<polygon fill="#63b8ff" stroke="#63b8ff" points="137.87,-248.48 148.31,-246.66 139.01,-241.58 137.87,-248.48"/>
</a>
</g>
</g>
<!-- Node3 -->
<g id="Node000003" class="node">
<title>Node3</title>
<g id="a_Node000003"><a xlink:href="classBookmarkController.html#a3d96b348f6480e2bf5636ea4c521ab6d" target="_top" xlink:title=" ">
<polygon fill="white" stroke="#666666" points="273.5,-222.5 159.25,-222.5 159.25,-189 273.5,-189 273.5,-222.5"/>
<text text-anchor="start" x="167.25" y="-209" font-family="Helvetica,sans-Serif" font-size="10.00">BookmarkController</text>
<text text-anchor="middle" x="216.38" y="-196.25" font-family="Helvetica,sans-Serif" font-size="10.00">::update</text>
</a>
</g>
</g>
<!-- Node1&#45;&gt;Node3 -->
<g id="edge2_Node000001_Node000003" class="edge">
<title>Node1&#45;&gt;Node3</title>
<g id="a_edge2_Node000001_Node000003"><a xlink:title=" ">
<path fill="none" stroke="#63b8ff" d="M114.45,-222.44C125.29,-220.64 136.75,-218.75 147.9,-216.91"/>
<polygon fill="#63b8ff" stroke="#63b8ff" points="148.12,-220.42 157.42,-215.33 146.98,-213.51 148.12,-220.42"/>
</a>
</g>
</g>
<!-- Node4 -->
<g id="Node000004" class="node">
<title>Node4</title>
<g id="a_Node000004"><a xlink:href="classBookmarkView.html#a969bbc71864888c0d574a7df7faaa9b8" target="_top" xlink:title=" ">
<polygon fill="white" stroke="#666666" points="504.75,-312.5 319.25,-312.5 319.25,-279 504.75,-279 504.75,-312.5"/>
<text text-anchor="start" x="327.25" y="-299" font-family="Helvetica,sans-Serif" font-size="10.00">BookmarkView::bookmarkBrowser</text>
<text text-anchor="middle" x="412" y="-286.25" font-family="Helvetica,sans-Serif" font-size="10.00">IsVisible</text>
</a>
</g>
</g>
<!-- Node3&#45;&gt;Node4 -->
<g id="edge3_Node000003_Node000004" class="edge">
<title>Node3&#45;&gt;Node4</title>
<g id="a_edge3_Node000003_Node000004"><a xlink:title=" ">
<path fill="none" stroke="#63b8ff" d="M266.91,-222.85C272.35,-225.5 277.66,-228.47 282.5,-231.75 301.75,-244.81 298.58,-257.72 318.5,-269.75 320.94,-271.22 323.46,-272.61 326.05,-273.93"/>
<polygon fill="#63b8ff" stroke="#63b8ff" points="324.37,-277.01 334.92,-277.99 327.28,-270.64 324.37,-277.01"/>
</a>
</g>
</g>
<!-- Node5 -->
<g id="Node000005" class="node">
<title>Node5</title>
<g id="a_Node000005"><a xlink:href="classBookmarkView.html#aaffa8e4046652904940f8724aa3abe40" target="_top" xlink:title=" ">
<polygon fill="white" stroke="#666666" points="505.5,-261.12 318.5,-261.12 318.5,-240.38 505.5,-240.38 505.5,-261.12"/>
<text text-anchor="middle" x="412" y="-247.62" font-family="Helvetica,sans-Serif" font-size="10.00">BookmarkView::displayBookmarks</text>
</a>
</g>
</g>
<!-- Node3&#45;&gt;Node5 -->
<g id="edge4_Node000003_Node000005" class="edge">
<title>Node3&#45;&gt;Node5</title>
<g id="a_edge4_Node000003_Node000005"><a xlink:title=" ">
<path fill="none" stroke="#63b8ff" d="M273.95,-220.82C288.44,-224.53 304.02,-228.4 318.5,-231.75 327.04,-233.72 336.04,-235.7 344.94,-237.59"/>
<polygon fill="#63b8ff" stroke="#63b8ff" points="344.13,-241 354.64,-239.63 345.57,-234.15 344.13,-241"/>
</a>
</g>
</g>
<!-- Node6 -->
<g id="Node000006" class="node">
<title>Node6</title>
<g id="a_Node000006"><a xlink:href="classBookmarkController.html#a1c56bf6c288e19352e110bc4aebfe482" target="_top" xlink:title=" ">
<polygon fill="white" stroke="#666666" points="469.12,-222.5 354.88,-222.5 354.88,-189 469.12,-189 469.12,-222.5"/>
<text text-anchor="start" x="362.88" y="-209" font-family="Helvetica,sans-Serif" font-size="10.00">BookmarkController</text>
<text text-anchor="middle" x="412" y="-196.25" font-family="Helvetica,sans-Serif" font-size="10.00">::getBookmarks</text>
</a>
</g>
</g>
<!-- Node3&#45;&gt;Node6 -->
<g id="edge5_Node000003_Node000006" class="edge">
<title>Node3&#45;&gt;Node6</title>
<g id="a_edge5_Node000003_Node000006"><a xlink:title=" ">
<path fill="none" stroke="#63b8ff" d="M273.9,-205.75C295.58,-205.75 320.53,-205.75 343.16,-205.75"/>
<polygon fill="#63b8ff" stroke="#63b8ff" points="342.89,-209.25 352.89,-205.75 342.89,-202.25 342.89,-209.25"/>
</a>
</g>
</g>
<!-- Node11 -->
<g id="Node000011" class="node">
<title>Node11</title>
<g id="a_Node000011"><a xlink:href="classController.html#a431a774ef12696f8bb22903cada1485c" target="_top" xlink:title=" ">
<polygon fill="white" stroke="#666666" points="1224.25,-260.12 1114.5,-260.12 1114.5,-239.38 1224.25,-239.38 1224.25,-260.12"/>
<text text-anchor="middle" x="1169.38" y="-246.62" font-family="Helvetica,sans-Serif" font-size="10.00">Controller::getView</text>
</a>
</g>
</g>
<!-- Node3&#45;&gt;Node11 -->
<g id="edge31_Node000003_Node000011" class="edge">
<title>Node3&#45;&gt;Node11</title>
<g id="a_edge31_Node000003_Node000011"><a xlink:title=" ">
<path fill="none" stroke="#63b8ff" d="M243.5,-188.67C304.43,-150.52 461.8,-61.75 606.62,-61.75 606.62,-61.75 606.62,-61.75 791.5,-61.75 908.26,-61.75 951.3,-35.08 1052.25,-93.75 1106.8,-125.46 1143.59,-194 1159.48,-228.71"/>
<polygon fill="#63b8ff" stroke="#63b8ff" points="1156.21,-229.96 1163.45,-237.69 1162.61,-227.13 1156.21,-229.96"/>
</a>
</g>
</g>
<!-- Node23 -->
<g id="Node000023" class="node">
<title>Node23</title>
<g id="a_Node000023"><a xlink:href="classApplication.html#add09b97cb9b0946412db8a6636b3f144" target="_top" xlink:title=" ">
<polygon fill="white" stroke="#666666" points="478.88,-34.12 345.12,-34.12 345.12,-13.38 478.88,-13.38 478.88,-34.12"/>
<text text-anchor="middle" x="412" y="-20.62" font-family="Helvetica,sans-Serif" font-size="10.00">Application::getInstance</text>
</a>
</g>
</g>
<!-- Node3&#45;&gt;Node23 -->
<g id="edge30_Node000003_Node000023" class="edge">
<title>Node3&#45;&gt;Node23</title>
<g id="a_edge30_Node000003_Node000023"><a xlink:title=" ">
<path fill="none" stroke="#63b8ff" d="M223.39,-188.71C235.82,-156.09 267.49,-84.76 318.5,-47.75 323.45,-44.16 328.9,-41.1 334.59,-38.5"/>
<polygon fill="#63b8ff" stroke="#63b8ff" points="335.67,-41.84 343.65,-34.87 333.06,-35.34 335.67,-41.84"/>
</a>
</g>
</g>
<!-- Node7 -->
<g id="Node000007" class="node">
<title>Node7</title>
<g id="a_Node000007"><a xlink:href="classBookmarkController.html#a4514626b2285df1f071c0d1d27f2e70d" target="_top" xlink:title=" ">
<polygon fill="white" stroke="#666666" points="847.62,-387.5 733.38,-387.5 733.38,-354 847.62,-354 847.62,-387.5"/>
<text text-anchor="start" x="741.38" y="-374" font-family="Helvetica,sans-Serif" font-size="10.00">BookmarkController</text>
<text text-anchor="middle" x="790.5" y="-361.25" font-family="Helvetica,sans-Serif" font-size="10.00">::getAllBookmarks</text>
</a>
</g>
</g>
<!-- Node6&#45;&gt;Node7 -->
<g id="edge6_Node000006_Node000007" class="edge">
<title>Node6&#45;&gt;Node7</title>
<g id="a_edge6_Node000006_Node000007"><a xlink:title=" ">
<path fill="none" stroke="#63b8ff" d="M469.47,-212.95C482.48,-216.82 495.43,-222.74 505.5,-231.75 537.29,-260.21 508.66,-293.5 541.5,-320.75 591.75,-362.45 667.28,-372.58 721.78,-373.74"/>
<polygon fill="#63b8ff" stroke="#63b8ff" points="721.52,-377.24 731.56,-373.85 721.6,-370.24 721.52,-377.24"/>
</a>
</g>
</g>
<!-- Node6&#45;&gt;Node11 -->
<g id="edge29_Node000006_Node000011" class="edge">
<title>Node6&#45;&gt;Node11</title>
<g id="a_edge29_Node000006_Node000011"><a xlink:title=" ">
<path fill="none" stroke="#63b8ff" d="M469.51,-218.05C481.7,-221.68 494.28,-226.21 505.5,-231.75 523.43,-240.61 522.53,-252.43 541.5,-258.75 741.66,-325.47 998.12,-285.99 1110.85,-262.88"/>
<polygon fill="#63b8ff" stroke="#63b8ff" points="1111.4,-266.35 1120.47,-260.88 1109.97,-259.49 1111.4,-266.35"/>
</a>
</g>
</g>
<!-- Node16 -->
<g id="Node000016" class="node">
<title>Node16</title>
<g id="a_Node000016"><a xlink:href="classBookmarkController.html#a30290444ae9e01b7805b4fe9fca7fd96" target="_top" xlink:title=" ">
<polygon fill="white" stroke="#666666" points="672.25,-249.5 543,-249.5 543,-216 672.25,-216 672.25,-249.5"/>
<text text-anchor="start" x="551" y="-236" font-family="Helvetica,sans-Serif" font-size="10.00">BookmarkController</text>
<text text-anchor="middle" x="607.62" y="-223.25" font-family="Helvetica,sans-Serif" font-size="10.00">::getFilteredBookmarks</text>
</a>
</g>
</g>
<!-- Node6&#45;&gt;Node16 -->
<g id="edge17_Node000006_Node000016" class="edge">
<title>Node6&#45;&gt;Node16</title>
<g id="a_edge17_Node000006_Node000016"><a xlink:title=" ">
<path fill="none" stroke="#63b8ff" d="M469.52,-213.63C488.83,-216.32 510.74,-219.38 531.29,-222.25"/>
<polygon fill="#63b8ff" stroke="#63b8ff" points="530.66,-225.69 541.04,-223.6 531.62,-218.76 530.66,-225.69"/>
</a>
</g>
</g>
<!-- Node17 -->
<g id="Node000017" class="node">
<title>Node17</title>
<g id="a_Node000017"><a xlink:href="classBookmarkController.html#a768cbb9a2d65a475f0cec5efbbe08bd0" target="_top" xlink:title=" ">
<polygon fill="white" stroke="#666666" points="673.75,-182.5 541.5,-182.5 541.5,-149 673.75,-149 673.75,-182.5"/>
<text text-anchor="start" x="549.5" y="-169" font-family="Helvetica,sans-Serif" font-size="10.00">BookmarkController</text>
<text text-anchor="middle" x="607.62" y="-156.25" font-family="Helvetica,sans-Serif" font-size="10.00">::getOrderedBookmarks</text>
</a>
</g>
</g>
<!-- Node6&#45;&gt;Node17 -->
<g id="edge19_Node000006_Node000017" class="edge">
<title>Node6&#45;&gt;Node17</title>
<g id="a_edge19_Node000006_Node000017"><a xlink:title=" ">
<path fill="none" stroke="#63b8ff" d="M469.52,-194.07C488.46,-190.16 509.89,-185.73 530.09,-181.56"/>
<polygon fill="#63b8ff" stroke="#63b8ff" points="530.59,-185.03 539.68,-179.58 529.17,-178.18 530.59,-185.03"/>
</a>
</g>
</g>
<!-- Node8 -->
<g id="Node000008" class="node">
<title>Node8</title>
<g id="a_Node000008"><a xlink:href="classBookmarkController.html#a518d7622c4d7f7932f852035f3e2c819" target="_top" xlink:title=" ">
<polygon fill="white" stroke="#666666" points="1044.75,-458.5 914.75,-458.5 914.75,-425 1044.75,-425 1044.75,-458.5"/>
<text text-anchor="start" x="922.75" y="-445" font-family="Helvetica,sans-Serif" font-size="10.00">BookmarkController</text>
<text text-anchor="middle" x="979.75" y="-432.25" font-family="Helvetica,sans-Serif" font-size="10.00">::getAllEdgeBookmarks</text>
</a>
</g>
</g>
<!-- Node7&#45;&gt;Node8 -->
<g id="edge7_Node000007_Node000008" class="edge">
<title>Node7&#45;&gt;Node8</title>
<g id="a_edge7_Node000007_Node000008"><a xlink:title=" ">
<path fill="none" stroke="#63b8ff" d="M835.11,-387.97C856.76,-396.45 883.34,-406.75 907.25,-415.75 911.56,-417.37 916.03,-419.03 920.52,-420.7"/>
<polygon fill="#63b8ff" stroke="#63b8ff" points="918.99,-423.86 929.59,-424.03 921.41,-417.29 918.99,-423.86"/>
</a>
</g>
</g>
<!-- Node7&#45;&gt;Node11 -->
<g id="edge16_Node000007_Node000011" class="edge">
<title>Node7&#45;&gt;Node11</title>
<g id="a_edge16_Node000007_Node000011"><a xlink:title=" ">
<path fill="none" stroke="#63b8ff" d="M848.04,-365.81C901.98,-359.75 984.76,-346.86 1052.25,-320.75 1087,-307.31 1122.99,-283.49 1145.52,-267.18"/>
<polygon fill="#63b8ff" stroke="#63b8ff" points="1147.4,-270.14 1153.37,-261.39 1143.24,-264.51 1147.4,-270.14"/>
</a>
</g>
</g>
<!-- Node13 -->
<g id="Node000013" class="node">
<title>Node13</title>
<g id="a_Node000013"><a xlink:href="classBookmarkController.html#a661f96b8d5cf06ce0c4ba750411023f8" target="_top" xlink:title=" ">
<polygon fill="white" stroke="#666666" points="1045.5,-406.5 914,-406.5 914,-373 1045.5,-373 1045.5,-406.5"/>
<text text-anchor="start" x="922" y="-393" font-family="Helvetica,sans-Serif" font-size="10.00">BookmarkController</text>
<text text-anchor="middle" x="979.75" y="-380.25" font-family="Helvetica,sans-Serif" font-size="10.00">::getAllNodeBookmarks</text>
</a>
</g>
</g>
<!-- Node7&#45;&gt;Node13 -->
<g id="edge12_Node000007_Node000013" class="edge">
<title>Node7&#45;&gt;Node13</title>
<g id="a_edge12_Node000007_Node000013"><a xlink:title=" ">
<path fill="none" stroke="#63b8ff" d="M847.94,-376.48C864.98,-378.21 883.98,-380.13 902.11,-381.97"/>
<polygon fill="#63b8ff" stroke="#63b8ff" points="901.75,-385.45 912.05,-382.98 902.45,-378.49 901.75,-385.45"/>
</a>
</g>
</g>
<!-- Node9 -->
<g id="Node000009" class="node">
<title>Node9</title>
<g id="a_Node000009"><a xlink:href="classBookmarkController_1_1BookmarkCache.html#a63b5460c5d8638cca19a59681e02cbe8" target="_top" xlink:title=" ">
<polygon fill="white" stroke="#666666" points="1249.75,-470.88 1089,-470.88 1089,-424.62 1249.75,-424.62 1249.75,-470.88"/>
<text text-anchor="start" x="1097" y="-457.38" font-family="Helvetica,sans-Serif" font-size="10.00">BookmarkController</text>
<text text-anchor="start" x="1097" y="-444.62" font-family="Helvetica,sans-Serif" font-size="10.00">::BookmarkCache::getAllEdge</text>
<text text-anchor="middle" x="1169.38" y="-431.88" font-family="Helvetica,sans-Serif" font-size="10.00">Bookmarks</text>
</a>
</g>
</g>
<!-- Node8&#45;&gt;Node9 -->
<g id="edge8_Node000008_Node000009" class="edge">
<title>Node8&#45;&gt;Node9</title>
<g id="a_edge8_Node000008_Node000009"><a xlink:title=" ">
<path fill="none" stroke="#63b8ff" d="M1045.06,-443.81C1055.45,-444.14 1066.38,-444.49 1077.26,-444.84"/>
<polygon fill="#63b8ff" stroke="#63b8ff" points="1076.94,-448.33 1087.05,-445.15 1077.16,-441.33 1076.94,-448.33"/>
</a>
</g>
</g>
<!-- Node8&#45;&gt;Node11 -->
<g id="edge10_Node000008_Node000011" class="edge">
<title>Node8&#45;&gt;Node11</title>
<g id="a_edge10_Node000008_Node000011"><a xlink:title=" ">
<path fill="none" stroke="#63b8ff" d="M1039.31,-424.56C1043.93,-422 1048.32,-419.08 1052.25,-415.75 1077.14,-394.64 1070.12,-378.88 1088.25,-351.75 1108.36,-321.66 1134.79,-289.15 1151.69,-269.12"/>
<polygon fill="#63b8ff" stroke="#63b8ff" points="1154.35,-271.39 1158.17,-261.51 1149.02,-266.86 1154.35,-271.39"/>
</a>
</g>
</g>
<!-- Node10 -->
<g id="Node000010" class="node">
<title>Node10</title>
<g id="a_Node000010"><a xlink:href="classStorageAccess.html#a03b21c2d6d9ca15453bf8558494d72ff" target="_top" xlink:title=" ">
<polygon fill="white" stroke="#666666" points="1433,-464.5 1287.25,-464.5 1287.25,-431 1433,-431 1433,-464.5"/>
<text text-anchor="start" x="1295.25" y="-451" font-family="Helvetica,sans-Serif" font-size="10.00">StorageAccess::getAllEdge</text>
<text text-anchor="middle" x="1360.12" y="-438.25" font-family="Helvetica,sans-Serif" font-size="10.00">Bookmarks</text>
</a>
</g>
</g>
<!-- Node9&#45;&gt;Node10 -->
<g id="edge9_Node000009_Node000010" class="edge">
<title>Node9&#45;&gt;Node10</title>
<g id="a_edge9_Node000009_Node000010"><a xlink:title=" ">
<path fill="none" stroke="#63b8ff" d="M1250.15,-447.75C1258.52,-447.75 1267.05,-447.75 1275.46,-447.75"/>
<polygon fill="#63b8ff" stroke="#63b8ff" points="1275.32,-451.25 1285.32,-447.75 1275.32,-444.25 1275.32,-451.25"/>
</a>
</g>
</g>
<!-- Node12 -->
<g id="Node000012" class="node">
<title>Node12</title>
<g id="a_Node000012"><a xlink:href="classComponent.html#a9f4dbd8f986abae9d6014b4a34d2b014" target="_top" xlink:title=" ">
<polygon fill="white" stroke="#666666" points="1419.12,-260.12 1301.12,-260.12 1301.12,-239.38 1419.12,-239.38 1419.12,-260.12"/>
<text text-anchor="middle" x="1360.12" y="-246.62" font-family="Helvetica,sans-Serif" font-size="10.00">Component::getView</text>
</a>
</g>
</g>
<!-- Node11&#45;&gt;Node12 -->
<g id="edge11_Node000011_Node000012" class="edge">
<title>Node11&#45;&gt;Node12</title>
<g id="a_edge11_Node000011_Node000012"><a xlink:title=" ">
<path fill="none" stroke="#63b8ff" d="M1224.72,-249.75C1244.93,-249.75 1268.16,-249.75 1289.55,-249.75"/>
<polygon fill="#63b8ff" stroke="#63b8ff" points="1289.37,-253.25 1299.37,-249.75 1289.37,-246.25 1289.37,-253.25"/>
</a>
</g>
</g>
<!-- Node13&#45;&gt;Node11 -->
<g id="edge15_Node000013_Node000011" class="edge">
<title>Node13&#45;&gt;Node11</title>
<g id="a_edge15_Node000013_Node000011"><a xlink:title=" ">
<path fill="none" stroke="#63b8ff" d="M1026.6,-372.67C1035.4,-368.63 1044.34,-363.95 1052.25,-358.75 1092.03,-332.61 1130.82,-292.33 1151.96,-268.76"/>
<polygon fill="#63b8ff" stroke="#63b8ff" points="1154.41,-271.27 1158.41,-261.46 1149.17,-266.64 1154.41,-271.27"/>
</a>
</g>
</g>
<!-- Node14 -->
<g id="Node000014" class="node">
<title>Node14</title>
<g id="a_Node000014"><a xlink:href="classBookmarkController_1_1BookmarkCache.html#ab66ba158096c1e3e3773772d54e8821a" target="_top" xlink:title=" ">
<polygon fill="white" stroke="#666666" points="1250.5,-406.88 1088.25,-406.88 1088.25,-360.62 1250.5,-360.62 1250.5,-406.88"/>
<text text-anchor="start" x="1096.25" y="-393.38" font-family="Helvetica,sans-Serif" font-size="10.00">BookmarkController</text>
<text text-anchor="start" x="1096.25" y="-380.62" font-family="Helvetica,sans-Serif" font-size="10.00">::BookmarkCache::getAllNode</text>
<text text-anchor="middle" x="1169.38" y="-367.88" font-family="Helvetica,sans-Serif" font-size="10.00">Bookmarks</text>
</a>
</g>
</g>
<!-- Node13&#45;&gt;Node14 -->
<g id="edge13_Node000013_Node000014" class="edge">
<title>Node13&#45;&gt;Node14</title>
<g id="a_edge13_Node000013_Node000014"><a xlink:title=" ">
<path fill="none" stroke="#63b8ff" d="M1045.85,-387.67C1055.79,-387.35 1066.22,-387.02 1076.61,-386.68"/>
<polygon fill="#63b8ff" stroke="#63b8ff" points="1076.46,-390.19 1086.34,-386.37 1076.23,-383.19 1076.46,-390.19"/>
</a>
</g>
</g>
<!-- Node15 -->
<g id="Node000015" class="node">
<title>Node15</title>
<g id="a_Node000015"><a xlink:href="classStorageAccess.html#acf5b56566c66a2c54ac477602361aa6f" target="_top" xlink:title=" ">
<polygon fill="white" stroke="#666666" points="1433.75,-400.5 1286.5,-400.5 1286.5,-367 1433.75,-367 1433.75,-400.5"/>
<text text-anchor="start" x="1294.5" y="-387" font-family="Helvetica,sans-Serif" font-size="10.00">StorageAccess::getAllNode</text>
<text text-anchor="middle" x="1360.12" y="-374.25" font-family="Helvetica,sans-Serif" font-size="10.00">Bookmarks</text>
</a>
</g>
</g>
<!-- Node14&#45;&gt;Node15 -->
<g id="edge14_Node000014_Node000015" class="edge">
<title>Node14&#45;&gt;Node15</title>
<g id="a_edge14_Node000014_Node000015"><a xlink:title=" ">
<path fill="none" stroke="#63b8ff" d="M1250.97,-383.75C1258.85,-383.75 1266.85,-383.75 1274.77,-383.75"/>
<polygon fill="#63b8ff" stroke="#63b8ff" points="1274.75,-387.25 1284.75,-383.75 1274.75,-380.25 1274.75,-387.25"/>
</a>
</g>
</g>
<!-- Node16&#45;&gt;Node11 -->
<g id="edge18_Node000016_Node000011" class="edge">
<title>Node16&#45;&gt;Node11</title>
<g id="a_edge18_Node000016_Node000011"><a xlink:title=" ">
<path fill="none" stroke="#63b8ff" d="M672.56,-234.69C779.81,-237.95 994.81,-244.48 1103.01,-247.76"/>
<polygon fill="#63b8ff" stroke="#63b8ff" points="1102.79,-251.26 1112.89,-248.06 1103,-244.26 1102.79,-251.26"/>
</a>
</g>
</g>
<!-- Node17&#45;&gt;Node11 -->
<g id="edge28_Node000017_Node000011" class="edge">
<title>Node17&#45;&gt;Node11</title>
<g id="a_edge28_Node000017_Node000011"><a xlink:title=" ">
<path fill="none" stroke="#63b8ff" d="M673.94,-151.5C762.4,-135.16 923.99,-115.86 1052.25,-159.75 1093.19,-173.76 1130.86,-208.72 1151.62,-230.71"/>
<polygon fill="#63b8ff" stroke="#63b8ff" points="1148.84,-232.86 1158.18,-237.86 1154,-228.13 1148.84,-232.86"/>
</a>
</g>
</g>
<!-- Node18 -->
<g id="Node000018" class="node">
<title>Node18</title>
<g id="a_Node000018"><a xlink:href="classBookmarkController.html#a96448b6f3abf2435890fc64e69687633" target="_top" xlink:title=" ">
<polygon fill="white" stroke="#666666" points="868.25,-213.5 712.75,-213.5 712.75,-180 868.25,-180 868.25,-213.5"/>
<text text-anchor="start" x="720.75" y="-200" font-family="Helvetica,sans-Serif" font-size="10.00">BookmarkController</text>
<text text-anchor="middle" x="790.5" y="-187.25" font-family="Helvetica,sans-Serif" font-size="10.00">::getDateOrderedBookmarks</text>
</a>
</g>
</g>
<!-- Node17&#45;&gt;Node18 -->
<g id="edge20_Node000017_Node000018" class="edge">
<title>Node17&#45;&gt;Node18</title>
<g id="a_edge20_Node000017_Node000018"><a xlink:title=" ">
<path fill="none" stroke="#63b8ff" d="M674.18,-176.99C683.02,-178.5 692.21,-180.07 701.36,-181.64"/>
<polygon fill="#63b8ff" stroke="#63b8ff" points="700.54,-185.05 710.99,-183.29 701.73,-178.16 700.54,-185.05"/>
</a>
</g>
</g>
<!-- Node20 -->
<g id="Node000020" class="node">
<title>Node20</title>
<g id="a_Node000020"><a xlink:href="classBookmarkController.html#a9616aa294d0fde9d7cc6287088d51850" target="_top" xlink:title=" ">
<polygon fill="white" stroke="#666666" points="871.25,-123.5 709.75,-123.5 709.75,-90 871.25,-90 871.25,-123.5"/>
<text text-anchor="start" x="717.75" y="-110" font-family="Helvetica,sans-Serif" font-size="10.00">BookmarkController</text>
<text text-anchor="middle" x="790.5" y="-97.25" font-family="Helvetica,sans-Serif" font-size="10.00">::getNameOrderedBookmarks</text>
</a>
</g>
</g>
<!-- Node17&#45;&gt;Node20 -->
<g id="edge23_Node000017_Node000020" class="edge">
<title>Node17&#45;&gt;Node20</title>
<g id="a_edge23_Node000017_Node000020"><a xlink:title=" ">
<path fill="none" stroke="#63b8ff" d="M661.43,-148.53C681.58,-141.95 704.78,-134.39 725.84,-127.52"/>
<polygon fill="#63b8ff" stroke="#63b8ff" points="726.77,-130.89 735.19,-124.46 724.6,-124.24 726.77,-130.89"/>
</a>
</g>
</g>
<!-- Node18&#45;&gt;Node11 -->
<g id="edge22_Node000018_Node000011" class="edge">
<title>Node18&#45;&gt;Node11</title>
<g id="a_edge22_Node000018_Node000011"><a xlink:title=" ">
<path fill="none" stroke="#63b8ff" d="M868.68,-207.6C937.65,-217.3 1037.6,-231.36 1102.79,-240.53"/>
<polygon fill="#63b8ff" stroke="#63b8ff" points="1102.25,-243.99 1112.64,-241.91 1103.22,-237.05 1102.25,-243.99"/>
</a>
</g>
</g>
<!-- Node19 -->
<g id="Node000019" class="node">
<title>Node19</title>
<g id="a_Node000019"><a xlink:href="classBookmarkController.html#a20abe8dc04e9b90e8dae7538c275f821" target="_top" xlink:title=" ">
<polygon fill="white" stroke="#666666" points="1049.25,-202.5 910.25,-202.5 910.25,-169 1049.25,-169 1049.25,-202.5"/>
<text text-anchor="start" x="918.25" y="-189" font-family="Helvetica,sans-Serif" font-size="10.00">BookmarkController</text>
<text text-anchor="middle" x="979.75" y="-176.25" font-family="Helvetica,sans-Serif" font-size="10.00">::bookmarkDateCompare</text>
</a>
</g>
</g>
<!-- Node18&#45;&gt;Node19 -->
<g id="edge21_Node000018_Node000019" class="edge">
<title>Node18&#45;&gt;Node19</title>
<g id="a_edge21_Node000018_Node000019"><a xlink:title=" ">
<path fill="none" stroke="#63b8ff" d="M868.74,-192.21C878.52,-191.64 888.54,-191.05 898.36,-190.47"/>
<polygon fill="#63b8ff" stroke="#63b8ff" points="898.49,-193.97 908.26,-189.89 898.08,-186.98 898.49,-193.97"/>
</a>
</g>
</g>
<!-- Node20&#45;&gt;Node11 -->
<g id="edge27_Node000020_Node000011" class="edge">
<title>Node20&#45;&gt;Node11</title>
<g id="a_edge27_Node000020_Node000011"><a xlink:title=" ">
<path fill="none" stroke="#63b8ff" d="M871.47,-98.34C925.13,-96.1 996.01,-99.91 1052.25,-126.75 1099.93,-149.51 1137.95,-201.03 1156.33,-229.64"/>
<polygon fill="#63b8ff" stroke="#63b8ff" points="1153.14,-231.13 1161.4,-237.77 1159.08,-227.43 1153.14,-231.13"/>
</a>
</g>
</g>
<!-- Node21 -->
<g id="Node000021" class="node">
<title>Node21</title>
<g id="a_Node000021"><a xlink:href="classBookmarkController.html#a6b5f04b1716d50f1f8cdfbc2d6e46c1d" target="_top" xlink:title=" ">
<polygon fill="white" stroke="#666666" points="1052.25,-33.5 907.25,-33.5 907.25,0 1052.25,0 1052.25,-33.5"/>
<text text-anchor="start" x="915.25" y="-20" font-family="Helvetica,sans-Serif" font-size="10.00">BookmarkController</text>
<text text-anchor="middle" x="979.75" y="-7.25" font-family="Helvetica,sans-Serif" font-size="10.00">::bookmarkNameCompare</text>
</a>
</g>
</g>
<!-- Node20&#45;&gt;Node21 -->
<g id="edge24_Node000020_Node000021" class="edge">
<title>Node20&#45;&gt;Node21</title>
<g id="a_edge24_Node000020_Node000021"><a xlink:title=" ">
<path fill="none" stroke="#63b8ff" d="M827.16,-89.61C857.13,-75.21 900.16,-54.52 932.73,-38.87"/>
<polygon fill="#63b8ff" stroke="#63b8ff" points="934.04,-42.12 941.54,-34.64 931.01,-35.81 934.04,-42.12"/>
</a>
</g>
</g>
<!-- Node21&#45;&gt;Node11 -->
<g id="edge25_Node000021_Node000011" class="edge">
<title>Node21&#45;&gt;Node11</title>
<g id="a_edge25_Node000021_Node000011"><a xlink:title=" ">
<path fill="none" stroke="#63b8ff" d="M1031.66,-33.93C1039.05,-37.77 1046.2,-42.34 1052.25,-47.75 1110.34,-99.64 1146.74,-187.74 1161.21,-228.23"/>
<polygon fill="#63b8ff" stroke="#63b8ff" points="1157.85,-229.23 1164.44,-237.53 1164.47,-226.94 1157.85,-229.23"/>
</a>
</g>
</g>
<!-- Node22 -->
<g id="Node000022" class="node">
<title>Node22</title>
<g id="a_Node000022"><a xlink:href="namespaceutility.html#aa62fb20032f5e2269c27a55c16fb4d1f" target="_top" xlink:title=" ">
<polygon fill="white" stroke="#666666" points="1225.75,-27.12 1113,-27.12 1113,-6.38 1225.75,-6.38 1225.75,-27.12"/>
<text text-anchor="middle" x="1169.38" y="-13.62" font-family="Helvetica,sans-Serif" font-size="10.00">utility::toLowerCase</text>
</a>
</g>
</g>
<!-- Node21&#45;&gt;Node22 -->
<g id="edge26_Node000021_Node000022" class="edge">
<title>Node21&#45;&gt;Node22</title>
<g id="a_edge26_Node000021_Node000022"><a xlink:title=" ">
<path fill="none" stroke="#63b8ff" d="M1052.49,-16.75C1068.55,-16.75 1085.54,-16.75 1101.4,-16.75"/>
<polygon fill="#63b8ff" stroke="#63b8ff" points="1101.21,-20.25 1111.21,-16.75 1101.21,-13.25 1101.21,-20.25"/>
</a>
</g>
</g>
</g>
</svg>

<g id="navigator" transform="translate(0 0)" fill="#404254">
  <rect fill="#f2f5e9" fill-opacity="0.5" stroke="#606060" stroke-width=".5" x="0" y="0" width="60" height="60"/>
  <use id="zoomplus" xlink:href="#zoomPlus" x="17" y="9" onmousedown="handleZoom(evt,'in')"/>
  <use id="zoomminus" xlink:href="#zoomMin" x="42" y="9" onmousedown="handleZoom(evt,'out')"/>
  <use id="reset" xlink:href="#resetDef" x="30" y="36" onmousedown="handleReset()"/>
   <use id="arrowup" xlink:href="#arrowUp" x="0" y="0" onmousedown="handlePan(0,-1)"/>
  <use id="arrowright" xlink:href="#arrowRight" x="0" y="0" onmousedown="handlePan(1,0)"/>
  <use id="arrowdown" xlink:href="#arrowDown" x="0" y="0" onmousedown="handlePan(0,1)"/>
  <use id="arrowleft" xlink:href="#arrowLeft" x="0" y="0" onmousedown="handlePan(-1,0)"/>
</g>
<svg viewBox="0 0 15 15" width="100%" height="30px" preserveAspectRatio="xMaxYMin meet">
 <g id="arrow_out" transform="scale(0.3 0.3)">
  <a xlink:href="classBookmarkController_a62a20b4ec8e3d052d58ce0ef8dc06c51_cgraph_org.svg" target="_base">
   <rect id="button" ry="5" rx="5" y="6" x="6" height="38" width="38"
        fill="#f2f5e9" fill-opacity="0.5" stroke="#606060" stroke-width="1.0"/>
   <path id="arrow"
     d="M 11.500037,31.436501 C 11.940474,20.09759 22.043105,11.32322 32.158766,21.979434 L 37.068811,17.246167 C 37.068811,17.246167 37.088388,32 37.088388,32 L 22.160133,31.978069 C 22.160133,31.978069 26.997745,27.140456 26.997745,27.140456 C 18.528582,18.264221 13.291696,25.230495 11.500037,31.436501 z"
     style="fill:#404040;"/>
  </a>
 </g>
</svg>

<style type='text/css'>
<![CDATA[
[data-mouse-over-selected='false'] { opacity: 0.7; }
[data-mouse-over-selected='true']  { opacity: 1.0; }
]]>
</style>
<script type="application/ecmascript"><![CDATA[
document.addEventListener('DOMContentLoaded', (event) => {
  highlightEdges();
  highlightAdjacentNodes();
});
]]></script>
</svg>
