<?xml version="1.0" encoding="UTF-8" standalone="no"?>
<!DOCTYPE svg PUBLIC "-//W3C//DTD SVG 1.1//EN"
 "http://www.w3.org/Graphics/SVG/1.1/DTD/svg11.dtd">
<!-- Generated by graphviz version 9.0.0 (0)
 -->
<!-- Title: QtCodeNavigator::scrollToFocus Pages: 1 -->
<svg width="1146pt" height="294pt"
 viewBox="0.00 0.00 1145.75 294.12" xmlns="http://www.w3.org/2000/svg" xmlns:xlink="http://www.w3.org/1999/xlink">
<g id="graph0" class="graph" transform="scale(1 1) rotate(0) translate(4 290.12)">
<title>QtCodeNavigator::scrollToFocus</title>
<!-- Node1 -->
<g id="Node000001" class="node">
<title>Node1</title>
<g id="a_Node000001"><a xlink:title=" ">
<polygon fill="#999999" stroke="#666666" points="142.75,-124.12 0,-124.12 0,-90.62 142.75,-90.62 142.75,-124.12"/>
<text text-anchor="start" x="8" y="-110.62" font-family="Helvetica,sans-Serif" font-size="10.00">QtCodeNavigator::scrollTo</text>
<text text-anchor="middle" x="71.38" y="-97.88" font-family="Helvetica,sans-Serif" font-size="10.00">Focus</text>
</a>
</g>
</g>
<!-- Node2 -->
<g id="Node000002" class="node">
<title>Node2</title>
<g id="a_Node000002"><a xlink:href="classCodeFocusHandler.html#a490e77f69ddbfb9839de943c88817683" target="_top" xlink:title=" ">
<polygon fill="white" stroke="#666666" points="333.12,-227.75 194.12,-227.75 194.12,-207 333.12,-207 333.12,-227.75"/>
<text text-anchor="middle" x="263.62" y="-214.25" font-family="Helvetica,sans-Serif" font-size="10.00">CodeFocusHandler::focus</text>
</a>
</g>
</g>
<!-- Node1&#45;&gt;Node2 -->
<g id="edge1_Node000001_Node000002" class="edge">
<title>Node1&#45;&gt;Node2</title>
<g id="a_edge1_Node000001_Node000002"><a xlink:title=" ">
<path fill="none" stroke="#63b8ff" d="M87.15,-124.28C106.21,-144.99 141.39,-179.62 178.75,-198.38 182.02,-200.02 185.43,-201.52 188.93,-202.89"/>
<polygon fill="#63b8ff" stroke="#63b8ff" points="187.59,-206.13 198.19,-206.13 189.91,-199.52 187.59,-206.13"/>
</a>
</g>
</g>
<!-- Node9 -->
<g id="Node000009" class="node">
<title>Node9</title>
<g id="a_Node000009"><a xlink:href="classCodeFocusHandler.html#a312d13adfb757c788bd936cf700bbe64" target="_top" xlink:title=" ">
<polygon fill="white" stroke="#666666" points="345.88,-189.12 181.38,-189.12 181.38,-155.62 345.88,-155.62 345.88,-189.12"/>
<text text-anchor="start" x="189.38" y="-175.62" font-family="Helvetica,sans-Serif" font-size="10.00">CodeFocusHandler::getCurrent</text>
<text text-anchor="middle" x="263.62" y="-162.88" font-family="Helvetica,sans-Serif" font-size="10.00">Focus</text>
</a>
</g>
</g>
<!-- Node1&#45;&gt;Node9 -->
<g id="edge9_Node000001_Node000009" class="edge">
<title>Node1&#45;&gt;Node9</title>
<g id="a_edge9_Node000001_Node000009"><a xlink:title=" ">
<path fill="none" stroke="#63b8ff" d="M117.75,-124.59C136.55,-131.57 158.63,-139.57 178.75,-146.38 184.03,-148.16 189.51,-149.97 195.03,-151.75"/>
<polygon fill="#63b8ff" stroke="#63b8ff" points="193.62,-154.97 204.21,-154.68 195.75,-148.3 193.62,-154.97"/>
</a>
</g>
</g>
<!-- Node10 -->
<g id="Node000010" class="node">
<title>Node10</title>
<g id="a_Node000010"><a xlink:href="classQtCodeNavigator.html#afbd2613391d77ee268af3b0c2f38d523" target="_top" xlink:title=" ">
<polygon fill="white" stroke="#666666" points="335,-137.75 192.25,-137.75 192.25,-117 335,-117 335,-137.75"/>
<text text-anchor="middle" x="263.62" y="-124.25" font-family="Helvetica,sans-Serif" font-size="10.00">QtCodeNavigator::scrollTo</text>
</a>
</g>
</g>
<!-- Node1&#45;&gt;Node10 -->
<g id="edge10_Node000001_Node000010" class="edge">
<title>Node1&#45;&gt;Node10</title>
<g id="a_edge10_Node000001_Node000010"><a xlink:title=" ">
<path fill="none" stroke="#63b8ff" d="M143.22,-114.82C155.43,-116.11 168.22,-117.45 180.69,-118.76"/>
<polygon fill="#63b8ff" stroke="#63b8ff" points="180.22,-122.23 190.54,-119.8 180.96,-115.27 180.22,-122.23"/>
</a>
</g>
</g>
<!-- Node13 -->
<g id="Node000013" class="node">
<title>Node13</title>
<g id="a_Node000013"><a xlink:href="structCodeScrollParams.html#af9f8aad3cbad07fee11ba8931ba365dd" target="_top" xlink:title=" ">
<polygon fill="white" stroke="#666666" points="332,-98.75 195.25,-98.75 195.25,-78 332,-78 332,-98.75"/>
<text text-anchor="middle" x="263.62" y="-85.25" font-family="Helvetica,sans-Serif" font-size="10.00">CodeScrollParams::toFile</text>
</a>
</g>
</g>
<!-- Node1&#45;&gt;Node13 -->
<g id="edge13_Node000001_Node000013" class="edge">
<title>Node1&#45;&gt;Node13</title>
<g id="a_edge13_Node000001_Node000013"><a xlink:title=" ">
<path fill="none" stroke="#63b8ff" d="M143.22,-100.3C156.42,-98.98 170.3,-97.6 183.73,-96.25"/>
<polygon fill="#63b8ff" stroke="#63b8ff" points="183.77,-99.77 193.37,-95.29 183.08,-92.8 183.77,-99.77"/>
</a>
</g>
</g>
<!-- Node15 -->
<g id="Node000015" class="node">
<title>Node15</title>
<g id="a_Node000015"><a xlink:href="structCodeScrollParams.html#a6ff87237d484100131ec72880b578708" target="_top" xlink:title=" ">
<polygon fill="white" stroke="#666666" points="333.88,-59.75 193.38,-59.75 193.38,-39 333.88,-39 333.88,-59.75"/>
<text text-anchor="middle" x="263.62" y="-46.25" font-family="Helvetica,sans-Serif" font-size="10.00">CodeScrollParams::toLine</text>
</a>
</g>
</g>
<!-- Node1&#45;&gt;Node15 -->
<g id="edge15_Node000001_Node000015" class="edge">
<title>Node1&#45;&gt;Node15</title>
<g id="a_edge15_Node000001_Node000015"><a xlink:title=" ">
<path fill="none" stroke="#63b8ff" d="M117.05,-90.19C135.93,-83.25 158.26,-75.46 178.75,-69.38 186.26,-67.15 194.21,-64.99 202.09,-62.98"/>
<polygon fill="#63b8ff" stroke="#63b8ff" points="202.83,-66.4 211.69,-60.59 201.14,-59.61 202.83,-66.4"/>
</a>
</g>
</g>
<!-- Node16 -->
<g id="Node000016" class="node">
<title>Node16</title>
<g id="a_Node000016"><a xlink:href="structCodeScrollParams.html#a429e03699961c71795e2c5ad23938f9c" target="_top" xlink:title=" ">
<polygon fill="white" stroke="#666666" points="348.5,-20.75 178.75,-20.75 178.75,0 348.5,0 348.5,-20.75"/>
<text text-anchor="middle" x="263.62" y="-7.25" font-family="Helvetica,sans-Serif" font-size="10.00">CodeScrollParams::toReference</text>
</a>
</g>
</g>
<!-- Node1&#45;&gt;Node16 -->
<g id="edge17_Node000001_Node000016" class="edge">
<title>Node1&#45;&gt;Node16</title>
<g id="a_edge17_Node000001_Node000016"><a xlink:title=" ">
<path fill="none" stroke="#63b8ff" d="M90.92,-90.41C111.09,-72.85 144.98,-45.88 178.75,-30.38 183.52,-28.19 188.55,-26.22 193.68,-24.46"/>
<polygon fill="#63b8ff" stroke="#63b8ff" points="194.38,-27.91 202.88,-21.58 192.29,-21.23 194.38,-27.91"/>
</a>
</g>
</g>
<!-- Node3 -->
<g id="Node000003" class="node">
<title>Node3</title>
<g id="a_Node000003"><a xlink:href="structCodeFocusHandler_1_1Focus.html#acb42596bc1f6572b7b8b396db1280bf3" target="_top" xlink:title=" ">
<polygon fill="white" stroke="#666666" points="541.12,-286.12 400.62,-286.12 400.62,-252.62 541.12,-252.62 541.12,-286.12"/>
<text text-anchor="start" x="408.62" y="-272.62" font-family="Helvetica,sans-Serif" font-size="10.00">CodeFocusHandler::Focus</text>
<text text-anchor="middle" x="470.88" y="-259.88" font-family="Helvetica,sans-Serif" font-size="10.00">::isEmpty</text>
</a>
</g>
</g>
<!-- Node2&#45;&gt;Node3 -->
<g id="edge2_Node000002_Node000003" class="edge">
<title>Node2&#45;&gt;Node3</title>
<g id="a_edge2_Node000002_Node000003"><a xlink:title=" ">
<path fill="none" stroke="#63b8ff" d="M307.15,-228.15C331.41,-234.3 362.59,-242.19 391.15,-249.43"/>
<polygon fill="#63b8ff" stroke="#63b8ff" points="389.93,-252.73 400.48,-251.79 391.65,-245.95 389.93,-252.73"/>
</a>
</g>
</g>
<!-- Node4 -->
<g id="Node000004" class="node">
<title>Node4</title>
<g id="a_Node000004"><a xlink:href="classCodeFocusHandler.html#a6cba54f52c7627d75c0846ed76d88957" target="_top" xlink:title=" ">
<polygon fill="white" stroke="#666666" points="552.75,-234.12 389,-234.12 389,-200.62 552.75,-200.62 552.75,-234.12"/>
<text text-anchor="start" x="397" y="-220.62" font-family="Helvetica,sans-Serif" font-size="10.00">CodeFocusHandler::setCurrent</text>
<text text-anchor="middle" x="470.88" y="-207.88" font-family="Helvetica,sans-Serif" font-size="10.00">Focus</text>
</a>
</g>
</g>
<!-- Node2&#45;&gt;Node4 -->
<g id="edge3_Node000002_Node000004" class="edge">
<title>Node2&#45;&gt;Node4</title>
<g id="a_edge3_Node000002_Node000004"><a xlink:title=" ">
<path fill="none" stroke="#63b8ff" d="M333.54,-210.96C347.65,-210.67 362.71,-210.57 377.49,-210.65"/>
<polygon fill="#63b8ff" stroke="#63b8ff" points="377.16,-214.15 387.2,-210.74 377.23,-207.15 377.16,-214.15"/>
</a>
</g>
</g>
<!-- Node4&#45;&gt;Node2 -->
<g id="edge7_Node000004_Node000002" class="edge">
<title>Node4&#45;&gt;Node2</title>
<g id="a_edge7_Node000004_Node000002"><a xlink:title=" ">
<path fill="none" stroke="#63b8ff" d="M388.71,-223.99C374.3,-224.17 359.3,-224.17 344.92,-223.98"/>
<polygon fill="#63b8ff" stroke="#63b8ff" points="345.11,-220.48 335.05,-223.82 344.99,-227.48 345.11,-220.48"/>
</a>
</g>
</g>
<!-- Node5 -->
<g id="Node000005" class="node">
<title>Node5</title>
<g id="a_Node000005"><a xlink:href="classMessage.html#a4556438d5bb073d6f19ea777fe3faf10" target="_top" xlink:title=" ">
<polygon fill="white" stroke="#666666" points="719.88,-249.75 613.12,-249.75 613.12,-229 719.88,-229 719.88,-249.75"/>
<text text-anchor="middle" x="666.5" y="-236.25" font-family="Helvetica,sans-Serif" font-size="10.00">Message::dispatch</text>
</a>
</g>
</g>
<!-- Node4&#45;&gt;Node5 -->
<g id="edge4_Node000004_Node000005" class="edge">
<title>Node4&#45;&gt;Node5</title>
<g id="a_edge4_Node000004_Node000005"><a xlink:title=" ">
<path fill="none" stroke="#63b8ff" d="M553.15,-226.61C569.39,-228.45 586.23,-230.37 601.77,-232.13"/>
<polygon fill="#63b8ff" stroke="#63b8ff" points="601,-235.57 611.33,-233.22 601.79,-228.61 601,-235.57"/>
</a>
</g>
</g>
<!-- Node8 -->
<g id="Node000008" class="node">
<title>Node8</title>
<g id="a_Node000008"><a xlink:href="classCodeFocusHandler.html#a06f799c6b1b33d77618fc5150f06b32e" target="_top" xlink:title=" ">
<polygon fill="white" stroke="#666666" points="739.75,-211.12 593.25,-211.12 593.25,-177.62 739.75,-177.62 739.75,-211.12"/>
<text text-anchor="start" x="601.25" y="-197.62" font-family="Helvetica,sans-Serif" font-size="10.00">CodeFocusHandler::update</text>
<text text-anchor="middle" x="666.5" y="-184.88" font-family="Helvetica,sans-Serif" font-size="10.00">Files</text>
</a>
</g>
</g>
<!-- Node4&#45;&gt;Node8 -->
<g id="edge8_Node000004_Node000008" class="edge">
<title>Node4&#45;&gt;Node8</title>
<g id="a_edge8_Node000004_Node000008"><a xlink:title=" ">
<path fill="none" stroke="#63b8ff" d="M553.15,-207.72C562.49,-206.61 572.03,-205.48 581.41,-204.36"/>
<polygon fill="#63b8ff" stroke="#63b8ff" points="581.73,-207.85 591.25,-203.2 580.91,-200.9 581.73,-207.85"/>
</a>
</g>
</g>
<!-- Node6 -->
<g id="Node000006" class="node">
<title>Node6</title>
<g id="a_Node000006"><a xlink:href="classMessageQueue.html#a085ebbc4ba9c58eeeaad64e77efc8e07" target="_top" xlink:title=" ">
<polygon fill="white" stroke="#666666" points="929.75,-249.75 775.75,-249.75 775.75,-229 929.75,-229 929.75,-249.75"/>
<text text-anchor="middle" x="852.75" y="-236.25" font-family="Helvetica,sans-Serif" font-size="10.00">MessageQueue::getInstance</text>
</a>
</g>
</g>
<!-- Node5&#45;&gt;Node6 -->
<g id="edge5_Node000005_Node000006" class="edge">
<title>Node5&#45;&gt;Node6</title>
<g id="a_edge5_Node000005_Node000006"><a xlink:title=" ">
<path fill="none" stroke="#63b8ff" d="M720.3,-239.38C733.94,-239.38 749,-239.38 763.91,-239.38"/>
<polygon fill="#63b8ff" stroke="#63b8ff" points="763.74,-242.88 773.74,-239.38 763.74,-235.88 763.74,-242.88"/>
</a>
</g>
</g>
<!-- Node7 -->
<g id="Node000007" class="node">
<title>Node7</title>
<g id="a_Node000007"><a xlink:href="classMessageQueue.html#a006069f4b83d2372c989c52784fac5de" target="_top" xlink:title=" ">
<polygon fill="white" stroke="#666666" points="1137.75,-249.75 965.75,-249.75 965.75,-229 1137.75,-229 1137.75,-249.75"/>
<text text-anchor="middle" x="1051.75" y="-236.25" font-family="Helvetica,sans-Serif" font-size="10.00">MessageQueue::MessageQueue</text>
</a>
</g>
</g>
<!-- Node6&#45;&gt;Node7 -->
<g id="edge6_Node000006_Node000007" class="edge">
<title>Node6&#45;&gt;Node7</title>
<g id="a_edge6_Node000006_Node000007"><a xlink:title=" ">
<path fill="none" stroke="#63b8ff" d="M930.2,-239.38C938.06,-239.38 946.13,-239.38 954.17,-239.38"/>
<polygon fill="#63b8ff" stroke="#63b8ff" points="954,-242.88 964,-239.38 954,-235.88 954,-242.88"/>
</a>
</g>
</g>
<!-- Node11 -->
<g id="Node000011" class="node">
<title>Node11</title>
<g id="a_Node000011"><a xlink:href="classQtCodeNavigable.html#a3af0f2468fb11827b4ceb2782ece2f13" target="_top" xlink:title=" ">
<polygon fill="white" stroke="#666666" points="557.25,-160.75 384.5,-160.75 384.5,-140 557.25,-140 557.25,-160.75"/>
<text text-anchor="middle" x="470.88" y="-147.25" font-family="Helvetica,sans-Serif" font-size="10.00">QtCodeNavigable::getScrollArea</text>
</a>
</g>
</g>
<!-- Node10&#45;&gt;Node11 -->
<g id="edge11_Node000010_Node000011" class="edge">
<title>Node10&#45;&gt;Node11</title>
<g id="a_edge11_Node000010_Node000011"><a xlink:title=" ">
<path fill="none" stroke="#63b8ff" d="M335.26,-135.29C347.46,-136.66 360.33,-138.1 373.07,-139.53"/>
<polygon fill="#63b8ff" stroke="#63b8ff" points="372.39,-142.97 382.72,-140.61 373.17,-136.02 372.39,-142.97"/>
</a>
</g>
</g>
<!-- Node12 -->
<g id="Node000012" class="node">
<title>Node12</title>
<g id="a_Node000012"><a xlink:href="classQtCodeNavigable.html#ab4c83a78a007b2983692635c58e94be2" target="_top" xlink:title=" ">
<polygon fill="white" stroke="#666666" points="543,-121.75 398.75,-121.75 398.75,-101 543,-101 543,-121.75"/>
<text text-anchor="middle" x="470.88" y="-108.25" font-family="Helvetica,sans-Serif" font-size="10.00">QtCodeNavigable::scrollTo</text>
</a>
</g>
</g>
<!-- Node10&#45;&gt;Node12 -->
<g id="edge12_Node000010_Node000012" class="edge">
<title>Node10&#45;&gt;Node12</title>
<g id="a_edge12_Node000010_Node000012"><a xlink:title=" ">
<path fill="none" stroke="#63b8ff" d="M335.26,-121.87C352,-120.56 370.01,-119.16 387.23,-117.82"/>
<polygon fill="#63b8ff" stroke="#63b8ff" points="387.21,-121.33 396.9,-117.06 386.66,-114.35 387.21,-121.33"/>
</a>
</g>
</g>
<!-- Node14 -->
<g id="Node000014" class="node">
<title>Node14</title>
<g id="a_Node000014"><a xlink:href="structCodeScrollParams.html#a8c72d070589c62c003807b372b287c0c" target="_top" xlink:title=" ">
<polygon fill="white" stroke="#666666" points="552,-66.12 389.75,-66.12 389.75,-32.62 552,-32.62 552,-66.12"/>
<text text-anchor="start" x="397.75" y="-52.62" font-family="Helvetica,sans-Serif" font-size="10.00">CodeScrollParams::CodeScroll</text>
<text text-anchor="middle" x="470.88" y="-39.88" font-family="Helvetica,sans-Serif" font-size="10.00">Params</text>
</a>
</g>
</g>
<!-- Node13&#45;&gt;Node14 -->
<g id="edge14_Node000013_Node000014" class="edge">
<title>Node13&#45;&gt;Node14</title>
<g id="a_edge14_Node000013_Node000014"><a xlink:title=" ">
<path fill="none" stroke="#63b8ff" d="M321.8,-77.51C339.35,-74.18 359.12,-70.42 378.37,-66.76"/>
<polygon fill="#63b8ff" stroke="#63b8ff" points="378.96,-70.21 388.13,-64.91 377.65,-63.34 378.96,-70.21"/>
</a>
</g>
</g>
<!-- Node15&#45;&gt;Node14 -->
<g id="edge16_Node000015_Node000014" class="edge">
<title>Node15&#45;&gt;Node14</title>
<g id="a_edge16_Node000015_Node000014"><a xlink:title=" ">
<path fill="none" stroke="#63b8ff" d="M334.11,-49.38C348.29,-49.38 363.42,-49.38 378.23,-49.38"/>
<polygon fill="#63b8ff" stroke="#63b8ff" points="377.97,-52.88 387.97,-49.38 377.97,-45.88 377.97,-52.88"/>
</a>
</g>
</g>
<!-- Node16&#45;&gt;Node14 -->
<g id="edge18_Node000016_Node000014" class="edge">
<title>Node16&#45;&gt;Node14</title>
<g id="a_edge18_Node000016_Node000014"><a xlink:title=" ">
<path fill="none" stroke="#63b8ff" d="M321.8,-21.24C339.35,-24.57 359.12,-28.33 378.37,-31.99"/>
<polygon fill="#63b8ff" stroke="#63b8ff" points="377.65,-35.41 388.13,-33.84 378.96,-28.54 377.65,-35.41"/>
</a>
</g>
</g>
</g>
</svg>
