<?xml version="1.0" encoding="UTF-8" standalone="no"?>
<!DOCTYPE svg PUBLIC "-//W3C//DTD SVG 1.1//EN"
 "http://www.w3.org/Graphics/SVG/1.1/DTD/svg11.dtd">
<!-- Generated by graphviz version 7.1.0 (0)
 -->
<!-- Title: SqliteIndexStorage::addElementComponent Pages: 1 -->
<svg width="359pt" height="64pt"
 viewBox="0.00 0.00 359.00 64.00" xmlns="http://www.w3.org/2000/svg" xmlns:xlink="http://www.w3.org/1999/xlink">
<g id="graph0" class="graph" transform="scale(1 1) rotate(0) translate(4 60)">
<title>SqliteIndexStorage::addElementComponent</title>
<!-- Node1 -->
<g id="node1" class="node">
<title>Node1</title>
<g id="a_node1"><a xlink:title=" ">
<polygon fill="#999999" stroke="#666666" points="137,-42.5 0,-42.5 0,-12.5 137,-12.5 137,-42.5"/>
<text text-anchor="start" x="8" y="-30.5" font-family="Helvetica,sans-Serif" font-size="10.00">SqliteIndexStorage</text>
<text text-anchor="middle" x="68.5" y="-19.5" font-family="Helvetica,sans-Serif" font-size="10.00">::addElementComponent</text>
</a>
</g>
</g>
<!-- Node2 -->
<g id="node2" class="node">
<title>Node2</title>
<g id="a_node2"><a xlink:href="namespaceutility.html#a3370ea0d4afa1a0a4376d2fe034799ce" target="_top" xlink:title=" ">
<polygon fill="white" stroke="#666666" points="320.5,-56 203.5,-56 203.5,-37 320.5,-37 320.5,-56"/>
<text text-anchor="middle" x="262" y="-44" font-family="Helvetica,sans-Serif" font-size="10.00">utility::encodeToUtf8</text>
</a>
</g>
</g>
<!-- Node1&#45;&gt;Node2 -->
<g id="edge1" class="edge">
<title>Node1&#45;&gt;Node2</title>
<path fill="none" stroke="#63b8ff" d="M137.29,-34.23C154.94,-35.98 173.98,-37.87 191.71,-39.63"/>
<polygon fill="#63b8ff" stroke="#63b8ff" points="191.34,-43.11 201.64,-40.61 192.03,-36.14 191.34,-43.11"/>
</g>
<!-- Node3 -->
<g id="node3" class="node">
<title>Node3</title>
<g id="a_node3"><a xlink:href="classSqliteStorage.html#a6cc9f021cdd876e5dbc6a9c69e65c6b9" target="_top" xlink:title=" ">
<polygon fill="white" stroke="#666666" points="351,-19 173,-19 173,0 351,0 351,-19"/>
<text text-anchor="middle" x="262" y="-7" font-family="Helvetica,sans-Serif" font-size="10.00">SqliteStorage::executeStatement</text>
</a>
</g>
</g>
<!-- Node1&#45;&gt;Node3 -->
<g id="edge2" class="edge">
<title>Node1&#45;&gt;Node3</title>
<path fill="none" stroke="#63b8ff" d="M137.29,-21.13C145.04,-20.4 153.06,-19.65 161.12,-18.89"/>
<polygon fill="#63b8ff" stroke="#63b8ff" points="161.38,-22.38 171.01,-17.96 160.72,-15.41 161.38,-22.38"/>
</g>
</g>
</svg>
