<?xml version="1.0" encoding="UTF-8" standalone="no"?>
<!DOCTYPE svg PUBLIC "-//W3C//DTD SVG 1.1//EN"
 "http://www.w3.org/Graphics/SVG/1.1/DTD/svg11.dtd">
<!-- Generated by graphviz version 9.0.0 (0)
 -->
<!-- Title: QtProjectWizardContentPathsIndexedHeaders::savedFilesDialog Pages: 1 -->
<svg width="1105pt" height="149pt"
 viewBox="0.00 0.00 1104.50 148.75" xmlns="http://www.w3.org/2000/svg" xmlns:xlink="http://www.w3.org/1999/xlink">
<g id="graph0" class="graph" transform="scale(1 1) rotate(0) translate(4 144.75)">
<title>QtProjectWizardContentPathsIndexedHeaders::savedFilesDialog</title>
<!-- Node1 -->
<g id="Node000001" class="node">
<title>Node1</title>
<g id="a_Node000001"><a xlink:title=" ">
<polygon fill="#999999" stroke="#666666" points="184,-68.12 0,-68.12 0,-34.62 184,-34.62 184,-68.12"/>
<text text-anchor="start" x="8" y="-54.62" font-family="Helvetica,sans-Serif" font-size="10.00">QtProjectWizardContentPaths</text>
<text text-anchor="middle" x="92" y="-41.88" font-family="Helvetica,sans-Serif" font-size="10.00">IndexedHeaders::savedFilesDialog</text>
</a>
</g>
</g>
<!-- Node2 -->
<g id="Node000002" class="node">
<title>Node2</title>
<g id="a_Node000002"><a xlink:href="classQtProjectWizardContent.html#ac726f0f6fabc48481c6a508dc2b916ce" target="_top" xlink:title=" ">
<polygon fill="white" stroke="#666666" points="353,-91.12 220,-91.12 220,-57.62 353,-57.62 353,-91.12"/>
<text text-anchor="start" x="228" y="-77.62" font-family="Helvetica,sans-Serif" font-size="10.00">QtProjectWizardContent</text>
<text text-anchor="middle" x="286.5" y="-64.88" font-family="Helvetica,sans-Serif" font-size="10.00">::closedFilesDialog</text>
</a>
</g>
</g>
<!-- Node1&#45;&gt;Node2 -->
<g id="edge1_Node000001_Node000002" class="edge">
<title>Node1&#45;&gt;Node2</title>
<g id="a_edge1_Node000001_Node000002"><a xlink:title=" ">
<path fill="none" stroke="#63b8ff" d="M184.46,-62.3C192.41,-63.25 200.41,-64.21 208.23,-65.14"/>
<polygon fill="#63b8ff" stroke="#63b8ff" points="207.69,-68.6 218.03,-66.31 208.52,-61.65 207.69,-68.6"/>
</a>
</g>
</g>
<!-- Node3 -->
<g id="Node000003" class="node">
<title>Node3</title>
<g id="a_Node000003"><a xlink:href="classQtPathListBox.html#afcd1f49e4f8ed5b9c03894b58fb9933c" target="_top" xlink:title=" ">
<polygon fill="white" stroke="#666666" points="353,-39.75 220,-39.75 220,-19 353,-19 353,-39.75"/>
<text text-anchor="middle" x="286.5" y="-26.25" font-family="Helvetica,sans-Serif" font-size="10.00">QtPathListBox::setPaths</text>
</a>
</g>
</g>
<!-- Node1&#45;&gt;Node3 -->
<g id="edge2_Node000001_Node000003" class="edge">
<title>Node1&#45;&gt;Node3</title>
<g id="a_edge2_Node000001_Node000003"><a xlink:title=" ">
<path fill="none" stroke="#63b8ff" d="M184.46,-40.92C192.41,-40.01 200.41,-39.1 208.23,-38.21"/>
<polygon fill="#63b8ff" stroke="#63b8ff" points="208.49,-41.7 218.03,-37.09 207.7,-34.74 208.49,-41.7"/>
</a>
</g>
</g>
<!-- Node4 -->
<g id="Node000004" class="node">
<title>Node4</title>
<g id="a_Node000004"><a xlink:href="classQtPathListBox.html#a895fde64a5d494326362579e6f288a37" target="_top" xlink:title=" ">
<polygon fill="white" stroke="#666666" points="525,-59.75 389,-59.75 389,-39 525,-39 525,-59.75"/>
<text text-anchor="middle" x="457" y="-46.25" font-family="Helvetica,sans-Serif" font-size="10.00">QtPathListBox::addPaths</text>
</a>
</g>
</g>
<!-- Node3&#45;&gt;Node4 -->
<g id="edge3_Node000003_Node000004" class="edge">
<title>Node3&#45;&gt;Node4</title>
<g id="a_edge3_Node000003_Node000004"><a xlink:title=" ">
<path fill="none" stroke="#63b8ff" d="M353.13,-37.16C361.04,-38.1 369.19,-39.07 377.26,-40.03"/>
<polygon fill="#63b8ff" stroke="#63b8ff" points="376.76,-43.49 387.1,-41.2 377.59,-36.54 376.76,-43.49"/>
</a>
</g>
</g>
<!-- Node12 -->
<g id="Node000012" class="node">
<title>Node12</title>
<g id="a_Node000012"><a xlink:href="classQtListBox.html#a2d1bd3966d59c8d45560a819e2709dfd" target="_top" xlink:title=" ">
<polygon fill="white" stroke="#666666" points="503.62,-20.75 410.38,-20.75 410.38,0 503.62,0 503.62,-20.75"/>
<text text-anchor="middle" x="457" y="-7.25" font-family="Helvetica,sans-Serif" font-size="10.00">QtListBox::clear</text>
</a>
</g>
</g>
<!-- Node3&#45;&gt;Node12 -->
<g id="edge11_Node000003_Node000012" class="edge">
<title>Node3&#45;&gt;Node12</title>
<g id="a_edge11_Node000003_Node000012"><a xlink:title=" ">
<path fill="none" stroke="#63b8ff" d="M353.13,-21.97C368.3,-20.26 384.31,-18.46 399.08,-16.79"/>
<polygon fill="#63b8ff" stroke="#63b8ff" points="399.04,-20.32 408.58,-15.72 398.25,-13.36 399.04,-20.32"/>
</a>
</g>
</g>
<!-- Node5 -->
<g id="Node000005" class="node">
<title>Node5</title>
<g id="a_Node000005"><a xlink:href="classQtListBox.html#ac42b92a2e2a8eb509458dca8def467c8" target="_top" xlink:title=" ">
<polygon fill="white" stroke="#666666" points="710.88,-89.12 565.12,-89.12 565.12,-55.62 710.88,-55.62 710.88,-89.12"/>
<text text-anchor="start" x="573.12" y="-75.62" font-family="Helvetica,sans-Serif" font-size="10.00">QtListBox::addListBoxItem</text>
<text text-anchor="middle" x="638" y="-62.88" font-family="Helvetica,sans-Serif" font-size="10.00">WithText</text>
</a>
</g>
</g>
<!-- Node4&#45;&gt;Node5 -->
<g id="edge4_Node000004_Node000005" class="edge">
<title>Node4&#45;&gt;Node5</title>
<g id="a_edge4_Node000004_Node000005"><a xlink:title=" ">
<path fill="none" stroke="#63b8ff" d="M525.42,-58.04C534.58,-59.21 544.06,-60.43 553.47,-61.64"/>
<polygon fill="#63b8ff" stroke="#63b8ff" points="552.99,-65.11 563.36,-62.91 553.89,-58.17 552.99,-65.11"/>
</a>
</g>
</g>
<!-- Node10 -->
<g id="Node000010" class="node">
<title>Node10</title>
<g id="a_Node000010"><a xlink:href="classQtListBoxItem.html#a1d042d61978d8d5d143b130a3cdd6ab8" target="_top" xlink:title=" ">
<polygon fill="white" stroke="#666666" points="715,-37.75 561,-37.75 561,-17 715,-17 715,-37.75"/>
<text text-anchor="middle" x="638" y="-24.25" font-family="Helvetica,sans-Serif" font-size="10.00">QtListBoxItem::setReadOnly</text>
</a>
</g>
</g>
<!-- Node4&#45;&gt;Node10 -->
<g id="edge9_Node000004_Node000010" class="edge">
<title>Node4&#45;&gt;Node10</title>
<g id="a_edge9_Node000004_Node000010"><a xlink:title=" ">
<path fill="none" stroke="#63b8ff" d="M525.42,-41.09C533.23,-40.13 541.28,-39.14 549.32,-38.15"/>
<polygon fill="#63b8ff" stroke="#63b8ff" points="549.64,-41.64 559.13,-36.95 548.78,-34.69 549.64,-41.64"/>
</a>
</g>
</g>
<!-- Node6 -->
<g id="Node000006" class="node">
<title>Node6</title>
<g id="a_Node000006"><a xlink:href="classQtListBox.html#ab85600b8cd5aa6c035abd21c2e86d928" target="_top" xlink:title=" ">
<polygon fill="white" stroke="#666666" points="899.38,-121.75 753.62,-121.75 753.62,-101 899.38,-101 899.38,-121.75"/>
<text text-anchor="middle" x="826.5" y="-108.25" font-family="Helvetica,sans-Serif" font-size="10.00">QtListBox::addListBoxItem</text>
</a>
</g>
</g>
<!-- Node5&#45;&gt;Node6 -->
<g id="edge5_Node000005_Node000006" class="edge">
<title>Node5&#45;&gt;Node6</title>
<g id="a_edge5_Node000005_Node000006"><a xlink:title=" ">
<path fill="none" stroke="#63b8ff" d="M711.37,-87.51C728.26,-91.04 746.11,-94.77 762.55,-98.21"/>
<polygon fill="#63b8ff" stroke="#63b8ff" points="761.69,-101.61 772.2,-100.23 763.13,-94.76 761.69,-101.61"/>
</a>
</g>
</g>
<!-- Node9 -->
<g id="Node000009" class="node">
<title>Node9</title>
<g id="a_Node000009"><a xlink:href="classQtListBoxItem.html#a3f75a39f922940872590ebb3146a8ba4" target="_top" xlink:title=" ">
<polygon fill="white" stroke="#666666" points="890,-82.75 763,-82.75 763,-62 890,-62 890,-82.75"/>
<text text-anchor="middle" x="826.5" y="-69.25" font-family="Helvetica,sans-Serif" font-size="10.00">QtListBoxItem::setText</text>
</a>
</g>
</g>
<!-- Node5&#45;&gt;Node9 -->
<g id="edge8_Node000005_Node000009" class="edge">
<title>Node5&#45;&gt;Node9</title>
<g id="a_edge8_Node000005_Node000009"><a xlink:title=" ">
<path fill="none" stroke="#63b8ff" d="M711.37,-72.38C724.44,-72.38 738.08,-72.38 751.2,-72.38"/>
<polygon fill="#63b8ff" stroke="#63b8ff" points="751.06,-75.88 761.06,-72.38 751.06,-68.88 751.06,-75.88"/>
</a>
</g>
</g>
<!-- Node7 -->
<g id="Node000007" class="node">
<title>Node7</title>
<g id="a_Node000007"><a xlink:href="classQtListBox.html#aded0d85d73468d463ffc4f06150c190e" target="_top" xlink:title=" ">
<polygon fill="white" stroke="#666666" points="1096.5,-140.75 938,-140.75 938,-120 1096.5,-120 1096.5,-140.75"/>
<text text-anchor="middle" x="1017.25" y="-127.25" font-family="Helvetica,sans-Serif" font-size="10.00">QtListBox::createListBoxItem</text>
</a>
</g>
</g>
<!-- Node6&#45;&gt;Node7 -->
<g id="edge6_Node000006_Node000007" class="edge">
<title>Node6&#45;&gt;Node7</title>
<g id="a_edge6_Node000006_Node000007"><a xlink:title=" ">
<path fill="none" stroke="#63b8ff" d="M899.67,-118.64C908.37,-119.52 917.35,-120.42 926.27,-121.32"/>
<polygon fill="#63b8ff" stroke="#63b8ff" points="925.72,-124.78 936.02,-122.3 926.42,-117.81 925.72,-124.78"/>
</a>
</g>
</g>
<!-- Node8 -->
<g id="Node000008" class="node">
<title>Node8</title>
<g id="a_Node000008"><a xlink:href="classQtListBoxItem.html#a988c59cb0ddbc7285981ede21fb61422" target="_top" xlink:title=" ">
<polygon fill="white" stroke="#666666" points="1084.5,-101.75 950,-101.75 950,-81 1084.5,-81 1084.5,-101.75"/>
<text text-anchor="middle" x="1017.25" y="-88.25" font-family="Helvetica,sans-Serif" font-size="10.00">QtListBoxItem::setFocus</text>
</a>
</g>
</g>
<!-- Node6&#45;&gt;Node8 -->
<g id="edge7_Node000006_Node000008" class="edge">
<title>Node6&#45;&gt;Node8</title>
<g id="a_edge7_Node000006_Node000008"><a xlink:title=" ">
<path fill="none" stroke="#63b8ff" d="M899.67,-103.73C912.38,-102.38 925.67,-100.97 938.53,-99.61"/>
<polygon fill="#63b8ff" stroke="#63b8ff" points="938.62,-103.12 948.2,-98.59 937.88,-96.16 938.62,-103.12"/>
</a>
</g>
</g>
<!-- Node11 -->
<g id="Node000011" class="node">
<title>Node11</title>
<g id="a_Node000011"><a xlink:href="classQtListBoxItem.html#a967053bd48b913a5bbc3076ca638b52b" target="_top" xlink:title=" ">
<polygon fill="white" stroke="#666666" points="902,-44.12 751,-44.12 751,-10.62 902,-10.62 902,-44.12"/>
<text text-anchor="start" x="759" y="-30.62" font-family="Helvetica,sans-Serif" font-size="10.00">QtListBoxItem::onReadOnly</text>
<text text-anchor="middle" x="826.5" y="-17.88" font-family="Helvetica,sans-Serif" font-size="10.00">Changed</text>
</a>
</g>
</g>
<!-- Node10&#45;&gt;Node11 -->
<g id="edge10_Node000010_Node000011" class="edge">
<title>Node10&#45;&gt;Node11</title>
<g id="a_edge10_Node000010_Node000011"><a xlink:title=" ">
<path fill="none" stroke="#63b8ff" d="M715.39,-27.38C723.33,-27.38 731.43,-27.38 739.45,-27.38"/>
<polygon fill="#63b8ff" stroke="#63b8ff" points="739.22,-30.88 749.22,-27.38 739.22,-23.88 739.22,-30.88"/>
</a>
</g>
</g>
</g>
</svg>
