<?xml version="1.0" encoding="UTF-8" standalone="no"?>
<!DOCTYPE svg PUBLIC "-//W3C//DTD SVG 1.1//EN"
 "http://www.w3.org/Graphics/SVG/1.1/DTD/svg11.dtd">
<!-- Generated by graphviz version 7.1.0 (0)
 -->
<!-- Title: /home/ahussein/Documents/sourceCode/Sourcetrail/src/src/lib_gui/utility/path_detector/CombinedPathDetector.h Pages: 1 -->
<svg width="281pt" height="170pt"
 viewBox="0.00 0.00 281.25 170.00" xmlns="http://www.w3.org/2000/svg" xmlns:xlink="http://www.w3.org/1999/xlink">
<g id="graph0" class="graph" transform="scale(1 1) rotate(0) translate(4 166)">
<title>/home/ahussein/Documents/sourceCode/Sourcetrail/src/src/lib_gui/utility/path_detector/CombinedPathDetector.h</title>
<!-- Node1 -->
<g id="node1" class="node">
<title>Node1</title>
<g id="a_node1"><a xlink:title=" ">
<polygon fill="#999999" stroke="#666666" points="248,-162 36,-162 36,-110 248,-110 248,-162"/>
<text text-anchor="start" x="44" y="-150" font-family="Helvetica,sans-Serif" font-size="10.00">/home/ahussein/Documents</text>
<text text-anchor="start" x="44" y="-139" font-family="Helvetica,sans-Serif" font-size="10.00">/sourceCode/Sourcetrail</text>
<text text-anchor="start" x="44" y="-128" font-family="Helvetica,sans-Serif" font-size="10.00">/src/src/lib_gui/utility</text>
<text text-anchor="middle" x="142" y="-117" font-family="Helvetica,sans-Serif" font-size="10.00">/path_detector/CombinedPathDetector.h</text>
</a>
</g>
</g>
<!-- Node2 -->
<g id="node2" class="node">
<title>Node2</title>
<g id="a_node2"><a xlink:title=" ">
<polygon fill="#e0e0e0" stroke="#999999" points="38,-74 0,-74 0,-55 38,-55 38,-74"/>
<text text-anchor="middle" x="19" y="-62" font-family="Helvetica,sans-Serif" font-size="10.00">map</text>
</a>
</g>
</g>
<!-- Node1&#45;&gt;Node2 -->
<g id="edge1" class="edge">
<title>Node1&#45;&gt;Node2</title>
<path fill="none" stroke="#63b8ff" d="M96.9,-109.52C79.18,-99.51 59.51,-88.39 44.37,-79.83"/>
<polygon fill="#63b8ff" stroke="#63b8ff" points="46.43,-76.98 36,-75.11 42.99,-83.07 46.43,-76.98"/>
</g>
<!-- Node3 -->
<g id="node3" class="node">
<title>Node3</title>
<g id="a_node3"><a xlink:title=" ">
<polygon fill="#e0e0e0" stroke="#999999" points="114,-74 56,-74 56,-55 114,-55 114,-74"/>
<text text-anchor="middle" x="85" y="-62" font-family="Helvetica,sans-Serif" font-size="10.00">memory</text>
</a>
</g>
</g>
<!-- Node1&#45;&gt;Node3 -->
<g id="edge2" class="edge">
<title>Node1&#45;&gt;Node3</title>
<path fill="none" stroke="#63b8ff" d="M121.1,-109.52C113.87,-100.7 105.94,-91.03 99.36,-83"/>
<polygon fill="#63b8ff" stroke="#63b8ff" points="102.14,-80.88 93.09,-75.37 96.73,-85.32 102.14,-80.88"/>
</g>
<!-- Node4 -->
<g id="node4" class="node">
<title>Node4</title>
<g id="a_node4"><a xlink:title=" ">
<polygon fill="#e0e0e0" stroke="#999999" points="203,-19 159,-19 159,0 203,0 203,-19"/>
<text text-anchor="middle" x="181" y="-7" font-family="Helvetica,sans-Serif" font-size="10.00">string</text>
</a>
</g>
</g>
<!-- Node1&#45;&gt;Node4 -->
<g id="edge3" class="edge">
<title>Node1&#45;&gt;Node4</title>
<path fill="none" stroke="#63b8ff" d="M146.71,-109.79C150,-93.87 154.89,-72.98 161,-55 163.93,-46.38 167.93,-37.15 171.58,-29.35"/>
<polygon fill="#63b8ff" stroke="#63b8ff" points="174.64,-31.05 175.85,-20.53 168.34,-28 174.64,-31.05"/>
</g>
<!-- Node5 -->
<g id="node5" class="node">
<title>Node5</title>
<g id="a_node5"><a xlink:title=" ">
<polygon fill="#e0e0e0" stroke="#999999" points="272.5,-19 225.5,-19 225.5,0 272.5,0 272.5,-19"/>
<text text-anchor="middle" x="249" y="-7" font-family="Helvetica,sans-Serif" font-size="10.00">vector</text>
</a>
</g>
</g>
<!-- Node1&#45;&gt;Node5 -->
<g id="edge4" class="edge">
<title>Node1&#45;&gt;Node5</title>
<path fill="none" stroke="#63b8ff" d="M228.69,-109.58C244.68,-100.88 259.36,-89.32 269,-74 277.74,-60.1 270.63,-42.08 262.56,-28.79"/>
<polygon fill="#63b8ff" stroke="#63b8ff" points="265.51,-26.9 257.02,-20.57 259.7,-30.81 265.51,-26.9"/>
</g>
<!-- Node6 -->
<g id="node6" class="node">
<title>Node6</title>
<g id="a_node6"><a xlink:href="$PathDetector_8h.html" xlink:title=" ">
<polygon fill="white" stroke="#666666" points="259.5,-74 170.5,-74 170.5,-55 259.5,-55 259.5,-74"/>
<text text-anchor="middle" x="215" y="-62" font-family="Helvetica,sans-Serif" font-size="10.00">PathDetector.h</text>
</a>
</g>
</g>
<!-- Node1&#45;&gt;Node6 -->
<g id="edge5" class="edge">
<title>Node1&#45;&gt;Node6</title>
<path fill="none" stroke="#63b8ff" d="M168.77,-109.52C178.43,-100.31 189.08,-90.18 197.72,-81.96"/>
<polygon fill="#63b8ff" stroke="#63b8ff" points="199.94,-84.67 204.77,-75.24 195.11,-79.6 199.94,-84.67"/>
</g>
<!-- Node6&#45;&gt;Node4 -->
<g id="edge6" class="edge">
<title>Node6&#45;&gt;Node4</title>
<path fill="none" stroke="#63b8ff" d="M209.39,-54.75C204.88,-47.73 198.41,-37.64 192.79,-28.87"/>
<polygon fill="#63b8ff" stroke="#63b8ff" points="195.9,-27.24 187.55,-20.72 190.01,-31.02 195.9,-27.24"/>
</g>
<!-- Node6&#45;&gt;Node5 -->
<g id="edge7" class="edge">
<title>Node6&#45;&gt;Node5</title>
<path fill="none" stroke="#63b8ff" d="M220.61,-54.75C225.12,-47.73 231.59,-37.64 237.21,-28.87"/>
<polygon fill="#63b8ff" stroke="#63b8ff" points="239.99,-31.02 242.45,-20.72 234.1,-27.24 239.99,-31.02"/>
</g>
</g>
</svg>
