<?xml version="1.0" encoding="UTF-8" standalone="no"?>
<!DOCTYPE svg PUBLIC "-//W3C//DTD SVG 1.1//EN"
 "http://www.w3.org/Graphics/SVG/1.1/DTD/svg11.dtd">
<!-- Generated by graphviz version 9.0.0 (0)
 -->
<!-- Title: /home/ahussein/Documents/archive/opensourcesourcetrail.github.io/.ignore/src/src/lib/utility/commandline/commands/CommandlineCommand.cpp Pages: 1 -->
<svg width="264pt" height="181pt"
 viewBox="0.00 0.00 264.00 180.50" xmlns="http://www.w3.org/2000/svg" xmlns:xlink="http://www.w3.org/1999/xlink">

<svg id="main" version="1.1" xmlns="http://www.w3.org/2000/svg" xmlns:xlink="http://www.w3.org/1999/xlink" xml:space="preserve" onload="init(evt)">
<style type="text/css"><![CDATA[
.node, .edge {opacity: 0.7;}
.node.selected, .edge.selected {opacity: 1;}
.edge:hover path { stroke: red; }
.edge:hover polygon { stroke: red; fill: red; }
]]></style>
<script type="application/ecmascript" xlink:href="svg.min.js"/>
<svg id="graph" class="graph">
<g id="graph0" class="graph" transform="scale(1 1) rotate(0) translate(4 176.5)">
<title>/home/ahussein/Documents/archive/opensourcesourcetrail.github.io/.ignore/src/src/lib/utility/commandline/commands/CommandlineCommand.cpp</title>
<!-- Node1 -->
<g id="Node000001" class="node">
<title>Node1</title>
<g id="a_Node000001"><a xlink:title=" ">
<polygon fill="#999999" stroke="#666666" points="256,-172.5 41.25,-172.5 41.25,-113.5 256,-113.5 256,-172.5"/>
<text text-anchor="start" x="49.25" y="-159" font-family="Helvetica,sans-Serif" font-size="10.00">/home/ahussein/Documents</text>
<text text-anchor="start" x="49.25" y="-146.25" font-family="Helvetica,sans-Serif" font-size="10.00">/archive/opensourcesourcetrail.github.io</text>
<text text-anchor="start" x="49.25" y="-133.5" font-family="Helvetica,sans-Serif" font-size="10.00">/.ignore/src/src/lib/utility/commandline</text>
<text text-anchor="middle" x="148.62" y="-120.75" font-family="Helvetica,sans-Serif" font-size="10.00">/commands/CommandlineCommand.cpp</text>
</a>
</g>
</g>
<!-- Node2 -->
<g id="Node000002" class="node">
<title>Node2</title>
<g id="a_Node000002"><a xlink:href="CommandlineCommand_8h.html" target="_top" xlink:title=" ">
<polygon fill="white" stroke="#666666" points="160.38,-77.5 16.88,-77.5 16.88,-56.75 160.38,-56.75 160.38,-77.5"/>
<text text-anchor="middle" x="88.62" y="-64" font-family="Helvetica,sans-Serif" font-size="10.00">CommandlineCommand.h</text>
</a>
</g>
</g>
<!-- Node1&#45;&gt;Node2 -->
<g id="edge1_Node000001_Node000002" class="edge">
<title>Node1&#45;&gt;Node2</title>
<g id="a_edge1_Node000001_Node000002"><a xlink:title=" ">
<path fill="none" stroke="#63b8ff" d="M125.26,-113.23C118.05,-104.36 110.31,-94.82 103.81,-86.82"/>
<polygon fill="#63b8ff" stroke="#63b8ff" points="106.59,-84.69 97.56,-79.13 101.15,-89.1 106.59,-84.69"/>
</a>
</g>
</g>
<!-- Node5 -->
<g id="Node000005" class="node">
<title>Node5</title>
<g id="a_Node000005"><a xlink:title=" ">
<polygon fill="#e0e0e0" stroke="#999999" points="238.38,-77.5 178.88,-77.5 178.88,-56.75 238.38,-56.75 238.38,-77.5"/>
<text text-anchor="middle" x="208.62" y="-64" font-family="Helvetica,sans-Serif" font-size="10.00">iostream</text>
</a>
</g>
</g>
<!-- Node1&#45;&gt;Node5 -->
<g id="edge4_Node000001_Node000005" class="edge">
<title>Node1&#45;&gt;Node5</title>
<g id="a_edge4_Node000001_Node000005"><a xlink:title=" ">
<path fill="none" stroke="#63b8ff" d="M171.99,-113.23C179.2,-104.36 186.94,-94.82 193.44,-86.82"/>
<polygon fill="#63b8ff" stroke="#63b8ff" points="196.1,-89.1 199.69,-79.13 190.66,-84.69 196.1,-89.1"/>
</a>
</g>
</g>
<!-- Node3 -->
<g id="Node000003" class="node">
<title>Node3</title>
<g id="a_Node000003"><a xlink:title=" ">
<polygon fill="#e0e0e0" stroke="#999999" points="57.25,-20.75 0,-20.75 0,0 57.25,0 57.25,-20.75"/>
<text text-anchor="middle" x="28.62" y="-7.25" font-family="Helvetica,sans-Serif" font-size="10.00">memory</text>
</a>
</g>
</g>
<!-- Node2&#45;&gt;Node3 -->
<g id="edge2_Node000002_Node000003" class="edge">
<title>Node2&#45;&gt;Node3</title>
<g id="a_edge2_Node000002_Node000003"><a xlink:title=" ">
<path fill="none" stroke="#63b8ff" d="M77.9,-56.34C69.54,-48.71 57.71,-37.92 47.74,-28.82"/>
<polygon fill="#63b8ff" stroke="#63b8ff" points="50.12,-26.25 40.38,-22.1 45.4,-31.42 50.12,-26.25"/>
</a>
</g>
</g>
<!-- Node4 -->
<g id="Node000004" class="node">
<title>Node4</title>
<g id="a_Node000004"><a xlink:title=" ">
<polygon fill="#e0e0e0" stroke="#999999" points="224.38,-20.75 74.88,-20.75 74.88,0 224.38,0 224.38,-20.75"/>
<text text-anchor="middle" x="149.62" y="-7.25" font-family="Helvetica,sans-Serif" font-size="10.00">boost/program_options.hpp</text>
</a>
</g>
</g>
<!-- Node2&#45;&gt;Node4 -->
<g id="edge3_Node000002_Node000004" class="edge">
<title>Node2&#45;&gt;Node4</title>
<g id="a_edge3_Node000002_Node000004"><a xlink:title=" ">
<path fill="none" stroke="#63b8ff" d="M99.53,-56.34C108.12,-48.63 120.3,-37.7 130.5,-28.54"/>
<polygon fill="#63b8ff" stroke="#63b8ff" points="132.58,-31.37 137.69,-22.09 127.91,-26.16 132.58,-31.37"/>
</a>
</g>
</g>
</g>
</svg>
</svg>

<style type='text/css'>
<![CDATA[
[data-mouse-over-selected='false'] { opacity: 0.7; }
[data-mouse-over-selected='true']  { opacity: 1.0; }
]]>
</style>
<script type="application/ecmascript"><![CDATA[
document.addEventListener('DOMContentLoaded', (event) => {
  highlightEdges();
  highlightAdjacentNodes();
});
]]></script>
</svg>
