<?xml version="1.0" encoding="UTF-8" standalone="no"?>
<!DOCTYPE svg PUBLIC "-//W3C//DTD SVG 1.1//EN"
 "http://www.w3.org/Graphics/SVG/1.1/DTD/svg11.dtd">
<!-- Generated by graphviz version 7.1.0 (0)
 -->
<!-- Title: /home/ahussein/Documents/sourceCode/Sourcetrail/src/src/lib/utility/commandline/commands/CommandlineCommandIndex.h Pages: 1 -->
<svg width="260pt" height="170pt"
 viewBox="0.00 0.00 259.50 170.00" xmlns="http://www.w3.org/2000/svg" xmlns:xlink="http://www.w3.org/1999/xlink">
<g id="graph0" class="graph" transform="scale(1 1) rotate(0) translate(4 166)">
<title>/home/ahussein/Documents/sourceCode/Sourcetrail/src/src/lib/utility/commandline/commands/CommandlineCommandIndex.h</title>
<!-- Node1 -->
<g id="node1" class="node">
<title>Node1</title>
<g id="a_node1"><a xlink:title=" ">
<polygon fill="#999999" stroke="#666666" points="231,-162 0,-162 0,-110 231,-110 231,-162"/>
<text text-anchor="start" x="8" y="-150" font-family="Helvetica,sans-Serif" font-size="10.00">/home/ahussein/Documents</text>
<text text-anchor="start" x="8" y="-139" font-family="Helvetica,sans-Serif" font-size="10.00">/sourceCode/Sourcetrail</text>
<text text-anchor="start" x="8" y="-128" font-family="Helvetica,sans-Serif" font-size="10.00">/src/src/lib/utility/commandline</text>
<text text-anchor="middle" x="115.5" y="-117" font-family="Helvetica,sans-Serif" font-size="10.00">/commands/CommandlineCommandIndex.h</text>
</a>
</g>
</g>
<!-- Node2 -->
<g id="node2" class="node">
<title>Node2</title>
<g id="a_node2"><a xlink:href="$CommandlineCommand_8h.html" xlink:title=" ">
<polygon fill="white" stroke="#666666" points="187.5,-74 43.5,-74 43.5,-55 187.5,-55 187.5,-74"/>
<text text-anchor="middle" x="115.5" y="-62" font-family="Helvetica,sans-Serif" font-size="10.00">CommandlineCommand.h</text>
</a>
</g>
</g>
<!-- Node1&#45;&gt;Node2 -->
<g id="edge1" class="edge">
<title>Node1&#45;&gt;Node2</title>
<path fill="none" stroke="#63b8ff" d="M115.5,-109.52C115.5,-101.67 115.5,-93.15 115.5,-85.71"/>
<polygon fill="#63b8ff" stroke="#63b8ff" points="119,-85.71 115.5,-75.71 112,-85.71 119,-85.71"/>
</g>
<!-- Node3 -->
<g id="node3" class="node">
<title>Node3</title>
<g id="a_node3"><a xlink:title=" ">
<polygon fill="#e0e0e0" stroke="#999999" points="83.5,-19 25.5,-19 25.5,0 83.5,0 83.5,-19"/>
<text text-anchor="middle" x="54.5" y="-7" font-family="Helvetica,sans-Serif" font-size="10.00">memory</text>
</a>
</g>
</g>
<!-- Node2&#45;&gt;Node3 -->
<g id="edge2" class="edge">
<title>Node2&#45;&gt;Node3</title>
<path fill="none" stroke="#63b8ff" d="M105.15,-54.51C96.42,-46.93 83.71,-35.88 73.2,-26.75"/>
<polygon fill="#63b8ff" stroke="#63b8ff" points="75.68,-24.27 65.84,-20.35 71.09,-29.55 75.68,-24.27"/>
</g>
<!-- Node4 -->
<g id="node4" class="node">
<title>Node4</title>
<g id="a_node4"><a xlink:title=" ">
<polygon fill="#e0e0e0" stroke="#999999" points="251.5,-19 101.5,-19 101.5,0 251.5,0 251.5,-19"/>
<text text-anchor="middle" x="176.5" y="-7" font-family="Helvetica,sans-Serif" font-size="10.00">boost/program_options.hpp</text>
</a>
</g>
</g>
<!-- Node2&#45;&gt;Node4 -->
<g id="edge3" class="edge">
<title>Node2&#45;&gt;Node4</title>
<path fill="none" stroke="#63b8ff" d="M125.85,-54.51C134.58,-46.93 147.29,-35.88 157.8,-26.75"/>
<polygon fill="#63b8ff" stroke="#63b8ff" points="159.91,-29.55 165.16,-20.35 155.32,-24.27 159.91,-29.55"/>
</g>
</g>
</svg>
