<?xml version="1.0" encoding="UTF-8" standalone="no"?>
<!DOCTYPE svg PUBLIC "-//W3C//DTD SVG 1.1//EN"
 "http://www.w3.org/Graphics/SVG/1.1/DTD/svg11.dtd">
<!-- Generated by graphviz version 7.1.0 (0)
 -->
<!-- Title: /home/ahussein/Documents/sourceCode/Sourcetrail/src/src/lib/component/Component.cpp Pages: 1 -->
<svg width="314pt" height="269pt"
 viewBox="0.00 0.00 314.00 269.00" xmlns="http://www.w3.org/2000/svg" xmlns:xlink="http://www.w3.org/1999/xlink">
<g id="graph0" class="graph" transform="scale(1 1) rotate(0) translate(4 265)">
<title>/home/ahussein/Documents/sourceCode/Sourcetrail/src/src/lib/component/Component.cpp</title>
<!-- Node1 -->
<g id="node1" class="node">
<title>Node1</title>
<g id="a_node1"><a xlink:title=" ">
<polygon fill="#999999" stroke="#666666" points="203,-261 0,-261 0,-220 203,-220 203,-261"/>
<text text-anchor="start" x="8" y="-249" font-family="Helvetica,sans-Serif" font-size="10.00">/home/ahussein/Documents</text>
<text text-anchor="start" x="8" y="-238" font-family="Helvetica,sans-Serif" font-size="10.00">/sourceCode/Sourcetrail</text>
<text text-anchor="middle" x="101.5" y="-227" font-family="Helvetica,sans-Serif" font-size="10.00">/src/src/lib/component/Component.cpp</text>
</a>
</g>
</g>
<!-- Node2 -->
<g id="node2" class="node">
<title>Node2</title>
<g id="a_node2"><a xlink:href="$Component_8h.html" xlink:title=" ">
<polygon fill="white" stroke="#666666" points="128.5,-129 46.5,-129 46.5,-110 128.5,-110 128.5,-129"/>
<text text-anchor="middle" x="87.5" y="-117" font-family="Helvetica,sans-Serif" font-size="10.00">Component.h</text>
</a>
</g>
</g>
<!-- Node1&#45;&gt;Node2 -->
<g id="edge1" class="edge">
<title>Node1&#45;&gt;Node2</title>
<path fill="none" stroke="#63b8ff" d="M79.21,-219.6C69.99,-209.89 60.34,-197.42 55.5,-184 49.63,-167.71 59.79,-150.21 70.19,-137.72"/>
<polygon fill="#63b8ff" stroke="#63b8ff" points="72.75,-140.11 76.9,-130.36 67.57,-135.39 72.75,-140.11"/>
</g>
<!-- Node6 -->
<g id="node6" class="node">
<title>Node6</title>
<g id="a_node6"><a xlink:href="$Controller_8h.html" xlink:title=" ">
<polygon fill="white" stroke="#666666" points="138.5,-184 64.5,-184 64.5,-165 138.5,-165 138.5,-184"/>
<text text-anchor="middle" x="101.5" y="-172" font-family="Helvetica,sans-Serif" font-size="10.00">Controller.h</text>
</a>
</g>
</g>
<!-- Node1&#45;&gt;Node6 -->
<g id="edge5" class="edge">
<title>Node1&#45;&gt;Node6</title>
<path fill="none" stroke="#63b8ff" d="M101.5,-219.6C101.5,-211.98 101.5,-203.3 101.5,-195.66"/>
<polygon fill="#63b8ff" stroke="#63b8ff" points="105,-195.68 101.5,-185.68 98,-195.68 105,-195.68"/>
</g>
<!-- Node7 -->
<g id="node7" class="node">
<title>Node7</title>
<g id="a_node7"><a xlink:href="$View_8h.html" xlink:title=" ">
<polygon fill="white" stroke="#666666" points="206,-184 157,-184 157,-165 206,-165 206,-184"/>
<text text-anchor="middle" x="181.5" y="-172" font-family="Helvetica,sans-Serif" font-size="10.00">View.h</text>
</a>
</g>
</g>
<!-- Node1&#45;&gt;Node7 -->
<g id="edge7" class="edge">
<title>Node1&#45;&gt;Node7</title>
<path fill="none" stroke="#63b8ff" d="M126.37,-219.6C137.75,-210.5 151.04,-199.86 161.73,-191.32"/>
<polygon fill="#63b8ff" stroke="#63b8ff" points="163.87,-194.09 169.49,-185.11 159.49,-188.62 163.87,-194.09"/>
</g>
<!-- Node3 -->
<g id="node3" class="node">
<title>Node3</title>
<g id="a_node3"><a xlink:title=" ">
<polygon fill="#e0e0e0" stroke="#999999" points="185.5,-74 127.5,-74 127.5,-55 185.5,-55 185.5,-74"/>
<text text-anchor="middle" x="156.5" y="-62" font-family="Helvetica,sans-Serif" font-size="10.00">memory</text>
</a>
</g>
</g>
<!-- Node2&#45;&gt;Node3 -->
<g id="edge2" class="edge">
<title>Node2&#45;&gt;Node3</title>
<path fill="none" stroke="#63b8ff" d="M99.2,-109.51C109.28,-101.77 124.04,-90.43 136.06,-81.2"/>
<polygon fill="#63b8ff" stroke="#63b8ff" points="137.97,-84.15 143.77,-75.28 133.71,-78.6 137.97,-84.15"/>
</g>
<!-- Node4 -->
<g id="node4" class="node">
<title>Node4</title>
<g id="a_node4"><a xlink:href="$types_8h.html" xlink:title=" ">
<polygon fill="white" stroke="#666666" points="109,-74 56,-74 56,-55 109,-55 109,-74"/>
<text text-anchor="middle" x="82.5" y="-62" font-family="Helvetica,sans-Serif" font-size="10.00">types.h</text>
</a>
</g>
</g>
<!-- Node2&#45;&gt;Node4 -->
<g id="edge3" class="edge">
<title>Node2&#45;&gt;Node4</title>
<path fill="none" stroke="#63b8ff" d="M86.67,-109.75C86.06,-103.27 85.2,-94.16 84.42,-85.9"/>
<polygon fill="#63b8ff" stroke="#63b8ff" points="87.91,-85.58 83.49,-75.95 80.94,-86.23 87.91,-85.58"/>
</g>
<!-- Node5 -->
<g id="node5" class="node">
<title>Node5</title>
<g id="a_node5"><a xlink:title=" ">
<polygon fill="#e0e0e0" stroke="#999999" points="109,-19 56,-19 56,0 109,0 109,-19"/>
<text text-anchor="middle" x="82.5" y="-7" font-family="Helvetica,sans-Serif" font-size="10.00">cstddef</text>
</a>
</g>
</g>
<!-- Node4&#45;&gt;Node5 -->
<g id="edge4" class="edge">
<title>Node4&#45;&gt;Node5</title>
<path fill="none" stroke="#63b8ff" d="M82.5,-54.75C82.5,-48.27 82.5,-39.16 82.5,-30.9"/>
<polygon fill="#63b8ff" stroke="#63b8ff" points="86,-30.96 82.5,-20.96 79,-30.96 86,-30.96"/>
</g>
<!-- Node6&#45;&gt;Node2 -->
<g id="edge6" class="edge">
<title>Node6&#45;&gt;Node2</title>
<path fill="none" stroke="#63b8ff" d="M99.19,-164.75C97.44,-158.11 94.96,-148.73 92.73,-140.31"/>
<polygon fill="#63b8ff" stroke="#63b8ff" points="96.19,-139.68 90.25,-130.91 89.42,-141.47 96.19,-139.68"/>
</g>
<!-- Node7&#45;&gt;Node2 -->
<g id="edge10" class="edge">
<title>Node7&#45;&gt;Node2</title>
<path fill="none" stroke="#63b8ff" d="M165.55,-164.51C151.15,-156.39 129.71,-144.3 112.94,-134.85"/>
<polygon fill="#63b8ff" stroke="#63b8ff" points="114.96,-131.96 104.53,-130.1 111.52,-138.06 114.96,-131.96"/>
</g>
<!-- Node7&#45;&gt;Node3 -->
<g id="edge8" class="edge">
<title>Node7&#45;&gt;Node3</title>
<path fill="none" stroke="#63b8ff" d="M179.45,-164.66C175.48,-147.5 166.63,-109.26 161.15,-85.6"/>
<polygon fill="#63b8ff" stroke="#63b8ff" points="164.58,-84.89 158.92,-75.93 157.76,-86.47 164.58,-84.89"/>
</g>
<!-- Node8 -->
<g id="node8" class="node">
<title>Node8</title>
<g id="a_node8"><a xlink:title=" ">
<polygon fill="#e0e0e0" stroke="#999999" points="266.5,-74 222.5,-74 222.5,-55 266.5,-55 266.5,-74"/>
<text text-anchor="middle" x="244.5" y="-62" font-family="Helvetica,sans-Serif" font-size="10.00">string</text>
</a>
</g>
</g>
<!-- Node7&#45;&gt;Node8 -->
<g id="edge9" class="edge">
<title>Node7&#45;&gt;Node8</title>
<path fill="none" stroke="#63b8ff" d="M185.47,-164.66C191.17,-152.2 202.25,-128.87 213.5,-110 218.86,-101.02 225.4,-91.45 231.1,-83.5"/>
<polygon fill="#63b8ff" stroke="#63b8ff" points="233.74,-85.82 236.81,-75.68 228.08,-81.69 233.74,-85.82"/>
</g>
<!-- Node9 -->
<g id="node9" class="node">
<title>Node9</title>
<g id="a_node9"><a xlink:href="$ViewLayout_8h.html" xlink:title=" ">
<polygon fill="white" stroke="#666666" points="306,-129 223,-129 223,-110 306,-110 306,-129"/>
<text text-anchor="middle" x="264.5" y="-117" font-family="Helvetica,sans-Serif" font-size="10.00">ViewLayout.h</text>
</a>
</g>
</g>
<!-- Node7&#45;&gt;Node9 -->
<g id="edge11" class="edge">
<title>Node7&#45;&gt;Node9</title>
<path fill="none" stroke="#63b8ff" d="M195.58,-164.51C208.06,-156.54 226.52,-144.75 241.19,-135.38"/>
<polygon fill="#63b8ff" stroke="#63b8ff" points="242.81,-138.5 249.35,-130.17 239.04,-132.6 242.81,-138.5"/>
</g>
<!-- Node9&#45;&gt;Node8 -->
<g id="edge12" class="edge">
<title>Node9&#45;&gt;Node8</title>
<path fill="none" stroke="#63b8ff" d="M261.2,-109.75C258.67,-103.04 255.07,-93.52 251.87,-85.02"/>
<polygon fill="#63b8ff" stroke="#63b8ff" points="255.21,-83.98 248.41,-75.86 248.66,-86.45 255.21,-83.98"/>
</g>
</g>
</svg>
