<?xml version="1.0" encoding="UTF-8" standalone="no"?>
<!DOCTYPE svg PUBLIC "-//W3C//DTD SVG 1.1//EN"
 "http://www.w3.org/Graphics/SVG/1.1/DTD/svg11.dtd">
<!-- Generated by graphviz version 9.0.0 (0)
 -->
<!-- Title: TEST_F Pages: 1 -->
<svg width="491pt" height="219pt"
 viewBox="0.00 0.00 491.25 219.12" xmlns="http://www.w3.org/2000/svg" xmlns:xlink="http://www.w3.org/1999/xlink">

<svg id="main" version="1.1" xmlns="http://www.w3.org/2000/svg" xmlns:xlink="http://www.w3.org/1999/xlink" xml:space="preserve" onload="init(evt)">
<style type="text/css"><![CDATA[
.node, .edge {opacity: 0.7;}
.node.selected, .edge.selected {opacity: 1;}
.edge:hover path { stroke: red; }
.edge:hover polygon { stroke: red; fill: red; }
]]></style>
<script type="application/ecmascript" xlink:href="svg.min.js"/>
<svg id="graph" class="graph">
<g id="graph0" class="graph" transform="scale(1 1) rotate(0) translate(4 215.12)">
<title>TEST_F</title>
<!-- Node1 -->
<g id="Node000001" class="node">
<title>Node1</title>
<g id="a_Node000001"><a xlink:title=" ">
<polygon fill="#999999" stroke="#666666" points="51.25,-105.12 0,-105.12 0,-84.38 51.25,-84.38 51.25,-105.12"/>
<text text-anchor="middle" x="25.62" y="-91.62" font-family="Helvetica,sans-Serif" font-size="10.00">TEST_F</text>
</a>
</g>
</g>
<!-- Node2 -->
<g id="Node000002" class="node">
<title>Node2</title>
<g id="a_Node000002"><a xlink:href="classutility_1_1CompilationDatabase.html#ae8ceb8abcd9e748edceb315ed6e2a1df" target="_top" xlink:title=" ">
<polygon fill="white" stroke="#666666" points="242.75,-189.5 87.25,-189.5 87.25,-156 242.75,-156 242.75,-189.5"/>
<text text-anchor="start" x="95.25" y="-176" font-family="Helvetica,sans-Serif" font-size="10.00">utility::CompilationDatabase</text>
<text text-anchor="middle" x="165" y="-163.25" font-family="Helvetica,sans-Serif" font-size="10.00">::getAllHeaderPaths</text>
</a>
</g>
</g>
<!-- Node1&#45;&gt;Node2 -->
<g id="edge1_Node000001_Node000002" class="edge">
<title>Node1&#45;&gt;Node2</title>
<g id="a_edge1_Node000001_Node000002"><a xlink:title=" ">
<path fill="none" stroke="#63b8ff" d="M36.42,-105.29C47.7,-116.87 67.25,-135.36 87.25,-146.75 89.85,-148.23 92.55,-149.65 95.32,-151"/>
<polygon fill="#63b8ff" stroke="#63b8ff" points="93.61,-154.07 104.17,-154.98 96.49,-147.69 93.61,-154.07"/>
</a>
</g>
</g>
<!-- Node6 -->
<g id="Node000006" class="node">
<title>Node6</title>
<g id="a_Node000006"><a xlink:href="classutility_1_1CompilationDatabase.html#afef277fb40fa7b95984c142696d4bd60" target="_top" xlink:title=" ">
<polygon fill="white" stroke="#666666" points="242.75,-137.5 87.25,-137.5 87.25,-104 242.75,-104 242.75,-137.5"/>
<text text-anchor="start" x="95.25" y="-124" font-family="Helvetica,sans-Serif" font-size="10.00">utility::CompilationDatabase</text>
<text text-anchor="middle" x="165" y="-111.25" font-family="Helvetica,sans-Serif" font-size="10.00">::getFrameworkHeaderPaths</text>
</a>
</g>
</g>
<!-- Node1&#45;&gt;Node6 -->
<g id="edge6_Node000001_Node000006" class="edge">
<title>Node1&#45;&gt;Node6</title>
<g id="a_edge6_Node000001_Node000006"><a xlink:title=" ">
<path fill="none" stroke="#63b8ff" d="M51.5,-99.46C58.68,-100.82 66.95,-102.38 75.68,-104.03"/>
<polygon fill="#63b8ff" stroke="#63b8ff" points="74.98,-107.46 85.46,-105.88 76.28,-100.59 74.98,-107.46"/>
</a>
</g>
</g>
<!-- Node7 -->
<g id="Node000007" class="node">
<title>Node7</title>
<g id="a_Node000007"><a xlink:href="classutility_1_1CompilationDatabase.html#a6e00257288809850122e0714ca237a9c" target="_top" xlink:title=" ">
<polygon fill="white" stroke="#666666" points="242.75,-85.5 87.25,-85.5 87.25,-52 242.75,-52 242.75,-85.5"/>
<text text-anchor="start" x="95.25" y="-72" font-family="Helvetica,sans-Serif" font-size="10.00">utility::CompilationDatabase</text>
<text text-anchor="middle" x="165" y="-59.25" font-family="Helvetica,sans-Serif" font-size="10.00">::getHeaderPaths</text>
</a>
</g>
</g>
<!-- Node1&#45;&gt;Node7 -->
<g id="edge7_Node000001_Node000007" class="edge">
<title>Node1&#45;&gt;Node7</title>
<g id="a_edge7_Node000001_Node000007"><a xlink:title=" ">
<path fill="none" stroke="#63b8ff" d="M51.5,-90.04C58.68,-88.68 66.95,-87.12 75.68,-85.47"/>
<polygon fill="#63b8ff" stroke="#63b8ff" points="76.28,-88.91 85.46,-83.62 74.98,-82.04 76.28,-88.91"/>
</a>
</g>
</g>
<!-- Node8 -->
<g id="Node000008" class="node">
<title>Node8</title>
<g id="a_Node000008"><a xlink:href="classutility_1_1CompilationDatabase.html#ad30cac46a9361d2226dc046df0619e7b" target="_top" xlink:title=" ">
<polygon fill="white" stroke="#666666" points="242.75,-33.5 87.25,-33.5 87.25,0 242.75,0 242.75,-33.5"/>
<text text-anchor="start" x="95.25" y="-20" font-family="Helvetica,sans-Serif" font-size="10.00">utility::CompilationDatabase</text>
<text text-anchor="middle" x="165" y="-7.25" font-family="Helvetica,sans-Serif" font-size="10.00">::getSystemHeaderPaths</text>
</a>
</g>
</g>
<!-- Node1&#45;&gt;Node8 -->
<g id="edge8_Node000001_Node000008" class="edge">
<title>Node1&#45;&gt;Node8</title>
<g id="a_edge8_Node000001_Node000008"><a xlink:title=" ">
<path fill="none" stroke="#63b8ff" d="M36.42,-84.21C47.7,-72.63 67.25,-54.14 87.25,-42.75 89.85,-41.27 92.55,-39.85 95.32,-38.5"/>
<polygon fill="#63b8ff" stroke="#63b8ff" points="96.49,-41.81 104.17,-34.52 93.61,-35.43 96.49,-41.81"/>
</a>
</g>
</g>
<!-- Node3 -->
<g id="Node000003" class="node">
<title>Node3</title>
<g id="a_Node000003"><a xlink:href="namespaceutility.html#a8cfebdfc01731e1d56bab4fa4d83bad6" target="_top" xlink:title=" ">
<polygon fill="white" stroke="#666666" points="361.12,-211.12 279.12,-211.12 279.12,-190.38 361.12,-190.38 361.12,-211.12"/>
<text text-anchor="middle" x="320.12" y="-197.62" font-family="Helvetica,sans-Serif" font-size="10.00">utility::concat</text>
</a>
</g>
</g>
<!-- Node2&#45;&gt;Node3 -->
<g id="edge2_Node000002_Node000003" class="edge">
<title>Node2&#45;&gt;Node3</title>
<g id="a_edge2_Node000002_Node000003"><a xlink:title=" ">
<path fill="none" stroke="#63b8ff" d="M243.01,-186.83C251.32,-188.35 259.62,-189.87 267.52,-191.31"/>
<polygon fill="#63b8ff" stroke="#63b8ff" points="266.81,-194.74 277.27,-193.1 268.07,-187.86 266.81,-194.74"/>
</a>
</g>
</g>
<!-- Node5 -->
<g id="Node000005" class="node">
<title>Node5</title>
<g id="a_Node000005"><a xlink:href="namespaceutility.html#a1a0ae6f41c7b8ae5ff4bd311be01ba0c" target="_top" xlink:title=" ">
<polygon fill="white" stroke="#666666" points="361.5,-154.12 278.75,-154.12 278.75,-133.38 361.5,-133.38 361.5,-154.12"/>
<text text-anchor="middle" x="320.12" y="-140.62" font-family="Helvetica,sans-Serif" font-size="10.00">utility::unique</text>
</a>
</g>
</g>
<!-- Node2&#45;&gt;Node5 -->
<g id="edge4_Node000002_Node000005" class="edge">
<title>Node2&#45;&gt;Node5</title>
<g id="a_edge4_Node000002_Node000005"><a xlink:title=" ">
<path fill="none" stroke="#63b8ff" d="M243.01,-158.17C251.22,-156.61 259.42,-155.06 267.23,-153.58"/>
<polygon fill="#63b8ff" stroke="#63b8ff" points="267.7,-157.05 276.88,-151.75 266.4,-150.17 267.7,-157.05"/>
</a>
</g>
</g>
<!-- Node4 -->
<g id="Node000004" class="node">
<title>Node4</title>
<g id="a_Node000004"><a xlink:href="namespaceutility.html#a20e313ed6af8386f5e95f86b77027904" target="_top" xlink:title=" ">
<polygon fill="white" stroke="#666666" points="483.25,-211.12 397.5,-211.12 397.5,-190.38 483.25,-190.38 483.25,-211.12"/>
<text text-anchor="middle" x="440.38" y="-197.62" font-family="Helvetica,sans-Serif" font-size="10.00">utility::append</text>
</a>
</g>
</g>
<!-- Node3&#45;&gt;Node4 -->
<g id="edge3_Node000003_Node000004" class="edge">
<title>Node3&#45;&gt;Node4</title>
<g id="a_edge3_Node000003_Node000004"><a xlink:title=" ">
<path fill="none" stroke="#63b8ff" d="M361.49,-200.75C369.31,-200.75 377.62,-200.75 385.79,-200.75"/>
<polygon fill="#63b8ff" stroke="#63b8ff" points="385.66,-204.25 395.66,-200.75 385.66,-197.25 385.66,-204.25"/>
</a>
</g>
</g>
<!-- Node5&#45;&gt;Node5 -->
<g id="edge5_Node000005_Node000005" class="edge">
<title>Node5&#45;&gt;Node5</title>
<g id="a_edge5_Node000005_Node000005"><a xlink:title=" ">
<path fill="none" stroke="#63b8ff" d="M300.75,-154.52C293,-163.18 299.46,-172.12 320.12,-172.12 331.43,-172.12 338.48,-169.45 341.28,-165.61"/>
<polygon fill="#63b8ff" stroke="#63b8ff" points="344.79,-165.33 339.74,-156.02 337.87,-166.45 344.79,-165.33"/>
</a>
</g>
</g>
</g>
</svg>
</svg>

<style type='text/css'>
<![CDATA[
[data-mouse-over-selected='false'] { opacity: 0.7; }
[data-mouse-over-selected='true']  { opacity: 1.0; }
]]>
</style>
<script type="application/ecmascript"><![CDATA[
document.addEventListener('DOMContentLoaded', (event) => {
  highlightEdges();
  highlightAdjacentNodes();
});
]]></script>
</svg>
