<?xml version="1.0" encoding="UTF-8" standalone="no"?>
<!DOCTYPE svg PUBLIC "-//W3C//DTD SVG 1.1//EN"
 "http://www.w3.org/Graphics/SVG/1.1/DTD/svg11.dtd">
<!-- Generated by graphviz version 9.0.0 (0)
 -->
<!-- Title: /home/ahussein/Documents/archive/opensourcesourcetrail.github.io/.ignore/src/src/lib_cxx/data/parser/cxx/CxxAstVisitorComponentContext.h Pages: 1 -->
<svg width="298pt" height="181pt"
 viewBox="0.00 0.00 298.00 180.50" xmlns="http://www.w3.org/2000/svg" xmlns:xlink="http://www.w3.org/1999/xlink">

<svg id="main" version="1.1" xmlns="http://www.w3.org/2000/svg" xmlns:xlink="http://www.w3.org/1999/xlink" xml:space="preserve" onload="init(evt)">
<style type="text/css"><![CDATA[
.node, .edge {opacity: 0.7;}
.node.selected, .edge.selected {opacity: 1;}
.edge:hover path { stroke: red; }
.edge:hover polygon { stroke: red; fill: red; }
]]></style>
<script type="application/ecmascript" xlink:href="svg.min.js"/>
<svg id="graph" class="graph">
<g id="graph0" class="graph" transform="scale(1 1) rotate(0) translate(4 176.5)">
<title>/home/ahussein/Documents/archive/opensourcesourcetrail.github.io/.ignore/src/src/lib_cxx/data/parser/cxx/CxxAstVisitorComponentContext.h</title>
<!-- Node1 -->
<g id="Node000001" class="node">
<title>Node1</title>
<g id="a_Node000001"><a xlink:title=" ">
<polygon fill="#999999" stroke="#666666" points="269,-172.5 57.25,-172.5 57.25,-113.5 269,-113.5 269,-172.5"/>
<text text-anchor="start" x="65.25" y="-159" font-family="Helvetica,sans-Serif" font-size="10.00">/home/ahussein/Documents</text>
<text text-anchor="start" x="65.25" y="-146.25" font-family="Helvetica,sans-Serif" font-size="10.00">/archive/opensourcesourcetrail.github.io</text>
<text text-anchor="start" x="65.25" y="-133.5" font-family="Helvetica,sans-Serif" font-size="10.00">/.ignore/src/src/lib_cxx/data/parser</text>
<text text-anchor="middle" x="163.12" y="-120.75" font-family="Helvetica,sans-Serif" font-size="10.00">/cxx/CxxAstVisitorComponentContext.h</text>
</a>
</g>
</g>
<!-- Node2 -->
<g id="Node000002" class="node">
<title>Node2</title>
<g id="a_Node000002"><a xlink:href="CxxAstVisitorComponent_8h.html" target="_top" xlink:title=" ">
<polygon fill="white" stroke="#666666" points="170.75,-77.5 23.5,-77.5 23.5,-56.75 170.75,-56.75 170.75,-77.5"/>
<text text-anchor="middle" x="97.12" y="-64" font-family="Helvetica,sans-Serif" font-size="10.00">CxxAstVisitorComponent.h</text>
</a>
</g>
</g>
<!-- Node1&#45;&gt;Node2 -->
<g id="edge1_Node000001_Node000002" class="edge">
<title>Node1&#45;&gt;Node2</title>
<g id="a_edge1_Node000001_Node000002"><a xlink:title=" ">
<path fill="none" stroke="#63b8ff" d="M137.42,-113.23C129.32,-104.16 120.6,-94.4 113.36,-86.29"/>
<polygon fill="#63b8ff" stroke="#63b8ff" points="116.19,-84.21 106.92,-79.09 110.97,-88.87 116.19,-84.21"/>
</a>
</g>
</g>
<!-- Node4 -->
<g id="Node000004" class="node">
<title>Node4</title>
<g id="a_Node000004"><a xlink:href="CxxContext_8h.html" target="_top" xlink:title=" ">
<polygon fill="white" stroke="#666666" points="276.12,-77.5 194.12,-77.5 194.12,-56.75 276.12,-56.75 276.12,-77.5"/>
<text text-anchor="middle" x="235.12" y="-64" font-family="Helvetica,sans-Serif" font-size="10.00">CxxContext.h</text>
</a>
</g>
</g>
<!-- Node1&#45;&gt;Node4 -->
<g id="edge3_Node000001_Node000004" class="edge">
<title>Node1&#45;&gt;Node4</title>
<g id="a_edge3_Node000001_Node000004"><a xlink:title=" ">
<path fill="none" stroke="#63b8ff" d="M191.17,-113.23C200.1,-104.06 209.72,-94.19 217.67,-86.03"/>
<polygon fill="#63b8ff" stroke="#63b8ff" points="220.01,-88.64 224.49,-79.04 215,-83.76 220.01,-88.64"/>
</a>
</g>
</g>
<!-- Node3 -->
<g id="Node000003" class="node">
<title>Node3</title>
<g id="a_Node000003"><a xlink:title=" ">
<polygon fill="#e0e0e0" stroke="#999999" points="174.25,-20.75 0,-20.75 0,0 174.25,0 174.25,-20.75"/>
<text text-anchor="middle" x="87.12" y="-7.25" font-family="Helvetica,sans-Serif" font-size="10.00">clang/AST/RecursiveASTVisitor.h</text>
</a>
</g>
</g>
<!-- Node2&#45;&gt;Node3 -->
<g id="edge2_Node000002_Node000003" class="edge">
<title>Node2&#45;&gt;Node3</title>
<g id="a_edge2_Node000002_Node000003"><a xlink:title=" ">
<path fill="none" stroke="#63b8ff" d="M95.34,-56.34C94.11,-49.64 92.45,-40.51 90.93,-32.23"/>
<polygon fill="#63b8ff" stroke="#63b8ff" points="94.41,-31.78 89.17,-22.57 87.52,-33.03 94.41,-31.78"/>
</a>
</g>
</g>
<!-- Node5 -->
<g id="Node000005" class="node">
<title>Node5</title>
<g id="a_Node000005"><a xlink:title=" ">
<polygon fill="#e0e0e0" stroke="#999999" points="290,-20.75 192.25,-20.75 192.25,0 290,0 290,-20.75"/>
<text text-anchor="middle" x="241.12" y="-7.25" font-family="Helvetica,sans-Serif" font-size="10.00">clang/AST/Decl.h</text>
</a>
</g>
</g>
<!-- Node4&#45;&gt;Node5 -->
<g id="edge4_Node000004_Node000005" class="edge">
<title>Node4&#45;&gt;Node5</title>
<g id="a_edge4_Node000004_Node000005"><a xlink:title=" ">
<path fill="none" stroke="#63b8ff" d="M236.2,-56.34C236.92,-49.72 237.91,-40.72 238.81,-32.52"/>
<polygon fill="#63b8ff" stroke="#63b8ff" points="242.29,-32.9 239.9,-22.58 235.33,-32.14 242.29,-32.9"/>
</a>
</g>
</g>
</g>
</svg>
</svg>

<style type='text/css'>
<![CDATA[
[data-mouse-over-selected='false'] { opacity: 0.7; }
[data-mouse-over-selected='true']  { opacity: 1.0; }
]]>
</style>
<script type="application/ecmascript"><![CDATA[
document.addEventListener('DOMContentLoaded', (event) => {
  highlightEdges();
  highlightAdjacentNodes();
});
]]></script>
</svg>
