<?xml version="1.0" encoding="UTF-8" standalone="no"?>
<!DOCTYPE svg PUBLIC "-//W3C//DTD SVG 1.1//EN"
 "http://www.w3.org/Graphics/SVG/1.1/DTD/svg11.dtd">
<!-- Generated by graphviz version 7.1.0 (0)
 -->
<!-- Title: /home/ahussein/Documents/sourceCode/Sourcetrail/src/src/lib/data/indexer Pages: 1 -->
<!--zoomable 196 -->
<svg id="main" version="1.1" xmlns="http://www.w3.org/2000/svg" xmlns:xlink="http://www.w3.org/1999/xlink" xml:space="preserve" onload="init(evt)">
<style type="text/css"><![CDATA[
.edge:hover path { stroke: red; }
.edge:hover polygon { stroke: red; fill: red; }
]]></style>
<script type="text/javascript"><![CDATA[
var edges = document.getElementsByTagName('g');
if (edges && edges.length) {
  for (var i=0;i<edges.length;i++) {
    if (edges[i].id.substr(0,4)=='edge') {
      edges[i].setAttribute('class','edge');
    }
  }
}
]]></script>
        <defs>
                <circle id="rim" cx="0" cy="0" r="7"/>
                <circle id="rim2" cx="0" cy="0" r="3.5"/>
                <g id="zoomPlus">
                        <use xlink:href="#rim" fill="#404040">
                                <set attributeName="fill" to="#808080" begin="zoomplus.mouseover" end="zoomplus.mouseout"/>
                        </use>
                        <path d="M-4,0h8M0,-4v8" fill="none" stroke="white" stroke-width="1.5" pointer-events="none"/>
                </g>
                <g id="zoomMin">
                        <use xlink:href="#rim" fill="#404040">
                                <set attributeName="fill" to="#808080" begin="zoomminus.mouseover" end="zoomminus.mouseout"/>
                        </use>
                        <path d="M-4,0h8" fill="none" stroke="white" stroke-width="1.5" pointer-events="none"/>
                </g>
                <g id="dirArrow">
                        <path fill="none" stroke="white" stroke-width="1.5" d="M0,-3.0v7 M-2.5,-0.5L0,-3.0L2.5,-0.5"/>
                </g>
               <g id="resetDef">
                       <use xlink:href="#rim2" fill="#404040">
                               <set attributeName="fill" to="#808080" begin="reset.mouseover" end="reset.mouseout"/>
                       </use>
               </g>
        </defs>

<script type="text/javascript">
var viewWidth = 670;
var viewHeight = 196;
var sectionId = 'dynsection-0';
</script>
<script xlink:href="svgpan.js"/>
<svg id="graph" class="graph">
<g id="viewport">
<title>/home/ahussein/Documents/sourceCode/Sourcetrail/src/src/lib/data/indexer</title>
<g id="clust1" class="cluster">
<title>clusterdir_44ef1be40d849cbe927fdde73bfaf36f</title>
<g id="a_clust1"><a xlink:href="dir_44ef1be40d849cbe927fdde73bfaf36f.html" target="_top" xlink:title="data">
<polygon fill="#edf0f7" stroke="#7f7f7f" stroke-dasharray="5,2" points="8,-8 8,-180 332,-180 332,-8 8,-8"/>
<text text-anchor="middle" x="170" y="-168" font-family="Helvetica,sans-Serif" font-size="10.00">data</text>
</a>
</g>
</g>
<g id="clust2" class="cluster">
<title>clusterdir_9a57a28e2e66adbb7b473c3d5c4133f6</title>
<g id="a_clust2"><a xlink:href="dir_9a57a28e2e66adbb7b473c3d5c4133f6.html" target="_top">
<polygon fill="#edf0f7" stroke="#404040" stroke-width="2" points="230,-63 230,-153 324,-153 324,-63 230,-63"/>
</a>
</g>
</g>
<!-- dir_0fc35b7e5b694d141d8b8d0ceb421b7b -->
<g id="node1" class="node">
<title>dir_0fc35b7e5b694d141d8b8d0ceb421b7b</title>
<g id="a_node1"><a xlink:href="dir_0fc35b7e5b694d141d8b8d0ceb421b7b.html" target="_top" xlink:title="graph">
<polygon fill="#a2b4d6" stroke="red" points="220,-90 176,-90 176,-71 220,-71 220,-90"/>
<text text-anchor="middle" x="198" y="-78" font-family="Helvetica,sans-Serif" font-size="10.00">graph</text>
</a>
</g>
</g>
<!-- dir_65db373bcdc6d6c89b491403e424a940 -->
<g id="node2" class="node">
<title>dir_65db373bcdc6d6c89b491403e424a940</title>
<g id="a_node2"><a xlink:href="dir_65db373bcdc6d6c89b491403e424a940.html" target="_top" xlink:title="location">
<polygon fill="#a2b4d6" stroke="#404040" points="72,-90 16,-90 16,-71 72,-71 72,-90"/>
<text text-anchor="middle" x="44" y="-78" font-family="Helvetica,sans-Serif" font-size="10.00">location</text>
</a>
</g>
</g>
<!-- dir_afd74080fb55689ab629c88275524e84 -->
<g id="node3" class="node">
<title>dir_afd74080fb55689ab629c88275524e84</title>
<g id="a_node3"><a xlink:href="dir_afd74080fb55689ab629c88275524e84.html" target="_top" xlink:title="parser">
<polygon fill="#a2b4d6" stroke="#404040" points="137.5,-90 90.5,-90 90.5,-71 137.5,-71 137.5,-90"/>
<text text-anchor="middle" x="114" y="-78" font-family="Helvetica,sans-Serif" font-size="10.00">parser</text>
</a>
</g>
</g>
<!-- dir_cb1d7e2a40949091d3b3f840dd1a4d71 -->
<g id="node4" class="node">
<title>dir_cb1d7e2a40949091d3b3f840dd1a4d71</title>
<g id="a_node4"><a xlink:href="dir_cb1d7e2a40949091d3b3f840dd1a4d71.html" target="_top" xlink:title="storage">
<polygon fill="#a2b4d6" stroke="red" points="243.5,-35 190.5,-35 190.5,-16 243.5,-16 243.5,-35"/>
<text text-anchor="middle" x="217" y="-23" font-family="Helvetica,sans-Serif" font-size="10.00">storage</text>
</a>
</g>
</g>
<!-- dir_9a57a28e2e66adbb7b473c3d5c4133f6 -->
<g id="node5" class="node">
<title>dir_9a57a28e2e66adbb7b473c3d5c4133f6</title>
<text text-anchor="middle" x="289" y="-133" font-family="Helvetica,sans-Serif" font-size="10.00">indexer</text>
</g>
<!-- dir_9a57a28e2e66adbb7b473c3d5c4133f6&#45;&gt;dir_0fc35b7e5b694d141d8b8d0ceb421b7b -->
<g id="edge3" class="edge">
<title>dir_9a57a28e2e66adbb7b473c3d5c4133f6&#45;&gt;dir_0fc35b7e5b694d141d8b8d0ceb421b7b</title>
<path fill="none" stroke="#63b8ff" d="M274.78,-126.22C260.95,-118.17 239.66,-105.76 223,-96.06"/>
<polygon fill="#63b8ff" stroke="#63b8ff" points="225.04,-93.2 214.64,-91.19 221.52,-99.25 225.04,-93.2"/>
<g id="a_edge3&#45;headlabel"><a xlink:href="dir_000035_000027.html" target="_top" xlink:title="1">
<text text-anchor="middle" x="228.27" y="-89.29" font-family="Helvetica,sans-Serif" font-size="10.00" fill="#63b8ff">1</text>
</a>
</g>
</g>
<!-- dir_9a57a28e2e66adbb7b473c3d5c4133f6&#45;&gt;dir_65db373bcdc6d6c89b491403e424a940 -->
<g id="edge4" class="edge">
<title>dir_9a57a28e2e66adbb7b473c3d5c4133f6&#45;&gt;dir_65db373bcdc6d6c89b491403e424a940</title>
<path fill="none" stroke="#63b8ff" d="M262.7,-129.01C225.14,-121.13 153.68,-106.04 83.13,-90.45"/>
<polygon fill="#63b8ff" stroke="#63b8ff" points="84.27,-87.11 73.75,-88.37 82.76,-93.95 84.27,-87.11"/>
<g id="a_edge4&#45;headlabel"><a xlink:href="dir_000035_000042.html" target="_top" xlink:title="2">
<text text-anchor="middle" x="86.92" y="-82.29" font-family="Helvetica,sans-Serif" font-size="10.00" fill="#63b8ff">2</text>
</a>
</g>
</g>
<!-- dir_9a57a28e2e66adbb7b473c3d5c4133f6&#45;&gt;dir_afd74080fb55689ab629c88275524e84 -->
<g id="edge8" class="edge">
<title>dir_9a57a28e2e66adbb7b473c3d5c4133f6&#45;&gt;dir_afd74080fb55689ab629c88275524e84</title>
<path fill="none" stroke="#63b8ff" d="M262.8,-126.57C232.39,-117.36 182.12,-102.13 148.54,-91.96"/>
<polygon fill="#63b8ff" stroke="#63b8ff" points="149.88,-88.71 139.29,-89.16 147.85,-95.41 149.88,-88.71"/>
<g id="a_edge8&#45;headlabel"><a xlink:href="dir_000035_000051.html" target="_top" xlink:title="2">
<text text-anchor="middle" x="152.69" y="-84.1" font-family="Helvetica,sans-Serif" font-size="10.00" fill="#63b8ff">2</text>
</a>
</g>
</g>
<!-- dir_9a57a28e2e66adbb7b473c3d5c4133f6&#45;&gt;dir_cb1d7e2a40949091d3b3f840dd1a4d71 -->
<g id="edge11" class="edge">
<title>dir_9a57a28e2e66adbb7b473c3d5c4133f6&#45;&gt;dir_cb1d7e2a40949091d3b3f840dd1a4d71</title>
<path fill="none" stroke="#63b8ff" d="M262.58,-133.26C233.65,-130.33 188.52,-120.76 167,-90 160.12,-80.17 161.56,-73.7 167,-63 171.46,-54.21 179.15,-47.04 187.17,-41.45"/>
<polygon fill="#63b8ff" stroke="#63b8ff" points="188.98,-44.44 195.64,-36.21 185.3,-38.49 188.98,-44.44"/>
<g id="a_edge11&#45;headlabel"><a xlink:href="dir_000035_000072.html" target="_top" xlink:title="13">
<text text-anchor="middle" x="188.7" y="-45.45" font-family="Helvetica,sans-Serif" font-size="10.00" fill="#63b8ff">13</text>
</a>
</g>
</g>
<!-- dir_851319939009f43d9a1c44786facf4f7 -->
<g id="node6" class="node">
<title>dir_851319939009f43d9a1c44786facf4f7</title>
<g id="a_node6"><a xlink:href="dir_851319939009f43d9a1c44786facf4f7.html" target="_top" xlink:title="interprocess">
<polygon fill="#a2b4d6" stroke="#404040" points="315.5,-90 238.5,-90 238.5,-71 315.5,-71 315.5,-90"/>
<text text-anchor="middle" x="277" y="-78" font-family="Helvetica,sans-Serif" font-size="10.00">interprocess</text>
</a>
</g>
</g>
<!-- dir_9a57a28e2e66adbb7b473c3d5c4133f6&#45;&gt;dir_851319939009f43d9a1c44786facf4f7 -->
<g id="edge5" class="edge">
<title>dir_9a57a28e2e66adbb7b473c3d5c4133f6&#45;&gt;dir_851319939009f43d9a1c44786facf4f7</title>
<path fill="none" stroke="#63b8ff" d="M287.12,-126.22C285.62,-119.57 283.44,-109.96 281.49,-101.34"/>
<polygon fill="#63b8ff" stroke="#63b8ff" points="284.94,-100.71 279.32,-91.73 278.11,-102.25 284.94,-100.71"/>
<g id="a_edge5&#45;headlabel"><a xlink:href="dir_000035_000037.html" target="_top" xlink:title="7">
<text text-anchor="middle" x="288.17" y="-99.61" font-family="Helvetica,sans-Serif" font-size="10.00" fill="#63b8ff">7</text>
</a>
</g>
</g>
<!-- dir_08996b76938013da857756e9c49f7ea7 -->
<g id="node7" class="node">
<title>dir_08996b76938013da857756e9c49f7ea7</title>
<g id="a_node7"><a xlink:href="dir_08996b76938013da857756e9c49f7ea7.html" target="_top" xlink:title="app">
<polygon fill="#edf0f7" stroke="red" stroke-dasharray="5,2" points="455.5,-35 420.5,-35 420.5,-16 455.5,-16 455.5,-35"/>
<text text-anchor="middle" x="438" y="-23" font-family="Helvetica,sans-Serif" font-size="10.00">app</text>
</a>
</g>
</g>
<!-- dir_9a57a28e2e66adbb7b473c3d5c4133f6&#45;&gt;dir_08996b76938013da857756e9c49f7ea7 -->
<g id="edge1" class="edge">
<title>dir_9a57a28e2e66adbb7b473c3d5c4133f6&#45;&gt;dir_08996b76938013da857756e9c49f7ea7</title>
<path fill="none" stroke="#63b8ff" d="M315.43,-134.37C348.06,-132.66 402.69,-124.41 431,-90 440.82,-78.07 442.02,-60.31 441.08,-46.61"/>
<polygon fill="#63b8ff" stroke="#63b8ff" points="444.59,-46.48 439.97,-36.95 437.64,-47.28 444.59,-46.48"/>
<g id="a_edge1&#45;headlabel"><a xlink:href="dir_000035_000001.html" target="_top" xlink:title="3">
<text text-anchor="middle" x="447.65" y="-45.72" font-family="Helvetica,sans-Serif" font-size="10.00" fill="#63b8ff">3</text>
</a>
</g>
</g>
<!-- dir_0b49339021e9bc8d8c1b8e31cda927c5 -->
<g id="node8" class="node">
<title>dir_0b49339021e9bc8d8c1b8e31cda927c5</title>
<g id="a_node8"><a xlink:href="dir_0b49339021e9bc8d8c1b8e31cda927c5.html" target="_top" xlink:title="utility">
<polygon fill="#edf0f7" stroke="red" stroke-dasharray="5,2" points="518.5,-35 473.5,-35 473.5,-16 518.5,-16 518.5,-35"/>
<text text-anchor="middle" x="496" y="-23" font-family="Helvetica,sans-Serif" font-size="10.00">utility</text>
</a>
</g>
</g>
<!-- dir_9a57a28e2e66adbb7b473c3d5c4133f6&#45;&gt;dir_0b49339021e9bc8d8c1b8e31cda927c5 -->
<g id="edge2" class="edge">
<title>dir_9a57a28e2e66adbb7b473c3d5c4133f6&#45;&gt;dir_0b49339021e9bc8d8c1b8e31cda927c5</title>
<path fill="none" stroke="#63b8ff" d="M315.3,-132.45C348.94,-128.71 407.78,-118.35 449,-90 465.57,-78.6 478.58,-59.43 486.67,-45.13"/>
<polygon fill="#63b8ff" stroke="#63b8ff" points="489.55,-47.16 491.16,-36.69 483.37,-43.87 489.55,-47.16"/>
<g id="a_edge2&#45;headlabel"><a xlink:href="dir_000035_000080.html" target="_top" xlink:title="51">
<text text-anchor="middle" x="491.08" y="-47.83" font-family="Helvetica,sans-Serif" font-size="10.00" fill="#63b8ff">51</text>
</a>
</g>
</g>
<!-- dir_942b0672eaeddadf55fe5f0d151faa43 -->
<g id="node9" class="node">
<title>dir_942b0672eaeddadf55fe5f0d151faa43</title>
<g id="a_node9"><a xlink:href="dir_942b0672eaeddadf55fe5f0d151faa43.html" target="_top" xlink:title="settings">
<polygon fill="#edf0f7" stroke="red" stroke-dasharray="5,2" points="572,-90 516,-90 516,-71 572,-71 572,-90"/>
<text text-anchor="middle" x="544" y="-78" font-family="Helvetica,sans-Serif" font-size="10.00">settings</text>
</a>
</g>
</g>
<!-- dir_9a57a28e2e66adbb7b473c3d5c4133f6&#45;&gt;dir_942b0672eaeddadf55fe5f0d151faa43 -->
<g id="edge6" class="edge">
<title>dir_9a57a28e2e66adbb7b473c3d5c4133f6&#45;&gt;dir_942b0672eaeddadf55fe5f0d151faa43</title>
<path fill="none" stroke="#63b8ff" d="M315.33,-129.03C360.28,-119.68 452.07,-100.61 504.66,-89.68"/>
<polygon fill="#63b8ff" stroke="#63b8ff" points="505.32,-93.11 514.4,-87.65 503.9,-86.26 505.32,-93.11"/>
<g id="a_edge6&#45;headlabel"><a xlink:href="dir_000035_000066.html" target="_top" xlink:title="1">
<text text-anchor="middle" x="503.86" y="-93.82" font-family="Helvetica,sans-Serif" font-size="10.00" fill="#63b8ff">1</text>
</a>
</g>
</g>
<!-- dir_ae633561e3edcf2186fd27e6da67a778 -->
<g id="node10" class="node">
<title>dir_ae633561e3edcf2186fd27e6da67a778</title>
<g id="a_node10"><a xlink:href="dir_ae633561e3edcf2186fd27e6da67a778.html" target="_top" xlink:title="component">
<polygon fill="#edf0f7" stroke="red" stroke-dasharray="5,2" points="661.5,-90 590.5,-90 590.5,-71 661.5,-71 661.5,-90"/>
<text text-anchor="middle" x="626" y="-78" font-family="Helvetica,sans-Serif" font-size="10.00">component</text>
</a>
</g>
</g>
<!-- dir_9a57a28e2e66adbb7b473c3d5c4133f6&#45;&gt;dir_ae633561e3edcf2186fd27e6da67a778 -->
<g id="edge7" class="edge">
<title>dir_9a57a28e2e66adbb7b473c3d5c4133f6&#45;&gt;dir_ae633561e3edcf2186fd27e6da67a778</title>
<path fill="none" stroke="#63b8ff" d="M315.22,-130.82C364.61,-123.83 475.06,-107.86 578.84,-90.31"/>
<polygon fill="#63b8ff" stroke="#63b8ff" points="579.4,-93.77 588.67,-88.64 578.22,-86.87 579.4,-93.77"/>
<g id="a_edge7&#45;headlabel"><a xlink:href="dir_000035_000011.html" target="_top" xlink:title="2">
<text text-anchor="middle" x="577.82" y="-94.42" font-family="Helvetica,sans-Serif" font-size="10.00" fill="#63b8ff">2</text>
</a>
</g>
</g>
<!-- dir_babaa6fe7c6291a3e796cbd5ecaf0fdd -->
<g id="node11" class="node">
<title>dir_babaa6fe7c6291a3e796cbd5ecaf0fdd</title>
<g id="a_node11"><a xlink:href="dir_babaa6fe7c6291a3e796cbd5ecaf0fdd.html" target="_top" xlink:title="lib_utility">
<polygon fill="#edf0f7" stroke="red" stroke-dasharray="5,2" points="402,-35 340,-35 340,-16 402,-16 402,-35"/>
<text text-anchor="middle" x="371" y="-23" font-family="Helvetica,sans-Serif" font-size="10.00">lib_utility</text>
</a>
</g>
</g>
<!-- dir_9a57a28e2e66adbb7b473c3d5c4133f6&#45;&gt;dir_babaa6fe7c6291a3e796cbd5ecaf0fdd -->
<g id="edge9" class="edge">
<title>dir_9a57a28e2e66adbb7b473c3d5c4133f6&#45;&gt;dir_babaa6fe7c6291a3e796cbd5ecaf0fdd</title>
<path fill="none" stroke="#63b8ff" d="M295.78,-126.03C302.89,-117.12 314.34,-102.66 324,-90 335.69,-74.69 348.7,-57.06 358.06,-44.27"/>
<polygon fill="#63b8ff" stroke="#63b8ff" points="360.73,-46.55 363.8,-36.41 355.08,-42.42 360.73,-46.55"/>
<g id="a_edge9&#45;headlabel"><a xlink:href="dir_000035_000041.html" target="_top" xlink:title="6">
<text text-anchor="middle" x="361.8" y="-47.4" font-family="Helvetica,sans-Serif" font-size="10.00" fill="#63b8ff">6</text>
</a>
</g>
</g>
<!-- dir_ca754ad7e8d48d35b7d420938a7b975b -->
<g id="node12" class="node">
<title>dir_ca754ad7e8d48d35b7d420938a7b975b</title>
<g id="a_node12"><a xlink:href="dir_ca754ad7e8d48d35b7d420938a7b975b.html" target="_top" xlink:title="lib_gui">
<polygon fill="#edf0f7" stroke="red" stroke-dasharray="5,2" points="421.5,-90 372.5,-90 372.5,-71 421.5,-71 421.5,-90"/>
<text text-anchor="middle" x="397" y="-78" font-family="Helvetica,sans-Serif" font-size="10.00">lib_gui</text>
</a>
</g>
</g>
<!-- dir_9a57a28e2e66adbb7b473c3d5c4133f6&#45;&gt;dir_ca754ad7e8d48d35b7d420938a7b975b -->
<g id="edge10" class="edge">
<title>dir_9a57a28e2e66adbb7b473c3d5c4133f6&#45;&gt;dir_ca754ad7e8d48d35b7d420938a7b975b</title>
<path fill="none" stroke="#63b8ff" d="M305.88,-126.22C322.67,-117.98 348.76,-105.18 368.72,-95.38"/>
<polygon fill="#63b8ff" stroke="#63b8ff" points="370.01,-98.65 377.44,-91.1 366.92,-92.36 370.01,-98.65"/>
<g id="a_edge10&#45;headlabel"><a xlink:href="dir_000035_000040.html" target="_top" xlink:title="2">
<text text-anchor="middle" x="369.39" y="-99.61" font-family="Helvetica,sans-Serif" font-size="10.00" fill="#63b8ff">2</text>
</a>
</g>
</g>
<!-- dir_851319939009f43d9a1c44786facf4f7&#45;&gt;dir_cb1d7e2a40949091d3b3f840dd1a4d71 -->
<g id="edge15" class="edge">
<title>dir_851319939009f43d9a1c44786facf4f7&#45;&gt;dir_cb1d7e2a40949091d3b3f840dd1a4d71</title>
<path fill="none" stroke="#63b8ff" d="M266.82,-70.51C258.24,-62.93 245.73,-51.88 235.4,-42.75"/>
<polygon fill="#63b8ff" stroke="#63b8ff" points="237.97,-40.36 228.16,-36.36 233.34,-45.6 237.97,-40.36"/>
<g id="a_edge15&#45;headlabel"><a xlink:href="dir_000037_000072.html" target="_top" xlink:title="10">
<text text-anchor="middle" x="241.41" y="-37.11" font-family="Helvetica,sans-Serif" font-size="10.00" fill="#63b8ff">10</text>
</a>
</g>
</g>
<!-- dir_851319939009f43d9a1c44786facf4f7&#45;&gt;dir_08996b76938013da857756e9c49f7ea7 -->
<g id="edge12" class="edge">
<title>dir_851319939009f43d9a1c44786facf4f7&#45;&gt;dir_08996b76938013da857756e9c49f7ea7</title>
<path fill="none" stroke="#63b8ff" d="M304.31,-70.51C333.46,-60.91 379.44,-45.78 409.16,-35.99"/>
<polygon fill="#63b8ff" stroke="#63b8ff" points="410.22,-39.33 418.62,-32.88 408.03,-32.68 410.22,-39.33"/>
<g id="a_edge12&#45;headlabel"><a xlink:href="dir_000037_000001.html" target="_top" xlink:title="1">
<text text-anchor="middle" x="409.13" y="-40.18" font-family="Helvetica,sans-Serif" font-size="10.00" fill="#63b8ff">1</text>
</a>
</g>
</g>
<!-- dir_851319939009f43d9a1c44786facf4f7&#45;&gt;dir_0b49339021e9bc8d8c1b8e31cda927c5 -->
<g id="edge13" class="edge">
<title>dir_851319939009f43d9a1c44786facf4f7&#45;&gt;dir_0b49339021e9bc8d8c1b8e31cda927c5</title>
<path fill="none" stroke="#63b8ff" d="M315.98,-70.69C351.69,-62.53 406.29,-49.83 461.88,-35.74"/>
<polygon fill="#63b8ff" stroke="#63b8ff" points="462.71,-39.14 471.53,-33.28 460.98,-32.35 462.71,-39.14"/>
<g id="a_edge13&#45;headlabel"><a xlink:href="dir_000037_000080.html" target="_top" xlink:title="15">
<text text-anchor="middle" x="461.39" y="-39.9" font-family="Helvetica,sans-Serif" font-size="10.00" fill="#63b8ff">15</text>
</a>
</g>
</g>
<!-- dir_851319939009f43d9a1c44786facf4f7&#45;&gt;dir_babaa6fe7c6291a3e796cbd5ecaf0fdd -->
<g id="edge14" class="edge">
<title>dir_851319939009f43d9a1c44786facf4f7&#45;&gt;dir_babaa6fe7c6291a3e796cbd5ecaf0fdd</title>
<path fill="none" stroke="#63b8ff" d="M292.95,-70.51C307.35,-62.39 328.79,-50.3 345.56,-40.85"/>
<polygon fill="#63b8ff" stroke="#63b8ff" points="346.98,-44.06 353.97,-36.1 343.54,-37.96 346.98,-44.06"/>
<g id="a_edge14&#45;headlabel"><a xlink:href="dir_000037_000041.html" target="_top" xlink:title="3">
<text text-anchor="middle" x="346.56" y="-45.06" font-family="Helvetica,sans-Serif" font-size="10.00" fill="#63b8ff">3</text>
</a>
</g>
</g>
</g>
</svg>
        <g id="navigator" transform="translate(0 0)" fill="#404254">
                <rect fill="#f2f5e9" fill-opacity="0.5" stroke="#606060" stroke-width=".5" x="0" y="0" width="60" height="60"/>
                <use id="zoomplus" xlink:href="#zoomPlus" x="17" y="9" onmousedown="handleZoom(evt,'in')"/>
                <use id="zoomminus" xlink:href="#zoomMin" x="42" y="9" onmousedown="handleZoom(evt,'out')"/>
                <use id="reset" xlink:href="#resetDef" x="30" y="36" onmousedown="handleReset()"/>
                <g id="arrowUp" xlink:href="#dirArrow" transform="translate(30 24)" onmousedown="handlePan(0,-1)">
                  <use xlink:href="#rim" fill="#404040">
                        <set attributeName="fill" to="#808080" begin="arrowUp.mouseover" end="arrowUp.mouseout"/>
                  </use>
                  <path fill="none" stroke="white" stroke-width="1.5" d="M0,-3.0v7 M-2.5,-0.5L0,-3.0L2.5,-0.5"/>
                </g>
                <g id="arrowRight" xlink:href="#dirArrow" transform="rotate(90) translate(36 -43)" onmousedown="handlePan(1,0)">
                  <use xlink:href="#rim" fill="#404040">
                        <set attributeName="fill" to="#808080" begin="arrowRight.mouseover" end="arrowRight.mouseout"/>
                  </use>
                  <path fill="none" stroke="white" stroke-width="1.5" d="M0,-3.0v7 M-2.5,-0.5L0,-3.0L2.5,-0.5"/>
                </g>
                <g id="arrowDown" xlink:href="#dirArrow" transform="rotate(180) translate(-30 -48)" onmousedown="handlePan(0,1)">
                  <use xlink:href="#rim" fill="#404040">
                        <set attributeName="fill" to="#808080" begin="arrowDown.mouseover" end="arrowDown.mouseout"/>
                  </use>
                  <path fill="none" stroke="white" stroke-width="1.5" d="M0,-3.0v7 M-2.5,-0.5L0,-3.0L2.5,-0.5"/>
                </g>
                <g id="arrowLeft" xlink:href="#dirArrow" transform="rotate(270) translate(-36 17)" onmousedown="handlePan(-1,0)">
                  <use xlink:href="#rim" fill="#404040">
                        <set attributeName="fill" to="#808080" begin="arrowLeft.mouseover" end="arrowLeft.mouseout"/>
                  </use>
                  <path fill="none" stroke="white" stroke-width="1.5" d="M0,-3.0v7 M-2.5,-0.5L0,-3.0L2.5,-0.5"/>
                </g>
        </g>
        <svg viewBox="0 0 15 15" width="100%" height="30px" preserveAspectRatio="xMaxYMin meet">
         <g id="arrow_out" transform="scale(0.3 0.3)">
          <a xlink:href="dir_9a57a28e2e66adbb7b473c3d5c4133f6_dep_org.svg" target="_base">
           <rect id="button" ry="5" rx="5" y="6" x="6" height="38" width="38"
                fill="#f2f5e9" fill-opacity="0.5" stroke="#606060" stroke-width="1.0"/>
           <path id="arrow"
             d="M 11.500037,31.436501 C 11.940474,20.09759 22.043105,11.32322 32.158766,21.979434 L 37.068811,17.246167 C 37.068811,17.246167 37.088388,32 37.088388,32 L 22.160133,31.978069 C 22.160133,31.978069 26.997745,27.140456 26.997745,27.140456 C 18.528582,18.264221 13.291696,25.230495 11.500037,31.436501 z"
             style="fill:#404040;"/>
          </a>
         </g>
        </svg>
</svg>
