<?xml version="1.0" encoding="UTF-8" standalone="no"?>
<!DOCTYPE svg PUBLIC "-//W3C//DTD SVG 1.1//EN"
 "http://www.w3.org/Graphics/SVG/1.1/DTD/svg11.dtd">
<!-- Generated by graphviz version 7.1.0 (0)
 -->
<!-- Title: /home/ahussein/Documents/sourceCode/Sourcetrail/src/src/lib/utility/file/FileRegister.h Pages: 1 -->
<svg width="388pt" height="170pt"
 viewBox="0.00 0.00 387.50 170.00" xmlns="http://www.w3.org/2000/svg" xmlns:xlink="http://www.w3.org/1999/xlink">
<g id="graph0" class="graph" transform="scale(1 1) rotate(0) translate(4 166)">
<title>/home/ahussein/Documents/sourceCode/Sourcetrail/src/src/lib/utility/file/FileRegister.h</title>
<!-- Node1 -->
<g id="node1" class="node">
<title>Node1</title>
<g id="a_node1"><a xlink:title=" ">
<polygon fill="#999999" stroke="#666666" points="191,-162 39,-162 39,-110 191,-110 191,-162"/>
<text text-anchor="start" x="47" y="-150" font-family="Helvetica,sans-Serif" font-size="10.00">/home/ahussein/Documents</text>
<text text-anchor="start" x="47" y="-139" font-family="Helvetica,sans-Serif" font-size="10.00">/sourceCode/Sourcetrail</text>
<text text-anchor="start" x="47" y="-128" font-family="Helvetica,sans-Serif" font-size="10.00">/src/src/lib/utility/file</text>
<text text-anchor="middle" x="115" y="-117" font-family="Helvetica,sans-Serif" font-size="10.00">/FileRegister.h</text>
</a>
</g>
</g>
<!-- Node2 -->
<g id="node2" class="node">
<title>Node2</title>
<g id="a_node2"><a xlink:title=" ">
<polygon fill="#e0e0e0" stroke="#999999" points="65,-74 33,-74 33,-55 65,-55 65,-74"/>
<text text-anchor="middle" x="49" y="-62" font-family="Helvetica,sans-Serif" font-size="10.00">set</text>
</a>
</g>
</g>
<!-- Node1&#45;&gt;Node2 -->
<g id="edge1" class="edge">
<title>Node1&#45;&gt;Node2</title>
<path fill="none" stroke="#63b8ff" d="M90.8,-109.52C82.25,-100.51 72.84,-90.61 65.12,-82.48"/>
<polygon fill="#63b8ff" stroke="#63b8ff" points="67.73,-80.14 58.3,-75.29 62.65,-84.96 67.73,-80.14"/>
</g>
<!-- Node3 -->
<g id="node3" class="node">
<title>Node3</title>
<g id="a_node3"><a xlink:href="$FilePath_8h.html" xlink:title=" ">
<polygon fill="white" stroke="#666666" points="147,-74 83,-74 83,-55 147,-55 147,-74"/>
<text text-anchor="middle" x="115" y="-62" font-family="Helvetica,sans-Serif" font-size="10.00">FilePath.h</text>
</a>
</g>
</g>
<!-- Node1&#45;&gt;Node3 -->
<g id="edge2" class="edge">
<title>Node1&#45;&gt;Node3</title>
<path fill="none" stroke="#63b8ff" d="M115,-109.52C115,-101.67 115,-93.15 115,-85.71"/>
<polygon fill="#63b8ff" stroke="#63b8ff" points="118.5,-85.71 115,-75.71 111.5,-85.71 118.5,-85.71"/>
</g>
<!-- Node7 -->
<g id="node7" class="node">
<title>Node7</title>
<g id="a_node7"><a xlink:href="$UnorderedCache_8h.html" xlink:title=" ">
<polygon fill="white" stroke="#666666" points="289.5,-74 182.5,-74 182.5,-55 289.5,-55 289.5,-74"/>
<text text-anchor="middle" x="236" y="-62" font-family="Helvetica,sans-Serif" font-size="10.00">UnorderedCache.h</text>
</a>
</g>
</g>
<!-- Node1&#45;&gt;Node7 -->
<g id="edge6" class="edge">
<title>Node1&#45;&gt;Node7</title>
<path fill="none" stroke="#63b8ff" d="M159.37,-109.52C176.63,-99.6 195.78,-88.6 210.62,-80.08"/>
<polygon fill="#63b8ff" stroke="#63b8ff" points="212.33,-83.13 219.26,-75.12 208.84,-77.06 212.33,-83.13"/>
</g>
<!-- Node4 -->
<g id="node4" class="node">
<title>Node4</title>
<g id="a_node4"><a xlink:title=" ">
<polygon fill="#e0e0e0" stroke="#999999" points="58,-19 0,-19 0,0 58,0 58,-19"/>
<text text-anchor="middle" x="29" y="-7" font-family="Helvetica,sans-Serif" font-size="10.00">memory</text>
</a>
</g>
</g>
<!-- Node3&#45;&gt;Node4 -->
<g id="edge3" class="edge">
<title>Node3&#45;&gt;Node4</title>
<path fill="none" stroke="#63b8ff" d="M100.41,-54.51C87.48,-46.54 68.36,-34.75 53.15,-25.38"/>
<polygon fill="#63b8ff" stroke="#63b8ff" points="55.01,-22.42 44.66,-20.15 51.34,-28.38 55.01,-22.42"/>
</g>
<!-- Node5 -->
<g id="node5" class="node">
<title>Node5</title>
<g id="a_node5"><a xlink:title=" ">
<polygon fill="#e0e0e0" stroke="#999999" points="120,-19 76,-19 76,0 120,0 120,-19"/>
<text text-anchor="middle" x="98" y="-7" font-family="Helvetica,sans-Serif" font-size="10.00">string</text>
</a>
</g>
</g>
<!-- Node3&#45;&gt;Node5 -->
<g id="edge4" class="edge">
<title>Node3&#45;&gt;Node5</title>
<path fill="none" stroke="#63b8ff" d="M112.19,-54.75C110.06,-48.11 107.06,-38.73 104.36,-30.31"/>
<polygon fill="#63b8ff" stroke="#63b8ff" points="107.72,-29.34 101.33,-20.88 101.05,-31.47 107.72,-29.34"/>
</g>
<!-- Node6 -->
<g id="node6" class="node">
<title>Node6</title>
<g id="a_node6"><a xlink:title=" ">
<polygon fill="#e0e0e0" stroke="#999999" points="185.5,-19 138.5,-19 138.5,0 185.5,0 185.5,-19"/>
<text text-anchor="middle" x="162" y="-7" font-family="Helvetica,sans-Serif" font-size="10.00">vector</text>
</a>
</g>
</g>
<!-- Node3&#45;&gt;Node6 -->
<g id="edge5" class="edge">
<title>Node3&#45;&gt;Node6</title>
<path fill="none" stroke="#63b8ff" d="M122.76,-54.75C129.19,-47.5 138.51,-36.98 146.46,-28.02"/>
<polygon fill="#63b8ff" stroke="#63b8ff" points="149.05,-30.38 153.07,-20.57 143.81,-25.73 149.05,-30.38"/>
</g>
<!-- Node8 -->
<g id="node8" class="node">
<title>Node8</title>
<g id="a_node8"><a xlink:title=" ">
<polygon fill="#e0e0e0" stroke="#999999" points="268.5,-19 203.5,-19 203.5,0 268.5,0 268.5,-19"/>
<text text-anchor="middle" x="236" y="-7" font-family="Helvetica,sans-Serif" font-size="10.00">functional</text>
</a>
</g>
</g>
<!-- Node7&#45;&gt;Node8 -->
<g id="edge7" class="edge">
<title>Node7&#45;&gt;Node8</title>
<path fill="none" stroke="#63b8ff" d="M236,-54.75C236,-48.27 236,-39.16 236,-30.9"/>
<polygon fill="#63b8ff" stroke="#63b8ff" points="239.5,-30.96 236,-20.96 232.5,-30.96 239.5,-30.96"/>
</g>
<!-- Node9 -->
<g id="node9" class="node">
<title>Node9</title>
<g id="a_node9"><a xlink:title=" ">
<polygon fill="#e0e0e0" stroke="#999999" points="379.5,-19 286.5,-19 286.5,0 379.5,0 379.5,-19"/>
<text text-anchor="middle" x="333" y="-7" font-family="Helvetica,sans-Serif" font-size="10.00">unordered_map</text>
</a>
</g>
</g>
<!-- Node7&#45;&gt;Node9 -->
<g id="edge8" class="edge">
<title>Node7&#45;&gt;Node9</title>
<path fill="none" stroke="#63b8ff" d="M252.45,-54.51C267.32,-46.39 289.44,-34.3 306.75,-24.85"/>
<polygon fill="#63b8ff" stroke="#63b8ff" points="308.36,-27.95 315.46,-20.08 305.01,-21.81 308.36,-27.95"/>
</g>
</g>
</svg>
