<?xml version="1.0" encoding="UTF-8" standalone="no"?>
<!DOCTYPE svg PUBLIC "-//W3C//DTD SVG 1.1//EN"
 "http://www.w3.org/Graphics/SVG/1.1/DTD/svg11.dtd">
<!-- Generated by graphviz version 9.0.0 (0)
 -->
<!-- Title: Graphical Class Hierarchy Pages: 1 -->
<svg width="369pt" height="68pt"
 viewBox="0.00 0.00 368.50 67.75" xmlns="http://www.w3.org/2000/svg" xmlns:xlink="http://www.w3.org/1999/xlink">
<g id="graph0" class="graph" transform="scale(1 1) rotate(0) translate(4 63.75)">
<title>Graphical Class Hierarchy</title>
<!-- Node0 -->
<g id="Node000000" class="node">
<title>Node0</title>
<g id="a_Node000000"><a xlink:href="classQtGraphNodeComponent.html" target="_top" xlink:title=" ">
<polygon fill="white" stroke="#666666" points="138.25,-39.75 0,-39.75 0,-19 138.25,-19 138.25,-39.75"/>
<text text-anchor="middle" x="69.12" y="-26.25" font-family="Helvetica,sans-Serif" font-size="10.00">QtGraphNodeComponent</text>
</a>
</g>
</g>
<!-- Node1 -->
<g id="Node000001" class="node">
<title>Node1</title>
<g id="a_Node000001"><a xlink:href="classQtGraphNodeComponentClickable.html" target="_top" xlink:title=" ">
<polygon fill="white" stroke="#666666" points="359,-59.75 175.75,-59.75 175.75,-39 359,-39 359,-59.75"/>
<text text-anchor="middle" x="267.38" y="-46.25" font-family="Helvetica,sans-Serif" font-size="10.00">QtGraphNodeComponentClickable</text>
</a>
</g>
</g>
<!-- Node0&#45;&gt;Node1 -->
<g id="edge814_Node000000_Node000001" class="edge">
<title>Node0&#45;&gt;Node1</title>
<g id="a_edge814_Node000000_Node000001"><a xlink:title=" ">
<path fill="none" stroke="#63b8ff" d="M149.85,-37.5C158.29,-38.36 166.92,-39.24 175.47,-40.11"/>
<polygon fill="#63b8ff" stroke="#63b8ff" points="150.3,-34.03 139.99,-36.5 149.59,-40.99 150.3,-34.03"/>
</a>
</g>
</g>
<!-- Node2 -->
<g id="Node000002" class="node">
<title>Node2</title>
<g id="a_Node000002"><a xlink:href="classQtGraphNodeComponentMoveable.html" target="_top" xlink:title=" ">
<polygon fill="white" stroke="#666666" points="360.5,-20.75 174.25,-20.75 174.25,0 360.5,0 360.5,-20.75"/>
<text text-anchor="middle" x="267.38" y="-7.25" font-family="Helvetica,sans-Serif" font-size="10.00">QtGraphNodeComponentMoveable</text>
</a>
</g>
</g>
<!-- Node0&#45;&gt;Node2 -->
<g id="edge815_Node000000_Node000002" class="edge">
<title>Node0&#45;&gt;Node2</title>
<g id="a_edge815_Node000000_Node000002"><a xlink:title=" ">
<path fill="none" stroke="#63b8ff" d="M149.71,-21.67C157.74,-20.89 165.94,-20.1 174.09,-19.31"/>
<polygon fill="#63b8ff" stroke="#63b8ff" points="149.61,-18.16 139.99,-22.61 150.29,-25.13 149.61,-18.16"/>
</a>
</g>
</g>
</g>
</svg>
