<?xml version="1.0" encoding="UTF-8" standalone="no"?>
<!DOCTYPE svg PUBLIC "-//W3C//DTD SVG 1.1//EN"
 "http://www.w3.org/Graphics/SVG/1.1/DTD/svg11.dtd">
<!-- Generated by graphviz version 9.0.0 (0)
 -->
<!-- Title: Graphical Class Hierarchy Pages: 1 -->
<svg width="210pt" height="107pt"
 viewBox="0.00 0.00 210.25 106.75" xmlns="http://www.w3.org/2000/svg" xmlns:xlink="http://www.w3.org/1999/xlink">
<g id="graph0" class="graph" transform="scale(1 1) rotate(0) translate(4 102.75)">
<title>Graphical Class Hierarchy</title>
<!-- Node0 -->
<g id="Node000000" class="node">
<title>Node0</title>
<g id="a_Node000000"><a xlink:href="classSettings.html" target="_top" xlink:title=" ">
<polygon fill="white" stroke="#666666" points="55.75,-59.75 0,-59.75 0,-39 55.75,-39 55.75,-59.75"/>
<text text-anchor="middle" x="27.88" y="-46.25" font-family="Helvetica,sans-Serif" font-size="10.00">Settings</text>
</a>
</g>
</g>
<!-- Node1 -->
<g id="Node000001" class="node">
<title>Node1</title>
<g id="a_Node000001"><a xlink:href="classApplicationSettings.html" target="_top" xlink:title=" ">
<polygon fill="white" stroke="#666666" points="202.25,-98.75 91.75,-98.75 91.75,-78 202.25,-78 202.25,-98.75"/>
<text text-anchor="middle" x="147" y="-85.25" font-family="Helvetica,sans-Serif" font-size="10.00">ApplicationSettings</text>
</a>
</g>
</g>
<!-- Node0&#45;&gt;Node1 -->
<g id="edge816_Node000000_Node000001" class="edge">
<title>Node0&#45;&gt;Node1</title>
<g id="a_edge816_Node000000_Node000001"><a xlink:title=" ">
<path fill="none" stroke="#63b8ff" d="M66.61,-61.94C81.75,-66.98 99.01,-72.73 113.57,-77.58"/>
<polygon fill="#63b8ff" stroke="#63b8ff" points="68.07,-58.74 57.48,-58.9 65.86,-65.38 68.07,-58.74"/>
</a>
</g>
</g>
<!-- Node2 -->
<g id="Node000002" class="node">
<title>Node2</title>
<g id="a_Node000002"><a xlink:href="classColorScheme.html" target="_top" xlink:title=" ">
<polygon fill="white" stroke="#666666" points="187.25,-59.75 106.75,-59.75 106.75,-39 187.25,-39 187.25,-59.75"/>
<text text-anchor="middle" x="147" y="-46.25" font-family="Helvetica,sans-Serif" font-size="10.00">ColorScheme</text>
</a>
</g>
</g>
<!-- Node0&#45;&gt;Node2 -->
<g id="edge817_Node000000_Node000002" class="edge">
<title>Node0&#45;&gt;Node2</title>
<g id="a_edge817_Node000000_Node000002"><a xlink:title=" ">
<path fill="none" stroke="#63b8ff" d="M67.54,-49.38C80.06,-49.38 93.97,-49.38 106.55,-49.38"/>
<polygon fill="#63b8ff" stroke="#63b8ff" points="67.55,-45.88 57.55,-49.38 67.55,-52.88 67.55,-45.88"/>
</a>
</g>
</g>
<!-- Node3 -->
<g id="Node000003" class="node">
<title>Node3</title>
<g id="a_Node000003"><a xlink:href="classProjectSettings.html" target="_top" xlink:title=" ">
<polygon fill="white" stroke="#666666" points="191.75,-20.75 102.25,-20.75 102.25,0 191.75,0 191.75,-20.75"/>
<text text-anchor="middle" x="147" y="-7.25" font-family="Helvetica,sans-Serif" font-size="10.00">ProjectSettings</text>
</a>
</g>
</g>
<!-- Node0&#45;&gt;Node3 -->
<g id="edge818_Node000000_Node000003" class="edge">
<title>Node0&#45;&gt;Node3</title>
<g id="a_edge818_Node000000_Node000003"><a xlink:title=" ">
<path fill="none" stroke="#63b8ff" d="M66.61,-36.81C81.75,-31.77 99.01,-26.02 113.57,-21.17"/>
<polygon fill="#63b8ff" stroke="#63b8ff" points="65.86,-33.37 57.48,-39.85 68.07,-40.01 65.86,-33.37"/>
</a>
</g>
</g>
</g>
</svg>
