<?xml version="1.0" encoding="UTF-8" standalone="no"?>
<!DOCTYPE svg PUBLIC "-//W3C//DTD SVG 1.1//EN"
 "http://www.w3.org/Graphics/SVG/1.1/DTD/svg11.dtd">
<!-- Generated by graphviz version 9.0.0 (0)
 -->
<!-- Title: Graphical Class Hierarchy Pages: 1 -->
<svg width="313pt" height="68pt"
 viewBox="0.00 0.00 313.00 67.75" xmlns="http://www.w3.org/2000/svg" xmlns:xlink="http://www.w3.org/1999/xlink">
<g id="graph0" class="graph" transform="scale(1 1) rotate(0) translate(4 63.75)">
<title>Graphical Class Hierarchy</title>
<!-- Node0 -->
<g id="Node000000" class="node">
<title>Node0</title>
<g id="a_Node000000"><a xlink:href="classGraphViewStyleImpl.html" target="_top" xlink:title=" ">
<polygon fill="white" stroke="#666666" points="115.75,-39.75 0,-39.75 0,-19 115.75,-19 115.75,-39.75"/>
<text text-anchor="middle" x="57.88" y="-26.25" font-family="Helvetica,sans-Serif" font-size="10.00">GraphViewStyleImpl</text>
</a>
</g>
</g>
<!-- Node1 -->
<g id="Node000001" class="node">
<title>Node1</title>
<g id="a_Node000001"><a xlink:href="structMockedGraphViewStyleImpl.html" target="_top" xlink:title=" ">
<polygon fill="white" stroke="#666666" points="305,-59.75 151.75,-59.75 151.75,-39 305,-39 305,-59.75"/>
<text text-anchor="middle" x="228.38" y="-46.25" font-family="Helvetica,sans-Serif" font-size="10.00">MockedGraphViewStyleImpl</text>
</a>
</g>
</g>
<!-- Node0&#45;&gt;Node1 -->
<g id="edge545_Node000000_Node000001" class="edge">
<title>Node0&#45;&gt;Node1</title>
<g id="a_edge545_Node000000_Node000001"><a xlink:title=" ">
<path fill="none" stroke="#63b8ff" d="M127.31,-37.5C135.2,-38.43 143.28,-39.39 151.27,-40.34"/>
<polygon fill="#63b8ff" stroke="#63b8ff" points="127.77,-34.03 117.42,-36.32 126.94,-40.98 127.77,-34.03"/>
</a>
</g>
</g>
<!-- Node2 -->
<g id="Node000002" class="node">
<title>Node2</title>
<g id="a_Node000002"><a xlink:href="classQtGraphViewStyleImpl.html" target="_top" xlink:title=" ">
<polygon fill="white" stroke="#666666" points="291.88,-20.75 164.88,-20.75 164.88,0 291.88,0 291.88,-20.75"/>
<text text-anchor="middle" x="228.38" y="-7.25" font-family="Helvetica,sans-Serif" font-size="10.00">QtGraphViewStyleImpl</text>
</a>
</g>
</g>
<!-- Node0&#45;&gt;Node2 -->
<g id="edge546_Node000000_Node000002" class="edge">
<title>Node0&#45;&gt;Node2</title>
<g id="a_edge546_Node000000_Node000002"><a xlink:title=" ">
<path fill="none" stroke="#63b8ff" d="M127.13,-21.68C139.52,-20.28 152.38,-18.83 164.6,-17.45"/>
<polygon fill="#63b8ff" stroke="#63b8ff" points="126.97,-18.17 117.43,-22.77 127.75,-25.13 126.97,-18.17"/>
</a>
</g>
</g>
</g>
</svg>
