<?xml version="1.0" encoding="us-ascii" standalone="no"?><svg xmlns="http://www.w3.org/2000/svg" xmlns:xlink="http://www.w3.org/1999/xlink" contentStyleType="text/css" height="170px" preserveAspectRatio="none" style="width:147px;height:170px;background:#282C34;" version="1.1" viewBox="0 0 147 170" width="147px" zoomAndPan="magnify"><defs/><g><rect fill="#282C34" height="170" style="stroke:none;stroke-width:1.0;" width="147" x="0" y="0"/><!--class Settings--><g id="elem_Settings"><rect fill="#424856" height="48" id="Settings" rx="2.5" ry="2.5" style="stroke:#ABB2BF;stroke-width:0.5;" width="87" x="30" y="7"/><ellipse cx="45" cy="23" fill="#ADD1B2" rx="11" ry="11" style="stroke:#181818;stroke-width:1.0;"/><path d="M44.4688,29.9219 Q42.7188,29.9219 41.5781,29.1875 Q40.4531,28.4375 39.8906,27.0938 Q39.3438,25.7344 39.3438,23.9375 Q39.3438,21.9063 40,20.4531 Q40.6563,19 41.9375,18.2188 Q43.2188,17.4375 45.0938,17.4375 Q45.9844,17.4375 46.6563,17.625 Q47.3281,17.7969 48.0156,18.1406 L47.2031,20.1563 Q46.5781,19.8438 46.0313,19.7188 Q45.5,19.5938 45.0156,19.5938 Q43.8438,19.5938 43.1406,20.125 Q42.4375,20.6563 42.1406,21.6094 Q41.8438,22.5625 41.8438,23.8281 Q41.8438,25.8438 42.5625,26.8125 Q43.2813,27.7656 44.875,27.7656 Q45.4688,27.7656 46.0938,27.6094 Q46.7188,27.4531 47.5469,27.0781 L47.5469,29.2969 Q46.8125,29.6094 46.0156,29.7656 Q45.2344,29.9219 44.4688,29.9219 Z " fill="#ABB2BF"/><text fill="#ABB2BF" font-family="Noto Sans" font-size="14" lengthAdjust="spacing" textLength="55" x="59" y="28.432">Settings</text><line style="stroke:#ABB2BF;stroke-width:0.5;" x1="31" x2="116" y1="39" y2="39"/><line style="stroke:#ABB2BF;stroke-width:0.5;" x1="31" x2="116" y1="47" y2="47"/></g><!--class ProjectSettings--><g id="elem_ProjectSettings"><rect fill="#424856" height="48" id="ProjectSettings" rx="2.5" ry="2.5" style="stroke:#ABB2BF;stroke-width:0.5;" width="133" x="7" y="115"/><ellipse cx="22" cy="131" fill="#ADD1B2" rx="11" ry="11" style="stroke:#181818;stroke-width:1.0;"/><path d="M21.4688,137.9219 Q19.7188,137.9219 18.5781,137.1875 Q17.4531,136.4375 16.8906,135.0938 Q16.3438,133.7344 16.3438,131.9375 Q16.3438,129.9063 17,128.4531 Q17.6563,127 18.9375,126.2188 Q20.2188,125.4375 22.0938,125.4375 Q22.9844,125.4375 23.6563,125.625 Q24.3281,125.7969 25.0156,126.1406 L24.2031,128.1563 Q23.5781,127.8438 23.0313,127.7188 Q22.5,127.5938 22.0156,127.5938 Q20.8438,127.5938 20.1406,128.125 Q19.4375,128.6563 19.1406,129.6094 Q18.8438,130.5625 18.8438,131.8281 Q18.8438,133.8438 19.5625,134.8125 Q20.2813,135.7656 21.875,135.7656 Q22.4688,135.7656 23.0938,135.6094 Q23.7188,135.4531 24.5469,135.0781 L24.5469,137.2969 Q23.8125,137.6094 23.0156,137.7656 Q22.2344,137.9219 21.4688,137.9219 Z " fill="#ABB2BF"/><text fill="#ABB2BF" font-family="Noto Sans" font-size="14" lengthAdjust="spacing" textLength="101" x="36" y="136.432">ProjectSettings</text><line style="stroke:#ABB2BF;stroke-width:0.5;" x1="8" x2="139" y1="147" y2="147"/><line style="stroke:#ABB2BF;stroke-width:0.5;" x1="8" x2="139" y1="155" y2="155"/></g><!--reverse link Settings to ProjectSettings--><g id="link_Settings_ProjectSettings"><path codeLine="3" d="M73.5,73.26 C73.5,90.94 73.5,97.13 73.5,114.79 " fill="none" id="Settings-backto-ProjectSettings" style="stroke:#61AFEF;stroke-width:1.0;"/><polygon fill="none" points="73.5,55.26,67.5,73.26,79.5,73.26,73.5,55.26" style="stroke:#61AFEF;stroke-width:1.0;"/></g><!--SRC=[DSZ13G8X40NG-rQ11GpZNer5c5W1ifC5WO70PxrOlCR4utkdg3xFJKm0shWmT_UoUqIOZpca-weGXVMrS7FeCP4VBd5LeStrH2qxnIoP4AG87wizsvL_iEtxot8N8Ee-pFLDP6wzFiNZdny0]--></g></svg>