<?xml version="1.0" encoding="UTF-8" standalone="no"?>
<!DOCTYPE svg PUBLIC "-//W3C//DTD SVG 1.1//EN"
 "http://www.w3.org/Graphics/SVG/1.1/DTD/svg11.dtd">
<!-- Generated by graphviz version 9.0.0 (0)
 -->
<!-- Title: /home/ahussein/Documents/archive/opensourcesourcetrail.github.io/.ignore/src/src/lib/data/indexer/interprocess/InterprocessIndexer.cpp Pages: 1 -->
<svg width="2331pt" height="433pt"
 viewBox="0.00 0.00 2331.09 433.00" xmlns="http://www.w3.org/2000/svg" xmlns:xlink="http://www.w3.org/1999/xlink">
<g id="graph0" class="graph" transform="scale(1 1) rotate(0) translate(4 429)">
<title>/home/ahussein/Documents/archive/opensourcesourcetrail.github.io/.ignore/src/src/lib/data/indexer/interprocess/InterprocessIndexer.cpp</title>
<!-- Node1 -->
<g id="Node000001" class="node">
<title>Node1</title>
<g id="a_Node000001"><a xlink:title=" ">
<polygon fill="#999999" stroke="#666666" points="2007.88,-425 1796.12,-425 1796.12,-366 2007.88,-366 2007.88,-425"/>
<text text-anchor="start" x="1804.12" y="-411.5" font-family="Helvetica,sans-Serif" font-size="10.00">/home/ahussein/Documents</text>
<text text-anchor="start" x="1804.12" y="-398.75" font-family="Helvetica,sans-Serif" font-size="10.00">/archive/opensourcesourcetrail.github.io</text>
<text text-anchor="start" x="1804.12" y="-386" font-family="Helvetica,sans-Serif" font-size="10.00">/.ignore/src/src/lib/data/indexer</text>
<text text-anchor="middle" x="1902" y="-373.25" font-family="Helvetica,sans-Serif" font-size="10.00">/interprocess/InterprocessIndexer.cpp</text>
</a>
</g>
</g>
<!-- Node2 -->
<g id="Node000002" class="node">
<title>Node2</title>
<g id="a_Node000002"><a xlink:href="InterprocessIndexer_8h.html" target="_top" xlink:title=" ">
<polygon fill="white" stroke="#666666" points="1369.88,-330 1248.12,-330 1248.12,-309.25 1369.88,-309.25 1369.88,-330"/>
<text text-anchor="middle" x="1309" y="-316.5" font-family="Helvetica,sans-Serif" font-size="10.00">InterprocessIndexer.h</text>
</a>
</g>
</g>
<!-- Node1&#45;&gt;Node2 -->
<g id="edge1_Node000001_Node000002" class="edge">
<title>Node1&#45;&gt;Node2</title>
<g id="a_edge1_Node000001_Node000002"><a xlink:title=" ">
<path fill="none" stroke="#63b8ff" d="M1795.64,-381.25C1675.97,-366.34 1484.83,-342.53 1381.31,-329.63"/>
<polygon fill="#63b8ff" stroke="#63b8ff" points="1381.9,-326.18 1371.54,-328.42 1381.03,-333.13 1381.9,-326.18"/>
</a>
</g>
</g>
<!-- Node27 -->
<g id="Node000027" class="node">
<title>Node27</title>
<g id="a_Node000027"><a xlink:title=" ">
<polygon fill="#e0e0e0" stroke="#999999" points="2121.12,-330 2042.88,-330 2042.88,-309.25 2121.12,-309.25 2121.12,-330"/>
<text text-anchor="middle" x="2082" y="-316.5" font-family="Helvetica,sans-Serif" font-size="10.00">fmt/format.h</text>
</a>
</g>
</g>
<!-- Node1&#45;&gt;Node27 -->
<g id="edge35_Node000001_Node000027" class="edge">
<title>Node1&#45;&gt;Node27</title>
<g id="a_edge35_Node000001_Node000027"><a xlink:title=" ">
<path fill="none" stroke="#63b8ff" d="M1972.62,-365.51C1998.46,-354.91 2026.53,-343.39 2047.76,-334.68"/>
<polygon fill="#63b8ff" stroke="#63b8ff" points="2048.87,-338.01 2056.79,-330.97 2046.21,-331.53 2048.87,-338.01"/>
</a>
</g>
</g>
<!-- Node28 -->
<g id="Node000028" class="node">
<title>Node28</title>
<g id="a_Node000028"><a xlink:href="IndexerCommand_8h.html" target="_top" xlink:title=" ">
<polygon fill="white" stroke="#666666" points="1580,-203.75 1468,-203.75 1468,-183 1580,-183 1580,-203.75"/>
<text text-anchor="middle" x="1524" y="-190.25" font-family="Helvetica,sans-Serif" font-size="10.00">IndexerCommand.h</text>
</a>
</g>
</g>
<!-- Node1&#45;&gt;Node28 -->
<g id="edge36_Node000001_Node000028" class="edge">
<title>Node1&#45;&gt;Node28</title>
<g id="a_edge36_Node000001_Node000028"><a xlink:title=" ">
<path fill="none" stroke="#63b8ff" d="M1847.44,-365.61C1765.88,-322.43 1615.06,-242.59 1552.43,-209.42"/>
<polygon fill="#63b8ff" stroke="#63b8ff" points="1554.28,-206.45 1543.81,-204.86 1551.01,-212.63 1554.28,-206.45"/>
</a>
</g>
</g>
<!-- Node30 -->
<g id="Node000030" class="node">
<title>Node30</title>
<g id="a_Node000030"><a xlink:href="IndexerComposite_8h.html" target="_top" xlink:title=" ">
<polygon fill="white" stroke="#666666" points="1834.12,-266.88 1719.88,-266.88 1719.88,-246.12 1834.12,-246.12 1834.12,-266.88"/>
<text text-anchor="middle" x="1777" y="-253.38" font-family="Helvetica,sans-Serif" font-size="10.00">IndexerComposite.h</text>
</a>
</g>
</g>
<!-- Node1&#45;&gt;Node30 -->
<g id="edge44_Node000001_Node000030" class="edge">
<title>Node1&#45;&gt;Node30</title>
<g id="a_edge44_Node000001_Node000030"><a xlink:title=" ">
<path fill="none" stroke="#63b8ff" d="M1875.8,-365.78C1851.01,-338.61 1814.56,-298.66 1793.56,-275.65"/>
<polygon fill="#63b8ff" stroke="#63b8ff" points="1796.18,-273.32 1786.85,-268.3 1791,-278.04 1796.18,-273.32"/>
</a>
</g>
</g>
<!-- Node33 -->
<g id="Node000033" class="node">
<title>Node33</title>
<g id="a_Node000033"><a xlink:href="LanguagePackageManager_8h.html" target="_top" xlink:title=" ">
<polygon fill="white" stroke="#666666" points="2307.12,-83.88 2150.88,-83.88 2150.88,-63.12 2307.12,-63.12 2307.12,-83.88"/>
<text text-anchor="middle" x="2229" y="-70.38" font-family="Helvetica,sans-Serif" font-size="10.00">LanguagePackageManager.h</text>
</a>
</g>
</g>
<!-- Node1&#45;&gt;Node33 -->
<g id="edge50_Node000001_Node000033" class="edge">
<title>Node1&#45;&gt;Node33</title>
<g id="a_edge50_Node000001_Node000033"><a xlink:title=" ">
<path fill="none" stroke="#63b8ff" d="M1946.34,-365.54C1977.99,-341.01 2015,-302.67 2015,-257.5 2015,-257.5 2015,-257.5 2015,-192.38 2015,-153.36 2125.5,-109.55 2187.69,-87.98"/>
<polygon fill="#63b8ff" stroke="#63b8ff" points="2188.58,-91.38 2196.91,-84.83 2186.31,-84.76 2188.58,-91.38"/>
</a>
</g>
</g>
<!-- Node34 -->
<g id="Node000034" class="node">
<title>Node34</title>
<g id="a_Node000034"><a xlink:href="ScopedFunctor_8h.html" target="_top" xlink:title=" ">
<polygon fill="white" stroke="#666666" points="2235.12,-330 2138.88,-330 2138.88,-309.25 2235.12,-309.25 2235.12,-330"/>
<text text-anchor="middle" x="2187" y="-316.5" font-family="Helvetica,sans-Serif" font-size="10.00">ScopedFunctor.h</text>
</a>
</g>
</g>
<!-- Node1&#45;&gt;Node34 -->
<g id="edge53_Node000001_Node000034" class="edge">
<title>Node1&#45;&gt;Node34</title>
<g id="a_edge53_Node000001_Node000034"><a xlink:title=" ">
<path fill="none" stroke="#63b8ff" d="M2008.12,-366.99C2052.68,-355.44 2102.32,-342.58 2137.98,-333.33"/>
<polygon fill="#63b8ff" stroke="#63b8ff" points="2138.78,-336.74 2147.58,-330.84 2137.02,-329.96 2138.78,-336.74"/>
</a>
</g>
</g>
<!-- Node36 -->
<g id="Node000036" class="node">
<title>Node36</title>
<g id="a_Node000036"><a xlink:href="logging_8h.html" target="_top" xlink:title=" ">
<polygon fill="white" stroke="#666666" points="1932.5,-266.88 1871.5,-266.88 1871.5,-246.12 1932.5,-246.12 1932.5,-266.88"/>
<text text-anchor="middle" x="1902" y="-253.38" font-family="Helvetica,sans-Serif" font-size="10.00">logging.h</text>
</a>
</g>
</g>
<!-- Node1&#45;&gt;Node36 -->
<g id="edge55_Node000001_Node000036" class="edge">
<title>Node1&#45;&gt;Node36</title>
<g id="a_edge55_Node000001_Node000036"><a xlink:title=" ">
<path fill="none" stroke="#63b8ff" d="M1902,-365.78C1902,-339.7 1902,-301.84 1902,-278.49"/>
<polygon fill="#63b8ff" stroke="#63b8ff" points="1905.5,-278.69 1902,-268.69 1898.5,-278.69 1905.5,-278.69"/>
</a>
</g>
</g>
<!-- Node3 -->
<g id="Node000003" class="node">
<title>Node3</title>
<g id="a_Node000003"><a xlink:href="InterprocessIndexerCommandManager_8h.html" target="_top" xlink:title=" ">
<polygon fill="white" stroke="#666666" points="1303.5,-273.25 1140.5,-273.25 1140.5,-239.75 1303.5,-239.75 1303.5,-273.25"/>
<text text-anchor="start" x="1148.5" y="-259.75" font-family="Helvetica,sans-Serif" font-size="10.00">InterprocessIndexerCommand</text>
<text text-anchor="middle" x="1222" y="-247" font-family="Helvetica,sans-Serif" font-size="10.00">Manager.h</text>
</a>
</g>
</g>
<!-- Node2&#45;&gt;Node3 -->
<g id="edge2_Node000002_Node000003" class="edge">
<title>Node2&#45;&gt;Node3</title>
<g id="a_edge2_Node000002_Node000003"><a xlink:title=" ">
<path fill="none" stroke="#63b8ff" d="M1295.02,-308.8C1284.09,-301.13 1268.46,-290.14 1254.46,-280.31"/>
<polygon fill="#63b8ff" stroke="#63b8ff" points="1256.54,-277.49 1246.35,-274.61 1252.52,-283.22 1256.54,-277.49"/>
</a>
</g>
</g>
<!-- Node25 -->
<g id="Node000025" class="node">
<title>Node25</title>
<g id="a_Node000025"><a xlink:href="InterprocessIndexingStatusManager_8h.html" target="_top" xlink:title=" ">
<polygon fill="white" stroke="#666666" points="1470.38,-273.25 1321.62,-273.25 1321.62,-239.75 1470.38,-239.75 1470.38,-273.25"/>
<text text-anchor="start" x="1329.62" y="-259.75" font-family="Helvetica,sans-Serif" font-size="10.00">InterprocessIndexingStatus</text>
<text text-anchor="middle" x="1396" y="-247" font-family="Helvetica,sans-Serif" font-size="10.00">Manager.h</text>
</a>
</g>
</g>
<!-- Node2&#45;&gt;Node25 -->
<g id="edge29_Node000002_Node000025" class="edge">
<title>Node2&#45;&gt;Node25</title>
<g id="a_edge29_Node000002_Node000025"><a xlink:title=" ">
<path fill="none" stroke="#63b8ff" d="M1322.98,-308.8C1333.91,-301.13 1349.54,-290.14 1363.54,-280.31"/>
<polygon fill="#63b8ff" stroke="#63b8ff" points="1365.48,-283.22 1371.65,-274.61 1361.46,-277.49 1365.48,-283.22"/>
</a>
</g>
</g>
<!-- Node26 -->
<g id="Node000026" class="node">
<title>Node26</title>
<g id="a_Node000026"><a xlink:href="InterprocessIntermediateStorageManager_8h.html" target="_top" xlink:title=" ">
<polygon fill="white" stroke="#666666" points="1076.5,-273.25 937.5,-273.25 937.5,-239.75 1076.5,-239.75 1076.5,-273.25"/>
<text text-anchor="start" x="945.5" y="-259.75" font-family="Helvetica,sans-Serif" font-size="10.00">InterprocessIntermediate</text>
<text text-anchor="middle" x="1007" y="-247" font-family="Helvetica,sans-Serif" font-size="10.00">StorageManager.h</text>
</a>
</g>
</g>
<!-- Node2&#45;&gt;Node26 -->
<g id="edge33_Node000002_Node000026" class="edge">
<title>Node2&#45;&gt;Node26</title>
<g id="a_edge33_Node000002_Node000026"><a xlink:title=" ">
<path fill="none" stroke="#63b8ff" d="M1260.48,-308.8C1213.99,-299.4 1142.98,-285.02 1087.93,-273.88"/>
<polygon fill="#63b8ff" stroke="#63b8ff" points="1088.77,-270.48 1078.27,-271.93 1087.38,-277.34 1088.77,-270.48"/>
</a>
</g>
</g>
<!-- Node4 -->
<g id="Node000004" class="node">
<title>Node4</title>
<g id="a_Node000004"><a xlink:href="BaseInterprocessDataManager_8h.html" target="_top" xlink:title=" ">
<polygon fill="white" stroke="#666666" points="1002.5,-203.75 827.5,-203.75 827.5,-183 1002.5,-183 1002.5,-203.75"/>
<text text-anchor="middle" x="915" y="-190.25" font-family="Helvetica,sans-Serif" font-size="10.00">BaseInterprocessDataManager.h</text>
</a>
</g>
</g>
<!-- Node3&#45;&gt;Node4 -->
<g id="edge3_Node000003_Node000004" class="edge">
<title>Node3&#45;&gt;Node4</title>
<g id="a_edge3_Node000003_Node000004"><a xlink:title=" ">
<path fill="none" stroke="#63b8ff" d="M1140.54,-239.28C1088.68,-228.96 1022.63,-215.81 975.44,-206.41"/>
<polygon fill="#63b8ff" stroke="#63b8ff" points="976.15,-202.98 965.65,-204.46 974.78,-209.85 976.15,-202.98"/>
</a>
</g>
</g>
<!-- Node17 -->
<g id="Node000017" class="node">
<title>Node17</title>
<g id="a_Node000017"><a xlink:href="SharedIndexerCommand_8h.html" target="_top" xlink:title=" ">
<polygon fill="white" stroke="#666666" points="1341.88,-203.75 1196.12,-203.75 1196.12,-183 1341.88,-183 1341.88,-203.75"/>
<text text-anchor="middle" x="1269" y="-190.25" font-family="Helvetica,sans-Serif" font-size="10.00">SharedIndexerCommand.h</text>
</a>
</g>
</g>
<!-- Node3&#45;&gt;Node17 -->
<g id="edge17_Node000003_Node000017" class="edge">
<title>Node3&#45;&gt;Node17</title>
<g id="a_edge17_Node000003_Node000017"><a xlink:title=" ">
<path fill="none" stroke="#63b8ff" d="M1234.35,-239.44C1240.53,-231.41 1248.04,-221.63 1254.49,-213.24"/>
<polygon fill="#63b8ff" stroke="#63b8ff" points="1257.19,-215.48 1260.51,-205.42 1251.64,-211.21 1257.19,-215.48"/>
</a>
</g>
</g>
<!-- Node5 -->
<g id="Node000005" class="node">
<title>Node5</title>
<g id="a_Node000005"><a xlink:title=" ">
<polygon fill="#e0e0e0" stroke="#999999" points="1499.88,-20.75 1456.12,-20.75 1456.12,0 1499.88,0 1499.88,-20.75"/>
<text text-anchor="middle" x="1478" y="-7.25" font-family="Helvetica,sans-Serif" font-size="10.00">string</text>
</a>
</g>
</g>
<!-- Node4&#45;&gt;Node5 -->
<g id="edge4_Node000004_Node000005" class="edge">
<title>Node4&#45;&gt;Node5</title>
<g id="a_edge4_Node000004_Node000005"><a xlink:title=" ">
<path fill="none" stroke="#63b8ff" d="M827.08,-191.15C595.84,-186.42 -4.61,-163.82 99,-56.75 147.26,-6.88 1238.34,-10.12 1444.54,-11.18"/>
<polygon fill="#63b8ff" stroke="#63b8ff" points="1444.27,-14.68 1454.28,-11.23 1444.3,-7.68 1444.27,-14.68"/>
</a>
</g>
</g>
<!-- Node6 -->
<g id="Node000006" class="node">
<title>Node6</title>
<g id="a_Node000006"><a xlink:href="SharedMemory_8h.html" target="_top" xlink:title=" ">
<polygon fill="white" stroke="#666666" points="925.88,-147 828.12,-147 828.12,-126.25 925.88,-126.25 925.88,-147"/>
<text text-anchor="middle" x="877" y="-133.5" font-family="Helvetica,sans-Serif" font-size="10.00">SharedMemory.h</text>
</a>
</g>
</g>
<!-- Node4&#45;&gt;Node6 -->
<g id="edge5_Node000004_Node000006" class="edge">
<title>Node4&#45;&gt;Node6</title>
<g id="a_edge5_Node000004_Node000006"><a xlink:title=" ">
<path fill="none" stroke="#63b8ff" d="M908.21,-182.59C903.23,-175.42 896.33,-165.48 890.28,-156.76"/>
<polygon fill="#63b8ff" stroke="#63b8ff" points="893.18,-154.79 884.6,-148.57 887.42,-158.78 893.18,-154.79"/>
</a>
</g>
</g>
<!-- Node15 -->
<g id="Node000015" class="node">
<title>Node15</title>
<g id="a_Node000015"><a xlink:href="types_8h.html" target="_top" xlink:title=" ">
<polygon fill="white" stroke="#666666" points="52,-147 0,-147 0,-126.25 52,-126.25 52,-147"/>
<text text-anchor="middle" x="26" y="-133.5" font-family="Helvetica,sans-Serif" font-size="10.00">types.h</text>
</a>
</g>
</g>
<!-- Node4&#45;&gt;Node15 -->
<g id="edge15_Node000004_Node000015" class="edge">
<title>Node4&#45;&gt;Node15</title>
<g id="a_edge15_Node000004_Node000015"><a xlink:title=" ">
<path fill="none" stroke="#63b8ff" d="M827.12,-192.78C672.44,-192.35 341.81,-186.38 66,-147 65.01,-146.86 64.01,-146.71 63,-146.54"/>
<polygon fill="#63b8ff" stroke="#63b8ff" points="64.09,-143.19 53.61,-144.73 62.77,-150.06 64.09,-143.19"/>
</a>
</g>
</g>
<!-- Node6&#45;&gt;Node5 -->
<g id="edge6_Node000006_Node000005" class="edge">
<title>Node6&#45;&gt;Node5</title>
<g id="a_edge6_Node000006_Node000005"><a xlink:title=" ">
<path fill="none" stroke="#63b8ff" d="M926.1,-133.99C1017.45,-130.28 1209.66,-119.21 1269,-90.25 1287.78,-81.08 1283.89,-67.18 1302,-56.75 1347.27,-30.67 1407.61,-19.34 1444.59,-14.6"/>
<polygon fill="#63b8ff" stroke="#63b8ff" points="1444.7,-18.11 1454.22,-13.46 1443.87,-11.16 1444.7,-18.11"/>
</a>
</g>
</g>
<!-- Node7 -->
<g id="Node000007" class="node">
<title>Node7</title>
<g id="a_Node000007"><a xlink:title=" ">
<polygon fill="#e0e0e0" stroke="#999999" points="232,-90.25 108,-90.25 108,-56.75 232,-56.75 232,-90.25"/>
<text text-anchor="start" x="116" y="-76.75" font-family="Helvetica,sans-Serif" font-size="10.00">boost/interprocess</text>
<text text-anchor="middle" x="170" y="-64" font-family="Helvetica,sans-Serif" font-size="10.00">/containers/deque.hpp</text>
</a>
</g>
</g>
<!-- Node6&#45;&gt;Node7 -->
<g id="edge7_Node000006_Node000007" class="edge">
<title>Node6&#45;&gt;Node7</title>
<g id="a_edge7_Node000006_Node000007"><a xlink:title=" ">
<path fill="none" stroke="#63b8ff" d="M827.66,-134.57C722.18,-131.79 466.83,-122.23 243.52,-90.48"/>
<polygon fill="#63b8ff" stroke="#63b8ff" points="244.14,-87.03 233.74,-89.07 243.14,-93.96 244.14,-87.03"/>
</a>
</g>
</g>
<!-- Node8 -->
<g id="Node000008" class="node">
<title>Node8</title>
<g id="a_Node000008"><a xlink:title=" ">
<polygon fill="#e0e0e0" stroke="#999999" points="365.88,-90.25 250.12,-90.25 250.12,-56.75 365.88,-56.75 365.88,-90.25"/>
<text text-anchor="start" x="258.12" y="-76.75" font-family="Helvetica,sans-Serif" font-size="10.00">boost/interprocess</text>
<text text-anchor="middle" x="308" y="-64" font-family="Helvetica,sans-Serif" font-size="10.00">/containers/map.hpp</text>
</a>
</g>
</g>
<!-- Node6&#45;&gt;Node8 -->
<g id="edge8_Node000006_Node000008" class="edge">
<title>Node6&#45;&gt;Node8</title>
<g id="a_edge8_Node000006_Node000008"><a xlink:title=" ">
<path fill="none" stroke="#63b8ff" d="M827.79,-133.55C739.35,-129.3 547.53,-117.75 377.39,-90.68"/>
<polygon fill="#63b8ff" stroke="#63b8ff" points="378.14,-87.25 367.7,-89.11 377.02,-94.16 378.14,-87.25"/>
</a>
</g>
</g>
<!-- Node9 -->
<g id="Node000009" class="node">
<title>Node9</title>
<g id="a_Node000009"><a xlink:title=" ">
<polygon fill="#e0e0e0" stroke="#999999" points="492.5,-90.25 383.5,-90.25 383.5,-56.75 492.5,-56.75 492.5,-90.25"/>
<text text-anchor="start" x="391.5" y="-76.75" font-family="Helvetica,sans-Serif" font-size="10.00">boost/interprocess</text>
<text text-anchor="middle" x="438" y="-64" font-family="Helvetica,sans-Serif" font-size="10.00">/containers/set.hpp</text>
</a>
</g>
</g>
<!-- Node6&#45;&gt;Node9 -->
<g id="edge9_Node000006_Node000009" class="edge">
<title>Node6&#45;&gt;Node9</title>
<g id="a_edge9_Node000006_Node000009"><a xlink:title=" ">
<path fill="none" stroke="#63b8ff" d="M827.73,-131.66C757.72,-125.58 625.28,-112.5 503.85,-90.65"/>
<polygon fill="#63b8ff" stroke="#63b8ff" points="504.84,-87.28 494.38,-88.92 503.58,-94.16 504.84,-87.28"/>
</a>
</g>
</g>
<!-- Node10 -->
<g id="Node000010" class="node">
<title>Node10</title>
<g id="a_Node000010"><a xlink:title=" ">
<polygon fill="#e0e0e0" stroke="#999999" points="631.88,-90.25 510.12,-90.25 510.12,-56.75 631.88,-56.75 631.88,-90.25"/>
<text text-anchor="start" x="518.12" y="-76.75" font-family="Helvetica,sans-Serif" font-size="10.00">boost/interprocess</text>
<text text-anchor="middle" x="571" y="-64" font-family="Helvetica,sans-Serif" font-size="10.00">/containers/string.hpp</text>
</a>
</g>
</g>
<!-- Node6&#45;&gt;Node10 -->
<g id="edge10_Node000006_Node000010" class="edge">
<title>Node6&#45;&gt;Node10</title>
<g id="a_edge10_Node000006_Node000010"><a xlink:title=" ">
<path fill="none" stroke="#63b8ff" d="M827.64,-126.6C782.26,-118.2 712.83,-105.08 643.23,-90.68"/>
<polygon fill="#63b8ff" stroke="#63b8ff" points="644.04,-87.27 633.54,-88.66 642.62,-94.13 644.04,-87.27"/>
</a>
</g>
</g>
<!-- Node11 -->
<g id="Node000011" class="node">
<title>Node11</title>
<g id="a_Node000011"><a xlink:title=" ">
<polygon fill="#e0e0e0" stroke="#999999" points="774.38,-90.25 649.62,-90.25 649.62,-56.75 774.38,-56.75 774.38,-90.25"/>
<text text-anchor="start" x="657.62" y="-76.75" font-family="Helvetica,sans-Serif" font-size="10.00">boost/interprocess</text>
<text text-anchor="middle" x="712" y="-64" font-family="Helvetica,sans-Serif" font-size="10.00">/containers/vector.hpp</text>
</a>
</g>
</g>
<!-- Node6&#45;&gt;Node11 -->
<g id="edge11_Node000006_Node000011" class="edge">
<title>Node6&#45;&gt;Node11</title>
<g id="a_edge11_Node000006_Node000011"><a xlink:title=" ">
<path fill="none" stroke="#63b8ff" d="M850.49,-125.8C827.87,-117.43 794.62,-105.11 766.37,-94.64"/>
<polygon fill="#63b8ff" stroke="#63b8ff" points="767.84,-91.45 757.24,-91.26 765.4,-98.02 767.84,-91.45"/>
</a>
</g>
</g>
<!-- Node12 -->
<g id="Node000012" class="node">
<title>Node12</title>
<g id="a_Node000012"><a xlink:title=" ">
<polygon fill="#e0e0e0" stroke="#999999" points="961.5,-90.25 792.5,-90.25 792.5,-56.75 961.5,-56.75 961.5,-90.25"/>
<text text-anchor="start" x="800.5" y="-76.75" font-family="Helvetica,sans-Serif" font-size="10.00">boost/interprocess</text>
<text text-anchor="middle" x="877" y="-64" font-family="Helvetica,sans-Serif" font-size="10.00">/managed_shared_memory.hpp</text>
</a>
</g>
</g>
<!-- Node6&#45;&gt;Node12 -->
<g id="edge12_Node000006_Node000012" class="edge">
<title>Node6&#45;&gt;Node12</title>
<g id="a_edge12_Node000006_Node000012"><a xlink:title=" ">
<path fill="none" stroke="#63b8ff" d="M877,-125.8C877,-119.38 877,-110.65 877,-102.2"/>
<polygon fill="#63b8ff" stroke="#63b8ff" points="880.5,-102.25 877,-92.25 873.5,-102.25 880.5,-102.25"/>
</a>
</g>
</g>
<!-- Node13 -->
<g id="Node000013" class="node">
<title>Node13</title>
<g id="a_Node000013"><a xlink:title=" ">
<polygon fill="#e0e0e0" stroke="#999999" points="1116,-90.25 980,-90.25 980,-56.75 1116,-56.75 1116,-90.25"/>
<text text-anchor="start" x="988" y="-76.75" font-family="Helvetica,sans-Serif" font-size="10.00">boost/interprocess</text>
<text text-anchor="middle" x="1048" y="-64" font-family="Helvetica,sans-Serif" font-size="10.00">/sync/named_mutex.hpp</text>
</a>
</g>
</g>
<!-- Node6&#45;&gt;Node13 -->
<g id="edge13_Node000006_Node000013" class="edge">
<title>Node6&#45;&gt;Node13</title>
<g id="a_edge13_Node000006_Node000013"><a xlink:title=" ">
<path fill="none" stroke="#63b8ff" d="M904.47,-125.8C928.02,-117.39 962.68,-105 992.04,-94.5"/>
<polygon fill="#63b8ff" stroke="#63b8ff" points="992.92,-97.91 1001.16,-91.24 990.56,-91.31 992.92,-97.91"/>
</a>
</g>
</g>
<!-- Node14 -->
<g id="Node000014" class="node">
<title>Node14</title>
<g id="a_Node000014"><a xlink:title=" ">
<polygon fill="#e0e0e0" stroke="#999999" points="1259.75,-90.25 1134.25,-90.25 1134.25,-56.75 1259.75,-56.75 1259.75,-90.25"/>
<text text-anchor="start" x="1142.25" y="-76.75" font-family="Helvetica,sans-Serif" font-size="10.00">boost/interprocess</text>
<text text-anchor="middle" x="1197" y="-64" font-family="Helvetica,sans-Serif" font-size="10.00">/sync/scoped_lock.hpp</text>
</a>
</g>
</g>
<!-- Node6&#45;&gt;Node14 -->
<g id="edge14_Node000006_Node000014" class="edge">
<title>Node6&#45;&gt;Node14</title>
<g id="a_edge14_Node000006_Node000014"><a xlink:title=" ">
<path fill="none" stroke="#63b8ff" d="M926.03,-127.17C973.78,-118.81 1048.69,-105.41 1122.87,-90.64"/>
<polygon fill="#63b8ff" stroke="#63b8ff" points="1123.21,-94.14 1132.33,-88.75 1121.83,-87.28 1123.21,-94.14"/>
</a>
</g>
</g>
<!-- Node16 -->
<g id="Node000016" class="node">
<title>Node16</title>
<g id="a_Node000016"><a xlink:title=" ">
<polygon fill="#e0e0e0" stroke="#999999" points="52,-83.88 0,-83.88 0,-63.12 52,-63.12 52,-83.88"/>
<text text-anchor="middle" x="26" y="-70.38" font-family="Helvetica,sans-Serif" font-size="10.00">cstddef</text>
</a>
</g>
</g>
<!-- Node15&#45;&gt;Node16 -->
<g id="edge16_Node000015_Node000016" class="edge">
<title>Node15&#45;&gt;Node16</title>
<g id="a_edge16_Node000015_Node000016"><a xlink:title=" ">
<path fill="none" stroke="#63b8ff" d="M26,-125.8C26,-117.65 26,-105.76 26,-95.48"/>
<polygon fill="#63b8ff" stroke="#63b8ff" points="29.5,-95.61 26,-85.61 22.5,-95.61 29.5,-95.61"/>
</a>
</g>
</g>
<!-- Node17&#45;&gt;Node6 -->
<g id="edge28_Node000017_Node000006" class="edge">
<title>Node17&#45;&gt;Node6</title>
<g id="a_edge28_Node000017_Node000006"><a xlink:title=" ">
<path fill="none" stroke="#63b8ff" d="M1198.47,-182.52C1124.03,-172.13 1007.94,-155.91 937.52,-146.08"/>
<polygon fill="#63b8ff" stroke="#63b8ff" points="938.09,-142.62 927.7,-144.71 937.12,-149.56 938.09,-142.62"/>
</a>
</g>
</g>
<!-- Node18 -->
<g id="Node000018" class="node">
<title>Node18</title>
<g id="a_Node000018"><a xlink:title=" ">
<polygon fill="#e0e0e0" stroke="#999999" points="1411.5,-147 1380.5,-147 1380.5,-126.25 1411.5,-126.25 1411.5,-147"/>
<text text-anchor="middle" x="1396" y="-133.5" font-family="Helvetica,sans-Serif" font-size="10.00">set</text>
</a>
</g>
</g>
<!-- Node17&#45;&gt;Node18 -->
<g id="edge18_Node000017_Node000018" class="edge">
<title>Node17&#45;&gt;Node18</title>
<g id="a_edge18_Node000017_Node000018"><a xlink:title=" ">
<path fill="none" stroke="#63b8ff" d="M1291.71,-182.59C1313.66,-173.12 1346.88,-158.8 1369.91,-148.87"/>
<polygon fill="#63b8ff" stroke="#63b8ff" points="1371.11,-152.16 1378.91,-144.99 1368.34,-145.74 1371.11,-152.16"/>
</a>
</g>
</g>
<!-- Node19 -->
<g id="Node000019" class="node">
<title>Node19</title>
<g id="a_Node000019"><a xlink:title=" ">
<polygon fill="#e0e0e0" stroke="#999999" points="1657.88,-83.88 1536.12,-83.88 1536.12,-63.12 1657.88,-63.12 1657.88,-83.88"/>
<text text-anchor="middle" x="1597" y="-70.38" font-family="Helvetica,sans-Serif" font-size="10.00">language_packages.h</text>
</a>
</g>
</g>
<!-- Node17&#45;&gt;Node19 -->
<g id="edge19_Node000017_Node000019" class="edge">
<title>Node17&#45;&gt;Node19</title>
<g id="a_edge19_Node000017_Node000019"><a xlink:title=" ">
<path fill="none" stroke="#63b8ff" d="M1283.64,-182.69C1310.72,-164.81 1366.31,-128.23 1371,-126.25 1420.21,-105.44 1479.16,-92.29 1524.51,-84.46"/>
<polygon fill="#63b8ff" stroke="#63b8ff" points="1524.95,-87.94 1534.24,-82.83 1523.8,-81.03 1524.95,-87.94"/>
</a>
</g>
</g>
<!-- Node20 -->
<g id="Node000020" class="node">
<title>Node20</title>
<g id="a_Node000020"><a xlink:href="FilePath_8h.html" target="_top" xlink:title=" ">
<polygon fill="white" stroke="#666666" points="1479.62,-83.88 1416.38,-83.88 1416.38,-63.12 1479.62,-63.12 1479.62,-83.88"/>
<text text-anchor="middle" x="1448" y="-70.38" font-family="Helvetica,sans-Serif" font-size="10.00">FilePath.h</text>
</a>
</g>
</g>
<!-- Node17&#45;&gt;Node20 -->
<g id="edge20_Node000017_Node000020" class="edge">
<title>Node17&#45;&gt;Node20</title>
<g id="a_edge20_Node000017_Node000020"><a xlink:title=" ">
<path fill="none" stroke="#63b8ff" d="M1277.12,-182.82C1289.27,-168.98 1313.38,-143.16 1338,-126.25 1351.21,-117.18 1387.45,-100.66 1414.75,-88.72"/>
<polygon fill="#63b8ff" stroke="#63b8ff" points="1415.91,-92.04 1423.69,-84.84 1413.12,-85.61 1415.91,-92.04"/>
</a>
</g>
</g>
<!-- Node23 -->
<g id="Node000023" class="node">
<title>Node23</title>
<g id="a_Node000023"><a xlink:href="FilePathFilter_8h.html" target="_top" xlink:title=" ">
<polygon fill="white" stroke="#666666" points="1285.62,-147 1198.38,-147 1198.38,-126.25 1285.62,-126.25 1285.62,-147"/>
<text text-anchor="middle" x="1242" y="-133.5" font-family="Helvetica,sans-Serif" font-size="10.00">FilePathFilter.h</text>
</a>
</g>
</g>
<!-- Node17&#45;&gt;Node23 -->
<g id="edge24_Node000017_Node000023" class="edge">
<title>Node17&#45;&gt;Node23</title>
<g id="a_edge24_Node000017_Node000023"><a xlink:title=" ">
<path fill="none" stroke="#63b8ff" d="M1264.17,-182.59C1260.76,-175.66 1256.05,-166.12 1251.86,-157.61"/>
<polygon fill="#63b8ff" stroke="#63b8ff" points="1255.02,-156.11 1247.45,-148.69 1248.74,-159.2 1255.02,-156.11"/>
</a>
</g>
</g>
<!-- Node20&#45;&gt;Node5 -->
<g id="edge22_Node000020_Node000005" class="edge">
<title>Node20&#45;&gt;Node5</title>
<g id="a_edge22_Node000020_Node000005"><a xlink:title=" ">
<path fill="none" stroke="#63b8ff" d="M1452.82,-62.68C1457,-54.16 1463.18,-41.58 1468.37,-31.01"/>
<polygon fill="#63b8ff" stroke="#63b8ff" points="1471.36,-32.85 1472.62,-22.33 1465.08,-29.76 1471.36,-32.85"/>
</a>
</g>
</g>
<!-- Node21 -->
<g id="Node000021" class="node">
<title>Node21</title>
<g id="a_Node000021"><a xlink:title=" ">
<polygon fill="#e0e0e0" stroke="#999999" points="1837.62,-20.75 1780.38,-20.75 1780.38,0 1837.62,0 1837.62,-20.75"/>
<text text-anchor="middle" x="1809" y="-7.25" font-family="Helvetica,sans-Serif" font-size="10.00">memory</text>
</a>
</g>
</g>
<!-- Node20&#45;&gt;Node21 -->
<g id="edge21_Node000020_Node000021" class="edge">
<title>Node20&#45;&gt;Node21</title>
<g id="a_edge21_Node000020_Node000021"><a xlink:title=" ">
<path fill="none" stroke="#63b8ff" d="M1479.85,-65.87C1494.23,-62.95 1511.45,-59.55 1527,-56.75 1612.93,-41.28 1714.06,-25.62 1768.83,-17.36"/>
<polygon fill="#63b8ff" stroke="#63b8ff" points="1769.25,-20.83 1778.62,-15.88 1768.21,-13.91 1769.25,-20.83"/>
</a>
</g>
</g>
<!-- Node22 -->
<g id="Node000022" class="node">
<title>Node22</title>
<g id="a_Node000022"><a xlink:title=" ">
<polygon fill="#e0e0e0" stroke="#999999" points="2195.38,-20.75 2148.62,-20.75 2148.62,0 2195.38,0 2195.38,-20.75"/>
<text text-anchor="middle" x="2172" y="-7.25" font-family="Helvetica,sans-Serif" font-size="10.00">vector</text>
</a>
</g>
</g>
<!-- Node20&#45;&gt;Node22 -->
<g id="edge23_Node000020_Node000022" class="edge">
<title>Node20&#45;&gt;Node22</title>
<g id="a_edge23_Node000020_Node000022"><a xlink:title=" ">
<path fill="none" stroke="#63b8ff" d="M1479.74,-65.17C1494.1,-62.12 1511.33,-58.81 1527,-56.75 1772.96,-24.43 1836.83,-41.89 2084,-20.75 2101.62,-19.24 2121.17,-17.2 2137.37,-15.4"/>
<polygon fill="#63b8ff" stroke="#63b8ff" points="2137.45,-18.91 2146.99,-14.32 2136.66,-11.96 2137.45,-18.91"/>
</a>
</g>
</g>
<!-- Node23&#45;&gt;Node5 -->
<g id="edge26_Node000023_Node000005" class="edge">
<title>Node23&#45;&gt;Node5</title>
<g id="a_edge26_Node000023_Node000005"><a xlink:title=" ">
<path fill="none" stroke="#63b8ff" d="M1254.92,-125.94C1267.09,-116.79 1285.84,-102.66 1302,-90.25 1321.22,-75.5 1323.69,-68.26 1345,-56.75 1377.12,-39.4 1417.12,-26.83 1444.83,-19.38"/>
<polygon fill="#63b8ff" stroke="#63b8ff" points="1445.63,-22.79 1454.42,-16.88 1443.86,-16.01 1445.63,-22.79"/>
</a>
</g>
</g>
<!-- Node23&#45;&gt;Node20 -->
<g id="edge27_Node000023_Node000020" class="edge">
<title>Node23&#45;&gt;Node20</title>
<g id="a_edge27_Node000023_Node000020"><a xlink:title=" ">
<path fill="none" stroke="#63b8ff" d="M1282,-125.8C1315.62,-117.26 1364.81,-104.12 1407,-90.25 1409.06,-89.57 1411.18,-88.85 1413.3,-88.1"/>
<polygon fill="#63b8ff" stroke="#63b8ff" points="1414.26,-91.48 1422.44,-84.75 1411.85,-84.91 1414.26,-91.48"/>
</a>
</g>
</g>
<!-- Node24 -->
<g id="Node000024" class="node">
<title>Node24</title>
<g id="a_Node000024"><a xlink:title=" ">
<polygon fill="#e0e0e0" stroke="#999999" points="1397.88,-83.88 1354.12,-83.88 1354.12,-63.12 1397.88,-63.12 1397.88,-83.88"/>
<text text-anchor="middle" x="1376" y="-70.38" font-family="Helvetica,sans-Serif" font-size="10.00">regex</text>
</a>
</g>
</g>
<!-- Node23&#45;&gt;Node24 -->
<g id="edge25_Node000023_Node000024" class="edge">
<title>Node23&#45;&gt;Node24</title>
<g id="a_edge25_Node000023_Node000024"><a xlink:title=" ">
<path fill="none" stroke="#63b8ff" d="M1263.53,-125.8C1285.31,-115.87 1319.24,-100.39 1344.13,-89.04"/>
<polygon fill="#63b8ff" stroke="#63b8ff" points="1345.5,-92.26 1353.15,-84.92 1342.6,-85.89 1345.5,-92.26"/>
</a>
</g>
</g>
<!-- Node25&#45;&gt;Node4 -->
<g id="edge31_Node000025_Node000004" class="edge">
<title>Node25&#45;&gt;Node4</title>
<g id="a_edge31_Node000025_Node000004"><a xlink:title=" ">
<path fill="none" stroke="#63b8ff" d="M1321.39,-241.22C1318.22,-240.71 1315.08,-240.21 1312,-239.75 1210.78,-224.5 1094.35,-211.75 1013.87,-203.69"/>
<polygon fill="#63b8ff" stroke="#63b8ff" points="1014.56,-200.24 1004.26,-202.74 1013.87,-207.21 1014.56,-200.24"/>
</a>
</g>
</g>
<!-- Node25&#45;&gt;Node18 -->
<g id="edge30_Node000025_Node000018" class="edge">
<title>Node25&#45;&gt;Node18</title>
<g id="a_edge30_Node000025_Node000018"><a xlink:title=" ">
<path fill="none" stroke="#63b8ff" d="M1396,-239.6C1396,-218.71 1396,-181.96 1396,-158.75"/>
<polygon fill="#63b8ff" stroke="#63b8ff" points="1399.5,-158.95 1396,-148.95 1392.5,-158.95 1399.5,-158.95"/>
</a>
</g>
</g>
<!-- Node25&#45;&gt;Node20 -->
<g id="edge32_Node000025_Node000020" class="edge">
<title>Node25&#45;&gt;Node20</title>
<g id="a_edge32_Node000025_Node000020"><a xlink:title=" ">
<path fill="none" stroke="#63b8ff" d="M1400.61,-239.44C1410.08,-206.48 1431.69,-131.26 1442.14,-94.91"/>
<polygon fill="#63b8ff" stroke="#63b8ff" points="1445.4,-96.22 1444.8,-85.65 1438.67,-94.29 1445.4,-96.22"/>
</a>
</g>
</g>
<!-- Node26&#45;&gt;Node4 -->
<g id="edge34_Node000026_Node000004" class="edge">
<title>Node26&#45;&gt;Node4</title>
<g id="a_edge34_Node000026_Node000004"><a xlink:title=" ">
<path fill="none" stroke="#63b8ff" d="M982.83,-239.44C969.42,-230.53 952.8,-219.49 939.36,-210.56"/>
<polygon fill="#63b8ff" stroke="#63b8ff" points="941.34,-207.67 931.07,-205.05 937.47,-213.5 941.34,-207.67"/>
</a>
</g>
</g>
<!-- Node28&#45;&gt;Node5 -->
<g id="edge38_Node000028_Node000005" class="edge">
<title>Node28&#45;&gt;Node5</title>
<g id="a_edge38_Node000028_Node000005"><a xlink:title=" ">
<path fill="none" stroke="#63b8ff" d="M1521.53,-182.64C1514.32,-154.29 1493.22,-71.26 1483.29,-32.18"/>
<polygon fill="#63b8ff" stroke="#63b8ff" points="1486.71,-31.45 1480.86,-22.62 1479.93,-33.18 1486.71,-31.45"/>
</a>
</g>
</g>
<!-- Node28&#45;&gt;Node18 -->
<g id="edge37_Node000028_Node000018" class="edge">
<title>Node28&#45;&gt;Node18</title>
<g id="a_edge37_Node000028_Node000018"><a xlink:title=" ">
<path fill="none" stroke="#63b8ff" d="M1501.12,-182.59C1478.99,-173.12 1445.5,-158.8 1422.29,-148.87"/>
<polygon fill="#63b8ff" stroke="#63b8ff" points="1423.78,-145.7 1413.21,-144.99 1421.03,-152.14 1423.78,-145.7"/>
</a>
</g>
</g>
<!-- Node28&#45;&gt;Node20 -->
<g id="edge39_Node000028_Node000020" class="edge">
<title>Node28&#45;&gt;Node20</title>
<g id="a_edge39_Node000028_Node000020"><a xlink:title=" ">
<path fill="none" stroke="#63b8ff" d="M1517.78,-182.73C1505.25,-163.3 1476.79,-119.15 1460.34,-93.64"/>
<polygon fill="#63b8ff" stroke="#63b8ff" points="1463.49,-92.06 1455.13,-85.55 1457.6,-95.85 1463.49,-92.06"/>
</a>
</g>
</g>
<!-- Node28&#45;&gt;Node23 -->
<g id="edge40_Node000028_Node000023" class="edge">
<title>Node28&#45;&gt;Node23</title>
<g id="a_edge40_Node000028_Node000023"><a xlink:title=" ">
<path fill="none" stroke="#63b8ff" d="M1473.26,-182.52C1423.58,-172.88 1348.1,-158.22 1297.01,-148.3"/>
<polygon fill="#63b8ff" stroke="#63b8ff" points="1297.82,-144.9 1287.34,-146.43 1296.49,-151.77 1297.82,-144.9"/>
</a>
</g>
</g>
<!-- Node29 -->
<g id="Node000029" class="node">
<title>Node29</title>
<g id="a_Node000029"><a xlink:href="IndexerCommandType_8h.html" target="_top" xlink:title=" ">
<polygon fill="white" stroke="#666666" points="1683.25,-147 1548.75,-147 1548.75,-126.25 1683.25,-126.25 1683.25,-147"/>
<text text-anchor="middle" x="1616" y="-133.5" font-family="Helvetica,sans-Serif" font-size="10.00">IndexerCommandType.h</text>
</a>
</g>
</g>
<!-- Node28&#45;&gt;Node29 -->
<g id="edge41_Node000028_Node000029" class="edge">
<title>Node28&#45;&gt;Node29</title>
<g id="a_edge41_Node000028_Node000029"><a xlink:title=" ">
<path fill="none" stroke="#63b8ff" d="M1540.45,-182.59C1554.18,-174.41 1574.02,-162.61 1589.92,-153.15"/>
<polygon fill="#63b8ff" stroke="#63b8ff" points="1591.59,-156.22 1598.39,-148.1 1588.01,-150.21 1591.59,-156.22"/>
</a>
</g>
</g>
<!-- Node29&#45;&gt;Node5 -->
<g id="edge43_Node000029_Node000005" class="edge">
<title>Node29&#45;&gt;Node5</title>
<g id="a_edge43_Node000029_Node000005"><a xlink:title=" ">
<path fill="none" stroke="#63b8ff" d="M1633.23,-125.78C1645.17,-117.89 1660.11,-105.6 1667,-90.25 1673.1,-76.67 1676.22,-68.44 1667,-56.75 1647.99,-32.64 1560.49,-19.88 1511.49,-14.51"/>
<polygon fill="#63b8ff" stroke="#63b8ff" points="1512.03,-11.05 1501.72,-13.49 1511.3,-18.01 1512.03,-11.05"/>
</a>
</g>
</g>
<!-- Node29&#45;&gt;Node19 -->
<g id="edge42_Node000029_Node000019" class="edge">
<title>Node29&#45;&gt;Node19</title>
<g id="a_edge42_Node000029_Node000019"><a xlink:title=" ">
<path fill="none" stroke="#63b8ff" d="M1612.95,-125.8C1610.36,-117.47 1606.55,-105.23 1603.31,-94.8"/>
<polygon fill="#63b8ff" stroke="#63b8ff" points="1606.74,-94.05 1600.43,-85.54 1600.06,-96.13 1606.74,-94.05"/>
</a>
</g>
</g>
<!-- Node30&#45;&gt;Node21 -->
<g id="edge46_Node000030_Node000021" class="edge">
<title>Node30&#45;&gt;Node21</title>
<g id="a_edge46_Node000030_Node000021"><a xlink:title=" ">
<path fill="none" stroke="#63b8ff" d="M1778.29,-245.63C1783.05,-209.36 1799.62,-82.96 1806.24,-32.46"/>
<polygon fill="#63b8ff" stroke="#63b8ff" points="1809.7,-32.97 1807.53,-22.6 1802.76,-32.06 1809.7,-32.97"/>
</a>
</g>
</g>
<!-- Node31 -->
<g id="Node000031" class="node">
<title>Node31</title>
<g id="a_Node000031"><a xlink:title=" ">
<polygon fill="#e0e0e0" stroke="#999999" points="1771.88,-203.75 1734.12,-203.75 1734.12,-183 1771.88,-183 1771.88,-203.75"/>
<text text-anchor="middle" x="1753" y="-190.25" font-family="Helvetica,sans-Serif" font-size="10.00">map</text>
</a>
</g>
</g>
<!-- Node30&#45;&gt;Node31 -->
<g id="edge45_Node000030_Node000031" class="edge">
<title>Node30&#45;&gt;Node31</title>
<g id="a_edge45_Node000030_Node000031"><a xlink:title=" ">
<path fill="none" stroke="#63b8ff" d="M1773.14,-245.68C1769.87,-237.34 1765.07,-225.11 1760.97,-214.68"/>
<polygon fill="#63b8ff" stroke="#63b8ff" points="1764.23,-213.41 1757.32,-205.38 1757.72,-215.97 1764.23,-213.41"/>
</a>
</g>
</g>
<!-- Node32 -->
<g id="Node000032" class="node">
<title>Node32</title>
<g id="a_Node000032"><a xlink:href="IndexerBase_8h.html" target="_top" xlink:title=" ">
<polygon fill="white" stroke="#666666" points="1715.88,-203.75 1630.12,-203.75 1630.12,-183 1715.88,-183 1715.88,-203.75"/>
<text text-anchor="middle" x="1673" y="-190.25" font-family="Helvetica,sans-Serif" font-size="10.00">IndexerBase.h</text>
</a>
</g>
</g>
<!-- Node30&#45;&gt;Node32 -->
<g id="edge47_Node000030_Node000032" class="edge">
<title>Node30&#45;&gt;Node32</title>
<g id="a_edge47_Node000030_Node000032"><a xlink:title=" ">
<path fill="none" stroke="#63b8ff" d="M1760.29,-245.68C1743.92,-236.05 1718.7,-221.23 1699.57,-209.99"/>
<polygon fill="#63b8ff" stroke="#63b8ff" points="1701.37,-206.99 1690.97,-204.94 1697.82,-213.02 1701.37,-206.99"/>
</a>
</g>
</g>
<!-- Node32&#45;&gt;Node21 -->
<g id="edge48_Node000032_Node000021" class="edge">
<title>Node32&#45;&gt;Node21</title>
<g id="a_edge48_Node000032_Node000021"><a xlink:title=" ">
<path fill="none" stroke="#63b8ff" d="M1680.31,-182.64C1701.99,-153.79 1766.18,-68.37 1794.87,-30.19"/>
<polygon fill="#63b8ff" stroke="#63b8ff" points="1797.53,-32.46 1800.74,-22.36 1791.94,-28.26 1797.53,-32.46"/>
</a>
</g>
</g>
<!-- Node32&#45;&gt;Node29 -->
<g id="edge49_Node000032_Node000029" class="edge">
<title>Node32&#45;&gt;Node29</title>
<g id="a_edge49_Node000032_Node000029"><a xlink:title=" ">
<path fill="none" stroke="#63b8ff" d="M1662.81,-182.59C1654.87,-174.96 1643.63,-164.17 1634.16,-155.07"/>
<polygon fill="#63b8ff" stroke="#63b8ff" points="1636.83,-152.78 1627.19,-148.38 1631.98,-157.83 1636.83,-152.78"/>
</a>
</g>
</g>
<!-- Node33&#45;&gt;Node21 -->
<g id="edge51_Node000033_Node000021" class="edge">
<title>Node33&#45;&gt;Node21</title>
<g id="a_edge51_Node000033_Node000021"><a xlink:title=" ">
<path fill="none" stroke="#63b8ff" d="M2177.09,-62.67C2165.55,-60.61 2153.38,-58.52 2142,-56.75 2019.77,-37.73 1988.38,-38.79 1866,-20.75 1860.58,-19.95 1854.88,-19.07 1849.26,-18.17"/>
<polygon fill="#63b8ff" stroke="#63b8ff" points="1849.89,-14.73 1839.46,-16.57 1848.77,-21.63 1849.89,-14.73"/>
</a>
</g>
</g>
<!-- Node33&#45;&gt;Node22 -->
<g id="edge52_Node000033_Node000022" class="edge">
<title>Node33&#45;&gt;Node22</title>
<g id="a_edge52_Node000033_Node000022"><a xlink:title=" ">
<path fill="none" stroke="#63b8ff" d="M2219.84,-62.68C2211.48,-53.72 2198.92,-40.24 2188.77,-29.35"/>
<polygon fill="#63b8ff" stroke="#63b8ff" points="2191.36,-27 2181.98,-22.08 2186.24,-31.78 2191.36,-27"/>
</a>
</g>
</g>
<!-- Node35 -->
<g id="Node000035" class="node">
<title>Node35</title>
<g id="a_Node000035"><a xlink:title=" ">
<polygon fill="#e0e0e0" stroke="#999999" points="2219.38,-266.88 2154.62,-266.88 2154.62,-246.12 2219.38,-246.12 2219.38,-266.88"/>
<text text-anchor="middle" x="2187" y="-253.38" font-family="Helvetica,sans-Serif" font-size="10.00">functional</text>
</a>
</g>
</g>
<!-- Node34&#45;&gt;Node35 -->
<g id="edge54_Node000034_Node000035" class="edge">
<title>Node34&#45;&gt;Node35</title>
<g id="a_edge54_Node000034_Node000035"><a xlink:title=" ">
<path fill="none" stroke="#63b8ff" d="M2187,-308.8C2187,-300.65 2187,-288.76 2187,-278.48"/>
<polygon fill="#63b8ff" stroke="#63b8ff" points="2190.5,-278.61 2187,-268.61 2183.5,-278.61 2190.5,-278.61"/>
</a>
</g>
</g>
<!-- Node37 -->
<g id="Node000037" class="node">
<title>Node37</title>
<g id="a_Node000037"><a xlink:title=" ">
<polygon fill="#e0e0e0" stroke="#999999" points="1883.88,-203.75 1828.12,-203.75 1828.12,-183 1883.88,-183 1883.88,-203.75"/>
<text text-anchor="middle" x="1856" y="-190.25" font-family="Helvetica,sans-Serif" font-size="10.00">sstream</text>
</a>
</g>
</g>
<!-- Node36&#45;&gt;Node37 -->
<g id="edge56_Node000036_Node000037" class="edge">
<title>Node36&#45;&gt;Node37</title>
<g id="a_edge56_Node000036_Node000037"><a xlink:title=" ">
<path fill="none" stroke="#63b8ff" d="M1894.61,-245.68C1888,-236.89 1878.13,-223.78 1870.02,-213.01"/>
<polygon fill="#63b8ff" stroke="#63b8ff" points="1872.94,-211.06 1864.13,-205.18 1867.35,-215.27 1872.94,-211.06"/>
</a>
</g>
</g>
<!-- Node38 -->
<g id="Node000038" class="node">
<title>Node38</title>
<g id="a_Node000038"><a xlink:href="LogManager_8h.html" target="_top" xlink:title=" ">
<polygon fill="white" stroke="#666666" points="1986.5,-203.75 1901.5,-203.75 1901.5,-183 1986.5,-183 1986.5,-203.75"/>
<text text-anchor="middle" x="1944" y="-190.25" font-family="Helvetica,sans-Serif" font-size="10.00">LogManager.h</text>
</a>
</g>
</g>
<!-- Node36&#45;&gt;Node38 -->
<g id="edge57_Node000036_Node000038" class="edge">
<title>Node36&#45;&gt;Node38</title>
<g id="a_edge57_Node000036_Node000038"><a xlink:title=" ">
<path fill="none" stroke="#63b8ff" d="M1908.75,-245.68C1914.72,-236.98 1923.61,-224.05 1930.97,-213.34"/>
<polygon fill="#63b8ff" stroke="#63b8ff" points="1933.77,-215.44 1936.55,-205.22 1928,-211.48 1933.77,-215.44"/>
</a>
</g>
</g>
<!-- Node38&#45;&gt;Node21 -->
<g id="edge58_Node000038_Node000021" class="edge">
<title>Node38&#45;&gt;Node21</title>
<g id="a_edge58_Node000038_Node000021"><a xlink:title=" ">
<path fill="none" stroke="#63b8ff" d="M1922.8,-182.58C1907.63,-174.72 1887.58,-162.44 1874,-147 1843.36,-112.16 1823.94,-60.34 1814.92,-31.9"/>
<polygon fill="#63b8ff" stroke="#63b8ff" points="1818.29,-30.94 1812.04,-22.39 1811.59,-32.97 1818.29,-30.94"/>
</a>
</g>
</g>
<!-- Node39 -->
<g id="Node000039" class="node">
<title>Node39</title>
<g id="a_Node000039"><a xlink:href="LogManagerImplementation_8h.html" target="_top" xlink:title=" ">
<polygon fill="white" stroke="#666666" points="2132.5,-83.88 1969.5,-83.88 1969.5,-63.12 2132.5,-63.12 2132.5,-83.88"/>
<text text-anchor="middle" x="2051" y="-70.38" font-family="Helvetica,sans-Serif" font-size="10.00">LogManagerImplementation.h</text>
</a>
</g>
</g>
<!-- Node38&#45;&gt;Node39 -->
<g id="edge59_Node000038_Node000039" class="edge">
<title>Node38&#45;&gt;Node39</title>
<g id="a_edge59_Node000038_Node000039"><a xlink:title=" ">
<path fill="none" stroke="#63b8ff" d="M1951.95,-182.81C1962.82,-169.82 1983.02,-145.95 2001,-126.25 2011.45,-114.81 2023.51,-102.3 2033.17,-92.45"/>
<polygon fill="#63b8ff" stroke="#63b8ff" points="2035.65,-94.92 2040.18,-85.34 2030.67,-90 2035.65,-94.92"/>
</a>
</g>
</g>
<!-- Node41 -->
<g id="Node000041" class="node">
<title>Node41</title>
<g id="a_Node000041"><a xlink:href="Logger_8h.html" target="_top" xlink:title=" ">
<polygon fill="white" stroke="#666666" points="1941,-147 1883,-147 1883,-126.25 1941,-126.25 1941,-147"/>
<text text-anchor="middle" x="1912" y="-133.5" font-family="Helvetica,sans-Serif" font-size="10.00">Logger.h</text>
</a>
</g>
</g>
<!-- Node38&#45;&gt;Node41 -->
<g id="edge63_Node000038_Node000041" class="edge">
<title>Node38&#45;&gt;Node41</title>
<g id="a_edge63_Node000038_Node000041"><a xlink:title=" ">
<path fill="none" stroke="#63b8ff" d="M1938.28,-182.59C1934.14,-175.5 1928.4,-165.69 1923.35,-157.04"/>
<polygon fill="#63b8ff" stroke="#63b8ff" points="1926.5,-155.5 1918.44,-148.64 1920.46,-159.03 1926.5,-155.5"/>
</a>
</g>
</g>
<!-- Node39&#45;&gt;Node21 -->
<g id="edge60_Node000039_Node000021" class="edge">
<title>Node39&#45;&gt;Node21</title>
<g id="a_edge60_Node000039_Node000021"><a xlink:title=" ">
<path fill="none" stroke="#63b8ff" d="M2012.12,-62.68C1967.38,-51.38 1894.28,-32.92 1849.05,-21.49"/>
<polygon fill="#63b8ff" stroke="#63b8ff" points="1849.93,-18.1 1839.38,-19.05 1848.22,-24.89 1849.93,-18.1"/>
</a>
</g>
</g>
<!-- Node39&#45;&gt;Node22 -->
<g id="edge62_Node000039_Node000022" class="edge">
<title>Node39&#45;&gt;Node22</title>
<g id="a_edge62_Node000039_Node000022"><a xlink:title=" ">
<path fill="none" stroke="#63b8ff" d="M2070.44,-62.68C2089.93,-52.83 2120.19,-37.55 2142.62,-26.22"/>
<polygon fill="#63b8ff" stroke="#63b8ff" points="2143.91,-29.49 2151.26,-21.85 2140.75,-23.24 2143.91,-29.49"/>
</a>
</g>
</g>
<!-- Node40 -->
<g id="Node000040" class="node">
<title>Node40</title>
<g id="a_Node000040"><a xlink:title=" ">
<polygon fill="#e0e0e0" stroke="#999999" points="2074.75,-20.75 2027.25,-20.75 2027.25,0 2074.75,0 2074.75,-20.75"/>
<text text-anchor="middle" x="2051" y="-7.25" font-family="Helvetica,sans-Serif" font-size="10.00">mutex</text>
</a>
</g>
</g>
<!-- Node39&#45;&gt;Node40 -->
<g id="edge61_Node000039_Node000040" class="edge">
<title>Node39&#45;&gt;Node40</title>
<g id="a_edge61_Node000039_Node000040"><a xlink:title=" ">
<path fill="none" stroke="#63b8ff" d="M2051,-62.68C2051,-54.52 2051,-42.63 2051,-32.35"/>
<polygon fill="#63b8ff" stroke="#63b8ff" points="2054.5,-32.48 2051,-22.48 2047.5,-32.48 2054.5,-32.48"/>
</a>
</g>
</g>
<!-- Node41&#45;&gt;Node5 -->
<g id="edge65_Node000041_Node000005" class="edge">
<title>Node41&#45;&gt;Node5</title>
<g id="a_edge65_Node000041_Node000005"><a xlink:title=" ">
<path fill="none" stroke="#63b8ff" d="M1886.66,-125.77C1844.9,-109.78 1758.78,-77.84 1684,-56.75 1623.85,-39.78 1552.35,-25.27 1511.37,-17.48"/>
<polygon fill="#63b8ff" stroke="#63b8ff" points="1512.12,-14.07 1501.65,-15.66 1510.83,-20.95 1512.12,-14.07"/>
</a>
</g>
</g>
<!-- Node41&#45;&gt;Node22 -->
<g id="edge64_Node000041_Node000022" class="edge">
<title>Node41&#45;&gt;Node22</title>
<g id="a_edge64_Node000041_Node000022"><a xlink:title=" ">
<path fill="none" stroke="#63b8ff" d="M1941.49,-134.54C2030.37,-130.95 2291.07,-118.14 2316,-90.25 2325.92,-79.15 2324.81,-68.76 2316,-56.75 2291.18,-22.91 2241.07,-13.65 2207.02,-11.46"/>
<polygon fill="#63b8ff" stroke="#63b8ff" points="2207.37,-7.97 2197.23,-11.02 2207.06,-14.96 2207.37,-7.97"/>
</a>
</g>
</g>
<!-- Node42 -->
<g id="Node000042" class="node">
<title>Node42</title>
<g id="a_Node000042"><a xlink:href="LogMessage_8h.html" target="_top" xlink:title=" ">
<polygon fill="white" stroke="#666666" points="1951.88,-83.88 1866.12,-83.88 1866.12,-63.12 1951.88,-63.12 1951.88,-83.88"/>
<text text-anchor="middle" x="1909" y="-70.38" font-family="Helvetica,sans-Serif" font-size="10.00">LogMessage.h</text>
</a>
</g>
</g>
<!-- Node41&#45;&gt;Node42 -->
<g id="edge66_Node000041_Node000042" class="edge">
<title>Node41&#45;&gt;Node42</title>
<g id="a_edge66_Node000041_Node000042"><a xlink:title=" ">
<path fill="none" stroke="#63b8ff" d="M1911.52,-125.8C1911.12,-117.65 1910.53,-105.76 1910.03,-95.48"/>
<polygon fill="#63b8ff" stroke="#63b8ff" points="1913.53,-95.42 1909.55,-85.61 1906.54,-95.77 1913.53,-95.42"/>
</a>
</g>
</g>
<!-- Node42&#45;&gt;Node5 -->
<g id="edge68_Node000042_Node000005" class="edge">
<title>Node42&#45;&gt;Node5</title>
<g id="a_edge68_Node000042_Node000005"><a xlink:title=" ">
<path fill="none" stroke="#63b8ff" d="M1865.7,-66.36C1779.58,-54.15 1588.48,-27.04 1511.3,-16.1"/>
<polygon fill="#63b8ff" stroke="#63b8ff" points="1511.81,-12.64 1501.42,-14.7 1510.83,-19.57 1511.81,-12.64"/>
</a>
</g>
</g>
<!-- Node43 -->
<g id="Node000043" class="node">
<title>Node43</title>
<g id="a_Node000043"><a xlink:title=" ">
<polygon fill="#e0e0e0" stroke="#999999" points="1923.5,-20.75 1874.5,-20.75 1874.5,0 1923.5,0 1923.5,-20.75"/>
<text text-anchor="middle" x="1899" y="-7.25" font-family="Helvetica,sans-Serif" font-size="10.00">chrono</text>
</a>
</g>
</g>
<!-- Node42&#45;&gt;Node43 -->
<g id="edge67_Node000042_Node000043" class="edge">
<title>Node42&#45;&gt;Node43</title>
<g id="a_edge67_Node000042_Node000043"><a xlink:title=" ">
<path fill="none" stroke="#63b8ff" d="M1907.39,-62.68C1906.04,-54.43 1904.07,-42.37 1902.38,-32.01"/>
<polygon fill="#63b8ff" stroke="#63b8ff" points="1905.88,-31.77 1900.81,-22.46 1898.97,-32.9 1905.88,-31.77"/>
</a>
</g>
</g>
<!-- Node44 -->
<g id="Node000044" class="node">
<title>Node44</title>
<g id="a_Node000044"><a xlink:title=" ">
<polygon fill="#e0e0e0" stroke="#999999" points="1988.75,-20.75 1941.25,-20.75 1941.25,0 1988.75,0 1988.75,-20.75"/>
<text text-anchor="middle" x="1965" y="-7.25" font-family="Helvetica,sans-Serif" font-size="10.00">thread</text>
</a>
</g>
</g>
<!-- Node42&#45;&gt;Node44 -->
<g id="edge69_Node000042_Node000044" class="edge">
<title>Node42&#45;&gt;Node44</title>
<g id="a_edge69_Node000042_Node000044"><a xlink:title=" ">
<path fill="none" stroke="#63b8ff" d="M1918,-62.68C1926.21,-53.72 1938.55,-40.24 1948.53,-29.35"/>
<polygon fill="#63b8ff" stroke="#63b8ff" points="1951.01,-31.82 1955.19,-22.09 1945.85,-27.1 1951.01,-31.82"/>
</a>
</g>
</g>
</g>
</svg>
