<?xml version="1.0" encoding="UTF-8" standalone="no"?>
<!DOCTYPE svg PUBLIC "-//W3C//DTD SVG 1.1//EN"
 "http://www.w3.org/Graphics/SVG/1.1/DTD/svg11.dtd">
<!-- Generated by graphviz version 7.1.0 (0)
 -->
<!-- Title: /home/ahussein/Documents/sourceCode/Sourcetrail/src/src/lib/data/indexer/interprocess/InterprocessIndexer.h Pages: 1 -->
<svg width="378pt" height="148pt"
 viewBox="0.00 0.00 378.00 148.00" xmlns="http://www.w3.org/2000/svg" xmlns:xlink="http://www.w3.org/1999/xlink">
<g id="graph0" class="graph" transform="scale(1 1) rotate(0) translate(4 144)">
<title>/home/ahussein/Documents/sourceCode/Sourcetrail/src/src/lib/data/indexer/interprocess/InterprocessIndexer.h</title>
<!-- Node1 -->
<g id="node1" class="node">
<title>Node1</title>
<g id="a_node1"><a xlink:title=" ">
<polygon fill="#999999" stroke="#666666" points="267,-140 79,-140 79,-88 267,-88 267,-140"/>
<text text-anchor="start" x="87" y="-128" font-family="Helvetica,sans-Serif" font-size="10.00">/home/ahussein/Documents</text>
<text text-anchor="start" x="87" y="-117" font-family="Helvetica,sans-Serif" font-size="10.00">/sourceCode/Sourcetrail</text>
<text text-anchor="start" x="87" y="-106" font-family="Helvetica,sans-Serif" font-size="10.00">/src/src/lib/data/indexer</text>
<text text-anchor="middle" x="173" y="-95" font-family="Helvetica,sans-Serif" font-size="10.00">/interprocess/InterprocessIndexer.h</text>
</a>
</g>
</g>
<!-- Node2 -->
<g id="node2" class="node">
<title>Node2</title>
<g id="a_node2"><a xlink:href="$TaskBuildIndex_8cpp.html" xlink:title=" ">
<polygon fill="white" stroke="#666666" points="152,-52 0,-52 0,0 152,0 152,-52"/>
<text text-anchor="start" x="8" y="-40" font-family="Helvetica,sans-Serif" font-size="10.00">/home/ahussein/Documents</text>
<text text-anchor="start" x="8" y="-29" font-family="Helvetica,sans-Serif" font-size="10.00">/sourceCode/Sourcetrail</text>
<text text-anchor="start" x="8" y="-18" font-family="Helvetica,sans-Serif" font-size="10.00">/src/src/lib/data/indexer</text>
<text text-anchor="middle" x="76" y="-7" font-family="Helvetica,sans-Serif" font-size="10.00">/TaskBuildIndex.cpp</text>
</a>
</g>
</g>
<!-- Node1&#45;&gt;Node2 -->
<g id="edge1" class="edge">
<title>Node1&#45;&gt;Node2</title>
<path fill="none" stroke="#63b8ff" d="M135.94,-80.15C125.59,-70.97 114.5,-61.13 104.71,-52.45"/>
<polygon fill="#63b8ff" stroke="#63b8ff" points="133.48,-82.64 143.29,-86.66 138.13,-77.41 133.48,-82.64"/>
</g>
<!-- Node3 -->
<g id="node3" class="node">
<title>Node3</title>
<g id="a_node3"><a xlink:href="$InterprocessIndexer_8cpp.html" xlink:title=" ">
<polygon fill="white" stroke="#666666" points="370,-52 170,-52 170,0 370,0 370,-52"/>
<text text-anchor="start" x="178" y="-40" font-family="Helvetica,sans-Serif" font-size="10.00">/home/ahussein/Documents</text>
<text text-anchor="start" x="178" y="-29" font-family="Helvetica,sans-Serif" font-size="10.00">/sourceCode/Sourcetrail</text>
<text text-anchor="start" x="178" y="-18" font-family="Helvetica,sans-Serif" font-size="10.00">/src/src/lib/data/indexer</text>
<text text-anchor="middle" x="270" y="-7" font-family="Helvetica,sans-Serif" font-size="10.00">/interprocess/InterprocessIndexer.cpp</text>
</a>
</g>
</g>
<!-- Node1&#45;&gt;Node3 -->
<g id="edge2" class="edge">
<title>Node1&#45;&gt;Node3</title>
<path fill="none" stroke="#63b8ff" d="M210.06,-80.15C220.41,-70.97 231.5,-61.13 241.29,-52.45"/>
<polygon fill="#63b8ff" stroke="#63b8ff" points="207.87,-77.41 202.71,-86.66 212.52,-82.64 207.87,-77.41"/>
</g>
</g>
</svg>
