<?xml version="1.0" encoding="UTF-8" standalone="no"?>
<!DOCTYPE svg PUBLIC "-//W3C//DTD SVG 1.1//EN"
 "http://www.w3.org/Graphics/SVG/1.1/DTD/svg11.dtd">
<!-- Generated by graphviz version 7.1.0 (0)
 -->
<!-- Title: /home/ahussein/Documents/sourceCode/Sourcetrail/src/src/lib/data/indexer/interprocess/InterprocessIndexingStatusManager.cpp Pages: 1 -->
<svg width="1658pt" height="368pt"
 viewBox="0.00 0.00 1657.50 368.00" xmlns="http://www.w3.org/2000/svg" xmlns:xlink="http://www.w3.org/1999/xlink">
<g id="graph0" class="graph" transform="scale(1 1) rotate(0) translate(4 364)">
<title>/home/ahussein/Documents/sourceCode/Sourcetrail/src/src/lib/data/indexer/interprocess/InterprocessIndexingStatusManager.cpp</title>
<!-- Node1 -->
<g id="node1" class="node">
<title>Node1</title>
<g id="a_node1"><a xlink:title=" ">
<polygon fill="#999999" stroke="#666666" points="1466,-360 1281,-360 1281,-297 1466,-297 1466,-360"/>
<text text-anchor="start" x="1289" y="-348" font-family="Helvetica,sans-Serif" font-size="10.00">/home/ahussein/Documents</text>
<text text-anchor="start" x="1289" y="-337" font-family="Helvetica,sans-Serif" font-size="10.00">/sourceCode/Sourcetrail</text>
<text text-anchor="start" x="1289" y="-326" font-family="Helvetica,sans-Serif" font-size="10.00">/src/src/lib/data/indexer</text>
<text text-anchor="start" x="1289" y="-315" font-family="Helvetica,sans-Serif" font-size="10.00">/interprocess/InterprocessIndexing</text>
<text text-anchor="middle" x="1373.5" y="-304" font-family="Helvetica,sans-Serif" font-size="10.00">StatusManager.cpp</text>
</a>
</g>
</g>
<!-- Node2 -->
<g id="node2" class="node">
<title>Node2</title>
<g id="a_node2"><a xlink:href="$InterprocessIndexingStatusManager_8h.html" xlink:title=" ">
<polygon fill="white" stroke="#666666" points="1165,-206 1016,-206 1016,-176 1165,-176 1165,-206"/>
<text text-anchor="start" x="1024" y="-194" font-family="Helvetica,sans-Serif" font-size="10.00">InterprocessIndexingStatus</text>
<text text-anchor="middle" x="1090.5" y="-183" font-family="Helvetica,sans-Serif" font-size="10.00">Manager.h</text>
</a>
</g>
</g>
<!-- Node1&#45;&gt;Node2 -->
<g id="edge1" class="edge">
<title>Node1&#45;&gt;Node2</title>
<path fill="none" stroke="#63b8ff" d="M1308.93,-296.58C1254.14,-270.35 1177.25,-233.54 1130.82,-211.31"/>
<polygon fill="#63b8ff" stroke="#63b8ff" points="1132.45,-208.2 1121.92,-207.04 1129.43,-214.52 1132.45,-208.2"/>
</g>
<!-- Node20 -->
<g id="node20" class="node">
<title>Node20</title>
<g id="a_node20"><a xlink:href="$logging_8h.html" xlink:title=" ">
<polygon fill="white" stroke="#666666" points="1548.5,-261 1486.5,-261 1486.5,-242 1548.5,-242 1548.5,-261"/>
<text text-anchor="middle" x="1517.5" y="-249" font-family="Helvetica,sans-Serif" font-size="10.00">logging.h</text>
</a>
</g>
</g>
<!-- Node1&#45;&gt;Node20 -->
<g id="edge21" class="edge">
<title>Node1&#45;&gt;Node20</title>
<path fill="none" stroke="#63b8ff" d="M1432.9,-296.56C1452.86,-286.17 1474.15,-275.08 1490.37,-266.63"/>
<polygon fill="#63b8ff" stroke="#63b8ff" points="1491.65,-269.91 1498.9,-262.19 1488.42,-263.7 1491.65,-269.91"/>
</g>
<!-- Node29 -->
<g id="node29" class="node">
<title>Node29</title>
<g id="a_node29"><a xlink:href="$utilityString_8h.html" xlink:title=" ">
<polygon fill="white" stroke="#666666" points="1415,-261 1332,-261 1332,-242 1415,-242 1415,-261"/>
<text text-anchor="middle" x="1373.5" y="-249" font-family="Helvetica,sans-Serif" font-size="10.00">utilityString.h</text>
</a>
</g>
</g>
<!-- Node1&#45;&gt;Node29 -->
<g id="edge36" class="edge">
<title>Node1&#45;&gt;Node29</title>
<path fill="none" stroke="#63b8ff" d="M1373.5,-296.56C1373.5,-288.49 1373.5,-280.01 1373.5,-272.66"/>
<polygon fill="#63b8ff" stroke="#63b8ff" points="1377,-272.84 1373.5,-262.84 1370,-272.84 1377,-272.84"/>
</g>
<!-- Node3 -->
<g id="node3" class="node">
<title>Node3</title>
<g id="a_node3"><a xlink:title=" ">
<polygon fill="#e0e0e0" stroke="#999999" points="1106.5,-140 1074.5,-140 1074.5,-121 1106.5,-121 1106.5,-140"/>
<text text-anchor="middle" x="1090.5" y="-128" font-family="Helvetica,sans-Serif" font-size="10.00">set</text>
</a>
</g>
</g>
<!-- Node2&#45;&gt;Node3 -->
<g id="edge2" class="edge">
<title>Node2&#45;&gt;Node3</title>
<path fill="none" stroke="#63b8ff" d="M1090.5,-175.54C1090.5,-168.34 1090.5,-159.53 1090.5,-151.68"/>
<polygon fill="#63b8ff" stroke="#63b8ff" points="1094,-151.69 1090.5,-141.69 1087,-151.69 1094,-151.69"/>
</g>
<!-- Node4 -->
<g id="node4" class="node">
<title>Node4</title>
<g id="a_node4"><a xlink:href="$BaseInterprocessDataManager_8h.html" xlink:title=" ">
<polygon fill="white" stroke="#666666" points="969.5,-140 793.5,-140 793.5,-121 969.5,-121 969.5,-140"/>
<text text-anchor="middle" x="881.5" y="-128" font-family="Helvetica,sans-Serif" font-size="10.00">BaseInterprocessDataManager.h</text>
</a>
</g>
</g>
<!-- Node2&#45;&gt;Node4 -->
<g id="edge3" class="edge">
<title>Node2&#45;&gt;Node4</title>
<path fill="none" stroke="#63b8ff" d="M1038.84,-175.54C1003.54,-165.66 957.33,-152.73 924.14,-143.43"/>
<polygon fill="#63b8ff" stroke="#63b8ff" points="925.44,-140.17 914.87,-140.84 923.56,-146.91 925.44,-140.17"/>
</g>
<!-- Node17 -->
<g id="node17" class="node">
<title>Node17</title>
<g id="a_node17"><a xlink:href="$FilePath_8h.html" xlink:title=" ">
<polygon fill="white" stroke="#666666" points="1285.5,-140 1221.5,-140 1221.5,-121 1285.5,-121 1285.5,-140"/>
<text text-anchor="middle" x="1253.5" y="-128" font-family="Helvetica,sans-Serif" font-size="10.00">FilePath.h</text>
</a>
</g>
</g>
<!-- Node2&#45;&gt;Node17 -->
<g id="edge17" class="edge">
<title>Node2&#45;&gt;Node17</title>
<path fill="none" stroke="#63b8ff" d="M1130.79,-175.54C1157.56,-165.93 1192.39,-153.43 1218.09,-144.21"/>
<polygon fill="#63b8ff" stroke="#63b8ff" points="1219.2,-147.53 1227.43,-140.86 1216.83,-140.94 1219.2,-147.53"/>
</g>
<!-- Node5 -->
<g id="node5" class="node">
<title>Node5</title>
<g id="a_node5"><a xlink:title=" ">
<polygon fill="#e0e0e0" stroke="#999999" points="1293.5,-24.5 1249.5,-24.5 1249.5,-5.5 1293.5,-5.5 1293.5,-24.5"/>
<text text-anchor="middle" x="1271.5" y="-12.5" font-family="Helvetica,sans-Serif" font-size="10.00">string</text>
</a>
</g>
</g>
<!-- Node4&#45;&gt;Node5 -->
<g id="edge4" class="edge">
<title>Node4&#45;&gt;Node5</title>
<path fill="none" stroke="#63b8ff" d="M921.43,-120.56C988.38,-105.1 1127.08,-71.05 1240.5,-30 1241.14,-29.77 1241.79,-29.53 1242.44,-29.28"/>
<polygon fill="#63b8ff" stroke="#63b8ff" points="1243.7,-32.55 1251.61,-25.49 1241.03,-26.08 1243.7,-32.55"/>
</g>
<!-- Node6 -->
<g id="node6" class="node">
<title>Node6</title>
<g id="a_node6"><a xlink:href="$SharedMemory_8h.html" xlink:title=" ">
<polygon fill="white" stroke="#666666" points="850.5,-85 752.5,-85 752.5,-66 850.5,-66 850.5,-85"/>
<text text-anchor="middle" x="801.5" y="-73" font-family="Helvetica,sans-Serif" font-size="10.00">SharedMemory.h</text>
</a>
</g>
</g>
<!-- Node4&#45;&gt;Node6 -->
<g id="edge5" class="edge">
<title>Node4&#45;&gt;Node6</title>
<path fill="none" stroke="#63b8ff" d="M867.93,-120.51C856.02,-112.62 838.45,-100.98 824.37,-91.65"/>
<polygon fill="#63b8ff" stroke="#63b8ff" points="826.4,-88.8 816.13,-86.19 822.54,-94.63 826.4,-88.8"/>
</g>
<!-- Node15 -->
<g id="node15" class="node">
<title>Node15</title>
<g id="a_node15"><a xlink:href="$types_8h.html" xlink:title=" ">
<polygon fill="white" stroke="#666666" points="424,-85 371,-85 371,-66 424,-66 424,-85"/>
<text text-anchor="middle" x="397.5" y="-73" font-family="Helvetica,sans-Serif" font-size="10.00">types.h</text>
</a>
</g>
</g>
<!-- Node4&#45;&gt;Node15 -->
<g id="edge15" class="edge">
<title>Node4&#45;&gt;Node15</title>
<path fill="none" stroke="#63b8ff" d="M799.4,-120.51C693.45,-108.91 513.49,-89.2 435.46,-80.66"/>
<polygon fill="#63b8ff" stroke="#63b8ff" points="436.1,-77.21 425.78,-79.6 435.34,-84.16 436.1,-77.21"/>
</g>
<!-- Node6&#45;&gt;Node5 -->
<g id="edge6" class="edge">
<title>Node6&#45;&gt;Node5</title>
<path fill="none" stroke="#63b8ff" d="M850.97,-71.5C949.74,-65.18 1168.09,-49.46 1240.5,-30 1241.67,-29.69 1242.85,-29.33 1244.03,-28.95"/>
<polygon fill="#63b8ff" stroke="#63b8ff" points="1245.03,-32.31 1253.08,-25.42 1242.49,-25.79 1245.03,-32.31"/>
</g>
<!-- Node7 -->
<g id="node7" class="node">
<title>Node7</title>
<g id="a_node7"><a xlink:title=" ">
<polygon fill="#e0e0e0" stroke="#999999" points="1097,-30 972,-30 972,0 1097,0 1097,-30"/>
<text text-anchor="start" x="980" y="-18" font-family="Helvetica,sans-Serif" font-size="10.00">boost/interprocess</text>
<text text-anchor="middle" x="1034.5" y="-7" font-family="Helvetica,sans-Serif" font-size="10.00">/containers/deque.hpp</text>
</a>
</g>
</g>
<!-- Node6&#45;&gt;Node7 -->
<g id="edge7" class="edge">
<title>Node6&#45;&gt;Node7</title>
<path fill="none" stroke="#63b8ff" d="M837.14,-65.55C871.31,-56.97 923.8,-43.79 966.05,-33.18"/>
<polygon fill="#63b8ff" stroke="#63b8ff" points="966.8,-36.61 975.65,-30.78 965.1,-29.82 966.8,-36.61"/>
</g>
<!-- Node8 -->
<g id="node8" class="node">
<title>Node8</title>
<g id="a_node8"><a xlink:title=" ">
<polygon fill="#e0e0e0" stroke="#999999" points="1231.5,-30 1115.5,-30 1115.5,0 1231.5,0 1231.5,-30"/>
<text text-anchor="start" x="1123.5" y="-18" font-family="Helvetica,sans-Serif" font-size="10.00">boost/interprocess</text>
<text text-anchor="middle" x="1173.5" y="-7" font-family="Helvetica,sans-Serif" font-size="10.00">/containers/map.hpp</text>
</a>
</g>
</g>
<!-- Node6&#45;&gt;Node8 -->
<g id="edge8" class="edge">
<title>Node6&#45;&gt;Node8</title>
<path fill="none" stroke="#63b8ff" d="M850.78,-68.25C908.9,-60.68 1008.69,-47.02 1103.8,-30.41"/>
<polygon fill="#63b8ff" stroke="#63b8ff" points="1104.34,-33.87 1113.58,-28.69 1103.13,-26.98 1104.34,-33.87"/>
</g>
<!-- Node9 -->
<g id="node9" class="node">
<title>Node9</title>
<g id="a_node9"><a xlink:title=" ">
<polygon fill="#e0e0e0" stroke="#999999" points="181.5,-30 71.5,-30 71.5,0 181.5,0 181.5,-30"/>
<text text-anchor="start" x="79.5" y="-18" font-family="Helvetica,sans-Serif" font-size="10.00">boost/interprocess</text>
<text text-anchor="middle" x="126.5" y="-7" font-family="Helvetica,sans-Serif" font-size="10.00">/containers/set.hpp</text>
</a>
</g>
</g>
<!-- Node6&#45;&gt;Node9 -->
<g id="edge9" class="edge">
<title>Node6&#45;&gt;Node9</title>
<path fill="none" stroke="#63b8ff" d="M752.14,-73.29C649.68,-70.27 406.36,-60.42 193.01,-30.22"/>
<polygon fill="#63b8ff" stroke="#63b8ff" points="193.81,-26.8 183.41,-28.84 192.81,-33.73 193.81,-26.8"/>
</g>
<!-- Node10 -->
<g id="node10" class="node">
<title>Node10</title>
<g id="a_node10"><a xlink:title=" ">
<polygon fill="#e0e0e0" stroke="#999999" points="321.5,-30 199.5,-30 199.5,0 321.5,0 321.5,-30"/>
<text text-anchor="start" x="207.5" y="-18" font-family="Helvetica,sans-Serif" font-size="10.00">boost/interprocess</text>
<text text-anchor="middle" x="260.5" y="-7" font-family="Helvetica,sans-Serif" font-size="10.00">/containers/string.hpp</text>
</a>
</g>
</g>
<!-- Node6&#45;&gt;Node10 -->
<g id="edge10" class="edge">
<title>Node6&#45;&gt;Node10</title>
<path fill="none" stroke="#63b8ff" d="M752.25,-71.47C668.39,-65.95 492.32,-52.83 332.61,-30.04"/>
<polygon fill="#63b8ff" stroke="#63b8ff" points="333.52,-26.64 323.12,-28.67 332.52,-33.57 333.52,-26.64"/>
</g>
<!-- Node11 -->
<g id="node11" class="node">
<title>Node11</title>
<g id="a_node11"><a xlink:title=" ">
<polygon fill="#e0e0e0" stroke="#999999" points="465,-30 340,-30 340,0 465,0 465,-30"/>
<text text-anchor="start" x="348" y="-18" font-family="Helvetica,sans-Serif" font-size="10.00">boost/interprocess</text>
<text text-anchor="middle" x="402.5" y="-7" font-family="Helvetica,sans-Serif" font-size="10.00">/containers/vector.hpp</text>
</a>
</g>
</g>
<!-- Node6&#45;&gt;Node11 -->
<g id="edge11" class="edge">
<title>Node6&#45;&gt;Node11</title>
<path fill="none" stroke="#63b8ff" d="M752.06,-68.66C690.17,-61.15 580.62,-47.22 476.63,-30.29"/>
<polygon fill="#63b8ff" stroke="#63b8ff" points="477.22,-26.84 466.78,-28.67 476.09,-33.75 477.22,-26.84"/>
</g>
<!-- Node12 -->
<g id="node12" class="node">
<title>Node12</title>
<g id="a_node12"><a xlink:title=" ">
<polygon fill="#e0e0e0" stroke="#999999" points="653.5,-30 483.5,-30 483.5,0 653.5,0 653.5,-30"/>
<text text-anchor="start" x="491.5" y="-18" font-family="Helvetica,sans-Serif" font-size="10.00">boost/interprocess</text>
<text text-anchor="middle" x="568.5" y="-7" font-family="Helvetica,sans-Serif" font-size="10.00">/managed_shared_memory.hpp</text>
</a>
</g>
</g>
<!-- Node6&#45;&gt;Node12 -->
<g id="edge12" class="edge">
<title>Node6&#45;&gt;Node12</title>
<path fill="none" stroke="#63b8ff" d="M765.86,-65.55C731.69,-56.97 679.2,-43.79 636.95,-33.18"/>
<polygon fill="#63b8ff" stroke="#63b8ff" points="637.9,-29.82 627.35,-30.78 636.2,-36.61 637.9,-29.82"/>
</g>
<!-- Node13 -->
<g id="node13" class="node">
<title>Node13</title>
<g id="a_node13"><a xlink:title=" ">
<polygon fill="#e0e0e0" stroke="#999999" points="809,-30 672,-30 672,0 809,0 809,-30"/>
<text text-anchor="start" x="680" y="-18" font-family="Helvetica,sans-Serif" font-size="10.00">boost/interprocess</text>
<text text-anchor="middle" x="740.5" y="-7" font-family="Helvetica,sans-Serif" font-size="10.00">/sync/named_mutex.hpp</text>
</a>
</g>
</g>
<!-- Node6&#45;&gt;Node13 -->
<g id="edge13" class="edge">
<title>Node6&#45;&gt;Node13</title>
<path fill="none" stroke="#63b8ff" d="M792.24,-65.62C784.71,-58.4 773.76,-47.89 763.86,-38.41"/>
<polygon fill="#63b8ff" stroke="#63b8ff" points="766.29,-35.88 756.65,-31.49 761.44,-40.93 766.29,-35.88"/>
</g>
<!-- Node14 -->
<g id="node14" class="node">
<title>Node14</title>
<g id="a_node14"><a xlink:title=" ">
<polygon fill="#e0e0e0" stroke="#999999" points="953.5,-30 827.5,-30 827.5,0 953.5,0 953.5,-30"/>
<text text-anchor="start" x="835.5" y="-18" font-family="Helvetica,sans-Serif" font-size="10.00">boost/interprocess</text>
<text text-anchor="middle" x="890.5" y="-7" font-family="Helvetica,sans-Serif" font-size="10.00">/sync/scoped_lock.hpp</text>
</a>
</g>
</g>
<!-- Node6&#45;&gt;Node14 -->
<g id="edge14" class="edge">
<title>Node6&#45;&gt;Node14</title>
<path fill="none" stroke="#63b8ff" d="M815.02,-65.62C826.67,-57.96 843.94,-46.61 859.02,-36.69"/>
<polygon fill="#63b8ff" stroke="#63b8ff" points="860.83,-39.69 867.27,-31.27 856.99,-33.84 860.83,-39.69"/>
</g>
<!-- Node16 -->
<g id="node16" class="node">
<title>Node16</title>
<g id="a_node16"><a xlink:title=" ">
<polygon fill="#e0e0e0" stroke="#999999" points="53,-24.5 0,-24.5 0,-5.5 53,-5.5 53,-24.5"/>
<text text-anchor="middle" x="26.5" y="-12.5" font-family="Helvetica,sans-Serif" font-size="10.00">cstddef</text>
</a>
</g>
</g>
<!-- Node15&#45;&gt;Node16 -->
<g id="edge16" class="edge">
<title>Node15&#45;&gt;Node16</title>
<path fill="none" stroke="#63b8ff" d="M370.6,-73.11C313.18,-69.66 174.73,-58.83 62.5,-30 60.88,-29.58 59.23,-29.11 57.57,-28.61"/>
<polygon fill="#63b8ff" stroke="#63b8ff" points="58.81,-25.33 48.21,-25.36 56.51,-31.94 58.81,-25.33"/>
</g>
<!-- Node17&#45;&gt;Node5 -->
<g id="edge19" class="edge">
<title>Node17&#45;&gt;Node5</title>
<path fill="none" stroke="#63b8ff" d="M1254.91,-120.59C1257.78,-102.53 1264.34,-61.17 1268.29,-36.21"/>
<polygon fill="#63b8ff" stroke="#63b8ff" points="1271.75,-36.78 1269.86,-26.36 1264.83,-35.69 1271.75,-36.78"/>
</g>
<!-- Node18 -->
<g id="node18" class="node">
<title>Node18</title>
<g id="a_node18"><a xlink:title=" ">
<polygon fill="#e0e0e0" stroke="#999999" points="1509.5,-85 1451.5,-85 1451.5,-66 1509.5,-66 1509.5,-85"/>
<text text-anchor="middle" x="1480.5" y="-73" font-family="Helvetica,sans-Serif" font-size="10.00">memory</text>
</a>
</g>
</g>
<!-- Node17&#45;&gt;Node18 -->
<g id="edge18" class="edge">
<title>Node17&#45;&gt;Node18</title>
<path fill="none" stroke="#63b8ff" d="M1285.54,-122.02C1326.04,-112.56 1395.79,-96.28 1439.95,-85.97"/>
<polygon fill="#63b8ff" stroke="#63b8ff" points="1440.73,-89.38 1449.67,-83.7 1439.13,-82.56 1440.73,-89.38"/>
</g>
<!-- Node19 -->
<g id="node19" class="node">
<title>Node19</title>
<g id="a_node19"><a xlink:title=" ">
<polygon fill="#e0e0e0" stroke="#999999" points="1329,-85 1282,-85 1282,-66 1329,-66 1329,-85"/>
<text text-anchor="middle" x="1305.5" y="-73" font-family="Helvetica,sans-Serif" font-size="10.00">vector</text>
</a>
</g>
</g>
<!-- Node17&#45;&gt;Node19 -->
<g id="edge20" class="edge">
<title>Node17&#45;&gt;Node19</title>
<path fill="none" stroke="#63b8ff" d="M1262.09,-120.75C1269.34,-113.35 1279.95,-102.54 1288.87,-93.45"/>
<polygon fill="#63b8ff" stroke="#63b8ff" points="1291.16,-96.11 1295.67,-86.52 1286.16,-91.21 1291.16,-96.11"/>
</g>
<!-- Node21 -->
<g id="node21" class="node">
<title>Node21</title>
<g id="a_node21"><a xlink:title=" ">
<polygon fill="#e0e0e0" stroke="#999999" points="1545.5,-200.5 1489.5,-200.5 1489.5,-181.5 1545.5,-181.5 1545.5,-200.5"/>
<text text-anchor="middle" x="1517.5" y="-188.5" font-family="Helvetica,sans-Serif" font-size="10.00">sstream</text>
</a>
</g>
</g>
<!-- Node20&#45;&gt;Node21 -->
<g id="edge22" class="edge">
<title>Node20&#45;&gt;Node21</title>
<path fill="none" stroke="#63b8ff" d="M1517.5,-241.87C1517.5,-234 1517.5,-222.1 1517.5,-211.89"/>
<polygon fill="#63b8ff" stroke="#63b8ff" points="1521,-212.18 1517.5,-202.18 1514,-212.18 1521,-212.18"/>
</g>
<!-- Node22 -->
<g id="node22" class="node">
<title>Node22</title>
<g id="a_node22"><a xlink:href="$LogManager_8h.html" xlink:title=" ">
<polygon fill="white" stroke="#666666" points="1649.5,-200.5 1563.5,-200.5 1563.5,-181.5 1649.5,-181.5 1649.5,-200.5"/>
<text text-anchor="middle" x="1606.5" y="-188.5" font-family="Helvetica,sans-Serif" font-size="10.00">LogManager.h</text>
</a>
</g>
</g>
<!-- Node20&#45;&gt;Node22 -->
<g id="edge23" class="edge">
<title>Node20&#45;&gt;Node22</title>
<path fill="none" stroke="#63b8ff" d="M1531.02,-241.62C1544.87,-232.51 1566.68,-218.18 1583.3,-207.25"/>
<polygon fill="#63b8ff" stroke="#63b8ff" points="1585.16,-210.22 1591.59,-201.8 1581.31,-204.37 1585.16,-210.22"/>
</g>
<!-- Node22&#45;&gt;Node18 -->
<g id="edge24" class="edge">
<title>Node22&#45;&gt;Node18</title>
<path fill="none" stroke="#63b8ff" d="M1608.6,-181.35C1611.49,-167.18 1614.94,-138.85 1601.5,-121 1591.46,-107.66 1552.03,-94.76 1520.88,-86.31"/>
<polygon fill="#63b8ff" stroke="#63b8ff" points="1521.87,-82.95 1511.31,-83.79 1520.09,-89.72 1521.87,-82.95"/>
</g>
<!-- Node23 -->
<g id="node23" class="node">
<title>Node23</title>
<g id="a_node23"><a xlink:href="$LogManagerImplementation_8h.html" xlink:title=" ">
<polygon fill="white" stroke="#666666" points="1592.5,-140 1428.5,-140 1428.5,-121 1592.5,-121 1592.5,-140"/>
<text text-anchor="middle" x="1510.5" y="-128" font-family="Helvetica,sans-Serif" font-size="10.00">LogManagerImplementation.h</text>
</a>
</g>
</g>
<!-- Node22&#45;&gt;Node23 -->
<g id="edge25" class="edge">
<title>Node22&#45;&gt;Node23</title>
<path fill="none" stroke="#63b8ff" d="M1591.92,-181.12C1576.84,-171.92 1553.01,-157.41 1535.02,-146.44"/>
<polygon fill="#63b8ff" stroke="#63b8ff" points="1536.87,-143.47 1526.51,-141.26 1533.23,-149.45 1536.87,-143.47"/>
</g>
<!-- Node25 -->
<g id="node25" class="node">
<title>Node25</title>
<g id="a_node25"><a xlink:href="$Logger_8h.html" xlink:title=" ">
<polygon fill="white" stroke="#666666" points="1410,-140 1351,-140 1351,-121 1410,-121 1410,-140"/>
<text text-anchor="middle" x="1380.5" y="-128" font-family="Helvetica,sans-Serif" font-size="10.00">Logger.h</text>
</a>
</g>
</g>
<!-- Node22&#45;&gt;Node25 -->
<g id="edge29" class="edge">
<title>Node22&#45;&gt;Node25</title>
<path fill="none" stroke="#63b8ff" d="M1573.51,-181.05C1567.2,-179.36 1560.65,-177.61 1554.5,-176 1508.92,-164.04 1456.51,-150.69 1421.22,-141.76"/>
<polygon fill="#63b8ff" stroke="#63b8ff" points="1422.42,-138.45 1411.86,-139.39 1420.7,-145.24 1422.42,-138.45"/>
</g>
<!-- Node23&#45;&gt;Node18 -->
<g id="edge26" class="edge">
<title>Node23&#45;&gt;Node18</title>
<path fill="none" stroke="#63b8ff" d="M1505.55,-120.75C1501.66,-113.88 1496.11,-104.08 1491.22,-95.45"/>
<polygon fill="#63b8ff" stroke="#63b8ff" points="1494.28,-93.74 1486.31,-86.76 1488.19,-97.19 1494.28,-93.74"/>
</g>
<!-- Node23&#45;&gt;Node19 -->
<g id="edge28" class="edge">
<title>Node23&#45;&gt;Node19</title>
<path fill="none" stroke="#63b8ff" d="M1475.72,-120.51C1437.94,-110.74 1377.93,-95.22 1340.18,-85.47"/>
<polygon fill="#63b8ff" stroke="#63b8ff" points="1341.25,-82.13 1330.69,-83.01 1339.5,-88.9 1341.25,-82.13"/>
</g>
<!-- Node24 -->
<g id="node24" class="node">
<title>Node24</title>
<g id="a_node24"><a xlink:title=" ">
<polygon fill="#e0e0e0" stroke="#999999" points="1575.5,-85 1527.5,-85 1527.5,-66 1575.5,-66 1575.5,-85"/>
<text text-anchor="middle" x="1551.5" y="-73" font-family="Helvetica,sans-Serif" font-size="10.00">mutex</text>
</a>
</g>
</g>
<!-- Node23&#45;&gt;Node24 -->
<g id="edge27" class="edge">
<title>Node23&#45;&gt;Node24</title>
<path fill="none" stroke="#63b8ff" d="M1517.27,-120.75C1522.82,-113.58 1530.84,-103.2 1537.73,-94.3"/>
<polygon fill="#63b8ff" stroke="#63b8ff" points="1540.31,-96.69 1543.66,-86.64 1534.77,-92.41 1540.31,-96.69"/>
</g>
<!-- Node25&#45;&gt;Node18 -->
<g id="edge30" class="edge">
<title>Node25&#45;&gt;Node18</title>
<path fill="none" stroke="#63b8ff" d="M1397.46,-120.51C1412.86,-112.35 1435.81,-100.19 1453.69,-90.71"/>
<polygon fill="#63b8ff" stroke="#63b8ff" points="1455.25,-93.84 1462.45,-86.07 1451.97,-87.66 1455.25,-93.84"/>
</g>
<!-- Node25&#45;&gt;Node19 -->
<g id="edge31" class="edge">
<title>Node25&#45;&gt;Node19</title>
<path fill="none" stroke="#63b8ff" d="M1367.78,-120.51C1356.72,-112.7 1340.46,-101.21 1327.33,-91.93"/>
<polygon fill="#63b8ff" stroke="#63b8ff" points="1329.46,-89.14 1319.27,-86.23 1325.42,-94.86 1329.46,-89.14"/>
</g>
<!-- Node26 -->
<g id="node26" class="node">
<title>Node26</title>
<g id="a_node26"><a xlink:href="$LogMessage_8h.html" xlink:title=" ">
<polygon fill="white" stroke="#666666" points="1433.5,-85 1347.5,-85 1347.5,-66 1433.5,-66 1433.5,-85"/>
<text text-anchor="middle" x="1390.5" y="-73" font-family="Helvetica,sans-Serif" font-size="10.00">LogMessage.h</text>
</a>
</g>
</g>
<!-- Node25&#45;&gt;Node26 -->
<g id="edge32" class="edge">
<title>Node25&#45;&gt;Node26</title>
<path fill="none" stroke="#63b8ff" d="M1382.15,-120.75C1383.39,-114.19 1385.13,-104.95 1386.71,-96.6"/>
<polygon fill="#63b8ff" stroke="#63b8ff" points="1390.12,-97.4 1388.53,-86.93 1383.24,-96.11 1390.12,-97.4"/>
</g>
<!-- Node26&#45;&gt;Node5 -->
<g id="edge34" class="edge">
<title>Node26&#45;&gt;Node5</title>
<path fill="none" stroke="#63b8ff" d="M1372.43,-65.62C1353.21,-56.17 1322.53,-41.09 1300.04,-30.03"/>
<polygon fill="#63b8ff" stroke="#63b8ff" points="1301.62,-26.91 1291.1,-25.64 1298.53,-33.19 1301.62,-26.91"/>
</g>
<!-- Node27 -->
<g id="node27" class="node">
<title>Node27</title>
<g id="a_node27"><a xlink:title=" ">
<polygon fill="#e0e0e0" stroke="#999999" points="1397.5,-24.5 1347.5,-24.5 1347.5,-5.5 1397.5,-5.5 1397.5,-24.5"/>
<text text-anchor="middle" x="1372.5" y="-12.5" font-family="Helvetica,sans-Serif" font-size="10.00">chrono</text>
</a>
</g>
</g>
<!-- Node26&#45;&gt;Node27 -->
<g id="edge33" class="edge">
<title>Node26&#45;&gt;Node27</title>
<path fill="none" stroke="#63b8ff" d="M1387.84,-65.87C1385.4,-57.92 1381.68,-45.83 1378.52,-35.55"/>
<polygon fill="#63b8ff" stroke="#63b8ff" points="1381.9,-34.64 1375.61,-26.11 1375.21,-36.7 1381.9,-34.64"/>
</g>
<!-- Node28 -->
<g id="node28" class="node">
<title>Node28</title>
<g id="a_node28"><a xlink:title=" ">
<polygon fill="#e0e0e0" stroke="#999999" points="1463.5,-24.5 1415.5,-24.5 1415.5,-5.5 1463.5,-5.5 1463.5,-24.5"/>
<text text-anchor="middle" x="1439.5" y="-12.5" font-family="Helvetica,sans-Serif" font-size="10.00">thread</text>
</a>
</g>
</g>
<!-- Node26&#45;&gt;Node28 -->
<g id="edge35" class="edge">
<title>Node26&#45;&gt;Node28</title>
<path fill="none" stroke="#63b8ff" d="M1397.73,-65.87C1404.9,-57.31 1416.07,-43.97 1425.06,-33.24"/>
<polygon fill="#63b8ff" stroke="#63b8ff" points="1427.53,-35.74 1431.27,-25.83 1422.16,-31.25 1427.53,-35.74"/>
</g>
<!-- Node29&#45;&gt;Node5 -->
<g id="edge40" class="edge">
<title>Node29&#45;&gt;Node5</title>
<path fill="none" stroke="#63b8ff" d="M1347.5,-241.58C1309.73,-227.05 1241.09,-194.3 1212.5,-140 1192.62,-102.24 1229.39,-56.65 1253.31,-32.65"/>
<polygon fill="#63b8ff" stroke="#63b8ff" points="1255.55,-35.35 1260.32,-25.89 1250.69,-30.31 1255.55,-35.35"/>
</g>
<!-- Node29&#45;&gt;Node19 -->
<g id="edge41" class="edge">
<title>Node29&#45;&gt;Node19</title>
<path fill="none" stroke="#63b8ff" d="M1362.68,-241.79C1353.23,-233.57 1339.9,-220.39 1332.5,-206 1314.17,-170.36 1308.28,-123.13 1306.39,-96.68"/>
<polygon fill="#63b8ff" stroke="#63b8ff" points="1309.89,-96.5 1305.82,-86.71 1302.9,-96.9 1309.89,-96.5"/>
</g>
<!-- Node29&#45;&gt;Node21 -->
<g id="edge39" class="edge">
<title>Node29&#45;&gt;Node21</title>
<path fill="none" stroke="#63b8ff" d="M1395.37,-241.62C1419.16,-231.95 1457.44,-216.4 1484.8,-205.28"/>
<polygon fill="#63b8ff" stroke="#63b8ff" points="1486.07,-208.54 1494.02,-201.54 1483.44,-202.06 1486.07,-208.54"/>
</g>
<!-- Node30 -->
<g id="node30" class="node">
<title>Node30</title>
<g id="a_node30"><a xlink:title=" ">
<polygon fill="#e0e0e0" stroke="#999999" points="1405.5,-200.5 1341.5,-200.5 1341.5,-181.5 1405.5,-181.5 1405.5,-200.5"/>
<text text-anchor="middle" x="1373.5" y="-188.5" font-family="Helvetica,sans-Serif" font-size="10.00">algorithm</text>
</a>
</g>
</g>
<!-- Node29&#45;&gt;Node30 -->
<g id="edge37" class="edge">
<title>Node29&#45;&gt;Node30</title>
<path fill="none" stroke="#63b8ff" d="M1373.5,-241.87C1373.5,-234 1373.5,-222.1 1373.5,-211.89"/>
<polygon fill="#63b8ff" stroke="#63b8ff" points="1377,-212.18 1373.5,-202.18 1370,-212.18 1377,-212.18"/>
</g>
<!-- Node31 -->
<g id="node31" class="node">
<title>Node31</title>
<g id="a_node31"><a xlink:title=" ">
<polygon fill="#e0e0e0" stroke="#999999" points="1471,-200.5 1424,-200.5 1424,-181.5 1471,-181.5 1471,-200.5"/>
<text text-anchor="middle" x="1447.5" y="-188.5" font-family="Helvetica,sans-Serif" font-size="10.00">deque</text>
</a>
</g>
</g>
<!-- Node29&#45;&gt;Node31 -->
<g id="edge38" class="edge">
<title>Node29&#45;&gt;Node31</title>
<path fill="none" stroke="#63b8ff" d="M1384.74,-241.62C1396.04,-232.68 1413.71,-218.72 1427.42,-207.87"/>
<polygon fill="#63b8ff" stroke="#63b8ff" points="1429.29,-210.85 1434.97,-201.91 1424.95,-205.36 1429.29,-210.85"/>
</g>
</g>
</svg>
