<?xml version="1.0" encoding="UTF-8" standalone="no"?>
<!DOCTYPE svg PUBLIC "-//W3C//DTD SVG 1.1//EN"
 "http://www.w3.org/Graphics/SVG/1.1/DTD/svg11.dtd">
<!-- Generated by graphviz version 9.0.0 (0)
 -->
<!-- Title: getLanguageTypeForSourceGroupType Pages: 1 -->
<!--zoomable 179 -->

<svg id="main" version="1.1" xmlns="http://www.w3.org/2000/svg" xmlns:xlink="http://www.w3.org/1999/xlink" xml:space="preserve" onload="init(evt)">
<style type="text/css"><![CDATA[
.node, .edge {opacity: 0.7;}
.node.selected, .edge.selected {opacity: 1;}
.edge:hover path { stroke: red; }
.edge:hover polygon { stroke: red; fill: red; }
]]></style>

<defs>
  <circle id="rim" cx="0" cy="0" r="7"/>
  <circle id="rim2" cx="0" cy="0" r="3.5"/>
  <g id="zoomPlus">
    <use xlink:href="#rim" fill="#404040"><set attributeName="fill" to="#808080" begin="zoomplus.mouseover" end="zoomplus.mouseout"/></use>
    <path d="M-4,0h8M0,-4v8" fill="none" stroke="white" stroke-width="1.5" pointer-events="none"/>
  </g>
  <g id="zoomMin">
    <use xlink:href="#rim" fill="#404040"><set attributeName="fill" to="#808080" begin="zoomminus.mouseover" end="zoomminus.mouseout"/></use>
    <path d="M-4,0h8" fill="none" stroke="white" stroke-width="1.5" pointer-events="none"/>
  </g>
  <g id="arrowUp" transform="translate(30 24)">
    <use xlink:href="#rim"/>
    <path pointer-events="none" fill="none" stroke="white" stroke-width="1.5" d="M0,-3.0v7 M-2.5,-0.5L0,-3.0L2.5,-0.5"/>
  </g>
  <g id="arrowRight" transform="rotate(90) translate(36 -43)">
    <use xlink:href="#rim"/>
    <path pointer-events="none" fill="none" stroke="white" stroke-width="1.5" d="M0,-3.0v7 M-2.5,-0.5L0,-3.0L2.5,-0.5"/>
  </g>
  <g id="arrowDown" transform="rotate(180) translate(-30 -48)">
    <use xlink:href="#rim"/>
    <path pointer-events="none" fill="none" stroke="white" stroke-width="1.5" d="M0,-3.0v7 M-2.5,-0.5L0,-3.0L2.5,-0.5"/>
  </g>
  <g id="arrowLeft" transform="rotate(270) translate(-36 17)">
    <use xlink:href="#rim"/>
    <path pointer-events="none" fill="none" stroke="white" stroke-width="1.5" d="M0,-3.0v7 M-2.5,-0.5L0,-3.0L2.5,-0.5"/>
  </g>
  <g id="resetDef">
    <use xlink:href="#rim2" fill="#404040"><set attributeName="fill" to="#808080" begin="reset.mouseover" end="reset.mouseout"/></use>
  </g>
</defs>
<script type="application/ecmascript">
var viewWidth = 940;
var viewHeight = 179;
var sectionId = 'dynsection-2';
</script>
<script type="application/ecmascript" xlink:href="svg.min.js"/>
<svg id="graph" class="graph">
<g id="viewport">
<title>getLanguageTypeForSourceGroupType</title>
<!-- Node1 -->
<g id="Node000001" class="node">
<title>Node1</title>
<g id="a_Node000001"><a xlink:title=" ">
<polygon fill="#999999" stroke="#666666" points="932,-109.12 782.5,-109.12 782.5,-75.62 932,-75.62 932,-109.12"/>
<text text-anchor="start" x="790.5" y="-95.62" font-family="Helvetica,sans-Serif" font-size="10.00">getLanguageTypeForSource</text>
<text text-anchor="middle" x="857.25" y="-82.88" font-family="Helvetica,sans-Serif" font-size="10.00">GroupType</text>
</a>
</g>
</g>
<!-- Node2 -->
<g id="Node000002" class="node">
<title>Node2</title>
<g id="a_Node000002"><a xlink:href="classSourceGroupSettings.html#a7207b6eae737a820cf074a20ad9fbb80" target="_top" xlink:title=" ">
<polygon fill="white" stroke="#666666" points="724,-161.12 606,-161.12 606,-127.62 724,-127.62 724,-161.12"/>
<text text-anchor="start" x="614" y="-147.62" font-family="Helvetica,sans-Serif" font-size="10.00">SourceGroupSettings</text>
<text text-anchor="middle" x="665" y="-134.88" font-family="Helvetica,sans-Serif" font-size="10.00">::getLanguage</text>
</a>
</g>
</g>
<!-- Node1&#45;&gt;Node2 -->
<g id="edge1_Node000001_Node000002" class="edge">
<title>Node1&#45;&gt;Node2</title>
<g id="a_edge1_Node000001_Node000002"><a xlink:title=" ">
<path fill="none" stroke="#63b8ff" d="M782.06,-112.65C762.93,-117.88 742.61,-123.43 724.41,-128.41"/>
<polygon fill="#63b8ff" stroke="#63b8ff" points="782.98,-116.03 791.7,-110.02 781.13,-109.28 782.98,-116.03"/>
</a>
</g>
</g>
<!-- Node3 -->
<g id="Node000003" class="node">
<title>Node3</title>
<g id="a_Node000003"><a xlink:href="classProjectSettings.html#a07d4fa2731db8b71a7f450f0e2e751ba" target="_top" xlink:title=" ">
<polygon fill="white" stroke="#666666" points="744.25,-109.12 585.75,-109.12 585.75,-75.62 744.25,-75.62 744.25,-109.12"/>
<text text-anchor="start" x="593.75" y="-95.62" font-family="Helvetica,sans-Serif" font-size="10.00">ProjectSettings::getLanguage</text>
<text text-anchor="middle" x="665" y="-82.88" font-family="Helvetica,sans-Serif" font-size="10.00">OfProject</text>
</a>
</g>
</g>
<!-- Node1&#45;&gt;Node3 -->
<g id="edge2_Node000001_Node000003" class="edge">
<title>Node1&#45;&gt;Node3</title>
<g id="a_edge2_Node000001_Node000003"><a xlink:title=" ">
<path fill="none" stroke="#63b8ff" d="M770.78,-92.38C762.07,-92.38 753.25,-92.38 744.61,-92.38"/>
<polygon fill="#63b8ff" stroke="#63b8ff" points="770.64,-95.88 780.64,-92.38 770.64,-88.88 770.64,-95.88"/>
</a>
</g>
</g>
<!-- Node9 -->
<g id="Node000009" class="node">
<title>Node9</title>
<g id="a_Node000009"><a xlink:href="classProjectSettings.html#afeae7d6d10afd7e12007013f62db1958" target="_top" xlink:title=" ">
<polygon fill="white" stroke="#666666" points="746.5,-57.75 583.5,-57.75 583.5,-37 746.5,-37 746.5,-57.75"/>
<text text-anchor="middle" x="665" y="-44.25" font-family="Helvetica,sans-Serif" font-size="10.00">ProjectSettings::getMigrations</text>
</a>
</g>
</g>
<!-- Node1&#45;&gt;Node9 -->
<g id="edge9_Node000001_Node000009" class="edge">
<title>Node1&#45;&gt;Node9</title>
<g id="a_edge9_Node000001_Node000009"><a xlink:title=" ">
<path fill="none" stroke="#63b8ff" d="M772.54,-72.54C763.75,-70.45 754.94,-68.37 746.5,-66.38 735.32,-63.73 723.27,-60.88 711.98,-58.22"/>
<polygon fill="#63b8ff" stroke="#63b8ff" points="771.63,-75.92 782.17,-74.82 773.24,-69.11 771.63,-75.92"/>
</a>
</g>
</g>
<!-- Node4 -->
<g id="Node000004" class="node">
<title>Node4</title>
<g id="a_Node000004"><a xlink:href="classSqliteBookmarkStorage.html#a2f3bed78dd760007681776153c5199da" target="_top" xlink:title=" ">
<polygon fill="white" stroke="#666666" points="530.25,-171.12 398.75,-171.12 398.75,-137.62 530.25,-137.62 530.25,-171.12"/>
<text text-anchor="start" x="406.75" y="-157.62" font-family="Helvetica,sans-Serif" font-size="10.00">SqliteBookmarkStorage</text>
<text text-anchor="middle" x="464.5" y="-144.88" font-family="Helvetica,sans-Serif" font-size="10.00">::migrateIfNecessary</text>
</a>
</g>
</g>
<!-- Node3&#45;&gt;Node4 -->
<g id="edge3_Node000003_Node000004" class="edge">
<title>Node3&#45;&gt;Node4</title>
<g id="a_edge3_Node000003_Node000004"><a xlink:title=" ">
<path fill="none" stroke="#63b8ff" d="M598.06,-112.97C572.96,-120.81 544.64,-129.66 520.64,-137.15"/>
<polygon fill="#63b8ff" stroke="#63b8ff" points="599.02,-116.34 607.53,-110.01 596.94,-109.65 599.02,-116.34"/>
</a>
</g>
</g>
<!-- Node7 -->
<g id="Node000007" class="node">
<title>Node7</title>
<g id="a_Node000007"><a xlink:href="classQtStartScreen.html#acc4f3487b59417f41c2ed73b13fc3fa8" target="_top" xlink:title="Fill/Refresh the recent projects layout.">
<polygon fill="white" stroke="#666666" points="544.88,-101.75 384.12,-101.75 384.12,-81 544.88,-81 544.88,-101.75"/>
<text text-anchor="middle" x="464.5" y="-88.25" font-family="Helvetica,sans-Serif" font-size="10.00">QtStartScreen::updateButtons</text>
</a>
</g>
</g>
<!-- Node3&#45;&gt;Node7 -->
<g id="edge6_Node000003_Node000007" class="edge">
<title>Node3&#45;&gt;Node7</title>
<g id="a_edge6_Node000003_Node000007"><a xlink:title=" ">
<path fill="none" stroke="#63b8ff" d="M574.02,-91.92C564.38,-91.87 554.62,-91.82 545.12,-91.78"/>
<polygon fill="#63b8ff" stroke="#63b8ff" points="573.73,-95.42 583.75,-91.97 573.77,-88.42 573.73,-95.42"/>
</a>
</g>
</g>
<!-- Node5 -->
<g id="Node000005" class="node">
<title>Node5</title>
<g id="a_Node000005"><a xlink:href="classPersistentStorage.html#abc1fd27ad170e28d1d8c750c4f7b6503" target="_top" xlink:title=" ">
<polygon fill="white" stroke="#666666" points="329.75,-171.12 221.5,-171.12 221.5,-137.62 329.75,-137.62 329.75,-171.12"/>
<text text-anchor="start" x="229.5" y="-157.62" font-family="Helvetica,sans-Serif" font-size="10.00">PersistentStorage::</text>
<text text-anchor="middle" x="275.62" y="-144.88" font-family="Helvetica,sans-Serif" font-size="10.00">setup</text>
</a>
</g>
</g>
<!-- Node4&#45;&gt;Node5 -->
<g id="edge4_Node000004_Node000005" class="edge">
<title>Node4&#45;&gt;Node5</title>
<g id="a_edge4_Node000004_Node000005"><a xlink:title=" ">
<path fill="none" stroke="#63b8ff" d="M386.98,-154.38C367.86,-154.38 347.78,-154.38 330.06,-154.38"/>
<polygon fill="#63b8ff" stroke="#63b8ff" points="386.89,-157.88 396.89,-154.38 386.89,-150.88 386.89,-157.88"/>
</a>
</g>
</g>
<!-- Node6 -->
<g id="Node000006" class="node">
<title>Node6</title>
<g id="a_Node000006"><a xlink:href="classTaskExecuteCustomCommands.html#af4a74f479f27dcd0117a6f8750eba3ea" target="_top" xlink:title=" ">
<polygon fill="white" stroke="#666666" points="169.75,-171.12 0,-171.12 0,-137.62 169.75,-137.62 169.75,-171.12"/>
<text text-anchor="start" x="8" y="-157.62" font-family="Helvetica,sans-Serif" font-size="10.00">TaskExecuteCustomCommands</text>
<text text-anchor="middle" x="84.88" y="-144.88" font-family="Helvetica,sans-Serif" font-size="10.00">::doUpdate</text>
</a>
</g>
</g>
<!-- Node5&#45;&gt;Node6 -->
<g id="edge5_Node000005_Node000006" class="edge">
<title>Node5&#45;&gt;Node6</title>
<g id="a_edge5_Node000005_Node000006"><a xlink:title=" ">
<path fill="none" stroke="#63b8ff" d="M209.57,-154.38C196.8,-154.38 183.23,-154.38 169.94,-154.38"/>
<polygon fill="#63b8ff" stroke="#63b8ff" points="209.53,-157.88 219.53,-154.38 209.53,-150.88 209.53,-157.88"/>
</a>
</g>
</g>
<!-- Node7&#45;&gt;Node7 -->
<g id="edge8_Node000007_Node000007" class="edge">
<title>Node7&#45;&gt;Node7</title>
<g id="a_edge8_Node000007_Node000007"><a xlink:title=" ">
<path fill="none" stroke="#63b8ff" d="M497.74,-113.24C493.33,-117.08 482.25,-119.75 464.5,-119.75 432.04,-119.75 421.89,-110.81 434.07,-102.15"/>
<polygon fill="#63b8ff" stroke="#63b8ff" points="501.15,-112.45 495.3,-103.61 494.36,-114.17 501.15,-112.45"/>
</a>
</g>
</g>
<!-- Node8 -->
<g id="Node000008" class="node">
<title>Node8</title>
<g id="a_Node000008"><a xlink:href="classQtStartScreen.html#af94d51fdb8883ce5aa82174c8e8cdf4c" target="_top" xlink:title="Initialize the startup window elements.">
<polygon fill="white" stroke="#666666" points="345.5,-108.12 205.75,-108.12 205.75,-74.62 345.5,-74.62 345.5,-108.12"/>
<text text-anchor="start" x="213.75" y="-94.62" font-family="Helvetica,sans-Serif" font-size="10.00">QtStartScreen::setupStart</text>
<text text-anchor="middle" x="275.62" y="-81.88" font-family="Helvetica,sans-Serif" font-size="10.00">Screen</text>
</a>
</g>
</g>
<!-- Node7&#45;&gt;Node8 -->
<g id="edge7_Node000007_Node000008" class="edge">
<title>Node7&#45;&gt;Node8</title>
<g id="a_edge7_Node000007_Node000008"><a xlink:title=" ">
<path fill="none" stroke="#63b8ff" d="M372.42,-91.38C363.48,-91.38 354.51,-91.38 345.84,-91.38"/>
<polygon fill="#63b8ff" stroke="#63b8ff" points="372.19,-94.88 382.19,-91.38 372.19,-87.88 372.19,-94.88"/>
</a>
</g>
</g>
<!-- Node10 -->
<g id="Node000010" class="node">
<title>Node10</title>
<g id="a_Node000010"><a xlink:href="classProjectSettings.html#aa0bf68846372ec84ed502141e26a6b97" target="_top" xlink:title=" ">
<polygon fill="white" stroke="#666666" points="531.38,-59.75 397.62,-59.75 397.62,-39 531.38,-39 531.38,-59.75"/>
<text text-anchor="middle" x="464.5" y="-46.25" font-family="Helvetica,sans-Serif" font-size="10.00">ProjectSettings::migrate</text>
</a>
</g>
</g>
<!-- Node9&#45;&gt;Node10 -->
<g id="edge10_Node000009_Node000010" class="edge">
<title>Node9&#45;&gt;Node10</title>
<g id="a_edge10_Node000009_Node000010"><a xlink:title=" ">
<path fill="none" stroke="#63b8ff" d="M571.9,-48.3C558.31,-48.44 544.53,-48.58 531.6,-48.71"/>
<polygon fill="#63b8ff" stroke="#63b8ff" points="571.78,-51.8 581.75,-48.2 571.71,-44.8 571.78,-51.8"/>
</a>
</g>
</g>
<!-- Node11 -->
<g id="Node000011" class="node">
<title>Node11</title>
<g id="a_Node000011"><a xlink:href="classProjectSettings.html#a522523a24c6bc2011d333318bab51942" target="_top" xlink:title=" ">
<polygon fill="white" stroke="#666666" points="547.5,-20.75 381.5,-20.75 381.5,0 547.5,0 547.5,-20.75"/>
<text text-anchor="middle" x="464.5" y="-7.25" font-family="Helvetica,sans-Serif" font-size="10.00">ProjectSettings::needMigration</text>
</a>
</g>
</g>
<!-- Node9&#45;&gt;Node11 -->
<g id="edge11_Node000009_Node000011" class="edge">
<title>Node9&#45;&gt;Node11</title>
<g id="a_edge11_Node000009_Node000011"><a xlink:title=" ">
<path fill="none" stroke="#63b8ff" d="M594.64,-34.45C571.48,-30.13 545.93,-25.37 523.71,-21.23"/>
<polygon fill="#63b8ff" stroke="#63b8ff" points="593.82,-37.85 604.3,-36.25 595.11,-30.97 593.82,-37.85"/>
</a>
</g>
</g>
</g>
</svg>

<g id="navigator" transform="translate(0 0)" fill="#404254">
  <rect fill="#f2f5e9" fill-opacity="0.5" stroke="#606060" stroke-width=".5" x="0" y="0" width="60" height="60"/>
  <use id="zoomplus" xlink:href="#zoomPlus" x="17" y="9" onmousedown="handleZoom(evt,'in')"/>
  <use id="zoomminus" xlink:href="#zoomMin" x="42" y="9" onmousedown="handleZoom(evt,'out')"/>
  <use id="reset" xlink:href="#resetDef" x="30" y="36" onmousedown="handleReset()"/>
   <use id="arrowup" xlink:href="#arrowUp" x="0" y="0" onmousedown="handlePan(0,-1)"/>
  <use id="arrowright" xlink:href="#arrowRight" x="0" y="0" onmousedown="handlePan(1,0)"/>
  <use id="arrowdown" xlink:href="#arrowDown" x="0" y="0" onmousedown="handlePan(0,1)"/>
  <use id="arrowleft" xlink:href="#arrowLeft" x="0" y="0" onmousedown="handlePan(-1,0)"/>
</g>
<svg viewBox="0 0 15 15" width="100%" height="30px" preserveAspectRatio="xMaxYMin meet">
 <g id="arrow_out" transform="scale(0.3 0.3)">
  <a xlink:href="LanguageType_8h_a2e37fc3c9f54a313532cea7b17f1c44b_icgraph_org.svg" target="_base">
   <rect id="button" ry="5" rx="5" y="6" x="6" height="38" width="38"
        fill="#f2f5e9" fill-opacity="0.5" stroke="#606060" stroke-width="1.0"/>
   <path id="arrow"
     d="M 11.500037,31.436501 C 11.940474,20.09759 22.043105,11.32322 32.158766,21.979434 L 37.068811,17.246167 C 37.068811,17.246167 37.088388,32 37.088388,32 L 22.160133,31.978069 C 22.160133,31.978069 26.997745,27.140456 26.997745,27.140456 C 18.528582,18.264221 13.291696,25.230495 11.500037,31.436501 z"
     style="fill:#404040;"/>
  </a>
 </g>
</svg>

<style type='text/css'>
<![CDATA[
[data-mouse-over-selected='false'] { opacity: 0.7; }
[data-mouse-over-selected='true']  { opacity: 1.0; }
]]>
</style>
<script type="application/ecmascript"><![CDATA[
document.addEventListener('DOMContentLoaded', (event) => {
  highlightEdges();
  highlightAdjacentNodes();
});
]]></script>
</svg>
