<?xml version="1.0" encoding="UTF-8" standalone="no"?>
<!DOCTYPE svg PUBLIC "-//W3C//DTD SVG 1.1//EN"
 "http://www.w3.org/Graphics/SVG/1.1/DTD/svg11.dtd">
<!-- Generated by graphviz version 9.0.0 (0)
 -->
<!-- Title: /home/ahussein/Documents/archive/opensourcesourcetrail.github.io/.ignore/src/src/lib/utility/logging/LogMessage.h Pages: 1 -->
<svg width="220pt" height="124pt"
 viewBox="0.00 0.00 219.75 123.75" xmlns="http://www.w3.org/2000/svg" xmlns:xlink="http://www.w3.org/1999/xlink">
<g id="graph0" class="graph" transform="scale(1 1) rotate(0) translate(4 119.75)">
<title>/home/ahussein/Documents/archive/opensourcesourcetrail.github.io/.ignore/src/src/lib/utility/logging/LogMessage.h</title>
<!-- Node1 -->
<g id="Node000001" class="node">
<title>Node1</title>
<g id="a_Node000001"><a xlink:title=" ">
<polygon fill="#999999" stroke="#666666" points="211.75,-115.75 0,-115.75 0,-56.75 211.75,-56.75 211.75,-115.75"/>
<text text-anchor="start" x="8" y="-102.25" font-family="Helvetica,sans-Serif" font-size="10.00">/home/ahussein/Documents</text>
<text text-anchor="start" x="8" y="-89.5" font-family="Helvetica,sans-Serif" font-size="10.00">/archive/opensourcesourcetrail.github.io</text>
<text text-anchor="start" x="8" y="-76.75" font-family="Helvetica,sans-Serif" font-size="10.00">/.ignore/src/src/lib/utility/logging</text>
<text text-anchor="middle" x="105.88" y="-64" font-family="Helvetica,sans-Serif" font-size="10.00">/LogMessage.h</text>
</a>
</g>
</g>
<!-- Node2 -->
<g id="Node000002" class="node">
<title>Node2</title>
<g id="a_Node000002"><a xlink:title=" ">
<polygon fill="#e0e0e0" stroke="#999999" points="66.38,-20.75 17.38,-20.75 17.38,0 66.38,0 66.38,-20.75"/>
<text text-anchor="middle" x="41.88" y="-7.25" font-family="Helvetica,sans-Serif" font-size="10.00">chrono</text>
</a>
</g>
</g>
<!-- Node1&#45;&gt;Node2 -->
<g id="edge1_Node000001_Node000002" class="edge">
<title>Node1&#45;&gt;Node2</title>
<g id="a_edge1_Node000001_Node000002"><a xlink:title=" ">
<path fill="none" stroke="#63b8ff" d="M80.95,-56.48C73.18,-47.51 64.82,-37.86 57.84,-29.8"/>
<polygon fill="#63b8ff" stroke="#63b8ff" points="60.58,-27.62 51.38,-22.35 55.29,-32.2 60.58,-27.62"/>
</a>
</g>
</g>
<!-- Node3 -->
<g id="Node000003" class="node">
<title>Node3</title>
<g id="a_Node000003"><a xlink:title=" ">
<polygon fill="#e0e0e0" stroke="#999999" points="127.75,-20.75 84,-20.75 84,0 127.75,0 127.75,-20.75"/>
<text text-anchor="middle" x="105.88" y="-7.25" font-family="Helvetica,sans-Serif" font-size="10.00">string</text>
</a>
</g>
</g>
<!-- Node1&#45;&gt;Node3 -->
<g id="edge2_Node000001_Node000003" class="edge">
<title>Node1&#45;&gt;Node3</title>
<g id="a_edge2_Node000001_Node000003"><a xlink:title=" ">
<path fill="none" stroke="#63b8ff" d="M105.88,-56.48C105.88,-48.48 105.88,-39.95 105.88,-32.49"/>
<polygon fill="#63b8ff" stroke="#63b8ff" points="109.38,-32.72 105.88,-22.72 102.38,-32.72 109.38,-32.72"/>
</a>
</g>
</g>
<!-- Node4 -->
<g id="Node000004" class="node">
<title>Node4</title>
<g id="a_Node000004"><a xlink:title=" ">
<polygon fill="#e0e0e0" stroke="#999999" points="193.62,-20.75 146.12,-20.75 146.12,0 193.62,0 193.62,-20.75"/>
<text text-anchor="middle" x="169.88" y="-7.25" font-family="Helvetica,sans-Serif" font-size="10.00">thread</text>
</a>
</g>
</g>
<!-- Node1&#45;&gt;Node4 -->
<g id="edge3_Node000001_Node000004" class="edge">
<title>Node1&#45;&gt;Node4</title>
<g id="a_edge3_Node000001_Node000004"><a xlink:title=" ">
<path fill="none" stroke="#63b8ff" d="M130.8,-56.48C138.57,-47.51 146.93,-37.86 153.91,-29.8"/>
<polygon fill="#63b8ff" stroke="#63b8ff" points="156.46,-32.2 160.37,-22.35 151.17,-27.62 156.46,-32.2"/>
</a>
</g>
</g>
</g>
</svg>
