<?xml version="1.0" encoding="UTF-8" standalone="no"?>
<!DOCTYPE svg PUBLIC "-//W3C//DTD SVG 1.1//EN"
 "http://www.w3.org/Graphics/SVG/1.1/DTD/svg11.dtd">
<!-- Generated by graphviz version 7.1.0 (0)
 -->
<!-- Title: /home/ahussein/Documents/sourceCode/Sourcetrail/src/src/lib/data/indexer/MemoryIndexerCommandProvider.h Pages: 1 -->
<svg width="240pt" height="170pt"
 viewBox="0.00 0.00 240.00 170.00" xmlns="http://www.w3.org/2000/svg" xmlns:xlink="http://www.w3.org/1999/xlink">
<g id="graph0" class="graph" transform="scale(1 1) rotate(0) translate(4 166)">
<title>/home/ahussein/Documents/sourceCode/Sourcetrail/src/src/lib/data/indexer/MemoryIndexerCommandProvider.h</title>
<!-- Node1 -->
<g id="node1" class="node">
<title>Node1</title>
<g id="a_node1"><a xlink:title=" ">
<polygon fill="#999999" stroke="#666666" points="197,-162 0,-162 0,-110 197,-110 197,-162"/>
<text text-anchor="start" x="8" y="-150" font-family="Helvetica,sans-Serif" font-size="10.00">/home/ahussein/Documents</text>
<text text-anchor="start" x="8" y="-139" font-family="Helvetica,sans-Serif" font-size="10.00">/sourceCode/Sourcetrail</text>
<text text-anchor="start" x="8" y="-128" font-family="Helvetica,sans-Serif" font-size="10.00">/src/src/lib/data/indexer</text>
<text text-anchor="middle" x="98.5" y="-117" font-family="Helvetica,sans-Serif" font-size="10.00">/MemoryIndexerCommandProvider.h</text>
</a>
</g>
</g>
<!-- Node2 -->
<g id="node2" class="node">
<title>Node2</title>
<g id="a_node2"><a xlink:title=" ">
<polygon fill="#e0e0e0" stroke="#999999" points="60.5,-74 22.5,-74 22.5,-55 60.5,-55 60.5,-74"/>
<text text-anchor="middle" x="41.5" y="-62" font-family="Helvetica,sans-Serif" font-size="10.00">map</text>
</a>
</g>
</g>
<!-- Node1&#45;&gt;Node2 -->
<g id="edge1" class="edge">
<title>Node1&#45;&gt;Node2</title>
<path fill="none" stroke="#63b8ff" d="M77.6,-109.52C70.37,-100.7 62.44,-91.03 55.86,-83"/>
<polygon fill="#63b8ff" stroke="#63b8ff" points="58.64,-80.88 49.59,-75.37 53.23,-85.32 58.64,-80.88"/>
</g>
<!-- Node3 -->
<g id="node3" class="node">
<title>Node3</title>
<g id="a_node3"><a xlink:href="$IndexerCommandProvider_8h.html" xlink:title=" ">
<polygon fill="white" stroke="#666666" points="232,-74 79,-74 79,-55 232,-55 232,-74"/>
<text text-anchor="middle" x="155.5" y="-62" font-family="Helvetica,sans-Serif" font-size="10.00">IndexerCommandProvider.h</text>
</a>
</g>
</g>
<!-- Node1&#45;&gt;Node3 -->
<g id="edge2" class="edge">
<title>Node1&#45;&gt;Node3</title>
<path fill="none" stroke="#63b8ff" d="M119.4,-109.52C126.63,-100.7 134.56,-91.03 141.14,-83"/>
<polygon fill="#63b8ff" stroke="#63b8ff" points="143.77,-85.32 147.41,-75.37 138.36,-80.88 143.77,-85.32"/>
</g>
<!-- Node4 -->
<g id="node4" class="node">
<title>Node4</title>
<g id="a_node4"><a xlink:title=" ">
<polygon fill="#e0e0e0" stroke="#999999" points="148.5,-19 90.5,-19 90.5,0 148.5,0 148.5,-19"/>
<text text-anchor="middle" x="119.5" y="-7" font-family="Helvetica,sans-Serif" font-size="10.00">memory</text>
</a>
</g>
</g>
<!-- Node3&#45;&gt;Node4 -->
<g id="edge3" class="edge">
<title>Node3&#45;&gt;Node4</title>
<path fill="none" stroke="#63b8ff" d="M149.56,-54.75C144.79,-47.73 137.94,-37.64 131.98,-28.87"/>
<polygon fill="#63b8ff" stroke="#63b8ff" points="134.94,-27 126.42,-20.69 129.15,-30.93 134.94,-27"/>
</g>
<!-- Node5 -->
<g id="node5" class="node">
<title>Node5</title>
<g id="a_node5"><a xlink:title=" ">
<polygon fill="#e0e0e0" stroke="#999999" points="214,-19 167,-19 167,0 214,0 214,-19"/>
<text text-anchor="middle" x="190.5" y="-7" font-family="Helvetica,sans-Serif" font-size="10.00">vector</text>
</a>
</g>
</g>
<!-- Node3&#45;&gt;Node5 -->
<g id="edge4" class="edge">
<title>Node3&#45;&gt;Node5</title>
<path fill="none" stroke="#63b8ff" d="M161.28,-54.75C165.91,-47.73 172.57,-37.64 178.37,-28.87"/>
<polygon fill="#63b8ff" stroke="#63b8ff" points="181.17,-30.98 183.76,-20.71 175.33,-27.12 181.17,-30.98"/>
</g>
</g>
</svg>
