<?xml version="1.0" encoding="UTF-8" standalone="no"?>
<!DOCTYPE svg PUBLIC "-//W3C//DTD SVG 1.1//EN"
 "http://www.w3.org/Graphics/SVG/1.1/DTD/svg11.dtd">
<!-- Generated by graphviz version 7.1.0 (0)
 -->
<!-- Title: /home/ahussein/Documents/sourceCode/Sourcetrail/src/src/lib/utility/messaging/type/indexing/MessageIndexingInterrupted.h Pages: 1 -->
<svg width="1051pt" height="236pt"
 viewBox="0.00 0.00 1050.50 236.00" xmlns="http://www.w3.org/2000/svg" xmlns:xlink="http://www.w3.org/1999/xlink">
<g id="graph0" class="graph" transform="scale(1 1) rotate(0) translate(4 232)">
<title>/home/ahussein/Documents/sourceCode/Sourcetrail/src/src/lib/utility/messaging/type/indexing/MessageIndexingInterrupted.h</title>
<!-- Node1 -->
<g id="node1" class="node">
<title>Node1</title>
<g id="a_node1"><a xlink:title=" ">
<polygon fill="#999999" stroke="#666666" points="685,-228 447,-228 447,-176 685,-176 685,-228"/>
<text text-anchor="start" x="455" y="-216" font-family="Helvetica,sans-Serif" font-size="10.00">/home/ahussein/Documents</text>
<text text-anchor="start" x="455" y="-205" font-family="Helvetica,sans-Serif" font-size="10.00">/sourceCode/Sourcetrail</text>
<text text-anchor="start" x="455" y="-194" font-family="Helvetica,sans-Serif" font-size="10.00">/src/src/lib/utility/messaging</text>
<text text-anchor="middle" x="566" y="-183" font-family="Helvetica,sans-Serif" font-size="10.00">/type/indexing/MessageIndexingInterrupted.h</text>
</a>
</g>
</g>
<!-- Node2 -->
<g id="node2" class="node">
<title>Node2</title>
<g id="a_node2"><a xlink:href="$TaskInjectStorage_8h.html" xlink:title=" ">
<polygon fill="white" stroke="#666666" points="286.5,-134.5 97.5,-134.5 97.5,-93.5 286.5,-93.5 286.5,-134.5"/>
<text text-anchor="start" x="105.5" y="-122.5" font-family="Helvetica,sans-Serif" font-size="10.00">/home/ahussein/Documents</text>
<text text-anchor="start" x="105.5" y="-111.5" font-family="Helvetica,sans-Serif" font-size="10.00">/sourceCode/Sourcetrail</text>
<text text-anchor="middle" x="192" y="-100.5" font-family="Helvetica,sans-Serif" font-size="10.00">/src/src/lib/data/TaskInjectStorage.h</text>
</a>
</g>
</g>
<!-- Node1&#45;&gt;Node2 -->
<g id="edge1" class="edge">
<title>Node1&#45;&gt;Node2</title>
<path fill="none" stroke="#63b8ff" d="M440.49,-173.02C394.96,-162.77 343.13,-150.99 296,-140 289.04,-138.38 281.82,-136.68 274.57,-134.96"/>
<polygon fill="#63b8ff" stroke="#63b8ff" points="439.62,-176.41 450.15,-175.19 441.16,-169.58 439.62,-176.41"/>
</g>
<!-- Node5 -->
<g id="node5" class="node">
<title>Node5</title>
<g id="a_node5"><a xlink:href="$TaskBuildIndex_8h.html" xlink:title=" ">
<polygon fill="white" stroke="#666666" points="457,-140 305,-140 305,-88 457,-88 457,-140"/>
<text text-anchor="start" x="313" y="-128" font-family="Helvetica,sans-Serif" font-size="10.00">/home/ahussein/Documents</text>
<text text-anchor="start" x="313" y="-117" font-family="Helvetica,sans-Serif" font-size="10.00">/sourceCode/Sourcetrail</text>
<text text-anchor="start" x="313" y="-106" font-family="Helvetica,sans-Serif" font-size="10.00">/src/src/lib/data/indexer</text>
<text text-anchor="middle" x="381" y="-95" font-family="Helvetica,sans-Serif" font-size="10.00">/TaskBuildIndex.h</text>
</a>
</g>
</g>
<!-- Node1&#45;&gt;Node5 -->
<g id="edge4" class="edge">
<title>Node1&#45;&gt;Node5</title>
<path fill="none" stroke="#63b8ff" d="M500.96,-170.76C479.61,-160.84 456.11,-149.92 435.61,-140.39"/>
<polygon fill="#63b8ff" stroke="#63b8ff" points="499.33,-173.87 509.87,-174.91 502.28,-167.52 499.33,-173.87"/>
</g>
<!-- Node7 -->
<g id="node7" class="node">
<title>Node7</title>
<g id="a_node7"><a xlink:href="$TaskExecuteCustomCommands_8h.html" xlink:title=" ">
<polygon fill="white" stroke="#666666" points="657,-140 475,-140 475,-88 657,-88 657,-140"/>
<text text-anchor="start" x="483" y="-128" font-family="Helvetica,sans-Serif" font-size="10.00">/home/ahussein/Documents</text>
<text text-anchor="start" x="483" y="-117" font-family="Helvetica,sans-Serif" font-size="10.00">/sourceCode/Sourcetrail</text>
<text text-anchor="start" x="483" y="-106" font-family="Helvetica,sans-Serif" font-size="10.00">/src/src/lib/data/indexer</text>
<text text-anchor="middle" x="566" y="-95" font-family="Helvetica,sans-Serif" font-size="10.00">/TaskExecuteCustomCommands.h</text>
</a>
</g>
</g>
<!-- Node1&#45;&gt;Node7 -->
<g id="edge7" class="edge">
<title>Node1&#45;&gt;Node7</title>
<path fill="none" stroke="#63b8ff" d="M566,-164.26C566,-156.24 566,-147.92 566,-140.45"/>
<polygon fill="#63b8ff" stroke="#63b8ff" points="562.5,-164.15 566,-174.15 569.5,-164.15 562.5,-164.15"/>
</g>
<!-- Node9 -->
<g id="node9" class="node">
<title>Node9</title>
<g id="a_node9"><a xlink:href="$TaskFillIndexerCommandQueue_8h.html" xlink:title=" ">
<polygon fill="white" stroke="#666666" points="857,-140 675,-140 675,-88 857,-88 857,-140"/>
<text text-anchor="start" x="683" y="-128" font-family="Helvetica,sans-Serif" font-size="10.00">/home/ahussein/Documents</text>
<text text-anchor="start" x="683" y="-117" font-family="Helvetica,sans-Serif" font-size="10.00">/sourceCode/Sourcetrail</text>
<text text-anchor="start" x="683" y="-106" font-family="Helvetica,sans-Serif" font-size="10.00">/src/src/lib/data/indexer</text>
<text text-anchor="middle" x="766" y="-95" font-family="Helvetica,sans-Serif" font-size="10.00">/TaskFillIndexerCommandQueue.h</text>
</a>
</g>
</g>
<!-- Node1&#45;&gt;Node9 -->
<g id="edge10" class="edge">
<title>Node1&#45;&gt;Node9</title>
<path fill="none" stroke="#63b8ff" d="M635.69,-171.03C658.93,-161.04 684.6,-150 706.96,-140.39"/>
<polygon fill="#63b8ff" stroke="#63b8ff" points="634.39,-167.78 626.59,-174.95 637.15,-174.21 634.39,-167.78"/>
</g>
<!-- Node11 -->
<g id="node11" class="node">
<title>Node11</title>
<g id="a_node11"><a xlink:href="$QtIndexingProgressDialog_8cpp.html" xlink:title=" ">
<polygon fill="white" stroke="#666666" points="1042.5,-140 875.5,-140 875.5,-88 1042.5,-88 1042.5,-140"/>
<text text-anchor="start" x="883.5" y="-128" font-family="Helvetica,sans-Serif" font-size="10.00">/home/ahussein/Documents</text>
<text text-anchor="start" x="883.5" y="-117" font-family="Helvetica,sans-Serif" font-size="10.00">/sourceCode/Sourcetrail</text>
<text text-anchor="start" x="883.5" y="-106" font-family="Helvetica,sans-Serif" font-size="10.00">/src/src/lib_gui/qt/window</text>
<text text-anchor="middle" x="959" y="-95" font-family="Helvetica,sans-Serif" font-size="10.00">/QtIndexingProgressDialog.cpp</text>
</a>
</g>
</g>
<!-- Node1&#45;&gt;Node11 -->
<g id="edge13" class="edge">
<title>Node1&#45;&gt;Node11</title>
<path fill="none" stroke="#63b8ff" d="M696.48,-176.3C749.28,-165.83 810.7,-153.04 866,-140 869.01,-139.29 872.07,-138.55 875.16,-137.79"/>
<polygon fill="#63b8ff" stroke="#63b8ff" points="695.97,-172.83 686.84,-178.2 697.33,-179.7 695.97,-172.83"/>
</g>
<!-- Node3 -->
<g id="node3" class="node">
<title>Node3</title>
<g id="a_node3"><a xlink:href="$TaskInjectStorage_8cpp.html" xlink:title=" ">
<polygon fill="white" stroke="#666666" points="200,-46.5 0,-46.5 0,-5.5 200,-5.5 200,-46.5"/>
<text text-anchor="start" x="8" y="-34.5" font-family="Helvetica,sans-Serif" font-size="10.00">/home/ahussein/Documents</text>
<text text-anchor="start" x="8" y="-23.5" font-family="Helvetica,sans-Serif" font-size="10.00">/sourceCode/Sourcetrail</text>
<text text-anchor="middle" x="100" y="-12.5" font-family="Helvetica,sans-Serif" font-size="10.00">/src/src/lib/data/TaskInjectStorage.cpp</text>
</a>
</g>
</g>
<!-- Node2&#45;&gt;Node3 -->
<g id="edge2" class="edge">
<title>Node2&#45;&gt;Node3</title>
<path fill="none" stroke="#63b8ff" d="M162.62,-85.53C149.16,-72.95 133.51,-58.32 121.22,-46.84"/>
<polygon fill="#63b8ff" stroke="#63b8ff" points="159.86,-87.75 169.56,-92.02 164.64,-82.63 159.86,-87.75"/>
</g>
<!-- Node4 -->
<g id="node4" class="node">
<title>Node4</title>
<g id="a_node4"><a xlink:href="$Project_8cpp.html" xlink:title=" ">
<polygon fill="white" stroke="#666666" points="548,-46.5 388,-46.5 388,-5.5 548,-5.5 548,-46.5"/>
<text text-anchor="start" x="396" y="-34.5" font-family="Helvetica,sans-Serif" font-size="10.00">/home/ahussein/Documents</text>
<text text-anchor="start" x="396" y="-23.5" font-family="Helvetica,sans-Serif" font-size="10.00">/sourceCode/Sourcetrail</text>
<text text-anchor="middle" x="468" y="-12.5" font-family="Helvetica,sans-Serif" font-size="10.00">/src/src/lib/project/Project.cpp</text>
</a>
</g>
</g>
<!-- Node2&#45;&gt;Node4 -->
<g id="edge3" class="edge">
<title>Node2&#45;&gt;Node4</title>
<path fill="none" stroke="#63b8ff" d="M266.95,-89.65C309.79,-76.3 362.96,-59.73 403.86,-46.99"/>
<polygon fill="#63b8ff" stroke="#63b8ff" points="265.96,-86.29 257.46,-92.6 268.05,-92.97 265.96,-86.29"/>
</g>
<!-- Node5&#45;&gt;Node4 -->
<g id="edge6" class="edge">
<title>Node5&#45;&gt;Node4</title>
<path fill="none" stroke="#63b8ff" d="M414.58,-79.8C425.79,-68.73 437.92,-56.73 447.79,-46.98"/>
<polygon fill="#63b8ff" stroke="#63b8ff" points="412.36,-77.08 407.71,-86.6 417.28,-82.06 412.36,-77.08"/>
</g>
<!-- Node6 -->
<g id="node6" class="node">
<title>Node6</title>
<g id="a_node6"><a xlink:href="$TaskBuildIndex_8cpp.html" xlink:title=" ">
<polygon fill="white" stroke="#666666" points="370,-52 218,-52 218,0 370,0 370,-52"/>
<text text-anchor="start" x="226" y="-40" font-family="Helvetica,sans-Serif" font-size="10.00">/home/ahussein/Documents</text>
<text text-anchor="start" x="226" y="-29" font-family="Helvetica,sans-Serif" font-size="10.00">/sourceCode/Sourcetrail</text>
<text text-anchor="start" x="226" y="-18" font-family="Helvetica,sans-Serif" font-size="10.00">/src/src/lib/data/indexer</text>
<text text-anchor="middle" x="294" y="-7" font-family="Helvetica,sans-Serif" font-size="10.00">/TaskBuildIndex.cpp</text>
</a>
</g>
</g>
<!-- Node5&#45;&gt;Node6 -->
<g id="edge5" class="edge">
<title>Node5&#45;&gt;Node6</title>
<path fill="none" stroke="#63b8ff" d="M347.21,-79.59C338.08,-70.57 328.36,-60.96 319.75,-52.45"/>
<polygon fill="#63b8ff" stroke="#63b8ff" points="344.72,-82.06 354.29,-86.6 349.64,-77.08 344.72,-82.06"/>
</g>
<!-- Node7&#45;&gt;Node4 -->
<g id="edge9" class="edge">
<title>Node7&#45;&gt;Node4</title>
<path fill="none" stroke="#63b8ff" d="M528.54,-80.13C515.81,-68.96 501.99,-56.83 490.77,-46.98"/>
<polygon fill="#63b8ff" stroke="#63b8ff" points="526.16,-82.7 535.99,-86.66 530.78,-77.44 526.16,-82.7"/>
</g>
<!-- Node8 -->
<g id="node8" class="node">
<title>Node8</title>
<g id="a_node8"><a xlink:href="$TaskExecuteCustomCommands_8cpp.html" xlink:title=" ">
<polygon fill="white" stroke="#666666" points="760,-52 566,-52 566,0 760,0 760,-52"/>
<text text-anchor="start" x="574" y="-40" font-family="Helvetica,sans-Serif" font-size="10.00">/home/ahussein/Documents</text>
<text text-anchor="start" x="574" y="-29" font-family="Helvetica,sans-Serif" font-size="10.00">/sourceCode/Sourcetrail</text>
<text text-anchor="start" x="574" y="-18" font-family="Helvetica,sans-Serif" font-size="10.00">/src/src/lib/data/indexer</text>
<text text-anchor="middle" x="663" y="-7" font-family="Helvetica,sans-Serif" font-size="10.00">/TaskExecuteCustomCommands.cpp</text>
</a>
</g>
</g>
<!-- Node7&#45;&gt;Node8 -->
<g id="edge8" class="edge">
<title>Node7&#45;&gt;Node8</title>
<path fill="none" stroke="#63b8ff" d="M603.06,-80.15C613.41,-70.97 624.5,-61.13 634.29,-52.45"/>
<polygon fill="#63b8ff" stroke="#63b8ff" points="600.87,-77.41 595.71,-86.66 605.52,-82.64 600.87,-77.41"/>
</g>
<!-- Node9&#45;&gt;Node4 -->
<g id="edge12" class="edge">
<title>Node9&#45;&gt;Node4</title>
<path fill="none" stroke="#63b8ff" d="M666.84,-84.38C624.28,-72.1 575.59,-58.05 537.05,-46.93"/>
<polygon fill="#63b8ff" stroke="#63b8ff" points="665.77,-87.72 676.35,-87.13 667.71,-80.99 665.77,-87.72"/>
</g>
<!-- Node10 -->
<g id="node10" class="node">
<title>Node10</title>
<g id="a_node10"><a xlink:href="$TaskFillIndexerCommandQueue_8cpp.html" xlink:title=" ">
<polygon fill="white" stroke="#666666" points="972,-52 778,-52 778,0 972,0 972,-52"/>
<text text-anchor="start" x="786" y="-40" font-family="Helvetica,sans-Serif" font-size="10.00">/home/ahussein/Documents</text>
<text text-anchor="start" x="786" y="-29" font-family="Helvetica,sans-Serif" font-size="10.00">/sourceCode/Sourcetrail</text>
<text text-anchor="start" x="786" y="-18" font-family="Helvetica,sans-Serif" font-size="10.00">/src/src/lib/data/indexer</text>
<text text-anchor="middle" x="875" y="-7" font-family="Helvetica,sans-Serif" font-size="10.00">/TaskFillIndexerCommandQueue.cpp</text>
</a>
</g>
</g>
<!-- Node9&#45;&gt;Node10 -->
<g id="edge11" class="edge">
<title>Node9&#45;&gt;Node10</title>
<path fill="none" stroke="#63b8ff" d="M806.94,-80.7C818.77,-71.36 831.52,-61.31 842.74,-52.45"/>
<polygon fill="#63b8ff" stroke="#63b8ff" points="804.99,-77.78 799.3,-86.72 809.32,-83.28 804.99,-77.78"/>
</g>
</g>
</svg>
