<?xml version="1.0" encoding="UTF-8" standalone="no"?>
<!DOCTYPE svg PUBLIC "-//W3C//DTD SVG 1.1//EN"
 "http://www.w3.org/Graphics/SVG/1.1/DTD/svg11.dtd">
<!-- Generated by graphviz version 7.1.0 (0)
 -->
<!-- Title: /home/ahussein/Documents/sourceCode/Sourcetrail/src/src/lib/utility/messaging/filter_types/MessageFilterFocusInOut.h Pages: 1 -->
<svg width="642pt" height="335pt"
 viewBox="0.00 0.00 642.33 335.00" xmlns="http://www.w3.org/2000/svg" xmlns:xlink="http://www.w3.org/1999/xlink">
<g id="graph0" class="graph" transform="scale(1 1) rotate(0) translate(4 331)">
<title>/home/ahussein/Documents/sourceCode/Sourcetrail/src/src/lib/utility/messaging/filter_types/MessageFilterFocusInOut.h</title>
<!-- Node1 -->
<g id="node1" class="node">
<title>Node1</title>
<g id="a_node1"><a xlink:title=" ">
<polygon fill="#999999" stroke="#666666" points="414.33,-327 205.33,-327 205.33,-275 414.33,-275 414.33,-327"/>
<text text-anchor="start" x="213.33" y="-315" font-family="Helvetica,sans-Serif" font-size="10.00">/home/ahussein/Documents</text>
<text text-anchor="start" x="213.33" y="-304" font-family="Helvetica,sans-Serif" font-size="10.00">/sourceCode/Sourcetrail</text>
<text text-anchor="start" x="213.33" y="-293" font-family="Helvetica,sans-Serif" font-size="10.00">/src/src/lib/utility/messaging</text>
<text text-anchor="middle" x="309.83" y="-282" font-family="Helvetica,sans-Serif" font-size="10.00">/filter_types/MessageFilterFocusInOut.h</text>
</a>
</g>
</g>
<!-- Node2 -->
<g id="node2" class="node">
<title>Node2</title>
<g id="a_node2"><a xlink:href="$MessageFilter_8h.html" xlink:title=" ">
<polygon fill="white" stroke="#666666" points="634.33,-239 541.33,-239 541.33,-220 634.33,-220 634.33,-239"/>
<text text-anchor="middle" x="587.83" y="-227" font-family="Helvetica,sans-Serif" font-size="10.00">MessageFilter.h</text>
</a>
</g>
</g>
<!-- Node1&#45;&gt;Node2 -->
<g id="edge1" class="edge">
<title>Node1&#45;&gt;Node2</title>
<path fill="none" stroke="#63b8ff" d="M411.77,-274.52C456.1,-263.43 505.85,-251 541.13,-242.18"/>
<polygon fill="#63b8ff" stroke="#63b8ff" points="541.73,-245.63 550.58,-239.81 540.03,-238.84 541.73,-245.63"/>
</g>
<!-- Node10 -->
<g id="node10" class="node">
<title>Node10</title>
<g id="a_node10"><a xlink:href="$MessageFocusIn_8h.html" xlink:title=" ">
<polygon fill="white" stroke="#666666" points="362.83,-239 256.83,-239 256.83,-220 362.83,-220 362.83,-239"/>
<text text-anchor="middle" x="309.83" y="-227" font-family="Helvetica,sans-Serif" font-size="10.00">MessageFocusIn.h</text>
</a>
</g>
</g>
<!-- Node1&#45;&gt;Node10 -->
<g id="edge9" class="edge">
<title>Node1&#45;&gt;Node10</title>
<path fill="none" stroke="#63b8ff" d="M309.83,-274.52C309.83,-266.67 309.83,-258.15 309.83,-250.71"/>
<polygon fill="#63b8ff" stroke="#63b8ff" points="313.33,-250.71 309.83,-240.71 306.33,-250.71 313.33,-250.71"/>
</g>
<!-- Node20 -->
<g id="node20" class="node">
<title>Node20</title>
<g id="a_node20"><a xlink:href="$MessageFocusOut_8h.html" xlink:title=" ">
<polygon fill="white" stroke="#666666" points="238.83,-239 124.83,-239 124.83,-220 238.83,-220 238.83,-239"/>
<text text-anchor="middle" x="181.83" y="-227" font-family="Helvetica,sans-Serif" font-size="10.00">MessageFocusOut.h</text>
</a>
</g>
</g>
<!-- Node1&#45;&gt;Node20 -->
<g id="edge29" class="edge">
<title>Node1&#45;&gt;Node20</title>
<path fill="none" stroke="#63b8ff" d="M262.9,-274.52C244.46,-264.51 223.99,-253.39 208.23,-244.83"/>
<polygon fill="#63b8ff" stroke="#63b8ff" points="209.94,-241.78 199.49,-240.09 206.6,-247.93 209.94,-241.78"/>
</g>
<!-- Node3 -->
<g id="node3" class="node">
<title>Node3</title>
<g id="a_node3"><a xlink:href="$MessageQueue_8h.html" xlink:title=" ">
<polygon fill="white" stroke="#666666" points="469.33,-129 368.33,-129 368.33,-110 469.33,-110 469.33,-129"/>
<text text-anchor="middle" x="418.83" y="-117" font-family="Helvetica,sans-Serif" font-size="10.00">MessageQueue.h</text>
</a>
</g>
</g>
<!-- Node2&#45;&gt;Node3 -->
<g id="edge2" class="edge">
<title>Node2&#45;&gt;Node3</title>
<path fill="none" stroke="#63b8ff" d="M589.46,-219.93C591.49,-206.5 593.21,-180.46 579.83,-165 566.68,-149.8 520.55,-138.01 481.03,-130.4"/>
<polygon fill="#63b8ff" stroke="#63b8ff" points="481.78,-126.98 471.31,-128.59 480.5,-133.86 481.78,-126.98"/>
</g>
<!-- Node4 -->
<g id="node4" class="node">
<title>Node4</title>
<g id="a_node4"><a xlink:title=" ">
<polygon fill="#e0e0e0" stroke="#999999" points="391.33,-19 344.33,-19 344.33,0 391.33,0 391.33,-19"/>
<text text-anchor="middle" x="367.83" y="-7" font-family="Helvetica,sans-Serif" font-size="10.00">deque</text>
</a>
</g>
</g>
<!-- Node3&#45;&gt;Node4 -->
<g id="edge3" class="edge">
<title>Node3&#45;&gt;Node4</title>
<path fill="none" stroke="#63b8ff" d="M417.13,-109.53C414.53,-96.9 408.87,-73.38 399.83,-55 395.23,-45.63 388.69,-36.12 382.73,-28.31"/>
<polygon fill="#63b8ff" stroke="#63b8ff" points="385.59,-26.28 376.61,-20.65 380.11,-30.65 385.59,-26.28"/>
</g>
<!-- Node5 -->
<g id="node5" class="node">
<title>Node5</title>
<g id="a_node5"><a xlink:title=" ">
<polygon fill="#e0e0e0" stroke="#999999" points="390.83,-74 332.83,-74 332.83,-55 390.83,-55 390.83,-74"/>
<text text-anchor="middle" x="361.83" y="-62" font-family="Helvetica,sans-Serif" font-size="10.00">memory</text>
</a>
</g>
</g>
<!-- Node3&#45;&gt;Node5 -->
<g id="edge4" class="edge">
<title>Node3&#45;&gt;Node5</title>
<path fill="none" stroke="#63b8ff" d="M409.16,-109.51C401.09,-102 389.37,-91.1 379.61,-82.03"/>
<polygon fill="#63b8ff" stroke="#63b8ff" points="382.17,-79.63 372.47,-75.39 377.41,-84.76 382.17,-79.63"/>
</g>
<!-- Node6 -->
<g id="node6" class="node">
<title>Node6</title>
<g id="a_node6"><a xlink:title=" ">
<polygon fill="#e0e0e0" stroke="#999999" points="494.83,-74 446.83,-74 446.83,-55 494.83,-55 494.83,-74"/>
<text text-anchor="middle" x="470.83" y="-62" font-family="Helvetica,sans-Serif" font-size="10.00">mutex</text>
</a>
</g>
</g>
<!-- Node3&#45;&gt;Node6 -->
<g id="edge5" class="edge">
<title>Node3&#45;&gt;Node6</title>
<path fill="none" stroke="#63b8ff" d="M427.42,-109.75C434.68,-102.35 445.28,-91.54 454.2,-82.45"/>
<polygon fill="#63b8ff" stroke="#63b8ff" points="456.49,-85.11 461,-75.52 451.5,-80.21 456.49,-85.11"/>
</g>
<!-- Node7 -->
<g id="node7" class="node">
<title>Node7</title>
<g id="a_node7"><a xlink:title=" ">
<polygon fill="#e0e0e0" stroke="#999999" points="565.33,-19 518.33,-19 518.33,0 565.33,0 565.33,-19"/>
<text text-anchor="middle" x="541.83" y="-7" font-family="Helvetica,sans-Serif" font-size="10.00">vector</text>
</a>
</g>
</g>
<!-- Node3&#45;&gt;Node7 -->
<g id="edge6" class="edge">
<title>Node3&#45;&gt;Node7</title>
<path fill="none" stroke="#63b8ff" d="M444.16,-109.55C462.37,-102.16 486.64,-90.24 503.83,-74 517.11,-61.46 527.36,-43.26 533.85,-29.55"/>
<polygon fill="#63b8ff" stroke="#63b8ff" points="536.92,-31.27 537.79,-20.71 530.53,-28.42 536.92,-31.27"/>
</g>
<!-- Node8 -->
<g id="node8" class="node">
<title>Node8</title>
<g id="a_node8"><a xlink:href="$types_8h.html" xlink:title=" ">
<polygon fill="white" stroke="#666666" points="61.33,-74 8.33,-74 8.33,-55 61.33,-55 61.33,-74"/>
<text text-anchor="middle" x="34.83" y="-62" font-family="Helvetica,sans-Serif" font-size="10.00">types.h</text>
</a>
</g>
</g>
<!-- Node3&#45;&gt;Node8 -->
<g id="edge7" class="edge">
<title>Node3&#45;&gt;Node8</title>
<path fill="none" stroke="#63b8ff" d="M367.84,-111.46C289.73,-100.68 142.24,-80.32 72.8,-70.74"/>
<polygon fill="#63b8ff" stroke="#63b8ff" points="73.44,-67.3 63.06,-69.4 72.49,-74.23 73.44,-67.3"/>
</g>
<!-- Node9 -->
<g id="node9" class="node">
<title>Node9</title>
<g id="a_node9"><a xlink:title=" ">
<polygon fill="#e0e0e0" stroke="#999999" points="55.33,-19 2.33,-19 2.33,0 55.33,0 55.33,-19"/>
<text text-anchor="middle" x="28.83" y="-7" font-family="Helvetica,sans-Serif" font-size="10.00">cstddef</text>
</a>
</g>
</g>
<!-- Node8&#45;&gt;Node9 -->
<g id="edge8" class="edge">
<title>Node8&#45;&gt;Node9</title>
<path fill="none" stroke="#63b8ff" d="M33.84,-54.75C33.1,-48.19 32.05,-38.95 31.11,-30.6"/>
<polygon fill="#63b8ff" stroke="#63b8ff" points="34.62,-30.49 30.02,-20.95 27.66,-31.28 34.62,-30.49"/>
</g>
<!-- Node10&#45;&gt;Node7 -->
<g id="edge10" class="edge">
<title>Node10&#45;&gt;Node7</title>
<path fill="none" stroke="#63b8ff" d="M363.33,-227.56C433.97,-225.06 552.63,-216.06 579.83,-184 592.6,-168.96 641.77,-243.17 574.83,-55 571.34,-45.19 564.9,-35.71 558.63,-28.05"/>
<polygon fill="#63b8ff" stroke="#63b8ff" points="561.25,-25.73 552.01,-20.55 556,-30.37 561.25,-25.73"/>
</g>
<!-- Node10&#45;&gt;Node8 -->
<g id="edge28" class="edge">
<title>Node10&#45;&gt;Node8</title>
<path fill="none" stroke="#63b8ff" d="M284.02,-219.59C261.88,-211.52 229.43,-198.68 202.83,-184 145.87,-152.57 84.85,-105.82 54.44,-81.5"/>
<polygon fill="#63b8ff" stroke="#63b8ff" points="56.84,-78.95 46.86,-75.39 52.44,-84.4 56.84,-78.95"/>
</g>
<!-- Node11 -->
<g id="node11" class="node">
<title>Node11</title>
<g id="a_node11"><a xlink:href="$Message_8h.html" xlink:title=" ">
<polygon fill="white" stroke="#666666" points="280.33,-184 211.33,-184 211.33,-165 280.33,-165 280.33,-184"/>
<text text-anchor="middle" x="245.83" y="-172" font-family="Helvetica,sans-Serif" font-size="10.00">Message.h</text>
</a>
</g>
</g>
<!-- Node10&#45;&gt;Node11 -->
<g id="edge11" class="edge">
<title>Node10&#45;&gt;Node11</title>
<path fill="none" stroke="#63b8ff" d="M298.98,-219.51C289.73,-211.85 276.21,-200.66 265.12,-191.47"/>
<polygon fill="#63b8ff" stroke="#63b8ff" points="267.63,-189.01 257.69,-185.32 263.16,-194.4 267.63,-189.01"/>
</g>
<!-- Node18 -->
<g id="node18" class="node">
<title>Node18</title>
<g id="a_node18"><a xlink:href="$TabId_8h.html" xlink:title=" ">
<polygon fill="white" stroke="#666666" points="71.33,-184 20.33,-184 20.33,-165 71.33,-165 71.33,-184"/>
<text text-anchor="middle" x="45.83" y="-172" font-family="Helvetica,sans-Serif" font-size="10.00">TabId.h</text>
</a>
</g>
</g>
<!-- Node10&#45;&gt;Node18 -->
<g id="edge25" class="edge">
<title>Node10&#45;&gt;Node18</title>
<path fill="none" stroke="#63b8ff" d="M263.89,-219.56C218.59,-210.7 147.39,-196.65 85.83,-184 84.83,-183.79 83.81,-183.58 82.78,-183.37"/>
<polygon fill="#63b8ff" stroke="#63b8ff" points="83.63,-179.97 73.12,-181.35 82.19,-186.82 83.63,-179.97"/>
</g>
<!-- Node19 -->
<g id="node19" class="node">
<title>Node19</title>
<g id="a_node19"><a xlink:href="$TooltipOrigin_8h.html" xlink:title=" ">
<polygon fill="white" stroke="#666666" points="570.33,-184 483.33,-184 483.33,-165 570.33,-165 570.33,-184"/>
<text text-anchor="middle" x="526.83" y="-172" font-family="Helvetica,sans-Serif" font-size="10.00">TooltipOrigin.h</text>
</a>
</g>
</g>
<!-- Node10&#45;&gt;Node19 -->
<g id="edge27" class="edge">
<title>Node10&#45;&gt;Node19</title>
<path fill="none" stroke="#63b8ff" d="M346.64,-219.51C383.15,-210.59 439.26,-196.89 479.15,-187.15"/>
<polygon fill="#63b8ff" stroke="#63b8ff" points="479.85,-190.58 488.73,-184.81 478.19,-183.78 479.85,-190.58"/>
</g>
<!-- Node11&#45;&gt;Node3 -->
<g id="edge24" class="edge">
<title>Node11&#45;&gt;Node3</title>
<path fill="none" stroke="#63b8ff" d="M275.18,-164.51C303.72,-155.76 347.3,-142.42 378.97,-132.71"/>
<polygon fill="#63b8ff" stroke="#63b8ff" points="379.65,-136.17 388.18,-129.89 377.6,-129.47 379.65,-136.17"/>
</g>
<!-- Node11&#45;&gt;Node5 -->
<g id="edge12" class="edge">
<title>Node11&#45;&gt;Node5</title>
<path fill="none" stroke="#63b8ff" d="M255.33,-164.66C274.7,-146.62 319.06,-105.32 343.99,-82.12"/>
<polygon fill="#63b8ff" stroke="#63b8ff" points="346.17,-84.87 351.1,-75.49 341.4,-79.74 346.17,-84.87"/>
</g>
<!-- Node12 -->
<g id="node12" class="node">
<title>Node12</title>
<g id="a_node12"><a xlink:title=" ">
<polygon fill="#e0e0e0" stroke="#999999" points="117.83,-19 73.83,-19 73.83,0 117.83,0 117.83,-19"/>
<text text-anchor="middle" x="95.83" y="-7" font-family="Helvetica,sans-Serif" font-size="10.00">string</text>
</a>
</g>
</g>
<!-- Node11&#45;&gt;Node12 -->
<g id="edge13" class="edge">
<title>Node11&#45;&gt;Node12</title>
<path fill="none" stroke="#63b8ff" d="M211.31,-165.87C189.2,-159.38 161.28,-148.01 142.83,-129 116.07,-101.42 103.99,-56.72 98.99,-30.83"/>
<polygon fill="#63b8ff" stroke="#63b8ff" points="102.43,-30.23 97.28,-20.98 95.54,-31.43 102.43,-30.23"/>
</g>
<!-- Node13 -->
<g id="node13" class="node">
<title>Node13</title>
<g id="a_node13"><a xlink:href="$MessageBase_8h.html" xlink:title=" ">
<polygon fill="white" stroke="#666666" points="244.33,-129 151.33,-129 151.33,-110 244.33,-110 244.33,-129"/>
<text text-anchor="middle" x="197.83" y="-117" font-family="Helvetica,sans-Serif" font-size="10.00">MessageBase.h</text>
</a>
</g>
</g>
<!-- Node11&#45;&gt;Node13 -->
<g id="edge14" class="edge">
<title>Node11&#45;&gt;Node13</title>
<path fill="none" stroke="#63b8ff" d="M237.91,-164.75C231.28,-157.43 221.62,-146.76 213.44,-137.74"/>
<polygon fill="#63b8ff" stroke="#63b8ff" points="216.25,-135.63 206.95,-130.56 211.07,-140.33 216.25,-135.63"/>
</g>
<!-- Node13&#45;&gt;Node8 -->
<g id="edge17" class="edge">
<title>Node13&#45;&gt;Node8</title>
<path fill="none" stroke="#63b8ff" d="M170.18,-109.51C143.36,-100.79 102.46,-87.49 72.64,-77.79"/>
<polygon fill="#63b8ff" stroke="#63b8ff" points="73.84,-74.5 63.24,-74.74 71.67,-81.16 73.84,-74.5"/>
</g>
<!-- Node14 -->
<g id="node14" class="node">
<title>Node14</title>
<g id="a_node14"><a xlink:title=" ">
<polygon fill="#e0e0e0" stroke="#999999" points="314.33,-74 257.33,-74 257.33,-55 314.33,-55 314.33,-74"/>
<text text-anchor="middle" x="285.83" y="-62" font-family="Helvetica,sans-Serif" font-size="10.00">ostream</text>
</a>
</g>
</g>
<!-- Node13&#45;&gt;Node14 -->
<g id="edge15" class="edge">
<title>Node13&#45;&gt;Node14</title>
<path fill="none" stroke="#63b8ff" d="M212.76,-109.51C226.12,-101.47 245.94,-89.53 261.57,-80.11"/>
<polygon fill="#63b8ff" stroke="#63b8ff" points="263.07,-83.3 269.83,-75.14 259.46,-77.3 263.07,-83.3"/>
</g>
<!-- Node15 -->
<g id="node15" class="node">
<title>Node15</title>
<g id="a_node15"><a xlink:title=" ">
<polygon fill="#e0e0e0" stroke="#999999" points="191.83,-19 135.83,-19 135.83,0 191.83,0 191.83,-19"/>
<text text-anchor="middle" x="163.83" y="-7" font-family="Helvetica,sans-Serif" font-size="10.00">sstream</text>
</a>
</g>
</g>
<!-- Node13&#45;&gt;Node15 -->
<g id="edge16" class="edge">
<title>Node13&#45;&gt;Node15</title>
<path fill="none" stroke="#63b8ff" d="M182.4,-109.8C170.48,-102.11 154.87,-89.69 147.83,-74 141.43,-59.72 146.54,-42.43 152.63,-29.51"/>
<polygon fill="#63b8ff" stroke="#63b8ff" points="155.66,-31.26 157.26,-20.79 149.48,-27.98 155.66,-31.26"/>
</g>
<!-- Node16 -->
<g id="node16" class="node">
<title>Node16</title>
<g id="a_node16"><a xlink:href="$utilityString_8h.html" xlink:title=" ">
<polygon fill="white" stroke="#666666" points="239.33,-74 156.33,-74 156.33,-55 239.33,-55 239.33,-74"/>
<text text-anchor="middle" x="197.83" y="-62" font-family="Helvetica,sans-Serif" font-size="10.00">utilityString.h</text>
</a>
</g>
</g>
<!-- Node13&#45;&gt;Node16 -->
<g id="edge18" class="edge">
<title>Node13&#45;&gt;Node16</title>
<path fill="none" stroke="#63b8ff" d="M197.83,-109.75C197.83,-103.27 197.83,-94.16 197.83,-85.9"/>
<polygon fill="#63b8ff" stroke="#63b8ff" points="201.33,-85.96 197.83,-75.96 194.33,-85.96 201.33,-85.96"/>
</g>
<!-- Node16&#45;&gt;Node4 -->
<g id="edge20" class="edge">
<title>Node16&#45;&gt;Node4</title>
<path fill="none" stroke="#63b8ff" d="M226.67,-54.51C256.12,-45.33 301.83,-31.08 333.22,-21.29"/>
<polygon fill="#63b8ff" stroke="#63b8ff" points="334.12,-24.68 342.63,-18.36 332.04,-17.99 334.12,-24.68"/>
</g>
<!-- Node16&#45;&gt;Node7 -->
<g id="edge23" class="edge">
<title>Node16&#45;&gt;Node7</title>
<path fill="none" stroke="#63b8ff" d="M239.57,-56.49C242.71,-55.98 245.82,-55.48 248.83,-55 341.85,-40.19 451.67,-23.8 506.69,-15.67"/>
<polygon fill="#63b8ff" stroke="#63b8ff" points="507.01,-19.16 516.39,-14.24 505.99,-12.24 507.01,-19.16"/>
</g>
<!-- Node16&#45;&gt;Node12 -->
<g id="edge22" class="edge">
<title>Node16&#45;&gt;Node12</title>
<path fill="none" stroke="#63b8ff" d="M180.53,-54.51C164.76,-46.31 141.2,-34.07 122.93,-24.58"/>
<polygon fill="#63b8ff" stroke="#63b8ff" points="124.71,-21.56 114.22,-20.06 121.48,-27.77 124.71,-21.56"/>
</g>
<!-- Node16&#45;&gt;Node15 -->
<g id="edge21" class="edge">
<title>Node16&#45;&gt;Node15</title>
<path fill="none" stroke="#63b8ff" d="M192.22,-54.75C187.72,-47.73 181.25,-37.64 175.62,-28.87"/>
<polygon fill="#63b8ff" stroke="#63b8ff" points="178.73,-27.24 170.39,-20.72 172.84,-31.02 178.73,-27.24"/>
</g>
<!-- Node17 -->
<g id="node17" class="node">
<title>Node17</title>
<g id="a_node17"><a xlink:title=" ">
<polygon fill="#e0e0e0" stroke="#999999" points="273.83,-19 209.83,-19 209.83,0 273.83,0 273.83,-19"/>
<text text-anchor="middle" x="241.83" y="-7" font-family="Helvetica,sans-Serif" font-size="10.00">algorithm</text>
</a>
</g>
</g>
<!-- Node16&#45;&gt;Node17 -->
<g id="edge19" class="edge">
<title>Node16&#45;&gt;Node17</title>
<path fill="none" stroke="#63b8ff" d="M205.1,-54.75C211.11,-47.5 219.85,-36.98 227.29,-28.02"/>
<polygon fill="#63b8ff" stroke="#63b8ff" points="229.75,-30.54 233.44,-20.61 224.36,-26.07 229.75,-30.54"/>
</g>
<!-- Node18&#45;&gt;Node8 -->
<g id="edge26" class="edge">
<title>Node18&#45;&gt;Node8</title>
<path fill="none" stroke="#63b8ff" d="M44.93,-164.66C43.18,-147.5 39.29,-109.26 36.88,-85.6"/>
<polygon fill="#63b8ff" stroke="#63b8ff" points="40.39,-85.56 35.9,-75.97 33.43,-86.27 40.39,-85.56"/>
</g>
<!-- Node20&#45;&gt;Node7 -->
<g id="edge30" class="edge">
<title>Node20&#45;&gt;Node7</title>
<path fill="none" stroke="#63b8ff" d="M236.52,-219.51C299.35,-207.17 403.48,-180.41 478.83,-129 505.16,-111.04 510.14,-102.28 524.83,-74 531.93,-60.33 536.27,-43.42 538.79,-30.48"/>
<polygon fill="#63b8ff" stroke="#63b8ff" points="542.24,-31.09 540.48,-20.64 535.34,-29.9 542.24,-31.09"/>
</g>
<!-- Node20&#45;&gt;Node8 -->
<g id="edge33" class="edge">
<title>Node20&#45;&gt;Node8</title>
<path fill="none" stroke="#63b8ff" d="M124.51,-221.15C80.45,-214.19 24.81,-202.08 10.83,-184 -11.87,-154.63 8.24,-109.3 22.85,-84.06"/>
<polygon fill="#63b8ff" stroke="#63b8ff" points="25.8,-85.95 28.03,-75.59 19.83,-82.3 25.8,-85.95"/>
</g>
<!-- Node20&#45;&gt;Node11 -->
<g id="edge31" class="edge">
<title>Node20&#45;&gt;Node11</title>
<path fill="none" stroke="#63b8ff" d="M192.69,-219.51C201.94,-211.85 215.46,-200.66 226.54,-191.47"/>
<polygon fill="#63b8ff" stroke="#63b8ff" points="228.5,-194.4 233.97,-185.32 224.04,-189.01 228.5,-194.4"/>
</g>
<!-- Node20&#45;&gt;Node18 -->
<g id="edge32" class="edge">
<title>Node20&#45;&gt;Node18</title>
<path fill="none" stroke="#63b8ff" d="M158.76,-219.51C136.94,-211.01 103.95,-198.15 79.26,-188.53"/>
<polygon fill="#63b8ff" stroke="#63b8ff" points="80.56,-185.28 69.97,-184.91 78.02,-191.8 80.56,-185.28"/>
</g>
</g>
</svg>
