<?xml version="1.0" encoding="UTF-8" standalone="no"?>
<!DOCTYPE svg PUBLIC "-//W3C//DTD SVG 1.1//EN"
 "http://www.w3.org/Graphics/SVG/1.1/DTD/svg11.dtd">
<!-- Generated by graphviz version 9.0.0 (0)
 -->
<!-- Title: /home/ahussein/Documents/archive/opensourcesourcetrail.github.io/.ignore/src/src/lib/utility/messaging/type/error/MessageErrorCountClear.h Pages: 1 -->
<svg width="2138pt" height="352pt"
 viewBox="0.00 0.00 2137.62 352.00" xmlns="http://www.w3.org/2000/svg" xmlns:xlink="http://www.w3.org/1999/xlink">
<g id="graph0" class="graph" transform="scale(1 1) rotate(0) translate(4 348)">
<title>/home/ahussein/Documents/archive/opensourcesourcetrail.github.io/.ignore/src/src/lib/utility/messaging/type/error/MessageErrorCountClear.h</title>
<!-- Node1 -->
<g id="Node000001" class="node">
<title>Node1</title>
<g id="a_Node000001"><a xlink:title=" ">
<polygon fill="#999999" stroke="#666666" points="1595.75,-344 1384,-344 1384,-285 1595.75,-285 1595.75,-344"/>
<text text-anchor="start" x="1392" y="-330.5" font-family="Helvetica,sans-Serif" font-size="10.00">/home/ahussein/Documents</text>
<text text-anchor="start" x="1392" y="-317.75" font-family="Helvetica,sans-Serif" font-size="10.00">/archive/opensourcesourcetrail.github.io</text>
<text text-anchor="start" x="1392" y="-305" font-family="Helvetica,sans-Serif" font-size="10.00">/.ignore/src/src/lib/utility/messaging</text>
<text text-anchor="middle" x="1489.88" y="-292.25" font-family="Helvetica,sans-Serif" font-size="10.00">/type/error/MessageErrorCountClear.h</text>
</a>
</g>
</g>
<!-- Node2 -->
<g id="Node000002" class="node">
<title>Node2</title>
<g id="a_Node000002"><a xlink:href="CodeController_8h.html" target="_top" xlink:title=" ">
<polygon fill="white" stroke="#666666" points="671.75,-249 460,-249 460,-190 671.75,-190 671.75,-249"/>
<text text-anchor="start" x="468" y="-235.5" font-family="Helvetica,sans-Serif" font-size="10.00">/home/ahussein/Documents</text>
<text text-anchor="start" x="468" y="-222.75" font-family="Helvetica,sans-Serif" font-size="10.00">/archive/opensourcesourcetrail.github.io</text>
<text text-anchor="start" x="468" y="-210" font-family="Helvetica,sans-Serif" font-size="10.00">/.ignore/src/src/lib/component/controller</text>
<text text-anchor="middle" x="565.88" y="-197.25" font-family="Helvetica,sans-Serif" font-size="10.00">/CodeController.h</text>
</a>
</g>
</g>
<!-- Node1&#45;&gt;Node2 -->
<g id="edge1_Node000001_Node000002" class="edge">
<title>Node1&#45;&gt;Node2</title>
<g id="a_edge1_Node000001_Node000002"><a xlink:title=" ">
<path fill="none" stroke="#63b8ff" d="M1372.45,-301.68C1191.24,-283.44 846.2,-248.71 672.05,-231.19"/>
<polygon fill="#63b8ff" stroke="#63b8ff" points="1372.07,-305.16 1382.37,-302.68 1372.78,-298.2 1372.07,-305.16"/>
</a>
</g>
</g>
<!-- Node7 -->
<g id="Node000007" class="node">
<title>Node7</title>
<g id="a_Node000007"><a xlink:href="ErrorController_8h.html" target="_top" xlink:title=" ">
<polygon fill="white" stroke="#666666" points="1250.75,-249 1039,-249 1039,-190 1250.75,-190 1250.75,-249"/>
<text text-anchor="start" x="1047" y="-235.5" font-family="Helvetica,sans-Serif" font-size="10.00">/home/ahussein/Documents</text>
<text text-anchor="start" x="1047" y="-222.75" font-family="Helvetica,sans-Serif" font-size="10.00">/archive/opensourcesourcetrail.github.io</text>
<text text-anchor="start" x="1047" y="-210" font-family="Helvetica,sans-Serif" font-size="10.00">/.ignore/src/src/lib/component/controller</text>
<text text-anchor="middle" x="1144.88" y="-197.25" font-family="Helvetica,sans-Serif" font-size="10.00">/ErrorController.h</text>
</a>
</g>
</g>
<!-- Node1&#45;&gt;Node7 -->
<g id="edge6_Node000001_Node000007" class="edge">
<title>Node1&#45;&gt;Node7</title>
<g id="a_edge6_Node000001_Node000007"><a xlink:title=" ">
<path fill="none" stroke="#63b8ff" d="M1372.57,-281.88C1333.23,-271.27 1289.6,-259.51 1251.15,-249.15"/>
<polygon fill="#63b8ff" stroke="#63b8ff" points="1371.52,-285.22 1382.09,-284.44 1373.34,-278.46 1371.52,-285.22"/>
</a>
</g>
</g>
<!-- Node12 -->
<g id="Node000012" class="node">
<title>Node12</title>
<g id="a_Node000012"><a xlink:href="StatusBarController_8h.html" target="_top" xlink:title=" ">
<polygon fill="white" stroke="#666666" points="1595.75,-249 1384,-249 1384,-190 1595.75,-190 1595.75,-249"/>
<text text-anchor="start" x="1392" y="-235.5" font-family="Helvetica,sans-Serif" font-size="10.00">/home/ahussein/Documents</text>
<text text-anchor="start" x="1392" y="-222.75" font-family="Helvetica,sans-Serif" font-size="10.00">/archive/opensourcesourcetrail.github.io</text>
<text text-anchor="start" x="1392" y="-210" font-family="Helvetica,sans-Serif" font-size="10.00">/.ignore/src/src/lib/component/controller</text>
<text text-anchor="middle" x="1489.88" y="-197.25" font-family="Helvetica,sans-Serif" font-size="10.00">/StatusBarController.h</text>
</a>
</g>
</g>
<!-- Node1&#45;&gt;Node12 -->
<g id="edge12_Node000001_Node000012" class="edge">
<title>Node1&#45;&gt;Node12</title>
<g id="a_edge12_Node000001_Node000012"><a xlink:title=" ">
<path fill="none" stroke="#63b8ff" d="M1489.88,-273.16C1489.88,-265.16 1489.88,-256.92 1489.88,-249.4"/>
<polygon fill="#63b8ff" stroke="#63b8ff" points="1486.38,-273.07 1489.88,-283.07 1493.38,-273.07 1486.38,-273.07"/>
</a>
</g>
</g>
<!-- Node16 -->
<g id="Node000016" class="node">
<title>Node16</title>
<g id="a_Node000016"><a xlink:href="TaskExecuteCustomCommands_8cpp.html" target="_top" xlink:title=" ">
<polygon fill="white" stroke="#666666" points="1825.75,-249 1614,-249 1614,-190 1825.75,-190 1825.75,-249"/>
<text text-anchor="start" x="1622" y="-235.5" font-family="Helvetica,sans-Serif" font-size="10.00">/home/ahussein/Documents</text>
<text text-anchor="start" x="1622" y="-222.75" font-family="Helvetica,sans-Serif" font-size="10.00">/archive/opensourcesourcetrail.github.io</text>
<text text-anchor="start" x="1622" y="-210" font-family="Helvetica,sans-Serif" font-size="10.00">/.ignore/src/src/lib/data/indexer</text>
<text text-anchor="middle" x="1719.88" y="-197.25" font-family="Helvetica,sans-Serif" font-size="10.00">/TaskExecuteCustomCommands.cpp</text>
</a>
</g>
</g>
<!-- Node1&#45;&gt;Node16 -->
<g id="edge17_Node000001_Node000016" class="edge">
<title>Node1&#45;&gt;Node16</title>
<g id="a_edge17_Node000001_Node000016"><a xlink:title=" ">
<path fill="none" stroke="#63b8ff" d="M1571.94,-280.32C1596.93,-270.21 1624.18,-259.19 1648.41,-249.4"/>
<polygon fill="#63b8ff" stroke="#63b8ff" points="1570.75,-277.02 1562.79,-284.02 1573.37,-283.51 1570.75,-277.02"/>
</a>
</g>
</g>
<!-- Node17 -->
<g id="Node000017" class="node">
<title>Node17</title>
<g id="a_Node000017"><a xlink:href="Project_8cpp.html" target="_top" xlink:title=" ">
<polygon fill="white" stroke="#666666" points="2055.75,-242.62 1844,-242.62 1844,-196.38 2055.75,-196.38 2055.75,-242.62"/>
<text text-anchor="start" x="1852" y="-229.12" font-family="Helvetica,sans-Serif" font-size="10.00">/home/ahussein/Documents</text>
<text text-anchor="start" x="1852" y="-216.38" font-family="Helvetica,sans-Serif" font-size="10.00">/archive/opensourcesourcetrail.github.io</text>
<text text-anchor="middle" x="1949.88" y="-203.62" font-family="Helvetica,sans-Serif" font-size="10.00">/.ignore/src/src/lib/project/Project.cpp</text>
</a>
</g>
</g>
<!-- Node1&#45;&gt;Node17 -->
<g id="edge18_Node000001_Node000017" class="edge">
<title>Node1&#45;&gt;Node17</title>
<g id="a_edge18_Node000001_Node000017"><a xlink:title=" ">
<path fill="none" stroke="#63b8ff" d="M1606.89,-293.37C1673.84,-281.41 1759.29,-265.42 1834.88,-249 1843.32,-247.17 1852.08,-245.17 1860.84,-243.11"/>
<polygon fill="#63b8ff" stroke="#63b8ff" points="1606.61,-289.86 1597.38,-295.06 1607.84,-296.75 1606.61,-289.86"/>
</a>
</g>
</g>
<!-- Node3 -->
<g id="Node000003" class="node">
<title>Node3</title>
<g id="a_Node000003"><a xlink:href="ComponentFactory_8cpp.html" target="_top" xlink:title=" ">
<polygon fill="white" stroke="#666666" points="963.88,-147.62 689.88,-147.62 689.88,-101.38 963.88,-101.38 963.88,-147.62"/>
<text text-anchor="start" x="697.88" y="-134.12" font-family="Helvetica,sans-Serif" font-size="10.00">/home/ahussein/Documents</text>
<text text-anchor="start" x="697.88" y="-121.38" font-family="Helvetica,sans-Serif" font-size="10.00">/archive/opensourcesourcetrail.github.io</text>
<text text-anchor="middle" x="826.88" y="-108.62" font-family="Helvetica,sans-Serif" font-size="10.00">/.ignore/src/src/lib/component/ComponentFactory.cpp</text>
</a>
</g>
</g>
<!-- Node2&#45;&gt;Node3 -->
<g id="edge2_Node000002_Node000003" class="edge">
<title>Node2&#45;&gt;Node3</title>
<g id="a_edge2_Node000002_Node000003"><a xlink:title=" ">
<path fill="none" stroke="#63b8ff" d="M657.75,-185.76C692.75,-173.29 731.83,-159.37 763.6,-148.05"/>
<polygon fill="#63b8ff" stroke="#63b8ff" points="656.7,-182.42 648.45,-189.08 659.05,-189.02 656.7,-182.42"/>
</a>
</g>
</g>
<!-- Node4 -->
<g id="Node000004" class="node">
<title>Node4</title>
<g id="a_Node000004"><a xlink:href="CodeController_8cpp.html" target="_top" xlink:title=" ">
<polygon fill="white" stroke="#666666" points="211.75,-154 0,-154 0,-95 211.75,-95 211.75,-154"/>
<text text-anchor="start" x="8" y="-140.5" font-family="Helvetica,sans-Serif" font-size="10.00">/home/ahussein/Documents</text>
<text text-anchor="start" x="8" y="-127.75" font-family="Helvetica,sans-Serif" font-size="10.00">/archive/opensourcesourcetrail.github.io</text>
<text text-anchor="start" x="8" y="-115" font-family="Helvetica,sans-Serif" font-size="10.00">/.ignore/src/src/lib/component/controller</text>
<text text-anchor="middle" x="105.88" y="-102.25" font-family="Helvetica,sans-Serif" font-size="10.00">/CodeController.cpp</text>
</a>
</g>
</g>
<!-- Node2&#45;&gt;Node4 -->
<g id="edge3_Node000002_Node000004" class="edge">
<title>Node2&#45;&gt;Node4</title>
<g id="a_edge3_Node000002_Node000004"><a xlink:title=" ">
<path fill="none" stroke="#63b8ff" d="M448.86,-198.37C381.91,-186.41 296.46,-170.42 220.88,-154 217.96,-153.37 215.01,-152.71 212.03,-152.05"/>
<polygon fill="#63b8ff" stroke="#63b8ff" points="447.91,-201.75 458.37,-200.06 449.14,-194.86 447.91,-201.75"/>
</a>
</g>
</g>
<!-- Node5 -->
<g id="Node000005" class="node">
<title>Node5</title>
<g id="a_Node000005"><a xlink:href="CodeView_8cpp.html" target="_top" xlink:title=" ">
<polygon fill="white" stroke="#666666" points="441.75,-154 230,-154 230,-95 441.75,-95 441.75,-154"/>
<text text-anchor="start" x="238" y="-140.5" font-family="Helvetica,sans-Serif" font-size="10.00">/home/ahussein/Documents</text>
<text text-anchor="start" x="238" y="-127.75" font-family="Helvetica,sans-Serif" font-size="10.00">/archive/opensourcesourcetrail.github.io</text>
<text text-anchor="start" x="238" y="-115" font-family="Helvetica,sans-Serif" font-size="10.00">/.ignore/src/src/lib/component/view</text>
<text text-anchor="middle" x="335.88" y="-102.25" font-family="Helvetica,sans-Serif" font-size="10.00">/CodeView.cpp</text>
</a>
</g>
</g>
<!-- Node2&#45;&gt;Node5 -->
<g id="edge4_Node000002_Node000005" class="edge">
<title>Node2&#45;&gt;Node5</title>
<g id="a_edge4_Node000002_Node000005"><a xlink:title=" ">
<path fill="none" stroke="#63b8ff" d="M483.81,-185.32C458.82,-175.21 431.57,-164.19 407.34,-154.4"/>
<polygon fill="#63b8ff" stroke="#63b8ff" points="482.38,-188.51 492.96,-189.02 485,-182.02 482.38,-188.51"/>
</a>
</g>
</g>
<!-- Node6 -->
<g id="Node000006" class="node">
<title>Node6</title>
<g id="a_Node000006"><a xlink:href="QtCodeView_8cpp.html" target="_top" xlink:title=" ">
<polygon fill="white" stroke="#666666" points="671.75,-154 460,-154 460,-95 671.75,-95 671.75,-154"/>
<text text-anchor="start" x="468" y="-140.5" font-family="Helvetica,sans-Serif" font-size="10.00">/home/ahussein/Documents</text>
<text text-anchor="start" x="468" y="-127.75" font-family="Helvetica,sans-Serif" font-size="10.00">/archive/opensourcesourcetrail.github.io</text>
<text text-anchor="start" x="468" y="-115" font-family="Helvetica,sans-Serif" font-size="10.00">/.ignore/src/src/lib_gui/qt/view</text>
<text text-anchor="middle" x="565.88" y="-102.25" font-family="Helvetica,sans-Serif" font-size="10.00">/QtCodeView.cpp</text>
</a>
</g>
</g>
<!-- Node2&#45;&gt;Node6 -->
<g id="edge5_Node000002_Node000006" class="edge">
<title>Node2&#45;&gt;Node6</title>
<g id="a_edge5_Node000002_Node000006"><a xlink:title=" ">
<path fill="none" stroke="#63b8ff" d="M565.88,-178.16C565.88,-170.16 565.88,-161.92 565.88,-154.4"/>
<polygon fill="#63b8ff" stroke="#63b8ff" points="562.38,-178.07 565.88,-188.07 569.38,-178.07 562.38,-178.07"/>
</a>
</g>
</g>
<!-- Node7&#45;&gt;Node3 -->
<g id="edge7_Node000007_Node000003" class="edge">
<title>Node7&#45;&gt;Node3</title>
<g id="a_edge7_Node000007_Node000003"><a xlink:title=" ">
<path fill="none" stroke="#63b8ff" d="M1035.16,-186.41C992.05,-173.8 943.56,-159.63 904.23,-148.12"/>
<polygon fill="#63b8ff" stroke="#63b8ff" points="1033.97,-189.71 1044.55,-189.16 1035.93,-182.99 1033.97,-189.71"/>
</a>
</g>
</g>
<!-- Node8 -->
<g id="Node000008" class="node">
<title>Node8</title>
<g id="a_Node000008"><a xlink:href="ErrorController_8cpp.html" target="_top" xlink:title=" ">
<polygon fill="white" stroke="#666666" points="1193.75,-154 982,-154 982,-95 1193.75,-95 1193.75,-154"/>
<text text-anchor="start" x="990" y="-140.5" font-family="Helvetica,sans-Serif" font-size="10.00">/home/ahussein/Documents</text>
<text text-anchor="start" x="990" y="-127.75" font-family="Helvetica,sans-Serif" font-size="10.00">/archive/opensourcesourcetrail.github.io</text>
<text text-anchor="start" x="990" y="-115" font-family="Helvetica,sans-Serif" font-size="10.00">/.ignore/src/src/lib/component/controller</text>
<text text-anchor="middle" x="1087.88" y="-102.25" font-family="Helvetica,sans-Serif" font-size="10.00">/ErrorController.cpp</text>
</a>
</g>
</g>
<!-- Node7&#45;&gt;Node8 -->
<g id="edge8_Node000007_Node000008" class="edge">
<title>Node7&#45;&gt;Node8</title>
<g id="a_edge8_Node000007_Node000008"><a xlink:title=" ">
<path fill="none" stroke="#63b8ff" d="M1121.17,-179.83C1115.96,-171.32 1110.52,-162.45 1105.59,-154.4"/>
<polygon fill="#63b8ff" stroke="#63b8ff" points="1118.15,-181.6 1126.36,-188.29 1124.12,-177.94 1118.15,-181.6"/>
</a>
</g>
</g>
<!-- Node9 -->
<g id="Node000009" class="node">
<title>Node9</title>
<g id="a_Node000009"><a xlink:href="QtErrorView_8h.html" target="_top" xlink:title=" ">
<polygon fill="white" stroke="#666666" points="1423.75,-154 1212,-154 1212,-95 1423.75,-95 1423.75,-154"/>
<text text-anchor="start" x="1220" y="-140.5" font-family="Helvetica,sans-Serif" font-size="10.00">/home/ahussein/Documents</text>
<text text-anchor="start" x="1220" y="-127.75" font-family="Helvetica,sans-Serif" font-size="10.00">/archive/opensourcesourcetrail.github.io</text>
<text text-anchor="start" x="1220" y="-115" font-family="Helvetica,sans-Serif" font-size="10.00">/.ignore/src/src/lib_gui/qt/view</text>
<text text-anchor="middle" x="1317.88" y="-102.25" font-family="Helvetica,sans-Serif" font-size="10.00">/QtErrorView.h</text>
</a>
</g>
</g>
<!-- Node7&#45;&gt;Node9 -->
<g id="edge9_Node000007_Node000009" class="edge">
<title>Node7&#45;&gt;Node9</title>
<g id="a_edge9_Node000007_Node000009"><a xlink:title=" ">
<path fill="none" stroke="#63b8ff" d="M1208.62,-184.23C1226.86,-174.43 1246.55,-163.84 1264.12,-154.4"/>
<polygon fill="#63b8ff" stroke="#63b8ff" points="1207.15,-181.05 1200,-188.87 1210.46,-187.22 1207.15,-181.05"/>
</a>
</g>
</g>
<!-- Node10 -->
<g id="Node000010" class="node">
<title>Node10</title>
<g id="a_Node000010"><a xlink:href="QtErrorView_8cpp.html" target="_top" xlink:title=" ">
<polygon fill="white" stroke="#666666" points="1308.75,-59 1097,-59 1097,0 1308.75,0 1308.75,-59"/>
<text text-anchor="start" x="1105" y="-45.5" font-family="Helvetica,sans-Serif" font-size="10.00">/home/ahussein/Documents</text>
<text text-anchor="start" x="1105" y="-32.75" font-family="Helvetica,sans-Serif" font-size="10.00">/archive/opensourcesourcetrail.github.io</text>
<text text-anchor="start" x="1105" y="-20" font-family="Helvetica,sans-Serif" font-size="10.00">/.ignore/src/src/lib_gui/qt/view</text>
<text text-anchor="middle" x="1202.88" y="-7.25" font-family="Helvetica,sans-Serif" font-size="10.00">/QtErrorView.cpp</text>
</a>
</g>
</g>
<!-- Node9&#45;&gt;Node10 -->
<g id="edge10_Node000009_Node000010" class="edge">
<title>Node9&#45;&gt;Node10</title>
<g id="a_edge10_Node000009_Node000010"><a xlink:title=" ">
<path fill="none" stroke="#63b8ff" d="M1273.47,-87.59C1261.93,-78.26 1249.64,-68.32 1238.61,-59.4"/>
<polygon fill="#63b8ff" stroke="#63b8ff" points="1270.97,-90.07 1280.94,-93.63 1275.37,-84.62 1270.97,-90.07"/>
</a>
</g>
</g>
<!-- Node11 -->
<g id="Node000011" class="node">
<title>Node11</title>
<g id="a_Node000011"><a xlink:href="QtViewFactory_8cpp.html" target="_top" xlink:title=" ">
<polygon fill="white" stroke="#666666" points="1538.75,-59 1327,-59 1327,0 1538.75,0 1538.75,-59"/>
<text text-anchor="start" x="1335" y="-45.5" font-family="Helvetica,sans-Serif" font-size="10.00">/home/ahussein/Documents</text>
<text text-anchor="start" x="1335" y="-32.75" font-family="Helvetica,sans-Serif" font-size="10.00">/archive/opensourcesourcetrail.github.io</text>
<text text-anchor="start" x="1335" y="-20" font-family="Helvetica,sans-Serif" font-size="10.00">/.ignore/src/src/lib_gui/qt/view</text>
<text text-anchor="middle" x="1432.88" y="-7.25" font-family="Helvetica,sans-Serif" font-size="10.00">/QtViewFactory.cpp</text>
</a>
</g>
</g>
<!-- Node9&#45;&gt;Node11 -->
<g id="edge11_Node000009_Node000011" class="edge">
<title>Node9&#45;&gt;Node11</title>
<g id="a_edge11_Node000009_Node000011"><a xlink:title=" ">
<path fill="none" stroke="#63b8ff" d="M1362.28,-87.59C1373.82,-78.26 1386.11,-68.32 1397.14,-59.4"/>
<polygon fill="#63b8ff" stroke="#63b8ff" points="1360.38,-84.62 1354.81,-93.63 1364.78,-90.07 1360.38,-84.62"/>
</a>
</g>
</g>
<!-- Node12&#45;&gt;Node3 -->
<g id="edge13_Node000012_Node000003" class="edge">
<title>Node12&#45;&gt;Node3</title>
<g id="a_edge13_Node000012_Node000003"><a xlink:title=" ">
<path fill="none" stroke="#63b8ff" d="M1372.46,-203.95C1222.97,-185.42 982.69,-155.57 972.88,-154 961.65,-152.21 949.98,-150.19 938.33,-148.07"/>
<polygon fill="#63b8ff" stroke="#63b8ff" points="1371.65,-207.38 1382.01,-205.14 1372.51,-200.43 1371.65,-207.38"/>
</a>
</g>
</g>
<!-- Node13 -->
<g id="Node000013" class="node">
<title>Node13</title>
<g id="a_Node000013"><a xlink:href="StatusBarController_8cpp.html" target="_top" xlink:title=" ">
<polygon fill="white" stroke="#666666" points="1653.75,-154 1442,-154 1442,-95 1653.75,-95 1653.75,-154"/>
<text text-anchor="start" x="1450" y="-140.5" font-family="Helvetica,sans-Serif" font-size="10.00">/home/ahussein/Documents</text>
<text text-anchor="start" x="1450" y="-127.75" font-family="Helvetica,sans-Serif" font-size="10.00">/archive/opensourcesourcetrail.github.io</text>
<text text-anchor="start" x="1450" y="-115" font-family="Helvetica,sans-Serif" font-size="10.00">/.ignore/src/src/lib/component/controller</text>
<text text-anchor="middle" x="1547.88" y="-102.25" font-family="Helvetica,sans-Serif" font-size="10.00">/StatusBarController.cpp</text>
</a>
</g>
</g>
<!-- Node12&#45;&gt;Node13 -->
<g id="edge14_Node000012_Node000013" class="edge">
<title>Node12&#45;&gt;Node13</title>
<g id="a_edge14_Node000012_Node000013"><a xlink:title=" ">
<path fill="none" stroke="#63b8ff" d="M1513.99,-179.83C1519.3,-171.32 1524.83,-162.45 1529.85,-154.4"/>
<polygon fill="#63b8ff" stroke="#63b8ff" points="1511.03,-177.96 1508.71,-188.3 1516.97,-181.67 1511.03,-177.96"/>
</a>
</g>
</g>
<!-- Node14 -->
<g id="Node000014" class="node">
<title>Node14</title>
<g id="a_Node000014"><a xlink:href="StatusBarView_8cpp.html" target="_top" xlink:title=" ">
<polygon fill="white" stroke="#666666" points="1883.75,-154 1672,-154 1672,-95 1883.75,-95 1883.75,-154"/>
<text text-anchor="start" x="1680" y="-140.5" font-family="Helvetica,sans-Serif" font-size="10.00">/home/ahussein/Documents</text>
<text text-anchor="start" x="1680" y="-127.75" font-family="Helvetica,sans-Serif" font-size="10.00">/archive/opensourcesourcetrail.github.io</text>
<text text-anchor="start" x="1680" y="-115" font-family="Helvetica,sans-Serif" font-size="10.00">/.ignore/src/src/lib/component/view</text>
<text text-anchor="middle" x="1777.88" y="-102.25" font-family="Helvetica,sans-Serif" font-size="10.00">/StatusBarView.cpp</text>
</a>
</g>
</g>
<!-- Node12&#45;&gt;Node14 -->
<g id="edge15_Node000012_Node000014" class="edge">
<title>Node12&#45;&gt;Node14</title>
<g id="a_edge15_Node000012_Node000014"><a xlink:title=" ">
<path fill="none" stroke="#63b8ff" d="M1590.13,-186.13C1622.09,-175.8 1657.23,-164.46 1688.38,-154.4"/>
<polygon fill="#63b8ff" stroke="#63b8ff" points="1589.3,-182.72 1580.86,-189.12 1591.45,-189.38 1589.3,-182.72"/>
</a>
</g>
</g>
<!-- Node15 -->
<g id="Node000015" class="node">
<title>Node15</title>
<g id="a_Node000015"><a xlink:href="StatusBarControllerTestSuite_8cpp.html" target="_top" xlink:title=" ">
<polygon fill="white" stroke="#666666" points="2129.62,-154 1902.12,-154 1902.12,-95 2129.62,-95 2129.62,-154"/>
<text text-anchor="start" x="1910.12" y="-140.5" font-family="Helvetica,sans-Serif" font-size="10.00">/home/ahussein/Documents</text>
<text text-anchor="start" x="1910.12" y="-127.75" font-family="Helvetica,sans-Serif" font-size="10.00">/archive/opensourcesourcetrail.github.io</text>
<text text-anchor="start" x="1910.12" y="-115" font-family="Helvetica,sans-Serif" font-size="10.00">/.ignore/src/src/lib/tests/StatusBarController</text>
<text text-anchor="middle" x="2015.88" y="-102.25" font-family="Helvetica,sans-Serif" font-size="10.00">TestSuite.cpp</text>
</a>
</g>
</g>
<!-- Node12&#45;&gt;Node15 -->
<g id="edge16_Node000012_Node000015" class="edge">
<title>Node12&#45;&gt;Node15</title>
<g id="a_edge16_Node000012_Node000015"><a xlink:title=" ">
<path fill="none" stroke="#63b8ff" d="M1607.27,-189.65C1733.71,-166.99 1769.47,-175.95 1892.88,-154 1895.79,-153.48 1898.74,-152.94 1901.71,-152.38"/>
<polygon fill="#63b8ff" stroke="#63b8ff" points="1606.68,-186.2 1597.47,-191.45 1607.94,-193.09 1606.68,-186.2"/>
</a>
</g>
</g>
</g>
</svg>
