<?xml version="1.0" encoding="UTF-8" standalone="no"?>
<!DOCTYPE svg PUBLIC "-//W3C//DTD SVG 1.1//EN"
 "http://www.w3.org/Graphics/SVG/1.1/DTD/svg11.dtd">
<!-- Generated by graphviz version 9.0.0 (0)
 -->
<!-- Title: /home/ahussein/Documents/archive/opensourcesourcetrail.github.io/.ignore/src/src/lib/utility/messaging/type/MessageWindowFocus.h Pages: 1 -->
<!--zoomable 352 -->

<svg id="main" version="1.1" xmlns="http://www.w3.org/2000/svg" xmlns:xlink="http://www.w3.org/1999/xlink" xml:space="preserve" onload="init(evt)">
<style type="text/css"><![CDATA[
.node, .edge {opacity: 0.7;}
.node.selected, .edge.selected {opacity: 1;}
.edge:hover path { stroke: red; }
.edge:hover polygon { stroke: red; fill: red; }
]]></style>

<defs>
  <circle id="rim" cx="0" cy="0" r="7"/>
  <circle id="rim2" cx="0" cy="0" r="3.5"/>
  <g id="zoomPlus">
    <use xlink:href="#rim" fill="#404040"><set attributeName="fill" to="#808080" begin="zoomplus.mouseover" end="zoomplus.mouseout"/></use>
    <path d="M-4,0h8M0,-4v8" fill="none" stroke="white" stroke-width="1.5" pointer-events="none"/>
  </g>
  <g id="zoomMin">
    <use xlink:href="#rim" fill="#404040"><set attributeName="fill" to="#808080" begin="zoomminus.mouseover" end="zoomminus.mouseout"/></use>
    <path d="M-4,0h8" fill="none" stroke="white" stroke-width="1.5" pointer-events="none"/>
  </g>
  <g id="arrowUp" transform="translate(30 24)">
    <use xlink:href="#rim"/>
    <path pointer-events="none" fill="none" stroke="white" stroke-width="1.5" d="M0,-3.0v7 M-2.5,-0.5L0,-3.0L2.5,-0.5"/>
  </g>
  <g id="arrowRight" transform="rotate(90) translate(36 -43)">
    <use xlink:href="#rim"/>
    <path pointer-events="none" fill="none" stroke="white" stroke-width="1.5" d="M0,-3.0v7 M-2.5,-0.5L0,-3.0L2.5,-0.5"/>
  </g>
  <g id="arrowDown" transform="rotate(180) translate(-30 -48)">
    <use xlink:href="#rim"/>
    <path pointer-events="none" fill="none" stroke="white" stroke-width="1.5" d="M0,-3.0v7 M-2.5,-0.5L0,-3.0L2.5,-0.5"/>
  </g>
  <g id="arrowLeft" transform="rotate(270) translate(-36 17)">
    <use xlink:href="#rim"/>
    <path pointer-events="none" fill="none" stroke="white" stroke-width="1.5" d="M0,-3.0v7 M-2.5,-0.5L0,-3.0L2.5,-0.5"/>
  </g>
  <g id="resetDef">
    <use xlink:href="#rim2" fill="#404040"><set attributeName="fill" to="#808080" begin="reset.mouseover" end="reset.mouseout"/></use>
  </g>
</defs>
<script type="application/ecmascript">
var viewWidth = 2812;
var viewHeight = 352;
var sectionId = 'dynsection-1';
</script>
<script type="application/ecmascript" xlink:href="svg.min.js"/>
<svg id="graph" class="graph">
<g id="viewport">
<title>/home/ahussein/Documents/archive/opensourcesourcetrail.github.io/.ignore/src/src/lib/utility/messaging/type/MessageWindowFocus.h</title>
<!-- Node1 -->
<g id="Node000001" class="node">
<title>Node1</title>
<g id="a_Node000001"><a xlink:title=" ">
<polygon fill="#999999" stroke="#666666" points="1180.75,-344 969,-344 969,-285 1180.75,-285 1180.75,-344"/>
<text text-anchor="start" x="977" y="-330.5" font-family="Helvetica,sans-Serif" font-size="10.00">/home/ahussein/Documents</text>
<text text-anchor="start" x="977" y="-317.75" font-family="Helvetica,sans-Serif" font-size="10.00">/archive/opensourcesourcetrail.github.io</text>
<text text-anchor="start" x="977" y="-305" font-family="Helvetica,sans-Serif" font-size="10.00">/.ignore/src/src/lib/utility/messaging</text>
<text text-anchor="middle" x="1074.88" y="-292.25" font-family="Helvetica,sans-Serif" font-size="10.00">/type/MessageWindowFocus.h</text>
</a>
</g>
</g>
<!-- Node2 -->
<g id="Node000002" class="node">
<title>Node2</title>
<g id="a_Node000002"><a xlink:href="IDECommunicationController_8h.html" target="_top" xlink:title=" ">
<polygon fill="white" stroke="#666666" points="556.75,-249 345,-249 345,-190 556.75,-190 556.75,-249"/>
<text text-anchor="start" x="353" y="-235.5" font-family="Helvetica,sans-Serif" font-size="10.00">/home/ahussein/Documents</text>
<text text-anchor="start" x="353" y="-222.75" font-family="Helvetica,sans-Serif" font-size="10.00">/archive/opensourcesourcetrail.github.io</text>
<text text-anchor="start" x="353" y="-210" font-family="Helvetica,sans-Serif" font-size="10.00">/.ignore/src/src/lib/component/controller</text>
<text text-anchor="middle" x="450.88" y="-197.25" font-family="Helvetica,sans-Serif" font-size="10.00">/IDECommunicationController.h</text>
</a>
</g>
</g>
<!-- Node1&#45;&gt;Node2 -->
<g id="edge1_Node000001_Node000002" class="edge">
<title>Node1&#45;&gt;Node2</title>
<g id="a_edge1_Node000001_Node000002"><a xlink:title=" ">
<path fill="none" stroke="#63b8ff" d="M957.36,-295.99C842.21,-278.82 668.24,-252.9 557.12,-236.33"/>
<polygon fill="#63b8ff" stroke="#63b8ff" points="956.76,-299.44 967.17,-297.45 957.8,-292.51 956.76,-299.44"/>
</a>
</g>
</g>
<!-- Node8 -->
<g id="Node000008" class="node">
<title>Node8</title>
<g id="a_Node000008"><a xlink:href="TooltipController_8h.html" target="_top" xlink:title=" ">
<polygon fill="white" stroke="#666666" points="1062.75,-249 851,-249 851,-190 1062.75,-190 1062.75,-249"/>
<text text-anchor="start" x="859" y="-235.5" font-family="Helvetica,sans-Serif" font-size="10.00">/home/ahussein/Documents</text>
<text text-anchor="start" x="859" y="-222.75" font-family="Helvetica,sans-Serif" font-size="10.00">/archive/opensourcesourcetrail.github.io</text>
<text text-anchor="start" x="859" y="-210" font-family="Helvetica,sans-Serif" font-size="10.00">/.ignore/src/src/lib/component/controller</text>
<text text-anchor="middle" x="956.88" y="-197.25" font-family="Helvetica,sans-Serif" font-size="10.00">/TooltipController.h</text>
</a>
</g>
</g>
<!-- Node1&#45;&gt;Node8 -->
<g id="edge7_Node000001_Node000008" class="edge">
<title>Node1&#45;&gt;Node8</title>
<g id="a_edge7_Node000001_Node000008"><a xlink:title=" ">
<path fill="none" stroke="#63b8ff" d="M1029.31,-277.59C1017.47,-268.26 1004.86,-258.32 993.54,-249.4"/>
<polygon fill="#63b8ff" stroke="#63b8ff" points="1026.98,-280.21 1037,-283.65 1031.31,-274.71 1026.98,-280.21"/>
</a>
</g>
</g>
<!-- Node11 -->
<g id="Node000011" class="node">
<title>Node11</title>
<g id="a_Node000011"><a xlink:href="QtApplication_8cpp.html" target="_top" xlink:title=" ">
<polygon fill="white" stroke="#666666" points="1305.12,-242.62 1080.62,-242.62 1080.62,-196.38 1305.12,-196.38 1305.12,-242.62"/>
<text text-anchor="start" x="1088.62" y="-229.12" font-family="Helvetica,sans-Serif" font-size="10.00">/home/ahussein/Documents</text>
<text text-anchor="start" x="1088.62" y="-216.38" font-family="Helvetica,sans-Serif" font-size="10.00">/archive/opensourcesourcetrail.github.io</text>
<text text-anchor="middle" x="1192.88" y="-203.62" font-family="Helvetica,sans-Serif" font-size="10.00">/.ignore/src/src/lib_gui/qt/QtApplication.cpp</text>
</a>
</g>
</g>
<!-- Node1&#45;&gt;Node11 -->
<g id="edge10_Node000001_Node000011" class="edge">
<title>Node1&#45;&gt;Node11</title>
<g id="a_edge10_Node000001_Node000011"><a xlink:title=" ">
<path fill="none" stroke="#63b8ff" d="M1120.58,-277.48C1135.35,-265.83 1151.31,-253.26 1164.46,-242.9"/>
<polygon fill="#63b8ff" stroke="#63b8ff" points="1118.44,-274.71 1112.75,-283.65 1122.77,-280.21 1118.44,-274.71"/>
</a>
</g>
</g>
<!-- Node12 -->
<g id="Node000012" class="node">
<title>Node12</title>
<g id="a_Node000012"><a xlink:href="QtCodeNavigator_8h.html" target="_top" xlink:title=" ">
<polygon fill="white" stroke="#666666" points="1998.75,-249 1787,-249 1787,-190 1998.75,-190 1998.75,-249"/>
<text text-anchor="start" x="1795" y="-235.5" font-family="Helvetica,sans-Serif" font-size="10.00">/home/ahussein/Documents</text>
<text text-anchor="start" x="1795" y="-222.75" font-family="Helvetica,sans-Serif" font-size="10.00">/archive/opensourcesourcetrail.github.io</text>
<text text-anchor="start" x="1795" y="-210" font-family="Helvetica,sans-Serif" font-size="10.00">/.ignore/src/src/lib_gui/qt/element</text>
<text text-anchor="middle" x="1892.88" y="-197.25" font-family="Helvetica,sans-Serif" font-size="10.00">/code/QtCodeNavigator.h</text>
</a>
</g>
</g>
<!-- Node1&#45;&gt;Node12 -->
<g id="edge11_Node000001_Node000012" class="edge">
<title>Node1&#45;&gt;Node12</title>
<g id="a_edge11_Node000001_Node000012"><a xlink:title=" ">
<path fill="none" stroke="#63b8ff" d="M1192.22,-300.16C1351.4,-282.06 1633.43,-250 1786.64,-232.58"/>
<polygon fill="#63b8ff" stroke="#63b8ff" points="1192.02,-296.66 1182.48,-301.27 1192.81,-303.61 1192.02,-296.66"/>
</a>
</g>
</g>
<!-- Node3 -->
<g id="Node000003" class="node">
<title>Node3</title>
<g id="a_Node000003"><a xlink:href="Application_8cpp.html" target="_top" xlink:title=" ">
<polygon fill="white" stroke="#666666" points="211.75,-147.62 0,-147.62 0,-101.38 211.75,-101.38 211.75,-147.62"/>
<text text-anchor="start" x="8" y="-134.12" font-family="Helvetica,sans-Serif" font-size="10.00">/home/ahussein/Documents</text>
<text text-anchor="start" x="8" y="-121.38" font-family="Helvetica,sans-Serif" font-size="10.00">/archive/opensourcesourcetrail.github.io</text>
<text text-anchor="middle" x="105.88" y="-108.62" font-family="Helvetica,sans-Serif" font-size="10.00">/.ignore/src/src/lib/app/Application.cpp</text>
</a>
</g>
</g>
<!-- Node2&#45;&gt;Node3 -->
<g id="edge2_Node000002_Node000003" class="edge">
<title>Node2&#45;&gt;Node3</title>
<g id="a_edge2_Node000002_Node000003"><a xlink:title=" ">
<path fill="none" stroke="#63b8ff" d="M333.63,-186.89C286.37,-174.15 232.92,-159.75 189.69,-148.09"/>
<polygon fill="#63b8ff" stroke="#63b8ff" points="332.52,-190.22 343.09,-189.44 334.34,-183.46 332.52,-190.22"/>
</a>
</g>
</g>
<!-- Node4 -->
<g id="Node000004" class="node">
<title>Node4</title>
<g id="a_Node000004"><a xlink:href="IDECommunicationController_8cpp.html" target="_top" xlink:title=" ">
<polygon fill="white" stroke="#666666" points="441.75,-154 230,-154 230,-95 441.75,-95 441.75,-154"/>
<text text-anchor="start" x="238" y="-140.5" font-family="Helvetica,sans-Serif" font-size="10.00">/home/ahussein/Documents</text>
<text text-anchor="start" x="238" y="-127.75" font-family="Helvetica,sans-Serif" font-size="10.00">/archive/opensourcesourcetrail.github.io</text>
<text text-anchor="start" x="238" y="-115" font-family="Helvetica,sans-Serif" font-size="10.00">/.ignore/src/src/lib/component/controller</text>
<text text-anchor="middle" x="335.88" y="-102.25" font-family="Helvetica,sans-Serif" font-size="10.00">/IDECommunicationController.cpp</text>
</a>
</g>
</g>
<!-- Node2&#45;&gt;Node4 -->
<g id="edge3_Node000002_Node000004" class="edge">
<title>Node2&#45;&gt;Node4</title>
<g id="a_edge3_Node000002_Node000004"><a xlink:title=" ">
<path fill="none" stroke="#63b8ff" d="M406.47,-182.59C394.93,-173.26 382.64,-163.32 371.61,-154.4"/>
<polygon fill="#63b8ff" stroke="#63b8ff" points="403.97,-185.07 413.94,-188.63 408.37,-179.62 403.97,-185.07"/>
</a>
</g>
</g>
<!-- Node5 -->
<g id="Node000005" class="node">
<title>Node5</title>
<g id="a_Node000005"><a xlink:href="QtIDECommunicationController_8h.html" target="_top" xlink:title=" ">
<polygon fill="white" stroke="#666666" points="671.75,-154 460,-154 460,-95 671.75,-95 671.75,-154"/>
<text text-anchor="start" x="468" y="-140.5" font-family="Helvetica,sans-Serif" font-size="10.00">/home/ahussein/Documents</text>
<text text-anchor="start" x="468" y="-127.75" font-family="Helvetica,sans-Serif" font-size="10.00">/archive/opensourcesourcetrail.github.io</text>
<text text-anchor="start" x="468" y="-115" font-family="Helvetica,sans-Serif" font-size="10.00">/.ignore/src/src/lib_gui/qt/network</text>
<text text-anchor="middle" x="565.88" y="-102.25" font-family="Helvetica,sans-Serif" font-size="10.00">/QtIDECommunicationController.h</text>
</a>
</g>
</g>
<!-- Node2&#45;&gt;Node5 -->
<g id="edge4_Node000002_Node000005" class="edge">
<title>Node2&#45;&gt;Node5</title>
<g id="a_edge4_Node000002_Node000005"><a xlink:title=" ">
<path fill="none" stroke="#63b8ff" d="M495.28,-182.59C506.82,-173.26 519.11,-163.32 530.14,-154.4"/>
<polygon fill="#63b8ff" stroke="#63b8ff" points="493.38,-179.62 487.81,-188.63 497.78,-185.07 493.38,-179.62"/>
</a>
</g>
</g>
<!-- Node6 -->
<g id="Node000006" class="node">
<title>Node6</title>
<g id="a_Node000006"><a xlink:href="QtIDECommunicationController_8cpp.html" target="_top" xlink:title=" ">
<polygon fill="white" stroke="#666666" points="556.75,-59 345,-59 345,0 556.75,0 556.75,-59"/>
<text text-anchor="start" x="353" y="-45.5" font-family="Helvetica,sans-Serif" font-size="10.00">/home/ahussein/Documents</text>
<text text-anchor="start" x="353" y="-32.75" font-family="Helvetica,sans-Serif" font-size="10.00">/archive/opensourcesourcetrail.github.io</text>
<text text-anchor="start" x="353" y="-20" font-family="Helvetica,sans-Serif" font-size="10.00">/.ignore/src/src/lib_gui/qt/network</text>
<text text-anchor="middle" x="450.88" y="-7.25" font-family="Helvetica,sans-Serif" font-size="10.00">/QtIDECommunicationController.cpp</text>
</a>
</g>
</g>
<!-- Node5&#45;&gt;Node6 -->
<g id="edge5_Node000005_Node000006" class="edge">
<title>Node5&#45;&gt;Node6</title>
<g id="a_edge5_Node000005_Node000006"><a xlink:title=" ">
<path fill="none" stroke="#63b8ff" d="M521.47,-87.59C509.93,-78.26 497.64,-68.32 486.61,-59.4"/>
<polygon fill="#63b8ff" stroke="#63b8ff" points="518.97,-90.07 528.94,-93.63 523.37,-84.62 518.97,-90.07"/>
</a>
</g>
</g>
<!-- Node7 -->
<g id="Node000007" class="node">
<title>Node7</title>
<g id="a_Node000007"><a xlink:href="QtNetworkFactory_8cpp.html" target="_top" xlink:title=" ">
<polygon fill="white" stroke="#666666" points="786.75,-59 575,-59 575,0 786.75,0 786.75,-59"/>
<text text-anchor="start" x="583" y="-45.5" font-family="Helvetica,sans-Serif" font-size="10.00">/home/ahussein/Documents</text>
<text text-anchor="start" x="583" y="-32.75" font-family="Helvetica,sans-Serif" font-size="10.00">/archive/opensourcesourcetrail.github.io</text>
<text text-anchor="start" x="583" y="-20" font-family="Helvetica,sans-Serif" font-size="10.00">/.ignore/src/src/lib_gui/qt/network</text>
<text text-anchor="middle" x="680.88" y="-7.25" font-family="Helvetica,sans-Serif" font-size="10.00">/QtNetworkFactory.cpp</text>
</a>
</g>
</g>
<!-- Node5&#45;&gt;Node7 -->
<g id="edge6_Node000005_Node000007" class="edge">
<title>Node5&#45;&gt;Node7</title>
<g id="a_edge6_Node000005_Node000007"><a xlink:title=" ">
<path fill="none" stroke="#63b8ff" d="M610.28,-87.59C621.82,-78.26 634.11,-68.32 645.14,-59.4"/>
<polygon fill="#63b8ff" stroke="#63b8ff" points="608.38,-84.62 602.81,-93.63 612.78,-90.07 608.38,-84.62"/>
</a>
</g>
</g>
<!-- Node9 -->
<g id="Node000009" class="node">
<title>Node9</title>
<g id="a_Node000009"><a xlink:href="ComponentFactory_8cpp.html" target="_top" xlink:title=" ">
<polygon fill="white" stroke="#666666" points="963.88,-147.62 689.88,-147.62 689.88,-101.38 963.88,-101.38 963.88,-147.62"/>
<text text-anchor="start" x="697.88" y="-134.12" font-family="Helvetica,sans-Serif" font-size="10.00">/home/ahussein/Documents</text>
<text text-anchor="start" x="697.88" y="-121.38" font-family="Helvetica,sans-Serif" font-size="10.00">/archive/opensourcesourcetrail.github.io</text>
<text text-anchor="middle" x="826.88" y="-108.62" font-family="Helvetica,sans-Serif" font-size="10.00">/.ignore/src/src/lib/component/ComponentFactory.cpp</text>
</a>
</g>
</g>
<!-- Node8&#45;&gt;Node9 -->
<g id="edge8_Node000008_Node000009" class="edge">
<title>Node8&#45;&gt;Node9</title>
<g id="a_edge8_Node000008_Node000009"><a xlink:title=" ">
<path fill="none" stroke="#63b8ff" d="M907.44,-183.14C890.91,-171.31 872.94,-158.46 858.18,-147.9"/>
<polygon fill="#63b8ff" stroke="#63b8ff" points="905.05,-185.73 915.22,-188.7 909.13,-180.04 905.05,-185.73"/>
</a>
</g>
</g>
<!-- Node10 -->
<g id="Node000010" class="node">
<title>Node10</title>
<g id="a_Node000010"><a xlink:href="TooltipController_8cpp.html" target="_top" xlink:title=" ">
<polygon fill="white" stroke="#666666" points="1193.75,-154 982,-154 982,-95 1193.75,-95 1193.75,-154"/>
<text text-anchor="start" x="990" y="-140.5" font-family="Helvetica,sans-Serif" font-size="10.00">/home/ahussein/Documents</text>
<text text-anchor="start" x="990" y="-127.75" font-family="Helvetica,sans-Serif" font-size="10.00">/archive/opensourcesourcetrail.github.io</text>
<text text-anchor="start" x="990" y="-115" font-family="Helvetica,sans-Serif" font-size="10.00">/.ignore/src/src/lib/component/controller</text>
<text text-anchor="middle" x="1087.88" y="-102.25" font-family="Helvetica,sans-Serif" font-size="10.00">/TooltipController.cpp</text>
</a>
</g>
</g>
<!-- Node8&#45;&gt;Node10 -->
<g id="edge9_Node000008_Node000010" class="edge">
<title>Node8&#45;&gt;Node10</title>
<g id="a_edge9_Node000008_Node000010"><a xlink:title=" ">
<path fill="none" stroke="#63b8ff" d="M1006.69,-183.14C1020.06,-173.65 1034.36,-163.49 1047.17,-154.4"/>
<polygon fill="#63b8ff" stroke="#63b8ff" points="1004.97,-180.07 998.84,-188.71 1009.02,-185.77 1004.97,-180.07"/>
</a>
</g>
</g>
<!-- Node13 -->
<g id="Node000013" class="node">
<title>Node13</title>
<g id="a_Node000013"><a xlink:href="QtCodeArea_8cpp.html" target="_top" xlink:title=" ">
<polygon fill="white" stroke="#666666" points="1423.75,-154 1212,-154 1212,-95 1423.75,-95 1423.75,-154"/>
<text text-anchor="start" x="1220" y="-140.5" font-family="Helvetica,sans-Serif" font-size="10.00">/home/ahussein/Documents</text>
<text text-anchor="start" x="1220" y="-127.75" font-family="Helvetica,sans-Serif" font-size="10.00">/archive/opensourcesourcetrail.github.io</text>
<text text-anchor="start" x="1220" y="-115" font-family="Helvetica,sans-Serif" font-size="10.00">/.ignore/src/src/lib_gui/qt/element</text>
<text text-anchor="middle" x="1317.88" y="-102.25" font-family="Helvetica,sans-Serif" font-size="10.00">/code/QtCodeArea.cpp</text>
</a>
</g>
</g>
<!-- Node12&#45;&gt;Node13 -->
<g id="edge12_Node000012_Node000013" class="edge">
<title>Node12&#45;&gt;Node13</title>
<g id="a_edge12_Node000012_Node000013"><a xlink:title=" ">
<path fill="none" stroke="#63b8ff" d="M1775.68,-205.47C1682.38,-194.27 1548.71,-176.41 1432.88,-154 1429.95,-153.43 1426.98,-152.84 1423.99,-152.22"/>
<polygon fill="#63b8ff" stroke="#63b8ff" points="1775,-208.91 1785.35,-206.62 1775.83,-201.96 1775,-208.91"/>
</a>
</g>
</g>
<!-- Node14 -->
<g id="Node000014" class="node">
<title>Node14</title>
<g id="a_Node000014"><a xlink:href="QtCodeFile_8cpp.html" target="_top" xlink:title=" ">
<polygon fill="white" stroke="#666666" points="1653.75,-154 1442,-154 1442,-95 1653.75,-95 1653.75,-154"/>
<text text-anchor="start" x="1450" y="-140.5" font-family="Helvetica,sans-Serif" font-size="10.00">/home/ahussein/Documents</text>
<text text-anchor="start" x="1450" y="-127.75" font-family="Helvetica,sans-Serif" font-size="10.00">/archive/opensourcesourcetrail.github.io</text>
<text text-anchor="start" x="1450" y="-115" font-family="Helvetica,sans-Serif" font-size="10.00">/.ignore/src/src/lib_gui/qt/element</text>
<text text-anchor="middle" x="1547.88" y="-102.25" font-family="Helvetica,sans-Serif" font-size="10.00">/code/QtCodeFile.cpp</text>
</a>
</g>
</g>
<!-- Node12&#45;&gt;Node14 -->
<g id="edge13_Node000012_Node000014" class="edge">
<title>Node12&#45;&gt;Node14</title>
<g id="a_edge13_Node000012_Node000014"><a xlink:title=" ">
<path fill="none" stroke="#63b8ff" d="M1775.57,-186.88C1736.23,-176.27 1692.6,-164.51 1654.15,-154.15"/>
<polygon fill="#63b8ff" stroke="#63b8ff" points="1774.52,-190.22 1785.09,-189.44 1776.34,-183.46 1774.52,-190.22"/>
</a>
</g>
</g>
<!-- Node15 -->
<g id="Node000015" class="node">
<title>Node15</title>
<g id="a_Node000015"><a xlink:href="QtCodeFileList_8cpp.html" target="_top" xlink:title=" ">
<polygon fill="white" stroke="#666666" points="1883.75,-154 1672,-154 1672,-95 1883.75,-95 1883.75,-154"/>
<text text-anchor="start" x="1680" y="-140.5" font-family="Helvetica,sans-Serif" font-size="10.00">/home/ahussein/Documents</text>
<text text-anchor="start" x="1680" y="-127.75" font-family="Helvetica,sans-Serif" font-size="10.00">/archive/opensourcesourcetrail.github.io</text>
<text text-anchor="start" x="1680" y="-115" font-family="Helvetica,sans-Serif" font-size="10.00">/.ignore/src/src/lib_gui/qt/element</text>
<text text-anchor="middle" x="1777.88" y="-102.25" font-family="Helvetica,sans-Serif" font-size="10.00">/code/QtCodeFileList.cpp</text>
</a>
</g>
</g>
<!-- Node12&#45;&gt;Node15 -->
<g id="edge14_Node000012_Node000015" class="edge">
<title>Node12&#45;&gt;Node15</title>
<g id="a_edge14_Node000012_Node000015"><a xlink:title=" ">
<path fill="none" stroke="#63b8ff" d="M1848.47,-182.59C1836.93,-173.26 1824.64,-163.32 1813.61,-154.4"/>
<polygon fill="#63b8ff" stroke="#63b8ff" points="1845.97,-185.07 1855.94,-188.63 1850.37,-179.62 1845.97,-185.07"/>
</a>
</g>
</g>
<!-- Node16 -->
<g id="Node000016" class="node">
<title>Node16</title>
<g id="a_Node000016"><a xlink:href="QtCodeFileSingle_8cpp.html" target="_top" xlink:title=" ">
<polygon fill="white" stroke="#666666" points="2113.75,-154 1902,-154 1902,-95 2113.75,-95 2113.75,-154"/>
<text text-anchor="start" x="1910" y="-140.5" font-family="Helvetica,sans-Serif" font-size="10.00">/home/ahussein/Documents</text>
<text text-anchor="start" x="1910" y="-127.75" font-family="Helvetica,sans-Serif" font-size="10.00">/archive/opensourcesourcetrail.github.io</text>
<text text-anchor="start" x="1910" y="-115" font-family="Helvetica,sans-Serif" font-size="10.00">/.ignore/src/src/lib_gui/qt/element</text>
<text text-anchor="middle" x="2007.88" y="-102.25" font-family="Helvetica,sans-Serif" font-size="10.00">/code/QtCodeFileSingle.cpp</text>
</a>
</g>
</g>
<!-- Node12&#45;&gt;Node16 -->
<g id="edge15_Node000012_Node000016" class="edge">
<title>Node12&#45;&gt;Node16</title>
<g id="a_edge15_Node000012_Node000016"><a xlink:title=" ">
<path fill="none" stroke="#63b8ff" d="M1937.28,-182.59C1948.82,-173.26 1961.11,-163.32 1972.14,-154.4"/>
<polygon fill="#63b8ff" stroke="#63b8ff" points="1935.38,-179.62 1929.81,-188.63 1939.78,-185.07 1935.38,-179.62"/>
</a>
</g>
</g>
<!-- Node17 -->
<g id="Node000017" class="node">
<title>Node17</title>
<g id="a_Node000017"><a xlink:href="QtCodeNavigator_8cpp.html" target="_top" xlink:title=" ">
<polygon fill="white" stroke="#666666" points="2343.75,-154 2132,-154 2132,-95 2343.75,-95 2343.75,-154"/>
<text text-anchor="start" x="2140" y="-140.5" font-family="Helvetica,sans-Serif" font-size="10.00">/home/ahussein/Documents</text>
<text text-anchor="start" x="2140" y="-127.75" font-family="Helvetica,sans-Serif" font-size="10.00">/archive/opensourcesourcetrail.github.io</text>
<text text-anchor="start" x="2140" y="-115" font-family="Helvetica,sans-Serif" font-size="10.00">/.ignore/src/src/lib_gui/qt/element</text>
<text text-anchor="middle" x="2237.88" y="-102.25" font-family="Helvetica,sans-Serif" font-size="10.00">/code/QtCodeNavigator.cpp</text>
</a>
</g>
</g>
<!-- Node12&#45;&gt;Node17 -->
<g id="edge16_Node000012_Node000017" class="edge">
<title>Node12&#45;&gt;Node17</title>
<g id="a_edge16_Node000012_Node000017"><a xlink:title=" ">
<path fill="none" stroke="#63b8ff" d="M2010.18,-186.88C2049.52,-176.27 2093.15,-164.51 2131.6,-154.15"/>
<polygon fill="#63b8ff" stroke="#63b8ff" points="2009.41,-183.46 2000.66,-189.44 2011.23,-190.22 2009.41,-183.46"/>
</a>
</g>
</g>
<!-- Node18 -->
<g id="Node000018" class="node">
<title>Node18</title>
<g id="a_Node000018"><a xlink:href="QtCodeSnippet_8cpp.html" target="_top" xlink:title=" ">
<polygon fill="white" stroke="#666666" points="2573.75,-154 2362,-154 2362,-95 2573.75,-95 2573.75,-154"/>
<text text-anchor="start" x="2370" y="-140.5" font-family="Helvetica,sans-Serif" font-size="10.00">/home/ahussein/Documents</text>
<text text-anchor="start" x="2370" y="-127.75" font-family="Helvetica,sans-Serif" font-size="10.00">/archive/opensourcesourcetrail.github.io</text>
<text text-anchor="start" x="2370" y="-115" font-family="Helvetica,sans-Serif" font-size="10.00">/.ignore/src/src/lib_gui/qt/element</text>
<text text-anchor="middle" x="2467.88" y="-102.25" font-family="Helvetica,sans-Serif" font-size="10.00">/code/QtCodeSnippet.cpp</text>
</a>
</g>
</g>
<!-- Node12&#45;&gt;Node18 -->
<g id="edge17_Node000012_Node000018" class="edge">
<title>Node12&#45;&gt;Node18</title>
<g id="a_edge17_Node000012_Node000018"><a xlink:title=" ">
<path fill="none" stroke="#63b8ff" d="M2010.07,-205.47C2103.37,-194.27 2237.04,-176.41 2352.88,-154 2355.8,-153.43 2358.77,-152.84 2361.76,-152.22"/>
<polygon fill="#63b8ff" stroke="#63b8ff" points="2009.92,-201.96 2000.4,-206.62 2010.75,-208.91 2009.92,-201.96"/>
</a>
</g>
</g>
<!-- Node19 -->
<g id="Node000019" class="node">
<title>Node19</title>
<g id="a_Node000019"><a xlink:href="QtCodeView_8cpp.html" target="_top" xlink:title=" ">
<polygon fill="white" stroke="#666666" points="2803.75,-154 2592,-154 2592,-95 2803.75,-95 2803.75,-154"/>
<text text-anchor="start" x="2600" y="-140.5" font-family="Helvetica,sans-Serif" font-size="10.00">/home/ahussein/Documents</text>
<text text-anchor="start" x="2600" y="-127.75" font-family="Helvetica,sans-Serif" font-size="10.00">/archive/opensourcesourcetrail.github.io</text>
<text text-anchor="start" x="2600" y="-115" font-family="Helvetica,sans-Serif" font-size="10.00">/.ignore/src/src/lib_gui/qt/view</text>
<text text-anchor="middle" x="2697.88" y="-102.25" font-family="Helvetica,sans-Serif" font-size="10.00">/QtCodeView.cpp</text>
</a>
</g>
</g>
<!-- Node12&#45;&gt;Node19 -->
<g id="edge18_Node000012_Node000019" class="edge">
<title>Node12&#45;&gt;Node19</title>
<g id="a_edge18_Node000012_Node000019"><a xlink:title=" ">
<path fill="none" stroke="#63b8ff" d="M2010.41,-212.88C2148.3,-205.05 2383.42,-187.84 2582.88,-154 2585.82,-153.5 2588.79,-152.97 2591.79,-152.4"/>
<polygon fill="#63b8ff" stroke="#63b8ff" points="2010.32,-209.38 2000.53,-213.44 2010.71,-216.37 2010.32,-209.38"/>
</a>
</g>
</g>
</g>
</svg>

<g id="navigator" transform="translate(0 0)" fill="#404254">
  <rect fill="#f2f5e9" fill-opacity="0.5" stroke="#606060" stroke-width=".5" x="0" y="0" width="60" height="60"/>
  <use id="zoomplus" xlink:href="#zoomPlus" x="17" y="9" onmousedown="handleZoom(evt,'in')"/>
  <use id="zoomminus" xlink:href="#zoomMin" x="42" y="9" onmousedown="handleZoom(evt,'out')"/>
  <use id="reset" xlink:href="#resetDef" x="30" y="36" onmousedown="handleReset()"/>
   <use id="arrowup" xlink:href="#arrowUp" x="0" y="0" onmousedown="handlePan(0,-1)"/>
  <use id="arrowright" xlink:href="#arrowRight" x="0" y="0" onmousedown="handlePan(1,0)"/>
  <use id="arrowdown" xlink:href="#arrowDown" x="0" y="0" onmousedown="handlePan(0,1)"/>
  <use id="arrowleft" xlink:href="#arrowLeft" x="0" y="0" onmousedown="handlePan(-1,0)"/>
</g>
<svg viewBox="0 0 15 15" width="100%" height="30px" preserveAspectRatio="xMaxYMin meet">
 <g id="arrow_out" transform="scale(0.3 0.3)">
  <a xlink:href="MessageWindowFocus_8h__dep__incl_org.svg" target="_base">
   <rect id="button" ry="5" rx="5" y="6" x="6" height="38" width="38"
        fill="#f2f5e9" fill-opacity="0.5" stroke="#606060" stroke-width="1.0"/>
   <path id="arrow"
     d="M 11.500037,31.436501 C 11.940474,20.09759 22.043105,11.32322 32.158766,21.979434 L 37.068811,17.246167 C 37.068811,17.246167 37.088388,32 37.088388,32 L 22.160133,31.978069 C 22.160133,31.978069 26.997745,27.140456 26.997745,27.140456 C 18.528582,18.264221 13.291696,25.230495 11.500037,31.436501 z"
     style="fill:#404040;"/>
  </a>
 </g>
</svg>

<style type='text/css'>
<![CDATA[
[data-mouse-over-selected='false'] { opacity: 0.7; }
[data-mouse-over-selected='true']  { opacity: 1.0; }
]]>
</style>
<script type="application/ecmascript"><![CDATA[
document.addEventListener('DOMContentLoaded', (event) => {
  highlightEdges();
  highlightAdjacentNodes();
});
]]></script>
</svg>
