<?xml version="1.0" encoding="UTF-8" standalone="no"?>
<!DOCTYPE svg PUBLIC "-//W3C//DTD SVG 1.1//EN"
 "http://www.w3.org/Graphics/SVG/1.1/DTD/svg11.dtd">
<!-- Generated by graphviz version 9.0.0 (0)
 -->
<!-- Title: /home/ahussein/Documents/archive/opensourcesourcetrail.github.io/.ignore/src/src/lib/utility/messaging/type/code/MessageScrollToLine.h Pages: 1 -->
<svg width="1105pt" height="257pt"
 viewBox="0.00 0.00 1104.88 257.00" xmlns="http://www.w3.org/2000/svg" xmlns:xlink="http://www.w3.org/1999/xlink">
<g id="graph0" class="graph" transform="scale(1 1) rotate(0) translate(4 253)">
<title>/home/ahussein/Documents/archive/opensourcesourcetrail.github.io/.ignore/src/src/lib/utility/messaging/type/code/MessageScrollToLine.h</title>
<!-- Node1 -->
<g id="Node000001" class="node">
<title>Node1</title>
<g id="a_Node000001"><a xlink:title=" ">
<polygon fill="#999999" stroke="#666666" points="733.88,-249 522.12,-249 522.12,-190 733.88,-190 733.88,-249"/>
<text text-anchor="start" x="530.12" y="-235.5" font-family="Helvetica,sans-Serif" font-size="10.00">/home/ahussein/Documents</text>
<text text-anchor="start" x="530.12" y="-222.75" font-family="Helvetica,sans-Serif" font-size="10.00">/archive/opensourcesourcetrail.github.io</text>
<text text-anchor="start" x="530.12" y="-210" font-family="Helvetica,sans-Serif" font-size="10.00">/.ignore/src/src/lib/utility/messaging</text>
<text text-anchor="middle" x="628" y="-197.25" font-family="Helvetica,sans-Serif" font-size="10.00">/type/code/MessageScrollToLine.h</text>
</a>
</g>
</g>
<!-- Node2 -->
<g id="Node000002" class="node">
<title>Node2</title>
<g id="a_Node000002"><a xlink:href="ActivationController_8cpp.html" target="_top" xlink:title=" ">
<polygon fill="white" stroke="#666666" points="388.88,-154 177.12,-154 177.12,-95 388.88,-95 388.88,-154"/>
<text text-anchor="start" x="185.12" y="-140.5" font-family="Helvetica,sans-Serif" font-size="10.00">/home/ahussein/Documents</text>
<text text-anchor="start" x="185.12" y="-127.75" font-family="Helvetica,sans-Serif" font-size="10.00">/archive/opensourcesourcetrail.github.io</text>
<text text-anchor="start" x="185.12" y="-115" font-family="Helvetica,sans-Serif" font-size="10.00">/.ignore/src/src/lib/component/controller</text>
<text text-anchor="middle" x="283" y="-102.25" font-family="Helvetica,sans-Serif" font-size="10.00">/ActivationController.cpp</text>
</a>
</g>
</g>
<!-- Node1&#45;&gt;Node2 -->
<g id="edge1_Node000001_Node000002" class="edge">
<title>Node1&#45;&gt;Node2</title>
<g id="a_edge1_Node000001_Node000002"><a xlink:title=" ">
<path fill="none" stroke="#63b8ff" d="M510.7,-186.88C471.35,-176.27 427.72,-164.51 389.27,-154.15"/>
<polygon fill="#63b8ff" stroke="#63b8ff" points="509.65,-190.22 520.21,-189.44 511.47,-183.46 509.65,-190.22"/>
</a>
</g>
</g>
<!-- Node3 -->
<g id="Node000003" class="node">
<title>Node3</title>
<g id="a_Node000003"><a xlink:href="CodeController_8h.html" target="_top" xlink:title=" ">
<polygon fill="white" stroke="#666666" points="618.88,-154 407.12,-154 407.12,-95 618.88,-95 618.88,-154"/>
<text text-anchor="start" x="415.12" y="-140.5" font-family="Helvetica,sans-Serif" font-size="10.00">/home/ahussein/Documents</text>
<text text-anchor="start" x="415.12" y="-127.75" font-family="Helvetica,sans-Serif" font-size="10.00">/archive/opensourcesourcetrail.github.io</text>
<text text-anchor="start" x="415.12" y="-115" font-family="Helvetica,sans-Serif" font-size="10.00">/.ignore/src/src/lib/component/controller</text>
<text text-anchor="middle" x="513" y="-102.25" font-family="Helvetica,sans-Serif" font-size="10.00">/CodeController.h</text>
</a>
</g>
</g>
<!-- Node1&#45;&gt;Node3 -->
<g id="edge2_Node000001_Node000003" class="edge">
<title>Node1&#45;&gt;Node3</title>
<g id="a_edge2_Node000001_Node000003"><a xlink:title=" ">
<path fill="none" stroke="#63b8ff" d="M583.59,-182.59C572.05,-173.26 559.77,-163.32 548.73,-154.4"/>
<polygon fill="#63b8ff" stroke="#63b8ff" points="581.09,-185.07 591.07,-188.63 585.49,-179.62 581.09,-185.07"/>
</a>
</g>
</g>
<!-- Node8 -->
<g id="Node000008" class="node">
<title>Node8</title>
<g id="a_Node000008"><a xlink:href="TabsController_8cpp.html" target="_top" xlink:title=" ">
<polygon fill="white" stroke="#666666" points="848.88,-154 637.12,-154 637.12,-95 848.88,-95 848.88,-154"/>
<text text-anchor="start" x="645.12" y="-140.5" font-family="Helvetica,sans-Serif" font-size="10.00">/home/ahussein/Documents</text>
<text text-anchor="start" x="645.12" y="-127.75" font-family="Helvetica,sans-Serif" font-size="10.00">/archive/opensourcesourcetrail.github.io</text>
<text text-anchor="start" x="645.12" y="-115" font-family="Helvetica,sans-Serif" font-size="10.00">/.ignore/src/src/lib/component/controller</text>
<text text-anchor="middle" x="743" y="-102.25" font-family="Helvetica,sans-Serif" font-size="10.00">/TabsController.cpp</text>
</a>
</g>
</g>
<!-- Node1&#45;&gt;Node8 -->
<g id="edge7_Node000001_Node000008" class="edge">
<title>Node1&#45;&gt;Node8</title>
<g id="a_edge7_Node000001_Node000008"><a xlink:title=" ">
<path fill="none" stroke="#63b8ff" d="M672.41,-182.59C683.95,-173.26 696.23,-163.32 707.27,-154.4"/>
<polygon fill="#63b8ff" stroke="#63b8ff" points="670.51,-179.62 664.93,-188.63 674.91,-185.07 670.51,-179.62"/>
</a>
</g>
</g>
<!-- Node9 -->
<g id="Node000009" class="node">
<title>Node9</title>
<g id="a_Node000009"><a xlink:href="ActivationControllerTestSuite_8cpp.html" target="_top" xlink:title=" ">
<polygon fill="white" stroke="#666666" points="1096.88,-154 867.12,-154 867.12,-95 1096.88,-95 1096.88,-154"/>
<text text-anchor="start" x="875.12" y="-140.5" font-family="Helvetica,sans-Serif" font-size="10.00">/home/ahussein/Documents</text>
<text text-anchor="start" x="875.12" y="-127.75" font-family="Helvetica,sans-Serif" font-size="10.00">/archive/opensourcesourcetrail.github.io</text>
<text text-anchor="start" x="875.12" y="-115" font-family="Helvetica,sans-Serif" font-size="10.00">/.ignore/src/src/lib/tests/ActivationController</text>
<text text-anchor="middle" x="982" y="-102.25" font-family="Helvetica,sans-Serif" font-size="10.00">TestSuite.cpp</text>
</a>
</g>
</g>
<!-- Node1&#45;&gt;Node9 -->
<g id="edge8_Node000001_Node000009" class="edge">
<title>Node1&#45;&gt;Node9</title>
<g id="a_edge8_Node000001_Node000009"><a xlink:title=" ">
<path fill="none" stroke="#63b8ff" d="M745.3,-187.68C786.1,-176.97 831.68,-164.99 871.87,-154.43"/>
<polygon fill="#63b8ff" stroke="#63b8ff" points="744.46,-184.29 735.68,-190.21 746.24,-191.06 744.46,-184.29"/>
</a>
</g>
</g>
<!-- Node4 -->
<g id="Node000004" class="node">
<title>Node4</title>
<g id="a_Node000004"><a xlink:href="ComponentFactory_8cpp.html" target="_top" xlink:title=" ">
<polygon fill="white" stroke="#666666" points="274,-52.62 0,-52.62 0,-6.38 274,-6.38 274,-52.62"/>
<text text-anchor="start" x="8" y="-39.12" font-family="Helvetica,sans-Serif" font-size="10.00">/home/ahussein/Documents</text>
<text text-anchor="start" x="8" y="-26.38" font-family="Helvetica,sans-Serif" font-size="10.00">/archive/opensourcesourcetrail.github.io</text>
<text text-anchor="middle" x="137" y="-13.62" font-family="Helvetica,sans-Serif" font-size="10.00">/.ignore/src/src/lib/component/ComponentFactory.cpp</text>
</a>
</g>
</g>
<!-- Node3&#45;&gt;Node4 -->
<g id="edge3_Node000003_Node000004" class="edge">
<title>Node3&#45;&gt;Node4</title>
<g id="a_edge3_Node000003_Node000004"><a xlink:title=" ">
<path fill="none" stroke="#63b8ff" d="M395.76,-94.44C334.59,-79.31 275.74,-64.77 228.5,-53.1"/>
<polygon fill="#63b8ff" stroke="#63b8ff" points="394.78,-97.81 405.33,-96.81 396.46,-91.01 394.78,-97.81"/>
</a>
</g>
</g>
<!-- Node5 -->
<g id="Node000005" class="node">
<title>Node5</title>
<g id="a_Node000005"><a xlink:href="CodeController_8cpp.html" target="_top" xlink:title=" ">
<polygon fill="white" stroke="#666666" points="503.88,-59 292.12,-59 292.12,0 503.88,0 503.88,-59"/>
<text text-anchor="start" x="300.12" y="-45.5" font-family="Helvetica,sans-Serif" font-size="10.00">/home/ahussein/Documents</text>
<text text-anchor="start" x="300.12" y="-32.75" font-family="Helvetica,sans-Serif" font-size="10.00">/archive/opensourcesourcetrail.github.io</text>
<text text-anchor="start" x="300.12" y="-20" font-family="Helvetica,sans-Serif" font-size="10.00">/.ignore/src/src/lib/component/controller</text>
<text text-anchor="middle" x="398" y="-7.25" font-family="Helvetica,sans-Serif" font-size="10.00">/CodeController.cpp</text>
</a>
</g>
</g>
<!-- Node3&#45;&gt;Node5 -->
<g id="edge4_Node000003_Node000005" class="edge">
<title>Node3&#45;&gt;Node5</title>
<g id="a_edge4_Node000003_Node000005"><a xlink:title=" ">
<path fill="none" stroke="#63b8ff" d="M468.59,-87.59C457.05,-78.26 444.77,-68.32 433.73,-59.4"/>
<polygon fill="#63b8ff" stroke="#63b8ff" points="466.09,-90.07 476.07,-93.63 470.49,-84.62 466.09,-90.07"/>
</a>
</g>
</g>
<!-- Node6 -->
<g id="Node000006" class="node">
<title>Node6</title>
<g id="a_Node000006"><a xlink:href="CodeView_8cpp.html" target="_top" xlink:title=" ">
<polygon fill="white" stroke="#666666" points="733.88,-59 522.12,-59 522.12,0 733.88,0 733.88,-59"/>
<text text-anchor="start" x="530.12" y="-45.5" font-family="Helvetica,sans-Serif" font-size="10.00">/home/ahussein/Documents</text>
<text text-anchor="start" x="530.12" y="-32.75" font-family="Helvetica,sans-Serif" font-size="10.00">/archive/opensourcesourcetrail.github.io</text>
<text text-anchor="start" x="530.12" y="-20" font-family="Helvetica,sans-Serif" font-size="10.00">/.ignore/src/src/lib/component/view</text>
<text text-anchor="middle" x="628" y="-7.25" font-family="Helvetica,sans-Serif" font-size="10.00">/CodeView.cpp</text>
</a>
</g>
</g>
<!-- Node3&#45;&gt;Node6 -->
<g id="edge5_Node000003_Node000006" class="edge">
<title>Node3&#45;&gt;Node6</title>
<g id="a_edge5_Node000003_Node000006"><a xlink:title=" ">
<path fill="none" stroke="#63b8ff" d="M557.41,-87.59C568.95,-78.26 581.23,-68.32 592.27,-59.4"/>
<polygon fill="#63b8ff" stroke="#63b8ff" points="555.51,-84.62 549.93,-93.63 559.91,-90.07 555.51,-84.62"/>
</a>
</g>
</g>
<!-- Node7 -->
<g id="Node000007" class="node">
<title>Node7</title>
<g id="a_Node000007"><a xlink:href="QtCodeView_8cpp.html" target="_top" xlink:title=" ">
<polygon fill="white" stroke="#666666" points="963.88,-59 752.12,-59 752.12,0 963.88,0 963.88,-59"/>
<text text-anchor="start" x="760.12" y="-45.5" font-family="Helvetica,sans-Serif" font-size="10.00">/home/ahussein/Documents</text>
<text text-anchor="start" x="760.12" y="-32.75" font-family="Helvetica,sans-Serif" font-size="10.00">/archive/opensourcesourcetrail.github.io</text>
<text text-anchor="start" x="760.12" y="-20" font-family="Helvetica,sans-Serif" font-size="10.00">/.ignore/src/src/lib_gui/qt/view</text>
<text text-anchor="middle" x="858" y="-7.25" font-family="Helvetica,sans-Serif" font-size="10.00">/QtCodeView.cpp</text>
</a>
</g>
</g>
<!-- Node3&#45;&gt;Node7 -->
<g id="edge6_Node000003_Node000007" class="edge">
<title>Node3&#45;&gt;Node7</title>
<g id="a_edge6_Node000003_Node000007"><a xlink:title=" ">
<path fill="none" stroke="#63b8ff" d="M630.3,-91.88C669.65,-81.27 713.28,-69.51 751.73,-59.15"/>
<polygon fill="#63b8ff" stroke="#63b8ff" points="629.53,-88.46 620.79,-94.44 631.35,-95.22 629.53,-88.46"/>
</a>
</g>
</g>
</g>
</svg>
