<?xml version="1.0" encoding="UTF-8" standalone="no"?>
<!DOCTYPE svg PUBLIC "-//W3C//DTD SVG 1.1//EN"
 "http://www.w3.org/Graphics/SVG/1.1/DTD/svg11.dtd">
<!-- Generated by graphviz version 9.0.0 (0)
 -->
<!-- Title: /home/ahussein/Documents/archive/opensourcesourcetrail.github.io/.ignore/src/src/lib/utility/messaging/type/MessageCloseProject.h Pages: 1 -->
<!--zoomable 257 -->

<svg id="main" version="1.1" xmlns="http://www.w3.org/2000/svg" xmlns:xlink="http://www.w3.org/1999/xlink" xml:space="preserve" onload="init(evt)">
<style type="text/css"><![CDATA[
.node, .edge {opacity: 0.7;}
.node.selected, .edge.selected {opacity: 1;}
.edge:hover path { stroke: red; }
.edge:hover polygon { stroke: red; fill: red; }
]]></style>

<defs>
  <circle id="rim" cx="0" cy="0" r="7"/>
  <circle id="rim2" cx="0" cy="0" r="3.5"/>
  <g id="zoomPlus">
    <use xlink:href="#rim" fill="#404040"><set attributeName="fill" to="#808080" begin="zoomplus.mouseover" end="zoomplus.mouseout"/></use>
    <path d="M-4,0h8M0,-4v8" fill="none" stroke="white" stroke-width="1.5" pointer-events="none"/>
  </g>
  <g id="zoomMin">
    <use xlink:href="#rim" fill="#404040"><set attributeName="fill" to="#808080" begin="zoomminus.mouseover" end="zoomminus.mouseout"/></use>
    <path d="M-4,0h8" fill="none" stroke="white" stroke-width="1.5" pointer-events="none"/>
  </g>
  <g id="arrowUp" transform="translate(30 24)">
    <use xlink:href="#rim"/>
    <path pointer-events="none" fill="none" stroke="white" stroke-width="1.5" d="M0,-3.0v7 M-2.5,-0.5L0,-3.0L2.5,-0.5"/>
  </g>
  <g id="arrowRight" transform="rotate(90) translate(36 -43)">
    <use xlink:href="#rim"/>
    <path pointer-events="none" fill="none" stroke="white" stroke-width="1.5" d="M0,-3.0v7 M-2.5,-0.5L0,-3.0L2.5,-0.5"/>
  </g>
  <g id="arrowDown" transform="rotate(180) translate(-30 -48)">
    <use xlink:href="#rim"/>
    <path pointer-events="none" fill="none" stroke="white" stroke-width="1.5" d="M0,-3.0v7 M-2.5,-0.5L0,-3.0L2.5,-0.5"/>
  </g>
  <g id="arrowLeft" transform="rotate(270) translate(-36 17)">
    <use xlink:href="#rim"/>
    <path pointer-events="none" fill="none" stroke="white" stroke-width="1.5" d="M0,-3.0v7 M-2.5,-0.5L0,-3.0L2.5,-0.5"/>
  </g>
  <g id="resetDef">
    <use xlink:href="#rim2" fill="#404040"><set attributeName="fill" to="#808080" begin="reset.mouseover" end="reset.mouseout"/></use>
  </g>
</defs>
<script type="application/ecmascript">
var viewWidth = 4444;
var viewHeight = 257;
var sectionId = 'dynsection-1';
</script>
<script type="application/ecmascript" xlink:href="svg.min.js"/>
<svg id="graph" class="graph">
<g id="viewport">
<title>/home/ahussein/Documents/archive/opensourcesourcetrail.github.io/.ignore/src/src/lib/utility/messaging/type/MessageCloseProject.h</title>
<!-- Node1 -->
<g id="Node000001" class="node">
<title>Node1</title>
<g id="a_Node000001"><a xlink:title=" ">
<polygon fill="#999999" stroke="#666666" points="2489.75,-249 2278,-249 2278,-190 2489.75,-190 2489.75,-249"/>
<text text-anchor="start" x="2286" y="-235.5" font-family="Helvetica,sans-Serif" font-size="10.00">/home/ahussein/Documents</text>
<text text-anchor="start" x="2286" y="-222.75" font-family="Helvetica,sans-Serif" font-size="10.00">/archive/opensourcesourcetrail.github.io</text>
<text text-anchor="start" x="2286" y="-210" font-family="Helvetica,sans-Serif" font-size="10.00">/.ignore/src/src/lib/utility/messaging</text>
<text text-anchor="middle" x="2383.88" y="-197.25" font-family="Helvetica,sans-Serif" font-size="10.00">/type/MessageCloseProject.h</text>
</a>
</g>
</g>
<!-- Node2 -->
<g id="Node000002" class="node">
<title>Node2</title>
<g id="a_Node000002"><a xlink:href="Application_8h.html" target="_top" xlink:title=" ">
<polygon fill="white" stroke="#666666" points="2422.75,-154 2211,-154 2211,-107.75 2422.75,-107.75 2422.75,-154"/>
<text text-anchor="start" x="2219" y="-140.5" font-family="Helvetica,sans-Serif" font-size="10.00">/home/ahussein/Documents</text>
<text text-anchor="start" x="2219" y="-127.75" font-family="Helvetica,sans-Serif" font-size="10.00">/archive/opensourcesourcetrail.github.io</text>
<text text-anchor="middle" x="2316.88" y="-115" font-family="Helvetica,sans-Serif" font-size="10.00">/.ignore/src/src/lib/app/Application.h</text>
</a>
</g>
</g>
<!-- Node1&#45;&gt;Node2 -->
<g id="edge1_Node000001_Node000002" class="edge">
<title>Node1&#45;&gt;Node2</title>
<g id="a_edge1_Node000001_Node000002"><a xlink:title=" ">
<path fill="none" stroke="#63b8ff" d="M2354.71,-180.79C2347.72,-171.75 2340.47,-162.38 2334.21,-154.29"/>
<polygon fill="#63b8ff" stroke="#63b8ff" points="2351.75,-182.69 2360.64,-188.46 2357.29,-178.41 2351.75,-182.69"/>
</a>
</g>
</g>
<!-- Node20 -->
<g id="Node000020" class="node">
<title>Node20</title>
<g id="a_Node000020"><a xlink:href="QtMainWindow_8cpp.html" target="_top" xlink:title=" ">
<polygon fill="white" stroke="#666666" points="4435.75,-65.38 4224,-65.38 4224,-6.38 4435.75,-6.38 4435.75,-65.38"/>
<text text-anchor="start" x="4232" y="-51.88" font-family="Helvetica,sans-Serif" font-size="10.00">/home/ahussein/Documents</text>
<text text-anchor="start" x="4232" y="-39.12" font-family="Helvetica,sans-Serif" font-size="10.00">/archive/opensourcesourcetrail.github.io</text>
<text text-anchor="start" x="4232" y="-26.38" font-family="Helvetica,sans-Serif" font-size="10.00">/.ignore/src/src/lib_gui/qt/window</text>
<text text-anchor="middle" x="4329.88" y="-13.62" font-family="Helvetica,sans-Serif" font-size="10.00">/QtMainWindow.cpp</text>
</a>
</g>
</g>
<!-- Node1&#45;&gt;Node20 -->
<g id="edge21_Node000001_Node000020" class="edge">
<title>Node1&#45;&gt;Node20</title>
<g id="a_edge21_Node000001_Node000020"><a xlink:title=" ">
<path fill="none" stroke="#63b8ff" d="M2501.66,-217.77C2794.21,-214.08 3576.38,-192.7 4214.88,-71.75 4223.48,-70.12 4232.36,-68.08 4241.19,-65.82"/>
<polygon fill="#63b8ff" stroke="#63b8ff" points="2501.67,-214.27 2491.71,-217.89 2501.76,-221.27 2501.67,-214.27"/>
</a>
</g>
</g>
<!-- Node3 -->
<g id="Node000003" class="node">
<title>Node3</title>
<g id="a_Node000003"><a xlink:href="Application_8cpp.html" target="_top" xlink:title=" ">
<polygon fill="white" stroke="#666666" points="211.75,-59 0,-59 0,-12.75 211.75,-12.75 211.75,-59"/>
<text text-anchor="start" x="8" y="-45.5" font-family="Helvetica,sans-Serif" font-size="10.00">/home/ahussein/Documents</text>
<text text-anchor="start" x="8" y="-32.75" font-family="Helvetica,sans-Serif" font-size="10.00">/archive/opensourcesourcetrail.github.io</text>
<text text-anchor="middle" x="105.88" y="-20" font-family="Helvetica,sans-Serif" font-size="10.00">/.ignore/src/src/lib/app/Application.cpp</text>
</a>
</g>
</g>
<!-- Node2&#45;&gt;Node3 -->
<g id="edge2_Node000002_Node000003" class="edge">
<title>Node2&#45;&gt;Node3</title>
<g id="a_edge2_Node000002_Node000003"><a xlink:title=" ">
<path fill="none" stroke="#63b8ff" d="M2199.15,-128.44C1785.89,-123.16 415.78,-103.42 220.88,-71.75 203.89,-68.99 185.9,-64.39 169.33,-59.41"/>
<polygon fill="#63b8ff" stroke="#63b8ff" points="2198.95,-131.94 2208.99,-128.57 2199.04,-124.94 2198.95,-131.94"/>
</a>
</g>
</g>
<!-- Node4 -->
<g id="Node000004" class="node">
<title>Node4</title>
<g id="a_Node000004"><a xlink:href="BookmarkController_8cpp.html" target="_top" xlink:title=" ">
<polygon fill="white" stroke="#666666" points="441.75,-65.38 230,-65.38 230,-6.38 441.75,-6.38 441.75,-65.38"/>
<text text-anchor="start" x="238" y="-51.88" font-family="Helvetica,sans-Serif" font-size="10.00">/home/ahussein/Documents</text>
<text text-anchor="start" x="238" y="-39.12" font-family="Helvetica,sans-Serif" font-size="10.00">/archive/opensourcesourcetrail.github.io</text>
<text text-anchor="start" x="238" y="-26.38" font-family="Helvetica,sans-Serif" font-size="10.00">/.ignore/src/src/lib/component/controller</text>
<text text-anchor="middle" x="335.88" y="-13.62" font-family="Helvetica,sans-Serif" font-size="10.00">/BookmarkController.cpp</text>
</a>
</g>
</g>
<!-- Node2&#45;&gt;Node4 -->
<g id="edge3_Node000002_Node000004" class="edge">
<title>Node2&#45;&gt;Node4</title>
<g id="a_edge3_Node000002_Node000004"><a xlink:title=" ">
<path fill="none" stroke="#63b8ff" d="M2199.31,-130.25C1844.74,-130.75 789.52,-127.37 450.88,-71.75 441.71,-70.25 432.26,-68.21 422.9,-65.87"/>
<polygon fill="#63b8ff" stroke="#63b8ff" points="2199.1,-133.75 2209.1,-130.24 2199.09,-126.75 2199.1,-133.75"/>
</a>
</g>
</g>
<!-- Node5 -->
<g id="Node000005" class="node">
<title>Node5</title>
<g id="a_Node000005"><a xlink:href="CodeController_8cpp.html" target="_top" xlink:title=" ">
<polygon fill="white" stroke="#666666" points="671.75,-65.38 460,-65.38 460,-6.38 671.75,-6.38 671.75,-65.38"/>
<text text-anchor="start" x="468" y="-51.88" font-family="Helvetica,sans-Serif" font-size="10.00">/home/ahussein/Documents</text>
<text text-anchor="start" x="468" y="-39.12" font-family="Helvetica,sans-Serif" font-size="10.00">/archive/opensourcesourcetrail.github.io</text>
<text text-anchor="start" x="468" y="-26.38" font-family="Helvetica,sans-Serif" font-size="10.00">/.ignore/src/src/lib/component/controller</text>
<text text-anchor="middle" x="565.88" y="-13.62" font-family="Helvetica,sans-Serif" font-size="10.00">/CodeController.cpp</text>
</a>
</g>
</g>
<!-- Node2&#45;&gt;Node5 -->
<g id="edge4_Node000002_Node000005" class="edge">
<title>Node2&#45;&gt;Node5</title>
<g id="a_edge4_Node000002_Node000005"><a xlink:title=" ">
<path fill="none" stroke="#63b8ff" d="M2199.41,-129.64C1875.32,-128.37 973.26,-120.43 680.88,-71.75 671.72,-70.23 662.27,-68.18 652.91,-65.83"/>
<polygon fill="#63b8ff" stroke="#63b8ff" points="2199.16,-133.14 2209.18,-129.68 2199.19,-126.14 2199.16,-133.14"/>
</a>
</g>
</g>
<!-- Node6 -->
<g id="Node000006" class="node">
<title>Node6</title>
<g id="a_Node000006"><a xlink:href="ErrorController_8cpp.html" target="_top" xlink:title=" ">
<polygon fill="white" stroke="#666666" points="901.75,-65.38 690,-65.38 690,-6.38 901.75,-6.38 901.75,-65.38"/>
<text text-anchor="start" x="698" y="-51.88" font-family="Helvetica,sans-Serif" font-size="10.00">/home/ahussein/Documents</text>
<text text-anchor="start" x="698" y="-39.12" font-family="Helvetica,sans-Serif" font-size="10.00">/archive/opensourcesourcetrail.github.io</text>
<text text-anchor="start" x="698" y="-26.38" font-family="Helvetica,sans-Serif" font-size="10.00">/.ignore/src/src/lib/component/controller</text>
<text text-anchor="middle" x="795.88" y="-13.62" font-family="Helvetica,sans-Serif" font-size="10.00">/ErrorController.cpp</text>
</a>
</g>
</g>
<!-- Node2&#45;&gt;Node6 -->
<g id="edge5_Node000002_Node000006" class="edge">
<title>Node2&#45;&gt;Node6</title>
<g id="a_edge5_Node000002_Node000006"><a xlink:title=" ">
<path fill="none" stroke="#63b8ff" d="M2199.31,-128.84C1907.76,-125.64 1157.26,-113.51 910.88,-71.75 901.82,-70.22 892.49,-68.18 883.23,-65.86"/>
<polygon fill="#63b8ff" stroke="#63b8ff" points="2199.19,-132.33 2209.23,-128.94 2199.27,-125.34 2199.19,-132.33"/>
</a>
</g>
</g>
<!-- Node7 -->
<g id="Node000007" class="node">
<title>Node7</title>
<g id="a_Node000007"><a xlink:href="GraphController_8cpp.html" target="_top" xlink:title=" ">
<polygon fill="white" stroke="#666666" points="1131.75,-65.38 920,-65.38 920,-6.38 1131.75,-6.38 1131.75,-65.38"/>
<text text-anchor="start" x="928" y="-51.88" font-family="Helvetica,sans-Serif" font-size="10.00">/home/ahussein/Documents</text>
<text text-anchor="start" x="928" y="-39.12" font-family="Helvetica,sans-Serif" font-size="10.00">/archive/opensourcesourcetrail.github.io</text>
<text text-anchor="start" x="928" y="-26.38" font-family="Helvetica,sans-Serif" font-size="10.00">/.ignore/src/src/lib/component/controller</text>
<text text-anchor="middle" x="1025.88" y="-13.62" font-family="Helvetica,sans-Serif" font-size="10.00">/GraphController.cpp</text>
</a>
</g>
</g>
<!-- Node2&#45;&gt;Node7 -->
<g id="edge6_Node000002_Node000007" class="edge">
<title>Node2&#45;&gt;Node7</title>
<g id="a_edge6_Node000002_Node000007"><a xlink:title=" ">
<path fill="none" stroke="#63b8ff" d="M2199.32,-127.72C1943.2,-122.43 1341.68,-106.62 1140.88,-71.75 1131.93,-70.2 1122.71,-68.17 1113.56,-65.86"/>
<polygon fill="#63b8ff" stroke="#63b8ff" points="2198.93,-131.21 2209,-127.92 2199.08,-124.22 2198.93,-131.21"/>
</a>
</g>
</g>
<!-- Node8 -->
<g id="Node000008" class="node">
<title>Node8</title>
<g id="a_Node000008"><a xlink:href="TabsController_8cpp.html" target="_top" xlink:title=" ">
<polygon fill="white" stroke="#666666" points="1361.75,-65.38 1150,-65.38 1150,-6.38 1361.75,-6.38 1361.75,-65.38"/>
<text text-anchor="start" x="1158" y="-51.88" font-family="Helvetica,sans-Serif" font-size="10.00">/home/ahussein/Documents</text>
<text text-anchor="start" x="1158" y="-39.12" font-family="Helvetica,sans-Serif" font-size="10.00">/archive/opensourcesourcetrail.github.io</text>
<text text-anchor="start" x="1158" y="-26.38" font-family="Helvetica,sans-Serif" font-size="10.00">/.ignore/src/src/lib/component/controller</text>
<text text-anchor="middle" x="1255.88" y="-13.62" font-family="Helvetica,sans-Serif" font-size="10.00">/TabsController.cpp</text>
</a>
</g>
</g>
<!-- Node2&#45;&gt;Node8 -->
<g id="edge7_Node000002_Node000008" class="edge">
<title>Node2&#45;&gt;Node8</title>
<g id="a_edge7_Node000002_Node000008"><a xlink:title=" ">
<path fill="none" stroke="#63b8ff" d="M2199.26,-126.07C1982.2,-118.48 1526.6,-99.75 1370.88,-71.75 1362.05,-70.16 1352.94,-68.12 1343.89,-65.83"/>
<polygon fill="#63b8ff" stroke="#63b8ff" points="2199.05,-129.57 2209.17,-126.42 2199.3,-122.57 2199.05,-129.57"/>
</a>
</g>
</g>
<!-- Node9 -->
<g id="Node000009" class="node">
<title>Node9</title>
<g id="a_Node000009"><a xlink:href="UndoRedoController_8cpp.html" target="_top" xlink:title=" ">
<polygon fill="white" stroke="#666666" points="1591.75,-65.38 1380,-65.38 1380,-6.38 1591.75,-6.38 1591.75,-65.38"/>
<text text-anchor="start" x="1388" y="-51.88" font-family="Helvetica,sans-Serif" font-size="10.00">/home/ahussein/Documents</text>
<text text-anchor="start" x="1388" y="-39.12" font-family="Helvetica,sans-Serif" font-size="10.00">/archive/opensourcesourcetrail.github.io</text>
<text text-anchor="start" x="1388" y="-26.38" font-family="Helvetica,sans-Serif" font-size="10.00">/.ignore/src/src/lib/component/controller</text>
<text text-anchor="middle" x="1485.88" y="-13.62" font-family="Helvetica,sans-Serif" font-size="10.00">/UndoRedoController.cpp</text>
</a>
</g>
</g>
<!-- Node2&#45;&gt;Node9 -->
<g id="edge8_Node000002_Node000009" class="edge">
<title>Node2&#45;&gt;Node9</title>
<g id="a_edge8_Node000002_Node000009"><a xlink:title=" ">
<path fill="none" stroke="#63b8ff" d="M2199.33,-128C2056.62,-123.97 1809.19,-111.32 1600.88,-71.75 1592.27,-70.11 1583.39,-68.08 1574.56,-65.81"/>
<polygon fill="#63b8ff" stroke="#63b8ff" points="2199.08,-131.5 2209.17,-128.27 2199.27,-124.5 2199.08,-131.5"/>
</a>
</g>
</g>
<!-- Node10 -->
<g id="Node000010" class="node">
<title>Node10</title>
<g id="a_Node000010"><a xlink:href="TaskCleanStorage_8cpp.html" target="_top" xlink:title=" ">
<polygon fill="white" stroke="#666666" points="1847.5,-59 1610.25,-59 1610.25,-12.75 1847.5,-12.75 1847.5,-59"/>
<text text-anchor="start" x="1618.25" y="-45.5" font-family="Helvetica,sans-Serif" font-size="10.00">/home/ahussein/Documents</text>
<text text-anchor="start" x="1618.25" y="-32.75" font-family="Helvetica,sans-Serif" font-size="10.00">/archive/opensourcesourcetrail.github.io</text>
<text text-anchor="middle" x="1728.88" y="-20" font-family="Helvetica,sans-Serif" font-size="10.00">/.ignore/src/src/lib/data/TaskCleanStorage.cpp</text>
</a>
</g>
</g>
<!-- Node2&#45;&gt;Node10 -->
<g id="edge9_Node000002_Node000010" class="edge">
<title>Node2&#45;&gt;Node10</title>
<g id="a_edge9_Node000002_Node000010"><a xlink:title=" ">
<path fill="none" stroke="#63b8ff" d="M2199.5,-119.63C2106.11,-110.37 1972.39,-94.67 1856.88,-71.75 1839.93,-68.39 1821.93,-64 1804.94,-59.48"/>
<polygon fill="#63b8ff" stroke="#63b8ff" points="2198.89,-123.08 2209.18,-120.58 2199.57,-116.12 2198.89,-123.08"/>
</a>
</g>
</g>
<!-- Node11 -->
<g id="Node000011" class="node">
<title>Node11</title>
<g id="a_Node000011"><a xlink:href="SqliteBookmarkStorage_8cpp.html" target="_top" xlink:title=" ">
<polygon fill="white" stroke="#666666" points="2077.75,-65.38 1866,-65.38 1866,-6.38 2077.75,-6.38 2077.75,-65.38"/>
<text text-anchor="start" x="1874" y="-51.88" font-family="Helvetica,sans-Serif" font-size="10.00">/home/ahussein/Documents</text>
<text text-anchor="start" x="1874" y="-39.12" font-family="Helvetica,sans-Serif" font-size="10.00">/archive/opensourcesourcetrail.github.io</text>
<text text-anchor="start" x="1874" y="-26.38" font-family="Helvetica,sans-Serif" font-size="10.00">/.ignore/src/src/lib/data/storage</text>
<text text-anchor="middle" x="1971.88" y="-13.62" font-family="Helvetica,sans-Serif" font-size="10.00">/sqlite/SqliteBookmarkStorage.cpp</text>
</a>
</g>
</g>
<!-- Node2&#45;&gt;Node11 -->
<g id="edge10_Node000002_Node000011" class="edge">
<title>Node2&#45;&gt;Node11</title>
<g id="a_edge10_Node000002_Node000011"><a xlink:title=" ">
<path fill="none" stroke="#63b8ff" d="M2212.22,-104.53C2172.82,-94.69 2127.68,-83.09 2086.88,-71.75 2080.14,-69.88 2073.2,-67.9 2066.22,-65.87"/>
<polygon fill="#63b8ff" stroke="#63b8ff" points="2211.15,-107.87 2221.7,-106.89 2212.84,-101.08 2211.15,-107.87"/>
</a>
</g>
</g>
<!-- Node12 -->
<g id="Node000012" class="node">
<title>Node12</title>
<g id="a_Node000012"><a xlink:href="SourceGroupCxxCdb_8cpp.html" target="_top" xlink:title=" ">
<polygon fill="white" stroke="#666666" points="2307.75,-65.38 2096,-65.38 2096,-6.38 2307.75,-6.38 2307.75,-65.38"/>
<text text-anchor="start" x="2104" y="-51.88" font-family="Helvetica,sans-Serif" font-size="10.00">/home/ahussein/Documents</text>
<text text-anchor="start" x="2104" y="-39.12" font-family="Helvetica,sans-Serif" font-size="10.00">/archive/opensourcesourcetrail.github.io</text>
<text text-anchor="start" x="2104" y="-26.38" font-family="Helvetica,sans-Serif" font-size="10.00">/.ignore/src/src/lib_cxx/project</text>
<text text-anchor="middle" x="2201.88" y="-13.62" font-family="Helvetica,sans-Serif" font-size="10.00">/SourceGroupCxxCdb.cpp</text>
</a>
</g>
</g>
<!-- Node2&#45;&gt;Node12 -->
<g id="edge11_Node000002_Node000012" class="edge">
<title>Node2&#45;&gt;Node12</title>
<g id="a_edge11_Node000002_Node000012"><a xlink:title=" ">
<path fill="none" stroke="#63b8ff" d="M2280.38,-100.36C2266.75,-89.34 2251.3,-76.84 2237.73,-65.87"/>
<polygon fill="#63b8ff" stroke="#63b8ff" points="2277.88,-102.84 2287.86,-106.41 2282.29,-97.4 2277.88,-102.84"/>
</a>
</g>
</g>
<!-- Node13 -->
<g id="Node000013" class="node">
<title>Node13</title>
<g id="a_Node000013"><a xlink:href="SourceGroupCxxCodeblocks_8cpp.html" target="_top" xlink:title=" ">
<polygon fill="white" stroke="#666666" points="2537.75,-65.38 2326,-65.38 2326,-6.38 2537.75,-6.38 2537.75,-65.38"/>
<text text-anchor="start" x="2334" y="-51.88" font-family="Helvetica,sans-Serif" font-size="10.00">/home/ahussein/Documents</text>
<text text-anchor="start" x="2334" y="-39.12" font-family="Helvetica,sans-Serif" font-size="10.00">/archive/opensourcesourcetrail.github.io</text>
<text text-anchor="start" x="2334" y="-26.38" font-family="Helvetica,sans-Serif" font-size="10.00">/.ignore/src/src/lib_cxx/project</text>
<text text-anchor="middle" x="2431.88" y="-13.62" font-family="Helvetica,sans-Serif" font-size="10.00">/SourceGroupCxxCodeblocks.cpp</text>
</a>
</g>
</g>
<!-- Node2&#45;&gt;Node13 -->
<g id="edge12_Node000002_Node000013" class="edge">
<title>Node2&#45;&gt;Node13</title>
<g id="a_edge12_Node000002_Node000013"><a xlink:title=" ">
<path fill="none" stroke="#63b8ff" d="M2353.37,-100.36C2367,-89.34 2382.45,-76.84 2396.02,-65.87"/>
<polygon fill="#63b8ff" stroke="#63b8ff" points="2351.46,-97.4 2345.89,-106.41 2355.87,-102.84 2351.46,-97.4"/>
</a>
</g>
</g>
<!-- Node14 -->
<g id="Node000014" class="node">
<title>Node14</title>
<g id="a_Node000014"><a xlink:href="includesWindows_8h.html" target="_top" xlink:title=" ">
<polygon fill="white" stroke="#666666" points="2767.75,-65.38 2556,-65.38 2556,-6.38 2767.75,-6.38 2767.75,-65.38"/>
<text text-anchor="start" x="2564" y="-51.88" font-family="Helvetica,sans-Serif" font-size="10.00">/home/ahussein/Documents</text>
<text text-anchor="start" x="2564" y="-39.12" font-family="Helvetica,sans-Serif" font-size="10.00">/archive/opensourcesourcetrail.github.io</text>
<text text-anchor="start" x="2564" y="-26.38" font-family="Helvetica,sans-Serif" font-size="10.00">/.ignore/src/src/lib_gui/platform</text>
<text text-anchor="middle" x="2661.88" y="-13.62" font-family="Helvetica,sans-Serif" font-size="10.00">_includes/includesWindows.h</text>
</a>
</g>
</g>
<!-- Node2&#45;&gt;Node14 -->
<g id="edge13_Node000002_Node000014" class="edge">
<title>Node2&#45;&gt;Node14</title>
<g id="a_edge13_Node000002_Node000014"><a xlink:title=" ">
<path fill="none" stroke="#63b8ff" d="M2421.53,-104.53C2460.93,-94.69 2506.07,-83.09 2546.88,-71.75 2553.61,-69.88 2560.55,-67.9 2567.53,-65.87"/>
<polygon fill="#63b8ff" stroke="#63b8ff" points="2420.91,-101.08 2412.05,-106.89 2422.6,-107.87 2420.91,-101.08"/>
</a>
</g>
</g>
<!-- Node15 -->
<g id="Node000015" class="node">
<title>Node15</title>
<g id="a_Node000015"><a xlink:href="QtCodeFileTitleBar_8cpp.html" target="_top" xlink:title=" ">
<polygon fill="white" stroke="#666666" points="2997.75,-65.38 2786,-65.38 2786,-6.38 2997.75,-6.38 2997.75,-65.38"/>
<text text-anchor="start" x="2794" y="-51.88" font-family="Helvetica,sans-Serif" font-size="10.00">/home/ahussein/Documents</text>
<text text-anchor="start" x="2794" y="-39.12" font-family="Helvetica,sans-Serif" font-size="10.00">/archive/opensourcesourcetrail.github.io</text>
<text text-anchor="start" x="2794" y="-26.38" font-family="Helvetica,sans-Serif" font-size="10.00">/.ignore/src/src/lib_gui/qt/element</text>
<text text-anchor="middle" x="2891.88" y="-13.62" font-family="Helvetica,sans-Serif" font-size="10.00">/code/QtCodeFileTitleBar.cpp</text>
</a>
</g>
</g>
<!-- Node2&#45;&gt;Node15 -->
<g id="edge14_Node000002_Node000015" class="edge">
<title>Node2&#45;&gt;Node15</title>
<g id="a_edge14_Node000002_Node000015"><a xlink:title=" ">
<path fill="none" stroke="#63b8ff" d="M2434.43,-120.53C2527.93,-111.78 2661.7,-96.31 2776.88,-71.75 2784.93,-70.03 2793.25,-68.01 2801.54,-65.83"/>
<polygon fill="#63b8ff" stroke="#63b8ff" points="2434.38,-117.02 2424.74,-121.43 2435.02,-123.99 2434.38,-117.02"/>
</a>
</g>
</g>
<!-- Node16 -->
<g id="Node000016" class="node">
<title>Node16</title>
<g id="a_Node000016"><a xlink:href="QtCodeFileTitleButton_8cpp.html" target="_top" xlink:title=" ">
<polygon fill="white" stroke="#666666" points="3227.75,-65.38 3016,-65.38 3016,-6.38 3227.75,-6.38 3227.75,-65.38"/>
<text text-anchor="start" x="3024" y="-51.88" font-family="Helvetica,sans-Serif" font-size="10.00">/home/ahussein/Documents</text>
<text text-anchor="start" x="3024" y="-39.12" font-family="Helvetica,sans-Serif" font-size="10.00">/archive/opensourcesourcetrail.github.io</text>
<text text-anchor="start" x="3024" y="-26.38" font-family="Helvetica,sans-Serif" font-size="10.00">/.ignore/src/src/lib_gui/qt/element</text>
<text text-anchor="middle" x="3121.88" y="-13.62" font-family="Helvetica,sans-Serif" font-size="10.00">/code/QtCodeFileTitleButton.cpp</text>
</a>
</g>
</g>
<!-- Node2&#45;&gt;Node16 -->
<g id="edge15_Node000002_Node000016" class="edge">
<title>Node2&#45;&gt;Node16</title>
<g id="a_edge15_Node000002_Node000016"><a xlink:title=" ">
<path fill="none" stroke="#63b8ff" d="M2434.44,-127.48C2572.59,-122.94 2808.2,-109.8 3006.88,-71.75 3015.38,-70.12 3024.15,-68.1 3032.87,-65.87"/>
<polygon fill="#63b8ff" stroke="#63b8ff" points="2434.42,-123.98 2424.54,-127.8 2434.64,-130.98 2434.42,-123.98"/>
</a>
</g>
</g>
<!-- Node17 -->
<g id="Node000017" class="node">
<title>Node17</title>
<g id="a_Node000017"><a xlink:href="QtProjectWizard_8cpp.html" target="_top" xlink:title=" ">
<polygon fill="white" stroke="#666666" points="3457.75,-65.38 3246,-65.38 3246,-6.38 3457.75,-6.38 3457.75,-65.38"/>
<text text-anchor="start" x="3254" y="-51.88" font-family="Helvetica,sans-Serif" font-size="10.00">/home/ahussein/Documents</text>
<text text-anchor="start" x="3254" y="-39.12" font-family="Helvetica,sans-Serif" font-size="10.00">/archive/opensourcesourcetrail.github.io</text>
<text text-anchor="start" x="3254" y="-26.38" font-family="Helvetica,sans-Serif" font-size="10.00">/.ignore/src/src/lib_gui/qt/project</text>
<text text-anchor="middle" x="3351.88" y="-13.62" font-family="Helvetica,sans-Serif" font-size="10.00">_wizard/QtProjectWizard.cpp</text>
</a>
</g>
</g>
<!-- Node2&#45;&gt;Node17 -->
<g id="edge16_Node000002_Node000017" class="edge">
<title>Node2&#45;&gt;Node17</title>
<g id="a_edge16_Node000002_Node000017"><a xlink:title=" ">
<path fill="none" stroke="#63b8ff" d="M2434.42,-125.84C2646.75,-117.98 3086.19,-98.98 3236.88,-71.75 3245.7,-70.15 3254.81,-68.11 3263.85,-65.82"/>
<polygon fill="#63b8ff" stroke="#63b8ff" points="2434.31,-122.34 2424.44,-126.2 2434.57,-129.33 2434.31,-122.34"/>
</a>
</g>
</g>
<!-- Node18 -->
<g id="Node000018" class="node">
<title>Node18</title>
<g id="a_Node000018"><a xlink:href="QtProjectWizardContentPathsHeaderSearch_8cpp.html" target="_top" xlink:title=" ">
<polygon fill="white" stroke="#666666" points="3746,-71.75 3475.75,-71.75 3475.75,0 3746,0 3746,-71.75"/>
<text text-anchor="start" x="3483.75" y="-58.25" font-family="Helvetica,sans-Serif" font-size="10.00">/home/ahussein/Documents</text>
<text text-anchor="start" x="3483.75" y="-45.5" font-family="Helvetica,sans-Serif" font-size="10.00">/archive/opensourcesourcetrail.github.io</text>
<text text-anchor="start" x="3483.75" y="-32.75" font-family="Helvetica,sans-Serif" font-size="10.00">/.ignore/src/src/lib_gui/qt/project</text>
<text text-anchor="start" x="3483.75" y="-20" font-family="Helvetica,sans-Serif" font-size="10.00">_wizard/content/paths/QtProjectWizardContentPaths</text>
<text text-anchor="middle" x="3610.88" y="-7.25" font-family="Helvetica,sans-Serif" font-size="10.00">HeaderSearch.cpp</text>
</a>
</g>
</g>
<!-- Node2&#45;&gt;Node18 -->
<g id="edge17_Node000002_Node000018" class="edge">
<title>Node2&#45;&gt;Node18</title>
<g id="a_edge17_Node000002_Node000018"><a xlink:title=" ">
<path fill="none" stroke="#63b8ff" d="M2434.4,-126.73C2686.1,-119.53 3270.33,-100.26 3466.88,-71.75 3469.68,-71.34 3472.5,-70.91 3475.34,-70.45"/>
<polygon fill="#63b8ff" stroke="#63b8ff" points="2434.44,-123.22 2424.54,-127.01 2434.64,-130.22 2434.44,-123.22"/>
</a>
</g>
</g>
<!-- Node19 -->
<g id="Node000019" class="node">
<title>Node19</title>
<g id="a_Node000019"><a xlink:href="QtTabsView_8cpp.html" target="_top" xlink:title=" ">
<polygon fill="white" stroke="#666666" points="3975.75,-65.38 3764,-65.38 3764,-6.38 3975.75,-6.38 3975.75,-65.38"/>
<text text-anchor="start" x="3772" y="-51.88" font-family="Helvetica,sans-Serif" font-size="10.00">/home/ahussein/Documents</text>
<text text-anchor="start" x="3772" y="-39.12" font-family="Helvetica,sans-Serif" font-size="10.00">/archive/opensourcesourcetrail.github.io</text>
<text text-anchor="start" x="3772" y="-26.38" font-family="Helvetica,sans-Serif" font-size="10.00">/.ignore/src/src/lib_gui/qt/view</text>
<text text-anchor="middle" x="3869.88" y="-13.62" font-family="Helvetica,sans-Serif" font-size="10.00">/QtTabsView.cpp</text>
</a>
</g>
</g>
<!-- Node2&#45;&gt;Node19 -->
<g id="edge18_Node000002_Node000019" class="edge">
<title>Node2&#45;&gt;Node19</title>
<g id="a_edge18_Node000002_Node000019"><a xlink:title=" ">
<path fill="none" stroke="#63b8ff" d="M2434.26,-128.96C2730.37,-126.05 3502.06,-114.48 3754.88,-71.75 3763.93,-70.22 3773.26,-68.19 3782.52,-65.87"/>
<polygon fill="#63b8ff" stroke="#63b8ff" points="2434.56,-125.46 2424.59,-129.06 2434.62,-132.46 2434.56,-125.46"/>
</a>
</g>
</g>
<!-- Node2&#45;&gt;Node20 -->
<g id="edge19_Node000002_Node000020" class="edge">
<title>Node2&#45;&gt;Node20</title>
<g id="a_edge19_Node000002_Node000020"><a xlink:title=" ">
<path fill="none" stroke="#63b8ff" d="M2434.36,-127.13C2834.9,-117.66 4126.99,-86.16 4214.88,-71.75 4224.14,-70.23 4233.7,-68.17 4243.17,-65.8"/>
<polygon fill="#63b8ff" stroke="#63b8ff" points="2434.49,-123.63 2424.57,-127.36 2434.65,-130.62 2434.49,-123.63"/>
</a>
</g>
</g>
<!-- Node21 -->
<g id="Node000021" class="node">
<title>Node21</title>
<g id="a_Node000021"><a xlink:href="QtPreferencesWindow_8cpp.html" target="_top" xlink:title=" ">
<polygon fill="white" stroke="#666666" points="4205.75,-65.38 3994,-65.38 3994,-6.38 4205.75,-6.38 4205.75,-65.38"/>
<text text-anchor="start" x="4002" y="-51.88" font-family="Helvetica,sans-Serif" font-size="10.00">/home/ahussein/Documents</text>
<text text-anchor="start" x="4002" y="-39.12" font-family="Helvetica,sans-Serif" font-size="10.00">/archive/opensourcesourcetrail.github.io</text>
<text text-anchor="start" x="4002" y="-26.38" font-family="Helvetica,sans-Serif" font-size="10.00">/.ignore/src/src/lib_gui/qt/window</text>
<text text-anchor="middle" x="4099.88" y="-13.62" font-family="Helvetica,sans-Serif" font-size="10.00">/QtPreferencesWindow.cpp</text>
</a>
</g>
</g>
<!-- Node2&#45;&gt;Node21 -->
<g id="edge20_Node000002_Node000021" class="edge">
<title>Node2&#45;&gt;Node21</title>
<g id="a_edge20_Node000002_Node000021"><a xlink:title=" ">
<path fill="none" stroke="#63b8ff" d="M2434.28,-127.55C2788.8,-120.27 3833.37,-96.92 3984.88,-71.75 3994.03,-70.23 4003.48,-68.18 4012.85,-65.84"/>
<polygon fill="#63b8ff" stroke="#63b8ff" points="2434.42,-124.04 2424.49,-127.75 2434.56,-131.04 2434.42,-124.04"/>
</a>
</g>
</g>
</g>
</svg>

<g id="navigator" transform="translate(0 0)" fill="#404254">
  <rect fill="#f2f5e9" fill-opacity="0.5" stroke="#606060" stroke-width=".5" x="0" y="0" width="60" height="60"/>
  <use id="zoomplus" xlink:href="#zoomPlus" x="17" y="9" onmousedown="handleZoom(evt,'in')"/>
  <use id="zoomminus" xlink:href="#zoomMin" x="42" y="9" onmousedown="handleZoom(evt,'out')"/>
  <use id="reset" xlink:href="#resetDef" x="30" y="36" onmousedown="handleReset()"/>
   <use id="arrowup" xlink:href="#arrowUp" x="0" y="0" onmousedown="handlePan(0,-1)"/>
  <use id="arrowright" xlink:href="#arrowRight" x="0" y="0" onmousedown="handlePan(1,0)"/>
  <use id="arrowdown" xlink:href="#arrowDown" x="0" y="0" onmousedown="handlePan(0,1)"/>
  <use id="arrowleft" xlink:href="#arrowLeft" x="0" y="0" onmousedown="handlePan(-1,0)"/>
</g>
<svg viewBox="0 0 15 15" width="100%" height="30px" preserveAspectRatio="xMaxYMin meet">
 <g id="arrow_out" transform="scale(0.3 0.3)">
  <a xlink:href="MessageCloseProject_8h__dep__incl_org.svg" target="_base">
   <rect id="button" ry="5" rx="5" y="6" x="6" height="38" width="38"
        fill="#f2f5e9" fill-opacity="0.5" stroke="#606060" stroke-width="1.0"/>
   <path id="arrow"
     d="M 11.500037,31.436501 C 11.940474,20.09759 22.043105,11.32322 32.158766,21.979434 L 37.068811,17.246167 C 37.068811,17.246167 37.088388,32 37.088388,32 L 22.160133,31.978069 C 22.160133,31.978069 26.997745,27.140456 26.997745,27.140456 C 18.528582,18.264221 13.291696,25.230495 11.500037,31.436501 z"
     style="fill:#404040;"/>
  </a>
 </g>
</svg>

<style type='text/css'>
<![CDATA[
[data-mouse-over-selected='false'] { opacity: 0.7; }
[data-mouse-over-selected='true']  { opacity: 1.0; }
]]>
</style>
<script type="application/ecmascript"><![CDATA[
document.addEventListener('DOMContentLoaded', (event) => {
  highlightEdges();
  highlightAdjacentNodes();
});
]]></script>
</svg>
