<?xml version="1.0" encoding="UTF-8" standalone="no"?>
<!DOCTYPE svg PUBLIC "-//W3C//DTD SVG 1.1//EN"
 "http://www.w3.org/Graphics/SVG/1.1/DTD/svg11.dtd">
<!-- Generated by graphviz version 7.1.0 (0)
 -->
<!-- Title: utility::getApplicationArchitectureType Pages: 1 -->
<svg width="1051pt" height="150pt"
 viewBox="0.00 0.00 1051.00 149.50" xmlns="http://www.w3.org/2000/svg" xmlns:xlink="http://www.w3.org/1999/xlink">
<g id="graph0" class="graph" transform="scale(1 1) rotate(0) translate(4 145.5)">
<title>utility::getApplicationArchitectureType</title>
<!-- Node1 -->
<g id="node1" class="node">
<title>Node1</title>
<g id="a_node1"><a xlink:title=" ">
<polygon fill="#999999" stroke="#666666" points="1043,-74 840,-74 840,-55 1043,-55 1043,-74"/>
<text text-anchor="middle" x="941.5" y="-62" font-family="Helvetica,sans-Serif" font-size="10.00">utility::getApplicationArchitectureType</text>
</a>
</g>
</g>
<!-- Node2 -->
<g id="node2" class="node">
<title>Node2</title>
<g id="a_node2"><a xlink:href="classSharedMemoryGarbageCollector.html#aa26ec85107ce8faa9a56a90313a1fdc6" target="_top" xlink:title=" ">
<polygon fill="white" stroke="#666666" points="804,-141.5 628,-141.5 628,-111.5 804,-111.5 804,-141.5"/>
<text text-anchor="start" x="636" y="-129.5" font-family="Helvetica,sans-Serif" font-size="10.00">SharedMemoryGarbageCollector</text>
<text text-anchor="middle" x="716" y="-118.5" font-family="Helvetica,sans-Serif" font-size="10.00">::getMemoryName</text>
</a>
</g>
</g>
<!-- Node1&#45;&gt;Node2 -->
<g id="edge1" class="edge">
<title>Node1&#45;&gt;Node2</title>
<path fill="none" stroke="#63b8ff" d="M894.03,-77.47C867.64,-84.82 833.97,-94.19 804,-102.5 794.03,-105.26 783.42,-108.19 773.17,-111.03"/>
<polygon fill="#63b8ff" stroke="#63b8ff" points="894.72,-80.91 903.41,-74.85 892.84,-74.16 894.72,-80.91"/>
</g>
<!-- Node5 -->
<g id="node5" class="node">
<title>Node5</title>
<g id="a_node5"><a xlink:href="classLogManager.html#a6865ebbe8d6e5711403849ed37500b9a" target="_top" xlink:title=" ">
<polygon fill="white" stroke="#666666" points="803.5,-93 628.5,-93 628.5,-74 803.5,-74 803.5,-93"/>
<text text-anchor="middle" x="716" y="-81" font-family="Helvetica,sans-Serif" font-size="10.00">LogManager::setLoggingEnabled</text>
</a>
</g>
</g>
<!-- Node1&#45;&gt;Node5 -->
<g id="edge4" class="edge">
<title>Node1&#45;&gt;Node5</title>
<path fill="none" stroke="#63b8ff" d="M828.34,-74.04C820.11,-74.73 811.89,-75.43 803.85,-76.12"/>
<polygon fill="#63b8ff" stroke="#63b8ff" points="828.36,-77.55 838.03,-73.21 827.77,-70.57 828.36,-77.55"/>
</g>
<!-- Node6 -->
<g id="node6" class="node">
<title>Node6</title>
<g id="a_node6"><a xlink:href="classQtAbout.html#a0aa719f212e205f0b248cbdf375f30bd" target="_top" xlink:title=" ">
<polygon fill="white" stroke="#666666" points="775,-56 657,-56 657,-37 775,-37 775,-56"/>
<text text-anchor="middle" x="716" y="-44" font-family="Helvetica,sans-Serif" font-size="10.00">QtAbout::setupAbout</text>
</a>
</g>
</g>
<!-- Node1&#45;&gt;Node6 -->
<g id="edge5" class="edge">
<title>Node1&#45;&gt;Node6</title>
<path fill="none" stroke="#63b8ff" d="M828.17,-55.45C809.9,-53.98 791.64,-52.51 775.36,-51.2"/>
<polygon fill="#63b8ff" stroke="#63b8ff" points="827.78,-58.93 838.03,-56.25 828.34,-51.96 827.78,-58.93"/>
</g>
<!-- Node10 -->
<g id="node10" class="node">
<title>Node10</title>
<g id="a_node10"><a xlink:href="includesWindows_8h.html#a279ec6379bff22ef4d7e6d1bf55b3347" target="_top" xlink:title=" ">
<polygon fill="white" stroke="#666666" points="747,-19 685,-19 685,0 747,0 747,-19"/>
<text text-anchor="middle" x="716" y="-7" font-family="Helvetica,sans-Serif" font-size="10.00">setupApp</text>
</a>
</g>
</g>
<!-- Node1&#45;&gt;Node10 -->
<g id="edge9" class="edge">
<title>Node1&#45;&gt;Node10</title>
<path fill="none" stroke="#63b8ff" d="M895.29,-51.51C868.79,-44.08 834.61,-34.81 804,-27.5 785.25,-23.02 764.07,-18.63 747.3,-15.3"/>
<polygon fill="#63b8ff" stroke="#63b8ff" points="894.12,-54.81 904.69,-54.16 896.02,-48.07 894.12,-54.81"/>
</g>
<!-- Node3 -->
<g id="node3" class="node">
<title>Node3</title>
<g id="a_node3"><a xlink:href="classSharedMemoryGarbageCollector.html#a34258f0bf5f0dd57e3987c1b6ffc441b" target="_top" xlink:title=" ">
<polygon fill="white" stroke="#666666" points="592,-141.5 416,-141.5 416,-111.5 592,-111.5 592,-141.5"/>
<text text-anchor="start" x="424" y="-129.5" font-family="Helvetica,sans-Serif" font-size="10.00">SharedMemoryGarbageCollector</text>
<text text-anchor="middle" x="504" y="-118.5" font-family="Helvetica,sans-Serif" font-size="10.00">::stop</text>
</a>
</g>
</g>
<!-- Node2&#45;&gt;Node3 -->
<g id="edge2" class="edge">
<title>Node2&#45;&gt;Node3</title>
<path fill="none" stroke="#63b8ff" d="M616.43,-126.5C608.37,-126.5 600.27,-126.5 592.3,-126.5"/>
<polygon fill="#63b8ff" stroke="#63b8ff" points="616.25,-130 626.25,-126.5 616.25,-123 616.25,-130"/>
</g>
<!-- Node4 -->
<g id="node4" class="node">
<title>Node4</title>
<g id="a_node4"><a xlink:href="classApplication.html#a748bca84fefb9c12661cfaa2f623748d" target="_top" xlink:title=" ">
<polygon fill="white" stroke="#666666" points="363.5,-136 223.5,-136 223.5,-117 363.5,-117 363.5,-136"/>
<text text-anchor="middle" x="293.5" y="-124" font-family="Helvetica,sans-Serif" font-size="10.00">Application::~Application</text>
</a>
</g>
</g>
<!-- Node3&#45;&gt;Node4 -->
<g id="edge3" class="edge">
<title>Node3&#45;&gt;Node4</title>
<path fill="none" stroke="#63b8ff" d="M404.36,-126.5C390.7,-126.5 376.92,-126.5 363.94,-126.5"/>
<polygon fill="#63b8ff" stroke="#63b8ff" points="404.27,-130 414.27,-126.5 404.27,-123 404.27,-130"/>
</g>
<!-- Node7 -->
<g id="node7" class="node">
<title>Node7</title>
<g id="a_node7"><a xlink:href="classQtMainWindow.html#a37bd6469f1d56ba750e9e0a33ff38c9b" target="_top" xlink:title=" ">
<polygon fill="white" stroke="#666666" points="566.5,-56 441.5,-56 441.5,-37 566.5,-37 566.5,-56"/>
<text text-anchor="middle" x="504" y="-44" font-family="Helvetica,sans-Serif" font-size="10.00">QtMainWindow::about</text>
</a>
</g>
</g>
<!-- Node6&#45;&gt;Node7 -->
<g id="edge6" class="edge">
<title>Node6&#45;&gt;Node7</title>
<path fill="none" stroke="#63b8ff" d="M645.12,-46.5C619.81,-46.5 591.42,-46.5 566.85,-46.5"/>
<polygon fill="#63b8ff" stroke="#63b8ff" points="644.99,-50 654.99,-46.5 644.99,-43 644.99,-50"/>
</g>
<!-- Node8 -->
<g id="node8" class="node">
<title>Node8</title>
<g id="a_node8"><a xlink:href="classQtMainWindow.html#ab225e8eeed9eae85d5ab3748c1d17903" target="_top" xlink:title=" ">
<polygon fill="white" stroke="#666666" points="380,-56 207,-56 207,-37 380,-37 380,-56"/>
<text text-anchor="middle" x="293.5" y="-44" font-family="Helvetica,sans-Serif" font-size="10.00">QtMainWindow::setupHelpMenu</text>
</a>
</g>
</g>
<!-- Node7&#45;&gt;Node8 -->
<g id="edge7" class="edge">
<title>Node7&#45;&gt;Node8</title>
<path fill="none" stroke="#63b8ff" d="M429.59,-46.5C413.61,-46.5 396.58,-46.5 380.18,-46.5"/>
<polygon fill="#63b8ff" stroke="#63b8ff" points="429.49,-50 439.49,-46.5 429.49,-43 429.49,-50"/>
</g>
<!-- Node9 -->
<g id="node9" class="node">
<title>Node9</title>
<g id="a_node9"><a xlink:href="classQtMainWindow.html#ab526da2f9eb598fdbee15a62a4323ad0" target="_top" xlink:title=" ">
<polygon fill="white" stroke="#666666" points="171,-56 0,-56 0,-37 171,-37 171,-56"/>
<text text-anchor="middle" x="85.5" y="-44" font-family="Helvetica,sans-Serif" font-size="10.00">QtMainWindow::QtMainWindow</text>
</a>
</g>
</g>
<!-- Node8&#45;&gt;Node9 -->
<g id="edge8" class="edge">
<title>Node8&#45;&gt;Node9</title>
<path fill="none" stroke="#63b8ff" d="M195.31,-46.5C187.27,-46.5 179.18,-46.5 171.24,-46.5"/>
<polygon fill="#63b8ff" stroke="#63b8ff" points="195.12,-50 205.12,-46.5 195.12,-43 195.12,-50"/>
</g>
</g>
</svg>
