<?xml version="1.0" encoding="UTF-8" standalone="no"?>
<!DOCTYPE svg PUBLIC "-//W3C//DTD SVG 1.1//EN"
 "http://www.w3.org/Graphics/SVG/1.1/DTD/svg11.dtd">
<!-- Generated by graphviz version 9.0.0 (0)
 -->
<!-- Title: utility::convertTagKind Pages: 1 -->
<svg width="344pt" height="146pt"
 viewBox="0.00 0.00 343.75 145.50" xmlns="http://www.w3.org/2000/svg" xmlns:xlink="http://www.w3.org/1999/xlink">
<g id="graph0" class="graph" transform="scale(1 1) rotate(0) translate(4 141.5)">
<title>utility::convertTagKind</title>
<!-- Node1 -->
<g id="Node000001" class="node">
<title>Node1</title>
<g id="a_Node000001"><a xlink:title=" ">
<polygon fill="#999999" stroke="#666666" points="335.75,-79.12 211,-79.12 211,-58.38 335.75,-58.38 335.75,-79.12"/>
<text text-anchor="middle" x="273.38" y="-65.62" font-family="Helvetica,sans-Serif" font-size="10.00">utility::convertTagKind</text>
</a>
</g>
</g>
<!-- Node2 -->
<g id="Node000002" class="node">
<title>Node2</title>
<g id="a_Node000002"><a xlink:href="classCxxAstVisitorComponentIndexer.html#ab2a78c3313d56980c89efbe2e86566be" target="_top" xlink:title=" ">
<polygon fill="white" stroke="#666666" points="175,-137.5 0,-137.5 0,-104 175,-104 175,-137.5"/>
<text text-anchor="start" x="8" y="-124" font-family="Helvetica,sans-Serif" font-size="10.00">CxxAstVisitorComponentIndexer</text>
<text text-anchor="middle" x="87.5" y="-111.25" font-family="Helvetica,sans-Serif" font-size="10.00">::visitTagDecl</text>
</a>
</g>
</g>
<!-- Node1&#45;&gt;Node2 -->
<g id="edge1_Node000001_Node000002" class="edge">
<title>Node1&#45;&gt;Node2</title>
<g id="a_edge1_Node000001_Node000002"><a xlink:title=" ">
<path fill="none" stroke="#63b8ff" d="M223.5,-82.57C200.74,-89.01 173.43,-96.73 149.35,-103.54"/>
<polygon fill="#63b8ff" stroke="#63b8ff" points="224.15,-86.03 232.82,-79.94 222.24,-79.29 224.15,-86.03"/>
</a>
</g>
</g>
<!-- Node3 -->
<g id="Node000003" class="node">
<title>Node3</title>
<g id="a_Node000003"><a xlink:href="classCxxAstVisitorComponentIndexer.html#ad2a4b336a87855412b30e469e01f693f" target="_top" xlink:title=" ">
<polygon fill="white" stroke="#666666" points="175,-85.5 0,-85.5 0,-52 175,-52 175,-85.5"/>
<text text-anchor="start" x="8" y="-72" font-family="Helvetica,sans-Serif" font-size="10.00">CxxAstVisitorComponentIndexer</text>
<text text-anchor="middle" x="87.5" y="-59.25" font-family="Helvetica,sans-Serif" font-size="10.00">::visitTypeAliasDecl</text>
</a>
</g>
</g>
<!-- Node1&#45;&gt;Node3 -->
<g id="edge2_Node000001_Node000003" class="edge">
<title>Node1&#45;&gt;Node3</title>
<g id="a_edge2_Node000001_Node000003"><a xlink:title=" ">
<path fill="none" stroke="#63b8ff" d="M199.25,-68.75C191.36,-68.75 183.28,-68.75 175.25,-68.75"/>
<polygon fill="#63b8ff" stroke="#63b8ff" points="199.12,-72.25 209.12,-68.75 199.12,-65.25 199.12,-72.25"/>
</a>
</g>
</g>
<!-- Node4 -->
<g id="Node000004" class="node">
<title>Node4</title>
<g id="a_Node000004"><a xlink:href="classCxxAstVisitorComponentIndexer.html#a8f136cff2e81e7fdf1d7137b3d359a9e" target="_top" xlink:title=" ">
<polygon fill="white" stroke="#666666" points="175,-33.5 0,-33.5 0,0 175,0 175,-33.5"/>
<text text-anchor="start" x="8" y="-20" font-family="Helvetica,sans-Serif" font-size="10.00">CxxAstVisitorComponentIndexer</text>
<text text-anchor="middle" x="87.5" y="-7.25" font-family="Helvetica,sans-Serif" font-size="10.00">::visitTypedefDecl</text>
</a>
</g>
</g>
<!-- Node1&#45;&gt;Node4 -->
<g id="edge3_Node000001_Node000004" class="edge">
<title>Node1&#45;&gt;Node4</title>
<g id="a_edge3_Node000001_Node000004"><a xlink:title=" ">
<path fill="none" stroke="#63b8ff" d="M223.5,-54.93C200.74,-48.49 173.43,-40.77 149.35,-33.96"/>
<polygon fill="#63b8ff" stroke="#63b8ff" points="222.24,-58.21 232.82,-57.56 224.15,-51.47 222.24,-58.21"/>
</a>
</g>
</g>
</g>
</svg>
