<?xml version="1.0" encoding="UTF-8" standalone="no"?>
<!DOCTYPE svg PUBLIC "-//W3C//DTD SVG 1.1//EN"
 "http://www.w3.org/Graphics/SVG/1.1/DTD/svg11.dtd">
<!-- Generated by graphviz version 7.1.0 (0)
 -->
<!-- Title: utility::getAsRelativeIfShorter Pages: 1 -->
<!--zoomable 159 -->
<svg id="main" version="1.1" xmlns="http://www.w3.org/2000/svg" xmlns:xlink="http://www.w3.org/1999/xlink" xml:space="preserve" onload="init(evt)">
<style type="text/css"><![CDATA[
.edge:hover path { stroke: red; }
.edge:hover polygon { stroke: red; fill: red; }
]]></style>
<script type="text/javascript"><![CDATA[
var edges = document.getElementsByTagName('g');
if (edges && edges.length) {
  for (var i=0;i<edges.length;i++) {
    if (edges[i].id.substr(0,4)=='edge') {
      edges[i].setAttribute('class','edge');
    }
  }
}
]]></script>
        <defs>
                <circle id="rim" cx="0" cy="0" r="7"/>
                <circle id="rim2" cx="0" cy="0" r="3.5"/>
                <g id="zoomPlus">
                        <use xlink:href="#rim" fill="#404040">
                                <set attributeName="fill" to="#808080" begin="zoomplus.mouseover" end="zoomplus.mouseout"/>
                        </use>
                        <path d="M-4,0h8M0,-4v8" fill="none" stroke="white" stroke-width="1.5" pointer-events="none"/>
                </g>
                <g id="zoomMin">
                        <use xlink:href="#rim" fill="#404040">
                                <set attributeName="fill" to="#808080" begin="zoomminus.mouseover" end="zoomminus.mouseout"/>
                        </use>
                        <path d="M-4,0h8" fill="none" stroke="white" stroke-width="1.5" pointer-events="none"/>
                </g>
                <g id="dirArrow">
                        <path fill="none" stroke="white" stroke-width="1.5" d="M0,-3.0v7 M-2.5,-0.5L0,-3.0L2.5,-0.5"/>
                </g>
               <g id="resetDef">
                       <use xlink:href="#rim2" fill="#404040">
                               <set attributeName="fill" to="#808080" begin="reset.mouseover" end="reset.mouseout"/>
                       </use>
               </g>
        </defs>

<script type="text/javascript">
var viewWidth = 1108;
var viewHeight = 159;
var sectionId = 'dynsection-28';
</script>
<script xlink:href="svgpan.js"/>
<svg id="graph" class="graph">
<g id="viewport">
<title>utility::getAsRelativeIfShorter</title>
<!-- Node1 -->
<g id="node1" class="node">
<title>Node1</title>
<g id="a_node1"><a xlink:title=" ">
<polygon fill="#999999" stroke="#666666" points="125,-61.5 0,-61.5 0,-31.5 125,-31.5 125,-61.5"/>
<text text-anchor="start" x="8" y="-49.5" font-family="Helvetica,sans-Serif" font-size="10.00">utility::getAsRelativeIf</text>
<text text-anchor="middle" x="62.5" y="-38.5" font-family="Helvetica,sans-Serif" font-size="10.00">Shorter</text>
</a>
</g>
</g>
<!-- Node2 -->
<g id="node2" class="node">
<title>Node2</title>
<g id="a_node2"><a xlink:href="classFilePath.html#ae09c07f1ae9ac6f650a765cc11cc6494" target="_top" xlink:title=" ">
<polygon fill="white" stroke="#666666" points="271,-93 179,-93 179,-74 271,-74 271,-93"/>
<text text-anchor="middle" x="225" y="-81" font-family="Helvetica,sans-Serif" font-size="10.00">FilePath::empty</text>
</a>
</g>
</g>
<!-- Node1&#45;&gt;Node2 -->
<g id="edge1" class="edge">
<title>Node1&#45;&gt;Node2</title>
<path fill="none" stroke="#63b8ff" d="M125.09,-60.7C139.74,-64.08 155.27,-67.66 169.57,-70.95"/>
<polygon fill="#63b8ff" stroke="#63b8ff" points="168.73,-74.35 179.26,-73.19 170.31,-67.53 168.73,-74.35"/>
</g>
<!-- Node3 -->
<g id="node3" class="node">
<title>Node3</title>
<g id="a_node3"><a xlink:href="classFilePath.html#a868a57c14a83bba54e7fcbcdf8799f26" target="_top" xlink:title=" ">
<polygon fill="white" stroke="#666666" points="289,-56 161,-56 161,-37 289,-37 289,-56"/>
<text text-anchor="middle" x="225" y="-44" font-family="Helvetica,sans-Serif" font-size="10.00">FilePath::getRelativeTo</text>
</a>
</g>
</g>
<!-- Node1&#45;&gt;Node3 -->
<g id="edge2" class="edge">
<title>Node1&#45;&gt;Node3</title>
<path fill="none" stroke="#63b8ff" d="M125.09,-46.5C133.03,-46.5 141.21,-46.5 149.33,-46.5"/>
<polygon fill="#63b8ff" stroke="#63b8ff" points="149.2,-50 159.2,-46.5 149.2,-43 149.2,-50"/>
</g>
<!-- Node10 -->
<g id="node10" class="node">
<title>Node10</title>
<g id="a_node10"><a xlink:href="classFilePath.html#a989e098726c8387d4f4690bca3314ce8" target="_top" xlink:title=" ">
<polygon fill="white" stroke="#666666" points="266,-19 184,-19 184,0 266,0 266,-19"/>
<text text-anchor="middle" x="225" y="-7" font-family="Helvetica,sans-Serif" font-size="10.00">FilePath::wstr</text>
</a>
</g>
</g>
<!-- Node1&#45;&gt;Node10 -->
<g id="edge11" class="edge">
<title>Node1&#45;&gt;Node10</title>
<path fill="none" stroke="#63b8ff" d="M125.09,-32.3C140.73,-28.7 157.37,-24.86 172.45,-21.38"/>
<polygon fill="#63b8ff" stroke="#63b8ff" points="173.21,-24.8 182.17,-19.14 171.64,-17.98 173.21,-24.8"/>
</g>
<!-- Node4 -->
<g id="node4" class="node">
<title>Node4</title>
<g id="a_node4"><a xlink:href="classFilePath.html#adac64a85ae83812883cd39e401e1618c" target="_top" xlink:title=" ">
<polygon fill="white" stroke="#666666" points="464,-56 325,-56 325,-37 464,-37 464,-56"/>
<text text-anchor="middle" x="394.5" y="-44" font-family="Helvetica,sans-Serif" font-size="10.00">FilePath::makeRelativeTo</text>
</a>
</g>
</g>
<!-- Node3&#45;&gt;Node4 -->
<g id="edge3" class="edge">
<title>Node3&#45;&gt;Node4</title>
<path fill="none" stroke="#63b8ff" d="M289.32,-46.5C297.2,-46.5 305.32,-46.5 313.4,-46.5"/>
<polygon fill="#63b8ff" stroke="#63b8ff" points="313.26,-50 323.26,-46.5 313.26,-43 313.26,-50"/>
</g>
<!-- Node5 -->
<g id="node5" class="node">
<title>Node5</title>
<g id="a_node5"><a xlink:href="classFilePath.html#a0e670a1b0983e6ceba9c41d03f5c0305" target="_top" xlink:title=" ">
<polygon fill="white" stroke="#666666" points="625,-75 500,-75 500,-56 625,-56 625,-75"/>
<text text-anchor="middle" x="562.5" y="-63" font-family="Helvetica,sans-Serif" font-size="10.00">FilePath::getCanonical</text>
</a>
</g>
</g>
<!-- Node4&#45;&gt;Node5 -->
<g id="edge4" class="edge">
<title>Node4&#45;&gt;Node5</title>
<path fill="none" stroke="#63b8ff" d="M464.46,-54.39C472.39,-55.3 480.5,-56.23 488.48,-57.14"/>
<polygon fill="#63b8ff" stroke="#63b8ff" points="487.81,-60.59 498.15,-58.25 488.61,-53.63 487.81,-60.59"/>
</g>
<!-- Node8 -->
<g id="node8" class="node">
<title>Node8</title>
<g id="a_node8"><a xlink:href="classFilePath.html#a544387c4aea50aec855062fd02e436ae" target="_top" xlink:title=" ">
<polygon fill="white" stroke="#666666" points="1100,-113 1002,-113 1002,-94 1100,-94 1100,-113"/>
<text text-anchor="middle" x="1051" y="-101" font-family="Helvetica,sans-Serif" font-size="10.00">FilePath::getPath</text>
</a>
</g>
</g>
<!-- Node4&#45;&gt;Node8 -->
<g id="edge10" class="edge">
<title>Node4&#45;&gt;Node8</title>
<path fill="none" stroke="#63b8ff" d="M447.75,-36.5C550.01,-19.09 782.56,9.86 966,-46.5 991.35,-54.29 1015.92,-72.61 1031.87,-86.4"/>
<polygon fill="#63b8ff" stroke="#63b8ff" points="1029.3,-88.79 1039.08,-92.86 1033.97,-83.58 1029.3,-88.79"/>
</g>
<!-- Node6 -->
<g id="node6" class="node">
<title>Node6</title>
<g id="a_node6"><a xlink:href="classFilePath.html#a3e9df04d63c4e2f61ca02f059d8ae810" target="_top" xlink:title=" ">
<polygon fill="white" stroke="#666666" points="797,-94 661,-94 661,-75 797,-75 797,-94"/>
<text text-anchor="middle" x="729" y="-82" font-family="Helvetica,sans-Serif" font-size="10.00">FilePath::makeCanonical</text>
</a>
</g>
</g>
<!-- Node5&#45;&gt;Node6 -->
<g id="edge5" class="edge">
<title>Node5&#45;&gt;Node6</title>
<path fill="none" stroke="#63b8ff" d="M625.22,-72.63C633.09,-73.54 641.23,-74.48 649.32,-75.41"/>
<polygon fill="#63b8ff" stroke="#63b8ff" points="648.86,-78.88 659.19,-76.55 649.66,-71.93 648.86,-78.88"/>
</g>
<!-- Node7 -->
<g id="node7" class="node">
<title>Node7</title>
<g id="a_node7"><a xlink:href="classFilePath.html#a59fa57dcd7d19d74aaee62f072f14b3d" target="_top" xlink:title=" ">
<polygon fill="white" stroke="#666666" points="944.5,-151 854.5,-151 854.5,-132 944.5,-132 944.5,-151"/>
<text text-anchor="middle" x="899.5" y="-139" font-family="Helvetica,sans-Serif" font-size="10.00">FilePath::exists</text>
</a>
</g>
</g>
<!-- Node6&#45;&gt;Node7 -->
<g id="edge6" class="edge">
<title>Node6&#45;&gt;Node7</title>
<path fill="none" stroke="#63b8ff" d="M759.35,-94.43C786.81,-103.72 828.05,-117.67 858.51,-127.97"/>
<polygon fill="#63b8ff" stroke="#63b8ff" points="857.18,-131.22 867.77,-131.1 859.42,-124.58 857.18,-131.22"/>
</g>
<!-- Node6&#45;&gt;Node8 -->
<g id="edge8" class="edge">
<title>Node6&#45;&gt;Node8</title>
<path fill="none" stroke="#63b8ff" d="M797.47,-88.51C854.65,-91.9 935.85,-96.72 990.6,-99.97"/>
<polygon fill="#63b8ff" stroke="#63b8ff" points="990.16,-103.45 1000.35,-100.55 990.58,-96.47 990.16,-103.45"/>
</g>
<!-- Node9 -->
<g id="node9" class="node">
<title>Node9</title>
<g id="a_node9"><a xlink:href="namespaceutility.html#abe3259eb45b99f76c846b49bda4d08da" target="_top" xlink:title=" ">
<polygon fill="white" stroke="#666666" points="966,-75 833,-75 833,-56 966,-56 966,-75"/>
<text text-anchor="middle" x="899.5" y="-63" font-family="Helvetica,sans-Serif" font-size="10.00">utility::substrBeforeFirst</text>
</a>
</g>
</g>
<!-- Node6&#45;&gt;Node9 -->
<g id="edge9" class="edge">
<title>Node6&#45;&gt;Node9</title>
<path fill="none" stroke="#63b8ff" d="M797.08,-76.94C805.06,-76.04 813.26,-75.11 821.37,-74.2"/>
<polygon fill="#63b8ff" stroke="#63b8ff" points="821.7,-77.68 831.25,-73.08 820.92,-70.73 821.7,-77.68"/>
</g>
<!-- Node7&#45;&gt;Node8 -->
<g id="edge7" class="edge">
<title>Node7&#45;&gt;Node8</title>
<path fill="none" stroke="#63b8ff" d="M939.78,-131.52C958.08,-126.87 980.06,-121.28 999.57,-116.32"/>
<polygon fill="#63b8ff" stroke="#63b8ff" points="1000.43,-119.71 1009.26,-113.86 998.7,-112.93 1000.43,-119.71"/>
</g>
</g>
</svg>
        <g id="navigator" transform="translate(0 0)" fill="#404254">
                <rect fill="#f2f5e9" fill-opacity="0.5" stroke="#606060" stroke-width=".5" x="0" y="0" width="60" height="60"/>
                <use id="zoomplus" xlink:href="#zoomPlus" x="17" y="9" onmousedown="handleZoom(evt,'in')"/>
                <use id="zoomminus" xlink:href="#zoomMin" x="42" y="9" onmousedown="handleZoom(evt,'out')"/>
                <use id="reset" xlink:href="#resetDef" x="30" y="36" onmousedown="handleReset()"/>
                <g id="arrowUp" xlink:href="#dirArrow" transform="translate(30 24)" onmousedown="handlePan(0,-1)">
                  <use xlink:href="#rim" fill="#404040">
                        <set attributeName="fill" to="#808080" begin="arrowUp.mouseover" end="arrowUp.mouseout"/>
                  </use>
                  <path fill="none" stroke="white" stroke-width="1.5" d="M0,-3.0v7 M-2.5,-0.5L0,-3.0L2.5,-0.5"/>
                </g>
                <g id="arrowRight" xlink:href="#dirArrow" transform="rotate(90) translate(36 -43)" onmousedown="handlePan(1,0)">
                  <use xlink:href="#rim" fill="#404040">
                        <set attributeName="fill" to="#808080" begin="arrowRight.mouseover" end="arrowRight.mouseout"/>
                  </use>
                  <path fill="none" stroke="white" stroke-width="1.5" d="M0,-3.0v7 M-2.5,-0.5L0,-3.0L2.5,-0.5"/>
                </g>
                <g id="arrowDown" xlink:href="#dirArrow" transform="rotate(180) translate(-30 -48)" onmousedown="handlePan(0,1)">
                  <use xlink:href="#rim" fill="#404040">
                        <set attributeName="fill" to="#808080" begin="arrowDown.mouseover" end="arrowDown.mouseout"/>
                  </use>
                  <path fill="none" stroke="white" stroke-width="1.5" d="M0,-3.0v7 M-2.5,-0.5L0,-3.0L2.5,-0.5"/>
                </g>
                <g id="arrowLeft" xlink:href="#dirArrow" transform="rotate(270) translate(-36 17)" onmousedown="handlePan(-1,0)">
                  <use xlink:href="#rim" fill="#404040">
                        <set attributeName="fill" to="#808080" begin="arrowLeft.mouseover" end="arrowLeft.mouseout"/>
                  </use>
                  <path fill="none" stroke="white" stroke-width="1.5" d="M0,-3.0v7 M-2.5,-0.5L0,-3.0L2.5,-0.5"/>
                </g>
        </g>
        <svg viewBox="0 0 15 15" width="100%" height="30px" preserveAspectRatio="xMaxYMin meet">
         <g id="arrow_out" transform="scale(0.3 0.3)">
          <a xlink:href="namespaceutility_adfb890b39667a652a31f585cec0dc528_cgraph_org.svg" target="_base">
           <rect id="button" ry="5" rx="5" y="6" x="6" height="38" width="38"
                fill="#f2f5e9" fill-opacity="0.5" stroke="#606060" stroke-width="1.0"/>
           <path id="arrow"
             d="M 11.500037,31.436501 C 11.940474,20.09759 22.043105,11.32322 32.158766,21.979434 L 37.068811,17.246167 C 37.068811,17.246167 37.088388,32 37.088388,32 L 22.160133,31.978069 C 22.160133,31.978069 26.997745,27.140456 26.997745,27.140456 C 18.528582,18.264221 13.291696,25.230495 11.500037,31.436501 z"
             style="fill:#404040;"/>
          </a>
         </g>
        </svg>
</svg>
