<?xml version="1.0" encoding="UTF-8" standalone="no"?>
<!DOCTYPE svg PUBLIC "-//W3C//DTD SVG 1.1//EN"
 "http://www.w3.org/Graphics/SVG/1.1/DTD/svg11.dtd">
<!-- Generated by graphviz version 9.0.0 (0)
 -->
<!-- Title: nameDelimiterTypeToString Pages: 1 -->
<!--zoomable 119 -->

<svg id="main" version="1.1" xmlns="http://www.w3.org/2000/svg" xmlns:xlink="http://www.w3.org/1999/xlink" xml:space="preserve" onload="init(evt)">
<style type="text/css"><![CDATA[
.node, .edge {opacity: 0.7;}
.node.selected, .edge.selected {opacity: 1;}
.edge:hover path { stroke: red; }
.edge:hover polygon { stroke: red; fill: red; }
]]></style>

<defs>
  <circle id="rim" cx="0" cy="0" r="7"/>
  <circle id="rim2" cx="0" cy="0" r="3.5"/>
  <g id="zoomPlus">
    <use xlink:href="#rim" fill="#404040"><set attributeName="fill" to="#808080" begin="zoomplus.mouseover" end="zoomplus.mouseout"/></use>
    <path d="M-4,0h8M0,-4v8" fill="none" stroke="white" stroke-width="1.5" pointer-events="none"/>
  </g>
  <g id="zoomMin">
    <use xlink:href="#rim" fill="#404040"><set attributeName="fill" to="#808080" begin="zoomminus.mouseover" end="zoomminus.mouseout"/></use>
    <path d="M-4,0h8" fill="none" stroke="white" stroke-width="1.5" pointer-events="none"/>
  </g>
  <g id="arrowUp" transform="translate(30 24)">
    <use xlink:href="#rim"/>
    <path pointer-events="none" fill="none" stroke="white" stroke-width="1.5" d="M0,-3.0v7 M-2.5,-0.5L0,-3.0L2.5,-0.5"/>
  </g>
  <g id="arrowRight" transform="rotate(90) translate(36 -43)">
    <use xlink:href="#rim"/>
    <path pointer-events="none" fill="none" stroke="white" stroke-width="1.5" d="M0,-3.0v7 M-2.5,-0.5L0,-3.0L2.5,-0.5"/>
  </g>
  <g id="arrowDown" transform="rotate(180) translate(-30 -48)">
    <use xlink:href="#rim"/>
    <path pointer-events="none" fill="none" stroke="white" stroke-width="1.5" d="M0,-3.0v7 M-2.5,-0.5L0,-3.0L2.5,-0.5"/>
  </g>
  <g id="arrowLeft" transform="rotate(270) translate(-36 17)">
    <use xlink:href="#rim"/>
    <path pointer-events="none" fill="none" stroke="white" stroke-width="1.5" d="M0,-3.0v7 M-2.5,-0.5L0,-3.0L2.5,-0.5"/>
  </g>
  <g id="resetDef">
    <use xlink:href="#rim2" fill="#404040"><set attributeName="fill" to="#808080" begin="reset.mouseover" end="reset.mouseout"/></use>
  </g>
</defs>
<script type="application/ecmascript">
var viewWidth = 697;
var viewHeight = 119;
var sectionId = 'dynsection-3';
</script>
<script type="application/ecmascript" xlink:href="svg.min.js"/>
<svg id="graph" class="graph">
<g id="viewport">
<title>nameDelimiterTypeToString</title>
<!-- Node1 -->
<g id="Node000001" class="node">
<title>Node1</title>
<g id="a_Node000001"><a xlink:title=" ">
<polygon fill="#999999" stroke="#666666" points="688.75,-59.75 537.75,-59.75 537.75,-39 688.75,-39 688.75,-59.75"/>
<text text-anchor="middle" x="613.25" y="-46.25" font-family="Helvetica,sans-Serif" font-size="10.00">nameDelimiterTypeToString</text>
</a>
</g>
</g>
<!-- Node2 -->
<g id="Node000002" class="node">
<title>Node2</title>
<g id="a_Node000002"><a xlink:href="classPersistentStorage.html#a7f97bd0e2c92e2d2045006ed1676cfa5" target="_top" xlink:title=" ">
<polygon fill="white" stroke="#666666" points="480,-111.12 371.75,-111.12 371.75,-77.62 480,-77.62 480,-111.12"/>
<text text-anchor="start" x="379.75" y="-97.62" font-family="Helvetica,sans-Serif" font-size="10.00">PersistentStorage::</text>
<text text-anchor="middle" x="425.88" y="-84.88" font-family="Helvetica,sans-Serif" font-size="10.00">buildSearchIndex</text>
</a>
</g>
</g>
<!-- Node1&#45;&gt;Node2 -->
<g id="edge1_Node000001_Node000002" class="edge">
<title>Node1&#45;&gt;Node2</title>
<g id="a_edge1_Node000001_Node000002"><a xlink:title=" ">
<path fill="none" stroke="#63b8ff" d="M556.72,-62.86C532.58,-68.72 504.41,-75.55 480.49,-81.36"/>
<polygon fill="#63b8ff" stroke="#63b8ff" points="557.49,-66.27 566.38,-60.51 555.83,-59.47 557.49,-66.27"/>
</a>
</g>
</g>
<!-- Node5 -->
<g id="Node000005" class="node">
<title>Node5</title>
<g id="a_Node000005"><a xlink:href="NameDelimiterType_8cpp.html#aeee5faa82c4a59a3c5f7d088b3b7a792" target="_top" xlink:title=" ">
<polygon fill="white" stroke="#666666" points="483.38,-59.75 368.38,-59.75 368.38,-39 483.38,-39 483.38,-59.75"/>
<text text-anchor="middle" x="425.88" y="-46.25" font-family="Helvetica,sans-Serif" font-size="10.00">detectDelimiterType</text>
</a>
</g>
</g>
<!-- Node1&#45;&gt;Node5 -->
<g id="edge4_Node000001_Node000005" class="edge">
<title>Node1&#45;&gt;Node5</title>
<g id="a_edge4_Node000001_Node000005"><a xlink:title=" ">
<path fill="none" stroke="#63b8ff" d="M525.97,-49.38C511.65,-49.38 497.12,-49.38 483.77,-49.38"/>
<polygon fill="#63b8ff" stroke="#63b8ff" points="525.87,-52.88 535.87,-49.38 525.87,-45.88 525.87,-52.88"/>
</a>
</g>
</g>
<!-- Node6 -->
<g id="Node000006" class="node">
<title>Node6</title>
<g id="a_Node000006"><a xlink:href="NameDelimiterType_8cpp.html#a27f7d4298d07796977e21b775f5ee354" target="_top" xlink:title=" ">
<polygon fill="white" stroke="#666666" points="501.75,-20.75 350,-20.75 350,0 501.75,0 501.75,-20.75"/>
<text text-anchor="middle" x="425.88" y="-7.25" font-family="Helvetica,sans-Serif" font-size="10.00">stringToNameDelimiterType</text>
</a>
</g>
</g>
<!-- Node1&#45;&gt;Node6 -->
<g id="edge5_Node000001_Node000006" class="edge">
<title>Node1&#45;&gt;Node6</title>
<g id="a_edge5_Node000001_Node000006"><a xlink:title=" ">
<path fill="none" stroke="#63b8ff" d="M549.53,-36.18C526.44,-31.32 500.57,-25.88 478.56,-21.25"/>
<polygon fill="#63b8ff" stroke="#63b8ff" points="548.63,-39.57 559.13,-38.2 550.07,-32.72 548.63,-39.57"/>
</a>
</g>
</g>
<!-- Node3 -->
<g id="Node000003" class="node">
<title>Node3</title>
<g id="a_Node000003"><a xlink:href="classPersistentStorage.html#a765e1cba2360c511e1ea811ba5c546b1" target="_top" xlink:title=" ">
<polygon fill="white" stroke="#666666" points="314,-111.12 205.75,-111.12 205.75,-77.62 314,-77.62 314,-111.12"/>
<text text-anchor="start" x="213.75" y="-97.62" font-family="Helvetica,sans-Serif" font-size="10.00">PersistentStorage::</text>
<text text-anchor="middle" x="259.88" y="-84.88" font-family="Helvetica,sans-Serif" font-size="10.00">buildCaches</text>
</a>
</g>
</g>
<!-- Node2&#45;&gt;Node3 -->
<g id="edge2_Node000002_Node000003" class="edge">
<title>Node2&#45;&gt;Node3</title>
<g id="a_edge2_Node000002_Node000003"><a xlink:title=" ">
<path fill="none" stroke="#63b8ff" d="M360.22,-94.38C345.05,-94.38 329.04,-94.38 314.42,-94.38"/>
<polygon fill="#63b8ff" stroke="#63b8ff" points="360.12,-97.88 370.12,-94.38 360.12,-90.88 360.12,-97.88"/>
</a>
</g>
</g>
<!-- Node4 -->
<g id="Node000004" class="node">
<title>Node4</title>
<g id="a_Node000004"><a xlink:href="classTaskExecuteCustomCommands.html#af4a74f479f27dcd0117a6f8750eba3ea" target="_top" xlink:title=" ">
<polygon fill="white" stroke="#666666" points="169.75,-111.12 0,-111.12 0,-77.62 169.75,-77.62 169.75,-111.12"/>
<text text-anchor="start" x="8" y="-97.62" font-family="Helvetica,sans-Serif" font-size="10.00">TaskExecuteCustomCommands</text>
<text text-anchor="middle" x="84.88" y="-84.88" font-family="Helvetica,sans-Serif" font-size="10.00">::doUpdate</text>
</a>
</g>
</g>
<!-- Node3&#45;&gt;Node4 -->
<g id="edge3_Node000003_Node000004" class="edge">
<title>Node3&#45;&gt;Node4</title>
<g id="a_edge3_Node000003_Node000004"><a xlink:title=" ">
<path fill="none" stroke="#63b8ff" d="M194.26,-94.38C186.41,-94.38 178.29,-94.38 170.2,-94.38"/>
<polygon fill="#63b8ff" stroke="#63b8ff" points="194.04,-97.88 204.04,-94.38 194.04,-90.88 194.04,-97.88"/>
</a>
</g>
</g>
</g>
</svg>

<g id="navigator" transform="translate(0 0)" fill="#404254">
  <rect fill="#f2f5e9" fill-opacity="0.5" stroke="#606060" stroke-width=".5" x="0" y="0" width="60" height="60"/>
  <use id="zoomplus" xlink:href="#zoomPlus" x="17" y="9" onmousedown="handleZoom(evt,'in')"/>
  <use id="zoomminus" xlink:href="#zoomMin" x="42" y="9" onmousedown="handleZoom(evt,'out')"/>
  <use id="reset" xlink:href="#resetDef" x="30" y="36" onmousedown="handleReset()"/>
   <use id="arrowup" xlink:href="#arrowUp" x="0" y="0" onmousedown="handlePan(0,-1)"/>
  <use id="arrowright" xlink:href="#arrowRight" x="0" y="0" onmousedown="handlePan(1,0)"/>
  <use id="arrowdown" xlink:href="#arrowDown" x="0" y="0" onmousedown="handlePan(0,1)"/>
  <use id="arrowleft" xlink:href="#arrowLeft" x="0" y="0" onmousedown="handlePan(-1,0)"/>
</g>
<svg viewBox="0 0 15 15" width="100%" height="30px" preserveAspectRatio="xMaxYMin meet">
 <g id="arrow_out" transform="scale(0.3 0.3)">
  <a xlink:href="NameDelimiterType_8h_a911bac05a1418c332b9b7fefbf4615ef_icgraph_org.svg" target="_base">
   <rect id="button" ry="5" rx="5" y="6" x="6" height="38" width="38"
        fill="#f2f5e9" fill-opacity="0.5" stroke="#606060" stroke-width="1.0"/>
   <path id="arrow"
     d="M 11.500037,31.436501 C 11.940474,20.09759 22.043105,11.32322 32.158766,21.979434 L 37.068811,17.246167 C 37.068811,17.246167 37.088388,32 37.088388,32 L 22.160133,31.978069 C 22.160133,31.978069 26.997745,27.140456 26.997745,27.140456 C 18.528582,18.264221 13.291696,25.230495 11.500037,31.436501 z"
     style="fill:#404040;"/>
  </a>
 </g>
</svg>

<style type='text/css'>
<![CDATA[
[data-mouse-over-selected='false'] { opacity: 0.7; }
[data-mouse-over-selected='true']  { opacity: 1.0; }
]]>
</style>
<script type="application/ecmascript"><![CDATA[
document.addEventListener('DOMContentLoaded', (event) => {
  highlightEdges();
  highlightAdjacentNodes();
});
]]></script>
</svg>
