<?xml version="1.0" encoding="UTF-8" standalone="no"?>
<!DOCTYPE svg PUBLIC "-//W3C//DTD SVG 1.1//EN"
 "http://www.w3.org/Graphics/SVG/1.1/DTD/svg11.dtd">
<!-- Generated by graphviz version 9.0.0 (0)
 -->
<!-- Title: utility::getUuidString Pages: 1 -->
<svg width="270pt" height="68pt"
 viewBox="0.00 0.00 270.25 67.75" xmlns="http://www.w3.org/2000/svg" xmlns:xlink="http://www.w3.org/1999/xlink">
<g id="graph0" class="graph" transform="scale(1 1) rotate(0) translate(4 63.75)">
<title>utility::getUuidString</title>
<!-- Node1 -->
<g id="Node000001" class="node">
<title>Node1</title>
<g id="a_Node000001"><a xlink:title=" ">
<polygon fill="#999999" stroke="#666666" points="116.5,-39.75 0,-39.75 0,-19 116.5,-19 116.5,-39.75"/>
<text text-anchor="middle" x="58.25" y="-26.25" font-family="Helvetica,sans-Serif" font-size="10.00">utility::getUuidString</text>
</a>
</g>
</g>
<!-- Node2 -->
<g id="Node000002" class="node">
<title>Node2</title>
<g id="a_Node000002"><a xlink:href="namespaceutility.html#aa535ea159c4aa0adb78b191c638a54d9" target="_top" xlink:title=" ">
<polygon fill="white" stroke="#666666" points="251.38,-59.75 163.38,-59.75 163.38,-39 251.38,-39 251.38,-59.75"/>
<text text-anchor="middle" x="207.38" y="-46.25" font-family="Helvetica,sans-Serif" font-size="10.00">utility::getUuid</text>
</a>
</g>
</g>
<!-- Node1&#45;&gt;Node2 -->
<g id="edge1_Node000001_Node000002" class="edge">
<title>Node1&#45;&gt;Node2</title>
<g id="a_edge1_Node000001_Node000002"><a xlink:title=" ">
<path fill="none" stroke="#63b8ff" d="M116.98,-37.22C128.45,-38.78 140.46,-40.41 151.82,-41.96"/>
<polygon fill="#63b8ff" stroke="#63b8ff" points="151.04,-45.39 161.42,-43.26 151.98,-38.45 151.04,-45.39"/>
</a>
</g>
</g>
<!-- Node3 -->
<g id="Node000003" class="node">
<title>Node3</title>
<g id="a_Node000003"><a xlink:href="namespaceutility.html#af74967d66fb4d53a94457015432afc2b" target="_top" xlink:title=" ">
<polygon fill="white" stroke="#666666" points="262.25,-20.75 152.5,-20.75 152.5,0 262.25,0 262.25,-20.75"/>
<text text-anchor="middle" x="207.38" y="-7.25" font-family="Helvetica,sans-Serif" font-size="10.00">utility::uuidToString</text>
</a>
</g>
</g>
<!-- Node1&#45;&gt;Node3 -->
<g id="edge2_Node000001_Node000003" class="edge">
<title>Node1&#45;&gt;Node3</title>
<g id="a_edge2_Node000001_Node000003"><a xlink:title=" ">
<path fill="none" stroke="#63b8ff" d="M116.98,-21.92C124.85,-20.9 132.99,-19.85 140.99,-18.82"/>
<polygon fill="#63b8ff" stroke="#63b8ff" points="141.21,-22.32 150.68,-17.57 140.31,-15.38 141.21,-22.32"/>
</a>
</g>
</g>
</g>
</svg>
