<?xml version="1.0" encoding="UTF-8" standalone="no"?>
<!DOCTYPE svg PUBLIC "-//W3C//DTD SVG 1.1//EN"
 "http://www.w3.org/Graphics/SVG/1.1/DTD/svg11.dtd">
<!-- Generated by graphviz version 9.0.0 (0)
 -->
<!-- Title: utility::trim Pages: 1 -->
<svg width="914pt" height="624pt"
 viewBox="0.00 0.00 913.75 624.12" xmlns="http://www.w3.org/2000/svg" xmlns:xlink="http://www.w3.org/1999/xlink">
<g id="graph0" class="graph" transform="scale(1 1) rotate(0) translate(4 620.12)">
<title>utility::trim</title>
<!-- Node1 -->
<g id="Node000001" class="node">
<title>Node1</title>
<g id="a_Node000001"><a xlink:title=" ">
<polygon fill="#999999" stroke="#666666" points="905.75,-243.75 835.75,-243.75 835.75,-223 905.75,-223 905.75,-243.75"/>
<text text-anchor="middle" x="870.75" y="-230.25" font-family="Helvetica,sans-Serif" font-size="10.00">utility::trim</text>
</a>
</g>
</g>
<!-- Node2 -->
<g id="Node000002" class="node">
<title>Node2</title>
<g id="a_Node000002"><a xlink:href="namespaceutility.html#a21ade1b16c7f92c59bb056dc33f5b48f" target="_top" xlink:title=" ">
<polygon fill="white" stroke="#666666" points="782.5,-571.12 656.25,-571.12 656.25,-537.62 782.5,-537.62 782.5,-571.12"/>
<text text-anchor="start" x="664.25" y="-557.62" font-family="Helvetica,sans-Serif" font-size="10.00">utility::containsInclude</text>
<text text-anchor="middle" x="719.38" y="-544.88" font-family="Helvetica,sans-Serif" font-size="10.00">PchFlag</text>
</a>
</g>
</g>
<!-- Node1&#45;&gt;Node2 -->
<g id="edge1_Node000001_Node000002" class="edge">
<title>Node1&#45;&gt;Node2</title>
<g id="a_edge1_Node000001_Node000002"><a xlink:title=" ">
<path fill="none" stroke="#63b8ff" d="M869.38,-255.59C867.51,-305.05 856.97,-426.02 799.75,-504.38 789.57,-518.32 774.21,-529.29 759.71,-537.35"/>
<polygon fill="#63b8ff" stroke="#63b8ff" points="872.88,-255.73 869.66,-245.64 865.88,-255.54 872.88,-255.73"/>
</a>
</g>
</g>
<!-- Node6 -->
<g id="Node000006" class="node">
<title>Node6</title>
<g id="a_Node000006"><a xlink:href="namespaceutility.html#a1ce4ea6610063cdd9e93b3de09a1bd8d" target="_top" xlink:title=" ">
<polygon fill="white" stroke="#666666" points="782.5,-266.75 656.25,-266.75 656.25,-246 782.5,-246 782.5,-266.75"/>
<text text-anchor="middle" x="719.38" y="-253.25" font-family="Helvetica,sans-Serif" font-size="10.00">utility::executeProcess</text>
</a>
</g>
</g>
<!-- Node1&#45;&gt;Node6 -->
<g id="edge5_Node000001_Node000006" class="edge">
<title>Node1&#45;&gt;Node6</title>
<g id="a_edge5_Node000001_Node000006"><a xlink:title=" ">
<path fill="none" stroke="#63b8ff" d="M824.42,-240.36C811.35,-242.37 796.86,-244.6 782.95,-246.74"/>
<polygon fill="#63b8ff" stroke="#63b8ff" points="824.63,-243.86 833.98,-238.88 823.57,-236.94 824.63,-243.86"/>
</a>
</g>
</g>
<!-- Node8 -->
<g id="Node000008" class="node">
<title>Node8</title>
<g id="a_Node000008"><a xlink:href="namespaceutility.html#a5c04270639d066ce3fc51a08b83e80c1" target="_top" xlink:title=" ">
<polygon fill="white" stroke="#666666" points="590.62,-307.75 444.12,-307.75 444.12,-287 590.62,-287 590.62,-307.75"/>
<text text-anchor="middle" x="517.38" y="-294.25" font-family="Helvetica,sans-Serif" font-size="10.00">utility::getCxxHeaderPaths</text>
</a>
</g>
</g>
<!-- Node1&#45;&gt;Node8 -->
<g id="edge21_Node000001_Node000008" class="edge">
<title>Node1&#45;&gt;Node8</title>
<g id="a_edge21_Node000001_Node000008"><a xlink:title=" ">
<path fill="none" stroke="#63b8ff" d="M847.06,-250.68C833.96,-259.7 816.75,-269.94 799.75,-275.38 731.25,-297.26 648.83,-301.28 590.95,-300.73"/>
<polygon fill="#63b8ff" stroke="#63b8ff" points="848.88,-253.68 854.98,-245.01 844.81,-247.99 848.88,-253.68"/>
</a>
</g>
</g>
<!-- Node16 -->
<g id="Node000016" class="node">
<title>Node16</title>
<g id="a_Node000016"><a xlink:href="structClangInvocationInfo.html#a28c56306b4ceb6cb4ba812fcc3c18d00" target="_top" xlink:title=" ">
<polygon fill="white" stroke="#666666" points="791.88,-495.12 646.88,-495.12 646.88,-461.62 791.88,-461.62 791.88,-495.12"/>
<text text-anchor="start" x="654.88" y="-481.62" font-family="Helvetica,sans-Serif" font-size="10.00">ClangInvocationInfo</text>
<text text-anchor="middle" x="719.38" y="-468.88" font-family="Helvetica,sans-Serif" font-size="10.00">::getClangInvocationString</text>
</a>
</g>
</g>
<!-- Node1&#45;&gt;Node16 -->
<g id="edge16_Node000001_Node000016" class="edge">
<title>Node1&#45;&gt;Node16</title>
<g id="a_edge16_Node000001_Node000016"><a xlink:title=" ">
<path fill="none" stroke="#63b8ff" d="M862.32,-254.69C851.14,-285.36 828.24,-343.12 799.75,-387.38 781.71,-415.4 755.46,-443.72 738.16,-461.15"/>
<polygon fill="#63b8ff" stroke="#63b8ff" points="865.56,-256.02 865.63,-245.42 858.97,-253.66 865.56,-256.02"/>
</a>
</g>
</g>
<!-- Node20 -->
<g id="Node000020" class="node">
<title>Node20</title>
<g id="a_Node000020"><a xlink:href="classIncludeProcessing.html#a50dd8433a93d3693a4f3a122ee0bfabf" target="_top" xlink:title=" ">
<polygon fill="white" stroke="#666666" points="777.62,-228.12 661.12,-228.12 661.12,-194.62 777.62,-194.62 777.62,-228.12"/>
<text text-anchor="start" x="669.12" y="-214.62" font-family="Helvetica,sans-Serif" font-size="10.00">IncludeProcessing::</text>
<text text-anchor="middle" x="719.38" y="-201.88" font-family="Helvetica,sans-Serif" font-size="10.00">getIncludeDirectives</text>
</a>
</g>
</g>
<!-- Node1&#45;&gt;Node20 -->
<g id="edge22_Node000001_Node000020" class="edge">
<title>Node1&#45;&gt;Node20</title>
<g id="a_edge22_Node000001_Node000020"><a xlink:title=" ">
<path fill="none" stroke="#63b8ff" d="M824.2,-226.67C809.61,-224.52 793.25,-222.11 777.91,-219.85"/>
<polygon fill="#63b8ff" stroke="#63b8ff" points="823.58,-230.11 833.98,-228.11 824.6,-223.19 823.58,-230.11"/>
</a>
</g>
</g>
<!-- Node21 -->
<g id="Node000021" class="node">
<title>Node21</title>
<g id="a_Node000021"><a xlink:href="classCodeController.html#aa965e9caa2a29354045335199b86cd89" target="_top" xlink:title=" ">
<polygon fill="white" stroke="#666666" points="791.5,-176.12 647.25,-176.12 647.25,-142.62 791.5,-142.62 791.5,-176.12"/>
<text text-anchor="start" x="655.25" y="-162.62" font-family="Helvetica,sans-Serif" font-size="10.00">CodeController::getProject</text>
<text text-anchor="middle" x="719.38" y="-149.88" font-family="Helvetica,sans-Serif" font-size="10.00">Description</text>
</a>
</g>
</g>
<!-- Node1&#45;&gt;Node21 -->
<g id="edge23_Node000001_Node000021" class="edge">
<title>Node1&#45;&gt;Node21</title>
<g id="a_edge23_Node000001_Node000021"><a xlink:title=" ">
<path fill="none" stroke="#63b8ff" d="M847.67,-215.81C834.37,-205.87 816.76,-193.78 799.75,-185.38 793.25,-182.16 786.26,-179.22 779.22,-176.55"/>
<polygon fill="#63b8ff" stroke="#63b8ff" points="845.25,-218.37 855.32,-221.67 849.51,-212.81 845.25,-218.37"/>
</a>
</g>
</g>
<!-- Node23 -->
<g id="Node000023" class="node">
<title>Node23</title>
<g id="a_Node000023"><a xlink:href="classutility_1_1CompilationDatabase.html#af3452f4cb50f5d01f43d34accb9c7690" target="_top" xlink:title=" ">
<polygon fill="white" stroke="#666666" points="797.12,-124.12 641.62,-124.12 641.62,-90.62 797.12,-90.62 797.12,-124.12"/>
<text text-anchor="start" x="649.62" y="-110.62" font-family="Helvetica,sans-Serif" font-size="10.00">utility::CompilationDatabase</text>
<text text-anchor="middle" x="719.38" y="-97.88" font-family="Helvetica,sans-Serif" font-size="10.00">::init</text>
</a>
</g>
</g>
<!-- Node1&#45;&gt;Node23 -->
<g id="edge25_Node000001_Node000023" class="edge">
<title>Node1&#45;&gt;Node23</title>
<g id="a_edge25_Node000001_Node000023"><a xlink:title=" ">
<path fill="none" stroke="#63b8ff" d="M860.17,-212.39C848.82,-189.77 827.85,-154.22 799.75,-133.38 795.21,-130.01 790.21,-127.06 784.99,-124.49"/>
<polygon fill="#63b8ff" stroke="#63b8ff" points="856.94,-213.76 864.43,-221.25 863.25,-210.72 856.94,-213.76"/>
</a>
</g>
</g>
<!-- Node25 -->
<g id="Node000025" class="node">
<title>Node25</title>
<g id="a_Node000025"><a xlink:href="namespaceutility.html#a2f2c2fafeba966d23dcf0e8e67e4309d" target="_top" xlink:title=" ">
<polygon fill="white" stroke="#666666" points="787.75,-72.12 651,-72.12 651,-38.62 787.75,-38.62 787.75,-72.12"/>
<text text-anchor="start" x="659" y="-58.62" font-family="Helvetica,sans-Serif" font-size="10.00">utility::loadFunctionFrom</text>
<text text-anchor="middle" x="719.38" y="-45.88" font-family="Helvetica,sans-Serif" font-size="10.00">Library</text>
</a>
</g>
</g>
<!-- Node1&#45;&gt;Node25 -->
<g id="edge27_Node000001_Node000025" class="edge">
<title>Node1&#45;&gt;Node25</title>
<g id="a_edge27_Node000001_Node000025"><a xlink:title=" ">
<path fill="none" stroke="#63b8ff" d="M865.56,-211.79C858.09,-178.99 839.37,-116.68 799.75,-81.38 795.96,-78 791.72,-75.06 787.23,-72.5"/>
<polygon fill="#63b8ff" stroke="#63b8ff" points="862.08,-212.26 867.58,-221.32 868.93,-210.81 862.08,-212.26"/>
</a>
</g>
</g>
<!-- Node26 -->
<g id="Node000026" class="node">
<title>Node26</title>
<g id="a_Node000026"><a xlink:href="namespaceutility.html#a6394868ababf84e45a13a75d08f67da4" target="_top" xlink:title=" ">
<polygon fill="white" stroke="#666666" points="799.75,-378.75 639,-378.75 639,-358 799.75,-358 799.75,-378.75"/>
<text text-anchor="middle" x="719.38" y="-365.25" font-family="Helvetica,sans-Serif" font-size="10.00">utility::removeIncludePchFlag</text>
</a>
</g>
</g>
<!-- Node1&#45;&gt;Node26 -->
<g id="edge28_Node000001_Node000026" class="edge">
<title>Node1&#45;&gt;Node26</title>
<g id="a_edge28_Node000001_Node000026"><a xlink:title=" ">
<path fill="none" stroke="#63b8ff" d="M854.26,-252.89C840.74,-269.36 820.13,-293.1 799.75,-311.38 779.79,-329.27 754.24,-346.79 737.59,-357.58"/>
<polygon fill="#63b8ff" stroke="#63b8ff" points="856.83,-255.29 860.4,-245.31 851.39,-250.88 856.83,-255.29"/>
</a>
</g>
</g>
<!-- Node32 -->
<g id="Node000032" class="node">
<title>Node32</title>
<g id="a_Node000032"><a xlink:href="classQtListBox.html#a16186d26e1ba648ed3678654a19c857d" target="_top" xlink:title=" ">
<polygon fill="white" stroke="#666666" points="793.75,-20.75 645,-20.75 645,0 793.75,0 793.75,-20.75"/>
<text text-anchor="middle" x="719.38" y="-7.25" font-family="Helvetica,sans-Serif" font-size="10.00">QtListBox::savedEditDialog</text>
</a>
</g>
</g>
<!-- Node1&#45;&gt;Node32 -->
<g id="edge35_Node000001_Node000032" class="edge">
<title>Node1&#45;&gt;Node32</title>
<g id="a_edge35_Node000001_Node000032"><a xlink:title=" ">
<path fill="none" stroke="#63b8ff" d="M868.84,-211.24C865.86,-169.27 853.24,-77.98 799.75,-29.38 796.18,-26.14 792.17,-23.42 787.88,-21.15"/>
<polygon fill="#63b8ff" stroke="#63b8ff" points="865.33,-211.29 869.4,-221.07 872.32,-210.89 865.33,-211.29"/>
</a>
</g>
</g>
<!-- Node3 -->
<g id="Node000003" class="node">
<title>Node3</title>
<g id="a_Node000003"><a xlink:href="namespaceutility.html#ae24365269870c388caef93450f557b78" target="_top" xlink:title=" ">
<polygon fill="white" stroke="#666666" points="580.5,-616.12 454.25,-616.12 454.25,-582.62 580.5,-582.62 580.5,-616.12"/>
<text text-anchor="start" x="462.25" y="-602.62" font-family="Helvetica,sans-Serif" font-size="10.00">utility::containsInclude</text>
<text text-anchor="middle" x="517.38" y="-589.88" font-family="Helvetica,sans-Serif" font-size="10.00">PchFlags</text>
</a>
</g>
</g>
<!-- Node2&#45;&gt;Node3 -->
<g id="edge2_Node000002_Node000003" class="edge">
<title>Node2&#45;&gt;Node3</title>
<g id="a_edge2_Node000002_Node000003"><a xlink:title=" ">
<path fill="none" stroke="#63b8ff" d="M644.76,-570.94C623.72,-575.67 601,-580.78 580.7,-585.35"/>
<polygon fill="#63b8ff" stroke="#63b8ff" points="645.45,-574.37 654.44,-568.76 643.92,-567.54 645.45,-574.37"/>
</a>
</g>
</g>
<!-- Node5 -->
<g id="Node000005" class="node">
<title>Node5</title>
<g id="a_Node000005"><a xlink:href="classSourceGroupCxxCdb.html#add1fc3b77efb10f608422053ec1e85bd" target="_top" xlink:title=" ">
<polygon fill="white" stroke="#666666" points="361.62,-546.12 239.88,-546.12 239.88,-512.62 361.62,-512.62 361.62,-546.12"/>
<text text-anchor="start" x="247.88" y="-532.62" font-family="Helvetica,sans-Serif" font-size="10.00">SourceGroupCxxCdb::</text>
<text text-anchor="middle" x="300.75" y="-519.88" font-family="Helvetica,sans-Serif" font-size="10.00">getPreIndexTask</text>
</a>
</g>
</g>
<!-- Node2&#45;&gt;Node5 -->
<g id="edge4_Node000002_Node000005" class="edge">
<title>Node2&#45;&gt;Node5</title>
<g id="a_edge4_Node000002_Node000005"><a xlink:title=" ">
<path fill="none" stroke="#63b8ff" d="M644.96,-549.97C564.42,-545.14 436.66,-537.47 361.84,-532.98"/>
<polygon fill="#63b8ff" stroke="#63b8ff" points="644.3,-553.44 654.49,-550.54 644.72,-546.45 644.3,-553.44"/>
</a>
</g>
</g>
<!-- Node4 -->
<g id="Node000004" class="node">
<title>Node4</title>
<g id="a_Node000004"><a xlink:href="classQtProjectWizardContentPathCxxPch.html#ac9fa1834160ce61dd07d941742879386" target="_top" xlink:title=" ">
<polygon fill="white" stroke="#666666" points="378.12,-616.12 223.38,-616.12 223.38,-582.62 378.12,-582.62 378.12,-616.12"/>
<text text-anchor="start" x="231.38" y="-602.62" font-family="Helvetica,sans-Serif" font-size="10.00">QtProjectWizardContentPath</text>
<text text-anchor="middle" x="300.75" y="-589.88" font-family="Helvetica,sans-Serif" font-size="10.00">CxxPch::check</text>
</a>
</g>
</g>
<!-- Node3&#45;&gt;Node4 -->
<g id="edge3_Node000003_Node000004" class="edge">
<title>Node3&#45;&gt;Node4</title>
<g id="a_edge3_Node000003_Node000004"><a xlink:title=" ">
<path fill="none" stroke="#63b8ff" d="M442.69,-599.38C421.93,-599.38 399.3,-599.38 378.37,-599.38"/>
<polygon fill="#63b8ff" stroke="#63b8ff" points="442.49,-602.88 452.49,-599.38 442.49,-595.88 442.49,-602.88"/>
</a>
</g>
</g>
<!-- Node7 -->
<g id="Node000007" class="node">
<title>Node7</title>
<g id="a_Node000007"><a xlink:href="classCxxVs15HeaderPathDetector.html#a2fe5923edbc08c77691aa57736026752" target="_top" xlink:title=" ">
<polygon fill="white" stroke="#666666" points="596.25,-269.12 438.5,-269.12 438.5,-235.62 596.25,-235.62 596.25,-269.12"/>
<text text-anchor="start" x="446.5" y="-255.62" font-family="Helvetica,sans-Serif" font-size="10.00">CxxVs15HeaderPathDetector</text>
<text text-anchor="middle" x="517.38" y="-242.88" font-family="Helvetica,sans-Serif" font-size="10.00">::doGetPaths</text>
</a>
</g>
</g>
<!-- Node6&#45;&gt;Node7 -->
<g id="edge6_Node000006_Node000007" class="edge">
<title>Node6&#45;&gt;Node7</title>
<g id="a_edge6_Node000006_Node000007"><a xlink:title=" ">
<path fill="none" stroke="#63b8ff" d="M644.69,-254.9C629.01,-254.59 612.41,-254.26 596.57,-253.94"/>
<polygon fill="#63b8ff" stroke="#63b8ff" points="644.34,-258.39 654.4,-255.1 644.48,-251.4 644.34,-258.39"/>
</a>
</g>
</g>
<!-- Node6&#45;&gt;Node8 -->
<g id="edge7_Node000006_Node000008" class="edge">
<title>Node6&#45;&gt;Node8</title>
<g id="a_edge7_Node000006_Node000008"><a xlink:title=" ">
<path fill="none" stroke="#63b8ff" d="M654.33,-269.5C627.48,-275.01 596.64,-281.33 571.13,-286.56"/>
<polygon fill="#63b8ff" stroke="#63b8ff" points="654.99,-272.94 664.08,-267.5 653.58,-266.08 654.99,-272.94"/>
</a>
</g>
</g>
<!-- Node11 -->
<g id="Node000011" class="node">
<title>Node11</title>
<g id="a_Node000011"><a xlink:href="classTaskExecuteCustomCommands.html#a79b7d1b74bc789f9dfdaec570598159f" target="_top" xlink:title=" ">
<polygon fill="white" stroke="#666666" points="602.25,-217.12 432.5,-217.12 432.5,-183.62 602.25,-183.62 602.25,-217.12"/>
<text text-anchor="start" x="440.5" y="-203.62" font-family="Helvetica,sans-Serif" font-size="10.00">TaskExecuteCustomCommands</text>
<text text-anchor="middle" x="517.38" y="-190.88" font-family="Helvetica,sans-Serif" font-size="10.00">::runIndexerCommand</text>
</a>
</g>
</g>
<!-- Node6&#45;&gt;Node11 -->
<g id="edge10_Node000006_Node000011" class="edge">
<title>Node6&#45;&gt;Node11</title>
<g id="a_edge10_Node000006_Node000011"><a xlink:title=" ">
<path fill="none" stroke="#63b8ff" d="M659.84,-242.8C652.8,-241.04 645.73,-239.21 639,-237.38 637.25,-236.9 605,-227 574.29,-217.57"/>
<polygon fill="#63b8ff" stroke="#63b8ff" points="658.81,-246.15 669.35,-245.14 660.48,-239.36 658.81,-246.15"/>
</a>
</g>
</g>
<!-- Node14 -->
<g id="Node000014" class="node">
<title>Node14</title>
<g id="a_Node000014"><a xlink:href="classTaskBuildIndex.html#a397c46c3648726be881700501719a96b" target="_top" xlink:title=" ">
<polygon fill="white" stroke="#666666" points="591.38,-165.12 443.38,-165.12 443.38,-131.62 591.38,-131.62 591.38,-165.12"/>
<text text-anchor="start" x="451.38" y="-151.62" font-family="Helvetica,sans-Serif" font-size="10.00">TaskBuildIndex::runIndexer</text>
<text text-anchor="middle" x="517.38" y="-138.88" font-family="Helvetica,sans-Serif" font-size="10.00">Process</text>
</a>
</g>
</g>
<!-- Node6&#45;&gt;Node14 -->
<g id="edge14_Node000006_Node000014" class="edge">
<title>Node6&#45;&gt;Node14</title>
<g id="a_edge14_Node000006_Node000014"><a xlink:title=" ">
<path fill="none" stroke="#63b8ff" d="M645.78,-241.82C643.42,-240.47 641.15,-238.99 639,-237.38 613.2,-218.03 628.18,-194.52 603,-174.38 598.8,-171.01 594.17,-168.09 589.3,-165.54"/>
<polygon fill="#63b8ff" stroke="#63b8ff" points="644.01,-244.85 654.53,-246.06 647.06,-238.55 644.01,-244.85"/>
</a>
</g>
</g>
<!-- Node9 -->
<g id="Node000009" class="node">
<title>Node9</title>
<g id="a_Node000009"><a xlink:href="classCxxFrameworkPathDetector.html#a69231310163670af3dd56495573af7b6" target="_top" xlink:title=" ">
<polygon fill="white" stroke="#666666" points="377.38,-300.12 224.12,-300.12 224.12,-266.62 377.38,-266.62 377.38,-300.12"/>
<text text-anchor="start" x="232.12" y="-286.62" font-family="Helvetica,sans-Serif" font-size="10.00">CxxFrameworkPathDetector</text>
<text text-anchor="middle" x="300.75" y="-273.88" font-family="Helvetica,sans-Serif" font-size="10.00">::doGetPaths</text>
</a>
</g>
</g>
<!-- Node8&#45;&gt;Node9 -->
<g id="edge8_Node000008_Node000009" class="edge">
<title>Node8&#45;&gt;Node9</title>
<g id="a_edge8_Node000008_Node000009"><a xlink:title=" ">
<path fill="none" stroke="#63b8ff" d="M432.32,-291.89C414.29,-290.72 395.34,-289.48 377.64,-288.33"/>
<polygon fill="#63b8ff" stroke="#63b8ff" points="432,-295.38 442.2,-292.54 432.45,-288.39 432,-295.38"/>
</a>
</g>
</g>
<!-- Node10 -->
<g id="Node000010" class="node">
<title>Node10</title>
<g id="a_Node000010"><a xlink:href="classCxxHeaderPathDetector.html#aa75dc02f5e3c4899c0ea98b22782e8b6" target="_top" xlink:title=" ">
<polygon fill="white" stroke="#666666" points="367.62,-352.12 233.88,-352.12 233.88,-318.62 367.62,-318.62 367.62,-352.12"/>
<text text-anchor="start" x="241.88" y="-338.62" font-family="Helvetica,sans-Serif" font-size="10.00">CxxHeaderPathDetector</text>
<text text-anchor="middle" x="300.75" y="-325.88" font-family="Helvetica,sans-Serif" font-size="10.00">::doGetPaths</text>
</a>
</g>
</g>
<!-- Node8&#45;&gt;Node10 -->
<g id="edge9_Node000008_Node000010" class="edge">
<title>Node8&#45;&gt;Node10</title>
<g id="a_edge9_Node000008_Node000010"><a xlink:title=" ">
<path fill="none" stroke="#63b8ff" d="M444.06,-310.18C419.44,-314.54 392.05,-319.39 367.93,-323.66"/>
<polygon fill="#63b8ff" stroke="#63b8ff" points="444.43,-313.67 453.67,-308.48 443.21,-306.77 444.43,-313.67"/>
</a>
</g>
</g>
<!-- Node12 -->
<g id="Node000012" class="node">
<title>Node12</title>
<g id="a_Node000012"><a xlink:href="classTaskExecuteCustomCommands.html#af4a74f479f27dcd0117a6f8750eba3ea" target="_top" xlink:title=" ">
<polygon fill="white" stroke="#666666" points="169.75,-226.12 0,-226.12 0,-192.62 169.75,-192.62 169.75,-226.12"/>
<text text-anchor="start" x="8" y="-212.62" font-family="Helvetica,sans-Serif" font-size="10.00">TaskExecuteCustomCommands</text>
<text text-anchor="middle" x="84.88" y="-199.88" font-family="Helvetica,sans-Serif" font-size="10.00">::doUpdate</text>
</a>
</g>
</g>
<!-- Node11&#45;&gt;Node12 -->
<g id="edge11_Node000011_Node000012" class="edge">
<title>Node11&#45;&gt;Node12</title>
<g id="a_edge11_Node000011_Node000012"><a xlink:title=" ">
<path fill="none" stroke="#63b8ff" d="M421.08,-201.48C359.62,-202.3 277.95,-203.59 205.75,-205.38 194.2,-205.66 182.02,-206.01 170.03,-206.38"/>
<polygon fill="#63b8ff" stroke="#63b8ff" points="420.85,-204.99 430.81,-201.36 420.76,-197.99 420.85,-204.99"/>
</a>
</g>
</g>
<!-- Node13 -->
<g id="Node000013" class="node">
<title>Node13</title>
<g id="a_Node000013"><a xlink:href="classTaskExecuteCustomCommands.html#a9c85b992ac362de23585d854de902221" target="_top" xlink:title=" ">
<polygon fill="white" stroke="#666666" points="395.75,-248.12 205.75,-248.12 205.75,-214.62 395.75,-214.62 395.75,-248.12"/>
<text text-anchor="start" x="213.75" y="-234.62" font-family="Helvetica,sans-Serif" font-size="10.00">TaskExecuteCustomCommands</text>
<text text-anchor="middle" x="300.75" y="-221.88" font-family="Helvetica,sans-Serif" font-size="10.00">::executeParallelIndexerCommands</text>
</a>
</g>
</g>
<!-- Node11&#45;&gt;Node13 -->
<g id="edge12_Node000011_Node000013" class="edge">
<title>Node11&#45;&gt;Node13</title>
<g id="a_edge12_Node000011_Node000013"><a xlink:title=" ">
<path fill="none" stroke="#63b8ff" d="M420.95,-214.16C412.67,-215.35 404.29,-216.56 396.01,-217.76"/>
<polygon fill="#63b8ff" stroke="#63b8ff" points="421.27,-217.65 430.67,-212.75 420.27,-210.72 421.27,-217.65"/>
</a>
</g>
</g>
<!-- Node13&#45;&gt;Node12 -->
<g id="edge13_Node000013_Node000012" class="edge">
<title>Node13&#45;&gt;Node12</title>
<g id="a_edge13_Node000013_Node000012"><a xlink:title=" ">
<path fill="none" stroke="#63b8ff" d="M193.98,-220.5C185.95,-219.67 177.91,-218.84 170.03,-218.03"/>
<polygon fill="#63b8ff" stroke="#63b8ff" points="193.51,-223.96 203.81,-221.51 194.22,-217 193.51,-223.96"/>
</a>
</g>
</g>
<!-- Node15 -->
<g id="Node000015" class="node">
<title>Node15</title>
<g id="a_Node000015"><a xlink:href="classTaskBuildIndex.html#ac137f77d85462e8c8a9ab8d2037f8183" target="_top" xlink:title=" ">
<polygon fill="white" stroke="#666666" points="367.25,-158.75 234.25,-158.75 234.25,-138 367.25,-138 367.25,-158.75"/>
<text text-anchor="middle" x="300.75" y="-145.25" font-family="Helvetica,sans-Serif" font-size="10.00">TaskBuildIndex::doEnter</text>
</a>
</g>
</g>
<!-- Node14&#45;&gt;Node15 -->
<g id="edge15_Node000014_Node000015" class="edge">
<title>Node14&#45;&gt;Node15</title>
<g id="a_edge15_Node000014_Node000015"><a xlink:title=" ">
<path fill="none" stroke="#63b8ff" d="M431.74,-148.38C410.38,-148.38 387.76,-148.38 367.49,-148.38"/>
<polygon fill="#63b8ff" stroke="#63b8ff" points="431.6,-151.88 441.6,-148.38 431.6,-144.88 431.6,-151.88"/>
</a>
</g>
</g>
<!-- Node16&#45;&gt;Node5 -->
<g id="edge17_Node000016_Node000005" class="edge">
<title>Node16&#45;&gt;Node5</title>
<g id="a_edge17_Node000016_Node000005"><a xlink:title=" ">
<path fill="none" stroke="#63b8ff" d="M635.25,-492.65C624.41,-494.34 613.45,-495.96 603,-497.38 519.61,-508.66 422.78,-518.34 361.89,-524.01"/>
<polygon fill="#63b8ff" stroke="#63b8ff" points="635.64,-496.13 644.97,-491.11 634.54,-489.22 635.64,-496.13"/>
</a>
</g>
</g>
<!-- Node17 -->
<g id="Node000017" class="node">
<title>Node17</title>
<g id="a_Node000017"><a xlink:href="classCxxParser.html#a03f5114855f2d3a9f747d37e6c940d46" target="_top" xlink:title=" ">
<polygon fill="white" stroke="#666666" points="570.75,-488.75 464,-488.75 464,-468 570.75,-468 570.75,-488.75"/>
<text text-anchor="middle" x="517.38" y="-475.25" font-family="Helvetica,sans-Serif" font-size="10.00">CxxParser::runTool</text>
</a>
</g>
</g>
<!-- Node16&#45;&gt;Node17 -->
<g id="edge18_Node000016_Node000017" class="edge">
<title>Node16&#45;&gt;Node17</title>
<g id="a_edge18_Node000016_Node000017"><a xlink:title=" ">
<path fill="none" stroke="#63b8ff" d="M635.24,-478.38C613.56,-478.38 590.79,-478.38 571.17,-478.38"/>
<polygon fill="#63b8ff" stroke="#63b8ff" points="634.94,-481.88 644.94,-478.38 634.94,-474.88 634.94,-481.88"/>
</a>
</g>
</g>
<!-- Node18 -->
<g id="Node000018" class="node">
<title>Node18</title>
<g id="a_Node000018"><a xlink:href="classCxxParser.html#acd28d69d7b879176e5d11d3e58175836" target="_top" xlink:title=" ">
<polygon fill="white" stroke="#666666" points="362,-494.75 239.5,-494.75 239.5,-474 362,-474 362,-494.75"/>
<text text-anchor="middle" x="300.75" y="-481.25" font-family="Helvetica,sans-Serif" font-size="10.00">CxxParser::buildIndex</text>
</a>
</g>
</g>
<!-- Node17&#45;&gt;Node18 -->
<g id="edge19_Node000017_Node000018" class="edge">
<title>Node17&#45;&gt;Node18</title>
<g id="a_edge19_Node000017_Node000018"><a xlink:title=" ">
<path fill="none" stroke="#63b8ff" d="M452.13,-480.17C423.66,-480.97 390.33,-481.9 362.3,-482.68"/>
<polygon fill="#63b8ff" stroke="#63b8ff" points="452.19,-483.67 462.08,-479.89 451.99,-476.67 452.19,-483.67"/>
</a>
</g>
</g>
<!-- Node19 -->
<g id="Node000019" class="node">
<title>Node19</title>
<g id="a_Node000019"><a xlink:href="classIndexerCxx.html#a5eb483f96692f11551549f4c48c9b1d1" target="_top" xlink:title=" ">
<polygon fill="white" stroke="#666666" points="143.12,-494.75 26.62,-494.75 26.62,-474 143.12,-474 143.12,-494.75"/>
<text text-anchor="middle" x="84.88" y="-481.25" font-family="Helvetica,sans-Serif" font-size="10.00">IndexerCxx::doIndex</text>
</a>
</g>
</g>
<!-- Node18&#45;&gt;Node19 -->
<g id="edge20_Node000018_Node000019" class="edge">
<title>Node18&#45;&gt;Node19</title>
<g id="a_edge20_Node000018_Node000019"><a xlink:title=" ">
<path fill="none" stroke="#63b8ff" d="M227.52,-484.38C200.12,-484.38 169.3,-484.38 143.43,-484.38"/>
<polygon fill="#63b8ff" stroke="#63b8ff" points="227.52,-487.88 237.52,-484.38 227.52,-480.88 227.52,-487.88"/>
</a>
</g>
</g>
<!-- Node22 -->
<g id="Node000022" class="node">
<title>Node22</title>
<g id="a_Node000022"><a xlink:href="classCodeController.html#a45ee1e83fa9d27767e041832532bf15f" target="_top" xlink:title=" ">
<polygon fill="white" stroke="#666666" points="603,-113.75 431.75,-113.75 431.75,-93 603,-93 603,-113.75"/>
<text text-anchor="middle" x="517.38" y="-100.25" font-family="Helvetica,sans-Serif" font-size="10.00">CodeController::handleMessage</text>
</a>
</g>
</g>
<!-- Node21&#45;&gt;Node22 -->
<g id="edge24_Node000021_Node000022" class="edge">
<title>Node21&#45;&gt;Node22</title>
<g id="a_edge24_Node000021_Node000022"><a xlink:title=" ">
<path fill="none" stroke="#63b8ff" d="M654.68,-138.69C631.07,-131.07 608.63,-123.91 603,-122.38 592.39,-119.49 580.95,-116.71 570.02,-114.2"/>
<polygon fill="#63b8ff" stroke="#63b8ff" points="653.53,-141.99 664.12,-141.73 655.68,-135.33 653.53,-141.99"/>
</a>
</g>
</g>
<!-- Node24 -->
<g id="Node000024" class="node">
<title>Node24</title>
<g id="a_Node000024"><a xlink:href="classutility_1_1CompilationDatabase.html#aedaa6c9be3a7815d652f31ac0834d239" target="_top" xlink:title=" ">
<polygon fill="white" stroke="#666666" points="595.12,-75.12 439.62,-75.12 439.62,-41.62 595.12,-41.62 595.12,-75.12"/>
<text text-anchor="start" x="447.62" y="-61.62" font-family="Helvetica,sans-Serif" font-size="10.00">utility::CompilationDatabase</text>
<text text-anchor="middle" x="517.38" y="-48.88" font-family="Helvetica,sans-Serif" font-size="10.00">::CompilationDatabase</text>
</a>
</g>
</g>
<!-- Node23&#45;&gt;Node24 -->
<g id="edge26_Node000023_Node000024" class="edge">
<title>Node23&#45;&gt;Node24</title>
<g id="a_edge26_Node000023_Node000024"><a xlink:title=" ">
<path fill="none" stroke="#63b8ff" d="M637.17,-87.48C621.13,-83.55 604.42,-79.46 588.77,-75.62"/>
<polygon fill="#63b8ff" stroke="#63b8ff" points="636.13,-90.83 646.67,-89.81 637.79,-84.03 636.13,-90.83"/>
</a>
</g>
</g>
<!-- Node27 -->
<g id="Node000027" class="node">
<title>Node27</title>
<g id="a_Node000027"><a xlink:href="namespaceutility.html#aae2779aaeab498b4bbce72b77fcdacd3" target="_top" xlink:title=" ">
<polygon fill="white" stroke="#666666" points="589.5,-449.75 445.25,-449.75 445.25,-429 589.5,-429 589.5,-449.75"/>
<text text-anchor="middle" x="517.38" y="-436.25" font-family="Helvetica,sans-Serif" font-size="10.00">utility::createBuildPchTask</text>
</a>
</g>
</g>
<!-- Node26&#45;&gt;Node27 -->
<g id="edge29_Node000026_Node000027" class="edge">
<title>Node26&#45;&gt;Node27</title>
<g id="a_edge29_Node000026_Node000027"><a xlink:title=" ">
<path fill="none" stroke="#63b8ff" d="M687.93,-384.14C665.06,-395.49 632.69,-410.47 603,-420.38 593.72,-423.47 583.69,-426.22 573.9,-428.6"/>
<polygon fill="#63b8ff" stroke="#63b8ff" points="689.32,-387.36 696.69,-379.74 686.18,-381.11 689.32,-387.36"/>
</a>
</g>
</g>
<!-- Node29 -->
<g id="Node000029" class="node">
<title>Node29</title>
<g id="a_Node000029"><a xlink:href="classSourceGroupCxxCdb.html#a274d2b7bd5026520f158e70b6d11f1f6" target="_top" xlink:title=" ">
<polygon fill="white" stroke="#666666" points="597,-411.12 437.75,-411.12 437.75,-377.62 597,-377.62 597,-411.12"/>
<text text-anchor="start" x="445.75" y="-397.62" font-family="Helvetica,sans-Serif" font-size="10.00">SourceGroupCxxCdb::</text>
<text text-anchor="middle" x="517.38" y="-384.88" font-family="Helvetica,sans-Serif" font-size="10.00">getIndexerCommandProvider</text>
</a>
</g>
</g>
<!-- Node26&#45;&gt;Node29 -->
<g id="edge32_Node000026_Node000029" class="edge">
<title>Node26&#45;&gt;Node29</title>
<g id="a_edge32_Node000026_Node000029"><a xlink:title=" ">
<path fill="none" stroke="#63b8ff" d="M627.49,-380.19C617.44,-381.5 607.28,-382.82 597.39,-384.1"/>
<polygon fill="#63b8ff" stroke="#63b8ff" points="627.79,-383.68 637.25,-378.92 626.89,-376.74 627.79,-383.68"/>
</a>
</g>
</g>
<!-- Node31 -->
<g id="Node000031" class="node">
<title>Node31</title>
<g id="a_Node000031"><a xlink:href="namespaceutility.html#aaac38b070557759ddd9c61a8305f3fb0" target="_top" xlink:title=" ">
<polygon fill="white" stroke="#666666" points="599.25,-359.12 435.5,-359.12 435.5,-325.62 599.25,-325.62 599.25,-359.12"/>
<text text-anchor="start" x="443.5" y="-345.62" font-family="Helvetica,sans-Serif" font-size="10.00">utility::getWithRemoveInclude</text>
<text text-anchor="middle" x="517.38" y="-332.88" font-family="Helvetica,sans-Serif" font-size="10.00">PchFlag</text>
</a>
</g>
</g>
<!-- Node26&#45;&gt;Node31 -->
<g id="edge34_Node000026_Node000031" class="edge">
<title>Node26&#45;&gt;Node31</title>
<g id="a_edge34_Node000026_Node000031"><a xlink:title=" ">
<path fill="none" stroke="#63b8ff" d="M627.51,-356.56C618.23,-355.36 608.85,-354.14 599.68,-352.95"/>
<polygon fill="#63b8ff" stroke="#63b8ff" points="626.89,-360.01 637.25,-357.83 627.79,-353.07 626.89,-360.01"/>
</a>
</g>
</g>
<!-- Node27&#45;&gt;Node5 -->
<g id="edge30_Node000027_Node000005" class="edge">
<title>Node27&#45;&gt;Node5</title>
<g id="a_edge30_Node000027_Node000005"><a xlink:title=" ">
<path fill="none" stroke="#63b8ff" d="M440.4,-454.63C437.41,-456.07 434.51,-457.65 431.75,-459.38 410.32,-472.77 416.92,-489.58 395.75,-503.38 385.54,-510.03 373.63,-515 361.8,-518.7"/>
<polygon fill="#63b8ff" stroke="#63b8ff" points="441.59,-457.93 449.46,-450.83 438.88,-451.47 441.59,-457.93"/>
</a>
</g>
</g>
<!-- Node28 -->
<g id="Node000028" class="node">
<title>Node28</title>
<g id="a_Node000028"><a xlink:href="classSourceGroupCxxEmpty.html#a07d6cccc72f87551b7223421728b0f75" target="_top" xlink:title=" ">
<polygon fill="white" stroke="#666666" points="365,-456.12 236.5,-456.12 236.5,-422.62 365,-422.62 365,-456.12"/>
<text text-anchor="start" x="244.5" y="-442.62" font-family="Helvetica,sans-Serif" font-size="10.00">SourceGroupCxxEmpty</text>
<text text-anchor="middle" x="300.75" y="-429.88" font-family="Helvetica,sans-Serif" font-size="10.00">::getPreIndexTask</text>
</a>
</g>
</g>
<!-- Node27&#45;&gt;Node28 -->
<g id="edge31_Node000027_Node000028" class="edge">
<title>Node27&#45;&gt;Node28</title>
<g id="a_edge31_Node000027_Node000028"><a xlink:title=" ">
<path fill="none" stroke="#63b8ff" d="M433.58,-439.38C410.92,-439.38 386.73,-439.38 365.33,-439.38"/>
<polygon fill="#63b8ff" stroke="#63b8ff" points="433.39,-442.88 443.39,-439.38 433.39,-435.88 433.39,-442.88"/>
</a>
</g>
</g>
<!-- Node30 -->
<g id="Node000030" class="node">
<title>Node30</title>
<g id="a_Node000030"><a xlink:href="classSourceGroupCxxCdb.html#ac1c96b26a17c95d2681980ef3a3785d4" target="_top" xlink:title=" ">
<polygon fill="white" stroke="#666666" points="362.75,-404.12 238.75,-404.12 238.75,-370.62 362.75,-370.62 362.75,-404.12"/>
<text text-anchor="start" x="246.75" y="-390.62" font-family="Helvetica,sans-Serif" font-size="10.00">SourceGroupCxxCdb::</text>
<text text-anchor="middle" x="300.75" y="-377.88" font-family="Helvetica,sans-Serif" font-size="10.00">getIndexerCommands</text>
</a>
</g>
</g>
<!-- Node29&#45;&gt;Node30 -->
<g id="edge33_Node000029_Node000030" class="edge">
<title>Node29&#45;&gt;Node30</title>
<g id="a_edge33_Node000029_Node000030"><a xlink:title=" ">
<path fill="none" stroke="#63b8ff" d="M426.04,-391.43C404.84,-390.74 382.72,-390.02 363.13,-389.38"/>
<polygon fill="#63b8ff" stroke="#63b8ff" points="425.75,-394.92 435.86,-391.75 425.98,-387.92 425.75,-394.92"/>
</a>
</g>
</g>
<!-- Node33 -->
<g id="Node000033" class="node">
<title>Node33</title>
<g id="a_Node000033"><a xlink:href="classQtListBox.html#a194f38aaf1151ae184f3bb4eb2f98ec7" target="_top" xlink:title=" ">
<polygon fill="white" stroke="#666666" points="589.88,-20.75 444.88,-20.75 444.88,0 589.88,0 589.88,-20.75"/>
<text text-anchor="middle" x="517.38" y="-7.25" font-family="Helvetica,sans-Serif" font-size="10.00">QtListBox::showEditDialog</text>
</a>
</g>
</g>
<!-- Node32&#45;&gt;Node33 -->
<g id="edge36_Node000032_Node000033" class="edge">
<title>Node32&#45;&gt;Node33</title>
<g id="a_edge36_Node000032_Node000033"><a xlink:title=" ">
<path fill="none" stroke="#63b8ff" d="M633.34,-10.38C618.97,-10.38 604.17,-10.38 590.17,-10.38"/>
<polygon fill="#63b8ff" stroke="#63b8ff" points="633.24,-13.88 643.24,-10.38 633.24,-6.88 633.24,-13.88"/>
</a>
</g>
</g>
<!-- Node34 -->
<g id="Node000034" class="node">
<title>Node34</title>
<g id="a_Node000034"><a xlink:href="classQtListBox.html#ae25276fd1d20d8e14aed47e1f3f7aa35" target="_top" xlink:title=" ">
<polygon fill="white" stroke="#666666" points="359,-20.75 242.5,-20.75 242.5,0 359,0 359,-20.75"/>
<text text-anchor="middle" x="300.75" y="-7.25" font-family="Helvetica,sans-Serif" font-size="10.00">QtListBox::QtListBox</text>
</a>
</g>
</g>
<!-- Node33&#45;&gt;Node34 -->
<g id="edge37_Node000033_Node000034" class="edge">
<title>Node33&#45;&gt;Node34</title>
<g id="a_edge37_Node000033_Node000034"><a xlink:title=" ">
<path fill="none" stroke="#63b8ff" d="M433.37,-10.38C408.58,-10.38 381.97,-10.38 359.21,-10.38"/>
<polygon fill="#63b8ff" stroke="#63b8ff" points="433.1,-13.88 443.1,-10.38 433.1,-6.88 433.1,-13.88"/>
</a>
</g>
</g>
</g>
</svg>
