<?xml version="1.0" encoding="UTF-8" standalone="no"?>
<!DOCTYPE svg PUBLIC "-//W3C//DTD SVG 1.1//EN"
 "http://www.w3.org/Graphics/SVG/1.1/DTD/svg11.dtd">
<!-- Generated by graphviz version 7.1.0 (0)
 -->
<!-- Title: utility::createButtonIcon Pages: 1 -->
<svg width="2487pt" height="502pt"
 viewBox="0.00 0.00 2487.00 502.00" xmlns="http://www.w3.org/2000/svg" xmlns:xlink="http://www.w3.org/1999/xlink">
<g id="graph0" class="graph" transform="scale(1 1) rotate(0) translate(4 498)">
<title>utility::createButtonIcon</title>
<!-- Node1 -->
<g id="node1" class="node">
<title>Node1</title>
<g id="a_node1"><a xlink:title=" ">
<polygon fill="#999999" stroke="#666666" points="2479,-288 2345,-288 2345,-269 2479,-269 2479,-288"/>
<text text-anchor="middle" x="2412" y="-276" font-family="Helvetica,sans-Serif" font-size="10.00">utility::createButtonIcon</text>
</a>
</g>
</g>
<!-- Node2 -->
<g id="node2" class="node">
<title>Node2</title>
<g id="a_node2"><a xlink:href="classQtSelfRefreshIconButton.html#affa285341fcf0a96079707550b15f0e6" target="_top" xlink:title=" ">
<polygon fill="white" stroke="#666666" points="2309,-293.5 2172,-293.5 2172,-263.5 2309,-263.5 2309,-293.5"/>
<text text-anchor="start" x="2180" y="-281.5" font-family="Helvetica,sans-Serif" font-size="10.00">QtSelfRefreshIconButton</text>
<text text-anchor="middle" x="2240.5" y="-270.5" font-family="Helvetica,sans-Serif" font-size="10.00">::refresh</text>
</a>
</g>
</g>
<!-- Node1&#45;&gt;Node2 -->
<g id="edge1" class="edge">
<title>Node1&#45;&gt;Node2</title>
<path fill="none" stroke="#63b8ff" d="M2333.6,-278.5C2325.49,-278.5 2317.29,-278.5 2309.29,-278.5"/>
<polygon fill="#63b8ff" stroke="#63b8ff" points="2333.47,-282 2343.47,-278.5 2333.47,-275 2333.47,-282"/>
</g>
<!-- Node3 -->
<g id="node3" class="node">
<title>Node3</title>
<g id="a_node3"><a xlink:href="classQtSelfRefreshIconButton.html#a2055bc86cb1645be2c12c7e0ae4c91fe" target="_top" xlink:title=" ">
<polygon fill="white" stroke="#666666" points="2133,-389.5 1996,-389.5 1996,-359.5 2133,-359.5 2133,-389.5"/>
<text text-anchor="start" x="2004" y="-377.5" font-family="Helvetica,sans-Serif" font-size="10.00">QtSelfRefreshIconButton</text>
<text text-anchor="middle" x="2064.5" y="-366.5" font-family="Helvetica,sans-Serif" font-size="10.00">::handleMessage</text>
</a>
</g>
</g>
<!-- Node2&#45;&gt;Node3 -->
<g id="edge2" class="edge">
<title>Node2&#45;&gt;Node3</title>
<path fill="none" stroke="#63b8ff" d="M2212.16,-300.7C2192.03,-316.23 2163.49,-336.61 2136,-350.5 2129.77,-353.65 2123.03,-356.54 2116.27,-359.14"/>
<polygon fill="#63b8ff" stroke="#63b8ff" points="2214.15,-303.59 2219.86,-294.66 2209.83,-298.08 2214.15,-303.59"/>
</g>
<!-- Node4 -->
<g id="node4" class="node">
<title>Node4</title>
<g id="a_node4"><a xlink:href="classQtSelfRefreshIconButton.html#a2eab9c78904a427a4491b3db2e5fb54d" target="_top" xlink:title=" ">
<polygon fill="white" stroke="#666666" points="2136,-341.5 1993,-341.5 1993,-311.5 2136,-311.5 2136,-341.5"/>
<text text-anchor="start" x="2001" y="-329.5" font-family="Helvetica,sans-Serif" font-size="10.00">QtSelfRefreshIconButton</text>
<text text-anchor="middle" x="2064.5" y="-318.5" font-family="Helvetica,sans-Serif" font-size="10.00">::QtSelfRefreshIconButton</text>
</a>
</g>
</g>
<!-- Node2&#45;&gt;Node4 -->
<g id="edge3" class="edge">
<title>Node2&#45;&gt;Node4</title>
<path fill="none" stroke="#63b8ff" d="M2172.57,-296.96C2155.67,-301.63 2137.7,-306.58 2121.41,-311.08"/>
<polygon fill="#63b8ff" stroke="#63b8ff" points="2173.32,-300.39 2182.03,-294.35 2171.46,-293.64 2173.32,-300.39"/>
</g>
<!-- Node5 -->
<g id="node5" class="node">
<title>Node5</title>
<g id="a_node5"><a xlink:href="classQtCodeFileTitleButton.html#af27fec9f5cea06ed91d7df3902ecd182" target="_top" xlink:title=" ">
<polygon fill="white" stroke="#666666" points="2125.5,-293.5 2003.5,-293.5 2003.5,-263.5 2125.5,-263.5 2125.5,-293.5"/>
<text text-anchor="start" x="2011.5" y="-281.5" font-family="Helvetica,sans-Serif" font-size="10.00">QtCodeFileTitleButton</text>
<text text-anchor="middle" x="2064.5" y="-270.5" font-family="Helvetica,sans-Serif" font-size="10.00">::refresh</text>
</a>
</g>
</g>
<!-- Node2&#45;&gt;Node5 -->
<g id="edge4" class="edge">
<title>Node2&#45;&gt;Node5</title>
<path fill="none" stroke="#63b8ff" d="M2160.23,-278.5C2148.63,-278.5 2136.85,-278.5 2125.72,-278.5"/>
<polygon fill="#63b8ff" stroke="#63b8ff" points="2160.22,-282 2170.22,-278.5 2160.22,-275 2160.22,-282"/>
</g>
<!-- Node6 -->
<g id="node6" class="node">
<title>Node6</title>
<g id="a_node6"><a xlink:href="classQtSearchBarButton.html#a7ab675838e12787d39fb7111ca7a7836" target="_top" xlink:title=" ">
<polygon fill="white" stroke="#666666" points="2122.5,-245.5 2006.5,-245.5 2006.5,-215.5 2122.5,-215.5 2122.5,-245.5"/>
<text text-anchor="start" x="2014.5" y="-233.5" font-family="Helvetica,sans-Serif" font-size="10.00">QtSearchBarButton::</text>
<text text-anchor="middle" x="2064.5" y="-222.5" font-family="Helvetica,sans-Serif" font-size="10.00">refresh</text>
</a>
</g>
</g>
<!-- Node2&#45;&gt;Node6 -->
<g id="edge5" class="edge">
<title>Node2&#45;&gt;Node6</title>
<path fill="none" stroke="#63b8ff" d="M2172.57,-260.04C2155.67,-255.37 2137.7,-250.42 2121.41,-245.92"/>
<polygon fill="#63b8ff" stroke="#63b8ff" points="2171.46,-263.36 2182.03,-262.65 2173.32,-256.61 2171.46,-263.36"/>
</g>
<!-- Node8 -->
<g id="node8" class="node">
<title>Node8</title>
<g id="a_node8"><a xlink:href="classQtSelfRefreshIconButton.html#a94b171a501840c40af377a52b3714604" target="_top" xlink:title=" ">
<polygon fill="white" stroke="#666666" points="2133,-176.5 1996,-176.5 1996,-146.5 2133,-146.5 2133,-176.5"/>
<text text-anchor="start" x="2004" y="-164.5" font-family="Helvetica,sans-Serif" font-size="10.00">QtSelfRefreshIconButton</text>
<text text-anchor="middle" x="2064.5" y="-153.5" font-family="Helvetica,sans-Serif" font-size="10.00">::setIconPath</text>
</a>
</g>
</g>
<!-- Node2&#45;&gt;Node8 -->
<g id="edge7" class="edge">
<title>Node2&#45;&gt;Node8</title>
<path fill="none" stroke="#63b8ff" d="M2208.71,-256.61C2188.24,-242.17 2160.69,-222.96 2136,-206.5 2120.9,-196.43 2103.73,-185.47 2090.12,-176.88"/>
<polygon fill="#63b8ff" stroke="#63b8ff" points="2206.44,-259.29 2216.63,-262.2 2210.48,-253.57 2206.44,-259.29"/>
</g>
<!-- Node7 -->
<g id="node7" class="node">
<title>Node7</title>
<g id="a_node7"><a xlink:href="classQtSearchBarButton.html#a8584ac45634c0114e16f42e1609445d2" target="_top" xlink:title=" ">
<polygon fill="white" stroke="#666666" points="1944,-267.5 1828,-267.5 1828,-237.5 1944,-237.5 1944,-267.5"/>
<text text-anchor="start" x="1836" y="-255.5" font-family="Helvetica,sans-Serif" font-size="10.00">QtSearchBarButton::</text>
<text text-anchor="middle" x="1886" y="-244.5" font-family="Helvetica,sans-Serif" font-size="10.00">QtSearchBarButton</text>
</a>
</g>
</g>
<!-- Node6&#45;&gt;Node7 -->
<g id="edge6" class="edge">
<title>Node6&#45;&gt;Node7</title>
<path fill="none" stroke="#63b8ff" d="M1994.82,-239.06C1978.12,-241.14 1960.43,-243.35 1944.32,-245.36"/>
<polygon fill="#63b8ff" stroke="#63b8ff" points="1995.2,-242.54 2004.69,-237.83 1994.34,-235.59 1995.2,-242.54"/>
</g>
<!-- Node9 -->
<g id="node9" class="node">
<title>Node9</title>
<g id="a_node9"><a xlink:href="classQtGraphView.html#ad62e4097c2649e7e7ce879278132d4cb" target="_top" xlink:title=" ">
<polygon fill="white" stroke="#666666" points="1779,-171 1627,-171 1627,-152 1779,-152 1779,-171"/>
<text text-anchor="middle" x="1703" y="-159" font-family="Helvetica,sans-Serif" font-size="10.00">QtGraphView::QtGraphView</text>
</a>
</g>
</g>
<!-- Node8&#45;&gt;Node9 -->
<g id="edge8" class="edge">
<title>Node8&#45;&gt;Node9</title>
<path fill="none" stroke="#63b8ff" d="M1984.38,-161.5C1923.34,-161.5 1839.47,-161.5 1779.39,-161.5"/>
<polygon fill="#63b8ff" stroke="#63b8ff" points="1984.37,-165 1994.37,-161.5 1984.37,-158 1984.37,-165"/>
</g>
<!-- Node10 -->
<g id="node10" class="node">
<title>Node10</title>
<g id="a_node10"><a xlink:href="classQtBookmarkButtonsView.html#aab524a46924a7dab75bf20fda3823ea0" target="_top" xlink:title=" ">
<polygon fill="white" stroke="#666666" points="1956,-85.5 1816,-85.5 1816,-55.5 1956,-55.5 1956,-85.5"/>
<text text-anchor="start" x="1824" y="-73.5" font-family="Helvetica,sans-Serif" font-size="10.00">QtBookmarkButtonsView</text>
<text text-anchor="middle" x="1886" y="-62.5" font-family="Helvetica,sans-Serif" font-size="10.00">::setCreateButtonState</text>
</a>
</g>
</g>
<!-- Node8&#45;&gt;Node10 -->
<g id="edge9" class="edge">
<title>Node8&#45;&gt;Node10</title>
<path fill="none" stroke="#63b8ff" d="M2033.09,-139.71C2012.35,-125.53 1983.88,-107.35 1957,-94.5 1950.51,-91.4 1943.51,-88.5 1936.53,-85.88"/>
<polygon fill="#63b8ff" stroke="#63b8ff" points="2030.86,-142.42 2041.07,-145.24 2034.85,-136.67 2030.86,-142.42"/>
</g>
<!-- Node11 -->
<g id="node11" class="node">
<title>Node11</title>
<g id="a_node11"><a xlink:href="classQtCodeFileTitleButton.html#a23c04380cbe9f6ae9fe3821bc2060fac" target="_top" xlink:title=" ">
<polygon fill="white" stroke="#666666" points="1947,-219.5 1825,-219.5 1825,-189.5 1947,-189.5 1947,-219.5"/>
<text text-anchor="start" x="1833" y="-207.5" font-family="Helvetica,sans-Serif" font-size="10.00">QtCodeFileTitleButton</text>
<text text-anchor="middle" x="1886" y="-196.5" font-family="Helvetica,sans-Serif" font-size="10.00">::updateIcon</text>
</a>
</g>
</g>
<!-- Node8&#45;&gt;Node11 -->
<g id="edge10" class="edge">
<title>Node8&#45;&gt;Node11</title>
<path fill="none" stroke="#63b8ff" d="M1989.23,-179.59C1975.29,-182.99 1960.87,-186.5 1947.42,-189.78"/>
<polygon fill="#63b8ff" stroke="#63b8ff" points="1989.92,-183.03 1998.81,-177.26 1988.26,-176.23 1989.92,-183.03"/>
</g>
<!-- Node47 -->
<g id="node44" class="node">
<title>Node47</title>
<g id="a_node44"><a xlink:href="classQtGraphView.html#a9e237e395d22d36c64998d7b855aebab" target="_top" xlink:title=" ">
<polygon fill="white" stroke="#666666" points="1957,-133.5 1815,-133.5 1815,-103.5 1957,-103.5 1957,-133.5"/>
<text text-anchor="start" x="1823" y="-121.5" font-family="Helvetica,sans-Serif" font-size="10.00">QtGraphView::updateTrail</text>
<text text-anchor="middle" x="1886" y="-110.5" font-family="Helvetica,sans-Serif" font-size="10.00">Buttons</text>
</a>
</g>
</g>
<!-- Node8&#45;&gt;Node47 -->
<g id="edge56" class="edge">
<title>Node8&#45;&gt;Node47</title>
<path fill="none" stroke="#63b8ff" d="M1989.48,-143.47C1976.48,-140.3 1963.05,-137.03 1950.37,-133.94"/>
<polygon fill="#63b8ff" stroke="#63b8ff" points="1988.26,-146.77 1998.81,-145.74 1989.92,-139.97 1988.26,-146.77"/>
</g>
<!-- Node12 -->
<g id="node12" class="node">
<title>Node12</title>
<g id="a_node12"><a xlink:href="classQtCodeFileTitleButton.html#a5147f48c580f3b45e8d9a01e58a9d3ed" target="_top" xlink:title=" ">
<polygon fill="white" stroke="#666666" points="1764,-348.5 1642,-348.5 1642,-318.5 1764,-318.5 1764,-348.5"/>
<text text-anchor="start" x="1650" y="-336.5" font-family="Helvetica,sans-Serif" font-size="10.00">QtCodeFileTitleButton</text>
<text text-anchor="middle" x="1703" y="-325.5" font-family="Helvetica,sans-Serif" font-size="10.00">::setFilePath</text>
</a>
</g>
</g>
<!-- Node11&#45;&gt;Node12 -->
<g id="edge11" class="edge">
<title>Node11&#45;&gt;Node12</title>
<path fill="none" stroke="#63b8ff" d="M1819.76,-225.29C1818.13,-226.32 1816.54,-227.38 1815,-228.5 1793.43,-244.18 1797.8,-257.58 1779,-276.5 1763.32,-292.28 1743.14,-307.38 1727.65,-318.07"/>
<polygon fill="#63b8ff" stroke="#63b8ff" points="1821.12,-228.54 1828.21,-220.67 1817.76,-222.4 1821.12,-228.54"/>
</g>
<!-- Node42 -->
<g id="node39" class="node">
<title>Node42</title>
<g id="a_node39"><a xlink:href="classQtCodeFileTitleButton.html#a3166dac49163f867f517dc8ae03bf9f5" target="_top" xlink:title=" ">
<polygon fill="white" stroke="#666666" points="1764,-219.5 1642,-219.5 1642,-189.5 1764,-189.5 1764,-219.5"/>
<text text-anchor="start" x="1650" y="-207.5" font-family="Helvetica,sans-Serif" font-size="10.00">QtCodeFileTitleButton</text>
<text text-anchor="middle" x="1703" y="-196.5" font-family="Helvetica,sans-Serif" font-size="10.00">::setIsComplete</text>
</a>
</g>
</g>
<!-- Node11&#45;&gt;Node42 -->
<g id="edge44" class="edge">
<title>Node11&#45;&gt;Node42</title>
<path fill="none" stroke="#63b8ff" d="M1813.6,-204.5C1797.29,-204.5 1780.11,-204.5 1764.32,-204.5"/>
<polygon fill="#63b8ff" stroke="#63b8ff" points="1813.22,-208 1823.22,-204.5 1813.22,-201 1813.22,-208"/>
</g>
<!-- Node45 -->
<g id="node42" class="node">
<title>Node45</title>
<g id="a_node42"><a xlink:href="classQtCodeFileTitleButton.html#ac0ddce5a2f293170e7a2206455e7dc75" target="_top" xlink:title=" ">
<polygon fill="white" stroke="#666666" points="1764,-267.5 1642,-267.5 1642,-237.5 1764,-237.5 1764,-267.5"/>
<text text-anchor="start" x="1650" y="-255.5" font-family="Helvetica,sans-Serif" font-size="10.00">QtCodeFileTitleButton</text>
<text text-anchor="middle" x="1703" y="-244.5" font-family="Helvetica,sans-Serif" font-size="10.00">::setProject</text>
</a>
</g>
</g>
<!-- Node11&#45;&gt;Node45 -->
<g id="edge51" class="edge">
<title>Node11&#45;&gt;Node45</title>
<path fill="none" stroke="#63b8ff" d="M1815.62,-222.9C1797.97,-227.58 1779.18,-232.56 1762.16,-237.08"/>
<polygon fill="#63b8ff" stroke="#63b8ff" points="1816.5,-226.29 1825.27,-220.34 1814.71,-219.52 1816.5,-226.29"/>
</g>
<!-- Node13 -->
<g id="node13" class="node">
<title>Node13</title>
<g id="a_node13"><a xlink:href="classQtCodeFile.html#a12660ec24fa5c2d7dcbc787285ff1bad" target="_top" xlink:title=" ">
<polygon fill="white" stroke="#666666" points="1568,-381 1440,-381 1440,-362 1568,-362 1568,-381"/>
<text text-anchor="middle" x="1504" y="-369" font-family="Helvetica,sans-Serif" font-size="10.00">QtCodeFile::QtCodeFile</text>
</a>
</g>
</g>
<!-- Node12&#45;&gt;Node13 -->
<g id="edge12" class="edge">
<title>Node12&#45;&gt;Node13</title>
<path fill="none" stroke="#63b8ff" d="M1630.52,-347.29C1606.09,-352 1579.25,-357.18 1556.69,-361.53"/>
<polygon fill="#63b8ff" stroke="#63b8ff" points="1630.91,-350.78 1640.07,-345.45 1629.59,-343.9 1630.91,-350.78"/>
</g>
<!-- Node14 -->
<g id="node14" class="node">
<title>Node14</title>
<g id="a_node14"><a xlink:href="classQtCodeFileSingle.html#a5fb50acd63b16160f3ac343d11726839" target="_top" xlink:title=" ">
<polygon fill="white" stroke="#666666" points="1378,-419 1218,-419 1218,-400 1378,-400 1378,-419"/>
<text text-anchor="middle" x="1298" y="-407" font-family="Helvetica,sans-Serif" font-size="10.00">QtCodeFileSingle::setFileData</text>
</a>
</g>
</g>
<!-- Node12&#45;&gt;Node14 -->
<g id="edge13" class="edge">
<title>Node12&#45;&gt;Node14</title>
<path fill="none" stroke="#63b8ff" d="M1669.37,-354.78C1648,-367.55 1618.94,-382.78 1591,-390.5 1520.86,-409.89 1437.78,-413.53 1378.21,-412.97"/>
<polygon fill="#63b8ff" stroke="#63b8ff" points="1670.92,-357.94 1677.62,-349.73 1667.27,-351.97 1670.92,-357.94"/>
</g>
<!-- Node26 -->
<g id="node24" class="node">
<title>Node26</title>
<g id="a_node24"><a xlink:href="classQtCodeFileList.html#aa9325f17885c7992fa2e5ba4df468e67" target="_top" xlink:title=" ">
<polygon fill="white" stroke="#666666" points="1174.5,-314.5 1028.5,-314.5 1028.5,-284.5 1174.5,-284.5 1174.5,-314.5"/>
<text text-anchor="start" x="1036.5" y="-302.5" font-family="Helvetica,sans-Serif" font-size="10.00">QtCodeFileList::updateFirst</text>
<text text-anchor="middle" x="1101.5" y="-291.5" font-family="Helvetica,sans-Serif" font-size="10.00">SnippetTitleBar</text>
</a>
</g>
</g>
<!-- Node12&#45;&gt;Node26 -->
<g id="edge25" class="edge">
<title>Node12&#45;&gt;Node26</title>
<path fill="none" stroke="#63b8ff" d="M1630.3,-329.43C1515.14,-322.9 1290.2,-310.14 1174.71,-303.6"/>
<polygon fill="#63b8ff" stroke="#63b8ff" points="1630.08,-332.93 1640.26,-330 1630.48,-325.94 1630.08,-332.93"/>
</g>
<!-- Node40 -->
<g id="node37" class="node">
<title>Node40</title>
<g id="a_node37"><a xlink:href="classQtCodeFileTitleButton.html#a5fb14fdaeae9b7d6392c25683d67fa9b" target="_top" xlink:title=" ">
<polygon fill="white" stroke="#666666" points="1565,-267.5 1443,-267.5 1443,-237.5 1565,-237.5 1565,-267.5"/>
<text text-anchor="start" x="1451" y="-255.5" font-family="Helvetica,sans-Serif" font-size="10.00">QtCodeFileTitleButton</text>
<text text-anchor="middle" x="1504" y="-244.5" font-family="Helvetica,sans-Serif" font-size="10.00">::updateFromOther</text>
</a>
</g>
</g>
<!-- Node12&#45;&gt;Node40 -->
<g id="edge41" class="edge">
<title>Node12&#45;&gt;Node40</title>
<path fill="none" stroke="#63b8ff" d="M1654.2,-313.85C1619.82,-299.71 1574.1,-280.91 1542.38,-267.87"/>
<polygon fill="#63b8ff" stroke="#63b8ff" points="1652.5,-316.93 1663.08,-317.5 1655.16,-310.46 1652.5,-316.93"/>
</g>
<!-- Node15 -->
<g id="node15" class="node">
<title>Node15</title>
<g id="a_node15"><a xlink:href="classQtCodeFileSingle.html#a9a79da8d37022afa497a602193893364" target="_top" xlink:title=" ">
<polygon fill="white" stroke="#666666" points="1171.5,-457 1031.5,-457 1031.5,-438 1171.5,-438 1171.5,-457"/>
<text text-anchor="middle" x="1101.5" y="-445" font-family="Helvetica,sans-Serif" font-size="10.00">QtCodeFileSingle::addFile</text>
</a>
</g>
</g>
<!-- Node14&#45;&gt;Node15 -->
<g id="edge14" class="edge">
<title>Node14&#45;&gt;Node15</title>
<path fill="none" stroke="#63b8ff" d="M1234.92,-421.63C1208.69,-426.75 1178.51,-432.65 1153.6,-437.52"/>
<polygon fill="#63b8ff" stroke="#63b8ff" points="1235.27,-425.13 1244.41,-419.77 1233.93,-418.26 1235.27,-425.13"/>
</g>
<!-- Node18 -->
<g id="node18" class="node">
<title>Node18</title>
<g id="a_node18"><a xlink:href="classQtCodeFileSingle.html#abcb6f719eb9ddb78599b5b068ff3fc65" target="_top" xlink:title=" ">
<polygon fill="white" stroke="#666666" points="975.5,-429 829.5,-429 829.5,-410 975.5,-410 975.5,-429"/>
<text text-anchor="middle" x="902.5" y="-417" font-family="Helvetica,sans-Serif" font-size="10.00">QtCodeFileSingle::clearFile</text>
</a>
</g>
</g>
<!-- Node14&#45;&gt;Node18 -->
<g id="edge17" class="edge">
<title>Node14&#45;&gt;Node18</title>
<path fill="none" stroke="#63b8ff" d="M1206.4,-411.8C1136.41,-413.58 1040.84,-416.01 975.9,-417.66"/>
<polygon fill="#63b8ff" stroke="#63b8ff" points="1206.42,-415.3 1216.33,-411.55 1206.24,-408.31 1206.42,-415.3"/>
</g>
<!-- Node25 -->
<g id="node23" class="node">
<title>Node25</title>
<g id="a_node23"><a xlink:href="classQtCodeFileSingle.html#a025dfc782328c0e8ea4c66b036c321d3" target="_top" xlink:title=" ">
<polygon fill="white" stroke="#666666" points="1172.5,-494 1030.5,-494 1030.5,-475 1172.5,-475 1172.5,-494"/>
<text text-anchor="middle" x="1101.5" y="-482" font-family="Helvetica,sans-Serif" font-size="10.00">QtCodeFileSingle::scrollTo</text>
</a>
</g>
</g>
<!-- Node14&#45;&gt;Node25 -->
<g id="edge24" class="edge">
<title>Node14&#45;&gt;Node25</title>
<path fill="none" stroke="#63b8ff" d="M1269.62,-424.86C1246.16,-437.49 1211.17,-455.1 1179,-466.5 1170.38,-469.55 1161.04,-472.24 1151.93,-474.55"/>
<polygon fill="#63b8ff" stroke="#63b8ff" points="1271.1,-428.03 1278.2,-420.17 1267.75,-421.89 1271.1,-428.03"/>
</g>
<!-- Node16 -->
<g id="node16" class="node">
<title>Node16</title>
<g id="a_node16"><a xlink:href="classQtCodeNavigator.html#aef582a683123b6752860443d2a302712" target="_top" xlink:title=" ">
<polygon fill="white" stroke="#666666" points="988,-466 817,-466 817,-447 988,-447 988,-466"/>
<text text-anchor="middle" x="902.5" y="-454" font-family="Helvetica,sans-Serif" font-size="10.00">QtCodeNavigator::addSingleFile</text>
</a>
</g>
</g>
<!-- Node15&#45;&gt;Node16 -->
<g id="edge15" class="edge">
<title>Node15&#45;&gt;Node16</title>
<path fill="none" stroke="#63b8ff" d="M1019.86,-451.18C1009.42,-451.66 998.71,-452.15 988.22,-452.63"/>
<polygon fill="#63b8ff" stroke="#63b8ff" points="1019.7,-454.69 1029.53,-450.74 1019.38,-447.7 1019.7,-454.69"/>
</g>
<!-- Node17 -->
<g id="node17" class="node">
<title>Node17</title>
<g id="a_node17"><a xlink:href="classQtCodeView.html#a03d33b6b0d51a10ab3c407765c6e8c6d" target="_top" xlink:title=" ">
<polygon fill="white" stroke="#666666" points="369,-467 214,-467 214,-448 369,-448 369,-467"/>
<text text-anchor="middle" x="291.5" y="-455" font-family="Helvetica,sans-Serif" font-size="10.00">QtCodeView::showSingleFile</text>
</a>
</g>
</g>
<!-- Node16&#45;&gt;Node17 -->
<g id="edge16" class="edge">
<title>Node16&#45;&gt;Node17</title>
<path fill="none" stroke="#63b8ff" d="M805.28,-467.42C705.15,-477.13 543.86,-488.14 405,-476.5 383.78,-474.72 360.55,-471.09 340.73,-467.47"/>
<polygon fill="#63b8ff" stroke="#63b8ff" points="805.47,-470.92 815.08,-466.45 804.78,-463.95 805.47,-470.92"/>
</g>
<!-- Node19 -->
<g id="node19" class="node">
<title>Node19</title>
<g id="a_node19"><a xlink:href="classQtCodeFileSingle.html#ab2434a5b1ff78fb8bdb38706489a5539" target="_top" xlink:title=" ">
<polygon fill="white" stroke="#666666" points="777,-429 618,-429 618,-410 777,-410 777,-429"/>
<text text-anchor="middle" x="697.5" y="-417" font-family="Helvetica,sans-Serif" font-size="10.00">QtCodeFileSingle::clearCache</text>
</a>
</g>
</g>
<!-- Node18&#45;&gt;Node19 -->
<g id="edge18" class="edge">
<title>Node18&#45;&gt;Node19</title>
<path fill="none" stroke="#63b8ff" d="M817.94,-419.5C804.55,-419.5 790.73,-419.5 777.44,-419.5"/>
<polygon fill="#63b8ff" stroke="#63b8ff" points="817.56,-423 827.56,-419.5 817.56,-416 817.56,-423"/>
</g>
<!-- Node24 -->
<g id="node22" class="node">
<title>Node24</title>
<g id="a_node22"><a xlink:href="classQtCodeNavigator.html#a4b7d596f4bb1e551ab3d51312537bf8d" target="_top" xlink:title=" ">
<polygon fill="white" stroke="#666666" points="565,-467 418,-467 418,-448 565,-448 565,-467"/>
<text text-anchor="middle" x="491.5" y="-455" font-family="Helvetica,sans-Serif" font-size="10.00">QtCodeNavigator::clearFile</text>
</a>
</g>
</g>
<!-- Node18&#45;&gt;Node24 -->
<g id="edge21" class="edge">
<title>Node18&#45;&gt;Node24</title>
<path fill="none" stroke="#63b8ff" d="M834.11,-431.23C816.84,-433.93 798.27,-436.57 781,-438.5 707.79,-446.67 623.71,-451.71 565.28,-454.53"/>
<polygon fill="#63b8ff" stroke="#63b8ff" points="834.43,-434.72 843.75,-429.69 833.32,-427.81 834.43,-434.72"/>
</g>
<!-- Node20 -->
<g id="node20" class="node">
<title>Node20</title>
<g id="a_node20"><a xlink:href="classQtCodeNavigator.html#aa01dcef203163f03740b7be346af57ab" target="_top" xlink:title=" ">
<polygon fill="#fff0f0" stroke="red" points="572,-430 411,-430 411,-411 572,-411 572,-430"/>
<text text-anchor="middle" x="491.5" y="-418" font-family="Helvetica,sans-Serif" font-size="10.00">QtCodeNavigator::clearCache</text>
</a>
</g>
</g>
<!-- Node19&#45;&gt;Node20 -->
<g id="edge19" class="edge">
<title>Node19&#45;&gt;Node20</title>
<path fill="none" stroke="#63b8ff" d="M606.34,-419.94C594.95,-420 583.37,-420.05 572.17,-420.11"/>
<polygon fill="#63b8ff" stroke="#63b8ff" points="606.13,-423.44 616.11,-419.89 606.1,-416.44 606.13,-423.44"/>
</g>
<!-- Node21 -->
<g id="node21" class="node">
<title>Node21</title>
<g id="a_node21"><a xlink:href="classQtCodeNavigator.html#a3370003f440df20925362f6b4fd322c1" target="_top" xlink:title=" ">
<polygon fill="#fff0f0" stroke="red" points="357,-430 226,-430 226,-411 357,-411 357,-430"/>
<text text-anchor="middle" x="291.5" y="-418" font-family="Helvetica,sans-Serif" font-size="10.00">QtCodeNavigator::clear</text>
</a>
</g>
</g>
<!-- Node20&#45;&gt;Node21 -->
<g id="edge20" class="edge">
<title>Node20&#45;&gt;Node21</title>
<path fill="none" stroke="#63b8ff" d="M399.24,-420.5C385.07,-420.5 370.68,-420.5 357.26,-420.5"/>
<polygon fill="#63b8ff" stroke="#63b8ff" points="399.02,-424 409.02,-420.5 399.02,-417 399.02,-424"/>
</g>
<!-- Node24&#45;&gt;Node17 -->
<g id="edge23" class="edge">
<title>Node24&#45;&gt;Node17</title>
<path fill="none" stroke="#63b8ff" d="M406.39,-457.5C394.05,-457.5 381.4,-457.5 369.22,-457.5"/>
<polygon fill="#63b8ff" stroke="#63b8ff" points="406.1,-461 416.1,-457.5 406.1,-454 406.1,-461"/>
</g>
<!-- Node24&#45;&gt;Node21 -->
<g id="edge22" class="edge">
<title>Node24&#45;&gt;Node21</title>
<path fill="none" stroke="#63b8ff" d="M425.95,-445.44C400.06,-440.6 370.57,-435.09 345.92,-430.48"/>
<polygon fill="#63b8ff" stroke="#63b8ff" points="425.22,-448.86 435.69,-447.26 426.5,-441.98 425.22,-448.86"/>
</g>
<!-- Node27 -->
<g id="node25" class="node">
<title>Node27</title>
<g id="a_node25"><a xlink:href="classQtCodeFileList.html#a30633b5ac49dac4a47cee55aa25246f8" target="_top" xlink:title=" ">
<polygon fill="white" stroke="#666666" points="979,-346.5 826,-346.5 826,-316.5 979,-316.5 979,-346.5"/>
<text text-anchor="start" x="834" y="-334.5" font-family="Helvetica,sans-Serif" font-size="10.00">QtCodeFileList::clearSnippet</text>
<text text-anchor="middle" x="902.5" y="-323.5" font-family="Helvetica,sans-Serif" font-size="10.00">TitleAndScrollBar</text>
</a>
</g>
</g>
<!-- Node26&#45;&gt;Node27 -->
<g id="edge26" class="edge">
<title>Node26&#45;&gt;Node27</title>
<path fill="none" stroke="#63b8ff" d="M1016.93,-313.08C1004.46,-315.1 991.67,-317.18 979.37,-319.18"/>
<polygon fill="#63b8ff" stroke="#63b8ff" points="1017.46,-316.53 1026.77,-311.48 1016.34,-309.63 1017.46,-316.53"/>
</g>
<!-- Node36 -->
<g id="node33" class="node">
<title>Node36</title>
<g id="a_node33"><a xlink:href="classQtCodeFileList.html#a9983900e82c5c6de1de0548a9b3114f5" target="_top" xlink:title=" ">
<polygon fill="white" stroke="#666666" points="984,-283.5 821,-283.5 821,-253.5 984,-253.5 984,-283.5"/>
<text text-anchor="start" x="829" y="-271.5" font-family="Helvetica,sans-Serif" font-size="10.00">QtCodeFileList::updateSnippet</text>
<text text-anchor="middle" x="902.5" y="-260.5" font-family="Helvetica,sans-Serif" font-size="10.00">TitleAndScrollBar</text>
</a>
</g>
</g>
<!-- Node26&#45;&gt;Node36 -->
<g id="edge36" class="edge">
<title>Node26&#45;&gt;Node36</title>
<path fill="none" stroke="#63b8ff" d="M1017.09,-286.37C1006.25,-284.67 995.17,-282.93 984.38,-281.23"/>
<polygon fill="#63b8ff" stroke="#63b8ff" points="1016.35,-289.8 1026.77,-287.9 1017.43,-282.89 1016.35,-289.8"/>
</g>
<!-- Node28 -->
<g id="node26" class="node">
<title>Node28</title>
<g id="a_node26"><a xlink:href="classQtCodeFileList.html#a5428adf1ffedd07694b366e7b059a311" target="_top" xlink:title=" ">
<polygon fill="white" stroke="#666666" points="755.5,-392 639.5,-392 639.5,-373 755.5,-373 755.5,-392"/>
<text text-anchor="middle" x="697.5" y="-380" font-family="Helvetica,sans-Serif" font-size="10.00">QtCodeFileList::clear</text>
</a>
</g>
</g>
<!-- Node27&#45;&gt;Node28 -->
<g id="edge27" class="edge">
<title>Node27&#45;&gt;Node28</title>
<path fill="none" stroke="#63b8ff" d="M833.81,-349.9C816.61,-354.46 798.15,-359.25 781,-363.5 768.73,-366.54 755.39,-369.68 743.09,-372.52"/>
<polygon fill="#63b8ff" stroke="#63b8ff" points="834.67,-353.29 843.43,-347.34 832.87,-346.53 834.67,-353.29"/>
</g>
<!-- Node31 -->
<g id="node28" class="node">
<title>Node31</title>
<g id="a_node28"><a xlink:href="classQtCodeNavigator.html#a545ec3a951f4969f1c8bab6ff85159a3" target="_top" xlink:title=" ">
<polygon fill="white" stroke="#666666" points="781,-354.5 614,-354.5 614,-324.5 781,-324.5 781,-354.5"/>
<text text-anchor="start" x="622" y="-342.5" font-family="Helvetica,sans-Serif" font-size="10.00">QtCodeNavigator::clearSnippet</text>
<text text-anchor="middle" x="697.5" y="-331.5" font-family="Helvetica,sans-Serif" font-size="10.00">References</text>
</a>
</g>
</g>
<!-- Node27&#45;&gt;Node31 -->
<g id="edge31" class="edge">
<title>Node27&#45;&gt;Node31</title>
<path fill="none" stroke="#63b8ff" d="M814.35,-334.93C803.43,-335.36 792.28,-335.8 781.43,-336.23"/>
<polygon fill="#63b8ff" stroke="#63b8ff" points="814.25,-338.44 824.11,-334.55 813.98,-331.45 814.25,-338.44"/>
</g>
<!-- Node35 -->
<g id="node32" class="node">
<title>Node35</title>
<g id="a_node32"><a xlink:href="classQtCodeFileList.html#a49a74f75306cdc20302f95773642498e" target="_top" xlink:title=" ">
<polygon fill="white" stroke="#666666" points="772,-306 623,-306 623,-287 772,-287 772,-306"/>
<text text-anchor="middle" x="697.5" y="-294" font-family="Helvetica,sans-Serif" font-size="10.00">QtCodeFileList::resizeEvent</text>
</a>
</g>
</g>
<!-- Node27&#45;&gt;Node35 -->
<g id="edge35" class="edge">
<title>Node27&#45;&gt;Node35</title>
<path fill="none" stroke="#63b8ff" d="M814.46,-316.49C794.77,-313.1 774.34,-309.58 756.22,-306.45"/>
<polygon fill="#63b8ff" stroke="#63b8ff" points="813.68,-319.91 824.13,-318.16 814.87,-313.01 813.68,-319.91"/>
</g>
<!-- Node29 -->
<g id="node27" class="node">
<title>Node29</title>
<g id="a_node27"><a xlink:href="classQtCodeNavigator.html#ae0382e2f4449795b936bc17c8d3de4c5" target="_top" xlink:title=" ">
<polygon fill="#fff0f0" stroke="red" points="578,-393 405,-393 405,-374 578,-374 578,-393"/>
<text text-anchor="middle" x="491.5" y="-381" font-family="Helvetica,sans-Serif" font-size="10.00">QtCodeNavigator::clearSnippets</text>
</a>
</g>
</g>
<!-- Node28&#45;&gt;Node29 -->
<g id="edge28" class="edge">
<title>Node28&#45;&gt;Node29</title>
<path fill="none" stroke="#63b8ff" d="M627.82,-382.84C611.95,-382.91 594.88,-383 578.39,-383.08"/>
<polygon fill="#63b8ff" stroke="#63b8ff" points="627.64,-386.34 637.62,-382.79 627.6,-379.34 627.64,-386.34"/>
</g>
<!-- Node29&#45;&gt;Node17 -->
<g id="edge30" class="edge">
<title>Node29&#45;&gt;Node17</title>
<path fill="none" stroke="#63b8ff" d="M415.73,-397.33C412.02,-398.87 408.42,-400.59 405,-402.5 384.96,-413.68 388.97,-428.2 369,-439.5 363.3,-442.73 357.05,-445.38 350.65,-447.55"/>
<polygon fill="#63b8ff" stroke="#63b8ff" points="416.8,-400.66 424.99,-393.93 414.39,-394.09 416.8,-400.66"/>
</g>
<!-- Node29&#45;&gt;Node21 -->
<g id="edge29" class="edge">
<title>Node29&#45;&gt;Node21</title>
<path fill="none" stroke="#63b8ff" d="M425.95,-395.56C400.06,-400.4 370.57,-405.91 345.92,-410.52"/>
<polygon fill="#63b8ff" stroke="#63b8ff" points="426.5,-399.02 435.69,-393.74 425.22,-392.14 426.5,-399.02"/>
</g>
<!-- Node32 -->
<g id="node29" class="node">
<title>Node32</title>
<g id="a_node29"><a xlink:href="classQtCodeFile.html#a825265ee61b3b7d852502fba7234623f" target="_top" xlink:title=" ">
<polygon fill="white" stroke="#666666" points="562,-306 421,-306 421,-287 562,-287 562,-306"/>
<text text-anchor="middle" x="491.5" y="-294" font-family="Helvetica,sans-Serif" font-size="10.00">QtCodeFile::clearSnippets</text>
</a>
</g>
</g>
<!-- Node31&#45;&gt;Node32 -->
<g id="edge32" class="edge">
<title>Node31&#45;&gt;Node32</title>
<path fill="none" stroke="#63b8ff" d="M611.94,-321.68C587.3,-316.48 561.26,-310.99 539.8,-306.47"/>
<polygon fill="#63b8ff" stroke="#63b8ff" points="611.15,-325.09 621.66,-323.72 612.6,-318.24 611.15,-325.09"/>
</g>
<!-- Node33 -->
<g id="node30" class="node">
<title>Node33</title>
<g id="a_node30"><a xlink:href="classQtCodeFileList.html#a0f5d8585a8e2ddc5e448c201f0bc5810" target="_top" xlink:title=" ">
<polygon fill="white" stroke="#666666" points="355,-183 228,-183 228,-164 355,-164 355,-183"/>
<text text-anchor="middle" x="291.5" y="-171" font-family="Helvetica,sans-Serif" font-size="10.00">QtCodeFileList::addFile</text>
</a>
</g>
</g>
<!-- Node32&#45;&gt;Node33 -->
<g id="edge33" class="edge">
<title>Node32&#45;&gt;Node33</title>
<path fill="none" stroke="#63b8ff" d="M464.99,-280.65C423.52,-254.89 342.69,-204.68 308.44,-183.4"/>
<polygon fill="#63b8ff" stroke="#63b8ff" points="463,-283.54 473.35,-285.84 466.7,-277.59 463,-283.54"/>
</g>
<!-- Node34 -->
<g id="node31" class="node">
<title>Node34</title>
<g id="a_node31"><a xlink:href="classQtCodeNavigator.html#ad23c7d3c5aeaa930c29893bf4e1fdb21" target="_top" xlink:title=" ">
<polygon fill="#fff0f0" stroke="red" points="178,-183 0,-183 0,-164 178,-164 178,-183"/>
<text text-anchor="middle" x="89" y="-171" font-family="Helvetica,sans-Serif" font-size="10.00">QtCodeNavigator::addSnippetFile</text>
</a>
</g>
</g>
<!-- Node33&#45;&gt;Node34 -->
<g id="edge34" class="edge">
<title>Node33&#45;&gt;Node34</title>
<path fill="none" stroke="#63b8ff" d="M216.42,-173.5C204.03,-173.5 191.07,-173.5 178.37,-173.5"/>
<polygon fill="#63b8ff" stroke="#63b8ff" points="216.1,-177 226.1,-173.5 216.1,-170 216.1,-177"/>
</g>
<!-- Node36&#45;&gt;Node35 -->
<g id="edge38" class="edge">
<title>Node36&#45;&gt;Node35</title>
<path fill="none" stroke="#63b8ff" d="M809.39,-281.2C796.46,-282.99 783.32,-284.8 770.82,-286.52"/>
<polygon fill="#63b8ff" stroke="#63b8ff" points="809.76,-284.69 819.19,-279.85 808.8,-277.75 809.76,-284.69"/>
</g>
<!-- Node37 -->
<g id="node34" class="node">
<title>Node37</title>
<g id="a_node34"><a xlink:href="classQtCodeFileList.html#a03dd2e7cb4f3882640b64167efb41e8b" target="_top" xlink:title=" ">
<polygon fill="white" stroke="#666666" points="778.5,-269 616.5,-269 616.5,-250 778.5,-250 778.5,-269"/>
<text text-anchor="middle" x="697.5" y="-257" font-family="Helvetica,sans-Serif" font-size="10.00">QtCodeFileList::QtCodeFileList</text>
</a>
</g>
</g>
<!-- Node36&#45;&gt;Node37 -->
<g id="edge37" class="edge">
<title>Node36&#45;&gt;Node37</title>
<path fill="none" stroke="#63b8ff" d="M809.25,-264.41C799.06,-263.96 788.73,-263.5 778.7,-263.06"/>
<polygon fill="#63b8ff" stroke="#63b8ff" points="809.03,-267.9 819.17,-264.85 809.34,-260.91 809.03,-267.9"/>
</g>
<!-- Node38 -->
<g id="node35" class="node">
<title>Node38</title>
<g id="a_node35"><a xlink:href="classQtCodeFileList.html#a1c4c778b9a4e71ab47ea62fbf6b947d1" target="_top" xlink:title=" ">
<polygon fill="white" stroke="#666666" points="779,-231.5 616,-231.5 616,-201.5 779,-201.5 779,-231.5"/>
<text text-anchor="start" x="624" y="-219.5" font-family="Helvetica,sans-Serif" font-size="10.00">QtCodeFileList::updateSnippet</text>
<text text-anchor="middle" x="697.5" y="-208.5" font-family="Helvetica,sans-Serif" font-size="10.00">TitleAndScrollBarSlot</text>
</a>
</g>
</g>
<!-- Node36&#45;&gt;Node38 -->
<g id="edge39" class="edge">
<title>Node36&#45;&gt;Node38</title>
<path fill="none" stroke="#63b8ff" d="M830.28,-250.26C807,-244.29 781.38,-237.73 758.98,-231.99"/>
<polygon fill="#63b8ff" stroke="#63b8ff" points="829.12,-253.57 839.68,-252.66 830.86,-246.79 829.12,-253.57"/>
</g>
<!-- Node39 -->
<g id="node36" class="node">
<title>Node39</title>
<g id="a_node36"><a xlink:href="classQtCodeFileList.html#a439038865130d06b122e3bfa00f74262" target="_top" xlink:title=" ">
<polygon fill="white" stroke="#666666" points="565.5,-226 417.5,-226 417.5,-207 565.5,-207 565.5,-226"/>
<text text-anchor="middle" x="491.5" y="-214" font-family="Helvetica,sans-Serif" font-size="10.00">QtCodeFileList::updateFiles</text>
</a>
</g>
</g>
<!-- Node38&#45;&gt;Node39 -->
<g id="edge40" class="edge">
<title>Node38&#45;&gt;Node39</title>
<path fill="none" stroke="#63b8ff" d="M604.29,-216.5C591.36,-216.5 578.22,-216.5 565.71,-216.5"/>
<polygon fill="#63b8ff" stroke="#63b8ff" points="604.07,-220 614.07,-216.5 604.07,-213 604.07,-220"/>
</g>
<!-- Node41 -->
<g id="node38" class="node">
<title>Node41</title>
<g id="a_node38"><a xlink:href="classQtCodeFileTitleBar.html#a989adcb39999180d4934262b81ab5746" target="_top" xlink:title=" ">
<polygon fill="white" stroke="#666666" points="1352,-267.5 1244,-267.5 1244,-237.5 1352,-237.5 1352,-267.5"/>
<text text-anchor="start" x="1252" y="-255.5" font-family="Helvetica,sans-Serif" font-size="10.00">QtCodeFileTitleBar</text>
<text text-anchor="middle" x="1298" y="-244.5" font-family="Helvetica,sans-Serif" font-size="10.00">::updateFromOther</text>
</a>
</g>
</g>
<!-- Node40&#45;&gt;Node41 -->
<g id="edge42" class="edge">
<title>Node40&#45;&gt;Node41</title>
<path fill="none" stroke="#63b8ff" d="M1431.3,-252.5C1405.3,-252.5 1376.42,-252.5 1352.29,-252.5"/>
<polygon fill="#63b8ff" stroke="#63b8ff" points="1431.11,-256 1441.11,-252.5 1431.11,-249 1431.11,-256"/>
</g>
<!-- Node41&#45;&gt;Node26 -->
<g id="edge43" class="edge">
<title>Node41&#45;&gt;Node26</title>
<path fill="none" stroke="#63b8ff" d="M1232.42,-268.11C1211.21,-273.23 1187.66,-278.92 1166.5,-284.03"/>
<polygon fill="#63b8ff" stroke="#63b8ff" points="1233.23,-271.51 1242.12,-265.76 1231.58,-264.71 1233.23,-271.51"/>
</g>
<!-- Node42&#45;&gt;Node40 -->
<g id="edge50" class="edge">
<title>Node42&#45;&gt;Node40</title>
<path fill="none" stroke="#63b8ff" d="M1630.56,-221.91C1609.17,-227.12 1585.93,-232.78 1565.33,-237.8"/>
<polygon fill="#63b8ff" stroke="#63b8ff" points="1631.2,-225.35 1640.08,-219.59 1629.54,-218.55 1631.2,-225.35"/>
</g>
<!-- Node43 -->
<g id="node40" class="node">
<title>Node43</title>
<g id="a_node40"><a xlink:href="classQtCodeFileTitleBar.html#a5dc00e4ac9570ab615988286764f65e9" target="_top" xlink:title=" ">
<polygon fill="white" stroke="#666666" points="1557.5,-219.5 1450.5,-219.5 1450.5,-189.5 1557.5,-189.5 1557.5,-219.5"/>
<text text-anchor="start" x="1458.5" y="-207.5" font-family="Helvetica,sans-Serif" font-size="10.00">QtCodeFileTitleBar</text>
<text text-anchor="middle" x="1504" y="-196.5" font-family="Helvetica,sans-Serif" font-size="10.00">::setIsComplete</text>
</a>
</g>
</g>
<!-- Node42&#45;&gt;Node43 -->
<g id="edge45" class="edge">
<title>Node42&#45;&gt;Node43</title>
<path fill="none" stroke="#63b8ff" d="M1630.06,-204.5C1606.22,-204.5 1580.14,-204.5 1557.99,-204.5"/>
<polygon fill="#63b8ff" stroke="#63b8ff" points="1630.04,-208 1640.04,-204.5 1630.04,-201 1630.04,-208"/>
</g>
<!-- Node43&#45;&gt;Node14 -->
<g id="edge46" class="edge">
<title>Node43&#45;&gt;Node14</title>
<path fill="none" stroke="#63b8ff" d="M1439.58,-216.46C1431.55,-219.59 1423.78,-223.53 1417,-228.5 1400.51,-240.59 1326.54,-363.34 1304.94,-399.52"/>
<polygon fill="#63b8ff" stroke="#63b8ff" points="1440.48,-219.85 1448.8,-213.3 1438.2,-213.23 1440.48,-219.85"/>
</g>
<!-- Node43&#45;&gt;Node41 -->
<g id="edge49" class="edge">
<title>Node43&#45;&gt;Node41</title>
<path fill="none" stroke="#63b8ff" d="M1439.33,-219.48C1411.38,-226.06 1378.94,-233.69 1352.29,-239.96"/>
<polygon fill="#63b8ff" stroke="#63b8ff" points="1439.79,-222.97 1448.73,-217.27 1438.19,-216.15 1439.79,-222.97"/>
</g>
<!-- Node44 -->
<g id="node41" class="node">
<title>Node44</title>
<g id="a_node41"><a xlink:href="classQtCodeFile.html#a6333893be3c70db4896088a7c21485b7" target="_top" xlink:title=" ">
<polygon fill="white" stroke="#666666" points="975.5,-197 829.5,-197 829.5,-178 975.5,-178 975.5,-197"/>
<text text-anchor="middle" x="902.5" y="-185" font-family="Helvetica,sans-Serif" font-size="10.00">QtCodeFile::setIsComplete</text>
</a>
</g>
</g>
<!-- Node43&#45;&gt;Node44 -->
<g id="edge47" class="edge">
<title>Node43&#45;&gt;Node44</title>
<path fill="none" stroke="#63b8ff" d="M1438.56,-202.67C1325.91,-199.48 1093.96,-192.9 975.93,-189.55"/>
<polygon fill="#63b8ff" stroke="#63b8ff" points="1438.45,-206.17 1448.55,-202.96 1438.65,-199.17 1438.45,-206.17"/>
</g>
<!-- Node44&#45;&gt;Node33 -->
<g id="edge48" class="edge">
<title>Node44&#45;&gt;Node33</title>
<path fill="none" stroke="#63b8ff" d="M818,-185.58C694.5,-182.74 465.9,-177.49 355.46,-174.95"/>
<polygon fill="#63b8ff" stroke="#63b8ff" points="817.66,-189.07 827.74,-185.8 817.82,-182.08 817.66,-189.07"/>
</g>
<!-- Node45&#45;&gt;Node14 -->
<g id="edge54" class="edge">
<title>Node45&#45;&gt;Node14</title>
<path fill="none" stroke="#63b8ff" d="M1642.71,-271.54C1584.59,-290.66 1493.8,-321.77 1417,-353.5 1381.58,-368.13 1341.5,-387.85 1318.35,-399.56"/>
<polygon fill="#63b8ff" stroke="#63b8ff" points="1643.67,-274.9 1652.09,-268.46 1641.49,-268.25 1643.67,-274.9"/>
</g>
<!-- Node45&#45;&gt;Node40 -->
<g id="edge55" class="edge">
<title>Node45&#45;&gt;Node40</title>
<path fill="none" stroke="#63b8ff" d="M1630.27,-252.5C1608.96,-252.5 1585.84,-252.5 1565.33,-252.5"/>
<polygon fill="#63b8ff" stroke="#63b8ff" points="1630.04,-256 1640.04,-252.5 1630.04,-249 1630.04,-256"/>
</g>
<!-- Node46 -->
<g id="node43" class="node">
<title>Node46</title>
<g id="a_node43"><a xlink:href="classQtCodeFile.html#a85ae667e11617af4b3910c807eb30c87" target="_top" xlink:title=" ">
<polygon fill="white" stroke="#666666" points="1179,-162 1024,-162 1024,-143 1179,-143 1179,-162"/>
<text text-anchor="middle" x="1101.5" y="-150" font-family="Helvetica,sans-Serif" font-size="10.00">QtCodeFile::addCodeSnippet</text>
</a>
</g>
</g>
<!-- Node45&#45;&gt;Node46 -->
<g id="edge52" class="edge">
<title>Node45&#45;&gt;Node46</title>
<path fill="none" stroke="#63b8ff" d="M1631.86,-231.7C1630.19,-230.68 1628.57,-229.62 1627,-228.5 1605.27,-213.04 1614.5,-193.1 1591,-180.5 1521.94,-143.46 1298.69,-145.27 1179.37,-149.16"/>
<polygon fill="#63b8ff" stroke="#63b8ff" points="1630.01,-234.68 1640.48,-236.31 1633.32,-228.51 1630.01,-234.68"/>
</g>
<!-- Node46&#45;&gt;Node33 -->
<g id="edge53" class="edge">
<title>Node46&#45;&gt;Node33</title>
<path fill="none" stroke="#63b8ff" d="M1012.74,-154.78C848.51,-159.05 498.48,-168.15 355.41,-171.86"/>
<polygon fill="#63b8ff" stroke="#63b8ff" points="1012.34,-158.29 1022.24,-154.53 1012.16,-151.29 1012.34,-158.29"/>
</g>
<!-- Node47&#45;&gt;Node9 -->
<g id="edge57" class="edge">
<title>Node47&#45;&gt;Node9</title>
<path fill="none" stroke="#63b8ff" d="M1808.79,-136.61C1787.28,-141.72 1764.66,-147.09 1745.97,-151.53"/>
<polygon fill="#63b8ff" stroke="#63b8ff" points="1809.52,-140.03 1818.44,-134.31 1807.9,-133.22 1809.52,-140.03"/>
</g>
<!-- Node48 -->
<g id="node45" class="node">
<title>Node48</title>
<g id="a_node45"><a xlink:href="classQtGraphView.html#af5714c14b551133d2c387da391becb50" target="_top" xlink:title=" ">
<polygon fill="white" stroke="#666666" points="1776,-85 1630,-85 1630,-66 1776,-66 1776,-85"/>
<text text-anchor="middle" x="1703" y="-73" font-family="Helvetica,sans-Serif" font-size="10.00">QtGraphView::refreshView</text>
</a>
</g>
</g>
<!-- Node47&#45;&gt;Node48 -->
<g id="edge58" class="edge">
<title>Node47&#45;&gt;Node48</title>
<path fill="none" stroke="#63b8ff" d="M1808.79,-100.39C1787.28,-95.28 1764.66,-89.91 1745.97,-85.47"/>
<polygon fill="#63b8ff" stroke="#63b8ff" points="1807.9,-103.78 1818.44,-102.69 1809.52,-96.97 1807.9,-103.78"/>
</g>
<!-- Node49 -->
<g id="node46" class="node">
<title>Node49</title>
<g id="a_node46"><a xlink:href="classQtGraphView.html#a0e0e64b352f8e05561b94d64f3711a28" target="_top" xlink:title=" ">
<polygon fill="white" stroke="#666666" points="1778.5,-133.5 1627.5,-133.5 1627.5,-103.5 1778.5,-103.5 1778.5,-133.5"/>
<text text-anchor="start" x="1635.5" y="-121.5" font-family="Helvetica,sans-Serif" font-size="10.00">QtGraphView::switchToNew</text>
<text text-anchor="middle" x="1703" y="-110.5" font-family="Helvetica,sans-Serif" font-size="10.00">GraphData</text>
</a>
</g>
</g>
<!-- Node47&#45;&gt;Node49 -->
<g id="edge59" class="edge">
<title>Node47&#45;&gt;Node49</title>
<path fill="none" stroke="#63b8ff" d="M1803.13,-118.5C1795.02,-118.5 1786.82,-118.5 1778.79,-118.5"/>
<polygon fill="#63b8ff" stroke="#63b8ff" points="1802.99,-122 1812.99,-118.5 1802.99,-115 1802.99,-122"/>
</g>
<!-- Node50 -->
<g id="node47" class="node">
<title>Node50</title>
<g id="a_node47"><a xlink:href="classQtGraphView.html#a226a73962b96aed00b9cecab82c8dba1" target="_top" xlink:title=" ">
<polygon fill="white" stroke="#666666" points="1381,-95 1215,-95 1215,-76 1381,-76 1381,-95"/>
<text text-anchor="middle" x="1298" y="-83" font-family="Helvetica,sans-Serif" font-size="10.00">QtGraphView::createTransition</text>
</a>
</g>
</g>
<!-- Node49&#45;&gt;Node50 -->
<g id="edge60" class="edge">
<title>Node49&#45;&gt;Node50</title>
<path fill="none" stroke="#63b8ff" d="M1615.83,-111.44C1546.51,-105.77 1449.74,-97.84 1381.44,-92.25"/>
<polygon fill="#63b8ff" stroke="#63b8ff" points="1615.38,-114.92 1625.63,-112.25 1615.95,-107.94 1615.38,-114.92"/>
</g>
<!-- Node51 -->
<g id="node48" class="node">
<title>Node51</title>
<g id="a_node48"><a xlink:href="classQtGraphView.html#a71858975a5b07059726b0337d19fe296" target="_top" xlink:title=" ">
<polygon fill="white" stroke="#666666" points="1176.5,-95 1026.5,-95 1026.5,-76 1176.5,-76 1176.5,-95"/>
<text text-anchor="middle" x="1101.5" y="-83" font-family="Helvetica,sans-Serif" font-size="10.00">QtGraphView::rebuildGraph</text>
</a>
</g>
</g>
<!-- Node49&#45;&gt;Node51 -->
<g id="edge66" class="edge">
<title>Node49&#45;&gt;Node51</title>
<path fill="none" stroke="#63b8ff" d="M1615.88,-119.17C1518.39,-119.15 1354.93,-116.79 1215,-103.5 1195.6,-101.66 1174.48,-98.57 1155.83,-95.46"/>
<polygon fill="#63b8ff" stroke="#63b8ff" points="1615.63,-122.67 1625.63,-119.16 1615.63,-115.67 1615.63,-122.67"/>
</g>
<!-- Node52 -->
<g id="node49" class="node">
<title>Node52</title>
<g id="a_node49"><a xlink:href="classQtGraphView.html#a1c25190e97e9022d070d506c19d16f75" target="_top" xlink:title=" ">
<polygon fill="white" stroke="#666666" points="1591,-57 1417,-57 1417,-38 1591,-38 1591,-57"/>
<text text-anchor="middle" x="1504" y="-45" font-family="Helvetica,sans-Serif" font-size="10.00">QtGraphView::finishedTransition</text>
</a>
</g>
</g>
<!-- Node49&#45;&gt;Node52 -->
<g id="edge62" class="edge">
<title>Node49&#45;&gt;Node52</title>
<path fill="none" stroke="#63b8ff" d="M1640.06,-99.1C1635.6,-97.33 1631.2,-95.45 1627,-93.5 1610,-85.6 1608.19,-78.98 1591,-71.5 1577.92,-65.81 1563.14,-61.11 1549.56,-57.42"/>
<polygon fill="#63b8ff" stroke="#63b8ff" points="1638.55,-102.27 1649.15,-102.54 1641.03,-95.73 1638.55,-102.27"/>
</g>
<!-- Node50&#45;&gt;Node51 -->
<g id="edge61" class="edge">
<title>Node50&#45;&gt;Node51</title>
<path fill="none" stroke="#63b8ff" d="M1203.29,-85.5C1194.4,-85.5 1185.46,-85.5 1176.78,-85.5"/>
<polygon fill="#63b8ff" stroke="#63b8ff" points="1203,-89 1213,-85.5 1203,-82 1203,-89"/>
</g>
<!-- Node52&#45;&gt;Node50 -->
<g id="edge64" class="edge">
<title>Node52&#45;&gt;Node50</title>
<path fill="none" stroke="#63b8ff" d="M1438.26,-59.56C1410.66,-64.7 1378.84,-70.63 1352.59,-75.52"/>
<polygon fill="#63b8ff" stroke="#63b8ff" points="1438.72,-63.03 1447.91,-57.76 1437.44,-56.15 1438.72,-63.03"/>
</g>
<!-- Node52&#45;&gt;Node51 -->
<g id="edge65" class="edge">
<title>Node52&#45;&gt;Node51</title>
<path fill="none" stroke="#63b8ff" d="M1405.46,-51.47C1349.58,-54.36 1278.21,-59.1 1215,-66.5 1195.23,-68.82 1173.64,-72.24 1154.71,-75.55"/>
<polygon fill="#63b8ff" stroke="#63b8ff" points="1405.46,-54.98 1415.27,-50.98 1405.11,-47.99 1405.46,-54.98"/>
</g>
<!-- Node53 -->
<g id="node50" class="node">
<title>Node53</title>
<g id="a_node50"><a xlink:href="classQtGraphView.html#a22c7370507ab74241d6d1f7df1ffccbd" target="_top" xlink:title=" ">
<polygon fill="white" stroke="#666666" points="1373.5,-19 1222.5,-19 1222.5,0 1373.5,0 1373.5,-19"/>
<text text-anchor="middle" x="1298" y="-7" font-family="Helvetica,sans-Serif" font-size="10.00">QtGraphView::activateEdge</text>
</a>
</g>
</g>
<!-- Node52&#45;&gt;Node53 -->
<g id="edge63" class="edge">
<title>Node52&#45;&gt;Node53</title>
<path fill="none" stroke="#63b8ff" d="M1438.26,-35.44C1410.66,-30.3 1378.84,-24.37 1352.59,-19.48"/>
<polygon fill="#63b8ff" stroke="#63b8ff" points="1437.44,-38.85 1447.91,-37.24 1438.72,-31.97 1437.44,-38.85"/>
</g>
</g>
</svg>
