<?xml version="1.0" encoding="UTF-8" standalone="no"?>
<!DOCTYPE svg PUBLIC "-//W3C//DTD SVG 1.1//EN"
 "http://www.w3.org/Graphics/SVG/1.1/DTD/svg11.dtd">
<!-- Generated by graphviz version 7.1.0 (0)
 -->
<!-- Title: getNodeKindForReadableNodeKindString Pages: 1 -->
<svg width="564pt" height="64pt"
 viewBox="0.00 0.00 564.00 64.00" xmlns="http://www.w3.org/2000/svg" xmlns:xlink="http://www.w3.org/1999/xlink">
<g id="graph0" class="graph" transform="scale(1 1) rotate(0) translate(4 60)">
<title>getNodeKindForReadableNodeKindString</title>
<!-- Node1 -->
<g id="node1" class="node">
<title>Node1</title>
<g id="a_node1"><a xlink:title=" ">
<polygon fill="#999999" stroke="#666666" points="166,-42.5 0,-42.5 0,-12.5 166,-12.5 166,-42.5"/>
<text text-anchor="start" x="8" y="-30.5" font-family="Helvetica,sans-Serif" font-size="10.00">getNodeKindForReadableNode</text>
<text text-anchor="middle" x="83" y="-19.5" font-family="Helvetica,sans-Serif" font-size="10.00">KindString</text>
</a>
</g>
</g>
<!-- Node2 -->
<g id="node2" class="node">
<title>Node2</title>
<g id="a_node2"><a xlink:href="$NodeKind_8cpp.html#a8cc49cbfb5b2997a289eb071a82e82ad" xlink:title=" ">
<polygon fill="white" stroke="#666666" points="366,-56 202,-56 202,-37 366,-37 366,-56"/>
<text text-anchor="middle" x="284" y="-44" font-family="Helvetica,sans-Serif" font-size="10.00">getReadableNodeKindWString</text>
</a>
</g>
</g>
<!-- Node1&#45;&gt;Node2 -->
<g id="edge1" class="edge">
<title>Node1&#45;&gt;Node2</title>
<path fill="none" stroke="#63b8ff" d="M166.38,-35.37C174.3,-36.12 182.37,-36.89 190.38,-37.66"/>
<polygon fill="#63b8ff" stroke="#63b8ff" points="189.85,-41.12 200.14,-38.59 190.52,-34.15 189.85,-41.12"/>
</g>
<!-- Node4 -->
<g id="node4" class="node">
<title>Node4</title>
<g id="a_node4"><a xlink:href="$NodeKind_8cpp.html#a0d4b810fc5c357c1c5b1fa37e7a2271b" xlink:title=" ">
<polygon fill="white" stroke="#666666" points="327.5,-19 240.5,-19 240.5,0 327.5,0 327.5,-19"/>
<text text-anchor="middle" x="284" y="-7" font-family="Helvetica,sans-Serif" font-size="10.00">intToNodeKind</text>
</a>
</g>
</g>
<!-- Node1&#45;&gt;Node4 -->
<g id="edge3" class="edge">
<title>Node1&#45;&gt;Node4</title>
<path fill="none" stroke="#63b8ff" d="M166.38,-20.05C187.46,-18.14 209.6,-16.14 228.86,-14.4"/>
<polygon fill="#63b8ff" stroke="#63b8ff" points="228.99,-17.9 238.63,-13.51 228.36,-10.93 228.99,-17.9"/>
</g>
<!-- Node3 -->
<g id="node3" class="node">
<title>Node3</title>
<g id="a_node3"><a xlink:href="$NodeKind_8cpp.html#a1df24373c5d37e19daf04ca7f2621443" xlink:title=" ">
<polygon fill="white" stroke="#666666" points="556,-56 402,-56 402,-37 556,-37 556,-56"/>
<text text-anchor="middle" x="479" y="-44" font-family="Helvetica,sans-Serif" font-size="10.00">getReadableNodeKindString</text>
</a>
</g>
</g>
<!-- Node2&#45;&gt;Node3 -->
<g id="edge2" class="edge">
<title>Node2&#45;&gt;Node3</title>
<path fill="none" stroke="#63b8ff" d="M366.29,-46.5C374.27,-46.5 382.4,-46.5 390.44,-46.5"/>
<polygon fill="#63b8ff" stroke="#63b8ff" points="390.21,-50 400.21,-46.5 390.21,-43 390.21,-50"/>
</g>
</g>
</svg>
