<?xml version="1.0" encoding="UTF-8" standalone="no"?>
<!DOCTYPE svg PUBLIC "-//W3C//DTD SVG 1.1//EN"
 "http://www.w3.org/Graphics/SVG/1.1/DTD/svg11.dtd">
<!-- Generated by graphviz version 7.1.0 (0)
 -->
<!-- Title: /home/ahussein/Documents/sourceCode/Sourcetrail/src/src/lib/project/Project.h Pages: 1 -->
<svg width="3192pt" height="236pt"
 viewBox="0.00 0.00 3191.50 236.00" xmlns="http://www.w3.org/2000/svg" xmlns:xlink="http://www.w3.org/1999/xlink">
<g id="graph0" class="graph" transform="scale(1 1) rotate(0) translate(4 232)">
<title>/home/ahussein/Documents/sourceCode/Sourcetrail/src/src/lib/project/Project.h</title>
<!-- Node1 -->
<g id="node1" class="node">
<title>Node1</title>
<g id="a_node1"><a xlink:title=" ">
<polygon fill="#999999" stroke="#666666" points="1781.5,-228 1629.5,-228 1629.5,-187 1781.5,-187 1781.5,-228"/>
<text text-anchor="start" x="1637.5" y="-216" font-family="Helvetica,sans-Serif" font-size="10.00">/home/ahussein/Documents</text>
<text text-anchor="start" x="1637.5" y="-205" font-family="Helvetica,sans-Serif" font-size="10.00">/sourceCode/Sourcetrail</text>
<text text-anchor="middle" x="1705.5" y="-194" font-family="Helvetica,sans-Serif" font-size="10.00">/src/src/lib/project/Project.h</text>
</a>
</g>
</g>
<!-- Node2 -->
<g id="node2" class="node">
<title>Node2</title>
<g id="a_node2"><a xlink:href="$Application_8h.html" xlink:title=" ">
<polygon fill="white" stroke="#666666" points="1677.5,-145.5 1523.5,-145.5 1523.5,-104.5 1677.5,-104.5 1677.5,-145.5"/>
<text text-anchor="start" x="1531.5" y="-133.5" font-family="Helvetica,sans-Serif" font-size="10.00">/home/ahussein/Documents</text>
<text text-anchor="start" x="1531.5" y="-122.5" font-family="Helvetica,sans-Serif" font-size="10.00">/sourceCode/Sourcetrail</text>
<text text-anchor="middle" x="1600.5" y="-111.5" font-family="Helvetica,sans-Serif" font-size="10.00">/src/src/lib/app/Application.h</text>
</a>
</g>
</g>
<!-- Node1&#45;&gt;Node2 -->
<g id="edge1" class="edge">
<title>Node1&#45;&gt;Node2</title>
<path fill="none" stroke="#63b8ff" d="M1670.45,-179.63C1656.1,-168.62 1639.78,-156.12 1626.52,-145.95"/>
<polygon fill="#63b8ff" stroke="#63b8ff" points="1668.28,-182.37 1678.34,-185.68 1672.54,-176.82 1668.28,-182.37"/>
</g>
<!-- Node6 -->
<g id="node6" class="node">
<title>Node6</title>
<g id="a_node6"><a xlink:href="$ErrorController_8cpp.html" xlink:title=" ">
<polygon fill="white" stroke="#666666" points="173,-57.5 0,-57.5 0,-5.5 173,-5.5 173,-57.5"/>
<text text-anchor="start" x="8" y="-45.5" font-family="Helvetica,sans-Serif" font-size="10.00">/home/ahussein/Documents</text>
<text text-anchor="start" x="8" y="-34.5" font-family="Helvetica,sans-Serif" font-size="10.00">/sourceCode/Sourcetrail</text>
<text text-anchor="start" x="8" y="-23.5" font-family="Helvetica,sans-Serif" font-size="10.00">/src/src/lib/component/controller</text>
<text text-anchor="middle" x="86.5" y="-12.5" font-family="Helvetica,sans-Serif" font-size="10.00">/ErrorController.cpp</text>
</a>
</g>
</g>
<!-- Node1&#45;&gt;Node6 -->
<g id="edge19" class="edge">
<title>Node1&#45;&gt;Node6</title>
<path fill="none" stroke="#63b8ff" d="M1617.8,-207.06C1428.43,-207.19 967.53,-201.72 585.5,-151 403.33,-126.81 358.97,-110.7 181.5,-63 175.65,-61.43 169.62,-59.71 163.57,-57.93"/>
<polygon fill="#63b8ff" stroke="#63b8ff" points="1617.55,-210.56 1627.55,-207.04 1617.54,-203.56 1617.55,-210.56"/>
</g>
<!-- Node9 -->
<g id="node9" class="node">
<title>Node9</title>
<g id="a_node9"><a xlink:href="$UndoRedoController_8cpp.html" xlink:title=" ">
<polygon fill="white" stroke="#666666" points="364,-57.5 191,-57.5 191,-5.5 364,-5.5 364,-57.5"/>
<text text-anchor="start" x="199" y="-45.5" font-family="Helvetica,sans-Serif" font-size="10.00">/home/ahussein/Documents</text>
<text text-anchor="start" x="199" y="-34.5" font-family="Helvetica,sans-Serif" font-size="10.00">/sourceCode/Sourcetrail</text>
<text text-anchor="start" x="199" y="-23.5" font-family="Helvetica,sans-Serif" font-size="10.00">/src/src/lib/component/controller</text>
<text text-anchor="middle" x="277.5" y="-12.5" font-family="Helvetica,sans-Serif" font-size="10.00">/UndoRedoController.cpp</text>
</a>
</g>
</g>
<!-- Node1&#45;&gt;Node9 -->
<g id="edge20" class="edge">
<title>Node1&#45;&gt;Node9</title>
<path fill="none" stroke="#63b8ff" d="M1617.71,-203.12C1403.14,-193.55 835.84,-160.32 373.5,-63 366.74,-61.58 359.78,-59.87 352.85,-57.99"/>
<polygon fill="#63b8ff" stroke="#63b8ff" points="1617.54,-206.62 1627.68,-203.56 1617.84,-199.62 1617.54,-206.62"/>
</g>
<!-- Node13 -->
<g id="node13" class="node">
<title>Node13</title>
<g id="a_node13"><a xlink:href="$QtCodeFileTitleBar_8cpp.html" xlink:title=" ">
<polygon fill="white" stroke="#666666" points="2993.5,-57.5 2837.5,-57.5 2837.5,-5.5 2993.5,-5.5 2993.5,-57.5"/>
<text text-anchor="start" x="2845.5" y="-45.5" font-family="Helvetica,sans-Serif" font-size="10.00">/home/ahussein/Documents</text>
<text text-anchor="start" x="2845.5" y="-34.5" font-family="Helvetica,sans-Serif" font-size="10.00">/sourceCode/Sourcetrail</text>
<text text-anchor="start" x="2845.5" y="-23.5" font-family="Helvetica,sans-Serif" font-size="10.00">/src/src/lib_gui/qt/element</text>
<text text-anchor="middle" x="2915.5" y="-12.5" font-family="Helvetica,sans-Serif" font-size="10.00">/code/QtCodeFileTitleBar.cpp</text>
</a>
</g>
</g>
<!-- Node1&#45;&gt;Node13 -->
<g id="edge22" class="edge">
<title>Node1&#45;&gt;Node13</title>
<path fill="none" stroke="#63b8ff" d="M1703.07,-175.22C1703.05,-150.47 1707.61,-117.14 1729.5,-99 1776.54,-60.02 2768.45,-74.23 2828.5,-63 2835.42,-61.7 2842.54,-59.95 2849.57,-57.94"/>
<polygon fill="#63b8ff" stroke="#63b8ff" points="1699.57,-175.17 1703.36,-185.07 1706.57,-174.97 1699.57,-175.17"/>
</g>
<!-- Node14 -->
<g id="node14" class="node">
<title>Node14</title>
<g id="a_node14"><a xlink:href="$QtCodeFileTitleButton_8cpp.html" xlink:title=" ">
<polygon fill="white" stroke="#666666" points="3183.5,-57.5 3011.5,-57.5 3011.5,-5.5 3183.5,-5.5 3183.5,-57.5"/>
<text text-anchor="start" x="3019.5" y="-45.5" font-family="Helvetica,sans-Serif" font-size="10.00">/home/ahussein/Documents</text>
<text text-anchor="start" x="3019.5" y="-34.5" font-family="Helvetica,sans-Serif" font-size="10.00">/sourceCode/Sourcetrail</text>
<text text-anchor="start" x="3019.5" y="-23.5" font-family="Helvetica,sans-Serif" font-size="10.00">/src/src/lib_gui/qt/element</text>
<text text-anchor="middle" x="3097.5" y="-12.5" font-family="Helvetica,sans-Serif" font-size="10.00">/code/QtCodeFileTitleButton.cpp</text>
</a>
</g>
</g>
<!-- Node1&#45;&gt;Node14 -->
<g id="edge23" class="edge">
<title>Node1&#45;&gt;Node14</title>
<path fill="none" stroke="#63b8ff" d="M1719.52,-176.43C1733.9,-146.25 1755.16,-103.56 1762.5,-99 1821.03,-62.62 2934.57,-74.65 3002.5,-63 3010.01,-61.71 3017.75,-59.97 3025.41,-57.96"/>
<polygon fill="#63b8ff" stroke="#63b8ff" points="1716.52,-174.6 1715.41,-185.14 1722.85,-177.59 1716.52,-174.6"/>
</g>
<!-- Node20 -->
<g id="node20" class="node">
<title>Node20</title>
<g id="a_node20"><a xlink:href="$Project_8cpp.html" xlink:title=" ">
<polygon fill="white" stroke="#666666" points="1931.5,-145.5 1771.5,-145.5 1771.5,-104.5 1931.5,-104.5 1931.5,-145.5"/>
<text text-anchor="start" x="1779.5" y="-133.5" font-family="Helvetica,sans-Serif" font-size="10.00">/home/ahussein/Documents</text>
<text text-anchor="start" x="1779.5" y="-122.5" font-family="Helvetica,sans-Serif" font-size="10.00">/sourceCode/Sourcetrail</text>
<text text-anchor="middle" x="1851.5" y="-111.5" font-family="Helvetica,sans-Serif" font-size="10.00">/src/src/lib/project/Project.cpp</text>
</a>
</g>
</g>
<!-- Node1&#45;&gt;Node20 -->
<g id="edge21" class="edge">
<title>Node1&#45;&gt;Node20</title>
<path fill="none" stroke="#63b8ff" d="M1751.41,-181.19C1772.02,-169.82 1796,-156.6 1815.32,-145.95"/>
<polygon fill="#63b8ff" stroke="#63b8ff" points="1749.98,-177.98 1742.92,-185.87 1753.36,-184.11 1749.98,-177.98"/>
</g>
<!-- Node21 -->
<g id="node21" class="node">
<title>Node21</title>
<g id="a_node21"><a xlink:href="$QtDialogView_8cpp.html" xlink:title=" ">
<polygon fill="white" stroke="#666666" points="2101.5,-151 1949.5,-151 1949.5,-99 2101.5,-99 2101.5,-151"/>
<text text-anchor="start" x="1957.5" y="-139" font-family="Helvetica,sans-Serif" font-size="10.00">/home/ahussein/Documents</text>
<text text-anchor="start" x="1957.5" y="-128" font-family="Helvetica,sans-Serif" font-size="10.00">/sourceCode/Sourcetrail</text>
<text text-anchor="start" x="1957.5" y="-117" font-family="Helvetica,sans-Serif" font-size="10.00">/src/src/lib_gui/qt/view</text>
<text text-anchor="middle" x="2025.5" y="-106" font-family="Helvetica,sans-Serif" font-size="10.00">/QtDialogView.cpp</text>
</a>
</g>
</g>
<!-- Node1&#45;&gt;Node21 -->
<g id="edge24" class="edge">
<title>Node1&#45;&gt;Node21</title>
<path fill="none" stroke="#63b8ff" d="M1793,-187.02C1837.34,-176.85 1891.94,-163.87 1940.5,-151 1943.33,-150.25 1946.2,-149.48 1949.1,-148.68"/>
<polygon fill="#63b8ff" stroke="#63b8ff" points="1792.41,-183.57 1783.44,-189.21 1793.97,-190.39 1792.41,-183.57"/>
</g>
<!-- Node3 -->
<g id="node3" class="node">
<title>Node3</title>
<g id="a_node3"><a xlink:href="$Application_8cpp.html" xlink:title=" ">
<polygon fill="white" stroke="#666666" points="718,-52 553,-52 553,-11 718,-11 718,-52"/>
<text text-anchor="start" x="561" y="-40" font-family="Helvetica,sans-Serif" font-size="10.00">/home/ahussein/Documents</text>
<text text-anchor="start" x="561" y="-29" font-family="Helvetica,sans-Serif" font-size="10.00">/sourceCode/Sourcetrail</text>
<text text-anchor="middle" x="635.5" y="-18" font-family="Helvetica,sans-Serif" font-size="10.00">/src/src/lib/app/Application.cpp</text>
</a>
</g>
</g>
<!-- Node2&#45;&gt;Node3 -->
<g id="edge2" class="edge">
<title>Node2&#45;&gt;Node3</title>
<path fill="none" stroke="#63b8ff" d="M1511.6,-119.08C1304.55,-107.43 801.99,-78.03 726.5,-63 713.59,-60.43 699.98,-56.54 687.34,-52.39"/>
<polygon fill="#63b8ff" stroke="#63b8ff" points="1511.33,-122.57 1521.51,-119.63 1511.72,-115.58 1511.33,-122.57"/>
</g>
<!-- Node4 -->
<g id="node4" class="node">
<title>Node4</title>
<g id="a_node4"><a xlink:href="$BookmarkController_8cpp.html" xlink:title=" ">
<polygon fill="white" stroke="#666666" points="909,-57.5 736,-57.5 736,-5.5 909,-5.5 909,-57.5"/>
<text text-anchor="start" x="744" y="-45.5" font-family="Helvetica,sans-Serif" font-size="10.00">/home/ahussein/Documents</text>
<text text-anchor="start" x="744" y="-34.5" font-family="Helvetica,sans-Serif" font-size="10.00">/sourceCode/Sourcetrail</text>
<text text-anchor="start" x="744" y="-23.5" font-family="Helvetica,sans-Serif" font-size="10.00">/src/src/lib/component/controller</text>
<text text-anchor="middle" x="822.5" y="-12.5" font-family="Helvetica,sans-Serif" font-size="10.00">/BookmarkController.cpp</text>
</a>
</g>
</g>
<!-- Node2&#45;&gt;Node4 -->
<g id="edge3" class="edge">
<title>Node2&#45;&gt;Node4</title>
<path fill="none" stroke="#63b8ff" d="M1512.11,-118.55C1354,-108.4 1028.88,-85.56 917.5,-63 910.62,-61.61 903.55,-59.89 896.5,-57.99"/>
<polygon fill="#63b8ff" stroke="#63b8ff" points="1511.49,-122.02 1521.69,-119.16 1511.93,-115.03 1511.49,-122.02"/>
</g>
<!-- Node5 -->
<g id="node5" class="node">
<title>Node5</title>
<g id="a_node5"><a xlink:href="$CodeController_8cpp.html" xlink:title=" ">
<polygon fill="white" stroke="#666666" points="1100,-57.5 927,-57.5 927,-5.5 1100,-5.5 1100,-57.5"/>
<text text-anchor="start" x="935" y="-45.5" font-family="Helvetica,sans-Serif" font-size="10.00">/home/ahussein/Documents</text>
<text text-anchor="start" x="935" y="-34.5" font-family="Helvetica,sans-Serif" font-size="10.00">/sourceCode/Sourcetrail</text>
<text text-anchor="start" x="935" y="-23.5" font-family="Helvetica,sans-Serif" font-size="10.00">/src/src/lib/component/controller</text>
<text text-anchor="middle" x="1013.5" y="-12.5" font-family="Helvetica,sans-Serif" font-size="10.00">/CodeController.cpp</text>
</a>
</g>
</g>
<!-- Node2&#45;&gt;Node5 -->
<g id="edge4" class="edge">
<title>Node2&#45;&gt;Node5</title>
<path fill="none" stroke="#63b8ff" d="M1511.57,-118.01C1412.38,-110.17 1247.56,-93.66 1108.5,-63 1101.9,-61.55 1095.11,-59.83 1088.34,-57.96"/>
<polygon fill="#63b8ff" stroke="#63b8ff" points="1511.29,-121.5 1521.53,-118.79 1511.84,-114.52 1511.29,-121.5"/>
</g>
<!-- Node2&#45;&gt;Node6 -->
<g id="edge5" class="edge">
<title>Node2&#45;&gt;Node6</title>
<path fill="none" stroke="#63b8ff" d="M1511.79,-123.29C1242.75,-120.63 438.75,-108.96 181.5,-63 174.17,-61.69 166.62,-59.96 159.13,-57.99"/>
<polygon fill="#63b8ff" stroke="#63b8ff" points="1511.5,-126.78 1521.53,-123.38 1511.57,-119.78 1511.5,-126.78"/>
</g>
<!-- Node7 -->
<g id="node7" class="node">
<title>Node7</title>
<g id="a_node7"><a xlink:href="$GraphController_8cpp.html" xlink:title=" ">
<polygon fill="white" stroke="#666666" points="1291,-57.5 1118,-57.5 1118,-5.5 1291,-5.5 1291,-57.5"/>
<text text-anchor="start" x="1126" y="-45.5" font-family="Helvetica,sans-Serif" font-size="10.00">/home/ahussein/Documents</text>
<text text-anchor="start" x="1126" y="-34.5" font-family="Helvetica,sans-Serif" font-size="10.00">/sourceCode/Sourcetrail</text>
<text text-anchor="start" x="1126" y="-23.5" font-family="Helvetica,sans-Serif" font-size="10.00">/src/src/lib/component/controller</text>
<text text-anchor="middle" x="1204.5" y="-12.5" font-family="Helvetica,sans-Serif" font-size="10.00">/GraphController.cpp</text>
</a>
</g>
</g>
<!-- Node2&#45;&gt;Node7 -->
<g id="edge6" class="edge">
<title>Node2&#45;&gt;Node7</title>
<path fill="none" stroke="#63b8ff" d="M1512.25,-108.78C1451.94,-97.73 1370.41,-81.51 1299.5,-63 1293.55,-61.45 1287.42,-59.74 1281.28,-57.95"/>
<polygon fill="#63b8ff" stroke="#63b8ff" points="1511.3,-112.16 1521.77,-110.51 1512.56,-105.28 1511.3,-112.16"/>
</g>
<!-- Node8 -->
<g id="node8" class="node">
<title>Node8</title>
<g id="a_node8"><a xlink:href="$TabsController_8cpp.html" xlink:title=" ">
<polygon fill="white" stroke="#666666" points="1482,-57.5 1309,-57.5 1309,-5.5 1482,-5.5 1482,-57.5"/>
<text text-anchor="start" x="1317" y="-45.5" font-family="Helvetica,sans-Serif" font-size="10.00">/home/ahussein/Documents</text>
<text text-anchor="start" x="1317" y="-34.5" font-family="Helvetica,sans-Serif" font-size="10.00">/sourceCode/Sourcetrail</text>
<text text-anchor="start" x="1317" y="-23.5" font-family="Helvetica,sans-Serif" font-size="10.00">/src/src/lib/component/controller</text>
<text text-anchor="middle" x="1395.5" y="-12.5" font-family="Helvetica,sans-Serif" font-size="10.00">/TabsController.cpp</text>
</a>
</g>
</g>
<!-- Node2&#45;&gt;Node8 -->
<g id="edge7" class="edge">
<title>Node2&#45;&gt;Node8</title>
<path fill="none" stroke="#63b8ff" d="M1545.45,-99.43C1516.61,-86.56 1481.34,-70.81 1452.25,-57.83"/>
<polygon fill="#63b8ff" stroke="#63b8ff" points="1543.82,-102.54 1554.38,-103.42 1546.68,-96.14 1543.82,-102.54"/>
</g>
<!-- Node2&#45;&gt;Node9 -->
<g id="edge8" class="edge">
<title>Node2&#45;&gt;Node9</title>
<path fill="none" stroke="#63b8ff" d="M1512.06,-118.59C1424.37,-113.3 1286.18,-105.16 1166.5,-99 814.16,-80.85 720.83,-124.95 373.5,-63 366.1,-61.68 358.47,-59.94 350.91,-57.97"/>
<polygon fill="#63b8ff" stroke="#63b8ff" points="1511.59,-122.07 1521.78,-119.18 1512.01,-115.08 1511.59,-122.07"/>
</g>
<!-- Node10 -->
<g id="node10" class="node">
<title>Node10</title>
<g id="a_node10"><a xlink:href="$TaskCleanStorage_8cpp.html" xlink:title=" ">
<polygon fill="white" stroke="#666666" points="1701,-52 1500,-52 1500,-11 1701,-11 1701,-52"/>
<text text-anchor="start" x="1508" y="-40" font-family="Helvetica,sans-Serif" font-size="10.00">/home/ahussein/Documents</text>
<text text-anchor="start" x="1508" y="-29" font-family="Helvetica,sans-Serif" font-size="10.00">/sourceCode/Sourcetrail</text>
<text text-anchor="middle" x="1600.5" y="-18" font-family="Helvetica,sans-Serif" font-size="10.00">/src/src/lib/data/TaskCleanStorage.cpp</text>
</a>
</g>
</g>
<!-- Node2&#45;&gt;Node10 -->
<g id="edge9" class="edge">
<title>Node2&#45;&gt;Node10</title>
<path fill="none" stroke="#63b8ff" d="M1600.5,-92.96C1600.5,-79.51 1600.5,-64.18 1600.5,-52.32"/>
<polygon fill="#63b8ff" stroke="#63b8ff" points="1597,-92.63 1600.5,-102.63 1604,-92.63 1597,-92.63"/>
</g>
<!-- Node11 -->
<g id="node11" class="node">
<title>Node11</title>
<g id="a_node11"><a xlink:href="$SqliteBookmarkStorage_8cpp.html" xlink:title=" ">
<polygon fill="white" stroke="#666666" points="1904,-57.5 1719,-57.5 1719,-5.5 1904,-5.5 1904,-57.5"/>
<text text-anchor="start" x="1727" y="-45.5" font-family="Helvetica,sans-Serif" font-size="10.00">/home/ahussein/Documents</text>
<text text-anchor="start" x="1727" y="-34.5" font-family="Helvetica,sans-Serif" font-size="10.00">/sourceCode/Sourcetrail</text>
<text text-anchor="start" x="1727" y="-23.5" font-family="Helvetica,sans-Serif" font-size="10.00">/src/src/lib/data/storage</text>
<text text-anchor="middle" x="1811.5" y="-12.5" font-family="Helvetica,sans-Serif" font-size="10.00">/sqlite/SqliteBookmarkStorage.cpp</text>
</a>
</g>
</g>
<!-- Node2&#45;&gt;Node11 -->
<g id="edge10" class="edge">
<title>Node2&#45;&gt;Node11</title>
<path fill="none" stroke="#63b8ff" d="M1656.77,-99.6C1686.52,-86.7 1723.02,-70.87 1753.09,-57.83"/>
<polygon fill="#63b8ff" stroke="#63b8ff" points="1655.71,-96.24 1647.93,-103.43 1658.5,-102.66 1655.71,-96.24"/>
</g>
<!-- Node12 -->
<g id="node12" class="node">
<title>Node12</title>
<g id="a_node12"><a xlink:href="$includesWindows_8h.html" xlink:title=" ">
<polygon fill="white" stroke="#666666" points="2081,-57.5 1922,-57.5 1922,-5.5 2081,-5.5 2081,-57.5"/>
<text text-anchor="start" x="1930" y="-45.5" font-family="Helvetica,sans-Serif" font-size="10.00">/home/ahussein/Documents</text>
<text text-anchor="start" x="1930" y="-34.5" font-family="Helvetica,sans-Serif" font-size="10.00">/sourceCode/Sourcetrail</text>
<text text-anchor="start" x="1930" y="-23.5" font-family="Helvetica,sans-Serif" font-size="10.00">/src/src/lib_gui/platform</text>
<text text-anchor="middle" x="2001.5" y="-12.5" font-family="Helvetica,sans-Serif" font-size="10.00">_includes/includesWindows.h</text>
</a>
</g>
</g>
<!-- Node2&#45;&gt;Node12 -->
<g id="edge11" class="edge">
<title>Node2&#45;&gt;Node12</title>
<path fill="none" stroke="#63b8ff" d="M1680.77,-101.44C1684.39,-100.59 1687.98,-99.77 1691.5,-99 1789.17,-77.73 1816.58,-87.46 1913.5,-63 1919.46,-61.5 1925.59,-59.77 1931.7,-57.91"/>
<polygon fill="#63b8ff" stroke="#63b8ff" points="1680.22,-97.98 1671.34,-103.76 1681.88,-104.78 1680.22,-97.98"/>
</g>
<!-- Node2&#45;&gt;Node13 -->
<g id="edge12" class="edge">
<title>Node2&#45;&gt;Node13</title>
<path fill="none" stroke="#63b8ff" d="M1676.65,-101.67C1681.65,-100.64 1686.63,-99.74 1691.5,-99 2191.42,-23.51 2331.49,-155.71 2828.5,-63 2835.42,-61.71 2842.54,-59.96 2849.57,-57.95"/>
<polygon fill="#63b8ff" stroke="#63b8ff" points="1676.19,-98.19 1667.19,-103.77 1677.71,-105.02 1676.19,-98.19"/>
</g>
<!-- Node2&#45;&gt;Node14 -->
<g id="edge13" class="edge">
<title>Node2&#45;&gt;Node14</title>
<path fill="none" stroke="#63b8ff" d="M1689.16,-104.85C1702.62,-102.51 1716.39,-100.45 1729.5,-99 2010.8,-67.98 2723.55,-110.73 3002.5,-63 3010.01,-61.71 3017.75,-59.97 3025.41,-57.96"/>
<polygon fill="#63b8ff" stroke="#63b8ff" points="1688.66,-101.38 1679.44,-106.6 1689.9,-108.27 1688.66,-101.38"/>
</g>
<!-- Node15 -->
<g id="node15" class="node">
<title>Node15</title>
<g id="a_node15"><a xlink:href="$QtProjectWizard_8cpp.html" xlink:title=" ">
<polygon fill="white" stroke="#666666" points="2255.5,-57.5 2099.5,-57.5 2099.5,-5.5 2255.5,-5.5 2255.5,-57.5"/>
<text text-anchor="start" x="2107.5" y="-45.5" font-family="Helvetica,sans-Serif" font-size="10.00">/home/ahussein/Documents</text>
<text text-anchor="start" x="2107.5" y="-34.5" font-family="Helvetica,sans-Serif" font-size="10.00">/sourceCode/Sourcetrail</text>
<text text-anchor="start" x="2107.5" y="-23.5" font-family="Helvetica,sans-Serif" font-size="10.00">/src/src/lib_gui/qt/project</text>
<text text-anchor="middle" x="2177.5" y="-12.5" font-family="Helvetica,sans-Serif" font-size="10.00">_wizard/QtProjectWizard.cpp</text>
</a>
</g>
</g>
<!-- Node2&#45;&gt;Node15 -->
<g id="edge14" class="edge">
<title>Node2&#45;&gt;Node15</title>
<path fill="none" stroke="#63b8ff" d="M1678.97,-101.5C1683.19,-100.59 1687.39,-99.74 1691.5,-99 1866.71,-67.29 1916.49,-100.74 2090.5,-63 2096.91,-61.61 2103.5,-59.88 2110.05,-57.96"/>
<polygon fill="#63b8ff" stroke="#63b8ff" points="1678.21,-98.09 1669.25,-103.74 1679.78,-104.91 1678.21,-98.09"/>
</g>
<!-- Node16 -->
<g id="node16" class="node">
<title>Node16</title>
<g id="a_node16"><a xlink:href="$QtProjectWizardContentPathsHeaderSearch_8cpp.html" xlink:title=" ">
<polygon fill="white" stroke="#666666" points="2479.5,-63 2273.5,-63 2273.5,0 2479.5,0 2479.5,-63"/>
<text text-anchor="start" x="2281.5" y="-51" font-family="Helvetica,sans-Serif" font-size="10.00">/home/ahussein/Documents</text>
<text text-anchor="start" x="2281.5" y="-40" font-family="Helvetica,sans-Serif" font-size="10.00">/sourceCode/Sourcetrail</text>
<text text-anchor="start" x="2281.5" y="-29" font-family="Helvetica,sans-Serif" font-size="10.00">/src/src/lib_gui/qt/project</text>
<text text-anchor="start" x="2281.5" y="-18" font-family="Helvetica,sans-Serif" font-size="10.00">_wizard/content/paths/QtProjectWizard</text>
<text text-anchor="middle" x="2376.5" y="-7" font-family="Helvetica,sans-Serif" font-size="10.00">ContentPathsHeaderSearch.cpp</text>
</a>
</g>
</g>
<!-- Node2&#45;&gt;Node16 -->
<g id="edge15" class="edge">
<title>Node2&#45;&gt;Node16</title>
<path fill="none" stroke="#63b8ff" d="M1677.64,-101.64C1682.31,-100.65 1686.95,-99.76 1691.5,-99 1943.19,-56.98 2012.77,-104.74 2264.5,-63 2267.38,-62.52 2270.3,-62 2273.23,-61.44"/>
<polygon fill="#63b8ff" stroke="#63b8ff" points="1677.2,-98.15 1668.22,-103.77 1678.75,-104.98 1677.2,-98.15"/>
</g>
<!-- Node17 -->
<g id="node17" class="node">
<title>Node17</title>
<g id="a_node17"><a xlink:href="$QtTabsView_8cpp.html" xlink:title=" ">
<polygon fill="white" stroke="#666666" points="2649.5,-57.5 2497.5,-57.5 2497.5,-5.5 2649.5,-5.5 2649.5,-57.5"/>
<text text-anchor="start" x="2505.5" y="-45.5" font-family="Helvetica,sans-Serif" font-size="10.00">/home/ahussein/Documents</text>
<text text-anchor="start" x="2505.5" y="-34.5" font-family="Helvetica,sans-Serif" font-size="10.00">/sourceCode/Sourcetrail</text>
<text text-anchor="start" x="2505.5" y="-23.5" font-family="Helvetica,sans-Serif" font-size="10.00">/src/src/lib_gui/qt/view</text>
<text text-anchor="middle" x="2573.5" y="-12.5" font-family="Helvetica,sans-Serif" font-size="10.00">/QtTabsView.cpp</text>
</a>
</g>
</g>
<!-- Node2&#45;&gt;Node17 -->
<g id="edge16" class="edge">
<title>Node2&#45;&gt;Node17</title>
<path fill="none" stroke="#63b8ff" d="M1677.35,-101.61C1682.11,-100.62 1686.86,-99.73 1691.5,-99 2041.74,-43.69 2140.62,-131.65 2488.5,-63 2495.11,-61.69 2501.9,-59.97 2508.63,-58"/>
<polygon fill="#63b8ff" stroke="#63b8ff" points="1676.7,-98.16 1667.7,-103.76 1678.23,-105 1676.7,-98.16"/>
</g>
<!-- Node18 -->
<g id="node18" class="node">
<title>Node18</title>
<g id="a_node18"><a xlink:href="$QtMainWindow_8cpp.html" xlink:title=" ">
<polygon fill="white" stroke="#666666" points="2819.5,-57.5 2667.5,-57.5 2667.5,-5.5 2819.5,-5.5 2819.5,-57.5"/>
<text text-anchor="start" x="2675.5" y="-45.5" font-family="Helvetica,sans-Serif" font-size="10.00">/home/ahussein/Documents</text>
<text text-anchor="start" x="2675.5" y="-34.5" font-family="Helvetica,sans-Serif" font-size="10.00">/sourceCode/Sourcetrail</text>
<text text-anchor="start" x="2675.5" y="-23.5" font-family="Helvetica,sans-Serif" font-size="10.00">/src/src/lib_gui/qt/window</text>
<text text-anchor="middle" x="2743.5" y="-12.5" font-family="Helvetica,sans-Serif" font-size="10.00">/QtMainWindow.cpp</text>
</a>
</g>
</g>
<!-- Node2&#45;&gt;Node18 -->
<g id="edge17" class="edge">
<title>Node2&#45;&gt;Node18</title>
<path fill="none" stroke="#63b8ff" d="M1677.34,-101.56C1682.11,-100.58 1686.85,-99.71 1691.5,-99 2116.57,-33.6 2236.23,-144.59 2658.5,-63 2665.27,-61.69 2672.23,-59.93 2679.1,-57.91"/>
<polygon fill="#63b8ff" stroke="#63b8ff" points="1676.7,-98.12 1667.69,-103.7 1678.21,-104.95 1676.7,-98.12"/>
</g>
<!-- Node19 -->
<g id="node19" class="node">
<title>Node19</title>
<g id="a_node19"><a xlink:href="$QtPreferencesWindow_8cpp.html" xlink:title=" ">
<polygon fill="white" stroke="#666666" points="534.5,-57.5 382.5,-57.5 382.5,-5.5 534.5,-5.5 534.5,-57.5"/>
<text text-anchor="start" x="390.5" y="-45.5" font-family="Helvetica,sans-Serif" font-size="10.00">/home/ahussein/Documents</text>
<text text-anchor="start" x="390.5" y="-34.5" font-family="Helvetica,sans-Serif" font-size="10.00">/sourceCode/Sourcetrail</text>
<text text-anchor="start" x="390.5" y="-23.5" font-family="Helvetica,sans-Serif" font-size="10.00">/src/src/lib_gui/qt/window</text>
<text text-anchor="middle" x="458.5" y="-12.5" font-family="Helvetica,sans-Serif" font-size="10.00">/QtPreferencesWindow.cpp</text>
</a>
</g>
</g>
<!-- Node2&#45;&gt;Node19 -->
<g id="edge18" class="edge">
<title>Node2&#45;&gt;Node19</title>
<path fill="none" stroke="#63b8ff" d="M1511.88,-118.9C1257.69,-104.25 544.24,-63.15 543.5,-63 536.89,-61.65 530.11,-59.9 523.39,-57.91"/>
<polygon fill="#63b8ff" stroke="#63b8ff" points="1511.57,-122.38 1521.76,-119.46 1511.97,-115.4 1511.57,-122.38"/>
</g>
</g>
</svg>
