<?xml version="1.0" encoding="UTF-8" standalone="no"?>
<!DOCTYPE svg PUBLIC "-//W3C//DTD SVG 1.1//EN"
 "http://www.w3.org/Graphics/SVG/1.1/DTD/svg11.dtd">
<!-- Generated by graphviz version 7.1.0 (0)
 -->
<!-- Title: /home/ahussein/Documents/sourceCode/Sourcetrail/src/src/lib_gui/qt/view/QtCodeView.h Pages: 1 -->
<svg width="1248pt" height="401pt"
 viewBox="0.00 0.00 1247.74 401.00" xmlns="http://www.w3.org/2000/svg" xmlns:xlink="http://www.w3.org/1999/xlink">
<g id="graph0" class="graph" transform="scale(1 1) rotate(0) translate(4 397)">
<title>/home/ahussein/Documents/sourceCode/Sourcetrail/src/src/lib_gui/qt/view/QtCodeView.h</title>
<!-- Node1 -->
<g id="node1" class="node">
<title>Node1</title>
<g id="a_node1"><a xlink:title=" ">
<polygon fill="#999999" stroke="#666666" points="763.74,-393 611.74,-393 611.74,-341 763.74,-341 763.74,-393"/>
<text text-anchor="start" x="619.74" y="-381" font-family="Helvetica,sans-Serif" font-size="10.00">/home/ahussein/Documents</text>
<text text-anchor="start" x="619.74" y="-370" font-family="Helvetica,sans-Serif" font-size="10.00">/sourceCode/Sourcetrail</text>
<text text-anchor="start" x="619.74" y="-359" font-family="Helvetica,sans-Serif" font-size="10.00">/src/src/lib_gui/qt/view</text>
<text text-anchor="middle" x="687.74" y="-348" font-family="Helvetica,sans-Serif" font-size="10.00">/QtCodeView.h</text>
</a>
</g>
</g>
<!-- Node2 -->
<g id="node2" class="node">
<title>Node2</title>
<g id="a_node2"><a xlink:href="$CodeView_8h.html" xlink:title=" ">
<polygon fill="white" stroke="#666666" points="374.74,-250 300.74,-250 300.74,-231 374.74,-231 374.74,-250"/>
<text text-anchor="middle" x="337.74" y="-238" font-family="Helvetica,sans-Serif" font-size="10.00">CodeView.h</text>
</a>
</g>
</g>
<!-- Node1&#45;&gt;Node2 -->
<g id="edge1" class="edge">
<title>Node1&#45;&gt;Node2</title>
<path fill="none" stroke="#63b8ff" d="M616.06,-340.51C542.19,-314.23 430.05,-274.34 373.3,-254.15"/>
<polygon fill="#63b8ff" stroke="#63b8ff" points="374.74,-250.95 364.14,-250.89 372.39,-257.54 374.74,-250.95"/>
</g>
<!-- Node20 -->
<g id="node20" class="node">
<title>Node20</title>
<g id="a_node20"><a xlink:href="$QtThreadedFunctor_8h.html" xlink:title=" ">
<polygon fill="white" stroke="#666666" points="1018.24,-305 899.24,-305 899.24,-286 1018.24,-286 1018.24,-305"/>
<text text-anchor="middle" x="958.74" y="-293" font-family="Helvetica,sans-Serif" font-size="10.00">QtThreadedFunctor.h</text>
</a>
</g>
</g>
<!-- Node1&#45;&gt;Node20 -->
<g id="edge30" class="edge">
<title>Node1&#45;&gt;Node20</title>
<path fill="none" stroke="#63b8ff" d="M763.94,-346.46C811.88,-334.16 872.15,-318.7 912.86,-308.27"/>
<polygon fill="#63b8ff" stroke="#63b8ff" points="913.51,-311.71 922.33,-305.84 911.77,-304.93 913.51,-311.71"/>
</g>
<!-- Node3 -->
<g id="node3" class="node">
<title>Node3</title>
<g id="a_node3"><a xlink:title=" ">
<polygon fill="#e0e0e0" stroke="#999999" points="254.74,-24.5 196.74,-24.5 196.74,-5.5 254.74,-5.5 254.74,-24.5"/>
<text text-anchor="middle" x="225.74" y="-12.5" font-family="Helvetica,sans-Serif" font-size="10.00">memory</text>
</a>
</g>
</g>
<!-- Node2&#45;&gt;Node3 -->
<g id="edge2" class="edge">
<title>Node2&#45;&gt;Node3</title>
<path fill="none" stroke="#63b8ff" d="M300.43,-239.99C225.51,-240.08 60.92,-235.56 25.74,-195 -11.86,-151.66 -6.06,-110.02 30.74,-66 40.71,-54.07 131.03,-34.57 185.18,-23.78"/>
<polygon fill="#63b8ff" stroke="#63b8ff" points="185.86,-27.22 194.99,-21.85 184.5,-20.35 185.86,-27.22"/>
</g>
<!-- Node4 -->
<g id="node4" class="node">
<title>Node4</title>
<g id="a_node4"><a xlink:href="$CodeScrollParams_8h.html" xlink:title=" ">
<polygon fill="white" stroke="#666666" points="543.74,-140 429.74,-140 429.74,-121 543.74,-121 543.74,-140"/>
<text text-anchor="middle" x="486.74" y="-128" font-family="Helvetica,sans-Serif" font-size="10.00">CodeScrollParams.h</text>
</a>
</g>
</g>
<!-- Node2&#45;&gt;Node4 -->
<g id="edge3" class="edge">
<title>Node2&#45;&gt;Node4</title>
<path fill="none" stroke="#63b8ff" d="M349.93,-230.66C375.14,-212.39 433.3,-170.23 465.06,-147.21"/>
<polygon fill="#63b8ff" stroke="#63b8ff" points="467.11,-150.05 473.15,-141.35 463,-144.38 467.11,-150.05"/>
</g>
<!-- Node10 -->
<g id="node10" class="node">
<title>Node10</title>
<g id="a_node10"><a xlink:href="$CodeSnippetParams_8h.html" xlink:title=" ">
<polygon fill="white" stroke="#666666" points="159.74,-140 35.74,-140 35.74,-121 159.74,-121 159.74,-140"/>
<text text-anchor="middle" x="97.74" y="-128" font-family="Helvetica,sans-Serif" font-size="10.00">CodeSnippetParams.h</text>
</a>
</g>
</g>
<!-- Node2&#45;&gt;Node10 -->
<g id="edge10" class="edge">
<title>Node2&#45;&gt;Node10</title>
<path fill="none" stroke="#63b8ff" d="M333.82,-230.54C327.25,-216.58 312.62,-189.82 291.74,-176 271.57,-162.65 215.47,-150.6 168.75,-142.41"/>
<polygon fill="#63b8ff" stroke="#63b8ff" points="169.35,-138.97 158.9,-140.73 168.17,-145.87 169.35,-138.97"/>
</g>
<!-- Node13 -->
<g id="node13" class="node">
<title>Node13</title>
<g id="a_node13"><a xlink:href="$ErrorInfo_8h.html" xlink:title=" ">
<polygon fill="white" stroke="#666666" points="594.74,-195 526.74,-195 526.74,-176 594.74,-176 594.74,-195"/>
<text text-anchor="middle" x="560.74" y="-183" font-family="Helvetica,sans-Serif" font-size="10.00">ErrorInfo.h</text>
</a>
</g>
</g>
<!-- Node2&#45;&gt;Node13 -->
<g id="edge15" class="edge">
<title>Node2&#45;&gt;Node13</title>
<path fill="none" stroke="#63b8ff" d="M375.06,-230.63C413.71,-221.44 474.11,-207.09 515.46,-197.26"/>
<polygon fill="#63b8ff" stroke="#63b8ff" points="516.19,-200.68 525.11,-194.97 514.57,-193.87 516.19,-200.68"/>
</g>
<!-- Node15 -->
<g id="node15" class="node">
<title>Node15</title>
<g id="a_node15"><a xlink:href="$LocationType_8h.html" xlink:title=" ">
<polygon fill="white" stroke="#666666" points="124.24,-195 35.24,-195 35.24,-176 124.24,-176 124.24,-195"/>
<text text-anchor="middle" x="79.74" y="-183" font-family="Helvetica,sans-Serif" font-size="10.00">LocationType.h</text>
</a>
</g>
</g>
<!-- Node2&#45;&gt;Node15 -->
<g id="edge20" class="edge">
<title>Node2&#45;&gt;Node15</title>
<path fill="none" stroke="#63b8ff" d="M300.5,-231.85C257,-222.91 184.63,-208.05 134.68,-197.79"/>
<polygon fill="#63b8ff" stroke="#63b8ff" points="135.42,-194.37 124.92,-195.78 134.01,-201.22 135.42,-194.37"/>
</g>
<!-- Node16 -->
<g id="node16" class="node">
<title>Node16</title>
<g id="a_node16"><a xlink:href="$ScreenSearchInterfaces_8h.html" xlink:title=" ">
<polygon fill="white" stroke="#666666" points="282.74,-195 142.74,-195 142.74,-176 282.74,-176 282.74,-195"/>
<text text-anchor="middle" x="212.74" y="-183" font-family="Helvetica,sans-Serif" font-size="10.00">ScreenSearchInterfaces.h</text>
</a>
</g>
</g>
<!-- Node2&#45;&gt;Node16 -->
<g id="edge21" class="edge">
<title>Node2&#45;&gt;Node16</title>
<path fill="none" stroke="#63b8ff" d="M316.53,-230.51C296.66,-222.08 266.7,-209.38 244.07,-199.79"/>
<polygon fill="#63b8ff" stroke="#63b8ff" points="245.59,-196.63 235.02,-195.95 242.86,-203.07 245.59,-196.63"/>
</g>
<!-- Node17 -->
<g id="node17" class="node">
<title>Node17</title>
<g id="a_node17"><a xlink:href="$View_8h.html" xlink:title=" ">
<polygon fill="white" stroke="#666666" points="388.24,-195 339.24,-195 339.24,-176 388.24,-176 388.24,-195"/>
<text text-anchor="middle" x="363.74" y="-183" font-family="Helvetica,sans-Serif" font-size="10.00">View.h</text>
</a>
</g>
</g>
<!-- Node2&#45;&gt;Node17 -->
<g id="edge22" class="edge">
<title>Node2&#45;&gt;Node17</title>
<path fill="none" stroke="#63b8ff" d="M342.03,-230.75C345.36,-223.96 350.1,-214.3 354.3,-205.73"/>
<polygon fill="#63b8ff" stroke="#63b8ff" points="357.42,-207.32 358.68,-196.8 351.14,-204.24 357.42,-207.32"/>
</g>
<!-- Node5 -->
<g id="node5" class="node">
<title>Node5</title>
<g id="a_node5"><a xlink:href="$FilePath_8h.html" xlink:title=" ">
<polygon fill="white" stroke="#666666" points="609.74,-85 545.74,-85 545.74,-66 609.74,-66 609.74,-85"/>
<text text-anchor="middle" x="577.74" y="-73" font-family="Helvetica,sans-Serif" font-size="10.00">FilePath.h</text>
</a>
</g>
</g>
<!-- Node4&#45;&gt;Node5 -->
<g id="edge4" class="edge">
<title>Node4&#45;&gt;Node5</title>
<path fill="none" stroke="#63b8ff" d="M502.17,-120.51C515.98,-112.47 536.48,-100.53 552.64,-91.11"/>
<polygon fill="#63b8ff" stroke="#63b8ff" points="554.34,-94.18 561.22,-86.12 550.82,-88.13 554.34,-94.18"/>
</g>
<!-- Node8 -->
<g id="node8" class="node">
<title>Node8</title>
<g id="a_node8"><a xlink:href="$types_8h.html" xlink:title=" ">
<polygon fill="white" stroke="#666666" points="527.24,-85 474.24,-85 474.24,-66 527.24,-66 527.24,-85"/>
<text text-anchor="middle" x="500.74" y="-73" font-family="Helvetica,sans-Serif" font-size="10.00">types.h</text>
</a>
</g>
</g>
<!-- Node4&#45;&gt;Node8 -->
<g id="edge8" class="edge">
<title>Node4&#45;&gt;Node8</title>
<path fill="none" stroke="#63b8ff" d="M489.05,-120.75C490.8,-114.11 493.28,-104.73 495.5,-96.31"/>
<polygon fill="#63b8ff" stroke="#63b8ff" points="498.82,-97.47 497.99,-86.91 492.05,-95.68 498.82,-97.47"/>
</g>
<!-- Node5&#45;&gt;Node3 -->
<g id="edge5" class="edge">
<title>Node5&#45;&gt;Node3</title>
<path fill="none" stroke="#63b8ff" d="M545.53,-67.68C542.56,-67.1 539.59,-66.53 536.74,-66 439.92,-48.19 325.5,-30.71 266.09,-21.9"/>
<polygon fill="#63b8ff" stroke="#63b8ff" points="266.87,-18.47 256.46,-20.47 265.84,-25.4 266.87,-18.47"/>
</g>
<!-- Node6 -->
<g id="node6" class="node">
<title>Node6</title>
<g id="a_node6"><a xlink:title=" ">
<polygon fill="#e0e0e0" stroke="#999999" points="697.74,-24.5 653.74,-24.5 653.74,-5.5 697.74,-5.5 697.74,-24.5"/>
<text text-anchor="middle" x="675.74" y="-12.5" font-family="Helvetica,sans-Serif" font-size="10.00">string</text>
</a>
</g>
</g>
<!-- Node5&#45;&gt;Node6 -->
<g id="edge6" class="edge">
<title>Node5&#45;&gt;Node6</title>
<path fill="none" stroke="#63b8ff" d="M592.62,-65.62C608.09,-56.38 632.56,-41.77 650.96,-30.79"/>
<polygon fill="#63b8ff" stroke="#63b8ff" points="652.62,-33.88 659.41,-25.74 649.03,-27.86 652.62,-33.88"/>
</g>
<!-- Node7 -->
<g id="node7" class="node">
<title>Node7</title>
<g id="a_node7"><a xlink:title=" ">
<polygon fill="#e0e0e0" stroke="#999999" points="917.24,-24.5 870.24,-24.5 870.24,-5.5 917.24,-5.5 917.24,-24.5"/>
<text text-anchor="middle" x="893.74" y="-12.5" font-family="Helvetica,sans-Serif" font-size="10.00">vector</text>
</a>
</g>
</g>
<!-- Node5&#45;&gt;Node7 -->
<g id="edge7" class="edge">
<title>Node5&#45;&gt;Node7</title>
<path fill="none" stroke="#63b8ff" d="M610.07,-68.51C669.92,-57.43 797.47,-33.82 859.05,-22.42"/>
<polygon fill="#63b8ff" stroke="#63b8ff" points="859.41,-25.91 868.61,-20.65 858.14,-19.03 859.41,-25.91"/>
</g>
<!-- Node9 -->
<g id="node9" class="node">
<title>Node9</title>
<g id="a_node9"><a xlink:title=" ">
<polygon fill="#e0e0e0" stroke="#999999" points="527.24,-24.5 474.24,-24.5 474.24,-5.5 527.24,-5.5 527.24,-24.5"/>
<text text-anchor="middle" x="500.74" y="-12.5" font-family="Helvetica,sans-Serif" font-size="10.00">cstddef</text>
</a>
</g>
</g>
<!-- Node8&#45;&gt;Node9 -->
<g id="edge9" class="edge">
<title>Node8&#45;&gt;Node9</title>
<path fill="none" stroke="#63b8ff" d="M500.74,-65.87C500.74,-58 500.74,-46.1 500.74,-35.89"/>
<polygon fill="#63b8ff" stroke="#63b8ff" points="504.24,-36.18 500.74,-26.18 497.24,-36.18 504.24,-36.18"/>
</g>
<!-- Node10&#45;&gt;Node3 -->
<g id="edge11" class="edge">
<title>Node10&#45;&gt;Node3</title>
<path fill="none" stroke="#63b8ff" d="M107.78,-120.59C129.28,-101.53 180.01,-56.54 207.42,-32.24"/>
<polygon fill="#63b8ff" stroke="#63b8ff" points="209.45,-35.12 214.61,-25.87 204.8,-29.88 209.45,-35.12"/>
</g>
<!-- Node10&#45;&gt;Node8 -->
<g id="edge14" class="edge">
<title>Node10&#45;&gt;Node8</title>
<path fill="none" stroke="#63b8ff" d="M159.82,-121.33C244.35,-110.22 393.08,-90.66 462.74,-81.5"/>
<polygon fill="#63b8ff" stroke="#63b8ff" points="463.05,-84.99 472.51,-80.21 462.14,-78.05 463.05,-84.99"/>
</g>
<!-- Node11 -->
<g id="node11" class="node">
<title>Node11</title>
<g id="a_node11"><a xlink:href="$TimeStamp_8h.html" xlink:title=" ">
<polygon fill="white" stroke="#666666" points="121.24,-85 40.24,-85 40.24,-66 121.24,-66 121.24,-85"/>
<text text-anchor="middle" x="80.74" y="-73" font-family="Helvetica,sans-Serif" font-size="10.00">TimeStamp.h</text>
</a>
</g>
</g>
<!-- Node10&#45;&gt;Node11 -->
<g id="edge12" class="edge">
<title>Node10&#45;&gt;Node11</title>
<path fill="none" stroke="#63b8ff" d="M94.93,-120.75C92.8,-114.11 89.79,-104.73 87.09,-96.31"/>
<polygon fill="#63b8ff" stroke="#63b8ff" points="90.45,-95.34 84.07,-86.88 83.79,-97.47 90.45,-95.34"/>
</g>
<!-- Node12 -->
<g id="node12" class="node">
<title>Node12</title>
<g id="a_node12"><a xlink:title=" ">
<polygon fill="#e0e0e0" stroke="#999999" points="143.24,-30 18.24,-30 18.24,0 143.24,0 143.24,-30"/>
<text text-anchor="start" x="26.24" y="-18" font-family="Helvetica,sans-Serif" font-size="10.00">boost/date_time/posix</text>
<text text-anchor="middle" x="80.74" y="-7" font-family="Helvetica,sans-Serif" font-size="10.00">_time/posix_time.hpp</text>
</a>
</g>
</g>
<!-- Node11&#45;&gt;Node12 -->
<g id="edge13" class="edge">
<title>Node11&#45;&gt;Node12</title>
<path fill="none" stroke="#63b8ff" d="M80.74,-65.87C80.74,-59.4 80.74,-50.2 80.74,-41.45"/>
<polygon fill="#63b8ff" stroke="#63b8ff" points="84.24,-41.63 80.74,-31.63 77.24,-41.63 84.24,-41.63"/>
</g>
<!-- Node14 -->
<g id="node14" class="node">
<title>Node14</title>
<g id="a_node14"><a xlink:href="$StorageError_8h.html" xlink:title=" ">
<polygon fill="white" stroke="#666666" points="685.74,-140 599.74,-140 599.74,-121 685.74,-121 685.74,-140"/>
<text text-anchor="middle" x="642.74" y="-128" font-family="Helvetica,sans-Serif" font-size="10.00">StorageError.h</text>
</a>
</g>
</g>
<!-- Node13&#45;&gt;Node14 -->
<g id="edge16" class="edge">
<title>Node13&#45;&gt;Node14</title>
<path fill="none" stroke="#63b8ff" d="M574.65,-175.51C586.97,-167.54 605.21,-155.75 619.71,-146.38"/>
<polygon fill="#63b8ff" stroke="#63b8ff" points="621.26,-149.55 627.76,-141.18 617.46,-143.67 621.26,-149.55"/>
</g>
<!-- Node14&#45;&gt;Node5 -->
<g id="edge18" class="edge">
<title>Node14&#45;&gt;Node5</title>
<path fill="none" stroke="#63b8ff" d="M631.71,-120.51C622.31,-112.85 608.59,-101.66 597.33,-92.47"/>
<polygon fill="#63b8ff" stroke="#63b8ff" points="599.73,-89.92 589.77,-86.31 595.31,-95.35 599.73,-89.92"/>
</g>
<!-- Node14&#45;&gt;Node6 -->
<g id="edge17" class="edge">
<title>Node14&#45;&gt;Node6</title>
<path fill="none" stroke="#63b8ff" d="M645.32,-120.59C650.6,-102.44 662.71,-60.79 669.96,-35.87"/>
<polygon fill="#63b8ff" stroke="#63b8ff" points="673.3,-36.9 672.74,-26.32 666.58,-34.94 673.3,-36.9"/>
</g>
<!-- Node14&#45;&gt;Node8 -->
<g id="edge19" class="edge">
<title>Node14&#45;&gt;Node8</title>
<path fill="none" stroke="#63b8ff" d="M618.65,-120.51C595.66,-111.93 560.8,-98.92 534.94,-89.27"/>
<polygon fill="#63b8ff" stroke="#63b8ff" points="536.48,-86.1 525.89,-85.89 534.03,-92.66 536.48,-86.1"/>
</g>
<!-- Node17&#45;&gt;Node3 -->
<g id="edge23" class="edge">
<title>Node17&#45;&gt;Node3</title>
<path fill="none" stroke="#63b8ff" d="M338.9,-178.94C297.83,-169.49 219.48,-150.34 211.74,-140 188.65,-109.19 204.36,-61.4 216.13,-35.06"/>
<polygon fill="#63b8ff" stroke="#63b8ff" points="219.18,-36.79 220.31,-26.26 212.86,-33.79 219.18,-36.79"/>
</g>
<!-- Node17&#45;&gt;Node6 -->
<g id="edge24" class="edge">
<title>Node17&#45;&gt;Node6</title>
<path fill="none" stroke="#63b8ff" d="M338.84,-178.72C307.31,-170.83 255.74,-155.86 244.74,-140 224.34,-110.59 266.42,-75.92 282.74,-66 298.08,-56.67 549.94,-29.29 642.21,-19.51"/>
<polygon fill="#63b8ff" stroke="#63b8ff" points="642.3,-23.02 651.88,-18.49 641.57,-16.06 642.3,-23.02"/>
</g>
<!-- Node18 -->
<g id="node18" class="node">
<title>Node18</title>
<g id="a_node18"><a xlink:href="$Component_8h.html" xlink:title=" ">
<polygon fill="white" stroke="#666666" points="335.74,-140 253.74,-140 253.74,-121 335.74,-121 335.74,-140"/>
<text text-anchor="middle" x="294.74" y="-128" font-family="Helvetica,sans-Serif" font-size="10.00">Component.h</text>
</a>
</g>
</g>
<!-- Node17&#45;&gt;Node18 -->
<g id="edge25" class="edge">
<title>Node17&#45;&gt;Node18</title>
<path fill="none" stroke="#63b8ff" d="M352.03,-175.51C341.96,-167.77 327.19,-156.43 315.17,-147.2"/>
<polygon fill="#63b8ff" stroke="#63b8ff" points="317.53,-144.6 307.47,-141.28 313.27,-150.15 317.53,-144.6"/>
</g>
<!-- Node19 -->
<g id="node19" class="node">
<title>Node19</title>
<g id="a_node19"><a xlink:href="$ViewLayout_8h.html" xlink:title=" ">
<polygon fill="white" stroke="#666666" points="375.24,-85 292.24,-85 292.24,-66 375.24,-66 375.24,-85"/>
<text text-anchor="middle" x="333.74" y="-73" font-family="Helvetica,sans-Serif" font-size="10.00">ViewLayout.h</text>
</a>
</g>
</g>
<!-- Node17&#45;&gt;Node19 -->
<g id="edge28" class="edge">
<title>Node17&#45;&gt;Node19</title>
<path fill="none" stroke="#63b8ff" d="M361.28,-175.66C356.49,-158.42 345.79,-119.9 339.23,-96.27"/>
<polygon fill="#63b8ff" stroke="#63b8ff" points="342.68,-95.62 336.63,-86.92 335.93,-97.49 342.68,-95.62"/>
</g>
<!-- Node18&#45;&gt;Node3 -->
<g id="edge26" class="edge">
<title>Node18&#45;&gt;Node3</title>
<path fill="none" stroke="#63b8ff" d="M289.32,-120.59C278.09,-102.11 252.03,-59.26 236.99,-34.52"/>
<polygon fill="#63b8ff" stroke="#63b8ff" points="240.1,-32.88 231.91,-26.16 234.11,-36.52 240.1,-32.88"/>
</g>
<!-- Node18&#45;&gt;Node8 -->
<g id="edge27" class="edge">
<title>Node18&#45;&gt;Node8</title>
<path fill="none" stroke="#63b8ff" d="M329.68,-120.51C366.61,-111.01 424.67,-96.07 462.72,-86.28"/>
<polygon fill="#63b8ff" stroke="#63b8ff" points="463.56,-89.68 472.38,-83.8 461.82,-82.9 463.56,-89.68"/>
</g>
<!-- Node19&#45;&gt;Node6 -->
<g id="edge29" class="edge">
<title>Node19&#45;&gt;Node6</title>
<path fill="none" stroke="#63b8ff" d="M375.67,-67.33C444.37,-55.57 579.53,-32.46 642.27,-21.72"/>
<polygon fill="#63b8ff" stroke="#63b8ff" points="642.7,-25.2 651.97,-20.07 641.52,-18.3 642.7,-25.2"/>
</g>
<!-- Node21 -->
<g id="node21" class="node">
<title>Node21</title>
<g id="a_node21"><a xlink:title=" ">
<polygon fill="#e0e0e0" stroke="#999999" points="991.24,-250 926.24,-250 926.24,-231 991.24,-231 991.24,-250"/>
<text text-anchor="middle" x="958.74" y="-238" font-family="Helvetica,sans-Serif" font-size="10.00">functional</text>
</a>
</g>
</g>
<!-- Node20&#45;&gt;Node21 -->
<g id="edge31" class="edge">
<title>Node20&#45;&gt;Node21</title>
<path fill="none" stroke="#63b8ff" d="M958.74,-285.75C958.74,-279.27 958.74,-270.16 958.74,-261.9"/>
<polygon fill="#63b8ff" stroke="#63b8ff" points="962.24,-261.96 958.74,-251.96 955.24,-261.96 962.24,-261.96"/>
</g>
<!-- Node22 -->
<g id="node22" class="node">
<title>Node22</title>
<g id="a_node22"><a xlink:title=" ">
<polygon fill="#e0e0e0" stroke="#999999" points="1065.74,-250 1009.74,-250 1009.74,-231 1065.74,-231 1065.74,-250"/>
<text text-anchor="middle" x="1037.74" y="-238" font-family="Helvetica,sans-Serif" font-size="10.00">QObject</text>
</a>
</g>
</g>
<!-- Node20&#45;&gt;Node22 -->
<g id="edge32" class="edge">
<title>Node20&#45;&gt;Node22</title>
<path fill="none" stroke="#63b8ff" d="M972.14,-285.51C983.9,-277.62 1001.24,-265.98 1015.15,-256.65"/>
<polygon fill="#63b8ff" stroke="#63b8ff" points="1016.92,-259.68 1023.27,-251.2 1013.02,-253.87 1016.92,-259.68"/>
</g>
<!-- Node23 -->
<g id="node23" class="node">
<title>Node23</title>
<g id="a_node23"><a xlink:title=" ">
<polygon fill="#e0e0e0" stroke="#999999" points="1163.74,-250 1083.74,-250 1083.74,-231 1163.74,-231 1163.74,-250"/>
<text text-anchor="middle" x="1123.74" y="-238" font-family="Helvetica,sans-Serif" font-size="10.00">QSemaphore</text>
</a>
</g>
</g>
<!-- Node20&#45;&gt;Node23 -->
<g id="edge33" class="edge">
<title>Node20&#45;&gt;Node23</title>
<path fill="none" stroke="#63b8ff" d="M986.73,-285.51C1013.83,-276.8 1055.14,-263.53 1085.32,-253.84"/>
<polygon fill="#63b8ff" stroke="#63b8ff" points="1085.99,-257.3 1094.44,-250.91 1083.85,-250.64 1085.99,-257.3"/>
</g>
<!-- Node24 -->
<g id="node24" class="node">
<title>Node24</title>
<g id="a_node24"><a xlink:title=" ">
<polygon fill="#e0e0e0" stroke="#999999" points="1239.74,-250 1181.74,-250 1181.74,-231 1239.74,-231 1239.74,-250"/>
<text text-anchor="middle" x="1210.74" y="-238" font-family="Helvetica,sans-Serif" font-size="10.00">QThread</text>
</a>
</g>
</g>
<!-- Node20&#45;&gt;Node24 -->
<g id="edge34" class="edge">
<title>Node20&#45;&gt;Node24</title>
<path fill="none" stroke="#63b8ff" d="M1002.63,-285.57C1043.55,-277.21 1106.58,-264.21 1170.24,-250.52"/>
<polygon fill="#63b8ff" stroke="#63b8ff" points="1170.77,-253.98 1179.81,-248.45 1169.29,-247.14 1170.77,-253.98"/>
</g>
<!-- Node25 -->
<g id="node25" class="node">
<title>Node25</title>
<g id="a_node25"><a xlink:href="$MessageListener_8h.html" xlink:title=" ">
<polygon fill="white" stroke="#666666" points="907.74,-250 799.74,-250 799.74,-231 907.74,-231 907.74,-250"/>
<text text-anchor="middle" x="853.74" y="-238" font-family="Helvetica,sans-Serif" font-size="10.00">MessageListener.h</text>
</a>
</g>
</g>
<!-- Node20&#45;&gt;Node25 -->
<g id="edge35" class="edge">
<title>Node20&#45;&gt;Node25</title>
<path fill="none" stroke="#63b8ff" d="M940.92,-285.51C924.61,-277.27 900.21,-264.96 881.36,-255.45"/>
<polygon fill="#63b8ff" stroke="#63b8ff" points="883.14,-252.42 872.64,-251.04 879.99,-258.67 883.14,-252.42"/>
</g>
<!-- Node35 -->
<g id="node35" class="node">
<title>Node35</title>
<g id="a_node35"><a xlink:href="$MessageWindowClosed_8h.html" xlink:title=" ">
<polygon fill="white" stroke="#666666" points="746.24,-250 605.24,-250 605.24,-231 746.24,-231 746.24,-250"/>
<text text-anchor="middle" x="675.74" y="-238" font-family="Helvetica,sans-Serif" font-size="10.00">MessageWindowClosed.h</text>
</a>
</g>
</g>
<!-- Node20&#45;&gt;Node35 -->
<g id="edge58" class="edge">
<title>Node20&#45;&gt;Node35</title>
<path fill="none" stroke="#63b8ff" d="M910.73,-285.51C862.1,-276.4 786.8,-262.3 734.6,-252.52"/>
<polygon fill="#63b8ff" stroke="#63b8ff" points="735.47,-249.13 724.99,-250.72 734.18,-256.01 735.47,-249.13"/>
</g>
<!-- Node25&#45;&gt;Node6 -->
<g id="edge36" class="edge">
<title>Node25&#45;&gt;Node6</title>
<path fill="none" stroke="#63b8ff" d="M860.61,-230.7C875.29,-210.78 907.05,-160.9 890.74,-121 861.58,-49.69 761.82,-26.59 709.06,-19.28"/>
<polygon fill="#63b8ff" stroke="#63b8ff" points="709.81,-15.85 699.45,-18.07 708.93,-22.79 709.81,-15.85"/>
</g>
<!-- Node26 -->
<g id="node26" class="node">
<title>Node26</title>
<g id="a_node26"><a xlink:href="$MessageBase_8h.html" xlink:title=" ">
<polygon fill="white" stroke="#666666" points="1031.24,-140 938.24,-140 938.24,-121 1031.24,-121 1031.24,-140"/>
<text text-anchor="middle" x="984.74" y="-128" font-family="Helvetica,sans-Serif" font-size="10.00">MessageBase.h</text>
</a>
</g>
</g>
<!-- Node25&#45;&gt;Node26 -->
<g id="edge37" class="edge">
<title>Node25&#45;&gt;Node26</title>
<path fill="none" stroke="#63b8ff" d="M870.04,-230.63C884.73,-222.3 906.57,-209.05 923.74,-195 941.04,-180.84 958.48,-162.13 970.25,-148.7"/>
<polygon fill="#63b8ff" stroke="#63b8ff" points="972.57,-151.37 976.44,-141.51 967.27,-146.8 972.57,-151.37"/>
</g>
<!-- Node32 -->
<g id="node32" class="node">
<title>Node32</title>
<g id="a_node32"><a xlink:href="$MessageListenerBase_8h.html" xlink:title=" ">
<polygon fill="white" stroke="#666666" points="843.74,-195 711.74,-195 711.74,-176 843.74,-176 843.74,-195"/>
<text text-anchor="middle" x="777.74" y="-183" font-family="Helvetica,sans-Serif" font-size="10.00">MessageListenerBase.h</text>
</a>
</g>
</g>
<!-- Node25&#45;&gt;Node32 -->
<g id="edge47" class="edge">
<title>Node25&#45;&gt;Node32</title>
<path fill="none" stroke="#63b8ff" d="M840.84,-230.51C829.64,-222.7 813.16,-211.21 799.86,-201.93"/>
<polygon fill="#63b8ff" stroke="#63b8ff" points="801.88,-199.07 791.68,-196.22 797.88,-204.81 801.88,-199.07"/>
</g>
<!-- Node33 -->
<g id="node33" class="node">
<title>Node33</title>
<g id="a_node33"><a xlink:href="$MessageQueue_8h.html" xlink:title=" ">
<polygon fill="white" stroke="#666666" points="881.24,-140 780.24,-140 780.24,-121 881.24,-121 881.24,-140"/>
<text text-anchor="middle" x="830.74" y="-128" font-family="Helvetica,sans-Serif" font-size="10.00">MessageQueue.h</text>
</a>
</g>
</g>
<!-- Node25&#45;&gt;Node33 -->
<g id="edge57" class="edge">
<title>Node25&#45;&gt;Node33</title>
<path fill="none" stroke="#63b8ff" d="M854.8,-230.72C856.03,-218.32 857.35,-195.08 852.74,-176 850.56,-167 846.34,-157.73 842.17,-149.98"/>
<polygon fill="#63b8ff" stroke="#63b8ff" points="845.33,-148.46 837.29,-141.56 839.27,-151.97 845.33,-148.46"/>
</g>
<!-- Node26&#45;&gt;Node8 -->
<g id="edge40" class="edge">
<title>Node26&#45;&gt;Node8</title>
<path fill="none" stroke="#63b8ff" d="M937.75,-125.19C837.51,-115.95 606.9,-94.41 538.77,-84.94"/>
<polygon fill="#63b8ff" stroke="#63b8ff" points="539.3,-81.48 528.89,-83.44 538.25,-88.4 539.3,-81.48"/>
</g>
<!-- Node27 -->
<g id="node27" class="node">
<title>Node27</title>
<g id="a_node27"><a xlink:title=" ">
<polygon fill="#e0e0e0" stroke="#999999" points="1017.24,-85 960.24,-85 960.24,-66 1017.24,-66 1017.24,-85"/>
<text text-anchor="middle" x="988.74" y="-73" font-family="Helvetica,sans-Serif" font-size="10.00">ostream</text>
</a>
</g>
</g>
<!-- Node26&#45;&gt;Node27 -->
<g id="edge38" class="edge">
<title>Node26&#45;&gt;Node27</title>
<path fill="none" stroke="#63b8ff" d="M985.4,-120.75C985.88,-114.27 986.57,-105.16 987.2,-96.9"/>
<polygon fill="#63b8ff" stroke="#63b8ff" points="990.68,-97.19 987.95,-86.95 983.7,-96.66 990.68,-97.19"/>
</g>
<!-- Node28 -->
<g id="node28" class="node">
<title>Node28</title>
<g id="a_node28"><a xlink:title=" ">
<polygon fill="#e0e0e0" stroke="#999999" points="1174.74,-24.5 1118.74,-24.5 1118.74,-5.5 1174.74,-5.5 1174.74,-24.5"/>
<text text-anchor="middle" x="1146.74" y="-12.5" font-family="Helvetica,sans-Serif" font-size="10.00">sstream</text>
</a>
</g>
</g>
<!-- Node26&#45;&gt;Node28 -->
<g id="edge39" class="edge">
<title>Node26&#45;&gt;Node28</title>
<path fill="none" stroke="#63b8ff" d="M1031.63,-126.34C1062.89,-121.78 1102.7,-110.88 1127.74,-85 1140.29,-72.02 1144.71,-51.55 1146.19,-36.27"/>
<polygon fill="#63b8ff" stroke="#63b8ff" points="1149.68,-36.63 1146.77,-26.44 1142.69,-36.22 1149.68,-36.63"/>
</g>
<!-- Node29 -->
<g id="node29" class="node">
<title>Node29</title>
<g id="a_node29"><a xlink:href="$utilityString_8h.html" xlink:title=" ">
<polygon fill="white" stroke="#666666" points="1118.24,-85 1035.24,-85 1035.24,-66 1118.24,-66 1118.24,-85"/>
<text text-anchor="middle" x="1076.74" y="-73" font-family="Helvetica,sans-Serif" font-size="10.00">utilityString.h</text>
</a>
</g>
</g>
<!-- Node26&#45;&gt;Node29 -->
<g id="edge41" class="edge">
<title>Node26&#45;&gt;Node29</title>
<path fill="none" stroke="#63b8ff" d="M1000.34,-120.51C1014.44,-112.39 1035.42,-100.3 1051.83,-90.85"/>
<polygon fill="#63b8ff" stroke="#63b8ff" points="1053.13,-94.14 1060.05,-86.11 1049.64,-88.07 1053.13,-94.14"/>
</g>
<!-- Node29&#45;&gt;Node6 -->
<g id="edge45" class="edge">
<title>Node29&#45;&gt;Node6</title>
<path fill="none" stroke="#63b8ff" d="M1034.74,-67.28C1032.03,-66.84 1029.35,-66.41 1026.74,-66 910.18,-47.8 771.42,-28.83 709.03,-20.44"/>
<polygon fill="#63b8ff" stroke="#63b8ff" points="709.82,-17.01 699.44,-19.15 708.89,-23.95 709.82,-17.01"/>
</g>
<!-- Node29&#45;&gt;Node7 -->
<g id="edge46" class="edge">
<title>Node29&#45;&gt;Node7</title>
<path fill="none" stroke="#63b8ff" d="M1048.94,-65.62C1016.64,-55.29 963.32,-38.24 928.35,-27.07"/>
<polygon fill="#63b8ff" stroke="#63b8ff" points="929.73,-23.83 919.14,-24.12 927.6,-30.5 929.73,-23.83"/>
</g>
<!-- Node29&#45;&gt;Node28 -->
<g id="edge44" class="edge">
<title>Node29&#45;&gt;Node28</title>
<path fill="none" stroke="#63b8ff" d="M1087.37,-65.62C1097.95,-56.77 1114.45,-42.98 1127.36,-32.19"/>
<polygon fill="#63b8ff" stroke="#63b8ff" points="1129.41,-35.04 1134.84,-25.94 1124.92,-29.67 1129.41,-35.04"/>
</g>
<!-- Node30 -->
<g id="node30" class="node">
<title>Node30</title>
<g id="a_node30"><a xlink:title=" ">
<polygon fill="#e0e0e0" stroke="#999999" points="1100.74,-24.5 1036.74,-24.5 1036.74,-5.5 1100.74,-5.5 1100.74,-24.5"/>
<text text-anchor="middle" x="1068.74" y="-12.5" font-family="Helvetica,sans-Serif" font-size="10.00">algorithm</text>
</a>
</g>
</g>
<!-- Node29&#45;&gt;Node30 -->
<g id="edge42" class="edge">
<title>Node29&#45;&gt;Node30</title>
<path fill="none" stroke="#63b8ff" d="M1075.55,-65.87C1074.48,-58 1072.85,-46.1 1071.46,-35.89"/>
<polygon fill="#63b8ff" stroke="#63b8ff" points="1074.95,-35.6 1070.13,-26.17 1068.01,-36.55 1074.95,-35.6"/>
</g>
<!-- Node31 -->
<g id="node31" class="node">
<title>Node31</title>
<g id="a_node31"><a xlink:title=" ">
<polygon fill="#e0e0e0" stroke="#999999" points="1000.24,-24.5 953.24,-24.5 953.24,-5.5 1000.24,-5.5 1000.24,-24.5"/>
<text text-anchor="middle" x="976.74" y="-12.5" font-family="Helvetica,sans-Serif" font-size="10.00">deque</text>
</a>
</g>
</g>
<!-- Node29&#45;&gt;Node31 -->
<g id="edge43" class="edge">
<title>Node29&#45;&gt;Node31</title>
<path fill="none" stroke="#63b8ff" d="M1061.55,-65.62C1045.69,-56.34 1020.55,-41.63 1001.76,-30.64"/>
<polygon fill="#63b8ff" stroke="#63b8ff" points="1003.77,-27.76 993.37,-25.73 1000.24,-33.8 1003.77,-27.76"/>
</g>
<!-- Node32&#45;&gt;Node6 -->
<g id="edge48" class="edge">
<title>Node32&#45;&gt;Node6</title>
<path fill="none" stroke="#63b8ff" d="M773.01,-175.74C762.25,-155.92 734.9,-106.22 709.74,-66 702.95,-55.15 694.91,-43.3 688.36,-33.85"/>
<polygon fill="#63b8ff" stroke="#63b8ff" points="691.43,-32.14 682.83,-25.96 685.7,-36.15 691.43,-32.14"/>
</g>
<!-- Node32&#45;&gt;Node8 -->
<g id="edge56" class="edge">
<title>Node32&#45;&gt;Node8</title>
<path fill="none" stroke="#63b8ff" d="M713.87,-175.51C676.78,-168.79 629.82,-157.64 590.74,-140 563.68,-127.79 536.34,-107.03 519.01,-92.59"/>
<polygon fill="#63b8ff" stroke="#63b8ff" points="521.51,-90.12 511.63,-86.29 516.96,-95.44 521.51,-90.12"/>
</g>
<!-- Node32&#45;&gt;Node26 -->
<g id="edge49" class="edge">
<title>Node32&#45;&gt;Node26</title>
<path fill="none" stroke="#63b8ff" d="M812.85,-175.51C847.6,-166.61 900.97,-152.95 939.01,-143.21"/>
<polygon fill="#63b8ff" stroke="#63b8ff" points="939.51,-146.69 948.33,-140.82 937.77,-139.91 939.51,-146.69"/>
</g>
<!-- Node32&#45;&gt;Node33 -->
<g id="edge50" class="edge">
<title>Node32&#45;&gt;Node33</title>
<path fill="none" stroke="#63b8ff" d="M786.49,-175.75C793.88,-168.35 804.7,-157.54 813.78,-148.45"/>
<polygon fill="#63b8ff" stroke="#63b8ff" points="816.13,-151.06 820.72,-141.51 811.18,-146.11 816.13,-151.06"/>
</g>
<!-- Node33&#45;&gt;Node3 -->
<g id="edge52" class="edge">
<title>Node33&#45;&gt;Node3</title>
<path fill="none" stroke="#63b8ff" d="M805.63,-120.51C766.3,-106.76 687.52,-80.57 618.74,-66 491.58,-39.06 337.99,-24.65 266.29,-18.95"/>
<polygon fill="#63b8ff" stroke="#63b8ff" points="266.85,-15.48 256.61,-18.19 266.31,-22.46 266.85,-15.48"/>
</g>
<!-- Node33&#45;&gt;Node7 -->
<g id="edge54" class="edge">
<title>Node33&#45;&gt;Node7</title>
<path fill="none" stroke="#63b8ff" d="M835.68,-120.59C845.89,-102.19 869.51,-59.64 883.27,-34.85"/>
<polygon fill="#63b8ff" stroke="#63b8ff" points="886.29,-36.63 888.08,-26.19 880.17,-33.23 886.29,-36.63"/>
</g>
<!-- Node33&#45;&gt;Node8 -->
<g id="edge55" class="edge">
<title>Node33&#45;&gt;Node8</title>
<path fill="none" stroke="#63b8ff" d="M779.79,-123.07C723.29,-115.66 629.21,-102.48 538.47,-85.19"/>
<polygon fill="#63b8ff" stroke="#63b8ff" points="539.39,-81.8 528.91,-83.34 538.06,-88.67 539.39,-81.8"/>
</g>
<!-- Node33&#45;&gt;Node31 -->
<g id="edge51" class="edge">
<title>Node33&#45;&gt;Node31</title>
<path fill="none" stroke="#63b8ff" d="M842.19,-120.59C866.82,-101.45 925.09,-56.15 956.25,-31.93"/>
<polygon fill="#63b8ff" stroke="#63b8ff" points="958.39,-34.69 964.14,-25.79 954.09,-29.17 958.39,-34.69"/>
</g>
<!-- Node34 -->
<g id="node34" class="node">
<title>Node34</title>
<g id="a_node34"><a xlink:title=" ">
<polygon fill="#e0e0e0" stroke="#999999" points="827.74,-85 779.74,-85 779.74,-66 827.74,-66 827.74,-85"/>
<text text-anchor="middle" x="803.74" y="-73" font-family="Helvetica,sans-Serif" font-size="10.00">mutex</text>
</a>
</g>
</g>
<!-- Node33&#45;&gt;Node34 -->
<g id="edge53" class="edge">
<title>Node33&#45;&gt;Node34</title>
<path fill="none" stroke="#63b8ff" d="M826.28,-120.75C822.78,-113.88 817.79,-104.08 813.39,-95.45"/>
<polygon fill="#63b8ff" stroke="#63b8ff" points="816.64,-94.11 808.98,-86.79 810.4,-97.29 816.64,-94.11"/>
</g>
<!-- Node36 -->
<g id="node36" class="node">
<title>Node36</title>
<g id="a_node36"><a xlink:href="$Message_8h.html" xlink:title=" ">
<polygon fill="white" stroke="#666666" points="693.24,-195 624.24,-195 624.24,-176 693.24,-176 693.24,-195"/>
<text text-anchor="middle" x="658.74" y="-183" font-family="Helvetica,sans-Serif" font-size="10.00">Message.h</text>
</a>
</g>
</g>
<!-- Node35&#45;&gt;Node36 -->
<g id="edge59" class="edge">
<title>Node35&#45;&gt;Node36</title>
<path fill="none" stroke="#63b8ff" d="M672.93,-230.75C670.8,-224.11 667.79,-214.73 665.09,-206.31"/>
<polygon fill="#63b8ff" stroke="#63b8ff" points="668.45,-205.34 662.07,-196.88 661.79,-207.47 668.45,-205.34"/>
</g>
<!-- Node36&#45;&gt;Node3 -->
<g id="edge60" class="edge">
<title>Node36&#45;&gt;Node3</title>
<path fill="none" stroke="#63b8ff" d="M624.06,-178.85C559.99,-168.3 428.83,-146.1 420.74,-140 391.37,-117.86 411.7,-89.88 383.74,-66 350.42,-37.55 300.83,-25.25 266.12,-19.96"/>
<polygon fill="#63b8ff" stroke="#63b8ff" points="266.84,-16.53 256.46,-18.63 265.89,-23.46 266.84,-16.53"/>
</g>
<!-- Node36&#45;&gt;Node6 -->
<g id="edge61" class="edge">
<title>Node36&#45;&gt;Node6</title>
<path fill="none" stroke="#63b8ff" d="M668.9,-175.81C677.64,-167.6 689.63,-154.43 694.74,-140 707.28,-104.53 694.25,-60.47 684.44,-35.57"/>
<polygon fill="#63b8ff" stroke="#63b8ff" points="687.69,-34.26 680.6,-26.39 681.23,-36.97 687.69,-34.26"/>
</g>
<!-- Node36&#45;&gt;Node26 -->
<g id="edge62" class="edge">
<title>Node36&#45;&gt;Node26</title>
<path fill="none" stroke="#63b8ff" d="M693.3,-177.71C696.49,-177.11 699.67,-176.54 702.74,-176 779.92,-162.46 869.33,-148.67 926.42,-140.1"/>
<polygon fill="#63b8ff" stroke="#63b8ff" points="926.88,-143.58 936.25,-138.63 925.85,-136.65 926.88,-143.58"/>
</g>
<!-- Node36&#45;&gt;Node33 -->
<g id="edge63" class="edge">
<title>Node36&#45;&gt;Node33</title>
<path fill="none" stroke="#63b8ff" d="M687.91,-175.51C716.29,-166.76 759.61,-153.42 791.1,-143.71"/>
<polygon fill="#63b8ff" stroke="#63b8ff" points="791.73,-147.18 800.26,-140.89 789.67,-140.49 791.73,-147.18"/>
</g>
</g>
</svg>
