<?xml version="1.0" encoding="UTF-8" standalone="no"?>
<!DOCTYPE svg PUBLIC "-//W3C//DTD SVG 1.1//EN"
 "http://www.w3.org/Graphics/SVG/1.1/DTD/svg11.dtd">
<!-- Generated by graphviz version 7.1.0 (0)
 -->
<!-- Title: /home/ahussein/Documents/sourceCode/Sourcetrail/src/src/lib_gui/qt/graphics/graph/QtGraphNodeExpandToggle.h Pages: 1 -->
<svg width="1771pt" height="500pt"
 viewBox="0.00 0.00 1770.50 500.00" xmlns="http://www.w3.org/2000/svg" xmlns:xlink="http://www.w3.org/1999/xlink">
<g id="graph0" class="graph" transform="scale(1 1) rotate(0) translate(4 496)">
<title>/home/ahussein/Documents/sourceCode/Sourcetrail/src/src/lib_gui/qt/graphics/graph/QtGraphNodeExpandToggle.h</title>
<!-- Node1 -->
<g id="node1" class="node">
<title>Node1</title>
<g id="a_node1"><a xlink:title=" ">
<polygon fill="#999999" stroke="#666666" points="873,-492 680,-492 680,-440 873,-440 873,-492"/>
<text text-anchor="start" x="688" y="-480" font-family="Helvetica,sans-Serif" font-size="10.00">/home/ahussein/Documents</text>
<text text-anchor="start" x="688" y="-469" font-family="Helvetica,sans-Serif" font-size="10.00">/sourceCode/Sourcetrail</text>
<text text-anchor="start" x="688" y="-458" font-family="Helvetica,sans-Serif" font-size="10.00">/src/src/lib_gui/qt/graphics</text>
<text text-anchor="middle" x="776.5" y="-447" font-family="Helvetica,sans-Serif" font-size="10.00">/graph/QtGraphNodeExpandToggle.h</text>
</a>
</g>
</g>
<!-- Node2 -->
<g id="node2" class="node">
<title>Node2</title>
<g id="a_node2"><a xlink:title=" ">
<polygon fill="#e0e0e0" stroke="#999999" points="763,-349 674,-349 674,-330 763,-330 763,-349"/>
<text text-anchor="middle" x="718.5" y="-337" font-family="Helvetica,sans-Serif" font-size="10.00">QGraphicsItem</text>
</a>
</g>
</g>
<!-- Node1&#45;&gt;Node2 -->
<g id="edge1" class="edge">
<title>Node1&#45;&gt;Node2</title>
<path fill="none" stroke="#63b8ff" d="M764.62,-439.51C753.61,-415.86 737.45,-381.18 727.47,-359.76"/>
<polygon fill="#63b8ff" stroke="#63b8ff" points="730.67,-358.34 723.28,-350.76 724.33,-361.3 730.67,-358.34"/>
</g>
<!-- Node3 -->
<g id="node3" class="node">
<title>Node3</title>
<g id="a_node3"><a xlink:href="$QtGraphNode_8h.html" xlink:title=" ">
<polygon fill="white" stroke="#666666" points="879.5,-404 787.5,-404 787.5,-385 879.5,-385 879.5,-404"/>
<text text-anchor="middle" x="833.5" y="-392" font-family="Helvetica,sans-Serif" font-size="10.00">QtGraphNode.h</text>
</a>
</g>
</g>
<!-- Node1&#45;&gt;Node3 -->
<g id="edge2" class="edge">
<title>Node1&#45;&gt;Node3</title>
<path fill="none" stroke="#63b8ff" d="M797.4,-439.52C804.63,-430.7 812.56,-421.03 819.14,-413"/>
<polygon fill="#63b8ff" stroke="#63b8ff" points="821.77,-415.32 825.41,-405.37 816.36,-410.88 821.77,-415.32"/>
</g>
<!-- Node3&#45;&gt;Node2 -->
<g id="edge4" class="edge">
<title>Node3&#45;&gt;Node2</title>
<path fill="none" stroke="#63b8ff" d="M813.99,-384.51C795.87,-376.16 768.65,-363.61 747.9,-354.05"/>
<polygon fill="#63b8ff" stroke="#63b8ff" points="749.64,-351 739.09,-349.99 746.71,-357.36 749.64,-351"/>
</g>
<!-- Node4 -->
<g id="node4" class="node">
<title>Node4</title>
<g id="a_node4"><a xlink:title=" ">
<polygon fill="#e0e0e0" stroke="#999999" points="997,-129 932,-129 932,-110 997,-110 997,-129"/>
<text text-anchor="middle" x="964.5" y="-117" font-family="Helvetica,sans-Serif" font-size="10.00">functional</text>
</a>
</g>
</g>
<!-- Node3&#45;&gt;Node4 -->
<g id="edge3" class="edge">
<title>Node3&#45;&gt;Node4</title>
<path fill="none" stroke="#63b8ff" d="M866.08,-384.54C908,-370.79 975.5,-340.17 975.5,-285.5 975.5,-285.5 975.5,-285.5 975.5,-228.5 975.5,-197.76 971.04,-162.36 967.8,-140.71"/>
<polygon fill="#63b8ff" stroke="#63b8ff" points="971.27,-140.26 966.26,-130.92 964.35,-141.35 971.27,-140.26"/>
</g>
<!-- Node5 -->
<g id="node5" class="node">
<title>Node5</title>
<g id="a_node5"><a xlink:href="$Vector4_8h.html" xlink:title=" ">
<polygon fill="white" stroke="#666666" points="1372,-294 1309,-294 1309,-275 1372,-275 1372,-294"/>
<text text-anchor="middle" x="1340.5" y="-282" font-family="Helvetica,sans-Serif" font-size="10.00">Vector4.h</text>
</a>
</g>
</g>
<!-- Node3&#45;&gt;Node5 -->
<g id="edge5" class="edge">
<title>Node3&#45;&gt;Node5</title>
<path fill="none" stroke="#63b8ff" d="M875.42,-384.57C970.49,-364.32 1201.62,-315.08 1297.61,-294.64"/>
<polygon fill="#63b8ff" stroke="#63b8ff" points="1298.09,-298.11 1307.14,-292.61 1296.63,-291.27 1298.09,-298.11"/>
</g>
<!-- Node22 -->
<g id="node22" class="node">
<title>Node22</title>
<g id="a_node22"><a xlink:href="$GraphViewStyle_8h.html" xlink:title=" ">
<polygon fill="white" stroke="#666666" points="885.5,-349 781.5,-349 781.5,-330 885.5,-330 885.5,-349"/>
<text text-anchor="middle" x="833.5" y="-337" font-family="Helvetica,sans-Serif" font-size="10.00">GraphViewStyle.h</text>
</a>
</g>
</g>
<!-- Node3&#45;&gt;Node22 -->
<g id="edge27" class="edge">
<title>Node3&#45;&gt;Node22</title>
<path fill="none" stroke="#63b8ff" d="M833.5,-384.75C833.5,-378.27 833.5,-369.16 833.5,-360.9"/>
<polygon fill="#63b8ff" stroke="#63b8ff" points="837,-360.96 833.5,-350.96 830,-360.96 837,-360.96"/>
</g>
<!-- Node6 -->
<g id="node6" class="node">
<title>Node6</title>
<g id="a_node6"><a xlink:href="$Property_8h.html" xlink:title=" ">
<polygon fill="white" stroke="#666666" points="1374,-239 1309,-239 1309,-220 1374,-220 1374,-239"/>
<text text-anchor="middle" x="1341.5" y="-227" font-family="Helvetica,sans-Serif" font-size="10.00">Property.h</text>
</a>
</g>
</g>
<!-- Node5&#45;&gt;Node6 -->
<g id="edge6" class="edge">
<title>Node5&#45;&gt;Node6</title>
<path fill="none" stroke="#63b8ff" d="M1340.67,-274.75C1340.79,-268.27 1340.96,-259.16 1341.12,-250.9"/>
<polygon fill="#63b8ff" stroke="#63b8ff" points="1344.61,-251.02 1341.3,-240.96 1337.61,-250.89 1344.61,-251.02"/>
</g>
<!-- Node7 -->
<g id="node7" class="node">
<title>Node7</title>
<g id="a_node7"><a xlink:href="$logging_8h.html" xlink:title=" ">
<polygon fill="white" stroke="#666666" points="1290.5,-239 1228.5,-239 1228.5,-220 1290.5,-220 1290.5,-239"/>
<text text-anchor="middle" x="1259.5" y="-227" font-family="Helvetica,sans-Serif" font-size="10.00">logging.h</text>
</a>
</g>
</g>
<!-- Node5&#45;&gt;Node7 -->
<g id="edge7" class="edge">
<title>Node5&#45;&gt;Node7</title>
<path fill="none" stroke="#63b8ff" d="M1326.76,-274.51C1314.7,-266.62 1296.91,-254.98 1282.66,-245.65"/>
<polygon fill="#63b8ff" stroke="#63b8ff" points="1284.59,-242.73 1274.3,-240.19 1280.76,-248.59 1284.59,-242.73"/>
</g>
<!-- Node19 -->
<g id="node19" class="node">
<title>Node19</title>
<g id="a_node19"><a xlink:href="$VectorBase_8h.html" xlink:title=" ">
<polygon fill="white" stroke="#666666" points="1506,-239 1425,-239 1425,-220 1506,-220 1506,-239"/>
<text text-anchor="middle" x="1465.5" y="-227" font-family="Helvetica,sans-Serif" font-size="10.00">VectorBase.h</text>
</a>
</g>
</g>
<!-- Node5&#45;&gt;Node19 -->
<g id="edge22" class="edge">
<title>Node5&#45;&gt;Node19</title>
<path fill="none" stroke="#63b8ff" d="M1361.7,-274.51C1381.58,-266.08 1411.53,-253.38 1434.16,-243.79"/>
<polygon fill="#63b8ff" stroke="#63b8ff" points="1435.37,-247.07 1443.22,-239.95 1432.64,-240.63 1435.37,-247.07"/>
</g>
<!-- Node8 -->
<g id="node8" class="node">
<title>Node8</title>
<g id="a_node8"><a xlink:title=" ">
<polygon fill="#e0e0e0" stroke="#999999" points="1456.5,-184 1400.5,-184 1400.5,-165 1456.5,-165 1456.5,-184"/>
<text text-anchor="middle" x="1428.5" y="-172" font-family="Helvetica,sans-Serif" font-size="10.00">sstream</text>
</a>
</g>
</g>
<!-- Node7&#45;&gt;Node8 -->
<g id="edge8" class="edge">
<title>Node7&#45;&gt;Node8</title>
<path fill="none" stroke="#63b8ff" d="M1288.17,-219.51C1316.01,-210.78 1358.5,-197.45 1389.43,-187.75"/>
<polygon fill="#63b8ff" stroke="#63b8ff" points="1390.32,-191.14 1398.81,-184.81 1388.22,-184.46 1390.32,-191.14"/>
</g>
<!-- Node9 -->
<g id="node9" class="node">
<title>Node9</title>
<g id="a_node9"><a xlink:href="$LogManager_8h.html" xlink:title=" ">
<polygon fill="white" stroke="#666666" points="1248.5,-184 1162.5,-184 1162.5,-165 1248.5,-165 1248.5,-184"/>
<text text-anchor="middle" x="1205.5" y="-172" font-family="Helvetica,sans-Serif" font-size="10.00">LogManager.h</text>
</a>
</g>
</g>
<!-- Node7&#45;&gt;Node9 -->
<g id="edge9" class="edge">
<title>Node7&#45;&gt;Node9</title>
<path fill="none" stroke="#63b8ff" d="M1250.58,-219.75C1243.05,-212.35 1232.03,-201.54 1222.77,-192.45"/>
<polygon fill="#63b8ff" stroke="#63b8ff" points="1225.28,-190.01 1215.69,-185.5 1220.38,-195 1225.28,-190.01"/>
</g>
<!-- Node10 -->
<g id="node10" class="node">
<title>Node10</title>
<g id="a_node10"><a xlink:title=" ">
<polygon fill="#e0e0e0" stroke="#999999" points="742.5,-74 684.5,-74 684.5,-55 742.5,-55 742.5,-74"/>
<text text-anchor="middle" x="713.5" y="-62" font-family="Helvetica,sans-Serif" font-size="10.00">memory</text>
</a>
</g>
</g>
<!-- Node9&#45;&gt;Node10 -->
<g id="edge10" class="edge">
<title>Node9&#45;&gt;Node10</title>
<path fill="none" stroke="#63b8ff" d="M1183.2,-164.52C1161.82,-155.81 1128.72,-142.02 1100.5,-129 1083.35,-121.09 1080.57,-115.49 1062.5,-110 954.17,-77.06 819.74,-68.49 753.8,-66.27"/>
<polygon fill="#63b8ff" stroke="#63b8ff" points="754.3,-62.78 744.2,-65.98 754.09,-69.78 754.3,-62.78"/>
</g>
<!-- Node11 -->
<g id="node11" class="node">
<title>Node11</title>
<g id="a_node11"><a xlink:href="$LogManagerImplementation_8h.html" xlink:title=" ">
<polygon fill="white" stroke="#666666" points="1273.5,-129 1109.5,-129 1109.5,-110 1273.5,-110 1273.5,-129"/>
<text text-anchor="middle" x="1191.5" y="-117" font-family="Helvetica,sans-Serif" font-size="10.00">LogManagerImplementation.h</text>
</a>
</g>
</g>
<!-- Node9&#45;&gt;Node11 -->
<g id="edge11" class="edge">
<title>Node9&#45;&gt;Node11</title>
<path fill="none" stroke="#63b8ff" d="M1203.19,-164.75C1201.44,-158.11 1198.96,-148.73 1196.73,-140.31"/>
<polygon fill="#63b8ff" stroke="#63b8ff" points="1200.19,-139.68 1194.25,-130.91 1193.42,-141.47 1200.19,-139.68"/>
</g>
<!-- Node14 -->
<g id="node14" class="node">
<title>Node14</title>
<g id="a_node14"><a xlink:href="$Logger_8h.html" xlink:title=" ">
<polygon fill="white" stroke="#666666" points="1351,-129 1292,-129 1292,-110 1351,-110 1351,-129"/>
<text text-anchor="middle" x="1321.5" y="-117" font-family="Helvetica,sans-Serif" font-size="10.00">Logger.h</text>
</a>
</g>
</g>
<!-- Node9&#45;&gt;Node14 -->
<g id="edge15" class="edge">
<title>Node9&#45;&gt;Node14</title>
<path fill="none" stroke="#63b8ff" d="M1225.18,-164.51C1243.45,-156.16 1270.91,-143.61 1291.85,-134.05"/>
<polygon fill="#63b8ff" stroke="#63b8ff" points="1293.1,-137.33 1300.74,-129.99 1290.19,-130.96 1293.1,-137.33"/>
</g>
<!-- Node11&#45;&gt;Node10 -->
<g id="edge12" class="edge">
<title>Node11&#45;&gt;Node10</title>
<path fill="none" stroke="#63b8ff" d="M1110.41,-109.51C1007.17,-98.06 832.77,-78.72 754.12,-70"/>
<polygon fill="#63b8ff" stroke="#63b8ff" points="754.62,-66.54 744.29,-68.91 753.85,-73.5 754.62,-66.54"/>
</g>
<!-- Node12 -->
<g id="node12" class="node">
<title>Node12</title>
<g id="a_node12"><a xlink:title=" ">
<polygon fill="#e0e0e0" stroke="#999999" points="1182.5,-74 1134.5,-74 1134.5,-55 1182.5,-55 1182.5,-74"/>
<text text-anchor="middle" x="1158.5" y="-62" font-family="Helvetica,sans-Serif" font-size="10.00">mutex</text>
</a>
</g>
</g>
<!-- Node11&#45;&gt;Node12 -->
<g id="edge13" class="edge">
<title>Node11&#45;&gt;Node12</title>
<path fill="none" stroke="#63b8ff" d="M1186.05,-109.75C1181.73,-102.81 1175.54,-92.86 1170.12,-84.16"/>
<polygon fill="#63b8ff" stroke="#63b8ff" points="1173.12,-82.37 1164.87,-75.73 1167.18,-86.07 1173.12,-82.37"/>
</g>
<!-- Node13 -->
<g id="node13" class="node">
<title>Node13</title>
<g id="a_node13"><a xlink:title=" ">
<polygon fill="#e0e0e0" stroke="#999999" points="1248,-74 1201,-74 1201,-55 1248,-55 1248,-74"/>
<text text-anchor="middle" x="1224.5" y="-62" font-family="Helvetica,sans-Serif" font-size="10.00">vector</text>
</a>
</g>
</g>
<!-- Node11&#45;&gt;Node13 -->
<g id="edge14" class="edge">
<title>Node11&#45;&gt;Node13</title>
<path fill="none" stroke="#63b8ff" d="M1196.95,-109.75C1201.27,-102.81 1207.46,-92.86 1212.88,-84.16"/>
<polygon fill="#63b8ff" stroke="#63b8ff" points="1215.82,-86.07 1218.13,-75.73 1209.88,-82.37 1215.82,-86.07"/>
</g>
<!-- Node14&#45;&gt;Node10 -->
<g id="edge16" class="edge">
<title>Node14&#45;&gt;Node10</title>
<path fill="none" stroke="#63b8ff" d="M1291.77,-111.58C1288.65,-110.99 1285.52,-110.44 1282.5,-110 1085.99,-81.04 848.34,-70.15 754.47,-66.79"/>
<polygon fill="#63b8ff" stroke="#63b8ff" points="754.6,-63.29 744.49,-66.44 754.36,-70.28 754.6,-63.29"/>
</g>
<!-- Node14&#45;&gt;Node13 -->
<g id="edge17" class="edge">
<title>Node14&#45;&gt;Node13</title>
<path fill="none" stroke="#63b8ff" d="M1305.05,-109.51C1290.18,-101.39 1268.06,-89.3 1250.75,-79.85"/>
<polygon fill="#63b8ff" stroke="#63b8ff" points="1252.49,-76.81 1242.04,-75.08 1249.14,-82.95 1252.49,-76.81"/>
</g>
<!-- Node15 -->
<g id="node15" class="node">
<title>Node15</title>
<g id="a_node15"><a xlink:href="$LogMessage_8h.html" xlink:title=" ">
<polygon fill="white" stroke="#666666" points="1747.5,-74 1661.5,-74 1661.5,-55 1747.5,-55 1747.5,-74"/>
<text text-anchor="middle" x="1704.5" y="-62" font-family="Helvetica,sans-Serif" font-size="10.00">LogMessage.h</text>
</a>
</g>
</g>
<!-- Node14&#45;&gt;Node15 -->
<g id="edge18" class="edge">
<title>Node14&#45;&gt;Node15</title>
<path fill="none" stroke="#63b8ff" d="M1351.23,-114.39C1415.38,-105.51 1567.56,-84.45 1649.69,-73.09"/>
<polygon fill="#63b8ff" stroke="#63b8ff" points="1650.11,-76.56 1659.54,-71.72 1649.15,-69.63 1650.11,-76.56"/>
</g>
<!-- Node16 -->
<g id="node16" class="node">
<title>Node16</title>
<g id="a_node16"><a xlink:title=" ">
<polygon fill="#e0e0e0" stroke="#999999" points="1762.5,-19 1712.5,-19 1712.5,0 1762.5,0 1762.5,-19"/>
<text text-anchor="middle" x="1737.5" y="-7" font-family="Helvetica,sans-Serif" font-size="10.00">chrono</text>
</a>
</g>
</g>
<!-- Node15&#45;&gt;Node16 -->
<g id="edge19" class="edge">
<title>Node15&#45;&gt;Node16</title>
<path fill="none" stroke="#63b8ff" d="M1709.95,-54.75C1714.27,-47.81 1720.46,-37.86 1725.88,-29.16"/>
<polygon fill="#63b8ff" stroke="#63b8ff" points="1728.82,-31.07 1731.13,-20.73 1722.88,-27.37 1728.82,-31.07"/>
</g>
<!-- Node17 -->
<g id="node17" class="node">
<title>Node17</title>
<g id="a_node17"><a xlink:title=" ">
<polygon fill="#e0e0e0" stroke="#999999" points="644.5,-19 600.5,-19 600.5,0 644.5,0 644.5,-19"/>
<text text-anchor="middle" x="622.5" y="-7" font-family="Helvetica,sans-Serif" font-size="10.00">string</text>
</a>
</g>
</g>
<!-- Node15&#45;&gt;Node17 -->
<g id="edge20" class="edge">
<title>Node15&#45;&gt;Node17</title>
<path fill="none" stroke="#63b8ff" d="M1661.3,-56.57C1656.65,-55.97 1651.98,-55.43 1647.5,-55 1259.32,-17.73 785.41,-11.66 656.32,-10.68"/>
<polygon fill="#63b8ff" stroke="#63b8ff" points="656.46,-7.19 646.43,-10.62 656.41,-14.19 656.46,-7.19"/>
</g>
<!-- Node18 -->
<g id="node18" class="node">
<title>Node18</title>
<g id="a_node18"><a xlink:title=" ">
<polygon fill="#e0e0e0" stroke="#999999" points="1694.5,-19 1646.5,-19 1646.5,0 1694.5,0 1694.5,-19"/>
<text text-anchor="middle" x="1670.5" y="-7" font-family="Helvetica,sans-Serif" font-size="10.00">thread</text>
</a>
</g>
</g>
<!-- Node15&#45;&gt;Node18 -->
<g id="edge21" class="edge">
<title>Node15&#45;&gt;Node18</title>
<path fill="none" stroke="#63b8ff" d="M1698.89,-54.75C1694.38,-47.73 1687.91,-37.64 1682.29,-28.87"/>
<polygon fill="#63b8ff" stroke="#63b8ff" points="1685.4,-27.24 1677.05,-20.72 1679.51,-31.02 1685.4,-27.24"/>
</g>
<!-- Node19&#45;&gt;Node8 -->
<g id="edge24" class="edge">
<title>Node19&#45;&gt;Node8</title>
<path fill="none" stroke="#63b8ff" d="M1459.39,-219.75C1454.49,-212.73 1447.45,-202.64 1441.33,-193.87"/>
<polygon fill="#63b8ff" stroke="#63b8ff" points="1444.2,-191.88 1435.61,-185.68 1438.46,-195.89 1444.2,-191.88"/>
</g>
<!-- Node19&#45;&gt;Node17 -->
<g id="edge26" class="edge">
<title>Node19&#45;&gt;Node17</title>
<path fill="none" stroke="#63b8ff" d="M1506.47,-228.77C1541.42,-226.55 1589.82,-217.12 1614.5,-184 1648.75,-138.02 1654.12,-96.44 1614.5,-55 1580.67,-19.62 825.66,-11.99 656.1,-10.72"/>
<polygon fill="#63b8ff" stroke="#63b8ff" points="656.24,-7.22 646.22,-10.65 656.19,-14.22 656.24,-7.22"/>
</g>
<!-- Node20 -->
<g id="node20" class="node">
<title>Node20</title>
<g id="a_node20"><a xlink:title=" ">
<polygon fill="#e0e0e0" stroke="#999999" points="1522,-184 1475,-184 1475,-165 1522,-165 1522,-184"/>
<text text-anchor="middle" x="1498.5" y="-172" font-family="Helvetica,sans-Serif" font-size="10.00">cmath</text>
</a>
</g>
</g>
<!-- Node19&#45;&gt;Node20 -->
<g id="edge23" class="edge">
<title>Node19&#45;&gt;Node20</title>
<path fill="none" stroke="#63b8ff" d="M1470.95,-219.75C1475.27,-212.81 1481.46,-202.86 1486.88,-194.16"/>
<polygon fill="#63b8ff" stroke="#63b8ff" points="1489.82,-196.07 1492.13,-185.73 1483.88,-192.37 1489.82,-196.07"/>
</g>
<!-- Node21 -->
<g id="node21" class="node">
<title>Node21</title>
<g id="a_node21"><a xlink:title=" ">
<polygon fill="#e0e0e0" stroke="#999999" points="1605,-184 1540,-184 1540,-165 1605,-165 1605,-184"/>
<text text-anchor="middle" x="1572.5" y="-172" font-family="Helvetica,sans-Serif" font-size="10.00">stdexcept</text>
</a>
</g>
</g>
<!-- Node19&#45;&gt;Node21 -->
<g id="edge25" class="edge">
<title>Node19&#45;&gt;Node21</title>
<path fill="none" stroke="#63b8ff" d="M1483.65,-219.51C1500.28,-211.27 1525.14,-198.96 1544.35,-189.45"/>
<polygon fill="#63b8ff" stroke="#63b8ff" points="1545.85,-192.6 1553.26,-185.03 1542.75,-186.33 1545.85,-192.6"/>
</g>
<!-- Node22&#45;&gt;Node10 -->
<g id="edge29" class="edge">
<title>Node22&#45;&gt;Node10</title>
<path fill="none" stroke="#63b8ff" d="M781.22,-330.9C630.29,-308.78 204.5,-245.09 204.5,-230.5 204.5,-230.5 204.5,-230.5 204.5,-173.5 204.5,-18.8 361.78,-103.07 635.5,-74 647.72,-72.7 661,-71.26 673.09,-69.95"/>
<polygon fill="#63b8ff" stroke="#63b8ff" points="673.18,-73.46 682.74,-68.89 672.42,-66.5 673.18,-73.46"/>
</g>
<!-- Node23 -->
<g id="node23" class="node">
<title>Node23</title>
<g id="a_node23"><a xlink:title=" ">
<polygon fill="#e0e0e0" stroke="#999999" points="1053.5,-129 1015.5,-129 1015.5,-110 1053.5,-110 1053.5,-129"/>
<text text-anchor="middle" x="1034.5" y="-117" font-family="Helvetica,sans-Serif" font-size="10.00">map</text>
</a>
</g>
</g>
<!-- Node22&#45;&gt;Node23 -->
<g id="edge28" class="edge">
<title>Node22&#45;&gt;Node23</title>
<path fill="none" stroke="#63b8ff" d="M850.14,-329.54C878.73,-313.67 938.15,-278.54 980.5,-239 1003.18,-217.82 1010.92,-212.36 1023.5,-184 1029.63,-170.19 1032.35,-153.29 1033.56,-140.39"/>
<polygon fill="#63b8ff" stroke="#63b8ff" points="1037.03,-140.82 1034.22,-130.61 1030.05,-140.35 1037.03,-140.82"/>
</g>
<!-- Node24 -->
<g id="node24" class="node">
<title>Node24</title>
<g id="a_node24"><a xlink:href="$Vector2_8h.html" xlink:title=" ">
<polygon fill="white" stroke="#666666" points="1291,-294 1228,-294 1228,-275 1291,-275 1291,-294"/>
<text text-anchor="middle" x="1259.5" y="-282" font-family="Helvetica,sans-Serif" font-size="10.00">Vector2.h</text>
</a>
</g>
</g>
<!-- Node22&#45;&gt;Node24 -->
<g id="edge30" class="edge">
<title>Node22&#45;&gt;Node24</title>
<path fill="none" stroke="#63b8ff" d="M885.74,-332C970.86,-321.41 1137.9,-300.63 1216.58,-290.84"/>
<polygon fill="#63b8ff" stroke="#63b8ff" points="1216.53,-294.37 1226.02,-289.67 1215.67,-287.43 1216.53,-294.37"/>
</g>
<!-- Node25 -->
<g id="node25" class="node">
<title>Node25</title>
<g id="a_node25"><a xlink:href="$AccessKind_8h.html" xlink:title=" ">
<polygon fill="white" stroke="#666666" points="81,-294 0,-294 0,-275 81,-275 81,-294"/>
<text text-anchor="middle" x="40.5" y="-282" font-family="Helvetica,sans-Serif" font-size="10.00">AccessKind.h</text>
</a>
</g>
</g>
<!-- Node22&#45;&gt;Node25 -->
<g id="edge34" class="edge">
<title>Node22&#45;&gt;Node25</title>
<path fill="none" stroke="#63b8ff" d="M781.29,-330.92C778.32,-330.59 775.37,-330.28 772.5,-330 473.6,-301.35 393.51,-327.39 92.61,-294.22"/>
<polygon fill="#63b8ff" stroke="#63b8ff" points="93.19,-290.76 82.86,-293.13 92.41,-297.72 93.19,-290.76"/>
</g>
<!-- Node26 -->
<g id="node26" class="node">
<title>Node26</title>
<g id="a_node26"><a xlink:href="$GroupType_8h.html" xlink:title=" ">
<polygon fill="white" stroke="#666666" points="176,-294 99,-294 99,-275 176,-275 176,-294"/>
<text text-anchor="middle" x="137.5" y="-282" font-family="Helvetica,sans-Serif" font-size="10.00">GroupType.h</text>
</a>
</g>
</g>
<!-- Node22&#45;&gt;Node26 -->
<g id="edge36" class="edge">
<title>Node22&#45;&gt;Node26</title>
<path fill="none" stroke="#63b8ff" d="M781.29,-330.96C778.32,-330.61 775.37,-330.29 772.5,-330 514.64,-304.1 448.08,-322.55 190.5,-294 189.49,-293.89 188.46,-293.77 187.43,-293.65"/>
<polygon fill="#63b8ff" stroke="#63b8ff" points="188.1,-290.2 177.73,-292.36 187.18,-297.14 188.1,-290.2"/>
</g>
<!-- Node27 -->
<g id="node27" class="node">
<title>Node27</title>
<g id="a_node27"><a xlink:href="$Node_8h.html" xlink:title=" ">
<polygon fill="white" stroke="#666666" points="797,-294 746,-294 746,-275 797,-275 797,-294"/>
<text text-anchor="middle" x="771.5" y="-282" font-family="Helvetica,sans-Serif" font-size="10.00">Node.h</text>
</a>
</g>
</g>
<!-- Node22&#45;&gt;Node27 -->
<g id="edge38" class="edge">
<title>Node22&#45;&gt;Node27</title>
<path fill="none" stroke="#63b8ff" d="M822.98,-329.51C814.11,-321.93 801.19,-310.88 790.51,-301.75"/>
<polygon fill="#63b8ff" stroke="#63b8ff" points="792.89,-299.18 783.01,-295.34 788.34,-304.5 792.89,-299.18"/>
</g>
<!-- Node24&#45;&gt;Node6 -->
<g id="edge31" class="edge">
<title>Node24&#45;&gt;Node6</title>
<path fill="none" stroke="#63b8ff" d="M1273.41,-274.51C1285.74,-266.54 1303.97,-254.75 1318.47,-245.38"/>
<polygon fill="#63b8ff" stroke="#63b8ff" points="1320.03,-248.55 1326.52,-240.18 1316.23,-242.67 1320.03,-248.55"/>
</g>
<!-- Node24&#45;&gt;Node7 -->
<g id="edge32" class="edge">
<title>Node24&#45;&gt;Node7</title>
<path fill="none" stroke="#63b8ff" d="M1259.5,-274.75C1259.5,-268.27 1259.5,-259.16 1259.5,-250.9"/>
<polygon fill="#63b8ff" stroke="#63b8ff" points="1263,-250.96 1259.5,-240.96 1256,-250.96 1263,-250.96"/>
</g>
<!-- Node24&#45;&gt;Node19 -->
<g id="edge33" class="edge">
<title>Node24&#45;&gt;Node19</title>
<path fill="none" stroke="#63b8ff" d="M1291.24,-275.33C1325.54,-266.51 1380.54,-252.36 1419.57,-242.32"/>
<polygon fill="#63b8ff" stroke="#63b8ff" points="1420.35,-245.73 1429.16,-239.85 1418.6,-238.95 1420.35,-245.73"/>
</g>
<!-- Node25&#45;&gt;Node17 -->
<g id="edge35" class="edge">
<title>Node25&#45;&gt;Node17</title>
<path fill="none" stroke="#63b8ff" d="M41.33,-274.55C42.98,-256.06 46.5,-212.31 46.5,-175.5 46.5,-175.5 46.5,-175.5 46.5,-118.5 46.5,-77.47 76.09,-71.84 113.5,-55 198.82,-16.6 489.15,-11.27 588.69,-10.58"/>
<polygon fill="#63b8ff" stroke="#63b8ff" points="588.63,-14.08 598.61,-10.53 588.59,-7.08 588.63,-14.08"/>
</g>
<!-- Node26&#45;&gt;Node17 -->
<g id="edge37" class="edge">
<title>Node26&#45;&gt;Node17</title>
<path fill="none" stroke="#63b8ff" d="M130.56,-274.54C117.49,-256.74 90.5,-215.17 90.5,-175.5 90.5,-175.5 90.5,-175.5 90.5,-118.5 90.5,-77.15 120.8,-71.99 158.5,-55 235.54,-20.28 495.69,-12.59 588.91,-10.94"/>
<polygon fill="#63b8ff" stroke="#63b8ff" points="588.73,-14.44 598.67,-10.78 588.61,-7.44 588.73,-14.44"/>
</g>
<!-- Node27&#45;&gt;Node4 -->
<g id="edge40" class="edge">
<title>Node27&#45;&gt;Node4</title>
<path fill="none" stroke="#63b8ff" d="M766.35,-274.55C759.6,-261.53 749.83,-237.08 760.5,-220 779.41,-189.74 873.67,-152.49 927.2,-133.29"/>
<polygon fill="#63b8ff" stroke="#63b8ff" points="928.28,-136.62 936.54,-129.98 925.94,-130.02 928.28,-136.62"/>
</g>
<!-- Node27&#45;&gt;Node17 -->
<g id="edge42" class="edge">
<title>Node27&#45;&gt;Node17</title>
<path fill="none" stroke="#63b8ff" d="M745.9,-281.96C626.31,-274.43 128.5,-239.24 128.5,-175.5 128.5,-175.5 128.5,-175.5 128.5,-118.5 128.5,-24.05 477.53,-12.07 588.83,-10.66"/>
<polygon fill="#63b8ff" stroke="#63b8ff" points="588.84,-14.16 598.8,-10.55 588.77,-7.16 588.84,-14.16"/>
</g>
<!-- Node27&#45;&gt;Node23 -->
<g id="edge41" class="edge">
<title>Node27&#45;&gt;Node23</title>
<path fill="none" stroke="#63b8ff" d="M797.23,-283.13C835.35,-281.38 907.57,-273.37 956.5,-239 992.33,-213.83 1016.01,-166.47 1027.14,-139.88"/>
<polygon fill="#63b8ff" stroke="#63b8ff" points="1030.35,-141.27 1030.81,-130.69 1023.85,-138.68 1030.35,-141.27"/>
</g>
<!-- Node28 -->
<g id="node28" class="node">
<title>Node28</title>
<g id="a_node28"><a xlink:title=" ">
<polygon fill="#e0e0e0" stroke="#999999" points="833.5,-239 769.5,-239 769.5,-220 833.5,-220 833.5,-239"/>
<text text-anchor="middle" x="801.5" y="-227" font-family="Helvetica,sans-Serif" font-size="10.00">algorithm</text>
</a>
</g>
</g>
<!-- Node27&#45;&gt;Node28 -->
<g id="edge39" class="edge">
<title>Node27&#45;&gt;Node28</title>
<path fill="none" stroke="#63b8ff" d="M776.45,-274.75C780.34,-267.88 785.89,-258.08 790.78,-249.45"/>
<polygon fill="#63b8ff" stroke="#63b8ff" points="793.81,-251.19 795.69,-240.76 787.72,-247.74 793.81,-251.19"/>
</g>
<!-- Node29 -->
<g id="node29" class="node">
<title>Node29</title>
<g id="a_node29"><a xlink:href="$DefinitionKind_8h.html" xlink:title=" ">
<polygon fill="white" stroke="#666666" points="947,-239 852,-239 852,-220 947,-220 947,-239"/>
<text text-anchor="middle" x="899.5" y="-227" font-family="Helvetica,sans-Serif" font-size="10.00">DefinitionKind.h</text>
</a>
</g>
</g>
<!-- Node27&#45;&gt;Node29 -->
<g id="edge43" class="edge">
<title>Node27&#45;&gt;Node29</title>
<path fill="none" stroke="#63b8ff" d="M793.21,-274.51C813.66,-266.04 844.52,-253.27 867.73,-243.66"/>
<polygon fill="#63b8ff" stroke="#63b8ff" points="868.81,-247 876.71,-239.94 866.13,-240.53 868.81,-247"/>
</g>
<!-- Node30 -->
<g id="node30" class="node">
<title>Node30</title>
<g id="a_node30"><a xlink:href="$Edge_8h.html" xlink:title=" ">
<polygon fill="white" stroke="#666666" points="383.5,-239 333.5,-239 333.5,-220 383.5,-220 383.5,-239"/>
<text text-anchor="middle" x="358.5" y="-227" font-family="Helvetica,sans-Serif" font-size="10.00">Edge.h</text>
</a>
</g>
</g>
<!-- Node27&#45;&gt;Node30 -->
<g id="edge44" class="edge">
<title>Node27&#45;&gt;Node30</title>
<path fill="none" stroke="#63b8ff" d="M745.67,-280.18C674.8,-271.09 477.21,-245.73 395.05,-235.19"/>
<polygon fill="#63b8ff" stroke="#63b8ff" points="395.66,-231.74 385.3,-233.94 394.77,-238.68 395.66,-231.74"/>
</g>
<!-- Node31 -->
<g id="node31" class="node">
<title>Node31</title>
<g id="a_node31"><a xlink:href="$Token_8h.html" xlink:title=" ">
<polygon fill="white" stroke="#666666" points="437,-184 384,-184 384,-165 437,-165 437,-184"/>
<text text-anchor="middle" x="410.5" y="-172" font-family="Helvetica,sans-Serif" font-size="10.00">Token.h</text>
</a>
</g>
</g>
<!-- Node27&#45;&gt;Node31 -->
<g id="edge78" class="edge">
<title>Node27&#45;&gt;Node31</title>
<path fill="none" stroke="#63b8ff" d="M745.54,-275.73C682.62,-256.91 521.77,-208.79 448.23,-186.79"/>
<polygon fill="#63b8ff" stroke="#63b8ff" points="449.23,-183.43 438.65,-183.92 447.23,-190.14 449.23,-183.43"/>
</g>
<!-- Node36 -->
<g id="node36" class="node">
<title>Node36</title>
<g id="a_node36"><a xlink:href="$NameHierarchy_8h.html" xlink:title=" ">
<polygon fill="white" stroke="#666666" points="1382,-184 1281,-184 1281,-165 1382,-165 1382,-184"/>
<text text-anchor="middle" x="1331.5" y="-172" font-family="Helvetica,sans-Serif" font-size="10.00">NameHierarchy.h</text>
</a>
</g>
</g>
<!-- Node27&#45;&gt;Node36 -->
<g id="edge55" class="edge">
<title>Node27&#45;&gt;Node36</title>
<path fill="none" stroke="#63b8ff" d="M797.35,-279.3C843.6,-271.73 943.54,-255.06 1027.5,-239 1116.3,-222.01 1219.21,-200.03 1279.64,-186.89"/>
<polygon fill="#63b8ff" stroke="#63b8ff" points="1280.27,-190.33 1289.3,-184.79 1278.78,-183.5 1280.27,-190.33"/>
</g>
<!-- Node39 -->
<g id="node39" class="node">
<title>Node39</title>
<g id="a_node39"><a xlink:href="$NodeType_8h.html" xlink:title=" ">
<polygon fill="white" stroke="#666666" points="740.5,-184 666.5,-184 666.5,-165 740.5,-165 740.5,-184"/>
<text text-anchor="middle" x="703.5" y="-172" font-family="Helvetica,sans-Serif" font-size="10.00">NodeType.h</text>
</a>
</g>
</g>
<!-- Node27&#45;&gt;Node39 -->
<g id="edge64" class="edge">
<title>Node27&#45;&gt;Node39</title>
<path fill="none" stroke="#63b8ff" d="M760.41,-274.64C750.62,-266.32 736.54,-253.08 727.5,-239 718.82,-225.47 712.57,-208.33 708.63,-195.27"/>
<polygon fill="#63b8ff" stroke="#63b8ff" points="712.03,-194.4 705.97,-185.7 705.28,-196.28 712.03,-194.4"/>
</g>
<!-- Node30&#45;&gt;Node10 -->
<g id="edge45" class="edge">
<title>Node30&#45;&gt;Node10</title>
<path fill="none" stroke="#63b8ff" d="M347.59,-219.52C323.14,-198.35 268.47,-144.53 299.5,-110 324.6,-82.07 598.17,-78.03 635.5,-74 647.71,-72.68 661,-71.24 673.09,-69.92"/>
<polygon fill="#63b8ff" stroke="#63b8ff" points="673.17,-73.43 682.74,-68.87 672.41,-66.47 673.17,-73.43"/>
</g>
<!-- Node30&#45;&gt;Node17 -->
<g id="edge46" class="edge">
<title>Node30&#45;&gt;Node17</title>
<path fill="none" stroke="#63b8ff" d="M339.45,-219.58C325.58,-212.07 307.53,-199.99 297.5,-184 266.17,-134.05 277.93,-85.33 328.5,-55 371.93,-28.95 521.51,-16.69 589,-12.39"/>
<polygon fill="#63b8ff" stroke="#63b8ff" points="588.95,-15.89 598.71,-11.79 588.52,-8.91 588.95,-15.89"/>
</g>
<!-- Node30&#45;&gt;Node31 -->
<g id="edge47" class="edge">
<title>Node30&#45;&gt;Node31</title>
<path fill="none" stroke="#63b8ff" d="M367.09,-219.75C374.34,-212.35 384.95,-201.54 393.87,-192.45"/>
<polygon fill="#63b8ff" stroke="#63b8ff" points="396.16,-195.11 400.67,-185.52 391.16,-190.21 396.16,-195.11"/>
</g>
<!-- Node31&#45;&gt;Node13 -->
<g id="edge50" class="edge">
<title>Node31&#45;&gt;Node13</title>
<path fill="none" stroke="#63b8ff" d="M437.27,-170.12C487.8,-163.56 600.59,-148.06 694.5,-129 728.62,-122.08 736.16,-115.72 770.5,-110 952.12,-79.73 1004.34,-104.52 1189.58,-74"/>
<polygon fill="#63b8ff" stroke="#63b8ff" points="1190.04,-77.47 1199.32,-72.36 1188.87,-70.57 1190.04,-77.47"/>
</g>
<!-- Node31&#45;&gt;Node17 -->
<g id="edge48" class="edge">
<title>Node31&#45;&gt;Node17</title>
<path fill="none" stroke="#63b8ff" d="M383.78,-169.74C345.4,-163.02 281.19,-146.14 299.5,-110 318.18,-73.13 336.51,-71.29 374.5,-55 446.77,-24.01 539.83,-14.6 588.85,-11.74"/>
<polygon fill="#63b8ff" stroke="#63b8ff" points="589,-15.24 598.81,-11.23 588.64,-8.25 589,-15.24"/>
</g>
<!-- Node32 -->
<g id="node32" class="node">
<title>Node32</title>
<g id="a_node32"><a xlink:title=" ">
<polygon fill="#e0e0e0" stroke="#999999" points="366,-129 309,-129 309,-110 366,-110 366,-129"/>
<text text-anchor="middle" x="337.5" y="-117" font-family="Helvetica,sans-Serif" font-size="10.00">typeinfo</text>
</a>
</g>
</g>
<!-- Node31&#45;&gt;Node32 -->
<g id="edge49" class="edge">
<title>Node31&#45;&gt;Node32</title>
<path fill="none" stroke="#63b8ff" d="M398.12,-164.51C387.35,-156.7 371.53,-145.21 358.75,-135.93"/>
<polygon fill="#63b8ff" stroke="#63b8ff" points="361.07,-133.29 350.93,-130.25 356.96,-138.95 361.07,-133.29"/>
</g>
<!-- Node33 -->
<g id="node33" class="node">
<title>Node33</title>
<g id="a_node33"><a xlink:href="$TokenComponent_8h.html" xlink:title=" ">
<polygon fill="white" stroke="#666666" points="565.5,-129 455.5,-129 455.5,-110 565.5,-110 565.5,-129"/>
<text text-anchor="middle" x="510.5" y="-117" font-family="Helvetica,sans-Serif" font-size="10.00">TokenComponent.h</text>
</a>
</g>
</g>
<!-- Node31&#45;&gt;Node33 -->
<g id="edge51" class="edge">
<title>Node31&#45;&gt;Node33</title>
<path fill="none" stroke="#63b8ff" d="M427.46,-164.51C442.86,-156.35 465.81,-144.19 483.69,-134.71"/>
<polygon fill="#63b8ff" stroke="#63b8ff" points="485.25,-137.84 492.45,-130.07 481.97,-131.66 485.25,-137.84"/>
</g>
<!-- Node34 -->
<g id="node34" class="node">
<title>Node34</title>
<g id="a_node34"><a xlink:href="$types_8h.html" xlink:title=" ">
<polygon fill="white" stroke="#666666" points="437,-129 384,-129 384,-110 437,-110 437,-129"/>
<text text-anchor="middle" x="410.5" y="-117" font-family="Helvetica,sans-Serif" font-size="10.00">types.h</text>
</a>
</g>
</g>
<!-- Node31&#45;&gt;Node34 -->
<g id="edge53" class="edge">
<title>Node31&#45;&gt;Node34</title>
<path fill="none" stroke="#63b8ff" d="M410.5,-164.75C410.5,-158.27 410.5,-149.16 410.5,-140.9"/>
<polygon fill="#63b8ff" stroke="#63b8ff" points="414,-140.96 410.5,-130.96 407,-140.96 414,-140.96"/>
</g>
<!-- Node33&#45;&gt;Node10 -->
<g id="edge52" class="edge">
<title>Node33&#45;&gt;Node10</title>
<path fill="none" stroke="#63b8ff" d="M544.94,-109.51C580.41,-100.25 635.65,-85.82 673.15,-76.03"/>
<polygon fill="#63b8ff" stroke="#63b8ff" points="673.92,-79.45 682.71,-73.54 672.15,-72.68 673.92,-79.45"/>
</g>
<!-- Node35 -->
<g id="node35" class="node">
<title>Node35</title>
<g id="a_node35"><a xlink:title=" ">
<polygon fill="#e0e0e0" stroke="#999999" points="437,-74 384,-74 384,-55 437,-55 437,-74"/>
<text text-anchor="middle" x="410.5" y="-62" font-family="Helvetica,sans-Serif" font-size="10.00">cstddef</text>
</a>
</g>
</g>
<!-- Node34&#45;&gt;Node35 -->
<g id="edge54" class="edge">
<title>Node34&#45;&gt;Node35</title>
<path fill="none" stroke="#63b8ff" d="M410.5,-109.75C410.5,-103.27 410.5,-94.16 410.5,-85.9"/>
<polygon fill="#63b8ff" stroke="#63b8ff" points="414,-85.96 410.5,-75.96 407,-85.96 414,-85.96"/>
</g>
<!-- Node36&#45;&gt;Node13 -->
<g id="edge57" class="edge">
<title>Node36&#45;&gt;Node13</title>
<path fill="none" stroke="#63b8ff" d="M1341.04,-164.7C1353.77,-151.88 1373.3,-127.66 1360.5,-110 1337.58,-78.38 1291.53,-68.82 1259.4,-66.14"/>
<polygon fill="#63b8ff" stroke="#63b8ff" points="1259.97,-62.67 1249.77,-65.53 1259.53,-69.66 1259.97,-62.67"/>
</g>
<!-- Node36&#45;&gt;Node17 -->
<g id="edge56" class="edge">
<title>Node36&#45;&gt;Node17</title>
<path fill="none" stroke="#63b8ff" d="M1381.19,-164.52C1431.89,-154.86 1504.29,-139.47 1512.5,-129 1517.71,-122.35 1517.64,-116.7 1512.5,-110 1454.78,-34.85 1400.01,-70.37 1306.5,-55 1059.35,-14.37 756.25,-10.47 656.26,-10.37"/>
<polygon fill="#63b8ff" stroke="#63b8ff" points="656.34,-6.87 646.34,-10.37 656.34,-13.87 656.34,-6.87"/>
</g>
<!-- Node37 -->
<g id="node37" class="node">
<title>Node37</title>
<g id="a_node37"><a xlink:href="$NameDelimiterType_8h.html" xlink:title=" ">
<polygon fill="white" stroke="#666666" points="1605,-74 1482,-74 1482,-55 1605,-55 1605,-74"/>
<text text-anchor="middle" x="1543.5" y="-62" font-family="Helvetica,sans-Serif" font-size="10.00">NameDelimiterType.h</text>
</a>
</g>
</g>
<!-- Node36&#45;&gt;Node37 -->
<g id="edge58" class="edge">
<title>Node36&#45;&gt;Node37</title>
<path fill="none" stroke="#63b8ff" d="M1382.44,-166.32C1442.41,-157.35 1535.22,-141.64 1545.5,-129 1555.3,-116.96 1553.72,-98.96 1550.31,-85.19"/>
<polygon fill="#63b8ff" stroke="#63b8ff" points="1553.74,-84.47 1547.52,-75.9 1547.04,-86.48 1553.74,-84.47"/>
</g>
<!-- Node38 -->
<g id="node38" class="node">
<title>Node38</title>
<g id="a_node38"><a xlink:href="$NameElement_8h.html" xlink:title=" ">
<polygon fill="white" stroke="#666666" points="1503,-129 1408,-129 1408,-110 1503,-110 1503,-129"/>
<text text-anchor="middle" x="1455.5" y="-117" font-family="Helvetica,sans-Serif" font-size="10.00">NameElement.h</text>
</a>
</g>
</g>
<!-- Node36&#45;&gt;Node38 -->
<g id="edge60" class="edge">
<title>Node36&#45;&gt;Node38</title>
<path fill="none" stroke="#63b8ff" d="M1352.53,-164.51C1372.25,-156.08 1401.97,-143.38 1424.41,-133.79"/>
<polygon fill="#63b8ff" stroke="#63b8ff" points="1425.56,-137.1 1433.38,-129.95 1422.81,-130.66 1425.56,-137.1"/>
</g>
<!-- Node37&#45;&gt;Node17 -->
<g id="edge59" class="edge">
<title>Node37&#45;&gt;Node17</title>
<path fill="none" stroke="#63b8ff" d="M1481.73,-56.28C1476.92,-55.82 1472.13,-55.38 1467.5,-55 1152.48,-29.11 770.09,-15.31 656.1,-11.56"/>
<polygon fill="#63b8ff" stroke="#63b8ff" points="656.35,-8.07 646.24,-11.24 656.12,-15.06 656.35,-8.07"/>
</g>
<!-- Node38&#45;&gt;Node10 -->
<g id="edge61" class="edge">
<title>Node38&#45;&gt;Node10</title>
<path fill="none" stroke="#63b8ff" d="M1407.67,-114.03C1392.59,-112.67 1375.85,-111.21 1360.5,-110 1131.34,-91.87 856.18,-74.35 754.15,-68"/>
<polygon fill="#63b8ff" stroke="#63b8ff" points="754.57,-64.52 744.37,-67.4 754.13,-71.51 754.57,-64.52"/>
</g>
<!-- Node38&#45;&gt;Node13 -->
<g id="edge63" class="edge">
<title>Node38&#45;&gt;Node13</title>
<path fill="none" stroke="#63b8ff" d="M1416.31,-109.51C1372.31,-99.41 1301.55,-83.18 1259.39,-73.5"/>
<polygon fill="#63b8ff" stroke="#63b8ff" points="1260.31,-70.12 1249.78,-71.3 1258.74,-76.95 1260.31,-70.12"/>
</g>
<!-- Node38&#45;&gt;Node17 -->
<g id="edge62" class="edge">
<title>Node38&#45;&gt;Node17</title>
<path fill="none" stroke="#63b8ff" d="M1433.68,-109.58C1397.68,-95.31 1323.26,-67.66 1257.5,-55 1031.12,-11.43 752.03,-9.32 656.46,-10.03"/>
<polygon fill="#63b8ff" stroke="#63b8ff" points="656.45,-6.53 646.48,-10.12 656.51,-13.53 656.45,-6.53"/>
</g>
<!-- Node39&#45;&gt;Node4 -->
<g id="edge65" class="edge">
<title>Node39&#45;&gt;Node4</title>
<path fill="none" stroke="#63b8ff" d="M740.89,-165.91C788.36,-156.27 870.13,-139.66 920.53,-129.43"/>
<polygon fill="#63b8ff" stroke="#63b8ff" points="921.12,-132.88 930.23,-127.46 919.73,-126.02 921.12,-132.88"/>
</g>
<!-- Node39&#45;&gt;Node10 -->
<g id="edge67" class="edge">
<title>Node39&#45;&gt;Node10</title>
<path fill="none" stroke="#63b8ff" d="M704.32,-164.66C705.9,-147.57 709.42,-109.61 711.61,-85.92"/>
<polygon fill="#63b8ff" stroke="#63b8ff" points="715.09,-86.25 712.53,-75.97 708.12,-85.6 715.09,-86.25"/>
</g>
<!-- Node39&#45;&gt;Node13 -->
<g id="edge69" class="edge">
<title>Node39&#45;&gt;Node13</title>
<path fill="none" stroke="#63b8ff" d="M740.93,-166.72C778.01,-159.43 836.12,-146.51 884.5,-129 902.63,-122.44 905.04,-115.58 923.5,-110 1035.06,-76.29 1071.35,-95.76 1189.48,-74.12"/>
<polygon fill="#63b8ff" stroke="#63b8ff" points="1190.13,-77.56 1199.3,-72.25 1188.82,-70.68 1190.13,-77.56"/>
</g>
<!-- Node39&#45;&gt;Node23 -->
<g id="edge66" class="edge">
<title>Node39&#45;&gt;Node23</title>
<path fill="none" stroke="#63b8ff" d="M740.67,-169.84C796.06,-164.01 903.67,-151.17 1003.79,-129.32"/>
<polygon fill="#63b8ff" stroke="#63b8ff" points="1004.54,-132.74 1013.54,-127.15 1003.02,-125.9 1004.54,-132.74"/>
</g>
<!-- Node39&#45;&gt;Node34 -->
<g id="edge77" class="edge">
<title>Node39&#45;&gt;Node34</title>
<path fill="none" stroke="#63b8ff" d="M666.34,-167.79C618.4,-160.26 532.18,-146.19 448.45,-129.29"/>
<polygon fill="#63b8ff" stroke="#63b8ff" points="449.18,-125.86 438.68,-127.3 447.78,-132.72 449.18,-125.86"/>
</g>
<!-- Node40 -->
<g id="node40" class="node">
<title>Node40</title>
<g id="a_node40"><a xlink:title=" ">
<polygon fill="#e0e0e0" stroke="#999999" points="811.5,-129 779.5,-129 779.5,-110 811.5,-110 811.5,-129"/>
<text text-anchor="middle" x="795.5" y="-117" font-family="Helvetica,sans-Serif" font-size="10.00">set</text>
</a>
</g>
</g>
<!-- Node39&#45;&gt;Node40 -->
<g id="edge68" class="edge">
<title>Node39&#45;&gt;Node40</title>
<path fill="none" stroke="#63b8ff" d="M719.11,-164.51C733.2,-156.39 754.19,-144.3 770.6,-134.85"/>
<polygon fill="#63b8ff" stroke="#63b8ff" points="771.89,-138.14 778.81,-130.11 768.4,-132.07 771.89,-138.14"/>
</g>
<!-- Node41 -->
<g id="node41" class="node">
<title>Node41</title>
<g id="a_node41"><a xlink:href="$FilePath_8h.html" xlink:title=" ">
<polygon fill="white" stroke="#666666" points="685.5,-129 621.5,-129 621.5,-110 685.5,-110 685.5,-129"/>
<text text-anchor="middle" x="653.5" y="-117" font-family="Helvetica,sans-Serif" font-size="10.00">FilePath.h</text>
</a>
</g>
</g>
<!-- Node39&#45;&gt;Node41 -->
<g id="edge70" class="edge">
<title>Node39&#45;&gt;Node41</title>
<path fill="none" stroke="#63b8ff" d="M695.24,-164.75C688.34,-157.43 678.28,-146.76 669.76,-137.74"/>
<polygon fill="#63b8ff" stroke="#63b8ff" points="672.38,-135.42 662.97,-130.54 667.29,-140.22 672.38,-135.42"/>
</g>
<!-- Node42 -->
<g id="node42" class="node">
<title>Node42</title>
<g id="a_node42"><a xlink:href="$NodeKind_8h.html" xlink:title=" ">
<polygon fill="white" stroke="#666666" points="626,-74 553,-74 553,-55 626,-55 626,-74"/>
<text text-anchor="middle" x="589.5" y="-62" font-family="Helvetica,sans-Serif" font-size="10.00">NodeKind.h</text>
</a>
</g>
</g>
<!-- Node39&#45;&gt;Node42 -->
<g id="edge74" class="edge">
<title>Node39&#45;&gt;Node42</title>
<path fill="none" stroke="#63b8ff" d="M671.49,-164.61C652.08,-157.73 628.13,-146.4 612.5,-129 601.58,-116.84 595.74,-99.11 592.67,-85.47"/>
<polygon fill="#63b8ff" stroke="#63b8ff" points="596.15,-85.03 590.86,-75.86 589.28,-86.33 596.15,-85.03"/>
</g>
<!-- Node43 -->
<g id="node43" class="node">
<title>Node43</title>
<g id="a_node43"><a xlink:href="$Tree_8h.html" xlink:title=" ">
<polygon fill="white" stroke="#666666" points="875.5,-129 829.5,-129 829.5,-110 875.5,-110 875.5,-129"/>
<text text-anchor="middle" x="852.5" y="-117" font-family="Helvetica,sans-Serif" font-size="10.00">Tree.h</text>
</a>
</g>
</g>
<!-- Node39&#45;&gt;Node43 -->
<g id="edge76" class="edge">
<title>Node39&#45;&gt;Node43</title>
<path fill="none" stroke="#63b8ff" d="M728.78,-164.51C753.44,-155.74 791.14,-142.33 818.44,-132.62"/>
<polygon fill="#63b8ff" stroke="#63b8ff" points="819.39,-135.99 827.64,-129.34 817.05,-129.4 819.39,-135.99"/>
</g>
<!-- Node41&#45;&gt;Node10 -->
<g id="edge71" class="edge">
<title>Node41&#45;&gt;Node10</title>
<path fill="none" stroke="#63b8ff" d="M663.68,-109.51C672.26,-101.93 684.77,-90.88 695.1,-81.75"/>
<polygon fill="#63b8ff" stroke="#63b8ff" points="697.16,-84.6 702.34,-75.36 692.53,-79.36 697.16,-84.6"/>
</g>
<!-- Node41&#45;&gt;Node13 -->
<g id="edge73" class="edge">
<title>Node41&#45;&gt;Node13</title>
<path fill="none" stroke="#63b8ff" d="M685.79,-115.07C701.41,-113.45 720.42,-111.54 737.5,-110 935.45,-92.14 989.9,-106.82 1189.64,-73.99"/>
<polygon fill="#63b8ff" stroke="#63b8ff" points="1190.03,-77.47 1199.32,-72.37 1188.88,-70.56 1190.03,-77.47"/>
</g>
<!-- Node41&#45;&gt;Node17 -->
<g id="edge72" class="edge">
<title>Node41&#45;&gt;Node17</title>
<path fill="none" stroke="#63b8ff" d="M651.08,-109.87C647.64,-97.64 641.14,-74.6 635.5,-55 633.16,-46.88 630.56,-37.93 628.29,-30.21"/>
<polygon fill="#63b8ff" stroke="#63b8ff" points="631.71,-29.42 625.54,-20.81 624.99,-31.39 631.71,-29.42"/>
</g>
<!-- Node42&#45;&gt;Node17 -->
<g id="edge75" class="edge">
<title>Node42&#45;&gt;Node17</title>
<path fill="none" stroke="#63b8ff" d="M594.95,-54.75C599.27,-47.81 605.46,-37.86 610.88,-29.16"/>
<polygon fill="#63b8ff" stroke="#63b8ff" points="613.82,-31.07 616.13,-20.73 607.88,-27.37 613.82,-31.07"/>
</g>
</g>
</svg>
