<?xml version="1.0" encoding="UTF-8" standalone="no"?>
<!DOCTYPE svg PUBLIC "-//W3C//DTD SVG 1.1//EN"
 "http://www.w3.org/Graphics/SVG/1.1/DTD/svg11.dtd">
<!-- Generated by graphviz version 7.1.0 (0)
 -->
<!-- Title: /home/ahussein/Documents/sourceCode/Sourcetrail/src/src/lib_gui/qt/element/dialog/QtPathListBox.h Pages: 1 -->
<svg width="295pt" height="225pt"
 viewBox="0.00 0.00 295.00 225.00" xmlns="http://www.w3.org/2000/svg" xmlns:xlink="http://www.w3.org/1999/xlink">
<g id="graph0" class="graph" transform="scale(1 1) rotate(0) translate(4 221)">
<title>/home/ahussein/Documents/sourceCode/Sourcetrail/src/src/lib_gui/qt/element/dialog/QtPathListBox.h</title>
<!-- Node1 -->
<g id="node1" class="node">
<title>Node1</title>
<g id="a_node1"><a xlink:title=" ">
<polygon fill="#999999" stroke="#666666" points="187.5,-217 35.5,-217 35.5,-165 187.5,-165 187.5,-217"/>
<text text-anchor="start" x="43.5" y="-205" font-family="Helvetica,sans-Serif" font-size="10.00">/home/ahussein/Documents</text>
<text text-anchor="start" x="43.5" y="-194" font-family="Helvetica,sans-Serif" font-size="10.00">/sourceCode/Sourcetrail</text>
<text text-anchor="start" x="43.5" y="-183" font-family="Helvetica,sans-Serif" font-size="10.00">/src/src/lib_gui/qt/element</text>
<text text-anchor="middle" x="111.5" y="-172" font-family="Helvetica,sans-Serif" font-size="10.00">/dialog/QtPathListBox.h</text>
</a>
</g>
</g>
<!-- Node2 -->
<g id="node2" class="node">
<title>Node2</title>
<g id="a_node2"><a xlink:href="$QtListBox_8h.html" xlink:title=" ">
<polygon fill="white" stroke="#666666" points="148,-129 75,-129 75,-110 148,-110 148,-129"/>
<text text-anchor="middle" x="111.5" y="-117" font-family="Helvetica,sans-Serif" font-size="10.00">QtListBox.h</text>
</a>
</g>
</g>
<!-- Node1&#45;&gt;Node2 -->
<g id="edge1" class="edge">
<title>Node1&#45;&gt;Node2</title>
<path fill="none" stroke="#63b8ff" d="M111.5,-164.52C111.5,-156.67 111.5,-148.15 111.5,-140.71"/>
<polygon fill="#63b8ff" stroke="#63b8ff" points="115,-140.71 111.5,-130.71 108,-140.71 115,-140.71"/>
</g>
<!-- Node3 -->
<g id="node3" class="node">
<title>Node3</title>
<g id="a_node3"><a xlink:title=" ">
<polygon fill="#e0e0e0" stroke="#999999" points="55,-74 0,-74 0,-55 55,-55 55,-74"/>
<text text-anchor="middle" x="27.5" y="-62" font-family="Helvetica,sans-Serif" font-size="10.00">QFrame</text>
</a>
</g>
</g>
<!-- Node2&#45;&gt;Node3 -->
<g id="edge2" class="edge">
<title>Node2&#45;&gt;Node3</title>
<path fill="none" stroke="#63b8ff" d="M97.25,-109.51C84.62,-101.54 65.94,-89.75 51.09,-80.38"/>
<polygon fill="#63b8ff" stroke="#63b8ff" points="53.14,-77.54 42.82,-75.17 49.41,-83.46 53.14,-77.54"/>
</g>
<!-- Node4 -->
<g id="node4" class="node">
<title>Node4</title>
<g id="a_node4"><a xlink:title=" ">
<polygon fill="#e0e0e0" stroke="#999999" points="149.5,-74 73.5,-74 73.5,-55 149.5,-55 149.5,-74"/>
<text text-anchor="middle" x="111.5" y="-62" font-family="Helvetica,sans-Serif" font-size="10.00">QListWidget</text>
</a>
</g>
</g>
<!-- Node2&#45;&gt;Node4 -->
<g id="edge3" class="edge">
<title>Node2&#45;&gt;Node4</title>
<path fill="none" stroke="#63b8ff" d="M111.5,-109.75C111.5,-103.27 111.5,-94.16 111.5,-85.9"/>
<polygon fill="#63b8ff" stroke="#63b8ff" points="115,-85.96 111.5,-75.96 108,-85.96 115,-85.96"/>
</g>
<!-- Node5 -->
<g id="node5" class="node">
<title>Node5</title>
<g id="a_node5"><a xlink:href="$FilePath_8h.html" xlink:title=" ">
<polygon fill="white" stroke="#666666" points="231.5,-74 167.5,-74 167.5,-55 231.5,-55 231.5,-74"/>
<text text-anchor="middle" x="199.5" y="-62" font-family="Helvetica,sans-Serif" font-size="10.00">FilePath.h</text>
</a>
</g>
</g>
<!-- Node2&#45;&gt;Node5 -->
<g id="edge4" class="edge">
<title>Node2&#45;&gt;Node5</title>
<path fill="none" stroke="#63b8ff" d="M126.43,-109.51C139.78,-101.47 159.61,-89.53 175.24,-80.11"/>
<polygon fill="#63b8ff" stroke="#63b8ff" points="176.74,-83.3 183.5,-75.14 173.12,-77.3 176.74,-83.3"/>
</g>
<!-- Node6 -->
<g id="node6" class="node">
<title>Node6</title>
<g id="a_node6"><a xlink:title=" ">
<polygon fill="#e0e0e0" stroke="#999999" points="159.5,-19 101.5,-19 101.5,0 159.5,0 159.5,-19"/>
<text text-anchor="middle" x="130.5" y="-7" font-family="Helvetica,sans-Serif" font-size="10.00">memory</text>
</a>
</g>
</g>
<!-- Node5&#45;&gt;Node6 -->
<g id="edge5" class="edge">
<title>Node5&#45;&gt;Node6</title>
<path fill="none" stroke="#63b8ff" d="M187.8,-54.51C177.72,-46.77 162.96,-35.43 150.94,-26.2"/>
<polygon fill="#63b8ff" stroke="#63b8ff" points="153.29,-23.6 143.23,-20.28 149.03,-29.15 153.29,-23.6"/>
</g>
<!-- Node7 -->
<g id="node7" class="node">
<title>Node7</title>
<g id="a_node7"><a xlink:title=" ">
<polygon fill="#e0e0e0" stroke="#999999" points="221.5,-19 177.5,-19 177.5,0 221.5,0 221.5,-19"/>
<text text-anchor="middle" x="199.5" y="-7" font-family="Helvetica,sans-Serif" font-size="10.00">string</text>
</a>
</g>
</g>
<!-- Node5&#45;&gt;Node7 -->
<g id="edge6" class="edge">
<title>Node5&#45;&gt;Node7</title>
<path fill="none" stroke="#63b8ff" d="M199.5,-54.75C199.5,-48.27 199.5,-39.16 199.5,-30.9"/>
<polygon fill="#63b8ff" stroke="#63b8ff" points="203,-30.96 199.5,-20.96 196,-30.96 203,-30.96"/>
</g>
<!-- Node8 -->
<g id="node8" class="node">
<title>Node8</title>
<g id="a_node8"><a xlink:title=" ">
<polygon fill="#e0e0e0" stroke="#999999" points="287,-19 240,-19 240,0 287,0 287,-19"/>
<text text-anchor="middle" x="263.5" y="-7" font-family="Helvetica,sans-Serif" font-size="10.00">vector</text>
</a>
</g>
</g>
<!-- Node5&#45;&gt;Node8 -->
<g id="edge7" class="edge">
<title>Node5&#45;&gt;Node8</title>
<path fill="none" stroke="#63b8ff" d="M210.36,-54.51C219.61,-46.85 233.12,-35.66 244.21,-26.47"/>
<polygon fill="#63b8ff" stroke="#63b8ff" points="246.17,-29.4 251.64,-20.32 241.7,-24.01 246.17,-29.4"/>
</g>
</g>
</svg>
