<?xml version="1.0" encoding="UTF-8" standalone="no"?>
<!DOCTYPE svg PUBLIC "-//W3C//DTD SVG 1.1//EN"
 "http://www.w3.org/Graphics/SVG/1.1/DTD/svg11.dtd">
<!-- Generated by graphviz version 9.0.0 (0)
 -->
<!-- Title: /home/ahussein/Documents/archive/opensourcesourcetrail.github.io/.ignore/src/src/lib_gui/qt/project_wizard/content/path/QtProjectWizardContentPathCDB.h Pages: 1 -->
<!--zoomable 521 -->

<svg id="main" version="1.1" xmlns="http://www.w3.org/2000/svg" xmlns:xlink="http://www.w3.org/1999/xlink" xml:space="preserve" onload="init(evt)">
<style type="text/css"><![CDATA[
.node, .edge {opacity: 0.7;}
.node.selected, .edge.selected {opacity: 1;}
.edge:hover path { stroke: red; }
.edge:hover polygon { stroke: red; fill: red; }
]]></style>

<defs>
  <circle id="rim" cx="0" cy="0" r="7"/>
  <circle id="rim2" cx="0" cy="0" r="3.5"/>
  <g id="zoomPlus">
    <use xlink:href="#rim" fill="#404040"><set attributeName="fill" to="#808080" begin="zoomplus.mouseover" end="zoomplus.mouseout"/></use>
    <path d="M-4,0h8M0,-4v8" fill="none" stroke="white" stroke-width="1.5" pointer-events="none"/>
  </g>
  <g id="zoomMin">
    <use xlink:href="#rim" fill="#404040"><set attributeName="fill" to="#808080" begin="zoomminus.mouseover" end="zoomminus.mouseout"/></use>
    <path d="M-4,0h8" fill="none" stroke="white" stroke-width="1.5" pointer-events="none"/>
  </g>
  <g id="arrowUp" transform="translate(30 24)">
    <use xlink:href="#rim"/>
    <path pointer-events="none" fill="none" stroke="white" stroke-width="1.5" d="M0,-3.0v7 M-2.5,-0.5L0,-3.0L2.5,-0.5"/>
  </g>
  <g id="arrowRight" transform="rotate(90) translate(36 -43)">
    <use xlink:href="#rim"/>
    <path pointer-events="none" fill="none" stroke="white" stroke-width="1.5" d="M0,-3.0v7 M-2.5,-0.5L0,-3.0L2.5,-0.5"/>
  </g>
  <g id="arrowDown" transform="rotate(180) translate(-30 -48)">
    <use xlink:href="#rim"/>
    <path pointer-events="none" fill="none" stroke="white" stroke-width="1.5" d="M0,-3.0v7 M-2.5,-0.5L0,-3.0L2.5,-0.5"/>
  </g>
  <g id="arrowLeft" transform="rotate(270) translate(-36 17)">
    <use xlink:href="#rim"/>
    <path pointer-events="none" fill="none" stroke="white" stroke-width="1.5" d="M0,-3.0v7 M-2.5,-0.5L0,-3.0L2.5,-0.5"/>
  </g>
  <g id="resetDef">
    <use xlink:href="#rim2" fill="#404040"><set attributeName="fill" to="#808080" begin="reset.mouseover" end="reset.mouseout"/></use>
  </g>
</defs>
<script type="application/ecmascript">
var viewWidth = 1285;
var viewHeight = 521;
var sectionId = 'dynsection-0';
</script>
<script type="application/ecmascript" xlink:href="svg.min.js"/>
<svg id="graph" class="graph">
<g id="viewport">
<title>/home/ahussein/Documents/archive/opensourcesourcetrail.github.io/.ignore/src/src/lib_gui/qt/project_wizard/content/path/QtProjectWizardContentPathCDB.h</title>
<!-- Node1 -->
<g id="Node000001" class="node">
<title>Node1</title>
<g id="a_Node000001"><a xlink:title=" ">
<polygon fill="#999999" stroke="#666666" points="851.88,-513 562.12,-513 562.12,-454 851.88,-454 851.88,-513"/>
<text text-anchor="start" x="570.12" y="-499.5" font-family="Helvetica,sans-Serif" font-size="10.00">/home/ahussein/Documents</text>
<text text-anchor="start" x="570.12" y="-486.75" font-family="Helvetica,sans-Serif" font-size="10.00">/archive/opensourcesourcetrail.github.io</text>
<text text-anchor="start" x="570.12" y="-474" font-family="Helvetica,sans-Serif" font-size="10.00">/.ignore/src/src/lib_gui/qt/project</text>
<text text-anchor="middle" x="707" y="-461.25" font-family="Helvetica,sans-Serif" font-size="10.00">_wizard/content/path/QtProjectWizardContentPathCDB.h</text>
</a>
</g>
</g>
<!-- Node2 -->
<g id="Node000002" class="node">
<title>Node2</title>
<g id="a_Node000002"><a xlink:href="QtProjectWizardContentPath_8h.html" target="_top" xlink:title=" ">
<polygon fill="white" stroke="#666666" points="788.88,-418 625.12,-418 625.12,-397.25 788.88,-397.25 788.88,-418"/>
<text text-anchor="middle" x="707" y="-404.5" font-family="Helvetica,sans-Serif" font-size="10.00">QtProjectWizardContentPath.h</text>
</a>
</g>
</g>
<!-- Node1&#45;&gt;Node2 -->
<g id="edge1_Node000001_Node000002" class="edge">
<title>Node1&#45;&gt;Node2</title>
<g id="a_edge1_Node000001_Node000002"><a xlink:title=" ">
<path fill="none" stroke="#63b8ff" d="M707,-453.73C707,-445.73 707,-437.2 707,-429.74"/>
<polygon fill="#63b8ff" stroke="#63b8ff" points="710.5,-429.97 707,-419.97 703.5,-429.97 710.5,-429.97"/>
</a>
</g>
</g>
<!-- Node3 -->
<g id="Node000003" class="node">
<title>Node3</title>
<g id="a_Node000003"><a xlink:title=" ">
<polygon fill="#e0e0e0" stroke="#999999" points="617.5,-361.25 586.5,-361.25 586.5,-340.5 617.5,-340.5 617.5,-361.25"/>
<text text-anchor="middle" x="602" y="-347.75" font-family="Helvetica,sans-Serif" font-size="10.00">set</text>
</a>
</g>
</g>
<!-- Node2&#45;&gt;Node3 -->
<g id="edge2_Node000002_Node000003" class="edge">
<title>Node2&#45;&gt;Node3</title>
<g id="a_edge2_Node000002_Node000003"><a xlink:title=" ">
<path fill="none" stroke="#63b8ff" d="M688.23,-396.84C671.46,-388.09 646.74,-375.2 628.06,-365.46"/>
<polygon fill="#63b8ff" stroke="#63b8ff" points="629.69,-362.37 619.21,-360.85 626.46,-368.57 629.69,-362.37"/>
</a>
</g>
</g>
<!-- Node4 -->
<g id="Node000004" class="node">
<title>Node4</title>
<g id="a_Node000004"><a xlink:href="QtLocationPicker_8h.html" target="_top" xlink:title=" ">
<polygon fill="white" stroke="#666666" points="1238.38,-247.75 1131.62,-247.75 1131.62,-227 1238.38,-227 1238.38,-247.75"/>
<text text-anchor="middle" x="1185" y="-234.25" font-family="Helvetica,sans-Serif" font-size="10.00">QtLocationPicker.h</text>
</a>
</g>
</g>
<!-- Node2&#45;&gt;Node4 -->
<g id="edge3_Node000002_Node000004" class="edge">
<title>Node2&#45;&gt;Node4</title>
<g id="a_edge3_Node000002_Node000004"><a xlink:title=" ">
<path fill="none" stroke="#63b8ff" d="M736.37,-396.86C790.04,-378.96 907.54,-339.5 1006,-304.5 1055.51,-286.9 1112.37,-265.73 1148.48,-252.17"/>
<polygon fill="#63b8ff" stroke="#63b8ff" points="1149.44,-255.54 1157.57,-248.75 1146.98,-248.99 1149.44,-255.54"/>
</a>
</g>
</g>
<!-- Node12 -->
<g id="Node000012" class="node">
<title>Node12</title>
<g id="a_Node000012"><a xlink:href="QtProjectWizardContent_8h.html" target="_top" xlink:title=" ">
<polygon fill="white" stroke="#666666" points="778,-361.25 636,-361.25 636,-340.5 778,-340.5 778,-361.25"/>
<text text-anchor="middle" x="707" y="-347.75" font-family="Helvetica,sans-Serif" font-size="10.00">QtProjectWizardContent.h</text>
</a>
</g>
</g>
<!-- Node2&#45;&gt;Node12 -->
<g id="edge11_Node000002_Node000012" class="edge">
<title>Node2&#45;&gt;Node12</title>
<g id="a_edge11_Node000002_Node000012"><a xlink:title=" ">
<path fill="none" stroke="#63b8ff" d="M707,-396.84C707,-390.22 707,-381.22 707,-373.02"/>
<polygon fill="#63b8ff" stroke="#63b8ff" points="710.5,-373.09 707,-363.09 703.5,-373.09 710.5,-373.09"/>
</a>
</g>
</g>
<!-- Node5 -->
<g id="Node000005" class="node">
<title>Node5</title>
<g id="a_Node000005"><a xlink:title=" ">
<polygon fill="#e0e0e0" stroke="#999999" points="1144.5,-191 1065.5,-191 1065.5,-170.25 1144.5,-170.25 1144.5,-191"/>
<text text-anchor="middle" x="1105" y="-177.5" font-family="Helvetica,sans-Serif" font-size="10.00">QPushButton</text>
</a>
</g>
</g>
<!-- Node4&#45;&gt;Node5 -->
<g id="edge4_Node000004_Node000005" class="edge">
<title>Node4&#45;&gt;Node5</title>
<g id="a_edge4_Node000004_Node000005"><a xlink:title=" ">
<path fill="none" stroke="#63b8ff" d="M1170.7,-226.59C1158.98,-218.57 1142.16,-207.06 1128.47,-197.69"/>
<polygon fill="#63b8ff" stroke="#63b8ff" points="1130.66,-194.94 1120.43,-192.18 1126.7,-200.72 1130.66,-194.94"/>
</a>
</g>
</g>
<!-- Node6 -->
<g id="Node000006" class="node">
<title>Node6</title>
<g id="a_Node000006"><a xlink:href="FilePath_8h.html" target="_top" xlink:title=" ">
<polygon fill="white" stroke="#666666" points="900.62,-134.25 837.38,-134.25 837.38,-113.5 900.62,-113.5 900.62,-134.25"/>
<text text-anchor="middle" x="869" y="-120.75" font-family="Helvetica,sans-Serif" font-size="10.00">FilePath.h</text>
</a>
</g>
</g>
<!-- Node4&#45;&gt;Node6 -->
<g id="edge5_Node000004_Node000006" class="edge">
<title>Node4&#45;&gt;Node6</title>
<g id="a_edge5_Node000004_Node000006"><a xlink:title=" ">
<path fill="none" stroke="#63b8ff" d="M1183.45,-226.95C1180.5,-212.3 1172.64,-184.28 1154,-170.25 1116.6,-142.1 981.97,-130.87 911.97,-126.86"/>
<polygon fill="#63b8ff" stroke="#63b8ff" points="912.59,-123.39 902.41,-126.34 912.21,-130.38 912.59,-123.39"/>
</a>
</g>
</g>
<!-- Node10 -->
<g id="Node000010" class="node">
<title>Node10</title>
<g id="a_Node000010"><a xlink:href="QtLineEdit_8h.html" target="_top" xlink:title=" ">
<polygon fill="white" stroke="#666666" points="1276.62,-191 1201.38,-191 1201.38,-170.25 1276.62,-170.25 1276.62,-191"/>
<text text-anchor="middle" x="1239" y="-177.5" font-family="Helvetica,sans-Serif" font-size="10.00">QtLineEdit.h</text>
</a>
</g>
</g>
<!-- Node4&#45;&gt;Node10 -->
<g id="edge9_Node000004_Node000010" class="edge">
<title>Node4&#45;&gt;Node10</title>
<g id="a_edge9_Node000004_Node000010"><a xlink:title=" ">
<path fill="none" stroke="#63b8ff" d="M1194.65,-226.59C1202.1,-219.03 1212.61,-208.39 1221.52,-199.35"/>
<polygon fill="#63b8ff" stroke="#63b8ff" points="1223.84,-201.98 1228.37,-192.41 1218.85,-197.07 1223.84,-201.98"/>
</a>
</g>
</g>
<!-- Node7 -->
<g id="Node000007" class="node">
<title>Node7</title>
<g id="a_Node000007"><a xlink:title=" ">
<polygon fill="#e0e0e0" stroke="#999999" points="778.62,-77.5 721.38,-77.5 721.38,-56.75 778.62,-56.75 778.62,-77.5"/>
<text text-anchor="middle" x="750" y="-64" font-family="Helvetica,sans-Serif" font-size="10.00">memory</text>
</a>
</g>
</g>
<!-- Node6&#45;&gt;Node7 -->
<g id="edge6_Node000006_Node000007" class="edge">
<title>Node6&#45;&gt;Node7</title>
<g id="a_edge6_Node000006_Node000007"><a xlink:title=" ">
<path fill="none" stroke="#63b8ff" d="M847.73,-113.09C829.28,-104.6 802.34,-92.2 781.41,-82.58"/>
<polygon fill="#63b8ff" stroke="#63b8ff" points="783.01,-79.46 772.47,-78.46 780.09,-85.82 783.01,-79.46"/>
</a>
</g>
</g>
<!-- Node8 -->
<g id="Node000008" class="node">
<title>Node8</title>
<g id="a_Node000008"><a xlink:title=" ">
<polygon fill="#e0e0e0" stroke="#999999" points="866.88,-20.75 823.12,-20.75 823.12,0 866.88,0 866.88,-20.75"/>
<text text-anchor="middle" x="845" y="-7.25" font-family="Helvetica,sans-Serif" font-size="10.00">string</text>
</a>
</g>
</g>
<!-- Node6&#45;&gt;Node8 -->
<g id="edge7_Node000006_Node000008" class="edge">
<title>Node6&#45;&gt;Node8</title>
<g id="a_edge7_Node000006_Node000008"><a xlink:title=" ">
<path fill="none" stroke="#63b8ff" d="M868.01,-113.37C866.57,-100.46 863.55,-76.67 859,-56.75 857.12,-48.52 854.5,-39.62 852.04,-31.9"/>
<polygon fill="#63b8ff" stroke="#63b8ff" points="855.37,-30.82 848.9,-22.43 848.73,-33.03 855.37,-30.82"/>
</a>
</g>
</g>
<!-- Node9 -->
<g id="Node000009" class="node">
<title>Node9</title>
<g id="a_Node000009"><a xlink:title=" ">
<polygon fill="#e0e0e0" stroke="#999999" points="559.38,-20.75 512.62,-20.75 512.62,0 559.38,0 559.38,-20.75"/>
<text text-anchor="middle" x="536" y="-7.25" font-family="Helvetica,sans-Serif" font-size="10.00">vector</text>
</a>
</g>
</g>
<!-- Node6&#45;&gt;Node9 -->
<g id="edge8_Node000006_Node000009" class="edge">
<title>Node6&#45;&gt;Node9</title>
<g id="a_edge8_Node000006_Node000009"><a xlink:title=" ">
<path fill="none" stroke="#63b8ff" d="M860.61,-113.38C846.97,-98.63 818.45,-70.47 788,-56.75 700.94,-17.51 667.08,-40.88 570.78,-21.08"/>
<polygon fill="#63b8ff" stroke="#63b8ff" points="571.68,-17.69 561.16,-18.99 570.19,-24.53 571.68,-17.69"/>
</a>
</g>
</g>
<!-- Node11 -->
<g id="Node000011" class="node">
<title>Node11</title>
<g id="a_Node000011"><a xlink:title=" ">
<polygon fill="#e0e0e0" stroke="#999999" points="1270.25,-134.25 1207.75,-134.25 1207.75,-113.5 1270.25,-113.5 1270.25,-134.25"/>
<text text-anchor="middle" x="1239" y="-120.75" font-family="Helvetica,sans-Serif" font-size="10.00">QLineEdit</text>
</a>
</g>
</g>
<!-- Node10&#45;&gt;Node11 -->
<g id="edge10_Node000010_Node000011" class="edge">
<title>Node10&#45;&gt;Node11</title>
<g id="a_edge10_Node000010_Node000011"><a xlink:title=" ">
<path fill="none" stroke="#63b8ff" d="M1239,-169.84C1239,-163.22 1239,-154.22 1239,-146.02"/>
<polygon fill="#63b8ff" stroke="#63b8ff" points="1242.5,-146.09 1239,-136.09 1235.5,-146.09 1242.5,-146.09"/>
</a>
</g>
</g>
<!-- Node12&#45;&gt;Node6 -->
<g id="edge13_Node000012_Node000006" class="edge">
<title>Node12&#45;&gt;Node6</title>
<g id="a_edge13_Node000012_Node000006"><a xlink:title=" ">
<path fill="none" stroke="#63b8ff" d="M730.81,-340.09C763.51,-325.3 821.52,-293.99 850,-247.75 869.37,-216.3 871.33,-172.01 870.51,-146.08"/>
<polygon fill="#63b8ff" stroke="#63b8ff" points="874.01,-145.98 870,-136.18 867.02,-146.34 874.01,-145.98"/>
</a>
</g>
</g>
<!-- Node13 -->
<g id="Node000013" class="node">
<title>Node13</title>
<g id="a_Node000013"><a xlink:title=" ">
<polygon fill="#e0e0e0" stroke="#999999" points="135,-77.5 77,-77.5 77,-56.75 135,-56.75 135,-77.5"/>
<text text-anchor="middle" x="106" y="-64" font-family="Helvetica,sans-Serif" font-size="10.00">QWidget</text>
</a>
</g>
</g>
<!-- Node12&#45;&gt;Node13 -->
<g id="edge12_Node000012_Node000013" class="edge">
<title>Node12&#45;&gt;Node13</title>
<g id="a_edge12_Node000012_Node000013"><a xlink:title=" ">
<path fill="none" stroke="#63b8ff" d="M635.89,-341.53C632.55,-341.18 629.24,-340.83 626,-340.5 485.77,-326.25 0,-379.33 0,-238.38 0,-238.38 0,-238.38 0,-179.62 0,-135.47 44.2,-101.85 75.52,-83.57"/>
<polygon fill="#63b8ff" stroke="#63b8ff" points="77.21,-86.63 84.24,-78.7 73.8,-80.52 77.21,-86.63"/>
</a>
</g>
</g>
<!-- Node14 -->
<g id="Node000014" class="node">
<title>Node14</title>
<g id="a_Node000014"><a xlink:href="QtHelpButton_8h.html" target="_top" xlink:title=" ">
<polygon fill="white" stroke="#666666" points="997.5,-304.5 906.5,-304.5 906.5,-283.75 997.5,-283.75 997.5,-304.5"/>
<text text-anchor="middle" x="952" y="-291" font-family="Helvetica,sans-Serif" font-size="10.00">QtHelpButton.h</text>
</a>
</g>
</g>
<!-- Node12&#45;&gt;Node14 -->
<g id="edge14_Node000012_Node000014" class="edge">
<title>Node12&#45;&gt;Node14</title>
<g id="a_edge14_Node000012_Node000014"><a xlink:title=" ">
<path fill="none" stroke="#63b8ff" d="M751.08,-340.02C791.89,-330.9 852.73,-317.31 896.76,-307.47"/>
<polygon fill="#63b8ff" stroke="#63b8ff" points="897.38,-310.92 906.38,-305.32 895.86,-304.08 897.38,-310.92"/>
</a>
</g>
</g>
<!-- Node18 -->
<g id="Node000018" class="node">
<title>Node18</title>
<g id="a_Node000018"><a xlink:href="QtProjectWizardWindow_8h.html" target="_top" xlink:title=" ">
<polygon fill="white" stroke="#666666" points="366,-304.5 224,-304.5 224,-283.75 366,-283.75 366,-304.5"/>
<text text-anchor="middle" x="295" y="-291" font-family="Helvetica,sans-Serif" font-size="10.00">QtProjectWizardWindow.h</text>
</a>
</g>
</g>
<!-- Node12&#45;&gt;Node18 -->
<g id="edge20_Node000012_Node000018" class="edge">
<title>Node12&#45;&gt;Node18</title>
<g id="a_edge20_Node000012_Node000018"><a xlink:title=" ">
<path fill="none" stroke="#63b8ff" d="M635.71,-340.4C563.96,-330.87 453.4,-316.17 377.81,-306.13"/>
<polygon fill="#63b8ff" stroke="#63b8ff" points="378.33,-302.67 367.96,-304.82 377.41,-309.61 378.33,-302.67"/>
</a>
</g>
</g>
<!-- Node25 -->
<g id="Node000025" class="node">
<title>Node25</title>
<g id="a_Node000025"><a xlink:href="QtThreadedFunctor_8h.html" target="_top" xlink:title=" ">
<polygon fill="white" stroke="#666666" points="605,-304.5 487,-304.5 487,-283.75 605,-283.75 605,-304.5"/>
<text text-anchor="middle" x="546" y="-291" font-family="Helvetica,sans-Serif" font-size="10.00">QtThreadedFunctor.h</text>
</a>
</g>
</g>
<!-- Node12&#45;&gt;Node25 -->
<g id="edge32_Node000012_Node000025" class="edge">
<title>Node12&#45;&gt;Node25</title>
<g id="a_edge32_Node000012_Node000025"><a xlink:title=" ">
<path fill="none" stroke="#63b8ff" d="M678.22,-340.09C652.43,-331.32 614.35,-318.37 585.68,-308.62"/>
<polygon fill="#63b8ff" stroke="#63b8ff" points="586.83,-305.31 576.24,-305.41 584.58,-311.94 586.83,-305.31"/>
</a>
</g>
</g>
<!-- Node15 -->
<g id="Node000015" class="node">
<title>Node15</title>
<g id="a_Node000015"><a xlink:href="QtHelpButtonInfo_8h.html" target="_top" xlink:title=" ">
<polygon fill="white" stroke="#666666" points="1006.88,-247.75 897.12,-247.75 897.12,-227 1006.88,-227 1006.88,-247.75"/>
<text text-anchor="middle" x="952" y="-234.25" font-family="Helvetica,sans-Serif" font-size="10.00">QtHelpButtonInfo.h</text>
</a>
</g>
</g>
<!-- Node14&#45;&gt;Node15 -->
<g id="edge15_Node000014_Node000015" class="edge">
<title>Node14&#45;&gt;Node15</title>
<g id="a_edge15_Node000014_Node000015"><a xlink:title=" ">
<path fill="none" stroke="#63b8ff" d="M952,-283.34C952,-276.72 952,-267.72 952,-259.52"/>
<polygon fill="#63b8ff" stroke="#63b8ff" points="955.5,-259.59 952,-249.59 948.5,-259.59 955.5,-259.59"/>
</a>
</g>
</g>
<!-- Node17 -->
<g id="Node000017" class="node">
<title>Node17</title>
<g id="a_Node000017"><a xlink:href="QtIconButton_8h.html" target="_top" xlink:title=" ">
<polygon fill="white" stroke="#666666" points="1113.38,-247.75 1024.62,-247.75 1024.62,-227 1113.38,-227 1113.38,-247.75"/>
<text text-anchor="middle" x="1069" y="-234.25" font-family="Helvetica,sans-Serif" font-size="10.00">QtIconButton.h</text>
</a>
</g>
</g>
<!-- Node14&#45;&gt;Node17 -->
<g id="edge17_Node000014_Node000017" class="edge">
<title>Node14&#45;&gt;Node17</title>
<g id="a_edge17_Node000014_Node000017"><a xlink:title=" ">
<path fill="none" stroke="#63b8ff" d="M972.92,-283.34C990.97,-274.89 1017.3,-262.57 1037.84,-252.96"/>
<polygon fill="#63b8ff" stroke="#63b8ff" points="1039.32,-256.13 1046.89,-248.72 1036.35,-249.79 1039.32,-256.13"/>
</a>
</g>
</g>
<!-- Node16 -->
<g id="Node000016" class="node">
<title>Node16</title>
<g id="a_Node000016"><a xlink:title=" ">
<polygon fill="#e0e0e0" stroke="#999999" points="1009,-191 957,-191 957,-170.25 1009,-170.25 1009,-191"/>
<text text-anchor="middle" x="983" y="-177.5" font-family="Helvetica,sans-Serif" font-size="10.00">QString</text>
</a>
</g>
</g>
<!-- Node15&#45;&gt;Node16 -->
<g id="edge16_Node000015_Node000016" class="edge">
<title>Node15&#45;&gt;Node16</title>
<g id="a_edge16_Node000015_Node000016"><a xlink:title=" ">
<path fill="none" stroke="#63b8ff" d="M957.54,-226.59C961.51,-219.58 966.99,-209.91 971.84,-201.33"/>
<polygon fill="#63b8ff" stroke="#63b8ff" points="974.88,-203.07 976.76,-192.65 968.79,-199.62 974.88,-203.07"/>
</a>
</g>
</g>
<!-- Node17&#45;&gt;Node5 -->
<g id="edge18_Node000017_Node000005" class="edge">
<title>Node17&#45;&gt;Node5</title>
<g id="a_edge18_Node000017_Node000005"><a xlink:title=" ">
<path fill="none" stroke="#63b8ff" d="M1075.44,-226.59C1080.15,-219.42 1086.69,-209.48 1092.42,-200.76"/>
<polygon fill="#63b8ff" stroke="#63b8ff" points="1095.22,-202.87 1097.79,-192.59 1089.37,-199.03 1095.22,-202.87"/>
</a>
</g>
</g>
<!-- Node17&#45;&gt;Node6 -->
<g id="edge19_Node000017_Node000006" class="edge">
<title>Node17&#45;&gt;Node6</title>
<g id="a_edge19_Node000017_Node000006"><a xlink:title=" ">
<path fill="none" stroke="#63b8ff" d="M1064.12,-226.75C1056.33,-212.34 1039.71,-185.25 1018,-170.25 986.2,-148.27 943.46,-136.69 911.91,-130.75"/>
<polygon fill="#63b8ff" stroke="#63b8ff" points="912.77,-127.35 902.32,-129.07 911.56,-134.24 912.77,-127.35"/>
</a>
</g>
</g>
<!-- Node19 -->
<g id="Node000019" class="node">
<title>Node19</title>
<g id="a_Node000019"><a xlink:href="QtWindow_8h.html" target="_top" xlink:title=" ">
<polygon fill="white" stroke="#666666" points="229.25,-247.75 154.75,-247.75 154.75,-227 229.25,-227 229.25,-247.75"/>
<text text-anchor="middle" x="192" y="-234.25" font-family="Helvetica,sans-Serif" font-size="10.00">QtWindow.h</text>
</a>
</g>
</g>
<!-- Node18&#45;&gt;Node19 -->
<g id="edge21_Node000018_Node000019" class="edge">
<title>Node18&#45;&gt;Node19</title>
<g id="a_edge21_Node000018_Node000019"><a xlink:title=" ">
<path fill="none" stroke="#63b8ff" d="M276.59,-283.34C260.91,-275.01 238.15,-262.91 220.19,-253.36"/>
<polygon fill="#63b8ff" stroke="#63b8ff" points="222.06,-250.39 211.59,-248.79 218.78,-256.57 222.06,-250.39"/>
</a>
</g>
</g>
<!-- Node19&#45;&gt;Node13 -->
<g id="edge25_Node000019_Node000013" class="edge">
<title>Node19&#45;&gt;Node13</title>
<g id="a_edge25_Node000019_Node000013"><a xlink:title=" ">
<path fill="none" stroke="#63b8ff" d="M154.44,-235.14C122.7,-231.86 79.01,-221.62 57,-191 33.12,-157.78 66.2,-111.3 88.53,-86.1"/>
<polygon fill="#63b8ff" stroke="#63b8ff" points="90.91,-88.67 95.12,-78.95 85.76,-83.93 90.91,-88.67"/>
</a>
</g>
</g>
<!-- Node20 -->
<g id="Node000020" class="node">
<title>Node20</title>
<g id="a_Node000020"><a xlink:title=" ">
<polygon fill="#e0e0e0" stroke="#999999" points="148.38,-191 65.62,-191 65.62,-170.25 148.38,-170.25 148.38,-191"/>
<text text-anchor="middle" x="107" y="-177.5" font-family="Helvetica,sans-Serif" font-size="10.00">QHBoxLayout</text>
</a>
</g>
</g>
<!-- Node19&#45;&gt;Node20 -->
<g id="edge22_Node000019_Node000020" class="edge">
<title>Node19&#45;&gt;Node20</title>
<g id="a_edge22_Node000019_Node000020"><a xlink:title=" ">
<path fill="none" stroke="#63b8ff" d="M176.8,-226.59C164.23,-218.49 146.14,-206.83 131.52,-197.42"/>
<polygon fill="#63b8ff" stroke="#63b8ff" points="133.64,-194.62 123.34,-192.15 129.85,-200.51 133.64,-194.62"/>
</a>
</g>
</g>
<!-- Node21 -->
<g id="Node000021" class="node">
<title>Node21</title>
<g id="a_Node000021"><a xlink:title=" ">
<polygon fill="#e0e0e0" stroke="#999999" points="249.75,-191 166.25,-191 166.25,-170.25 249.75,-170.25 249.75,-191"/>
<text text-anchor="middle" x="208" y="-177.5" font-family="Helvetica,sans-Serif" font-size="10.00">QResizeEvent</text>
</a>
</g>
</g>
<!-- Node19&#45;&gt;Node21 -->
<g id="edge23_Node000019_Node000021" class="edge">
<title>Node19&#45;&gt;Node21</title>
<g id="a_edge23_Node000019_Node000021"><a xlink:title=" ">
<path fill="none" stroke="#63b8ff" d="M194.86,-226.59C196.84,-219.81 199.55,-210.55 201.99,-202.19"/>
<polygon fill="#63b8ff" stroke="#63b8ff" points="205.29,-203.36 204.74,-192.78 198.58,-201.4 205.29,-203.36"/>
</a>
</g>
</g>
<!-- Node22 -->
<g id="Node000022" class="node">
<title>Node22</title>
<g id="a_Node000022"><a xlink:title=" ">
<polygon fill="#e0e0e0" stroke="#999999" points="396,-134.25 332,-134.25 332,-113.5 396,-113.5 396,-134.25"/>
<text text-anchor="middle" x="364" y="-120.75" font-family="Helvetica,sans-Serif" font-size="10.00">QSizeGrip</text>
</a>
</g>
</g>
<!-- Node19&#45;&gt;Node22 -->
<g id="edge24_Node000019_Node000022" class="edge">
<title>Node19&#45;&gt;Node22</title>
<g id="a_edge24_Node000019_Node000022"><a xlink:title=" ">
<path fill="none" stroke="#63b8ff" d="M229.38,-228.39C281.83,-217 371.42,-196.84 376,-191 386.22,-177.95 381.41,-159.03 375.09,-144.77"/>
<polygon fill="#63b8ff" stroke="#63b8ff" points="378.25,-143.26 370.65,-135.88 371.99,-146.39 378.25,-143.26"/>
</a>
</g>
</g>
<!-- Node23 -->
<g id="Node000023" class="node">
<title>Node23</title>
<g id="a_Node000023"><a xlink:href="QtWindowBase_8h.html" target="_top" xlink:title=" ">
<polygon fill="white" stroke="#666666" points="366.62,-191 267.38,-191 267.38,-170.25 366.62,-170.25 366.62,-191"/>
<text text-anchor="middle" x="317" y="-177.5" font-family="Helvetica,sans-Serif" font-size="10.00">QtWindowBase.h</text>
</a>
</g>
</g>
<!-- Node19&#45;&gt;Node23 -->
<g id="edge26_Node000019_Node000023" class="edge">
<title>Node19&#45;&gt;Node23</title>
<g id="a_edge26_Node000019_Node000023"><a xlink:title=" ">
<path fill="none" stroke="#63b8ff" d="M214.35,-226.59C233.81,-218.06 262.29,-205.59 284.31,-195.94"/>
<polygon fill="#63b8ff" stroke="#63b8ff" points="285.7,-199.15 293.46,-191.94 282.9,-192.74 285.7,-199.15"/>
</a>
</g>
</g>
<!-- Node23&#45;&gt;Node13 -->
<g id="edge28_Node000023_Node000013" class="edge">
<title>Node23&#45;&gt;Node13</title>
<g id="a_edge28_Node000023_Node000013"><a xlink:title=" ">
<path fill="none" stroke="#63b8ff" d="M287.16,-169.78C263.68,-161.55 230.46,-148.85 203,-134.25 175.57,-119.67 146.41,-99.01 127.31,-84.68"/>
<polygon fill="#63b8ff" stroke="#63b8ff" points="129.59,-82.01 119.51,-78.74 125.35,-87.58 129.59,-82.01"/>
</a>
</g>
</g>
<!-- Node23&#45;&gt;Node22 -->
<g id="edge27_Node000023_Node000022" class="edge">
<title>Node23&#45;&gt;Node22</title>
<g id="a_edge27_Node000023_Node000022"><a xlink:title=" ">
<path fill="none" stroke="#63b8ff" d="M325.4,-169.84C331.75,-162.44 340.65,-152.07 348.3,-143.16"/>
<polygon fill="#63b8ff" stroke="#63b8ff" points="350.83,-145.59 354.68,-135.73 345.51,-141.03 350.83,-145.59"/>
</a>
</g>
</g>
<!-- Node24 -->
<g id="Node000024" class="node">
<title>Node24</title>
<g id="a_Node000024"><a xlink:href="QtWindowStack_8h.html" target="_top" xlink:title=" ">
<polygon fill="white" stroke="#666666" points="314.12,-134.25 211.88,-134.25 211.88,-113.5 314.12,-113.5 314.12,-134.25"/>
<text text-anchor="middle" x="263" y="-120.75" font-family="Helvetica,sans-Serif" font-size="10.00">QtWindowStack.h</text>
</a>
</g>
</g>
<!-- Node23&#45;&gt;Node24 -->
<g id="edge29_Node000023_Node000024" class="edge">
<title>Node23&#45;&gt;Node24</title>
<g id="a_edge29_Node000023_Node000024"><a xlink:title=" ">
<path fill="none" stroke="#63b8ff" d="M307.35,-169.84C299.9,-162.28 289.39,-151.64 280.48,-142.6"/>
<polygon fill="#63b8ff" stroke="#63b8ff" points="283.15,-140.32 273.63,-135.66 278.16,-145.23 283.15,-140.32"/>
</a>
</g>
</g>
<!-- Node24&#45;&gt;Node9 -->
<g id="edge30_Node000024_Node000009" class="edge">
<title>Node24&#45;&gt;Node9</title>
<g id="a_edge30_Node000024_Node000009"><a xlink:title=" ">
<path fill="none" stroke="#63b8ff" d="M263.73,-113.05C265.38,-98.36 270.73,-70.92 288,-56.75 360.44,2.7 405.68,-39.1 501.06,-21.02"/>
<polygon fill="#63b8ff" stroke="#63b8ff" points="501.77,-24.45 510.84,-18.97 500.33,-17.6 501.77,-24.45"/>
</a>
</g>
</g>
<!-- Node24&#45;&gt;Node13 -->
<g id="edge31_Node000024_Node000013" class="edge">
<title>Node24&#45;&gt;Node13</title>
<g id="a_edge31_Node000024_Node000013"><a xlink:title=" ">
<path fill="none" stroke="#63b8ff" d="M234.93,-113.09C209.78,-104.32 172.65,-91.37 144.69,-81.62"/>
<polygon fill="#63b8ff" stroke="#63b8ff" points="146.11,-78.41 135.52,-78.42 143.81,-85.02 146.11,-78.41"/>
</a>
</g>
</g>
<!-- Node26 -->
<g id="Node000026" class="node">
<title>Node26</title>
<g id="a_Node000026"><a xlink:title=" ">
<polygon fill="#e0e0e0" stroke="#999999" points="682.38,-247.75 617.62,-247.75 617.62,-227 682.38,-227 682.38,-247.75"/>
<text text-anchor="middle" x="650" y="-234.25" font-family="Helvetica,sans-Serif" font-size="10.00">functional</text>
</a>
</g>
</g>
<!-- Node25&#45;&gt;Node26 -->
<g id="edge33_Node000025_Node000026" class="edge">
<title>Node25&#45;&gt;Node26</title>
<g id="a_edge33_Node000025_Node000026"><a xlink:title=" ">
<path fill="none" stroke="#63b8ff" d="M564.59,-283.34C580.42,-275.01 603.4,-262.91 621.54,-253.36"/>
<polygon fill="#63b8ff" stroke="#63b8ff" points="623.01,-256.54 630.23,-248.78 619.75,-250.34 623.01,-256.54"/>
</a>
</g>
</g>
<!-- Node27 -->
<g id="Node000027" class="node">
<title>Node27</title>
<g id="a_Node000027"><a xlink:title=" ">
<polygon fill="#e0e0e0" stroke="#999999" points="302.5,-247.75 247.5,-247.75 247.5,-227 302.5,-227 302.5,-247.75"/>
<text text-anchor="middle" x="275" y="-234.25" font-family="Helvetica,sans-Serif" font-size="10.00">QObject</text>
</a>
</g>
</g>
<!-- Node25&#45;&gt;Node27 -->
<g id="edge34_Node000025_Node000027" class="edge">
<title>Node25&#45;&gt;Node27</title>
<g id="a_edge34_Node000025_Node000027"><a xlink:title=" ">
<path fill="none" stroke="#63b8ff" d="M489.76,-283.31C444.54,-275.18 379.13,-262.9 313.78,-248.28"/>
<polygon fill="#63b8ff" stroke="#63b8ff" points="314.87,-244.94 304.34,-246.15 313.33,-251.77 314.87,-244.94"/>
</a>
</g>
</g>
<!-- Node28 -->
<g id="Node000028" class="node">
<title>Node28</title>
<g id="a_Node000028"><a xlink:title=" ">
<polygon fill="#e0e0e0" stroke="#999999" points="399.5,-247.75 320.5,-247.75 320.5,-227 399.5,-227 399.5,-247.75"/>
<text text-anchor="middle" x="360" y="-234.25" font-family="Helvetica,sans-Serif" font-size="10.00">QSemaphore</text>
</a>
</g>
</g>
<!-- Node25&#45;&gt;Node28 -->
<g id="edge35_Node000025_Node000028" class="edge">
<title>Node25&#45;&gt;Node28</title>
<g id="a_edge35_Node000025_Node000028"><a xlink:title=" ">
<path fill="none" stroke="#63b8ff" d="M512.75,-283.34C482.42,-274.41 437.4,-261.16 404.09,-251.35"/>
<polygon fill="#63b8ff" stroke="#63b8ff" points="405.31,-248.06 394.73,-248.6 403.33,-254.78 405.31,-248.06"/>
</a>
</g>
</g>
<!-- Node29 -->
<g id="Node000029" class="node">
<title>Node29</title>
<g id="a_Node000029"><a xlink:title=" ">
<polygon fill="#e0e0e0" stroke="#999999" points="474.62,-247.75 417.38,-247.75 417.38,-227 474.62,-227 474.62,-247.75"/>
<text text-anchor="middle" x="446" y="-234.25" font-family="Helvetica,sans-Serif" font-size="10.00">QThread</text>
</a>
</g>
</g>
<!-- Node25&#45;&gt;Node29 -->
<g id="edge36_Node000025_Node000029" class="edge">
<title>Node25&#45;&gt;Node29</title>
<g id="a_edge36_Node000025_Node000029"><a xlink:title=" ">
<path fill="none" stroke="#63b8ff" d="M528.12,-283.34C512.91,-275.01 490.81,-262.91 473.37,-253.36"/>
<polygon fill="#63b8ff" stroke="#63b8ff" points="475.5,-250.54 465.05,-248.81 472.14,-256.68 475.5,-250.54"/>
</a>
</g>
</g>
<!-- Node30 -->
<g id="Node000030" class="node">
<title>Node30</title>
<g id="a_Node000030"><a xlink:href="MessageListener_8h.html" target="_top" xlink:title=" ">
<polygon fill="white" stroke="#666666" points="599.75,-247.75 492.25,-247.75 492.25,-227 599.75,-227 599.75,-247.75"/>
<text text-anchor="middle" x="546" y="-234.25" font-family="Helvetica,sans-Serif" font-size="10.00">MessageListener.h</text>
</a>
</g>
</g>
<!-- Node25&#45;&gt;Node30 -->
<g id="edge37_Node000025_Node000030" class="edge">
<title>Node25&#45;&gt;Node30</title>
<g id="a_edge37_Node000025_Node000030"><a xlink:title=" ">
<path fill="none" stroke="#63b8ff" d="M546,-283.34C546,-276.72 546,-267.72 546,-259.52"/>
<polygon fill="#63b8ff" stroke="#63b8ff" points="549.5,-259.59 546,-249.59 542.5,-259.59 549.5,-259.59"/>
</a>
</g>
</g>
<!-- Node42 -->
<g id="Node000042" class="node">
<title>Node42</title>
<g id="a_Node000042"><a xlink:href="MessageWindowClosed_8h.html" target="_top" xlink:title=" ">
<polygon fill="white" stroke="#666666" points="841.25,-247.75 700.75,-247.75 700.75,-227 841.25,-227 841.25,-247.75"/>
<text text-anchor="middle" x="771" y="-234.25" font-family="Helvetica,sans-Serif" font-size="10.00">MessageWindowClosed.h</text>
</a>
</g>
</g>
<!-- Node25&#45;&gt;Node42 -->
<g id="edge60_Node000025_Node000042" class="edge">
<title>Node25&#45;&gt;Node42</title>
<g id="a_edge60_Node000025_Node000042"><a xlink:title=" ">
<path fill="none" stroke="#63b8ff" d="M586.49,-283.27C623.72,-274.21 679.12,-260.73 719.5,-250.91"/>
<polygon fill="#63b8ff" stroke="#63b8ff" points="720.1,-254.36 728.99,-248.6 718.45,-247.56 720.1,-254.36"/>
</a>
</g>
</g>
<!-- Node30&#45;&gt;Node8 -->
<g id="edge38_Node000030_Node000008" class="edge">
<title>Node30&#45;&gt;Node8</title>
<g id="a_edge38_Node000030_Node000008"><a xlink:title=" ">
<path fill="none" stroke="#63b8ff" d="M600.06,-228.19C661.56,-218.57 757.99,-202.47 793,-191 847.92,-173 879.32,-183.23 910,-134.25 932.79,-97.87 892.52,-52.72 865.83,-28.55"/>
<polygon fill="#63b8ff" stroke="#63b8ff" points="868.38,-26.13 858.54,-22.2 863.78,-31.41 868.38,-26.13"/>
</a>
</g>
</g>
<!-- Node31 -->
<g id="Node000031" class="node">
<title>Node31</title>
<g id="a_Node000031"><a xlink:href="MessageBase_8h.html" target="_top" xlink:title=" ">
<polygon fill="white" stroke="#666666" points="506.25,-134.25 413.75,-134.25 413.75,-113.5 506.25,-113.5 506.25,-134.25"/>
<text text-anchor="middle" x="460" y="-120.75" font-family="Helvetica,sans-Serif" font-size="10.00">MessageBase.h</text>
</a>
</g>
</g>
<!-- Node30&#45;&gt;Node31 -->
<g id="edge39_Node000030_Node000031" class="edge">
<title>Node30&#45;&gt;Node31</title>
<g id="a_edge39_Node000030_Node000031"><a xlink:title=" ">
<path fill="none" stroke="#63b8ff" d="M523.99,-226.51C509.23,-218.82 490.47,-206.81 479,-191 469.33,-177.68 464.57,-159.53 462.23,-145.62"/>
<polygon fill="#63b8ff" stroke="#63b8ff" points="465.71,-145.24 460.89,-135.8 458.77,-146.18 465.71,-145.24"/>
</a>
</g>
</g>
<!-- Node39 -->
<g id="Node000039" class="node">
<title>Node39</title>
<g id="a_Node000039"><a xlink:href="MessageListenerBase_8h.html" target="_top" xlink:title=" ">
<polygon fill="white" stroke="#666666" points="619.75,-191 488.25,-191 488.25,-170.25 619.75,-170.25 619.75,-191"/>
<text text-anchor="middle" x="554" y="-177.5" font-family="Helvetica,sans-Serif" font-size="10.00">MessageListenerBase.h</text>
</a>
</g>
</g>
<!-- Node30&#45;&gt;Node39 -->
<g id="edge50_Node000030_Node000039" class="edge">
<title>Node30&#45;&gt;Node39</title>
<g id="a_edge50_Node000030_Node000039"><a xlink:title=" ">
<path fill="none" stroke="#63b8ff" d="M547.43,-226.59C548.41,-219.89 549.74,-210.76 550.95,-202.48"/>
<polygon fill="#63b8ff" stroke="#63b8ff" points="554.38,-203.23 552.36,-192.83 547.45,-202.21 554.38,-203.23"/>
</a>
</g>
</g>
<!-- Node32 -->
<g id="Node000032" class="node">
<title>Node32</title>
<g id="a_Node000032"><a xlink:title=" ">
<polygon fill="#e0e0e0" stroke="#999999" points="353.25,-77.5 296.75,-77.5 296.75,-56.75 353.25,-56.75 353.25,-77.5"/>
<text text-anchor="middle" x="325" y="-64" font-family="Helvetica,sans-Serif" font-size="10.00">ostream</text>
</a>
</g>
</g>
<!-- Node31&#45;&gt;Node32 -->
<g id="edge40_Node000031_Node000032" class="edge">
<title>Node31&#45;&gt;Node32</title>
<g id="a_edge40_Node000031_Node000032"><a xlink:title=" ">
<path fill="none" stroke="#63b8ff" d="M435.86,-113.09C414.56,-104.44 383.25,-91.75 359.33,-82.05"/>
<polygon fill="#63b8ff" stroke="#63b8ff" points="360.91,-78.91 350.33,-78.4 358.28,-85.4 360.91,-78.91"/>
</a>
</g>
</g>
<!-- Node33 -->
<g id="Node000033" class="node">
<title>Node33</title>
<g id="a_Node000033"><a xlink:title=" ">
<polygon fill="#e0e0e0" stroke="#999999" points="295.88,-20.75 240.12,-20.75 240.12,0 295.88,0 295.88,-20.75"/>
<text text-anchor="middle" x="268" y="-7.25" font-family="Helvetica,sans-Serif" font-size="10.00">sstream</text>
</a>
</g>
</g>
<!-- Node31&#45;&gt;Node33 -->
<g id="edge41_Node000031_Node000033" class="edge">
<title>Node31&#45;&gt;Node33</title>
<g id="a_edge41_Node000031_Node000033"><a xlink:title=" ">
<path fill="none" stroke="#63b8ff" d="M413.29,-113.01C365.55,-102.54 297.14,-86.32 288,-77.5 275.85,-65.78 271.01,-46.95 269.12,-32.38"/>
<polygon fill="#63b8ff" stroke="#63b8ff" points="272.61,-32.12 268.24,-22.46 265.64,-32.74 272.61,-32.12"/>
</a>
</g>
</g>
<!-- Node34 -->
<g id="Node000034" class="node">
<title>Node34</title>
<g id="a_Node000034"><a xlink:href="types_8h.html" target="_top" xlink:title=" ">
<polygon fill="white" stroke="#666666" points="423,-77.5 371,-77.5 371,-56.75 423,-56.75 423,-77.5"/>
<text text-anchor="middle" x="397" y="-64" font-family="Helvetica,sans-Serif" font-size="10.00">types.h</text>
</a>
</g>
</g>
<!-- Node31&#45;&gt;Node34 -->
<g id="edge42_Node000031_Node000034" class="edge">
<title>Node31&#45;&gt;Node34</title>
<g id="a_edge42_Node000031_Node000034"><a xlink:title=" ">
<path fill="none" stroke="#63b8ff" d="M448.74,-113.09C439.87,-105.38 427.29,-94.45 416.75,-85.29"/>
<polygon fill="#63b8ff" stroke="#63b8ff" points="419.15,-82.74 409.31,-78.82 414.56,-88.02 419.15,-82.74"/>
</a>
</g>
</g>
<!-- Node36 -->
<g id="Node000036" class="node">
<title>Node36</title>
<g id="a_Node000036"><a xlink:href="utilityString_8h.html" target="_top" xlink:title=" ">
<polygon fill="white" stroke="#666666" points="523,-77.5 441,-77.5 441,-56.75 523,-56.75 523,-77.5"/>
<text text-anchor="middle" x="482" y="-64" font-family="Helvetica,sans-Serif" font-size="10.00">utilityString.h</text>
</a>
</g>
</g>
<!-- Node31&#45;&gt;Node36 -->
<g id="edge44_Node000031_Node000036" class="edge">
<title>Node31&#45;&gt;Node36</title>
<g id="a_edge44_Node000031_Node000036"><a xlink:title=" ">
<path fill="none" stroke="#63b8ff" d="M463.93,-113.09C466.69,-106.24 470.46,-96.84 473.85,-88.4"/>
<polygon fill="#63b8ff" stroke="#63b8ff" points="477.06,-89.82 477.54,-79.23 470.56,-87.21 477.06,-89.82"/>
</a>
</g>
</g>
<!-- Node35 -->
<g id="Node000035" class="node">
<title>Node35</title>
<g id="a_Node000035"><a xlink:title=" ">
<polygon fill="#e0e0e0" stroke="#999999" points="413,-20.75 361,-20.75 361,0 413,0 413,-20.75"/>
<text text-anchor="middle" x="387" y="-7.25" font-family="Helvetica,sans-Serif" font-size="10.00">cstddef</text>
</a>
</g>
</g>
<!-- Node34&#45;&gt;Node35 -->
<g id="edge43_Node000034_Node000035" class="edge">
<title>Node34&#45;&gt;Node35</title>
<g id="a_edge43_Node000034_Node000035"><a xlink:title=" ">
<path fill="none" stroke="#63b8ff" d="M395.21,-56.34C393.99,-49.64 392.32,-40.51 390.81,-32.23"/>
<polygon fill="#63b8ff" stroke="#63b8ff" points="394.28,-31.78 389.04,-22.57 387.4,-33.03 394.28,-31.78"/>
</a>
</g>
</g>
<!-- Node36&#45;&gt;Node8 -->
<g id="edge48_Node000036_Node000008" class="edge">
<title>Node36&#45;&gt;Node8</title>
<g id="a_edge48_Node000036_Node000008"><a xlink:title=" ">
<path fill="none" stroke="#63b8ff" d="M523.29,-59.9C596.04,-48.93 745.63,-26.36 812.01,-16.35"/>
<polygon fill="#63b8ff" stroke="#63b8ff" points="812.18,-19.87 821.54,-14.91 811.13,-12.94 812.18,-19.87"/>
</a>
</g>
</g>
<!-- Node36&#45;&gt;Node9 -->
<g id="edge49_Node000036_Node000009" class="edge">
<title>Node36&#45;&gt;Node9</title>
<g id="a_edge49_Node000036_Node000009"><a xlink:title=" ">
<path fill="none" stroke="#63b8ff" d="M491.65,-56.34C499.1,-48.78 509.61,-38.14 518.52,-29.1"/>
<polygon fill="#63b8ff" stroke="#63b8ff" points="520.84,-31.73 525.37,-22.16 515.85,-26.82 520.84,-31.73"/>
</a>
</g>
</g>
<!-- Node36&#45;&gt;Node33 -->
<g id="edge47_Node000036_Node000033" class="edge">
<title>Node36&#45;&gt;Node33</title>
<g id="a_edge47_Node000036_Node000033"><a xlink:title=" ">
<path fill="none" stroke="#63b8ff" d="M443.74,-56.34C405.22,-46.48 346.1,-31.36 307.24,-21.41"/>
<polygon fill="#63b8ff" stroke="#63b8ff" points="308.38,-18.09 297.83,-19.01 306.65,-24.88 308.38,-18.09"/>
</a>
</g>
</g>
<!-- Node37 -->
<g id="Node000037" class="node">
<title>Node37</title>
<g id="a_Node000037"><a xlink:title=" ">
<polygon fill="#e0e0e0" stroke="#999999" points="494.62,-20.75 431.38,-20.75 431.38,0 494.62,0 494.62,-20.75"/>
<text text-anchor="middle" x="463" y="-7.25" font-family="Helvetica,sans-Serif" font-size="10.00">algorithm</text>
</a>
</g>
</g>
<!-- Node36&#45;&gt;Node37 -->
<g id="edge45_Node000036_Node000037" class="edge">
<title>Node36&#45;&gt;Node37</title>
<g id="a_edge45_Node000036_Node000037"><a xlink:title=" ">
<path fill="none" stroke="#63b8ff" d="M478.6,-56.34C476.25,-49.56 473.04,-40.3 470.14,-31.94"/>
<polygon fill="#63b8ff" stroke="#63b8ff" points="473.45,-30.81 466.86,-22.51 466.84,-33.1 473.45,-30.81"/>
</a>
</g>
</g>
<!-- Node38 -->
<g id="Node000038" class="node">
<title>Node38</title>
<g id="a_Node000038"><a xlink:title=" ">
<polygon fill="#e0e0e0" stroke="#999999" points="623,-20.75 577,-20.75 577,0 623,0 623,-20.75"/>
<text text-anchor="middle" x="600" y="-7.25" font-family="Helvetica,sans-Serif" font-size="10.00">deque</text>
</a>
</g>
</g>
<!-- Node36&#45;&gt;Node38 -->
<g id="edge46_Node000036_Node000038" class="edge">
<title>Node36&#45;&gt;Node38</title>
<g id="a_edge46_Node000036_Node000038"><a xlink:title=" ">
<path fill="none" stroke="#63b8ff" d="M503.1,-56.34C521.39,-47.85 548.1,-35.45 568.86,-25.83"/>
<polygon fill="#63b8ff" stroke="#63b8ff" points="570.12,-29.1 577.71,-21.72 567.17,-22.75 570.12,-29.1"/>
</a>
</g>
</g>
<!-- Node39&#45;&gt;Node8 -->
<g id="edge51_Node000039_Node000008" class="edge">
<title>Node39&#45;&gt;Node8</title>
<g id="a_edge51_Node000039_Node000008"><a xlink:title=" ">
<path fill="none" stroke="#63b8ff" d="M600.57,-169.78C623.86,-162.96 651.22,-151.84 671,-134.25 700.11,-108.35 682.36,-82.05 712,-56.75 740.38,-32.53 782.32,-21.05 811.48,-15.74"/>
<polygon fill="#63b8ff" stroke="#63b8ff" points="811.96,-19.21 821.25,-14.12 810.81,-12.3 811.96,-19.21"/>
</a>
</g>
</g>
<!-- Node39&#45;&gt;Node31 -->
<g id="edge52_Node000039_Node000031" class="edge">
<title>Node39&#45;&gt;Node31</title>
<g id="a_edge52_Node000039_Node000031"><a xlink:title=" ">
<path fill="none" stroke="#63b8ff" d="M537.19,-169.84C523.03,-161.58 502.51,-149.63 486.19,-140.13"/>
<polygon fill="#63b8ff" stroke="#63b8ff" points="488.37,-137.35 477.97,-135.34 484.85,-143.4 488.37,-137.35"/>
</a>
</g>
</g>
<!-- Node39&#45;&gt;Node34 -->
<g id="edge59_Node000039_Node000034" class="edge">
<title>Node39&#45;&gt;Node34</title>
<g id="a_edge59_Node000039_Node000034"><a xlink:title=" ">
<path fill="none" stroke="#63b8ff" d="M550.75,-170.17C545.41,-155.98 533.51,-129.17 515,-113.5 502.41,-102.84 463.93,-89.06 434.3,-79.49"/>
<polygon fill="#63b8ff" stroke="#63b8ff" points="435.48,-76.2 424.89,-76.51 433.36,-82.87 435.48,-76.2"/>
</a>
</g>
</g>
<!-- Node40 -->
<g id="Node000040" class="node">
<title>Node40</title>
<g id="a_Node000040"><a xlink:href="MessageQueue_8h.html" target="_top" xlink:title=" ">
<polygon fill="white" stroke="#666666" points="662,-134.25 562,-134.25 562,-113.5 662,-113.5 662,-134.25"/>
<text text-anchor="middle" x="612" y="-120.75" font-family="Helvetica,sans-Serif" font-size="10.00">MessageQueue.h</text>
</a>
</g>
</g>
<!-- Node39&#45;&gt;Node40 -->
<g id="edge53_Node000039_Node000040" class="edge">
<title>Node39&#45;&gt;Node40</title>
<g id="a_edge53_Node000039_Node000040"><a xlink:title=" ">
<path fill="none" stroke="#63b8ff" d="M564.37,-169.84C572.45,-162.21 583.88,-151.42 593.52,-142.32"/>
<polygon fill="#63b8ff" stroke="#63b8ff" points="595.75,-145.03 600.62,-135.62 590.95,-139.94 595.75,-145.03"/>
</a>
</g>
</g>
<!-- Node40&#45;&gt;Node7 -->
<g id="edge55_Node000040_Node000007" class="edge">
<title>Node40&#45;&gt;Node7</title>
<g id="a_edge55_Node000040_Node000007"><a xlink:title=" ">
<path fill="none" stroke="#63b8ff" d="M636.67,-113.09C658.45,-104.44 690.46,-91.75 714.91,-82.05"/>
<polygon fill="#63b8ff" stroke="#63b8ff" points="716.13,-85.33 724.14,-78.39 713.55,-78.82 716.13,-85.33"/>
</a>
</g>
</g>
<!-- Node40&#45;&gt;Node9 -->
<g id="edge57_Node000040_Node000009" class="edge">
<title>Node40&#45;&gt;Node9</title>
<g id="a_edge57_Node000040_Node000009"><a xlink:title=" ">
<path fill="none" stroke="#63b8ff" d="M605.52,-113.37C593.02,-95.03 565.36,-54.45 548.95,-30.37"/>
<polygon fill="#63b8ff" stroke="#63b8ff" points="552.06,-28.72 543.53,-22.43 546.27,-32.66 552.06,-28.72"/>
</a>
</g>
</g>
<!-- Node40&#45;&gt;Node34 -->
<g id="edge58_Node000040_Node000034" class="edge">
<title>Node40&#45;&gt;Node34</title>
<g id="a_edge58_Node000040_Node000034"><a xlink:title=" ">
<path fill="none" stroke="#63b8ff" d="M572.28,-113.04C538.13,-104.55 487.28,-91.8 434.33,-78.08"/>
<polygon fill="#63b8ff" stroke="#63b8ff" points="435.39,-74.74 424.83,-75.61 433.63,-81.51 435.39,-74.74"/>
</a>
</g>
</g>
<!-- Node40&#45;&gt;Node38 -->
<g id="edge54_Node000040_Node000038" class="edge">
<title>Node40&#45;&gt;Node38</title>
<g id="a_edge54_Node000040_Node000038"><a xlink:title=" ">
<path fill="none" stroke="#63b8ff" d="M610.98,-113.37C609.06,-95.52 604.87,-56.61 602.26,-32.34"/>
<polygon fill="#63b8ff" stroke="#63b8ff" points="605.77,-32.25 601.22,-22.68 598.81,-33 605.77,-32.25"/>
</a>
</g>
</g>
<!-- Node41 -->
<g id="Node000041" class="node">
<title>Node41</title>
<g id="a_Node000041"><a xlink:title=" ">
<polygon fill="#e0e0e0" stroke="#999999" points="664.75,-77.5 617.25,-77.5 617.25,-56.75 664.75,-56.75 664.75,-77.5"/>
<text text-anchor="middle" x="641" y="-64" font-family="Helvetica,sans-Serif" font-size="10.00">mutex</text>
</a>
</g>
</g>
<!-- Node40&#45;&gt;Node41 -->
<g id="edge56_Node000040_Node000041" class="edge">
<title>Node40&#45;&gt;Node41</title>
<g id="a_edge56_Node000040_Node000041"><a xlink:title=" ">
<path fill="none" stroke="#63b8ff" d="M617.18,-113.09C620.9,-106.08 626.02,-96.41 630.56,-87.83"/>
<polygon fill="#63b8ff" stroke="#63b8ff" points="633.56,-89.64 635.15,-79.17 627.38,-86.36 633.56,-89.64"/>
</a>
</g>
</g>
<!-- Node43 -->
<g id="Node000043" class="node">
<title>Node43</title>
<g id="a_Node000043"><a xlink:href="Message_8h.html" target="_top" xlink:title=" ">
<polygon fill="white" stroke="#666666" points="784.25,-191 715.75,-191 715.75,-170.25 784.25,-170.25 784.25,-191"/>
<text text-anchor="middle" x="750" y="-177.5" font-family="Helvetica,sans-Serif" font-size="10.00">Message.h</text>
</a>
</g>
</g>
<!-- Node42&#45;&gt;Node43 -->
<g id="edge61_Node000042_Node000043" class="edge">
<title>Node42&#45;&gt;Node43</title>
<g id="a_edge61_Node000042_Node000043"><a xlink:title=" ">
<path fill="none" stroke="#63b8ff" d="M767.25,-226.59C764.62,-219.74 761.01,-210.34 757.78,-201.9"/>
<polygon fill="#63b8ff" stroke="#63b8ff" points="761.11,-200.82 754.26,-192.74 754.58,-203.33 761.11,-200.82"/>
</a>
</g>
</g>
<!-- Node43&#45;&gt;Node7 -->
<g id="edge62_Node000043_Node000007" class="edge">
<title>Node43&#45;&gt;Node7</title>
<g id="a_edge62_Node000043_Node000007"><a xlink:title=" ">
<path fill="none" stroke="#63b8ff" d="M750,-170.12C750,-152.35 750,-113.72 750,-89.43"/>
<polygon fill="#63b8ff" stroke="#63b8ff" points="753.5,-89.44 750,-79.44 746.5,-89.44 753.5,-89.44"/>
</a>
</g>
</g>
<!-- Node43&#45;&gt;Node8 -->
<g id="edge63_Node000043_Node000008" class="edge">
<title>Node43&#45;&gt;Node8</title>
<g id="a_edge63_Node000043_Node000008"><a xlink:title=" ">
<path fill="none" stroke="#63b8ff" d="M755.38,-170.1C770.46,-143.39 813.38,-67.37 833.86,-31.1"/>
<polygon fill="#63b8ff" stroke="#63b8ff" points="836.83,-32.96 838.7,-22.54 830.73,-29.52 836.83,-32.96"/>
</a>
</g>
</g>
<!-- Node43&#45;&gt;Node31 -->
<g id="edge64_Node000043_Node000031" class="edge">
<title>Node43&#45;&gt;Node31</title>
<g id="a_edge64_Node000043_Node000031"><a xlink:title=" ">
<path fill="none" stroke="#63b8ff" d="M715.31,-173.08C666.44,-163.85 576.72,-146.91 517.71,-135.77"/>
<polygon fill="#63b8ff" stroke="#63b8ff" points="518.67,-132.39 508.19,-133.97 517.37,-139.27 518.67,-132.39"/>
</a>
</g>
</g>
<!-- Node43&#45;&gt;Node40 -->
<g id="edge65_Node000043_Node000040" class="edge">
<title>Node43&#45;&gt;Node40</title>
<g id="a_edge65_Node000043_Node000040"><a xlink:title=" ">
<path fill="none" stroke="#63b8ff" d="M725.33,-169.84C703.55,-161.19 671.54,-148.5 647.09,-138.8"/>
<polygon fill="#63b8ff" stroke="#63b8ff" points="648.45,-135.57 637.86,-135.14 645.87,-142.08 648.45,-135.57"/>
</a>
</g>
</g>
</g>
</svg>

<g id="navigator" transform="translate(0 0)" fill="#404254">
  <rect fill="#f2f5e9" fill-opacity="0.5" stroke="#606060" stroke-width=".5" x="0" y="0" width="60" height="60"/>
  <use id="zoomplus" xlink:href="#zoomPlus" x="17" y="9" onmousedown="handleZoom(evt,'in')"/>
  <use id="zoomminus" xlink:href="#zoomMin" x="42" y="9" onmousedown="handleZoom(evt,'out')"/>
  <use id="reset" xlink:href="#resetDef" x="30" y="36" onmousedown="handleReset()"/>
   <use id="arrowup" xlink:href="#arrowUp" x="0" y="0" onmousedown="handlePan(0,-1)"/>
  <use id="arrowright" xlink:href="#arrowRight" x="0" y="0" onmousedown="handlePan(1,0)"/>
  <use id="arrowdown" xlink:href="#arrowDown" x="0" y="0" onmousedown="handlePan(0,1)"/>
  <use id="arrowleft" xlink:href="#arrowLeft" x="0" y="0" onmousedown="handlePan(-1,0)"/>
</g>
<svg viewBox="0 0 15 15" width="100%" height="30px" preserveAspectRatio="xMaxYMin meet">
 <g id="arrow_out" transform="scale(0.3 0.3)">
  <a xlink:href="QtProjectWizardContentPathCDB_8h__incl_org.svg" target="_base">
   <rect id="button" ry="5" rx="5" y="6" x="6" height="38" width="38"
        fill="#f2f5e9" fill-opacity="0.5" stroke="#606060" stroke-width="1.0"/>
   <path id="arrow"
     d="M 11.500037,31.436501 C 11.940474,20.09759 22.043105,11.32322 32.158766,21.979434 L 37.068811,17.246167 C 37.068811,17.246167 37.088388,32 37.088388,32 L 22.160133,31.978069 C 22.160133,31.978069 26.997745,27.140456 26.997745,27.140456 C 18.528582,18.264221 13.291696,25.230495 11.500037,31.436501 z"
     style="fill:#404040;"/>
  </a>
 </g>
</svg>

<style type='text/css'>
<![CDATA[
[data-mouse-over-selected='false'] { opacity: 0.7; }
[data-mouse-over-selected='true']  { opacity: 1.0; }
]]>
</style>
<script type="application/ecmascript"><![CDATA[
document.addEventListener('DOMContentLoaded', (event) => {
  highlightEdges();
  highlightAdjacentNodes();
});
]]></script>
</svg>
