<?xml version="1.0" encoding="UTF-8" standalone="no"?>
<!DOCTYPE svg PUBLIC "-//W3C//DTD SVG 1.1//EN"
 "http://www.w3.org/Graphics/SVG/1.1/DTD/svg11.dtd">
<!-- Generated by graphviz version 7.1.0 (0)
 -->
<!-- Title: /home/ahussein/Documents/sourceCode/Sourcetrail/src/src/lib_gui/qt/project_wizard/content/QtProjectWizardContentCxxPchFlags.cpp Pages: 1 -->
<svg width="1604pt" height="533pt"
 viewBox="0.00 0.00 1603.92 533.00" xmlns="http://www.w3.org/2000/svg" xmlns:xlink="http://www.w3.org/1999/xlink">
<g id="graph0" class="graph" transform="scale(1 1) rotate(0) translate(4 529)">
<title>/home/ahussein/Documents/sourceCode/Sourcetrail/src/src/lib_gui/qt/project_wizard/content/QtProjectWizardContentCxxPchFlags.cpp</title>
<!-- Node1 -->
<g id="node1" class="node">
<title>Node1</title>
<g id="a_node1"><a xlink:title=" ">
<polygon fill="#999999" stroke="#666666" points="1216.92,-525 1002.92,-525 1002.92,-462 1216.92,-462 1216.92,-525"/>
<text text-anchor="start" x="1010.92" y="-513" font-family="Helvetica,sans-Serif" font-size="10.00">/home/ahussein/Documents</text>
<text text-anchor="start" x="1010.92" y="-502" font-family="Helvetica,sans-Serif" font-size="10.00">/sourceCode/Sourcetrail</text>
<text text-anchor="start" x="1010.92" y="-491" font-family="Helvetica,sans-Serif" font-size="10.00">/src/src/lib_gui/qt/project</text>
<text text-anchor="start" x="1010.92" y="-480" font-family="Helvetica,sans-Serif" font-size="10.00">_wizard/content/QtProjectWizardContent</text>
<text text-anchor="middle" x="1109.92" y="-469" font-family="Helvetica,sans-Serif" font-size="10.00">CxxPchFlags.cpp</text>
</a>
</g>
</g>
<!-- Node2 -->
<g id="node2" class="node">
<title>Node2</title>
<g id="a_node2"><a xlink:href="$QtProjectWizardContentCxxPchFlags_8h.html" xlink:title=" ">
<polygon fill="white" stroke="#666666" points="812.92,-426 660.92,-426 660.92,-396 812.92,-396 812.92,-426"/>
<text text-anchor="start" x="668.92" y="-414" font-family="Helvetica,sans-Serif" font-size="10.00">QtProjectWizardContentCxx</text>
<text text-anchor="middle" x="736.92" y="-403" font-family="Helvetica,sans-Serif" font-size="10.00">PchFlags.h</text>
</a>
</g>
</g>
<!-- Node1&#45;&gt;Node2 -->
<g id="edge1" class="edge">
<title>Node1&#45;&gt;Node2</title>
<path fill="none" stroke="#63b8ff" d="M1002.54,-469.32C942.64,-456.4 869.37,-440.58 814.97,-428.84"/>
<polygon fill="#63b8ff" stroke="#63b8ff" points="816,-425.49 805.48,-426.8 814.52,-432.33 816,-425.49"/>
</g>
<!-- Node40 -->
<g id="node38" class="node">
<title>Node40</title>
<g id="a_node38"><a xlink:title=" ">
<polygon fill="#e0e0e0" stroke="#999999" points="971.42,-420.5 898.42,-420.5 898.42,-401.5 971.42,-401.5 971.42,-420.5"/>
<text text-anchor="middle" x="934.92" y="-408.5" font-family="Helvetica,sans-Serif" font-size="10.00">QCheckBox</text>
</a>
</g>
</g>
<!-- Node1&#45;&gt;Node40 -->
<g id="edge60" class="edge">
<title>Node1&#45;&gt;Node40</title>
<path fill="none" stroke="#63b8ff" d="M1042.76,-461.61C1015.84,-449.22 986.2,-435.59 964.82,-425.75"/>
<polygon fill="#63b8ff" stroke="#63b8ff" points="966.37,-422.61 955.82,-421.61 963.44,-428.97 966.37,-422.61"/>
</g>
<!-- Node41 -->
<g id="node39" class="node">
<title>Node41</title>
<g id="a_node39"><a xlink:title=" ">
<polygon fill="#e0e0e0" stroke="#999999" points="1066.42,-420.5 989.42,-420.5 989.42,-401.5 1066.42,-401.5 1066.42,-420.5"/>
<text text-anchor="middle" x="1027.92" y="-408.5" font-family="Helvetica,sans-Serif" font-size="10.00">QGridLayout</text>
</a>
</g>
</g>
<!-- Node1&#45;&gt;Node41 -->
<g id="edge61" class="edge">
<title>Node1&#45;&gt;Node41</title>
<path fill="none" stroke="#63b8ff" d="M1078.45,-461.61C1067.11,-450.47 1054.74,-438.33 1045.08,-428.84"/>
<polygon fill="#63b8ff" stroke="#63b8ff" points="1047.74,-426.55 1038.15,-422.04 1042.83,-431.54 1047.74,-426.55"/>
</g>
<!-- Node42 -->
<g id="node40" class="node">
<title>Node42</title>
<g id="a_node40"><a xlink:title=" ">
<polygon fill="#e0e0e0" stroke="#999999" points="1134.92,-420.5 1084.92,-420.5 1084.92,-401.5 1134.92,-401.5 1134.92,-420.5"/>
<text text-anchor="middle" x="1109.92" y="-408.5" font-family="Helvetica,sans-Serif" font-size="10.00">QLabel</text>
</a>
</g>
</g>
<!-- Node1&#45;&gt;Node42 -->
<g id="edge62" class="edge">
<title>Node1&#45;&gt;Node42</title>
<path fill="none" stroke="#63b8ff" d="M1109.92,-461.61C1109.92,-451.84 1109.92,-441.29 1109.92,-432.44"/>
<polygon fill="#63b8ff" stroke="#63b8ff" points="1113.42,-432.49 1109.92,-422.49 1106.42,-432.49 1113.42,-432.49"/>
</g>
<!-- Node43 -->
<g id="node41" class="node">
<title>Node43</title>
<g id="a_node41"><a xlink:title=" ">
<polygon fill="#e0e0e0" stroke="#999999" points="1238.92,-420.5 1152.92,-420.5 1152.92,-401.5 1238.92,-401.5 1238.92,-420.5"/>
<text text-anchor="middle" x="1195.92" y="-408.5" font-family="Helvetica,sans-Serif" font-size="10.00">QMessageBox</text>
</a>
</g>
</g>
<!-- Node1&#45;&gt;Node43 -->
<g id="edge63" class="edge">
<title>Node1&#45;&gt;Node43</title>
<path fill="none" stroke="#63b8ff" d="M1142.93,-461.61C1154.82,-450.47 1167.8,-438.33 1177.93,-428.84"/>
<polygon fill="#63b8ff" stroke="#63b8ff" points="1180.31,-431.4 1185.22,-422.01 1175.53,-426.29 1180.31,-431.4"/>
</g>
<!-- Node44 -->
<g id="node42" class="node">
<title>Node44</title>
<g id="a_node42"><a xlink:href="$QtStringListBox_8h.html" xlink:title=" ">
<polygon fill="white" stroke="#666666" points="1317.42,-250 1216.42,-250 1216.42,-231 1317.42,-231 1317.42,-250"/>
<text text-anchor="middle" x="1266.92" y="-238" font-family="Helvetica,sans-Serif" font-size="10.00">QtStringListBox.h</text>
</a>
</g>
</g>
<!-- Node1&#45;&gt;Node44 -->
<g id="edge64" class="edge">
<title>Node1&#45;&gt;Node44</title>
<path fill="none" stroke="#63b8ff" d="M1207.07,-461.53C1222.92,-452.43 1237.53,-440.8 1247.92,-426 1283.35,-375.55 1276.42,-297.39 1270.67,-261.16"/>
<polygon fill="#63b8ff" stroke="#63b8ff" points="1274.18,-260.95 1269.01,-251.71 1267.29,-262.16 1274.18,-260.95"/>
</g>
<!-- Node50 -->
<g id="node48" class="node">
<title>Node50</title>
<g id="a_node48"><a xlink:href="$SourceGroupSettingsWithCxxPchOptions_8h.html" xlink:title=" ">
<polygon fill="white" stroke="#666666" points="1481.92,-195 1321.92,-195 1321.92,-165 1481.92,-165 1481.92,-195"/>
<text text-anchor="start" x="1329.92" y="-183" font-family="Helvetica,sans-Serif" font-size="10.00">SourceGroupSettingsWithCxx</text>
<text text-anchor="middle" x="1401.92" y="-172" font-family="Helvetica,sans-Serif" font-size="10.00">PchOptions.h</text>
</a>
</g>
</g>
<!-- Node1&#45;&gt;Node50 -->
<g id="edge72" class="edge">
<title>Node1&#45;&gt;Node50</title>
<path fill="none" stroke="#63b8ff" d="M1217.3,-478.11C1290.39,-461.58 1373.92,-426.32 1373.92,-351.5 1373.92,-351.5 1373.92,-351.5 1373.92,-294.5 1373.92,-263.39 1383.96,-228.84 1392.02,-206.13"/>
<polygon fill="#63b8ff" stroke="#63b8ff" points="1395.27,-207.42 1395.46,-196.83 1388.71,-204.99 1395.27,-207.42"/>
</g>
<!-- Node3 -->
<g id="node3" class="node">
<title>Node3</title>
<g id="a_node3"><a xlink:href="$QtProjectWizardContent_8h.html" xlink:title=" ">
<polygon fill="white" stroke="#666666" points="687.42,-360 544.42,-360 544.42,-341 687.42,-341 687.42,-360"/>
<text text-anchor="middle" x="615.92" y="-348" font-family="Helvetica,sans-Serif" font-size="10.00">QtProjectWizardContent.h</text>
</a>
</g>
</g>
<!-- Node2&#45;&gt;Node3 -->
<g id="edge2" class="edge">
<title>Node2&#45;&gt;Node3</title>
<path fill="none" stroke="#63b8ff" d="M707.01,-395.54C687.94,-386.32 663.37,-374.44 644.55,-365.34"/>
<polygon fill="#63b8ff" stroke="#63b8ff" points="646.11,-362.21 635.58,-361 643.06,-368.51 646.11,-362.21"/>
</g>
<!-- Node4 -->
<g id="node4" class="node">
<title>Node4</title>
<g id="a_node4"><a xlink:title=" ">
<polygon fill="#e0e0e0" stroke="#999999" points="414.42,-74 355.42,-74 355.42,-55 414.42,-55 414.42,-74"/>
<text text-anchor="middle" x="384.92" y="-62" font-family="Helvetica,sans-Serif" font-size="10.00">QWidget</text>
</a>
</g>
</g>
<!-- Node3&#45;&gt;Node4 -->
<g id="edge3" class="edge">
<title>Node3&#45;&gt;Node4</title>
<path fill="none" stroke="#63b8ff" d="M544,-341.89C483.54,-331.04 406.92,-304.81 406.92,-241.5 406.92,-241.5 406.92,-241.5 406.92,-179 406.92,-145.47 397.55,-107.36 391.04,-84.94"/>
<polygon fill="#63b8ff" stroke="#63b8ff" points="394.48,-84.22 388.24,-75.67 387.79,-86.25 394.48,-84.22"/>
</g>
<!-- Node5 -->
<g id="node5" class="node">
<title>Node5</title>
<g id="a_node5"><a xlink:href="$FilePath_8h.html" xlink:title=" ">
<polygon fill="white" stroke="#666666" points="1225.92,-129 1161.92,-129 1161.92,-110 1225.92,-110 1225.92,-129"/>
<text text-anchor="middle" x="1193.92" y="-117" font-family="Helvetica,sans-Serif" font-size="10.00">FilePath.h</text>
</a>
</g>
</g>
<!-- Node3&#45;&gt;Node5 -->
<g id="edge4" class="edge">
<title>Node3&#45;&gt;Node5</title>
<path fill="none" stroke="#63b8ff" d="M687.74,-346.4C821.64,-339.11 1101.94,-316.14 1168.92,-250 1198.17,-221.12 1198.69,-169.07 1196.39,-140.54"/>
<polygon fill="#63b8ff" stroke="#63b8ff" points="1199.89,-140.35 1195.39,-130.76 1192.93,-141.07 1199.89,-140.35"/>
</g>
<!-- Node9 -->
<g id="node9" class="node">
<title>Node9</title>
<g id="a_node9"><a xlink:href="$QtHelpButton_8h.html" xlink:title=" ">
<polygon fill="white" stroke="#666666" points="541.92,-250 449.92,-250 449.92,-231 541.92,-231 541.92,-250"/>
<text text-anchor="middle" x="495.92" y="-238" font-family="Helvetica,sans-Serif" font-size="10.00">QtHelpButton.h</text>
</a>
</g>
</g>
<!-- Node3&#45;&gt;Node9 -->
<g id="edge8" class="edge">
<title>Node3&#45;&gt;Node9</title>
<path fill="none" stroke="#63b8ff" d="M606.1,-340.66C586.06,-322.62 540.17,-281.32 514.38,-258.12"/>
<polygon fill="#63b8ff" stroke="#63b8ff" points="516.78,-255.56 507,-251.47 512.1,-260.76 516.78,-255.56"/>
</g>
<!-- Node14 -->
<g id="node14" class="node">
<title>Node14</title>
<g id="a_node14"><a xlink:href="$QtProjectWizardWindow_8h.html" xlink:title=" ">
<polygon fill="white" stroke="#666666" points="323.42,-305 180.42,-305 180.42,-286 323.42,-286 323.42,-305"/>
<text text-anchor="middle" x="251.92" y="-293" font-family="Helvetica,sans-Serif" font-size="10.00">QtProjectWizardWindow.h</text>
</a>
</g>
</g>
<!-- Node3&#45;&gt;Node14 -->
<g id="edge14" class="edge">
<title>Node3&#45;&gt;Node14</title>
<path fill="none" stroke="#63b8ff" d="M554.18,-340.51C490.8,-331.28 392.23,-316.93 325.01,-307.14"/>
<polygon fill="#63b8ff" stroke="#63b8ff" points="325.57,-303.69 315.17,-305.71 324.56,-310.61 325.57,-303.69"/>
</g>
<!-- Node21 -->
<g id="node21" class="node">
<title>Node21</title>
<g id="a_node21"><a xlink:href="$QtThreadedFunctor_8h.html" xlink:title=" ">
<polygon fill="white" stroke="#666666" points="817.42,-305 698.42,-305 698.42,-286 817.42,-286 817.42,-305"/>
<text text-anchor="middle" x="757.92" y="-293" font-family="Helvetica,sans-Serif" font-size="10.00">QtThreadedFunctor.h</text>
</a>
</g>
</g>
<!-- Node3&#45;&gt;Node21 -->
<g id="edge27" class="edge">
<title>Node3&#45;&gt;Node21</title>
<path fill="none" stroke="#63b8ff" d="M640.01,-340.51C663,-331.93 697.86,-318.92 723.72,-309.27"/>
<polygon fill="#63b8ff" stroke="#63b8ff" points="724.63,-312.66 732.77,-305.89 722.18,-306.1 724.63,-312.66"/>
</g>
<!-- Node6 -->
<g id="node6" class="node">
<title>Node6</title>
<g id="a_node6"><a xlink:title=" ">
<polygon fill="#e0e0e0" stroke="#999999" points="1134.92,-74 1076.92,-74 1076.92,-55 1134.92,-55 1134.92,-74"/>
<text text-anchor="middle" x="1105.92" y="-62" font-family="Helvetica,sans-Serif" font-size="10.00">memory</text>
</a>
</g>
</g>
<!-- Node5&#45;&gt;Node6 -->
<g id="edge5" class="edge">
<title>Node5&#45;&gt;Node6</title>
<path fill="none" stroke="#63b8ff" d="M1178.99,-109.51C1165.64,-101.47 1145.82,-89.53 1130.19,-80.11"/>
<polygon fill="#63b8ff" stroke="#63b8ff" points="1132.3,-77.3 1121.93,-75.14 1128.69,-83.3 1132.3,-77.3"/>
</g>
<!-- Node7 -->
<g id="node7" class="node">
<title>Node7</title>
<g id="a_node7"><a xlink:title=" ">
<polygon fill="#e0e0e0" stroke="#999999" points="1146.92,-19 1102.92,-19 1102.92,0 1146.92,0 1146.92,-19"/>
<text text-anchor="middle" x="1124.92" y="-7" font-family="Helvetica,sans-Serif" font-size="10.00">string</text>
</a>
</g>
</g>
<!-- Node5&#45;&gt;Node7 -->
<g id="edge6" class="edge">
<title>Node5&#45;&gt;Node7</title>
<path fill="none" stroke="#63b8ff" d="M1201.29,-109.73C1211.09,-96.94 1225.95,-72.75 1214.92,-55 1202.56,-35.1 1178.38,-23.83 1158.2,-17.62"/>
<polygon fill="#63b8ff" stroke="#63b8ff" points="1159.22,-14.27 1148.65,-14.99 1157.36,-21.02 1159.22,-14.27"/>
</g>
<!-- Node8 -->
<g id="node8" class="node">
<title>Node8</title>
<g id="a_node8"><a xlink:title=" ">
<polygon fill="#e0e0e0" stroke="#999999" points="804.42,-19 757.42,-19 757.42,0 804.42,0 804.42,-19"/>
<text text-anchor="middle" x="780.92" y="-7" font-family="Helvetica,sans-Serif" font-size="10.00">vector</text>
</a>
</g>
</g>
<!-- Node5&#45;&gt;Node8 -->
<g id="edge7" class="edge">
<title>Node5&#45;&gt;Node8</title>
<path fill="none" stroke="#63b8ff" d="M1189.85,-109.73C1182.75,-95.52 1166.66,-67.81 1143.92,-55 1129.71,-46.99 904.29,-23.16 816,-14.07"/>
<polygon fill="#63b8ff" stroke="#63b8ff" points="816.54,-10.61 806.23,-13.07 815.83,-17.57 816.54,-10.61"/>
</g>
<!-- Node10 -->
<g id="node10" class="node">
<title>Node10</title>
<g id="a_node10"><a xlink:href="$QtHelpButtonInfo_8h.html" xlink:title=" ">
<polygon fill="white" stroke="#666666" points="544.92,-189.5 434.92,-189.5 434.92,-170.5 544.92,-170.5 544.92,-189.5"/>
<text text-anchor="middle" x="489.92" y="-177.5" font-family="Helvetica,sans-Serif" font-size="10.00">QtHelpButtonInfo.h</text>
</a>
</g>
</g>
<!-- Node9&#45;&gt;Node10 -->
<g id="edge9" class="edge">
<title>Node9&#45;&gt;Node10</title>
<path fill="none" stroke="#63b8ff" d="M495.04,-230.87C494.23,-223 493.01,-211.1 491.96,-200.89"/>
<polygon fill="#63b8ff" stroke="#63b8ff" points="495.47,-200.76 490.97,-191.17 488.5,-201.48 495.47,-200.76"/>
</g>
<!-- Node12 -->
<g id="node12" class="node">
<title>Node12</title>
<g id="a_node12"><a xlink:href="$QtIconButton_8h.html" xlink:title=" ">
<polygon fill="white" stroke="#666666" points="652.42,-189.5 563.42,-189.5 563.42,-170.5 652.42,-170.5 652.42,-189.5"/>
<text text-anchor="middle" x="607.92" y="-177.5" font-family="Helvetica,sans-Serif" font-size="10.00">QtIconButton.h</text>
</a>
</g>
</g>
<!-- Node9&#45;&gt;Node12 -->
<g id="edge11" class="edge">
<title>Node9&#45;&gt;Node12</title>
<path fill="none" stroke="#63b8ff" d="M512.93,-230.62C530.94,-221.21 559.63,-206.22 580.77,-195.18"/>
<polygon fill="#63b8ff" stroke="#63b8ff" points="582.17,-198.4 589.41,-190.67 578.93,-192.2 582.17,-198.4"/>
</g>
<!-- Node11 -->
<g id="node11" class="node">
<title>Node11</title>
<g id="a_node11"><a xlink:title=" ">
<polygon fill="#e0e0e0" stroke="#999999" points="501.42,-129 448.42,-129 448.42,-110 501.42,-110 501.42,-129"/>
<text text-anchor="middle" x="474.92" y="-117" font-family="Helvetica,sans-Serif" font-size="10.00">QString</text>
</a>
</g>
</g>
<!-- Node10&#45;&gt;Node11 -->
<g id="edge10" class="edge">
<title>Node10&#45;&gt;Node11</title>
<path fill="none" stroke="#63b8ff" d="M487.71,-170.37C485.67,-162.42 482.57,-150.33 479.94,-140.05"/>
<polygon fill="#63b8ff" stroke="#63b8ff" points="483.4,-139.45 477.52,-130.63 476.61,-141.19 483.4,-139.45"/>
</g>
<!-- Node12&#45;&gt;Node5 -->
<g id="edge13" class="edge">
<title>Node12&#45;&gt;Node5</title>
<path fill="none" stroke="#63b8ff" d="M638.85,-170.02C646.35,-168.11 654.38,-166.28 661.92,-165 841.58,-134.43 1059.11,-124.57 1150.35,-121.64"/>
<polygon fill="#63b8ff" stroke="#63b8ff" points="1150.2,-125.14 1160.09,-121.34 1149.98,-118.15 1150.2,-125.14"/>
</g>
<!-- Node13 -->
<g id="node13" class="node">
<title>Node13</title>
<g id="a_node13"><a xlink:title=" ">
<polygon fill="#e0e0e0" stroke="#999999" points="599.92,-129 519.92,-129 519.92,-110 599.92,-110 599.92,-129"/>
<text text-anchor="middle" x="559.92" y="-117" font-family="Helvetica,sans-Serif" font-size="10.00">QPushButton</text>
</a>
</g>
</g>
<!-- Node12&#45;&gt;Node13 -->
<g id="edge12" class="edge">
<title>Node12&#45;&gt;Node13</title>
<path fill="none" stroke="#63b8ff" d="M600.84,-170.37C593.89,-161.9 583.09,-148.74 574.34,-138.07"/>
<polygon fill="#63b8ff" stroke="#63b8ff" points="577.04,-135.85 567.99,-130.34 571.63,-140.29 577.04,-135.85"/>
</g>
<!-- Node15 -->
<g id="node15" class="node">
<title>Node15</title>
<g id="a_node15"><a xlink:href="$QtWindow_8h.html" xlink:title=" ">
<polygon fill="white" stroke="#666666" points="234.42,-250 159.42,-250 159.42,-231 234.42,-231 234.42,-250"/>
<text text-anchor="middle" x="196.92" y="-238" font-family="Helvetica,sans-Serif" font-size="10.00">QtWindow.h</text>
</a>
</g>
</g>
<!-- Node14&#45;&gt;Node15 -->
<g id="edge15" class="edge">
<title>Node14&#45;&gt;Node15</title>
<path fill="none" stroke="#63b8ff" d="M242.84,-285.75C235.09,-278.27 223.71,-267.32 214.23,-258.17"/>
<polygon fill="#63b8ff" stroke="#63b8ff" points="216.92,-255.91 207.29,-251.49 212.06,-260.95 216.92,-255.91"/>
</g>
<!-- Node15&#45;&gt;Node4 -->
<g id="edge19" class="edge">
<title>Node15&#45;&gt;Node4</title>
<path fill="none" stroke="#63b8ff" d="M159.13,-235.41C112.19,-229.47 36.14,-216.71 18.92,-195 -4.55,-165.4 -7.13,-138.28 17.92,-110 39.28,-85.9 252.72,-72.24 343.94,-67.46"/>
<polygon fill="#63b8ff" stroke="#63b8ff" points="343.88,-70.97 353.69,-66.96 343.52,-63.97 343.88,-70.97"/>
</g>
<!-- Node16 -->
<g id="node16" class="node">
<title>Node16</title>
<g id="a_node16"><a xlink:title=" ">
<polygon fill="#e0e0e0" stroke="#999999" points="238.42,-189.5 155.42,-189.5 155.42,-170.5 238.42,-170.5 238.42,-189.5"/>
<text text-anchor="middle" x="196.92" y="-177.5" font-family="Helvetica,sans-Serif" font-size="10.00">QHBoxLayout</text>
</a>
</g>
</g>
<!-- Node15&#45;&gt;Node16 -->
<g id="edge16" class="edge">
<title>Node15&#45;&gt;Node16</title>
<path fill="none" stroke="#63b8ff" d="M196.92,-230.87C196.92,-223 196.92,-211.1 196.92,-200.89"/>
<polygon fill="#63b8ff" stroke="#63b8ff" points="200.42,-201.18 196.92,-191.18 193.42,-201.18 200.42,-201.18"/>
</g>
<!-- Node17 -->
<g id="node17" class="node">
<title>Node17</title>
<g id="a_node17"><a xlink:title=" ">
<polygon fill="#e0e0e0" stroke="#999999" points="340.92,-189.5 256.92,-189.5 256.92,-170.5 340.92,-170.5 340.92,-189.5"/>
<text text-anchor="middle" x="298.92" y="-177.5" font-family="Helvetica,sans-Serif" font-size="10.00">QResizeEvent</text>
</a>
</g>
</g>
<!-- Node15&#45;&gt;Node17 -->
<g id="edge17" class="edge">
<title>Node15&#45;&gt;Node17</title>
<path fill="none" stroke="#63b8ff" d="M212.41,-230.62C228.59,-221.34 254.23,-206.63 273.4,-195.64"/>
<polygon fill="#63b8ff" stroke="#63b8ff" points="275.04,-198.73 281.97,-190.72 271.56,-192.66 275.04,-198.73"/>
</g>
<!-- Node18 -->
<g id="node18" class="node">
<title>Node18</title>
<g id="a_node18"><a xlink:title=" ">
<polygon fill="#e0e0e0" stroke="#999999" points="92.42,-129 27.42,-129 27.42,-110 92.42,-110 92.42,-129"/>
<text text-anchor="middle" x="59.92" y="-117" font-family="Helvetica,sans-Serif" font-size="10.00">QSizeGrip</text>
</a>
</g>
</g>
<!-- Node15&#45;&gt;Node18 -->
<g id="edge18" class="edge">
<title>Node15&#45;&gt;Node18</title>
<path fill="none" stroke="#63b8ff" d="M159.03,-234.89C114.25,-228.57 43.81,-215.61 27.92,-195 14.42,-177.48 29.55,-153.39 43.25,-137.41"/>
<polygon fill="#63b8ff" stroke="#63b8ff" points="45.73,-139.89 49.91,-130.16 40.57,-135.16 45.73,-139.89"/>
</g>
<!-- Node19 -->
<g id="node19" class="node">
<title>Node19</title>
<g id="a_node19"><a xlink:href="$QtWindowBase_8h.html" xlink:title=" ">
<polygon fill="white" stroke="#666666" points="136.92,-189.5 36.92,-189.5 36.92,-170.5 136.92,-170.5 136.92,-189.5"/>
<text text-anchor="middle" x="86.92" y="-177.5" font-family="Helvetica,sans-Serif" font-size="10.00">QtWindowBase.h</text>
</a>
</g>
</g>
<!-- Node15&#45;&gt;Node19 -->
<g id="edge20" class="edge">
<title>Node15&#45;&gt;Node19</title>
<path fill="none" stroke="#63b8ff" d="M180.22,-230.62C162.61,-221.25 134.61,-206.36 113.87,-195.33"/>
<polygon fill="#63b8ff" stroke="#63b8ff" points="115.6,-192.28 105.12,-190.68 112.31,-198.46 115.6,-192.28"/>
</g>
<!-- Node20 -->
<g id="node20" class="node">
<title>Node20</title>
<g id="a_node20"><a xlink:href="$QtWindowStack_8h.html" xlink:title=" ">
<polygon fill="white" stroke="#666666" points="378.42,-129 275.42,-129 275.42,-110 378.42,-110 378.42,-129"/>
<text text-anchor="middle" x="326.92" y="-117" font-family="Helvetica,sans-Serif" font-size="10.00">QtWindowStack.h</text>
</a>
</g>
</g>
<!-- Node15&#45;&gt;Node20 -->
<g id="edge26" class="edge">
<title>Node15&#45;&gt;Node20</title>
<path fill="none" stroke="#63b8ff" d="M234.88,-233.74C275.54,-226.7 336.1,-213.42 349.92,-195 362.57,-178.15 351.33,-154.24 340.58,-138.09"/>
<polygon fill="#63b8ff" stroke="#63b8ff" points="343.73,-136.47 335.05,-130.4 338.04,-140.56 343.73,-136.47"/>
</g>
<!-- Node19&#45;&gt;Node4 -->
<g id="edge22" class="edge">
<title>Node19&#45;&gt;Node4</title>
<path fill="none" stroke="#63b8ff" d="M109.78,-170.1C143.79,-156.89 209.72,-131.34 265.92,-110 294.23,-99.25 326.39,-87.24 350.14,-78.4"/>
<polygon fill="#63b8ff" stroke="#63b8ff" points="351.16,-81.76 359.32,-74.99 348.73,-75.19 351.16,-81.76"/>
</g>
<!-- Node19&#45;&gt;Node18 -->
<g id="edge21" class="edge">
<title>Node19&#45;&gt;Node18</title>
<path fill="none" stroke="#63b8ff" d="M82.94,-170.37C79.19,-162.25 73.45,-149.81 68.64,-139.39"/>
<polygon fill="#63b8ff" stroke="#63b8ff" points="71.93,-138.15 64.56,-130.54 65.57,-141.09 71.93,-138.15"/>
</g>
<!-- Node19&#45;&gt;Node20 -->
<g id="edge23" class="edge">
<title>Node19&#45;&gt;Node20</title>
<path fill="none" stroke="#63b8ff" d="M123.63,-170.05C165.28,-159.9 233.32,-143.31 279.09,-132.16"/>
<polygon fill="#63b8ff" stroke="#63b8ff" points="279.86,-135.57 288.74,-129.81 278.2,-128.77 279.86,-135.57"/>
</g>
<!-- Node20&#45;&gt;Node4 -->
<g id="edge25" class="edge">
<title>Node20&#45;&gt;Node4</title>
<path fill="none" stroke="#63b8ff" d="M336.76,-109.51C344.98,-102 356.91,-91.1 366.84,-82.03"/>
<polygon fill="#63b8ff" stroke="#63b8ff" points="369.09,-84.71 374.11,-75.38 364.37,-79.54 369.09,-84.71"/>
</g>
<!-- Node20&#45;&gt;Node8 -->
<g id="edge24" class="edge">
<title>Node20&#45;&gt;Node8</title>
<path fill="none" stroke="#63b8ff" d="M326.7,-109.91C326.86,-95.96 329.4,-68.61 345.92,-55 408.83,-3.17 629.91,-27.91 710.92,-19 722.3,-17.75 734.71,-16.28 745.87,-14.91"/>
<polygon fill="#63b8ff" stroke="#63b8ff" points="745.97,-18.43 755.46,-13.73 745.11,-11.48 745.97,-18.43"/>
</g>
<!-- Node22 -->
<g id="node22" class="node">
<title>Node22</title>
<g id="a_node22"><a xlink:title=" ">
<polygon fill="#e0e0e0" stroke="#999999" points="625.42,-250 560.42,-250 560.42,-231 625.42,-231 625.42,-250"/>
<text text-anchor="middle" x="592.92" y="-238" font-family="Helvetica,sans-Serif" font-size="10.00">functional</text>
</a>
</g>
</g>
<!-- Node21&#45;&gt;Node22 -->
<g id="edge28" class="edge">
<title>Node21&#45;&gt;Node22</title>
<path fill="none" stroke="#63b8ff" d="M729.93,-285.51C702.83,-276.8 661.51,-263.53 631.34,-253.84"/>
<polygon fill="#63b8ff" stroke="#63b8ff" points="632.81,-250.64 622.22,-250.91 630.67,-257.3 632.81,-250.64"/>
</g>
<!-- Node23 -->
<g id="node23" class="node">
<title>Node23</title>
<g id="a_node23"><a xlink:title=" ">
<polygon fill="#e0e0e0" stroke="#999999" points="699.92,-250 643.92,-250 643.92,-231 699.92,-231 699.92,-250"/>
<text text-anchor="middle" x="671.92" y="-238" font-family="Helvetica,sans-Serif" font-size="10.00">QObject</text>
</a>
</g>
</g>
<!-- Node21&#45;&gt;Node23 -->
<g id="edge29" class="edge">
<title>Node21&#45;&gt;Node23</title>
<path fill="none" stroke="#63b8ff" d="M743.33,-285.51C730.41,-277.54 711.28,-265.75 696.07,-256.38"/>
<polygon fill="#63b8ff" stroke="#63b8ff" points="697.93,-253.42 687.58,-251.15 694.26,-259.38 697.93,-253.42"/>
</g>
<!-- Node24 -->
<g id="node24" class="node">
<title>Node24</title>
<g id="a_node24"><a xlink:title=" ">
<polygon fill="#e0e0e0" stroke="#999999" points="797.92,-250 717.92,-250 717.92,-231 797.92,-231 797.92,-250"/>
<text text-anchor="middle" x="757.92" y="-238" font-family="Helvetica,sans-Serif" font-size="10.00">QSemaphore</text>
</a>
</g>
</g>
<!-- Node21&#45;&gt;Node24 -->
<g id="edge30" class="edge">
<title>Node21&#45;&gt;Node24</title>
<path fill="none" stroke="#63b8ff" d="M757.92,-285.75C757.92,-279.27 757.92,-270.16 757.92,-261.9"/>
<polygon fill="#63b8ff" stroke="#63b8ff" points="761.42,-261.96 757.92,-251.96 754.42,-261.96 761.42,-261.96"/>
</g>
<!-- Node25 -->
<g id="node25" class="node">
<title>Node25</title>
<g id="a_node25"><a xlink:title=" ">
<polygon fill="#e0e0e0" stroke="#999999" points="873.92,-250 815.92,-250 815.92,-231 873.92,-231 873.92,-250"/>
<text text-anchor="middle" x="844.92" y="-238" font-family="Helvetica,sans-Serif" font-size="10.00">QThread</text>
</a>
</g>
</g>
<!-- Node21&#45;&gt;Node25 -->
<g id="edge31" class="edge">
<title>Node21&#45;&gt;Node25</title>
<path fill="none" stroke="#63b8ff" d="M772.68,-285.51C785.88,-277.47 805.48,-265.53 820.93,-256.11"/>
<polygon fill="#63b8ff" stroke="#63b8ff" points="822.37,-259.34 829.09,-251.15 818.73,-253.36 822.37,-259.34"/>
</g>
<!-- Node26 -->
<g id="node26" class="node">
<title>Node26</title>
<g id="a_node26"><a xlink:href="$MessageListener_8h.html" xlink:title=" ">
<polygon fill="white" stroke="#666666" points="999.92,-250 891.92,-250 891.92,-231 999.92,-231 999.92,-250"/>
<text text-anchor="middle" x="945.92" y="-238" font-family="Helvetica,sans-Serif" font-size="10.00">MessageListener.h</text>
</a>
</g>
</g>
<!-- Node21&#45;&gt;Node26 -->
<g id="edge32" class="edge">
<title>Node21&#45;&gt;Node26</title>
<path fill="none" stroke="#63b8ff" d="M789.81,-285.51C821.1,-276.69 869.01,-263.18 903.5,-253.46"/>
<polygon fill="#63b8ff" stroke="#63b8ff" points="904.06,-256.94 912.73,-250.86 902.16,-250.2 904.06,-256.94"/>
</g>
<!-- Node38 -->
<g id="node36" class="node">
<title>Node38</title>
<g id="a_node36"><a xlink:href="$MessageWindowClosed_8h.html" xlink:title=" ">
<polygon fill="white" stroke="#666666" points="1159.42,-250 1018.42,-250 1018.42,-231 1159.42,-231 1159.42,-250"/>
<text text-anchor="middle" x="1088.92" y="-238" font-family="Helvetica,sans-Serif" font-size="10.00">MessageWindowClosed.h</text>
</a>
</g>
</g>
<!-- Node21&#45;&gt;Node38 -->
<g id="edge54" class="edge">
<title>Node21&#45;&gt;Node38</title>
<path fill="none" stroke="#63b8ff" d="M814.07,-285.51C871.46,-276.32 960.6,-262.05 1021.7,-252.26"/>
<polygon fill="#63b8ff" stroke="#63b8ff" points="1021.96,-255.77 1031.28,-250.73 1020.85,-248.85 1021.96,-255.77"/>
</g>
<!-- Node26&#45;&gt;Node7 -->
<g id="edge33" class="edge">
<title>Node26&#45;&gt;Node7</title>
<path fill="none" stroke="#63b8ff" d="M963.16,-230.59C976.84,-222.77 995.64,-210.29 1007.92,-195 1050.31,-142.22 1026.61,-108.63 1067.92,-55 1076.72,-43.58 1089.1,-33.45 1100.07,-25.75"/>
<polygon fill="#63b8ff" stroke="#63b8ff" points="1101.97,-28.69 1108.35,-20.24 1098.09,-22.87 1101.97,-28.69"/>
</g>
<!-- Node27 -->
<g id="node27" class="node">
<title>Node27</title>
<g id="a_node27"><a xlink:href="$MessageBase_8h.html" xlink:title=" ">
<polygon fill="white" stroke="#666666" points="824.42,-129 731.42,-129 731.42,-110 824.42,-110 824.42,-129"/>
<text text-anchor="middle" x="777.92" y="-117" font-family="Helvetica,sans-Serif" font-size="10.00">MessageBase.h</text>
</a>
</g>
</g>
<!-- Node26&#45;&gt;Node27 -->
<g id="edge34" class="edge">
<title>Node26&#45;&gt;Node27</title>
<path fill="none" stroke="#63b8ff" d="M915.34,-230.54C893.54,-223.21 864.25,-211.37 841.92,-195 820.51,-179.3 801.47,-155.14 789.84,-138.62"/>
<polygon fill="#63b8ff" stroke="#63b8ff" points="792.98,-137.01 784.45,-130.72 787.19,-140.95 792.98,-137.01"/>
</g>
<!-- Node35 -->
<g id="node33" class="node">
<title>Node35</title>
<g id="a_node33"><a xlink:href="$MessageListenerBase_8h.html" xlink:title=" ">
<polygon fill="white" stroke="#666666" points="982.92,-189.5 850.92,-189.5 850.92,-170.5 982.92,-170.5 982.92,-189.5"/>
<text text-anchor="middle" x="916.92" y="-177.5" font-family="Helvetica,sans-Serif" font-size="10.00">MessageListenerBase.h</text>
</a>
</g>
</g>
<!-- Node26&#45;&gt;Node35 -->
<g id="edge43" class="edge">
<title>Node26&#45;&gt;Node35</title>
<path fill="none" stroke="#63b8ff" d="M941.64,-230.87C937.62,-222.75 931.45,-210.31 926.28,-199.89"/>
<polygon fill="#63b8ff" stroke="#63b8ff" points="929.47,-198.43 921.89,-191.02 923.2,-201.54 929.47,-198.43"/>
</g>
<!-- Node36 -->
<g id="node34" class="node">
<title>Node36</title>
<g id="a_node34"><a xlink:href="$MessageQueue_8h.html" xlink:title=" ">
<polygon fill="white" stroke="#666666" points="982.42,-129 881.42,-129 881.42,-110 982.42,-110 982.42,-129"/>
<text text-anchor="middle" x="931.92" y="-117" font-family="Helvetica,sans-Serif" font-size="10.00">MessageQueue.h</text>
</a>
</g>
</g>
<!-- Node26&#45;&gt;Node36 -->
<g id="edge53" class="edge">
<title>Node26&#45;&gt;Node36</title>
<path fill="none" stroke="#63b8ff" d="M960.15,-230.51C971.13,-222.65 985.5,-210.14 991.92,-195 997.13,-182.72 997.92,-176.91 991.92,-165 985.56,-152.37 973.73,-142.42 962.25,-135.17"/>
<polygon fill="#63b8ff" stroke="#63b8ff" points="964.11,-132.2 953.7,-130.24 960.62,-138.27 964.11,-132.2"/>
</g>
<!-- Node28 -->
<g id="node28" class="node">
<title>Node28</title>
<g id="a_node28"><a xlink:title=" ">
<polygon fill="#e0e0e0" stroke="#999999" points="668.42,-74 611.42,-74 611.42,-55 668.42,-55 668.42,-74"/>
<text text-anchor="middle" x="639.92" y="-62" font-family="Helvetica,sans-Serif" font-size="10.00">ostream</text>
</a>
</g>
</g>
<!-- Node27&#45;&gt;Node28 -->
<g id="edge35" class="edge">
<title>Node27&#45;&gt;Node28</title>
<path fill="none" stroke="#63b8ff" d="M754.51,-109.51C732.27,-100.97 698.6,-88.03 673.5,-78.4"/>
<polygon fill="#63b8ff" stroke="#63b8ff" points="674.99,-75.22 664.4,-74.9 672.48,-81.75 674.99,-75.22"/>
</g>
<!-- Node29 -->
<g id="node29" class="node">
<title>Node29</title>
<g id="a_node29"><a xlink:title=" ">
<polygon fill="#e0e0e0" stroke="#999999" points="701.92,-19 645.92,-19 645.92,0 701.92,0 701.92,-19"/>
<text text-anchor="middle" x="673.92" y="-7" font-family="Helvetica,sans-Serif" font-size="10.00">sstream</text>
</a>
</g>
</g>
<!-- Node27&#45;&gt;Node29 -->
<g id="edge36" class="edge">
<title>Node27&#45;&gt;Node29</title>
<path fill="none" stroke="#63b8ff" d="M731.2,-109.68C682.12,-99.93 610.91,-84.27 602.92,-74 587.73,-54.47 614.55,-36.07 639.47,-24.16"/>
<polygon fill="#63b8ff" stroke="#63b8ff" points="640.83,-27.39 648.52,-20.09 637.96,-21 640.83,-27.39"/>
</g>
<!-- Node30 -->
<g id="node30" class="node">
<title>Node30</title>
<g id="a_node30"><a xlink:href="$types_8h.html" xlink:title=" ">
<polygon fill="#fff0f0" stroke="red" points="840.42,-74 787.42,-74 787.42,-55 840.42,-55 840.42,-74"/>
<text text-anchor="middle" x="813.92" y="-62" font-family="Helvetica,sans-Serif" font-size="10.00">types.h</text>
</a>
</g>
</g>
<!-- Node27&#45;&gt;Node30 -->
<g id="edge37" class="edge">
<title>Node27&#45;&gt;Node30</title>
<path fill="none" stroke="#63b8ff" d="M783.87,-109.75C788.63,-102.73 795.48,-92.64 801.44,-83.87"/>
<polygon fill="#63b8ff" stroke="#63b8ff" points="804.27,-85.93 807,-75.69 798.48,-82 804.27,-85.93"/>
</g>
<!-- Node32 -->
<g id="node31" class="node">
<title>Node32</title>
<g id="a_node31"><a xlink:href="$utilityString_8h.html" xlink:title=" ">
<polygon fill="#fff0f0" stroke="red" points="769.42,-74 686.42,-74 686.42,-55 769.42,-55 769.42,-74"/>
<text text-anchor="middle" x="727.92" y="-62" font-family="Helvetica,sans-Serif" font-size="10.00">utilityString.h</text>
</a>
</g>
</g>
<!-- Node27&#45;&gt;Node32 -->
<g id="edge38" class="edge">
<title>Node27&#45;&gt;Node32</title>
<path fill="none" stroke="#63b8ff" d="M769.67,-109.75C762.76,-102.43 752.7,-91.76 744.18,-82.74"/>
<polygon fill="#63b8ff" stroke="#63b8ff" points="746.81,-80.42 737.4,-75.54 741.71,-85.22 746.81,-80.42"/>
</g>
<!-- Node32&#45;&gt;Node7 -->
<g id="edge41" class="edge">
<title>Node32&#45;&gt;Node7</title>
<path fill="none" stroke="#63b8ff" d="M769.65,-56.42C772.79,-55.92 775.9,-55.45 778.92,-55 893.23,-38.13 1029.33,-21.69 1091.25,-14.41"/>
<polygon fill="#63b8ff" stroke="#63b8ff" points="1091.59,-17.89 1101.12,-13.25 1090.78,-10.94 1091.59,-17.89"/>
</g>
<!-- Node32&#45;&gt;Node8 -->
<g id="edge42" class="edge">
<title>Node32&#45;&gt;Node8</title>
<path fill="none" stroke="#63b8ff" d="M736.67,-54.75C744.07,-47.35 754.88,-36.54 763.97,-27.45"/>
<polygon fill="#63b8ff" stroke="#63b8ff" points="766.31,-30.06 770.91,-20.51 761.36,-25.11 766.31,-30.06"/>
</g>
<!-- Node32&#45;&gt;Node29 -->
<g id="edge40" class="edge">
<title>Node32&#45;&gt;Node29</title>
<path fill="none" stroke="#63b8ff" d="M719.01,-54.75C711.47,-47.35 700.45,-36.54 691.2,-27.45"/>
<polygon fill="#63b8ff" stroke="#63b8ff" points="693.7,-25.01 684.11,-20.5 688.8,-30 693.7,-25.01"/>
</g>
<!-- Node34 -->
<g id="node32" class="node">
<title>Node34</title>
<g id="a_node32"><a xlink:title=" ">
<polygon fill="#e0e0e0" stroke="#999999" points="933.42,-19 886.42,-19 886.42,0 933.42,0 933.42,-19"/>
<text text-anchor="middle" x="909.92" y="-7" font-family="Helvetica,sans-Serif" font-size="10.00">deque</text>
</a>
</g>
</g>
<!-- Node32&#45;&gt;Node34 -->
<g id="edge39" class="edge">
<title>Node32&#45;&gt;Node34</title>
<path fill="none" stroke="#63b8ff" d="M758.8,-54.51C791.14,-45.09 841.83,-30.33 875.46,-20.53"/>
<polygon fill="#63b8ff" stroke="#63b8ff" points="876.09,-24 884.71,-17.84 874.13,-17.28 876.09,-24"/>
</g>
<!-- Node35&#45;&gt;Node7 -->
<g id="edge44" class="edge">
<title>Node35&#45;&gt;Node7</title>
<path fill="none" stroke="#63b8ff" d="M934.97,-170.04C951.32,-161.27 975.31,-146.67 991.92,-129 1017.98,-101.29 1007.14,-80.98 1034.92,-55 1051.24,-39.75 1073.77,-28.61 1092.2,-21.3"/>
<polygon fill="#63b8ff" stroke="#63b8ff" points="1093.23,-24.65 1101.37,-17.86 1090.77,-18.1 1093.23,-24.65"/>
</g>
<!-- Node35&#45;&gt;Node27 -->
<g id="edge45" class="edge">
<title>Node35&#45;&gt;Node27</title>
<path fill="none" stroke="#63b8ff" d="M895.81,-170.12C872.95,-160.49 836.23,-145.04 809.84,-133.93"/>
<polygon fill="#63b8ff" stroke="#63b8ff" points="811.2,-130.71 800.63,-130.06 808.49,-137.16 811.2,-130.71"/>
</g>
<!-- Node35&#45;&gt;Node30 -->
<g id="edge52" class="edge">
<title>Node35&#45;&gt;Node30</title>
<path fill="none" stroke="#63b8ff" d="M908.84,-170.09C891.77,-151.28 851.78,-107.21 829.54,-82.71"/>
<polygon fill="#63b8ff" stroke="#63b8ff" points="832.3,-80.54 822.98,-75.49 827.11,-85.24 832.3,-80.54"/>
</g>
<!-- Node35&#45;&gt;Node36 -->
<g id="edge46" class="edge">
<title>Node35&#45;&gt;Node36</title>
<path fill="none" stroke="#63b8ff" d="M919.14,-170.37C921.17,-162.42 924.27,-150.33 926.91,-140.05"/>
<polygon fill="#63b8ff" stroke="#63b8ff" points="930.23,-141.19 929.32,-130.63 923.45,-139.45 930.23,-141.19"/>
</g>
<!-- Node36&#45;&gt;Node6 -->
<g id="edge48" class="edge">
<title>Node36&#45;&gt;Node6</title>
<path fill="none" stroke="#63b8ff" d="M961.44,-109.51C990.15,-100.76 1033.97,-87.42 1065.83,-77.71"/>
<polygon fill="#63b8ff" stroke="#63b8ff" points="1066.56,-81.15 1075.1,-74.89 1064.52,-74.45 1066.56,-81.15"/>
</g>
<!-- Node36&#45;&gt;Node8 -->
<g id="edge50" class="edge">
<title>Node36&#45;&gt;Node8</title>
<path fill="none" stroke="#63b8ff" d="M921.01,-109.56C905.51,-96.98 876.08,-73.51 849.92,-55 835.27,-44.63 818.34,-33.7 804.92,-25.26"/>
<polygon fill="#63b8ff" stroke="#63b8ff" points="807.06,-22.47 796.72,-20.15 803.35,-28.41 807.06,-22.47"/>
</g>
<!-- Node36&#45;&gt;Node30 -->
<g id="edge51" class="edge">
<title>Node36&#45;&gt;Node30</title>
<path fill="none" stroke="#63b8ff" d="M911.91,-109.51C893.32,-101.16 865.38,-88.61 844.09,-79.05"/>
<polygon fill="#63b8ff" stroke="#63b8ff" points="845.58,-75.88 835.02,-74.98 842.71,-82.27 845.58,-75.88"/>
</g>
<!-- Node36&#45;&gt;Node34 -->
<g id="edge47" class="edge">
<title>Node36&#45;&gt;Node34</title>
<path fill="none" stroke="#63b8ff" d="M939,-109.76C948.1,-97.41 961.82,-74.21 953.92,-55 949.33,-43.81 940.41,-33.94 931.79,-26.35"/>
<polygon fill="#63b8ff" stroke="#63b8ff" points="934.27,-23.85 924.3,-20.27 929.86,-29.29 934.27,-23.85"/>
</g>
<!-- Node37 -->
<g id="node35" class="node">
<title>Node37</title>
<g id="a_node35"><a xlink:title=" ">
<polygon fill="#e0e0e0" stroke="#999999" points="944.92,-74 896.92,-74 896.92,-55 944.92,-55 944.92,-74"/>
<text text-anchor="middle" x="920.92" y="-62" font-family="Helvetica,sans-Serif" font-size="10.00">mutex</text>
</a>
</g>
</g>
<!-- Node36&#45;&gt;Node37 -->
<g id="edge49" class="edge">
<title>Node36&#45;&gt;Node37</title>
<path fill="none" stroke="#63b8ff" d="M930.11,-109.75C928.75,-103.19 926.83,-93.95 925.1,-85.6"/>
<polygon fill="#63b8ff" stroke="#63b8ff" points="928.55,-85 923.09,-75.92 921.69,-86.43 928.55,-85"/>
</g>
<!-- Node39 -->
<g id="node37" class="node">
<title>Node39</title>
<g id="a_node37"><a xlink:href="$Message_8h.html" xlink:title=" ">
<polygon fill="white" stroke="#666666" points="1146.42,-189.5 1077.42,-189.5 1077.42,-170.5 1146.42,-170.5 1146.42,-189.5"/>
<text text-anchor="middle" x="1111.92" y="-177.5" font-family="Helvetica,sans-Serif" font-size="10.00">Message.h</text>
</a>
</g>
</g>
<!-- Node38&#45;&gt;Node39 -->
<g id="edge55" class="edge">
<title>Node38&#45;&gt;Node39</title>
<path fill="none" stroke="#63b8ff" d="M1092.32,-230.87C1095.48,-222.83 1100.3,-210.57 1104.37,-200.22"/>
<polygon fill="#63b8ff" stroke="#63b8ff" points="1107.56,-201.66 1107.96,-191.08 1101.05,-199.1 1107.56,-201.66"/>
</g>
<!-- Node39&#45;&gt;Node6 -->
<g id="edge56" class="edge">
<title>Node39&#45;&gt;Node6</title>
<path fill="none" stroke="#63b8ff" d="M1111.45,-170.09C1110.5,-152.03 1108.31,-110.67 1106.99,-85.71"/>
<polygon fill="#63b8ff" stroke="#63b8ff" points="1110.49,-85.68 1106.47,-75.88 1103.5,-86.05 1110.49,-85.68"/>
</g>
<!-- Node39&#45;&gt;Node7 -->
<g id="edge57" class="edge">
<title>Node39&#45;&gt;Node7</title>
<path fill="none" stroke="#63b8ff" d="M1117.13,-170.05C1128.29,-149.74 1152.83,-98.56 1143.92,-55 1142.14,-46.26 1138.56,-37.12 1134.99,-29.41"/>
<polygon fill="#63b8ff" stroke="#63b8ff" points="1138.25,-28.09 1130.65,-20.71 1131.99,-31.22 1138.25,-28.09"/>
</g>
<!-- Node39&#45;&gt;Node27 -->
<g id="edge58" class="edge">
<title>Node39&#45;&gt;Node27</title>
<path fill="none" stroke="#63b8ff" d="M1077.12,-172.91C1019.99,-162.9 905.7,-142.88 836.1,-130.69"/>
<polygon fill="#63b8ff" stroke="#63b8ff" points="836.85,-127.27 826.4,-128.99 835.64,-134.16 836.85,-127.27"/>
</g>
<!-- Node39&#45;&gt;Node36 -->
<g id="edge59" class="edge">
<title>Node39&#45;&gt;Node36</title>
<path fill="none" stroke="#63b8ff" d="M1084.58,-170.12C1054.06,-160.19 1004.43,-144.07 970.09,-132.9"/>
<polygon fill="#63b8ff" stroke="#63b8ff" points="971.55,-129.7 960.96,-129.94 969.39,-136.36 971.55,-129.7"/>
</g>
<!-- Node45 -->
<g id="node43" class="node">
<title>Node45</title>
<g id="a_node43"><a xlink:href="$QtListBox_8h.html" xlink:title=" ">
<polygon fill="white" stroke="#666666" points="1303.42,-189.5 1230.42,-189.5 1230.42,-170.5 1303.42,-170.5 1303.42,-189.5"/>
<text text-anchor="middle" x="1266.92" y="-177.5" font-family="Helvetica,sans-Serif" font-size="10.00">QtListBox.h</text>
</a>
</g>
</g>
<!-- Node44&#45;&gt;Node45 -->
<g id="edge65" class="edge">
<title>Node44&#45;&gt;Node45</title>
<path fill="none" stroke="#63b8ff" d="M1266.92,-230.87C1266.92,-223 1266.92,-211.1 1266.92,-200.89"/>
<polygon fill="#63b8ff" stroke="#63b8ff" points="1270.42,-201.18 1266.92,-191.18 1263.42,-201.18 1270.42,-201.18"/>
</g>
<!-- Node48 -->
<g id="node46" class="node">
<title>Node48</title>
<g id="a_node46"><a xlink:href="$QtStringListBoxItem_8h.html" xlink:title=" ">
<polygon fill="white" stroke="#666666" points="794.92,-189.5 670.92,-189.5 670.92,-170.5 794.92,-170.5 794.92,-189.5"/>
<text text-anchor="middle" x="732.92" y="-177.5" font-family="Helvetica,sans-Serif" font-size="10.00">QtStringListBoxItem.h</text>
</a>
</g>
</g>
<!-- Node44&#45;&gt;Node48 -->
<g id="edge69" class="edge">
<title>Node44&#45;&gt;Node48</title>
<path fill="none" stroke="#63b8ff" d="M1216.18,-234.57C1136.44,-226.75 976.96,-210.74 841.92,-195 830.43,-193.66 818.27,-192.17 806.4,-190.68"/>
<polygon fill="#63b8ff" stroke="#63b8ff" points="807.01,-187.23 796.65,-189.44 806.13,-194.17 807.01,-187.23"/>
</g>
<!-- Node45&#45;&gt;Node5 -->
<g id="edge68" class="edge">
<title>Node45&#45;&gt;Node5</title>
<path fill="none" stroke="#63b8ff" d="M1255.84,-170.12C1244.69,-161.18 1227.26,-147.22 1213.73,-136.37"/>
<polygon fill="#63b8ff" stroke="#63b8ff" points="1216.29,-133.94 1206.3,-130.41 1211.91,-139.4 1216.29,-133.94"/>
</g>
<!-- Node46 -->
<g id="node44" class="node">
<title>Node46</title>
<g id="a_node44"><a xlink:title=" ">
<polygon fill="#e0e0e0" stroke="#999999" points="1393.42,-129 1338.42,-129 1338.42,-110 1393.42,-110 1393.42,-129"/>
<text text-anchor="middle" x="1365.92" y="-117" font-family="Helvetica,sans-Serif" font-size="10.00">QFrame</text>
</a>
</g>
</g>
<!-- Node45&#45;&gt;Node46 -->
<g id="edge66" class="edge">
<title>Node45&#45;&gt;Node46</title>
<path fill="none" stroke="#63b8ff" d="M1281.96,-170.12C1297.59,-160.88 1322.31,-146.27 1340.89,-135.29"/>
<polygon fill="#63b8ff" stroke="#63b8ff" points="1342.61,-138.34 1349.44,-130.24 1339.05,-132.31 1342.61,-138.34"/>
</g>
<!-- Node47 -->
<g id="node45" class="node">
<title>Node47</title>
<g id="a_node45"><a xlink:title=" ">
<polygon fill="#e0e0e0" stroke="#999999" points="1319.92,-129 1243.92,-129 1243.92,-110 1319.92,-110 1319.92,-129"/>
<text text-anchor="middle" x="1281.92" y="-117" font-family="Helvetica,sans-Serif" font-size="10.00">QListWidget</text>
</a>
</g>
</g>
<!-- Node45&#45;&gt;Node47 -->
<g id="edge67" class="edge">
<title>Node45&#45;&gt;Node47</title>
<path fill="none" stroke="#63b8ff" d="M1269.14,-170.37C1271.17,-162.42 1274.27,-150.33 1276.91,-140.05"/>
<polygon fill="#63b8ff" stroke="#63b8ff" points="1280.23,-141.19 1279.32,-130.63 1273.45,-139.45 1280.23,-141.19"/>
</g>
<!-- Node49 -->
<g id="node47" class="node">
<title>Node49</title>
<g id="a_node47"><a xlink:href="$QtListBoxItem_8h.html" xlink:title=" ">
<polygon fill="white" stroke="#666666" points="713.42,-129 618.42,-129 618.42,-110 713.42,-110 713.42,-129"/>
<text text-anchor="middle" x="665.92" y="-117" font-family="Helvetica,sans-Serif" font-size="10.00">QtListBoxItem.h</text>
</a>
</g>
</g>
<!-- Node48&#45;&gt;Node49 -->
<g id="edge70" class="edge">
<title>Node48&#45;&gt;Node49</title>
<path fill="none" stroke="#63b8ff" d="M722.75,-170.12C712.71,-161.35 697.13,-147.75 684.82,-137"/>
<polygon fill="#63b8ff" stroke="#63b8ff" points="687.17,-134.4 677.33,-130.46 682.57,-139.68 687.17,-134.4"/>
</g>
<!-- Node49&#45;&gt;Node4 -->
<g id="edge71" class="edge">
<title>Node49&#45;&gt;Node4</title>
<path fill="none" stroke="#63b8ff" d="M618.25,-109.51C564.22,-99.32 477.01,-82.87 425.91,-73.23"/>
<polygon fill="#63b8ff" stroke="#63b8ff" points="426.62,-69.8 416.14,-71.39 425.32,-76.68 426.62,-69.8"/>
</g>
<!-- Node50&#45;&gt;Node5 -->
<g id="edge73" class="edge">
<title>Node50&#45;&gt;Node5</title>
<path fill="none" stroke="#63b8ff" d="M1350.51,-164.54C1315.38,-154.66 1269.39,-141.73 1236.35,-132.43"/>
<polygon fill="#63b8ff" stroke="#63b8ff" points="1237.71,-129.18 1227.14,-129.84 1235.82,-135.92 1237.71,-129.18"/>
</g>
<!-- Node51 -->
<g id="node49" class="node">
<title>Node51</title>
<g id="a_node49"><a xlink:href="$SourceGroupSettingsComponent_8h.html" xlink:title=" ">
<polygon fill="white" stroke="#666666" points="1595.92,-129 1411.92,-129 1411.92,-110 1595.92,-110 1595.92,-129"/>
<text text-anchor="middle" x="1503.92" y="-117" font-family="Helvetica,sans-Serif" font-size="10.00">SourceGroupSettingsComponent.h</text>
</a>
</g>
</g>
<!-- Node50&#45;&gt;Node51 -->
<g id="edge74" class="edge">
<title>Node50&#45;&gt;Node51</title>
<path fill="none" stroke="#63b8ff" d="M1427.14,-164.54C1442.91,-155.49 1463.16,-143.88 1478.9,-134.85"/>
<polygon fill="#63b8ff" stroke="#63b8ff" points="1480.25,-138.11 1487.19,-130.1 1476.77,-132.04 1480.25,-138.11"/>
</g>
<!-- Node51&#45;&gt;Node7 -->
<g id="edge75" class="edge">
<title>Node51&#45;&gt;Node7</title>
<path fill="none" stroke="#63b8ff" d="M1472.59,-109.57C1401.88,-89.42 1230.5,-40.58 1158.09,-19.95"/>
<polygon fill="#63b8ff" stroke="#63b8ff" points="1159.38,-16.68 1148.8,-17.31 1157.46,-23.41 1159.38,-16.68"/>
</g>
<!-- Node52 -->
<g id="node50" class="node">
<title>Node52</title>
<g id="a_node50"><a xlink:href="$SourceGroupSettingsBase_8h.html" xlink:title=" ">
<polygon fill="white" stroke="#666666" points="1579.92,-74 1427.92,-74 1427.92,-55 1579.92,-55 1579.92,-74"/>
<text text-anchor="middle" x="1503.92" y="-62" font-family="Helvetica,sans-Serif" font-size="10.00">SourceGroupSettingsBase.h</text>
</a>
</g>
</g>
<!-- Node51&#45;&gt;Node52 -->
<g id="edge76" class="edge">
<title>Node51&#45;&gt;Node52</title>
<path fill="none" stroke="#63b8ff" d="M1503.92,-109.75C1503.92,-103.27 1503.92,-94.16 1503.92,-85.9"/>
<polygon fill="#63b8ff" stroke="#63b8ff" points="1507.42,-85.96 1503.92,-75.96 1500.42,-85.96 1507.42,-85.96"/>
</g>
</g>
</svg>
