<?xml version="1.0" encoding="UTF-8" standalone="no"?>
<!DOCTYPE svg PUBLIC "-//W3C//DTD SVG 1.1//EN"
 "http://www.w3.org/Graphics/SVG/1.1/DTD/svg11.dtd">
<!-- Generated by graphviz version 7.1.0 (0)
 -->
<!-- Title: /home/ahussein/Documents/sourceCode/Sourcetrail/src/src/lib_gui/qt/project_wizard/content/QtProjectWizardContentGroup.h Pages: 1 -->
<svg width="566pt" height="170pt"
 viewBox="0.00 0.00 566.00 170.00" xmlns="http://www.w3.org/2000/svg" xmlns:xlink="http://www.w3.org/1999/xlink">
<g id="graph0" class="graph" transform="scale(1 1) rotate(0) translate(4 166)">
<title>/home/ahussein/Documents/sourceCode/Sourcetrail/src/src/lib_gui/qt/project_wizard/content/QtProjectWizardContentGroup.h</title>
<!-- Node1 -->
<g id="node1" class="node">
<title>Node1</title>
<g id="a_node1"><a xlink:title=" ">
<polygon fill="#999999" stroke="#666666" points="388,-162 174,-162 174,-99 388,-99 388,-162"/>
<text text-anchor="start" x="182" y="-150" font-family="Helvetica,sans-Serif" font-size="10.00">/home/ahussein/Documents</text>
<text text-anchor="start" x="182" y="-139" font-family="Helvetica,sans-Serif" font-size="10.00">/sourceCode/Sourcetrail</text>
<text text-anchor="start" x="182" y="-128" font-family="Helvetica,sans-Serif" font-size="10.00">/src/src/lib_gui/qt/project</text>
<text text-anchor="start" x="182" y="-117" font-family="Helvetica,sans-Serif" font-size="10.00">_wizard/content/QtProjectWizardContent</text>
<text text-anchor="middle" x="281" y="-106" font-family="Helvetica,sans-Serif" font-size="10.00">Group.h</text>
</a>
</g>
</g>
<!-- Node2 -->
<g id="node2" class="node">
<title>Node2</title>
<g id="a_node2"><a xlink:href="$QtProjectWizard_8cpp.html" xlink:title=" ">
<polygon fill="white" stroke="#666666" points="156,-57.5 0,-57.5 0,-5.5 156,-5.5 156,-57.5"/>
<text text-anchor="start" x="8" y="-45.5" font-family="Helvetica,sans-Serif" font-size="10.00">/home/ahussein/Documents</text>
<text text-anchor="start" x="8" y="-34.5" font-family="Helvetica,sans-Serif" font-size="10.00">/sourceCode/Sourcetrail</text>
<text text-anchor="start" x="8" y="-23.5" font-family="Helvetica,sans-Serif" font-size="10.00">/src/src/lib_gui/qt/project</text>
<text text-anchor="middle" x="78" y="-12.5" font-family="Helvetica,sans-Serif" font-size="10.00">_wizard/QtProjectWizard.cpp</text>
</a>
</g>
</g>
<!-- Node1&#45;&gt;Node2 -->
<g id="edge1" class="edge">
<title>Node1&#45;&gt;Node2</title>
<path fill="none" stroke="#63b8ff" d="M206.1,-93.71C181.28,-81.85 154.17,-68.9 131.32,-57.98"/>
<polygon fill="#63b8ff" stroke="#63b8ff" points="204.31,-96.74 214.85,-97.89 207.33,-90.42 204.31,-96.74"/>
</g>
<!-- Node3 -->
<g id="node3" class="node">
<title>Node3</title>
<g id="a_node3"><a xlink:href="$QtProjectWizardContentGroup_8cpp.html" xlink:title=" ">
<polygon fill="white" stroke="#666666" points="388,-63 174,-63 174,0 388,0 388,-63"/>
<text text-anchor="start" x="182" y="-51" font-family="Helvetica,sans-Serif" font-size="10.00">/home/ahussein/Documents</text>
<text text-anchor="start" x="182" y="-40" font-family="Helvetica,sans-Serif" font-size="10.00">/sourceCode/Sourcetrail</text>
<text text-anchor="start" x="182" y="-29" font-family="Helvetica,sans-Serif" font-size="10.00">/src/src/lib_gui/qt/project</text>
<text text-anchor="start" x="182" y="-18" font-family="Helvetica,sans-Serif" font-size="10.00">_wizard/content/QtProjectWizardContent</text>
<text text-anchor="middle" x="281" y="-7" font-family="Helvetica,sans-Serif" font-size="10.00">Group.cpp</text>
</a>
</g>
</g>
<!-- Node1&#45;&gt;Node3 -->
<g id="edge2" class="edge">
<title>Node1&#45;&gt;Node3</title>
<path fill="none" stroke="#63b8ff" d="M281,-87.15C281,-79.2 281,-71.02 281,-63.5"/>
<polygon fill="#63b8ff" stroke="#63b8ff" points="277.5,-87.03 281,-97.03 284.5,-87.03 277.5,-87.03"/>
</g>
<!-- Node4 -->
<g id="node4" class="node">
<title>Node4</title>
<g id="a_node4"><a xlink:href="$QtPreferencesWindow_8cpp.html" xlink:title=" ">
<polygon fill="white" stroke="#666666" points="558,-57.5 406,-57.5 406,-5.5 558,-5.5 558,-57.5"/>
<text text-anchor="start" x="414" y="-45.5" font-family="Helvetica,sans-Serif" font-size="10.00">/home/ahussein/Documents</text>
<text text-anchor="start" x="414" y="-34.5" font-family="Helvetica,sans-Serif" font-size="10.00">/sourceCode/Sourcetrail</text>
<text text-anchor="start" x="414" y="-23.5" font-family="Helvetica,sans-Serif" font-size="10.00">/src/src/lib_gui/qt/window</text>
<text text-anchor="middle" x="482" y="-12.5" font-family="Helvetica,sans-Serif" font-size="10.00">/QtPreferencesWindow.cpp</text>
</a>
</g>
</g>
<!-- Node1&#45;&gt;Node4 -->
<g id="edge3" class="edge">
<title>Node1&#45;&gt;Node4</title>
<path fill="none" stroke="#63b8ff" d="M355.49,-93.55C379.98,-81.73 406.68,-68.85 429.21,-57.98"/>
<polygon fill="#63b8ff" stroke="#63b8ff" points="354,-90.39 346.51,-97.88 357.04,-96.69 354,-90.39"/>
</g>
</g>
</svg>
