<?xml version="1.0" encoding="UTF-8" standalone="no"?>
<!DOCTYPE svg PUBLIC "-//W3C//DTD SVG 1.1//EN"
 "http://www.w3.org/Graphics/SVG/1.1/DTD/svg11.dtd">
<!-- Generated by graphviz version 7.1.0 (0)
 -->
<!-- Title: /home/ahussein/Documents/sourceCode/Sourcetrail/src/src/lib_gui/qt/window/QtProgressBarDialog.cpp Pages: 1 -->
<svg width="876pt" height="346pt"
 viewBox="0.00 0.00 875.50 346.00" xmlns="http://www.w3.org/2000/svg" xmlns:xlink="http://www.w3.org/1999/xlink">
<g id="graph0" class="graph" transform="scale(1 1) rotate(0) translate(4 342)">
<title>/home/ahussein/Documents/sourceCode/Sourcetrail/src/src/lib_gui/qt/window/QtProgressBarDialog.cpp</title>
<!-- Node1 -->
<g id="node1" class="node">
<title>Node1</title>
<g id="a_node1"><a xlink:title=" ">
<polygon fill="#999999" stroke="#666666" points="676,-338 524,-338 524,-286 676,-286 676,-338"/>
<text text-anchor="start" x="532" y="-326" font-family="Helvetica,sans-Serif" font-size="10.00">/home/ahussein/Documents</text>
<text text-anchor="start" x="532" y="-315" font-family="Helvetica,sans-Serif" font-size="10.00">/sourceCode/Sourcetrail</text>
<text text-anchor="start" x="532" y="-304" font-family="Helvetica,sans-Serif" font-size="10.00">/src/src/lib_gui/qt/window</text>
<text text-anchor="middle" x="600" y="-293" font-family="Helvetica,sans-Serif" font-size="10.00">/QtProgressBarDialog.cpp</text>
</a>
</g>
</g>
<!-- Node2 -->
<g id="node2" class="node">
<title>Node2</title>
<g id="a_node2"><a xlink:href="$QtProgressBarDialog_8h.html" xlink:title=" ">
<polygon fill="white" stroke="#666666" points="515.5,-250 388.5,-250 388.5,-231 515.5,-231 515.5,-250"/>
<text text-anchor="middle" x="452" y="-238" font-family="Helvetica,sans-Serif" font-size="10.00">QtProgressBarDialog.h</text>
</a>
</g>
</g>
<!-- Node1&#45;&gt;Node2 -->
<g id="edge1" class="edge">
<title>Node1&#45;&gt;Node2</title>
<path fill="none" stroke="#63b8ff" d="M545.73,-285.52C523.9,-275.27 499.6,-263.85 481.22,-255.22"/>
<polygon fill="#63b8ff" stroke="#63b8ff" points="482.78,-252.09 472.24,-251.01 479.81,-258.42 482.78,-252.09"/>
</g>
<!-- Node17 -->
<g id="node17" class="node">
<title>Node17</title>
<g id="a_node17"><a xlink:title=" ">
<polygon fill="#e0e0e0" stroke="#999999" points="716,-250 666,-250 666,-231 716,-231 716,-250"/>
<text text-anchor="middle" x="691" y="-238" font-family="Helvetica,sans-Serif" font-size="10.00">QLabel</text>
</a>
</g>
</g>
<!-- Node1&#45;&gt;Node17 -->
<g id="edge21" class="edge">
<title>Node1&#45;&gt;Node17</title>
<path fill="none" stroke="#63b8ff" d="M633.37,-285.52C645.8,-276.02 659.53,-265.54 670.47,-257.18"/>
<polygon fill="#63b8ff" stroke="#63b8ff" points="672.59,-259.97 678.41,-251.12 668.34,-254.4 672.59,-259.97"/>
</g>
<!-- Node18 -->
<g id="node18" class="node">
<title>Node18</title>
<g id="a_node18"><a xlink:href="$QtProgressBar_8h.html" xlink:title=" ">
<polygon fill="white" stroke="#666666" points="647.5,-250 552.5,-250 552.5,-231 647.5,-231 647.5,-250"/>
<text text-anchor="middle" x="600" y="-238" font-family="Helvetica,sans-Serif" font-size="10.00">QtProgressBar.h</text>
</a>
</g>
</g>
<!-- Node1&#45;&gt;Node18 -->
<g id="edge22" class="edge">
<title>Node1&#45;&gt;Node18</title>
<path fill="none" stroke="#63b8ff" d="M600,-285.52C600,-277.67 600,-269.15 600,-261.71"/>
<polygon fill="#63b8ff" stroke="#63b8ff" points="603.5,-261.71 600,-251.71 596.5,-261.71 603.5,-261.71"/>
</g>
<!-- Node3 -->
<g id="node3" class="node">
<title>Node3</title>
<g id="a_node3"><a xlink:title=" ">
<polygon fill="#e0e0e0" stroke="#999999" points="506.5,-195 441.5,-195 441.5,-176 506.5,-176 506.5,-195"/>
<text text-anchor="middle" x="474" y="-183" font-family="Helvetica,sans-Serif" font-size="10.00">functional</text>
</a>
</g>
</g>
<!-- Node2&#45;&gt;Node3 -->
<g id="edge2" class="edge">
<title>Node2&#45;&gt;Node3</title>
<path fill="none" stroke="#63b8ff" d="M455.63,-230.75C458.42,-224.04 462.37,-214.52 465.9,-206.02"/>
<polygon fill="#63b8ff" stroke="#63b8ff" points="469.11,-207.42 469.71,-196.84 462.64,-204.73 469.11,-207.42"/>
</g>
<!-- Node4 -->
<g id="node4" class="node">
<title>Node4</title>
<g id="a_node4"><a xlink:href="$QtIndexingDialog_8h.html" xlink:title=" ">
<polygon fill="white" stroke="#666666" points="423,-195 313,-195 313,-176 423,-176 423,-195"/>
<text text-anchor="middle" x="368" y="-183" font-family="Helvetica,sans-Serif" font-size="10.00">QtIndexingDialog.h</text>
</a>
</g>
</g>
<!-- Node2&#45;&gt;Node4 -->
<g id="edge3" class="edge">
<title>Node2&#45;&gt;Node4</title>
<path fill="none" stroke="#63b8ff" d="M437.75,-230.51C425.12,-222.54 406.44,-210.75 391.59,-201.38"/>
<polygon fill="#63b8ff" stroke="#63b8ff" points="393.64,-198.54 383.32,-196.17 389.91,-204.46 393.64,-198.54"/>
</g>
<!-- Node12 -->
<g id="node12" class="node">
<title>Node12</title>
<g id="a_node12"><a xlink:href="$RefreshInfo_8h.html" xlink:title=" ">
<polygon fill="white" stroke="#666666" points="139,-195 57,-195 57,-176 139,-176 139,-195"/>
<text text-anchor="middle" x="98" y="-183" font-family="Helvetica,sans-Serif" font-size="10.00">RefreshInfo.h</text>
</a>
</g>
</g>
<!-- Node2&#45;&gt;Node12 -->
<g id="edge15" class="edge">
<title>Node2&#45;&gt;Node12</title>
<path fill="none" stroke="#63b8ff" d="M391.95,-230.51C324.21,-220.37 215.12,-204.03 150.61,-194.38"/>
<polygon fill="#63b8ff" stroke="#63b8ff" points="151.39,-190.95 140.98,-192.94 150.35,-197.88 151.39,-190.95"/>
</g>
<!-- Node5 -->
<g id="node5" class="node">
<title>Node5</title>
<g id="a_node5"><a xlink:title=" ">
<polygon fill="#e0e0e0" stroke="#999999" points="253.5,-134.5 170.5,-134.5 170.5,-115.5 253.5,-115.5 253.5,-134.5"/>
<text text-anchor="middle" x="212" y="-122.5" font-family="Helvetica,sans-Serif" font-size="10.00">QHBoxLayout</text>
</a>
</g>
</g>
<!-- Node4&#45;&gt;Node5 -->
<g id="edge4" class="edge">
<title>Node4&#45;&gt;Node5</title>
<path fill="none" stroke="#63b8ff" d="M344.31,-175.62C318.31,-165.87 276.33,-150.12 246.64,-138.99"/>
<polygon fill="#63b8ff" stroke="#63b8ff" points="247.93,-135.73 237.33,-135.5 245.47,-142.29 247.93,-135.73"/>
</g>
<!-- Node6 -->
<g id="node6" class="node">
<title>Node6</title>
<g id="a_node6"><a xlink:title=" ">
<polygon fill="#e0e0e0" stroke="#999999" points="356,-134.5 272,-134.5 272,-115.5 356,-115.5 356,-134.5"/>
<text text-anchor="middle" x="314" y="-122.5" font-family="Helvetica,sans-Serif" font-size="10.00">QResizeEvent</text>
</a>
</g>
</g>
<!-- Node4&#45;&gt;Node6 -->
<g id="edge5" class="edge">
<title>Node4&#45;&gt;Node6</title>
<path fill="none" stroke="#63b8ff" d="M360.03,-175.87C352.06,-167.23 339.57,-153.7 329.61,-142.92"/>
<polygon fill="#63b8ff" stroke="#63b8ff" points="332.38,-140.75 323.03,-135.78 327.24,-145.5 332.38,-140.75"/>
</g>
<!-- Node7 -->
<g id="node7" class="node">
<title>Node7</title>
<g id="a_node7"><a xlink:title=" ">
<polygon fill="#e0e0e0" stroke="#999999" points="511.5,-74 446.5,-74 446.5,-55 511.5,-55 511.5,-74"/>
<text text-anchor="middle" x="479" y="-62" font-family="Helvetica,sans-Serif" font-size="10.00">QSizeGrip</text>
</a>
</g>
</g>
<!-- Node4&#45;&gt;Node7 -->
<g id="edge6" class="edge">
<title>Node4&#45;&gt;Node7</title>
<path fill="none" stroke="#63b8ff" d="M423.36,-176.87C445.74,-170.77 469.45,-159.78 483,-140 493.97,-123.99 490.73,-101.21 486.16,-85.06"/>
<polygon fill="#63b8ff" stroke="#63b8ff" points="489.52,-84.08 483.08,-75.66 482.87,-86.26 489.52,-84.08"/>
</g>
<!-- Node8 -->
<g id="node8" class="node">
<title>Node8</title>
<g id="a_node8"><a xlink:title=" ">
<polygon fill="#e0e0e0" stroke="#999999" points="508.5,-19 449.5,-19 449.5,0 508.5,0 508.5,-19"/>
<text text-anchor="middle" x="479" y="-7" font-family="Helvetica,sans-Serif" font-size="10.00">QWidget</text>
</a>
</g>
</g>
<!-- Node4&#45;&gt;Node8 -->
<g id="edge7" class="edge">
<title>Node4&#45;&gt;Node8</title>
<path fill="none" stroke="#63b8ff" d="M407.67,-175.55C441.94,-167.06 487.94,-153.62 501,-140 527.78,-112.05 534.08,-91.06 520,-55 515.74,-44.08 507.39,-34.22 499.34,-26.57"/>
<polygon fill="#63b8ff" stroke="#63b8ff" points="501.89,-24.16 492.07,-20.2 497.28,-29.42 501.89,-24.16"/>
</g>
<!-- Node9 -->
<g id="node9" class="node">
<title>Node9</title>
<g id="a_node9"><a xlink:href="$QtWindowBase_8h.html" xlink:title=" ">
<polygon fill="white" stroke="#666666" points="474,-134.5 374,-134.5 374,-115.5 474,-115.5 474,-134.5"/>
<text text-anchor="middle" x="424" y="-122.5" font-family="Helvetica,sans-Serif" font-size="10.00">QtWindowBase.h</text>
</a>
</g>
</g>
<!-- Node4&#45;&gt;Node9 -->
<g id="edge8" class="edge">
<title>Node4&#45;&gt;Node9</title>
<path fill="none" stroke="#63b8ff" d="M376.26,-175.87C384.53,-167.23 397.48,-153.7 407.81,-142.92"/>
<polygon fill="#63b8ff" stroke="#63b8ff" points="410.27,-145.4 414.66,-135.76 405.21,-140.56 410.27,-145.4"/>
</g>
<!-- Node10 -->
<g id="node10" class="node">
<title>Node10</title>
<g id="a_node10"><a xlink:href="$QtWindowStack_8h.html" xlink:title=" ">
<polygon fill="white" stroke="#666666" points="331.5,-74 228.5,-74 228.5,-55 331.5,-55 331.5,-74"/>
<text text-anchor="middle" x="280" y="-62" font-family="Helvetica,sans-Serif" font-size="10.00">QtWindowStack.h</text>
</a>
</g>
</g>
<!-- Node4&#45;&gt;Node10 -->
<g id="edge14" class="edge">
<title>Node4&#45;&gt;Node10</title>
<path fill="none" stroke="#63b8ff" d="M312.59,-180.3C257.87,-174.86 179.74,-163.2 161,-140 152.62,-129.63 153.4,-120.96 161,-110 173.9,-91.4 195.58,-80.56 216.92,-74.25"/>
<polygon fill="#63b8ff" stroke="#63b8ff" points="217.76,-77.65 226.54,-71.73 215.98,-70.88 217.76,-77.65"/>
</g>
<!-- Node9&#45;&gt;Node7 -->
<g id="edge9" class="edge">
<title>Node9&#45;&gt;Node7</title>
<path fill="none" stroke="#63b8ff" d="M432.12,-115.37C440.24,-106.73 452.96,-93.2 463.1,-82.42"/>
<polygon fill="#63b8ff" stroke="#63b8ff" points="465.51,-84.95 469.81,-75.27 460.41,-80.16 465.51,-84.95"/>
</g>
<!-- Node9&#45;&gt;Node8 -->
<g id="edge10" class="edge">
<title>Node9&#45;&gt;Node8</title>
<path fill="none" stroke="#63b8ff" d="M424.09,-115.44C424.55,-101.89 426.81,-74.98 437,-55 442.38,-44.43 451.06,-34.62 459.13,-26.92"/>
<polygon fill="#63b8ff" stroke="#63b8ff" points="461.23,-29.73 466.34,-20.45 456.56,-24.52 461.23,-29.73"/>
</g>
<!-- Node9&#45;&gt;Node10 -->
<g id="edge11" class="edge">
<title>Node9&#45;&gt;Node10</title>
<path fill="none" stroke="#63b8ff" d="M402.13,-115.12C378.34,-105.45 340.06,-89.9 312.7,-78.78"/>
<polygon fill="#63b8ff" stroke="#63b8ff" points="314.06,-75.56 303.48,-75.04 311.43,-82.04 314.06,-75.56"/>
</g>
<!-- Node10&#45;&gt;Node8 -->
<g id="edge13" class="edge">
<title>Node10&#45;&gt;Node8</title>
<path fill="none" stroke="#63b8ff" d="M313.76,-54.51C348.23,-45.33 401.75,-31.07 438.48,-21.29"/>
<polygon fill="#63b8ff" stroke="#63b8ff" points="439.08,-24.75 447.84,-18.8 437.28,-17.99 439.08,-24.75"/>
</g>
<!-- Node11 -->
<g id="node11" class="node">
<title>Node11</title>
<g id="a_node11"><a xlink:title=" ">
<polygon fill="#e0e0e0" stroke="#999999" points="165.5,-19 118.5,-19 118.5,0 165.5,0 165.5,-19"/>
<text text-anchor="middle" x="142" y="-7" font-family="Helvetica,sans-Serif" font-size="10.00">vector</text>
</a>
</g>
</g>
<!-- Node10&#45;&gt;Node11 -->
<g id="edge12" class="edge">
<title>Node10&#45;&gt;Node11</title>
<path fill="none" stroke="#63b8ff" d="M256.59,-54.51C234.35,-45.97 200.67,-33.03 175.58,-23.4"/>
<polygon fill="#63b8ff" stroke="#63b8ff" points="177.07,-20.22 166.48,-19.9 174.56,-26.75 177.07,-20.22"/>
</g>
<!-- Node13 -->
<g id="node13" class="node">
<title>Node13</title>
<g id="a_node13"><a xlink:title=" ">
<polygon fill="#e0e0e0" stroke="#999999" points="114,-134.5 82,-134.5 82,-115.5 114,-115.5 114,-134.5"/>
<text text-anchor="middle" x="98" y="-122.5" font-family="Helvetica,sans-Serif" font-size="10.00">set</text>
</a>
</g>
</g>
<!-- Node12&#45;&gt;Node13 -->
<g id="edge16" class="edge">
<title>Node12&#45;&gt;Node13</title>
<path fill="none" stroke="#63b8ff" d="M98,-175.87C98,-168 98,-156.1 98,-145.89"/>
<polygon fill="#63b8ff" stroke="#63b8ff" points="101.5,-146.18 98,-136.18 94.5,-146.18 101.5,-146.18"/>
</g>
<!-- Node14 -->
<g id="node14" class="node">
<title>Node14</title>
<g id="a_node14"><a xlink:href="$FilePath_8h.html" xlink:title=" ">
<polygon fill="white" stroke="#666666" points="64,-134.5 0,-134.5 0,-115.5 64,-115.5 64,-134.5"/>
<text text-anchor="middle" x="32" y="-122.5" font-family="Helvetica,sans-Serif" font-size="10.00">FilePath.h</text>
</a>
</g>
</g>
<!-- Node12&#45;&gt;Node14 -->
<g id="edge17" class="edge">
<title>Node12&#45;&gt;Node14</title>
<path fill="none" stroke="#63b8ff" d="M87.98,-175.62C78.09,-166.85 62.74,-153.25 50.62,-142.5"/>
<polygon fill="#63b8ff" stroke="#63b8ff" points="53.06,-139.99 43.25,-135.97 48.41,-145.22 53.06,-139.99"/>
</g>
<!-- Node14&#45;&gt;Node11 -->
<g id="edge20" class="edge">
<title>Node14&#45;&gt;Node11</title>
<path fill="none" stroke="#63b8ff" d="M27.26,-115.03C20.52,-100.92 10.33,-73.26 23,-55 41.81,-27.88 79.28,-17.26 107.18,-13.12"/>
<polygon fill="#63b8ff" stroke="#63b8ff" points="107.47,-16.61 116.96,-11.9 106.61,-9.66 107.47,-16.61"/>
</g>
<!-- Node15 -->
<g id="node15" class="node">
<title>Node15</title>
<g id="a_node15"><a xlink:title=" ">
<polygon fill="#e0e0e0" stroke="#999999" points="90,-74 32,-74 32,-55 90,-55 90,-74"/>
<text text-anchor="middle" x="61" y="-62" font-family="Helvetica,sans-Serif" font-size="10.00">memory</text>
</a>
</g>
</g>
<!-- Node14&#45;&gt;Node15 -->
<g id="edge18" class="edge">
<title>Node14&#45;&gt;Node15</title>
<path fill="none" stroke="#63b8ff" d="M36.28,-115.37C40.31,-107.25 46.47,-94.81 51.64,-84.39"/>
<polygon fill="#63b8ff" stroke="#63b8ff" points="54.73,-86.04 56.03,-75.52 48.45,-82.93 54.73,-86.04"/>
</g>
<!-- Node16 -->
<g id="node16" class="node">
<title>Node16</title>
<g id="a_node16"><a xlink:title=" ">
<polygon fill="#e0e0e0" stroke="#999999" points="152,-74 108,-74 108,-55 152,-55 152,-74"/>
<text text-anchor="middle" x="130" y="-62" font-family="Helvetica,sans-Serif" font-size="10.00">string</text>
</a>
</g>
</g>
<!-- Node14&#45;&gt;Node16 -->
<g id="edge19" class="edge">
<title>Node14&#45;&gt;Node16</title>
<path fill="none" stroke="#63b8ff" d="M46.88,-115.12C62.35,-105.88 86.83,-91.27 105.22,-80.29"/>
<polygon fill="#63b8ff" stroke="#63b8ff" points="106.88,-83.38 113.68,-75.24 103.3,-77.36 106.88,-83.38"/>
</g>
<!-- Node18&#45;&gt;Node8 -->
<g id="edge23" class="edge">
<title>Node18&#45;&gt;Node8</title>
<path fill="none" stroke="#63b8ff" d="M598.82,-230.59C594.74,-202.4 579.05,-113.56 537,-55 528.53,-43.2 516.03,-33.05 504.81,-25.44"/>
<polygon fill="#63b8ff" stroke="#63b8ff" points="506.99,-22.69 496.68,-20.25 503.22,-28.58 506.99,-22.69"/>
</g>
<!-- Node19 -->
<g id="node19" class="node">
<title>Node19</title>
<g id="a_node19"><a xlink:href="$QtDeviceScaledPixmap_8h.html" xlink:title=" ">
<polygon fill="white" stroke="#666666" points="746,-195 606,-195 606,-176 746,-176 746,-195"/>
<text text-anchor="middle" x="676" y="-183" font-family="Helvetica,sans-Serif" font-size="10.00">QtDeviceScaledPixmap.h</text>
</a>
</g>
</g>
<!-- Node18&#45;&gt;Node19 -->
<g id="edge24" class="edge">
<title>Node18&#45;&gt;Node19</title>
<path fill="none" stroke="#63b8ff" d="M612.89,-230.51C624.1,-222.7 640.57,-211.21 653.88,-201.93"/>
<polygon fill="#63b8ff" stroke="#63b8ff" points="655.86,-204.81 662.06,-196.22 651.85,-199.07 655.86,-204.81"/>
</g>
<!-- Node21 -->
<g id="node21" class="node">
<title>Node21</title>
<g id="a_node21"><a xlink:href="$TimeStamp_8h.html" xlink:title=" ">
<polygon fill="white" stroke="#666666" points="845.5,-195 764.5,-195 764.5,-176 845.5,-176 845.5,-195"/>
<text text-anchor="middle" x="805" y="-183" font-family="Helvetica,sans-Serif" font-size="10.00">TimeStamp.h</text>
</a>
</g>
</g>
<!-- Node18&#45;&gt;Node21 -->
<g id="edge26" class="edge">
<title>Node18&#45;&gt;Node21</title>
<path fill="none" stroke="#63b8ff" d="M634.78,-230.51C669.19,-221.61 722.04,-207.95 759.72,-198.21"/>
<polygon fill="#63b8ff" stroke="#63b8ff" points="760.13,-201.72 768.93,-195.83 758.37,-194.94 760.13,-201.72"/>
</g>
<!-- Node20 -->
<g id="node20" class="node">
<title>Node20</title>
<g id="a_node20"><a xlink:title=" ">
<polygon fill="#e0e0e0" stroke="#999999" points="706.5,-134.5 645.5,-134.5 645.5,-115.5 706.5,-115.5 706.5,-134.5"/>
<text text-anchor="middle" x="676" y="-122.5" font-family="Helvetica,sans-Serif" font-size="10.00">QPixmap</text>
</a>
</g>
</g>
<!-- Node19&#45;&gt;Node20 -->
<g id="edge25" class="edge">
<title>Node19&#45;&gt;Node20</title>
<path fill="none" stroke="#63b8ff" d="M676,-175.87C676,-168 676,-156.1 676,-145.89"/>
<polygon fill="#63b8ff" stroke="#63b8ff" points="679.5,-146.18 676,-136.18 672.5,-146.18 679.5,-146.18"/>
</g>
<!-- Node22 -->
<g id="node22" class="node">
<title>Node22</title>
<g id="a_node22"><a xlink:title=" ">
<polygon fill="#e0e0e0" stroke="#999999" points="867.5,-140 742.5,-140 742.5,-110 867.5,-110 867.5,-140"/>
<text text-anchor="start" x="750.5" y="-128" font-family="Helvetica,sans-Serif" font-size="10.00">boost/date_time/posix</text>
<text text-anchor="middle" x="805" y="-117" font-family="Helvetica,sans-Serif" font-size="10.00">_time/posix_time.hpp</text>
</a>
</g>
</g>
<!-- Node21&#45;&gt;Node22 -->
<g id="edge27" class="edge">
<title>Node21&#45;&gt;Node22</title>
<path fill="none" stroke="#63b8ff" d="M805,-175.87C805,-169.4 805,-160.2 805,-151.45"/>
<polygon fill="#63b8ff" stroke="#63b8ff" points="808.5,-151.63 805,-141.63 801.5,-151.63 808.5,-151.63"/>
</g>
</g>
</svg>
