<?xml version="1.0" encoding="UTF-8" standalone="no"?>
<!DOCTYPE svg PUBLIC "-//W3C//DTD SVG 1.1//EN"
 "http://www.w3.org/Graphics/SVG/1.1/DTD/svg11.dtd">
<!-- Generated by graphviz version 9.0.0 (0)
 -->
<!-- Title: /home/ahussein/Documents/archive/opensourcesourcetrail.github.io/.ignore/src/src/lib_gui/qt/element/QtTable.cpp Pages: 1 -->
<!--zoomable 294 -->

<svg id="main" version="1.1" xmlns="http://www.w3.org/2000/svg" xmlns:xlink="http://www.w3.org/1999/xlink" xml:space="preserve" onload="init(evt)">
<style type="text/css"><![CDATA[
.node, .edge {opacity: 0.7;}
.node.selected, .edge.selected {opacity: 1;}
.edge:hover path { stroke: red; }
.edge:hover polygon { stroke: red; fill: red; }
]]></style>

<defs>
  <circle id="rim" cx="0" cy="0" r="7"/>
  <circle id="rim2" cx="0" cy="0" r="3.5"/>
  <g id="zoomPlus">
    <use xlink:href="#rim" fill="#404040"><set attributeName="fill" to="#808080" begin="zoomplus.mouseover" end="zoomplus.mouseout"/></use>
    <path d="M-4,0h8M0,-4v8" fill="none" stroke="white" stroke-width="1.5" pointer-events="none"/>
  </g>
  <g id="zoomMin">
    <use xlink:href="#rim" fill="#404040"><set attributeName="fill" to="#808080" begin="zoomminus.mouseover" end="zoomminus.mouseout"/></use>
    <path d="M-4,0h8" fill="none" stroke="white" stroke-width="1.5" pointer-events="none"/>
  </g>
  <g id="arrowUp" transform="translate(30 24)">
    <use xlink:href="#rim"/>
    <path pointer-events="none" fill="none" stroke="white" stroke-width="1.5" d="M0,-3.0v7 M-2.5,-0.5L0,-3.0L2.5,-0.5"/>
  </g>
  <g id="arrowRight" transform="rotate(90) translate(36 -43)">
    <use xlink:href="#rim"/>
    <path pointer-events="none" fill="none" stroke="white" stroke-width="1.5" d="M0,-3.0v7 M-2.5,-0.5L0,-3.0L2.5,-0.5"/>
  </g>
  <g id="arrowDown" transform="rotate(180) translate(-30 -48)">
    <use xlink:href="#rim"/>
    <path pointer-events="none" fill="none" stroke="white" stroke-width="1.5" d="M0,-3.0v7 M-2.5,-0.5L0,-3.0L2.5,-0.5"/>
  </g>
  <g id="arrowLeft" transform="rotate(270) translate(-36 17)">
    <use xlink:href="#rim"/>
    <path pointer-events="none" fill="none" stroke="white" stroke-width="1.5" d="M0,-3.0v7 M-2.5,-0.5L0,-3.0L2.5,-0.5"/>
  </g>
  <g id="resetDef">
    <use xlink:href="#rim2" fill="#404040"><set attributeName="fill" to="#808080" begin="reset.mouseover" end="reset.mouseout"/></use>
  </g>
</defs>
<script type="application/ecmascript">
var viewWidth = 848;
var viewHeight = 294;
var sectionId = 'dynsection-0';
</script>
<script type="application/ecmascript" xlink:href="svg.min.js"/>
<svg id="graph" class="graph">
<g id="viewport">
<title>/home/ahussein/Documents/archive/opensourcesourcetrail.github.io/.ignore/src/src/lib_gui/qt/element/QtTable.cpp</title>
<!-- Node1 -->
<g id="Node000001" class="node">
<title>Node1</title>
<g id="a_Node000001"><a xlink:title=" ">
<polygon fill="#999999" stroke="#666666" points="433.38,-286 221.62,-286 221.62,-227 433.38,-227 433.38,-286"/>
<text text-anchor="start" x="229.62" y="-272.5" font-family="Helvetica,sans-Serif" font-size="10.00">/home/ahussein/Documents</text>
<text text-anchor="start" x="229.62" y="-259.75" font-family="Helvetica,sans-Serif" font-size="10.00">/archive/opensourcesourcetrail.github.io</text>
<text text-anchor="start" x="229.62" y="-247" font-family="Helvetica,sans-Serif" font-size="10.00">/.ignore/src/src/lib_gui/qt/element</text>
<text text-anchor="middle" x="327.5" y="-234.25" font-family="Helvetica,sans-Serif" font-size="10.00">/QtTable.cpp</text>
</a>
</g>
</g>
<!-- Node2 -->
<g id="Node000002" class="node">
<title>Node2</title>
<g id="a_Node000002"><a xlink:href="QtTable_8h.html" target="_top" xlink:title=" ">
<polygon fill="white" stroke="#666666" points="67.38,-191 5.62,-191 5.62,-170.25 67.38,-170.25 67.38,-191"/>
<text text-anchor="middle" x="36.5" y="-177.5" font-family="Helvetica,sans-Serif" font-size="10.00">QtTable.h</text>
</a>
</g>
</g>
<!-- Node1&#45;&gt;Node2 -->
<g id="edge1_Node000001_Node000002" class="edge">
<title>Node1&#45;&gt;Node2</title>
<g id="a_edge1_Node000001_Node000002"><a xlink:title=" ">
<path fill="none" stroke="#63b8ff" d="M221.21,-228.52C171.77,-215.97 115.8,-201.76 78.56,-192.3"/>
<polygon fill="#63b8ff" stroke="#63b8ff" points="79.65,-188.97 69.1,-189.9 77.93,-195.75 79.65,-188.97"/>
</a>
</g>
</g>
<!-- Node4 -->
<g id="Node000004" class="node">
<title>Node4</title>
<g id="a_Node000004"><a xlink:title=" ">
<polygon fill="#e0e0e0" stroke="#999999" points="131.88,-191 85.12,-191 85.12,-170.25 131.88,-170.25 131.88,-191"/>
<text text-anchor="middle" x="108.5" y="-177.5" font-family="Helvetica,sans-Serif" font-size="10.00">cmath</text>
</a>
</g>
</g>
<!-- Node1&#45;&gt;Node4 -->
<g id="edge3_Node000001_Node000004" class="edge">
<title>Node1&#45;&gt;Node4</title>
<g id="a_edge3_Node000001_Node000004"><a xlink:title=" ">
<path fill="none" stroke="#63b8ff" d="M241.57,-226.51C206.97,-214.84 169.07,-202.06 142.6,-193.13"/>
<polygon fill="#63b8ff" stroke="#63b8ff" points="144.03,-189.92 133.43,-190.04 141.79,-196.55 144.03,-189.92"/>
</a>
</g>
</g>
<!-- Node5 -->
<g id="Node000005" class="node">
<title>Node5</title>
<g id="a_Node000005"><a xlink:title=" ">
<polygon fill="#e0e0e0" stroke="#999999" points="232.88,-191 150.12,-191 150.12,-170.25 232.88,-170.25 232.88,-191"/>
<text text-anchor="middle" x="191.5" y="-177.5" font-family="Helvetica,sans-Serif" font-size="10.00">QHeaderView</text>
</a>
</g>
</g>
<!-- Node1&#45;&gt;Node5 -->
<g id="edge4_Node000001_Node000005" class="edge">
<title>Node1&#45;&gt;Node5</title>
<g id="a_edge4_Node000001_Node000005"><a xlink:title=" ">
<path fill="none" stroke="#63b8ff" d="M274.14,-226.51C255.34,-216.3 234.97,-205.24 219.16,-196.65"/>
<polygon fill="#63b8ff" stroke="#63b8ff" points="221.28,-193.82 210.82,-192.12 217.93,-199.97 221.28,-193.82"/>
</a>
</g>
</g>
<!-- Node6 -->
<g id="Node000006" class="node">
<title>Node6</title>
<g id="a_Node000006"><a xlink:title=" ">
<polygon fill="#e0e0e0" stroke="#999999" points="313.75,-191 251.25,-191 251.25,-170.25 313.75,-170.25 313.75,-191"/>
<text text-anchor="middle" x="282.5" y="-177.5" font-family="Helvetica,sans-Serif" font-size="10.00">QLineEdit</text>
</a>
</g>
</g>
<!-- Node1&#45;&gt;Node6 -->
<g id="edge5_Node000001_Node000006" class="edge">
<title>Node1&#45;&gt;Node6</title>
<g id="a_edge5_Node000001_Node000006"><a xlink:title=" ">
<path fill="none" stroke="#63b8ff" d="M309.97,-226.73C304.75,-218.15 299.15,-208.95 294.37,-201.11"/>
<polygon fill="#63b8ff" stroke="#63b8ff" points="297.47,-199.47 289.28,-192.75 291.49,-203.11 297.47,-199.47"/>
</a>
</g>
</g>
<!-- Node7 -->
<g id="Node000007" class="node">
<title>Node7</title>
<g id="a_Node000007"><a xlink:title=" ">
<polygon fill="#e0e0e0" stroke="#999999" points="415.25,-191 331.75,-191 331.75,-170.25 415.25,-170.25 415.25,-191"/>
<text text-anchor="middle" x="373.5" y="-177.5" font-family="Helvetica,sans-Serif" font-size="10.00">QResizeEvent</text>
</a>
</g>
</g>
<!-- Node1&#45;&gt;Node7 -->
<g id="edge6_Node000001_Node000007" class="edge">
<title>Node1&#45;&gt;Node7</title>
<g id="a_edge6_Node000001_Node000007"><a xlink:title=" ">
<path fill="none" stroke="#63b8ff" d="M345.42,-226.73C350.76,-218.15 356.49,-208.95 361.36,-201.11"/>
<polygon fill="#63b8ff" stroke="#63b8ff" points="364.26,-203.08 366.58,-192.74 358.32,-199.38 364.26,-203.08"/>
</a>
</g>
</g>
<!-- Node8 -->
<g id="Node000008" class="node">
<title>Node8</title>
<g id="a_Node000008"><a xlink:title=" ">
<polygon fill="#e0e0e0" stroke="#999999" points="500,-191 433,-191 433,-170.25 500,-170.25 500,-191"/>
<text text-anchor="middle" x="466.5" y="-177.5" font-family="Helvetica,sans-Serif" font-size="10.00">QScrollBar</text>
</a>
</g>
</g>
<!-- Node1&#45;&gt;Node8 -->
<g id="edge7_Node000001_Node000008" class="edge">
<title>Node1&#45;&gt;Node8</title>
<g id="a_edge7_Node000001_Node000008"><a xlink:title=" ">
<path fill="none" stroke="#63b8ff" d="M382.04,-226.51C401.25,-216.3 422.07,-205.24 438.23,-196.65"/>
<polygon fill="#63b8ff" stroke="#63b8ff" points="439.59,-199.89 446.78,-192.11 436.31,-193.71 439.59,-199.89"/>
</a>
</g>
</g>
<!-- Node9 -->
<g id="Node000009" class="node">
<title>Node9</title>
<g id="a_Node000009"><a xlink:title=" ">
<polygon fill="#e0e0e0" stroke="#999999" points="639,-191 518,-191 518,-170.25 639,-170.25 639,-191"/>
<text text-anchor="middle" x="578.5" y="-177.5" font-family="Helvetica,sans-Serif" font-size="10.00">QStyledItemDelegate</text>
</a>
</g>
</g>
<!-- Node1&#45;&gt;Node9 -->
<g id="edge8_Node000001_Node000009" class="edge">
<title>Node1&#45;&gt;Node9</title>
<g id="a_edge8_Node000001_Node000009"><a xlink:title=" ">
<path fill="none" stroke="#63b8ff" d="M425.98,-226.51C463.37,-215.51 504.12,-203.52 534.08,-194.7"/>
<polygon fill="#63b8ff" stroke="#63b8ff" points="534.95,-198.09 543.55,-191.91 532.97,-191.38 534.95,-198.09"/>
</a>
</g>
</g>
<!-- Node10 -->
<g id="Node000010" class="node">
<title>Node10</title>
<g id="a_Node000010"><a xlink:href="ApplicationSettings_8h.html" target="_top" xlink:title=" ">
<polygon fill="white" stroke="#666666" points="776.25,-191 656.75,-191 656.75,-170.25 776.25,-170.25 776.25,-191"/>
<text text-anchor="middle" x="716.5" y="-177.5" font-family="Helvetica,sans-Serif" font-size="10.00">ApplicationSettings.h</text>
</a>
</g>
</g>
<!-- Node1&#45;&gt;Node10 -->
<g id="edge9_Node000001_Node000010" class="edge">
<title>Node1&#45;&gt;Node10</title>
<g id="a_edge9_Node000001_Node000010"><a xlink:title=" ">
<path fill="none" stroke="#63b8ff" d="M433.8,-235.31C504.28,-221.93 594.36,-204.82 653.66,-193.56"/>
<polygon fill="#63b8ff" stroke="#63b8ff" points="654.07,-197.04 663.24,-191.74 652.77,-190.17 654.07,-197.04"/>
</a>
</g>
</g>
<!-- Node3 -->
<g id="Node000003" class="node">
<title>Node3</title>
<g id="a_Node000003"><a xlink:title=" ">
<polygon fill="#e0e0e0" stroke="#999999" points="73,-134.25 0,-134.25 0,-113.5 73,-113.5 73,-134.25"/>
<text text-anchor="middle" x="36.5" y="-120.75" font-family="Helvetica,sans-Serif" font-size="10.00">QTableView</text>
</a>
</g>
</g>
<!-- Node2&#45;&gt;Node3 -->
<g id="edge2_Node000002_Node000003" class="edge">
<title>Node2&#45;&gt;Node3</title>
<g id="a_edge2_Node000002_Node000003"><a xlink:title=" ">
<path fill="none" stroke="#63b8ff" d="M36.5,-169.84C36.5,-163.22 36.5,-154.22 36.5,-146.02"/>
<polygon fill="#63b8ff" stroke="#63b8ff" points="40,-146.09 36.5,-136.09 33,-146.09 40,-146.09"/>
</a>
</g>
</g>
<!-- Node11 -->
<g id="Node000011" class="node">
<title>Node11</title>
<g id="a_Node000011"><a xlink:title=" ">
<polygon fill="#e0e0e0" stroke="#999999" points="840.12,-20.75 782.88,-20.75 782.88,0 840.12,0 840.12,-20.75"/>
<text text-anchor="middle" x="811.5" y="-7.25" font-family="Helvetica,sans-Serif" font-size="10.00">memory</text>
</a>
</g>
</g>
<!-- Node10&#45;&gt;Node11 -->
<g id="edge10_Node000010_Node000011" class="edge">
<title>Node10&#45;&gt;Node11</title>
<g id="a_edge10_Node000010_Node000011"><a xlink:title=" ">
<path fill="none" stroke="#63b8ff" d="M735.54,-169.9C763.18,-154.58 813.31,-121.93 833.5,-77.5 840.45,-62.2 833.39,-44.04 825.47,-30.63"/>
<polygon fill="#63b8ff" stroke="#63b8ff" points="828.42,-28.75 820.01,-22.3 822.56,-32.58 828.42,-28.75"/>
</a>
</g>
</g>
<!-- Node12 -->
<g id="Node000012" class="node">
<title>Node12</title>
<g id="a_Node000012"><a xlink:href="GroupType_8h.html" target="_top" xlink:title=" ">
<polygon fill="white" stroke="#666666" points="532.88,-77.5 456.12,-77.5 456.12,-56.75 532.88,-56.75 532.88,-77.5"/>
<text text-anchor="middle" x="494.5" y="-64" font-family="Helvetica,sans-Serif" font-size="10.00">GroupType.h</text>
</a>
</g>
</g>
<!-- Node10&#45;&gt;Node12 -->
<g id="edge11_Node000010_Node000012" class="edge">
<title>Node10&#45;&gt;Node12</title>
<g id="a_edge11_Node000010_Node000012"><a xlink:title=" ">
<path fill="none" stroke="#63b8ff" d="M697.19,-169.93C658.32,-150.4 570.42,-106.26 524.19,-83.04"/>
<polygon fill="#63b8ff" stroke="#63b8ff" points="525.79,-79.92 515.28,-78.56 522.64,-86.18 525.79,-79.92"/>
</a>
</g>
</g>
<!-- Node14 -->
<g id="Node000014" class="node">
<title>Node14</title>
<g id="a_Node000014"><a xlink:href="Settings_8h.html" target="_top" xlink:title=" ">
<polygon fill="white" stroke="#666666" points="748.88,-134.25 684.12,-134.25 684.12,-113.5 748.88,-113.5 748.88,-134.25"/>
<text text-anchor="middle" x="716.5" y="-120.75" font-family="Helvetica,sans-Serif" font-size="10.00">Settings.h</text>
</a>
</g>
</g>
<!-- Node10&#45;&gt;Node14 -->
<g id="edge13_Node000010_Node000014" class="edge">
<title>Node10&#45;&gt;Node14</title>
<g id="a_edge13_Node000010_Node000014"><a xlink:title=" ">
<path fill="none" stroke="#63b8ff" d="M716.5,-169.84C716.5,-163.22 716.5,-154.22 716.5,-146.02"/>
<polygon fill="#63b8ff" stroke="#63b8ff" points="720,-146.09 716.5,-136.09 713,-146.09 720,-146.09"/>
</a>
</g>
</g>
<!-- Node13 -->
<g id="Node000013" class="node">
<title>Node13</title>
<g id="a_Node000013"><a xlink:title=" ">
<polygon fill="#e0e0e0" stroke="#999999" points="592.38,-20.75 548.62,-20.75 548.62,0 592.38,0 592.38,-20.75"/>
<text text-anchor="middle" x="570.5" y="-7.25" font-family="Helvetica,sans-Serif" font-size="10.00">string</text>
</a>
</g>
</g>
<!-- Node12&#45;&gt;Node13 -->
<g id="edge12_Node000012_Node000013" class="edge">
<title>Node12&#45;&gt;Node13</title>
<g id="a_edge12_Node000012_Node000013"><a xlink:title=" ">
<path fill="none" stroke="#63b8ff" d="M508.09,-56.34C519.11,-48.4 534.89,-37.03 547.82,-27.71"/>
<polygon fill="#63b8ff" stroke="#63b8ff" points="549.73,-30.65 555.8,-21.96 545.64,-24.97 549.73,-30.65"/>
</a>
</g>
</g>
<!-- Node14&#45;&gt;Node11 -->
<g id="edge14_Node000014_Node000011" class="edge">
<title>Node14&#45;&gt;Node11</title>
<g id="a_edge14_Node000014_Node000011"><a xlink:title=" ">
<path fill="none" stroke="#63b8ff" d="M748.95,-117.76C772.39,-112.19 802.46,-100.74 817.5,-77.5 826.31,-63.89 823.63,-45.28 819.42,-31.27"/>
<polygon fill="#63b8ff" stroke="#63b8ff" points="822.86,-30.5 816.25,-22.22 816.26,-32.82 822.86,-30.5"/>
</a>
</g>
</g>
<!-- Node14&#45;&gt;Node13 -->
<g id="edge15_Node000014_Node000013" class="edge">
<title>Node14&#45;&gt;Node13</title>
<g id="a_edge15_Node000014_Node000013"><a xlink:title=" ">
<path fill="none" stroke="#63b8ff" d="M683.66,-121.5C651.93,-118.29 605.03,-108.24 579.5,-77.5 569.19,-65.09 567.44,-46.62 567.98,-32.36"/>
<polygon fill="#63b8ff" stroke="#63b8ff" points="571.44,-32.92 568.76,-22.67 564.46,-32.35 571.44,-32.92"/>
</a>
</g>
</g>
<!-- Node15 -->
<g id="Node000015" class="node">
<title>Node15</title>
<g id="a_Node000015"><a xlink:title=" ">
<polygon fill="#e0e0e0" stroke="#999999" points="739.88,-20.75 693.12,-20.75 693.12,0 739.88,0 739.88,-20.75"/>
<text text-anchor="middle" x="716.5" y="-7.25" font-family="Helvetica,sans-Serif" font-size="10.00">vector</text>
</a>
</g>
</g>
<!-- Node14&#45;&gt;Node15 -->
<g id="edge16_Node000014_Node000015" class="edge">
<title>Node14&#45;&gt;Node15</title>
<g id="a_edge16_Node000014_Node000015"><a xlink:title=" ">
<path fill="none" stroke="#63b8ff" d="M716.5,-113.37C716.5,-95.6 716.5,-56.97 716.5,-32.68"/>
<polygon fill="#63b8ff" stroke="#63b8ff" points="720,-32.69 716.5,-22.69 713,-32.69 720,-32.69"/>
</a>
</g>
</g>
<!-- Node16 -->
<g id="Node000016" class="node">
<title>Node16</title>
<g id="a_Node000016"><a xlink:href="ConfigManager_8h.html" target="_top" xlink:title=" ">
<polygon fill="white" stroke="#666666" points="688.12,-77.5 588.88,-77.5 588.88,-56.75 688.12,-56.75 688.12,-77.5"/>
<text text-anchor="middle" x="638.5" y="-64" font-family="Helvetica,sans-Serif" font-size="10.00">ConfigManager.h</text>
</a>
</g>
</g>
<!-- Node14&#45;&gt;Node16 -->
<g id="edge17_Node000014_Node000016" class="edge">
<title>Node14&#45;&gt;Node16</title>
<g id="a_edge17_Node000014_Node000016"><a xlink:title=" ">
<path fill="none" stroke="#63b8ff" d="M702.56,-113.09C691.13,-105.07 674.73,-93.56 661.39,-84.19"/>
<polygon fill="#63b8ff" stroke="#63b8ff" points="663.76,-81.58 653.56,-78.7 659.74,-87.31 663.76,-81.58"/>
</a>
</g>
</g>
<!-- Node18 -->
<g id="Node000018" class="node">
<title>Node18</title>
<g id="a_Node000018"><a xlink:href="FilePath_8h.html" target="_top" xlink:title=" ">
<polygon fill="white" stroke="#666666" points="808.12,-77.5 744.88,-77.5 744.88,-56.75 808.12,-56.75 808.12,-77.5"/>
<text text-anchor="middle" x="776.5" y="-64" font-family="Helvetica,sans-Serif" font-size="10.00">FilePath.h</text>
</a>
</g>
</g>
<!-- Node14&#45;&gt;Node18 -->
<g id="edge22_Node000014_Node000018" class="edge">
<title>Node14&#45;&gt;Node18</title>
<g id="a_edge22_Node000014_Node000018"><a xlink:title=" ">
<path fill="none" stroke="#63b8ff" d="M727.23,-113.09C735.59,-105.46 747.41,-94.67 757.38,-85.57"/>
<polygon fill="#63b8ff" stroke="#63b8ff" points="759.72,-88.17 764.75,-78.85 755,-83 759.72,-88.17"/>
</a>
</g>
</g>
<!-- Node16&#45;&gt;Node11 -->
<g id="edge19_Node000016_Node000011" class="edge">
<title>Node16&#45;&gt;Node11</title>
<g id="a_edge19_Node000016_Node000011"><a xlink:title=" ">
<path fill="none" stroke="#63b8ff" d="M669.43,-56.34C697.99,-47.3 740.58,-33.82 771.68,-23.98"/>
<polygon fill="#63b8ff" stroke="#63b8ff" points="772.64,-27.34 781.12,-20.99 770.53,-20.67 772.64,-27.34"/>
</a>
</g>
</g>
<!-- Node16&#45;&gt;Node13 -->
<g id="edge20_Node000016_Node000013" class="edge">
<title>Node16&#45;&gt;Node13</title>
<g id="a_edge20_Node000016_Node000013"><a xlink:title=" ">
<path fill="none" stroke="#63b8ff" d="M626.34,-56.34C616.67,-48.55 602.92,-37.47 591.48,-28.26"/>
<polygon fill="#63b8ff" stroke="#63b8ff" points="593.71,-25.57 583.73,-22.03 589.32,-31.03 593.71,-25.57"/>
</a>
</g>
</g>
<!-- Node16&#45;&gt;Node15 -->
<g id="edge21_Node000016_Node000015" class="edge">
<title>Node16&#45;&gt;Node15</title>
<g id="a_edge21_Node000016_Node000015"><a xlink:title=" ">
<path fill="none" stroke="#63b8ff" d="M652.44,-56.34C663.87,-48.32 680.27,-36.81 693.61,-27.44"/>
<polygon fill="#63b8ff" stroke="#63b8ff" points="695.26,-30.56 701.44,-21.95 691.24,-24.83 695.26,-30.56"/>
</a>
</g>
</g>
<!-- Node17 -->
<g id="Node000017" class="node">
<title>Node17</title>
<g id="a_Node000017"><a xlink:title=" ">
<polygon fill="#e0e0e0" stroke="#999999" points="657.38,-20.75 619.62,-20.75 619.62,0 657.38,0 657.38,-20.75"/>
<text text-anchor="middle" x="638.5" y="-7.25" font-family="Helvetica,sans-Serif" font-size="10.00">map</text>
</a>
</g>
</g>
<!-- Node16&#45;&gt;Node17 -->
<g id="edge18_Node000016_Node000017" class="edge">
<title>Node16&#45;&gt;Node17</title>
<g id="a_edge18_Node000016_Node000017"><a xlink:title=" ">
<path fill="none" stroke="#63b8ff" d="M638.5,-56.34C638.5,-49.72 638.5,-40.72 638.5,-32.52"/>
<polygon fill="#63b8ff" stroke="#63b8ff" points="642,-32.59 638.5,-22.59 635,-32.59 642,-32.59"/>
</a>
</g>
</g>
<!-- Node18&#45;&gt;Node11 -->
<g id="edge23_Node000018_Node000011" class="edge">
<title>Node18&#45;&gt;Node11</title>
<g id="a_edge23_Node000018_Node000011"><a xlink:title=" ">
<path fill="none" stroke="#63b8ff" d="M782.76,-56.34C787.34,-49.17 793.7,-39.23 799.27,-30.51"/>
<polygon fill="#63b8ff" stroke="#63b8ff" points="802.04,-32.66 804.48,-22.35 796.15,-28.89 802.04,-32.66"/>
</a>
</g>
</g>
<!-- Node18&#45;&gt;Node13 -->
<g id="edge24_Node000018_Node000013" class="edge">
<title>Node18&#45;&gt;Node13</title>
<g id="a_edge24_Node000018_Node000013"><a xlink:title=" ">
<path fill="none" stroke="#63b8ff" d="M744.76,-57.69C706.45,-47.51 642.33,-30.47 603.47,-20.14"/>
<polygon fill="#63b8ff" stroke="#63b8ff" points="604.78,-16.86 594.21,-17.68 602.98,-23.63 604.78,-16.86"/>
</a>
</g>
</g>
<!-- Node18&#45;&gt;Node15 -->
<g id="edge25_Node000018_Node000015" class="edge">
<title>Node18&#45;&gt;Node15</title>
<g id="a_edge25_Node000018_Node000015"><a xlink:title=" ">
<path fill="none" stroke="#63b8ff" d="M765.77,-56.34C757.41,-48.71 745.59,-37.92 735.62,-28.82"/>
<polygon fill="#63b8ff" stroke="#63b8ff" points="738,-26.25 728.25,-22.1 733.28,-31.42 738,-26.25"/>
</a>
</g>
</g>
</g>
</svg>

<g id="navigator" transform="translate(0 0)" fill="#404254">
  <rect fill="#f2f5e9" fill-opacity="0.5" stroke="#606060" stroke-width=".5" x="0" y="0" width="60" height="60"/>
  <use id="zoomplus" xlink:href="#zoomPlus" x="17" y="9" onmousedown="handleZoom(evt,'in')"/>
  <use id="zoomminus" xlink:href="#zoomMin" x="42" y="9" onmousedown="handleZoom(evt,'out')"/>
  <use id="reset" xlink:href="#resetDef" x="30" y="36" onmousedown="handleReset()"/>
   <use id="arrowup" xlink:href="#arrowUp" x="0" y="0" onmousedown="handlePan(0,-1)"/>
  <use id="arrowright" xlink:href="#arrowRight" x="0" y="0" onmousedown="handlePan(1,0)"/>
  <use id="arrowdown" xlink:href="#arrowDown" x="0" y="0" onmousedown="handlePan(0,1)"/>
  <use id="arrowleft" xlink:href="#arrowLeft" x="0" y="0" onmousedown="handlePan(-1,0)"/>
</g>
<svg viewBox="0 0 15 15" width="100%" height="30px" preserveAspectRatio="xMaxYMin meet">
 <g id="arrow_out" transform="scale(0.3 0.3)">
  <a xlink:href="QtTable_8cpp__incl_org.svg" target="_base">
   <rect id="button" ry="5" rx="5" y="6" x="6" height="38" width="38"
        fill="#f2f5e9" fill-opacity="0.5" stroke="#606060" stroke-width="1.0"/>
   <path id="arrow"
     d="M 11.500037,31.436501 C 11.940474,20.09759 22.043105,11.32322 32.158766,21.979434 L 37.068811,17.246167 C 37.068811,17.246167 37.088388,32 37.088388,32 L 22.160133,31.978069 C 22.160133,31.978069 26.997745,27.140456 26.997745,27.140456 C 18.528582,18.264221 13.291696,25.230495 11.500037,31.436501 z"
     style="fill:#404040;"/>
  </a>
 </g>
</svg>

<style type='text/css'>
<![CDATA[
[data-mouse-over-selected='false'] { opacity: 0.7; }
[data-mouse-over-selected='true']  { opacity: 1.0; }
]]>
</style>
<script type="application/ecmascript"><![CDATA[
document.addEventListener('DOMContentLoaded', (event) => {
  highlightEdges();
  highlightAdjacentNodes();
});
]]></script>
</svg>
