<?xml version="1.0" encoding="UTF-8" standalone="no"?>
<!DOCTYPE svg PUBLIC "-//W3C//DTD SVG 1.1//EN"
 "http://www.w3.org/Graphics/SVG/1.1/DTD/svg11.dtd">
<!-- Generated by graphviz version 7.1.0 (0)
 -->
<!-- Title: /home/ahussein/Documents/sourceCode/Sourcetrail/src/src/lib_gui/qt/network/QtTcpWrapper.h Pages: 1 -->
<svg width="445pt" height="115pt"
 viewBox="0.00 0.00 444.50 115.00" xmlns="http://www.w3.org/2000/svg" xmlns:xlink="http://www.w3.org/1999/xlink">
<g id="graph0" class="graph" transform="scale(1 1) rotate(0) translate(4 111)">
<title>/home/ahussein/Documents/sourceCode/Sourcetrail/src/src/lib_gui/qt/network/QtTcpWrapper.h</title>
<!-- Node1 -->
<g id="node1" class="node">
<title>Node1</title>
<g id="a_node1"><a xlink:title=" ">
<polygon fill="#999999" stroke="#666666" points="280.5,-107 128.5,-107 128.5,-55 280.5,-55 280.5,-107"/>
<text text-anchor="start" x="136.5" y="-95" font-family="Helvetica,sans-Serif" font-size="10.00">/home/ahussein/Documents</text>
<text text-anchor="start" x="136.5" y="-84" font-family="Helvetica,sans-Serif" font-size="10.00">/sourceCode/Sourcetrail</text>
<text text-anchor="start" x="136.5" y="-73" font-family="Helvetica,sans-Serif" font-size="10.00">/src/src/lib_gui/qt/network</text>
<text text-anchor="middle" x="204.5" y="-62" font-family="Helvetica,sans-Serif" font-size="10.00">/QtTcpWrapper.h</text>
</a>
</g>
</g>
<!-- Node2 -->
<g id="node2" class="node">
<title>Node2</title>
<g id="a_node2"><a xlink:title=" ">
<polygon fill="#e0e0e0" stroke="#999999" points="65,-19 0,-19 0,0 65,0 65,-19"/>
<text text-anchor="middle" x="32.5" y="-7" font-family="Helvetica,sans-Serif" font-size="10.00">functional</text>
</a>
</g>
</g>
<!-- Node1&#45;&gt;Node2 -->
<g id="edge1" class="edge">
<title>Node1&#45;&gt;Node2</title>
<path fill="none" stroke="#63b8ff" d="M141.43,-54.52C115.47,-44.02 86.5,-32.32 64.96,-23.62"/>
<polygon fill="#63b8ff" stroke="#63b8ff" points="66.42,-20.43 55.84,-19.93 63.8,-26.92 66.42,-20.43"/>
</g>
<!-- Node3 -->
<g id="node3" class="node">
<title>Node3</title>
<g id="a_node3"><a xlink:title=" ">
<polygon fill="#e0e0e0" stroke="#999999" points="145.5,-19 83.5,-19 83.5,0 145.5,0 145.5,-19"/>
<text text-anchor="middle" x="114.5" y="-7" font-family="Helvetica,sans-Serif" font-size="10.00">qobject.h</text>
</a>
</g>
</g>
<!-- Node1&#45;&gt;Node3 -->
<g id="edge2" class="edge">
<title>Node1&#45;&gt;Node3</title>
<path fill="none" stroke="#63b8ff" d="M171.5,-54.52C159.21,-45.02 145.63,-34.54 134.81,-26.18"/>
<polygon fill="#63b8ff" stroke="#63b8ff" points="137.01,-23.46 126.96,-20.12 132.74,-29 137.01,-23.46"/>
</g>
<!-- Node4 -->
<g id="node4" class="node">
<title>Node4</title>
<g id="a_node4"><a xlink:title=" ">
<polygon fill="#e0e0e0" stroke="#999999" points="245,-19 164,-19 164,0 245,0 245,-19"/>
<text text-anchor="middle" x="204.5" y="-7" font-family="Helvetica,sans-Serif" font-size="10.00">qudpsocket.h</text>
</a>
</g>
</g>
<!-- Node1&#45;&gt;Node4 -->
<g id="edge3" class="edge">
<title>Node1&#45;&gt;Node4</title>
<path fill="none" stroke="#63b8ff" d="M204.5,-54.52C204.5,-46.67 204.5,-38.15 204.5,-30.71"/>
<polygon fill="#63b8ff" stroke="#63b8ff" points="208,-30.71 204.5,-20.71 201,-30.71 208,-30.71"/>
</g>
<!-- Node5 -->
<g id="node5" class="node">
<title>Node5</title>
<g id="a_node5"><a xlink:title=" ">
<polygon fill="#e0e0e0" stroke="#999999" points="340,-19 263,-19 263,0 340,0 340,-19"/>
<text text-anchor="middle" x="301.5" y="-7" font-family="Helvetica,sans-Serif" font-size="10.00">qtcpserver.h</text>
</a>
</g>
</g>
<!-- Node1&#45;&gt;Node5 -->
<g id="edge4" class="edge">
<title>Node1&#45;&gt;Node5</title>
<path fill="none" stroke="#63b8ff" d="M240.07,-54.52C253.59,-44.83 268.55,-34.11 280.32,-25.67"/>
<polygon fill="#63b8ff" stroke="#63b8ff" points="282.04,-28.75 288.13,-20.08 277.96,-23.06 282.04,-28.75"/>
</g>
<!-- Node6 -->
<g id="node6" class="node">
<title>Node6</title>
<g id="a_node6"><a xlink:title=" ">
<polygon fill="#e0e0e0" stroke="#999999" points="436.5,-19 358.5,-19 358.5,0 436.5,0 436.5,-19"/>
<text text-anchor="middle" x="397.5" y="-7" font-family="Helvetica,sans-Serif" font-size="10.00">qtcpsocket.h</text>
</a>
</g>
</g>
<!-- Node1&#45;&gt;Node6 -->
<g id="edge5" class="edge">
<title>Node1&#45;&gt;Node6</title>
<path fill="none" stroke="#63b8ff" d="M275.27,-54.52C304.8,-43.88 337.81,-32 362.07,-23.26"/>
<polygon fill="#63b8ff" stroke="#63b8ff" points="363.24,-26.56 371.46,-19.88 360.87,-19.97 363.24,-26.56"/>
</g>
</g>
</svg>
