<?xml version="1.0" encoding="UTF-8" standalone="no"?>
<!DOCTYPE svg PUBLIC "-//W3C//DTD SVG 1.1//EN"
 "http://www.w3.org/Graphics/SVG/1.1/DTD/svg11.dtd">
<!-- Generated by graphviz version 9.0.0 (0)
 -->
<!-- Title: /home/ahussein/Documents/archive/opensourcesourcetrail.github.io/.ignore/src/src/lib_gui/qt/utility/QtThreadedFunctor.h Pages: 1 -->
<!--zoomable 351 -->

<svg id="main" version="1.1" xmlns="http://www.w3.org/2000/svg" xmlns:xlink="http://www.w3.org/1999/xlink" xml:space="preserve" onload="init(evt)">
<style type="text/css"><![CDATA[
.node, .edge {opacity: 0.7;}
.node.selected, .edge.selected {opacity: 1;}
.edge:hover path { stroke: red; }
.edge:hover polygon { stroke: red; fill: red; }
]]></style>

<defs>
  <circle id="rim" cx="0" cy="0" r="7"/>
  <circle id="rim2" cx="0" cy="0" r="3.5"/>
  <g id="zoomPlus">
    <use xlink:href="#rim" fill="#404040"><set attributeName="fill" to="#808080" begin="zoomplus.mouseover" end="zoomplus.mouseout"/></use>
    <path d="M-4,0h8M0,-4v8" fill="none" stroke="white" stroke-width="1.5" pointer-events="none"/>
  </g>
  <g id="zoomMin">
    <use xlink:href="#rim" fill="#404040"><set attributeName="fill" to="#808080" begin="zoomminus.mouseover" end="zoomminus.mouseout"/></use>
    <path d="M-4,0h8" fill="none" stroke="white" stroke-width="1.5" pointer-events="none"/>
  </g>
  <g id="arrowUp" transform="translate(30 24)">
    <use xlink:href="#rim"/>
    <path pointer-events="none" fill="none" stroke="white" stroke-width="1.5" d="M0,-3.0v7 M-2.5,-0.5L0,-3.0L2.5,-0.5"/>
  </g>
  <g id="arrowRight" transform="rotate(90) translate(36 -43)">
    <use xlink:href="#rim"/>
    <path pointer-events="none" fill="none" stroke="white" stroke-width="1.5" d="M0,-3.0v7 M-2.5,-0.5L0,-3.0L2.5,-0.5"/>
  </g>
  <g id="arrowDown" transform="rotate(180) translate(-30 -48)">
    <use xlink:href="#rim"/>
    <path pointer-events="none" fill="none" stroke="white" stroke-width="1.5" d="M0,-3.0v7 M-2.5,-0.5L0,-3.0L2.5,-0.5"/>
  </g>
  <g id="arrowLeft" transform="rotate(270) translate(-36 17)">
    <use xlink:href="#rim"/>
    <path pointer-events="none" fill="none" stroke="white" stroke-width="1.5" d="M0,-3.0v7 M-2.5,-0.5L0,-3.0L2.5,-0.5"/>
  </g>
  <g id="resetDef">
    <use xlink:href="#rim2" fill="#404040"><set attributeName="fill" to="#808080" begin="reset.mouseover" end="reset.mouseout"/></use>
  </g>
</defs>
<script type="application/ecmascript">
var viewWidth = 778;
var viewHeight = 351;
var sectionId = 'dynsection-0';
</script>
<script type="application/ecmascript" xlink:href="svg.min.js"/>
<svg id="graph" class="graph">
<g id="viewport">
<title>/home/ahussein/Documents/archive/opensourcesourcetrail.github.io/.ignore/src/src/lib_gui/qt/utility/QtThreadedFunctor.h</title>
<!-- Node1 -->
<g id="Node000001" class="node">
<title>Node1</title>
<g id="a_Node000001"><a xlink:title=" ">
<polygon fill="#999999" stroke="#666666" points="344.25,-342.75 132.5,-342.75 132.5,-283.75 344.25,-283.75 344.25,-342.75"/>
<text text-anchor="start" x="140.5" y="-329.25" font-family="Helvetica,sans-Serif" font-size="10.00">/home/ahussein/Documents</text>
<text text-anchor="start" x="140.5" y="-316.5" font-family="Helvetica,sans-Serif" font-size="10.00">/archive/opensourcesourcetrail.github.io</text>
<text text-anchor="start" x="140.5" y="-303.75" font-family="Helvetica,sans-Serif" font-size="10.00">/.ignore/src/src/lib_gui/qt/utility</text>
<text text-anchor="middle" x="238.38" y="-291" font-family="Helvetica,sans-Serif" font-size="10.00">/QtThreadedFunctor.h</text>
</a>
</g>
</g>
<!-- Node2 -->
<g id="Node000002" class="node">
<title>Node2</title>
<g id="a_Node000002"><a xlink:title=" ">
<polygon fill="#e0e0e0" stroke="#999999" points="64.75,-247.75 0,-247.75 0,-227 64.75,-227 64.75,-247.75"/>
<text text-anchor="middle" x="32.38" y="-234.25" font-family="Helvetica,sans-Serif" font-size="10.00">functional</text>
</a>
</g>
</g>
<!-- Node1&#45;&gt;Node2 -->
<g id="edge1_Node000001_Node000002" class="edge">
<title>Node1&#45;&gt;Node2</title>
<g id="a_edge1_Node000001_Node000002"><a xlink:title=" ">
<path fill="none" stroke="#63b8ff" d="M157.55,-283.26C127.44,-272.47 94.68,-260.72 70.23,-251.95"/>
<polygon fill="#63b8ff" stroke="#63b8ff" points="71.64,-248.74 61.05,-248.66 69.28,-255.33 71.64,-248.74"/>
</a>
</g>
</g>
<!-- Node3 -->
<g id="Node000003" class="node">
<title>Node3</title>
<g id="a_Node000003"><a xlink:title=" ">
<polygon fill="#e0e0e0" stroke="#999999" points="137.88,-247.75 82.88,-247.75 82.88,-227 137.88,-227 137.88,-247.75"/>
<text text-anchor="middle" x="110.38" y="-234.25" font-family="Helvetica,sans-Serif" font-size="10.00">QObject</text>
</a>
</g>
</g>
<!-- Node1&#45;&gt;Node3 -->
<g id="edge2_Node000001_Node000003" class="edge">
<title>Node1&#45;&gt;Node3</title>
<g id="a_edge2_Node000001_Node000003"><a xlink:title=" ">
<path fill="none" stroke="#63b8ff" d="M188.15,-283.26C170.79,-273.25 152.02,-262.41 137.26,-253.89"/>
<polygon fill="#63b8ff" stroke="#63b8ff" points="139.03,-250.87 128.62,-248.9 135.53,-256.93 139.03,-250.87"/>
</a>
</g>
</g>
<!-- Node4 -->
<g id="Node000004" class="node">
<title>Node4</title>
<g id="a_Node000004"><a xlink:title=" ">
<polygon fill="#e0e0e0" stroke="#999999" points="234.88,-247.75 155.88,-247.75 155.88,-227 234.88,-227 234.88,-247.75"/>
<text text-anchor="middle" x="195.38" y="-234.25" font-family="Helvetica,sans-Serif" font-size="10.00">QSemaphore</text>
</a>
</g>
</g>
<!-- Node1&#45;&gt;Node4 -->
<g id="edge3_Node000001_Node000004" class="edge">
<title>Node1&#45;&gt;Node4</title>
<g id="a_edge3_Node000001_Node000004"><a xlink:title=" ">
<path fill="none" stroke="#63b8ff" d="M221.63,-283.48C216.69,-275 211.4,-265.91 206.87,-258.13"/>
<polygon fill="#63b8ff" stroke="#63b8ff" points="209.91,-256.4 201.86,-249.51 203.86,-259.92 209.91,-256.4"/>
</a>
</g>
</g>
<!-- Node5 -->
<g id="Node000005" class="node">
<title>Node5</title>
<g id="a_Node000005"><a xlink:title=" ">
<polygon fill="#e0e0e0" stroke="#999999" points="310,-247.75 252.75,-247.75 252.75,-227 310,-227 310,-247.75"/>
<text text-anchor="middle" x="281.38" y="-234.25" font-family="Helvetica,sans-Serif" font-size="10.00">QThread</text>
</a>
</g>
</g>
<!-- Node1&#45;&gt;Node5 -->
<g id="edge4_Node000001_Node000005" class="edge">
<title>Node1&#45;&gt;Node5</title>
<g id="a_edge4_Node000001_Node000005"><a xlink:title=" ">
<path fill="none" stroke="#63b8ff" d="M255.12,-283.48C260.06,-275 265.35,-265.91 269.88,-258.13"/>
<polygon fill="#63b8ff" stroke="#63b8ff" points="272.89,-259.92 274.89,-249.51 266.84,-256.4 272.89,-259.92"/>
</a>
</g>
</g>
<!-- Node6 -->
<g id="Node000006" class="node">
<title>Node6</title>
<g id="a_Node000006"><a xlink:href="MessageListener_8h.html" target="_top" xlink:title=" ">
<polygon fill="white" stroke="#666666" points="435.12,-247.75 327.62,-247.75 327.62,-227 435.12,-227 435.12,-247.75"/>
<text text-anchor="middle" x="381.38" y="-234.25" font-family="Helvetica,sans-Serif" font-size="10.00">MessageListener.h</text>
</a>
</g>
</g>
<!-- Node1&#45;&gt;Node6 -->
<g id="edge5_Node000001_Node000006" class="edge">
<title>Node1&#45;&gt;Node6</title>
<g id="a_edge5_Node000001_Node000006"><a xlink:title=" ">
<path fill="none" stroke="#63b8ff" d="M294.48,-283.26C314.25,-273.05 335.67,-261.99 352.29,-253.4"/>
<polygon fill="#63b8ff" stroke="#63b8ff" points="353.84,-256.54 361.12,-248.84 350.63,-250.32 353.84,-256.54"/>
</a>
</g>
</g>
<!-- Node21 -->
<g id="Node000021" class="node">
<title>Node21</title>
<g id="a_Node000021"><a xlink:href="MessageWindowClosed_8h.html" target="_top" xlink:title=" ">
<polygon fill="white" stroke="#666666" points="628.62,-247.75 488.12,-247.75 488.12,-227 628.62,-227 628.62,-247.75"/>
<text text-anchor="middle" x="558.38" y="-234.25" font-family="Helvetica,sans-Serif" font-size="10.00">MessageWindowClosed.h</text>
</a>
</g>
</g>
<!-- Node1&#45;&gt;Node21 -->
<g id="edge28_Node000001_Node000021" class="edge">
<title>Node1&#45;&gt;Node21</title>
<g id="a_edge28_Node000001_Node000021"><a xlink:title=" ">
<path fill="none" stroke="#63b8ff" d="M344.49,-287.75C398.1,-275.38 460.84,-260.89 504.45,-250.82"/>
<polygon fill="#63b8ff" stroke="#63b8ff" points="505.24,-254.23 514.19,-248.57 503.66,-247.41 505.24,-254.23"/>
</a>
</g>
</g>
<!-- Node7 -->
<g id="Node000007" class="node">
<title>Node7</title>
<g id="a_Node000007"><a xlink:title=" ">
<polygon fill="#e0e0e0" stroke="#999999" points="249.25,-20.75 205.5,-20.75 205.5,0 249.25,0 249.25,-20.75"/>
<text text-anchor="middle" x="227.38" y="-7.25" font-family="Helvetica,sans-Serif" font-size="10.00">string</text>
</a>
</g>
</g>
<!-- Node6&#45;&gt;Node7 -->
<g id="edge6_Node000006_Node000007" class="edge">
<title>Node6&#45;&gt;Node7</title>
<g id="a_edge6_Node000006_Node000007"><a xlink:title=" ">
<path fill="none" stroke="#63b8ff" d="M355.93,-226.55C321.62,-211.92 261.25,-180.99 230.38,-134.25 210.06,-103.5 215.79,-58.3 221.67,-32.16"/>
<polygon fill="#63b8ff" stroke="#63b8ff" points="225.07,-33.02 224.09,-22.47 218.27,-31.32 225.07,-33.02"/>
</a>
</g>
</g>
<!-- Node8 -->
<g id="Node000008" class="node">
<title>Node8</title>
<g id="a_Node000008"><a xlink:href="MessageBase_8h.html" target="_top" xlink:title=" ">
<polygon fill="white" stroke="#666666" points="487.62,-134.25 395.12,-134.25 395.12,-113.5 487.62,-113.5 487.62,-134.25"/>
<text text-anchor="middle" x="441.38" y="-120.75" font-family="Helvetica,sans-Serif" font-size="10.00">MessageBase.h</text>
</a>
</g>
</g>
<!-- Node6&#45;&gt;Node8 -->
<g id="edge7_Node000006_Node000008" class="edge">
<title>Node6&#45;&gt;Node8</title>
<g id="a_edge7_Node000006_Node000008"><a xlink:title=" ">
<path fill="none" stroke="#63b8ff" d="M379.25,-226.78C376.78,-213.33 374.14,-188.49 383.38,-170.25 389.52,-158.11 400.58,-148.22 411.4,-140.81"/>
<polygon fill="#63b8ff" stroke="#63b8ff" points="413.24,-143.79 419.85,-135.51 409.52,-137.86 413.24,-143.79"/>
</a>
</g>
</g>
<!-- Node17 -->
<g id="Node000017" class="node">
<title>Node17</title>
<g id="a_Node000017"><a xlink:href="MessageListenerBase_8h.html" target="_top" xlink:title=" ">
<polygon fill="white" stroke="#666666" points="524.12,-191 392.62,-191 392.62,-170.25 524.12,-170.25 524.12,-191"/>
<text text-anchor="middle" x="458.38" y="-177.5" font-family="Helvetica,sans-Serif" font-size="10.00">MessageListenerBase.h</text>
</a>
</g>
</g>
<!-- Node6&#45;&gt;Node17 -->
<g id="edge18_Node000006_Node000017" class="edge">
<title>Node6&#45;&gt;Node17</title>
<g id="a_edge18_Node000006_Node000017"><a xlink:title=" ">
<path fill="none" stroke="#63b8ff" d="M395.14,-226.59C406.31,-218.65 422.29,-207.28 435.4,-197.96"/>
<polygon fill="#63b8ff" stroke="#63b8ff" points="437.37,-200.85 443.49,-192.21 433.32,-195.15 437.37,-200.85"/>
</a>
</g>
</g>
<!-- Node9 -->
<g id="Node000009" class="node">
<title>Node9</title>
<g id="a_Node000009"><a xlink:title=" ">
<polygon fill="#e0e0e0" stroke="#999999" points="483.62,-77.5 427.12,-77.5 427.12,-56.75 483.62,-56.75 483.62,-77.5"/>
<text text-anchor="middle" x="455.38" y="-64" font-family="Helvetica,sans-Serif" font-size="10.00">ostream</text>
</a>
</g>
</g>
<!-- Node8&#45;&gt;Node9 -->
<g id="edge8_Node000008_Node000009" class="edge">
<title>Node8&#45;&gt;Node9</title>
<g id="a_edge8_Node000008_Node000009"><a xlink:title=" ">
<path fill="none" stroke="#63b8ff" d="M443.88,-113.09C445.59,-106.39 447.92,-97.26 450.04,-88.98"/>
<polygon fill="#63b8ff" stroke="#63b8ff" points="453.43,-89.85 452.52,-79.29 446.65,-88.12 453.43,-89.85"/>
</a>
</g>
</g>
<!-- Node10 -->
<g id="Node000010" class="node">
<title>Node10</title>
<g id="a_Node000010"><a xlink:title=" ">
<polygon fill="#e0e0e0" stroke="#999999" points="327.25,-20.75 271.5,-20.75 271.5,0 327.25,0 327.25,-20.75"/>
<text text-anchor="middle" x="299.38" y="-7.25" font-family="Helvetica,sans-Serif" font-size="10.00">sstream</text>
</a>
</g>
</g>
<!-- Node8&#45;&gt;Node10 -->
<g id="edge9_Node000008_Node000010" class="edge">
<title>Node8&#45;&gt;Node10</title>
<g id="a_edge9_Node000008_Node000010"><a xlink:title=" ">
<path fill="none" stroke="#63b8ff" d="M394.75,-116.2C368.95,-110.19 338.2,-98.84 318.38,-77.5 307.06,-65.32 302.43,-46.83 300.56,-32.5"/>
<polygon fill="#63b8ff" stroke="#63b8ff" points="304.07,-32.38 299.67,-22.74 297.1,-33.02 304.07,-32.38"/>
</a>
</g>
</g>
<!-- Node11 -->
<g id="Node000011" class="node">
<title>Node11</title>
<g id="a_Node000011"><a xlink:href="types_8h.html" target="_top" xlink:title=" ">
<polygon fill="white" stroke="#666666" points="553.38,-77.5 501.38,-77.5 501.38,-56.75 553.38,-56.75 553.38,-77.5"/>
<text text-anchor="middle" x="527.38" y="-64" font-family="Helvetica,sans-Serif" font-size="10.00">types.h</text>
</a>
</g>
</g>
<!-- Node8&#45;&gt;Node11 -->
<g id="edge10_Node000008_Node000011" class="edge">
<title>Node8&#45;&gt;Node11</title>
<g id="a_edge10_Node000008_Node000011"><a xlink:title=" ">
<path fill="none" stroke="#63b8ff" d="M456.75,-113.09C469.47,-104.99 487.78,-93.33 502.57,-83.92"/>
<polygon fill="#63b8ff" stroke="#63b8ff" points="504.3,-86.96 510.86,-78.64 500.54,-81.06 504.3,-86.96"/>
</a>
</g>
</g>
<!-- Node13 -->
<g id="Node000013" class="node">
<title>Node13</title>
<g id="a_Node000013"><a xlink:href="utilityString_8h.html" target="_top" xlink:title=" ">
<polygon fill="white" stroke="#666666" points="409.38,-77.5 327.38,-77.5 327.38,-56.75 409.38,-56.75 409.38,-77.5"/>
<text text-anchor="middle" x="368.38" y="-64" font-family="Helvetica,sans-Serif" font-size="10.00">utilityString.h</text>
</a>
</g>
</g>
<!-- Node8&#45;&gt;Node13 -->
<g id="edge12_Node000008_Node000013" class="edge">
<title>Node8&#45;&gt;Node13</title>
<g id="a_edge12_Node000008_Node000013"><a xlink:title=" ">
<path fill="none" stroke="#63b8ff" d="M428.32,-113.09C417.74,-105.15 402.58,-93.78 390.16,-84.46"/>
<polygon fill="#63b8ff" stroke="#63b8ff" points="392.62,-81.94 382.52,-78.74 388.42,-87.54 392.62,-81.94"/>
</a>
</g>
</g>
<!-- Node12 -->
<g id="Node000012" class="node">
<title>Node12</title>
<g id="a_Node000012"><a xlink:title=" ">
<polygon fill="#e0e0e0" stroke="#999999" points="514.38,-20.75 462.38,-20.75 462.38,0 514.38,0 514.38,-20.75"/>
<text text-anchor="middle" x="488.38" y="-7.25" font-family="Helvetica,sans-Serif" font-size="10.00">cstddef</text>
</a>
</g>
</g>
<!-- Node11&#45;&gt;Node12 -->
<g id="edge11_Node000011_Node000012" class="edge">
<title>Node11&#45;&gt;Node12</title>
<g id="a_edge11_Node000011_Node000012"><a xlink:title=" ">
<path fill="none" stroke="#63b8ff" d="M520.4,-56.34C515.24,-49.1 508.06,-39.01 501.8,-30.22"/>
<polygon fill="#63b8ff" stroke="#63b8ff" points="504.82,-28.43 496.17,-22.31 499.12,-32.49 504.82,-28.43"/>
</a>
</g>
</g>
<!-- Node13&#45;&gt;Node7 -->
<g id="edge16_Node000013_Node000007" class="edge">
<title>Node13&#45;&gt;Node7</title>
<g id="a_edge16_Node000013_Node000007"><a xlink:title=" ">
<path fill="none" stroke="#63b8ff" d="M343.17,-56.34C319.98,-47.33 285.47,-33.93 260.15,-24.1"/>
<polygon fill="#63b8ff" stroke="#63b8ff" points="261.58,-20.9 250.99,-20.55 259.05,-27.43 261.58,-20.9"/>
</a>
</g>
</g>
<!-- Node13&#45;&gt;Node10 -->
<g id="edge15_Node000013_Node000010" class="edge">
<title>Node13&#45;&gt;Node10</title>
<g id="a_edge15_Node000013_Node000010"><a xlink:title=" ">
<path fill="none" stroke="#63b8ff" d="M356.04,-56.34C346.13,-48.47 331.99,-37.25 320.31,-27.99"/>
<polygon fill="#63b8ff" stroke="#63b8ff" points="322.8,-25.49 312.79,-22.02 318.45,-30.98 322.8,-25.49"/>
</a>
</g>
</g>
<!-- Node14 -->
<g id="Node000014" class="node">
<title>Node14</title>
<g id="a_Node000014"><a xlink:title=" ">
<polygon fill="#e0e0e0" stroke="#999999" points="409,-20.75 345.75,-20.75 345.75,0 409,0 409,-20.75"/>
<text text-anchor="middle" x="377.38" y="-7.25" font-family="Helvetica,sans-Serif" font-size="10.00">algorithm</text>
</a>
</g>
</g>
<!-- Node13&#45;&gt;Node14 -->
<g id="edge13_Node000013_Node000014" class="edge">
<title>Node13&#45;&gt;Node14</title>
<g id="a_edge13_Node000013_Node000014"><a xlink:title=" ">
<path fill="none" stroke="#63b8ff" d="M369.98,-56.34C371.08,-49.64 372.59,-40.51 373.95,-32.23"/>
<polygon fill="#63b8ff" stroke="#63b8ff" points="377.37,-33.01 375.53,-22.57 370.46,-31.87 377.37,-33.01"/>
</a>
</g>
</g>
<!-- Node15 -->
<g id="Node000015" class="node">
<title>Node15</title>
<g id="a_Node000015"><a xlink:title=" ">
<polygon fill="#e0e0e0" stroke="#999999" points="578.38,-20.75 532.38,-20.75 532.38,0 578.38,0 578.38,-20.75"/>
<text text-anchor="middle" x="555.38" y="-7.25" font-family="Helvetica,sans-Serif" font-size="10.00">deque</text>
</a>
</g>
</g>
<!-- Node13&#45;&gt;Node15 -->
<g id="edge14_Node000013_Node000015" class="edge">
<title>Node13&#45;&gt;Node15</title>
<g id="a_edge14_Node000013_Node000015"><a xlink:title=" ">
<path fill="none" stroke="#63b8ff" d="M401.81,-56.34C435.5,-46.47 487.25,-31.32 521.2,-21.38"/>
<polygon fill="#63b8ff" stroke="#63b8ff" points="521.92,-24.82 530.53,-18.65 519.95,-18.1 521.92,-24.82"/>
</a>
</g>
</g>
<!-- Node16 -->
<g id="Node000016" class="node">
<title>Node16</title>
<g id="a_Node000016"><a xlink:title=" ">
<polygon fill="#e0e0e0" stroke="#999999" points="642.75,-20.75 596,-20.75 596,0 642.75,0 642.75,-20.75"/>
<text text-anchor="middle" x="619.38" y="-7.25" font-family="Helvetica,sans-Serif" font-size="10.00">vector</text>
</a>
</g>
</g>
<!-- Node13&#45;&gt;Node16 -->
<g id="edge17_Node000013_Node000016" class="edge">
<title>Node13&#45;&gt;Node16</title>
<g id="a_edge17_Node000013_Node000016"><a xlink:title=" ">
<path fill="none" stroke="#63b8ff" d="M409.46,-58.03C458.74,-48.24 539.53,-31.98 584.51,-21.28"/>
<polygon fill="#63b8ff" stroke="#63b8ff" points="585.32,-24.69 594.2,-18.91 583.65,-17.89 585.32,-24.69"/>
</a>
</g>
</g>
<!-- Node17&#45;&gt;Node7 -->
<g id="edge19_Node000017_Node000007" class="edge">
<title>Node17&#45;&gt;Node7</title>
<g id="a_edge19_Node000017_Node000007"><a xlink:title=" ">
<path fill="none" stroke="#63b8ff" d="M392.18,-173.49C337.94,-167.05 267.03,-154.92 247.38,-134.25 221.41,-106.94 221.54,-59.82 224.26,-32.55"/>
<polygon fill="#63b8ff" stroke="#63b8ff" points="227.72,-33.1 225.47,-22.75 220.77,-32.24 227.72,-33.1"/>
</a>
</g>
</g>
<!-- Node17&#45;&gt;Node8 -->
<g id="edge20_Node000017_Node000008" class="edge">
<title>Node17&#45;&gt;Node8</title>
<g id="a_edge20_Node000017_Node000008"><a xlink:title=" ">
<path fill="none" stroke="#63b8ff" d="M455.34,-169.84C453.23,-163.06 450.36,-153.8 447.76,-145.44"/>
<polygon fill="#63b8ff" stroke="#63b8ff" points="451.14,-144.54 444.84,-136.02 444.46,-146.61 451.14,-144.54"/>
</a>
</g>
</g>
<!-- Node17&#45;&gt;Node11 -->
<g id="edge27_Node000017_Node000011" class="edge">
<title>Node17&#45;&gt;Node11</title>
<g id="a_edge27_Node000017_Node000011"><a xlink:title=" ">
<path fill="none" stroke="#63b8ff" d="M467.94,-169.76C476.15,-160.95 487.98,-147.42 496.38,-134.25 505.66,-119.7 513.83,-101.93 519.45,-88.47"/>
<polygon fill="#63b8ff" stroke="#63b8ff" points="522.64,-89.94 523.13,-79.35 516.15,-87.32 522.64,-89.94"/>
</a>
</g>
</g>
<!-- Node18 -->
<g id="Node000018" class="node">
<title>Node18</title>
<g id="a_Node000018"><a xlink:href="MessageQueue_8h.html" target="_top" xlink:title=" ">
<polygon fill="white" stroke="#666666" points="643.38,-134.25 543.38,-134.25 543.38,-113.5 643.38,-113.5 643.38,-134.25"/>
<text text-anchor="middle" x="593.38" y="-120.75" font-family="Helvetica,sans-Serif" font-size="10.00">MessageQueue.h</text>
</a>
</g>
</g>
<!-- Node17&#45;&gt;Node18 -->
<g id="edge21_Node000017_Node000018" class="edge">
<title>Node17&#45;&gt;Node18</title>
<g id="a_edge21_Node000017_Node000018"><a xlink:title=" ">
<path fill="none" stroke="#63b8ff" d="M482.51,-169.84C503.82,-161.19 535.13,-148.5 559.04,-138.8"/>
<polygon fill="#63b8ff" stroke="#63b8ff" points="560.09,-142.15 568.05,-135.15 557.46,-135.66 560.09,-142.15"/>
</a>
</g>
</g>
<!-- Node18&#45;&gt;Node11 -->
<g id="edge26_Node000018_Node000011" class="edge">
<title>Node18&#45;&gt;Node11</title>
<g id="a_edge26_Node000018_Node000011"><a xlink:title=" ">
<path fill="none" stroke="#63b8ff" d="M581.58,-113.09C572.19,-105.3 558.84,-94.22 547.73,-85.01"/>
<polygon fill="#63b8ff" stroke="#63b8ff" points="550.17,-82.49 540.24,-78.79 545.7,-87.87 550.17,-82.49"/>
</a>
</g>
</g>
<!-- Node18&#45;&gt;Node15 -->
<g id="edge22_Node000018_Node000015" class="edge">
<title>Node18&#45;&gt;Node15</title>
<g id="a_edge22_Node000018_Node000015"><a xlink:title=" ">
<path fill="none" stroke="#63b8ff" d="M590.14,-113.37C584.02,-95.44 570.67,-56.25 562.41,-32.01"/>
<polygon fill="#63b8ff" stroke="#63b8ff" points="565.74,-30.94 559.2,-22.61 559.12,-33.2 565.74,-30.94"/>
</a>
</g>
</g>
<!-- Node18&#45;&gt;Node16 -->
<g id="edge25_Node000018_Node000016" class="edge">
<title>Node18&#45;&gt;Node16</title>
<g id="a_edge25_Node000018_Node000016"><a xlink:title=" ">
<path fill="none" stroke="#63b8ff" d="M595.59,-113.37C599.75,-95.52 608.83,-56.61 614.49,-32.34"/>
<polygon fill="#63b8ff" stroke="#63b8ff" points="617.88,-33.18 616.75,-22.65 611.07,-31.59 617.88,-33.18"/>
</a>
</g>
</g>
<!-- Node19 -->
<g id="Node000019" class="node">
<title>Node19</title>
<g id="a_Node000019"><a xlink:title=" ">
<polygon fill="#e0e0e0" stroke="#999999" points="770,-77.5 712.75,-77.5 712.75,-56.75 770,-56.75 770,-77.5"/>
<text text-anchor="middle" x="741.38" y="-64" font-family="Helvetica,sans-Serif" font-size="10.00">memory</text>
</a>
</g>
</g>
<!-- Node18&#45;&gt;Node19 -->
<g id="edge23_Node000018_Node000019" class="edge">
<title>Node18&#45;&gt;Node19</title>
<g id="a_edge23_Node000018_Node000019"><a xlink:title=" ">
<path fill="none" stroke="#63b8ff" d="M619.83,-113.09C643.41,-104.37 678.14,-91.52 704.44,-81.79"/>
<polygon fill="#63b8ff" stroke="#63b8ff" points="705.56,-85.11 713.73,-78.35 703.13,-78.54 705.56,-85.11"/>
</a>
</g>
</g>
<!-- Node20 -->
<g id="Node000020" class="node">
<title>Node20</title>
<g id="a_Node000020"><a xlink:title=" ">
<polygon fill="#e0e0e0" stroke="#999999" points="695.12,-77.5 647.62,-77.5 647.62,-56.75 695.12,-56.75 695.12,-77.5"/>
<text text-anchor="middle" x="671.38" y="-64" font-family="Helvetica,sans-Serif" font-size="10.00">mutex</text>
</a>
</g>
</g>
<!-- Node18&#45;&gt;Node20 -->
<g id="edge24_Node000018_Node000020" class="edge">
<title>Node18&#45;&gt;Node20</title>
<g id="a_edge24_Node000018_Node000020"><a xlink:title=" ">
<path fill="none" stroke="#63b8ff" d="M607.32,-113.09C618.74,-105.07 635.14,-93.56 648.49,-84.19"/>
<polygon fill="#63b8ff" stroke="#63b8ff" points="650.14,-87.31 656.31,-78.7 646.12,-81.58 650.14,-87.31"/>
</a>
</g>
</g>
<!-- Node22 -->
<g id="Node000022" class="node">
<title>Node22</title>
<g id="a_Node000022"><a xlink:href="Message_8h.html" target="_top" xlink:title=" ">
<polygon fill="white" stroke="#666666" points="610.62,-191 542.12,-191 542.12,-170.25 610.62,-170.25 610.62,-191"/>
<text text-anchor="middle" x="576.38" y="-177.5" font-family="Helvetica,sans-Serif" font-size="10.00">Message.h</text>
</a>
</g>
</g>
<!-- Node21&#45;&gt;Node22 -->
<g id="edge29_Node000021_Node000022" class="edge">
<title>Node21&#45;&gt;Node22</title>
<g id="a_edge29_Node000021_Node000022"><a xlink:title=" ">
<path fill="none" stroke="#63b8ff" d="M561.59,-226.59C563.82,-219.81 566.87,-210.55 569.61,-202.19"/>
<polygon fill="#63b8ff" stroke="#63b8ff" points="572.91,-203.36 572.71,-192.77 566.26,-201.17 572.91,-203.36"/>
</a>
</g>
</g>
<!-- Node22&#45;&gt;Node7 -->
<g id="edge31_Node000022_Node000007" class="edge">
<title>Node22&#45;&gt;Node7</title>
<g id="a_edge31_Node000022_Node000007"><a xlink:title=" ">
<path fill="none" stroke="#63b8ff" d="M541.89,-172.09C491.07,-160.89 400.54,-140.48 386.38,-134.25 345.13,-116.11 338.01,-105.07 302.38,-77.5 282.36,-62.02 260.83,-42.73 245.99,-28.99"/>
<polygon fill="#63b8ff" stroke="#63b8ff" points="248.49,-26.54 238.8,-22.27 243.71,-31.65 248.49,-26.54"/>
</a>
</g>
</g>
<!-- Node22&#45;&gt;Node8 -->
<g id="edge32_Node000022_Node000008" class="edge">
<title>Node22&#45;&gt;Node8</title>
<g id="a_edge32_Node000022_Node000008"><a xlink:title=" ">
<path fill="none" stroke="#63b8ff" d="M552.24,-169.84C530.93,-161.19 499.62,-148.5 475.71,-138.8"/>
<polygon fill="#63b8ff" stroke="#63b8ff" points="477.29,-135.66 466.7,-135.15 474.66,-142.15 477.29,-135.66"/>
</a>
</g>
</g>
<!-- Node22&#45;&gt;Node18 -->
<g id="edge33_Node000022_Node000018" class="edge">
<title>Node22&#45;&gt;Node18</title>
<g id="a_edge33_Node000022_Node000018"><a xlink:title=" ">
<path fill="none" stroke="#63b8ff" d="M579.41,-169.84C581.52,-163.06 584.39,-153.8 586.99,-145.44"/>
<polygon fill="#63b8ff" stroke="#63b8ff" points="590.29,-146.61 589.91,-136.02 583.61,-144.54 590.29,-146.61"/>
</a>
</g>
</g>
<!-- Node22&#45;&gt;Node19 -->
<g id="edge30_Node000022_Node000019" class="edge">
<title>Node22&#45;&gt;Node19</title>
<g id="a_edge30_Node000022_Node000019"><a xlink:title=" ">
<path fill="none" stroke="#63b8ff" d="M593.89,-169.84C609.49,-160.96 632.82,-147.3 652.38,-134.25 676.15,-118.38 702.29,-98.67 720.05,-84.92"/>
<polygon fill="#63b8ff" stroke="#63b8ff" points="722.06,-87.79 727.79,-78.88 717.76,-82.27 722.06,-87.79"/>
</a>
</g>
</g>
</g>
</svg>

<g id="navigator" transform="translate(0 0)" fill="#404254">
  <rect fill="#f2f5e9" fill-opacity="0.5" stroke="#606060" stroke-width=".5" x="0" y="0" width="60" height="60"/>
  <use id="zoomplus" xlink:href="#zoomPlus" x="17" y="9" onmousedown="handleZoom(evt,'in')"/>
  <use id="zoomminus" xlink:href="#zoomMin" x="42" y="9" onmousedown="handleZoom(evt,'out')"/>
  <use id="reset" xlink:href="#resetDef" x="30" y="36" onmousedown="handleReset()"/>
   <use id="arrowup" xlink:href="#arrowUp" x="0" y="0" onmousedown="handlePan(0,-1)"/>
  <use id="arrowright" xlink:href="#arrowRight" x="0" y="0" onmousedown="handlePan(1,0)"/>
  <use id="arrowdown" xlink:href="#arrowDown" x="0" y="0" onmousedown="handlePan(0,1)"/>
  <use id="arrowleft" xlink:href="#arrowLeft" x="0" y="0" onmousedown="handlePan(-1,0)"/>
</g>
<svg viewBox="0 0 15 15" width="100%" height="30px" preserveAspectRatio="xMaxYMin meet">
 <g id="arrow_out" transform="scale(0.3 0.3)">
  <a xlink:href="QtThreadedFunctor_8h__incl_org.svg" target="_base">
   <rect id="button" ry="5" rx="5" y="6" x="6" height="38" width="38"
        fill="#f2f5e9" fill-opacity="0.5" stroke="#606060" stroke-width="1.0"/>
   <path id="arrow"
     d="M 11.500037,31.436501 C 11.940474,20.09759 22.043105,11.32322 32.158766,21.979434 L 37.068811,17.246167 C 37.068811,17.246167 37.088388,32 37.088388,32 L 22.160133,31.978069 C 22.160133,31.978069 26.997745,27.140456 26.997745,27.140456 C 18.528582,18.264221 13.291696,25.230495 11.500037,31.436501 z"
     style="fill:#404040;"/>
  </a>
 </g>
</svg>

<style type='text/css'>
<![CDATA[
[data-mouse-over-selected='false'] { opacity: 0.7; }
[data-mouse-over-selected='true']  { opacity: 1.0; }
]]>
</style>
<script type="application/ecmascript"><![CDATA[
document.addEventListener('DOMContentLoaded', (event) => {
  highlightEdges();
  highlightAdjacentNodes();
});
]]></script>
</svg>
