<?xml version="1.0" encoding="UTF-8" standalone="no"?>
<!DOCTYPE svg PUBLIC "-//W3C//DTD SVG 1.1//EN"
 "http://www.w3.org/Graphics/SVG/1.1/DTD/svg11.dtd">
<!-- Generated by graphviz version 9.0.0 (0)
 -->
<!-- Title: /home/ahussein/Documents/archive/opensourcesourcetrail.github.io/.ignore/src/src/lib/data/parser/ReferenceKind.h Pages: 1 -->
<!--zoomable 637 -->

<svg id="main" version="1.1" xmlns="http://www.w3.org/2000/svg" xmlns:xlink="http://www.w3.org/1999/xlink" xml:space="preserve" onload="init(evt)">
<style type="text/css"><![CDATA[
.node, .edge {opacity: 0.7;}
.node.selected, .edge.selected {opacity: 1;}
.edge:hover path { stroke: red; }
.edge:hover polygon { stroke: red; fill: red; }
]]></style>

<defs>
  <circle id="rim" cx="0" cy="0" r="7"/>
  <circle id="rim2" cx="0" cy="0" r="3.5"/>
  <g id="zoomPlus">
    <use xlink:href="#rim" fill="#404040"><set attributeName="fill" to="#808080" begin="zoomplus.mouseover" end="zoomplus.mouseout"/></use>
    <path d="M-4,0h8M0,-4v8" fill="none" stroke="white" stroke-width="1.5" pointer-events="none"/>
  </g>
  <g id="zoomMin">
    <use xlink:href="#rim" fill="#404040"><set attributeName="fill" to="#808080" begin="zoomminus.mouseover" end="zoomminus.mouseout"/></use>
    <path d="M-4,0h8" fill="none" stroke="white" stroke-width="1.5" pointer-events="none"/>
  </g>
  <g id="arrowUp" transform="translate(30 24)">
    <use xlink:href="#rim"/>
    <path pointer-events="none" fill="none" stroke="white" stroke-width="1.5" d="M0,-3.0v7 M-2.5,-0.5L0,-3.0L2.5,-0.5"/>
  </g>
  <g id="arrowRight" transform="rotate(90) translate(36 -43)">
    <use xlink:href="#rim"/>
    <path pointer-events="none" fill="none" stroke="white" stroke-width="1.5" d="M0,-3.0v7 M-2.5,-0.5L0,-3.0L2.5,-0.5"/>
  </g>
  <g id="arrowDown" transform="rotate(180) translate(-30 -48)">
    <use xlink:href="#rim"/>
    <path pointer-events="none" fill="none" stroke="white" stroke-width="1.5" d="M0,-3.0v7 M-2.5,-0.5L0,-3.0L2.5,-0.5"/>
  </g>
  <g id="arrowLeft" transform="rotate(270) translate(-36 17)">
    <use xlink:href="#rim"/>
    <path pointer-events="none" fill="none" stroke="white" stroke-width="1.5" d="M0,-3.0v7 M-2.5,-0.5L0,-3.0L2.5,-0.5"/>
  </g>
  <g id="resetDef">
    <use xlink:href="#rim2" fill="#404040"><set attributeName="fill" to="#808080" begin="reset.mouseover" end="reset.mouseout"/></use>
  </g>
</defs>
<script type="application/ecmascript">
var viewWidth = 2749;
var viewHeight = 637;
var sectionId = 'dynsection-0';
</script>
<script type="application/ecmascript" xlink:href="svg.min.js"/>
<svg id="graph" class="graph">
<g id="viewport">
<title>/home/ahussein/Documents/archive/opensourcesourcetrail.github.io/.ignore/src/src/lib/data/parser/ReferenceKind.h</title>
<!-- Node1 -->
<g id="Node000001" class="node">
<title>Node1</title>
<g id="a_Node000001"><a xlink:title=" ">
<polygon fill="#999999" stroke="#666666" points="1970.75,-629 1759,-629 1759,-570 1970.75,-570 1970.75,-629"/>
<text text-anchor="start" x="1767" y="-615.5" font-family="Helvetica,sans-Serif" font-size="10.00">/home/ahussein/Documents</text>
<text text-anchor="start" x="1767" y="-602.75" font-family="Helvetica,sans-Serif" font-size="10.00">/archive/opensourcesourcetrail.github.io</text>
<text text-anchor="start" x="1767" y="-590" font-family="Helvetica,sans-Serif" font-size="10.00">/.ignore/src/src/lib/data/parser</text>
<text text-anchor="middle" x="1864.88" y="-577.25" font-family="Helvetica,sans-Serif" font-size="10.00">/ReferenceKind.h</text>
</a>
</g>
</g>
<!-- Node2 -->
<g id="Node000002" class="node">
<title>Node2</title>
<g id="a_Node000002"><a xlink:href="ParserClient_8h.html" target="_top" xlink:title=" ">
<polygon fill="white" stroke="#666666" points="1418.75,-439 1207,-439 1207,-380 1418.75,-380 1418.75,-439"/>
<text text-anchor="start" x="1215" y="-425.5" font-family="Helvetica,sans-Serif" font-size="10.00">/home/ahussein/Documents</text>
<text text-anchor="start" x="1215" y="-412.75" font-family="Helvetica,sans-Serif" font-size="10.00">/archive/opensourcesourcetrail.github.io</text>
<text text-anchor="start" x="1215" y="-400" font-family="Helvetica,sans-Serif" font-size="10.00">/.ignore/src/src/lib/data/parser</text>
<text text-anchor="middle" x="1312.88" y="-387.25" font-family="Helvetica,sans-Serif" font-size="10.00">/ParserClient.h</text>
</a>
</g>
</g>
<!-- Node1&#45;&gt;Node2 -->
<g id="edge1_Node000001_Node000002" class="edge">
<title>Node1&#45;&gt;Node2</title>
<g id="a_edge1_Node000001_Node000002"><a xlink:title=" ">
<path fill="none" stroke="#63b8ff" d="M1747.53,-588.35C1677.11,-579.53 1586.78,-563.35 1510.88,-534 1450.23,-510.55 1387.8,-467.96 1349.66,-439.45"/>
<polygon fill="#63b8ff" stroke="#63b8ff" points="1746.8,-591.79 1757.15,-589.52 1747.64,-584.84 1746.8,-591.79"/>
</a>
</g>
</g>
<!-- Node19 -->
<g id="Node000019" class="node">
<title>Node19</title>
<g id="a_Node000019"><a xlink:href="ReferenceKind_8cpp.html" target="_top" xlink:title=" ">
<polygon fill="white" stroke="#666666" points="1731.75,-534 1520,-534 1520,-475 1731.75,-475 1731.75,-534"/>
<text text-anchor="start" x="1528" y="-520.5" font-family="Helvetica,sans-Serif" font-size="10.00">/home/ahussein/Documents</text>
<text text-anchor="start" x="1528" y="-507.75" font-family="Helvetica,sans-Serif" font-size="10.00">/archive/opensourcesourcetrail.github.io</text>
<text text-anchor="start" x="1528" y="-495" font-family="Helvetica,sans-Serif" font-size="10.00">/.ignore/src/src/lib/data/parser</text>
<text text-anchor="middle" x="1625.88" y="-482.25" font-family="Helvetica,sans-Serif" font-size="10.00">/ReferenceKind.cpp</text>
</a>
</g>
</g>
<!-- Node1&#45;&gt;Node19 -->
<g id="edge18_Node000001_Node000019" class="edge">
<title>Node1&#45;&gt;Node19</title>
<g id="a_edge18_Node000001_Node000019"><a xlink:title=" ">
<path fill="none" stroke="#63b8ff" d="M1779.94,-565.45C1753.89,-555.31 1725.43,-544.24 1700.14,-534.4"/>
<polygon fill="#63b8ff" stroke="#63b8ff" points="1778.56,-568.67 1789.15,-569.04 1781.1,-562.15 1778.56,-568.67"/>
</a>
</g>
</g>
<!-- Node20 -->
<g id="Node000020" class="node">
<title>Node20</title>
<g id="a_Node000020"><a xlink:href="CxxAstVisitorComponentDeclRefKind_8h.html" target="_top" xlink:title=" ">
<polygon fill="white" stroke="#666666" points="1980.12,-534 1749.62,-534 1749.62,-475 1980.12,-475 1980.12,-534"/>
<text text-anchor="start" x="1757.62" y="-520.5" font-family="Helvetica,sans-Serif" font-size="10.00">/home/ahussein/Documents</text>
<text text-anchor="start" x="1757.62" y="-507.75" font-family="Helvetica,sans-Serif" font-size="10.00">/archive/opensourcesourcetrail.github.io</text>
<text text-anchor="start" x="1757.62" y="-495" font-family="Helvetica,sans-Serif" font-size="10.00">/.ignore/src/src/lib_cxx/data/parser</text>
<text text-anchor="middle" x="1864.88" y="-482.25" font-family="Helvetica,sans-Serif" font-size="10.00">/cxx/CxxAstVisitorComponentDeclRefKind.h</text>
</a>
</g>
</g>
<!-- Node1&#45;&gt;Node20 -->
<g id="edge19_Node000001_Node000020" class="edge">
<title>Node1&#45;&gt;Node20</title>
<g id="a_edge19_Node000001_Node000020"><a xlink:title=" ">
<path fill="none" stroke="#63b8ff" d="M1864.88,-558.16C1864.88,-550.16 1864.88,-541.92 1864.88,-534.4"/>
<polygon fill="#63b8ff" stroke="#63b8ff" points="1861.38,-558.07 1864.88,-568.07 1868.38,-558.07 1861.38,-558.07"/>
</a>
</g>
</g>
<!-- Node26 -->
<g id="Node000026" class="node">
<title>Node26</title>
<g id="a_Node000026"><a xlink:href="CxxAstVisitorComponentIndexer_8h.html" target="_top" xlink:title=" ">
<polygon fill="white" stroke="#666666" points="2209.75,-534 1998,-534 1998,-475 2209.75,-475 2209.75,-534"/>
<text text-anchor="start" x="2006" y="-520.5" font-family="Helvetica,sans-Serif" font-size="10.00">/home/ahussein/Documents</text>
<text text-anchor="start" x="2006" y="-507.75" font-family="Helvetica,sans-Serif" font-size="10.00">/archive/opensourcesourcetrail.github.io</text>
<text text-anchor="start" x="2006" y="-495" font-family="Helvetica,sans-Serif" font-size="10.00">/.ignore/src/src/lib_cxx/data/parser</text>
<text text-anchor="middle" x="2103.88" y="-482.25" font-family="Helvetica,sans-Serif" font-size="10.00">/cxx/CxxAstVisitorComponentIndexer.h</text>
</a>
</g>
</g>
<!-- Node1&#45;&gt;Node26 -->
<g id="edge31_Node000001_Node000026" class="edge">
<title>Node1&#45;&gt;Node26</title>
<g id="a_edge31_Node000001_Node000026"><a xlink:title=" ">
<path fill="none" stroke="#63b8ff" d="M1949.81,-565.45C1975.86,-555.31 2004.32,-544.24 2029.61,-534.4"/>
<polygon fill="#63b8ff" stroke="#63b8ff" points="1948.65,-562.15 1940.6,-569.04 1951.19,-568.67 1948.65,-562.15"/>
</a>
</g>
</g>
<!-- Node27 -->
<g id="Node000027" class="node">
<title>Node27</title>
<g id="a_Node000027"><a xlink:href="CxxAstVisitorComponentTypeRefKind_8h.html" target="_top" xlink:title=" ">
<polygon fill="white" stroke="#666666" points="2459.5,-534 2228.25,-534 2228.25,-475 2459.5,-475 2459.5,-534"/>
<text text-anchor="start" x="2236.25" y="-520.5" font-family="Helvetica,sans-Serif" font-size="10.00">/home/ahussein/Documents</text>
<text text-anchor="start" x="2236.25" y="-507.75" font-family="Helvetica,sans-Serif" font-size="10.00">/archive/opensourcesourcetrail.github.io</text>
<text text-anchor="start" x="2236.25" y="-495" font-family="Helvetica,sans-Serif" font-size="10.00">/.ignore/src/src/lib_cxx/data/parser</text>
<text text-anchor="middle" x="2343.88" y="-482.25" font-family="Helvetica,sans-Serif" font-size="10.00">/cxx/CxxAstVisitorComponentTypeRefKind.h</text>
</a>
</g>
</g>
<!-- Node1&#45;&gt;Node27 -->
<g id="edge34_Node000001_Node000027" class="edge">
<title>Node1&#45;&gt;Node27</title>
<g id="a_edge34_Node000001_Node000027"><a xlink:title=" ">
<path fill="none" stroke="#63b8ff" d="M1982.55,-578.39C2051.55,-566.27 2140.33,-550.1 2218.88,-534 2221.82,-533.4 2224.8,-532.78 2227.81,-532.15"/>
<polygon fill="#63b8ff" stroke="#63b8ff" points="1981.96,-574.95 1972.71,-580.12 1983.16,-581.84 1981.96,-574.95"/>
</a>
</g>
</g>
<!-- Node3 -->
<g id="Node000003" class="node">
<title>Node3</title>
<g id="a_Node000003"><a xlink:href="ParserClientImpl_8h.html" target="_top" xlink:title=" ">
<polygon fill="white" stroke="#666666" points="557.75,-344 346,-344 346,-285 557.75,-285 557.75,-344"/>
<text text-anchor="start" x="354" y="-330.5" font-family="Helvetica,sans-Serif" font-size="10.00">/home/ahussein/Documents</text>
<text text-anchor="start" x="354" y="-317.75" font-family="Helvetica,sans-Serif" font-size="10.00">/archive/opensourcesourcetrail.github.io</text>
<text text-anchor="start" x="354" y="-305" font-family="Helvetica,sans-Serif" font-size="10.00">/.ignore/src/src/lib/data/parser</text>
<text text-anchor="middle" x="451.88" y="-292.25" font-family="Helvetica,sans-Serif" font-size="10.00">/ParserClientImpl.h</text>
</a>
</g>
</g>
<!-- Node2&#45;&gt;Node3 -->
<g id="edge2_Node000002_Node000003" class="edge">
<title>Node2&#45;&gt;Node3</title>
<g id="a_edge2_Node000002_Node000003"><a xlink:title=" ">
<path fill="none" stroke="#63b8ff" d="M1195.29,-404.03C1047.7,-397.12 787.16,-380.59 566.88,-344 563.93,-343.51 560.95,-342.99 557.95,-342.43"/>
<polygon fill="#63b8ff" stroke="#63b8ff" points="1194.93,-407.52 1205.08,-404.48 1195.26,-400.52 1194.93,-407.52"/>
</a>
</g>
</g>
<!-- Node11 -->
<g id="Node000011" class="node">
<title>Node11</title>
<g id="a_Node000011"><a xlink:href="CommentHandler_8cpp.html" target="_top" xlink:title=" ">
<polygon fill="white" stroke="#666666" points="787.75,-344 576,-344 576,-285 787.75,-285 787.75,-344"/>
<text text-anchor="start" x="584" y="-330.5" font-family="Helvetica,sans-Serif" font-size="10.00">/home/ahussein/Documents</text>
<text text-anchor="start" x="584" y="-317.75" font-family="Helvetica,sans-Serif" font-size="10.00">/archive/opensourcesourcetrail.github.io</text>
<text text-anchor="start" x="584" y="-305" font-family="Helvetica,sans-Serif" font-size="10.00">/.ignore/src/src/lib_cxx/data/parser</text>
<text text-anchor="middle" x="681.88" y="-292.25" font-family="Helvetica,sans-Serif" font-size="10.00">/cxx/CommentHandler.cpp</text>
</a>
</g>
</g>
<!-- Node2&#45;&gt;Node11 -->
<g id="edge10_Node000002_Node000011" class="edge">
<title>Node2&#45;&gt;Node11</title>
<g id="a_edge10_Node000002_Node000011"><a xlink:title=" ">
<path fill="none" stroke="#63b8ff" d="M1195.3,-397.81C1090.32,-387.32 932.62,-369.21 796.88,-344 793.94,-343.46 790.97,-342.88 787.98,-342.28"/>
<polygon fill="#63b8ff" stroke="#63b8ff" points="1194.76,-401.28 1205.06,-398.78 1195.45,-394.31 1194.76,-401.28"/>
</a>
</g>
</g>
<!-- Node12 -->
<g id="Node000012" class="node">
<title>Node12</title>
<g id="a_Node000012"><a xlink:href="CxxAstVisitor_8cpp.html" target="_top" xlink:title=" ">
<polygon fill="white" stroke="#666666" points="2015.75,-344 1804,-344 1804,-285 2015.75,-285 2015.75,-344"/>
<text text-anchor="start" x="1812" y="-330.5" font-family="Helvetica,sans-Serif" font-size="10.00">/home/ahussein/Documents</text>
<text text-anchor="start" x="1812" y="-317.75" font-family="Helvetica,sans-Serif" font-size="10.00">/archive/opensourcesourcetrail.github.io</text>
<text text-anchor="start" x="1812" y="-305" font-family="Helvetica,sans-Serif" font-size="10.00">/.ignore/src/src/lib_cxx/data/parser</text>
<text text-anchor="middle" x="1909.88" y="-292.25" font-family="Helvetica,sans-Serif" font-size="10.00">/cxx/CxxAstVisitor.cpp</text>
</a>
</g>
</g>
<!-- Node2&#45;&gt;Node12 -->
<g id="edge11_Node000002_Node000012" class="edge">
<title>Node2&#45;&gt;Node12</title>
<g id="a_edge11_Node000002_Node000012"><a xlink:title=" ">
<path fill="none" stroke="#63b8ff" d="M1430.4,-396.54C1528.57,-385.66 1671.98,-367.68 1795.88,-344 1798.48,-343.5 1801.11,-342.98 1803.77,-342.44"/>
<polygon fill="#63b8ff" stroke="#63b8ff" points="1430.01,-393.06 1420.46,-397.63 1430.78,-400.02 1430.01,-393.06"/>
</a>
</g>
</g>
<!-- Node13 -->
<g id="Node000013" class="node">
<title>Node13</title>
<g id="a_Node000013"><a xlink:href="CxxAstVisitorComponentBraceRecorder_8cpp.html" target="_top" xlink:title=" ">
<polygon fill="white" stroke="#666666" points="1786.38,-344 1533.38,-344 1533.38,-285 1786.38,-285 1786.38,-344"/>
<text text-anchor="start" x="1541.38" y="-330.5" font-family="Helvetica,sans-Serif" font-size="10.00">/home/ahussein/Documents</text>
<text text-anchor="start" x="1541.38" y="-317.75" font-family="Helvetica,sans-Serif" font-size="10.00">/archive/opensourcesourcetrail.github.io</text>
<text text-anchor="start" x="1541.38" y="-305" font-family="Helvetica,sans-Serif" font-size="10.00">/.ignore/src/src/lib_cxx/data/parser</text>
<text text-anchor="middle" x="1659.88" y="-292.25" font-family="Helvetica,sans-Serif" font-size="10.00">/cxx/CxxAstVisitorComponentBraceRecorder.cpp</text>
</a>
</g>
</g>
<!-- Node2&#45;&gt;Node13 -->
<g id="edge12_Node000002_Node000013" class="edge">
<title>Node2&#45;&gt;Node13</title>
<g id="a_edge12_Node000002_Node000013"><a xlink:title=" ">
<path fill="none" stroke="#63b8ff" d="M1429.87,-377.14C1469.31,-366.57 1513.12,-354.83 1551.83,-344.46"/>
<polygon fill="#63b8ff" stroke="#63b8ff" points="1429.09,-373.73 1420.33,-379.7 1430.9,-380.49 1429.09,-373.73"/>
</a>
</g>
</g>
<!-- Node14 -->
<g id="Node000014" class="node">
<title>Node14</title>
<g id="a_Node000014"><a xlink:href="CxxAstVisitorComponentIndexer_8cpp.html" target="_top" xlink:title=" ">
<polygon fill="white" stroke="#666666" points="2252.12,-344 2033.62,-344 2033.62,-285 2252.12,-285 2252.12,-344"/>
<text text-anchor="start" x="2041.62" y="-330.5" font-family="Helvetica,sans-Serif" font-size="10.00">/home/ahussein/Documents</text>
<text text-anchor="start" x="2041.62" y="-317.75" font-family="Helvetica,sans-Serif" font-size="10.00">/archive/opensourcesourcetrail.github.io</text>
<text text-anchor="start" x="2041.62" y="-305" font-family="Helvetica,sans-Serif" font-size="10.00">/.ignore/src/src/lib_cxx/data/parser</text>
<text text-anchor="middle" x="2142.88" y="-292.25" font-family="Helvetica,sans-Serif" font-size="10.00">/cxx/CxxAstVisitorComponentIndexer.cpp</text>
</a>
</g>
</g>
<!-- Node2&#45;&gt;Node14 -->
<g id="edge13_Node000002_Node000014" class="edge">
<title>Node2&#45;&gt;Node14</title>
<g id="a_edge13_Node000002_Node000014"><a xlink:title=" ">
<path fill="none" stroke="#63b8ff" d="M1430.32,-403.15C1572.02,-395.47 1817.12,-378.31 2024.88,-344 2027.68,-343.54 2030.52,-343.04 2033.38,-342.52"/>
<polygon fill="#63b8ff" stroke="#63b8ff" points="1430.35,-399.64 1420.55,-403.67 1430.73,-406.63 1430.35,-399.64"/>
</a>
</g>
</g>
<!-- Node15 -->
<g id="Node000015" class="node">
<title>Node15</title>
<g id="a_Node000015"><a xlink:href="CxxDiagnosticConsumer_8cpp.html" target="_top" xlink:title=" ">
<polygon fill="white" stroke="#666666" points="1017.75,-344 806,-344 806,-285 1017.75,-285 1017.75,-344"/>
<text text-anchor="start" x="814" y="-330.5" font-family="Helvetica,sans-Serif" font-size="10.00">/home/ahussein/Documents</text>
<text text-anchor="start" x="814" y="-317.75" font-family="Helvetica,sans-Serif" font-size="10.00">/archive/opensourcesourcetrail.github.io</text>
<text text-anchor="start" x="814" y="-305" font-family="Helvetica,sans-Serif" font-size="10.00">/.ignore/src/src/lib_cxx/data/parser</text>
<text text-anchor="middle" x="911.88" y="-292.25" font-family="Helvetica,sans-Serif" font-size="10.00">/cxx/CxxDiagnosticConsumer.cpp</text>
</a>
</g>
</g>
<!-- Node2&#45;&gt;Node15 -->
<g id="edge14_Node000002_Node000015" class="edge">
<title>Node2&#45;&gt;Node15</title>
<g id="a_edge14_Node000002_Node000015"><a xlink:title=" ">
<path fill="none" stroke="#63b8ff" d="M1195.58,-382.63C1143.8,-371.06 1082.25,-357.1 1026.88,-344 1023.97,-343.31 1021.03,-342.61 1018.06,-341.9"/>
<polygon fill="#63b8ff" stroke="#63b8ff" points="1194.81,-386.05 1205.33,-384.81 1196.34,-379.22 1194.81,-386.05"/>
</a>
</g>
</g>
<!-- Node16 -->
<g id="Node000016" class="node">
<title>Node16</title>
<g id="a_Node000016"><a xlink:href="CxxParser_8cpp.html" target="_top" xlink:title=" ">
<polygon fill="white" stroke="#666666" points="1247.75,-344 1036,-344 1036,-285 1247.75,-285 1247.75,-344"/>
<text text-anchor="start" x="1044" y="-330.5" font-family="Helvetica,sans-Serif" font-size="10.00">/home/ahussein/Documents</text>
<text text-anchor="start" x="1044" y="-317.75" font-family="Helvetica,sans-Serif" font-size="10.00">/archive/opensourcesourcetrail.github.io</text>
<text text-anchor="start" x="1044" y="-305" font-family="Helvetica,sans-Serif" font-size="10.00">/.ignore/src/src/lib_cxx/data/parser</text>
<text text-anchor="middle" x="1141.88" y="-292.25" font-family="Helvetica,sans-Serif" font-size="10.00">/cxx/CxxParser.cpp</text>
</a>
</g>
</g>
<!-- Node2&#45;&gt;Node16 -->
<g id="edge15_Node000002_Node000016" class="edge">
<title>Node2&#45;&gt;Node16</title>
<g id="a_edge15_Node000002_Node000016"><a xlink:title=" ">
<path fill="none" stroke="#63b8ff" d="M1249.61,-374.09C1231.66,-364.33 1212.3,-353.8 1195.01,-344.4"/>
<polygon fill="#63b8ff" stroke="#63b8ff" points="1247.92,-377.16 1258.38,-378.86 1251.26,-371.01 1247.92,-377.16"/>
</a>
</g>
</g>
<!-- Node17 -->
<g id="Node000017" class="node">
<title>Node17</title>
<g id="a_Node000017"><a xlink:href="CxxVerboseAstVisitor_8cpp.html" target="_top" xlink:title=" ">
<polygon fill="white" stroke="#666666" points="2002.75,-249 1791,-249 1791,-190 2002.75,-190 2002.75,-249"/>
<text text-anchor="start" x="1799" y="-235.5" font-family="Helvetica,sans-Serif" font-size="10.00">/home/ahussein/Documents</text>
<text text-anchor="start" x="1799" y="-222.75" font-family="Helvetica,sans-Serif" font-size="10.00">/archive/opensourcesourcetrail.github.io</text>
<text text-anchor="start" x="1799" y="-210" font-family="Helvetica,sans-Serif" font-size="10.00">/.ignore/src/src/lib_cxx/data/parser</text>
<text text-anchor="middle" x="1896.88" y="-197.25" font-family="Helvetica,sans-Serif" font-size="10.00">/cxx/CxxVerboseAstVisitor.cpp</text>
</a>
</g>
</g>
<!-- Node2&#45;&gt;Node17 -->
<g id="edge16_Node000002_Node000017" class="edge">
<title>Node2&#45;&gt;Node17</title>
<g id="a_edge16_Node000002_Node000017"><a xlink:title=" ">
<path fill="none" stroke="#63b8ff" d="M1292.63,-369.26C1281.88,-342.35 1274.61,-307.55 1294.88,-285 1327.35,-248.86 1626.88,-231.28 1790.81,-224.3"/>
<polygon fill="#63b8ff" stroke="#63b8ff" points="1289.28,-370.33 1296.44,-378.13 1295.71,-367.56 1289.28,-370.33"/>
</a>
</g>
</g>
<!-- Node18 -->
<g id="Node000018" class="node">
<title>Node18</title>
<g id="a_Node000018"><a xlink:href="PreprocessorCallbacks_8cpp.html" target="_top" xlink:title=" ">
<polygon fill="white" stroke="#666666" points="1515.75,-344 1304,-344 1304,-285 1515.75,-285 1515.75,-344"/>
<text text-anchor="start" x="1312" y="-330.5" font-family="Helvetica,sans-Serif" font-size="10.00">/home/ahussein/Documents</text>
<text text-anchor="start" x="1312" y="-317.75" font-family="Helvetica,sans-Serif" font-size="10.00">/archive/opensourcesourcetrail.github.io</text>
<text text-anchor="start" x="1312" y="-305" font-family="Helvetica,sans-Serif" font-size="10.00">/.ignore/src/src/lib_cxx/data/parser</text>
<text text-anchor="middle" x="1409.88" y="-292.25" font-family="Helvetica,sans-Serif" font-size="10.00">/cxx/PreprocessorCallbacks.cpp</text>
</a>
</g>
</g>
<!-- Node2&#45;&gt;Node18 -->
<g id="edge17_Node000002_Node000018" class="edge">
<title>Node2&#45;&gt;Node18</title>
<g id="a_edge17_Node000002_Node000018"><a xlink:title=" ">
<path fill="none" stroke="#63b8ff" d="M1351.19,-371.76C1360.67,-362.67 1370.7,-353.06 1379.73,-344.4"/>
<polygon fill="#63b8ff" stroke="#63b8ff" points="1348.92,-369.09 1344.13,-378.54 1353.77,-374.14 1348.92,-369.09"/>
</a>
</g>
</g>
<!-- Node4 -->
<g id="Node000004" class="node">
<title>Node4</title>
<g id="a_Node000004"><a xlink:href="Indexer_8h.html" target="_top" xlink:title=" ">
<polygon fill="white" stroke="#666666" points="675.62,-242.62 460.12,-242.62 460.12,-196.38 675.62,-196.38 675.62,-242.62"/>
<text text-anchor="start" x="468.12" y="-229.12" font-family="Helvetica,sans-Serif" font-size="10.00">/home/ahussein/Documents</text>
<text text-anchor="start" x="468.12" y="-216.38" font-family="Helvetica,sans-Serif" font-size="10.00">/archive/opensourcesourcetrail.github.io</text>
<text text-anchor="middle" x="567.88" y="-203.62" font-family="Helvetica,sans-Serif" font-size="10.00">/.ignore/src/src/lib/data/indexer/Indexer.h</text>
</a>
</g>
</g>
<!-- Node3&#45;&gt;Node4 -->
<g id="edge3_Node000003_Node000004" class="edge">
<title>Node3&#45;&gt;Node4</title>
<g id="a_edge3_Node000003_Node000004"><a xlink:title=" ">
<path fill="none" stroke="#63b8ff" d="M496.8,-277.48C511.33,-265.83 527.01,-253.26 539.94,-242.9"/>
<polygon fill="#63b8ff" stroke="#63b8ff" points="494.74,-274.65 489.12,-283.64 499.11,-280.11 494.74,-274.65"/>
</a>
</g>
</g>
<!-- Node8 -->
<g id="Node000008" class="node">
<title>Node8</title>
<g id="a_Node000008"><a xlink:href="TaskBuildIndex_8cpp.html" target="_top" xlink:title=" ">
<polygon fill="white" stroke="#666666" points="905.75,-249 694,-249 694,-190 905.75,-190 905.75,-249"/>
<text text-anchor="start" x="702" y="-235.5" font-family="Helvetica,sans-Serif" font-size="10.00">/home/ahussein/Documents</text>
<text text-anchor="start" x="702" y="-222.75" font-family="Helvetica,sans-Serif" font-size="10.00">/archive/opensourcesourcetrail.github.io</text>
<text text-anchor="start" x="702" y="-210" font-family="Helvetica,sans-Serif" font-size="10.00">/.ignore/src/src/lib/data/indexer</text>
<text text-anchor="middle" x="799.88" y="-197.25" font-family="Helvetica,sans-Serif" font-size="10.00">/TaskBuildIndex.cpp</text>
</a>
</g>
</g>
<!-- Node3&#45;&gt;Node8 -->
<g id="edge7_Node000003_Node000008" class="edge">
<title>Node3&#45;&gt;Node8</title>
<g id="a_edge7_Node000003_Node000008"><a xlink:title=" ">
<path fill="none" stroke="#63b8ff" d="M569.14,-282.16C609.42,-271.4 654.26,-259.41 693.62,-248.89"/>
<polygon fill="#63b8ff" stroke="#63b8ff" points="568.4,-278.74 559.64,-284.7 570.2,-285.5 568.4,-278.74"/>
</a>
</g>
</g>
<!-- Node9 -->
<g id="Node000009" class="node">
<title>Node9</title>
<g id="a_Node000009"><a xlink:href="ParserClientImpl_8cpp.html" target="_top" xlink:title=" ">
<polygon fill="white" stroke="#666666" points="211.75,-249 0,-249 0,-190 211.75,-190 211.75,-249"/>
<text text-anchor="start" x="8" y="-235.5" font-family="Helvetica,sans-Serif" font-size="10.00">/home/ahussein/Documents</text>
<text text-anchor="start" x="8" y="-222.75" font-family="Helvetica,sans-Serif" font-size="10.00">/archive/opensourcesourcetrail.github.io</text>
<text text-anchor="start" x="8" y="-210" font-family="Helvetica,sans-Serif" font-size="10.00">/.ignore/src/src/lib/data/parser</text>
<text text-anchor="middle" x="105.88" y="-197.25" font-family="Helvetica,sans-Serif" font-size="10.00">/ParserClientImpl.cpp</text>
</a>
</g>
</g>
<!-- Node3&#45;&gt;Node9 -->
<g id="edge8_Node000003_Node000009" class="edge">
<title>Node3&#45;&gt;Node9</title>
<g id="a_edge8_Node000003_Node000009"><a xlink:title=" ">
<path fill="none" stroke="#63b8ff" d="M334.65,-281.99C294.97,-271.33 250.91,-259.48 212.13,-249.06"/>
<polygon fill="#63b8ff" stroke="#63b8ff" points="333.68,-285.36 344.25,-284.57 335.5,-278.6 333.68,-285.36"/>
</a>
</g>
</g>
<!-- Node10 -->
<g id="Node000010" class="node">
<title>Node10</title>
<g id="a_Node000010"><a xlink:href="utilitySourceGroupCxx_8cpp.html" target="_top" xlink:title=" ">
<polygon fill="white" stroke="#666666" points="441.75,-249 230,-249 230,-190 441.75,-190 441.75,-249"/>
<text text-anchor="start" x="238" y="-235.5" font-family="Helvetica,sans-Serif" font-size="10.00">/home/ahussein/Documents</text>
<text text-anchor="start" x="238" y="-222.75" font-family="Helvetica,sans-Serif" font-size="10.00">/archive/opensourcesourcetrail.github.io</text>
<text text-anchor="start" x="238" y="-210" font-family="Helvetica,sans-Serif" font-size="10.00">/.ignore/src/src/lib_cxx/project</text>
<text text-anchor="middle" x="335.88" y="-197.25" font-family="Helvetica,sans-Serif" font-size="10.00">/utilitySourceGroupCxx.cpp</text>
</a>
</g>
</g>
<!-- Node3&#45;&gt;Node10 -->
<g id="edge9_Node000003_Node000010" class="edge">
<title>Node3&#45;&gt;Node10</title>
<g id="a_edge9_Node000003_Node000010"><a xlink:title=" ">
<path fill="none" stroke="#63b8ff" d="M407.08,-277.59C395.44,-268.26 383.05,-258.32 371.92,-249.4"/>
<polygon fill="#63b8ff" stroke="#63b8ff" points="404.64,-280.11 414.63,-283.64 409.01,-274.65 404.64,-280.11"/>
</a>
</g>
</g>
<!-- Node5 -->
<g id="Node000005" class="node">
<title>Node5</title>
<g id="a_Node000005"><a xlink:href="IndexerCxx_8h.html" target="_top" xlink:title=" ">
<polygon fill="white" stroke="#666666" points="673.75,-154 462,-154 462,-95 673.75,-95 673.75,-154"/>
<text text-anchor="start" x="470" y="-140.5" font-family="Helvetica,sans-Serif" font-size="10.00">/home/ahussein/Documents</text>
<text text-anchor="start" x="470" y="-127.75" font-family="Helvetica,sans-Serif" font-size="10.00">/archive/opensourcesourcetrail.github.io</text>
<text text-anchor="start" x="470" y="-115" font-family="Helvetica,sans-Serif" font-size="10.00">/.ignore/src/src/lib_cxx/data/indexer</text>
<text text-anchor="middle" x="567.88" y="-102.25" font-family="Helvetica,sans-Serif" font-size="10.00">/IndexerCxx.h</text>
</a>
</g>
</g>
<!-- Node4&#45;&gt;Node5 -->
<g id="edge4_Node000004_Node000005" class="edge">
<title>Node4&#45;&gt;Node5</title>
<g id="a_edge4_Node000004_Node000005"><a xlink:title=" ">
<path fill="none" stroke="#63b8ff" d="M567.88,-184.51C567.88,-174.66 567.88,-164.01 567.88,-154.5"/>
<polygon fill="#63b8ff" stroke="#63b8ff" points="564.38,-184.47 567.88,-194.47 571.38,-184.47 564.38,-184.47"/>
</a>
</g>
</g>
<!-- Node6 -->
<g id="Node000006" class="node">
<title>Node6</title>
<g id="a_Node000006"><a xlink:href="LanguagePackageCxx_8cpp.html" target="_top" xlink:title=" ">
<polygon fill="white" stroke="#666666" points="569.5,-52.62 314.25,-52.62 314.25,-6.38 569.5,-6.38 569.5,-52.62"/>
<text text-anchor="start" x="322.25" y="-39.12" font-family="Helvetica,sans-Serif" font-size="10.00">/home/ahussein/Documents</text>
<text text-anchor="start" x="322.25" y="-26.38" font-family="Helvetica,sans-Serif" font-size="10.00">/archive/opensourcesourcetrail.github.io</text>
<text text-anchor="middle" x="441.88" y="-13.62" font-family="Helvetica,sans-Serif" font-size="10.00">/.ignore/src/src/lib_cxx/LanguagePackageCxx.cpp</text>
</a>
</g>
</g>
<!-- Node5&#45;&gt;Node6 -->
<g id="edge5_Node000005_Node000006" class="edge">
<title>Node5&#45;&gt;Node6</title>
<g id="a_edge5_Node000005_Node000006"><a xlink:title=" ">
<path fill="none" stroke="#63b8ff" d="M519.52,-87.81C503.62,-76.07 486.39,-63.36 472.22,-52.9"/>
<polygon fill="#63b8ff" stroke="#63b8ff" points="517.36,-90.56 527.48,-93.69 521.51,-84.93 517.36,-90.56"/>
</a>
</g>
</g>
<!-- Node7 -->
<g id="Node000007" class="node">
<title>Node7</title>
<g id="a_Node000007"><a xlink:href="IndexerCxx_8cpp.html" target="_top" xlink:title=" ">
<polygon fill="white" stroke="#666666" points="799.75,-59 588,-59 588,0 799.75,0 799.75,-59"/>
<text text-anchor="start" x="596" y="-45.5" font-family="Helvetica,sans-Serif" font-size="10.00">/home/ahussein/Documents</text>
<text text-anchor="start" x="596" y="-32.75" font-family="Helvetica,sans-Serif" font-size="10.00">/archive/opensourcesourcetrail.github.io</text>
<text text-anchor="start" x="596" y="-20" font-family="Helvetica,sans-Serif" font-size="10.00">/.ignore/src/src/lib_cxx/data/indexer</text>
<text text-anchor="middle" x="693.88" y="-7.25" font-family="Helvetica,sans-Serif" font-size="10.00">/IndexerCxx.cpp</text>
</a>
</g>
</g>
<!-- Node5&#45;&gt;Node7 -->
<g id="edge6_Node000005_Node000007" class="edge">
<title>Node5&#45;&gt;Node7</title>
<g id="a_edge6_Node000005_Node000007"><a xlink:title=" ">
<path fill="none" stroke="#63b8ff" d="M616.16,-87.86C628.91,-78.45 642.52,-68.41 654.72,-59.4"/>
<polygon fill="#63b8ff" stroke="#63b8ff" points="614.24,-84.93 608.27,-93.69 618.39,-90.56 614.24,-84.93"/>
</a>
</g>
</g>
<!-- Node20&#45;&gt;Node14 -->
<g id="edge30_Node000020_Node000014" class="edge">
<title>Node20&#45;&gt;Node14</title>
<g id="a_edge30_Node000020_Node000014"><a xlink:title=" ">
<path fill="none" stroke="#63b8ff" d="M1815.87,-466.77C1808.14,-458.55 1801.26,-449.2 1796.88,-439 1786.52,-414.91 1779.84,-399.94 1796.88,-380 1830.2,-341 1974.57,-354.03 2024.88,-344 2027.67,-343.44 2030.49,-342.87 2033.34,-342.27"/>
<polygon fill="#63b8ff" stroke="#63b8ff" points="1813.17,-469.02 1822.75,-473.55 1818.08,-464.04 1813.17,-469.02"/>
</a>
</g>
</g>
<!-- Node21 -->
<g id="Node000021" class="node">
<title>Node21</title>
<g id="a_Node000021"><a xlink:href="CxxAstVisitor_8h.html" target="_top" xlink:title=" ">
<polygon fill="white" stroke="#666666" points="2315.75,-439 2104,-439 2104,-380 2315.75,-380 2315.75,-439"/>
<text text-anchor="start" x="2112" y="-425.5" font-family="Helvetica,sans-Serif" font-size="10.00">/home/ahussein/Documents</text>
<text text-anchor="start" x="2112" y="-412.75" font-family="Helvetica,sans-Serif" font-size="10.00">/archive/opensourcesourcetrail.github.io</text>
<text text-anchor="start" x="2112" y="-400" font-family="Helvetica,sans-Serif" font-size="10.00">/.ignore/src/src/lib_cxx/data/parser</text>
<text text-anchor="middle" x="2209.88" y="-387.25" font-family="Helvetica,sans-Serif" font-size="10.00">/cxx/CxxAstVisitor.h</text>
</a>
</g>
</g>
<!-- Node20&#45;&gt;Node21 -->
<g id="edge20_Node000020_Node000021" class="edge">
<title>Node20&#45;&gt;Node21</title>
<g id="a_edge20_Node000020_Node000021"><a xlink:title=" ">
<path fill="none" stroke="#63b8ff" d="M1983.06,-471.64C2022.16,-461.1 2065.41,-449.44 2103.56,-439.16"/>
<polygon fill="#63b8ff" stroke="#63b8ff" points="1982.35,-468.21 1973.61,-474.19 1984.17,-474.97 1982.35,-468.21"/>
</a>
</g>
</g>
<!-- Node25 -->
<g id="Node000025" class="node">
<title>Node25</title>
<g id="a_Node000025"><a xlink:href="CxxAstVisitorComponentDeclRefKind_8cpp.html" target="_top" xlink:title=" ">
<polygon fill="white" stroke="#666666" points="2047.75,-439 1806,-439 1806,-380 2047.75,-380 2047.75,-439"/>
<text text-anchor="start" x="1814" y="-425.5" font-family="Helvetica,sans-Serif" font-size="10.00">/home/ahussein/Documents</text>
<text text-anchor="start" x="1814" y="-412.75" font-family="Helvetica,sans-Serif" font-size="10.00">/archive/opensourcesourcetrail.github.io</text>
<text text-anchor="start" x="1814" y="-400" font-family="Helvetica,sans-Serif" font-size="10.00">/.ignore/src/src/lib_cxx/data/parser</text>
<text text-anchor="middle" x="1926.88" y="-387.25" font-family="Helvetica,sans-Serif" font-size="10.00">/cxx/CxxAstVisitorComponentDeclRefKind.cpp</text>
</a>
</g>
</g>
<!-- Node20&#45;&gt;Node25 -->
<g id="edge29_Node000020_Node000025" class="edge">
<title>Node20&#45;&gt;Node25</title>
<g id="a_edge29_Node000020_Node000025"><a xlink:title=" ">
<path fill="none" stroke="#63b8ff" d="M1890.47,-465.11C1896.2,-456.51 1902.19,-447.53 1907.61,-439.4"/>
<polygon fill="#63b8ff" stroke="#63b8ff" points="1887.63,-463.06 1884.99,-473.32 1893.45,-466.95 1887.63,-463.06"/>
</a>
</g>
</g>
<!-- Node21&#45;&gt;Node12 -->
<g id="edge22_Node000021_Node000012" class="edge">
<title>Node21&#45;&gt;Node12</title>
<g id="a_edge22_Node000021_Node000012"><a xlink:title=" ">
<path fill="none" stroke="#63b8ff" d="M2105.9,-376.27C2072.57,-365.94 2035.89,-354.56 2003.35,-344.48"/>
<polygon fill="#63b8ff" stroke="#63b8ff" points="2104.56,-379.52 2115.15,-379.14 2106.64,-372.83 2104.56,-379.52"/>
</a>
</g>
</g>
<!-- Node21&#45;&gt;Node13 -->
<g id="edge23_Node000021_Node000013" class="edge">
<title>Node21&#45;&gt;Node13</title>
<g id="a_edge23_Node000021_Node000013"><a xlink:title=" ">
<path fill="none" stroke="#63b8ff" d="M2092.73,-386.09C2080.63,-383.95 2068.52,-381.88 2056.88,-380 1940.84,-361.23 1910.67,-364.15 1794.88,-344 1792.16,-343.53 1789.42,-343.04 1786.66,-342.54"/>
<polygon fill="#63b8ff" stroke="#63b8ff" points="2091.86,-389.49 2102.32,-387.8 2093.09,-382.6 2091.86,-389.49"/>
</a>
</g>
</g>
<!-- Node21&#45;&gt;Node14 -->
<g id="edge25_Node000021_Node000014" class="edge">
<title>Node21&#45;&gt;Node14</title>
<g id="a_edge25_Node000021_Node000014"><a xlink:title=" ">
<path fill="none" stroke="#63b8ff" d="M2182.41,-370.38C2176.16,-361.7 2169.62,-352.62 2163.69,-344.4"/>
<polygon fill="#63b8ff" stroke="#63b8ff" points="2179.47,-372.29 2188.16,-378.36 2185.15,-368.2 2179.47,-372.29"/>
</a>
</g>
</g>
<!-- Node22 -->
<g id="Node000022" class="node">
<title>Node22</title>
<g id="a_Node000022"><a xlink:href="ASTConsumer_8cpp.html" target="_top" xlink:title=" ">
<polygon fill="white" stroke="#666666" points="2667.75,-249 2456,-249 2456,-190 2667.75,-190 2667.75,-249"/>
<text text-anchor="start" x="2464" y="-235.5" font-family="Helvetica,sans-Serif" font-size="10.00">/home/ahussein/Documents</text>
<text text-anchor="start" x="2464" y="-222.75" font-family="Helvetica,sans-Serif" font-size="10.00">/archive/opensourcesourcetrail.github.io</text>
<text text-anchor="start" x="2464" y="-210" font-family="Helvetica,sans-Serif" font-size="10.00">/.ignore/src/src/lib_cxx/data/parser</text>
<text text-anchor="middle" x="2561.88" y="-197.25" font-family="Helvetica,sans-Serif" font-size="10.00">/cxx/ASTConsumer.cpp</text>
</a>
</g>
</g>
<!-- Node21&#45;&gt;Node22 -->
<g id="edge21_Node000021_Node000022" class="edge">
<title>Node21&#45;&gt;Node22</title>
<g id="a_edge21_Node000021_Node000022"><a xlink:title=" ">
<path fill="none" stroke="#63b8ff" d="M2326.95,-385.63C2339.06,-383.58 2351.2,-381.66 2362.88,-380 2403.33,-374.25 2701.43,-374.28 2728.88,-344 2746.49,-324.57 2743.71,-306.63 2728.88,-285 2714.37,-263.85 2691.87,-249.64 2668.04,-240.08"/>
<polygon fill="#63b8ff" stroke="#63b8ff" points="2326.61,-382.13 2317.35,-387.28 2327.8,-389.03 2326.61,-382.13"/>
</a>
</g>
</g>
<!-- Node23 -->
<g id="Node000023" class="node">
<title>Node23</title>
<g id="a_Node000023"><a xlink:href="CxxAstVisitorComponentContext_8cpp.html" target="_top" xlink:title=" ">
<polygon fill="white" stroke="#666666" points="2719.88,-344 2499.88,-344 2499.88,-285 2719.88,-285 2719.88,-344"/>
<text text-anchor="start" x="2507.88" y="-330.5" font-family="Helvetica,sans-Serif" font-size="10.00">/home/ahussein/Documents</text>
<text text-anchor="start" x="2507.88" y="-317.75" font-family="Helvetica,sans-Serif" font-size="10.00">/archive/opensourcesourcetrail.github.io</text>
<text text-anchor="start" x="2507.88" y="-305" font-family="Helvetica,sans-Serif" font-size="10.00">/.ignore/src/src/lib_cxx/data/parser</text>
<text text-anchor="middle" x="2609.88" y="-292.25" font-family="Helvetica,sans-Serif" font-size="10.00">/cxx/CxxAstVisitorComponentContext.cpp</text>
</a>
</g>
</g>
<!-- Node21&#45;&gt;Node23 -->
<g id="edge24_Node000021_Node000023" class="edge">
<title>Node21&#45;&gt;Node23</title>
<g id="a_edge24_Node000021_Node000023"><a xlink:title=" ">
<path fill="none" stroke="#63b8ff" d="M2326.96,-381.88C2377.42,-370.35 2437.08,-356.62 2490.88,-344 2493.77,-343.32 2496.71,-342.63 2499.67,-341.93"/>
<polygon fill="#63b8ff" stroke="#63b8ff" points="2326.45,-378.41 2317.49,-384.05 2328.01,-385.23 2326.45,-378.41"/>
</a>
</g>
</g>
<!-- Node24 -->
<g id="Node000024" class="node">
<title>Node24</title>
<g id="a_Node000024"><a xlink:href="CxxVerboseAstVisitor_8h.html" target="_top" xlink:title=" ">
<polygon fill="white" stroke="#666666" points="2481.75,-344 2270,-344 2270,-285 2481.75,-285 2481.75,-344"/>
<text text-anchor="start" x="2278" y="-330.5" font-family="Helvetica,sans-Serif" font-size="10.00">/home/ahussein/Documents</text>
<text text-anchor="start" x="2278" y="-317.75" font-family="Helvetica,sans-Serif" font-size="10.00">/archive/opensourcesourcetrail.github.io</text>
<text text-anchor="start" x="2278" y="-305" font-family="Helvetica,sans-Serif" font-size="10.00">/.ignore/src/src/lib_cxx/data/parser</text>
<text text-anchor="middle" x="2375.88" y="-292.25" font-family="Helvetica,sans-Serif" font-size="10.00">/cxx/CxxVerboseAstVisitor.h</text>
</a>
</g>
</g>
<!-- Node21&#45;&gt;Node24 -->
<g id="edge26_Node000021_Node000024" class="edge">
<title>Node21&#45;&gt;Node24</title>
<g id="a_edge26_Node000021_Node000024"><a xlink:title=" ">
<path fill="none" stroke="#63b8ff" d="M2271.53,-373.96C2288.89,-364.23 2307.59,-353.76 2324.29,-344.4"/>
<polygon fill="#63b8ff" stroke="#63b8ff" points="2269.82,-370.9 2262.81,-378.84 2273.24,-377.01 2269.82,-370.9"/>
</a>
</g>
</g>
<!-- Node24&#45;&gt;Node17 -->
<g id="edge28_Node000024_Node000017" class="edge">
<title>Node24&#45;&gt;Node17</title>
<g id="a_edge28_Node000024_Node000017"><a xlink:title=" ">
<path fill="none" stroke="#63b8ff" d="M2258.56,-284.56C2166.89,-265.34 2073.11,-248.96 2003.16,-237.39"/>
<polygon fill="#63b8ff" stroke="#63b8ff" points="2257.74,-287.96 2268.25,-286.6 2259.19,-281.11 2257.74,-287.96"/>
</a>
</g>
</g>
<!-- Node24&#45;&gt;Node22 -->
<g id="edge27_Node000024_Node000022" class="edge">
<title>Node24&#45;&gt;Node22</title>
<g id="a_edge27_Node000024_Node000022"><a xlink:title=" ">
<path fill="none" stroke="#63b8ff" d="M2443.87,-279.5C2463.63,-269.62 2485.01,-258.93 2504.08,-249.4"/>
<polygon fill="#63b8ff" stroke="#63b8ff" points="2442.44,-276.3 2435.06,-283.91 2445.57,-282.57 2442.44,-276.3"/>
</a>
</g>
</g>
<!-- Node26&#45;&gt;Node14 -->
<g id="edge33_Node000026_Node000014" class="edge">
<title>Node26&#45;&gt;Node14</title>
<g id="a_edge33_Node000026_Node000014"><a xlink:title=" ">
<path fill="none" stroke="#63b8ff" d="M2093.31,-463.65C2088.63,-438.97 2085.95,-406.95 2094.88,-380 2099.13,-367.15 2107.06,-354.77 2115.25,-344.36"/>
<polygon fill="#63b8ff" stroke="#63b8ff" points="2089.86,-464.23 2095.34,-473.29 2096.71,-462.79 2089.86,-464.23"/>
</a>
</g>
</g>
<!-- Node26&#45;&gt;Node21 -->
<g id="edge32_Node000026_Node000021" class="edge">
<title>Node26&#45;&gt;Node21</title>
<g id="a_edge32_Node000026_Node000021"><a xlink:title=" ">
<path fill="none" stroke="#63b8ff" d="M2145.43,-467.04C2155.89,-457.87 2166.97,-448.14 2176.94,-439.4"/>
<polygon fill="#63b8ff" stroke="#63b8ff" points="2143.18,-464.36 2137.97,-473.59 2147.8,-469.62 2143.18,-464.36"/>
</a>
</g>
</g>
<!-- Node27&#45;&gt;Node14 -->
<g id="edge36_Node000027_Node000014" class="edge">
<title>Node27&#45;&gt;Node14</title>
<g id="a_edge36_Node000027_Node000014"><a xlink:title=" ">
<path fill="none" stroke="#63b8ff" d="M2347.66,-463.46C2347.97,-436.97 2343.91,-403 2324.88,-380 2314.29,-367.22 2284.68,-354.68 2252.33,-344.1"/>
<polygon fill="#63b8ff" stroke="#63b8ff" points="2344.17,-463.04 2347.32,-473.16 2351.16,-463.29 2344.17,-463.04"/>
</a>
</g>
</g>
<!-- Node27&#45;&gt;Node21 -->
<g id="edge35_Node000027_Node000021" class="edge">
<title>Node27&#45;&gt;Node21</title>
<g id="a_edge35_Node000027_Node000021"><a xlink:title=" ">
<path fill="none" stroke="#63b8ff" d="M2292.92,-468.14C2279.25,-458.65 2264.62,-448.49 2251.51,-439.4"/>
<polygon fill="#63b8ff" stroke="#63b8ff" points="2290.76,-470.89 2300.97,-473.72 2294.75,-465.14 2290.76,-470.89"/>
</a>
</g>
</g>
<!-- Node28 -->
<g id="Node000028" class="node">
<title>Node28</title>
<g id="a_Node000028"><a xlink:href="CxxAstVisitorComponentTypeRefKind_8cpp.html" target="_top" xlink:title=" ">
<polygon fill="white" stroke="#666666" points="2614.12,-439 2371.62,-439 2371.62,-380 2614.12,-380 2614.12,-439"/>
<text text-anchor="start" x="2379.62" y="-425.5" font-family="Helvetica,sans-Serif" font-size="10.00">/home/ahussein/Documents</text>
<text text-anchor="start" x="2379.62" y="-412.75" font-family="Helvetica,sans-Serif" font-size="10.00">/archive/opensourcesourcetrail.github.io</text>
<text text-anchor="start" x="2379.62" y="-400" font-family="Helvetica,sans-Serif" font-size="10.00">/.ignore/src/src/lib_cxx/data/parser</text>
<text text-anchor="middle" x="2492.88" y="-387.25" font-family="Helvetica,sans-Serif" font-size="10.00">/cxx/CxxAstVisitorComponentTypeRefKind.cpp</text>
</a>
</g>
</g>
<!-- Node27&#45;&gt;Node28 -->
<g id="edge37_Node000027_Node000028" class="edge">
<title>Node27&#45;&gt;Node28</title>
<g id="a_edge37_Node000027_Node000028"><a xlink:title=" ">
<path fill="none" stroke="#63b8ff" d="M2399.65,-468.69C2415.11,-459.04 2431.72,-448.67 2446.58,-439.4"/>
<polygon fill="#63b8ff" stroke="#63b8ff" points="2398.12,-465.52 2391.49,-473.78 2401.82,-471.46 2398.12,-465.52"/>
</a>
</g>
</g>
</g>
</svg>

<g id="navigator" transform="translate(0 0)" fill="#404254">
  <rect fill="#f2f5e9" fill-opacity="0.5" stroke="#606060" stroke-width=".5" x="0" y="0" width="60" height="60"/>
  <use id="zoomplus" xlink:href="#zoomPlus" x="17" y="9" onmousedown="handleZoom(evt,'in')"/>
  <use id="zoomminus" xlink:href="#zoomMin" x="42" y="9" onmousedown="handleZoom(evt,'out')"/>
  <use id="reset" xlink:href="#resetDef" x="30" y="36" onmousedown="handleReset()"/>
   <use id="arrowup" xlink:href="#arrowUp" x="0" y="0" onmousedown="handlePan(0,-1)"/>
  <use id="arrowright" xlink:href="#arrowRight" x="0" y="0" onmousedown="handlePan(1,0)"/>
  <use id="arrowdown" xlink:href="#arrowDown" x="0" y="0" onmousedown="handlePan(0,1)"/>
  <use id="arrowleft" xlink:href="#arrowLeft" x="0" y="0" onmousedown="handlePan(-1,0)"/>
</g>
<svg viewBox="0 0 15 15" width="100%" height="30px" preserveAspectRatio="xMaxYMin meet">
 <g id="arrow_out" transform="scale(0.3 0.3)">
  <a xlink:href="ReferenceKind_8h__dep__incl_org.svg" target="_base">
   <rect id="button" ry="5" rx="5" y="6" x="6" height="38" width="38"
        fill="#f2f5e9" fill-opacity="0.5" stroke="#606060" stroke-width="1.0"/>
   <path id="arrow"
     d="M 11.500037,31.436501 C 11.940474,20.09759 22.043105,11.32322 32.158766,21.979434 L 37.068811,17.246167 C 37.068811,17.246167 37.088388,32 37.088388,32 L 22.160133,31.978069 C 22.160133,31.978069 26.997745,27.140456 26.997745,27.140456 C 18.528582,18.264221 13.291696,25.230495 11.500037,31.436501 z"
     style="fill:#404040;"/>
  </a>
 </g>
</svg>

<style type='text/css'>
<![CDATA[
[data-mouse-over-selected='false'] { opacity: 0.7; }
[data-mouse-over-selected='true']  { opacity: 1.0; }
]]>
</style>
<script type="application/ecmascript"><![CDATA[
document.addEventListener('DOMContentLoaded', (event) => {
  highlightEdges();
  highlightAdjacentNodes();
});
]]></script>
</svg>
