<?xml version="1.0" encoding="UTF-8" standalone="no"?>
<!DOCTYPE svg PUBLIC "-//W3C//DTD SVG 1.1//EN"
 "http://www.w3.org/Graphics/SVG/1.1/DTD/svg11.dtd">
<!-- Generated by graphviz version 9.0.0 (0)
 -->
<!-- Title: /home/ahussein/Documents/archive/opensourcesourcetrail.github.io/.ignore/src/src/lib/component/view/RefreshView.cpp Pages: 1 -->
<svg width="321pt" height="351pt"
 viewBox="0.00 0.00 321.25 350.75" xmlns="http://www.w3.org/2000/svg" xmlns:xlink="http://www.w3.org/1999/xlink">

<svg id="main" version="1.1" xmlns="http://www.w3.org/2000/svg" xmlns:xlink="http://www.w3.org/1999/xlink" xml:space="preserve" onload="init(evt)">
<style type="text/css"><![CDATA[
.node, .edge {opacity: 0.7;}
.node.selected, .edge.selected {opacity: 1;}
.edge:hover path { stroke: red; }
.edge:hover polygon { stroke: red; fill: red; }
]]></style>
<script type="application/ecmascript" xlink:href="svg.min.js"/>
<svg id="graph" class="graph">
<g id="graph0" class="graph" transform="scale(1 1) rotate(0) translate(4 346.75)">
<title>/home/ahussein/Documents/archive/opensourcesourcetrail.github.io/.ignore/src/src/lib/component/view/RefreshView.cpp</title>
<!-- Node1 -->
<g id="Node000001" class="node">
<title>Node1</title>
<g id="a_Node000001"><a xlink:title=" ">
<polygon fill="#999999" stroke="#666666" points="305.88,-342.75 94.12,-342.75 94.12,-283.75 305.88,-283.75 305.88,-342.75"/>
<text text-anchor="start" x="102.12" y="-329.25" font-family="Helvetica,sans-Serif" font-size="10.00">/home/ahussein/Documents</text>
<text text-anchor="start" x="102.12" y="-316.5" font-family="Helvetica,sans-Serif" font-size="10.00">/archive/opensourcesourcetrail.github.io</text>
<text text-anchor="start" x="102.12" y="-303.75" font-family="Helvetica,sans-Serif" font-size="10.00">/.ignore/src/src/lib/component/view</text>
<text text-anchor="middle" x="200" y="-291" font-family="Helvetica,sans-Serif" font-size="10.00">/RefreshView.cpp</text>
</a>
</g>
</g>
<!-- Node2 -->
<g id="Node000002" class="node">
<title>Node2</title>
<g id="a_Node000002"><a xlink:href="RefreshView_8h.html" target="_top" xlink:title=" ">
<polygon fill="white" stroke="#666666" points="184.88,-247.75 99.12,-247.75 99.12,-227 184.88,-227 184.88,-247.75"/>
<text text-anchor="middle" x="142" y="-234.25" font-family="Helvetica,sans-Serif" font-size="10.00">RefreshView.h</text>
</a>
</g>
</g>
<!-- Node1&#45;&gt;Node2 -->
<g id="edge1_Node000001_Node000002" class="edge">
<title>Node1&#45;&gt;Node2</title>
<g id="a_edge1_Node000001_Node000002"><a xlink:title=" ">
<path fill="none" stroke="#63b8ff" d="M177.41,-283.48C170.44,-274.61 162.96,-265.07 156.68,-257.07"/>
<polygon fill="#63b8ff" stroke="#63b8ff" points="159.58,-255.1 150.65,-249.4 154.08,-259.42 159.58,-255.1"/>
</a>
</g>
</g>
<!-- Node10 -->
<g id="Node000010" class="node">
<title>Node10</title>
<g id="a_Node000010"><a xlink:href="RefreshController_8h.html" target="_top" xlink:title=" ">
<polygon fill="white" stroke="#666666" points="313.25,-247.75 202.75,-247.75 202.75,-227 313.25,-227 313.25,-247.75"/>
<text text-anchor="middle" x="258" y="-234.25" font-family="Helvetica,sans-Serif" font-size="10.00">RefreshController.h</text>
</a>
</g>
</g>
<!-- Node1&#45;&gt;Node10 -->
<g id="edge12_Node000001_Node000010" class="edge">
<title>Node1&#45;&gt;Node10</title>
<g id="a_edge12_Node000001_Node000010"><a xlink:title=" ">
<path fill="none" stroke="#63b8ff" d="M222.59,-283.48C229.56,-274.61 237.04,-265.07 243.32,-257.07"/>
<polygon fill="#63b8ff" stroke="#63b8ff" points="245.92,-259.42 249.35,-249.4 240.42,-255.1 245.92,-259.42"/>
</a>
</g>
</g>
<!-- Node3 -->
<g id="Node000003" class="node">
<title>Node3</title>
<g id="a_Node000003"><a xlink:href="View_8h.html" target="_top" xlink:title=" ">
<polygon fill="white" stroke="#666666" points="170.12,-191 121.88,-191 121.88,-170.25 170.12,-170.25 170.12,-191"/>
<text text-anchor="middle" x="146" y="-177.5" font-family="Helvetica,sans-Serif" font-size="10.00">View.h</text>
</a>
</g>
</g>
<!-- Node2&#45;&gt;Node3 -->
<g id="edge2_Node000002_Node000003" class="edge">
<title>Node2&#45;&gt;Node3</title>
<g id="a_edge2_Node000002_Node000003"><a xlink:title=" ">
<path fill="none" stroke="#63b8ff" d="M142.72,-226.59C143.2,-219.97 143.86,-210.97 144.46,-202.77"/>
<polygon fill="#63b8ff" stroke="#63b8ff" points="147.94,-203.07 145.18,-192.84 140.96,-202.56 147.94,-203.07"/>
</a>
</g>
</g>
<!-- Node4 -->
<g id="Node000004" class="node">
<title>Node4</title>
<g id="a_Node000004"><a xlink:title=" ">
<polygon fill="#e0e0e0" stroke="#999999" points="239,-20.75 187,-20.75 187,0 239,0 239,-20.75"/>
<text text-anchor="middle" x="213" y="-7.25" font-family="Helvetica,sans-Serif" font-size="10.00">cstddef</text>
</a>
</g>
</g>
<!-- Node3&#45;&gt;Node4 -->
<g id="edge3_Node000003_Node000004" class="edge">
<title>Node3&#45;&gt;Node4</title>
<g id="a_edge3_Node000003_Node000004"><a xlink:title=" ">
<path fill="none" stroke="#63b8ff" d="M145.7,-170.07C145.43,-148.54 146.98,-95.13 167,-56.75 172.7,-45.82 181.98,-35.92 190.71,-28.17"/>
<polygon fill="#63b8ff" stroke="#63b8ff" points="192.82,-30.97 198.28,-21.9 188.35,-25.59 192.82,-30.97"/>
</a>
</g>
</g>
<!-- Node5 -->
<g id="Node000005" class="node">
<title>Node5</title>
<g id="a_Node000005"><a xlink:title=" ">
<polygon fill="#e0e0e0" stroke="#999999" points="233.62,-77.5 176.38,-77.5 176.38,-56.75 233.62,-56.75 233.62,-77.5"/>
<text text-anchor="middle" x="205" y="-64" font-family="Helvetica,sans-Serif" font-size="10.00">memory</text>
</a>
</g>
</g>
<!-- Node3&#45;&gt;Node5 -->
<g id="edge4_Node000003_Node000005" class="edge">
<title>Node3&#45;&gt;Node5</title>
<g id="a_edge4_Node000003_Node000005"><a xlink:title=" ">
<path fill="none" stroke="#63b8ff" d="M151.03,-170.12C160.6,-152.02 181.63,-112.28 194.43,-88.1"/>
<polygon fill="#63b8ff" stroke="#63b8ff" points="197.52,-89.74 199.11,-79.26 191.34,-86.46 197.52,-89.74"/>
</a>
</g>
</g>
<!-- Node6 -->
<g id="Node000006" class="node">
<title>Node6</title>
<g id="a_Node000006"><a xlink:title=" ">
<polygon fill="#e0e0e0" stroke="#999999" points="91.88,-77.5 48.12,-77.5 48.12,-56.75 91.88,-56.75 91.88,-77.5"/>
<text text-anchor="middle" x="70" y="-64" font-family="Helvetica,sans-Serif" font-size="10.00">string</text>
</a>
</g>
</g>
<!-- Node3&#45;&gt;Node6 -->
<g id="edge5_Node000003_Node000006" class="edge">
<title>Node3&#45;&gt;Node6</title>
<g id="a_edge5_Node000003_Node000006"><a xlink:title=" ">
<path fill="none" stroke="#63b8ff" d="M139.52,-170.12C127.02,-151.78 99.36,-111.2 82.95,-87.12"/>
<polygon fill="#63b8ff" stroke="#63b8ff" points="86.06,-85.47 77.53,-79.18 80.27,-89.41 86.06,-85.47"/>
</a>
</g>
</g>
<!-- Node7 -->
<g id="Node000007" class="node">
<title>Node7</title>
<g id="a_Node000007"><a xlink:href="Component_8h.html" target="_top" xlink:title=" ">
<polygon fill="white" stroke="#666666" points="297.62,-134.25 216.38,-134.25 216.38,-113.5 297.62,-113.5 297.62,-134.25"/>
<text text-anchor="middle" x="257" y="-120.75" font-family="Helvetica,sans-Serif" font-size="10.00">Component.h</text>
</a>
</g>
</g>
<!-- Node3&#45;&gt;Node7 -->
<g id="edge6_Node000003_Node000007" class="edge">
<title>Node3&#45;&gt;Node7</title>
<g id="a_edge6_Node000003_Node000007"><a xlink:title=" ">
<path fill="none" stroke="#63b8ff" d="M165.84,-169.84C182.89,-161.43 207.72,-149.18 227.16,-139.59"/>
<polygon fill="#63b8ff" stroke="#63b8ff" points="228.55,-142.81 235.97,-135.25 225.45,-136.53 228.55,-142.81"/>
</a>
</g>
</g>
<!-- Node9 -->
<g id="Node000009" class="node">
<title>Node9</title>
<g id="a_Node000009"><a xlink:href="ViewLayout_8h.html" target="_top" xlink:title=" ">
<polygon fill="white" stroke="#666666" points="82,-134.25 0,-134.25 0,-113.5 82,-113.5 82,-134.25"/>
<text text-anchor="middle" x="41" y="-120.75" font-family="Helvetica,sans-Serif" font-size="10.00">ViewLayout.h</text>
</a>
</g>
</g>
<!-- Node3&#45;&gt;Node9 -->
<g id="edge10_Node000003_Node000009" class="edge">
<title>Node3&#45;&gt;Node9</title>
<g id="a_edge10_Node000003_Node000009"><a xlink:title=" ">
<path fill="none" stroke="#63b8ff" d="M127.23,-169.84C111.25,-161.51 88.05,-149.41 69.74,-139.86"/>
<polygon fill="#63b8ff" stroke="#63b8ff" points="71.44,-136.8 60.95,-135.28 68.2,-143.01 71.44,-136.8"/>
</a>
</g>
</g>
<!-- Node7&#45;&gt;Node5 -->
<g id="edge7_Node000007_Node000005" class="edge">
<title>Node7&#45;&gt;Node5</title>
<g id="a_edge7_Node000007_Node000005"><a xlink:title=" ">
<path fill="none" stroke="#63b8ff" d="M247.7,-113.09C240.6,-105.61 230.63,-95.11 222.1,-86.13"/>
<polygon fill="#63b8ff" stroke="#63b8ff" points="224.68,-83.77 215.26,-78.93 219.61,-88.59 224.68,-83.77"/>
</a>
</g>
</g>
<!-- Node8 -->
<g id="Node000008" class="node">
<title>Node8</title>
<g id="a_Node000008"><a xlink:href="types_8h.html" target="_top" xlink:title=" ">
<polygon fill="white" stroke="#666666" points="304,-77.5 252,-77.5 252,-56.75 304,-56.75 304,-77.5"/>
<text text-anchor="middle" x="278" y="-64" font-family="Helvetica,sans-Serif" font-size="10.00">types.h</text>
</a>
</g>
</g>
<!-- Node7&#45;&gt;Node8 -->
<g id="edge8_Node000007_Node000008" class="edge">
<title>Node7&#45;&gt;Node8</title>
<g id="a_edge8_Node000007_Node000008"><a xlink:title=" ">
<path fill="none" stroke="#63b8ff" d="M260.75,-113.09C263.38,-106.24 266.99,-96.84 270.22,-88.4"/>
<polygon fill="#63b8ff" stroke="#63b8ff" points="273.42,-89.83 273.74,-79.24 266.89,-87.32 273.42,-89.83"/>
</a>
</g>
</g>
<!-- Node8&#45;&gt;Node4 -->
<g id="edge9_Node000008_Node000004" class="edge">
<title>Node8&#45;&gt;Node4</title>
<g id="a_edge9_Node000008_Node000004"><a xlink:title=" ">
<path fill="none" stroke="#63b8ff" d="M266.38,-56.34C257.14,-48.55 243.99,-37.47 233.05,-28.26"/>
<polygon fill="#63b8ff" stroke="#63b8ff" points="235.58,-25.82 225.68,-22.05 231.07,-31.17 235.58,-25.82"/>
</a>
</g>
</g>
<!-- Node9&#45;&gt;Node6 -->
<g id="edge11_Node000009_Node000006" class="edge">
<title>Node9&#45;&gt;Node6</title>
<g id="a_edge11_Node000009_Node000006"><a xlink:title=" ">
<path fill="none" stroke="#63b8ff" d="M46.18,-113.09C49.9,-106.08 55.02,-96.41 59.56,-87.83"/>
<polygon fill="#63b8ff" stroke="#63b8ff" points="62.56,-89.64 64.15,-79.17 56.38,-86.36 62.56,-89.64"/>
</a>
</g>
</g>
<!-- Node11 -->
<g id="Node000011" class="node">
<title>Node11</title>
<g id="a_Node000011"><a xlink:href="Controller_8h.html" target="_top" xlink:title=" ">
<polygon fill="white" stroke="#666666" points="293.5,-191 220.5,-191 220.5,-170.25 293.5,-170.25 293.5,-191"/>
<text text-anchor="middle" x="257" y="-177.5" font-family="Helvetica,sans-Serif" font-size="10.00">Controller.h</text>
</a>
</g>
</g>
<!-- Node10&#45;&gt;Node11 -->
<g id="edge13_Node000010_Node000011" class="edge">
<title>Node10&#45;&gt;Node11</title>
<g id="a_edge13_Node000010_Node000011"><a xlink:title=" ">
<path fill="none" stroke="#63b8ff" d="M257.82,-226.59C257.7,-219.97 257.54,-210.97 257.39,-202.77"/>
<polygon fill="#63b8ff" stroke="#63b8ff" points="260.89,-202.78 257.2,-192.84 253.89,-202.9 260.89,-202.78"/>
</a>
</g>
</g>
<!-- Node11&#45;&gt;Node7 -->
<g id="edge14_Node000011_Node000007" class="edge">
<title>Node11&#45;&gt;Node7</title>
<g id="a_edge14_Node000011_Node000007"><a xlink:title=" ">
<path fill="none" stroke="#63b8ff" d="M257,-169.84C257,-163.22 257,-154.22 257,-146.02"/>
<polygon fill="#63b8ff" stroke="#63b8ff" points="260.5,-146.09 257,-136.09 253.5,-146.09 260.5,-146.09"/>
</a>
</g>
</g>
</g>
</svg>
</svg>

<style type='text/css'>
<![CDATA[
[data-mouse-over-selected='false'] { opacity: 0.7; }
[data-mouse-over-selected='true']  { opacity: 1.0; }
]]>
</style>
<script type="application/ecmascript"><![CDATA[
document.addEventListener('DOMContentLoaded', (event) => {
  highlightEdges();
  highlightAdjacentNodes();
});
]]></script>
</svg>
