<?xml version="1.0" encoding="UTF-8" standalone="no"?>
<!DOCTYPE svg PUBLIC "-//W3C//DTD SVG 1.1//EN"
 "http://www.w3.org/Graphics/SVG/1.1/DTD/svg11.dtd">
<!-- Generated by graphviz version 7.1.0 (0)
 -->
<!-- Title: /home/ahussein/Documents/sourceCode/Sourcetrail/src/src/lib/settings/migration/SettingsMigration.cpp Pages: 1 -->
<svg width="326pt" height="280pt"
 viewBox="0.00 0.00 325.50 280.00" xmlns="http://www.w3.org/2000/svg" xmlns:xlink="http://www.w3.org/1999/xlink">
<g id="graph0" class="graph" transform="scale(1 1) rotate(0) translate(4 276)">
<title>/home/ahussein/Documents/sourceCode/Sourcetrail/src/src/lib/settings/migration/SettingsMigration.cpp</title>
<!-- Node1 -->
<g id="node1" class="node">
<title>Node1</title>
<g id="a_node1"><a xlink:title=" ">
<polygon fill="#999999" stroke="#666666" points="298.5,-272 140.5,-272 140.5,-220 298.5,-220 298.5,-272"/>
<text text-anchor="start" x="148.5" y="-260" font-family="Helvetica,sans-Serif" font-size="10.00">/home/ahussein/Documents</text>
<text text-anchor="start" x="148.5" y="-249" font-family="Helvetica,sans-Serif" font-size="10.00">/sourceCode/Sourcetrail</text>
<text text-anchor="start" x="148.5" y="-238" font-family="Helvetica,sans-Serif" font-size="10.00">/src/src/lib/settings/migration</text>
<text text-anchor="middle" x="219.5" y="-227" font-family="Helvetica,sans-Serif" font-size="10.00">/SettingsMigration.cpp</text>
</a>
</g>
</g>
<!-- Node2 -->
<g id="node2" class="node">
<title>Node2</title>
<g id="a_node2"><a xlink:href="SettingsMigration_8h.html" target="_top" xlink:title=" ">
<polygon fill="white" stroke="#666666" points="317.5,-184 205.5,-184 205.5,-165 317.5,-165 317.5,-184"/>
<text text-anchor="middle" x="261.5" y="-172" font-family="Helvetica,sans-Serif" font-size="10.00">SettingsMigration.h</text>
</a>
</g>
</g>
<!-- Node1&#45;&gt;Node2 -->
<g id="edge1" class="edge">
<title>Node1&#45;&gt;Node2</title>
<path fill="none" stroke="#63b8ff" d="M234.9,-219.52C240.05,-210.99 245.69,-201.67 250.44,-193.8"/>
<polygon fill="#63b8ff" stroke="#63b8ff" points="253.28,-195.86 255.46,-185.49 247.29,-192.24 253.28,-195.86"/>
</g>
<!-- Node6 -->
<g id="node6" class="node">
<title>Node6</title>
<g id="a_node6"><a xlink:href="Settings_8h.html" target="_top" xlink:title=" ">
<polygon fill="white" stroke="#666666" points="210,-129 145,-129 145,-110 210,-110 210,-129"/>
<text text-anchor="middle" x="177.5" y="-117" font-family="Helvetica,sans-Serif" font-size="10.00">Settings.h</text>
</a>
</g>
</g>
<!-- Node1&#45;&gt;Node6 -->
<g id="edge18" class="edge">
<title>Node1&#45;&gt;Node6</title>
<path fill="none" stroke="#63b8ff" d="M209.48,-219.62C205.29,-208.72 200.48,-195.8 196.5,-184 191.59,-169.45 186.63,-152.8 183.01,-140.21"/>
<polygon fill="#63b8ff" stroke="#63b8ff" points="186.4,-139.31 180.3,-130.64 179.66,-141.22 186.4,-139.31"/>
</g>
<!-- Node3 -->
<g id="node3" class="node">
<title>Node3</title>
<g id="a_node3"><a xlink:title=" ">
<polygon fill="#e0e0e0" stroke="#999999" points="297.5,-19 253.5,-19 253.5,0 297.5,0 297.5,-19"/>
<text text-anchor="middle" x="275.5" y="-7" font-family="Helvetica,sans-Serif" font-size="10.00">string</text>
</a>
</g>
</g>
<!-- Node2&#45;&gt;Node3 -->
<g id="edge2" class="edge">
<title>Node2&#45;&gt;Node3</title>
<path fill="none" stroke="#63b8ff" d="M276.33,-164.65C287.78,-156.88 302.77,-144.41 309.5,-129 324.35,-94.98 303.47,-52.67 288.46,-28.91"/>
<polygon fill="#63b8ff" stroke="#63b8ff" points="291.42,-27.04 282.97,-20.66 285.6,-30.92 291.42,-27.04"/>
</g>
<!-- Node4 -->
<g id="node4" class="node">
<title>Node4</title>
<g id="a_node4"><a xlink:title=" ">
<polygon fill="#e0e0e0" stroke="#999999" points="47,-19 0,-19 0,0 47,0 47,-19"/>
<text text-anchor="middle" x="23.5" y="-7" font-family="Helvetica,sans-Serif" font-size="10.00">vector</text>
</a>
</g>
</g>
<!-- Node2&#45;&gt;Node4 -->
<g id="edge3" class="edge">
<title>Node2&#45;&gt;Node4</title>
<path fill="none" stroke="#63b8ff" d="M205.03,-168.4C147.05,-159.76 59.9,-136.52 20.5,-74 12.3,-60.99 13.92,-43.33 17.09,-29.94"/>
<polygon fill="#63b8ff" stroke="#63b8ff" points="20.39,-31.12 19.79,-20.55 13.66,-29.19 20.39,-31.12"/>
</g>
<!-- Node5 -->
<g id="node5" class="node">
<title>Node5</title>
<g id="a_node5"><a xlink:href="Migration_8h.html" target="_top" xlink:title=" ">
<polygon fill="white" stroke="#666666" points="300.5,-129 228.5,-129 228.5,-110 300.5,-110 300.5,-129"/>
<text text-anchor="middle" x="264.5" y="-117" font-family="Helvetica,sans-Serif" font-size="10.00">Migration.h</text>
</a>
</g>
</g>
<!-- Node2&#45;&gt;Node5 -->
<g id="edge4" class="edge">
<title>Node2&#45;&gt;Node5</title>
<path fill="none" stroke="#63b8ff" d="M262,-164.75C262.36,-158.27 262.88,-149.16 263.35,-140.9"/>
<polygon fill="#63b8ff" stroke="#63b8ff" points="266.84,-141.13 263.91,-130.95 259.85,-140.74 266.84,-141.13"/>
</g>
<!-- Node2&#45;&gt;Node6 -->
<g id="edge5" class="edge">
<title>Node2&#45;&gt;Node6</title>
<path fill="none" stroke="#63b8ff" d="M247.25,-164.51C234.62,-156.54 215.94,-144.75 201.09,-135.38"/>
<polygon fill="#63b8ff" stroke="#63b8ff" points="203.14,-132.54 192.82,-130.17 199.41,-138.46 203.14,-132.54"/>
</g>
<!-- Node6&#45;&gt;Node3 -->
<g id="edge7" class="edge">
<title>Node6&#45;&gt;Node3</title>
<path fill="none" stroke="#63b8ff" d="M199.26,-109.51C215.04,-102.04 235.92,-90.03 249.5,-74 260.23,-61.34 266.98,-43.64 270.91,-30.15"/>
<polygon fill="#63b8ff" stroke="#63b8ff" points="274.24,-31.23 273.37,-20.67 267.47,-29.47 274.24,-31.23"/>
</g>
<!-- Node6&#45;&gt;Node4 -->
<g id="edge8" class="edge">
<title>Node6&#45;&gt;Node4</title>
<path fill="none" stroke="#63b8ff" d="M144.74,-117.87C111.54,-115.35 61.25,-106.05 33.5,-74 23.21,-62.11 21.22,-44.08 21.5,-30.26"/>
<polygon fill="#63b8ff" stroke="#63b8ff" points="24.98,-30.78 22.14,-20.57 17.99,-30.32 24.98,-30.78"/>
</g>
<!-- Node7 -->
<g id="node7" class="node">
<title>Node7</title>
<g id="a_node7"><a xlink:title=" ">
<polygon fill="#e0e0e0" stroke="#999999" points="221.5,-19 163.5,-19 163.5,0 221.5,0 221.5,-19"/>
<text text-anchor="middle" x="192.5" y="-7" font-family="Helvetica,sans-Serif" font-size="10.00">memory</text>
</a>
</g>
</g>
<!-- Node6&#45;&gt;Node7 -->
<g id="edge6" class="edge">
<title>Node6&#45;&gt;Node7</title>
<path fill="none" stroke="#63b8ff" d="M195.81,-109.65C208.98,-102.17 225.73,-90.1 233.5,-74 241.69,-57.03 227.8,-39.13 214.02,-26.67"/>
<polygon fill="#63b8ff" stroke="#63b8ff" points="216.3,-24.02 206.38,-20.31 211.82,-29.39 216.3,-24.02"/>
</g>
<!-- Node8 -->
<g id="node8" class="node">
<title>Node8</title>
<g id="a_node8"><a xlink:href="ConfigManager_8h.html" target="_top" xlink:title=" ">
<polygon fill="white" stroke="#666666" points="142.5,-74 42.5,-74 42.5,-55 142.5,-55 142.5,-74"/>
<text text-anchor="middle" x="92.5" y="-62" font-family="Helvetica,sans-Serif" font-size="10.00">ConfigManager.h</text>
</a>
</g>
</g>
<!-- Node6&#45;&gt;Node8 -->
<g id="edge9" class="edge">
<title>Node6&#45;&gt;Node8</title>
<path fill="none" stroke="#63b8ff" d="M163.08,-109.51C150.3,-101.54 131.4,-89.75 116.37,-80.38"/>
<polygon fill="#63b8ff" stroke="#63b8ff" points="118.33,-77.48 107.99,-75.16 114.62,-83.42 118.33,-77.48"/>
</g>
<!-- Node10 -->
<g id="node10" class="node">
<title>Node10</title>
<g id="a_node10"><a xlink:href="FilePath_8h.html" target="_top" xlink:title=" ">
<polygon fill="white" stroke="#666666" points="224.5,-74 160.5,-74 160.5,-55 224.5,-55 224.5,-74"/>
<text text-anchor="middle" x="192.5" y="-62" font-family="Helvetica,sans-Serif" font-size="10.00">FilePath.h</text>
</a>
</g>
</g>
<!-- Node6&#45;&gt;Node10 -->
<g id="edge14" class="edge">
<title>Node6&#45;&gt;Node10</title>
<path fill="none" stroke="#63b8ff" d="M179.98,-109.75C181.85,-103.11 184.51,-93.73 186.89,-85.31"/>
<polygon fill="#63b8ff" stroke="#63b8ff" points="190.2,-86.47 189.56,-75.9 183.47,-84.57 190.2,-86.47"/>
</g>
<!-- Node8&#45;&gt;Node3 -->
<g id="edge12" class="edge">
<title>Node8&#45;&gt;Node3</title>
<path fill="none" stroke="#63b8ff" d="M123.54,-54.51C156.62,-44.93 208.77,-29.83 242.55,-20.04"/>
<polygon fill="#63b8ff" stroke="#63b8ff" points="243.17,-23.51 251.8,-17.36 241.22,-16.78 243.17,-23.51"/>
</g>
<!-- Node8&#45;&gt;Node4 -->
<g id="edge13" class="edge">
<title>Node8&#45;&gt;Node4</title>
<path fill="none" stroke="#63b8ff" d="M80.8,-54.51C70.72,-46.77 55.96,-35.43 43.94,-26.2"/>
<polygon fill="#63b8ff" stroke="#63b8ff" points="46.29,-23.6 36.23,-20.28 42.03,-29.15 46.29,-23.6"/>
</g>
<!-- Node8&#45;&gt;Node7 -->
<g id="edge11" class="edge">
<title>Node8&#45;&gt;Node7</title>
<path fill="none" stroke="#63b8ff" d="M109.46,-54.51C124.86,-46.35 147.81,-34.19 165.69,-24.71"/>
<polygon fill="#63b8ff" stroke="#63b8ff" points="167.25,-27.84 174.45,-20.07 163.97,-21.66 167.25,-27.84"/>
</g>
<!-- Node9 -->
<g id="node9" class="node">
<title>Node9</title>
<g id="a_node9"><a xlink:title=" ">
<polygon fill="#e0e0e0" stroke="#999999" points="111.5,-19 73.5,-19 73.5,0 111.5,0 111.5,-19"/>
<text text-anchor="middle" x="92.5" y="-7" font-family="Helvetica,sans-Serif" font-size="10.00">map</text>
</a>
</g>
</g>
<!-- Node8&#45;&gt;Node9 -->
<g id="edge10" class="edge">
<title>Node8&#45;&gt;Node9</title>
<path fill="none" stroke="#63b8ff" d="M92.5,-54.75C92.5,-48.27 92.5,-39.16 92.5,-30.9"/>
<polygon fill="#63b8ff" stroke="#63b8ff" points="96,-30.96 92.5,-20.96 89,-30.96 96,-30.96"/>
</g>
<!-- Node10&#45;&gt;Node3 -->
<g id="edge16" class="edge">
<title>Node10&#45;&gt;Node3</title>
<path fill="none" stroke="#63b8ff" d="M206.58,-54.51C219.06,-46.54 237.52,-34.75 252.19,-25.38"/>
<polygon fill="#63b8ff" stroke="#63b8ff" points="253.81,-28.5 260.35,-20.17 250.04,-22.6 253.81,-28.5"/>
</g>
<!-- Node10&#45;&gt;Node4 -->
<g id="edge17" class="edge">
<title>Node10&#45;&gt;Node4</title>
<path fill="none" stroke="#63b8ff" d="M163.83,-54.51C134.64,-45.36 89.37,-31.16 58.18,-21.38"/>
<polygon fill="#63b8ff" stroke="#63b8ff" points="59.42,-18.1 48.83,-18.44 57.32,-24.77 59.42,-18.1"/>
</g>
<!-- Node10&#45;&gt;Node7 -->
<g id="edge15" class="edge">
<title>Node10&#45;&gt;Node7</title>
<path fill="none" stroke="#63b8ff" d="M192.5,-54.75C192.5,-48.27 192.5,-39.16 192.5,-30.9"/>
<polygon fill="#63b8ff" stroke="#63b8ff" points="196,-30.96 192.5,-20.96 189,-30.96 196,-30.96"/>
</g>
</g>
</svg>
