<?xml version="1.0" encoding="UTF-8" standalone="no"?>
<!DOCTYPE svg PUBLIC "-//W3C//DTD SVG 1.1//EN"
 "http://www.w3.org/Graphics/SVG/1.1/DTD/svg11.dtd">
<!-- Generated by graphviz version 7.1.0 (0)
 -->
<!-- Title: /home/ahussein/Documents/sourceCode/Sourcetrail/src/src/lib/data/indexer/interprocess/shared_types/SharedIntermediateStorage.cpp Pages: 1 -->
<!--zoomable 357 -->
<svg id="main" version="1.1" xmlns="http://www.w3.org/2000/svg" xmlns:xlink="http://www.w3.org/1999/xlink" xml:space="preserve" onload="init(evt)">
<style type="text/css"><![CDATA[
.edge:hover path { stroke: red; }
.edge:hover polygon { stroke: red; fill: red; }
]]></style>
<script type="text/javascript"><![CDATA[
var edges = document.getElementsByTagName('g');
if (edges && edges.length) {
  for (var i=0;i<edges.length;i++) {
    if (edges[i].id.substr(0,4)=='edge') {
      edges[i].setAttribute('class','edge');
    }
  }
}
]]></script>
        <defs>
                <circle id="rim" cx="0" cy="0" r="7"/>
                <circle id="rim2" cx="0" cy="0" r="3.5"/>
                <g id="zoomPlus">
                        <use xlink:href="#rim" fill="#404040">
                                <set attributeName="fill" to="#808080" begin="zoomplus.mouseover" end="zoomplus.mouseout"/>
                        </use>
                        <path d="M-4,0h8M0,-4v8" fill="none" stroke="white" stroke-width="1.5" pointer-events="none"/>
                </g>
                <g id="zoomMin">
                        <use xlink:href="#rim" fill="#404040">
                                <set attributeName="fill" to="#808080" begin="zoomminus.mouseover" end="zoomminus.mouseout"/>
                        </use>
                        <path d="M-4,0h8" fill="none" stroke="white" stroke-width="1.5" pointer-events="none"/>
                </g>
                <g id="dirArrow">
                        <path fill="none" stroke="white" stroke-width="1.5" d="M0,-3.0v7 M-2.5,-0.5L0,-3.0L2.5,-0.5"/>
                </g>
               <g id="resetDef">
                       <use xlink:href="#rim2" fill="#404040">
                               <set attributeName="fill" to="#808080" begin="reset.mouseover" end="reset.mouseout"/>
                       </use>
               </g>
        </defs>

<script type="text/javascript">
var viewWidth = 2394;
var viewHeight = 357;
var sectionId = 'dynsection-0';
</script>
<script xlink:href="svgpan.js"/>
<svg id="graph" class="graph">
<g id="viewport">
<title>/home/ahussein/Documents/sourceCode/Sourcetrail/src/src/lib/data/indexer/interprocess/shared_types/SharedIntermediateStorage.cpp</title>
<!-- Node1 -->
<g id="node1" class="node">
<title>Node1</title>
<g id="a_node1"><a xlink:title=" ">
<polygon fill="#999999" stroke="#666666" points="1588,-349 1414,-349 1414,-286 1588,-286 1588,-349"/>
<text text-anchor="start" x="1422" y="-337" font-family="Helvetica,sans-Serif" font-size="10.00">/home/ahussein/Documents</text>
<text text-anchor="start" x="1422" y="-326" font-family="Helvetica,sans-Serif" font-size="10.00">/sourceCode/Sourcetrail</text>
<text text-anchor="start" x="1422" y="-315" font-family="Helvetica,sans-Serif" font-size="10.00">/src/src/lib/data/indexer</text>
<text text-anchor="start" x="1422" y="-304" font-family="Helvetica,sans-Serif" font-size="10.00">/interprocess/shared_types</text>
<text text-anchor="middle" x="1501" y="-293" font-family="Helvetica,sans-Serif" font-size="10.00">/SharedIntermediateStorage.cpp</text>
</a>
</g>
</g>
<!-- Node2 -->
<g id="node2" class="node">
<title>Node2</title>
<g id="a_node2"><a xlink:href="SharedIntermediateStorage_8h.html" target="_top" xlink:title=" ">
<polygon fill="white" stroke="#666666" points="1581,-250 1421,-250 1421,-231 1581,-231 1581,-250"/>
<text text-anchor="middle" x="1501" y="-238" font-family="Helvetica,sans-Serif" font-size="10.00">SharedIntermediateStorage.h</text>
</a>
</g>
</g>
<!-- Node1&#45;&gt;Node2 -->
<g id="edge1" class="edge">
<title>Node1&#45;&gt;Node2</title>
<path fill="none" stroke="#63b8ff" d="M1501,-285.56C1501,-277.49 1501,-269.01 1501,-261.66"/>
<polygon fill="#63b8ff" stroke="#63b8ff" points="1504.5,-261.84 1501,-251.84 1497.5,-261.84 1504.5,-261.84"/>
</g>
<!-- Node3 -->
<g id="node3" class="node">
<title>Node3</title>
<g id="a_node3"><a xlink:title=" ">
<polygon fill="#e0e0e0" stroke="#999999" points="1428,-195 1396,-195 1396,-176 1428,-176 1428,-195"/>
<text text-anchor="middle" x="1412" y="-183" font-family="Helvetica,sans-Serif" font-size="10.00">set</text>
</a>
</g>
</g>
<!-- Node2&#45;&gt;Node3 -->
<g id="edge2" class="edge">
<title>Node2&#45;&gt;Node3</title>
<path fill="none" stroke="#63b8ff" d="M1485.9,-230.51C1472.4,-222.47 1452.35,-210.53 1436.54,-201.11"/>
<polygon fill="#63b8ff" stroke="#63b8ff" points="1438.56,-198.24 1428.18,-196.13 1434.98,-204.26 1438.56,-198.24"/>
</g>
<!-- Node4 -->
<g id="node4" class="node">
<title>Node4</title>
<g id="a_node4"><a xlink:title=" ">
<polygon fill="#e0e0e0" stroke="#999999" points="2164.5,-19 2117.5,-19 2117.5,0 2164.5,0 2164.5,-19"/>
<text text-anchor="middle" x="2141" y="-7" font-family="Helvetica,sans-Serif" font-size="10.00">vector</text>
</a>
</g>
</g>
<!-- Node2&#45;&gt;Node4 -->
<g id="edge3" class="edge">
<title>Node2&#45;&gt;Node4</title>
<path fill="none" stroke="#63b8ff" d="M1581.26,-237.65C1730.48,-232.49 2042.28,-213.01 2117,-140 2146.36,-111.31 2146.34,-59.18 2143.72,-30.59"/>
<polygon fill="#63b8ff" stroke="#63b8ff" points="2147.21,-30.32 2142.59,-20.78 2140.25,-31.12 2147.21,-30.32"/>
</g>
<!-- Node5 -->
<g id="node5" class="node">
<title>Node5</title>
<g id="a_node5"><a xlink:href="SharedMemory_8h.html" target="_top" xlink:title=" ">
<polygon fill="white" stroke="#666666" points="868,-140 770,-140 770,-121 868,-121 868,-140"/>
<text text-anchor="middle" x="819" y="-128" font-family="Helvetica,sans-Serif" font-size="10.00">SharedMemory.h</text>
</a>
</g>
</g>
<!-- Node2&#45;&gt;Node5 -->
<g id="edge4" class="edge">
<title>Node2&#45;&gt;Node5</title>
<path fill="none" stroke="#63b8ff" d="M1495.21,-230.56C1485.28,-216.11 1463.5,-188.05 1437,-176 1435.42,-175.28 1034.91,-146.81 879.57,-135.79"/>
<polygon fill="#63b8ff" stroke="#63b8ff" points="880.11,-132.32 869.89,-135.11 879.62,-139.31 880.11,-132.32"/>
</g>
<!-- Node15 -->
<g id="node15" class="node">
<title>Node15</title>
<g id="a_node15"><a xlink:href="SharedStorageTypes_8h.html" target="_top" xlink:title=" ">
<polygon fill="white" stroke="#666666" points="1609.5,-195 1484.5,-195 1484.5,-176 1609.5,-176 1609.5,-195"/>
<text text-anchor="middle" x="1547" y="-183" font-family="Helvetica,sans-Serif" font-size="10.00">SharedStorageTypes.h</text>
</a>
</g>
</g>
<!-- Node2&#45;&gt;Node15 -->
<g id="edge14" class="edge">
<title>Node2&#45;&gt;Node15</title>
<path fill="none" stroke="#63b8ff" d="M1508.6,-230.75C1514.88,-223.5 1524.01,-212.98 1531.8,-204.02"/>
<polygon fill="#63b8ff" stroke="#63b8ff" points="1534.34,-206.43 1538.25,-196.59 1529.05,-201.84 1534.34,-206.43"/>
</g>
<!-- Node6 -->
<g id="node6" class="node">
<title>Node6</title>
<g id="a_node6"><a xlink:title=" ">
<polygon fill="#e0e0e0" stroke="#999999" points="1324,-19 1280,-19 1280,0 1324,0 1324,-19"/>
<text text-anchor="middle" x="1302" y="-7" font-family="Helvetica,sans-Serif" font-size="10.00">string</text>
</a>
</g>
</g>
<!-- Node5&#45;&gt;Node6 -->
<g id="edge5" class="edge">
<title>Node5&#45;&gt;Node6</title>
<path fill="none" stroke="#63b8ff" d="M868.33,-124.89C958.3,-116.24 1142.27,-97.33 1169,-85 1187,-76.7 1185.4,-65.83 1202,-55 1222.95,-41.33 1248.79,-29.95 1268.96,-22.12"/>
<polygon fill="#63b8ff" stroke="#63b8ff" points="1269.97,-25.48 1278.09,-18.68 1267.5,-18.93 1269.97,-25.48"/>
</g>
<!-- Node7 -->
<g id="node7" class="node">
<title>Node7</title>
<g id="a_node7"><a xlink:title=" ">
<polygon fill="#e0e0e0" stroke="#999999" points="1025.5,-85 900.5,-85 900.5,-55 1025.5,-55 1025.5,-85"/>
<text text-anchor="start" x="908.5" y="-73" font-family="Helvetica,sans-Serif" font-size="10.00">boost/interprocess</text>
<text text-anchor="middle" x="963" y="-62" font-family="Helvetica,sans-Serif" font-size="10.00">/containers/deque.hpp</text>
</a>
</g>
</g>
<!-- Node5&#45;&gt;Node7 -->
<g id="edge6" class="edge">
<title>Node5&#45;&gt;Node7</title>
<path fill="none" stroke="#63b8ff" d="M840.87,-120.62C860.97,-112.45 891.43,-100.08 916.89,-89.73"/>
<polygon fill="#63b8ff" stroke="#63b8ff" points="918.11,-93.02 926.05,-86.01 915.47,-86.53 918.11,-93.02"/>
</g>
<!-- Node8 -->
<g id="node8" class="node">
<title>Node8</title>
<g id="a_node8"><a xlink:title=" ">
<polygon fill="#e0e0e0" stroke="#999999" points="1160,-85 1044,-85 1044,-55 1160,-55 1160,-85"/>
<text text-anchor="start" x="1052" y="-73" font-family="Helvetica,sans-Serif" font-size="10.00">boost/interprocess</text>
<text text-anchor="middle" x="1102" y="-62" font-family="Helvetica,sans-Serif" font-size="10.00">/containers/map.hpp</text>
</a>
</g>
</g>
<!-- Node5&#45;&gt;Node8 -->
<g id="edge7" class="edge">
<title>Node5&#45;&gt;Node8</title>
<path fill="none" stroke="#63b8ff" d="M862.29,-120.55C907.61,-111.18 979.45,-96.33 1032.68,-85.33"/>
<polygon fill="#63b8ff" stroke="#63b8ff" points="1033.17,-88.8 1042.25,-83.35 1031.75,-81.95 1033.17,-88.8"/>
</g>
<!-- Node9 -->
<g id="node9" class="node">
<title>Node9</title>
<g id="a_node9"><a xlink:title=" ">
<polygon fill="#e0e0e0" stroke="#999999" points="110,-85 0,-85 0,-55 110,-55 110,-85"/>
<text text-anchor="start" x="8" y="-73" font-family="Helvetica,sans-Serif" font-size="10.00">boost/interprocess</text>
<text text-anchor="middle" x="55" y="-62" font-family="Helvetica,sans-Serif" font-size="10.00">/containers/set.hpp</text>
</a>
</g>
</g>
<!-- Node5&#45;&gt;Node9 -->
<g id="edge8" class="edge">
<title>Node5&#45;&gt;Node9</title>
<path fill="none" stroke="#63b8ff" d="M769.52,-128.93C656.36,-127.08 369.94,-119.25 121.47,-85.2"/>
<polygon fill="#63b8ff" stroke="#63b8ff" points="122.3,-81.78 111.91,-83.87 121.33,-88.71 122.3,-81.78"/>
</g>
<!-- Node10 -->
<g id="node10" class="node">
<title>Node10</title>
<g id="a_node10"><a xlink:title=" ">
<polygon fill="#e0e0e0" stroke="#999999" points="250,-85 128,-85 128,-55 250,-55 250,-85"/>
<text text-anchor="start" x="136" y="-73" font-family="Helvetica,sans-Serif" font-size="10.00">boost/interprocess</text>
<text text-anchor="middle" x="189" y="-62" font-family="Helvetica,sans-Serif" font-size="10.00">/containers/string.hpp</text>
</a>
</g>
</g>
<!-- Node5&#45;&gt;Node10 -->
<g id="edge9" class="edge">
<title>Node5&#45;&gt;Node10</title>
<path fill="none" stroke="#63b8ff" d="M769.72,-127.54C673.81,-123.31 455.17,-111.58 261.63,-85.25"/>
<polygon fill="#63b8ff" stroke="#63b8ff" points="262.27,-81.81 251.89,-83.91 261.32,-88.74 262.27,-81.81"/>
</g>
<!-- Node11 -->
<g id="node11" class="node">
<title>Node11</title>
<g id="a_node11"><a xlink:title=" ">
<polygon fill="#e0e0e0" stroke="#999999" points="393.5,-85 268.5,-85 268.5,-55 393.5,-55 393.5,-85"/>
<text text-anchor="start" x="276.5" y="-73" font-family="Helvetica,sans-Serif" font-size="10.00">boost/interprocess</text>
<text text-anchor="middle" x="331" y="-62" font-family="Helvetica,sans-Serif" font-size="10.00">/containers/vector.hpp</text>
</a>
</g>
</g>
<!-- Node5&#45;&gt;Node11 -->
<g id="edge10" class="edge">
<title>Node5&#45;&gt;Node11</title>
<path fill="none" stroke="#63b8ff" d="M769.52,-125.58C693.45,-119.26 543,-105.57 404.96,-85.2"/>
<polygon fill="#63b8ff" stroke="#63b8ff" points="405.68,-81.77 395.27,-83.76 404.64,-88.7 405.68,-81.77"/>
</g>
<!-- Node12 -->
<g id="node12" class="node">
<title>Node12</title>
<g id="a_node12"><a xlink:title=" ">
<polygon fill="#e0e0e0" stroke="#999999" points="582,-85 412,-85 412,-55 582,-55 582,-85"/>
<text text-anchor="start" x="420" y="-73" font-family="Helvetica,sans-Serif" font-size="10.00">boost/interprocess</text>
<text text-anchor="middle" x="497" y="-62" font-family="Helvetica,sans-Serif" font-size="10.00">/managed_shared_memory.hpp</text>
</a>
</g>
</g>
<!-- Node5&#45;&gt;Node12 -->
<g id="edge11" class="edge">
<title>Node5&#45;&gt;Node12</title>
<path fill="none" stroke="#63b8ff" d="M769.74,-120.55C721.5,-111.79 646.84,-98.22 587.82,-87.5"/>
<polygon fill="#63b8ff" stroke="#63b8ff" points="588.57,-84.08 578.1,-85.73 587.32,-90.97 588.57,-84.08"/>
</g>
<!-- Node13 -->
<g id="node13" class="node">
<title>Node13</title>
<g id="a_node13"><a xlink:title=" ">
<polygon fill="#e0e0e0" stroke="#999999" points="737.5,-85 600.5,-85 600.5,-55 737.5,-55 737.5,-85"/>
<text text-anchor="start" x="608.5" y="-73" font-family="Helvetica,sans-Serif" font-size="10.00">boost/interprocess</text>
<text text-anchor="middle" x="669" y="-62" font-family="Helvetica,sans-Serif" font-size="10.00">/sync/named_mutex.hpp</text>
</a>
</g>
</g>
<!-- Node5&#45;&gt;Node13 -->
<g id="edge12" class="edge">
<title>Node5&#45;&gt;Node13</title>
<path fill="none" stroke="#63b8ff" d="M796.22,-120.62C775.18,-112.41 743.27,-99.97 716.67,-89.59"/>
<polygon fill="#63b8ff" stroke="#63b8ff" points="718.02,-86.36 707.43,-85.99 715.48,-92.88 718.02,-86.36"/>
</g>
<!-- Node14 -->
<g id="node14" class="node">
<title>Node14</title>
<g id="a_node14"><a xlink:title=" ">
<polygon fill="#e0e0e0" stroke="#999999" points="882,-85 756,-85 756,-55 882,-55 882,-85"/>
<text text-anchor="start" x="764" y="-73" font-family="Helvetica,sans-Serif" font-size="10.00">boost/interprocess</text>
<text text-anchor="middle" x="819" y="-62" font-family="Helvetica,sans-Serif" font-size="10.00">/sync/scoped_lock.hpp</text>
</a>
</g>
</g>
<!-- Node5&#45;&gt;Node14 -->
<g id="edge13" class="edge">
<title>Node5&#45;&gt;Node14</title>
<path fill="none" stroke="#63b8ff" d="M819,-120.87C819,-114.4 819,-105.2 819,-96.45"/>
<polygon fill="#63b8ff" stroke="#63b8ff" points="822.5,-96.63 819,-86.63 815.5,-96.63 822.5,-96.63"/>
</g>
<!-- Node15&#45;&gt;Node5 -->
<g id="edge15" class="edge">
<title>Node15&#45;&gt;Node5</title>
<path fill="none" stroke="#63b8ff" d="M1484.41,-177.37C1479.53,-176.88 1474.69,-176.42 1470,-176 1234.39,-155.02 1174.98,-156.36 939,-140 919.67,-138.66 898.59,-137.18 879.57,-135.83"/>
<polygon fill="#63b8ff" stroke="#63b8ff" points="880.06,-132.35 869.84,-135.14 879.57,-139.33 880.06,-132.35"/>
</g>
<!-- Node16 -->
<g id="node16" class="node">
<title>Node16</title>
<g id="a_node16"><a xlink:href="StorageComponentAccess_8h.html" target="_top" xlink:title=" ">
<polygon fill="white" stroke="#666666" points="1554.5,-140 1401.5,-140 1401.5,-121 1554.5,-121 1554.5,-140"/>
<text text-anchor="middle" x="1478" y="-128" font-family="Helvetica,sans-Serif" font-size="10.00">StorageComponentAccess.h</text>
</a>
</g>
</g>
<!-- Node15&#45;&gt;Node16 -->
<g id="edge16" class="edge">
<title>Node15&#45;&gt;Node16</title>
<path fill="none" stroke="#63b8ff" d="M1535.3,-175.51C1525.22,-167.77 1510.46,-156.43 1498.44,-147.2"/>
<polygon fill="#63b8ff" stroke="#63b8ff" points="1500.79,-144.6 1490.73,-141.28 1496.53,-150.15 1500.79,-144.6"/>
</g>
<!-- Node17 -->
<g id="node17" class="node">
<title>Node17</title>
<g id="a_node17"><a xlink:href="types_8h.html" target="_top" xlink:title=" ">
<polygon fill="white" stroke="#666666" points="1573.5,-79.5 1520.5,-79.5 1520.5,-60.5 1573.5,-60.5 1573.5,-79.5"/>
<text text-anchor="middle" x="1547" y="-67.5" font-family="Helvetica,sans-Serif" font-size="10.00">types.h</text>
</a>
</g>
</g>
<!-- Node15&#45;&gt;Node17 -->
<g id="edge44" class="edge">
<title>Node15&#45;&gt;Node17</title>
<path fill="none" stroke="#63b8ff" d="M1609.77,-182.27C1719.56,-177.72 1937.05,-165.55 1960,-140 2011.32,-82.86 1696.55,-73.04 1585.07,-71.35"/>
<polygon fill="#63b8ff" stroke="#63b8ff" points="1585.28,-67.85 1575.23,-71.22 1585.19,-74.85 1585.28,-67.85"/>
</g>
<!-- Node19 -->
<g id="node19" class="node">
<title>Node19</title>
<g id="a_node19"><a xlink:href="StorageEdge_8h.html" target="_top" xlink:title=" ">
<polygon fill="white" stroke="#666666" points="1659.5,-140 1572.5,-140 1572.5,-121 1659.5,-121 1659.5,-140"/>
<text text-anchor="middle" x="1616" y="-128" font-family="Helvetica,sans-Serif" font-size="10.00">StorageEdge.h</text>
</a>
</g>
</g>
<!-- Node15&#45;&gt;Node19 -->
<g id="edge19" class="edge">
<title>Node15&#45;&gt;Node19</title>
<path fill="none" stroke="#63b8ff" d="M1558.7,-175.51C1568.78,-167.77 1583.54,-156.43 1595.56,-147.2"/>
<polygon fill="#63b8ff" stroke="#63b8ff" points="1597.47,-150.15 1603.27,-141.28 1593.21,-144.6 1597.47,-150.15"/>
</g>
<!-- Node20 -->
<g id="node20" class="node">
<title>Node20</title>
<g id="a_node20"><a xlink:href="StorageError_8h.html" target="_top" xlink:title=" ">
<polygon fill="white" stroke="#666666" points="1383,-140 1297,-140 1297,-121 1383,-121 1383,-140"/>
<text text-anchor="middle" x="1340" y="-128" font-family="Helvetica,sans-Serif" font-size="10.00">StorageError.h</text>
</a>
</g>
</g>
<!-- Node15&#45;&gt;Node20 -->
<g id="edge21" class="edge">
<title>Node15&#45;&gt;Node20</title>
<path fill="none" stroke="#63b8ff" d="M1511.89,-175.51C1477.14,-166.61 1423.77,-152.95 1385.73,-143.21"/>
<polygon fill="#63b8ff" stroke="#63b8ff" points="1386.96,-139.91 1376.41,-140.82 1385.23,-146.69 1386.96,-139.91"/>
</g>
<!-- Node23 -->
<g id="node23" class="node">
<title>Node23</title>
<g id="a_node23"><a xlink:href="StorageFile_8h.html" target="_top" xlink:title=" ">
<polygon fill="white" stroke="#666666" points="1279,-140 1199,-140 1199,-121 1279,-121 1279,-140"/>
<text text-anchor="middle" x="1239" y="-128" font-family="Helvetica,sans-Serif" font-size="10.00">StorageFile.h</text>
</a>
</g>
</g>
<!-- Node15&#45;&gt;Node23 -->
<g id="edge28" class="edge">
<title>Node15&#45;&gt;Node23</title>
<path fill="none" stroke="#63b8ff" d="M1494.91,-175.57C1445.05,-167.03 1367.41,-153.7 1290.69,-140.46"/>
<polygon fill="#63b8ff" stroke="#63b8ff" points="1291.32,-137.02 1280.87,-138.77 1290.13,-143.92 1291.32,-137.02"/>
</g>
<!-- Node24 -->
<g id="node24" class="node">
<title>Node24</title>
<g id="a_node24"><a xlink:href="StorageLocalSymbol_8h.html" target="_top" xlink:title=" ">
<polygon fill="white" stroke="#666666" points="1073.5,-140 948.5,-140 948.5,-121 1073.5,-121 1073.5,-140"/>
<text text-anchor="middle" x="1011" y="-128" font-family="Helvetica,sans-Serif" font-size="10.00">StorageLocalSymbol.h</text>
</a>
</g>
</g>
<!-- Node15&#45;&gt;Node24 -->
<g id="edge31" class="edge">
<title>Node15&#45;&gt;Node24</title>
<path fill="none" stroke="#63b8ff" d="M1484.39,-177.5C1479.53,-176.98 1474.68,-176.48 1470,-176 1301.4,-158.87 1256.14,-158.31 1085.16,-140.31"/>
<polygon fill="#63b8ff" stroke="#63b8ff" points="1085.53,-136.83 1075.21,-139.26 1084.79,-143.79 1085.53,-136.83"/>
</g>
<!-- Node25 -->
<g id="node25" class="node">
<title>Node25</title>
<g id="a_node25"><a xlink:href="StorageNode_8h.html" target="_top" xlink:title=" ">
<polygon fill="white" stroke="#666666" points="1180.5,-140 1091.5,-140 1091.5,-121 1180.5,-121 1180.5,-140"/>
<text text-anchor="middle" x="1136" y="-128" font-family="Helvetica,sans-Serif" font-size="10.00">StorageNode.h</text>
</a>
</g>
</g>
<!-- Node15&#45;&gt;Node25 -->
<g id="edge34" class="edge">
<title>Node15&#45;&gt;Node25</title>
<path fill="none" stroke="#63b8ff" d="M1484.04,-177.27C1415.03,-169.21 1300.73,-155.45 1191.96,-140.23"/>
<polygon fill="#63b8ff" stroke="#63b8ff" points="1192.66,-136.8 1182.27,-138.87 1191.69,-143.73 1192.66,-136.8"/>
</g>
<!-- Node26 -->
<g id="node26" class="node">
<title>Node26</title>
<g id="a_node26"><a xlink:href="StorageOccurrence_8h.html" target="_top" xlink:title=" ">
<polygon fill="white" stroke="#666666" points="1796,-140 1678,-140 1678,-121 1796,-121 1796,-140"/>
<text text-anchor="middle" x="1737" y="-128" font-family="Helvetica,sans-Serif" font-size="10.00">StorageOccurrence.h</text>
</a>
</g>
</g>
<!-- Node15&#45;&gt;Node26 -->
<g id="edge37" class="edge">
<title>Node15&#45;&gt;Node26</title>
<path fill="none" stroke="#63b8ff" d="M1579.23,-175.51C1610.85,-166.69 1659.27,-153.18 1694.13,-143.46"/>
<polygon fill="#63b8ff" stroke="#63b8ff" points="1694.78,-146.91 1703.47,-140.85 1692.9,-140.17 1694.78,-146.91"/>
</g>
<!-- Node27 -->
<g id="node27" class="node">
<title>Node27</title>
<g id="a_node27"><a xlink:href="StorageSourceLocation_8h.html" target="_top" xlink:title=" ">
<polygon fill="white" stroke="#666666" points="1951.5,-140 1814.5,-140 1814.5,-121 1951.5,-121 1951.5,-140"/>
<text text-anchor="middle" x="1883" y="-128" font-family="Helvetica,sans-Serif" font-size="10.00">StorageSourceLocation.h</text>
</a>
</g>
</g>
<!-- Node15&#45;&gt;Node27 -->
<g id="edge39" class="edge">
<title>Node15&#45;&gt;Node27</title>
<path fill="none" stroke="#63b8ff" d="M1604,-175.51C1662.25,-166.32 1752.74,-152.05 1814.77,-142.26"/>
<polygon fill="#63b8ff" stroke="#63b8ff" points="1815.18,-145.74 1824.51,-140.73 1814.09,-138.83 1815.18,-145.74"/>
</g>
<!-- Node28 -->
<g id="node28" class="node">
<title>Node28</title>
<g id="a_node28"><a xlink:href="StorageSymbol_8h.html" target="_top" xlink:title=" ">
<polygon fill="white" stroke="#666666" points="2108,-140 2008,-140 2008,-121 2108,-121 2108,-140"/>
<text text-anchor="middle" x="2058" y="-128" font-family="Helvetica,sans-Serif" font-size="10.00">StorageSymbol.h</text>
</a>
</g>
</g>
<!-- Node15&#45;&gt;Node28 -->
<g id="edge41" class="edge">
<title>Node15&#45;&gt;Node28</title>
<path fill="none" stroke="#63b8ff" d="M1609.99,-178.89C1696.6,-171.02 1857.27,-155.88 1994,-140 1994.84,-139.9 1995.68,-139.8 1996.52,-139.7"/>
<polygon fill="#63b8ff" stroke="#63b8ff" points="1996.71,-143.21 2006.21,-138.52 1995.86,-136.26 1996.71,-143.21"/>
</g>
<!-- Node30 -->
<g id="node30" class="node">
<title>Node30</title>
<g id="a_node30"><a xlink:href="utilityString_8h.html" target="_top" xlink:title=" ">
<polygon fill="white" stroke="#666666" points="2285.5,-79.5 2202.5,-79.5 2202.5,-60.5 2285.5,-60.5 2285.5,-79.5"/>
<text text-anchor="middle" x="2244" y="-67.5" font-family="Helvetica,sans-Serif" font-size="10.00">utilityString.h</text>
</a>
</g>
</g>
<!-- Node15&#45;&gt;Node30 -->
<g id="edge45" class="edge">
<title>Node15&#45;&gt;Node30</title>
<path fill="none" stroke="#63b8ff" d="M1609.91,-182.89C1737.7,-179.09 2023.49,-167.68 2117,-140 2156.79,-128.22 2198.17,-102.87 2222.48,-86.39"/>
<polygon fill="#63b8ff" stroke="#63b8ff" points="2224.33,-89.37 2230.56,-80.8 2220.34,-83.61 2224.33,-89.37"/>
</g>
<!-- Node16&#45;&gt;Node17 -->
<g id="edge17" class="edge">
<title>Node16&#45;&gt;Node17</title>
<path fill="none" stroke="#63b8ff" d="M1488.48,-120.62C1498.92,-111.77 1515.17,-97.98 1527.91,-87.19"/>
<polygon fill="#63b8ff" stroke="#63b8ff" points="1529.9,-90.08 1535.27,-80.95 1525.38,-84.74 1529.9,-90.08"/>
</g>
<!-- Node18 -->
<g id="node18" class="node">
<title>Node18</title>
<g id="a_node18"><a xlink:title=" ">
<polygon fill="#e0e0e0" stroke="#999999" points="1573.5,-19 1520.5,-19 1520.5,0 1573.5,0 1573.5,-19"/>
<text text-anchor="middle" x="1547" y="-7" font-family="Helvetica,sans-Serif" font-size="10.00">cstddef</text>
</a>
</g>
</g>
<!-- Node17&#45;&gt;Node18 -->
<g id="edge18" class="edge">
<title>Node17&#45;&gt;Node18</title>
<path fill="none" stroke="#63b8ff" d="M1547,-60.37C1547,-52.5 1547,-40.6 1547,-30.39"/>
<polygon fill="#63b8ff" stroke="#63b8ff" points="1550.5,-30.68 1547,-20.68 1543.5,-30.68 1550.5,-30.68"/>
</g>
<!-- Node19&#45;&gt;Node17 -->
<g id="edge20" class="edge">
<title>Node19&#45;&gt;Node17</title>
<path fill="none" stroke="#63b8ff" d="M1605.52,-120.62C1595.08,-111.77 1578.83,-97.98 1566.09,-87.19"/>
<polygon fill="#63b8ff" stroke="#63b8ff" points="1568.62,-84.74 1558.73,-80.95 1564.1,-90.08 1568.62,-84.74"/>
</g>
<!-- Node20&#45;&gt;Node6 -->
<g id="edge22" class="edge">
<title>Node20&#45;&gt;Node6</title>
<path fill="none" stroke="#63b8ff" d="M1337.14,-120.56C1331.03,-101.42 1316.58,-56.15 1308.23,-30.02"/>
<polygon fill="#63b8ff" stroke="#63b8ff" points="1311.62,-29.13 1305.25,-20.67 1304.95,-31.26 1311.62,-29.13"/>
</g>
<!-- Node20&#45;&gt;Node17 -->
<g id="edge27" class="edge">
<title>Node20&#45;&gt;Node17</title>
<path fill="none" stroke="#63b8ff" d="M1371.44,-120.62C1408.39,-110.17 1469.68,-92.85 1509.19,-81.68"/>
<polygon fill="#63b8ff" stroke="#63b8ff" points="1510.09,-85.07 1518.76,-78.98 1508.18,-78.33 1510.09,-85.07"/>
</g>
<!-- Node21 -->
<g id="node21" class="node">
<title>Node21</title>
<g id="a_node21"><a xlink:href="FilePath_8h.html" target="_top" xlink:title=" ">
<polygon fill="white" stroke="#666666" points="1432,-79.5 1368,-79.5 1368,-60.5 1432,-60.5 1432,-79.5"/>
<text text-anchor="middle" x="1400" y="-67.5" font-family="Helvetica,sans-Serif" font-size="10.00">FilePath.h</text>
</a>
</g>
</g>
<!-- Node20&#45;&gt;Node21 -->
<g id="edge23" class="edge">
<title>Node20&#45;&gt;Node21</title>
<path fill="none" stroke="#63b8ff" d="M1349.11,-120.62C1358.01,-111.94 1371.78,-98.52 1382.75,-87.82"/>
<polygon fill="#63b8ff" stroke="#63b8ff" points="1385,-90.51 1389.72,-81.03 1380.11,-85.5 1385,-90.51"/>
</g>
<!-- Node21&#45;&gt;Node4 -->
<g id="edge26" class="edge">
<title>Node21&#45;&gt;Node4</title>
<path fill="none" stroke="#63b8ff" d="M1432.49,-64.42C1454.59,-61.43 1484.52,-57.6 1511,-55 1737.3,-32.75 2010.38,-17.35 2105.95,-12.3"/>
<polygon fill="#63b8ff" stroke="#63b8ff" points="2105.9,-15.81 2115.71,-11.79 2105.54,-8.82 2105.9,-15.81"/>
</g>
<!-- Node21&#45;&gt;Node6 -->
<g id="edge25" class="edge">
<title>Node21&#45;&gt;Node6</title>
<path fill="none" stroke="#63b8ff" d="M1385.12,-60.12C1369.65,-50.88 1345.17,-36.27 1326.78,-25.29"/>
<polygon fill="#63b8ff" stroke="#63b8ff" points="1328.7,-22.36 1318.32,-20.24 1325.12,-28.38 1328.7,-22.36"/>
</g>
<!-- Node22 -->
<g id="node22" class="node">
<title>Node22</title>
<g id="a_node22"><a xlink:title=" ">
<polygon fill="#e0e0e0" stroke="#999999" points="1429,-19 1371,-19 1371,0 1429,0 1429,-19"/>
<text text-anchor="middle" x="1400" y="-7" font-family="Helvetica,sans-Serif" font-size="10.00">memory</text>
</a>
</g>
</g>
<!-- Node21&#45;&gt;Node22 -->
<g id="edge24" class="edge">
<title>Node21&#45;&gt;Node22</title>
<path fill="none" stroke="#63b8ff" d="M1400,-60.37C1400,-52.5 1400,-40.6 1400,-30.39"/>
<polygon fill="#63b8ff" stroke="#63b8ff" points="1403.5,-30.68 1400,-20.68 1396.5,-30.68 1403.5,-30.68"/>
</g>
<!-- Node23&#45;&gt;Node6 -->
<g id="edge29" class="edge">
<title>Node23&#45;&gt;Node6</title>
<path fill="none" stroke="#63b8ff" d="M1248.59,-120.82C1257.34,-112.42 1270.1,-98.94 1278,-85 1287.83,-67.65 1294.28,-45.71 1297.99,-30.14"/>
<polygon fill="#63b8ff" stroke="#63b8ff" points="1301.34,-31.23 1300.07,-20.71 1294.5,-29.72 1301.34,-31.23"/>
</g>
<!-- Node23&#45;&gt;Node17 -->
<g id="edge30" class="edge">
<title>Node23&#45;&gt;Node17</title>
<path fill="none" stroke="#63b8ff" d="M1279.27,-121.85C1339.07,-110.49 1450.56,-89.32 1509.01,-78.21"/>
<polygon fill="#63b8ff" stroke="#63b8ff" points="1509.65,-81.66 1518.82,-76.35 1508.34,-74.78 1509.65,-81.66"/>
</g>
<!-- Node24&#45;&gt;Node6 -->
<g id="edge32" class="edge">
<title>Node24&#45;&gt;Node6</title>
<path fill="none" stroke="#63b8ff" d="M1073.96,-121.94C1112.36,-115.63 1161.66,-104.42 1202,-85 1221.39,-75.67 1222.81,-67.94 1240,-55 1253.23,-45.04 1268.32,-34.19 1280.3,-25.71"/>
<polygon fill="#63b8ff" stroke="#63b8ff" points="1282.14,-28.7 1288.29,-20.07 1278.1,-22.98 1282.14,-28.7"/>
</g>
<!-- Node24&#45;&gt;Node17 -->
<g id="edge33" class="edge">
<title>Node24&#45;&gt;Node17</title>
<path fill="none" stroke="#63b8ff" d="M1073.71,-121.93C1076.51,-121.61 1079.29,-121.3 1082,-121 1241.39,-103.47 1281.72,-103.5 1441,-85 1463.5,-82.39 1488.64,-79.08 1508.79,-76.34"/>
<polygon fill="#63b8ff" stroke="#63b8ff" points="1509.09,-79.83 1518.52,-75.01 1508.13,-72.9 1509.09,-79.83"/>
</g>
<!-- Node25&#45;&gt;Node6 -->
<g id="edge35" class="edge">
<title>Node25&#45;&gt;Node6</title>
<path fill="none" stroke="#63b8ff" d="M1166.66,-120.65C1188.5,-113.37 1217.8,-101.55 1240,-85 1261,-69.34 1279.39,-45.18 1290.58,-28.64"/>
<polygon fill="#63b8ff" stroke="#63b8ff" points="1293.2,-31.03 1295.74,-20.74 1287.34,-27.2 1293.2,-31.03"/>
</g>
<!-- Node25&#45;&gt;Node17 -->
<g id="edge36" class="edge">
<title>Node25&#45;&gt;Node17</title>
<path fill="none" stroke="#63b8ff" d="M1180.78,-122.39C1183.9,-121.91 1187,-121.45 1190,-121 1305.97,-103.75 1443.39,-84.97 1508.76,-76.14"/>
<polygon fill="#63b8ff" stroke="#63b8ff" points="1509.16,-79.62 1518.61,-74.81 1508.23,-72.68 1509.16,-79.62"/>
</g>
<!-- Node26&#45;&gt;Node17 -->
<g id="edge38" class="edge">
<title>Node26&#45;&gt;Node17</title>
<path fill="none" stroke="#63b8ff" d="M1708.14,-120.62C1675.12,-110.45 1620.93,-93.76 1584.62,-82.58"/>
<polygon fill="#63b8ff" stroke="#63b8ff" points="1586.01,-79.35 1575.42,-79.75 1583.95,-86.04 1586.01,-79.35"/>
</g>
<!-- Node27&#45;&gt;Node17 -->
<g id="edge40" class="edge">
<title>Node27&#45;&gt;Node17</title>
<path fill="none" stroke="#63b8ff" d="M1831.6,-120.55C1763.7,-108.73 1645.64,-88.17 1585.14,-77.64"/>
<polygon fill="#63b8ff" stroke="#63b8ff" points="1585.78,-74.2 1575.33,-75.93 1584.58,-81.1 1585.78,-74.2"/>
</g>
<!-- Node28&#45;&gt;Node17 -->
<g id="edge43" class="edge">
<title>Node28&#45;&gt;Node17</title>
<path fill="none" stroke="#63b8ff" d="M2007.7,-122.72C2003.07,-122.13 1998.45,-121.54 1994,-121 1842.68,-102.49 1662.19,-83.13 1585.03,-74.99"/>
<polygon fill="#63b8ff" stroke="#63b8ff" points="1585.8,-71.55 1575.48,-73.98 1585.06,-78.51 1585.8,-71.55"/>
</g>
<!-- Node29 -->
<g id="node29" class="node">
<title>Node29</title>
<g id="a_node29"><a xlink:href="DefinitionKind_8h.html" target="_top" xlink:title=" ">
<polygon fill="white" stroke="#666666" points="2105.5,-79.5 2010.5,-79.5 2010.5,-60.5 2105.5,-60.5 2105.5,-79.5"/>
<text text-anchor="middle" x="2058" y="-67.5" font-family="Helvetica,sans-Serif" font-size="10.00">DefinitionKind.h</text>
</a>
</g>
</g>
<!-- Node28&#45;&gt;Node29 -->
<g id="edge42" class="edge">
<title>Node28&#45;&gt;Node29</title>
<path fill="none" stroke="#63b8ff" d="M2058,-120.87C2058,-113 2058,-101.1 2058,-90.89"/>
<polygon fill="#63b8ff" stroke="#63b8ff" points="2061.5,-91.18 2058,-81.18 2054.5,-91.18 2061.5,-91.18"/>
</g>
<!-- Node30&#45;&gt;Node4 -->
<g id="edge50" class="edge">
<title>Node30&#45;&gt;Node4</title>
<path fill="none" stroke="#63b8ff" d="M2228.36,-60.12C2212.02,-50.84 2186.13,-36.13 2166.77,-25.14"/>
<polygon fill="#63b8ff" stroke="#63b8ff" points="2168.53,-22.11 2158.11,-20.22 2165.07,-28.2 2168.53,-22.11"/>
</g>
<!-- Node30&#45;&gt;Node6 -->
<g id="edge49" class="edge">
<title>Node30&#45;&gt;Node6</title>
<path fill="none" stroke="#63b8ff" d="M2202.2,-63.86C2176.74,-60.89 2143.53,-57.3 2114,-55 1780.4,-29.07 1695.12,-50.5 1362,-19 1353.43,-18.19 1344.21,-17.03 1335.63,-15.83"/>
<polygon fill="#63b8ff" stroke="#63b8ff" points="1336.35,-12.39 1325.95,-14.4 1335.33,-19.32 1336.35,-12.39"/>
</g>
<!-- Node31 -->
<g id="node31" class="node">
<title>Node31</title>
<g id="a_node31"><a xlink:title=" ">
<polygon fill="#e0e0e0" stroke="#999999" points="2386,-19 2322,-19 2322,0 2386,0 2386,-19"/>
<text text-anchor="middle" x="2354" y="-7" font-family="Helvetica,sans-Serif" font-size="10.00">algorithm</text>
</a>
</g>
</g>
<!-- Node30&#45;&gt;Node31 -->
<g id="edge46" class="edge">
<title>Node30&#45;&gt;Node31</title>
<path fill="none" stroke="#63b8ff" d="M2260.71,-60.12C2278.31,-50.75 2306.31,-35.86 2327.05,-24.83"/>
<polygon fill="#63b8ff" stroke="#63b8ff" points="2328.61,-27.96 2335.8,-20.18 2325.33,-21.78 2328.61,-27.96"/>
</g>
<!-- Node32 -->
<g id="node32" class="node">
<title>Node32</title>
<g id="a_node32"><a xlink:title=" ">
<polygon fill="#e0e0e0" stroke="#999999" points="2229.5,-19 2182.5,-19 2182.5,0 2229.5,0 2229.5,-19"/>
<text text-anchor="middle" x="2206" y="-7" font-family="Helvetica,sans-Serif" font-size="10.00">deque</text>
</a>
</g>
</g>
<!-- Node30&#45;&gt;Node32 -->
<g id="edge47" class="edge">
<title>Node30&#45;&gt;Node32</title>
<path fill="none" stroke="#63b8ff" d="M2238.39,-60.37C2233,-52.07 2224.69,-39.28 2217.84,-28.72"/>
<polygon fill="#63b8ff" stroke="#63b8ff" points="2220.84,-26.92 2212.45,-20.44 2214.97,-30.73 2220.84,-26.92"/>
</g>
<!-- Node33 -->
<g id="node33" class="node">
<title>Node33</title>
<g id="a_node33"><a xlink:title=" ">
<polygon fill="#e0e0e0" stroke="#999999" points="2304,-19 2248,-19 2248,0 2304,0 2304,-19"/>
<text text-anchor="middle" x="2276" y="-7" font-family="Helvetica,sans-Serif" font-size="10.00">sstream</text>
</a>
</g>
</g>
<!-- Node30&#45;&gt;Node33 -->
<g id="edge48" class="edge">
<title>Node30&#45;&gt;Node33</title>
<path fill="none" stroke="#63b8ff" d="M2248.72,-60.37C2253.21,-52.16 2260.11,-39.54 2265.85,-29.05"/>
<polygon fill="#63b8ff" stroke="#63b8ff" points="2268.8,-30.95 2270.53,-20.5 2262.66,-27.59 2268.8,-30.95"/>
</g>
</g>
</svg>
        <g id="navigator" transform="translate(0 0)" fill="#404254">
                <rect fill="#f2f5e9" fill-opacity="0.5" stroke="#606060" stroke-width=".5" x="0" y="0" width="60" height="60"/>
                <use id="zoomplus" xlink:href="#zoomPlus" x="17" y="9" onmousedown="handleZoom(evt,'in')"/>
                <use id="zoomminus" xlink:href="#zoomMin" x="42" y="9" onmousedown="handleZoom(evt,'out')"/>
                <use id="reset" xlink:href="#resetDef" x="30" y="36" onmousedown="handleReset()"/>
                <g id="arrowUp" xlink:href="#dirArrow" transform="translate(30 24)" onmousedown="handlePan(0,-1)">
                  <use xlink:href="#rim" fill="#404040">
                        <set attributeName="fill" to="#808080" begin="arrowUp.mouseover" end="arrowUp.mouseout"/>
                  </use>
                  <path fill="none" stroke="white" stroke-width="1.5" d="M0,-3.0v7 M-2.5,-0.5L0,-3.0L2.5,-0.5"/>
                </g>
                <g id="arrowRight" xlink:href="#dirArrow" transform="rotate(90) translate(36 -43)" onmousedown="handlePan(1,0)">
                  <use xlink:href="#rim" fill="#404040">
                        <set attributeName="fill" to="#808080" begin="arrowRight.mouseover" end="arrowRight.mouseout"/>
                  </use>
                  <path fill="none" stroke="white" stroke-width="1.5" d="M0,-3.0v7 M-2.5,-0.5L0,-3.0L2.5,-0.5"/>
                </g>
                <g id="arrowDown" xlink:href="#dirArrow" transform="rotate(180) translate(-30 -48)" onmousedown="handlePan(0,1)">
                  <use xlink:href="#rim" fill="#404040">
                        <set attributeName="fill" to="#808080" begin="arrowDown.mouseover" end="arrowDown.mouseout"/>
                  </use>
                  <path fill="none" stroke="white" stroke-width="1.5" d="M0,-3.0v7 M-2.5,-0.5L0,-3.0L2.5,-0.5"/>
                </g>
                <g id="arrowLeft" xlink:href="#dirArrow" transform="rotate(270) translate(-36 17)" onmousedown="handlePan(-1,0)">
                  <use xlink:href="#rim" fill="#404040">
                        <set attributeName="fill" to="#808080" begin="arrowLeft.mouseover" end="arrowLeft.mouseout"/>
                  </use>
                  <path fill="none" stroke="white" stroke-width="1.5" d="M0,-3.0v7 M-2.5,-0.5L0,-3.0L2.5,-0.5"/>
                </g>
        </g>
        <svg viewBox="0 0 15 15" width="100%" height="30px" preserveAspectRatio="xMaxYMin meet">
         <g id="arrow_out" transform="scale(0.3 0.3)">
          <a xlink:href="SharedIntermediateStorage_8cpp__incl_org.svg" target="_base">
           <rect id="button" ry="5" rx="5" y="6" x="6" height="38" width="38"
                fill="#f2f5e9" fill-opacity="0.5" stroke="#606060" stroke-width="1.0"/>
           <path id="arrow"
             d="M 11.500037,31.436501 C 11.940474,20.09759 22.043105,11.32322 32.158766,21.979434 L 37.068811,17.246167 C 37.068811,17.246167 37.088388,32 37.088388,32 L 22.160133,31.978069 C 22.160133,31.978069 26.997745,27.140456 26.997745,27.140456 C 18.528582,18.264221 13.291696,25.230495 11.500037,31.436501 z"
             style="fill:#404040;"/>
          </a>
         </g>
        </svg>
</svg>
