<?xml version="1.0" encoding="UTF-8" standalone="no"?>
<!DOCTYPE svg PUBLIC "-//W3C//DTD SVG 1.1//EN"
 "http://www.w3.org/Graphics/SVG/1.1/DTD/svg11.dtd">
<!-- Generated by graphviz version 9.0.0 (0)
 -->
<!-- Title: /home/ahussein/Documents/archive/opensourcesourcetrail.github.io/.ignore/src/src/lib/settings/source_group/type/SourceGroupSettingsCustomCommand.h Pages: 1 -->
<!--zoomable 376 -->

<svg id="main" version="1.1" xmlns="http://www.w3.org/2000/svg" xmlns:xlink="http://www.w3.org/1999/xlink" xml:space="preserve" onload="init(evt)">
<style type="text/css"><![CDATA[
.node, .edge {opacity: 0.7;}
.node.selected, .edge.selected {opacity: 1;}
.edge:hover path { stroke: red; }
.edge:hover polygon { stroke: red; fill: red; }
]]></style>

<defs>
  <circle id="rim" cx="0" cy="0" r="7"/>
  <circle id="rim2" cx="0" cy="0" r="3.5"/>
  <g id="zoomPlus">
    <use xlink:href="#rim" fill="#404040"><set attributeName="fill" to="#808080" begin="zoomplus.mouseover" end="zoomplus.mouseout"/></use>
    <path d="M-4,0h8M0,-4v8" fill="none" stroke="white" stroke-width="1.5" pointer-events="none"/>
  </g>
  <g id="zoomMin">
    <use xlink:href="#rim" fill="#404040"><set attributeName="fill" to="#808080" begin="zoomminus.mouseover" end="zoomminus.mouseout"/></use>
    <path d="M-4,0h8" fill="none" stroke="white" stroke-width="1.5" pointer-events="none"/>
  </g>
  <g id="arrowUp" transform="translate(30 24)">
    <use xlink:href="#rim"/>
    <path pointer-events="none" fill="none" stroke="white" stroke-width="1.5" d="M0,-3.0v7 M-2.5,-0.5L0,-3.0L2.5,-0.5"/>
  </g>
  <g id="arrowRight" transform="rotate(90) translate(36 -43)">
    <use xlink:href="#rim"/>
    <path pointer-events="none" fill="none" stroke="white" stroke-width="1.5" d="M0,-3.0v7 M-2.5,-0.5L0,-3.0L2.5,-0.5"/>
  </g>
  <g id="arrowDown" transform="rotate(180) translate(-30 -48)">
    <use xlink:href="#rim"/>
    <path pointer-events="none" fill="none" stroke="white" stroke-width="1.5" d="M0,-3.0v7 M-2.5,-0.5L0,-3.0L2.5,-0.5"/>
  </g>
  <g id="arrowLeft" transform="rotate(270) translate(-36 17)">
    <use xlink:href="#rim"/>
    <path pointer-events="none" fill="none" stroke="white" stroke-width="1.5" d="M0,-3.0v7 M-2.5,-0.5L0,-3.0L2.5,-0.5"/>
  </g>
  <g id="resetDef">
    <use xlink:href="#rim2" fill="#404040"><set attributeName="fill" to="#808080" begin="reset.mouseover" end="reset.mouseout"/></use>
  </g>
</defs>
<script type="application/ecmascript">
var viewWidth = 981;
var viewHeight = 376;
var sectionId = 'dynsection-0';
</script>
<script type="application/ecmascript" xlink:href="svg.min.js"/>
<svg id="graph" class="graph">
<g id="viewport">
<title>/home/ahussein/Documents/archive/opensourcesourcetrail.github.io/.ignore/src/src/lib/settings/source_group/type/SourceGroupSettingsCustomCommand.h</title>
<!-- Node1 -->
<g id="Node000001" class="node">
<title>Node1</title>
<g id="a_Node000001"><a xlink:title=" ">
<polygon fill="#999999" stroke="#666666" points="537.75,-368.25 262.25,-368.25 262.25,-309.25 537.75,-309.25 537.75,-368.25"/>
<text text-anchor="start" x="270.25" y="-354.75" font-family="Helvetica,sans-Serif" font-size="10.00">/home/ahussein/Documents</text>
<text text-anchor="start" x="270.25" y="-342" font-family="Helvetica,sans-Serif" font-size="10.00">/archive/opensourcesourcetrail.github.io</text>
<text text-anchor="start" x="270.25" y="-329.25" font-family="Helvetica,sans-Serif" font-size="10.00">/.ignore/src/src/lib/settings/source</text>
<text text-anchor="middle" x="400" y="-316.5" font-family="Helvetica,sans-Serif" font-size="10.00">_group/type/SourceGroupSettingsCustomCommand.h</text>
</a>
</g>
</g>
<!-- Node2 -->
<g id="Node000002" class="node">
<title>Node2</title>
<g id="a_Node000002"><a xlink:href="SourceGroupSettingsWithComponents_8h.html" target="_top" xlink:title=" ">
<polygon fill="white" stroke="#666666" points="830.5,-266.88 619.5,-266.88 619.5,-246.12 830.5,-246.12 830.5,-266.88"/>
<text text-anchor="middle" x="725" y="-253.38" font-family="Helvetica,sans-Serif" font-size="10.00">SourceGroupSettingsWithComponents.h</text>
</a>
</g>
</g>
<!-- Node1&#45;&gt;Node2 -->
<g id="edge1_Node000001_Node000002" class="edge">
<title>Node1&#45;&gt;Node2</title>
<g id="a_edge1_Node000001_Node000002"><a xlink:title=" ">
<path fill="none" stroke="#63b8ff" d="M517.33,-308.78C571.29,-295.45 632.48,-280.35 674.37,-270"/>
<polygon fill="#63b8ff" stroke="#63b8ff" points="675.05,-273.44 683.92,-267.64 673.38,-266.64 675.05,-273.44"/>
</a>
</g>
</g>
<!-- Node12 -->
<g id="Node000012" class="node">
<title>Node12</title>
<g id="a_Node000012"><a xlink:href="SourceGroupSettingsWithCustomCommand_8h.html" target="_top" xlink:title=" ">
<polygon fill="white" stroke="#666666" points="178,-273.25 0,-273.25 0,-239.75 178,-239.75 178,-273.25"/>
<text text-anchor="start" x="8" y="-259.75" font-family="Helvetica,sans-Serif" font-size="10.00">SourceGroupSettingsWithCustom</text>
<text text-anchor="middle" x="89" y="-247" font-family="Helvetica,sans-Serif" font-size="10.00">Command.h</text>
</a>
</g>
</g>
<!-- Node1&#45;&gt;Node12 -->
<g id="edge14_Node000001_Node000012" class="edge">
<title>Node1&#45;&gt;Node12</title>
<g id="a_edge14_Node000001_Node000012"><a xlink:title=" ">
<path fill="none" stroke="#63b8ff" d="M287.72,-308.78C246.07,-298.03 199.93,-286.12 162.6,-276.49"/>
<polygon fill="#63b8ff" stroke="#63b8ff" points="163.84,-273.2 153.28,-274.09 162.09,-279.98 163.84,-273.2"/>
</a>
</g>
</g>
<!-- Node14 -->
<g id="Node000014" class="node">
<title>Node14</title>
<g id="a_Node000014"><a xlink:href="SourceGroupSettingsWithExcludeFilters_8h.html" target="_top" xlink:title=" ">
<polygon fill="white" stroke="#666666" points="510.38,-203.75 331.62,-203.75 331.62,-170.25 510.38,-170.25 510.38,-203.75"/>
<text text-anchor="start" x="339.62" y="-190.25" font-family="Helvetica,sans-Serif" font-size="10.00">SourceGroupSettingsWithExclude</text>
<text text-anchor="middle" x="421" y="-177.5" font-family="Helvetica,sans-Serif" font-size="10.00">Filters.h</text>
</a>
</g>
</g>
<!-- Node1&#45;&gt;Node14 -->
<g id="edge18_Node000001_Node000014" class="edge">
<title>Node1&#45;&gt;Node14</title>
<g id="a_edge18_Node000001_Node000014"><a xlink:title=" ">
<path fill="none" stroke="#63b8ff" d="M404.05,-308.88C407.85,-281.75 413.5,-241.48 417.22,-214.99"/>
<polygon fill="#63b8ff" stroke="#63b8ff" points="420.64,-215.77 418.56,-205.38 413.71,-214.8 420.64,-215.77"/>
</a>
</g>
</g>
<!-- Node15 -->
<g id="Node000015" class="node">
<title>Node15</title>
<g id="a_Node000015"><a xlink:href="SourceGroupSettingsWithSourceExtensionsEmpty_8h.html" target="_top" xlink:title=" ">
<polygon fill="white" stroke="#666666" points="370.75,-273.25 197.25,-273.25 197.25,-239.75 370.75,-239.75 370.75,-273.25"/>
<text text-anchor="start" x="205.25" y="-259.75" font-family="Helvetica,sans-Serif" font-size="10.00">SourceGroupSettingsWithSource</text>
<text text-anchor="middle" x="284" y="-247" font-family="Helvetica,sans-Serif" font-size="10.00">ExtensionsEmpty.h</text>
</a>
</g>
</g>
<!-- Node1&#45;&gt;Node15 -->
<g id="edge21_Node000001_Node000015" class="edge">
<title>Node1&#45;&gt;Node15</title>
<g id="a_edge21_Node000001_Node000015"><a xlink:title=" ">
<path fill="none" stroke="#63b8ff" d="M358.12,-308.78C344.47,-299.33 329.52,-288.99 316.65,-280.09"/>
<polygon fill="#63b8ff" stroke="#63b8ff" points="318.72,-277.27 308.51,-274.46 314.74,-283.02 318.72,-277.27"/>
</a>
</g>
</g>
<!-- Node17 -->
<g id="Node000017" class="node">
<title>Node17</title>
<g id="a_Node000017"><a xlink:href="SourceGroupSettingsWithSourcePaths_8h.html" target="_top" xlink:title=" ">
<polygon fill="white" stroke="#666666" points="601.75,-273.25 428.25,-273.25 428.25,-239.75 601.75,-239.75 601.75,-273.25"/>
<text text-anchor="start" x="436.25" y="-259.75" font-family="Helvetica,sans-Serif" font-size="10.00">SourceGroupSettingsWithSource</text>
<text text-anchor="middle" x="515" y="-247" font-family="Helvetica,sans-Serif" font-size="10.00">Paths.h</text>
</a>
</g>
</g>
<!-- Node1&#45;&gt;Node17 -->
<g id="edge25_Node000001_Node000017" class="edge">
<title>Node1&#45;&gt;Node17</title>
<g id="a_edge25_Node000001_Node000017"><a xlink:title=" ">
<path fill="none" stroke="#63b8ff" d="M441.52,-308.78C455.05,-299.33 469.87,-288.99 482.63,-280.09"/>
<polygon fill="#63b8ff" stroke="#63b8ff" points="484.5,-283.05 490.69,-274.46 480.49,-277.31 484.5,-283.05"/>
</a>
</g>
</g>
<!-- Node3 -->
<g id="Node000003" class="node">
<title>Node3</title>
<g id="a_Node000003"><a xlink:href="SourceGroupSettings_8h.html" target="_top" xlink:title=" ">
<polygon fill="white" stroke="#666666" points="788.5,-197.38 661.5,-197.38 661.5,-176.62 788.5,-176.62 788.5,-197.38"/>
<text text-anchor="middle" x="725" y="-183.88" font-family="Helvetica,sans-Serif" font-size="10.00">SourceGroupSettings.h</text>
</a>
</g>
</g>
<!-- Node2&#45;&gt;Node3 -->
<g id="edge2_Node000002_Node000003" class="edge">
<title>Node2&#45;&gt;Node3</title>
<g id="a_edge2_Node000002_Node000003"><a xlink:title=" ">
<path fill="none" stroke="#63b8ff" d="M725,-245.83C725,-236.21 725,-221.13 725,-208.79"/>
<polygon fill="#63b8ff" stroke="#63b8ff" points="728.5,-209.17 725,-199.17 721.5,-209.17 728.5,-209.17"/>
</a>
</g>
</g>
<!-- Node4 -->
<g id="Node000004" class="node">
<title>Node4</title>
<g id="a_Node000004"><a xlink:title=" ">
<polygon fill="#e0e0e0" stroke="#999999" points="636.62,-134.25 579.38,-134.25 579.38,-113.5 636.62,-113.5 636.62,-134.25"/>
<text text-anchor="middle" x="608" y="-120.75" font-family="Helvetica,sans-Serif" font-size="10.00">memory</text>
</a>
</g>
</g>
<!-- Node3&#45;&gt;Node4 -->
<g id="edge3_Node000003_Node000004" class="edge">
<title>Node3&#45;&gt;Node4</title>
<g id="a_edge3_Node000003_Node000004"><a xlink:title=" ">
<path fill="none" stroke="#63b8ff" d="M706.2,-176.18C687.44,-166.38 658.36,-151.18 636.71,-139.87"/>
<polygon fill="#63b8ff" stroke="#63b8ff" points="638.58,-136.9 628.09,-135.37 635.34,-143.1 638.58,-136.9"/>
</a>
</g>
</g>
<!-- Node5 -->
<g id="Node000005" class="node">
<title>Node5</title>
<g id="a_Node000005"><a xlink:title=" ">
<polygon fill="#e0e0e0" stroke="#999999" points="437.38,-134.25 390.62,-134.25 390.62,-113.5 437.38,-113.5 437.38,-134.25"/>
<text text-anchor="middle" x="414" y="-120.75" font-family="Helvetica,sans-Serif" font-size="10.00">vector</text>
</a>
</g>
</g>
<!-- Node3&#45;&gt;Node5 -->
<g id="edge4_Node000003_Node000005" class="edge">
<title>Node3&#45;&gt;Node5</title>
<g id="a_edge4_Node000003_Node000005"><a xlink:title=" ">
<path fill="none" stroke="#63b8ff" d="M675.03,-176.18C611.69,-163.73 504.1,-142.58 448.92,-131.74"/>
<polygon fill="#63b8ff" stroke="#63b8ff" points="449.63,-128.31 439.14,-129.82 448.28,-135.18 449.63,-128.31"/>
</a>
</g>
</g>
<!-- Node6 -->
<g id="Node000006" class="node">
<title>Node6</title>
<g id="a_Node000006"><a xlink:href="LanguageType_8h.html" target="_top" xlink:title=" ">
<polygon fill="white" stroke="#666666" points="876.38,-134.25 781.62,-134.25 781.62,-113.5 876.38,-113.5 876.38,-134.25"/>
<text text-anchor="middle" x="829" y="-120.75" font-family="Helvetica,sans-Serif" font-size="10.00">LanguageType.h</text>
</a>
</g>
</g>
<!-- Node3&#45;&gt;Node6 -->
<g id="edge5_Node000003_Node000006" class="edge">
<title>Node3&#45;&gt;Node6</title>
<g id="a_edge5_Node000003_Node000006"><a xlink:title=" ">
<path fill="none" stroke="#63b8ff" d="M741.71,-176.18C758.08,-166.55 783.3,-151.73 802.43,-140.49"/>
<polygon fill="#63b8ff" stroke="#63b8ff" points="804.18,-143.52 811.03,-135.44 800.63,-137.49 804.18,-143.52"/>
</a>
</g>
</g>
<!-- Node8 -->
<g id="Node000008" class="node">
<title>Node8</title>
<g id="a_Node000008"><a xlink:href="SourceGroupType_8h.html" target="_top" xlink:title=" ">
<polygon fill="white" stroke="#666666" points="966.88,-77.5 857.12,-77.5 857.12,-56.75 966.88,-56.75 966.88,-77.5"/>
<text text-anchor="middle" x="912" y="-64" font-family="Helvetica,sans-Serif" font-size="10.00">SourceGroupType.h</text>
</a>
</g>
</g>
<!-- Node3&#45;&gt;Node8 -->
<g id="edge13_Node000003_Node000008" class="edge">
<title>Node3&#45;&gt;Node8</title>
<g id="a_edge13_Node000003_Node000008"><a xlink:title=" ">
<path fill="none" stroke="#63b8ff" d="M788.76,-178.3C821.02,-171.47 858.78,-158.57 885,-134.25 897.93,-122.26 904.82,-103.19 908.4,-88.6"/>
<polygon fill="#63b8ff" stroke="#63b8ff" points="911.76,-89.64 910.37,-79.14 904.9,-88.21 911.76,-89.64"/>
</a>
</g>
</g>
<!-- Node10 -->
<g id="Node000010" class="node">
<title>Node10</title>
<g id="a_Node000010"><a xlink:href="SourceGroupSettingsBase_8h.html" target="_top" xlink:title=" ">
<polygon fill="white" stroke="#666666" points="642.5,-77.5 491.5,-77.5 491.5,-56.75 642.5,-56.75 642.5,-77.5"/>
<text text-anchor="middle" x="567" y="-64" font-family="Helvetica,sans-Serif" font-size="10.00">SourceGroupSettingsBase.h</text>
</a>
</g>
</g>
<!-- Node3&#45;&gt;Node10 -->
<g id="edge10_Node000003_Node000010" class="edge">
<title>Node3&#45;&gt;Node10</title>
<g id="a_edge10_Node000003_Node000010"><a xlink:title=" ">
<path fill="none" stroke="#63b8ff" d="M715.87,-176.35C701.73,-161.71 673.34,-133.51 646,-113.5 630.55,-102.19 612.05,-91.43 596.83,-83.23"/>
<polygon fill="#63b8ff" stroke="#63b8ff" points="598.72,-80.27 588.24,-78.69 595.45,-86.46 598.72,-80.27"/>
</a>
</g>
</g>
<!-- Node11 -->
<g id="Node000011" class="node">
<title>Node11</title>
<g id="a_Node000011"><a xlink:href="SourceGroupStatusType_8h.html" target="_top" xlink:title=" ">
<polygon fill="white" stroke="#666666" points="801.25,-77.5 660.75,-77.5 660.75,-56.75 801.25,-56.75 801.25,-77.5"/>
<text text-anchor="middle" x="731" y="-64" font-family="Helvetica,sans-Serif" font-size="10.00">SourceGroupStatusType.h</text>
</a>
</g>
</g>
<!-- Node3&#45;&gt;Node11 -->
<g id="edge11_Node000003_Node000011" class="edge">
<title>Node3&#45;&gt;Node11</title>
<g id="a_edge11_Node000003_Node000011"><a xlink:title=" ">
<path fill="none" stroke="#63b8ff" d="M725.49,-176.35C726.45,-157.44 728.61,-115.11 729.92,-89.35"/>
<polygon fill="#63b8ff" stroke="#63b8ff" points="733.41,-89.58 730.43,-79.42 726.42,-89.23 733.41,-89.58"/>
</a>
</g>
</g>
<!-- Node7 -->
<g id="Node000007" class="node">
<title>Node7</title>
<g id="a_Node000007"><a xlink:title=" ">
<polygon fill="#e0e0e0" stroke="#999999" points="752.88,-20.75 709.12,-20.75 709.12,0 752.88,0 752.88,-20.75"/>
<text text-anchor="middle" x="731" y="-7.25" font-family="Helvetica,sans-Serif" font-size="10.00">string</text>
</a>
</g>
</g>
<!-- Node6&#45;&gt;Node7 -->
<g id="edge6_Node000006_Node000007" class="edge">
<title>Node6&#45;&gt;Node7</title>
<g id="a_edge6_Node000006_Node000007"><a xlink:title=" ">
<path fill="none" stroke="#63b8ff" d="M828.48,-113.33C827.27,-99.49 823.26,-73.67 810,-56.75 798.08,-41.53 779.53,-30.5 763.4,-23.13"/>
<polygon fill="#63b8ff" stroke="#63b8ff" points="765.21,-20.1 754.64,-19.4 762.47,-26.54 765.21,-20.1"/>
</a>
</g>
</g>
<!-- Node6&#45;&gt;Node8 -->
<g id="edge7_Node000006_Node000008" class="edge">
<title>Node6&#45;&gt;Node8</title>
<g id="a_edge7_Node000006_Node000008"><a xlink:title=" ">
<path fill="none" stroke="#63b8ff" d="M843.84,-113.09C856.11,-104.99 873.79,-93.33 888.06,-83.92"/>
<polygon fill="#63b8ff" stroke="#63b8ff" points="889.61,-87.09 896.03,-78.66 885.75,-81.25 889.61,-87.09"/>
</a>
</g>
</g>
<!-- Node8&#45;&gt;Node7 -->
<g id="edge9_Node000008_Node000007" class="edge">
<title>Node8&#45;&gt;Node7</title>
<g id="a_edge9_Node000008_Node000007"><a xlink:title=" ">
<path fill="none" stroke="#63b8ff" d="M879.64,-56.34C847.08,-46.49 797.1,-31.37 764.23,-21.43"/>
<polygon fill="#63b8ff" stroke="#63b8ff" points="765.41,-18.13 754.82,-18.58 763.38,-24.83 765.41,-18.13"/>
</a>
</g>
</g>
<!-- Node9 -->
<g id="Node000009" class="node">
<title>Node9</title>
<g id="a_Node000009"><a xlink:title=" ">
<polygon fill="#e0e0e0" stroke="#999999" points="972.88,-20.75 851.12,-20.75 851.12,0 972.88,0 972.88,-20.75"/>
<text text-anchor="middle" x="912" y="-7.25" font-family="Helvetica,sans-Serif" font-size="10.00">language_packages.h</text>
</a>
</g>
</g>
<!-- Node8&#45;&gt;Node9 -->
<g id="edge8_Node000008_Node000009" class="edge">
<title>Node8&#45;&gt;Node9</title>
<g id="a_edge8_Node000008_Node000009"><a xlink:title=" ">
<path fill="none" stroke="#63b8ff" d="M912,-56.34C912,-49.72 912,-40.72 912,-32.52"/>
<polygon fill="#63b8ff" stroke="#63b8ff" points="915.5,-32.59 912,-22.59 908.5,-32.59 915.5,-32.59"/>
</a>
</g>
</g>
<!-- Node11&#45;&gt;Node7 -->
<g id="edge12_Node000011_Node000007" class="edge">
<title>Node11&#45;&gt;Node7</title>
<g id="a_edge12_Node000011_Node000007"><a xlink:title=" ">
<path fill="none" stroke="#63b8ff" d="M731,-56.34C731,-49.72 731,-40.72 731,-32.52"/>
<polygon fill="#63b8ff" stroke="#63b8ff" points="734.5,-32.59 731,-22.59 727.5,-32.59 734.5,-32.59"/>
</a>
</g>
</g>
<!-- Node13 -->
<g id="Node000013" class="node">
<title>Node13</title>
<g id="a_Node000013"><a xlink:href="SourceGroupSettingsComponent_8h.html" target="_top" xlink:title=" ">
<polygon fill="white" stroke="#666666" points="345.62,-134.25 162.38,-134.25 162.38,-113.5 345.62,-113.5 345.62,-134.25"/>
<text text-anchor="middle" x="254" y="-120.75" font-family="Helvetica,sans-Serif" font-size="10.00">SourceGroupSettingsComponent.h</text>
</a>
</g>
</g>
<!-- Node12&#45;&gt;Node13 -->
<g id="edge15_Node000012_Node000013" class="edge">
<title>Node12&#45;&gt;Node13</title>
<g id="a_edge15_Node000012_Node000013"><a xlink:title=" ">
<path fill="none" stroke="#63b8ff" d="M85.82,-239.34C83.11,-220.52 81.87,-189.54 98,-170.25 111.65,-153.93 130.8,-143.28 151.03,-136.39"/>
<polygon fill="#63b8ff" stroke="#63b8ff" points="152.03,-139.74 160.57,-133.47 149.98,-133.05 152.03,-139.74"/>
</a>
</g>
</g>
<!-- Node13&#45;&gt;Node7 -->
<g id="edge16_Node000013_Node000007" class="edge">
<title>Node13&#45;&gt;Node7</title>
<g id="a_edge16_Node000013_Node000007"><a xlink:title=" ">
<path fill="none" stroke="#63b8ff" d="M278.54,-113.07C315.12,-98.79 386.37,-72.29 449,-56.75 537.41,-34.81 644.14,-20.99 697.37,-14.94"/>
<polygon fill="#63b8ff" stroke="#63b8ff" points="697.75,-18.42 707.3,-13.83 696.98,-11.46 697.75,-18.42"/>
</a>
</g>
</g>
<!-- Node13&#45;&gt;Node10 -->
<g id="edge17_Node000013_Node000010" class="edge">
<title>Node13&#45;&gt;Node10</title>
<g id="a_edge17_Node000013_Node000010"><a xlink:title=" ">
<path fill="none" stroke="#63b8ff" d="M310.32,-113.02C363.34,-103.75 442.83,-89.85 499.28,-79.97"/>
<polygon fill="#63b8ff" stroke="#63b8ff" points="499.87,-83.42 509.11,-78.25 498.66,-76.53 499.87,-83.42"/>
</a>
</g>
</g>
<!-- Node14&#45;&gt;Node5 -->
<g id="edge19_Node000014_Node000005" class="edge">
<title>Node14&#45;&gt;Node5</title>
<g id="a_edge19_Node000014_Node000005"><a xlink:title=" ">
<path fill="none" stroke="#63b8ff" d="M419.16,-169.94C418.32,-162.6 417.31,-153.82 416.41,-145.96"/>
<polygon fill="#63b8ff" stroke="#63b8ff" points="419.91,-145.76 415.3,-136.22 412.96,-146.55 419.91,-145.76"/>
</a>
</g>
</g>
<!-- Node14&#45;&gt;Node13 -->
<g id="edge20_Node000014_Node000013" class="edge">
<title>Node14&#45;&gt;Node13</title>
<g id="a_edge20_Node000014_Node000013"><a xlink:title=" ">
<path fill="none" stroke="#63b8ff" d="M376.69,-169.78C350.09,-160.04 316.63,-147.8 291.37,-138.55"/>
<polygon fill="#63b8ff" stroke="#63b8ff" points="292.76,-135.34 282.17,-135.19 290.36,-141.91 292.76,-135.34"/>
</a>
</g>
</g>
<!-- Node16 -->
<g id="Node000016" class="node">
<title>Node16</title>
<g id="a_Node000016"><a xlink:href="SourceGroupSettingsWithSourceExtensions_8h.html" target="_top" xlink:title=" ">
<polygon fill="white" stroke="#666666" points="313.75,-203.75 140.25,-203.75 140.25,-170.25 313.75,-170.25 313.75,-203.75"/>
<text text-anchor="start" x="148.25" y="-190.25" font-family="Helvetica,sans-Serif" font-size="10.00">SourceGroupSettingsWithSource</text>
<text text-anchor="middle" x="227" y="-177.5" font-family="Helvetica,sans-Serif" font-size="10.00">Extensions.h</text>
</a>
</g>
</g>
<!-- Node15&#45;&gt;Node16 -->
<g id="edge22_Node000015_Node000016" class="edge">
<title>Node15&#45;&gt;Node16</title>
<g id="a_edge22_Node000015_Node000016"><a xlink:title=" ">
<path fill="none" stroke="#63b8ff" d="M270.49,-239.5C263.68,-231.43 255.26,-221.47 247.66,-212.46"/>
<polygon fill="#63b8ff" stroke="#63b8ff" points="250.51,-210.42 241.39,-205.04 245.17,-214.94 250.51,-210.42"/>
</a>
</g>
</g>
<!-- Node16&#45;&gt;Node5 -->
<g id="edge23_Node000016_Node000005" class="edge">
<title>Node16&#45;&gt;Node5</title>
<g id="a_edge23_Node000016_Node000005"><a xlink:title=" ">
<path fill="none" stroke="#63b8ff" d="M276.62,-169.78C309.1,-159.16 350.71,-145.56 379.59,-136.12"/>
<polygon fill="#63b8ff" stroke="#63b8ff" points="380.5,-139.51 388.92,-133.07 378.33,-132.85 380.5,-139.51"/>
</a>
</g>
</g>
<!-- Node16&#45;&gt;Node13 -->
<g id="edge24_Node000016_Node000013" class="edge">
<title>Node16&#45;&gt;Node13</title>
<g id="a_edge24_Node000016_Node000013"><a xlink:title=" ">
<path fill="none" stroke="#63b8ff" d="M234.09,-169.94C237.45,-162.34 241.49,-153.19 245.06,-145.12"/>
<polygon fill="#63b8ff" stroke="#63b8ff" points="248.2,-146.66 249.04,-136.1 241.8,-143.83 248.2,-146.66"/>
</a>
</g>
</g>
<!-- Node17&#45;&gt;Node5 -->
<g id="edge26_Node000017_Node000005" class="edge">
<title>Node17&#45;&gt;Node5</title>
<g id="a_edge26_Node000017_Node000005"><a xlink:title=" ">
<path fill="none" stroke="#63b8ff" d="M521.04,-239.25C526.75,-220.91 532.59,-190.93 519,-170.25 510.76,-157.71 475.63,-144.15 448.25,-135.16"/>
<polygon fill="#63b8ff" stroke="#63b8ff" points="449.5,-131.88 438.91,-132.18 447.37,-138.55 449.5,-131.88"/>
</a>
</g>
</g>
<!-- Node17&#45;&gt;Node13 -->
<g id="edge31_Node000017_Node000013" class="edge">
<title>Node17&#45;&gt;Node13</title>
<g id="a_edge31_Node000017_Node000013"><a xlink:title=" ">
<path fill="none" stroke="#63b8ff" d="M427.84,-245.19C316.05,-231.76 135.88,-209.33 131,-203.75 121.2,-192.54 122.49,-182.46 131,-170.25 141.45,-155.25 157.46,-145.2 174.5,-138.46"/>
<polygon fill="#63b8ff" stroke="#63b8ff" points="175.51,-141.82 183.78,-135.19 173.18,-135.21 175.51,-141.82"/>
</a>
</g>
</g>
<!-- Node18 -->
<g id="Node000018" class="node">
<title>Node18</title>
<g id="a_Node000018"><a xlink:href="FilePath_8h.html" target="_top" xlink:title=" ">
<polygon fill="white" stroke="#666666" points="629.62,-197.38 566.38,-197.38 566.38,-176.62 629.62,-176.62 629.62,-197.38"/>
<text text-anchor="middle" x="598" y="-183.88" font-family="Helvetica,sans-Serif" font-size="10.00">FilePath.h</text>
</a>
</g>
</g>
<!-- Node17&#45;&gt;Node18 -->
<g id="edge27_Node000017_Node000018" class="edge">
<title>Node17&#45;&gt;Node18</title>
<g id="a_edge27_Node000017_Node000018"><a xlink:title=" ">
<path fill="none" stroke="#63b8ff" d="M534.67,-239.5C547.48,-229.09 564.16,-215.52 577.19,-204.92"/>
<polygon fill="#63b8ff" stroke="#63b8ff" points="579.2,-207.8 584.75,-198.78 574.78,-202.37 579.2,-207.8"/>
</a>
</g>
</g>
<!-- Node18&#45;&gt;Node4 -->
<g id="edge28_Node000018_Node000004" class="edge">
<title>Node18&#45;&gt;Node4</title>
<g id="a_edge28_Node000018_Node000004"><a xlink:title=" ">
<path fill="none" stroke="#63b8ff" d="M599.61,-176.18C600.96,-167.93 602.93,-155.87 604.62,-145.51"/>
<polygon fill="#63b8ff" stroke="#63b8ff" points="608.03,-146.4 606.19,-135.96 601.12,-145.27 608.03,-146.4"/>
</a>
</g>
</g>
<!-- Node18&#45;&gt;Node5 -->
<g id="edge30_Node000018_Node000005" class="edge">
<title>Node18&#45;&gt;Node5</title>
<g id="a_edge30_Node000018_Node000005"><a xlink:title=" ">
<path fill="none" stroke="#63b8ff" d="M569.8,-176.28C563.92,-174.28 557.76,-172.18 552,-170.25 516.7,-158.4 476.21,-145.13 448.26,-136.01"/>
<polygon fill="#63b8ff" stroke="#63b8ff" points="449.5,-132.73 438.91,-132.96 447.33,-139.39 449.5,-132.73"/>
</a>
</g>
</g>
<!-- Node18&#45;&gt;Node7 -->
<g id="edge29_Node000018_Node000007" class="edge">
<title>Node18&#45;&gt;Node7</title>
<g id="a_edge29_Node000018_Node000007"><a xlink:title=" ">
<path fill="none" stroke="#63b8ff" d="M577.1,-176.14C534.54,-154.77 444.92,-102.43 483,-56.75 509.93,-24.44 636.2,-15.07 697.47,-12.41"/>
<polygon fill="#63b8ff" stroke="#63b8ff" points="697.45,-15.91 707.3,-12.02 697.17,-8.91 697.45,-15.91"/>
</a>
</g>
</g>
</g>
</svg>

<g id="navigator" transform="translate(0 0)" fill="#404254">
  <rect fill="#f2f5e9" fill-opacity="0.5" stroke="#606060" stroke-width=".5" x="0" y="0" width="60" height="60"/>
  <use id="zoomplus" xlink:href="#zoomPlus" x="17" y="9" onmousedown="handleZoom(evt,'in')"/>
  <use id="zoomminus" xlink:href="#zoomMin" x="42" y="9" onmousedown="handleZoom(evt,'out')"/>
  <use id="reset" xlink:href="#resetDef" x="30" y="36" onmousedown="handleReset()"/>
   <use id="arrowup" xlink:href="#arrowUp" x="0" y="0" onmousedown="handlePan(0,-1)"/>
  <use id="arrowright" xlink:href="#arrowRight" x="0" y="0" onmousedown="handlePan(1,0)"/>
  <use id="arrowdown" xlink:href="#arrowDown" x="0" y="0" onmousedown="handlePan(0,1)"/>
  <use id="arrowleft" xlink:href="#arrowLeft" x="0" y="0" onmousedown="handlePan(-1,0)"/>
</g>
<svg viewBox="0 0 15 15" width="100%" height="30px" preserveAspectRatio="xMaxYMin meet">
 <g id="arrow_out" transform="scale(0.3 0.3)">
  <a xlink:href="SourceGroupSettingsCustomCommand_8h__incl_org.svg" target="_base">
   <rect id="button" ry="5" rx="5" y="6" x="6" height="38" width="38"
        fill="#f2f5e9" fill-opacity="0.5" stroke="#606060" stroke-width="1.0"/>
   <path id="arrow"
     d="M 11.500037,31.436501 C 11.940474,20.09759 22.043105,11.32322 32.158766,21.979434 L 37.068811,17.246167 C 37.068811,17.246167 37.088388,32 37.088388,32 L 22.160133,31.978069 C 22.160133,31.978069 26.997745,27.140456 26.997745,27.140456 C 18.528582,18.264221 13.291696,25.230495 11.500037,31.436501 z"
     style="fill:#404040;"/>
  </a>
 </g>
</svg>

<style type='text/css'>
<![CDATA[
[data-mouse-over-selected='false'] { opacity: 0.7; }
[data-mouse-over-selected='true']  { opacity: 1.0; }
]]>
</style>
<script type="application/ecmascript"><![CDATA[
document.addEventListener('DOMContentLoaded', (event) => {
  highlightEdges();
  highlightAdjacentNodes();
});
]]></script>
</svg>
