<?xml version="1.0" encoding="UTF-8" standalone="no"?>
<!DOCTYPE svg PUBLIC "-//W3C//DTD SVG 1.1//EN"
 "http://www.w3.org/Graphics/SVG/1.1/DTD/svg11.dtd">
<!-- Generated by graphviz version 7.1.0 (0)
 -->
<!-- Title: /home/ahussein/Documents/sourceCode/Sourcetrail/src/src/lib/settings/source_group/component/cxx/SourceGroupSettingsWithCxxPathsAndFlags.h Pages: 1 -->
<svg width="389pt" height="181pt"
 viewBox="0.00 0.00 388.50 181.00" xmlns="http://www.w3.org/2000/svg" xmlns:xlink="http://www.w3.org/1999/xlink">
<g id="graph0" class="graph" transform="scale(1 1) rotate(0) translate(4 177)">
<title>/home/ahussein/Documents/sourceCode/Sourcetrail/src/src/lib/settings/source_group/component/cxx/SourceGroupSettingsWithCxxPathsAndFlags.h</title>
<!-- Node1 -->
<g id="node1" class="node">
<title>Node1</title>
<g id="a_node1"><a xlink:title=" ">
<polygon fill="#999999" stroke="#666666" points="233,-173 0,-173 0,-110 233,-110 233,-173"/>
<text text-anchor="start" x="8" y="-161" font-family="Helvetica,sans-Serif" font-size="10.00">/home/ahussein/Documents</text>
<text text-anchor="start" x="8" y="-150" font-family="Helvetica,sans-Serif" font-size="10.00">/sourceCode/Sourcetrail</text>
<text text-anchor="start" x="8" y="-139" font-family="Helvetica,sans-Serif" font-size="10.00">/src/src/lib/settings/source</text>
<text text-anchor="start" x="8" y="-128" font-family="Helvetica,sans-Serif" font-size="10.00">_group/component/cxx/SourceGroupSettings</text>
<text text-anchor="middle" x="116.5" y="-117" font-family="Helvetica,sans-Serif" font-size="10.00">WithCxxPathsAndFlags.h</text>
</a>
</g>
</g>
<!-- Node2 -->
<g id="node2" class="node">
<title>Node2</title>
<g id="a_node2"><a xlink:title=" ">
<polygon fill="#e0e0e0" stroke="#999999" points="72,-19 25,-19 25,0 72,0 72,-19"/>
<text text-anchor="middle" x="48.5" y="-7" font-family="Helvetica,sans-Serif" font-size="10.00">vector</text>
</a>
</g>
</g>
<!-- Node1&#45;&gt;Node2 -->
<g id="edge1" class="edge">
<title>Node1&#45;&gt;Node2</title>
<path fill="none" stroke="#63b8ff" d="M96.11,-109.6C89.2,-98.57 81.67,-85.93 75.5,-74 68.08,-59.65 60.98,-42.79 55.93,-30.05"/>
<polygon fill="#63b8ff" stroke="#63b8ff" points="59.19,-28.79 52.31,-20.73 52.66,-31.32 59.19,-28.79"/>
</g>
<!-- Node3 -->
<g id="node3" class="node">
<title>Node3</title>
<g id="a_node3"><a xlink:href="FilePath_8h.html" target="_top" xlink:title=" ">
<polygon fill="white" stroke="#666666" points="148.5,-74 84.5,-74 84.5,-55 148.5,-55 148.5,-74"/>
<text text-anchor="middle" x="116.5" y="-62" font-family="Helvetica,sans-Serif" font-size="10.00">FilePath.h</text>
</a>
</g>
</g>
<!-- Node1&#45;&gt;Node3 -->
<g id="edge2" class="edge">
<title>Node1&#45;&gt;Node3</title>
<path fill="none" stroke="#63b8ff" d="M116.5,-109.56C116.5,-101.49 116.5,-93.01 116.5,-85.66"/>
<polygon fill="#63b8ff" stroke="#63b8ff" points="120,-85.84 116.5,-75.84 113,-85.84 120,-85.84"/>
</g>
<!-- Node6 -->
<g id="node6" class="node">
<title>Node6</title>
<g id="a_node6"><a xlink:href="SourceGroupSettingsComponent_8h.html" target="_top" xlink:title=" ">
<polygon fill="white" stroke="#666666" points="350.5,-74 166.5,-74 166.5,-55 350.5,-55 350.5,-74"/>
<text text-anchor="middle" x="258.5" y="-62" font-family="Helvetica,sans-Serif" font-size="10.00">SourceGroupSettingsComponent.h</text>
</a>
</g>
</g>
<!-- Node1&#45;&gt;Node6 -->
<g id="edge6" class="edge">
<title>Node1&#45;&gt;Node6</title>
<path fill="none" stroke="#63b8ff" d="M175.08,-109.56C194.75,-99.17 215.75,-88.08 231.75,-79.63"/>
<polygon fill="#63b8ff" stroke="#63b8ff" points="232.94,-82.96 240.15,-75.19 229.67,-76.77 232.94,-82.96"/>
</g>
<!-- Node3&#45;&gt;Node2 -->
<g id="edge5" class="edge">
<title>Node3&#45;&gt;Node2</title>
<path fill="none" stroke="#63b8ff" d="M104.96,-54.51C95.04,-46.77 80.49,-35.43 68.64,-26.2"/>
<polygon fill="#63b8ff" stroke="#63b8ff" points="71.1,-23.68 61.06,-20.29 66.79,-29.2 71.1,-23.68"/>
</g>
<!-- Node4 -->
<g id="node4" class="node">
<title>Node4</title>
<g id="a_node4"><a xlink:title=" ">
<polygon fill="#e0e0e0" stroke="#999999" points="148.5,-19 90.5,-19 90.5,0 148.5,0 148.5,-19"/>
<text text-anchor="middle" x="119.5" y="-7" font-family="Helvetica,sans-Serif" font-size="10.00">memory</text>
</a>
</g>
</g>
<!-- Node3&#45;&gt;Node4 -->
<g id="edge3" class="edge">
<title>Node3&#45;&gt;Node4</title>
<path fill="none" stroke="#63b8ff" d="M117,-54.75C117.36,-48.27 117.88,-39.16 118.35,-30.9"/>
<polygon fill="#63b8ff" stroke="#63b8ff" points="121.84,-31.13 118.91,-20.95 114.85,-30.74 121.84,-31.13"/>
</g>
<!-- Node5 -->
<g id="node5" class="node">
<title>Node5</title>
<g id="a_node5"><a xlink:title=" ">
<polygon fill="#e0e0e0" stroke="#999999" points="210.5,-19 166.5,-19 166.5,0 210.5,0 210.5,-19"/>
<text text-anchor="middle" x="188.5" y="-7" font-family="Helvetica,sans-Serif" font-size="10.00">string</text>
</a>
</g>
</g>
<!-- Node3&#45;&gt;Node5 -->
<g id="edge4" class="edge">
<title>Node3&#45;&gt;Node5</title>
<path fill="none" stroke="#63b8ff" d="M128.71,-54.51C139.33,-46.7 154.94,-35.21 167.54,-25.93"/>
<polygon fill="#63b8ff" stroke="#63b8ff" points="169.27,-29 175.25,-20.26 165.12,-23.36 169.27,-29"/>
</g>
<!-- Node6&#45;&gt;Node5 -->
<g id="edge7" class="edge">
<title>Node6&#45;&gt;Node5</title>
<path fill="none" stroke="#63b8ff" d="M246.63,-54.51C236.41,-46.77 221.43,-35.43 209.24,-26.2"/>
<polygon fill="#63b8ff" stroke="#63b8ff" points="211.49,-23.52 201.41,-20.27 207.27,-29.1 211.49,-23.52"/>
</g>
<!-- Node7 -->
<g id="node7" class="node">
<title>Node7</title>
<g id="a_node7"><a xlink:href="SourceGroupSettingsBase_8h.html" target="_top" xlink:title=" ">
<polygon fill="white" stroke="#666666" points="380.5,-19 228.5,-19 228.5,0 380.5,0 380.5,-19"/>
<text text-anchor="middle" x="304.5" y="-7" font-family="Helvetica,sans-Serif" font-size="10.00">SourceGroupSettingsBase.h</text>
</a>
</g>
</g>
<!-- Node6&#45;&gt;Node7 -->
<g id="edge8" class="edge">
<title>Node6&#45;&gt;Node7</title>
<path fill="none" stroke="#63b8ff" d="M266.1,-54.75C272.38,-47.5 281.51,-36.98 289.3,-28.02"/>
<polygon fill="#63b8ff" stroke="#63b8ff" points="291.84,-30.43 295.75,-20.59 286.55,-25.84 291.84,-30.43"/>
</g>
</g>
</svg>
