<?xml version="1.0" encoding="UTF-8" standalone="no"?>
<!DOCTYPE svg PUBLIC "-//W3C//DTD SVG 1.1//EN"
 "http://www.w3.org/Graphics/SVG/1.1/DTD/svg11.dtd">
<!-- Generated by graphviz version 9.0.0 (0)
 -->
<!-- Title: /home/ahussein/Documents/archive/opensourcesourcetrail.github.io/.ignore/src/src/lib/tests/StatusTestSuite.cpp Pages: 1 -->
<svg width="297pt" height="168pt"
 viewBox="0.00 0.00 297.00 167.75" xmlns="http://www.w3.org/2000/svg" xmlns:xlink="http://www.w3.org/1999/xlink">

<svg id="main" version="1.1" xmlns="http://www.w3.org/2000/svg" xmlns:xlink="http://www.w3.org/1999/xlink" xml:space="preserve" onload="init(evt)">
<style type="text/css"><![CDATA[
.node, .edge {opacity: 0.7;}
.node.selected, .edge.selected {opacity: 1;}
.edge:hover path { stroke: red; }
.edge:hover polygon { stroke: red; fill: red; }
]]></style>
<script type="application/ecmascript" xlink:href="svg.min.js"/>
<svg id="graph" class="graph">
<g id="graph0" class="graph" transform="scale(1 1) rotate(0) translate(4 163.75)">
<title>/home/ahussein/Documents/archive/opensourcesourcetrail.github.io/.ignore/src/src/lib/tests/StatusTestSuite.cpp</title>
<!-- Node1 -->
<g id="Node000001" class="node">
<title>Node1</title>
<g id="a_Node000001"><a xlink:title=" ">
<polygon fill="#999999" stroke="#666666" points="256.5,-159.75 29,-159.75 29,-113.5 256.5,-113.5 256.5,-159.75"/>
<text text-anchor="start" x="37" y="-146.25" font-family="Helvetica,sans-Serif" font-size="10.00">/home/ahussein/Documents</text>
<text text-anchor="start" x="37" y="-133.5" font-family="Helvetica,sans-Serif" font-size="10.00">/archive/opensourcesourcetrail.github.io</text>
<text text-anchor="middle" x="142.75" y="-120.75" font-family="Helvetica,sans-Serif" font-size="10.00">/.ignore/src/src/lib/tests/StatusTestSuite.cpp</text>
</a>
</g>
</g>
<!-- Node2 -->
<g id="Node000002" class="node">
<title>Node2</title>
<g id="a_Node000002"><a xlink:title=" ">
<polygon fill="#e0e0e0" stroke="#999999" points="77.5,-77.5 0,-77.5 0,-56.75 77.5,-56.75 77.5,-77.5"/>
<text text-anchor="middle" x="38.75" y="-64" font-family="Helvetica,sans-Serif" font-size="10.00">gtest/gtest.h</text>
</a>
</g>
</g>
<!-- Node1&#45;&gt;Node2 -->
<g id="edge1_Node000001_Node000002" class="edge">
<title>Node1&#45;&gt;Node2</title>
<g id="a_edge1_Node000001_Node000002"><a xlink:title=" ">
<path fill="none" stroke="#63b8ff" d="M108.12,-113.15C93.43,-103.61 76.65,-92.72 63.27,-84.04"/>
<polygon fill="#63b8ff" stroke="#63b8ff" points="65.36,-81.22 55.07,-78.71 61.55,-87.09 65.36,-81.22"/>
</a>
</g>
</g>
<!-- Node3 -->
<g id="Node000003" class="node">
<title>Node3</title>
<g id="a_Node000003"><a xlink:title=" ">
<polygon fill="#e0e0e0" stroke="#999999" points="189.75,-77.5 95.75,-77.5 95.75,-56.75 189.75,-56.75 189.75,-77.5"/>
<text text-anchor="middle" x="142.75" y="-64" font-family="Helvetica,sans-Serif" font-size="10.00">gmock/gmock.h</text>
</a>
</g>
</g>
<!-- Node1&#45;&gt;Node3 -->
<g id="edge2_Node000001_Node000003" class="edge">
<title>Node1&#45;&gt;Node3</title>
<g id="a_edge2_Node000001_Node000003"><a xlink:title=" ">
<path fill="none" stroke="#63b8ff" d="M142.75,-113.15C142.75,-105.48 142.75,-96.94 142.75,-89.38"/>
<polygon fill="#63b8ff" stroke="#63b8ff" points="146.25,-89.4 142.75,-79.4 139.25,-89.4 146.25,-89.4"/>
</a>
</g>
</g>
<!-- Node4 -->
<g id="Node000004" class="node">
<title>Node4</title>
<g id="a_Node000004"><a xlink:href="Status_8h.html" target="_top" xlink:title=" ">
<polygon fill="white" stroke="#666666" points="263.62,-77.5 207.88,-77.5 207.88,-56.75 263.62,-56.75 263.62,-77.5"/>
<text text-anchor="middle" x="235.75" y="-64" font-family="Helvetica,sans-Serif" font-size="10.00">Status.h</text>
</a>
</g>
</g>
<!-- Node1&#45;&gt;Node4 -->
<g id="edge3_Node000001_Node000004" class="edge">
<title>Node1&#45;&gt;Node4</title>
<g id="a_edge3_Node000001_Node000004"><a xlink:title=" ">
<path fill="none" stroke="#63b8ff" d="M173.72,-113.15C186.6,-103.8 201.27,-93.15 213.12,-84.55"/>
<polygon fill="#63b8ff" stroke="#63b8ff" points="215.03,-87.49 221.07,-78.78 210.92,-81.82 215.03,-87.49"/>
</a>
</g>
</g>
<!-- Node5 -->
<g id="Node000005" class="node">
<title>Node5</title>
<g id="a_Node000005"><a xlink:title=" ">
<polygon fill="#e0e0e0" stroke="#999999" points="226.62,-20.75 182.88,-20.75 182.88,0 226.62,0 226.62,-20.75"/>
<text text-anchor="middle" x="204.75" y="-7.25" font-family="Helvetica,sans-Serif" font-size="10.00">string</text>
</a>
</g>
</g>
<!-- Node4&#45;&gt;Node5 -->
<g id="edge4_Node000004_Node000005" class="edge">
<title>Node4&#45;&gt;Node5</title>
<g id="a_edge4_Node000004_Node000005"><a xlink:title=" ">
<path fill="none" stroke="#63b8ff" d="M230.21,-56.34C226.24,-49.33 220.76,-39.66 215.91,-31.08"/>
<polygon fill="#63b8ff" stroke="#63b8ff" points="218.96,-29.37 210.99,-22.4 212.87,-32.82 218.96,-29.37"/>
</a>
</g>
</g>
<!-- Node6 -->
<g id="Node000006" class="node">
<title>Node6</title>
<g id="a_Node000006"><a xlink:title=" ">
<polygon fill="#e0e0e0" stroke="#999999" points="289,-20.75 244.5,-20.75 244.5,0 289,0 289,-20.75"/>
<text text-anchor="middle" x="266.75" y="-7.25" font-family="Helvetica,sans-Serif" font-size="10.00">utility</text>
</a>
</g>
</g>
<!-- Node4&#45;&gt;Node6 -->
<g id="edge5_Node000004_Node000006" class="edge">
<title>Node4&#45;&gt;Node6</title>
<g id="a_edge5_Node000004_Node000006"><a xlink:title=" ">
<path fill="none" stroke="#63b8ff" d="M241.29,-56.34C245.26,-49.33 250.74,-39.66 255.59,-31.08"/>
<polygon fill="#63b8ff" stroke="#63b8ff" points="258.63,-32.82 260.51,-22.4 252.54,-29.37 258.63,-32.82"/>
</a>
</g>
</g>
</g>
</svg>
</svg>

<style type='text/css'>
<![CDATA[
[data-mouse-over-selected='false'] { opacity: 0.7; }
[data-mouse-over-selected='true']  { opacity: 1.0; }
]]>
</style>
<script type="application/ecmascript"><![CDATA[
document.addEventListener('DOMContentLoaded', (event) => {
  highlightEdges();
  highlightAdjacentNodes();
});
]]></script>
</svg>
