<?xml version="1.0" encoding="UTF-8" standalone="no"?>
<!DOCTYPE svg PUBLIC "-//W3C//DTD SVG 1.1//EN"
 "http://www.w3.org/Graphics/SVG/1.1/DTD/svg11.dtd">
<!-- Generated by graphviz version 9.0.0 (0)
 -->
<!-- Title: QtCodeField::Annotation Pages: 1 -->
<svg width="386pt" height="162pt"
 viewBox="0.00 0.00 386.15 162.00" xmlns="http://www.w3.org/2000/svg" xmlns:xlink="http://www.w3.org/1999/xlink">
<g id="graph0" class="graph" transform="scale(1 1) rotate(0) translate(4 158)">
<title>QtCodeField::Annotation</title>
<!-- Node1 -->
<g id="Node000001" class="node">
<title>Node1</title>
<g id="a_Node000001"><a xlink:title=" ">
<polygon fill="#999999" stroke="#666666" points="218.28,-20.75 84.53,-20.75 84.53,0 218.28,0 218.28,-20.75"/>
<text text-anchor="middle" x="151.4" y="-7.25" font-family="Helvetica,sans-Serif" font-size="10.00">QtCodeField::Annotation</text>
</a>
</g>
</g>
<!-- Node2 -->
<g id="Node000002" class="node">
<title>Node2</title>
<g id="a_Node000002"><a xlink:title=" ">
<polygon fill="white" stroke="#666666" points="28.8,-154 0,-154 0,-133.25 28.8,-133.25 28.8,-154"/>
<text text-anchor="middle" x="14.4" y="-140.5" font-family="Helvetica,sans-Serif" font-size="10.00">int</text>
</a>
</g>
</g>
<!-- Node2&#45;&gt;Node1 -->
<g id="edge1_Node000001_Node000002" class="edge">
<title>Node2&#45;&gt;Node1</title>
<g id="a_edge1_Node000001_Node000002"><a xlink:title=" ">
<path fill="none" stroke="#9a32cd" stroke-dasharray="5,2" d="M11.83,-121.4C10.26,-98.03 11.7,-60.83 32.65,-38.75 40.29,-30.69 61.65,-24.64 84.17,-20.3"/>
<polygon fill="#9a32cd" stroke="#9a32cd" points="8.34,-121.65 12.76,-131.28 15.31,-120.99 8.34,-121.65"/>
</a>
</g>
<text text-anchor="middle" x="53.77" y="-105.75" font-family="Helvetica,sans-Serif" font-size="10.00" fill="grey"> end</text>
<text text-anchor="middle" x="53.77" y="-93" font-family="Helvetica,sans-Serif" font-size="10.00" fill="grey">endCol</text>
<text text-anchor="middle" x="53.77" y="-80.25" font-family="Helvetica,sans-Serif" font-size="10.00" fill="grey">endLine</text>
<text text-anchor="middle" x="53.77" y="-67.5" font-family="Helvetica,sans-Serif" font-size="10.00" fill="grey">start</text>
<text text-anchor="middle" x="53.77" y="-54.75" font-family="Helvetica,sans-Serif" font-size="10.00" fill="grey">startCol</text>
<text text-anchor="middle" x="53.77" y="-42" font-family="Helvetica,sans-Serif" font-size="10.00" fill="grey">startLine</text>
</g>
<!-- Node3 -->
<g id="Node000003" class="node">
<title>Node3</title>
<g id="a_Node000003"><a xlink:title=" ">
<polygon fill="white" stroke="#666666" points="110.65,-154 48.15,-154 48.15,-133.25 110.65,-133.25 110.65,-154"/>
<text text-anchor="middle" x="79.4" y="-140.5" font-family="Helvetica,sans-Serif" font-size="10.00">set&lt; Id &gt;</text>
</a>
</g>
</g>
<!-- Node3&#45;&gt;Node1 -->
<g id="edge2_Node000001_Node000003" class="edge">
<title>Node3&#45;&gt;Node1</title>
<g id="a_edge2_Node000001_Node000003"><a xlink:title=" ">
<path fill="none" stroke="#9a32cd" stroke-dasharray="5,2" d="M79.37,-121.7C80.35,-99.14 84.97,-63.18 103.15,-38.75 108.78,-31.18 117.18,-25.39 125.39,-21.13"/>
<polygon fill="#9a32cd" stroke="#9a32cd" points="75.87,-121.39 79.17,-131.46 82.87,-121.54 75.87,-121.39"/>
</a>
</g>
<text text-anchor="middle" x="124.53" y="-73.88" font-family="Helvetica,sans-Serif" font-size="10.00" fill="grey"> tokenIds</text>
</g>
<!-- Node4 -->
<g id="Node000004" class="node">
<title>Node4</title>
<g id="a_Node000004"><a xlink:title=" ">
<polygon fill="white" stroke="#666666" points="173.65,-154 129.15,-154 129.15,-133.25 173.65,-133.25 173.65,-154"/>
<text text-anchor="middle" x="151.4" y="-140.5" font-family="Helvetica,sans-Serif" font-size="10.00">size_t</text>
</a>
</g>
</g>
<!-- Node4&#45;&gt;Node1 -->
<g id="edge3_Node000001_Node000004" class="edge">
<title>Node4&#45;&gt;Node1</title>
<g id="a_edge3_Node000001_Node000004"><a xlink:title=" ">
<path fill="none" stroke="#9a32cd" stroke-dasharray="5,2" d="M151.4,-121.54C151.4,-92.69 151.4,-42.07 151.4,-21"/>
<polygon fill="#9a32cd" stroke="#9a32cd" points="147.9,-121.25 151.4,-131.25 154.9,-121.25 147.9,-121.25"/>
</a>
</g>
<text text-anchor="middle" x="176.9" y="-73.88" font-family="Helvetica,sans-Serif" font-size="10.00" fill="grey"> locationId</text>
</g>
<!-- Node5 -->
<g id="Node000005" class="node">
<title>Node5</title>
<g id="a_Node000005"><a xlink:title=" ">
<polygon fill="white" stroke="#666666" points="271.27,-154 191.53,-154 191.53,-133.25 271.27,-133.25 271.27,-154"/>
<text text-anchor="middle" x="231.4" y="-140.5" font-family="Helvetica,sans-Serif" font-size="10.00">LocationType</text>
</a>
</g>
</g>
<!-- Node5&#45;&gt;Node1 -->
<g id="edge4_Node000001_Node000005" class="edge">
<title>Node5&#45;&gt;Node1</title>
<g id="a_edge4_Node000001_Node000005"><a xlink:title=" ">
<path fill="none" stroke="#9a32cd" stroke-dasharray="5,2" d="M228.53,-121.93C224.5,-95.45 216.53,-51.46 206.4,-38.75 200.29,-31.07 191.46,-25.38 182.67,-21.23"/>
<polygon fill="#9a32cd" stroke="#9a32cd" points="225.02,-122.11 229.92,-131.51 231.95,-121.11 225.02,-122.11"/>
</a>
</g>
<text text-anchor="middle" x="258.65" y="-73.88" font-family="Helvetica,sans-Serif" font-size="10.00" fill="grey"> locationType</text>
</g>
<!-- Node6 -->
<g id="Node000006" class="node">
<title>Node6</title>
<g id="a_Node000006"><a xlink:title=" ">
<polygon fill="white" stroke="#666666" points="334.9,-154 297.9,-154 297.9,-133.25 334.9,-133.25 334.9,-154"/>
<text text-anchor="middle" x="316.4" y="-140.5" font-family="Helvetica,sans-Serif" font-size="10.00">bool</text>
</a>
</g>
</g>
<!-- Node6&#45;&gt;Node1 -->
<g id="edge5_Node000001_Node000006" class="edge">
<title>Node6&#45;&gt;Node1</title>
<g id="a_edge5_Node000001_Node000006"><a xlink:title=" ">
<path fill="none" stroke="#9a32cd" stroke-dasharray="5,2" d="M318.24,-121.53C319.05,-97.97 316.39,-60.31 294.4,-38.75 283.35,-27.91 250.13,-21.18 218.49,-17.1"/>
<polygon fill="#9a32cd" stroke="#9a32cd" points="314.75,-121.27 317.63,-131.47 321.74,-121.7 314.75,-121.27"/>
</a>
</g>
<text text-anchor="middle" x="347.77" y="-86.62" font-family="Helvetica,sans-Serif" font-size="10.00" fill="grey"> isActive</text>
<text text-anchor="middle" x="347.77" y="-73.88" font-family="Helvetica,sans-Serif" font-size="10.00" fill="grey">isCoFocused</text>
<text text-anchor="middle" x="347.77" y="-61.12" font-family="Helvetica,sans-Serif" font-size="10.00" fill="grey">isFocused</text>
</g>
</g>
</svg>
