<?xml version="1.0" encoding="UTF-8" standalone="no"?>
<!DOCTYPE svg PUBLIC "-//W3C//DTD SVG 1.1//EN"
 "http://www.w3.org/Graphics/SVG/1.1/DTD/svg11.dtd">
<!-- Generated by graphviz version 7.1.0 (0)
 -->
<!-- Title: GraphViewStyle::NodeStyle Pages: 1 -->
<!--zoomable 556 -->
<svg id="main" version="1.1" xmlns="http://www.w3.org/2000/svg" xmlns:xlink="http://www.w3.org/1999/xlink" xml:space="preserve" onload="init(evt)">
<style type="text/css"><![CDATA[
.edge:hover path { stroke: red; }
.edge:hover polygon { stroke: red; fill: red; }
]]></style>
<script type="text/javascript"><![CDATA[
var edges = document.getElementsByTagName('g');
if (edges && edges.length) {
  for (var i=0;i<edges.length;i++) {
    if (edges[i].id.substr(0,4)=='edge') {
      edges[i].setAttribute('class','edge');
    }
  }
}
]]></script>
        <defs>
                <circle id="rim" cx="0" cy="0" r="7"/>
                <circle id="rim2" cx="0" cy="0" r="3.5"/>
                <g id="zoomPlus">
                        <use xlink:href="#rim" fill="#404040">
                                <set attributeName="fill" to="#808080" begin="zoomplus.mouseover" end="zoomplus.mouseout"/>
                        </use>
                        <path d="M-4,0h8M0,-4v8" fill="none" stroke="white" stroke-width="1.5" pointer-events="none"/>
                </g>
                <g id="zoomMin">
                        <use xlink:href="#rim" fill="#404040">
                                <set attributeName="fill" to="#808080" begin="zoomminus.mouseover" end="zoomminus.mouseout"/>
                        </use>
                        <path d="M-4,0h8" fill="none" stroke="white" stroke-width="1.5" pointer-events="none"/>
                </g>
                <g id="dirArrow">
                        <path fill="none" stroke="white" stroke-width="1.5" d="M0,-3.0v7 M-2.5,-0.5L0,-3.0L2.5,-0.5"/>
                </g>
               <g id="resetDef">
                       <use xlink:href="#rim2" fill="#404040">
                               <set attributeName="fill" to="#808080" begin="reset.mouseover" end="reset.mouseout"/>
                       </use>
               </g>
        </defs>

<script type="text/javascript">
var viewWidth = 1297;
var viewHeight = 556;
var sectionId = 'dynsection-0';
</script>
<script xlink:href="svgpan.js"/>
<svg id="graph" class="graph">
<g id="viewport">
<title>GraphViewStyle::NodeStyle</title>
<!-- Node1 -->
<g id="node1" class="node">
<title>Node1</title>
<g id="a_node1"><a xlink:title=" ">
<polygon fill="#999999" stroke="#666666" points="1289,-336 1138,-336 1138,-317 1289,-317 1289,-336"/>
<text text-anchor="middle" x="1213.5" y="-324" font-family="Helvetica,sans-Serif" font-size="10.00">GraphViewStyle::NodeStyle</text>
</a>
</g>
</g>
<!-- Node2 -->
<g id="node2" class="node">
<title>Node2</title>
<g id="a_node2"><a xlink:href="structGraphViewStyle_1_1NodeColor.html" target="_top" xlink:title=" ">
<polygon fill="white" stroke="#666666" points="1048,-510 896,-510 896,-491 1048,-491 1048,-510"/>
<text text-anchor="middle" x="972" y="-498" font-family="Helvetica,sans-Serif" font-size="10.00">GraphViewStyle::NodeColor</text>
</a>
</g>
</g>
<!-- Node2&#45;&gt;Node1 -->
<g id="edge1" class="edge">
<title>Node2&#45;&gt;Node1</title>
<path fill="none" stroke="#9a32cd" stroke-dasharray="5,2" d="M1059.5,-498.05C1080.63,-494.27 1102.24,-487.44 1120,-475.5 1172.81,-440 1201.04,-363.15 1209.63,-336.13"/>
<polygon fill="#9a32cd" stroke="#9a32cd" points="1059.02,-494.59 1049.68,-499.58 1060.1,-501.5 1059.02,-494.59"/>
<text text-anchor="middle" x="1093" y="-498.5" font-family="Helvetica,sans-Serif" font-size="10.00"> color</text>
</g>
<!-- Node3 -->
<g id="node3" class="node">
<title>Node3</title>
<g id="a_node3"><a xlink:title=" ">
<polygon fill="white" stroke="#666666" points="716.5,-489 672.5,-489 672.5,-470 716.5,-470 716.5,-489"/>
<text text-anchor="middle" x="694.5" y="-477" font-family="Helvetica,sans-Serif" font-size="10.00">string</text>
</a>
</g>
</g>
<!-- Node3&#45;&gt;Node1 -->
<g id="edge5" class="edge">
<title>Node3&#45;&gt;Node1</title>
<path fill="none" stroke="#9a32cd" stroke-dasharray="5,2" d="M727.96,-477.22C791.17,-472.02 934.53,-456.48 1048,-416.5 1107.26,-395.62 1170.66,-355.07 1198.28,-336.38"/>
<polygon fill="#9a32cd" stroke="#9a32cd" points="727.97,-473.71 718.27,-477.98 728.52,-480.69 727.97,-473.71"/>
<text text-anchor="middle" x="972" y="-456.5" font-family="Helvetica,sans-Serif" font-size="10.00"> fontName</text>
</g>
<!-- Node3&#45;&gt;Node2 -->
<g id="edge2" class="edge">
<title>Node3&#45;&gt;Node2</title>
<path fill="none" stroke="#9a32cd" stroke-dasharray="5,2" d="M728.11,-481.99C769.13,-485.11 840.83,-490.58 895.74,-494.76"/>
<polygon fill="#9a32cd" stroke="#9a32cd" points="728.41,-478.5 718.17,-481.23 727.87,-485.48 728.41,-478.5"/>
<text text-anchor="middle" x="823.5" y="-539.5" font-family="Helvetica,sans-Serif" font-size="10.00"> border</text>
<text text-anchor="middle" x="823.5" y="-528.5" font-family="Helvetica,sans-Serif" font-size="10.00">fill</text>
<text text-anchor="middle" x="823.5" y="-517.5" font-family="Helvetica,sans-Serif" font-size="10.00">hatching</text>
<text text-anchor="middle" x="823.5" y="-506.5" font-family="Helvetica,sans-Serif" font-size="10.00">icon</text>
<text text-anchor="middle" x="823.5" y="-495.5" font-family="Helvetica,sans-Serif" font-size="10.00">text</text>
</g>
<!-- Node4 -->
<g id="node4" class="node">
<title>Node4</title>
<g id="a_node4"><a xlink:title=" ">
<polygon fill="white" stroke="#666666" points="480,-141 451,-141 451,-122 480,-122 480,-141"/>
<text text-anchor="middle" x="465.5" y="-129" font-family="Helvetica,sans-Serif" font-size="10.00">int</text>
</a>
</g>
</g>
<!-- Node4&#45;&gt;Node1 -->
<g id="edge3" class="edge">
<title>Node4&#45;&gt;Node1</title>
<path fill="none" stroke="#9a32cd" stroke-dasharray="5,2" d="M489.78,-147.44C503.77,-156.33 522.26,-166.92 540,-173.5 581.6,-188.93 594.36,-184.49 638,-192.5 819.9,-225.88 867.84,-221.77 1048,-263.5 1080.47,-271.02 1088.75,-272.91 1120,-284.5 1145.8,-294.06 1174.5,-307.57 1192.99,-316.66"/>
<polygon fill="#9a32cd" stroke="#9a32cd" points="492.01,-144.71 481.72,-142.17 488.17,-150.57 492.01,-144.71"/>
<text text-anchor="middle" x="823.5" y="-243.5" font-family="Helvetica,sans-Serif" font-size="10.00"> borderWidth</text>
<text text-anchor="middle" x="823.5" y="-232.5" font-family="Helvetica,sans-Serif" font-size="10.00">cornerRadius</text>
</g>
<!-- Node7 -->
<g id="node7" class="node">
<title>Node7</title>
<g id="a_node7"><a xlink:href="classVector2.html" target="_top" xlink:title=" ">
<polygon fill="white" stroke="#666666" points="1016.5,-177 927.5,-177 927.5,-158 1016.5,-158 1016.5,-177"/>
<text text-anchor="middle" x="972" y="-165" font-family="Helvetica,sans-Serif" font-size="10.00">Vector2&lt; int &gt;</text>
</a>
</g>
</g>
<!-- Node4&#45;&gt;Node7 -->
<g id="edge14" class="edge">
<title>Node4&#45;&gt;Node7</title>
<path fill="none" stroke="#9a32cd" stroke-dasharray="5,2" d="M491.95,-130.43C541.77,-128.62 655.66,-125.84 751,-133.5 812.64,-138.45 883.17,-150.5 927.39,-158.83"/>
<polygon fill="#9a32cd" stroke="#9a32cd" points="491.82,-126.94 481.96,-130.82 492.09,-133.93 491.82,-126.94"/>
<text text-anchor="middle" x="694.5" y="-147.5" font-family="Helvetica,sans-Serif" font-size="10.00"> m_xIndex</text>
<text text-anchor="middle" x="694.5" y="-136.5" font-family="Helvetica,sans-Serif" font-size="10.00">m_yIndex</text>
</g>
<!-- Node10 -->
<g id="node10" class="node">
<title>Node10</title>
<g id="a_node10"><a xlink:href="classProperty.html" target="_top" xlink:title=" ">
<polygon fill="white" stroke="#666666" points="741,-184 648,-184 648,-165 741,-165 741,-184"/>
<text text-anchor="middle" x="694.5" y="-172" font-family="Helvetica,sans-Serif" font-size="10.00">Property&lt; int &gt;</text>
</a>
</g>
</g>
<!-- Node4&#45;&gt;Node10 -->
<g id="edge11" class="edge">
<title>Node4&#45;&gt;Node10</title>
<path fill="none" stroke="#9a32cd" stroke-dasharray="5,2" d="M491.28,-135.54C521.67,-140.57 574.73,-149.6 620,-158.5 629.48,-160.37 639.62,-162.49 649.25,-164.57"/>
<polygon fill="#9a32cd" stroke="#9a32cd" points="492.02,-132.12 481.58,-133.95 490.88,-139.02 492.02,-132.12"/>
<text text-anchor="middle" x="580" y="-161.5" font-family="Helvetica,sans-Serif" font-size="10.00"> m_valuePointer</text>
</g>
<!-- Node12 -->
<g id="node12" class="node">
<title>Node12</title>
<g id="a_node12"><a xlink:href="classVector2.html" target="_top" xlink:title=" ">
<polygon fill="white" stroke="#666666" points="736,-70 653,-70 653,-51 736,-51 736,-70"/>
<text text-anchor="middle" x="694.5" y="-58" font-family="Helvetica,sans-Serif" font-size="10.00">Vector2&lt; T &gt;</text>
</a>
</g>
</g>
<!-- Node4&#45;&gt;Node12 -->
<g id="edge21" class="edge">
<title>Node4&#45;&gt;Node12</title>
<path fill="none" stroke="#9a32cd" stroke-dasharray="5,2" d="M489.44,-115.26C503.43,-106.09 522.04,-95.16 540,-88.5 576.83,-74.85 621.19,-67.68 652.72,-64.03"/>
<polygon fill="#9a32cd" stroke="#9a32cd" points="487.71,-112.2 481.39,-120.7 491.63,-118 487.71,-112.2"/>
<text text-anchor="middle" x="580" y="-102.5" font-family="Helvetica,sans-Serif" font-size="10.00"> m_xIndex</text>
<text text-anchor="middle" x="580" y="-91.5" font-family="Helvetica,sans-Serif" font-size="10.00">m_yIndex</text>
</g>
<!-- Node5 -->
<g id="node5" class="node">
<title>Node5</title>
<g id="a_node5"><a xlink:title=" ">
<polygon fill="white" stroke="#666666" points="713.5,-374 675.5,-374 675.5,-355 713.5,-355 713.5,-374"/>
<text text-anchor="middle" x="694.5" y="-362" font-family="Helvetica,sans-Serif" font-size="10.00">bool</text>
</a>
</g>
</g>
<!-- Node5&#45;&gt;Node1 -->
<g id="edge4" class="edge">
<title>Node5&#45;&gt;Node1</title>
<path fill="none" stroke="#9a32cd" stroke-dasharray="5,2" d="M724.75,-371.38C738.16,-374.2 754.3,-377.11 769,-378.5 919.31,-392.69 1097.59,-355.2 1174.3,-336.44"/>
<polygon fill="#9a32cd" stroke="#9a32cd" points="725.78,-368.02 715.27,-369.3 724.28,-374.86 725.78,-368.02"/>
<text text-anchor="middle" x="972" y="-404.5" font-family="Helvetica,sans-Serif" font-size="10.00"> borderDashed</text>
<text text-anchor="middle" x="972" y="-393.5" font-family="Helvetica,sans-Serif" font-size="10.00">fontBold</text>
<text text-anchor="middle" x="972" y="-382.5" font-family="Helvetica,sans-Serif" font-size="10.00">hasHatching</text>
</g>
<!-- Node16 -->
<g id="node16" class="node">
<title>Node16</title>
<g id="a_node16"><a xlink:href="classFilePath.html" target="_top" xlink:title=" ">
<polygon fill="white" stroke="#666666" points="999.5,-332 944.5,-332 944.5,-313 999.5,-313 999.5,-332"/>
<text text-anchor="middle" x="972" y="-320" font-family="Helvetica,sans-Serif" font-size="10.00">FilePath</text>
</a>
</g>
</g>
<!-- Node5&#45;&gt;Node16 -->
<g id="edge24" class="edge">
<title>Node5&#45;&gt;Node16</title>
<path fill="none" stroke="#9a32cd" stroke-dasharray="5,2" d="M717.66,-348.23C731.63,-339.01 750.46,-328.37 769,-323.5 830.05,-307.46 905.12,-313.48 944.3,-318.47"/>
<polygon fill="#9a32cd" stroke="#9a32cd" points="715.93,-345.18 709.68,-353.74 719.9,-350.94 715.93,-345.18"/>
<text text-anchor="middle" x="823.5" y="-370.5" font-family="Helvetica,sans-Serif" font-size="10.00"> m_canonicalized</text>
<text text-anchor="middle" x="823.5" y="-359.5" font-family="Helvetica,sans-Serif" font-size="10.00">m_checkedExists</text>
<text text-anchor="middle" x="823.5" y="-348.5" font-family="Helvetica,sans-Serif" font-size="10.00">m_checkedIsDirectory</text>
<text text-anchor="middle" x="823.5" y="-337.5" font-family="Helvetica,sans-Serif" font-size="10.00">m_exists</text>
<text text-anchor="middle" x="823.5" y="-326.5" font-family="Helvetica,sans-Serif" font-size="10.00">m_isDirectory</text>
</g>
<!-- Node6 -->
<g id="node6" class="node">
<title>Node6</title>
<g id="a_node6"><a xlink:title=" ">
<polygon fill="white" stroke="#666666" points="994.5,-291 949.5,-291 949.5,-272 994.5,-272 994.5,-291"/>
<text text-anchor="middle" x="972" y="-279" font-family="Helvetica,sans-Serif" font-size="10.00">size_t</text>
</a>
</g>
</g>
<!-- Node6&#45;&gt;Node1 -->
<g id="edge6" class="edge">
<title>Node6&#45;&gt;Node1</title>
<path fill="none" stroke="#9a32cd" stroke-dasharray="5,2" d="M1006.1,-283.25C1036.08,-285.27 1081.35,-289.42 1120,-297.5 1142.57,-302.22 1167.47,-310.19 1185.75,-316.59"/>
<polygon fill="#9a32cd" stroke="#9a32cd" points="1006.34,-279.76 996.14,-282.63 1005.9,-286.75 1006.34,-279.76"/>
<text text-anchor="middle" x="1093" y="-311.5" font-family="Helvetica,sans-Serif" font-size="10.00"> fontSize</text>
<text text-anchor="middle" x="1093" y="-300.5" font-family="Helvetica,sans-Serif" font-size="10.00">iconSize</text>
</g>
<!-- Node7&#45;&gt;Node1 -->
<g id="edge7" class="edge">
<title>Node7&#45;&gt;Node1</title>
<path fill="none" stroke="#9a32cd" stroke-dasharray="5,2" d="M1028.23,-159.22C1057.44,-157.59 1092.79,-160.2 1120,-176.5 1174.86,-209.36 1201.8,-288.54 1209.84,-316.51"/>
<polygon fill="#9a32cd" stroke="#9a32cd" points="1028.16,-155.71 1018.46,-159.96 1028.69,-162.69 1028.16,-155.71"/>
<text text-anchor="middle" x="1093" y="-190.5" font-family="Helvetica,sans-Serif" font-size="10.00"> iconOffset</text>
<text text-anchor="middle" x="1093" y="-179.5" font-family="Helvetica,sans-Serif" font-size="10.00">textOffset</text>
</g>
<!-- Node8 -->
<g id="node8" class="node">
<title>Node8</title>
<g id="a_node8"><a xlink:href="classVectorBase.html" target="_top" xlink:title=" ">
<polygon fill="white" stroke="#666666" points="391,-227 277,-227 277,-208 391,-208 391,-227"/>
<text text-anchor="middle" x="334" y="-215" font-family="Helvetica,sans-Serif" font-size="10.00">VectorBase&lt; T, N &gt;</text>
</a>
</g>
</g>
<!-- Node8&#45;&gt;Node7 -->
<g id="edge8" class="edge">
<title>Node8&#45;&gt;Node7</title>
<path fill="none" stroke="#63b8ff" d="M383.66,-230.2C480.65,-253.15 703.72,-294.09 878,-236.5 913.7,-224.7 946.87,-193.32 962.15,-177.26"/>
<polygon fill="#63b8ff" stroke="#63b8ff" points="384.48,-226.8 373.94,-227.85 382.84,-233.6 384.48,-226.8"/>
</g>
<!-- Node9 -->
<g id="node9" class="node">
<title>Node9</title>
<g id="a_node9"><a xlink:href="classT.html" target="_top" xlink:title=" ">
<polygon fill="white" stroke="#666666" points="29,-148 0,-148 0,-129 29,-129 29,-148"/>
<text text-anchor="middle" x="14.5" y="-136" font-family="Helvetica,sans-Serif" font-size="10.00">T</text>
</a>
</g>
</g>
<!-- Node9&#45;&gt;Node8 -->
<g id="edge9" class="edge">
<title>Node9&#45;&gt;Node8</title>
<path fill="none" stroke="#9a32cd" stroke-dasharray="5,2" d="M29.33,-157.12C34.31,-162.57 40.35,-168.01 47,-171.5 119.89,-209.82 216.55,-217.94 276.75,-218.81"/>
<polygon fill="#9a32cd" stroke="#9a32cd" points="32.06,-154.93 23.01,-149.42 26.65,-159.37 32.06,-154.93"/>
<text text-anchor="middle" x="87" y="-204.5" font-family="Helvetica,sans-Serif" font-size="10.00"> m_values</text>
</g>
<!-- Node11 -->
<g id="node11" class="node">
<title>Node11</title>
<g id="a_node11"><a xlink:href="classProperty.html" target="_top" xlink:title=" ">
<polygon fill="white" stroke="#666666" points="245,-177 159,-177 159,-158 245,-158 245,-177"/>
<text text-anchor="middle" x="202" y="-165" font-family="Helvetica,sans-Serif" font-size="10.00">Property&lt; T &gt;</text>
</a>
</g>
</g>
<!-- Node9&#45;&gt;Node11 -->
<g id="edge13" class="edge">
<title>Node9&#45;&gt;Node11</title>
<path fill="none" stroke="#9a32cd" stroke-dasharray="5,2" d="M40.69,-142.44C71.03,-147.18 122.45,-155.22 158.87,-160.91"/>
<polygon fill="#9a32cd" stroke="#9a32cd" points="41.36,-139 30.94,-140.91 40.28,-145.92 41.36,-139"/>
<text text-anchor="middle" x="87" y="-159.5" font-family="Helvetica,sans-Serif" font-size="10.00"> m_valuePointer</text>
</g>
<!-- Node13 -->
<g id="node13" class="node">
<title>Node13</title>
<g id="a_node13"><a xlink:href="classVectorBase.html" target="_top" xlink:title=" ">
<polygon fill="white" stroke="#666666" points="522,-19 409,-19 409,0 522,0 522,-19"/>
<text text-anchor="middle" x="465.5" y="-7" font-family="Helvetica,sans-Serif" font-size="10.00">VectorBase&lt; T, 2 &gt;</text>
</a>
</g>
</g>
<!-- Node9&#45;&gt;Node13 -->
<g id="edge17" class="edge">
<title>Node9&#45;&gt;Node13</title>
<path fill="none" stroke="#9a32cd" stroke-dasharray="5,2" d="M40.67,-139.43C105.17,-140.55 279.11,-135.56 391,-56.5 403.39,-47.75 397.06,-36.85 409,-27.5 413.15,-24.25 417.9,-21.58 422.84,-19.39"/>
<polygon fill="#9a32cd" stroke="#9a32cd" points="40.88,-135.93 30.8,-139.18 40.71,-142.93 40.88,-135.93"/>
<text text-anchor="middle" x="202" y="-138.5" font-family="Helvetica,sans-Serif" font-size="10.00"> m_values</text>
</g>
<!-- Node14 -->
<g id="node14" class="node">
<title>Node14</title>
<g id="a_node14"><a xlink:href="classVectorBase.html" target="_top" xlink:title=" ">
<polygon fill="white" stroke="#666666" points="259,-64 145,-64 145,-45 259,-45 259,-64"/>
<text text-anchor="middle" x="202" y="-52" font-family="Helvetica,sans-Serif" font-size="10.00">VectorBase&lt; T, N &gt;</text>
</a>
</g>
</g>
<!-- Node9&#45;&gt;Node14 -->
<g id="edge19" class="edge">
<title>Node9&#45;&gt;Node14</title>
<path fill="none" stroke="#9a32cd" stroke-dasharray="5,2" d="M25.51,-118.76C30.81,-110.15 38.08,-100.63 47,-94.5 75.8,-74.72 113.75,-64.72 144.76,-59.66"/>
<polygon fill="#9a32cd" stroke="#9a32cd" points="22.61,-116.79 20.79,-127.22 28.72,-120.2 22.61,-116.79"/>
<text text-anchor="middle" x="87" y="-97.5" font-family="Helvetica,sans-Serif" font-size="10.00"> m_values</text>
</g>
<!-- Node10&#45;&gt;Node7 -->
<g id="edge10" class="edge">
<title>Node10&#45;&gt;Node7</title>
<path fill="none" stroke="#9a32cd" stroke-dasharray="5,2" d="M752.63,-169.41C758.16,-169.04 763.68,-168.73 769,-168.5 823.48,-166.14 886.31,-166.28 927.24,-166.75"/>
<polygon fill="#9a32cd" stroke="#9a32cd" points="752.57,-165.9 742.85,-170.11 753.07,-172.88 752.57,-165.9"/>
<text text-anchor="middle" x="823.5" y="-182.5" font-family="Helvetica,sans-Serif" font-size="10.00"> x</text>
<text text-anchor="middle" x="823.5" y="-171.5" font-family="Helvetica,sans-Serif" font-size="10.00">y</text>
</g>
<!-- Node11&#45;&gt;Node10 -->
<g id="edge12" class="edge">
<title>Node11&#45;&gt;Node10</title>
<path fill="none" stroke="orange" stroke-dasharray="5,2" d="M256.53,-168.26C353.5,-169.65 556.59,-172.55 647.64,-173.85"/>
<polygon fill="orange" stroke="orange" points="256.81,-164.77 246.76,-168.12 256.71,-171.77 256.81,-164.77"/>
<text text-anchor="middle" x="465.5" y="-175.5" font-family="Helvetica,sans-Serif" font-size="10.00"> &lt; int &gt;</text>
</g>
<!-- Node12&#45;&gt;Node7 -->
<g id="edge15" class="edge">
<title>Node12&#45;&gt;Node7</title>
<path fill="none" stroke="orange" stroke-dasharray="5,2" d="M747.36,-65.7C784.9,-70.85 836.19,-80.78 878,-99.5 911.41,-114.46 944.58,-142.78 960.78,-157.71"/>
<polygon fill="orange" stroke="orange" points="748.04,-62.26 737.67,-64.44 747.14,-69.2 748.04,-62.26"/>
<text text-anchor="middle" x="823.5" y="-102.5" font-family="Helvetica,sans-Serif" font-size="10.00"> &lt; int &gt;</text>
</g>
<!-- Node13&#45;&gt;Node12 -->
<g id="edge16" class="edge">
<title>Node13&#45;&gt;Node12</title>
<path fill="none" stroke="#63b8ff" d="M533.56,-19.89C560.57,-24.56 591.92,-30.57 620,-37.5 634.93,-41.18 651.28,-46.2 664.76,-50.61"/>
<polygon fill="#63b8ff" stroke="#63b8ff" points="534.21,-16.45 523.76,-18.23 533.03,-23.35 534.21,-16.45"/>
</g>
<!-- Node14&#45;&gt;Node13 -->
<g id="edge18" class="edge">
<title>Node14&#45;&gt;Node13</title>
<path fill="none" stroke="orange" stroke-dasharray="5,2" d="M270.61,-42.87C313.47,-35.49 368.24,-26.06 408.63,-19.11"/>
<polygon fill="orange" stroke="orange" points="270.17,-39.39 260.91,-44.53 271.36,-46.29 270.17,-39.39"/>
<text text-anchor="middle" x="334" y="-44.5" font-family="Helvetica,sans-Serif" font-size="10.00"> &lt; T, 2 &gt;</text>
</g>
<!-- Node15 -->
<g id="node15" class="node">
<title>Node15</title>
<g id="a_node15"><a xlink:title=" ">
<polygon fill="white" stroke="#666666" points="508.5,-56 422.5,-56 422.5,-37 508.5,-37 508.5,-56"/>
<text text-anchor="middle" x="465.5" y="-44" font-family="Helvetica,sans-Serif" font-size="10.00">Property&lt; T &gt;</text>
</a>
</g>
</g>
<!-- Node15&#45;&gt;Node12 -->
<g id="edge20" class="edge">
<title>Node15&#45;&gt;Node12</title>
<path fill="none" stroke="#9a32cd" stroke-dasharray="5,2" d="M520.32,-41.96C549.84,-40.34 587.04,-39.74 620,-43.5 632.49,-44.93 645.95,-47.67 657.9,-50.55"/>
<polygon fill="#9a32cd" stroke="#9a32cd" points="520.27,-38.45 510.5,-42.56 520.7,-45.44 520.27,-38.45"/>
<text text-anchor="middle" x="580" y="-57.5" font-family="Helvetica,sans-Serif" font-size="10.00"> x</text>
<text text-anchor="middle" x="580" y="-46.5" font-family="Helvetica,sans-Serif" font-size="10.00">y</text>
</g>
<!-- Node16&#45;&gt;Node1 -->
<g id="edge22" class="edge">
<title>Node16&#45;&gt;Node1</title>
<path fill="none" stroke="#9a32cd" stroke-dasharray="5,2" d="M1010.79,-323.13C1044.7,-323.7 1095.46,-324.55 1137.57,-325.25"/>
<polygon fill="#9a32cd" stroke="#9a32cd" points="1011.12,-319.64 1001.06,-322.97 1011,-326.64 1011.12,-319.64"/>
<text text-anchor="middle" x="1093" y="-327.5" font-family="Helvetica,sans-Serif" font-size="10.00"> iconPath</text>
</g>
<!-- Node17 -->
<g id="node17" class="node">
<title>Node17</title>
<g id="a_node17"><a xlink:title=" ">
<polygon fill="white" stroke="#666666" points="751,-308.5 638,-308.5 638,-278.5 751,-278.5 751,-308.5"/>
<text text-anchor="start" x="646" y="-296.5" font-family="Helvetica,sans-Serif" font-size="10.00">unique_ptr&lt; boost::</text>
<text text-anchor="middle" x="694.5" y="-285.5" font-family="Helvetica,sans-Serif" font-size="10.00">filesystem::path &gt;</text>
</a>
</g>
</g>
<!-- Node17&#45;&gt;Node16 -->
<g id="edge23" class="edge">
<title>Node17&#45;&gt;Node16</title>
<path fill="none" stroke="#9a32cd" stroke-dasharray="5,2" d="M762.34,-282.77C797.4,-279.45 840.7,-279 878,-289.5 887.03,-292.04 887.43,-296.7 896,-300.5 911.38,-307.31 929.46,-312.69 944.01,-316.42"/>
<polygon fill="#9a32cd" stroke="#9a32cd" points="762.34,-279.25 752.77,-283.79 763.08,-286.21 762.34,-279.25"/>
<text text-anchor="middle" x="823.5" y="-292.5" font-family="Helvetica,sans-Serif" font-size="10.00"> m_path</text>
</g>
</g>
</svg>
        <g id="navigator" transform="translate(0 0)" fill="#404254">
                <rect fill="#f2f5e9" fill-opacity="0.5" stroke="#606060" stroke-width=".5" x="0" y="0" width="60" height="60"/>
                <use id="zoomplus" xlink:href="#zoomPlus" x="17" y="9" onmousedown="handleZoom(evt,'in')"/>
                <use id="zoomminus" xlink:href="#zoomMin" x="42" y="9" onmousedown="handleZoom(evt,'out')"/>
                <use id="reset" xlink:href="#resetDef" x="30" y="36" onmousedown="handleReset()"/>
                <g id="arrowUp" xlink:href="#dirArrow" transform="translate(30 24)" onmousedown="handlePan(0,-1)">
                  <use xlink:href="#rim" fill="#404040">
                        <set attributeName="fill" to="#808080" begin="arrowUp.mouseover" end="arrowUp.mouseout"/>
                  </use>
                  <path fill="none" stroke="white" stroke-width="1.5" d="M0,-3.0v7 M-2.5,-0.5L0,-3.0L2.5,-0.5"/>
                </g>
                <g id="arrowRight" xlink:href="#dirArrow" transform="rotate(90) translate(36 -43)" onmousedown="handlePan(1,0)">
                  <use xlink:href="#rim" fill="#404040">
                        <set attributeName="fill" to="#808080" begin="arrowRight.mouseover" end="arrowRight.mouseout"/>
                  </use>
                  <path fill="none" stroke="white" stroke-width="1.5" d="M0,-3.0v7 M-2.5,-0.5L0,-3.0L2.5,-0.5"/>
                </g>
                <g id="arrowDown" xlink:href="#dirArrow" transform="rotate(180) translate(-30 -48)" onmousedown="handlePan(0,1)">
                  <use xlink:href="#rim" fill="#404040">
                        <set attributeName="fill" to="#808080" begin="arrowDown.mouseover" end="arrowDown.mouseout"/>
                  </use>
                  <path fill="none" stroke="white" stroke-width="1.5" d="M0,-3.0v7 M-2.5,-0.5L0,-3.0L2.5,-0.5"/>
                </g>
                <g id="arrowLeft" xlink:href="#dirArrow" transform="rotate(270) translate(-36 17)" onmousedown="handlePan(-1,0)">
                  <use xlink:href="#rim" fill="#404040">
                        <set attributeName="fill" to="#808080" begin="arrowLeft.mouseover" end="arrowLeft.mouseout"/>
                  </use>
                  <path fill="none" stroke="white" stroke-width="1.5" d="M0,-3.0v7 M-2.5,-0.5L0,-3.0L2.5,-0.5"/>
                </g>
        </g>
        <svg viewBox="0 0 15 15" width="100%" height="30px" preserveAspectRatio="xMaxYMin meet">
         <g id="arrow_out" transform="scale(0.3 0.3)">
          <a xlink:href="structGraphViewStyle_1_1NodeStyle__coll__graph_org.svg" target="_base">
           <rect id="button" ry="5" rx="5" y="6" x="6" height="38" width="38"
                fill="#f2f5e9" fill-opacity="0.5" stroke="#606060" stroke-width="1.0"/>
           <path id="arrow"
             d="M 11.500037,31.436501 C 11.940474,20.09759 22.043105,11.32322 32.158766,21.979434 L 37.068811,17.246167 C 37.068811,17.246167 37.088388,32 37.088388,32 L 22.160133,31.978069 C 22.160133,31.978069 26.997745,27.140456 26.997745,27.140456 C 18.528582,18.264221 13.291696,25.230495 11.500037,31.436501 z"
             style="fill:#404040;"/>
          </a>
         </g>
        </svg>
</svg>
