<?xml version="1.0" encoding="UTF-8" standalone="no"?>
<!DOCTYPE svg PUBLIC "-//W3C//DTD SVG 1.1//EN"
 "http://www.w3.org/Graphics/SVG/1.1/DTD/svg11.dtd">
<!-- Generated by graphviz version 7.1.0 (0)
 -->
<!-- Title: QtMainWindow::DockWidget Pages: 1 -->
<!--zoomable 291 -->
<svg id="main" version="1.1" xmlns="http://www.w3.org/2000/svg" xmlns:xlink="http://www.w3.org/1999/xlink" xml:space="preserve" onload="init(evt)">
<style type="text/css"><![CDATA[
.edge:hover path { stroke: red; }
.edge:hover polygon { stroke: red; fill: red; }
]]></style>
<script type="text/javascript"><![CDATA[
var edges = document.getElementsByTagName('g');
if (edges && edges.length) {
  for (var i=0;i<edges.length;i++) {
    if (edges[i].id.substr(0,4)=='edge') {
      edges[i].setAttribute('class','edge');
    }
  }
}
]]></script>
        <defs>
                <circle id="rim" cx="0" cy="0" r="7"/>
                <circle id="rim2" cx="0" cy="0" r="3.5"/>
                <g id="zoomPlus">
                        <use xlink:href="#rim" fill="#404040">
                                <set attributeName="fill" to="#808080" begin="zoomplus.mouseover" end="zoomplus.mouseout"/>
                        </use>
                        <path d="M-4,0h8M0,-4v8" fill="none" stroke="white" stroke-width="1.5" pointer-events="none"/>
                </g>
                <g id="zoomMin">
                        <use xlink:href="#rim" fill="#404040">
                                <set attributeName="fill" to="#808080" begin="zoomminus.mouseover" end="zoomminus.mouseout"/>
                        </use>
                        <path d="M-4,0h8" fill="none" stroke="white" stroke-width="1.5" pointer-events="none"/>
                </g>
                <g id="dirArrow">
                        <path fill="none" stroke="white" stroke-width="1.5" d="M0,-3.0v7 M-2.5,-0.5L0,-3.0L2.5,-0.5"/>
                </g>
               <g id="resetDef">
                       <use xlink:href="#rim2" fill="#404040">
                               <set attributeName="fill" to="#808080" begin="reset.mouseover" end="reset.mouseout"/>
                       </use>
               </g>
        </defs>

<script type="text/javascript">
var viewWidth = 565;
var viewHeight = 291;
var sectionId = 'dynsection-0';
</script>
<script xlink:href="svgpan.js"/>
<svg id="graph" class="graph">
<g id="viewport">
<title>QtMainWindow::DockWidget</title>
<!-- Node1 -->
<g id="node1" class="node">
<title>Node1</title>
<g id="a_node1"><a xlink:title=" ">
<polygon fill="#999999" stroke="#666666" points="374.5,-19 218.5,-19 218.5,0 374.5,0 374.5,-19"/>
<text text-anchor="middle" x="296.5" y="-7" font-family="Helvetica,sans-Serif" font-size="10.00">QtMainWindow::DockWidget</text>
</a>
</g>
</g>
<!-- Node2 -->
<g id="node2" class="node">
<title>Node2</title>
<g id="a_node2"><a xlink:title=" ">
<polygon fill="white" stroke="#666666" points="183.5,-85 91.5,-85 91.5,-66 183.5,-66 183.5,-85"/>
<text text-anchor="middle" x="137.5" y="-73" font-family="Helvetica,sans-Serif" font-size="10.00">QDockWidget *</text>
</a>
</g>
</g>
<!-- Node2&#45;&gt;Node1 -->
<g id="edge1" class="edge">
<title>Node2&#45;&gt;Node1</title>
<path fill="none" stroke="#9a32cd" stroke-dasharray="5,2" d="M167.28,-60.96C183.75,-53.62 204.64,-44.53 223.5,-37 239.03,-30.8 256.64,-24.39 270.67,-19.43"/>
<polygon fill="#9a32cd" stroke="#9a32cd" points="166.23,-57.6 158.54,-64.89 169.1,-63.98 166.23,-57.6"/>
<text text-anchor="middle" x="242" y="-40" font-family="Helvetica,sans-Serif" font-size="10.00"> widget</text>
</g>
<!-- Node3 -->
<g id="node3" class="node">
<title>Node3</title>
<g id="a_node3"><a xlink:href="classView.html" target="_top" xlink:title=" ">
<polygon fill="white" stroke="#666666" points="331,-151 290,-151 290,-132 331,-132 331,-151"/>
<text text-anchor="middle" x="310.5" y="-139" font-family="Helvetica,sans-Serif" font-size="10.00">View</text>
</a>
</g>
</g>
<!-- Node3&#45;&gt;Node1 -->
<g id="edge2" class="edge">
<title>Node3&#45;&gt;Node1</title>
<path fill="none" stroke="#9a32cd" stroke-dasharray="5,2" d="M312.06,-120.2C313.19,-99.14 313.59,-65.38 307.5,-37 306.16,-30.77 303.41,-24.14 301,-19.07"/>
<polygon fill="#9a32cd" stroke="#9a32cd" points="308.58,-119.79 311.42,-130 315.57,-120.25 308.58,-119.79"/>
<text text-anchor="middle" x="326" y="-73" font-family="Helvetica,sans-Serif" font-size="10.00"> view</text>
</g>
<!-- Node11 -->
<g id="node11" class="node">
<title>Node11</title>
<g id="a_node11"><a xlink:href="classQtViewToggle.html" target="_top" xlink:title=" ">
<polygon fill="white" stroke="#666666" points="285,-85 202,-85 202,-66 285,-66 285,-85"/>
<text text-anchor="middle" x="243.5" y="-73" font-family="Helvetica,sans-Serif" font-size="10.00">QtViewToggle</text>
</a>
</g>
</g>
<!-- Node3&#45;&gt;Node11 -->
<g id="edge12" class="edge">
<title>Node3&#45;&gt;Node11</title>
<path fill="none" stroke="#9a32cd" stroke-dasharray="5,2" d="M280.85,-125.97C275.38,-122.51 269.98,-118.49 265.5,-114 257.18,-105.67 250.83,-93.56 247.14,-85.38"/>
<polygon fill="#9a32cd" stroke="#9a32cd" points="278.89,-128.88 289.3,-130.84 282.39,-122.82 278.89,-128.88"/>
<text text-anchor="middle" x="286.5" y="-106" font-family="Helvetica,sans-Serif" font-size="10.00"> m_view</text>
</g>
<!-- Node4 -->
<g id="node4" class="node">
<title>Node4</title>
<g id="a_node4"><a xlink:href="classComponent.html" target="_top" xlink:title=" ">
<polygon fill="white" stroke="#666666" points="251,-217 178,-217 178,-198 251,-198 251,-217"/>
<text text-anchor="middle" x="214.5" y="-205" font-family="Helvetica,sans-Serif" font-size="10.00">Component</text>
</a>
</g>
</g>
<!-- Node4&#45;&gt;Node3 -->
<g id="edge3" class="edge">
<title>Node4&#45;&gt;Node3</title>
<path fill="none" stroke="#9a32cd" stroke-dasharray="5,2" d="M220.83,-187.27C223.79,-180.73 227.93,-173.85 233.5,-169 242.03,-161.57 269.97,-153.08 289.73,-147.75"/>
<polygon fill="#9a32cd" stroke="#9a32cd" points="217.74,-185.55 217.44,-196.14 224.28,-188.05 217.74,-185.55"/>
<text text-anchor="middle" x="270" y="-172" font-family="Helvetica,sans-Serif" font-size="10.00"> m_component</text>
</g>
<!-- Node5 -->
<g id="node5" class="node">
<title>Node5</title>
<g id="a_node5"><a xlink:title=" ">
<polygon fill="white" stroke="#666666" points="139,-283 0,-283 0,-264 139,-264 139,-283"/>
<text text-anchor="middle" x="69.5" y="-271" font-family="Helvetica,sans-Serif" font-size="10.00">shared_ptr&lt; Controller &gt;</text>
</a>
</g>
</g>
<!-- Node5&#45;&gt;Node4 -->
<g id="edge4" class="edge">
<title>Node5&#45;&gt;Node4</title>
<path fill="none" stroke="#9a32cd" stroke-dasharray="5,2" d="M96.68,-258.33C111.05,-251.04 129.07,-242.19 145.5,-235 159.96,-228.67 176.45,-222.31 189.69,-217.4"/>
<polygon fill="#9a32cd" stroke="#9a32cd" points="95.14,-255.19 87.84,-262.87 98.34,-261.42 95.14,-255.19"/>
<text text-anchor="middle" x="178" y="-238" font-family="Helvetica,sans-Serif" font-size="10.00"> m_controller</text>
</g>
<!-- Node6 -->
<g id="node6" class="node">
<title>Node6</title>
<g id="a_node6"><a xlink:title=" ">
<polygon fill="white" stroke="#666666" points="272,-283 157,-283 157,-264 272,-264 272,-283"/>
<text text-anchor="middle" x="214.5" y="-271" font-family="Helvetica,sans-Serif" font-size="10.00">shared_ptr&lt; View &gt;</text>
</a>
</g>
</g>
<!-- Node6&#45;&gt;Node4 -->
<g id="edge5" class="edge">
<title>Node6&#45;&gt;Node4</title>
<path fill="none" stroke="#9a32cd" stroke-dasharray="5,2" d="M214.5,-252.18C214.5,-240.44 214.5,-226.27 214.5,-217.32"/>
<polygon fill="#9a32cd" stroke="#9a32cd" points="211,-252.09 214.5,-262.09 218,-252.09 211,-252.09"/>
<text text-anchor="middle" x="235.5" y="-238" font-family="Helvetica,sans-Serif" font-size="10.00"> m_view</text>
</g>
<!-- Node7 -->
<g id="node7" class="node">
<title>Node7</title>
<g id="a_node7"><a xlink:title=" ">
<polygon fill="white" stroke="#666666" points="335,-283 290,-283 290,-264 335,-264 335,-283"/>
<text text-anchor="middle" x="312.5" y="-271" font-family="Helvetica,sans-Serif" font-size="10.00">size_t</text>
</a>
</g>
</g>
<!-- Node7&#45;&gt;Node4 -->
<g id="edge6" class="edge">
<title>Node7&#45;&gt;Node4</title>
<path fill="none" stroke="#9a32cd" stroke-dasharray="5,2" d="M291.79,-256.82C282.4,-249.91 271.05,-241.82 260.5,-235 250.9,-228.8 239.81,-222.39 230.92,-217.42"/>
<polygon fill="#9a32cd" stroke="#9a32cd" points="289.44,-259.44 299.55,-262.6 293.62,-253.82 289.44,-259.44"/>
<text text-anchor="middle" x="298" y="-238" font-family="Helvetica,sans-Serif" font-size="10.00"> m_tabId</text>
</g>
<!-- Node8 -->
<g id="node8" class="node">
<title>Node8</title>
<g id="a_node8"><a xlink:href="classViewLayout.html" target="_top" xlink:title=" ">
<polygon fill="white" stroke="#666666" points="347.5,-217 273.5,-217 273.5,-198 347.5,-198 347.5,-217"/>
<text text-anchor="middle" x="310.5" y="-205" font-family="Helvetica,sans-Serif" font-size="10.00">ViewLayout</text>
</a>
</g>
</g>
<!-- Node8&#45;&gt;Node3 -->
<g id="edge7" class="edge">
<title>Node8&#45;&gt;Node3</title>
<path fill="none" stroke="#9a32cd" stroke-dasharray="5,2" d="M310.5,-186.18C310.5,-174.44 310.5,-160.27 310.5,-151.32"/>
<polygon fill="#9a32cd" stroke="#9a32cd" points="307,-186.09 310.5,-196.09 314,-186.09 307,-186.09"/>
<text text-anchor="middle" x="348" y="-172" font-family="Helvetica,sans-Serif" font-size="10.00"> m_viewLayout</text>
</g>
<!-- Node9 -->
<g id="node9" class="node">
<title>Node9</title>
<g id="a_node9"><a xlink:title=" ">
<polygon fill="white" stroke="#666666" points="557,-217 366,-217 366,-198 557,-198 557,-217"/>
<text text-anchor="middle" x="461.5" y="-205" font-family="Helvetica,sans-Serif" font-size="10.00">shared_ptr&lt; ViewWidgetWrapper &gt;</text>
</a>
</g>
</g>
<!-- Node9&#45;&gt;Node3 -->
<g id="edge8" class="edge">
<title>Node9&#45;&gt;Node3</title>
<path fill="none" stroke="#9a32cd" stroke-dasharray="5,2" d="M436.08,-192.02C422.5,-184.6 405.36,-175.74 389.5,-169 370.2,-160.79 347.41,-153.38 331.29,-148.5"/>
<polygon fill="#9a32cd" stroke="#9a32cd" points="434.34,-195.06 444.79,-196.85 437.74,-188.94 434.34,-195.06"/>
<text text-anchor="middle" x="458" y="-172" font-family="Helvetica,sans-Serif" font-size="10.00"> m_widgetWrapper</text>
</g>
<!-- Node10 -->
<g id="node10" class="node">
<title>Node10</title>
<g id="a_node10"><a xlink:title=" ">
<polygon fill="white" stroke="#666666" points="430,-85 367,-85 367,-66 430,-66 430,-85"/>
<text text-anchor="middle" x="398.5" y="-73" font-family="Helvetica,sans-Serif" font-size="10.00">QAction *</text>
</a>
</g>
</g>
<!-- Node10&#45;&gt;Node1 -->
<g id="edge9" class="edge">
<title>Node10&#45;&gt;Node1</title>
<path fill="none" stroke="#9a32cd" stroke-dasharray="5,2" d="M374.72,-59.58C354.83,-47.1 327.1,-29.7 310.56,-19.32"/>
<polygon fill="#9a32cd" stroke="#9a32cd" points="372.7,-62.45 383.04,-64.8 376.42,-56.52 372.7,-62.45"/>
<text text-anchor="middle" x="370.5" y="-40" font-family="Helvetica,sans-Serif" font-size="10.00"> action</text>
</g>
<!-- Node11&#45;&gt;Node1 -->
<g id="edge10" class="edge">
<title>Node11&#45;&gt;Node1</title>
<path fill="none" stroke="#9a32cd" stroke-dasharray="5,2" d="M257.43,-56.78C262.45,-50.49 268.18,-43.39 273.5,-37 278.49,-31.01 284.24,-24.38 288.74,-19.26"/>
<polygon fill="#9a32cd" stroke="#9a32cd" points="254.71,-54.58 251.25,-64.59 260.2,-58.93 254.71,-54.58"/>
<text text-anchor="middle" x="290.5" y="-40" font-family="Helvetica,sans-Serif" font-size="10.00"> toggle</text>
</g>
<!-- Node12 -->
<g id="node12" class="node">
<title>Node12</title>
<g id="a_node12"><a xlink:href="classQWidget.html" target="_top" xlink:title=" ">
<polygon fill="white" stroke="#666666" points="261,-151 202,-151 202,-132 261,-132 261,-151"/>
<text text-anchor="middle" x="231.5" y="-139" font-family="Helvetica,sans-Serif" font-size="10.00">QWidget</text>
</a>
</g>
</g>
<!-- Node12&#45;&gt;Node11 -->
<g id="edge11" class="edge">
<title>Node12&#45;&gt;Node11</title>
<path fill="none" stroke="#63b8ff" d="M235.24,-120.55C237.45,-108.74 240.15,-94.37 241.85,-85.32"/>
<polygon fill="#63b8ff" stroke="#63b8ff" points="231.85,-119.64 233.45,-130.11 238.73,-120.93 231.85,-119.64"/>
</g>
</g>
</svg>
        <g id="navigator" transform="translate(0 0)" fill="#404254">
                <rect fill="#f2f5e9" fill-opacity="0.5" stroke="#606060" stroke-width=".5" x="0" y="0" width="60" height="60"/>
                <use id="zoomplus" xlink:href="#zoomPlus" x="17" y="9" onmousedown="handleZoom(evt,'in')"/>
                <use id="zoomminus" xlink:href="#zoomMin" x="42" y="9" onmousedown="handleZoom(evt,'out')"/>
                <use id="reset" xlink:href="#resetDef" x="30" y="36" onmousedown="handleReset()"/>
                <g id="arrowUp" xlink:href="#dirArrow" transform="translate(30 24)" onmousedown="handlePan(0,-1)">
                  <use xlink:href="#rim" fill="#404040">
                        <set attributeName="fill" to="#808080" begin="arrowUp.mouseover" end="arrowUp.mouseout"/>
                  </use>
                  <path fill="none" stroke="white" stroke-width="1.5" d="M0,-3.0v7 M-2.5,-0.5L0,-3.0L2.5,-0.5"/>
                </g>
                <g id="arrowRight" xlink:href="#dirArrow" transform="rotate(90) translate(36 -43)" onmousedown="handlePan(1,0)">
                  <use xlink:href="#rim" fill="#404040">
                        <set attributeName="fill" to="#808080" begin="arrowRight.mouseover" end="arrowRight.mouseout"/>
                  </use>
                  <path fill="none" stroke="white" stroke-width="1.5" d="M0,-3.0v7 M-2.5,-0.5L0,-3.0L2.5,-0.5"/>
                </g>
                <g id="arrowDown" xlink:href="#dirArrow" transform="rotate(180) translate(-30 -48)" onmousedown="handlePan(0,1)">
                  <use xlink:href="#rim" fill="#404040">
                        <set attributeName="fill" to="#808080" begin="arrowDown.mouseover" end="arrowDown.mouseout"/>
                  </use>
                  <path fill="none" stroke="white" stroke-width="1.5" d="M0,-3.0v7 M-2.5,-0.5L0,-3.0L2.5,-0.5"/>
                </g>
                <g id="arrowLeft" xlink:href="#dirArrow" transform="rotate(270) translate(-36 17)" onmousedown="handlePan(-1,0)">
                  <use xlink:href="#rim" fill="#404040">
                        <set attributeName="fill" to="#808080" begin="arrowLeft.mouseover" end="arrowLeft.mouseout"/>
                  </use>
                  <path fill="none" stroke="white" stroke-width="1.5" d="M0,-3.0v7 M-2.5,-0.5L0,-3.0L2.5,-0.5"/>
                </g>
        </g>
        <svg viewBox="0 0 15 15" width="100%" height="30px" preserveAspectRatio="xMaxYMin meet">
         <g id="arrow_out" transform="scale(0.3 0.3)">
          <a xlink:href="structQtMainWindow_1_1DockWidget__coll__graph_org.svg" target="_base">
           <rect id="button" ry="5" rx="5" y="6" x="6" height="38" width="38"
                fill="#f2f5e9" fill-opacity="0.5" stroke="#606060" stroke-width="1.0"/>
           <path id="arrow"
             d="M 11.500037,31.436501 C 11.940474,20.09759 22.043105,11.32322 32.158766,21.979434 L 37.068811,17.246167 C 37.068811,17.246167 37.088388,32 37.088388,32 L 22.160133,31.978069 C 22.160133,31.978069 26.997745,27.140456 26.997745,27.140456 C 18.528582,18.264221 13.291696,25.230495 11.500037,31.436501 z"
             style="fill:#404040;"/>
          </a>
         </g>
        </svg>
</svg>
