<?xml version="1.0" encoding="UTF-8" standalone="no"?>
<!DOCTYPE svg PUBLIC "-//W3C//DTD SVG 1.1//EN"
 "http://www.w3.org/Graphics/SVG/1.1/DTD/svg11.dtd">
<!-- Generated by graphviz version 7.1.0 (0)
 -->
<!-- Title: DummyNode::isBundleNode Pages: 1 -->
<!--zoomable 304 -->
<svg id="main" version="1.1" xmlns="http://www.w3.org/2000/svg" xmlns:xlink="http://www.w3.org/1999/xlink" xml:space="preserve" onload="init(evt)">
<style type="text/css"><![CDATA[
.edge:hover path { stroke: red; }
.edge:hover polygon { stroke: red; fill: red; }
]]></style>
<script type="text/javascript"><![CDATA[
var edges = document.getElementsByTagName('g');
if (edges && edges.length) {
  for (var i=0;i<edges.length;i++) {
    if (edges[i].id.substr(0,4)=='edge') {
      edges[i].setAttribute('class','edge');
    }
  }
}
]]></script>
        <defs>
                <circle id="rim" cx="0" cy="0" r="7"/>
                <circle id="rim2" cx="0" cy="0" r="3.5"/>
                <g id="zoomPlus">
                        <use xlink:href="#rim" fill="#404040">
                                <set attributeName="fill" to="#808080" begin="zoomplus.mouseover" end="zoomplus.mouseout"/>
                        </use>
                        <path d="M-4,0h8M0,-4v8" fill="none" stroke="white" stroke-width="1.5" pointer-events="none"/>
                </g>
                <g id="zoomMin">
                        <use xlink:href="#rim" fill="#404040">
                                <set attributeName="fill" to="#808080" begin="zoomminus.mouseover" end="zoomminus.mouseout"/>
                        </use>
                        <path d="M-4,0h8" fill="none" stroke="white" stroke-width="1.5" pointer-events="none"/>
                </g>
                <g id="dirArrow">
                        <path fill="none" stroke="white" stroke-width="1.5" d="M0,-3.0v7 M-2.5,-0.5L0,-3.0L2.5,-0.5"/>
                </g>
               <g id="resetDef">
                       <use xlink:href="#rim2" fill="#404040">
                               <set attributeName="fill" to="#808080" begin="reset.mouseover" end="reset.mouseout"/>
                       </use>
               </g>
        </defs>

<script type="text/javascript">
var viewWidth = 1232;
var viewHeight = 304;
var sectionId = 'dynsection-15';
</script>
<script xlink:href="svgpan.js"/>
<svg id="graph" class="graph">
<g id="viewport">
<title>DummyNode::isBundleNode</title>
<!-- Node1 -->
<g id="node1" class="node">
<title>Node1</title>
<g id="a_node1"><a xlink:title=" ">
<polygon fill="#999999" stroke="#666666" points="1224,-178.5 1069,-178.5 1069,-159.5 1224,-159.5 1224,-178.5"/>
<text text-anchor="middle" x="1146.5" y="-166.5" font-family="Helvetica,sans-Serif" font-size="10.00">DummyNode::isBundleNode</text>
</a>
</g>
</g>
<!-- Node2 -->
<g id="node2" class="node">
<title>Node2</title>
<g id="a_node2"><a xlink:href="classQtGraphView.html#a73d2ab3023aa99d0219f62fbeafbda20" target="_top" xlink:title=" ">
<polygon fill="white" stroke="#666666" points="1032,-277.5 841,-277.5 841,-258.5 1032,-258.5 1032,-277.5"/>
<text text-anchor="middle" x="936.5" y="-265.5" font-family="Helvetica,sans-Serif" font-size="10.00">QtGraphView::createNodeRecursive</text>
</a>
</g>
</g>
<!-- Node1&#45;&gt;Node2 -->
<g id="edge1" class="edge">
<title>Node1&#45;&gt;Node2</title>
<path fill="none" stroke="#63b8ff" d="M1124.92,-185.9C1103.27,-202.88 1067.62,-228.66 1033,-244 1019.71,-249.89 1004.72,-254.51 990.62,-258.06"/>
<polygon fill="#63b8ff" stroke="#63b8ff" points="1127.01,-188.71 1132.64,-179.73 1122.64,-183.24 1127.01,-188.71"/>
</g>
<!-- Node4 -->
<g id="node4" class="node">
<title>Node4</title>
<g id="a_node4"><a xlink:href="classGraphController.html#ae0ab00507f80232071a9a4ef70f41b9a" target="_top" xlink:title=" ">
<polygon fill="white" stroke="#666666" points="388,-163.5 212,-163.5 212,-144.5 388,-144.5 388,-163.5"/>
<text text-anchor="middle" x="300" y="-151.5" font-family="Helvetica,sans-Serif" font-size="10.00">GraphController::handleMessage</text>
</a>
</g>
</g>
<!-- Node1&#45;&gt;Node4 -->
<g id="edge4" class="edge">
<title>Node1&#45;&gt;Node4</title>
<path fill="none" stroke="#63b8ff" d="M1115.37,-183.62C1093.19,-193.54 1061.96,-205.77 1033,-211 771.15,-258.29 449.61,-190.55 339.84,-163.94"/>
<polygon fill="#63b8ff" stroke="#63b8ff" points="1116.79,-186.82 1124.42,-179.46 1113.87,-180.46 1116.79,-186.82"/>
</g>
<!-- Node5 -->
<g id="node5" class="node">
<title>Node5</title>
<g id="a_node5"><a xlink:href="classGraphController.html#a6eb733d5bf04898dec3dcd9348eed25e" target="_top" xlink:title=" ">
<polygon fill="white" stroke="#666666" points="1020.5,-184 852.5,-184 852.5,-154 1020.5,-154 1020.5,-184"/>
<text text-anchor="start" x="860.5" y="-172" font-family="Helvetica,sans-Serif" font-size="10.00">GraphController::layoutNesting</text>
<text text-anchor="middle" x="936.5" y="-161" font-family="Helvetica,sans-Serif" font-size="10.00">Recursive</text>
</a>
</g>
</g>
<!-- Node1&#45;&gt;Node5 -->
<g id="edge5" class="edge">
<title>Node1&#45;&gt;Node5</title>
<path fill="none" stroke="#63b8ff" d="M1057.16,-169C1045.06,-169 1032.68,-169 1020.68,-169"/>
<polygon fill="#63b8ff" stroke="#63b8ff" points="1057.13,-172.5 1067.13,-169 1057.13,-165.5 1057.13,-172.5"/>
</g>
<!-- Node9 -->
<g id="node9" class="node">
<title>Node9</title>
<g id="a_node9"><a xlink:href="structDummyNode.html#a28fda4112dec7a3f9bb35a685474f2dd" target="_top" xlink:title=" ">
<polygon fill="white" stroke="#666666" points="1033,-69.5 840,-69.5 840,-50.5 1033,-50.5 1033,-69.5"/>
<text text-anchor="middle" x="936.5" y="-57.5" font-family="Helvetica,sans-Serif" font-size="10.00">DummyNode::setBundleIdRecursive</text>
</a>
</g>
</g>
<!-- Node1&#45;&gt;Node9 -->
<g id="edge11" class="edge">
<title>Node1&#45;&gt;Node9</title>
<path fill="none" stroke="#63b8ff" d="M1128.58,-151.02C1108.02,-130.3 1071.3,-96.82 1033,-79 1025.11,-75.33 1016.52,-72.36 1007.85,-69.97"/>
<polygon fill="#63b8ff" stroke="#63b8ff" points="1125.83,-153.21 1135.31,-157.95 1130.86,-148.33 1125.83,-153.21"/>
</g>
<!-- Node10 -->
<g id="node10" class="node">
<title>Node10</title>
<g id="a_node10"><a xlink:href="classGraphController.html#a03ff212af7915af6022f02e8f0015635" target="_top" xlink:title=" ">
<polygon fill="white" stroke="#666666" points="1015,-118 858,-118 858,-88 1015,-88 1015,-118"/>
<text text-anchor="start" x="866" y="-106" font-family="Helvetica,sans-Serif" font-size="10.00">GraphController::setNode</text>
<text text-anchor="middle" x="936.5" y="-95" font-family="Helvetica,sans-Serif" font-size="10.00">VisibilityRecursiveBottomUp</text>
</a>
</g>
</g>
<!-- Node1&#45;&gt;Node10 -->
<g id="edge12" class="edge">
<title>Node1&#45;&gt;Node10</title>
<path fill="none" stroke="#63b8ff" d="M1103.43,-155.65C1069.53,-144.9 1021.83,-129.76 986.27,-118.47"/>
<polygon fill="#63b8ff" stroke="#63b8ff" points="1102.33,-158.97 1112.92,-158.66 1104.44,-152.3 1102.33,-158.97"/>
</g>
<!-- Node2&#45;&gt;Node2 -->
<g id="edge2" class="edge">
<title>Node2&#45;&gt;Node2</title>
<path fill="none" stroke="#63b8ff" d="M974.8,-287.92C971.19,-292.3 958.42,-295.5 936.5,-295.5 899.59,-295.5 888.63,-286.44 903.62,-277.87"/>
<polygon fill="#63b8ff" stroke="#63b8ff" points="977.93,-286.34 970.1,-279.2 971.77,-289.66 977.93,-286.34"/>
</g>
<!-- Node3 -->
<g id="node3" class="node">
<title>Node3</title>
<g id="a_node3"><a xlink:href="classQtGraphView.html#a71858975a5b07059726b0337d19fe296" target="_top" xlink:title=" ">
<polygon fill="white" stroke="#666666" points="795,-277.5 645,-277.5 645,-258.5 795,-258.5 795,-277.5"/>
<text text-anchor="middle" x="720" y="-265.5" font-family="Helvetica,sans-Serif" font-size="10.00">QtGraphView::rebuildGraph</text>
</a>
</g>
</g>
<!-- Node2&#45;&gt;Node3 -->
<g id="edge3" class="edge">
<title>Node2&#45;&gt;Node3</title>
<path fill="none" stroke="#63b8ff" d="M829.3,-268C817.78,-268 806.25,-268 795.23,-268"/>
<polygon fill="#63b8ff" stroke="#63b8ff" points="829.28,-271.5 839.28,-268 829.28,-264.5 829.28,-271.5"/>
</g>
<!-- Node5&#45;&gt;Node5 -->
<g id="edge10" class="edge">
<title>Node5&#45;&gt;Node5</title>
<path fill="none" stroke="#63b8ff" d="M971.93,-195.61C966.26,-199.43 954.44,-202 936.5,-202 903.69,-202 891.38,-193.41 899.59,-184.28"/>
<polygon fill="#63b8ff" stroke="#63b8ff" points="975.39,-196.15 973.22,-185.78 968.45,-195.24 975.39,-196.15"/>
</g>
<!-- Node6 -->
<g id="node6" class="node">
<title>Node6</title>
<g id="a_node6"><a xlink:href="classGraphController.html#aea06008a051995fb06c3b3865d11646a" target="_top" xlink:title=" ">
<polygon fill="white" stroke="#666666" points="804,-178.5 636,-178.5 636,-159.5 804,-159.5 804,-178.5"/>
<text text-anchor="middle" x="720" y="-166.5" font-family="Helvetica,sans-Serif" font-size="10.00">GraphController::layoutNesting</text>
</a>
</g>
</g>
<!-- Node5&#45;&gt;Node6 -->
<g id="edge6" class="edge">
<title>Node5&#45;&gt;Node6</title>
<path fill="none" stroke="#63b8ff" d="M841.06,-169C828.78,-169 816.27,-169 804.19,-169"/>
<polygon fill="#63b8ff" stroke="#63b8ff" points="840.75,-172.5 850.75,-169 840.75,-165.5 840.75,-172.5"/>
</g>
<!-- Node7 -->
<g id="node7" class="node">
<title>Node7</title>
<g id="a_node7"><a xlink:href="classGraphController.html#a6c817f0e3c1be7cf49746072c2bfde65" target="_top" xlink:title=" ">
<polygon fill="white" stroke="#666666" points="176,-160.5 0,-160.5 0,-141.5 176,-141.5 176,-160.5"/>
<text text-anchor="middle" x="88" y="-148.5" font-family="Helvetica,sans-Serif" font-size="10.00">GraphController::handleMessage</text>
</a>
</g>
</g>
<!-- Node6&#45;&gt;Node7 -->
<g id="edge7" class="edge">
<title>Node6&#45;&gt;Node7</title>
<path fill="none" stroke="#63b8ff" d="M624.62,-175.16C522.64,-180.55 355.46,-185.73 212,-173 185.85,-170.68 156.95,-165.64 133.73,-160.97"/>
<polygon fill="#63b8ff" stroke="#63b8ff" points="624.5,-178.67 634.3,-174.64 624.13,-171.68 624.5,-178.67"/>
</g>
<!-- Node8 -->
<g id="node8" class="node">
<title>Node8</title>
<g id="a_node8"><a xlink:href="classGraphController.html#aa15472df149e558607ad5f72d47ac26d" target="_top" xlink:title=" ">
<polygon fill="white" stroke="#666666" points="582,-164 442,-164 442,-134 582,-134 582,-164"/>
<text text-anchor="start" x="450" y="-152" font-family="Helvetica,sans-Serif" font-size="10.00">GraphController::relayout</text>
<text text-anchor="middle" x="512" y="-141" font-family="Helvetica,sans-Serif" font-size="10.00">Graph</text>
</a>
</g>
</g>
<!-- Node6&#45;&gt;Node8 -->
<g id="edge8" class="edge">
<title>Node6&#45;&gt;Node8</title>
<path fill="none" stroke="#63b8ff" d="M624.27,-159.8C610.18,-158.44 595.88,-157.05 582.44,-155.74"/>
<polygon fill="#63b8ff" stroke="#63b8ff" points="623.71,-163.27 634,-160.75 624.39,-156.3 623.71,-163.27"/>
</g>
<!-- Node8&#45;&gt;Node4 -->
<g id="edge9" class="edge">
<title>Node8&#45;&gt;Node4</title>
<path fill="none" stroke="#63b8ff" d="M430.26,-150.92C416.51,-151.25 402.16,-151.59 388.25,-151.92"/>
<polygon fill="#63b8ff" stroke="#63b8ff" points="430.23,-154.42 440.14,-150.69 430.06,-147.43 430.23,-154.42"/>
</g>
<!-- Node10&#45;&gt;Node10 -->
<g id="edge13" class="edge">
<title>Node10&#45;&gt;Node10</title>
<path fill="none" stroke="#63b8ff" d="M971.93,-129.61C966.26,-133.43 954.44,-136 936.5,-136 903.69,-136 891.38,-127.41 899.59,-118.28"/>
<polygon fill="#63b8ff" stroke="#63b8ff" points="975.39,-130.15 973.22,-119.78 968.45,-129.24 975.39,-130.15"/>
</g>
<!-- Node11 -->
<g id="node11" class="node">
<title>Node11</title>
<g id="a_node11"><a xlink:href="classGraphController.html#a817b7046c0ae533aecf18e07d4f959ba" target="_top" xlink:title=" ">
<polygon fill="white" stroke="#666666" points="799,-110.5 641,-110.5 641,-91.5 799,-91.5 799,-110.5"/>
<text text-anchor="middle" x="720" y="-98.5" font-family="Helvetica,sans-Serif" font-size="10.00">GraphController::setVisibility</text>
</a>
</g>
</g>
<!-- Node10&#45;&gt;Node11 -->
<g id="edge14" class="edge">
<title>Node10&#45;&gt;Node11</title>
<path fill="none" stroke="#63b8ff" d="M846.45,-102.17C830.77,-102.02 814.55,-101.87 799.2,-101.73"/>
<polygon fill="#63b8ff" stroke="#63b8ff" points="846.21,-105.67 856.24,-102.26 846.28,-98.67 846.21,-105.67"/>
</g>
<!-- Node11&#45;&gt;Node8 -->
<g id="edge20" class="edge">
<title>Node11&#45;&gt;Node8</title>
<path fill="none" stroke="#63b8ff" d="M665.4,-113.49C639.04,-119.63 607.03,-127.09 579.16,-133.58"/>
<polygon fill="#63b8ff" stroke="#63b8ff" points="665.9,-116.97 674.84,-111.29 664.31,-110.15 665.9,-116.97"/>
</g>
<!-- Node12 -->
<g id="node12" class="node">
<title>Node12</title>
<g id="a_node12"><a xlink:href="classGraphController.html#ae595345247fce9cd30a0b2d601cde72c" target="_top" xlink:title=" ">
<polygon fill="white" stroke="#666666" points="598.5,-116 425.5,-116 425.5,-86 598.5,-86 598.5,-116"/>
<text text-anchor="start" x="433.5" y="-104" font-family="Helvetica,sans-Serif" font-size="10.00">GraphController::createDummy</text>
<text text-anchor="middle" x="512" y="-93" font-family="Helvetica,sans-Serif" font-size="10.00">GraphAndSetActiveAndVisibility</text>
</a>
</g>
</g>
<!-- Node11&#45;&gt;Node12 -->
<g id="edge15" class="edge">
<title>Node11&#45;&gt;Node12</title>
<path fill="none" stroke="#63b8ff" d="M629.22,-101C619.12,-101 608.85,-101 598.81,-101"/>
<polygon fill="#63b8ff" stroke="#63b8ff" points="629.02,-104.5 639.02,-101 629.02,-97.5 629.02,-104.5"/>
</g>
<!-- Node15 -->
<g id="node15" class="node">
<title>Node15</title>
<g id="a_node15"><a xlink:href="classGraphController.html#adcf865b84ce0a6e46ab05f50e3fb0925" target="_top" xlink:title=" ">
<polygon fill="white" stroke="#666666" points="600,-67.5 424,-67.5 424,-48.5 600,-48.5 600,-67.5"/>
<text text-anchor="middle" x="512" y="-55.5" font-family="Helvetica,sans-Serif" font-size="10.00">GraphController::handleMessage</text>
</a>
</g>
</g>
<!-- Node11&#45;&gt;Node15 -->
<g id="edge19" class="edge">
<title>Node11&#45;&gt;Node15</title>
<path fill="none" stroke="#63b8ff" d="M659.98,-88.68C628.56,-82.12 590.43,-74.16 560.88,-67.99"/>
<polygon fill="#63b8ff" stroke="#63b8ff" points="659.24,-92.1 669.74,-90.72 660.67,-85.25 659.24,-92.1"/>
</g>
<!-- Node16 -->
<g id="node16" class="node">
<title>Node16</title>
<g id="a_node16"><a xlink:href="classGraphController.html#a5785cbe0b3af3f990c147ec2758aeca2" target="_top" xlink:title=" ">
<polygon fill="white" stroke="#666666" points="585,-30 439,-30 439,0 585,0 585,-30"/>
<text text-anchor="start" x="447" y="-18" font-family="Helvetica,sans-Serif" font-size="10.00">GraphController::setActive</text>
<text text-anchor="middle" x="512" y="-7" font-family="Helvetica,sans-Serif" font-size="10.00">AndVisibility</text>
</a>
</g>
</g>
<!-- Node11&#45;&gt;Node16 -->
<g id="edge21" class="edge">
<title>Node11&#45;&gt;Node16</title>
<path fill="none" stroke="#63b8ff" d="M692.64,-85.2C669.02,-71.55 633.09,-52.01 600,-39 592.13,-35.9 583.7,-33.04 575.31,-30.46"/>
<polygon fill="#63b8ff" stroke="#63b8ff" points="690.87,-88.22 701.27,-90.25 694.41,-82.18 690.87,-88.22"/>
</g>
<!-- Node13 -->
<g id="node13" class="node">
<title>Node13</title>
<g id="a_node13"><a xlink:href="classGraphController.html#aebbedd5d21cef7a3e3eb36b54845c876" target="_top" xlink:title=" ">
<polygon fill="white" stroke="#666666" points="383,-126 217,-126 217,-96 383,-96 383,-126"/>
<text text-anchor="start" x="225" y="-114" font-family="Helvetica,sans-Serif" font-size="10.00">GraphController::createLegend</text>
<text text-anchor="middle" x="300" y="-103" font-family="Helvetica,sans-Serif" font-size="10.00">Graph</text>
</a>
</g>
</g>
<!-- Node12&#45;&gt;Node13 -->
<g id="edge16" class="edge">
<title>Node12&#45;&gt;Node13</title>
<path fill="none" stroke="#63b8ff" d="M413.85,-105.63C403.67,-106.11 393.39,-106.6 383.39,-107.08"/>
<polygon fill="#63b8ff" stroke="#63b8ff" points="413.95,-109.13 423.77,-105.15 413.62,-102.13 413.95,-109.13"/>
</g>
<!-- Node14 -->
<g id="node14" class="node">
<title>Node14</title>
<g id="a_node14"><a xlink:href="classGraphController.html#ad6d410cd1cf31de1e62d207f3195827c" target="_top" xlink:title=" ">
<polygon fill="white" stroke="#666666" points="388,-77.5 212,-77.5 212,-58.5 388,-58.5 388,-77.5"/>
<text text-anchor="middle" x="300" y="-65.5" font-family="Helvetica,sans-Serif" font-size="10.00">GraphController::handleMessage</text>
</a>
</g>
</g>
<!-- Node12&#45;&gt;Node14 -->
<g id="edge18" class="edge">
<title>Node12&#45;&gt;Node14</title>
<path fill="none" stroke="#63b8ff" d="M414.26,-85.8C397.4,-83.15 380.25,-80.45 364.57,-77.99"/>
<polygon fill="#63b8ff" stroke="#63b8ff" points="413.36,-89.2 423.79,-87.3 414.45,-82.29 413.36,-89.2"/>
</g>
<!-- Node13&#45;&gt;Node7 -->
<g id="edge17" class="edge">
<title>Node13&#45;&gt;Node7</title>
<path fill="none" stroke="#63b8ff" d="M206.59,-128.6C184.3,-132.85 161.23,-137.24 141.5,-141"/>
<polygon fill="#63b8ff" stroke="#63b8ff" points="207.15,-132.06 216.32,-126.75 205.84,-125.18 207.15,-132.06"/>
</g>
<!-- Node17 -->
<g id="node17" class="node">
<title>Node17</title>
<g id="a_node17"><a xlink:href="classGraphController.html#a44dfa466a634e4dae85ee297461d523a" target="_top" xlink:title=" ">
<polygon fill="white" stroke="#666666" points="388,-24.5 212,-24.5 212,-5.5 388,-5.5 388,-24.5"/>
<text text-anchor="middle" x="300" y="-12.5" font-family="Helvetica,sans-Serif" font-size="10.00">GraphController::handleMessage</text>
</a>
</g>
</g>
<!-- Node16&#45;&gt;Node17 -->
<g id="edge22" class="edge">
<title>Node16&#45;&gt;Node17</title>
<path fill="none" stroke="#63b8ff" d="M427.52,-15C414.62,-15 401.25,-15 388.27,-15"/>
<polygon fill="#63b8ff" stroke="#63b8ff" points="427.22,-18.5 437.22,-15 427.22,-11.5 427.22,-18.5"/>
</g>
</g>
</svg>
        <g id="navigator" transform="translate(0 0)" fill="#404254">
                <rect fill="#f2f5e9" fill-opacity="0.5" stroke="#606060" stroke-width=".5" x="0" y="0" width="60" height="60"/>
                <use id="zoomplus" xlink:href="#zoomPlus" x="17" y="9" onmousedown="handleZoom(evt,'in')"/>
                <use id="zoomminus" xlink:href="#zoomMin" x="42" y="9" onmousedown="handleZoom(evt,'out')"/>
                <use id="reset" xlink:href="#resetDef" x="30" y="36" onmousedown="handleReset()"/>
                <g id="arrowUp" xlink:href="#dirArrow" transform="translate(30 24)" onmousedown="handlePan(0,-1)">
                  <use xlink:href="#rim" fill="#404040">
                        <set attributeName="fill" to="#808080" begin="arrowUp.mouseover" end="arrowUp.mouseout"/>
                  </use>
                  <path fill="none" stroke="white" stroke-width="1.5" d="M0,-3.0v7 M-2.5,-0.5L0,-3.0L2.5,-0.5"/>
                </g>
                <g id="arrowRight" xlink:href="#dirArrow" transform="rotate(90) translate(36 -43)" onmousedown="handlePan(1,0)">
                  <use xlink:href="#rim" fill="#404040">
                        <set attributeName="fill" to="#808080" begin="arrowRight.mouseover" end="arrowRight.mouseout"/>
                  </use>
                  <path fill="none" stroke="white" stroke-width="1.5" d="M0,-3.0v7 M-2.5,-0.5L0,-3.0L2.5,-0.5"/>
                </g>
                <g id="arrowDown" xlink:href="#dirArrow" transform="rotate(180) translate(-30 -48)" onmousedown="handlePan(0,1)">
                  <use xlink:href="#rim" fill="#404040">
                        <set attributeName="fill" to="#808080" begin="arrowDown.mouseover" end="arrowDown.mouseout"/>
                  </use>
                  <path fill="none" stroke="white" stroke-width="1.5" d="M0,-3.0v7 M-2.5,-0.5L0,-3.0L2.5,-0.5"/>
                </g>
                <g id="arrowLeft" xlink:href="#dirArrow" transform="rotate(270) translate(-36 17)" onmousedown="handlePan(-1,0)">
                  <use xlink:href="#rim" fill="#404040">
                        <set attributeName="fill" to="#808080" begin="arrowLeft.mouseover" end="arrowLeft.mouseout"/>
                  </use>
                  <path fill="none" stroke="white" stroke-width="1.5" d="M0,-3.0v7 M-2.5,-0.5L0,-3.0L2.5,-0.5"/>
                </g>
        </g>
        <svg viewBox="0 0 15 15" width="100%" height="30px" preserveAspectRatio="xMaxYMin meet">
         <g id="arrow_out" transform="scale(0.3 0.3)">
          <a xlink:href="structDummyNode_a4366939aa86a062d1893c3a642977772_icgraph_org.svg" target="_base">
           <rect id="button" ry="5" rx="5" y="6" x="6" height="38" width="38"
                fill="#f2f5e9" fill-opacity="0.5" stroke="#606060" stroke-width="1.0"/>
           <path id="arrow"
             d="M 11.500037,31.436501 C 11.940474,20.09759 22.043105,11.32322 32.158766,21.979434 L 37.068811,17.246167 C 37.068811,17.246167 37.088388,32 37.088388,32 L 22.160133,31.978069 C 22.160133,31.978069 26.997745,27.140456 26.997745,27.140456 C 18.528582,18.264221 13.291696,25.230495 11.500037,31.436501 z"
             style="fill:#404040;"/>
          </a>
         </g>
        </svg>
</svg>
