<?xml version="1.0" encoding="UTF-8" standalone="no"?>
<!DOCTYPE svg PUBLIC "-//W3C//DTD SVG 1.1//EN"
 "http://www.w3.org/Graphics/SVG/1.1/DTD/svg11.dtd">
<!-- Generated by graphviz version 7.1.0 (0)
 -->
<!-- Title: SearchMatch::isValid Pages: 1 -->
<svg width="699pt" height="198pt"
 viewBox="0.00 0.00 699.00 197.50" xmlns="http://www.w3.org/2000/svg" xmlns:xlink="http://www.w3.org/1999/xlink">
<g id="graph0" class="graph" transform="scale(1 1) rotate(0) translate(4 193.5)">
<title>SearchMatch::isValid</title>
<!-- Node1 -->
<g id="node1" class="node">
<title>Node1</title>
<g id="a_node1"><a xlink:title=" ">
<polygon fill="#999999" stroke="#666666" points="691,-133.5 572,-133.5 572,-114.5 691,-114.5 691,-133.5"/>
<text text-anchor="middle" x="631.5" y="-121.5" font-family="Helvetica,sans-Serif" font-size="10.00">SearchMatch::isValid</text>
</a>
</g>
</g>
<!-- Node2 -->
<g id="node2" class="node">
<title>Node2</title>
<g id="a_node2"><a xlink:href="classTabsController.html#a41bda6f61980fcbcf21a7b69a8b7d2fe" target="_top" xlink:title=" ">
<polygon fill="white" stroke="#666666" points="515,-189.5 388,-189.5 388,-170.5 515,-170.5 515,-189.5"/>
<text text-anchor="middle" x="451.5" y="-177.5" font-family="Helvetica,sans-Serif" font-size="10.00">TabsController::addTab</text>
</a>
</g>
</g>
<!-- Node1&#45;&gt;Node2 -->
<g id="edge1" class="edge">
<title>Node1&#45;&gt;Node2</title>
<path fill="none" stroke="#63b8ff" d="M598.21,-138.57C580.18,-146.31 557.14,-155.52 536,-162 526.22,-165 515.64,-167.69 505.41,-170.02"/>
<polygon fill="#63b8ff" stroke="#63b8ff" points="599.58,-141.8 607.35,-134.59 596.78,-135.38 599.58,-141.8"/>
</g>
<!-- Node3 -->
<g id="node3" class="node">
<title>Node3</title>
<g id="a_node3"><a xlink:href="classTabsController.html#ab8edc0046d7f189a0adeb6820e468cd6" target="_top" xlink:title=" ">
<polygon fill="white" stroke="#666666" points="536,-152.5 367,-152.5 367,-133.5 536,-133.5 536,-152.5"/>
<text text-anchor="middle" x="451.5" y="-140.5" font-family="Helvetica,sans-Serif" font-size="10.00">TabsController::handleMessage</text>
</a>
</g>
</g>
<!-- Node1&#45;&gt;Node3 -->
<g id="edge2" class="edge">
<title>Node1&#45;&gt;Node3</title>
<path fill="none" stroke="#63b8ff" d="M560.35,-131.49C552.46,-132.33 544.37,-133.19 536.34,-134.05"/>
<polygon fill="#63b8ff" stroke="#63b8ff" points="560.65,-134.98 570.22,-130.43 559.9,-128.02 560.65,-134.98"/>
</g>
<!-- Node4 -->
<g id="node4" class="node">
<title>Node4</title>
<g id="a_node4"><a xlink:href="classQtTabsView.html#a8e1d7f408ae3a360d0052bd0ee3d3c5f" target="_top" xlink:title=" ">
<polygon fill="white" stroke="#666666" points="513.5,-115.5 389.5,-115.5 389.5,-96.5 513.5,-96.5 513.5,-115.5"/>
<text text-anchor="middle" x="451.5" y="-103.5" font-family="Helvetica,sans-Serif" font-size="10.00">QtTabsView::insertTab</text>
</a>
</g>
</g>
<!-- Node1&#45;&gt;Node4 -->
<g id="edge3" class="edge">
<title>Node1&#45;&gt;Node4</title>
<path fill="none" stroke="#63b8ff" d="M560.67,-116.94C545.25,-115.38 529.02,-113.74 513.96,-112.22"/>
<polygon fill="#63b8ff" stroke="#63b8ff" points="559.92,-120.38 570.22,-117.9 560.62,-113.42 559.92,-120.38"/>
</g>
<!-- Node8 -->
<g id="node8" class="node">
<title>Node8</title>
<g id="a_node8"><a xlink:href="classQtSmartSearchBox.html#ad9767d6694a5048a3a916016c58088db" target="_top" xlink:title=" ">
<polygon fill="white" stroke="#666666" points="525,-78 378,-78 378,-48 525,-48 525,-78"/>
<text text-anchor="start" x="386" y="-66" font-family="Helvetica,sans-Serif" font-size="10.00">QtSmartSearchBox::onText</text>
<text text-anchor="middle" x="451.5" y="-55" font-family="Helvetica,sans-Serif" font-size="10.00">Edited</text>
</a>
</g>
</g>
<!-- Node1&#45;&gt;Node8 -->
<g id="edge7" class="edge">
<title>Node1&#45;&gt;Node8</title>
<path fill="none" stroke="#63b8ff" d="M596.55,-109.82C578.68,-102.58 556.31,-93.88 536,-87 527.29,-84.05 517.98,-81.14 508.87,-78.42"/>
<polygon fill="#63b8ff" stroke="#63b8ff" points="595.05,-112.99 605.63,-113.53 597.7,-106.51 595.05,-112.99"/>
</g>
<!-- Node5 -->
<g id="node5" class="node">
<title>Node5</title>
<g id="a_node5"><a xlink:href="classQtTabsView.html#a478130ed6c03e82b41b44bc6d1448347" target="_top" xlink:title=" ">
<polygon fill="white" stroke="#666666" points="309,-152.5 195,-152.5 195,-133.5 309,-133.5 309,-152.5"/>
<text text-anchor="middle" x="252" y="-140.5" font-family="Helvetica,sans-Serif" font-size="10.00">QtTabsView::addTab</text>
</a>
</g>
</g>
<!-- Node4&#45;&gt;Node5 -->
<g id="edge4" class="edge">
<title>Node4&#45;&gt;Node5</title>
<path fill="none" stroke="#63b8ff" d="M386.11,-118.06C360.28,-122.9 330.88,-128.41 306.28,-133.02"/>
<polygon fill="#63b8ff" stroke="#63b8ff" points="386.64,-121.52 395.83,-116.24 385.35,-114.64 386.64,-121.52"/>
</g>
<!-- Node7 -->
<g id="node7" class="node">
<title>Node7</title>
<g id="a_node7"><a xlink:href="classQtTabsView.html#a0a18aa8870c38cd13b8f826fb25326c0" target="_top" xlink:title=" ">
<polygon fill="white" stroke="#666666" points="312,-115.5 192,-115.5 192,-96.5 312,-96.5 312,-115.5"/>
<text text-anchor="middle" x="252" y="-103.5" font-family="Helvetica,sans-Serif" font-size="10.00">QtTabsView::openTab</text>
</a>
</g>
</g>
<!-- Node4&#45;&gt;Node7 -->
<g id="edge6" class="edge">
<title>Node4&#45;&gt;Node7</title>
<path fill="none" stroke="#63b8ff" d="M377.69,-106C356.18,-106 332.9,-106 312.34,-106"/>
<polygon fill="#63b8ff" stroke="#63b8ff" points="377.58,-109.5 387.58,-106 377.58,-102.5 377.58,-109.5"/>
</g>
<!-- Node6 -->
<g id="node6" class="node">
<title>Node6</title>
<g id="a_node6"><a xlink:href="classQtTabsView.html#a7e36a90b55d78e1b12decb66f8adc549" target="_top" xlink:title=" ">
<polygon fill="white" stroke="#666666" points="137,-152.5 0,-152.5 0,-133.5 137,-133.5 137,-152.5"/>
<text text-anchor="middle" x="68.5" y="-140.5" font-family="Helvetica,sans-Serif" font-size="10.00">QtTabsView::QtTabsView</text>
</a>
</g>
</g>
<!-- Node5&#45;&gt;Node6 -->
<g id="edge5" class="edge">
<title>Node5&#45;&gt;Node6</title>
<path fill="none" stroke="#63b8ff" d="M183.3,-143C168.29,-143 152.39,-143 137.38,-143"/>
<polygon fill="#63b8ff" stroke="#63b8ff" points="183.05,-146.5 193.05,-143 183.05,-139.5 183.05,-146.5"/>
</g>
<!-- Node9 -->
<g id="node9" class="node">
<title>Node9</title>
<g id="a_node9"><a xlink:href="classQtSmartSearchBox.html#a42acffd3ed003ed9dca6c0eb45ec2caa" target="_top" xlink:title=" ">
<polygon fill="white" stroke="#666666" points="331,-78 173,-78 173,-48 331,-48 331,-78"/>
<text text-anchor="start" x="181" y="-66" font-family="Helvetica,sans-Serif" font-size="10.00">QtSmartSearchBox::keyPress</text>
<text text-anchor="middle" x="252" y="-55" font-family="Helvetica,sans-Serif" font-size="10.00">Event</text>
</a>
</g>
</g>
<!-- Node8&#45;&gt;Node9 -->
<g id="edge8" class="edge">
<title>Node8&#45;&gt;Node9</title>
<path fill="none" stroke="#63b8ff" d="M366.09,-63C354.55,-63 342.74,-63 331.32,-63"/>
<polygon fill="#63b8ff" stroke="#63b8ff" points="366.01,-66.5 376.01,-63 366.01,-59.5 366.01,-66.5"/>
</g>
<!-- Node10 -->
<g id="node10" class="node">
<title>Node10</title>
<g id="a_node10"><a xlink:href="classQtSmartSearchBox.html#a99ffcb6d25c1d4c418540a516e9d201a" target="_top" xlink:title=" ">
<polygon fill="white" stroke="#666666" points="329.5,-30 174.5,-30 174.5,0 329.5,0 329.5,-30"/>
<text text-anchor="start" x="182.5" y="-18" font-family="Helvetica,sans-Serif" font-size="10.00">QtSmartSearchBox::QtSmart</text>
<text text-anchor="middle" x="252" y="-7" font-family="Helvetica,sans-Serif" font-size="10.00">SearchBox</text>
</a>
</g>
</g>
<!-- Node8&#45;&gt;Node10 -->
<g id="edge9" class="edge">
<title>Node8&#45;&gt;Node10</title>
<path fill="none" stroke="#63b8ff" d="M375.89,-44.87C356.32,-40.11 335.39,-35.02 316.46,-30.42"/>
<polygon fill="#63b8ff" stroke="#63b8ff" points="374.91,-48.23 385.45,-47.19 376.56,-41.43 374.91,-48.23"/>
</g>
</g>
</svg>
