<?xml version="1.0" encoding="UTF-8" standalone="no"?>
<!DOCTYPE svg PUBLIC "-//W3C//DTD SVG 1.1//EN"
 "http://www.w3.org/Graphics/SVG/1.1/DTD/svg11.dtd">
<!-- Generated by graphviz version 9.0.0 (0)
 -->
<!-- Title: StorageLocalSymbol Pages: 1 -->
<svg width="210pt" height="168pt"
 viewBox="0.00 0.00 209.75 167.75" xmlns="http://www.w3.org/2000/svg" xmlns:xlink="http://www.w3.org/1999/xlink">
<g id="graph0" class="graph" transform="scale(1 1) rotate(0) translate(4 163.75)">
<title>StorageLocalSymbol</title>
<!-- Node1 -->
<g id="Node000001" class="node">
<title>Node1</title>
<g id="a_Node000001"><a xlink:title=" ">
<polygon fill="#999999" stroke="#666666" points="182.38,-20.75 66.62,-20.75 66.62,0 182.38,0 182.38,-20.75"/>
<text text-anchor="middle" x="124.5" y="-7.25" font-family="Helvetica,sans-Serif" font-size="10.00">StorageLocalSymbol</text>
</a>
</g>
</g>
<!-- Node2 -->
<g id="Node000002" class="node">
<title>Node2</title>
<g id="a_Node000002"><a xlink:href="structStorageLocalSymbolData.html" target="_top" xlink:title=" ">
<polygon fill="white" stroke="#666666" points="139,-90.25 0,-90.25 0,-69.5 139,-69.5 139,-90.25"/>
<text text-anchor="middle" x="69.5" y="-76.75" font-family="Helvetica,sans-Serif" font-size="10.00">StorageLocalSymbolData</text>
</a>
</g>
</g>
<!-- Node2&#45;&gt;Node1 -->
<g id="edge1_Node000001_Node000002" class="edge">
<title>Node2&#45;&gt;Node1</title>
<g id="a_edge1_Node000001_Node000002"><a xlink:title=" ">
<path fill="none" stroke="#63b8ff" d="M84.6,-60.35C94.96,-47.62 108.31,-31.25 116.63,-21.03"/>
<polygon fill="#63b8ff" stroke="#63b8ff" points="81.94,-58.07 78.34,-68.03 87.37,-62.49 81.94,-58.07"/>
</a>
</g>
</g>
<!-- Node3 -->
<g id="Node000003" class="node">
<title>Node3</title>
<g id="a_Node000003"><a xlink:title=" ">
<polygon fill="white" stroke="#666666" points="95.5,-159.75 43.5,-159.75 43.5,-139 95.5,-139 95.5,-159.75"/>
<text text-anchor="middle" x="69.5" y="-146.25" font-family="Helvetica,sans-Serif" font-size="10.00">wstring</text>
</a>
</g>
</g>
<!-- Node3&#45;&gt;Node2 -->
<g id="edge2_Node000002_Node000003" class="edge">
<title>Node3&#45;&gt;Node2</title>
<g id="a_edge2_Node000002_Node000003"><a xlink:title=" ">
<path fill="none" stroke="#9a32cd" stroke-dasharray="5,2" d="M69.5,-127.57C69.5,-115.22 69.5,-100.15 69.5,-90.53"/>
<polygon fill="#9a32cd" stroke="#9a32cd" points="66,-127.19 69.5,-137.19 73,-127.19 66,-127.19"/>
</a>
</g>
<text text-anchor="middle" x="84.88" y="-111.5" font-family="Helvetica,sans-Serif" font-size="10.00" fill="grey"> name</text>
</g>
<!-- Node4 -->
<g id="Node000004" class="node">
<title>Node4</title>
<g id="a_Node000004"><a xlink:title=" ">
<polygon fill="white" stroke="#666666" points="201.75,-90.25 157.25,-90.25 157.25,-69.5 201.75,-69.5 201.75,-90.25"/>
<text text-anchor="middle" x="179.5" y="-76.75" font-family="Helvetica,sans-Serif" font-size="10.00">size_t</text>
</a>
</g>
</g>
<!-- Node4&#45;&gt;Node1 -->
<g id="edge3_Node000001_Node000004" class="edge">
<title>Node4&#45;&gt;Node1</title>
<g id="a_edge3_Node000001_Node000004"><a xlink:title=" ">
<path fill="none" stroke="#9a32cd" stroke-dasharray="5,2" d="M164.4,-60.35C154.04,-47.62 140.69,-31.25 132.37,-21.03"/>
<polygon fill="#9a32cd" stroke="#9a32cd" points="161.63,-62.49 170.66,-68.03 167.06,-58.07 161.63,-62.49"/>
</a>
</g>
<text text-anchor="middle" x="162.5" y="-42" font-family="Helvetica,sans-Serif" font-size="10.00" fill="grey"> id</text>
</g>
</g>
</svg>
