<?xml version="1.0" encoding="UTF-8" standalone="no"?>
<!DOCTYPE svg PUBLIC "-//W3C//DTD SVG 1.1//EN"
 "http://www.w3.org/Graphics/SVG/1.1/DTD/svg11.dtd">
<!-- Generated by graphviz version 7.1.0 (0)
 -->
<!-- Title: StorageStats Pages: 1 -->
<svg width="209pt" height="203pt"
 viewBox="0.00 0.00 208.50 203.00" xmlns="http://www.w3.org/2000/svg" xmlns:xlink="http://www.w3.org/1999/xlink">
<g id="graph0" class="graph" transform="scale(1 1) rotate(0) translate(4 199)">
<title>StorageStats</title>
<!-- Node1 -->
<g id="node1" class="node">
<title>Node1</title>
<g id="a_node1"><a xlink:title=" ">
<polygon fill="#999999" stroke="#666666" points="123,-19 44,-19 44,0 123,0 123,-19"/>
<text text-anchor="middle" x="83.5" y="-7" font-family="Helvetica,sans-Serif" font-size="10.00">StorageStats</text>
</a>
</g>
</g>
<!-- Node2 -->
<g id="node2" class="node">
<title>Node2</title>
<g id="a_node2"><a xlink:title=" ">
<polygon fill="white" stroke="#666666" points="45,-129 0,-129 0,-110 45,-110 45,-129"/>
<text text-anchor="middle" x="22.5" y="-117" font-family="Helvetica,sans-Serif" font-size="10.00">size_t</text>
</a>
</g>
</g>
<!-- Node2&#45;&gt;Node1 -->
<g id="edge1" class="edge">
<title>Node2&#45;&gt;Node1</title>
<path fill="none" stroke="#9a32cd" stroke-dasharray="5,2" d="M17.11,-98.53C13.56,-80.86 11.52,-55.14 23.5,-37 28.83,-28.92 37.24,-23.29 46.09,-19.36"/>
<polygon fill="#9a32cd" stroke="#9a32cd" points="13.65,-99.12 19.36,-108.04 20.46,-97.51 13.65,-99.12"/>
<text text-anchor="middle" x="73.5" y="-84" font-family="Helvetica,sans-Serif" font-size="10.00"> completedFileCount</text>
<text text-anchor="middle" x="73.5" y="-73" font-family="Helvetica,sans-Serif" font-size="10.00">edgeCount</text>
<text text-anchor="middle" x="73.5" y="-62" font-family="Helvetica,sans-Serif" font-size="10.00">fileCount</text>
<text text-anchor="middle" x="73.5" y="-51" font-family="Helvetica,sans-Serif" font-size="10.00">fileLOCCount</text>
<text text-anchor="middle" x="73.5" y="-40" font-family="Helvetica,sans-Serif" font-size="10.00">nodeCount</text>
</g>
<!-- Node3 -->
<g id="node3" class="node">
<title>Node3</title>
<g id="a_node3"><a xlink:href="classTimeStamp.html" target="_top" xlink:title=" ">
<polygon fill="white" stroke="#666666" points="181.5,-129 109.5,-129 109.5,-110 181.5,-110 181.5,-129"/>
<text text-anchor="middle" x="145.5" y="-117" font-family="Helvetica,sans-Serif" font-size="10.00">TimeStamp</text>
</a>
</g>
</g>
<!-- Node3&#45;&gt;Node1 -->
<g id="edge2" class="edge">
<title>Node3&#45;&gt;Node1</title>
<path fill="none" stroke="#9a32cd" stroke-dasharray="5,2" d="M144.05,-98.33C141.9,-80.71 136.6,-55.18 123.5,-37 118.14,-29.57 110,-23.63 102.46,-19.27"/>
<polygon fill="#9a32cd" stroke="#9a32cd" points="140.54,-98.42 144.97,-108.04 147.51,-97.75 140.54,-98.42"/>
<text text-anchor="middle" x="172" y="-62" font-family="Helvetica,sans-Serif" font-size="10.00"> timestamp</text>
</g>
<!-- Node4 -->
<g id="node4" class="node">
<title>Node4</title>
<g id="a_node4"><a xlink:title=" ">
<polygon fill="white" stroke="#666666" points="168,-195 123,-195 123,-176 168,-176 168,-195"/>
<text text-anchor="middle" x="145.5" y="-183" font-family="Helvetica,sans-Serif" font-size="10.00">ptime</text>
</a>
</g>
</g>
<!-- Node4&#45;&gt;Node3 -->
<g id="edge3" class="edge">
<title>Node4&#45;&gt;Node3</title>
<path fill="none" stroke="#9a32cd" stroke-dasharray="5,2" d="M145.5,-164.18C145.5,-152.44 145.5,-138.27 145.5,-129.32"/>
<polygon fill="#9a32cd" stroke="#9a32cd" points="142,-164.09 145.5,-174.09 149,-164.09 142,-164.09"/>
<text text-anchor="middle" x="166" y="-150" font-family="Helvetica,sans-Serif" font-size="10.00"> m_time</text>
</g>
</g>
</svg>
