<?xml version="1.0" encoding="UTF-8" standalone="no"?>
<!DOCTYPE svg PUBLIC "-//W3C//DTD SVG 1.1//EN"
 "http://www.w3.org/Graphics/SVG/1.1/DTD/svg11.dtd">
<!-- Generated by graphviz version 9.0.0 (0)
 -->
<!-- Title: RefreshInfo Pages: 1 -->
<svg width="293pt" height="124pt"
 viewBox="0.00 0.00 293.38 123.75" xmlns="http://www.w3.org/2000/svg" xmlns:xlink="http://www.w3.org/1999/xlink">

<svg id="main" version="1.1" xmlns="http://www.w3.org/2000/svg" xmlns:xlink="http://www.w3.org/1999/xlink" xml:space="preserve" onload="init(evt)">
<style type="text/css"><![CDATA[
.node, .edge {opacity: 0.7;}
.node.selected, .edge.selected {opacity: 1;}
.edge:hover path { stroke: red; }
.edge:hover polygon { stroke: red; fill: red; }
]]></style>
<script type="application/ecmascript" xlink:href="svg.min.js"/>
<svg id="graph" class="graph">
<g id="graph0" class="graph" transform="scale(1 1) rotate(0) translate(4 119.75)">
<title>RefreshInfo</title>
<!-- Node1 -->
<g id="Node000001" class="node">
<title>Node1</title>
<g id="a_Node000001"><a xlink:title=" ">
<polygon fill="#999999" stroke="#666666" points="220,-20.75 147.75,-20.75 147.75,0 220,0 220,-20.75"/>
<text text-anchor="middle" x="183.88" y="-7.25" font-family="Helvetica,sans-Serif" font-size="10.00">RefreshInfo</text>
</a>
</g>
</g>
<!-- Node2 -->
<g id="Node000002" class="node">
<title>Node2</title>
<g id="a_Node000002"><a xlink:title=" ">
<polygon fill="white" stroke="#666666" points="91.75,-115.75 0,-115.75 0,-95 91.75,-95 91.75,-115.75"/>
<text text-anchor="middle" x="45.88" y="-102.25" font-family="Helvetica,sans-Serif" font-size="10.00">set&lt; FilePath &gt;</text>
</a>
</g>
</g>
<!-- Node2&#45;&gt;Node1 -->
<g id="edge1_Node000001_Node000002" class="edge">
<title>Node2&#45;&gt;Node1</title>
<g id="a_edge1_Node000001_Node000002"><a xlink:title=" ">
<path fill="none" stroke="#9a32cd" stroke-dasharray="5,2" d="M46.67,-83.42C48.36,-68.91 52.96,-50.22 65.12,-38.75 76.9,-27.65 117.02,-20.04 147.39,-15.71"/>
<polygon fill="#9a32cd" stroke="#9a32cd" points="43.19,-83.07 45.94,-93.3 50.17,-83.59 43.19,-83.07"/>
</a>
</g>
<text text-anchor="middle" x="123.25" y="-67.5" font-family="Helvetica,sans-Serif" font-size="10.00" fill="grey"> filesToClear</text>
<text text-anchor="middle" x="123.25" y="-54.75" font-family="Helvetica,sans-Serif" font-size="10.00" fill="grey">filesToIndex</text>
<text text-anchor="middle" x="123.25" y="-42" font-family="Helvetica,sans-Serif" font-size="10.00" fill="grey">nonIndexedFilesToClear</text>
</g>
<!-- Node3 -->
<g id="Node000003" class="node">
<title>Node3</title>
<g id="a_Node000003"><a xlink:title=" ">
<polygon fill="white" stroke="#666666" points="224.12,-115.75 143.62,-115.75 143.62,-95 224.12,-95 224.12,-115.75"/>
<text text-anchor="middle" x="183.88" y="-102.25" font-family="Helvetica,sans-Serif" font-size="10.00">RefreshMode</text>
</a>
</g>
</g>
<!-- Node3&#45;&gt;Node1 -->
<g id="edge2_Node000001_Node000003" class="edge">
<title>Node3&#45;&gt;Node1</title>
<g id="a_edge2_Node000001_Node000003"><a xlink:title=" ">
<path fill="none" stroke="#9a32cd" stroke-dasharray="5,2" d="M183.88,-83.45C183.88,-63.94 183.88,-35.74 183.88,-21.06"/>
<polygon fill="#9a32cd" stroke="#9a32cd" points="180.38,-83.26 183.88,-93.26 187.38,-83.26 180.38,-83.26"/>
</a>
</g>
<text text-anchor="middle" x="199.25" y="-54.75" font-family="Helvetica,sans-Serif" font-size="10.00" fill="grey"> mode</text>
</g>
<!-- Node4 -->
<g id="Node000004" class="node">
<title>Node4</title>
<g id="a_Node000004"><a xlink:title=" ">
<polygon fill="white" stroke="#666666" points="279.38,-115.75 242.38,-115.75 242.38,-95 279.38,-95 279.38,-115.75"/>
<text text-anchor="middle" x="260.88" y="-102.25" font-family="Helvetica,sans-Serif" font-size="10.00">bool</text>
</a>
</g>
</g>
<!-- Node4&#45;&gt;Node1 -->
<g id="edge3_Node000001_Node000004" class="edge">
<title>Node4&#45;&gt;Node1</title>
<g id="a_edge3_Node000001_Node000004"><a xlink:title=" ">
<path fill="none" stroke="#9a32cd" stroke-dasharray="5,2" d="M250.74,-84.92C243.06,-71.19 231.66,-52.8 218.88,-38.75 212.85,-32.13 205.1,-25.89 198.43,-21.04"/>
<polygon fill="#9a32cd" stroke="#9a32cd" points="247.51,-86.31 255.35,-93.44 253.67,-82.98 247.51,-86.31"/>
</a>
</g>
<text text-anchor="middle" x="265.12" y="-54.75" font-family="Helvetica,sans-Serif" font-size="10.00" fill="grey"> shallow</text>
</g>
</g>
</svg>
</svg>

<style type='text/css'>
<![CDATA[
[data-mouse-over-selected='false'] { opacity: 0.7; }
[data-mouse-over-selected='true']  { opacity: 1.0; }
]]>
</style>
<script type="application/ecmascript"><![CDATA[
document.addEventListener('DOMContentLoaded', (event) => {
  highlightEdges();
  highlightAdjacentNodes();
});
]]></script>
</svg>
