<?xml version="1.0" encoding="UTF-8" standalone="no"?>
<!DOCTYPE svg PUBLIC "-//W3C//DTD SVG 1.1//EN"
 "http://www.w3.org/Graphics/SVG/1.1/DTD/svg11.dtd">
<!-- Generated by graphviz version 7.1.0 (0)
 -->
<!-- Title: SnippetMerger::Range::mergeAdjacent Pages: 1 -->
<svg width="879pt" height="76pt"
 viewBox="0.00 0.00 879.00 75.50" xmlns="http://www.w3.org/2000/svg" xmlns:xlink="http://www.w3.org/1999/xlink">
<g id="graph0" class="graph" transform="scale(1 1) rotate(0) translate(4 71.5)">
<title>SnippetMerger::Range::mergeAdjacent</title>
<!-- Node1 -->
<g id="node1" class="node">
<title>Node1</title>
<g id="a_node1"><a xlink:title=" ">
<polygon fill="#999999" stroke="#666666" points="871,-45.5 746,-45.5 746,-15.5 871,-15.5 871,-45.5"/>
<text text-anchor="start" x="754" y="-33.5" font-family="Helvetica,sans-Serif" font-size="10.00">SnippetMerger::Range</text>
<text text-anchor="middle" x="808.5" y="-22.5" font-family="Helvetica,sans-Serif" font-size="10.00">::mergeAdjacent</text>
</a>
</g>
</g>
<!-- Node2 -->
<g id="node2" class="node">
<title>Node2</title>
<g id="a_node2"><a xlink:href="classCodeController.html#a00acd6b4f70fa3afd0ef9fc67e548e69" target="_top" xlink:title=" ">
<polygon fill="white" stroke="#666666" points="549,-45.5 396,-45.5 396,-15.5 549,-15.5 549,-45.5"/>
<text text-anchor="start" x="404" y="-33.5" font-family="Helvetica,sans-Serif" font-size="10.00">CodeController::getSnippets</text>
<text text-anchor="middle" x="472.5" y="-22.5" font-family="Helvetica,sans-Serif" font-size="10.00">ForFile</text>
</a>
</g>
</g>
<!-- Node1&#45;&gt;Node2 -->
<g id="edge1" class="edge">
<title>Node1&#45;&gt;Node2</title>
<path fill="none" stroke="#63b8ff" d="M734.48,-30.5C679.7,-30.5 604.91,-30.5 549.44,-30.5"/>
<polygon fill="#63b8ff" stroke="#63b8ff" points="734.34,-34 744.34,-30.5 734.34,-27 734.34,-34"/>
</g>
<!-- Node6 -->
<g id="node6" class="node">
<title>Node6</title>
<g id="a_node6"><a xlink:href="classSnippetMerger.html#ab559fb12e55669547e30506883fa320e" target="_top" xlink:title=" ">
<polygon fill="white" stroke="#666666" points="710,-21 585,-21 585,-2 710,-2 710,-21"/>
<text text-anchor="middle" x="647.5" y="-9" font-family="Helvetica,sans-Serif" font-size="10.00">SnippetMerger::merge</text>
</a>
</g>
</g>
<!-- Node1&#45;&gt;Node6 -->
<g id="edge5" class="edge">
<title>Node1&#45;&gt;Node6</title>
<path fill="none" stroke="#63b8ff" d="M734.3,-21.75C726.26,-20.79 718.14,-19.82 710.26,-18.88"/>
<polygon fill="#63b8ff" stroke="#63b8ff" points="733.72,-25.21 744.07,-22.92 734.55,-18.26 733.72,-25.21"/>
</g>
<!-- Node3 -->
<g id="node3" class="node">
<title>Node3</title>
<g id="a_node3"><a xlink:href="classCodeController.html#a2cb4dc45eb101196d64aff7b0de00cfa" target="_top" xlink:title=" ">
<polygon fill="white" stroke="#666666" points="357,-67.5 211,-67.5 211,-37.5 357,-37.5 357,-67.5"/>
<text text-anchor="start" x="219" y="-55.5" font-family="Helvetica,sans-Serif" font-size="10.00">CodeController::addSource</text>
<text text-anchor="middle" x="284" y="-44.5" font-family="Helvetica,sans-Serif" font-size="10.00">Locations</text>
</a>
</g>
</g>
<!-- Node2&#45;&gt;Node3 -->
<g id="edge2" class="edge">
<title>Node2&#45;&gt;Node3</title>
<path fill="none" stroke="#63b8ff" d="M384.33,-40.78C375.34,-41.84 366.28,-42.91 357.47,-43.95"/>
<polygon fill="#63b8ff" stroke="#63b8ff" points="384.62,-44.27 394.14,-39.63 383.8,-37.32 384.62,-44.27"/>
</g>
<!-- Node5 -->
<g id="node5" class="node">
<title>Node5</title>
<g id="a_node5"><a xlink:href="classCodeController.html#a0b9f4a36043645a238e614744624b755" target="_top" xlink:title=" ">
<polygon fill="white" stroke="#666666" points="360,-19 208,-19 208,0 360,0 360,-19"/>
<text text-anchor="middle" x="284" y="-7" font-family="Helvetica,sans-Serif" font-size="10.00">CodeController::setFileState</text>
</a>
</g>
</g>
<!-- Node2&#45;&gt;Node5 -->
<g id="edge4" class="edge">
<title>Node2&#45;&gt;Node5</title>
<path fill="none" stroke="#63b8ff" d="M384.41,-20.69C376.42,-19.79 368.36,-18.89 360.49,-18"/>
<polygon fill="#63b8ff" stroke="#63b8ff" points="383.81,-24.15 394.14,-21.79 384.59,-17.19 383.81,-24.15"/>
</g>
<!-- Node4 -->
<g id="node4" class="node">
<title>Node4</title>
<g id="a_node4"><a xlink:href="classCodeController.html#a5f3b0c481ec0de3e7cc165fefc354e53" target="_top" xlink:title=" ">
<polygon fill="white" stroke="#666666" points="172,-62 0,-62 0,-43 172,-43 172,-62"/>
<text text-anchor="middle" x="86" y="-50" font-family="Helvetica,sans-Serif" font-size="10.00">CodeController::handleMessage</text>
</a>
</g>
</g>
<!-- Node3&#45;&gt;Node4 -->
<g id="edge3" class="edge">
<title>Node3&#45;&gt;Node4</title>
<path fill="none" stroke="#63b8ff" d="M199.07,-52.5C190.23,-52.5 181.24,-52.5 172.39,-52.5"/>
<polygon fill="#63b8ff" stroke="#63b8ff" points="199.06,-56 209.06,-52.5 199.06,-49 199.06,-56"/>
</g>
<!-- Node6&#45;&gt;Node2 -->
<g id="edge6" class="edge">
<title>Node6&#45;&gt;Node2</title>
<path fill="none" stroke="#63b8ff" d="M573.1,-19.56C565.2,-20.43 557.16,-21.31 549.23,-22.18"/>
<polygon fill="#63b8ff" stroke="#63b8ff" points="573.47,-23.04 583.03,-18.47 572.7,-16.08 573.47,-23.04"/>
</g>
</g>
</svg>
