<?xml version="1.0" encoding="UTF-8" standalone="no"?>
<!DOCTYPE svg PUBLIC "-//W3C//DTD SVG 1.1//EN"
 "http://www.w3.org/Graphics/SVG/1.1/DTD/svg11.dtd">
<!-- Generated by graphviz version 9.0.0 (0)
 -->
<!-- Title: ErrorInfo Pages: 1 -->
<svg width="261pt" height="137pt"
 viewBox="0.00 0.00 261.25 136.50" xmlns="http://www.w3.org/2000/svg" xmlns:xlink="http://www.w3.org/1999/xlink">

<svg id="main" version="1.1" xmlns="http://www.w3.org/2000/svg" xmlns:xlink="http://www.w3.org/1999/xlink" xml:space="preserve" onload="init(evt)">
<style type="text/css"><![CDATA[
.node, .edge {opacity: 0.7;}
.node.selected, .edge.selected {opacity: 1;}
.edge:hover path { stroke: red; }
.edge:hover polygon { stroke: red; fill: red; }
]]></style>
<script type="application/ecmascript" xlink:href="svg.min.js"/>
<svg id="graph" class="graph">
<g id="graph0" class="graph" transform="scale(1 1) rotate(0) translate(4 132.5)">
<title>ErrorInfo</title>
<!-- Node1 -->
<g id="Node000001" class="node">
<title>Node1</title>
<g id="a_Node000001"><a xlink:title=" ">
<polygon fill="#999999" stroke="#666666" points="149.25,-20.75 91.25,-20.75 91.25,0 149.25,0 149.25,-20.75"/>
<text text-anchor="middle" x="120.25" y="-7.25" font-family="Helvetica,sans-Serif" font-size="10.00">ErrorInfo</text>
</a>
</g>
</g>
<!-- Node2 -->
<g id="Node000002" class="node">
<title>Node2</title>
<g id="a_Node000002"><a xlink:title=" ">
<polygon fill="white" stroke="#666666" points="44.5,-128.5 0,-128.5 0,-107.75 44.5,-107.75 44.5,-128.5"/>
<text text-anchor="middle" x="22.25" y="-115" font-family="Helvetica,sans-Serif" font-size="10.00">size_t</text>
</a>
</g>
</g>
<!-- Node2&#45;&gt;Node1 -->
<g id="edge1_Node000001_Node000002" class="edge">
<title>Node2&#45;&gt;Node1</title>
<g id="a_edge1_Node000001_Node000002"><a xlink:title=" ">
<path fill="none" stroke="#9a32cd" stroke-dasharray="5,2" d="M22.07,-95.85C23.05,-78.45 27.15,-54.27 41.25,-38.75 53.94,-24.78 74.11,-17.94 90.9,-14.59"/>
<polygon fill="#9a32cd" stroke="#9a32cd" points="18.57,-95.75 21.84,-105.82 25.57,-95.9 18.57,-95.75"/>
</a>
</g>
<text text-anchor="middle" x="78.75" y="-80.25" font-family="Helvetica,sans-Serif" font-size="10.00" fill="grey"> Invalid</text>
<text text-anchor="middle" x="78.75" y="-67.5" font-family="Helvetica,sans-Serif" font-size="10.00" fill="grey">columnNumber</text>
<text text-anchor="middle" x="78.75" y="-54.75" font-family="Helvetica,sans-Serif" font-size="10.00" fill="grey">id</text>
<text text-anchor="middle" x="78.75" y="-42" font-family="Helvetica,sans-Serif" font-size="10.00" fill="grey">lineNumber</text>
</g>
<!-- Node3 -->
<g id="Node000003" class="node">
<title>Node3</title>
<g id="a_Node000003"><a xlink:title=" ">
<polygon fill="white" stroke="#666666" points="146.25,-128.5 94.25,-128.5 94.25,-107.75 146.25,-107.75 146.25,-128.5"/>
<text text-anchor="middle" x="120.25" y="-115" font-family="Helvetica,sans-Serif" font-size="10.00">wstring</text>
</a>
</g>
</g>
<!-- Node3&#45;&gt;Node1 -->
<g id="edge2_Node000001_Node000003" class="edge">
<title>Node3&#45;&gt;Node1</title>
<g id="a_edge2_Node000001_Node000003"><a xlink:title=" ">
<path fill="none" stroke="#9a32cd" stroke-dasharray="5,2" d="M120.25,-95.91C120.25,-73.15 120.25,-38.01 120.25,-21.11"/>
<polygon fill="#9a32cd" stroke="#9a32cd" points="116.75,-95.85 120.25,-105.85 123.75,-95.85 116.75,-95.85"/>
</a>
</g>
<text text-anchor="middle" x="156.62" y="-73.88" font-family="Helvetica,sans-Serif" font-size="10.00" fill="grey"> filePath</text>
<text text-anchor="middle" x="156.62" y="-61.12" font-family="Helvetica,sans-Serif" font-size="10.00" fill="grey">message</text>
<text text-anchor="middle" x="156.62" y="-48.38" font-family="Helvetica,sans-Serif" font-size="10.00" fill="grey">translationUnit</text>
</g>
<!-- Node4 -->
<g id="Node000004" class="node">
<title>Node4</title>
<g id="a_Node000004"><a xlink:title=" ">
<polygon fill="white" stroke="#666666" points="234.75,-128.5 197.75,-128.5 197.75,-107.75 234.75,-107.75 234.75,-128.5"/>
<text text-anchor="middle" x="216.25" y="-115" font-family="Helvetica,sans-Serif" font-size="10.00">bool</text>
</a>
</g>
</g>
<!-- Node4&#45;&gt;Node1 -->
<g id="edge3_Node000001_Node000004" class="edge">
<title>Node4&#45;&gt;Node1</title>
<g id="a_edge3_Node000001_Node000004"><a xlink:title=" ">
<path fill="none" stroke="#9a32cd" stroke-dasharray="5,2" d="M215.44,-95.87C213.69,-78.48 208.6,-54.31 194.25,-38.75 182.64,-26.16 164.73,-19.34 149.43,-15.66"/>
<polygon fill="#9a32cd" stroke="#9a32cd" points="211.95,-96.1 216.12,-105.84 218.93,-95.62 211.95,-96.1"/>
</a>
</g>
<text text-anchor="middle" x="233.75" y="-67.5" font-family="Helvetica,sans-Serif" font-size="10.00" fill="grey"> fatal</text>
<text text-anchor="middle" x="233.75" y="-54.75" font-family="Helvetica,sans-Serif" font-size="10.00" fill="grey">indexed</text>
</g>
</g>
</svg>
</svg>

<style type='text/css'>
<![CDATA[
[data-mouse-over-selected='false'] { opacity: 0.7; }
[data-mouse-over-selected='true']  { opacity: 1.0; }
]]>
</style>
<script type="application/ecmascript"><![CDATA[
document.addEventListener('DOMContentLoaded', (event) => {
  highlightEdges();
  highlightAdjacentNodes();
});
]]></script>
</svg>
