<?xml version="1.0" encoding="UTF-8" standalone="no"?>
<!DOCTYPE svg PUBLIC "-//W3C//DTD SVG 1.1//EN"
 "http://www.w3.org/Graphics/SVG/1.1/DTD/svg11.dtd">
<!-- Generated by graphviz version 9.0.0 (0)
 -->
<!-- Title: CodeSnippetParams::merge Pages: 1 -->
<svg width="297pt" height="302pt"
 viewBox="0.00 0.00 297.25 301.50" xmlns="http://www.w3.org/2000/svg" xmlns:xlink="http://www.w3.org/1999/xlink">

<svg id="main" version="1.1" xmlns="http://www.w3.org/2000/svg" xmlns:xlink="http://www.w3.org/1999/xlink" xml:space="preserve" onload="init(evt)">
<style type="text/css"><![CDATA[
.node, .edge {opacity: 0.7;}
.node.selected, .edge.selected {opacity: 1;}
.edge:hover path { stroke: red; }
.edge:hover polygon { stroke: red; fill: red; }
]]></style>
<script type="application/ecmascript" xlink:href="svg.min.js"/>
<svg id="graph" class="graph">
<g id="graph0" class="graph" transform="scale(1 1) rotate(0) translate(4 297.5)">
<title>CodeSnippetParams::merge</title>
<!-- Node1 -->
<g id="Node000001" class="node">
<title>Node1</title>
<g id="a_Node000001"><a xlink:title=" ">
<polygon fill="#999999" stroke="#666666" points="120.25,-163.5 0,-163.5 0,-130 120.25,-130 120.25,-163.5"/>
<text text-anchor="start" x="8" y="-150" font-family="Helvetica,sans-Serif" font-size="10.00">CodeSnippetParams::</text>
<text text-anchor="middle" x="60.12" y="-137.25" font-family="Helvetica,sans-Serif" font-size="10.00">merge</text>
</a>
</g>
</g>
<!-- Node2 -->
<g id="Node000002" class="node">
<title>Node2</title>
<g id="a_Node000002"><a xlink:href="classSourceLocationFile.html#af95fa79f4e157c6cbc7e97682a7762a9" target="_top" xlink:title=" ">
<polygon fill="white" stroke="#666666" points="289.25,-293.5 156.25,-293.5 156.25,-260 289.25,-260 289.25,-293.5"/>
<text text-anchor="start" x="164.25" y="-280" font-family="Helvetica,sans-Serif" font-size="10.00">SourceLocationFile</text>
<text text-anchor="middle" x="222.75" y="-267.25" font-family="Helvetica,sans-Serif" font-size="10.00">::forEachSourceLocation</text>
</a>
</g>
</g>
<!-- Node1&#45;&gt;Node2 -->
<g id="edge1_Node000001_Node000002" class="edge">
<title>Node1&#45;&gt;Node2</title>
<g id="a_edge1_Node000001_Node000002"><a xlink:title=" ">
<path fill="none" stroke="#63b8ff" d="M72.8,-163.71C89.13,-186.31 120.8,-226.29 156.25,-250.75 158.02,-251.97 159.87,-253.15 161.76,-254.29"/>
<polygon fill="#63b8ff" stroke="#63b8ff" points="159.74,-257.17 170.2,-258.87 163.07,-251.02 159.74,-257.17"/>
</a>
</g>
</g>
<!-- Node3 -->
<g id="Node000003" class="node">
<title>Node3</title>
<g id="a_Node000003"><a xlink:href="classSourceLocationFile.html#aed5b283febcc4581db272d726b618e3b" target="_top" xlink:title=" ">
<polygon fill="white" stroke="#666666" points="276.12,-241.5 169.38,-241.5 169.38,-208 276.12,-208 276.12,-241.5"/>
<text text-anchor="start" x="177.38" y="-228" font-family="Helvetica,sans-Serif" font-size="10.00">SourceLocationFile</text>
<text text-anchor="middle" x="222.75" y="-215.25" font-family="Helvetica,sans-Serif" font-size="10.00">::getFilePath</text>
</a>
</g>
</g>
<!-- Node1&#45;&gt;Node3 -->
<g id="edge2_Node000001_Node000003" class="edge">
<title>Node1&#45;&gt;Node3</title>
<g id="a_edge2_Node000001_Node000003"><a xlink:title=" ">
<path fill="none" stroke="#63b8ff" d="M90.21,-163.86C108.8,-174.49 133.59,-188.11 156.25,-198.75 159.36,-200.21 162.58,-201.66 165.84,-203.09"/>
<polygon fill="#63b8ff" stroke="#63b8ff" points="164.38,-206.27 174.95,-206.97 167.12,-199.83 164.38,-206.27"/>
</a>
</g>
</g>
<!-- Node4 -->
<g id="Node000004" class="node">
<title>Node4</title>
<g id="a_Node000004"><a xlink:href="classSourceLocationFile.html#a9619bff28d8b7dbc9208b8b72ad0a984" target="_top" xlink:title=" ">
<polygon fill="white" stroke="#666666" points="276.12,-189.5 169.38,-189.5 169.38,-156 276.12,-156 276.12,-189.5"/>
<text text-anchor="start" x="177.38" y="-176" font-family="Helvetica,sans-Serif" font-size="10.00">SourceLocationFile</text>
<text text-anchor="middle" x="222.75" y="-163.25" font-family="Helvetica,sans-Serif" font-size="10.00">::getLanguage</text>
</a>
</g>
</g>
<!-- Node1&#45;&gt;Node4 -->
<g id="edge3_Node000001_Node000004" class="edge">
<title>Node1&#45;&gt;Node4</title>
<g id="a_edge3_Node000001_Node000004"><a xlink:title=" ">
<path fill="none" stroke="#63b8ff" d="M120.48,-156.36C132.66,-158.33 145.53,-160.41 157.86,-162.41"/>
<polygon fill="#63b8ff" stroke="#63b8ff" points="157.07,-165.83 167.5,-163.97 158.19,-158.92 157.07,-165.83"/>
</a>
</g>
</g>
<!-- Node5 -->
<g id="Node000005" class="node">
<title>Node5</title>
<g id="a_Node000005"><a xlink:href="classSourceLocationFile.html#a1b222e024555c353b454941699340e4d" target="_top" xlink:title=" ">
<polygon fill="white" stroke="#666666" points="276.12,-137.5 169.38,-137.5 169.38,-104 276.12,-104 276.12,-137.5"/>
<text text-anchor="start" x="177.38" y="-124" font-family="Helvetica,sans-Serif" font-size="10.00">SourceLocationFile</text>
<text text-anchor="middle" x="222.75" y="-111.25" font-family="Helvetica,sans-Serif" font-size="10.00">::isComplete</text>
</a>
</g>
</g>
<!-- Node1&#45;&gt;Node5 -->
<g id="edge4_Node000001_Node000005" class="edge">
<title>Node1&#45;&gt;Node5</title>
<g id="a_edge4_Node000001_Node000005"><a xlink:title=" ">
<path fill="none" stroke="#63b8ff" d="M120.48,-137.14C132.66,-135.17 145.53,-133.09 157.86,-131.09"/>
<polygon fill="#63b8ff" stroke="#63b8ff" points="158.19,-134.58 167.5,-129.53 157.07,-127.67 158.19,-134.58"/>
</a>
</g>
</g>
<!-- Node6 -->
<g id="Node000006" class="node">
<title>Node6</title>
<g id="a_Node000006"><a xlink:href="classSourceLocationFile.html#a4becbd7584e6f534af71321d1eeaf10f" target="_top" xlink:title=" ">
<polygon fill="white" stroke="#666666" points="276.12,-85.5 169.38,-85.5 169.38,-52 276.12,-52 276.12,-85.5"/>
<text text-anchor="start" x="177.38" y="-72" font-family="Helvetica,sans-Serif" font-size="10.00">SourceLocationFile</text>
<text text-anchor="middle" x="222.75" y="-59.25" font-family="Helvetica,sans-Serif" font-size="10.00">::isIndexed</text>
</a>
</g>
</g>
<!-- Node1&#45;&gt;Node6 -->
<g id="edge5_Node000001_Node000006" class="edge">
<title>Node1&#45;&gt;Node6</title>
<g id="a_edge5_Node000001_Node000006"><a xlink:title=" ">
<path fill="none" stroke="#63b8ff" d="M90.21,-129.64C108.8,-119.01 133.59,-105.39 156.25,-94.75 159.36,-93.29 162.58,-91.84 165.84,-90.41"/>
<polygon fill="#63b8ff" stroke="#63b8ff" points="167.12,-93.67 174.95,-86.53 164.38,-87.23 167.12,-93.67"/>
</a>
</g>
</g>
<!-- Node7 -->
<g id="Node000007" class="node">
<title>Node7</title>
<g id="a_Node000007"><a xlink:href="classSourceLocationFile.html#ae0e695cb09009143683103873542f5fe" target="_top" xlink:title=" ">
<polygon fill="white" stroke="#666666" points="276.12,-33.5 169.38,-33.5 169.38,0 276.12,0 276.12,-33.5"/>
<text text-anchor="start" x="177.38" y="-20" font-family="Helvetica,sans-Serif" font-size="10.00">SourceLocationFile</text>
<text text-anchor="middle" x="222.75" y="-7.25" font-family="Helvetica,sans-Serif" font-size="10.00">::isWhole</text>
</a>
</g>
</g>
<!-- Node1&#45;&gt;Node7 -->
<g id="edge6_Node000001_Node000007" class="edge">
<title>Node1&#45;&gt;Node7</title>
<g id="a_edge6_Node000001_Node000007"><a xlink:title=" ">
<path fill="none" stroke="#63b8ff" d="M72.8,-129.79C89.13,-107.19 120.8,-67.21 156.25,-42.75 158.02,-41.53 159.87,-40.35 161.76,-39.21"/>
<polygon fill="#63b8ff" stroke="#63b8ff" points="163.07,-42.48 170.2,-34.63 159.74,-36.33 163.07,-42.48"/>
</a>
</g>
</g>
</g>
</svg>
</svg>

<style type='text/css'>
<![CDATA[
[data-mouse-over-selected='false'] { opacity: 0.7; }
[data-mouse-over-selected='true']  { opacity: 1.0; }
]]>
</style>
<script type="application/ecmascript"><![CDATA[
document.addEventListener('DOMContentLoaded', (event) => {
  highlightEdges();
  highlightAdjacentNodes();
});
]]></script>
</svg>
