<?xml version="1.0" encoding="UTF-8" standalone="no"?>
<!DOCTYPE svg PUBLIC "-//W3C//DTD SVG 1.1//EN"
 "http://www.w3.org/Graphics/SVG/1.1/DTD/svg11.dtd">
<!-- Generated by graphviz version 7.1.0 (0)
 -->
<!-- Title: AccumulatingTracer::AccumulatedTraceEvent Pages: 1 -->
<svg width="244pt" height="192pt"
 viewBox="0.00 0.00 243.50 192.00" xmlns="http://www.w3.org/2000/svg" xmlns:xlink="http://www.w3.org/1999/xlink">
<g id="graph0" class="graph" transform="scale(1 1) rotate(0) translate(4 188)">
<title>AccumulatingTracer::AccumulatedTraceEvent</title>
<!-- Node1 -->
<g id="node1" class="node">
<title>Node1</title>
<g id="a_node1"><a xlink:title=" ">
<polygon fill="#999999" stroke="#666666" points="167.5,-30 27.5,-30 27.5,0 167.5,0 167.5,-30"/>
<text text-anchor="start" x="35.5" y="-18" font-family="Helvetica,sans-Serif" font-size="10.00">AccumulatingTracer</text>
<text text-anchor="middle" x="97.5" y="-7" font-family="Helvetica,sans-Serif" font-size="10.00">::AccumulatedTraceEvent</text>
</a>
</g>
</g>
<!-- Node2 -->
<g id="node2" class="node">
<title>Node2</title>
<g id="a_node2"><a xlink:href="structTraceEvent.html" target="_top" xlink:title=" ">
<polygon fill="white" stroke="#666666" points="133,-96 62,-96 62,-77 133,-77 133,-96"/>
<text text-anchor="middle" x="97.5" y="-84" font-family="Helvetica,sans-Serif" font-size="10.00">TraceEvent</text>
</a>
</g>
</g>
<!-- Node2&#45;&gt;Node1 -->
<g id="edge1" class="edge">
<title>Node2&#45;&gt;Node1</title>
<path fill="none" stroke="#9a32cd" stroke-dasharray="5,2" d="M97.5,-65.39C97.5,-54.15 97.5,-40.41 97.5,-30.27"/>
<polygon fill="#9a32cd" stroke="#9a32cd" points="94,-65.18 97.5,-75.18 101,-65.18 94,-65.18"/>
<text text-anchor="middle" x="113" y="-51" font-family="Helvetica,sans-Serif" font-size="10.00"> event</text>
</g>
<!-- Node3 -->
<g id="node3" class="node">
<title>Node3</title>
<g id="a_node3"><a xlink:title=" ">
<polygon fill="white" stroke="#666666" points="119.5,-184 75.5,-184 75.5,-165 119.5,-165 119.5,-184"/>
<text text-anchor="middle" x="97.5" y="-172" font-family="Helvetica,sans-Serif" font-size="10.00">string</text>
</a>
</g>
</g>
<!-- Node3&#45;&gt;Node2 -->
<g id="edge2" class="edge">
<title>Node3&#45;&gt;Node2</title>
<path fill="none" stroke="#9a32cd" stroke-dasharray="5,2" d="M97.5,-153.37C97.5,-135.37 97.5,-109.83 97.5,-96.46"/>
<polygon fill="#9a32cd" stroke="#9a32cd" points="94,-153.11 97.5,-163.11 101,-153.11 94,-153.11"/>
<text text-anchor="middle" x="132.5" y="-139" font-family="Helvetica,sans-Serif" font-size="10.00"> eventName</text>
<text text-anchor="middle" x="132.5" y="-128" font-family="Helvetica,sans-Serif" font-size="10.00">functionName</text>
<text text-anchor="middle" x="132.5" y="-117" font-family="Helvetica,sans-Serif" font-size="10.00">locationName</text>
</g>
<!-- Node4 -->
<g id="node4" class="node">
<title>Node4</title>
<g id="a_node4"><a xlink:title=" ">
<polygon fill="white" stroke="#666666" points="45,-184 0,-184 0,-165 45,-165 45,-184"/>
<text text-anchor="middle" x="22.5" y="-172" font-family="Helvetica,sans-Serif" font-size="10.00">size_t</text>
</a>
</g>
</g>
<!-- Node4&#45;&gt;Node1 -->
<g id="edge5" class="edge">
<title>Node4&#45;&gt;Node1</title>
<path fill="none" stroke="#9a32cd" stroke-dasharray="5,2" d="M17.41,-153.73C13.26,-133.41 9.8,-101.39 21.5,-77 31.3,-56.56 51.67,-40.8 68.85,-30.43"/>
<polygon fill="#9a32cd" stroke="#9a32cd" points="13.94,-154.27 19.61,-163.22 20.76,-152.68 13.94,-154.27"/>
<text text-anchor="middle" x="37" y="-84" font-family="Helvetica,sans-Serif" font-size="10.00"> count</text>
</g>
<!-- Node4&#45;&gt;Node2 -->
<g id="edge3" class="edge">
<title>Node4&#45;&gt;Node2</title>
<path fill="none" stroke="#9a32cd" stroke-dasharray="5,2" d="M32.69,-155.1C40.05,-142.72 50.73,-126.45 62.5,-114 68.78,-107.35 76.87,-101.12 83.68,-96.36"/>
<polygon fill="#9a32cd" stroke="#9a32cd" points="29.83,-153.05 27.89,-163.47 35.9,-156.53 29.83,-153.05"/>
<text text-anchor="middle" x="78" y="-133.5" font-family="Helvetica,sans-Serif" font-size="10.00"> depth</text>
<text text-anchor="middle" x="78" y="-122.5" font-family="Helvetica,sans-Serif" font-size="10.00">id</text>
</g>
<!-- Node5 -->
<g id="node5" class="node">
<title>Node5</title>
<g id="a_node5"><a xlink:title=" ">
<polygon fill="white" stroke="#666666" points="235.5,-184 185.5,-184 185.5,-165 235.5,-165 235.5,-184"/>
<text text-anchor="middle" x="210.5" y="-172" font-family="Helvetica,sans-Serif" font-size="10.00">double</text>
</a>
</g>
</g>
<!-- Node5&#45;&gt;Node1 -->
<g id="edge6" class="edge">
<title>Node5&#45;&gt;Node1</title>
<path fill="none" stroke="#9a32cd" stroke-dasharray="5,2" d="M217.98,-153.87C221.34,-141.84 223.39,-126.4 217.5,-114 199,-75 156.53,-46.38 127.41,-30.46"/>
<polygon fill="#9a32cd" stroke="#9a32cd" points="214.74,-152.52 214.9,-163.11 221.38,-154.73 214.74,-152.52"/>
<text text-anchor="middle" x="218.5" y="-84" font-family="Helvetica,sans-Serif" font-size="10.00"> time</text>
</g>
<!-- Node5&#45;&gt;Node2 -->
<g id="edge4" class="edge">
<title>Node5&#45;&gt;Node2</title>
<path fill="none" stroke="#9a32cd" stroke-dasharray="5,2" d="M197.59,-155.56C195.55,-152.7 193.46,-149.77 191.5,-147 181.18,-132.4 182.63,-124.96 168.5,-114 158.21,-106.02 145.26,-100.25 133.24,-96.17"/>
<polygon fill="#9a32cd" stroke="#9a32cd" points="194.58,-157.37 203.25,-163.46 200.27,-153.29 194.58,-157.37"/>
<text text-anchor="middle" x="204.5" y="-128" font-family="Helvetica,sans-Serif" font-size="10.00"> time</text>
</g>
</g>
</svg>
