<?xml version="1.0" encoding="UTF-8" standalone="no"?>
<!DOCTYPE svg PUBLIC "-//W3C//DTD SVG 1.1//EN"
 "http://www.w3.org/Graphics/SVG/1.1/DTD/svg11.dtd">
<!-- Generated by graphviz version 7.1.0 (0)
 -->
<!-- Title: /home/ahussein/Documents/sourceCode/Sourcetrail/src/src/lib/utility/scheduling/TaskGroupSelector.cpp Pages: 1 -->
<svg width="223pt" height="335pt"
 viewBox="0.00 0.00 222.50 335.00" xmlns="http://www.w3.org/2000/svg" xmlns:xlink="http://www.w3.org/1999/xlink">
<g id="graph0" class="graph" transform="scale(1 1) rotate(0) translate(4 331)">
<title>/home/ahussein/Documents/sourceCode/Sourcetrail/src/src/lib/utility/scheduling/TaskGroupSelector.cpp</title>
<!-- Node1 -->
<g id="node1" class="node">
<title>Node1</title>
<g id="a_node1"><a xlink:title=" ">
<polygon fill="#999999" stroke="#666666" points="201,-327 48,-327 48,-275 201,-275 201,-327"/>
<text text-anchor="start" x="56" y="-315" font-family="Helvetica,sans-Serif" font-size="10.00">/home/ahussein/Documents</text>
<text text-anchor="start" x="56" y="-304" font-family="Helvetica,sans-Serif" font-size="10.00">/sourceCode/Sourcetrail</text>
<text text-anchor="start" x="56" y="-293" font-family="Helvetica,sans-Serif" font-size="10.00">/src/src/lib/utility/scheduling</text>
<text text-anchor="middle" x="124.5" y="-282" font-family="Helvetica,sans-Serif" font-size="10.00">/TaskGroupSelector.cpp</text>
</a>
</g>
</g>
<!-- Node2 -->
<g id="node2" class="node">
<title>Node2</title>
<g id="a_node2"><a xlink:href="TaskGroupSelector_8h.html" target="_top" xlink:title=" ">
<polygon fill="white" stroke="#666666" points="182.5,-239 66.5,-239 66.5,-220 182.5,-220 182.5,-239"/>
<text text-anchor="middle" x="124.5" y="-227" font-family="Helvetica,sans-Serif" font-size="10.00">TaskGroupSelector.h</text>
</a>
</g>
</g>
<!-- Node1&#45;&gt;Node2 -->
<g id="edge1" class="edge">
<title>Node1&#45;&gt;Node2</title>
<path fill="none" stroke="#63b8ff" d="M124.5,-274.52C124.5,-266.67 124.5,-258.15 124.5,-250.71"/>
<polygon fill="#63b8ff" stroke="#63b8ff" points="128,-250.71 124.5,-240.71 121,-250.71 128,-250.71"/>
</g>
<!-- Node3 -->
<g id="node3" class="node">
<title>Node3</title>
<g id="a_node3"><a xlink:href="TaskGroup_8h.html" target="_top" xlink:title=" ">
<polygon fill="white" stroke="#666666" points="114,-184 37,-184 37,-165 114,-165 114,-184"/>
<text text-anchor="middle" x="75.5" y="-172" font-family="Helvetica,sans-Serif" font-size="10.00">TaskGroup.h</text>
</a>
</g>
</g>
<!-- Node2&#45;&gt;Node3 -->
<g id="edge2" class="edge">
<title>Node2&#45;&gt;Node3</title>
<path fill="none" stroke="#63b8ff" d="M116.41,-219.75C109.64,-212.43 99.78,-201.76 91.44,-192.74"/>
<polygon fill="#63b8ff" stroke="#63b8ff" points="94.15,-190.52 84.79,-185.55 89.01,-195.27 94.15,-190.52"/>
</g>
<!-- Node9 -->
<g id="node9" class="node">
<title>Node9</title>
<g id="a_node9"><a xlink:href="TaskRunner_8h.html" target="_top" xlink:title=" ">
<polygon fill="white" stroke="#666666" points="214.5,-184 132.5,-184 132.5,-165 214.5,-165 214.5,-184"/>
<text text-anchor="middle" x="173.5" y="-172" font-family="Helvetica,sans-Serif" font-size="10.00">TaskRunner.h</text>
</a>
</g>
</g>
<!-- Node2&#45;&gt;Node9 -->
<g id="edge9" class="edge">
<title>Node2&#45;&gt;Node9</title>
<path fill="none" stroke="#63b8ff" d="M132.59,-219.75C139.36,-212.43 149.22,-201.76 157.56,-192.74"/>
<polygon fill="#63b8ff" stroke="#63b8ff" points="159.99,-195.27 164.21,-185.55 154.85,-190.52 159.99,-195.27"/>
</g>
<!-- Node4 -->
<g id="node4" class="node">
<title>Node4</title>
<g id="a_node4"><a xlink:title=" ">
<polygon fill="#e0e0e0" stroke="#999999" points="130.5,-74 72.5,-74 72.5,-55 130.5,-55 130.5,-74"/>
<text text-anchor="middle" x="101.5" y="-62" font-family="Helvetica,sans-Serif" font-size="10.00">memory</text>
</a>
</g>
</g>
<!-- Node3&#45;&gt;Node4 -->
<g id="edge3" class="edge">
<title>Node3&#45;&gt;Node4</title>
<path fill="none" stroke="#63b8ff" d="M77.63,-164.66C81.76,-147.5 90.97,-109.26 96.66,-85.6"/>
<polygon fill="#63b8ff" stroke="#63b8ff" points="100.05,-86.47 98.99,-75.93 93.25,-84.83 100.05,-86.47"/>
</g>
<!-- Node5 -->
<g id="node5" class="node">
<title>Node5</title>
<g id="a_node5"><a xlink:title=" ">
<polygon fill="#e0e0e0" stroke="#999999" points="47,-129 0,-129 0,-110 47,-110 47,-129"/>
<text text-anchor="middle" x="23.5" y="-117" font-family="Helvetica,sans-Serif" font-size="10.00">vector</text>
</a>
</g>
</g>
<!-- Node3&#45;&gt;Node5 -->
<g id="edge4" class="edge">
<title>Node3&#45;&gt;Node5</title>
<path fill="none" stroke="#63b8ff" d="M66.91,-164.75C59.66,-157.35 49.05,-146.54 40.13,-137.45"/>
<polygon fill="#63b8ff" stroke="#63b8ff" points="42.84,-135.21 33.33,-130.52 37.84,-140.11 42.84,-135.21"/>
</g>
<!-- Node6 -->
<g id="node6" class="node">
<title>Node6</title>
<g id="a_node6"><a xlink:href="Task_8h.html" target="_top" xlink:title=" ">
<polygon fill="white" stroke="#666666" points="151,-129 104,-129 104,-110 151,-110 151,-129"/>
<text text-anchor="middle" x="127.5" y="-117" font-family="Helvetica,sans-Serif" font-size="10.00">Task.h</text>
</a>
</g>
</g>
<!-- Node3&#45;&gt;Node6 -->
<g id="edge5" class="edge">
<title>Node3&#45;&gt;Node6</title>
<path fill="none" stroke="#63b8ff" d="M84.09,-164.75C91.34,-157.35 101.95,-146.54 110.87,-137.45"/>
<polygon fill="#63b8ff" stroke="#63b8ff" points="113.16,-140.11 117.67,-130.52 108.16,-135.21 113.16,-140.11"/>
</g>
<!-- Node6&#45;&gt;Node4 -->
<g id="edge6" class="edge">
<title>Node6&#45;&gt;Node4</title>
<path fill="none" stroke="#63b8ff" d="M123.21,-109.75C119.88,-102.96 115.14,-93.3 110.94,-84.73"/>
<polygon fill="#63b8ff" stroke="#63b8ff" points="114.1,-83.24 106.55,-75.8 107.82,-86.32 114.1,-83.24"/>
</g>
<!-- Node7 -->
<g id="node7" class="node">
<title>Node7</title>
<g id="a_node7"><a xlink:href="types_8h.html" target="_top" xlink:title=" ">
<polygon fill="white" stroke="#666666" points="202,-74 149,-74 149,-55 202,-55 202,-74"/>
<text text-anchor="middle" x="175.5" y="-62" font-family="Helvetica,sans-Serif" font-size="10.00">types.h</text>
</a>
</g>
</g>
<!-- Node6&#45;&gt;Node7 -->
<g id="edge7" class="edge">
<title>Node6&#45;&gt;Node7</title>
<path fill="none" stroke="#63b8ff" d="M135.43,-109.75C142.06,-102.43 151.72,-91.76 159.89,-82.74"/>
<polygon fill="#63b8ff" stroke="#63b8ff" points="162.27,-85.33 166.39,-75.56 157.08,-80.63 162.27,-85.33"/>
</g>
<!-- Node8 -->
<g id="node8" class="node">
<title>Node8</title>
<g id="a_node8"><a xlink:title=" ">
<polygon fill="#e0e0e0" stroke="#999999" points="202,-19 149,-19 149,0 202,0 202,-19"/>
<text text-anchor="middle" x="175.5" y="-7" font-family="Helvetica,sans-Serif" font-size="10.00">cstddef</text>
</a>
</g>
</g>
<!-- Node7&#45;&gt;Node8 -->
<g id="edge8" class="edge">
<title>Node7&#45;&gt;Node8</title>
<path fill="none" stroke="#63b8ff" d="M175.5,-54.75C175.5,-48.27 175.5,-39.16 175.5,-30.9"/>
<polygon fill="#63b8ff" stroke="#63b8ff" points="179,-30.96 175.5,-20.96 172,-30.96 179,-30.96"/>
</g>
<!-- Node9&#45;&gt;Node4 -->
<g id="edge10" class="edge">
<title>Node9&#45;&gt;Node4</title>
<path fill="none" stroke="#63b8ff" d="M173.6,-164.56C173.35,-151.56 171.32,-127.13 160.5,-110 152.82,-97.83 140.54,-87.79 129.17,-80.34"/>
<polygon fill="#63b8ff" stroke="#63b8ff" points="131.21,-77.48 120.85,-75.26 127.56,-83.45 131.21,-77.48"/>
</g>
<!-- Node9&#45;&gt;Node6 -->
<g id="edge11" class="edge">
<title>Node9&#45;&gt;Node6</title>
<path fill="none" stroke="#63b8ff" d="M165.9,-164.75C159.62,-157.5 150.49,-146.98 142.7,-138.02"/>
<polygon fill="#63b8ff" stroke="#63b8ff" points="145.45,-135.84 136.25,-130.59 140.16,-140.43 145.45,-135.84"/>
</g>
</g>
</svg>
