<?xml version="1.0" encoding="UTF-8" standalone="no"?>
<!DOCTYPE svg PUBLIC "-//W3C//DTD SVG 1.1//EN"
 "http://www.w3.org/Graphics/SVG/1.1/DTD/svg11.dtd">
<!-- Generated by graphviz version 7.1.0 (0)
 -->
<!-- Title: /home/ahussein/Documents/sourceCode/Sourcetrail/src/src/lib/data/TaskMergeStorages.cpp Pages: 1 -->
<!--zoomable 379 -->
<svg id="main" version="1.1" xmlns="http://www.w3.org/2000/svg" xmlns:xlink="http://www.w3.org/1999/xlink" xml:space="preserve" onload="init(evt)">
<style type="text/css"><![CDATA[
.edge:hover path { stroke: red; }
.edge:hover polygon { stroke: red; fill: red; }
]]></style>
<script type="text/javascript"><![CDATA[
var edges = document.getElementsByTagName('g');
if (edges && edges.length) {
  for (var i=0;i<edges.length;i++) {
    if (edges[i].id.substr(0,4)=='edge') {
      edges[i].setAttribute('class','edge');
    }
  }
}
]]></script>
        <defs>
                <circle id="rim" cx="0" cy="0" r="7"/>
                <circle id="rim2" cx="0" cy="0" r="3.5"/>
                <g id="zoomPlus">
                        <use xlink:href="#rim" fill="#404040">
                                <set attributeName="fill" to="#808080" begin="zoomplus.mouseover" end="zoomplus.mouseout"/>
                        </use>
                        <path d="M-4,0h8M0,-4v8" fill="none" stroke="white" stroke-width="1.5" pointer-events="none"/>
                </g>
                <g id="zoomMin">
                        <use xlink:href="#rim" fill="#404040">
                                <set attributeName="fill" to="#808080" begin="zoomminus.mouseover" end="zoomminus.mouseout"/>
                        </use>
                        <path d="M-4,0h8" fill="none" stroke="white" stroke-width="1.5" pointer-events="none"/>
                </g>
                <g id="dirArrow">
                        <path fill="none" stroke="white" stroke-width="1.5" d="M0,-3.0v7 M-2.5,-0.5L0,-3.0L2.5,-0.5"/>
                </g>
               <g id="resetDef">
                       <use xlink:href="#rim2" fill="#404040">
                               <set attributeName="fill" to="#808080" begin="reset.mouseover" end="reset.mouseout"/>
                       </use>
               </g>
        </defs>

<script type="text/javascript">
var viewWidth = 1753;
var viewHeight = 379;
var sectionId = 'dynsection-0';
</script>
<script xlink:href="svgpan.js"/>
<svg id="graph" class="graph">
<g id="viewport">
<title>/home/ahussein/Documents/sourceCode/Sourcetrail/src/src/lib/data/TaskMergeStorages.cpp</title>
<!-- Node1 -->
<g id="node1" class="node">
<title>Node1</title>
<g id="a_node1"><a xlink:title=" ">
<polygon fill="#999999" stroke="#666666" points="276.5,-371 67.5,-371 67.5,-330 276.5,-330 276.5,-371"/>
<text text-anchor="start" x="75.5" y="-359" font-family="Helvetica,sans-Serif" font-size="10.00">/home/ahussein/Documents</text>
<text text-anchor="start" x="75.5" y="-348" font-family="Helvetica,sans-Serif" font-size="10.00">/sourceCode/Sourcetrail</text>
<text text-anchor="middle" x="172" y="-337" font-family="Helvetica,sans-Serif" font-size="10.00">/src/src/lib/data/TaskMergeStorages.cpp</text>
</a>
</g>
</g>
<!-- Node2 -->
<g id="node2" class="node">
<title>Node2</title>
<g id="a_node2"><a xlink:href="TaskMergeStorages_8h.html" target="_top" xlink:title=" ">
<polygon fill="white" stroke="#666666" points="187.5,-184 66.5,-184 66.5,-165 187.5,-165 187.5,-184"/>
<text text-anchor="middle" x="127" y="-172" font-family="Helvetica,sans-Serif" font-size="10.00">TaskMergeStorages.h</text>
</a>
</g>
</g>
<!-- Node1&#45;&gt;Node2 -->
<g id="edge1" class="edge">
<title>Node1&#45;&gt;Node2</title>
<path fill="none" stroke="#63b8ff" d="M166.58,-329.74C163.69,-319.15 160.11,-305.88 157,-294 147.94,-259.37 137.79,-218.93 131.93,-195.37"/>
<polygon fill="#63b8ff" stroke="#63b8ff" points="135.38,-194.76 129.57,-185.9 128.59,-196.45 135.38,-194.76"/>
</g>
<!-- Node8 -->
<g id="node8" class="node">
<title>Node8</title>
<g id="a_node8"><a xlink:href="StorageProvider_8h.html" target="_top" xlink:title=" ">
<polygon fill="white" stroke="#666666" points="270,-294 166,-294 166,-275 270,-275 270,-294"/>
<text text-anchor="middle" x="218" y="-282" font-family="Helvetica,sans-Serif" font-size="10.00">StorageProvider.h</text>
</a>
</g>
</g>
<!-- Node1&#45;&gt;Node8 -->
<g id="edge7" class="edge">
<title>Node1&#45;&gt;Node8</title>
<path fill="none" stroke="#63b8ff" d="M186.3,-329.6C192.31,-321.24 199.25,-311.59 205.1,-303.45"/>
<polygon fill="#63b8ff" stroke="#63b8ff" points="207.9,-305.55 210.89,-295.39 202.21,-301.47 207.9,-305.55"/>
</g>
<!-- Node3 -->
<g id="node3" class="node">
<title>Node3</title>
<g id="a_node3"><a xlink:title=" ">
<polygon fill="#e0e0e0" stroke="#999999" points="179.5,-19 132.5,-19 132.5,0 179.5,0 179.5,-19"/>
<text text-anchor="middle" x="156" y="-7" font-family="Helvetica,sans-Serif" font-size="10.00">vector</text>
</a>
</g>
</g>
<!-- Node2&#45;&gt;Node3 -->
<g id="edge2" class="edge">
<title>Node2&#45;&gt;Node3</title>
<path fill="none" stroke="#63b8ff" d="M128.56,-164.74C133.04,-139.53 146.06,-66.36 152.42,-30.62"/>
<polygon fill="#63b8ff" stroke="#63b8ff" points="155.86,-31.26 154.17,-20.8 148.97,-30.03 155.86,-31.26"/>
</g>
<!-- Node4 -->
<g id="node4" class="node">
<title>Node4</title>
<g id="a_node4"><a xlink:href="Task_8h.html" target="_top" xlink:title=" ">
<polygon fill="white" stroke="#666666" points="113.5,-129 66.5,-129 66.5,-110 113.5,-110 113.5,-129"/>
<text text-anchor="middle" x="90" y="-117" font-family="Helvetica,sans-Serif" font-size="10.00">Task.h</text>
</a>
</g>
</g>
<!-- Node2&#45;&gt;Node4 -->
<g id="edge3" class="edge">
<title>Node2&#45;&gt;Node4</title>
<path fill="none" stroke="#63b8ff" d="M120.89,-164.75C115.99,-157.73 108.95,-147.64 102.83,-138.87"/>
<polygon fill="#63b8ff" stroke="#63b8ff" points="105.7,-136.88 97.11,-130.68 99.96,-140.89 105.7,-136.88"/>
</g>
<!-- Node5 -->
<g id="node5" class="node">
<title>Node5</title>
<g id="a_node5"><a xlink:title=" ">
<polygon fill="#e0e0e0" stroke="#999999" points="98,-19 40,-19 40,0 98,0 98,-19"/>
<text text-anchor="middle" x="69" y="-7" font-family="Helvetica,sans-Serif" font-size="10.00">memory</text>
</a>
</g>
</g>
<!-- Node4&#45;&gt;Node5 -->
<g id="edge4" class="edge">
<title>Node4&#45;&gt;Node5</title>
<path fill="none" stroke="#63b8ff" d="M88.28,-109.66C84.94,-92.5 77.51,-54.26 72.91,-30.6"/>
<polygon fill="#63b8ff" stroke="#63b8ff" points="76.38,-30.09 71.03,-20.95 69.5,-31.43 76.38,-30.09"/>
</g>
<!-- Node6 -->
<g id="node6" class="node">
<title>Node6</title>
<g id="a_node6"><a xlink:href="types_8h.html" target="_top" xlink:title=" ">
<polygon fill="white" stroke="#666666" points="880.5,-74 827.5,-74 827.5,-55 880.5,-55 880.5,-74"/>
<text text-anchor="middle" x="854" y="-62" font-family="Helvetica,sans-Serif" font-size="10.00">types.h</text>
</a>
</g>
</g>
<!-- Node4&#45;&gt;Node6 -->
<g id="edge5" class="edge">
<title>Node4&#45;&gt;Node6</title>
<path fill="none" stroke="#63b8ff" d="M113.96,-115.3C127.7,-113.55 145.3,-111.44 161,-110 410.41,-87.08 711.39,-72.05 816,-67.2"/>
<polygon fill="#63b8ff" stroke="#63b8ff" points="815.86,-70.71 825.69,-66.76 815.54,-63.72 815.86,-70.71"/>
</g>
<!-- Node7 -->
<g id="node7" class="node">
<title>Node7</title>
<g id="a_node7"><a xlink:title=" ">
<polygon fill="#e0e0e0" stroke="#999999" points="880.5,-19 827.5,-19 827.5,0 880.5,0 880.5,-19"/>
<text text-anchor="middle" x="854" y="-7" font-family="Helvetica,sans-Serif" font-size="10.00">cstddef</text>
</a>
</g>
</g>
<!-- Node6&#45;&gt;Node7 -->
<g id="edge6" class="edge">
<title>Node6&#45;&gt;Node7</title>
<path fill="none" stroke="#63b8ff" d="M854,-54.75C854,-48.27 854,-39.16 854,-30.9"/>
<polygon fill="#63b8ff" stroke="#63b8ff" points="857.5,-30.96 854,-20.96 850.5,-30.96 857.5,-30.96"/>
</g>
<!-- Node8&#45;&gt;Node5 -->
<g id="edge49" class="edge">
<title>Node8&#45;&gt;Node5</title>
<path fill="none" stroke="#63b8ff" d="M165.51,-280.01C101,-272.54 0,-249.1 0,-175.5 0,-175.5 0,-175.5 0,-118.5 0,-81.29 29.45,-46.6 49.87,-27.02"/>
<polygon fill="#63b8ff" stroke="#63b8ff" points="52.1,-29.73 57.1,-20.39 47.37,-24.57 52.1,-29.73"/>
</g>
<!-- Node9 -->
<g id="node9" class="node">
<title>Node9</title>
<g id="a_node9"><a xlink:href="IntermediateStorage_8h.html" target="_top" xlink:title=" ">
<polygon fill="white" stroke="#666666" points="281,-239 155,-239 155,-220 281,-220 281,-239"/>
<text text-anchor="middle" x="218" y="-227" font-family="Helvetica,sans-Serif" font-size="10.00">IntermediateStorage.h</text>
</a>
</g>
</g>
<!-- Node8&#45;&gt;Node9 -->
<g id="edge8" class="edge">
<title>Node8&#45;&gt;Node9</title>
<path fill="none" stroke="#63b8ff" d="M218,-274.75C218,-268.27 218,-259.16 218,-250.9"/>
<polygon fill="#63b8ff" stroke="#63b8ff" points="221.5,-250.96 218,-240.96 214.5,-250.96 221.5,-250.96"/>
</g>
<!-- Node14 -->
<g id="node14" class="node">
<title>Node14</title>
<g id="a_node14"><a xlink:title=" ">
<polygon fill="#e0e0e0" stroke="#999999" points="1745,-129 1697,-129 1697,-110 1745,-110 1745,-129"/>
<text text-anchor="middle" x="1721" y="-117" font-family="Helvetica,sans-Serif" font-size="10.00">mutex</text>
</a>
</g>
</g>
<!-- Node8&#45;&gt;Node14 -->
<g id="edge50" class="edge">
<title>Node8&#45;&gt;Node14</title>
<path fill="none" stroke="#63b8ff" d="M270.42,-278.86C459.27,-261.96 1122.42,-200.85 1667,-129 1672.91,-128.22 1679.16,-127.31 1685.24,-126.39"/>
<polygon fill="#63b8ff" stroke="#63b8ff" points="1685.74,-129.85 1695.08,-124.84 1684.66,-122.93 1685.74,-129.85"/>
</g>
<!-- Node28 -->
<g id="node28" class="node">
<title>Node28</title>
<g id="a_node28"><a xlink:title=" ">
<polygon fill="#e0e0e0" stroke="#999999" points="331,-239 299,-239 299,-220 331,-220 331,-239"/>
<text text-anchor="middle" x="315" y="-227" font-family="Helvetica,sans-Serif" font-size="10.00">list</text>
</a>
</g>
</g>
<!-- Node8&#45;&gt;Node28 -->
<g id="edge48" class="edge">
<title>Node8&#45;&gt;Node28</title>
<path fill="none" stroke="#63b8ff" d="M234.45,-274.51C249.32,-266.39 271.44,-254.3 288.75,-244.85"/>
<polygon fill="#63b8ff" stroke="#63b8ff" points="290.36,-247.95 297.46,-240.08 287.01,-241.81 290.36,-247.95"/>
</g>
<!-- Node9&#45;&gt;Node5 -->
<g id="edge10" class="edge">
<title>Node9&#45;&gt;Node5</title>
<path fill="none" stroke="#63b8ff" d="M157.65,-219.56C117.3,-212.2 69.43,-200.33 57,-184 22.16,-138.22 45.83,-64.48 60.21,-29.75"/>
<polygon fill="#63b8ff" stroke="#63b8ff" points="63.42,-31.16 64.2,-20.6 57,-28.37 63.42,-31.16"/>
</g>
<!-- Node10 -->
<g id="node10" class="node">
<title>Node10</title>
<g id="a_node10"><a xlink:title=" ">
<polygon fill="#e0e0e0" stroke="#999999" points="282,-184 244,-184 244,-165 282,-165 282,-184"/>
<text text-anchor="middle" x="263" y="-172" font-family="Helvetica,sans-Serif" font-size="10.00">map</text>
</a>
</g>
</g>
<!-- Node9&#45;&gt;Node10 -->
<g id="edge9" class="edge">
<title>Node9&#45;&gt;Node10</title>
<path fill="none" stroke="#63b8ff" d="M225.43,-219.75C231.58,-212.5 240.51,-201.98 248.13,-193.02"/>
<polygon fill="#63b8ff" stroke="#63b8ff" points="250.62,-195.48 254.43,-185.6 245.29,-190.95 250.62,-195.48"/>
</g>
<!-- Node11 -->
<g id="node11" class="node">
<title>Node11</title>
<g id="a_node11"><a xlink:title=" ">
<polygon fill="#e0e0e0" stroke="#999999" points="202,-129 170,-129 170,-110 202,-110 202,-129"/>
<text text-anchor="middle" x="186" y="-117" font-family="Helvetica,sans-Serif" font-size="10.00">set</text>
</a>
</g>
</g>
<!-- Node9&#45;&gt;Node11 -->
<g id="edge11" class="edge">
<title>Node9&#45;&gt;Node11</title>
<path fill="none" stroke="#63b8ff" d="M215.38,-219.66C210.27,-202.42 198.86,-163.9 191.86,-140.27"/>
<polygon fill="#63b8ff" stroke="#63b8ff" points="195.28,-139.51 189.08,-130.91 188.57,-141.49 195.28,-139.51"/>
</g>
<!-- Node12 -->
<g id="node12" class="node">
<title>Node12</title>
<g id="a_node12"><a xlink:href="Storage_8h.html" target="_top" xlink:title=" ">
<polygon fill="white" stroke="#666666" points="968.5,-184 905.5,-184 905.5,-165 968.5,-165 968.5,-184"/>
<text text-anchor="middle" x="937" y="-172" font-family="Helvetica,sans-Serif" font-size="10.00">Storage.h</text>
</a>
</g>
</g>
<!-- Node9&#45;&gt;Node12 -->
<g id="edge12" class="edge">
<title>Node9&#45;&gt;Node12</title>
<path fill="none" stroke="#63b8ff" d="M281.2,-220.86C284.17,-220.56 287.12,-220.27 290,-220 517.22,-198.79 790.22,-183.27 894.07,-177.73"/>
<polygon fill="#63b8ff" stroke="#63b8ff" points="894,-181.23 903.8,-177.21 893.63,-174.24 894,-181.23"/>
</g>
<!-- Node12&#45;&gt;Node6 -->
<g id="edge47" class="edge">
<title>Node12&#45;&gt;Node6</title>
<path fill="none" stroke="#63b8ff" d="M930.21,-164.66C916.59,-146.94 885.71,-106.77 867.72,-83.35"/>
<polygon fill="#63b8ff" stroke="#63b8ff" points="870.68,-81.46 861.81,-75.66 865.13,-85.72 870.68,-81.46"/>
</g>
<!-- Node12&#45;&gt;Node11 -->
<g id="edge15" class="edge">
<title>Node12&#45;&gt;Node11</title>
<path fill="none" stroke="#63b8ff" d="M905.23,-172.68C786.48,-169.43 368.11,-156.44 213.35,-128.82"/>
<polygon fill="#63b8ff" stroke="#63b8ff" points="214.2,-125.42 203.72,-127 212.9,-132.29 214.2,-125.42"/>
</g>
<!-- Node13 -->
<g id="node13" class="node">
<title>Node13</title>
<g id="a_node13"><a xlink:title=" ">
<polygon fill="#e0e0e0" stroke="#999999" points="1344.5,-129 1279.5,-129 1279.5,-110 1344.5,-110 1344.5,-129"/>
<text text-anchor="middle" x="1312" y="-117" font-family="Helvetica,sans-Serif" font-size="10.00">functional</text>
</a>
</g>
</g>
<!-- Node12&#45;&gt;Node13 -->
<g id="edge13" class="edge">
<title>Node12&#45;&gt;Node13</title>
<path fill="none" stroke="#63b8ff" d="M968.89,-170.03C1026.59,-163.57 1152.37,-148.75 1268.19,-129.37"/>
<polygon fill="#63b8ff" stroke="#63b8ff" points="1268.6,-132.86 1277.87,-127.74 1267.43,-125.95 1268.6,-132.86"/>
</g>
<!-- Node12&#45;&gt;Node14 -->
<g id="edge14" class="edge">
<title>Node12&#45;&gt;Node14</title>
<path fill="none" stroke="#63b8ff" d="M968.81,-173.42C1072.27,-172.78 1408.38,-167.65 1683,-129 1683.83,-128.88 1684.67,-128.76 1685.51,-128.63"/>
<polygon fill="#63b8ff" stroke="#63b8ff" points="1685.9,-132.11 1695.09,-126.85 1684.62,-125.23 1685.9,-132.11"/>
</g>
<!-- Node15 -->
<g id="node15" class="node">
<title>Node15</title>
<g id="a_node15"><a xlink:title=" ">
<polygon fill="#e0e0e0" stroke="#999999" points="1114,-19 1070,-19 1070,0 1114,0 1114,-19"/>
<text text-anchor="middle" x="1092" y="-7" font-family="Helvetica,sans-Serif" font-size="10.00">string</text>
</a>
</g>
</g>
<!-- Node12&#45;&gt;Node15 -->
<g id="edge16" class="edge">
<title>Node12&#45;&gt;Node15</title>
<path fill="none" stroke="#63b8ff" d="M968.76,-172.72C1104.04,-169.23 1626.35,-154.17 1650,-129 1724.72,-49.47 1257.31,-19.05 1125.76,-12.13"/>
<polygon fill="#63b8ff" stroke="#63b8ff" points="1126.13,-8.64 1115.96,-11.62 1125.77,-15.63 1126.13,-8.64"/>
</g>
<!-- Node16 -->
<g id="node16" class="node">
<title>Node16</title>
<g id="a_node16"><a xlink:href="StorageComponentAccess_8h.html" target="_top" xlink:title=" ">
<polygon fill="white" stroke="#666666" points="477.5,-129 324.5,-129 324.5,-110 477.5,-110 477.5,-129"/>
<text text-anchor="middle" x="401" y="-117" font-family="Helvetica,sans-Serif" font-size="10.00">StorageComponentAccess.h</text>
</a>
</g>
</g>
<!-- Node12&#45;&gt;Node16 -->
<g id="edge17" class="edge">
<title>Node12&#45;&gt;Node16</title>
<path fill="none" stroke="#63b8ff" d="M905.01,-170.36C832.84,-163.27 651.56,-145.44 489.08,-129.3"/>
<polygon fill="#63b8ff" stroke="#63b8ff" points="489.71,-125.85 479.42,-128.35 489.02,-132.82 489.71,-125.85"/>
</g>
<!-- Node17 -->
<g id="node17" class="node">
<title>Node17</title>
<g id="a_node17"><a xlink:href="StorageEdge_8h.html" target="_top" xlink:title=" ">
<polygon fill="white" stroke="#666666" points="582.5,-129 495.5,-129 495.5,-110 582.5,-110 582.5,-129"/>
<text text-anchor="middle" x="539" y="-117" font-family="Helvetica,sans-Serif" font-size="10.00">StorageEdge.h</text>
</a>
</g>
</g>
<!-- Node12&#45;&gt;Node17 -->
<g id="edge19" class="edge">
<title>Node12&#45;&gt;Node17</title>
<path fill="none" stroke="#63b8ff" d="M905.09,-169.72C846,-162.64 715.29,-146.65 594.25,-129.28"/>
<polygon fill="#63b8ff" stroke="#63b8ff" points="594.84,-125.83 584.44,-127.87 593.84,-132.76 594.84,-125.83"/>
</g>
<!-- Node18 -->
<g id="node18" class="node">
<title>Node18</title>
<g id="a_node18"><a xlink:href="StorageElementComponent_8h.html" target="_top" xlink:title=" ">
<polygon fill="white" stroke="#666666" points="1641,-129 1481,-129 1481,-110 1641,-110 1641,-129"/>
<text text-anchor="middle" x="1561" y="-117" font-family="Helvetica,sans-Serif" font-size="10.00">StorageElementComponent.h</text>
</a>
</g>
</g>
<!-- Node12&#45;&gt;Node18 -->
<g id="edge21" class="edge">
<title>Node12&#45;&gt;Node18</title>
<path fill="none" stroke="#63b8ff" d="M968.97,-170.98C1050.41,-164.52 1272.55,-146.74 1469.51,-129.21"/>
<polygon fill="#63b8ff" stroke="#63b8ff" points="1469.79,-132.7 1479.44,-128.33 1469.17,-125.73 1469.79,-132.7"/>
</g>
<!-- Node19 -->
<g id="node19" class="node">
<title>Node19</title>
<g id="a_node19"><a xlink:href="StorageError_8h.html" target="_top" xlink:title=" ">
<polygon fill="white" stroke="#666666" points="306,-129 220,-129 220,-110 306,-110 306,-129"/>
<text text-anchor="middle" x="263" y="-117" font-family="Helvetica,sans-Serif" font-size="10.00">StorageError.h</text>
</a>
</g>
</g>
<!-- Node12&#45;&gt;Node19 -->
<g id="edge24" class="edge">
<title>Node12&#45;&gt;Node19</title>
<path fill="none" stroke="#63b8ff" d="M905.19,-172.24C814.87,-168.46 549.02,-155.83 317.71,-129.21"/>
<polygon fill="#63b8ff" stroke="#63b8ff" points="318.21,-125.75 307.87,-128.07 317.4,-132.7 318.21,-125.75"/>
</g>
<!-- Node21 -->
<g id="node21" class="node">
<title>Node21</title>
<g id="a_node21"><a xlink:href="StorageFile_8h.html" target="_top" xlink:title=" ">
<polygon fill="white" stroke="#666666" points="1011,-129 931,-129 931,-110 1011,-110 1011,-129"/>
<text text-anchor="middle" x="971" y="-117" font-family="Helvetica,sans-Serif" font-size="10.00">StorageFile.h</text>
</a>
</g>
</g>
<!-- Node12&#45;&gt;Node21 -->
<g id="edge31" class="edge">
<title>Node12&#45;&gt;Node21</title>
<path fill="none" stroke="#63b8ff" d="M942.61,-164.75C947.12,-157.73 953.59,-147.64 959.21,-138.87"/>
<polygon fill="#63b8ff" stroke="#63b8ff" points="961.99,-141.02 964.45,-130.72 956.1,-137.24 961.99,-141.02"/>
</g>
<!-- Node22 -->
<g id="node22" class="node">
<title>Node22</title>
<g id="a_node22"><a xlink:href="StorageLocalSymbol_8h.html" target="_top" xlink:title=" ">
<polygon fill="white" stroke="#666666" points="1154.5,-129 1029.5,-129 1029.5,-110 1154.5,-110 1154.5,-129"/>
<text text-anchor="middle" x="1092" y="-117" font-family="Helvetica,sans-Serif" font-size="10.00">StorageLocalSymbol.h</text>
</a>
</g>
</g>
<!-- Node12&#45;&gt;Node22 -->
<g id="edge34" class="edge">
<title>Node12&#45;&gt;Node22</title>
<path fill="none" stroke="#63b8ff" d="M963.29,-164.51C988.53,-155.88 1026.89,-142.76 1055.16,-133.1"/>
<polygon fill="#63b8ff" stroke="#63b8ff" points="1056.07,-136.48 1064.4,-129.94 1053.81,-129.86 1056.07,-136.48"/>
</g>
<!-- Node23 -->
<g id="node23" class="node">
<title>Node23</title>
<g id="a_node23"><a xlink:href="StorageNode_8h.html" target="_top" xlink:title=" ">
<polygon fill="white" stroke="#666666" points="1261.5,-129 1172.5,-129 1172.5,-110 1261.5,-110 1261.5,-129"/>
<text text-anchor="middle" x="1217" y="-117" font-family="Helvetica,sans-Serif" font-size="10.00">StorageNode.h</text>
</a>
</g>
</g>
<!-- Node12&#45;&gt;Node23 -->
<g id="edge37" class="edge">
<title>Node12&#45;&gt;Node23</title>
<path fill="none" stroke="#63b8ff" d="M968.85,-167.47C1015.61,-158.62 1103.54,-141.98 1161.18,-131.07"/>
<polygon fill="#63b8ff" stroke="#63b8ff" points="1161.62,-134.54 1170.8,-129.25 1160.32,-127.67 1161.62,-134.54"/>
</g>
<!-- Node24 -->
<g id="node24" class="node">
<title>Node24</title>
<g id="a_node24"><a xlink:href="StorageOccurrence_8h.html" target="_top" xlink:title=" ">
<polygon fill="white" stroke="#666666" points="719,-129 601,-129 601,-110 719,-110 719,-129"/>
<text text-anchor="middle" x="660" y="-117" font-family="Helvetica,sans-Serif" font-size="10.00">StorageOccurrence.h</text>
</a>
</g>
</g>
<!-- Node12&#45;&gt;Node24 -->
<g id="edge40" class="edge">
<title>Node12&#45;&gt;Node24</title>
<path fill="none" stroke="#63b8ff" d="M905.22,-167.42C859.53,-158.68 774.5,-142.41 717.57,-131.52"/>
<polygon fill="#63b8ff" stroke="#63b8ff" points="718.55,-128.14 708.07,-129.7 717.23,-135.01 718.55,-128.14"/>
</g>
<!-- Node25 -->
<g id="node25" class="node">
<title>Node25</title>
<g id="a_node25"><a xlink:href="StorageSourceLocation_8h.html" target="_top" xlink:title=" ">
<polygon fill="white" stroke="#666666" points="874.5,-129 737.5,-129 737.5,-110 874.5,-110 874.5,-129"/>
<text text-anchor="middle" x="806" y="-117" font-family="Helvetica,sans-Serif" font-size="10.00">StorageSourceLocation.h</text>
</a>
</g>
</g>
<!-- Node12&#45;&gt;Node25 -->
<g id="edge42" class="edge">
<title>Node12&#45;&gt;Node25</title>
<path fill="none" stroke="#63b8ff" d="M914.78,-164.51C893.86,-156.04 862.27,-143.27 838.52,-133.66"/>
<polygon fill="#63b8ff" stroke="#63b8ff" points="839.88,-130.43 829.3,-129.93 837.25,-136.92 839.88,-130.43"/>
</g>
<!-- Node26 -->
<g id="node26" class="node">
<title>Node26</title>
<g id="a_node26"><a xlink:href="StorageSymbol_8h.html" target="_top" xlink:title=" ">
<polygon fill="white" stroke="#666666" points="1463,-129 1363,-129 1363,-110 1463,-110 1463,-129"/>
<text text-anchor="middle" x="1413" y="-117" font-family="Helvetica,sans-Serif" font-size="10.00">StorageSymbol.h</text>
</a>
</g>
</g>
<!-- Node12&#45;&gt;Node26 -->
<g id="edge44" class="edge">
<title>Node12&#45;&gt;Node26</title>
<path fill="none" stroke="#63b8ff" d="M968.96,-170.49C1037.16,-163.99 1202.28,-147.79 1351.62,-129.26"/>
<polygon fill="#63b8ff" stroke="#63b8ff" points="1351.81,-132.76 1361.3,-128.05 1350.95,-125.81 1351.81,-132.76"/>
</g>
<!-- Node16&#45;&gt;Node6 -->
<g id="edge18" class="edge">
<title>Node16&#45;&gt;Node6</title>
<path fill="none" stroke="#63b8ff" d="M477.85,-109.51C576.08,-98.02 742.31,-78.57 816.41,-69.9"/>
<polygon fill="#63b8ff" stroke="#63b8ff" points="816.46,-73.42 825.98,-68.78 815.64,-66.46 816.46,-73.42"/>
</g>
<!-- Node17&#45;&gt;Node6 -->
<g id="edge20" class="edge">
<title>Node17&#45;&gt;Node6</title>
<path fill="none" stroke="#63b8ff" d="M582.8,-111.13C644.8,-100.7 757.12,-81.8 815.87,-71.92"/>
<polygon fill="#63b8ff" stroke="#63b8ff" points="816.44,-75.37 825.72,-70.26 815.28,-68.47 816.44,-75.37"/>
</g>
<!-- Node18&#45;&gt;Node6 -->
<g id="edge23" class="edge">
<title>Node18&#45;&gt;Node6</title>
<path fill="none" stroke="#63b8ff" d="M1480.95,-110.77C1477.93,-110.5 1474.94,-110.25 1472,-110 1252.56,-91.62 988.89,-74.18 892.05,-67.93"/>
<polygon fill="#63b8ff" stroke="#63b8ff" points="892.54,-64.45 882.33,-67.3 892.09,-71.44 892.54,-64.45"/>
</g>
<!-- Node18&#45;&gt;Node15 -->
<g id="edge22" class="edge">
<title>Node18&#45;&gt;Node15</title>
<path fill="none" stroke="#63b8ff" d="M1551.82,-109.71C1536.36,-95.48 1503.49,-67.73 1470,-55 1407.28,-31.16 1206.21,-17.14 1125.75,-12.36"/>
<polygon fill="#63b8ff" stroke="#63b8ff" points="1126.04,-8.87 1115.85,-11.79 1125.63,-15.86 1126.04,-8.87"/>
</g>
<!-- Node19&#45;&gt;Node6 -->
<g id="edge30" class="edge">
<title>Node19&#45;&gt;Node6</title>
<path fill="none" stroke="#63b8ff" d="M306.37,-111.14C309.29,-110.73 312.19,-110.35 315,-110 502.11,-87.02 727.25,-72.71 815.69,-67.61"/>
<polygon fill="#63b8ff" stroke="#63b8ff" points="815.71,-71.12 825.49,-67.05 815.31,-64.13 815.71,-71.12"/>
</g>
<!-- Node19&#45;&gt;Node15 -->
<g id="edge25" class="edge">
<title>Node19&#45;&gt;Node15</title>
<path fill="none" stroke="#63b8ff" d="M306.39,-111.29C309.3,-110.84 312.19,-110.41 315,-110 602.02,-68.18 950.11,-26.98 1058.29,-14.39"/>
<polygon fill="#63b8ff" stroke="#63b8ff" points="1058.68,-17.87 1068.21,-13.24 1057.87,-10.92 1058.68,-17.87"/>
</g>
<!-- Node20 -->
<g id="node20" class="node">
<title>Node20</title>
<g id="a_node20"><a xlink:href="FilePath_8h.html" target="_top" xlink:title=" ">
<polygon fill="white" stroke="#666666" points="265,-74 201,-74 201,-55 265,-55 265,-74"/>
<text text-anchor="middle" x="233" y="-62" font-family="Helvetica,sans-Serif" font-size="10.00">FilePath.h</text>
</a>
</g>
</g>
<!-- Node19&#45;&gt;Node20 -->
<g id="edge26" class="edge">
<title>Node19&#45;&gt;Node20</title>
<path fill="none" stroke="#63b8ff" d="M258.05,-109.75C254.16,-102.88 248.61,-93.08 243.72,-84.45"/>
<polygon fill="#63b8ff" stroke="#63b8ff" points="246.78,-82.74 238.81,-75.76 240.69,-86.19 246.78,-82.74"/>
</g>
<!-- Node20&#45;&gt;Node3 -->
<g id="edge29" class="edge">
<title>Node20&#45;&gt;Node3</title>
<path fill="none" stroke="#63b8ff" d="M219.94,-54.51C208.48,-46.62 191.57,-34.98 178.02,-25.65"/>
<polygon fill="#63b8ff" stroke="#63b8ff" points="180.34,-23 170.12,-20.22 176.37,-28.77 180.34,-23"/>
</g>
<!-- Node20&#45;&gt;Node5 -->
<g id="edge27" class="edge">
<title>Node20&#45;&gt;Node5</title>
<path fill="none" stroke="#63b8ff" d="M205.18,-54.51C178.36,-45.84 137.54,-32.65 107.58,-22.97"/>
<polygon fill="#63b8ff" stroke="#63b8ff" points="108.71,-19.66 98.12,-19.91 106.56,-26.32 108.71,-19.66"/>
</g>
<!-- Node20&#45;&gt;Node15 -->
<g id="edge28" class="edge">
<title>Node20&#45;&gt;Node15</title>
<path fill="none" stroke="#63b8ff" d="M265.09,-57.03C269.74,-56.25 274.48,-55.54 279,-55 357.17,-45.68 914.87,-18.89 1058.39,-12.08"/>
<polygon fill="#63b8ff" stroke="#63b8ff" points="1058.52,-15.58 1068.35,-11.61 1058.19,-8.59 1058.52,-15.58"/>
</g>
<!-- Node21&#45;&gt;Node6 -->
<g id="edge33" class="edge">
<title>Node21&#45;&gt;Node6</title>
<path fill="none" stroke="#63b8ff" d="M951.15,-109.51C932.72,-101.16 905.02,-88.61 883.91,-79.05"/>
<polygon fill="#63b8ff" stroke="#63b8ff" points="885.49,-75.92 874.93,-74.98 882.6,-82.3 885.49,-75.92"/>
</g>
<!-- Node21&#45;&gt;Node15 -->
<g id="edge32" class="edge">
<title>Node21&#45;&gt;Node15</title>
<path fill="none" stroke="#63b8ff" d="M980.9,-109.66C1001.11,-91.62 1047.38,-50.32 1073.38,-27.12"/>
<polygon fill="#63b8ff" stroke="#63b8ff" points="1075.7,-29.74 1080.83,-20.47 1071.04,-24.52 1075.7,-29.74"/>
</g>
<!-- Node22&#45;&gt;Node6 -->
<g id="edge36" class="edge">
<title>Node22&#45;&gt;Node6</title>
<path fill="none" stroke="#63b8ff" d="M1051.63,-109.51C1006.95,-99.56 935.5,-83.65 891.86,-73.93"/>
<polygon fill="#63b8ff" stroke="#63b8ff" points="892.86,-70.57 882.34,-71.81 891.34,-77.4 892.86,-70.57"/>
</g>
<!-- Node22&#45;&gt;Node15 -->
<g id="edge35" class="edge">
<title>Node22&#45;&gt;Node15</title>
<path fill="none" stroke="#63b8ff" d="M1092,-109.66C1092,-92.57 1092,-54.61 1092,-30.92"/>
<polygon fill="#63b8ff" stroke="#63b8ff" points="1095.5,-30.97 1092,-20.97 1088.5,-30.97 1095.5,-30.97"/>
</g>
<!-- Node23&#45;&gt;Node6 -->
<g id="edge39" class="edge">
<title>Node23&#45;&gt;Node6</title>
<path fill="none" stroke="#63b8ff" d="M1172.22,-111.4C1169.1,-110.92 1166,-110.45 1163,-110 1065.48,-95.3 950.48,-79.02 892.11,-70.83"/>
<polygon fill="#63b8ff" stroke="#63b8ff" points="892.77,-67.38 882.38,-69.46 891.8,-74.32 892.77,-67.38"/>
</g>
<!-- Node23&#45;&gt;Node15 -->
<g id="edge38" class="edge">
<title>Node23&#45;&gt;Node15</title>
<path fill="none" stroke="#63b8ff" d="M1206.77,-109.66C1185.8,-91.55 1137.67,-49.96 1110.88,-26.81"/>
<polygon fill="#63b8ff" stroke="#63b8ff" points="1113.37,-24.34 1103.52,-20.45 1108.79,-29.64 1113.37,-24.34"/>
</g>
<!-- Node24&#45;&gt;Node6 -->
<g id="edge41" class="edge">
<title>Node24&#45;&gt;Node6</title>
<path fill="none" stroke="#63b8ff" d="M692.91,-109.51C727.05,-100.18 780.37,-85.62 816.21,-75.82"/>
<polygon fill="#63b8ff" stroke="#63b8ff" points="817,-79.24 825.73,-73.22 815.16,-72.48 817,-79.24"/>
</g>
<!-- Node25&#45;&gt;Node6 -->
<g id="edge43" class="edge">
<title>Node25&#45;&gt;Node6</title>
<path fill="none" stroke="#63b8ff" d="M813.93,-109.75C820.56,-102.43 830.22,-91.76 838.39,-82.74"/>
<polygon fill="#63b8ff" stroke="#63b8ff" points="840.77,-85.33 844.89,-75.56 835.58,-80.63 840.77,-85.33"/>
</g>
<!-- Node26&#45;&gt;Node6 -->
<g id="edge46" class="edge">
<title>Node26&#45;&gt;Node6</title>
<path fill="none" stroke="#63b8ff" d="M1362.81,-111.08C1359.83,-110.7 1356.88,-110.34 1354,-110 1182.18,-89.99 976.22,-74.26 892.35,-68.2"/>
<polygon fill="#63b8ff" stroke="#63b8ff" points="892.62,-64.71 882.39,-67.48 892.12,-71.69 892.62,-64.71"/>
</g>
<!-- Node27 -->
<g id="node27" class="node">
<title>Node27</title>
<g id="a_node27"><a xlink:href="DefinitionKind_8h.html" target="_top" xlink:title=" ">
<polygon fill="white" stroke="#666666" points="1460.5,-74 1365.5,-74 1365.5,-55 1460.5,-55 1460.5,-74"/>
<text text-anchor="middle" x="1413" y="-62" font-family="Helvetica,sans-Serif" font-size="10.00">DefinitionKind.h</text>
</a>
</g>
</g>
<!-- Node26&#45;&gt;Node27 -->
<g id="edge45" class="edge">
<title>Node26&#45;&gt;Node27</title>
<path fill="none" stroke="#63b8ff" d="M1413,-109.75C1413,-103.27 1413,-94.16 1413,-85.9"/>
<polygon fill="#63b8ff" stroke="#63b8ff" points="1416.5,-85.96 1413,-75.96 1409.5,-85.96 1416.5,-85.96"/>
</g>
</g>
</svg>
        <g id="navigator" transform="translate(0 0)" fill="#404254">
                <rect fill="#f2f5e9" fill-opacity="0.5" stroke="#606060" stroke-width=".5" x="0" y="0" width="60" height="60"/>
                <use id="zoomplus" xlink:href="#zoomPlus" x="17" y="9" onmousedown="handleZoom(evt,'in')"/>
                <use id="zoomminus" xlink:href="#zoomMin" x="42" y="9" onmousedown="handleZoom(evt,'out')"/>
                <use id="reset" xlink:href="#resetDef" x="30" y="36" onmousedown="handleReset()"/>
                <g id="arrowUp" xlink:href="#dirArrow" transform="translate(30 24)" onmousedown="handlePan(0,-1)">
                  <use xlink:href="#rim" fill="#404040">
                        <set attributeName="fill" to="#808080" begin="arrowUp.mouseover" end="arrowUp.mouseout"/>
                  </use>
                  <path fill="none" stroke="white" stroke-width="1.5" d="M0,-3.0v7 M-2.5,-0.5L0,-3.0L2.5,-0.5"/>
                </g>
                <g id="arrowRight" xlink:href="#dirArrow" transform="rotate(90) translate(36 -43)" onmousedown="handlePan(1,0)">
                  <use xlink:href="#rim" fill="#404040">
                        <set attributeName="fill" to="#808080" begin="arrowRight.mouseover" end="arrowRight.mouseout"/>
                  </use>
                  <path fill="none" stroke="white" stroke-width="1.5" d="M0,-3.0v7 M-2.5,-0.5L0,-3.0L2.5,-0.5"/>
                </g>
                <g id="arrowDown" xlink:href="#dirArrow" transform="rotate(180) translate(-30 -48)" onmousedown="handlePan(0,1)">
                  <use xlink:href="#rim" fill="#404040">
                        <set attributeName="fill" to="#808080" begin="arrowDown.mouseover" end="arrowDown.mouseout"/>
                  </use>
                  <path fill="none" stroke="white" stroke-width="1.5" d="M0,-3.0v7 M-2.5,-0.5L0,-3.0L2.5,-0.5"/>
                </g>
                <g id="arrowLeft" xlink:href="#dirArrow" transform="rotate(270) translate(-36 17)" onmousedown="handlePan(-1,0)">
                  <use xlink:href="#rim" fill="#404040">
                        <set attributeName="fill" to="#808080" begin="arrowLeft.mouseover" end="arrowLeft.mouseout"/>
                  </use>
                  <path fill="none" stroke="white" stroke-width="1.5" d="M0,-3.0v7 M-2.5,-0.5L0,-3.0L2.5,-0.5"/>
                </g>
        </g>
        <svg viewBox="0 0 15 15" width="100%" height="30px" preserveAspectRatio="xMaxYMin meet">
         <g id="arrow_out" transform="scale(0.3 0.3)">
          <a xlink:href="TaskMergeStorages_8cpp__incl_org.svg" target="_base">
           <rect id="button" ry="5" rx="5" y="6" x="6" height="38" width="38"
                fill="#f2f5e9" fill-opacity="0.5" stroke="#606060" stroke-width="1.0"/>
           <path id="arrow"
             d="M 11.500037,31.436501 C 11.940474,20.09759 22.043105,11.32322 32.158766,21.979434 L 37.068811,17.246167 C 37.068811,17.246167 37.088388,32 37.088388,32 L 22.160133,31.978069 C 22.160133,31.978069 26.997745,27.140456 26.997745,27.140456 C 18.528582,18.264221 13.291696,25.230495 11.500037,31.436501 z"
             style="fill:#404040;"/>
          </a>
         </g>
        </svg>
</svg>
