<?xml version="1.0" encoding="UTF-8" standalone="no"?>
<!DOCTYPE svg PUBLIC "-//W3C//DTD SVG 1.1//EN"
 "http://www.w3.org/Graphics/SVG/1.1/DTD/svg11.dtd">
<!-- Generated by graphviz version 9.0.0 (0)
 -->
<!-- Title: /home/ahussein/Documents/archive/opensourcesourcetrail.github.io/.ignore/src/src/lib/utility/scheduling/TaskScheduler.cpp Pages: 1 -->
<!--zoomable 351 -->

<svg id="main" version="1.1" xmlns="http://www.w3.org/2000/svg" xmlns:xlink="http://www.w3.org/1999/xlink" xml:space="preserve" onload="init(evt)">
<style type="text/css"><![CDATA[
.node, .edge {opacity: 0.7;}
.node.selected, .edge.selected {opacity: 1;}
.edge:hover path { stroke: red; }
.edge:hover polygon { stroke: red; fill: red; }
]]></style>

<defs>
  <circle id="rim" cx="0" cy="0" r="7"/>
  <circle id="rim2" cx="0" cy="0" r="3.5"/>
  <g id="zoomPlus">
    <use xlink:href="#rim" fill="#404040"><set attributeName="fill" to="#808080" begin="zoomplus.mouseover" end="zoomplus.mouseout"/></use>
    <path d="M-4,0h8M0,-4v8" fill="none" stroke="white" stroke-width="1.5" pointer-events="none"/>
  </g>
  <g id="zoomMin">
    <use xlink:href="#rim" fill="#404040"><set attributeName="fill" to="#808080" begin="zoomminus.mouseover" end="zoomminus.mouseout"/></use>
    <path d="M-4,0h8" fill="none" stroke="white" stroke-width="1.5" pointer-events="none"/>
  </g>
  <g id="arrowUp" transform="translate(30 24)">
    <use xlink:href="#rim"/>
    <path pointer-events="none" fill="none" stroke="white" stroke-width="1.5" d="M0,-3.0v7 M-2.5,-0.5L0,-3.0L2.5,-0.5"/>
  </g>
  <g id="arrowRight" transform="rotate(90) translate(36 -43)">
    <use xlink:href="#rim"/>
    <path pointer-events="none" fill="none" stroke="white" stroke-width="1.5" d="M0,-3.0v7 M-2.5,-0.5L0,-3.0L2.5,-0.5"/>
  </g>
  <g id="arrowDown" transform="rotate(180) translate(-30 -48)">
    <use xlink:href="#rim"/>
    <path pointer-events="none" fill="none" stroke="white" stroke-width="1.5" d="M0,-3.0v7 M-2.5,-0.5L0,-3.0L2.5,-0.5"/>
  </g>
  <g id="arrowLeft" transform="rotate(270) translate(-36 17)">
    <use xlink:href="#rim"/>
    <path pointer-events="none" fill="none" stroke="white" stroke-width="1.5" d="M0,-3.0v7 M-2.5,-0.5L0,-3.0L2.5,-0.5"/>
  </g>
  <g id="resetDef">
    <use xlink:href="#rim2" fill="#404040"><set attributeName="fill" to="#808080" begin="reset.mouseover" end="reset.mouseout"/></use>
  </g>
</defs>
<script type="application/ecmascript">
var viewWidth = 726;
var viewHeight = 351;
var sectionId = 'dynsection-0';
</script>
<script type="application/ecmascript" xlink:href="svg.min.js"/>
<svg id="graph" class="graph">
<g id="viewport">
<title>/home/ahussein/Documents/archive/opensourcesourcetrail.github.io/.ignore/src/src/lib/utility/scheduling/TaskScheduler.cpp</title>
<!-- Node1 -->
<g id="Node000001" class="node">
<title>Node1</title>
<g id="a_Node000001"><a xlink:title=" ">
<polygon fill="#999999" stroke="#666666" points="661.88,-342.75 450.12,-342.75 450.12,-283.75 661.88,-283.75 661.88,-342.75"/>
<text text-anchor="start" x="458.12" y="-329.25" font-family="Helvetica,sans-Serif" font-size="10.00">/home/ahussein/Documents</text>
<text text-anchor="start" x="458.12" y="-316.5" font-family="Helvetica,sans-Serif" font-size="10.00">/archive/opensourcesourcetrail.github.io</text>
<text text-anchor="start" x="458.12" y="-303.75" font-family="Helvetica,sans-Serif" font-size="10.00">/.ignore/src/src/lib/utility/scheduling</text>
<text text-anchor="middle" x="556" y="-291" font-family="Helvetica,sans-Serif" font-size="10.00">/TaskScheduler.cpp</text>
</a>
</g>
</g>
<!-- Node2 -->
<g id="Node000002" class="node">
<title>Node2</title>
<g id="a_Node000002"><a xlink:href="TaskScheduler_8h.html" target="_top" xlink:title=" ">
<polygon fill="white" stroke="#666666" points="219.38,-247.75 124.62,-247.75 124.62,-227 219.38,-227 219.38,-247.75"/>
<text text-anchor="middle" x="172" y="-234.25" font-family="Helvetica,sans-Serif" font-size="10.00">TaskScheduler.h</text>
</a>
</g>
</g>
<!-- Node1&#45;&gt;Node2 -->
<g id="edge1_Node000001_Node000002" class="edge">
<title>Node1&#45;&gt;Node2</title>
<g id="a_edge1_Node000001_Node000002"><a xlink:title=" ">
<path fill="none" stroke="#63b8ff" d="M449.8,-291.82C379.15,-278.23 288.98,-260.88 230.87,-249.7"/>
<polygon fill="#63b8ff" stroke="#63b8ff" points="231.66,-246.29 221.18,-247.84 230.33,-253.16 231.66,-246.29"/>
</a>
</g>
</g>
<!-- Node10 -->
<g id="Node000010" class="node">
<title>Node10</title>
<g id="a_Node000010"><a xlink:title=" ">
<polygon fill="#e0e0e0" stroke="#999999" points="520.5,-20.75 471.5,-20.75 471.5,0 520.5,0 520.5,-20.75"/>
<text text-anchor="middle" x="496" y="-7.25" font-family="Helvetica,sans-Serif" font-size="10.00">chrono</text>
</a>
</g>
</g>
<!-- Node1&#45;&gt;Node10 -->
<g id="edge13_Node000001_Node000010" class="edge">
<title>Node1&#45;&gt;Node10</title>
<g id="a_edge13_Node000001_Node000010"><a xlink:title=" ">
<path fill="none" stroke="#63b8ff" d="M556,-283.45C556,-256.99 556,-216.66 556,-181.62 556,-181.62 556,-181.62 556,-122.88 556,-92.3 551.86,-83.48 537,-56.75 531.38,-46.64 523.11,-36.91 515.47,-29.07"/>
<polygon fill="#63b8ff" stroke="#63b8ff" points="517.98,-26.63 508.37,-22.17 513.1,-31.65 517.98,-26.63"/>
</a>
</g>
</g>
<!-- Node11 -->
<g id="Node000011" class="node">
<title>Node11</title>
<g id="a_Node000011"><a xlink:title=" ">
<polygon fill="#e0e0e0" stroke="#999999" points="606.75,-20.75 559.25,-20.75 559.25,0 606.75,0 606.75,-20.75"/>
<text text-anchor="middle" x="583" y="-7.25" font-family="Helvetica,sans-Serif" font-size="10.00">thread</text>
</a>
</g>
</g>
<!-- Node1&#45;&gt;Node11 -->
<g id="edge14_Node000001_Node000011" class="edge">
<title>Node1&#45;&gt;Node11</title>
<g id="a_edge14_Node000001_Node000011"><a xlink:title=" ">
<path fill="none" stroke="#63b8ff" d="M569.5,-283.38C580.43,-257.36 594,-217.76 594,-181.62 594,-181.62 594,-181.62 594,-122.88 594,-91.18 589.54,-54.67 586.3,-32.3"/>
<polygon fill="#63b8ff" stroke="#63b8ff" points="589.81,-32.05 584.85,-22.68 582.88,-33.09 589.81,-32.05"/>
</a>
</g>
</g>
<!-- Node12 -->
<g id="Node000012" class="node">
<title>Node12</title>
<g id="a_Node000012"><a xlink:href="ScopedFunctor_8h.html" target="_top" xlink:title=" ">
<polygon fill="white" stroke="#666666" points="718.12,-247.75 621.88,-247.75 621.88,-227 718.12,-227 718.12,-247.75"/>
<text text-anchor="middle" x="670" y="-234.25" font-family="Helvetica,sans-Serif" font-size="10.00">ScopedFunctor.h</text>
</a>
</g>
</g>
<!-- Node1&#45;&gt;Node12 -->
<g id="edge15_Node000001_Node000012" class="edge">
<title>Node1&#45;&gt;Node12</title>
<g id="a_edge15_Node000001_Node000012"><a xlink:title=" ">
<path fill="none" stroke="#63b8ff" d="M600.73,-283.26C615.89,-273.44 632.26,-262.83 645.29,-254.39"/>
<polygon fill="#63b8ff" stroke="#63b8ff" points="647.16,-257.34 653.65,-248.97 643.36,-251.47 647.16,-257.34"/>
</a>
</g>
</g>
<!-- Node14 -->
<g id="Node000014" class="node">
<title>Node14</title>
<g id="a_Node000014"><a xlink:href="logging_8h.html" target="_top" xlink:title=" ">
<polygon fill="white" stroke="#666666" points="479.5,-247.75 418.5,-247.75 418.5,-227 479.5,-227 479.5,-247.75"/>
<text text-anchor="middle" x="449" y="-234.25" font-family="Helvetica,sans-Serif" font-size="10.00">logging.h</text>
</a>
</g>
</g>
<!-- Node1&#45;&gt;Node14 -->
<g id="edge17_Node000001_Node000014" class="edge">
<title>Node1&#45;&gt;Node14</title>
<g id="a_edge17_Node000001_Node000014"><a xlink:title=" ">
<path fill="none" stroke="#63b8ff" d="M514.02,-283.26C499.93,-273.54 484.72,-263.04 472.56,-254.64"/>
<polygon fill="#63b8ff" stroke="#63b8ff" points="474.62,-251.81 464.4,-249.01 470.64,-257.57 474.62,-251.81"/>
</a>
</g>
</g>
<!-- Node3 -->
<g id="Node000003" class="node">
<title>Node3</title>
<g id="a_Node000003"><a xlink:title=" ">
<polygon fill="#e0e0e0" stroke="#999999" points="284,-191 238,-191 238,-170.25 284,-170.25 284,-191"/>
<text text-anchor="middle" x="261" y="-177.5" font-family="Helvetica,sans-Serif" font-size="10.00">deque</text>
</a>
</g>
</g>
<!-- Node2&#45;&gt;Node3 -->
<g id="edge2_Node000002_Node000003" class="edge">
<title>Node2&#45;&gt;Node3</title>
<g id="a_edge2_Node000002_Node000003"><a xlink:title=" ">
<path fill="none" stroke="#63b8ff" d="M187.91,-226.59C201.2,-218.41 220.39,-206.61 235.77,-197.15"/>
<polygon fill="#63b8ff" stroke="#63b8ff" points="237.25,-200.34 243.94,-192.12 233.59,-194.38 237.25,-200.34"/>
</a>
</g>
</g>
<!-- Node4 -->
<g id="Node000004" class="node">
<title>Node4</title>
<g id="a_Node000004"><a xlink:title=" ">
<polygon fill="#e0e0e0" stroke="#999999" points="200.62,-77.5 143.38,-77.5 143.38,-56.75 200.62,-56.75 200.62,-77.5"/>
<text text-anchor="middle" x="172" y="-64" font-family="Helvetica,sans-Serif" font-size="10.00">memory</text>
</a>
</g>
</g>
<!-- Node2&#45;&gt;Node4 -->
<g id="edge3_Node000002_Node000004" class="edge">
<title>Node2&#45;&gt;Node4</title>
<g id="a_edge3_Node000002_Node000004"><a xlink:title=" ">
<path fill="none" stroke="#63b8ff" d="M172,-226.85C172,-200.48 172,-126.08 172,-89.28"/>
<polygon fill="#63b8ff" stroke="#63b8ff" points="175.5,-89.48 172,-79.48 168.5,-89.48 175.5,-89.48"/>
</a>
</g>
</g>
<!-- Node5 -->
<g id="Node000005" class="node">
<title>Node5</title>
<g id="a_Node000005"><a xlink:title=" ">
<polygon fill="#e0e0e0" stroke="#999999" points="293.75,-77.5 246.25,-77.5 246.25,-56.75 293.75,-56.75 293.75,-77.5"/>
<text text-anchor="middle" x="270" y="-64" font-family="Helvetica,sans-Serif" font-size="10.00">mutex</text>
</a>
</g>
</g>
<!-- Node2&#45;&gt;Node5 -->
<g id="edge4_Node000002_Node000005" class="edge">
<title>Node2&#45;&gt;Node5</title>
<g id="a_edge4_Node000002_Node000005"><a xlink:title=" ">
<path fill="none" stroke="#63b8ff" d="M177.55,-226.85C193.11,-200.14 237.38,-124.12 258.51,-87.85"/>
<polygon fill="#63b8ff" stroke="#63b8ff" points="261.5,-89.68 263.51,-79.28 255.45,-86.15 261.5,-89.68"/>
</a>
</g>
</g>
<!-- Node6 -->
<g id="Node000006" class="node">
<title>Node6</title>
<g id="a_Node000006"><a xlink:href="Task_8h.html" target="_top" xlink:title=" ">
<polygon fill="white" stroke="#666666" points="79.38,-134.25 32.62,-134.25 32.62,-113.5 79.38,-113.5 79.38,-134.25"/>
<text text-anchor="middle" x="56" y="-120.75" font-family="Helvetica,sans-Serif" font-size="10.00">Task.h</text>
</a>
</g>
</g>
<!-- Node2&#45;&gt;Node6 -->
<g id="edge5_Node000002_Node000006" class="edge">
<title>Node2&#45;&gt;Node6</title>
<g id="a_edge5_Node000002_Node000006"><a xlink:title=" ">
<path fill="none" stroke="#63b8ff" d="M124.24,-231.1C98.57,-225.56 68.99,-214.22 53,-191 43.92,-177.83 45.61,-159.42 49.03,-145.38"/>
<polygon fill="#63b8ff" stroke="#63b8ff" points="52.37,-146.43 51.83,-135.85 45.65,-144.45 52.37,-146.43"/>
</a>
</g>
</g>
<!-- Node7 -->
<g id="Node000007" class="node">
<title>Node7</title>
<g id="a_Node000007"><a xlink:href="types_8h.html" target="_top" xlink:title=" ">
<polygon fill="white" stroke="#666666" points="52,-77.5 0,-77.5 0,-56.75 52,-56.75 52,-77.5"/>
<text text-anchor="middle" x="26" y="-64" font-family="Helvetica,sans-Serif" font-size="10.00">types.h</text>
</a>
</g>
</g>
<!-- Node2&#45;&gt;Node7 -->
<g id="edge12_Node000002_Node000007" class="edge">
<title>Node2&#45;&gt;Node7</title>
<g id="a_edge12_Node000002_Node000007"><a xlink:title=" ">
<path fill="none" stroke="#63b8ff" d="M124.44,-230.13C97.33,-224.26 64.57,-212.9 43,-191 16.52,-164.11 18.33,-116.46 22.1,-89.06"/>
<polygon fill="#63b8ff" stroke="#63b8ff" points="25.55,-89.66 23.7,-79.23 18.64,-88.54 25.55,-89.66"/>
</a>
</g>
</g>
<!-- Node9 -->
<g id="Node000009" class="node">
<title>Node9</title>
<g id="a_Node000009"><a xlink:href="TaskRunner_8h.html" target="_top" xlink:title=" ">
<polygon fill="white" stroke="#666666" points="143.62,-191 62.38,-191 62.38,-170.25 143.62,-170.25 143.62,-191"/>
<text text-anchor="middle" x="103" y="-177.5" font-family="Helvetica,sans-Serif" font-size="10.00">TaskRunner.h</text>
</a>
</g>
</g>
<!-- Node2&#45;&gt;Node9 -->
<g id="edge9_Node000002_Node000009" class="edge">
<title>Node2&#45;&gt;Node9</title>
<g id="a_edge9_Node000002_Node000009"><a xlink:title=" ">
<path fill="none" stroke="#63b8ff" d="M159.66,-226.59C149.75,-218.72 135.61,-207.5 123.94,-198.24"/>
<polygon fill="#63b8ff" stroke="#63b8ff" points="126.42,-195.74 116.41,-192.27 122.07,-201.23 126.42,-195.74"/>
</a>
</g>
</g>
<!-- Node6&#45;&gt;Node4 -->
<g id="edge6_Node000006_Node000004" class="edge">
<title>Node6&#45;&gt;Node4</title>
<g id="a_edge6_Node000006_Node000004"><a xlink:title=" ">
<path fill="none" stroke="#63b8ff" d="M76.74,-113.09C94.64,-104.64 120.74,-92.32 141.1,-82.71"/>
<polygon fill="#63b8ff" stroke="#63b8ff" points="142.52,-85.91 150.07,-78.47 139.54,-79.58 142.52,-85.91"/>
</a>
</g>
</g>
<!-- Node6&#45;&gt;Node7 -->
<g id="edge7_Node000006_Node000007" class="edge">
<title>Node6&#45;&gt;Node7</title>
<g id="a_edge7_Node000006_Node000007"><a xlink:title=" ">
<path fill="none" stroke="#63b8ff" d="M50.64,-113.09C46.8,-106.08 41.5,-96.41 36.8,-87.83"/>
<polygon fill="#63b8ff" stroke="#63b8ff" points="39.92,-86.24 32.04,-79.16 33.78,-89.61 39.92,-86.24"/>
</a>
</g>
</g>
<!-- Node8 -->
<g id="Node000008" class="node">
<title>Node8</title>
<g id="a_Node000008"><a xlink:title=" ">
<polygon fill="#e0e0e0" stroke="#999999" points="52,-20.75 0,-20.75 0,0 52,0 52,-20.75"/>
<text text-anchor="middle" x="26" y="-7.25" font-family="Helvetica,sans-Serif" font-size="10.00">cstddef</text>
</a>
</g>
</g>
<!-- Node7&#45;&gt;Node8 -->
<g id="edge8_Node000007_Node000008" class="edge">
<title>Node7&#45;&gt;Node8</title>
<g id="a_edge8_Node000007_Node000008"><a xlink:title=" ">
<path fill="none" stroke="#63b8ff" d="M26,-56.34C26,-49.72 26,-40.72 26,-32.52"/>
<polygon fill="#63b8ff" stroke="#63b8ff" points="29.5,-32.59 26,-22.59 22.5,-32.59 29.5,-32.59"/>
</a>
</g>
</g>
<!-- Node9&#45;&gt;Node4 -->
<g id="edge10_Node000009_Node000004" class="edge">
<title>Node9&#45;&gt;Node4</title>
<g id="a_edge10_Node000009_Node000004"><a xlink:title=" ">
<path fill="none" stroke="#63b8ff" d="M108.88,-170.12C120.18,-151.86 145.12,-111.56 160.04,-87.45"/>
<polygon fill="#63b8ff" stroke="#63b8ff" points="162.85,-89.56 165.14,-79.21 156.9,-85.87 162.85,-89.56"/>
</a>
</g>
</g>
<!-- Node9&#45;&gt;Node6 -->
<g id="edge11_Node000009_Node000006" class="edge">
<title>Node9&#45;&gt;Node6</title>
<g id="a_edge11_Node000009_Node000006"><a xlink:title=" ">
<path fill="none" stroke="#63b8ff" d="M94.6,-169.84C88.25,-162.44 79.35,-152.07 71.7,-143.16"/>
<polygon fill="#63b8ff" stroke="#63b8ff" points="74.49,-141.03 65.32,-135.73 69.17,-145.59 74.49,-141.03"/>
</a>
</g>
</g>
<!-- Node13 -->
<g id="Node000013" class="node">
<title>Node13</title>
<g id="a_Node000013"><a xlink:title=" ">
<polygon fill="#e0e0e0" stroke="#999999" points="702.38,-191 637.62,-191 637.62,-170.25 702.38,-170.25 702.38,-191"/>
<text text-anchor="middle" x="670" y="-177.5" font-family="Helvetica,sans-Serif" font-size="10.00">functional</text>
</a>
</g>
</g>
<!-- Node12&#45;&gt;Node13 -->
<g id="edge16_Node000012_Node000013" class="edge">
<title>Node12&#45;&gt;Node13</title>
<g id="a_edge16_Node000012_Node000013"><a xlink:title=" ">
<path fill="none" stroke="#63b8ff" d="M670,-226.59C670,-219.97 670,-210.97 670,-202.77"/>
<polygon fill="#63b8ff" stroke="#63b8ff" points="673.5,-202.84 670,-192.84 666.5,-202.84 673.5,-202.84"/>
</a>
</g>
</g>
<!-- Node15 -->
<g id="Node000015" class="node">
<title>Node15</title>
<g id="a_Node000015"><a xlink:title=" ">
<polygon fill="#e0e0e0" stroke="#999999" points="388.88,-191 333.12,-191 333.12,-170.25 388.88,-170.25 388.88,-191"/>
<text text-anchor="middle" x="361" y="-177.5" font-family="Helvetica,sans-Serif" font-size="10.00">sstream</text>
</a>
</g>
</g>
<!-- Node14&#45;&gt;Node15 -->
<g id="edge18_Node000014_Node000015" class="edge">
<title>Node14&#45;&gt;Node15</title>
<g id="a_edge18_Node000014_Node000015"><a xlink:title=" ">
<path fill="none" stroke="#63b8ff" d="M433.27,-226.59C420.13,-218.41 401.16,-206.61 385.95,-197.15"/>
<polygon fill="#63b8ff" stroke="#63b8ff" points="388.22,-194.44 377.88,-192.13 384.52,-200.38 388.22,-194.44"/>
</a>
</g>
</g>
<!-- Node16 -->
<g id="Node000016" class="node">
<title>Node16</title>
<g id="a_Node000016"><a xlink:href="LogManager_8h.html" target="_top" xlink:title=" ">
<polygon fill="white" stroke="#666666" points="491.5,-191 406.5,-191 406.5,-170.25 491.5,-170.25 491.5,-191"/>
<text text-anchor="middle" x="449" y="-177.5" font-family="Helvetica,sans-Serif" font-size="10.00">LogManager.h</text>
</a>
</g>
</g>
<!-- Node14&#45;&gt;Node16 -->
<g id="edge19_Node000014_Node000016" class="edge">
<title>Node14&#45;&gt;Node16</title>
<g id="a_edge19_Node000014_Node000016"><a xlink:title=" ">
<path fill="none" stroke="#63b8ff" d="M449,-226.59C449,-219.97 449,-210.97 449,-202.77"/>
<polygon fill="#63b8ff" stroke="#63b8ff" points="452.5,-202.84 449,-192.84 445.5,-202.84 452.5,-202.84"/>
</a>
</g>
</g>
<!-- Node16&#45;&gt;Node4 -->
<g id="edge20_Node000016_Node000004" class="edge">
<title>Node16&#45;&gt;Node4</title>
<g id="a_edge20_Node000016_Node000004"><a xlink:title=" ">
<path fill="none" stroke="#63b8ff" d="M406.05,-170.8C360.41,-161.09 291.54,-145.39 267,-134.25 238.8,-121.45 210.12,-100.09 191.76,-85.12"/>
<polygon fill="#63b8ff" stroke="#63b8ff" points="194.24,-82.63 184.32,-78.92 189.76,-88.01 194.24,-82.63"/>
</a>
</g>
</g>
<!-- Node17 -->
<g id="Node000017" class="node">
<title>Node17</title>
<g id="a_Node000017"><a xlink:href="LogManagerImplementation_8h.html" target="_top" xlink:title=" ">
<polygon fill="white" stroke="#666666" points="439.5,-134.25 276.5,-134.25 276.5,-113.5 439.5,-113.5 439.5,-134.25"/>
<text text-anchor="middle" x="358" y="-120.75" font-family="Helvetica,sans-Serif" font-size="10.00">LogManagerImplementation.h</text>
</a>
</g>
</g>
<!-- Node16&#45;&gt;Node17 -->
<g id="edge21_Node000016_Node000017" class="edge">
<title>Node16&#45;&gt;Node17</title>
<g id="a_edge21_Node000016_Node000017"><a xlink:title=" ">
<path fill="none" stroke="#63b8ff" d="M432.73,-169.84C419.14,-161.66 399.53,-149.86 383.8,-140.4"/>
<polygon fill="#63b8ff" stroke="#63b8ff" points="385.8,-137.52 375.43,-135.36 382.19,-143.51 385.8,-137.52"/>
</a>
</g>
</g>
<!-- Node19 -->
<g id="Node000019" class="node">
<title>Node19</title>
<g id="a_Node000019"><a xlink:href="Logger_8h.html" target="_top" xlink:title=" ">
<polygon fill="white" stroke="#666666" points="516,-134.25 458,-134.25 458,-113.5 516,-113.5 516,-134.25"/>
<text text-anchor="middle" x="487" y="-120.75" font-family="Helvetica,sans-Serif" font-size="10.00">Logger.h</text>
</a>
</g>
</g>
<!-- Node16&#45;&gt;Node19 -->
<g id="edge25_Node000016_Node000019" class="edge">
<title>Node16&#45;&gt;Node19</title>
<g id="a_edge25_Node000016_Node000019"><a xlink:title=" ">
<path fill="none" stroke="#63b8ff" d="M455.79,-169.84C460.77,-162.67 467.67,-152.73 473.72,-144.01"/>
<polygon fill="#63b8ff" stroke="#63b8ff" points="476.58,-146.03 479.4,-135.82 470.82,-142.04 476.58,-146.03"/>
</a>
</g>
</g>
<!-- Node17&#45;&gt;Node4 -->
<g id="edge22_Node000017_Node000004" class="edge">
<title>Node17&#45;&gt;Node4</title>
<g id="a_edge22_Node000017_Node000004"><a xlink:title=" ">
<path fill="none" stroke="#63b8ff" d="M324.75,-113.09C293.11,-103.77 245.47,-89.75 211.83,-79.85"/>
<polygon fill="#63b8ff" stroke="#63b8ff" points="213.03,-76.55 202.45,-77.09 211.05,-83.27 213.03,-76.55"/>
</a>
</g>
</g>
<!-- Node17&#45;&gt;Node5 -->
<g id="edge23_Node000017_Node000005" class="edge">
<title>Node17&#45;&gt;Node5</title>
<g id="a_edge23_Node000017_Node000005"><a xlink:title=" ">
<path fill="none" stroke="#63b8ff" d="M342.27,-113.09C329.13,-104.91 310.16,-93.11 294.95,-83.65"/>
<polygon fill="#63b8ff" stroke="#63b8ff" points="297.22,-80.94 286.88,-78.63 293.52,-86.88 297.22,-80.94"/>
</a>
</g>
</g>
<!-- Node18 -->
<g id="Node000018" class="node">
<title>Node18</title>
<g id="a_Node000018"><a xlink:title=" ">
<polygon fill="#e0e0e0" stroke="#999999" points="383.38,-77.5 336.62,-77.5 336.62,-56.75 383.38,-56.75 383.38,-77.5"/>
<text text-anchor="middle" x="360" y="-64" font-family="Helvetica,sans-Serif" font-size="10.00">vector</text>
</a>
</g>
</g>
<!-- Node17&#45;&gt;Node18 -->
<g id="edge24_Node000017_Node000018" class="edge">
<title>Node17&#45;&gt;Node18</title>
<g id="a_edge24_Node000017_Node000018"><a xlink:title=" ">
<path fill="none" stroke="#63b8ff" d="M358.36,-113.09C358.6,-106.47 358.93,-97.47 359.23,-89.27"/>
<polygon fill="#63b8ff" stroke="#63b8ff" points="362.72,-89.46 359.59,-79.34 355.73,-89.21 362.72,-89.46"/>
</a>
</g>
</g>
<!-- Node19&#45;&gt;Node18 -->
<g id="edge26_Node000019_Node000018" class="edge">
<title>Node19&#45;&gt;Node18</title>
<g id="a_edge26_Node000019_Node000018"><a xlink:title=" ">
<path fill="none" stroke="#63b8ff" d="M464.29,-113.09C444.43,-104.52 415.33,-91.98 392.91,-82.31"/>
<polygon fill="#63b8ff" stroke="#63b8ff" points="394.47,-79.17 383.9,-78.43 391.7,-85.6 394.47,-79.17"/>
</a>
</g>
</g>
<!-- Node20 -->
<g id="Node000020" class="node">
<title>Node20</title>
<g id="a_Node000020"><a xlink:title=" ">
<polygon fill="#e0e0e0" stroke="#999999" points="438.88,-20.75 395.12,-20.75 395.12,0 438.88,0 438.88,-20.75"/>
<text text-anchor="middle" x="417" y="-7.25" font-family="Helvetica,sans-Serif" font-size="10.00">string</text>
</a>
</g>
</g>
<!-- Node19&#45;&gt;Node20 -->
<g id="edge27_Node000019_Node000020" class="edge">
<title>Node19&#45;&gt;Node20</title>
<g id="a_edge27_Node000019_Node000020"><a xlink:title=" ">
<path fill="none" stroke="#63b8ff" d="M470.37,-113.03C458.21,-104.97 442.29,-92.49 433,-77.5 424.52,-63.82 420.54,-45.96 418.66,-32.26"/>
<polygon fill="#63b8ff" stroke="#63b8ff" points="422.17,-32.15 417.63,-22.58 415.21,-32.89 422.17,-32.15"/>
</a>
</g>
</g>
<!-- Node21 -->
<g id="Node000021" class="node">
<title>Node21</title>
<g id="a_Node000021"><a xlink:href="LogMessage_8h.html" target="_top" xlink:title=" ">
<polygon fill="white" stroke="#666666" points="527.88,-77.5 442.12,-77.5 442.12,-56.75 527.88,-56.75 527.88,-77.5"/>
<text text-anchor="middle" x="485" y="-64" font-family="Helvetica,sans-Serif" font-size="10.00">LogMessage.h</text>
</a>
</g>
</g>
<!-- Node19&#45;&gt;Node21 -->
<g id="edge28_Node000019_Node000021" class="edge">
<title>Node19&#45;&gt;Node21</title>
<g id="a_edge28_Node000019_Node000021"><a xlink:title=" ">
<path fill="none" stroke="#63b8ff" d="M486.64,-113.09C486.4,-106.47 486.07,-97.47 485.77,-89.27"/>
<polygon fill="#63b8ff" stroke="#63b8ff" points="489.27,-89.21 485.41,-79.34 482.28,-89.46 489.27,-89.21"/>
</a>
</g>
</g>
<!-- Node21&#45;&gt;Node10 -->
<g id="edge29_Node000021_Node000010" class="edge">
<title>Node21&#45;&gt;Node10</title>
<g id="a_edge29_Node000021_Node000010"><a xlink:title=" ">
<path fill="none" stroke="#63b8ff" d="M486.97,-56.34C488.31,-49.64 490.15,-40.51 491.81,-32.23"/>
<polygon fill="#63b8ff" stroke="#63b8ff" points="495.21,-33.06 493.75,-22.56 488.35,-31.68 495.21,-33.06"/>
</a>
</g>
</g>
<!-- Node21&#45;&gt;Node11 -->
<g id="edge31_Node000021_Node000011" class="edge">
<title>Node21&#45;&gt;Node11</title>
<g id="a_edge31_Node000021_Node000011"><a xlink:title=" ">
<path fill="none" stroke="#63b8ff" d="M502.52,-56.34C517.29,-48.08 538.68,-36.13 555.7,-26.63"/>
<polygon fill="#63b8ff" stroke="#63b8ff" points="557.29,-29.75 564.31,-21.82 553.87,-23.64 557.29,-29.75"/>
</a>
</g>
</g>
<!-- Node21&#45;&gt;Node20 -->
<g id="edge30_Node000021_Node000020" class="edge">
<title>Node21&#45;&gt;Node20</title>
<g id="a_edge30_Node000021_Node000020"><a xlink:title=" ">
<path fill="none" stroke="#63b8ff" d="M472.84,-56.34C463.17,-48.55 449.42,-37.47 437.98,-28.26"/>
<polygon fill="#63b8ff" stroke="#63b8ff" points="440.21,-25.57 430.23,-22.03 435.82,-31.03 440.21,-25.57"/>
</a>
</g>
</g>
</g>
</svg>

<g id="navigator" transform="translate(0 0)" fill="#404254">
  <rect fill="#f2f5e9" fill-opacity="0.5" stroke="#606060" stroke-width=".5" x="0" y="0" width="60" height="60"/>
  <use id="zoomplus" xlink:href="#zoomPlus" x="17" y="9" onmousedown="handleZoom(evt,'in')"/>
  <use id="zoomminus" xlink:href="#zoomMin" x="42" y="9" onmousedown="handleZoom(evt,'out')"/>
  <use id="reset" xlink:href="#resetDef" x="30" y="36" onmousedown="handleReset()"/>
   <use id="arrowup" xlink:href="#arrowUp" x="0" y="0" onmousedown="handlePan(0,-1)"/>
  <use id="arrowright" xlink:href="#arrowRight" x="0" y="0" onmousedown="handlePan(1,0)"/>
  <use id="arrowdown" xlink:href="#arrowDown" x="0" y="0" onmousedown="handlePan(0,1)"/>
  <use id="arrowleft" xlink:href="#arrowLeft" x="0" y="0" onmousedown="handlePan(-1,0)"/>
</g>
<svg viewBox="0 0 15 15" width="100%" height="30px" preserveAspectRatio="xMaxYMin meet">
 <g id="arrow_out" transform="scale(0.3 0.3)">
  <a xlink:href="TaskScheduler_8cpp__incl_org.svg" target="_base">
   <rect id="button" ry="5" rx="5" y="6" x="6" height="38" width="38"
        fill="#f2f5e9" fill-opacity="0.5" stroke="#606060" stroke-width="1.0"/>
   <path id="arrow"
     d="M 11.500037,31.436501 C 11.940474,20.09759 22.043105,11.32322 32.158766,21.979434 L 37.068811,17.246167 C 37.068811,17.246167 37.088388,32 37.088388,32 L 22.160133,31.978069 C 22.160133,31.978069 26.997745,27.140456 26.997745,27.140456 C 18.528582,18.264221 13.291696,25.230495 11.500037,31.436501 z"
     style="fill:#404040;"/>
  </a>
 </g>
</svg>

<style type='text/css'>
<![CDATA[
[data-mouse-over-selected='false'] { opacity: 0.7; }
[data-mouse-over-selected='true']  { opacity: 1.0; }
]]>
</style>
<script type="application/ecmascript"><![CDATA[
document.addEventListener('DOMContentLoaded', (event) => {
  highlightEdges();
  highlightAdjacentNodes();
});
]]></script>
</svg>
