<?xml version="1.0" encoding="UTF-8" standalone="no"?>
<!DOCTYPE svg PUBLIC "-//W3C//DTD SVG 1.1//EN"
 "http://www.w3.org/Graphics/SVG/1.1/DTD/svg11.dtd">
<!-- Generated by graphviz version 7.1.0 (0)
 -->
<!-- Title: /home/ahussein/Documents/sourceCode/Sourcetrail/src/src/lib/data/TaskCleanStorage.h Pages: 1 -->
<svg width="281pt" height="225pt"
 viewBox="0.00 0.00 280.50 225.00" xmlns="http://www.w3.org/2000/svg" xmlns:xlink="http://www.w3.org/1999/xlink">
<g id="graph0" class="graph" transform="scale(1 1) rotate(0) translate(4 221)">
<title>/home/ahussein/Documents/sourceCode/Sourcetrail/src/src/lib/data/TaskCleanStorage.h</title>
<!-- Node1 -->
<g id="node1" class="node">
<title>Node1</title>
<g id="a_node1"><a xlink:title=" ">
<polygon fill="#999999" stroke="#666666" points="198,-217 8,-217 8,-176 198,-176 198,-217"/>
<text text-anchor="start" x="16" y="-205" font-family="Helvetica,sans-Serif" font-size="10.00">/home/ahussein/Documents</text>
<text text-anchor="start" x="16" y="-194" font-family="Helvetica,sans-Serif" font-size="10.00">/sourceCode/Sourcetrail</text>
<text text-anchor="middle" x="103" y="-183" font-family="Helvetica,sans-Serif" font-size="10.00">/src/src/lib/data/TaskCleanStorage.h</text>
</a>
</g>
</g>
<!-- Node2 -->
<g id="node2" class="node">
<title>Node2</title>
<g id="a_node2"><a xlink:title=" ">
<polygon fill="#e0e0e0" stroke="#999999" points="61.5,-140 14.5,-140 14.5,-121 61.5,-121 61.5,-140"/>
<text text-anchor="middle" x="38" y="-128" font-family="Helvetica,sans-Serif" font-size="10.00">vector</text>
</a>
</g>
</g>
<!-- Node1&#45;&gt;Node2 -->
<g id="edge1" class="edge">
<title>Node1&#45;&gt;Node2</title>
<path fill="none" stroke="#63b8ff" d="M82.79,-175.6C73.83,-166.78 63.4,-156.51 54.87,-148.11"/>
<polygon fill="#63b8ff" stroke="#63b8ff" points="57.46,-145.75 47.88,-141.22 52.55,-150.73 57.46,-145.75"/>
</g>
<!-- Node3 -->
<g id="node3" class="node">
<title>Node3</title>
<g id="a_node3"><a xlink:href="Task_8h.html" target="_top" xlink:title=" ">
<polygon fill="white" stroke="#666666" points="126.5,-140 79.5,-140 79.5,-121 126.5,-121 126.5,-140"/>
<text text-anchor="middle" x="103" y="-128" font-family="Helvetica,sans-Serif" font-size="10.00">Task.h</text>
</a>
</g>
</g>
<!-- Node1&#45;&gt;Node3 -->
<g id="edge2" class="edge">
<title>Node1&#45;&gt;Node3</title>
<path fill="none" stroke="#63b8ff" d="M103,-175.6C103,-167.98 103,-159.3 103,-151.66"/>
<polygon fill="#63b8ff" stroke="#63b8ff" points="106.5,-151.68 103,-141.68 99.5,-151.68 106.5,-151.68"/>
</g>
<!-- Node7 -->
<g id="node7" class="node">
<title>Node7</title>
<g id="a_node7"><a xlink:href="TimeStamp_8h.html" target="_top" xlink:title=" ">
<polygon fill="white" stroke="#666666" points="237.5,-140 156.5,-140 156.5,-121 237.5,-121 237.5,-140"/>
<text text-anchor="middle" x="197" y="-128" font-family="Helvetica,sans-Serif" font-size="10.00">TimeStamp.h</text>
</a>
</g>
</g>
<!-- Node1&#45;&gt;Node7 -->
<g id="edge6" class="edge">
<title>Node1&#45;&gt;Node7</title>
<path fill="none" stroke="#63b8ff" d="M132.23,-175.6C146.01,-166.22 162.17,-155.21 174.91,-146.54"/>
<polygon fill="#63b8ff" stroke="#63b8ff" points="176.73,-149.54 183.03,-141.01 172.79,-143.75 176.73,-149.54"/>
</g>
<!-- Node4 -->
<g id="node4" class="node">
<title>Node4</title>
<g id="a_node4"><a xlink:title=" ">
<polygon fill="#e0e0e0" stroke="#999999" points="58,-79.5 0,-79.5 0,-60.5 58,-60.5 58,-79.5"/>
<text text-anchor="middle" x="29" y="-67.5" font-family="Helvetica,sans-Serif" font-size="10.00">memory</text>
</a>
</g>
</g>
<!-- Node3&#45;&gt;Node4 -->
<g id="edge3" class="edge">
<title>Node3&#45;&gt;Node4</title>
<path fill="none" stroke="#63b8ff" d="M91.76,-120.62C80.46,-111.68 62.79,-97.72 49.08,-86.87"/>
<polygon fill="#63b8ff" stroke="#63b8ff" points="51.55,-84.36 41.53,-80.91 47.21,-89.85 51.55,-84.36"/>
</g>
<!-- Node5 -->
<g id="node5" class="node">
<title>Node5</title>
<g id="a_node5"><a xlink:href="types_8h.html" target="_top" xlink:title=" ">
<polygon fill="white" stroke="#666666" points="129.5,-79.5 76.5,-79.5 76.5,-60.5 129.5,-60.5 129.5,-79.5"/>
<text text-anchor="middle" x="103" y="-67.5" font-family="Helvetica,sans-Serif" font-size="10.00">types.h</text>
</a>
</g>
</g>
<!-- Node3&#45;&gt;Node5 -->
<g id="edge4" class="edge">
<title>Node3&#45;&gt;Node5</title>
<path fill="none" stroke="#63b8ff" d="M103,-120.87C103,-113 103,-101.1 103,-90.89"/>
<polygon fill="#63b8ff" stroke="#63b8ff" points="106.5,-91.18 103,-81.18 99.5,-91.18 106.5,-91.18"/>
</g>
<!-- Node6 -->
<g id="node6" class="node">
<title>Node6</title>
<g id="a_node6"><a xlink:title=" ">
<polygon fill="#e0e0e0" stroke="#999999" points="129.5,-19 76.5,-19 76.5,0 129.5,0 129.5,-19"/>
<text text-anchor="middle" x="103" y="-7" font-family="Helvetica,sans-Serif" font-size="10.00">cstddef</text>
</a>
</g>
</g>
<!-- Node5&#45;&gt;Node6 -->
<g id="edge5" class="edge">
<title>Node5&#45;&gt;Node6</title>
<path fill="none" stroke="#63b8ff" d="M103,-60.37C103,-52.5 103,-40.6 103,-30.39"/>
<polygon fill="#63b8ff" stroke="#63b8ff" points="106.5,-30.68 103,-20.68 99.5,-30.68 106.5,-30.68"/>
</g>
<!-- Node8 -->
<g id="node8" class="node">
<title>Node8</title>
<g id="a_node8"><a xlink:title=" ">
<polygon fill="#e0e0e0" stroke="#999999" points="272.5,-85 147.5,-85 147.5,-55 272.5,-55 272.5,-85"/>
<text text-anchor="start" x="155.5" y="-73" font-family="Helvetica,sans-Serif" font-size="10.00">boost/date_time/posix</text>
<text text-anchor="middle" x="210" y="-62" font-family="Helvetica,sans-Serif" font-size="10.00">_time/posix_time.hpp</text>
</a>
</g>
</g>
<!-- Node7&#45;&gt;Node8 -->
<g id="edge7" class="edge">
<title>Node7&#45;&gt;Node8</title>
<path fill="none" stroke="#63b8ff" d="M198.92,-120.87C200.37,-114.33 202.45,-104.99 204.41,-96.15"/>
<polygon fill="#63b8ff" stroke="#63b8ff" points="207.78,-97.11 206.54,-86.59 200.95,-95.59 207.78,-97.11"/>
</g>
</g>
</svg>
