<?xml version="1.0" encoding="UTF-8" standalone="no"?>
<!DOCTYPE svg PUBLIC "-//W3C//DTD SVG 1.1//EN"
 "http://www.w3.org/Graphics/SVG/1.1/DTD/svg11.dtd">
<!-- Generated by graphviz version 9.0.0 (0)
 -->
<!-- Title: /home/ahussein/Documents/archive/opensourcesourcetrail.github.io/.ignore/src/src/lib_utility/utility/TextCodec.cpp Pages: 1 -->
<svg width="223pt" height="181pt"
 viewBox="0.00 0.00 222.50 180.50" xmlns="http://www.w3.org/2000/svg" xmlns:xlink="http://www.w3.org/1999/xlink">

<svg id="main" version="1.1" xmlns="http://www.w3.org/2000/svg" xmlns:xlink="http://www.w3.org/1999/xlink" xml:space="preserve" onload="init(evt)">
<style type="text/css"><![CDATA[
.node, .edge {opacity: 0.7;}
.node.selected, .edge.selected {opacity: 1;}
.edge:hover path { stroke: red; }
.edge:hover polygon { stroke: red; fill: red; }
]]></style>
<script type="application/ecmascript" xlink:href="svg.min.js"/>
<svg id="graph" class="graph">
<g id="graph0" class="graph" transform="scale(1 1) rotate(0) translate(4 176.5)">
<title>/home/ahussein/Documents/archive/opensourcesourcetrail.github.io/.ignore/src/src/lib_utility/utility/TextCodec.cpp</title>
<!-- Node1 -->
<g id="Node000001" class="node">
<title>Node1</title>
<g id="a_Node000001"><a xlink:title=" ">
<polygon fill="#999999" stroke="#666666" points="214.5,-172.5 2.75,-172.5 2.75,-113.5 214.5,-113.5 214.5,-172.5"/>
<text text-anchor="start" x="10.75" y="-159" font-family="Helvetica,sans-Serif" font-size="10.00">/home/ahussein/Documents</text>
<text text-anchor="start" x="10.75" y="-146.25" font-family="Helvetica,sans-Serif" font-size="10.00">/archive/opensourcesourcetrail.github.io</text>
<text text-anchor="start" x="10.75" y="-133.5" font-family="Helvetica,sans-Serif" font-size="10.00">/.ignore/src/src/lib_utility/utility</text>
<text text-anchor="middle" x="108.62" y="-120.75" font-family="Helvetica,sans-Serif" font-size="10.00">/TextCodec.cpp</text>
</a>
</g>
</g>
<!-- Node2 -->
<g id="Node000002" class="node">
<title>Node2</title>
<g id="a_Node000002"><a xlink:href="TextCodec_8h.html" target="_top" xlink:title=" ">
<polygon fill="white" stroke="#666666" points="100.25,-77.5 25,-77.5 25,-56.75 100.25,-56.75 100.25,-77.5"/>
<text text-anchor="middle" x="62.62" y="-64" font-family="Helvetica,sans-Serif" font-size="10.00">TextCodec.h</text>
</a>
</g>
</g>
<!-- Node1&#45;&gt;Node2 -->
<g id="edge1_Node000001_Node000002" class="edge">
<title>Node1&#45;&gt;Node2</title>
<g id="a_edge1_Node000001_Node000002"><a xlink:title=" ">
<path fill="none" stroke="#63b8ff" d="M90.71,-113.23C85.37,-104.65 79.64,-95.45 74.76,-87.61"/>
<polygon fill="#63b8ff" stroke="#63b8ff" points="77.8,-85.88 69.55,-79.24 71.86,-89.58 77.8,-85.88"/>
</a>
</g>
</g>
<!-- Node5 -->
<g id="Node000005" class="node">
<title>Node5</title>
<g id="a_Node000005"><a xlink:title=" ">
<polygon fill="#e0e0e0" stroke="#999999" points="192.5,-77.5 118.75,-77.5 118.75,-56.75 192.5,-56.75 192.5,-77.5"/>
<text text-anchor="middle" x="155.62" y="-64" font-family="Helvetica,sans-Serif" font-size="10.00">QTextCodec</text>
</a>
</g>
</g>
<!-- Node1&#45;&gt;Node5 -->
<g id="edge4_Node000001_Node000005" class="edge">
<title>Node1&#45;&gt;Node5</title>
<g id="a_edge4_Node000001_Node000005"><a xlink:title=" ">
<path fill="none" stroke="#63b8ff" d="M126.93,-113.23C132.39,-104.65 138.24,-95.45 143.23,-87.61"/>
<polygon fill="#63b8ff" stroke="#63b8ff" points="146.14,-89.55 148.56,-79.23 140.24,-85.79 146.14,-89.55"/>
</a>
</g>
</g>
<!-- Node3 -->
<g id="Node000003" class="node">
<title>Node3</title>
<g id="a_Node000003"><a xlink:title=" ">
<polygon fill="#e0e0e0" stroke="#999999" points="57.25,-20.75 0,-20.75 0,0 57.25,0 57.25,-20.75"/>
<text text-anchor="middle" x="28.62" y="-7.25" font-family="Helvetica,sans-Serif" font-size="10.00">memory</text>
</a>
</g>
</g>
<!-- Node2&#45;&gt;Node3 -->
<g id="edge2_Node000002_Node000003" class="edge">
<title>Node2&#45;&gt;Node3</title>
<g id="a_edge2_Node000002_Node000003"><a xlink:title=" ">
<path fill="none" stroke="#63b8ff" d="M56.55,-56.34C52.15,-49.25 46.05,-39.44 40.68,-30.79"/>
<polygon fill="#63b8ff" stroke="#63b8ff" points="43.7,-29.01 35.45,-22.36 37.75,-32.71 43.7,-29.01"/>
</a>
</g>
</g>
<!-- Node4 -->
<g id="Node000004" class="node">
<title>Node4</title>
<g id="a_Node000004"><a xlink:title=" ">
<polygon fill="#e0e0e0" stroke="#999999" points="119.5,-20.75 75.75,-20.75 75.75,0 119.5,0 119.5,-20.75"/>
<text text-anchor="middle" x="97.62" y="-7.25" font-family="Helvetica,sans-Serif" font-size="10.00">string</text>
</a>
</g>
</g>
<!-- Node2&#45;&gt;Node4 -->
<g id="edge3_Node000002_Node000004" class="edge">
<title>Node2&#45;&gt;Node4</title>
<g id="a_edge3_Node000002_Node000004"><a xlink:title=" ">
<path fill="none" stroke="#63b8ff" d="M68.88,-56.34C73.46,-49.17 79.82,-39.23 85.39,-30.51"/>
<polygon fill="#63b8ff" stroke="#63b8ff" points="88.17,-32.66 90.61,-22.35 82.27,-28.89 88.17,-32.66"/>
</a>
</g>
</g>
</g>
</svg>
</svg>

<style type='text/css'>
<![CDATA[
[data-mouse-over-selected='false'] { opacity: 0.7; }
[data-mouse-over-selected='true']  { opacity: 1.0; }
]]>
</style>
<script type="application/ecmascript"><![CDATA[
document.addEventListener('DOMContentLoaded', (event) => {
  highlightEdges();
  highlightAdjacentNodes();
});
]]></script>
</svg>
