<?xml version="1.0" encoding="UTF-8" standalone="no"?>
<!DOCTYPE svg PUBLIC "-//W3C//DTD SVG 1.1//EN"
 "http://www.w3.org/Graphics/SVG/1.1/DTD/svg11.dtd">
<!-- Generated by graphviz version 9.0.0 (0)
 -->
<!-- Title: /home/ahussein/Documents/archive/opensourcesourcetrail.github.io/.ignore/src/src/lib/app/paths/UserPaths.h Pages: 1 -->
<svg width="223pt" height="168pt"
 viewBox="0.00 0.00 222.75 167.75" xmlns="http://www.w3.org/2000/svg" xmlns:xlink="http://www.w3.org/1999/xlink">
<g id="graph0" class="graph" transform="scale(1 1) rotate(0) translate(4 163.75)">
<title>/home/ahussein/Documents/archive/opensourcesourcetrail.github.io/.ignore/src/src/lib/app/paths/UserPaths.h</title>
<!-- Node1 -->
<g id="Node000001" class="node">
<title>Node1</title>
<g id="a_Node000001"><a xlink:title=" ">
<polygon fill="#999999" stroke="#666666" points="214.75,-159.75 0,-159.75 0,-113.5 214.75,-113.5 214.75,-159.75"/>
<text text-anchor="start" x="8" y="-146.25" font-family="Helvetica,sans-Serif" font-size="10.00">/home/ahussein/Documents</text>
<text text-anchor="start" x="8" y="-133.5" font-family="Helvetica,sans-Serif" font-size="10.00">/archive/opensourcesourcetrail.github.io</text>
<text text-anchor="middle" x="107.38" y="-120.75" font-family="Helvetica,sans-Serif" font-size="10.00">/.ignore/src/src/lib/app/paths/UserPaths.h</text>
</a>
</g>
</g>
<!-- Node2 -->
<g id="Node000002" class="node">
<title>Node2</title>
<g id="a_Node000002"><a xlink:href="FilePath_8h.html" target="_top" xlink:title=" ">
<polygon fill="white" stroke="#666666" points="139,-77.5 75.75,-77.5 75.75,-56.75 139,-56.75 139,-77.5"/>
<text text-anchor="middle" x="107.38" y="-64" font-family="Helvetica,sans-Serif" font-size="10.00">FilePath.h</text>
</a>
</g>
</g>
<!-- Node1&#45;&gt;Node2 -->
<g id="edge1_Node000001_Node000002" class="edge">
<title>Node1&#45;&gt;Node2</title>
<g id="a_edge1_Node000001_Node000002"><a xlink:title=" ">
<path fill="none" stroke="#63b8ff" d="M107.38,-113.15C107.38,-105.48 107.38,-96.94 107.38,-89.38"/>
<polygon fill="#63b8ff" stroke="#63b8ff" points="110.88,-89.4 107.38,-79.4 103.88,-89.4 110.88,-89.4"/>
</a>
</g>
</g>
<!-- Node3 -->
<g id="Node000003" class="node">
<title>Node3</title>
<g id="a_Node000003"><a xlink:title=" ">
<polygon fill="#e0e0e0" stroke="#999999" points="67,-20.75 9.75,-20.75 9.75,0 67,0 67,-20.75"/>
<text text-anchor="middle" x="38.38" y="-7.25" font-family="Helvetica,sans-Serif" font-size="10.00">memory</text>
</a>
</g>
</g>
<!-- Node2&#45;&gt;Node3 -->
<g id="edge2_Node000002_Node000003" class="edge">
<title>Node2&#45;&gt;Node3</title>
<g id="a_edge2_Node000002_Node000003"><a xlink:title=" ">
<path fill="none" stroke="#63b8ff" d="M95.04,-56.34C85.13,-48.47 70.99,-37.25 59.31,-27.99"/>
<polygon fill="#63b8ff" stroke="#63b8ff" points="61.8,-25.49 51.79,-22.02 57.45,-30.98 61.8,-25.49"/>
</a>
</g>
</g>
<!-- Node4 -->
<g id="Node000004" class="node">
<title>Node4</title>
<g id="a_Node000004"><a xlink:title=" ">
<polygon fill="#e0e0e0" stroke="#999999" points="129.25,-20.75 85.5,-20.75 85.5,0 129.25,0 129.25,-20.75"/>
<text text-anchor="middle" x="107.38" y="-7.25" font-family="Helvetica,sans-Serif" font-size="10.00">string</text>
</a>
</g>
</g>
<!-- Node2&#45;&gt;Node4 -->
<g id="edge3_Node000002_Node000004" class="edge">
<title>Node2&#45;&gt;Node4</title>
<g id="a_edge3_Node000002_Node000004"><a xlink:title=" ">
<path fill="none" stroke="#63b8ff" d="M107.38,-56.34C107.38,-49.72 107.38,-40.72 107.38,-32.52"/>
<polygon fill="#63b8ff" stroke="#63b8ff" points="110.88,-32.59 107.38,-22.59 103.88,-32.59 110.88,-32.59"/>
</a>
</g>
</g>
<!-- Node5 -->
<g id="Node000005" class="node">
<title>Node5</title>
<g id="a_Node000005"><a xlink:title=" ">
<polygon fill="#e0e0e0" stroke="#999999" points="193.75,-20.75 147,-20.75 147,0 193.75,0 193.75,-20.75"/>
<text text-anchor="middle" x="170.38" y="-7.25" font-family="Helvetica,sans-Serif" font-size="10.00">vector</text>
</a>
</g>
</g>
<!-- Node2&#45;&gt;Node5 -->
<g id="edge4_Node000002_Node000005" class="edge">
<title>Node2&#45;&gt;Node5</title>
<g id="a_edge4_Node000002_Node000005"><a xlink:title=" ">
<path fill="none" stroke="#63b8ff" d="M118.64,-56.34C127.51,-48.63 140.09,-37.7 150.62,-28.54"/>
<polygon fill="#63b8ff" stroke="#63b8ff" points="152.81,-31.27 158.07,-22.07 148.22,-25.99 152.81,-31.27"/>
</a>
</g>
</g>
</g>
</svg>
