<?xml version="1.0" encoding="UTF-8" standalone="no"?>
<!DOCTYPE svg PUBLIC "-//W3C//DTD SVG 1.1//EN"
 "http://www.w3.org/Graphics/SVG/1.1/DTD/svg11.dtd">
<!-- Generated by graphviz version 7.1.0 (0)
 -->
<!-- Title: /home/ahussein/Documents/sourceCode/Sourcetrail/src/src/lib/utility/utility.h Pages: 1 -->
<svg width="761pt" height="159pt"
 viewBox="0.00 0.00 761.00 159.00" xmlns="http://www.w3.org/2000/svg" xmlns:xlink="http://www.w3.org/1999/xlink">
<g id="graph0" class="graph" transform="scale(1 1) rotate(0) translate(4 155)">
<title>/home/ahussein/Documents/sourceCode/Sourcetrail/src/src/lib/utility/utility.h</title>
<!-- Node1 -->
<g id="node1" class="node">
<title>Node1</title>
<g id="a_node1"><a xlink:title=" ">
<polygon fill="#999999" stroke="#666666" points="459,-151 307,-151 307,-110 459,-110 459,-151"/>
<text text-anchor="start" x="315" y="-139" font-family="Helvetica,sans-Serif" font-size="10.00">/home/ahussein/Documents</text>
<text text-anchor="start" x="315" y="-128" font-family="Helvetica,sans-Serif" font-size="10.00">/sourceCode/Sourcetrail</text>
<text text-anchor="middle" x="383" y="-117" font-family="Helvetica,sans-Serif" font-size="10.00">/src/src/lib/utility/utility.h</text>
</a>
</g>
</g>
<!-- Node2 -->
<g id="node2" class="node">
<title>Node2</title>
<g id="a_node2"><a xlink:title=" ">
<polygon fill="#e0e0e0" stroke="#999999" points="64,-19 0,-19 0,0 64,0 64,-19"/>
<text text-anchor="middle" x="32" y="-7" font-family="Helvetica,sans-Serif" font-size="10.00">algorithm</text>
</a>
</g>
</g>
<!-- Node1&#45;&gt;Node2 -->
<g id="edge1" class="edge">
<title>Node1&#45;&gt;Node2</title>
<path fill="none" stroke="#63b8ff" d="M306.63,-123.86C250.1,-117.38 172.41,-103.53 110,-74 85.95,-62.62 62.89,-42.29 48.17,-27.7"/>
<polygon fill="#63b8ff" stroke="#63b8ff" points="50.7,-25.27 41.2,-20.57 45.69,-30.16 50.7,-25.27"/>
</g>
<!-- Node3 -->
<g id="node3" class="node">
<title>Node3</title>
<g id="a_node3"><a xlink:title=" ">
<polygon fill="#e0e0e0" stroke="#999999" points="409.5,-74 356.5,-74 356.5,-55 409.5,-55 409.5,-74"/>
<text text-anchor="middle" x="383" y="-62" font-family="Helvetica,sans-Serif" font-size="10.00">cstdarg</text>
</a>
</g>
</g>
<!-- Node1&#45;&gt;Node3 -->
<g id="edge2" class="edge">
<title>Node1&#45;&gt;Node3</title>
<path fill="none" stroke="#63b8ff" d="M383,-109.6C383,-101.98 383,-93.3 383,-85.66"/>
<polygon fill="#63b8ff" stroke="#63b8ff" points="386.5,-85.68 383,-75.68 379.5,-85.68 386.5,-85.68"/>
</g>
<!-- Node4 -->
<g id="node4" class="node">
<title>Node4</title>
<g id="a_node4"><a xlink:title=" ">
<polygon fill="#e0e0e0" stroke="#999999" points="129.5,-19 82.5,-19 82.5,0 129.5,0 129.5,-19"/>
<text text-anchor="middle" x="106" y="-7" font-family="Helvetica,sans-Serif" font-size="10.00">deque</text>
</a>
</g>
</g>
<!-- Node1&#45;&gt;Node4 -->
<g id="edge3" class="edge">
<title>Node1&#45;&gt;Node4</title>
<path fill="none" stroke="#63b8ff" d="M306.71,-121.69C240.45,-113.41 151.12,-98.14 125,-74 113.09,-63 108.54,-44.88 106.85,-30.8"/>
<polygon fill="#63b8ff" stroke="#63b8ff" points="110.34,-30.55 106.09,-20.84 103.36,-31.08 110.34,-30.55"/>
</g>
<!-- Node5 -->
<g id="node5" class="node">
<title>Node5</title>
<g id="a_node5"><a xlink:title=" ">
<polygon fill="#e0e0e0" stroke="#999999" points="492.5,-74 427.5,-74 427.5,-55 492.5,-55 492.5,-74"/>
<text text-anchor="middle" x="460" y="-62" font-family="Helvetica,sans-Serif" font-size="10.00">functional</text>
</a>
</g>
</g>
<!-- Node1&#45;&gt;Node5 -->
<g id="edge4" class="edge">
<title>Node1&#45;&gt;Node5</title>
<path fill="none" stroke="#63b8ff" d="M406.94,-109.6C417.89,-100.5 430.69,-89.86 440.97,-81.32"/>
<polygon fill="#63b8ff" stroke="#63b8ff" points="442.96,-84.21 448.41,-75.13 438.49,-78.83 442.96,-84.21"/>
</g>
<!-- Node6 -->
<g id="node6" class="node">
<title>Node6</title>
<g id="a_node6"><a xlink:title=" ">
<polygon fill="#e0e0e0" stroke="#999999" points="543,-74 511,-74 511,-55 543,-55 543,-74"/>
<text text-anchor="middle" x="527" y="-62" font-family="Helvetica,sans-Serif" font-size="10.00">list</text>
</a>
</g>
</g>
<!-- Node1&#45;&gt;Node6 -->
<g id="edge5" class="edge">
<title>Node1&#45;&gt;Node6</title>
<path fill="none" stroke="#63b8ff" d="M427.77,-109.6C451.6,-99.01 480.09,-86.35 500.41,-77.32"/>
<polygon fill="#63b8ff" stroke="#63b8ff" points="501.69,-80.58 509.4,-73.32 498.84,-74.18 501.69,-80.58"/>
</g>
<!-- Node7 -->
<g id="node7" class="node">
<title>Node7</title>
<g id="a_node7"><a xlink:title=" ">
<polygon fill="#e0e0e0" stroke="#999999" points="599,-74 561,-74 561,-55 599,-55 599,-74"/>
<text text-anchor="middle" x="580" y="-62" font-family="Helvetica,sans-Serif" font-size="10.00">map</text>
</a>
</g>
</g>
<!-- Node1&#45;&gt;Node7 -->
<g id="edge6" class="edge">
<title>Node1&#45;&gt;Node7</title>
<path fill="none" stroke="#63b8ff" d="M444.52,-109.51C479.65,-98.1 522.11,-84.31 550.02,-75.24"/>
<polygon fill="#63b8ff" stroke="#63b8ff" points="550.81,-78.66 559.24,-72.25 548.64,-72.01 550.81,-78.66"/>
</g>
<!-- Node8 -->
<g id="node8" class="node">
<title>Node8</title>
<g id="a_node8"><a xlink:title=" ">
<polygon fill="#e0e0e0" stroke="#999999" points="649,-74 617,-74 617,-55 649,-55 649,-74"/>
<text text-anchor="middle" x="633" y="-62" font-family="Helvetica,sans-Serif" font-size="10.00">set</text>
</a>
</g>
</g>
<!-- Node1&#45;&gt;Node8 -->
<g id="edge7" class="edge">
<title>Node1&#45;&gt;Node8</title>
<path fill="none" stroke="#63b8ff" d="M459.46,-112.36C500.47,-102.77 552.04,-90.06 605.87,-74.44"/>
<polygon fill="#63b8ff" stroke="#63b8ff" points="606.59,-77.88 615.21,-71.71 604.62,-71.16 606.59,-77.88"/>
</g>
<!-- Node9 -->
<g id="node9" class="node">
<title>Node9</title>
<g id="a_node9"><a xlink:title=" ">
<polygon fill="#e0e0e0" stroke="#999999" points="753,-74 667,-74 667,-55 753,-55 753,-74"/>
<text text-anchor="middle" x="710" y="-62" font-family="Helvetica,sans-Serif" font-size="10.00">unordered_set</text>
</a>
</g>
</g>
<!-- Node1&#45;&gt;Node9 -->
<g id="edge8" class="edge">
<title>Node1&#45;&gt;Node9</title>
<path fill="none" stroke="#63b8ff" d="M459.25,-114.58C519.51,-102.78 602.13,-86.61 655.78,-76.11"/>
<polygon fill="#63b8ff" stroke="#63b8ff" points="656.15,-79.61 665.29,-74.25 654.8,-72.74 656.15,-79.61"/>
</g>
<!-- Node10 -->
<g id="node10" class="node">
<title>Node10</title>
<g id="a_node10"><a xlink:title=" ">
<polygon fill="#e0e0e0" stroke="#999999" points="407.5,-19 360.5,-19 360.5,0 407.5,0 407.5,-19"/>
<text text-anchor="middle" x="384" y="-7" font-family="Helvetica,sans-Serif" font-size="10.00">vector</text>
</a>
</g>
</g>
<!-- Node1&#45;&gt;Node10 -->
<g id="edge9" class="edge">
<title>Node1&#45;&gt;Node10</title>
<path fill="none" stroke="#63b8ff" d="M364.33,-109.72C352.74,-94.96 341.23,-74.13 348,-55 351.67,-44.63 358.9,-34.91 365.92,-27.21"/>
<polygon fill="#63b8ff" stroke="#63b8ff" points="368.24,-29.84 372.78,-20.27 363.26,-24.92 368.24,-29.84"/>
</g>
<!-- Node11 -->
<g id="node11" class="node">
<title>Node11</title>
<g id="a_node11"><a xlink:href="FilePath_8h.html" target="_top" xlink:title=" ">
<polygon fill="white" stroke="#666666" points="300,-74 236,-74 236,-55 300,-55 300,-74"/>
<text text-anchor="middle" x="268" y="-62" font-family="Helvetica,sans-Serif" font-size="10.00">FilePath.h</text>
</a>
</g>
</g>
<!-- Node1&#45;&gt;Node11 -->
<g id="edge10" class="edge">
<title>Node1&#45;&gt;Node11</title>
<path fill="none" stroke="#63b8ff" d="M347.24,-109.6C329.83,-99.91 309.29,-88.48 293.49,-79.68"/>
<polygon fill="#63b8ff" stroke="#63b8ff" points="295.63,-76.87 285.19,-75.07 292.23,-82.99 295.63,-76.87"/>
</g>
<!-- Node14 -->
<g id="node14" class="node">
<title>Node14</title>
<g id="a_node14"><a xlink:href="utilityString_8h.html" target="_top" xlink:title=" ">
<polygon fill="white" stroke="#666666" points="217.5,-74 134.5,-74 134.5,-55 217.5,-55 217.5,-74"/>
<text text-anchor="middle" x="176" y="-62" font-family="Helvetica,sans-Serif" font-size="10.00">utilityString.h</text>
</a>
</g>
</g>
<!-- Node1&#45;&gt;Node14 -->
<g id="edge14" class="edge">
<title>Node1&#45;&gt;Node14</title>
<path fill="none" stroke="#63b8ff" d="M318.36,-109.51C284.84,-99.15 244.97,-86.83 215.97,-77.86"/>
<polygon fill="#63b8ff" stroke="#63b8ff" points="217.06,-74.53 206.47,-74.92 214.99,-81.22 217.06,-74.53"/>
</g>
<!-- Node11&#45;&gt;Node10 -->
<g id="edge13" class="edge">
<title>Node11&#45;&gt;Node10</title>
<path fill="none" stroke="#63b8ff" d="M287.68,-54.51C305.95,-46.16 333.41,-33.61 354.35,-24.05"/>
<polygon fill="#63b8ff" stroke="#63b8ff" points="355.6,-27.33 363.24,-19.99 352.69,-20.96 355.6,-27.33"/>
</g>
<!-- Node12 -->
<g id="node12" class="node">
<title>Node12</title>
<g id="a_node12"><a xlink:title=" ">
<polygon fill="#e0e0e0" stroke="#999999" points="342,-19 284,-19 284,0 342,0 342,-19"/>
<text text-anchor="middle" x="313" y="-7" font-family="Helvetica,sans-Serif" font-size="10.00">memory</text>
</a>
</g>
</g>
<!-- Node11&#45;&gt;Node12 -->
<g id="edge11" class="edge">
<title>Node11&#45;&gt;Node12</title>
<path fill="none" stroke="#63b8ff" d="M275.43,-54.75C281.58,-47.5 290.51,-36.98 298.13,-28.02"/>
<polygon fill="#63b8ff" stroke="#63b8ff" points="300.62,-30.48 304.43,-20.6 295.29,-25.95 300.62,-30.48"/>
</g>
<!-- Node13 -->
<g id="node13" class="node">
<title>Node13</title>
<g id="a_node13"><a xlink:title=" ">
<polygon fill="#e0e0e0" stroke="#999999" points="266,-19 222,-19 222,0 266,0 266,-19"/>
<text text-anchor="middle" x="244" y="-7" font-family="Helvetica,sans-Serif" font-size="10.00">string</text>
</a>
</g>
</g>
<!-- Node11&#45;&gt;Node13 -->
<g id="edge12" class="edge">
<title>Node11&#45;&gt;Node13</title>
<path fill="none" stroke="#63b8ff" d="M264.04,-54.75C260.96,-47.96 256.59,-38.3 252.71,-29.73"/>
<polygon fill="#63b8ff" stroke="#63b8ff" points="255.99,-28.49 248.67,-20.82 249.61,-31.37 255.99,-28.49"/>
</g>
<!-- Node14&#45;&gt;Node2 -->
<g id="edge15" class="edge">
<title>Node14&#45;&gt;Node2</title>
<path fill="none" stroke="#63b8ff" d="M151.57,-54.51C128.26,-45.93 92.91,-32.92 66.69,-23.27"/>
<polygon fill="#63b8ff" stroke="#63b8ff" points="68.08,-20.05 57.49,-19.88 65.66,-26.62 68.08,-20.05"/>
</g>
<!-- Node14&#45;&gt;Node4 -->
<g id="edge16" class="edge">
<title>Node14&#45;&gt;Node4</title>
<path fill="none" stroke="#63b8ff" d="M164.13,-54.51C153.91,-46.77 138.93,-35.43 126.74,-26.2"/>
<polygon fill="#63b8ff" stroke="#63b8ff" points="128.99,-23.52 118.91,-20.27 124.77,-29.1 128.99,-23.52"/>
</g>
<!-- Node14&#45;&gt;Node10 -->
<g id="edge19" class="edge">
<title>Node14&#45;&gt;Node10</title>
<path fill="none" stroke="#63b8ff" d="M211.2,-54.58C244.27,-46.2 295.43,-33.21 349.09,-19.48"/>
<polygon fill="#63b8ff" stroke="#63b8ff" points="349.92,-22.88 358.74,-17.01 348.19,-16.1 349.92,-22.88"/>
</g>
<!-- Node14&#45;&gt;Node13 -->
<g id="edge18" class="edge">
<title>Node14&#45;&gt;Node13</title>
<path fill="none" stroke="#63b8ff" d="M187.54,-54.51C197.46,-46.77 212.01,-35.43 223.86,-26.2"/>
<polygon fill="#63b8ff" stroke="#63b8ff" points="225.71,-29.2 231.44,-20.29 221.4,-23.68 225.71,-29.2"/>
</g>
<!-- Node15 -->
<g id="node15" class="node">
<title>Node15</title>
<g id="a_node15"><a xlink:title=" ">
<polygon fill="#e0e0e0" stroke="#999999" points="204,-19 148,-19 148,0 204,0 204,-19"/>
<text text-anchor="middle" x="176" y="-7" font-family="Helvetica,sans-Serif" font-size="10.00">sstream</text>
</a>
</g>
</g>
<!-- Node14&#45;&gt;Node15 -->
<g id="edge17" class="edge">
<title>Node14&#45;&gt;Node15</title>
<path fill="none" stroke="#63b8ff" d="M176,-54.75C176,-48.27 176,-39.16 176,-30.9"/>
<polygon fill="#63b8ff" stroke="#63b8ff" points="179.5,-30.96 176,-20.96 172.5,-30.96 179.5,-30.96"/>
</g>
</g>
</svg>
