<?xml version="1.0" encoding="UTF-8" standalone="no"?>
<!DOCTYPE svg PUBLIC "-//W3C//DTD SVG 1.1//EN"
 "http://www.w3.org/Graphics/SVG/1.1/DTD/svg11.dtd">
<!-- Generated by graphviz version 9.0.0 (0)
 -->
<!-- Title: /home/ahussein/Documents/archive/opensourcesourcetrail.github.io/.ignore/src/src/lib/utility/math/Vector2.h Pages: 1 -->
<svg width="579pt" height="338pt"
 viewBox="0.00 0.00 579.12 338.00" xmlns="http://www.w3.org/2000/svg" xmlns:xlink="http://www.w3.org/1999/xlink">
<g id="graph0" class="graph" transform="scale(1 1) rotate(0) translate(4 334)">
<title>/home/ahussein/Documents/archive/opensourcesourcetrail.github.io/.ignore/src/src/lib/utility/math/Vector2.h</title>
<!-- Node1 -->
<g id="Node000001" class="node">
<title>Node1</title>
<g id="a_Node000001"><a xlink:title=" ">
<polygon fill="#999999" stroke="#666666" points="246.25,-330 34.5,-330 34.5,-283.75 246.25,-283.75 246.25,-330"/>
<text text-anchor="start" x="42.5" y="-316.5" font-family="Helvetica,sans-Serif" font-size="10.00">/home/ahussein/Documents</text>
<text text-anchor="start" x="42.5" y="-303.75" font-family="Helvetica,sans-Serif" font-size="10.00">/archive/opensourcesourcetrail.github.io</text>
<text text-anchor="middle" x="140.38" y="-291" font-family="Helvetica,sans-Serif" font-size="10.00">/.ignore/src/src/lib/utility/math/Vector2.h</text>
</a>
</g>
</g>
<!-- Node2 -->
<g id="Node000002" class="node">
<title>Node2</title>
<g id="a_Node000002"><a xlink:href="Property_8h.html" target="_top" xlink:title=" ">
<polygon fill="white" stroke="#666666" points="81.75,-247.75 17,-247.75 17,-227 81.75,-227 81.75,-247.75"/>
<text text-anchor="middle" x="49.38" y="-234.25" font-family="Helvetica,sans-Serif" font-size="10.00">Property.h</text>
</a>
</g>
</g>
<!-- Node1&#45;&gt;Node2 -->
<g id="edge1_Node000001_Node000002" class="edge">
<title>Node1&#45;&gt;Node2</title>
<g id="a_edge1_Node000001_Node000002"><a xlink:title=" ">
<path fill="none" stroke="#63b8ff" d="M110.07,-283.4C97.47,-274.05 83.11,-263.4 71.52,-254.8"/>
<polygon fill="#63b8ff" stroke="#63b8ff" points="73.87,-252.19 63.76,-249.04 69.7,-257.81 73.87,-252.19"/>
</a>
</g>
</g>
<!-- Node3 -->
<g id="Node000003" class="node">
<title>Node3</title>
<g id="a_Node000003"><a xlink:href="VectorBase_8h.html" target="_top" xlink:title=" ">
<polygon fill="white" stroke="#666666" points="180.62,-247.75 100.12,-247.75 100.12,-227 180.62,-227 180.62,-247.75"/>
<text text-anchor="middle" x="140.38" y="-234.25" font-family="Helvetica,sans-Serif" font-size="10.00">VectorBase.h</text>
</a>
</g>
</g>
<!-- Node1&#45;&gt;Node3 -->
<g id="edge2_Node000001_Node000003" class="edge">
<title>Node1&#45;&gt;Node3</title>
<g id="a_edge2_Node000001_Node000003"><a xlink:title=" ">
<path fill="none" stroke="#63b8ff" d="M140.38,-283.4C140.38,-275.73 140.38,-267.19 140.38,-259.63"/>
<polygon fill="#63b8ff" stroke="#63b8ff" points="143.88,-259.65 140.38,-249.65 136.88,-259.65 143.88,-259.65"/>
</a>
</g>
</g>
<!-- Node8 -->
<g id="Node000008" class="node">
<title>Node8</title>
<g id="a_Node000008"><a xlink:href="logging_8h.html" target="_top" xlink:title=" ">
<polygon fill="white" stroke="#666666" points="259.88,-247.75 198.88,-247.75 198.88,-227 259.88,-227 259.88,-247.75"/>
<text text-anchor="middle" x="229.38" y="-234.25" font-family="Helvetica,sans-Serif" font-size="10.00">logging.h</text>
</a>
</g>
</g>
<!-- Node1&#45;&gt;Node8 -->
<g id="edge7_Node000001_Node000008" class="edge">
<title>Node1&#45;&gt;Node8</title>
<g id="a_edge7_Node000001_Node000008"><a xlink:title=" ">
<path fill="none" stroke="#63b8ff" d="M170.01,-283.4C182.21,-274.14 196.1,-263.61 207.37,-255.06"/>
<polygon fill="#63b8ff" stroke="#63b8ff" points="209.44,-257.89 215.29,-249.06 205.21,-252.31 209.44,-257.89"/>
</a>
</g>
</g>
<!-- Node4 -->
<g id="Node000004" class="node">
<title>Node4</title>
<g id="a_Node000004"><a xlink:title=" ">
<polygon fill="#e0e0e0" stroke="#999999" points="46.75,-191 0,-191 0,-170.25 46.75,-170.25 46.75,-191"/>
<text text-anchor="middle" x="23.38" y="-177.5" font-family="Helvetica,sans-Serif" font-size="10.00">cmath</text>
</a>
</g>
</g>
<!-- Node3&#45;&gt;Node4 -->
<g id="edge3_Node000003_Node000004" class="edge">
<title>Node3&#45;&gt;Node4</title>
<g id="a_edge3_Node000003_Node000004"><a xlink:title=" ">
<path fill="none" stroke="#63b8ff" d="M119.46,-226.59C101.41,-218.14 75.07,-205.82 54.54,-196.21"/>
<polygon fill="#63b8ff" stroke="#63b8ff" points="56.02,-193.04 45.48,-191.97 53.06,-199.38 56.02,-193.04"/>
</a>
</g>
</g>
<!-- Node5 -->
<g id="Node000005" class="node">
<title>Node5</title>
<g id="a_Node000005"><a xlink:title=" ">
<polygon fill="#e0e0e0" stroke="#999999" points="242.25,-191 186.5,-191 186.5,-170.25 242.25,-170.25 242.25,-191"/>
<text text-anchor="middle" x="214.38" y="-177.5" font-family="Helvetica,sans-Serif" font-size="10.00">sstream</text>
</a>
</g>
</g>
<!-- Node3&#45;&gt;Node5 -->
<g id="edge4_Node000003_Node000005" class="edge">
<title>Node3&#45;&gt;Node5</title>
<g id="a_edge4_Node000003_Node000005"><a xlink:title=" ">
<path fill="none" stroke="#63b8ff" d="M153.6,-226.59C164.34,-218.65 179.7,-207.28 192.29,-197.96"/>
<polygon fill="#63b8ff" stroke="#63b8ff" points="194.09,-200.99 200.04,-192.23 189.92,-195.36 194.09,-200.99"/>
</a>
</g>
</g>
<!-- Node6 -->
<g id="Node000006" class="node">
<title>Node6</title>
<g id="a_Node000006"><a xlink:title=" ">
<polygon fill="#e0e0e0" stroke="#999999" points="128.38,-191 64.38,-191 64.38,-170.25 128.38,-170.25 128.38,-191"/>
<text text-anchor="middle" x="96.38" y="-177.5" font-family="Helvetica,sans-Serif" font-size="10.00">stdexcept</text>
</a>
</g>
</g>
<!-- Node3&#45;&gt;Node6 -->
<g id="edge5_Node000003_Node000006" class="edge">
<title>Node3&#45;&gt;Node6</title>
<g id="a_edge5_Node000003_Node000006"><a xlink:title=" ">
<path fill="none" stroke="#63b8ff" d="M132.51,-226.59C126.63,-219.27 118.41,-209.04 111.3,-200.19"/>
<polygon fill="#63b8ff" stroke="#63b8ff" points="114.11,-198.11 105.12,-192.51 108.66,-202.5 114.11,-198.11"/>
</a>
</g>
</g>
<!-- Node7 -->
<g id="Node000007" class="node">
<title>Node7</title>
<g id="a_Node000007"><a xlink:title=" ">
<polygon fill="#e0e0e0" stroke="#999999" points="436.25,-20.75 392.5,-20.75 392.5,0 436.25,0 436.25,-20.75"/>
<text text-anchor="middle" x="414.38" y="-7.25" font-family="Helvetica,sans-Serif" font-size="10.00">string</text>
</a>
</g>
</g>
<!-- Node3&#45;&gt;Node7 -->
<g id="edge6_Node000003_Node000007" class="edge">
<title>Node3&#45;&gt;Node7</title>
<g id="a_edge6_Node000003_Node000007"><a xlink:title=" ">
<path fill="none" stroke="#63b8ff" d="M139.56,-226.87C137.56,-196.96 135.76,-103.95 185.38,-56.75 213.06,-30.41 324.23,-18.25 380.86,-13.68"/>
<polygon fill="#63b8ff" stroke="#63b8ff" points="380.85,-17.19 390.56,-12.93 380.32,-10.21 380.85,-17.19"/>
</a>
</g>
</g>
<!-- Node8&#45;&gt;Node5 -->
<g id="edge8_Node000008_Node000005" class="edge">
<title>Node8&#45;&gt;Node5</title>
<g id="a_edge8_Node000008_Node000005"><a xlink:title=" ">
<path fill="none" stroke="#63b8ff" d="M226.69,-226.59C224.84,-219.81 222.3,-210.55 220.01,-202.19"/>
<polygon fill="#63b8ff" stroke="#63b8ff" points="223.45,-201.51 217.43,-192.79 216.7,-203.36 223.45,-201.51"/>
</a>
</g>
</g>
<!-- Node9 -->
<g id="Node000009" class="node">
<title>Node9</title>
<g id="a_Node000009"><a xlink:href="LogManager_8h.html" target="_top" xlink:title=" ">
<polygon fill="white" stroke="#666666" points="345.88,-191 260.88,-191 260.88,-170.25 345.88,-170.25 345.88,-191"/>
<text text-anchor="middle" x="303.38" y="-177.5" font-family="Helvetica,sans-Serif" font-size="10.00">LogManager.h</text>
</a>
</g>
</g>
<!-- Node8&#45;&gt;Node9 -->
<g id="edge9_Node000008_Node000009" class="edge">
<title>Node8&#45;&gt;Node9</title>
<g id="a_edge9_Node000008_Node000009"><a xlink:title=" ">
<path fill="none" stroke="#63b8ff" d="M242.6,-226.59C253.34,-218.65 268.7,-207.28 281.29,-197.96"/>
<polygon fill="#63b8ff" stroke="#63b8ff" points="283.09,-200.99 289.04,-192.23 278.92,-195.36 283.09,-200.99"/>
</a>
</g>
</g>
<!-- Node10 -->
<g id="Node000010" class="node">
<title>Node10</title>
<g id="a_Node000010"><a xlink:title=" ">
<polygon fill="#e0e0e0" stroke="#999999" points="252,-77.5 194.75,-77.5 194.75,-56.75 252,-56.75 252,-77.5"/>
<text text-anchor="middle" x="223.38" y="-64" font-family="Helvetica,sans-Serif" font-size="10.00">memory</text>
</a>
</g>
</g>
<!-- Node9&#45;&gt;Node10 -->
<g id="edge10_Node000009_Node000010" class="edge">
<title>Node9&#45;&gt;Node10</title>
<g id="a_edge10_Node000009_Node000010"><a xlink:title=" ">
<path fill="none" stroke="#63b8ff" d="M263.02,-169.78C244.51,-163.03 224.29,-151.98 213.38,-134.25 204.91,-120.5 208.59,-102.18 213.72,-88.31"/>
<polygon fill="#63b8ff" stroke="#63b8ff" points="216.86,-89.87 217.55,-79.29 210.42,-87.13 216.86,-89.87"/>
</a>
</g>
</g>
<!-- Node11 -->
<g id="Node000011" class="node">
<title>Node11</title>
<g id="a_Node000011"><a xlink:href="LogManagerImplementation_8h.html" target="_top" xlink:title=" ">
<polygon fill="white" stroke="#666666" points="385.88,-134.25 222.88,-134.25 222.88,-113.5 385.88,-113.5 385.88,-134.25"/>
<text text-anchor="middle" x="304.38" y="-120.75" font-family="Helvetica,sans-Serif" font-size="10.00">LogManagerImplementation.h</text>
</a>
</g>
</g>
<!-- Node9&#45;&gt;Node11 -->
<g id="edge11_Node000009_Node000011" class="edge">
<title>Node9&#45;&gt;Node11</title>
<g id="a_edge11_Node000009_Node000011"><a xlink:title=" ">
<path fill="none" stroke="#63b8ff" d="M303.55,-169.84C303.67,-163.22 303.84,-154.22 303.99,-146.02"/>
<polygon fill="#63b8ff" stroke="#63b8ff" points="307.49,-146.15 304.17,-136.09 300.49,-146.03 307.49,-146.15"/>
</a>
</g>
</g>
<!-- Node14 -->
<g id="Node000014" class="node">
<title>Node14</title>
<g id="a_Node000014"><a xlink:href="Logger_8h.html" target="_top" xlink:title=" ">
<polygon fill="white" stroke="#666666" points="462.38,-134.25 404.38,-134.25 404.38,-113.5 462.38,-113.5 462.38,-134.25"/>
<text text-anchor="middle" x="433.38" y="-120.75" font-family="Helvetica,sans-Serif" font-size="10.00">Logger.h</text>
</a>
</g>
</g>
<!-- Node9&#45;&gt;Node14 -->
<g id="edge15_Node000009_Node000014" class="edge">
<title>Node9&#45;&gt;Node14</title>
<g id="a_edge15_Node000009_Node000014"><a xlink:title=" ">
<path fill="none" stroke="#63b8ff" d="M326.62,-169.84C347.04,-161.23 377.01,-148.61 400,-138.93"/>
<polygon fill="#63b8ff" stroke="#63b8ff" points="401.08,-142.27 408.94,-135.17 398.37,-135.82 401.08,-142.27"/>
</a>
</g>
</g>
<!-- Node11&#45;&gt;Node10 -->
<g id="edge12_Node000011_Node000010" class="edge">
<title>Node11&#45;&gt;Node10</title>
<g id="a_edge12_Node000011_Node000010"><a xlink:title=" ">
<path fill="none" stroke="#63b8ff" d="M289.89,-113.09C278.03,-105.07 261,-93.56 247.14,-84.19"/>
<polygon fill="#63b8ff" stroke="#63b8ff" points="249.23,-81.38 238.98,-78.68 245.31,-87.18 249.23,-81.38"/>
</a>
</g>
</g>
<!-- Node12 -->
<g id="Node000012" class="node">
<title>Node12</title>
<g id="a_Node000012"><a xlink:title=" ">
<polygon fill="#e0e0e0" stroke="#999999" points="322.12,-77.5 274.62,-77.5 274.62,-56.75 322.12,-56.75 322.12,-77.5"/>
<text text-anchor="middle" x="298.38" y="-64" font-family="Helvetica,sans-Serif" font-size="10.00">mutex</text>
</a>
</g>
</g>
<!-- Node11&#45;&gt;Node12 -->
<g id="edge13_Node000011_Node000012" class="edge">
<title>Node11&#45;&gt;Node12</title>
<g id="a_edge13_Node000011_Node000012"><a xlink:title=" ">
<path fill="none" stroke="#63b8ff" d="M303.3,-113.09C302.58,-106.47 301.59,-97.47 300.69,-89.27"/>
<polygon fill="#63b8ff" stroke="#63b8ff" points="304.17,-88.89 299.6,-79.33 297.21,-89.65 304.17,-88.89"/>
</a>
</g>
</g>
<!-- Node13 -->
<g id="Node000013" class="node">
<title>Node13</title>
<g id="a_Node000013"><a xlink:title=" ">
<polygon fill="#e0e0e0" stroke="#999999" points="386.75,-77.5 340,-77.5 340,-56.75 386.75,-56.75 386.75,-77.5"/>
<text text-anchor="middle" x="363.38" y="-64" font-family="Helvetica,sans-Serif" font-size="10.00">vector</text>
</a>
</g>
</g>
<!-- Node11&#45;&gt;Node13 -->
<g id="edge14_Node000011_Node000013" class="edge">
<title>Node11&#45;&gt;Node13</title>
<g id="a_edge14_Node000011_Node000013"><a xlink:title=" ">
<path fill="none" stroke="#63b8ff" d="M314.92,-113.09C323.15,-105.46 334.77,-94.67 344.58,-85.57"/>
<polygon fill="#63b8ff" stroke="#63b8ff" points="346.86,-88.23 351.81,-78.86 342.1,-83.09 346.86,-88.23"/>
</a>
</g>
</g>
<!-- Node14&#45;&gt;Node7 -->
<g id="edge17_Node000014_Node000007" class="edge">
<title>Node14&#45;&gt;Node7</title>
<g id="a_edge17_Node000014_Node000007"><a xlink:title=" ">
<path fill="none" stroke="#63b8ff" d="M431.76,-113.37C428.71,-95.52 422.08,-56.61 417.95,-32.34"/>
<polygon fill="#63b8ff" stroke="#63b8ff" points="421.43,-31.94 416.3,-22.67 414.53,-33.11 421.43,-31.94"/>
</a>
</g>
</g>
<!-- Node14&#45;&gt;Node13 -->
<g id="edge16_Node000014_Node000013" class="edge">
<title>Node14&#45;&gt;Node13</title>
<g id="a_edge16_Node000014_Node000013"><a xlink:title=" ">
<path fill="none" stroke="#63b8ff" d="M420.86,-113.09C410.81,-105.22 396.46,-94 384.62,-84.74"/>
<polygon fill="#63b8ff" stroke="#63b8ff" points="387.01,-82.16 376.97,-78.76 382.69,-87.68 387.01,-82.16"/>
</a>
</g>
</g>
<!-- Node15 -->
<g id="Node000015" class="node">
<title>Node15</title>
<g id="a_Node000015"><a xlink:href="LogMessage_8h.html" target="_top" xlink:title=" ">
<polygon fill="white" stroke="#666666" points="528.25,-77.5 442.5,-77.5 442.5,-56.75 528.25,-56.75 528.25,-77.5"/>
<text text-anchor="middle" x="485.38" y="-64" font-family="Helvetica,sans-Serif" font-size="10.00">LogMessage.h</text>
</a>
</g>
</g>
<!-- Node14&#45;&gt;Node15 -->
<g id="edge18_Node000014_Node000015" class="edge">
<title>Node14&#45;&gt;Node15</title>
<g id="a_edge18_Node000014_Node000015"><a xlink:title=" ">
<path fill="none" stroke="#63b8ff" d="M442.67,-113.09C449.77,-105.61 459.75,-95.11 468.28,-86.13"/>
<polygon fill="#63b8ff" stroke="#63b8ff" points="470.77,-88.59 475.12,-78.93 465.69,-83.77 470.77,-88.59"/>
</a>
</g>
</g>
<!-- Node15&#45;&gt;Node7 -->
<g id="edge20_Node000015_Node000007" class="edge">
<title>Node15&#45;&gt;Node7</title>
<g id="a_edge20_Node000015_Node000007"><a xlink:title=" ">
<path fill="none" stroke="#63b8ff" d="M472.68,-56.34C462.48,-48.47 447.93,-37.25 435.92,-27.99"/>
<polygon fill="#63b8ff" stroke="#63b8ff" points="438.21,-25.34 428.16,-22 433.94,-30.88 438.21,-25.34"/>
</a>
</g>
</g>
<!-- Node16 -->
<g id="Node000016" class="node">
<title>Node16</title>
<g id="a_Node000016"><a xlink:title=" ">
<polygon fill="#e0e0e0" stroke="#999999" points="505.88,-20.75 456.88,-20.75 456.88,0 505.88,0 505.88,-20.75"/>
<text text-anchor="middle" x="481.38" y="-7.25" font-family="Helvetica,sans-Serif" font-size="10.00">chrono</text>
</a>
</g>
</g>
<!-- Node15&#45;&gt;Node16 -->
<g id="edge19_Node000015_Node000016" class="edge">
<title>Node15&#45;&gt;Node16</title>
<g id="a_edge19_Node000015_Node000016"><a xlink:title=" ">
<path fill="none" stroke="#63b8ff" d="M484.66,-56.34C484.18,-49.72 483.52,-40.72 482.92,-32.52"/>
<polygon fill="#63b8ff" stroke="#63b8ff" points="486.41,-32.31 482.19,-22.59 479.43,-32.82 486.41,-32.31"/>
</a>
</g>
</g>
<!-- Node17 -->
<g id="Node000017" class="node">
<title>Node17</title>
<g id="a_Node000017"><a xlink:title=" ">
<polygon fill="#e0e0e0" stroke="#999999" points="571.12,-20.75 523.62,-20.75 523.62,0 571.12,0 571.12,-20.75"/>
<text text-anchor="middle" x="547.38" y="-7.25" font-family="Helvetica,sans-Serif" font-size="10.00">thread</text>
</a>
</g>
</g>
<!-- Node15&#45;&gt;Node17 -->
<g id="edge21_Node000015_Node000017" class="edge">
<title>Node15&#45;&gt;Node17</title>
<g id="a_edge21_Node000015_Node000017"><a xlink:title=" ">
<path fill="none" stroke="#63b8ff" d="M496.46,-56.34C505.19,-48.63 517.57,-37.7 527.94,-28.54"/>
<polygon fill="#63b8ff" stroke="#63b8ff" points="530.07,-31.32 535.25,-22.08 525.44,-26.08 530.07,-31.32"/>
</a>
</g>
</g>
</g>
</svg>
