<?xml version="1.0" encoding="UTF-8" standalone="no"?>
<!DOCTYPE svg PUBLIC "-//W3C//DTD SVG 1.1//EN"
 "http://www.w3.org/Graphics/SVG/1.1/DTD/svg11.dtd">
<!-- Generated by graphviz version 9.0.0 (0)
 -->
<!-- Title: /home/ahussein/Documents/archive/opensourcesourcetrail.github.io/.ignore/src/src/lib/component/view/ViewFactory.h Pages: 1 -->
<!--zoomable 257 -->

<svg id="main" version="1.1" xmlns="http://www.w3.org/2000/svg" xmlns:xlink="http://www.w3.org/1999/xlink" xml:space="preserve" onload="init(evt)">
<style type="text/css"><![CDATA[
.node, .edge {opacity: 0.7;}
.node.selected, .edge.selected {opacity: 1;}
.edge:hover path { stroke: red; }
.edge:hover polygon { stroke: red; fill: red; }
]]></style>

<defs>
  <circle id="rim" cx="0" cy="0" r="7"/>
  <circle id="rim2" cx="0" cy="0" r="3.5"/>
  <g id="zoomPlus">
    <use xlink:href="#rim" fill="#404040"><set attributeName="fill" to="#808080" begin="zoomplus.mouseover" end="zoomplus.mouseout"/></use>
    <path d="M-4,0h8M0,-4v8" fill="none" stroke="white" stroke-width="1.5" pointer-events="none"/>
  </g>
  <g id="zoomMin">
    <use xlink:href="#rim" fill="#404040"><set attributeName="fill" to="#808080" begin="zoomminus.mouseover" end="zoomminus.mouseout"/></use>
    <path d="M-4,0h8" fill="none" stroke="white" stroke-width="1.5" pointer-events="none"/>
  </g>
  <g id="arrowUp" transform="translate(30 24)">
    <use xlink:href="#rim"/>
    <path pointer-events="none" fill="none" stroke="white" stroke-width="1.5" d="M0,-3.0v7 M-2.5,-0.5L0,-3.0L2.5,-0.5"/>
  </g>
  <g id="arrowRight" transform="rotate(90) translate(36 -43)">
    <use xlink:href="#rim"/>
    <path pointer-events="none" fill="none" stroke="white" stroke-width="1.5" d="M0,-3.0v7 M-2.5,-0.5L0,-3.0L2.5,-0.5"/>
  </g>
  <g id="arrowDown" transform="rotate(180) translate(-30 -48)">
    <use xlink:href="#rim"/>
    <path pointer-events="none" fill="none" stroke="white" stroke-width="1.5" d="M0,-3.0v7 M-2.5,-0.5L0,-3.0L2.5,-0.5"/>
  </g>
  <g id="arrowLeft" transform="rotate(270) translate(-36 17)">
    <use xlink:href="#rim"/>
    <path pointer-events="none" fill="none" stroke="white" stroke-width="1.5" d="M0,-3.0v7 M-2.5,-0.5L0,-3.0L2.5,-0.5"/>
  </g>
  <g id="resetDef">
    <use xlink:href="#rim2" fill="#404040"><set attributeName="fill" to="#808080" begin="reset.mouseover" end="reset.mouseout"/></use>
  </g>
</defs>
<script type="application/ecmascript">
var viewWidth = 1623;
var viewHeight = 257;
var sectionId = 'dynsection-1';
</script>
<script type="application/ecmascript" xlink:href="svg.min.js"/>
<svg id="graph" class="graph">
<g id="viewport">
<title>/home/ahussein/Documents/archive/opensourcesourcetrail.github.io/.ignore/src/src/lib/component/view/ViewFactory.h</title>
<!-- Node1 -->
<g id="Node000001" class="node">
<title>Node1</title>
<g id="a_Node000001"><a xlink:title=" ">
<polygon fill="#999999" stroke="#666666" points="768.75,-249 557,-249 557,-190 768.75,-190 768.75,-249"/>
<text text-anchor="start" x="565" y="-235.5" font-family="Helvetica,sans-Serif" font-size="10.00">/home/ahussein/Documents</text>
<text text-anchor="start" x="565" y="-222.75" font-family="Helvetica,sans-Serif" font-size="10.00">/archive/opensourcesourcetrail.github.io</text>
<text text-anchor="start" x="565" y="-210" font-family="Helvetica,sans-Serif" font-size="10.00">/.ignore/src/src/lib/component/view</text>
<text text-anchor="middle" x="662.88" y="-197.25" font-family="Helvetica,sans-Serif" font-size="10.00">/ViewFactory.h</text>
</a>
</g>
</g>
<!-- Node2 -->
<g id="Node000002" class="node">
<title>Node2</title>
<g id="a_Node000002"><a xlink:href="Application_8cpp.html" target="_top" xlink:title=" ">
<polygon fill="white" stroke="#666666" points="211.75,-147.62 0,-147.62 0,-101.38 211.75,-101.38 211.75,-147.62"/>
<text text-anchor="start" x="8" y="-134.12" font-family="Helvetica,sans-Serif" font-size="10.00">/home/ahussein/Documents</text>
<text text-anchor="start" x="8" y="-121.38" font-family="Helvetica,sans-Serif" font-size="10.00">/archive/opensourcesourcetrail.github.io</text>
<text text-anchor="middle" x="105.88" y="-108.62" font-family="Helvetica,sans-Serif" font-size="10.00">/.ignore/src/src/lib/app/Application.cpp</text>
</a>
</g>
</g>
<!-- Node1&#45;&gt;Node2 -->
<g id="edge1_Node000001_Node000002" class="edge">
<title>Node1&#45;&gt;Node2</title>
<g id="a_edge1_Node000001_Node000002"><a xlink:title=" ">
<path fill="none" stroke="#63b8ff" d="M545.29,-204.53C455.92,-193.14 330.15,-175.46 220.88,-154 211.89,-152.24 202.56,-150.22 193.27,-148.1"/>
<polygon fill="#63b8ff" stroke="#63b8ff" points="544.69,-207.98 555.05,-205.77 545.57,-201.04 544.69,-207.98"/>
</a>
</g>
</g>
<!-- Node3 -->
<g id="Node000003" class="node">
<title>Node3</title>
<g id="a_Node000003"><a xlink:href="ComponentFactory_8cpp.html" target="_top" xlink:title=" ">
<polygon fill="white" stroke="#666666" points="503.88,-147.62 229.88,-147.62 229.88,-101.38 503.88,-101.38 503.88,-147.62"/>
<text text-anchor="start" x="237.88" y="-134.12" font-family="Helvetica,sans-Serif" font-size="10.00">/home/ahussein/Documents</text>
<text text-anchor="start" x="237.88" y="-121.38" font-family="Helvetica,sans-Serif" font-size="10.00">/archive/opensourcesourcetrail.github.io</text>
<text text-anchor="middle" x="366.88" y="-108.62" font-family="Helvetica,sans-Serif" font-size="10.00">/.ignore/src/src/lib/component/ComponentFactory.cpp</text>
</a>
</g>
</g>
<!-- Node1&#45;&gt;Node3 -->
<g id="edge2_Node000001_Node000003" class="edge">
<title>Node1&#45;&gt;Node3</title>
<g id="a_edge2_Node000001_Node000003"><a xlink:title=" ">
<path fill="none" stroke="#63b8ff" d="M559.97,-186.17C519.94,-173.59 475.05,-159.49 438.64,-148.05"/>
<polygon fill="#63b8ff" stroke="#63b8ff" points="558.81,-189.47 569.4,-189.13 560.91,-182.79 558.81,-189.47"/>
</a>
</g>
</g>
<!-- Node4 -->
<g id="Node000004" class="node">
<title>Node4</title>
<g id="a_Node000004"><a xlink:href="ComponentManager_8cpp.html" target="_top" xlink:title=" ">
<polygon fill="white" stroke="#666666" points="804,-147.62 521.75,-147.62 521.75,-101.38 804,-101.38 804,-147.62"/>
<text text-anchor="start" x="529.75" y="-134.12" font-family="Helvetica,sans-Serif" font-size="10.00">/home/ahussein/Documents</text>
<text text-anchor="start" x="529.75" y="-121.38" font-family="Helvetica,sans-Serif" font-size="10.00">/archive/opensourcesourcetrail.github.io</text>
<text text-anchor="middle" x="662.88" y="-108.62" font-family="Helvetica,sans-Serif" font-size="10.00">/.ignore/src/src/lib/component/ComponentManager.cpp</text>
</a>
</g>
</g>
<!-- Node1&#45;&gt;Node4 -->
<g id="edge3_Node000001_Node000004" class="edge">
<title>Node1&#45;&gt;Node4</title>
<g id="a_edge3_Node000001_Node000004"><a xlink:title=" ">
<path fill="none" stroke="#63b8ff" d="M662.88,-178.16C662.88,-167.78 662.88,-156.99 662.88,-147.9"/>
<polygon fill="#63b8ff" stroke="#63b8ff" points="659.38,-178.07 662.88,-188.07 666.38,-178.07 659.38,-178.07"/>
</a>
</g>
</g>
<!-- Node5 -->
<g id="Node000005" class="node">
<title>Node5</title>
<g id="a_Node000005"><a xlink:href="MockedViewFactory_8hpp.html" target="_top" xlink:title=" ">
<polygon fill="white" stroke="#666666" points="1033.75,-154 822,-154 822,-95 1033.75,-95 1033.75,-154"/>
<text text-anchor="start" x="830" y="-140.5" font-family="Helvetica,sans-Serif" font-size="10.00">/home/ahussein/Documents</text>
<text text-anchor="start" x="830" y="-127.75" font-family="Helvetica,sans-Serif" font-size="10.00">/archive/opensourcesourcetrail.github.io</text>
<text text-anchor="start" x="830" y="-115" font-family="Helvetica,sans-Serif" font-size="10.00">/.ignore/src/src/lib/tests/mocks</text>
<text text-anchor="middle" x="927.88" y="-102.25" font-family="Helvetica,sans-Serif" font-size="10.00">/MockedViewFactory.hpp</text>
</a>
</g>
</g>
<!-- Node1&#45;&gt;Node5 -->
<g id="edge4_Node000001_Node000005" class="edge">
<title>Node1&#45;&gt;Node5</title>
<g id="a_edge4_Node000001_Node000005"><a xlink:title=" ">
<path fill="none" stroke="#63b8ff" d="M755.89,-185.86C785.1,-175.61 817.12,-164.37 845.53,-154.4"/>
<polygon fill="#63b8ff" stroke="#63b8ff" points="754.97,-182.47 746.7,-189.08 757.29,-189.07 754.97,-182.47"/>
</a>
</g>
</g>
<!-- Node11 -->
<g id="Node000011" class="node">
<title>Node11</title>
<g id="a_Node000011"><a xlink:href="QtViewFactory_8h.html" target="_top" xlink:title=" ">
<polygon fill="white" stroke="#666666" points="1498.75,-154 1287,-154 1287,-95 1498.75,-95 1498.75,-154"/>
<text text-anchor="start" x="1295" y="-140.5" font-family="Helvetica,sans-Serif" font-size="10.00">/home/ahussein/Documents</text>
<text text-anchor="start" x="1295" y="-127.75" font-family="Helvetica,sans-Serif" font-size="10.00">/archive/opensourcesourcetrail.github.io</text>
<text text-anchor="start" x="1295" y="-115" font-family="Helvetica,sans-Serif" font-size="10.00">/.ignore/src/src/lib_gui/qt/view</text>
<text text-anchor="middle" x="1392.88" y="-102.25" font-family="Helvetica,sans-Serif" font-size="10.00">/QtViewFactory.h</text>
</a>
</g>
</g>
<!-- Node1&#45;&gt;Node11 -->
<g id="edge10_Node000001_Node000011" class="edge">
<title>Node1&#45;&gt;Node11</title>
<g id="a_edge10_Node000001_Node000011"><a xlink:title=" ">
<path fill="none" stroke="#63b8ff" d="M780.18,-203.56C920.05,-185.74 1151.78,-156.21 1286.6,-139.04"/>
<polygon fill="#63b8ff" stroke="#63b8ff" points="780,-200.05 770.52,-204.79 780.89,-206.99 780,-200.05"/>
</a>
</g>
</g>
<!-- Node6 -->
<g id="Node000006" class="node">
<title>Node6</title>
<g id="a_Node000006"><a xlink:href="ComponentFactoryTestSuite_8cpp.html" target="_top" xlink:title=" ">
<polygon fill="white" stroke="#666666" points="428.12,-59 203.62,-59 203.62,0 428.12,0 428.12,-59"/>
<text text-anchor="start" x="211.62" y="-45.5" font-family="Helvetica,sans-Serif" font-size="10.00">/home/ahussein/Documents</text>
<text text-anchor="start" x="211.62" y="-32.75" font-family="Helvetica,sans-Serif" font-size="10.00">/archive/opensourcesourcetrail.github.io</text>
<text text-anchor="start" x="211.62" y="-20" font-family="Helvetica,sans-Serif" font-size="10.00">/.ignore/src/src/lib/tests/ComponentFactory</text>
<text text-anchor="middle" x="315.88" y="-7.25" font-family="Helvetica,sans-Serif" font-size="10.00">TestSuite.cpp</text>
</a>
</g>
</g>
<!-- Node5&#45;&gt;Node6 -->
<g id="edge5_Node000005_Node000006" class="edge">
<title>Node5&#45;&gt;Node6</title>
<g id="a_edge5_Node000005_Node000006"><a xlink:title=" ">
<path fill="none" stroke="#63b8ff" d="M810.73,-94.75C645.41,-67.55 598.96,-85.72 436.88,-59 434.11,-58.54 431.31,-58.06 428.49,-57.55"/>
<polygon fill="#63b8ff" stroke="#63b8ff" points="809.85,-98.15 820.3,-96.35 811.01,-91.25 809.85,-98.15"/>
</a>
</g>
</g>
<!-- Node7 -->
<g id="Node000007" class="node">
<title>Node7</title>
<g id="a_Node000007"><a xlink:href="ComponentManagerTestSuite_8cpp.html" target="_top" xlink:title=" ">
<polygon fill="white" stroke="#666666" points="677.5,-59 446.25,-59 446.25,0 677.5,0 677.5,-59"/>
<text text-anchor="start" x="454.25" y="-45.5" font-family="Helvetica,sans-Serif" font-size="10.00">/home/ahussein/Documents</text>
<text text-anchor="start" x="454.25" y="-32.75" font-family="Helvetica,sans-Serif" font-size="10.00">/archive/opensourcesourcetrail.github.io</text>
<text text-anchor="start" x="454.25" y="-20" font-family="Helvetica,sans-Serif" font-size="10.00">/.ignore/src/src/lib/tests/ComponentManager</text>
<text text-anchor="middle" x="561.88" y="-7.25" font-family="Helvetica,sans-Serif" font-size="10.00">TestSuite.cpp</text>
</a>
</g>
</g>
<!-- Node5&#45;&gt;Node7 -->
<g id="edge6_Node000005_Node000007" class="edge">
<title>Node5&#45;&gt;Node7</title>
<g id="a_edge6_Node000005_Node000007"><a xlink:title=" ">
<path fill="none" stroke="#63b8ff" d="M810.4,-93.65C767.31,-82.7 718.63,-70.33 675.84,-59.46"/>
<polygon fill="#63b8ff" stroke="#63b8ff" points="809.5,-97.03 820.05,-96.1 811.22,-90.25 809.5,-97.03"/>
</a>
</g>
</g>
<!-- Node8 -->
<g id="Node000008" class="node">
<title>Node8</title>
<g id="a_Node000008"><a xlink:href="StatusBarControllerTestSuite_8cpp.html" target="_top" xlink:title=" ">
<polygon fill="white" stroke="#666666" points="922.62,-59 695.12,-59 695.12,0 922.62,0 922.62,-59"/>
<text text-anchor="start" x="703.12" y="-45.5" font-family="Helvetica,sans-Serif" font-size="10.00">/home/ahussein/Documents</text>
<text text-anchor="start" x="703.12" y="-32.75" font-family="Helvetica,sans-Serif" font-size="10.00">/archive/opensourcesourcetrail.github.io</text>
<text text-anchor="start" x="703.12" y="-20" font-family="Helvetica,sans-Serif" font-size="10.00">/.ignore/src/src/lib/tests/StatusBarController</text>
<text text-anchor="middle" x="808.88" y="-7.25" font-family="Helvetica,sans-Serif" font-size="10.00">TestSuite.cpp</text>
</a>
</g>
</g>
<!-- Node5&#45;&gt;Node8 -->
<g id="edge7_Node000005_Node000008" class="edge">
<title>Node5&#45;&gt;Node8</title>
<g id="a_edge7_Node000005_Node000008"><a xlink:title=" ">
<path fill="none" stroke="#63b8ff" d="M881.93,-87.59C869.98,-78.26 857.27,-68.32 845.85,-59.4"/>
<polygon fill="#63b8ff" stroke="#63b8ff" points="879.65,-90.25 889.68,-93.65 883.96,-84.74 879.65,-90.25"/>
</a>
</g>
</g>
<!-- Node9 -->
<g id="Node000009" class="node">
<title>Node9</title>
<g id="a_Node000009"><a xlink:href="StatusControllerTestSuite_8cpp.html" target="_top" xlink:title=" ">
<polygon fill="white" stroke="#666666" points="1152.75,-59 941,-59 941,0 1152.75,0 1152.75,-59"/>
<text text-anchor="start" x="949" y="-45.5" font-family="Helvetica,sans-Serif" font-size="10.00">/home/ahussein/Documents</text>
<text text-anchor="start" x="949" y="-32.75" font-family="Helvetica,sans-Serif" font-size="10.00">/archive/opensourcesourcetrail.github.io</text>
<text text-anchor="start" x="949" y="-20" font-family="Helvetica,sans-Serif" font-size="10.00">/.ignore/src/src/lib/tests/StatusController</text>
<text text-anchor="middle" x="1046.88" y="-7.25" font-family="Helvetica,sans-Serif" font-size="10.00">TestSuite.cpp</text>
</a>
</g>
</g>
<!-- Node5&#45;&gt;Node9 -->
<g id="edge8_Node000005_Node000009" class="edge">
<title>Node5&#45;&gt;Node9</title>
<g id="a_edge8_Node000005_Node000009"><a xlink:title=" ">
<path fill="none" stroke="#63b8ff" d="M973.82,-87.59C985.77,-78.26 998.48,-68.32 1009.9,-59.4"/>
<polygon fill="#63b8ff" stroke="#63b8ff" points="971.79,-84.74 966.07,-93.65 976.1,-90.25 971.79,-84.74"/>
</a>
</g>
</g>
<!-- Node10 -->
<g id="Node000010" class="node">
<title>Node10</title>
<g id="a_Node000010"><a xlink:href="TabTestSuite_8cpp.html" target="_top" xlink:title=" ">
<polygon fill="white" stroke="#666666" points="1384.5,-52.62 1171.25,-52.62 1171.25,-6.38 1384.5,-6.38 1384.5,-52.62"/>
<text text-anchor="start" x="1179.25" y="-39.12" font-family="Helvetica,sans-Serif" font-size="10.00">/home/ahussein/Documents</text>
<text text-anchor="start" x="1179.25" y="-26.38" font-family="Helvetica,sans-Serif" font-size="10.00">/archive/opensourcesourcetrail.github.io</text>
<text text-anchor="middle" x="1277.88" y="-13.62" font-family="Helvetica,sans-Serif" font-size="10.00">/.ignore/src/src/lib/tests/TabTestSuite.cpp</text>
</a>
</g>
</g>
<!-- Node5&#45;&gt;Node10 -->
<g id="edge9_Node000005_Node000010" class="edge">
<title>Node5&#45;&gt;Node10</title>
<g id="a_edge9_Node000005_Node000010"><a xlink:title=" ">
<path fill="none" stroke="#63b8ff" d="M1044.7,-92.46C1093.14,-79.59 1148.29,-64.93 1192.79,-53.11"/>
<polygon fill="#63b8ff" stroke="#63b8ff" points="1044.06,-89.01 1035.3,-94.96 1045.86,-95.77 1044.06,-89.01"/>
</a>
</g>
</g>
<!-- Node12 -->
<g id="Node000012" class="node">
<title>Node12</title>
<g id="a_Node000012"><a xlink:href="QtViewFactory_8cpp.html" target="_top" xlink:title=" ">
<polygon fill="white" stroke="#666666" points="1614.75,-59 1403,-59 1403,0 1614.75,0 1614.75,-59"/>
<text text-anchor="start" x="1411" y="-45.5" font-family="Helvetica,sans-Serif" font-size="10.00">/home/ahussein/Documents</text>
<text text-anchor="start" x="1411" y="-32.75" font-family="Helvetica,sans-Serif" font-size="10.00">/archive/opensourcesourcetrail.github.io</text>
<text text-anchor="start" x="1411" y="-20" font-family="Helvetica,sans-Serif" font-size="10.00">/.ignore/src/src/lib_gui/qt/view</text>
<text text-anchor="middle" x="1508.88" y="-7.25" font-family="Helvetica,sans-Serif" font-size="10.00">/QtViewFactory.cpp</text>
</a>
</g>
</g>
<!-- Node11&#45;&gt;Node12 -->
<g id="edge11_Node000011_Node000012" class="edge">
<title>Node11&#45;&gt;Node12</title>
<g id="a_edge11_Node000011_Node000012"><a xlink:title=" ">
<path fill="none" stroke="#63b8ff" d="M1437.67,-87.59C1449.31,-78.26 1461.7,-68.32 1472.83,-59.4"/>
<polygon fill="#63b8ff" stroke="#63b8ff" points="1435.74,-84.65 1430.12,-93.64 1440.11,-90.11 1435.74,-84.65"/>
</a>
</g>
</g>
</g>
</svg>

<g id="navigator" transform="translate(0 0)" fill="#404254">
  <rect fill="#f2f5e9" fill-opacity="0.5" stroke="#606060" stroke-width=".5" x="0" y="0" width="60" height="60"/>
  <use id="zoomplus" xlink:href="#zoomPlus" x="17" y="9" onmousedown="handleZoom(evt,'in')"/>
  <use id="zoomminus" xlink:href="#zoomMin" x="42" y="9" onmousedown="handleZoom(evt,'out')"/>
  <use id="reset" xlink:href="#resetDef" x="30" y="36" onmousedown="handleReset()"/>
   <use id="arrowup" xlink:href="#arrowUp" x="0" y="0" onmousedown="handlePan(0,-1)"/>
  <use id="arrowright" xlink:href="#arrowRight" x="0" y="0" onmousedown="handlePan(1,0)"/>
  <use id="arrowdown" xlink:href="#arrowDown" x="0" y="0" onmousedown="handlePan(0,1)"/>
  <use id="arrowleft" xlink:href="#arrowLeft" x="0" y="0" onmousedown="handlePan(-1,0)"/>
</g>
<svg viewBox="0 0 15 15" width="100%" height="30px" preserveAspectRatio="xMaxYMin meet">
 <g id="arrow_out" transform="scale(0.3 0.3)">
  <a xlink:href="ViewFactory_8h__dep__incl_org.svg" target="_base">
   <rect id="button" ry="5" rx="5" y="6" x="6" height="38" width="38"
        fill="#f2f5e9" fill-opacity="0.5" stroke="#606060" stroke-width="1.0"/>
   <path id="arrow"
     d="M 11.500037,31.436501 C 11.940474,20.09759 22.043105,11.32322 32.158766,21.979434 L 37.068811,17.246167 C 37.068811,17.246167 37.088388,32 37.088388,32 L 22.160133,31.978069 C 22.160133,31.978069 26.997745,27.140456 26.997745,27.140456 C 18.528582,18.264221 13.291696,25.230495 11.500037,31.436501 z"
     style="fill:#404040;"/>
  </a>
 </g>
</svg>

<style type='text/css'>
<![CDATA[
[data-mouse-over-selected='false'] { opacity: 0.7; }
[data-mouse-over-selected='true']  { opacity: 1.0; }
]]>
</style>
<script type="application/ecmascript"><![CDATA[
document.addEventListener('DOMContentLoaded', (event) => {
  highlightEdges();
  highlightAdjacentNodes();
});
]]></script>
</svg>
